<svg xmlns="http://www.w3.org/2000/svg" id="graphic" width="961" height="634.6"><g id="facets"><g class="facet" transform="translate(15,20)" opacity="1"><text class="facet-title" y="0" font-size="16" font-weight="bold" dominant-baseline="middle" x="0" clip-path="url(#facet-clip-0)" fill="black"/><g class="plot"><clipPath class="facet-clip" id="facet-clip-0"><rect width="951" height="581.6" transform="translate(-7.5,-10)"/></clipPath><g class="bg"><rect fill="none" width="936" height="561.6" style="fill: none;"/></g><g class="interaction"><g class="series"><path data-target="point-0-0" d="M71.83411428571418,561.6L65.98988907142859,505.65527999999995L0,505.65527999999995L0,561.6Z" style="opacity: 0;"/><path data-target="point-0-1" d="M65.98988907142859,505.65527999999995L71.83411428571418,561.6L89.94967142857148,561.6L83.79809557142856,502.71312L68.78780442357143,502.71312Z" style="opacity: 0;"/><path data-target="point-0-2" d="M83.79809557142856,502.71312L89.94967142857148,561.6L110.07414364285715,561.6L101.21888164285713,499.57439999999997L87.15781508857143,499.57439999999997Z" style="opacity: 0;"/><path data-target="point-0-3" d="M101.21888164285713,499.57439999999997L110.07414364285715,561.6L127.97437064285718,561.6L119.13541593571428,496.51368L104.81058190714285,496.51368Z" style="opacity: 0;"/><path data-target="point-0-4" d="M119.13541593571428,496.51368L127.97437064285718,561.6L146.42574285714278,561.6L136.93122628571427,493.43424L122.94317099071428,493.43424Z" style="opacity: 0;"/><path data-target="point-0-5" d="M136.93122628571427,493.43424L146.42574285714278,561.6L164.2744731428573,561.6L154.79394977142854,489.95232L141.47550494857143,489.95232Z" style="opacity: 0;"/><path data-target="point-0-6" d="M154.79394977142854,489.95232L164.2744731428573,561.6L183.37998399999992,561.6L172.3959304,486.49535999999995L159.71011727999996,486.49536Z" style="opacity: 0;"/><path data-target="point-0-7" d="M172.3959304,486.49535999999995L183.37998399999992,561.6L201.2287142857142,561.6L190.22536571428572,482.6016L178.35088006857143,482.60159999999996Z" style="opacity: 0;"/><path data-target="point-0-8" d="M190.22536571428572,482.6016L201.2287142857142,561.6L221.86478571428574,561.6L207.4907925,479.04168L196.20031001428572,479.04168Z" style="opacity: 0;"/><path data-target="point-0-9" d="M207.4907925,479.04168L221.86478571428574,561.6L240.32799999999997,561.6L225.25760607142854,475.04184L214.53976053,475.04184Z" style="opacity: 0;"/><path data-target="point-0-10" d="M225.25760607142854,475.04184L240.32799999999997,561.6L268.0122767857144,561.6L241.08867553571426,470.6364L233.45396652571426,470.6364Z" style="opacity: 0;"/><path data-target="point-0-11" d="M241.08867553571426,470.6364L268.0122767857144,561.6L286.07622857142843,561.6L259.0441474285714,464.56175999999994L252.52174463214283,464.56175999999994Z" style="opacity: 0;"/><path data-target="point-0-12" d="M259.0441474285714,464.56175999999994L286.07622857142843,561.6L305.38685714285725,561.6L276.4583062857143,457.75392L272.56123531714286,457.75392Z" style="opacity: 0;"/><path data-target="point-0-13" d="M276.4583062857143,457.75392L305.38685714285725,561.6L337.6477142857143,561.6L291.42713171428574,450.98663999999997L291.2663233685714,450.98663999999997Z" style="opacity: 0;"/><path data-target="point-0-14" d="M291.42713171428574,450.98663999999997L337.6477142857143,561.6L362.24925000000025,561.6L308.6976839761843,443.30068255093977Z" style="opacity: 0;"/><path data-target="point-0-15" d="M308.6976839761843,443.30068255093977L362.24925000000025,561.6L395.4770285714284,561.6L325.2981394866589,435.63789138631086L309.195648440608,442.7456459527375Z" style="opacity: 0;"/><path data-target="point-0-16" d="M325.2981394866589,435.63789138631086L395.4770285714284,561.6L426.1160714285714,561.6L391.10911133004925,494.5781276746242L341.98863082919905,426.7589238272965L327.0696718353816,433.56390952154095Z" style="opacity: 0;"/><path data-target="point-0-17" d="M341.98863082919905,426.7589238272965L391.10911133004925,494.5781276746242L365.09912022857145,413.38752L363.19886586285713,413.38752L345.34646877980947,422.1844353041081Z" style="opacity: 0;"/><path data-target="point-0-18" d="M365.09912022857145,413.38752L391.10911133004925,494.5781276746242L426.1160714285714,561.6L455.4514000000003,561.6L379.9592968179959,406.7444037292224Z" style="opacity: 0;"/><path data-target="point-0-19" d="M379.9592968179959,406.7444037292224L455.4514000000003,561.6L472.469664285714,561.6L398.4833657261243,398.1588670872962L380.07538464912574,406.6116885866601Z" style="opacity: 0;"/><path data-target="point-0-20" d="M398.4833657261243,398.1588670872962L472.469664285714,561.6L492.95299014285723,561.6L476.9065542445045,519.3228694280051L415.9378871167078,389.6269393555799L399.635738505532,396.8228241973894Z" style="opacity: 0;"/><path data-target="point-0-21" d="M415.9378871167078,389.6269393555799L476.9065542445045,519.3228694280051L436.8292371785714,380.65559999999994L434.79450685714284,380.65559999999994L416.9973678074765,388.4467177828433Z" style="opacity: 0;"/><path data-target="point-0-22" d="M436.8292371785714,380.65559999999994L476.9065542445045,519.3228694280051L492.95299014285723,561.6L510.8655000714282,561.6L454.19551712857145,374.53728L451.8811237964285,374.53728Z" style="opacity: 0;"/><path data-target="point-0-23" d="M454.19551712857145,374.53728L510.8655000714282,561.6L541.2679125000002,561.6L470.730777,368.67792L469.14284911999994,368.67792Z" style="opacity: 0;"/><path data-target="point-0-24" d="M470.730777,368.67792L541.2679125000002,561.6L545.9796571428575,561.6L491.27406742857136,365.22096L479.49898565142854,365.22096Z" style="opacity: 0;"/><path data-target="point-0-25" d="M491.27406742857136,365.22096L545.9796571428575,561.6L558.9129499999998,561.6L509.39299250000005,358.4412L506.7184817757143,358.4412Z" style="opacity: 0;"/><path data-target="point-0-26" d="M509.39299250000005,358.4412L558.9129499999998,561.6L574.6410803571428,561.6L527.5199028214286,353.41175999999996L522.0287869142857,353.41175999999996Z" style="opacity: 0;"/><path data-target="point-0-27" d="M527.5199028214286,353.41175999999996L574.6410803571428,561.6L618.5553316190875,561.6L542.9703857889089,349.7988L536.9265990257143,349.7988Z" style="opacity: 0;"/><path data-target="point-0-28" d="M542.9703857889089,349.7988L618.5553316190875,561.6L691.2136010469313,561.6L557.047587818427,343.99047164535386Z" style="opacity: 0;"/><path data-target="point-0-29" d="M557.047587818427,343.99047164535386L691.2136010469313,561.6L723.547196967075,561.6L575.5785476239608,334.5802284592538L558.4311339581091,342.45922014892295Z" style="opacity: 0;"/><path data-target="point-0-30" d="M575.5785476239608,334.5802284592538L723.547196967075,561.6L757.575276952775,561.6L593.5183648871033,323.5061034034228L578.5816952837262,330.6405341080786Z" style="opacity: 0;"/><path data-target="point-0-31" d="M593.5183648871033,323.5061034034228L757.575276952775,561.6L793.4986990854621,561.6L611.5420193364939,311.8080702451559L596.4152940549833,319.3810709238564Z" style="opacity: 0;"/><path data-target="point-0-32" d="M611.5420193364939,311.8080702451559L793.4986990854621,561.6L831.5386699432971,561.6L629.6542238041854,299.4370499864698L614.1915259051469,307.6324022178614Z" style="opacity: 0;"/><path data-target="point-0-33" d="M629.6542238041854,299.4370499864698L831.5386699432971,561.6L871.9441189523849,561.6L647.8538305188732,286.33530042243376L631.9135020229255,295.3906730017721Z" style="opacity: 0;"/><path data-target="point-0-34" d="M647.8538305188732,286.33530042243376L871.9441189523849,561.6L914.993041053461,561.6L666.1293411076988,272.43276086136075L649.5922579311707,282.6608601594307Z" style="opacity: 0;"/><path data-target="point-0-35" d="M666.1293411076988,272.43276086136075L914.993041053461,561.6L936,561.6L936,534.1230961240885L684.4514230342741,257.6417830309982L667.2520874732796,269.4633435857944Z" style="opacity: 0;"/><path data-target="point-0-36" d="M684.4514230342741,257.6417830309982L936,534.1230961240885L936,484.3448451606989L702.781023683072,241.869888L702.7319159840671,241.869888L684.941285578464,255.84442303166117Z" style="opacity: 0;"/><path data-target="point-0-37" d="M702.781023683072,241.869888L936,484.3448451606989L936,436.3999354885642L722.2378493273284,226.17101499999998L719.5747152360263,226.17101499999998Z" style="opacity: 0;"/><path data-target="point-0-38" d="M722.2378493273284,226.17101499999998L936,436.3999354885642L936,390.02808584406813L742.1413522719888,209.682814L736.1408881110308,209.68281399999998Z" style="opacity: 0;"/><path data-target="point-0-39" d="M742.1413522719888,209.682814L936,390.02808584406813L936,344.98043148688464L762.5710051044832,192.36462949999998L752.3880929516926,192.36462949999998Z" style="opacity: 0;"/><path data-target="point-0-40" d="M762.5710051044832,192.36462949999998L936,344.98043148688464L936,301.0176043077904L783.6183800618094,174.17375049999998L768.2684127700676,174.17375049999998Z" style="opacity: 0;"/><path data-target="point-0-41" d="M783.6183800618094,174.17375049999998L936,301.0176043077904L936,257.9083377538193L805.3888972378767,155.065248L783.7277698406858,155.065248Z" style="opacity: 0;"/><path data-target="point-0-42" d="M798.7050988835309,134.9917295L805.3888972378767,155.065248L936,257.9083377538193L936,215.4300277473584L828.0035901492846,134.99172950000002Z" style="opacity: 0;"/><path data-target="point-0-43" d="M813.1316795693929,113.903431L828.0035901492846,134.99172950000002L936,215.4300277473584L936,176.98053542183192L850.2680952985867,113.903431Z" style="opacity: 0;"/><path data-target="point-0-44" d="M724.76306915483,0L826.9299292982288,91.74784299999999L865.5609042439165,91.74784299999999L841.4137750392546,68.46977299999999L738.6762714450184,0Z" style="opacity: 0;"/><path data-target="point-0-45" d="M738.6762714450184,0L841.4137750392546,68.46977299999999L880.2509302478439,68.469773L863.6100902581622,44.0110945L793.7974081043449,0Z" style="opacity: 0;"/><path data-target="point-0-46" d="M793.7974081043449,0L863.6100902581622,44.0110945L936,44.0110945L936,0Z" style="opacity: 0;"/><path data-target="point-1-0" d="M0,505.65527999999995L65.98988907142859,505.65527999999995L68.78780442357143,502.71312L0,195.49000338158373Z" style="opacity: 0;"/><path data-target="point-1-1" d="M0,195.49000338158373L68.78780442357143,502.71312L83.79809557142856,502.71312L87.15781508857143,499.57439999999997L0,145.04271953512034Z" style="opacity: 0;"/><path data-target="point-1-2" d="M0,145.04271953512034L87.15781508857143,499.57439999999997L101.21888164285713,499.57439999999997L104.81058190714285,496.51368L6.08858958642854,0L0,0Z" style="opacity: 0;"/><path data-target="point-1-3" d="M6.08858958642854,0L104.81058190714285,496.51368L119.13541593571428,496.51368L122.94317099071428,493.43424L25.614856854769783,25.24838838183257L19.843007641071104,0Z" style="opacity: 0;"/><path data-target="point-1-4" d="M25.614856854769783,25.24838838183257L122.94317099071428,493.43424L136.93122628571427,493.43424L141.47550494857143,489.95232Z" style="opacity: 0;"/><path data-target="point-1-5" d="M19.843007641071104,0L25.614856854769783,25.24838838183257L141.47550494857143,489.95232L154.79394977142854,489.95232L159.71011727999996,486.49536L36.383543520000785,0Z" style="opacity: 0;"/><path data-target="point-1-6" d="M36.383543520000785,0L159.71011727999996,486.49536L172.3959304,486.49535999999995L178.35088006857143,482.60159999999996L39.20649732571425,0Z" style="opacity: 0;"/><path data-target="point-1-7" d="M39.20649732571425,0L178.35088006857143,482.60159999999996L190.22536571428572,482.6016L196.20031001428572,479.04168L72.59472510071365,0Z" style="opacity: 0;"/><path data-target="point-1-8" d="M72.59472510071365,0L196.20031001428572,479.04168L207.4907925,479.04168L214.53976053,475.04184L118.27555564022735,121.52387332498807L74.12902480982152,0Z" style="opacity: 0;"/><path data-target="point-1-9" d="M118.27555564022735,121.52387332498807L214.53976053,475.04184L225.25760607142854,475.04184L233.45396652571426,470.6364L140.59013238939124,178.2176690264231Z" style="opacity: 0;"/><path data-target="point-1-10" d="M140.59013238939124,178.2176690264231L233.45396652571426,470.6364L241.08867553571426,470.6364L252.52174463214283,464.56175999999994L162.77697480153833,229.62231627170345Z" style="opacity: 0;"/><path data-target="point-1-11" d="M162.77697480153833,229.62231627170345L252.52174463214283,464.56175999999994L259.0441474285714,464.56175999999994L272.56123531714286,457.75392Z" style="opacity: 0;"/><path data-target="point-1-12" d="M74.12902480982152,0L118.27555564022735,121.52387332498807L140.59013238939124,178.2176690264231L162.77697480153833,229.62231627170345L272.56123531714286,457.75392L276.4583062857143,457.75392L291.2663233685714,450.98663999999997L76.27857608071358,0Z" style="opacity: 0;"/><path data-target="point-1-13" d="M76.27857608071358,0L291.2663233685714,450.98663999999997L291.42713171428574,450.98663999999997L308.6976839761843,443.30068255093977L309.195648440608,442.7456459527375L100.60315290500131,0Z" style="opacity: 0;"/><path data-target="point-1-14" d="M100.60315290500131,0L309.195648440608,442.7456459527375L325.2981394866589,435.63789138631086L327.0696718353816,433.56390952154095L172.63979733409852,114.50569251095942L112.79114792428545,-1.4210854715202004e-14Z" style="opacity: 0;"/><path data-target="point-1-15" d="M172.63979733409852,114.50569251095942L327.0696718353816,433.56390952154095L341.98863082919905,426.7589238272965L345.34646877980947,422.1844353041081Z" style="opacity: 0;"/><path data-target="point-1-16" d="M112.79114792428545,-1.4210854715202004e-14L172.63979733409852,114.50569251095942L345.34646877980947,422.1844353041081L363.19886586285713,413.38752L144.97454682285766,0Z" style="opacity: 0;"/><path data-target="point-1-17" d="M144.97454682285766,0L363.19886586285713,413.38752L365.09912022857145,413.38752L379.9592968179959,406.7444037292224L380.07538464912574,406.6116885866601L285.14942470913735,184.9792617932756L195.551746378571,2.842170943040401e-14Z" style="opacity: 0;"/><path data-target="point-1-18" d="M285.14942470913735,184.9792617932756L380.07538464912574,406.6116885866601L398.4833657261243,398.1588670872962L399.635738505532,396.8228241973894Z" style="opacity: 0;"/><path data-target="point-1-19" d="M195.551746378571,2.842170943040401e-14L285.14942470913735,184.9792617932756L399.635738505532,396.8228241973894L415.9378871167078,389.6269393555799L416.9973678074765,388.4467177828433L227.08854210285705,0Z" style="opacity: 0;"/><path data-target="point-1-20" d="M227.08854210285705,0L416.9973678074765,388.4467177828433L434.79450685714284,380.65559999999994L257.8406335178568,0Z" style="opacity: 0;"/><path data-target="point-1-21" d="M257.8406335178568,0L434.79450685714284,380.65559999999994L436.8292371785714,380.65559999999994L451.8811237964285,374.53728L304.3769730507147,0Z" style="opacity: 0;"/><path data-target="point-1-22" d="M304.3769730507147,0L451.8811237964285,374.53728L454.19551712857145,374.53728L469.14284911999994,368.67792L339.73689920000015,0Z" style="opacity: 0;"/><path data-target="point-1-23" d="M339.73689920000015,0L469.14284911999994,368.67792L470.730777,368.67792L479.49898565142854,365.22096L478.155463627195,298.6982072528031L403.7356053746427,0Z" style="opacity: 0;"/><path data-target="point-1-24" d="M478.155463627195,298.6982072528031L479.49898565142854,365.22096L491.27406742857136,365.22096L506.7184817757143,358.4412Z" style="opacity: 0;"/><path data-target="point-1-25" d="M403.7356053746427,0L478.155463627195,298.6982072528031L506.7184817757143,358.4412L509.39299250000005,358.4412L522.0287869142857,353.41175999999996L409.79530941714336,0Z" style="opacity: 0;"/><path data-target="point-1-26" d="M409.79530941714336,0L522.0287869142857,353.41175999999996L527.5199028214286,353.41175999999996L536.9265990257143,349.7988L514.6605151070792,223.9255212352544L511.71205275404725,213.12845989970634L475.22633557023846,114.97865841873895L430.54685500534686,10.348936882303917L425.7328573610347,0Z" style="opacity: 0;"/><path data-target="point-1-27" d="M514.6605151070792,223.9255212352544L536.9265990257143,349.7988L542.9703857889089,349.7988L557.047587818427,343.99047164535386L558.4311339581091,342.45922014892295Z" style="opacity: 0;"/><path data-target="point-1-28" d="M511.71205275404725,213.12845989970634L514.6605151070792,223.9255212352544L558.4311339581091,342.45922014892295L575.5785476239608,334.5802284592538L578.5816952837262,330.6405341080786Z" style="opacity: 0;"/><path data-target="point-1-29" d="M475.22633557023846,114.97865841873895L511.71205275404725,213.12845989970634L578.5816952837262,330.6405341080786L593.5183648871033,323.5061034034228L596.4152940549833,319.3810709238564Z" style="opacity: 0;"/><path data-target="point-1-30" d="M430.54685500534686,10.348936882303917L475.22633557023846,114.97865841873895L596.4152940549833,319.3810709238564L611.5420193364939,311.8080702451559L614.1915259051469,307.6324022178614Z" style="opacity: 0;"/><path data-target="point-1-31" d="M425.7328573610347,0L430.54685500534686,10.348936882303917L614.1915259051469,307.6324022178614L629.6542238041854,299.4370499864698L631.9135020229255,295.3906730017721L441.7925812090334,0Z" style="opacity: 0;"/><path data-target="point-1-32" d="M441.7925812090334,0L631.9135020229255,295.3906730017721L647.8538305188732,286.33530042243376L649.5922579311707,282.6608601594307L460.03945922414755,0Z" style="opacity: 0;"/><path data-target="point-1-33" d="M460.03945922414755,0L649.5922579311707,282.6608601594307L666.1293411076988,272.43276086136075L667.2520874732796,269.4633435857944L478.9764553860887,0Z" style="opacity: 0;"/><path data-target="point-1-34" d="M478.9764553860887,0L667.2520874732796,269.4633435857944L684.4514230342741,257.6417830309982L684.941285578464,255.84442303166117L498.6907002278832,0Z" style="opacity: 0;"/><path data-target="point-1-35" d="M498.6907002278832,0L684.941285578464,255.84442303166117L702.7319159840671,241.869888L519.275832974656,0Z" style="opacity: 0;"/><path data-target="point-1-36" d="M519.275832974656,0L702.7319159840671,241.869888L702.781023683072,241.869888L719.5747152360263,226.17101499999998L540.8364445283207,0Z" style="opacity: 0;"/><path data-target="point-1-37" d="M540.8364445283207,0L719.5747152360263,226.17101499999998L722.2378493273284,226.17101499999998L736.1408881110308,209.68281399999998L563.4892291684205,0Z" style="opacity: 0;"/><path data-target="point-1-38" d="M563.4892291684205,0L736.1408881110308,209.68281399999998L742.1413522719888,209.682814L752.3880929516926,192.36462949999998L587.3579942451418,0Z" style="opacity: 0;"/><path data-target="point-1-39" d="M587.3579942451418,0L752.3880929516926,192.36462949999998L762.5710051044832,192.36462949999998L768.2684127700676,174.17375049999998L612.5822242143923,0Z" style="opacity: 0;"/><path data-target="point-1-40" d="M612.5822242143923,0L768.2684127700676,174.17375049999998L783.6183800618094,174.17375049999998L783.7277698406858,155.065248L639.3134795307399,0Z" style="opacity: 0;"/><path data-target="point-1-41" d="M639.3134795307399,0L783.7277698406858,155.065248L805.3888972378767,155.065248L798.7050988835309,134.9917295L667.7166349982883,0Z" style="opacity: 0;"/><path data-target="point-1-42" d="M667.7166349982883,0L798.7050988835309,134.9917295L828.0035901492846,134.99172950000002L813.1316795693929,113.903431L697.9747006314415,0Z" style="opacity: 0;"/><path data-target="point-1-43" d="M697.9747006314415,0L813.1316795693929,113.903431L850.2680952985867,113.903431L826.9299292982288,91.74784299999999L724.76306915483,0Z" style="opacity: 0;"/><path data-target="point-1-44" d="M826.9299292982288,91.74784299999999L850.2680952985867,113.903431L936,176.98053542183192L936,155.92812885313003L865.5609042439165,91.74784299999999Z" style="opacity: 0;"/><path data-target="point-1-45" d="M841.4137750392546,68.46977299999999L865.5609042439165,91.74784299999999L936,155.92812885313003L936,117.22230249489124L880.2509302478439,68.469773Z" style="opacity: 0;"/><path data-target="point-1-46" d="M863.6100902581622,44.0110945L880.2509302478439,68.469773L936,117.22230249489124L936,44.0110945Z" style="opacity: 0;"/></g><g class="series"><path data-target="point-0-0" d="M71.83411428571418,561.6L65.98988907142859,505.65527999999995L0,505.65527999999995L0,561.6Z" style="opacity: 0;"/><path data-target="point-0-1" d="M65.98988907142859,505.65527999999995L71.83411428571418,561.6L89.94967142857148,561.6L83.79809557142856,502.71312L68.78780442357143,502.71312Z" style="opacity: 0;"/><path data-target="point-0-2" d="M83.79809557142856,502.71312L89.94967142857148,561.6L110.07414364285715,561.6L101.21888164285713,499.57439999999997L87.15781508857143,499.57439999999997Z" style="opacity: 0;"/><path data-target="point-0-3" d="M101.21888164285713,499.57439999999997L110.07414364285715,561.6L127.97437064285718,561.6L119.13541593571428,496.51368L104.81058190714285,496.51368Z" style="opacity: 0;"/><path data-target="point-0-4" d="M119.13541593571428,496.51368L127.97437064285718,561.6L146.42574285714278,561.6L136.93122628571427,493.43424L122.94317099071428,493.43424Z" style="opacity: 0;"/><path data-target="point-0-5" d="M136.93122628571427,493.43424L146.42574285714278,561.6L164.2744731428573,561.6L154.79394977142854,489.95232L141.47550494857143,489.95232Z" style="opacity: 0;"/><path data-target="point-0-6" d="M154.79394977142854,489.95232L164.2744731428573,561.6L183.37998399999992,561.6L172.3959304,486.49535999999995L159.71011727999996,486.49536Z" style="opacity: 0;"/><path data-target="point-0-7" d="M172.3959304,486.49535999999995L183.37998399999992,561.6L201.2287142857142,561.6L190.22536571428572,482.6016L178.35088006857143,482.60159999999996Z" style="opacity: 0;"/><path data-target="point-0-8" d="M190.22536571428572,482.6016L201.2287142857142,561.6L221.86478571428574,561.6L207.4907925,479.04168L196.20031001428572,479.04168Z" style="opacity: 0;"/><path data-target="point-0-9" d="M207.4907925,479.04168L221.86478571428574,561.6L240.32799999999997,561.6L225.25760607142854,475.04184L214.53976053,475.04184Z" style="opacity: 0;"/><path data-target="point-0-10" d="M225.25760607142854,475.04184L240.32799999999997,561.6L268.0122767857144,561.6L241.08867553571426,470.6364L233.45396652571426,470.6364Z" style="opacity: 0;"/><path data-target="point-0-11" d="M241.08867553571426,470.6364L268.0122767857144,561.6L286.07622857142843,561.6L259.0441474285714,464.56175999999994L252.52174463214283,464.56175999999994Z" style="opacity: 0;"/><path data-target="point-0-12" d="M259.0441474285714,464.56175999999994L286.07622857142843,561.6L305.38685714285725,561.6L276.4583062857143,457.75392L272.56123531714286,457.75392Z" style="opacity: 0;"/><path data-target="point-0-13" d="M276.4583062857143,457.75392L305.38685714285725,561.6L337.6477142857143,561.6L291.42713171428574,450.98663999999997L291.2663233685714,450.98663999999997Z" style="opacity: 0;"/><path data-target="point-0-14" d="M291.42713171428574,450.98663999999997L337.6477142857143,561.6L362.24925000000025,561.6L308.6976839761843,443.30068255093977Z" style="opacity: 0;"/><path data-target="point-0-15" d="M308.6976839761843,443.30068255093977L362.24925000000025,561.6L395.4770285714284,561.6L325.2981394866589,435.63789138631086L309.195648440608,442.7456459527375Z" style="opacity: 0;"/><path data-target="point-0-16" d="M325.2981394866589,435.63789138631086L395.4770285714284,561.6L426.1160714285714,561.6L391.10911133004925,494.5781276746242L341.98863082919905,426.7589238272965L327.0696718353816,433.56390952154095Z" style="opacity: 0;"/><path data-target="point-0-17" d="M341.98863082919905,426.7589238272965L391.10911133004925,494.5781276746242L365.09912022857145,413.38752L363.19886586285713,413.38752L345.34646877980947,422.1844353041081Z" style="opacity: 0;"/><path data-target="point-0-18" d="M365.09912022857145,413.38752L391.10911133004925,494.5781276746242L426.1160714285714,561.6L455.4514000000003,561.6L379.9592968179959,406.7444037292224Z" style="opacity: 0;"/><path data-target="point-0-19" d="M379.9592968179959,406.7444037292224L455.4514000000003,561.6L472.469664285714,561.6L398.4833657261243,398.1588670872962L380.07538464912574,406.6116885866601Z" style="opacity: 0;"/><path data-target="point-0-20" d="M398.4833657261243,398.1588670872962L472.469664285714,561.6L492.95299014285723,561.6L476.9065542445045,519.3228694280051L415.9378871167078,389.6269393555799L399.635738505532,396.8228241973894Z" style="opacity: 0;"/><path data-target="point-0-21" d="M415.9378871167078,389.6269393555799L476.9065542445045,519.3228694280051L436.8292371785714,380.65559999999994L434.79450685714284,380.65559999999994L416.9973678074765,388.4467177828433Z" style="opacity: 0;"/><path data-target="point-0-22" d="M436.8292371785714,380.65559999999994L476.9065542445045,519.3228694280051L492.95299014285723,561.6L510.8655000714282,561.6L454.19551712857145,374.53728L451.8811237964285,374.53728Z" style="opacity: 0;"/><path data-target="point-0-23" d="M454.19551712857145,374.53728L510.8655000714282,561.6L541.2679125000002,561.6L470.730777,368.67792L469.14284911999994,368.67792Z" style="opacity: 0;"/><path data-target="point-0-24" d="M470.730777,368.67792L541.2679125000002,561.6L545.9796571428575,561.6L491.27406742857136,365.22096L479.49898565142854,365.22096Z" style="opacity: 0;"/><path data-target="point-0-25" d="M491.27406742857136,365.22096L545.9796571428575,561.6L558.9129499999998,561.6L509.39299250000005,358.4412L506.7184817757143,358.4412Z" style="opacity: 0;"/><path data-target="point-0-26" d="M509.39299250000005,358.4412L558.9129499999998,561.6L574.6410803571428,561.6L527.5199028214286,353.41175999999996L522.0287869142857,353.41175999999996Z" style="opacity: 0;"/><path data-target="point-0-27" d="M527.5199028214286,353.41175999999996L574.6410803571428,561.6L618.5553316190875,561.6L542.9703857889089,349.7988L536.9265990257143,349.7988Z" style="opacity: 0;"/><path data-target="point-0-28" d="M542.9703857889089,349.7988L618.5553316190875,561.6L691.2136010469313,561.6L557.047587818427,343.99047164535386Z" style="opacity: 0;"/><path data-target="point-0-29" d="M557.047587818427,343.99047164535386L691.2136010469313,561.6L723.547196967075,561.6L575.5785476239608,334.5802284592538L558.4311339581091,342.45922014892295Z" style="opacity: 0;"/><path data-target="point-0-30" d="M575.5785476239608,334.5802284592538L723.547196967075,561.6L757.575276952775,561.6L593.5183648871033,323.5061034034228L578.5816952837262,330.6405341080786Z" style="opacity: 0;"/><path data-target="point-0-31" d="M593.5183648871033,323.5061034034228L757.575276952775,561.6L793.4986990854621,561.6L611.5420193364939,311.8080702451559L596.4152940549833,319.3810709238564Z" style="opacity: 0;"/><path data-target="point-0-32" d="M611.5420193364939,311.8080702451559L793.4986990854621,561.6L831.5386699432971,561.6L629.6542238041854,299.4370499864698L614.1915259051469,307.6324022178614Z" style="opacity: 0;"/><path data-target="point-0-33" d="M629.6542238041854,299.4370499864698L831.5386699432971,561.6L871.9441189523849,561.6L647.8538305188732,286.33530042243376L631.9135020229255,295.3906730017721Z" style="opacity: 0;"/><path data-target="point-0-34" d="M647.8538305188732,286.33530042243376L871.9441189523849,561.6L914.993041053461,561.6L666.1293411076988,272.43276086136075L649.5922579311707,282.6608601594307Z" style="opacity: 0;"/><path data-target="point-0-35" d="M666.1293411076988,272.43276086136075L914.993041053461,561.6L936,561.6L936,534.1230961240885L684.4514230342741,257.6417830309982L667.2520874732796,269.4633435857944Z" style="opacity: 0;"/><path data-target="point-0-36" d="M684.4514230342741,257.6417830309982L936,534.1230961240885L936,484.3448451606989L702.781023683072,241.869888L702.7319159840671,241.869888L684.941285578464,255.84442303166117Z" style="opacity: 0;"/><path data-target="point-0-37" d="M702.781023683072,241.869888L936,484.3448451606989L936,436.3999354885642L722.2378493273284,226.17101499999998L719.5747152360263,226.17101499999998Z" style="opacity: 0;"/><path data-target="point-0-38" d="M722.2378493273284,226.17101499999998L936,436.3999354885642L936,390.02808584406813L742.1413522719888,209.682814L736.1408881110308,209.68281399999998Z" style="opacity: 0;"/><path data-target="point-0-39" d="M742.1413522719888,209.682814L936,390.02808584406813L936,344.98043148688464L762.5710051044832,192.36462949999998L752.3880929516926,192.36462949999998Z" style="opacity: 0;"/><path data-target="point-0-40" d="M762.5710051044832,192.36462949999998L936,344.98043148688464L936,301.0176043077904L783.6183800618094,174.17375049999998L768.2684127700676,174.17375049999998Z" style="opacity: 0;"/><path data-target="point-0-41" d="M783.6183800618094,174.17375049999998L936,301.0176043077904L936,257.9083377538193L805.3888972378767,155.065248L783.7277698406858,155.065248Z" style="opacity: 0;"/><path data-target="point-0-42" d="M798.7050988835309,134.9917295L805.3888972378767,155.065248L936,257.9083377538193L936,215.4300277473584L828.0035901492846,134.99172950000002Z" style="opacity: 0;"/><path data-target="point-0-43" d="M813.1316795693929,113.903431L828.0035901492846,134.99172950000002L936,215.4300277473584L936,176.98053542183192L850.2680952985867,113.903431Z" style="opacity: 0;"/><path data-target="point-0-44" d="M724.76306915483,0L826.9299292982288,91.74784299999999L865.5609042439165,91.74784299999999L841.4137750392546,68.46977299999999L738.6762714450184,0Z" style="opacity: 0;"/><path data-target="point-0-45" d="M738.6762714450184,0L841.4137750392546,68.46977299999999L880.2509302478439,68.469773L863.6100902581622,44.0110945L793.7974081043449,0Z" style="opacity: 0;"/><path data-target="point-0-46" d="M793.7974081043449,0L863.6100902581622,44.0110945L936,44.0110945L936,0Z" style="opacity: 0;"/><path data-target="point-1-0" d="M0,505.65527999999995L65.98988907142859,505.65527999999995L68.78780442357143,502.71312L0,195.49000338158373Z" style="opacity: 0;"/><path data-target="point-1-1" d="M0,195.49000338158373L68.78780442357143,502.71312L83.79809557142856,502.71312L87.15781508857143,499.57439999999997L0,145.04271953512034Z" style="opacity: 0;"/><path data-target="point-1-2" d="M0,145.04271953512034L87.15781508857143,499.57439999999997L101.21888164285713,499.57439999999997L104.81058190714285,496.51368L6.08858958642854,0L0,0Z" style="opacity: 0;"/><path data-target="point-1-3" d="M6.08858958642854,0L104.81058190714285,496.51368L119.13541593571428,496.51368L122.94317099071428,493.43424L25.614856854769783,25.24838838183257L19.843007641071104,0Z" style="opacity: 0;"/><path data-target="point-1-4" d="M25.614856854769783,25.24838838183257L122.94317099071428,493.43424L136.93122628571427,493.43424L141.47550494857143,489.95232Z" style="opacity: 0;"/><path data-target="point-1-5" d="M19.843007641071104,0L25.614856854769783,25.24838838183257L141.47550494857143,489.95232L154.79394977142854,489.95232L159.71011727999996,486.49536L36.383543520000785,0Z" style="opacity: 0;"/><path data-target="point-1-6" d="M36.383543520000785,0L159.71011727999996,486.49536L172.3959304,486.49535999999995L178.35088006857143,482.60159999999996L39.20649732571425,0Z" style="opacity: 0;"/><path data-target="point-1-7" d="M39.20649732571425,0L178.35088006857143,482.60159999999996L190.22536571428572,482.6016L196.20031001428572,479.04168L72.59472510071365,0Z" style="opacity: 0;"/><path data-target="point-1-8" d="M72.59472510071365,0L196.20031001428572,479.04168L207.4907925,479.04168L214.53976053,475.04184L118.27555564022735,121.52387332498807L74.12902480982152,0Z" style="opacity: 0;"/><path data-target="point-1-9" d="M118.27555564022735,121.52387332498807L214.53976053,475.04184L225.25760607142854,475.04184L233.45396652571426,470.6364L140.59013238939124,178.2176690264231Z" style="opacity: 0;"/><path data-target="point-1-10" d="M140.59013238939124,178.2176690264231L233.45396652571426,470.6364L241.08867553571426,470.6364L252.52174463214283,464.56175999999994L162.77697480153833,229.62231627170345Z" style="opacity: 0;"/><path data-target="point-1-11" d="M162.77697480153833,229.62231627170345L252.52174463214283,464.56175999999994L259.0441474285714,464.56175999999994L272.56123531714286,457.75392Z" style="opacity: 0;"/><path data-target="point-1-12" d="M74.12902480982152,0L118.27555564022735,121.52387332498807L140.59013238939124,178.2176690264231L162.77697480153833,229.62231627170345L272.56123531714286,457.75392L276.4583062857143,457.75392L291.2663233685714,450.98663999999997L76.27857608071358,0Z" style="opacity: 0;"/><path data-target="point-1-13" d="M76.27857608071358,0L291.2663233685714,450.98663999999997L291.42713171428574,450.98663999999997L308.6976839761843,443.30068255093977L309.195648440608,442.7456459527375L100.60315290500131,0Z" style="opacity: 0;"/><path data-target="point-1-14" d="M100.60315290500131,0L309.195648440608,442.7456459527375L325.2981394866589,435.63789138631086L327.0696718353816,433.56390952154095L172.63979733409852,114.50569251095942L112.79114792428545,-1.4210854715202004e-14Z" style="opacity: 0;"/><path data-target="point-1-15" d="M172.63979733409852,114.50569251095942L327.0696718353816,433.56390952154095L341.98863082919905,426.7589238272965L345.34646877980947,422.1844353041081Z" style="opacity: 0;"/><path data-target="point-1-16" d="M112.79114792428545,-1.4210854715202004e-14L172.63979733409852,114.50569251095942L345.34646877980947,422.1844353041081L363.19886586285713,413.38752L144.97454682285766,0Z" style="opacity: 0;"/><path data-target="point-1-17" d="M144.97454682285766,0L363.19886586285713,413.38752L365.09912022857145,413.38752L379.9592968179959,406.7444037292224L380.07538464912574,406.6116885866601L285.14942470913735,184.9792617932756L195.551746378571,2.842170943040401e-14Z" style="opacity: 0;"/><path data-target="point-1-18" d="M285.14942470913735,184.9792617932756L380.07538464912574,406.6116885866601L398.4833657261243,398.1588670872962L399.635738505532,396.8228241973894Z" style="opacity: 0;"/><path data-target="point-1-19" d="M195.551746378571,2.842170943040401e-14L285.14942470913735,184.9792617932756L399.635738505532,396.8228241973894L415.9378871167078,389.6269393555799L416.9973678074765,388.4467177828433L227.08854210285705,0Z" style="opacity: 0;"/><path data-target="point-1-20" d="M227.08854210285705,0L416.9973678074765,388.4467177828433L434.79450685714284,380.65559999999994L257.8406335178568,0Z" style="opacity: 0;"/><path data-target="point-1-21" d="M257.8406335178568,0L434.79450685714284,380.65559999999994L436.8292371785714,380.65559999999994L451.8811237964285,374.53728L304.3769730507147,0Z" style="opacity: 0;"/><path data-target="point-1-22" d="M304.3769730507147,0L451.8811237964285,374.53728L454.19551712857145,374.53728L469.14284911999994,368.67792L339.73689920000015,0Z" style="opacity: 0;"/><path data-target="point-1-23" d="M339.73689920000015,0L469.14284911999994,368.67792L470.730777,368.67792L479.49898565142854,365.22096L478.155463627195,298.6982072528031L403.7356053746427,0Z" style="opacity: 0;"/><path data-target="point-1-24" d="M478.155463627195,298.6982072528031L479.49898565142854,365.22096L491.27406742857136,365.22096L506.7184817757143,358.4412Z" style="opacity: 0;"/><path data-target="point-1-25" d="M403.7356053746427,0L478.155463627195,298.6982072528031L506.7184817757143,358.4412L509.39299250000005,358.4412L522.0287869142857,353.41175999999996L409.79530941714336,0Z" style="opacity: 0;"/><path data-target="point-1-26" d="M409.79530941714336,0L522.0287869142857,353.41175999999996L527.5199028214286,353.41175999999996L536.9265990257143,349.7988L514.6605151070792,223.9255212352544L511.71205275404725,213.12845989970634L475.22633557023846,114.97865841873895L430.54685500534686,10.348936882303917L425.7328573610347,0Z" style="opacity: 0;"/><path data-target="point-1-27" d="M514.6605151070792,223.9255212352544L536.9265990257143,349.7988L542.9703857889089,349.7988L557.047587818427,343.99047164535386L558.4311339581091,342.45922014892295Z" style="opacity: 0;"/><path data-target="point-1-28" d="M511.71205275404725,213.12845989970634L514.6605151070792,223.9255212352544L558.4311339581091,342.45922014892295L575.5785476239608,334.5802284592538L578.5816952837262,330.6405341080786Z" style="opacity: 0;"/><path data-target="point-1-29" d="M475.22633557023846,114.97865841873895L511.71205275404725,213.12845989970634L578.5816952837262,330.6405341080786L593.5183648871033,323.5061034034228L596.4152940549833,319.3810709238564Z" style="opacity: 0;"/><path data-target="point-1-30" d="M430.54685500534686,10.348936882303917L475.22633557023846,114.97865841873895L596.4152940549833,319.3810709238564L611.5420193364939,311.8080702451559L614.1915259051469,307.6324022178614Z" style="opacity: 0;"/><path data-target="point-1-31" d="M425.7328573610347,0L430.54685500534686,10.348936882303917L614.1915259051469,307.6324022178614L629.6542238041854,299.4370499864698L631.9135020229255,295.3906730017721L441.7925812090334,0Z" style="opacity: 0;"/><path data-target="point-1-32" d="M441.7925812090334,0L631.9135020229255,295.3906730017721L647.8538305188732,286.33530042243376L649.5922579311707,282.6608601594307L460.03945922414755,0Z" style="opacity: 0;"/><path data-target="point-1-33" d="M460.03945922414755,0L649.5922579311707,282.6608601594307L666.1293411076988,272.43276086136075L667.2520874732796,269.4633435857944L478.9764553860887,0Z" style="opacity: 0;"/><path data-target="point-1-34" d="M478.9764553860887,0L667.2520874732796,269.4633435857944L684.4514230342741,257.6417830309982L684.941285578464,255.84442303166117L498.6907002278832,0Z" style="opacity: 0;"/><path data-target="point-1-35" d="M498.6907002278832,0L684.941285578464,255.84442303166117L702.7319159840671,241.869888L519.275832974656,0Z" style="opacity: 0;"/><path data-target="point-1-36" d="M519.275832974656,0L702.7319159840671,241.869888L702.781023683072,241.869888L719.5747152360263,226.17101499999998L540.8364445283207,0Z" style="opacity: 0;"/><path data-target="point-1-37" d="M540.8364445283207,0L719.5747152360263,226.17101499999998L722.2378493273284,226.17101499999998L736.1408881110308,209.68281399999998L563.4892291684205,0Z" style="opacity: 0;"/><path data-target="point-1-38" d="M563.4892291684205,0L736.1408881110308,209.68281399999998L742.1413522719888,209.682814L752.3880929516926,192.36462949999998L587.3579942451418,0Z" style="opacity: 0;"/><path data-target="point-1-39" d="M587.3579942451418,0L752.3880929516926,192.36462949999998L762.5710051044832,192.36462949999998L768.2684127700676,174.17375049999998L612.5822242143923,0Z" style="opacity: 0;"/><path data-target="point-1-40" d="M612.5822242143923,0L768.2684127700676,174.17375049999998L783.6183800618094,174.17375049999998L783.7277698406858,155.065248L639.3134795307399,0Z" style="opacity: 0;"/><path data-target="point-1-41" d="M639.3134795307399,0L783.7277698406858,155.065248L805.3888972378767,155.065248L798.7050988835309,134.9917295L667.7166349982883,0Z" style="opacity: 0;"/><path data-target="point-1-42" d="M667.7166349982883,0L798.7050988835309,134.9917295L828.0035901492846,134.99172950000002L813.1316795693929,113.903431L697.9747006314415,0Z" style="opacity: 0;"/><path data-target="point-1-43" d="M697.9747006314415,0L813.1316795693929,113.903431L850.2680952985867,113.903431L826.9299292982288,91.74784299999999L724.76306915483,0Z" style="opacity: 0;"/><path data-target="point-1-44" d="M826.9299292982288,91.74784299999999L850.2680952985867,113.903431L936,176.98053542183192L936,155.92812885313003L865.5609042439165,91.74784299999999Z" style="opacity: 0;"/><path data-target="point-1-45" d="M841.4137750392546,68.46977299999999L865.5609042439165,91.74784299999999L936,155.92812885313003L936,117.22230249489124L880.2509302478439,68.469773Z" style="opacity: 0;"/><path data-target="point-1-46" d="M863.6100902581622,44.0110945L880.2509302478439,68.469773L936,117.22230249489124L936,44.0110945Z" style="opacity: 0;"/></g></g><g class="axes"><g class="y axis" fill="none" font-size="10" font-family="sans-serif" text-anchor="end" style="font-family: &quot;Source Sans Pro&quot;;"><path class="domain" stroke="#eeeeee" d="M0.5,562.1V0.5" stroke-dasharray="0" style="visibility: hidden;"/><g class="tick" opacity="1" transform="translate(0,562.1)" style="visibility: visible;"><line stroke="#eeeeee" x2="936" stroke-dasharray="0"/><text fill="rgb(0, 0, 0)" x="3" dy="-0.33em" opacity="1" text-anchor="start" font-size="18">$0</text></g><g class="tick" opacity="1" transform="translate(0, 499.70001220703125)" style="visibility: visible;"><line stroke="#eeeeee" x2="936" stroke-dasharray="0"/><text fill="rgb(0, 0, 0)" x="3" dy="-0.33em" opacity="1" text-anchor="start" font-size="18">$10,000</text></g><g class="tick" opacity="1" transform="translate(0, 437.29998779296875)" style="visibility: visible;"><line stroke="#eeeeee" x2="936" stroke-dasharray="0"/><text fill="rgb(0, 0, 0)" x="3" dy="-0.33em" opacity="1" text-anchor="start" font-size="18">$20,000</text></g><g class="tick" opacity="1" transform="translate(0, 374.8999938964844)" style="visibility: visible;"><line stroke="#eeeeee" x2="936" stroke-dasharray="0"/><text fill="rgb(0, 0, 0)" x="3" dy="-0.33em" opacity="1" text-anchor="start" font-size="18">$30,000</text></g><g class="tick" opacity="1" transform="translate(0, 312.5)" style="visibility: visible;"><line stroke="#eeeeee" x2="936" stroke-dasharray="0"/><text fill="rgb(0, 0, 0)" x="3" dy="-0.33em" opacity="1" text-anchor="start" font-size="18">$40,000</text></g><g class="tick" opacity="1" transform="translate(0, 250.10000610351562)" style="visibility: visible;"><line stroke="#eeeeee" x2="936" stroke-dasharray="0"/><text fill="rgb(0, 0, 0)" x="3" dy="-0.33em" opacity="1" text-anchor="start" font-size="18">$50,000</text></g><g class="tick" opacity="1" transform="translate(0, 187.6999969482422)" style="visibility: visible;"><line stroke="#eeeeee" x2="936" stroke-dasharray="0"/><text fill="rgb(0, 0, 0)" x="3" dy="-0.33em" opacity="1" text-anchor="start" font-size="18">$60,000</text></g><g class="tick" opacity="1" transform="translate(0, 125.30000305175781)" style="visibility: visible;"><line stroke="#eeeeee" x2="936" stroke-dasharray="0"/><text fill="rgb(0, 0, 0)" x="3" dy="-0.33em" opacity="1" text-anchor="start" font-size="18">$70,000</text></g><g class="tick" opacity="1" transform="translate(0, 62.900001525878906)" style="visibility: visible;"><line stroke="#eeeeee" x2="936" stroke-dasharray="0"/><text fill="rgb(0, 0, 0)" x="3" dy="-0.33em" opacity="1" text-anchor="start" font-size="18">$80,000</text></g><g class="tick" opacity="1" transform="translate(0, 0.5)" style="visibility: visible;"><line stroke="#eeeeee" x2="936" stroke-dasharray="0"/><text fill="rgb(0, 0, 0)" x="3" dy="-0.33em" opacity="1" text-anchor="start" font-size="18">$90,000</text></g></g><g class="x axis" transform="translate(0,561.6)" fill="none" font-size="10" font-family="sans-serif" text-anchor="middle" style="font-family: &quot;Source Sans Pro&quot;;"><path class="domain" stroke="#eeeeee" d="M40.5,0.5H936.5" stroke-dasharray="0"/><g class="tick" opacity="1" transform="translate(40.5,0)"><line stroke="#eeeeee" y2="6" stroke-dasharray="0"/><text fill="rgb(0, 0, 0)" y="9" dy="-9" opacity="1" dominant-baseline="central" font-size="18" transform="translate(0, 15) rotate(-45)" dx="5" style="text-anchor: end; visibility: visible;">1990</text></g><g class="tick" opacity="1" transform="translate(130.10000000000002,0)"><line stroke="#eeeeee" y2="6" stroke-dasharray="0"/><text fill="rgb(0, 0, 0)" y="9" dy="-9" opacity="1" dominant-baseline="central" font-size="18" transform="translate(0, 15) rotate(-45)" dx="5" style="text-anchor: end; visibility: visible;">1995</text></g><g class="tick" opacity="1" transform="translate(219.70000000000002,0)"><line stroke="#eeeeee" y2="6" stroke-dasharray="0"/><text fill="rgb(0, 0, 0)" y="9" dy="-9" opacity="1" dominant-baseline="central" font-size="18" transform="translate(0, 15) rotate(-45)" dx="5" style="text-anchor: end; visibility: visible;">2000</text></g><g class="tick" opacity="1" transform="translate(309.3,0)"><line stroke="#eeeeee" y2="6" stroke-dasharray="0"/><text fill="rgb(0, 0, 0)" y="9" dy="-9" opacity="1" dominant-baseline="central" font-size="18" transform="translate(0, 15) rotate(-45)" dx="5" style="text-anchor: end; visibility: visible;">2005</text></g><g class="tick" opacity="1" transform="translate(398.90000000000003,0)"><line stroke="#eeeeee" y2="6" stroke-dasharray="0"/><text fill="rgb(0, 0, 0)" y="9" dy="-9" opacity="1" dominant-baseline="central" font-size="18" transform="translate(0, 15) rotate(-45)" dx="5" style="text-anchor: end; visibility: visible;">2010</text></g><g class="tick" opacity="1" transform="translate(488.5,0)"><line stroke="#eeeeee" y2="6" stroke-dasharray="0"/><text fill="rgb(0, 0, 0)" y="9" dy="-9" opacity="1" dominant-baseline="central" font-size="18" transform="translate(0, 15) rotate(-45)" dx="5" style="text-anchor: end; visibility: visible;">2015</text></g><g class="tick" opacity="1" transform="translate(578.1,0)"><line stroke="#eeeeee" y2="6" stroke-dasharray="0"/><text fill="rgb(0, 0, 0)" y="9" dy="-9" opacity="1" dominant-baseline="central" font-size="18" transform="translate(0, 15) rotate(-45)" dx="5" style="text-anchor: end; visibility: visible;">2020</text></g><g class="tick" opacity="1" transform="translate(667.6999999999999,0)"><line stroke="#eeeeee" y2="6" stroke-dasharray="0"/><text fill="rgb(0, 0, 0)" y="9" dy="-9" opacity="1" dominant-baseline="central" font-size="18" transform="translate(0, 15) rotate(-45)" dx="5" style="text-anchor: end; visibility: visible;">2025</text></g><g class="tick" opacity="1" transform="translate(757.3000000000001,0)"><line stroke="#eeeeee" y2="6" stroke-dasharray="0"/><text fill="rgb(0, 0, 0)" y="9" dy="-9" opacity="1" dominant-baseline="central" font-size="18" transform="translate(0, 15) rotate(-45)" dx="5" style="text-anchor: end; visibility: visible;">2030</text></g><g class="tick" opacity="1" transform="translate(846.9,0)"><line stroke="#eeeeee" y2="6" stroke-dasharray="0"/><text fill="rgb(0, 0, 0)" y="9" dy="-9" opacity="1" dominant-baseline="central" font-size="18" transform="translate(0, 15) rotate(-45)" dx="5" style="text-anchor: end; visibility: visible;">2035</text></g><g class="tick" opacity="1" transform="translate(936.5,0)"><line stroke="#eeeeee" y2="6" stroke-dasharray="0"/><text fill="rgb(0, 0, 0)" y="9" dy="-9" opacity="1" dominant-baseline="central" font-size="18" transform="translate(0, 15) rotate(-45)" dx="5" style="text-anchor: end; visibility: visible;">2040</text></g></g></g></g></g></g><g class="annotations below"><g class="axis-highlights" transform="translate(15, 20)" style="opacity: 1;"><g class="line x" transform="translate(559.68, 0)"><line width="0" stroke-dasharray="2 2" stroke="#333333" stroke-width="2" y2="561.6"/><text transform="translate(0, 6) rotate(-90)" fill="#333333" text-anchor="end" dy="-0.5em" font-size="12">Current</text></g></g></g><g id="areas"><g class="series" pointer-events="none"><path class="area" transform="translate(15,20)" fill-opacity="0" fill="rgb(17, 165, 121)" clip-path="url(#clip-0-0)" d="M57.92,515.112C63.89333333333334,514.4879999999999,69.86666666666667,513.864,75.84,513.24C81.81333333333333,512.616,87.78666666666666,512.1064,93.75999999999999,511.36800000000005C99.73333333333333,510.62960000000004,105.70666666666666,509.64160000000004,111.68,508.80960000000005C117.65333333333335,507.97760000000005,123.62666666666668,507.1976,129.60000000000002,506.37600000000003C135.57333333333335,505.55440000000004,141.54666666666665,504.6912,147.51999999999998,503.88C153.4933333333333,503.0688,159.46666666666667,502.3408,165.44,501.5088C171.41333333333333,500.6768,177.38666666666668,499.74080000000004,183.36,498.88800000000003C189.33333333333334,498.03520000000003,195.30666666666667,497.32800000000003,201.28,496.39200000000005C207.25333333333333,495.4560000000001,213.2266666666667,494.31200000000007,219.20000000000002,493.27200000000005C225.17333333333335,492.232,231.14666666666668,491.55600000000004,237.12,490.15200000000004C243.09333333333333,488.74800000000005,249.06666666666666,486.564,255.04,484.848C261.0133333333333,483.132,266.9866666666667,481.52,272.96000000000004,479.856C278.93333333333334,478.192,284.9066666666667,476.944,290.88,474.86400000000003C296.85333333333335,472.78400000000005,302.82666666666665,469.97600000000006,308.8,467.37600000000003C314.77333333333337,464.776,320.74666666666667,462.28000000000003,326.72,459.264C332.6933333333334,456.248,338.6666666666667,453.10720000000003,344.64000000000004,449.28000000000003C350.61333333333334,445.4528,356.5866666666667,439.4208,362.56,436.3008C368.53333333333336,433.1808,374.50666666666666,432.9728,380.48,430.56C386.4533333333334,428.1472,392.4266666666667,424.632,398.40000000000003,421.824C404.37333333333333,419.016,410.3466666666667,416.46799999999996,416.32,413.712C422.29333333333335,410.95599999999996,428.26666666666665,407.5552,434.24,405.288C440.21333333333337,403.0208,446.18666666666667,401.8768,452.16,400.1088C458.1333333333333,398.3408,464.1066666666667,396.6768,470.08,394.68C476.05333333333334,392.6832,482.02666666666664,390.052,488,388.12800000000004C493.97333333333336,386.20400000000006,499.94666666666666,384.696,505.92,383.136C511.8933333333334,381.576,517.8666666666667,380.172,523.84,378.76800000000003C529.8133333333334,377.36400000000003,535.7866666666666,376.453844,541.76,374.712C547.7333333333333,372.970156,553.7066666666666,371.22419360000004,559.68,368.31693600000006C565.6533333333333,365.4096784000001,571.6266666666667,361.05654000000004,577.6,357.2684544C583.5733333333334,353.4803688,589.5466666666666,349.593036,595.52,345.5884224C601.4933333333333,341.5838088,607.4666666666667,337.4743008000001,613.44,333.24077280000006C619.4133333333334,329.0072448000001,625.3866666666667,324.6627904,631.36,320.18725440000003C637.3333333333334,315.7117184,643.3066666666667,311.1189224000001,649.2800000000001,306.3875568C655.2533333333333,301.6561912000001,661.2266666666667,296.800868,667.1999999999999,291.7990608C673.1733333333333,286.7972536,679.1466666666666,281.66443760000004,685.12,276.3767136C691.0933333333334,271.08898960000005,697.0666666666666,265.6627064,703.04,260.0727168C709.0133333333333,254.4827272,714.9866666666667,248.74629520000008,720.96,242.83677600000004C726.9333333333334,236.92725680000007,732.9066666666666,230.86292319999998,738.88,224.6156016C744.8533333333334,218.36827999999997,750.8266666666667,211.9572832000001,756.8000000000001,205.35284640000003C762.7733333333333,198.74840960000006,768.7466666666667,191.97093759999993,774.7199999999999,184.98898079999998C780.6933333333333,178.00702399999994,786.6666666666666,170.84216240000003,792.64,163.4611056C798.6133333333333,156.08004880000001,804.5866666666666,148.50561439999993,810.56,140.70263999999997C816.5333333333333,132.89966559999996,822.5066666666667,124.89226880000007,828.48,116.64325920000005C834.4533333333334,108.39424960000008,840.4266666666666,99.92912799999993,846.4,91.20858239999995C852.3733333333333,82.48803679999992,858.3466666666667,73.53902400000007,864.32,64.31998560000005C870.2933333333334,55.100947200000064,876.2666666666667,45.497649600000045,882.24,35.894352000000026L882.24,35.894352000000026C876.2666666666667,45.497649600000045,870.2933333333334,55.100947200000064,864.32,64.31998560000005C858.3466666666667,73.53902400000007,852.3733333333333,82.48803679999992,846.4,91.20858239999995C840.4266666666666,99.92912799999993,834.4533333333334,108.39424960000008,828.48,116.64325920000005C822.5066666666667,124.89226880000007,816.5333333333333,132.89966559999996,810.56,140.70263999999997C804.5866666666666,148.50561439999993,798.6133333333333,156.08004880000001,792.64,163.4611056C786.6666666666666,170.84216240000003,780.6933333333333,178.00702399999994,774.7199999999999,184.98898079999998C768.7466666666667,191.97093759999993,762.7733333333333,198.74840960000006,756.8000000000001,205.35284640000003C750.8266666666667,211.9572832000001,744.8533333333334,218.36827999999997,738.88,224.6156016C732.9066666666666,230.86292319999998,726.9333333333334,236.92725680000007,720.96,242.83677600000004C714.9866666666667,248.74629520000008,709.0133333333333,254.4827272,703.04,260.0727168C697.0666666666666,265.6627064,691.0933333333334,271.08898960000005,685.12,276.3767136C679.1466666666666,281.66443760000004,673.1733333333333,286.7972536,667.1999999999999,291.7990608C661.2266666666667,296.800868,655.2533333333333,301.6561912000001,649.2800000000001,306.3875568C643.3066666666667,311.1189224000001,637.3333333333334,315.7117184,631.36,320.18725440000003C625.3866666666667,324.6627904,619.4133333333334,329.0072448000001,613.44,333.24077280000006C607.4666666666667,337.4743008000001,601.4933333333333,341.5838088,595.52,345.5884224C589.5466666666666,349.593036,583.5733333333334,353.4803688,577.6,357.2684544C571.6266666666667,361.05654000000004,565.6533333333333,365.4096784000001,559.68,368.31693600000006C553.7066666666666,371.22419360000004,547.7333333333333,372.970156,541.76,374.712C535.7866666666666,376.453844,529.8133333333334,377.36400000000003,523.84,378.76800000000003C517.8666666666667,380.172,511.8933333333334,381.576,505.92,383.136C499.94666666666666,384.696,493.97333333333336,386.20400000000006,488,388.12800000000004C482.02666666666664,390.052,476.05333333333334,392.6832,470.08,394.68C464.1066666666667,396.6768,458.1333333333333,398.3408,452.16,400.1088C446.18666666666667,401.8768,440.21333333333337,403.0208,434.24,405.288C428.26666666666665,407.5552,422.29333333333335,410.95599999999996,416.32,413.712C410.3466666666667,416.46799999999996,404.37333333333333,419.016,398.40000000000003,421.824C392.4266666666667,424.632,386.4533333333334,428.1472,380.48,430.56C374.50666666666666,432.9728,368.53333333333336,433.1808,362.56,436.3008C356.5866666666667,439.4208,350.61333333333334,445.4528,344.64000000000004,449.28000000000003C338.6666666666667,453.10720000000003,332.6933333333334,456.248,326.72,459.264C320.74666666666667,462.28000000000003,314.77333333333337,464.776,308.8,467.37600000000003C302.82666666666665,469.97600000000006,296.85333333333335,472.78400000000005,290.88,474.86400000000003C284.9066666666667,476.944,278.93333333333334,478.192,272.96000000000004,479.856C266.9866666666667,481.52,261.0133333333333,483.132,255.04,484.848C249.06666666666666,486.564,243.09333333333333,488.74800000000005,237.12,490.15200000000004C231.14666666666668,491.55600000000004,225.17333333333335,492.232,219.20000000000002,493.27200000000005C213.2266666666667,494.31200000000007,207.25333333333333,495.4560000000001,201.28,496.39200000000005C195.30666666666667,497.32800000000003,189.33333333333334,498.03520000000003,183.36,498.88800000000003C177.38666666666668,499.74080000000004,171.41333333333333,500.6768,165.44,501.5088C159.46666666666667,502.3408,153.4933333333333,503.0688,147.51999999999998,503.88C141.54666666666665,504.6912,135.57333333333335,505.55440000000004,129.60000000000002,506.37600000000003C123.62666666666668,507.1976,117.65333333333335,507.97760000000005,111.68,508.80960000000005C105.70666666666666,509.64160000000004,99.73333333333333,510.62960000000004,93.75999999999999,511.36800000000005C87.78666666666666,512.1064,81.81333333333333,512.616,75.84,513.24C69.86666666666667,513.864,63.89333333333334,514.4879999999999,57.92,515.112Z"/></g><g class="series" pointer-events="none"><path class="area" transform="translate(15,20)" fill-opacity="0" fill="rgb(128, 35, 146)" clip-path="url(#clip-0-1)" d="M57.92,496.19856000000004C63.89333333333334,494.89388,69.86666666666667,493.5892,75.84,492.18624C81.81333333333333,490.78328,87.78666666666666,489.10888,93.75999999999999,487.7808C99.73333333333333,486.45272,105.70666666666666,485.43248,111.68,484.21776C117.65333333333335,483.00304,123.62666666666668,481.858,129.60000000000002,480.49248C135.57333333333335,479.12696,141.54666666666665,477.5264,147.51999999999998,476.02464000000003C153.4933333333333,474.52288000000004,159.46666666666667,473.10016,165.44,471.48192C171.41333333333333,469.86368,177.38666666666668,467.94696,183.36,466.3152C189.33333333333334,464.68344,195.30666666666667,463.27528,201.28,461.69136000000003C207.25333333333333,460.10744000000005,213.2266666666667,458.57344,219.20000000000002,456.81168C225.17333333333335,455.04992000000004,231.14666666666668,453.21016000000003,237.12,451.12080000000003C243.09333333333333,449.03144000000003,249.06666666666666,446.85368000000005,255.04,444.27552000000003C261.0133333333333,441.69736,266.9866666666667,438.51288,272.96000000000004,435.65184C278.93333333333334,432.7908,284.9066666666667,429.94016,290.88,427.10928C296.85333333333335,424.27840000000003,302.82666666666665,421.51928,308.8,418.66656C314.77333333333337,415.81384,320.74666666666667,413.11504,326.72,409.99296000000004C332.6933333333334,406.87088000000006,338.6666666666667,403.1872,344.64000000000004,399.93408C350.61333333333334,396.68095999999997,356.5866666666667,393.33008,362.56,390.47424C368.53333333333336,387.6184,374.50666666666666,385.69232,380.48,382.79904C386.4533333333334,379.90576,392.4266666666667,376.18879999999996,398.40000000000003,373.11456C404.37333333333333,370.04032,410.3466666666667,367.20216000000005,416.32,364.35360000000003C422.29333333333335,361.50504,428.26666666666665,358.58783999999997,434.24,356.0232C440.21333333333337,353.45856,446.18666666666667,351.19032,452.16,348.96576C458.1333333333333,346.7412,464.1066666666667,342.91712,470.08,342.67584C476.05333333333334,342.43456,482.02666666666664,342.5552,488,342.31392C493.97333333333336,342.07264,499.94666666666666,336.1228,505.92,333.7464C511.8933333333334,331.37,517.8666666666667,329.53232,523.84,328.05552C529.8133333333334,326.57872000000003,535.7866666666666,326.5167984,541.76,324.8856C547.7333333333333,323.2544016,553.7066666666666,321.0707552,559.68,318.2683296C565.6533333333333,315.465904,571.6266666666667,311.5413704,577.6,308.0710464C583.5733333333334,304.6007224,589.5466666666666,301.06215360000004,595.52,297.44638560000004C601.4933333333333,293.83061760000004,607.4666666666667,290.1437240000001,613.44,286.37643840000004C619.4133333333334,282.60915280000006,625.3866666666667,278.76782959999997,631.36,274.842672C637.3333333333334,270.91751439999996,643.3066666666667,266.91515760000004,649.2800000000001,262.8254928C655.2533333333333,258.735828,661.2266666666667,254.56572959999997,667.1999999999999,250.3046832C673.1733333333333,246.04363679999997,679.1466666666666,241.69881840000002,685.12,237.25921440000002C691.0933333333334,232.81961040000004,697.0666666666666,228.29271920000002,703.04,223.66705920000004C709.0133333333333,219.04139920000003,714.9866666666667,214.32476000000003,720.96,209.5052544C726.9333333333334,204.68574880000003,732.9066666666666,199.7714992,738.88,194.75002560000001C744.8533333333334,189.728552,750.8266666666667,184.60833040000006,756.8000000000001,179.37641280000003C762.7733333333333,174.14449520000005,768.7466666666667,168.80969039999997,774.7199999999999,163.35852C780.6933333333333,157.90734959999997,786.6666666666666,152.34900720000007,792.64,146.66939040000005C798.6133333333333,140.98977360000006,804.5866666666666,135.19845039999998,810.56,129.2808192C816.5333333333333,123.36318799999997,822.5066666666667,117.32922239999996,828.48,111.16360319999995C834.4533333333334,104.99798399999999,840.4266666666666,98.71111120000002,846.4,92.28710400000006C852.3733333333333,85.86309680000005,858.3466666666667,79.31277120000006,864.32,72.61956000000004C870.2933333333334,65.92634880000006,876.2666666666667,59.02709280000006,882.24,52.12783680000007L882.24,52.12783680000007C876.2666666666667,59.02709280000006,870.2933333333334,65.92634880000006,864.32,72.61956000000004C858.3466666666667,79.31277120000006,852.3733333333333,85.86309680000005,846.4,92.28710400000006C840.4266666666666,98.71111120000002,834.4533333333334,104.99798399999999,828.48,111.16360319999995C822.5066666666667,117.32922239999996,816.5333333333333,123.36318799999997,810.56,129.2808192C804.5866666666666,135.19845039999998,798.6133333333333,140.98977360000006,792.64,146.66939040000005C786.6666666666666,152.34900720000007,780.6933333333333,157.90734959999997,774.7199999999999,163.35852C768.7466666666667,168.80969039999997,762.7733333333333,174.14449520000005,756.8000000000001,179.37641280000003C750.8266666666667,184.60833040000006,744.8533333333334,189.728552,738.88,194.75002560000001C732.9066666666666,199.7714992,726.9333333333334,204.68574880000003,720.96,209.5052544C714.9866666666667,214.32476000000003,709.0133333333333,219.04139920000003,703.04,223.66705920000004C697.0666666666666,228.29271920000002,691.0933333333334,232.81961040000004,685.12,237.25921440000002C679.1466666666666,241.69881840000002,673.1733333333333,246.04363679999997,667.1999999999999,250.3046832C661.2266666666667,254.56572959999997,655.2533333333333,258.735828,649.2800000000001,262.8254928C643.3066666666667,266.91515760000004,637.3333333333334,270.91751439999996,631.36,274.842672C625.3866666666667,278.76782959999997,619.4133333333334,282.60915280000006,613.44,286.37643840000004C607.4666666666667,290.1437240000001,601.4933333333333,293.83061760000004,595.52,297.44638560000004C589.5466666666666,301.06215360000004,583.5733333333334,304.6007224,577.6,308.0710464C571.6266666666667,311.5413704,565.6533333333333,315.465904,559.68,318.2683296C553.7066666666666,321.0707552,547.7333333333333,323.2544016,541.76,324.8856C535.7866666666666,326.5167984,529.8133333333334,326.57872000000003,523.84,328.05552C517.8666666666667,329.53232,511.8933333333334,331.37,505.92,333.7464C499.94666666666666,336.1228,493.97333333333336,342.07264,488,342.31392C482.02666666666664,342.5552,476.05333333333334,342.43456,470.08,342.67584C464.1066666666667,342.91712,458.1333333333333,346.7412,452.16,348.96576C446.18666666666667,351.19032,440.21333333333337,353.45856,434.24,356.0232C428.26666666666665,358.58783999999997,422.29333333333335,361.50504,416.32,364.35360000000003C410.3466666666667,367.20216000000005,404.37333333333333,370.04032,398.40000000000003,373.11456C392.4266666666667,376.18879999999996,386.4533333333334,379.90576,380.48,382.79904C374.50666666666666,385.69232,368.53333333333336,387.6184,362.56,390.47424C356.5866666666667,393.33008,350.61333333333334,396.68095999999997,344.64000000000004,399.93408C338.6666666666667,403.1872,332.6933333333334,406.87088000000006,326.72,409.99296000000004C320.74666666666667,413.11504,314.77333333333337,415.81384,308.8,418.66656C302.82666666666665,421.51928,296.85333333333335,424.27840000000003,290.88,427.10928C284.9066666666667,429.94016,278.93333333333334,432.7908,272.96000000000004,435.65184C266.9866666666667,438.51288,261.0133333333333,441.69736,255.04,444.27552000000003C249.06666666666666,446.85368000000005,243.09333333333333,449.03144000000003,237.12,451.12080000000003C231.14666666666668,453.21016000000003,225.17333333333335,455.04992000000004,219.20000000000002,456.81168C213.2266666666667,458.57344,207.25333333333333,460.10744000000005,201.28,461.69136000000003C195.30666666666667,463.27528,189.33333333333334,464.68344,183.36,466.3152C177.38666666666668,467.94696,171.41333333333333,469.86368,165.44,471.48192C159.46666666666667,473.10016,153.4933333333333,474.52288000000004,147.51999999999998,476.02464000000003C141.54666666666665,477.5264,135.57333333333335,479.12696,129.60000000000002,480.49248C123.62666666666668,481.858,117.65333333333335,483.00304,111.68,484.21776C105.70666666666666,485.43248,99.73333333333333,486.45272,93.75999999999999,487.7808C87.78666666666666,489.10888,81.81333333333333,490.78328,75.84,492.18624C69.86666666666667,493.5892,63.89333333333334,494.89388,57.92,496.19856000000004Z"/></g></g><g id="lines"><g class="series"><clipPath id="clip-0-0"><rect width="936" y="-20" height="599.6"/></clipPath><path class="line" opacity="1" fill="none" stroke="rgb(17, 165, 121)" stroke-width="2" transform="translate(15,20)" clip-path="url(#clip-0-0)" d="M57.92,515.112C63.89333333333334,514.4879999999999,69.86666666666667,513.864,75.84,513.24C81.81333333333333,512.616,87.78666666666666,512.1064,93.75999999999999,511.36800000000005C99.73333333333333,510.62960000000004,105.70666666666666,509.64160000000004,111.68,508.80960000000005C117.65333333333335,507.97760000000005,123.62666666666668,507.1976,129.60000000000002,506.37600000000003C135.57333333333335,505.55440000000004,141.54666666666665,504.6912,147.51999999999998,503.88C153.4933333333333,503.0688,159.46666666666667,502.3408,165.44,501.5088C171.41333333333333,500.6768,177.38666666666668,499.74080000000004,183.36,498.88800000000003C189.33333333333334,498.03520000000003,195.30666666666667,497.32800000000003,201.28,496.39200000000005C207.25333333333333,495.4560000000001,213.2266666666667,494.31200000000007,219.20000000000002,493.27200000000005C225.17333333333335,492.232,231.14666666666668,491.55600000000004,237.12,490.15200000000004C243.09333333333333,488.74800000000005,249.06666666666666,486.564,255.04,484.848C261.0133333333333,483.132,266.9866666666667,481.52,272.96000000000004,479.856C278.93333333333334,478.192,284.9066666666667,476.944,290.88,474.86400000000003C296.85333333333335,472.78400000000005,302.82666666666665,469.97600000000006,308.8,467.37600000000003C314.77333333333337,464.776,320.74666666666667,462.28000000000003,326.72,459.264C332.6933333333334,456.248,338.6666666666667,453.10720000000003,344.64000000000004,449.28000000000003C350.61333333333334,445.4528,356.5866666666667,439.4208,362.56,436.3008C368.53333333333336,433.1808,374.50666666666666,432.9728,380.48,430.56C386.4533333333334,428.1472,392.4266666666667,424.632,398.40000000000003,421.824C404.37333333333333,419.016,410.3466666666667,416.46799999999996,416.32,413.712C422.29333333333335,410.95599999999996,428.26666666666665,407.5552,434.24,405.288C440.21333333333337,403.0208,446.18666666666667,401.8768,452.16,400.1088C458.1333333333333,398.3408,464.1066666666667,396.6768,470.08,394.68C476.05333333333334,392.6832,482.02666666666664,390.052,488,388.12800000000004C493.97333333333336,386.20400000000006,499.94666666666666,384.696,505.92,383.136C511.8933333333334,381.576,517.8666666666667,380.172,523.84,378.76800000000003C529.8133333333334,377.36400000000003,535.7866666666666,376.453844,541.76,374.712C547.7333333333333,372.970156,553.7066666666666,371.22419360000004,559.68,368.31693600000006C565.6533333333333,365.4096784000001,571.6266666666667,361.05654000000004,577.6,357.2684544C583.5733333333334,353.4803688,589.5466666666666,349.593036,595.52,345.5884224C601.4933333333333,341.5838088,607.4666666666667,337.4743008000001,613.44,333.24077280000006C619.4133333333334,329.0072448000001,625.3866666666667,324.6627904,631.36,320.18725440000003C637.3333333333334,315.7117184,643.3066666666667,311.1189224000001,649.2800000000001,306.3875568C655.2533333333333,301.6561912000001,661.2266666666667,296.800868,667.1999999999999,291.7990608C673.1733333333333,286.7972536,679.1466666666666,281.66443760000004,685.12,276.3767136C691.0933333333334,271.08898960000005,697.0666666666666,265.6627064,703.04,260.0727168C709.0133333333333,254.4827272,714.9866666666667,248.74629520000008,720.96,242.83677600000004C726.9333333333334,236.92725680000007,732.9066666666666,230.86292319999998,738.88,224.6156016C744.8533333333334,218.36827999999997,750.8266666666667,211.9572832000001,756.8000000000001,205.35284640000003C762.7733333333333,198.74840960000006,768.7466666666667,191.97093759999993,774.7199999999999,184.98898079999998C780.6933333333333,178.00702399999994,786.6666666666666,170.84216240000003,792.64,163.4611056C798.6133333333333,156.08004880000001,804.5866666666666,148.50561439999993,810.56,140.70263999999997C816.5333333333333,132.89966559999996,822.5066666666667,124.89226880000007,828.48,116.64325920000005C834.4533333333334,108.39424960000008,840.4266666666666,99.92912799999993,846.4,91.20858239999995C852.3733333333333,82.48803679999992,858.3466666666667,73.53902400000007,864.32,64.31998560000005C870.2933333333334,55.100947200000064,876.2666666666667,45.497649600000045,882.24,35.894352000000026"/><text class="label" font-size="11" alignment-baseline="middle" opacity="1" x="5" fill="rgb(17, 165, 121)" transform="translate(897.239990234375, 55.894351959228516)"/></g><g class="series"><clipPath id="clip-0-1"><rect width="936" y="-20" height="599.6"/></clipPath><path class="line" opacity="1" fill="none" stroke="rgb(128, 35, 146)" stroke-width="2" transform="translate(15,20)" clip-path="url(#clip-0-1)" d="M57.92,496.19856000000004C63.89333333333334,494.89388,69.86666666666667,493.5892,75.84,492.18624C81.81333333333333,490.78328,87.78666666666666,489.10888,93.75999999999999,487.7808C99.73333333333333,486.45272,105.70666666666666,485.43248,111.68,484.21776C117.65333333333335,483.00304,123.62666666666668,481.858,129.60000000000002,480.49248C135.57333333333335,479.12696,141.54666666666665,477.5264,147.51999999999998,476.02464000000003C153.4933333333333,474.52288000000004,159.46666666666667,473.10016,165.44,471.48192C171.41333333333333,469.86368,177.38666666666668,467.94696,183.36,466.3152C189.33333333333334,464.68344,195.30666666666667,463.27528,201.28,461.69136000000003C207.25333333333333,460.10744000000005,213.2266666666667,458.57344,219.20000000000002,456.81168C225.17333333333335,455.04992000000004,231.14666666666668,453.21016000000003,237.12,451.12080000000003C243.09333333333333,449.03144000000003,249.06666666666666,446.85368000000005,255.04,444.27552000000003C261.0133333333333,441.69736,266.9866666666667,438.51288,272.96000000000004,435.65184C278.93333333333334,432.7908,284.9066666666667,429.94016,290.88,427.10928C296.85333333333335,424.27840000000003,302.82666666666665,421.51928,308.8,418.66656C314.77333333333337,415.81384,320.74666666666667,413.11504,326.72,409.99296000000004C332.6933333333334,406.87088000000006,338.6666666666667,403.1872,344.64000000000004,399.93408C350.61333333333334,396.68095999999997,356.5866666666667,393.33008,362.56,390.47424C368.53333333333336,387.6184,374.50666666666666,385.69232,380.48,382.79904C386.4533333333334,379.90576,392.4266666666667,376.18879999999996,398.40000000000003,373.11456C404.37333333333333,370.04032,410.3466666666667,367.20216000000005,416.32,364.35360000000003C422.29333333333335,361.50504,428.26666666666665,358.58783999999997,434.24,356.0232C440.21333333333337,353.45856,446.18666666666667,351.19032,452.16,348.96576C458.1333333333333,346.7412,464.1066666666667,342.91712,470.08,342.67584C476.05333333333334,342.43456,482.02666666666664,342.5552,488,342.31392C493.97333333333336,342.07264,499.94666666666666,336.1228,505.92,333.7464C511.8933333333334,331.37,517.8666666666667,329.53232,523.84,328.05552C529.8133333333334,326.57872000000003,535.7866666666666,326.5167984,541.76,324.8856C547.7333333333333,323.2544016,553.7066666666666,321.0707552,559.68,318.2683296C565.6533333333333,315.465904,571.6266666666667,311.5413704,577.6,308.0710464C583.5733333333334,304.6007224,589.5466666666666,301.06215360000004,595.52,297.44638560000004C601.4933333333333,293.83061760000004,607.4666666666667,290.1437240000001,613.44,286.37643840000004C619.4133333333334,282.60915280000006,625.3866666666667,278.76782959999997,631.36,274.842672C637.3333333333334,270.91751439999996,643.3066666666667,266.91515760000004,649.2800000000001,262.8254928C655.2533333333333,258.735828,661.2266666666667,254.56572959999997,667.1999999999999,250.3046832C673.1733333333333,246.04363679999997,679.1466666666666,241.69881840000002,685.12,237.25921440000002C691.0933333333334,232.81961040000004,697.0666666666666,228.29271920000002,703.04,223.66705920000004C709.0133333333333,219.04139920000003,714.9866666666667,214.32476000000003,720.96,209.5052544C726.9333333333334,204.68574880000003,732.9066666666666,199.7714992,738.88,194.75002560000001C744.8533333333334,189.728552,750.8266666666667,184.60833040000006,756.8000000000001,179.37641280000003C762.7733333333333,174.14449520000005,768.7466666666667,168.80969039999997,774.7199999999999,163.35852C780.6933333333333,157.90734959999997,786.6666666666666,152.34900720000007,792.64,146.66939040000005C798.6133333333333,140.98977360000006,804.5866666666666,135.19845039999998,810.56,129.2808192C816.5333333333333,123.36318799999997,822.5066666666667,117.32922239999996,828.48,111.16360319999995C834.4533333333334,104.99798399999999,840.4266666666666,98.71111120000002,846.4,92.28710400000006C852.3733333333333,85.86309680000005,858.3466666666667,79.31277120000006,864.32,72.61956000000004C870.2933333333334,65.92634880000006,876.2666666666667,59.02709280000006,882.24,52.12783680000007"/><text class="label" font-size="11" alignment-baseline="middle" opacity="1" x="5" fill="rgb(128, 35, 146)" transform="translate(897.239990234375, 72.12783813476562)"/></g></g><g id="data-points"><g class="series" transform="translate(15,20)"><path class="data-point" fill="rgb(17, 165, 121)" data-type="point" transform="translate(0, 0)" d="M54.92,515.112A3,3,0,1,1,60.92,515.112A3,3,0,1,1,54.92,515.112Z" id="point-0-0" opacity="1"/><path class="data-point" fill="rgb(17, 165, 121)" data-type="point" transform="translate(0, 0)" d="M72.84,513.24A3,3,0,1,1,78.84,513.24A3,3,0,1,1,72.84,513.24Z" id="point-0-1" opacity="1"/><path class="data-point" fill="rgb(17, 165, 121)" data-type="point" transform="translate(0, 0)" d="M90.75999999999999,511.36800000000005A3,3,0,1,1,96.75999999999999,511.36800000000005A3,3,0,1,1,90.75999999999999,511.36800000000005Z" id="point-0-2" opacity="1"/><path class="data-point" fill="rgb(17, 165, 121)" data-type="point" transform="translate(0, 0)" d="M108.68,508.80960000000005A3,3,0,1,1,114.68,508.80960000000005A3,3,0,1,1,108.68,508.80960000000005Z" id="point-0-3" opacity="1"/><path class="data-point" fill="rgb(17, 165, 121)" data-type="point" transform="translate(0, 0)" d="M126.60000000000002,506.37600000000003A3,3,0,1,1,132.60000000000002,506.37600000000003A3,3,0,1,1,126.60000000000002,506.37600000000003Z" id="point-0-4" opacity="1"/><path class="data-point" fill="rgb(17, 165, 121)" data-type="point" transform="translate(0, 0)" d="M144.51999999999998,503.88A3,3,0,1,1,150.51999999999998,503.88A3,3,0,1,1,144.51999999999998,503.88Z" id="point-0-5" opacity="1"/><path class="data-point" fill="rgb(17, 165, 121)" data-type="point" transform="translate(0, 0)" d="M162.44,501.5088A3,3,0,1,1,168.44,501.5088A3,3,0,1,1,162.44,501.5088Z" id="point-0-6" opacity="1"/><path class="data-point" fill="rgb(17, 165, 121)" data-type="point" transform="translate(0, 0)" d="M180.36,498.88800000000003A3,3,0,1,1,186.36,498.88800000000003A3,3,0,1,1,180.36,498.88800000000003Z" id="point-0-7" opacity="1"/><path class="data-point" fill="rgb(17, 165, 121)" data-type="point" transform="translate(0, 0)" d="M198.28,496.39200000000005A3,3,0,1,1,204.28,496.39200000000005A3,3,0,1,1,198.28,496.39200000000005Z" id="point-0-8" opacity="1"/><path class="data-point" fill="rgb(17, 165, 121)" data-type="point" transform="translate(0, 0)" d="M216.20000000000002,493.27200000000005A3,3,0,1,1,222.20000000000002,493.27200000000005A3,3,0,1,1,216.20000000000002,493.27200000000005Z" id="point-0-9" opacity="1"/><path class="data-point" fill="rgb(17, 165, 121)" data-type="point" transform="translate(0, 0)" d="M234.12,490.15200000000004A3,3,0,1,1,240.12,490.15200000000004A3,3,0,1,1,234.12,490.15200000000004Z" id="point-0-10" opacity="1"/><path class="data-point" fill="rgb(17, 165, 121)" data-type="point" transform="translate(0, 0)" d="M252.04,484.848A3,3,0,1,1,258.03999999999996,484.848A3,3,0,1,1,252.04,484.848Z" id="point-0-11" opacity="1"/><path class="data-point" fill="rgb(17, 165, 121)" data-type="point" transform="translate(0, 0)" d="M269.96000000000004,479.856A3,3,0,1,1,275.96000000000004,479.856A3,3,0,1,1,269.96000000000004,479.856Z" id="point-0-12" opacity="1"/><path class="data-point" fill="rgb(17, 165, 121)" data-type="point" transform="translate(0, 0)" d="M287.88,474.86400000000003A3,3,0,1,1,293.88,474.86400000000003A3,3,0,1,1,287.88,474.86400000000003Z" id="point-0-13" opacity="1"/><path class="data-point" fill="rgb(17, 165, 121)" data-type="point" transform="translate(0, 0)" d="M305.8,467.37600000000003A3,3,0,1,1,311.8,467.37600000000003A3,3,0,1,1,305.8,467.37600000000003Z" id="point-0-14" opacity="1"/><path class="data-point" fill="rgb(17, 165, 121)" data-type="point" transform="translate(0, 0)" d="M323.72,459.264A3,3,0,1,1,329.72,459.264A3,3,0,1,1,323.72,459.264Z" id="point-0-15" opacity="1"/><path class="data-point" fill="rgb(17, 165, 121)" data-type="point" transform="translate(0, 0)" d="M341.64000000000004,449.28000000000003A3,3,0,1,1,347.64000000000004,449.28000000000003A3,3,0,1,1,341.64000000000004,449.28000000000003Z" id="point-0-16" opacity="1"/><path class="data-point" fill="rgb(17, 165, 121)" data-type="point" transform="translate(0, 0)" d="M359.56,436.3008A3,3,0,1,1,365.56,436.3008A3,3,0,1,1,359.56,436.3008Z" id="point-0-17" opacity="1"/><path class="data-point" fill="rgb(17, 165, 121)" data-type="point" transform="translate(0, 0)" d="M377.48,430.56A3,3,0,1,1,383.48,430.56A3,3,0,1,1,377.48,430.56Z" id="point-0-18" opacity="1"/><path class="data-point" fill="rgb(17, 165, 121)" data-type="point" transform="translate(0, 0)" d="M395.40000000000003,421.824A3,3,0,1,1,401.40000000000003,421.824A3,3,0,1,1,395.40000000000003,421.824Z" id="point-0-19" opacity="1"/><path class="data-point" fill="rgb(17, 165, 121)" data-type="point" transform="translate(0, 0)" d="M413.32,413.712A3,3,0,1,1,419.32,413.712A3,3,0,1,1,413.32,413.712Z" id="point-0-20" opacity="1"/><path class="data-point" fill="rgb(17, 165, 121)" data-type="point" transform="translate(0, 0)" d="M431.24,405.288A3,3,0,1,1,437.24,405.288A3,3,0,1,1,431.24,405.288Z" id="point-0-21" opacity="1"/><path class="data-point" fill="rgb(17, 165, 121)" data-type="point" transform="translate(0, 0)" d="M449.16,400.1088A3,3,0,1,1,455.16,400.1088A3,3,0,1,1,449.16,400.1088Z" id="point-0-22" opacity="1"/><path class="data-point" fill="rgb(17, 165, 121)" data-type="point" transform="translate(0, 0)" d="M467.08,394.68A3,3,0,1,1,473.08,394.68A3,3,0,1,1,467.08,394.68Z" id="point-0-23" opacity="1"/><path class="data-point" fill="rgb(17, 165, 121)" data-type="point" transform="translate(0, 0)" d="M485,388.12800000000004A3,3,0,1,1,491,388.12800000000004A3,3,0,1,1,485,388.12800000000004Z" id="point-0-24" opacity="1"/><path class="data-point" fill="rgb(17, 165, 121)" data-type="point" transform="translate(0, 0)" d="M502.92,383.136A3,3,0,1,1,508.92,383.136A3,3,0,1,1,502.92,383.136Z" id="point-0-25" opacity="1"/><path class="data-point" fill="rgb(17, 165, 121)" data-type="point" transform="translate(0, 0)" d="M520.84,378.76800000000003A3,3,0,1,1,526.84,378.76800000000003A3,3,0,1,1,520.84,378.76800000000003Z" id="point-0-26" opacity="1"/><path class="data-point" fill="rgb(17, 165, 121)" data-type="point" transform="translate(0, 0)" d="M538.76,374.712A3,3,0,1,1,544.76,374.712A3,3,0,1,1,538.76,374.712Z" id="point-0-27" opacity="1"/><path class="data-point" fill="rgb(17, 165, 121)" data-type="point" transform="translate(0, 0)" d="M556.68,368.31693600000006A3,3,0,1,1,562.68,368.31693600000006A3,3,0,1,1,556.68,368.31693600000006Z" id="point-0-28" opacity="1"/><path class="data-point" fill="rgb(17, 165, 121)" data-type="point" transform="translate(0, 0)" d="M574.6,357.2684544A3,3,0,1,1,580.6,357.2684544A3,3,0,1,1,574.6,357.2684544Z" id="point-0-29" opacity="1"/><path class="data-point" fill="rgb(17, 165, 121)" data-type="point" transform="translate(0, 0)" d="M592.52,345.5884224A3,3,0,1,1,598.52,345.5884224A3,3,0,1,1,592.52,345.5884224Z" id="point-0-30" opacity="1"/><path class="data-point" fill="rgb(17, 165, 121)" data-type="point" transform="translate(0, 0)" d="M610.44,333.24077280000006A3,3,0,1,1,616.44,333.24077280000006A3,3,0,1,1,610.44,333.24077280000006Z" id="point-0-31" opacity="1"/><path class="data-point" fill="rgb(17, 165, 121)" data-type="point" transform="translate(0, 0)" d="M628.36,320.18725440000003A3,3,0,1,1,634.36,320.18725440000003A3,3,0,1,1,628.36,320.18725440000003Z" id="point-0-32" opacity="1"/><path class="data-point" fill="rgb(17, 165, 121)" data-type="point" transform="translate(0, 0)" d="M646.2800000000001,306.3875568A3,3,0,1,1,652.2800000000001,306.3875568A3,3,0,1,1,646.2800000000001,306.3875568Z" id="point-0-33" opacity="1"/><path class="data-point" fill="rgb(17, 165, 121)" data-type="point" transform="translate(0, 0)" d="M664.1999999999999,291.7990608A3,3,0,1,1,670.1999999999999,291.7990608A3,3,0,1,1,664.1999999999999,291.7990608Z" id="point-0-34" opacity="1"/><path class="data-point" fill="rgb(17, 165, 121)" data-type="point" transform="translate(0, 0)" d="M682.12,276.3767136A3,3,0,1,1,688.12,276.3767136A3,3,0,1,1,682.12,276.3767136Z" id="point-0-35" opacity="1"/><path class="data-point" fill="rgb(17, 165, 121)" data-type="point" transform="translate(0, 0)" d="M700.04,260.0727168A3,3,0,1,1,706.04,260.0727168A3,3,0,1,1,700.04,260.0727168Z" id="point-0-36" opacity="1"/><path class="data-point" fill="rgb(17, 165, 121)" data-type="point" transform="translate(0, 0)" d="M717.96,242.83677600000004A3,3,0,1,1,723.96,242.83677600000004A3,3,0,1,1,717.96,242.83677600000004Z" id="point-0-37" opacity="1"/><path class="data-point" fill="rgb(17, 165, 121)" data-type="point" transform="translate(0, 0)" d="M735.88,224.6156016A3,3,0,1,1,741.88,224.6156016A3,3,0,1,1,735.88,224.6156016Z" id="point-0-38" opacity="1"/><path class="data-point" fill="rgb(17, 165, 121)" data-type="point" transform="translate(0, 0)" d="M753.8000000000001,205.35284640000003A3,3,0,1,1,759.8000000000001,205.35284640000003A3,3,0,1,1,753.8000000000001,205.35284640000003Z" id="point-0-39" opacity="1"/><path class="data-point" fill="rgb(17, 165, 121)" data-type="point" transform="translate(0, 0)" d="M771.7199999999999,184.98898079999998A3,3,0,1,1,777.7199999999999,184.98898079999998A3,3,0,1,1,771.7199999999999,184.98898079999998Z" id="point-0-40" opacity="1"/><path class="data-point" fill="rgb(17, 165, 121)" data-type="point" transform="translate(0, 0)" d="M789.64,163.4611056A3,3,0,1,1,795.64,163.4611056A3,3,0,1,1,789.64,163.4611056Z" id="point-0-41" opacity="1"/><path class="data-point" fill="rgb(17, 165, 121)" data-type="point" transform="translate(0, 0)" d="M807.56,140.70263999999997A3,3,0,1,1,813.56,140.70263999999997A3,3,0,1,1,807.56,140.70263999999997Z" id="point-0-42" opacity="1"/><path class="data-point" fill="rgb(17, 165, 121)" data-type="point" transform="translate(0, 0)" d="M825.48,116.64325920000005A3,3,0,1,1,831.48,116.64325920000005A3,3,0,1,1,825.48,116.64325920000005Z" id="point-0-43" opacity="1"/><path class="data-point" fill="rgb(17, 165, 121)" data-type="point" transform="translate(0, 0)" d="M843.4,91.20858239999995A3,3,0,1,1,849.4,91.20858239999995A3,3,0,1,1,843.4,91.20858239999995Z" id="point-0-44" opacity="1"/><path class="data-point" fill="rgb(17, 165, 121)" data-type="point" transform="translate(0, 0)" d="M861.32,64.31998560000005A3,3,0,1,1,867.32,64.31998560000005A3,3,0,1,1,861.32,64.31998560000005Z" id="point-0-45" opacity="1"/><path class="data-point" fill="rgb(17, 165, 121)" data-type="point" transform="translate(0, 0)" d="M879.24,35.894352000000026A3,3,0,1,1,885.24,35.894352000000026A3,3,0,1,1,879.24,35.894352000000026Z" id="point-0-46" opacity="1"/></g><g class="series" transform="translate(15,20)"><path class="data-point" fill="rgb(128, 35, 146)" data-type="point" transform="translate(0, 0)" d="M54.92,496.19856000000004A3,3,0,1,1,60.92,496.19856000000004A3,3,0,1,1,54.92,496.19856000000004Z" id="point-1-0" opacity="1"/><path class="data-point" fill="rgb(128, 35, 146)" data-type="point" transform="translate(0, 0)" d="M72.84,492.18624A3,3,0,1,1,78.84,492.18624A3,3,0,1,1,72.84,492.18624Z" id="point-1-1" opacity="1"/><path class="data-point" fill="rgb(128, 35, 146)" data-type="point" transform="translate(0, 0)" d="M90.75999999999999,487.7808A3,3,0,1,1,96.75999999999999,487.7808A3,3,0,1,1,90.75999999999999,487.7808Z" id="point-1-2" opacity="1"/><path class="data-point" fill="rgb(128, 35, 146)" data-type="point" transform="translate(0, 0)" d="M108.68,484.21776A3,3,0,1,1,114.68,484.21776A3,3,0,1,1,108.68,484.21776Z" id="point-1-3" opacity="1"/><path class="data-point" fill="rgb(128, 35, 146)" data-type="point" transform="translate(0, 0)" d="M126.60000000000002,480.49248A3,3,0,1,1,132.60000000000002,480.49248A3,3,0,1,1,126.60000000000002,480.49248Z" id="point-1-4" opacity="1"/><path class="data-point" fill="rgb(128, 35, 146)" data-type="point" transform="translate(0, 0)" d="M144.51999999999998,476.02464000000003A3,3,0,1,1,150.51999999999998,476.02464000000003A3,3,0,1,1,144.51999999999998,476.02464000000003Z" id="point-1-5" opacity="1"/><path class="data-point" fill="rgb(128, 35, 146)" data-type="point" transform="translate(0, 0)" d="M162.44,471.48192A3,3,0,1,1,168.44,471.48192A3,3,0,1,1,162.44,471.48192Z" id="point-1-6" opacity="1"/><path class="data-point" fill="rgb(128, 35, 146)" data-type="point" transform="translate(0, 0)" d="M180.36,466.3152A3,3,0,1,1,186.36,466.3152A3,3,0,1,1,180.36,466.3152Z" id="point-1-7" opacity="1"/><path class="data-point" fill="rgb(128, 35, 146)" data-type="point" transform="translate(0, 0)" d="M198.28,461.69136000000003A3,3,0,1,1,204.28,461.69136000000003A3,3,0,1,1,198.28,461.69136000000003Z" id="point-1-8" opacity="1"/><path class="data-point" fill="rgb(128, 35, 146)" data-type="point" transform="translate(0, 0)" d="M216.20000000000002,456.81168A3,3,0,1,1,222.20000000000002,456.81168A3,3,0,1,1,216.20000000000002,456.81168Z" id="point-1-9" opacity="1"/><path class="data-point" fill="rgb(128, 35, 146)" data-type="point" transform="translate(0, 0)" d="M234.12,451.12080000000003A3,3,0,1,1,240.12,451.12080000000003A3,3,0,1,1,234.12,451.12080000000003Z" id="point-1-10" opacity="1"/><path class="data-point" fill="rgb(128, 35, 146)" data-type="point" transform="translate(0, 0)" d="M252.04,444.27552000000003A3,3,0,1,1,258.03999999999996,444.27552000000003A3,3,0,1,1,252.04,444.27552000000003Z" id="point-1-11" opacity="1"/><path class="data-point" fill="rgb(128, 35, 146)" data-type="point" transform="translate(0, 0)" d="M269.96000000000004,435.65184A3,3,0,1,1,275.96000000000004,435.65184A3,3,0,1,1,269.96000000000004,435.65184Z" id="point-1-12" opacity="1"/><path class="data-point" fill="rgb(128, 35, 146)" data-type="point" transform="translate(0, 0)" d="M287.88,427.10928A3,3,0,1,1,293.88,427.10928A3,3,0,1,1,287.88,427.10928Z" id="point-1-13" opacity="1"/><path class="data-point" fill="rgb(128, 35, 146)" data-type="point" transform="translate(0, 0)" d="M305.8,418.66656A3,3,0,1,1,311.8,418.66656A3,3,0,1,1,305.8,418.66656Z" id="point-1-14" opacity="1"/><path class="data-point" fill="rgb(128, 35, 146)" data-type="point" transform="translate(0, 0)" d="M323.72,409.99296000000004A3,3,0,1,1,329.72,409.99296000000004A3,3,0,1,1,323.72,409.99296000000004Z" id="point-1-15" opacity="1"/><path class="data-point" fill="rgb(128, 35, 146)" data-type="point" transform="translate(0, 0)" d="M341.64000000000004,399.93408A3,3,0,1,1,347.64000000000004,399.93408A3,3,0,1,1,341.64000000000004,399.93408Z" id="point-1-16" opacity="1"/><path class="data-point" fill="rgb(128, 35, 146)" data-type="point" transform="translate(0, 0)" d="M359.56,390.47424A3,3,0,1,1,365.56,390.47424A3,3,0,1,1,359.56,390.47424Z" id="point-1-17" opacity="1"/><path class="data-point" fill="rgb(128, 35, 146)" data-type="point" transform="translate(0, 0)" d="M377.48,382.79904A3,3,0,1,1,383.48,382.79904A3,3,0,1,1,377.48,382.79904Z" id="point-1-18" opacity="1"/><path class="data-point" fill="rgb(128, 35, 146)" data-type="point" transform="translate(0, 0)" d="M395.40000000000003,373.11456A3,3,0,1,1,401.40000000000003,373.11456A3,3,0,1,1,395.40000000000003,373.11456Z" id="point-1-19" opacity="1"/><path class="data-point" fill="rgb(128, 35, 146)" data-type="point" transform="translate(0, 0)" d="M413.32,364.35360000000003A3,3,0,1,1,419.32,364.35360000000003A3,3,0,1,1,413.32,364.35360000000003Z" id="point-1-20" opacity="1"/><path class="data-point" fill="rgb(128, 35, 146)" data-type="point" transform="translate(0, 0)" d="M431.24,356.0232A3,3,0,1,1,437.24,356.0232A3,3,0,1,1,431.24,356.0232Z" id="point-1-21" opacity="1"/><path class="data-point" fill="rgb(128, 35, 146)" data-type="point" transform="translate(0, 0)" d="M449.16,348.96576A3,3,0,1,1,455.16,348.96576A3,3,0,1,1,449.16,348.96576Z" id="point-1-22" opacity="1"/><path class="data-point" fill="rgb(128, 35, 146)" data-type="point" transform="translate(0, 0)" d="M467.08,342.67584A3,3,0,1,1,473.08,342.67584A3,3,0,1,1,467.08,342.67584Z" id="point-1-23" opacity="1"/><path class="data-point" fill="rgb(128, 35, 146)" data-type="point" transform="translate(0, 0)" d="M485,342.31392A3,3,0,1,1,491,342.31392A3,3,0,1,1,485,342.31392Z" id="point-1-24" opacity="1"/><path class="data-point" fill="rgb(128, 35, 146)" data-type="point" transform="translate(0, 0)" d="M502.92,333.7464A3,3,0,1,1,508.92,333.7464A3,3,0,1,1,502.92,333.7464Z" id="point-1-25" opacity="1"/><path class="data-point" fill="rgb(128, 35, 146)" data-type="point" transform="translate(0, 0)" d="M520.84,328.05552A3,3,0,1,1,526.84,328.05552A3,3,0,1,1,520.84,328.05552Z" id="point-1-26" opacity="1"/><path class="data-point" fill="rgb(128, 35, 146)" data-type="point" transform="translate(0, 0)" d="M538.76,324.8856A3,3,0,1,1,544.76,324.8856A3,3,0,1,1,538.76,324.8856Z" id="point-1-27" opacity="1"/><path class="data-point" fill="rgb(128, 35, 146)" data-type="point" transform="translate(0, 0)" d="M556.68,318.2683296A3,3,0,1,1,562.68,318.2683296A3,3,0,1,1,556.68,318.2683296Z" id="point-1-28" opacity="1"/><path class="data-point" fill="rgb(128, 35, 146)" data-type="point" transform="translate(0, 0)" d="M574.6,308.0710464A3,3,0,1,1,580.6,308.0710464A3,3,0,1,1,574.6,308.0710464Z" id="point-1-29" opacity="1"/><path class="data-point" fill="rgb(128, 35, 146)" data-type="point" transform="translate(0, 0)" d="M592.52,297.44638560000004A3,3,0,1,1,598.52,297.44638560000004A3,3,0,1,1,592.52,297.44638560000004Z" id="point-1-30" opacity="1"/><path class="data-point" fill="rgb(128, 35, 146)" data-type="point" transform="translate(0, 0)" d="M610.44,286.37643840000004A3,3,0,1,1,616.44,286.37643840000004A3,3,0,1,1,610.44,286.37643840000004Z" id="point-1-31" opacity="1"/><path class="data-point" fill="rgb(128, 35, 146)" data-type="point" transform="translate(0, 0)" d="M628.36,274.842672A3,3,0,1,1,634.36,274.842672A3,3,0,1,1,628.36,274.842672Z" id="point-1-32" opacity="1"/><path class="data-point" fill="rgb(128, 35, 146)" data-type="point" transform="translate(0, 0)" d="M646.2800000000001,262.8254928A3,3,0,1,1,652.2800000000001,262.8254928A3,3,0,1,1,646.2800000000001,262.8254928Z" id="point-1-33" opacity="1"/><path class="data-point" fill="rgb(128, 35, 146)" data-type="point" transform="translate(0, 0)" d="M664.1999999999999,250.3046832A3,3,0,1,1,670.1999999999999,250.3046832A3,3,0,1,1,664.1999999999999,250.3046832Z" id="point-1-34" opacity="1"/><path class="data-point" fill="rgb(128, 35, 146)" data-type="point" transform="translate(0, 0)" d="M682.12,237.25921440000002A3,3,0,1,1,688.12,237.25921440000002A3,3,0,1,1,682.12,237.25921440000002Z" id="point-1-35" opacity="1"/><path class="data-point" fill="rgb(128, 35, 146)" data-type="point" transform="translate(0, 0)" d="M700.04,223.66705920000004A3,3,0,1,1,706.04,223.66705920000004A3,3,0,1,1,700.04,223.66705920000004Z" id="point-1-36" opacity="1"/><path class="data-point" fill="rgb(128, 35, 146)" data-type="point" transform="translate(0, 0)" d="M717.96,209.5052544A3,3,0,1,1,723.96,209.5052544A3,3,0,1,1,717.96,209.5052544Z" id="point-1-37" opacity="1"/><path class="data-point" fill="rgb(128, 35, 146)" data-type="point" transform="translate(0, 0)" d="M735.88,194.75002560000001A3,3,0,1,1,741.88,194.75002560000001A3,3,0,1,1,735.88,194.75002560000001Z" id="point-1-38" opacity="1"/><path class="data-point" fill="rgb(128, 35, 146)" data-type="point" transform="translate(0, 0)" d="M753.8000000000001,179.37641280000003A3,3,0,1,1,759.8000000000001,179.37641280000003A3,3,0,1,1,753.8000000000001,179.37641280000003Z" id="point-1-39" opacity="1"/><path class="data-point" fill="rgb(128, 35, 146)" data-type="point" transform="translate(0, 0)" d="M771.7199999999999,163.35852A3,3,0,1,1,777.7199999999999,163.35852A3,3,0,1,1,771.7199999999999,163.35852Z" id="point-1-40" opacity="1"/><path class="data-point" fill="rgb(128, 35, 146)" data-type="point" transform="translate(0, 0)" d="M789.64,146.66939040000005A3,3,0,1,1,795.64,146.66939040000005A3,3,0,1,1,789.64,146.66939040000005Z" id="point-1-41" opacity="1"/><path class="data-point" fill="rgb(128, 35, 146)" data-type="point" transform="translate(0, 0)" d="M807.56,129.2808192A3,3,0,1,1,813.56,129.2808192A3,3,0,1,1,807.56,129.2808192Z" id="point-1-42" opacity="1"/><path class="data-point" fill="rgb(128, 35, 146)" data-type="point" transform="translate(0, 0)" d="M825.48,111.16360319999995A3,3,0,1,1,831.48,111.16360319999995A3,3,0,1,1,825.48,111.16360319999995Z" id="point-1-43" opacity="1"/><path class="data-point" fill="rgb(128, 35, 146)" data-type="point" transform="translate(0, 0)" d="M843.4,92.28710400000006A3,3,0,1,1,849.4,92.28710400000006A3,3,0,1,1,843.4,92.28710400000006Z" id="point-1-44" opacity="1"/><path class="data-point" fill="rgb(128, 35, 146)" data-type="point" transform="translate(0, 0)" d="M861.32,72.61956000000004A3,3,0,1,1,867.32,72.61956000000004A3,3,0,1,1,861.32,72.61956000000004Z" id="point-1-45" opacity="1"/><path class="data-point" fill="rgb(128, 35, 146)" data-type="point" transform="translate(0, 0)" d="M879.24,52.12783680000007A3,3,0,1,1,885.24,52.12783680000007A3,3,0,1,1,879.24,52.12783680000007Z" id="point-1-46" opacity="1"/></g></g><g id="data-labels"/><g class="annotations above"><g class="axis-highlights" transform="translate(15, 20)" style="opacity: 1;"/></g></svg>