<svg xmlns="http://www.w3.org/2000/svg" id="graphic" width="883" height="598.18"><g id="facets"><g class="facet" transform="translate(50,10)" opacity="1"><text class="facet-title" y="0" font-size="16" font-weight="bold" dominant-baseline="middle" x="0" clip-path="url(#facet-clip-0)" fill="black"/><g class="plot"><clipPath class="facet-clip" id="facet-clip-0"><rect width="838" height="563.18" transform="translate(-7.5,-10)"/></clipPath><g class="bg"><rect fill="none" width="823" height="543.18" style="fill: none;"/></g><g class="interaction"><g class="series"><path data-target="point-0-0" d="M31.647534187999963,543.18L23.6184866241,488.436509L0,488.436509L0,543.18Z" style="opacity: 0;"/><path data-target="point-0-1" d="M23.6184866241,488.436509L31.647534187999963,543.18L48.46160417044459,543.18L39.97093744279997,485.28908249999995L26.412457128150006,485.28908249999995Z" style="opacity: 0;"/><path data-target="point-0-2" d="M39.97093744279997,485.28908249999995L48.46160417044459,543.18L67.32675147519981,543.18L56.011732714000026,481.95154349999996L43.231045538,481.95154349999996Z" style="opacity: 0;"/><path data-target="point-0-3" d="M56.011732714000026,481.95154349999996L67.32675147519981,543.18L86.13781309995565,543.18L72.2139146112111,478.7075515L59.420735708038876,478.7075515Z" style="opacity: 0;"/><path data-target="point-0-4" d="M72.2139146112111,478.7075515L86.13781309995565,543.18L101.31007225484433,543.18L88.90883723449444,475.128599L75.9512955535,475.128599Z" style="opacity: 0;"/><path data-target="point-0-5" d="M88.90883723449444,475.128599L101.31007225484433,543.18L124.29254624999996,543.18L104.57179286249999,471.4681695L92.86551756948889,471.4681695Z" style="opacity: 0;"/><path data-target="point-0-6" d="M104.57179286249999,471.4681695L124.29254624999996,543.18L145.856175,543.18L120.71943414,467.008058L109.33727323954442,467.008058Z" style="opacity: 0;"/><path data-target="point-0-7" d="M120.71943414,467.008058L145.856175,543.18L158.5762785955556,543.18L137.68708627705553,461.79353L125.96212059120002,461.79353Z" style="opacity: 0;"/><path data-target="point-0-8" d="M137.68708627705553,461.79353L158.5762785955556,543.18L179.03066640444433,543.18L153.88175260155,457.4450725L142.26311314095,457.4450725Z" style="opacity: 0;"/><path data-target="point-0-9" d="M153.88175260155,457.4450725L179.03066640444433,543.18L202.83336207000005,543.18L169.97863990049999,452.6711235L158.80226183584998,452.6711235Z" style="opacity: 0;"/><path data-target="point-0-10" d="M169.97863990049999,452.6711235L202.83336207000005,543.18L247.13861388977784,543.18L228.51248746138327,507.78033056074776L185.89803695024997,446.9315215L175.4567074856,446.9315215Z" style="opacity: 0;"/><path data-target="point-0-11" d="M185.89803695024997,446.9315215L228.51248746138327,507.78033056074776L203.8996152,437.857398L191.23815863,437.857398Z" style="opacity: 0;"/><path data-target="point-0-12" d="M203.8996152,437.857398L228.51248746138327,507.78033056074776L247.13861388977784,543.18L259.07396259699993,543.18L219.92479165321112,430.79002249999996L208.41378322478886,430.79002249999996Z" style="opacity: 0;"/><path data-target="point-0-13" d="M219.92479165321112,430.79002249999996L259.07396259699993,543.18L275.0176865534444,543.18L236.05741775770557,423.792054L225.50310575189442,423.792054Z" style="opacity: 0;"/><path data-target="point-0-14" d="M236.05741775770557,423.792054L275.0176865534444,543.18L311.37226297555543,543.18L251.2376326387,417.02342749999997L242.64171185895,417.02342749999997Z" style="opacity: 0;"/><path data-target="point-0-15" d="M251.2376326387,417.02342749999997L311.37226297555543,543.18L355.6380517799998,543.18L267.01714842,408.90590399999996L259.2918394554,408.90590399999996Z" style="opacity: 0;"/><path data-target="point-0-16" d="M267.01714842,408.90590399999996L355.6380517799998,543.18L363.31042512222217,543.18L339.61490165205606,493.46911265702994L283.9639986779111,398.6096255L275.6852424968889,398.6096255Z" style="opacity: 0;"/><path data-target="point-0-17" d="M283.9639986779111,398.6096255L339.61490165205606,493.46911265702994L301.38530698924444,389.206576L291.9214858443556,389.206576Z" style="opacity: 0;"/><path data-target="point-0-18" d="M301.38530698924444,389.206576L339.61490165205606,493.46911265702994L363.31042512222217,543.18L376.62849219480034,543.18L317.58627594309996,382.47717950000003L308.35337261549995,382.47717950000003Z" style="opacity: 0;"/><path data-target="point-0-19" d="M317.58627594309996,382.47717950000003L376.62849219480034,543.18L412.2386228997555,543.18L332.70422460451107,374.7700585L326.2110579940889,374.7700585Z" style="opacity: 0;"/><path data-target="point-0-20" d="M332.70422460451107,374.7700585L412.2386228997555,543.18L414.50285936199964,543.18L349.773902212,366.6465L342.5813889284,366.64649999999995Z" style="opacity: 0;"/><path data-target="point-0-21" d="M349.773902212,366.6465L414.50285936199964,543.18L440.22174819900033,543.18L365.50478913499995,359.60024799999997L359.38498993999997,359.60024799999997Z" style="opacity: 0;"/><path data-target="point-0-22" d="M365.50478913499995,359.60024799999997L440.22174819900033,543.18L455.41438854500024,543.18L382.13258648999994,352.837657L375.2868770165,352.837657Z" style="opacity: 0;"/><path data-target="point-0-23" d="M382.13258648999994,352.837657L455.41438854500024,543.18L481.2075247994441,543.18L398.32780652485553,346.627299L391.3003169696,346.627299Z" style="opacity: 0;"/><path data-target="point-0-24" d="M398.32780652485553,346.627299L481.2075247994441,543.18L522.1704748705558,543.18L415.73185326145557,342.98195799999996L403.5192582281444,342.981958Z" style="opacity: 0;"/><path data-target="point-0-25" d="M415.73185326145557,342.98195799999996L522.1704748705558,543.18L527.1545148629997,543.18L499.3413747063686,474.68879022464705L432.50044953649996,334.463085L423.51583165650555,334.463085Z" style="opacity: 0;"/><path data-target="point-0-26" d="M432.50044953649996,334.463085L499.3413747063686,474.68879022464705L450.056161599,327.788006L438.778361336,327.788006Z" style="opacity: 0;"/><path data-target="point-0-27" d="M450.056161599,327.788006L499.3413747063686,474.68879022464705L527.1545148629997,543.18L530.5602441472801,543.18L467.12104160581765,323.4938665L454.0900762453,323.49386649999997Z" style="opacity: 0;"/><path data-target="point-0-28" d="M467.12104160581765,323.4938665L530.5602441472801,543.18L630.1703255377738,543.18L482.4937952765328,317.917158L471.7881591347442,317.917158Z" style="opacity: 0;"/><path data-target="point-0-29" d="M482.4937952765328,317.917158L630.1703255377738,543.18L661.4976921999474,543.18L499.3052249077532,307.590371L488.38167185894355,307.590371Z" style="opacity: 0;"/><path data-target="point-0-30" d="M499.3052249077532,307.590371L661.4976921999474,543.18L694.353948256372,543.18L516.2156660737143,296.78630949999996L504.5009164618226,296.78630949999996Z" style="opacity: 0;"/><path data-target="point-0-31" d="M516.2156660737143,296.78630949999996L694.353948256372,543.18L728.893897046247,543.18L533.2411931401829,285.482734L520.5362511028648,285.482734Z" style="opacity: 0;"/><path data-target="point-0-32" d="M533.2411931401829,285.482734L728.893897046247,543.18L765.2937577128191,543.18L550.4001479024058,273.65649799999994L536.4753690786245,273.65649799999994Z" style="opacity: 0;"/><path data-target="point-0-33" d="M550.4001479024058,273.65649799999994L765.2937577128191,543.18L803.7439355776886,543.18L567.7132953500131,261.28312900000003L552.3043763156713,261.28312900000003Z" style="opacity: 0;"/><path data-target="point-0-34" d="M567.7132953500131,261.28312900000003L803.7439355776886,543.18L823,543.18L823,518.7792905829774L585.2042651558943,248.33712849999998L568.0076965249315,248.33712849999998Z" style="opacity: 0;"/><path data-target="point-0-35" d="M583.5678156024059,234.79181849999998L585.2042651558943,248.33712849999998L823,518.7792905829774L823,473.15529041333957L602.8998475201213,234.79181849999998Z" style="opacity: 0;"/><path data-target="point-0-36" d="M598.9650726067164,220.61922599999997L602.8998475201213,234.79181849999998L823,473.15529041333957L823,429.1097366505511L620.8302984408111,220.61922599999997Z" style="opacity: 0;"/><path data-target="point-0-37" d="M614.1774786704034,205.79008L620.8302984408111,220.61922599999997L823,429.1097366505511L823,386.4514693624431L639.0299827821167,205.79008Z" style="opacity: 0;"/><path data-target="point-0-38" d="M629.1803847377065,190.273721L639.0299827821167,205.79008L823,386.4514693624431L823,345.000530895737L657.537725144274,190.273721Z" style="opacity: 0;"/><path data-target="point-0-39" d="M643.9460977501916,174.03801049999998L657.537725144274,190.273721L823,345.000530895737L823,321.5065881170762L674.4339103399915,174.03801049999998Z" style="opacity: 0;"/><path data-target="point-0-40" d="M492.4758772486109,0L658.4438427893463,157.049392L690.0720988496889,157.049392L674.693462672862,139.2726495L510.44527570029857,0Z" style="opacity: 0;"/><path data-target="point-0-41" d="M510.44527570029857,0L674.693462672862,139.2726495L705.4997439565863,139.2726495L692.338367324336,120.6709075L542.8908720377008,0Z" style="opacity: 0;"/><path data-target="point-0-42" d="M542.8908720377008,0L692.338367324336,120.6709075L720.6855097929243,120.6709075L710.2980161942929,101.2056595L578.6721919781822,-1.4210854715202004e-14Z" style="opacity: 0;"/><path data-target="point-0-43" d="M578.6721919781822,-1.4210854715202004e-14L710.2980161942929,101.2056595L735.594394911977,101.2056595L728.6227993634467,80.83644L618.216365056027,0Z" style="opacity: 0;"/><path data-target="point-0-44" d="M618.216365056027,0L728.6227993634467,80.83644L750.1868076751836,80.83644L747.370196298294,59.520970500000004L661.9996443843199,0Z" style="opacity: 0;"/><path data-target="point-0-45" d="M661.9996443843199,0L747.370196298294,59.520970500000004L764.4183765856371,59.520970500000004L766.6054072145018,37.2149515L710.5514039373217,0Z" style="opacity: 0;"/><path data-target="point-0-46" d="M710.5514039373217,0L766.6054072145018,37.2149515L823,37.2149515L823,0Z" style="opacity: 0;"/><path data-target="point-1-0" d="M0,488.436509L23.6184866241,488.436509L26.412457128150006,485.28908249999995L0,373.26111955567205Z" style="opacity: 0;"/><path data-target="point-1-1" d="M0,373.26111955567205L26.412457128150006,485.28908249999995L39.97093744279997,485.28908249999995L43.231045538,481.95154349999996L0,314.95032439121513Z" style="opacity: 0;"/><path data-target="point-1-2" d="M0,314.95032439121513L43.231045538,481.95154349999996L56.011732714000026,481.95154349999996L59.420735708038876,478.7075515L0,194.8957816558812Z" style="opacity: 0;"/><path data-target="point-1-3" d="M0,194.8957816558812L59.420735708038876,478.7075515L72.2139146112111,478.7075515L75.9512955535,475.128599L0,128.16059738510734Z" style="opacity: 0;"/><path data-target="point-1-4" d="M0,128.16059738510734L75.9512955535,475.128599L88.90883723449444,475.128599L92.86551756948889,471.4681695L0,117.73963256647167Z" style="opacity: 0;"/><path data-target="point-1-5" d="M0,117.73963256647167L92.86551756948889,471.4681695L104.57179286249999,471.4681695L109.33727323954442,467.008058L0,57.402919596209955Z" style="opacity: 0;"/><path data-target="point-1-6" d="M0,57.402919596209955L109.33727323954442,467.008058L120.71943414,467.008058L125.96212059120002,461.79353L0,46.898534640320065Z" style="opacity: 0;"/><path data-target="point-1-7" d="M0,46.898534640320065L125.96212059120002,461.79353L137.68708627705553,461.79353L142.26311314095,457.4450725L25.119619428176136,26.294930016472733L22.948430087045864,20.26987356977969L15.165586977526097,0L0,0Z" style="opacity: 0;"/><path data-target="point-1-8" d="M25.119619428176136,26.294930016472733L142.26311314095,457.4450725L153.88175260155,457.4450725L158.80226183584998,452.6711235L70.74855506629808,145.57846870838023Z" style="opacity: 0;"/><path data-target="point-1-9" d="M70.74855506629808,145.57846870838023L158.80226183584998,452.6711235L169.97863990049999,452.6711235L175.4567074856,446.9315215L91.1240222533932,194.74047714531545Z" style="opacity: 0;"/><path data-target="point-1-10" d="M91.1240222533932,194.74047714531545L175.4567074856,446.9315215L185.89803695024997,446.9315215L191.23815863,437.857398L111.34235792137007,239.22689641648773Z" style="opacity: 0;"/><path data-target="point-1-11" d="M111.34235792137007,239.22689641648773L191.23815863,437.857398L203.8996152,437.857398L208.41378322478886,430.79002249999996Z" style="opacity: 0;"/><path data-target="point-1-12" d="M22.948430087045864,20.26987356977969L25.119619428176136,26.294930016472733L70.74855506629808,145.57846870838023L91.1240222533932,194.74047714531545L111.34235792137007,239.22689641648773L208.41378322478886,430.79002249999996L219.92479165321112,430.79002249999996L225.50310575189442,423.792054Z" style="opacity: 0;"/><path data-target="point-1-13" d="M15.165586977526097,0L22.948430087045864,20.26987356977969L225.50310575189442,423.792054L236.05741775770557,423.792054L242.64171185895,417.02342749999997L35.75638947619896,0Z" style="opacity: 0;"/><path data-target="point-1-14" d="M35.75638947619896,0L242.64171185895,417.02342749999997L251.2376326387,417.02342749999997L259.2918394554,408.90590399999996L118.54364266091042,132.74857448495203L45.48325087272251,0Z" style="opacity: 0;"/><path data-target="point-1-15" d="M118.54364266091042,132.74857448495203L259.2918394554,408.90590399999996L267.01714842,408.90590399999996L275.6852424968889,398.6096255Z" style="opacity: 0;"/><path data-target="point-1-16" d="M45.48325087272251,0L118.54364266091042,132.74857448495203L275.6852424968889,398.6096255L283.9639986779111,398.6096255L291.9214858443556,389.206576L75.57453168035542,0Z" style="opacity: 0;"/><path data-target="point-1-17" d="M75.57453168035542,0L291.9214858443556,389.206576L301.38530698924444,389.206576L308.35337261549995,382.47717950000003L223.38579878868154,194.07901136958122L124.39902975949998,0Z" style="opacity: 0;"/><path data-target="point-1-18" d="M223.38579878868154,194.07901136958122L308.35337261549995,382.47717950000003L317.58627594309996,382.47717950000003L326.2110579940889,374.7700585Z" style="opacity: 0;"/><path data-target="point-1-19" d="M124.39902975949998,0L223.38579878868154,194.07901136958122L326.2110579940889,374.7700585L332.70422460451107,374.7700585L342.5813889284,366.64649999999995L153.8317707283995,0Z" style="opacity: 0;"/><path data-target="point-1-20" d="M153.8317707283995,0L342.5813889284,366.64649999999995L349.773902212,366.6465L359.38498993999997,359.60024799999997L183.36066854400073,0Z" style="opacity: 0;"/><path data-target="point-1-21" d="M183.36066854400073,0L359.38498993999997,359.60024799999997L365.50478913499995,359.60024799999997L375.2868770165,352.837657L228.96510065859977,0Z" style="opacity: 0;"/><path data-target="point-1-22" d="M228.96510065859977,0L375.2868770165,352.837657L382.13258648999994,352.837657L391.3003169696,346.627299L263.18686725919974,0Z" style="opacity: 0;"/><path data-target="point-1-23" d="M263.18686725919974,0L391.3003169696,346.627299L398.32780652485553,346.627299L403.5192582281444,342.981958L402.44812247314303,292.61502500683446L325.6805706626003,0Z" style="opacity: 0;"/><path data-target="point-1-24" d="M402.44812247314303,292.61502500683446L403.5192582281444,342.981958L415.73185326145557,342.98195799999996L423.51583165650555,334.463085Z" style="opacity: 0;"/><path data-target="point-1-25" d="M325.6805706626003,0L402.44812247314303,292.61502500683446L423.51583165650555,334.463085L432.50044953649996,334.463085L438.778361336,327.788006L329.1660521295994,0Z" style="opacity: 0;"/><path data-target="point-1-26" d="M329.1660521295994,0L438.778361336,327.788006L450.056161599,327.788006L454.0900762453,323.49386649999997L435.82236302360843,225.42095020914056L432.75589235138943,214.75685706982313L398.2429690182217,126.58632811375594L355.8473731681138,32.301276089547656L340.0256182388706,0Z" style="opacity: 0;"/><path data-target="point-1-27" d="M435.82236302360843,225.42095020914056L454.0900762453,323.49386649999997L467.12104160581765,323.4938665L471.7881591347442,317.917158Z" style="opacity: 0;"/><path data-target="point-1-28" d="M432.75589235138943,214.75685706982313L435.82236302360843,225.42095020914056L471.7881591347442,317.917158L482.4937952765328,317.917158L488.38167185894355,307.590371Z" style="opacity: 0;"/><path data-target="point-1-29" d="M398.2429690182217,126.58632811375594L432.75589235138943,214.75685706982313L488.38167185894355,307.590371L499.3052249077532,307.590371L504.5009164618226,296.78630949999996Z" style="opacity: 0;"/><path data-target="point-1-30" d="M355.8473731681138,32.301276089547656L398.2429690182217,126.58632811375594L504.5009164618226,296.78630949999996L516.2156660737143,296.78630949999996L520.5362511028648,285.482734Z" style="opacity: 0;"/><path data-target="point-1-31" d="M340.0256182388706,0L355.8473731681138,32.301276089547656L520.5362511028648,285.482734L533.2411931401829,285.482734L536.4753690786245,273.65649799999994L351.0095987209339,0Z" style="opacity: 0;"/><path data-target="point-1-32" d="M351.0095987209339,0L536.4753690786245,273.65649799999994L550.4001479024058,273.65649799999994L552.3043763156713,261.28312900000003L367.8025171584208,0Z" style="opacity: 0;"/><path data-target="point-1-33" d="M367.8025171584208,0L552.3043763156713,261.28312900000003L567.7132953500131,261.28312900000003L568.0076965249315,248.33712849999998L385.2983011226472,0Z" style="opacity: 0;"/><path data-target="point-1-34" d="M385.2983011226472,0L568.0076965249315,248.33712849999998L585.2042651558943,248.33712849999998L583.5678156024059,234.79181849999998L403.5856365990272,0Z" style="opacity: 0;"/><path data-target="point-1-35" d="M403.5856365990272,0L583.5678156024059,234.79181849999998L602.8998475201213,234.79181849999998L598.9650726067164,220.61922599999997L422.75995486614914,0Z" style="opacity: 0;"/><path data-target="point-1-36" d="M422.75995486614914,0L598.9650726067164,220.61922599999997L620.8302984408111,220.61922599999997L614.1774786704034,205.79008L442.92775080376964,0Z" style="opacity: 0;"/><path data-target="point-1-37" d="M442.92775080376964,0L614.1774786704034,205.79008L639.0299827821167,205.79008L629.1803847377065,190.273721L464.2078667367539,2.842170943040401e-14Z" style="opacity: 0;"/><path data-target="point-1-38" d="M464.2078667367539,2.842170943040401e-14L629.1803847377065,190.273721L657.537725144274,190.273721L643.9460977501916,174.03801049999998L486.7264290851619,0Z" style="opacity: 0;"/><path data-target="point-1-39" d="M486.7264290851619,0L643.9460977501916,174.03801049999998L674.4339103399915,174.03801049999998L658.4438427893463,157.049392L492.4758772486109,0Z" style="opacity: 0;"/><path data-target="point-1-40" d="M658.4438427893463,157.049392L674.4339103399915,174.03801049999998L823,321.5065881170762L823,292.59817750479135L690.0720988496889,157.049392Z" style="opacity: 0;"/><path data-target="point-1-41" d="M674.693462672862,139.2726495L690.0720988496889,157.049392L823,292.59817750479135L823,254.27006299137486L705.4997439565863,139.2726495Z" style="opacity: 0;"/><path data-target="point-1-42" d="M692.338367324336,120.6709075L705.4997439565863,139.2726495L823,254.27006299137486L823,216.77875194504065L720.6855097929243,120.6709075Z" style="opacity: 0;"/><path data-target="point-1-43" d="M710.2980161942929,101.2056595L720.6855097929243,120.6709075L823,216.77875194504065L823,180.00652594200756L735.594394911977,101.2056595Z" style="opacity: 0;"/><path data-target="point-1-44" d="M728.6227993634467,80.83644L735.594394911977,101.2056595L823,180.00652594200756L823,143.84116339765023L750.1868076751836,80.83644Z" style="opacity: 0;"/><path data-target="point-1-45" d="M747.370196298294,59.520970500000004L750.1868076751836,80.83644L823,143.84116339765023L823,108.17245130340484L764.4183765856371,59.520970500000004Z" style="opacity: 0;"/><path data-target="point-1-46" d="M764.4183765856371,59.520970500000004L823,108.17245130340484L823,37.2149515L766.6054072145018,37.2149515Z" style="opacity: 0;"/></g><g class="series"><path data-target="point-0-0" d="M31.647534187999963,543.18L23.6184866241,488.436509L0,488.436509L0,543.18Z" style="opacity: 0;"/><path data-target="point-0-1" d="M23.6184866241,488.436509L31.647534187999963,543.18L48.46160417044459,543.18L39.97093744279997,485.28908249999995L26.412457128150006,485.28908249999995Z" style="opacity: 0;"/><path data-target="point-0-2" d="M39.97093744279997,485.28908249999995L48.46160417044459,543.18L67.32675147519981,543.18L56.011732714000026,481.95154349999996L43.231045538,481.95154349999996Z" style="opacity: 0;"/><path data-target="point-0-3" d="M56.011732714000026,481.95154349999996L67.32675147519981,543.18L86.13781309995565,543.18L72.2139146112111,478.7075515L59.420735708038876,478.7075515Z" style="opacity: 0;"/><path data-target="point-0-4" d="M72.2139146112111,478.7075515L86.13781309995565,543.18L101.31007225484433,543.18L88.90883723449444,475.128599L75.9512955535,475.128599Z" style="opacity: 0;"/><path data-target="point-0-5" d="M88.90883723449444,475.128599L101.31007225484433,543.18L124.29254624999996,543.18L104.57179286249999,471.4681695L92.86551756948889,471.4681695Z" style="opacity: 0;"/><path data-target="point-0-6" d="M104.57179286249999,471.4681695L124.29254624999996,543.18L145.856175,543.18L120.71943414,467.008058L109.33727323954442,467.008058Z" style="opacity: 0;"/><path data-target="point-0-7" d="M120.71943414,467.008058L145.856175,543.18L158.5762785955556,543.18L137.68708627705553,461.79353L125.96212059120002,461.79353Z" style="opacity: 0;"/><path data-target="point-0-8" d="M137.68708627705553,461.79353L158.5762785955556,543.18L179.03066640444433,543.18L153.88175260155,457.4450725L142.26311314095,457.4450725Z" style="opacity: 0;"/><path data-target="point-0-9" d="M153.88175260155,457.4450725L179.03066640444433,543.18L202.83336207000005,543.18L169.97863990049999,452.6711235L158.80226183584998,452.6711235Z" style="opacity: 0;"/><path data-target="point-0-10" d="M169.97863990049999,452.6711235L202.83336207000005,543.18L247.13861388977784,543.18L228.51248746138327,507.78033056074776L185.89803695024997,446.9315215L175.4567074856,446.9315215Z" style="opacity: 0;"/><path data-target="point-0-11" d="M185.89803695024997,446.9315215L228.51248746138327,507.78033056074776L203.8996152,437.857398L191.23815863,437.857398Z" style="opacity: 0;"/><path data-target="point-0-12" d="M203.8996152,437.857398L228.51248746138327,507.78033056074776L247.13861388977784,543.18L259.07396259699993,543.18L219.92479165321112,430.79002249999996L208.41378322478886,430.79002249999996Z" style="opacity: 0;"/><path data-target="point-0-13" d="M219.92479165321112,430.79002249999996L259.07396259699993,543.18L275.0176865534444,543.18L236.05741775770557,423.792054L225.50310575189442,423.792054Z" style="opacity: 0;"/><path data-target="point-0-14" d="M236.05741775770557,423.792054L275.0176865534444,543.18L311.37226297555543,543.18L251.2376326387,417.02342749999997L242.64171185895,417.02342749999997Z" style="opacity: 0;"/><path data-target="point-0-15" d="M251.2376326387,417.02342749999997L311.37226297555543,543.18L355.6380517799998,543.18L267.01714842,408.90590399999996L259.2918394554,408.90590399999996Z" style="opacity: 0;"/><path data-target="point-0-16" d="M267.01714842,408.90590399999996L355.6380517799998,543.18L363.31042512222217,543.18L339.61490165205606,493.46911265702994L283.9639986779111,398.6096255L275.6852424968889,398.6096255Z" style="opacity: 0;"/><path data-target="point-0-17" d="M283.9639986779111,398.6096255L339.61490165205606,493.46911265702994L301.38530698924444,389.206576L291.9214858443556,389.206576Z" style="opacity: 0;"/><path data-target="point-0-18" d="M301.38530698924444,389.206576L339.61490165205606,493.46911265702994L363.31042512222217,543.18L376.62849219480034,543.18L317.58627594309996,382.47717950000003L308.35337261549995,382.47717950000003Z" style="opacity: 0;"/><path data-target="point-0-19" d="M317.58627594309996,382.47717950000003L376.62849219480034,543.18L412.2386228997555,543.18L332.70422460451107,374.7700585L326.2110579940889,374.7700585Z" style="opacity: 0;"/><path data-target="point-0-20" d="M332.70422460451107,374.7700585L412.2386228997555,543.18L414.50285936199964,543.18L349.773902212,366.6465L342.5813889284,366.64649999999995Z" style="opacity: 0;"/><path data-target="point-0-21" d="M349.773902212,366.6465L414.50285936199964,543.18L440.22174819900033,543.18L365.50478913499995,359.60024799999997L359.38498993999997,359.60024799999997Z" style="opacity: 0;"/><path data-target="point-0-22" d="M365.50478913499995,359.60024799999997L440.22174819900033,543.18L455.41438854500024,543.18L382.13258648999994,352.837657L375.2868770165,352.837657Z" style="opacity: 0;"/><path data-target="point-0-23" d="M382.13258648999994,352.837657L455.41438854500024,543.18L481.2075247994441,543.18L398.32780652485553,346.627299L391.3003169696,346.627299Z" style="opacity: 0;"/><path data-target="point-0-24" d="M398.32780652485553,346.627299L481.2075247994441,543.18L522.1704748705558,543.18L415.73185326145557,342.98195799999996L403.5192582281444,342.981958Z" style="opacity: 0;"/><path data-target="point-0-25" d="M415.73185326145557,342.98195799999996L522.1704748705558,543.18L527.1545148629997,543.18L499.3413747063686,474.68879022464705L432.50044953649996,334.463085L423.51583165650555,334.463085Z" style="opacity: 0;"/><path data-target="point-0-26" d="M432.50044953649996,334.463085L499.3413747063686,474.68879022464705L450.056161599,327.788006L438.778361336,327.788006Z" style="opacity: 0;"/><path data-target="point-0-27" d="M450.056161599,327.788006L499.3413747063686,474.68879022464705L527.1545148629997,543.18L530.5602441472801,543.18L467.12104160581765,323.4938665L454.0900762453,323.49386649999997Z" style="opacity: 0;"/><path data-target="point-0-28" d="M467.12104160581765,323.4938665L530.5602441472801,543.18L630.1703255377738,543.18L482.4937952765328,317.917158L471.7881591347442,317.917158Z" style="opacity: 0;"/><path data-target="point-0-29" d="M482.4937952765328,317.917158L630.1703255377738,543.18L661.4976921999474,543.18L499.3052249077532,307.590371L488.38167185894355,307.590371Z" style="opacity: 0;"/><path data-target="point-0-30" d="M499.3052249077532,307.590371L661.4976921999474,543.18L694.353948256372,543.18L516.2156660737143,296.78630949999996L504.5009164618226,296.78630949999996Z" style="opacity: 0;"/><path data-target="point-0-31" d="M516.2156660737143,296.78630949999996L694.353948256372,543.18L728.893897046247,543.18L533.2411931401829,285.482734L520.5362511028648,285.482734Z" style="opacity: 0;"/><path data-target="point-0-32" d="M533.2411931401829,285.482734L728.893897046247,543.18L765.2937577128191,543.18L550.4001479024058,273.65649799999994L536.4753690786245,273.65649799999994Z" style="opacity: 0;"/><path data-target="point-0-33" d="M550.4001479024058,273.65649799999994L765.2937577128191,543.18L803.7439355776886,543.18L567.7132953500131,261.28312900000003L552.3043763156713,261.28312900000003Z" style="opacity: 0;"/><path data-target="point-0-34" d="M567.7132953500131,261.28312900000003L803.7439355776886,543.18L823,543.18L823,518.7792905829774L585.2042651558943,248.33712849999998L568.0076965249315,248.33712849999998Z" style="opacity: 0;"/><path data-target="point-0-35" d="M583.5678156024059,234.79181849999998L585.2042651558943,248.33712849999998L823,518.7792905829774L823,473.15529041333957L602.8998475201213,234.79181849999998Z" style="opacity: 0;"/><path data-target="point-0-36" d="M598.9650726067164,220.61922599999997L602.8998475201213,234.79181849999998L823,473.15529041333957L823,429.1097366505511L620.8302984408111,220.61922599999997Z" style="opacity: 0;"/><path data-target="point-0-37" d="M614.1774786704034,205.79008L620.8302984408111,220.61922599999997L823,429.1097366505511L823,386.4514693624431L639.0299827821167,205.79008Z" style="opacity: 0;"/><path data-target="point-0-38" d="M629.1803847377065,190.273721L639.0299827821167,205.79008L823,386.4514693624431L823,345.000530895737L657.537725144274,190.273721Z" style="opacity: 0;"/><path data-target="point-0-39" d="M643.9460977501916,174.03801049999998L657.537725144274,190.273721L823,345.000530895737L823,321.5065881170762L674.4339103399915,174.03801049999998Z" style="opacity: 0;"/><path data-target="point-0-40" d="M492.4758772486109,0L658.4438427893463,157.049392L690.0720988496889,157.049392L674.693462672862,139.2726495L510.44527570029857,0Z" style="opacity: 0;"/><path data-target="point-0-41" d="M510.44527570029857,0L674.693462672862,139.2726495L705.4997439565863,139.2726495L692.338367324336,120.6709075L542.8908720377008,0Z" style="opacity: 0;"/><path data-target="point-0-42" d="M542.8908720377008,0L692.338367324336,120.6709075L720.6855097929243,120.6709075L710.2980161942929,101.2056595L578.6721919781822,-1.4210854715202004e-14Z" style="opacity: 0;"/><path data-target="point-0-43" d="M578.6721919781822,-1.4210854715202004e-14L710.2980161942929,101.2056595L735.594394911977,101.2056595L728.6227993634467,80.83644L618.216365056027,0Z" style="opacity: 0;"/><path data-target="point-0-44" d="M618.216365056027,0L728.6227993634467,80.83644L750.1868076751836,80.83644L747.370196298294,59.520970500000004L661.9996443843199,0Z" style="opacity: 0;"/><path data-target="point-0-45" d="M661.9996443843199,0L747.370196298294,59.520970500000004L764.4183765856371,59.520970500000004L766.6054072145018,37.2149515L710.5514039373217,0Z" style="opacity: 0;"/><path data-target="point-0-46" d="M710.5514039373217,0L766.6054072145018,37.2149515L823,37.2149515L823,0Z" style="opacity: 0;"/><path data-target="point-1-0" d="M0,488.436509L23.6184866241,488.436509L26.412457128150006,485.28908249999995L0,373.26111955567205Z" style="opacity: 0;"/><path data-target="point-1-1" d="M0,373.26111955567205L26.412457128150006,485.28908249999995L39.97093744279997,485.28908249999995L43.231045538,481.95154349999996L0,314.95032439121513Z" style="opacity: 0;"/><path data-target="point-1-2" d="M0,314.95032439121513L43.231045538,481.95154349999996L56.011732714000026,481.95154349999996L59.420735708038876,478.7075515L0,194.8957816558812Z" style="opacity: 0;"/><path data-target="point-1-3" d="M0,194.8957816558812L59.420735708038876,478.7075515L72.2139146112111,478.7075515L75.9512955535,475.128599L0,128.16059738510734Z" style="opacity: 0;"/><path data-target="point-1-4" d="M0,128.16059738510734L75.9512955535,475.128599L88.90883723449444,475.128599L92.86551756948889,471.4681695L0,117.73963256647167Z" style="opacity: 0;"/><path data-target="point-1-5" d="M0,117.73963256647167L92.86551756948889,471.4681695L104.57179286249999,471.4681695L109.33727323954442,467.008058L0,57.402919596209955Z" style="opacity: 0;"/><path data-target="point-1-6" d="M0,57.402919596209955L109.33727323954442,467.008058L120.71943414,467.008058L125.96212059120002,461.79353L0,46.898534640320065Z" style="opacity: 0;"/><path data-target="point-1-7" d="M0,46.898534640320065L125.96212059120002,461.79353L137.68708627705553,461.79353L142.26311314095,457.4450725L25.119619428176136,26.294930016472733L22.948430087045864,20.26987356977969L15.165586977526097,0L0,0Z" style="opacity: 0;"/><path data-target="point-1-8" d="M25.119619428176136,26.294930016472733L142.26311314095,457.4450725L153.88175260155,457.4450725L158.80226183584998,452.6711235L70.74855506629808,145.57846870838023Z" style="opacity: 0;"/><path data-target="point-1-9" d="M70.74855506629808,145.57846870838023L158.80226183584998,452.6711235L169.97863990049999,452.6711235L175.4567074856,446.9315215L91.1240222533932,194.74047714531545Z" style="opacity: 0;"/><path data-target="point-1-10" d="M91.1240222533932,194.74047714531545L175.4567074856,446.9315215L185.89803695024997,446.9315215L191.23815863,437.857398L111.34235792137007,239.22689641648773Z" style="opacity: 0;"/><path data-target="point-1-11" d="M111.34235792137007,239.22689641648773L191.23815863,437.857398L203.8996152,437.857398L208.41378322478886,430.79002249999996Z" style="opacity: 0;"/><path data-target="point-1-12" d="M22.948430087045864,20.26987356977969L25.119619428176136,26.294930016472733L70.74855506629808,145.57846870838023L91.1240222533932,194.74047714531545L111.34235792137007,239.22689641648773L208.41378322478886,430.79002249999996L219.92479165321112,430.79002249999996L225.50310575189442,423.792054Z" style="opacity: 0;"/><path data-target="point-1-13" d="M15.165586977526097,0L22.948430087045864,20.26987356977969L225.50310575189442,423.792054L236.05741775770557,423.792054L242.64171185895,417.02342749999997L35.75638947619896,0Z" style="opacity: 0;"/><path data-target="point-1-14" d="M35.75638947619896,0L242.64171185895,417.02342749999997L251.2376326387,417.02342749999997L259.2918394554,408.90590399999996L118.54364266091042,132.74857448495203L45.48325087272251,0Z" style="opacity: 0;"/><path data-target="point-1-15" d="M118.54364266091042,132.74857448495203L259.2918394554,408.90590399999996L267.01714842,408.90590399999996L275.6852424968889,398.6096255Z" style="opacity: 0;"/><path data-target="point-1-16" d="M45.48325087272251,0L118.54364266091042,132.74857448495203L275.6852424968889,398.6096255L283.9639986779111,398.6096255L291.9214858443556,389.206576L75.57453168035542,0Z" style="opacity: 0;"/><path data-target="point-1-17" d="M75.57453168035542,0L291.9214858443556,389.206576L301.38530698924444,389.206576L308.35337261549995,382.47717950000003L223.38579878868154,194.07901136958122L124.39902975949998,0Z" style="opacity: 0;"/><path data-target="point-1-18" d="M223.38579878868154,194.07901136958122L308.35337261549995,382.47717950000003L317.58627594309996,382.47717950000003L326.2110579940889,374.7700585Z" style="opacity: 0;"/><path data-target="point-1-19" d="M124.39902975949998,0L223.38579878868154,194.07901136958122L326.2110579940889,374.7700585L332.70422460451107,374.7700585L342.5813889284,366.64649999999995L153.8317707283995,0Z" style="opacity: 0;"/><path data-target="point-1-20" d="M153.8317707283995,0L342.5813889284,366.64649999999995L349.773902212,366.6465L359.38498993999997,359.60024799999997L183.36066854400073,0Z" style="opacity: 0;"/><path data-target="point-1-21" d="M183.36066854400073,0L359.38498993999997,359.60024799999997L365.50478913499995,359.60024799999997L375.2868770165,352.837657L228.96510065859977,0Z" style="opacity: 0;"/><path data-target="point-1-22" d="M228.96510065859977,0L375.2868770165,352.837657L382.13258648999994,352.837657L391.3003169696,346.627299L263.18686725919974,0Z" style="opacity: 0;"/><path data-target="point-1-23" d="M263.18686725919974,0L391.3003169696,346.627299L398.32780652485553,346.627299L403.5192582281444,342.981958L402.44812247314303,292.61502500683446L325.6805706626003,0Z" style="opacity: 0;"/><path data-target="point-1-24" d="M402.44812247314303,292.61502500683446L403.5192582281444,342.981958L415.73185326145557,342.98195799999996L423.51583165650555,334.463085Z" style="opacity: 0;"/><path data-target="point-1-25" d="M325.6805706626003,0L402.44812247314303,292.61502500683446L423.51583165650555,334.463085L432.50044953649996,334.463085L438.778361336,327.788006L329.1660521295994,0Z" style="opacity: 0;"/><path data-target="point-1-26" d="M329.1660521295994,0L438.778361336,327.788006L450.056161599,327.788006L454.0900762453,323.49386649999997L435.82236302360843,225.42095020914056L432.75589235138943,214.75685706982313L398.2429690182217,126.58632811375594L355.8473731681138,32.301276089547656L340.0256182388706,0Z" style="opacity: 0;"/><path data-target="point-1-27" d="M435.82236302360843,225.42095020914056L454.0900762453,323.49386649999997L467.12104160581765,323.4938665L471.7881591347442,317.917158Z" style="opacity: 0;"/><path data-target="point-1-28" d="M432.75589235138943,214.75685706982313L435.82236302360843,225.42095020914056L471.7881591347442,317.917158L482.4937952765328,317.917158L488.38167185894355,307.590371Z" style="opacity: 0;"/><path data-target="point-1-29" d="M398.2429690182217,126.58632811375594L432.75589235138943,214.75685706982313L488.38167185894355,307.590371L499.3052249077532,307.590371L504.5009164618226,296.78630949999996Z" style="opacity: 0;"/><path data-target="point-1-30" d="M355.8473731681138,32.301276089547656L398.2429690182217,126.58632811375594L504.5009164618226,296.78630949999996L516.2156660737143,296.78630949999996L520.5362511028648,285.482734Z" style="opacity: 0;"/><path data-target="point-1-31" d="M340.0256182388706,0L355.8473731681138,32.301276089547656L520.5362511028648,285.482734L533.2411931401829,285.482734L536.4753690786245,273.65649799999994L351.0095987209339,0Z" style="opacity: 0;"/><path data-target="point-1-32" d="M351.0095987209339,0L536.4753690786245,273.65649799999994L550.4001479024058,273.65649799999994L552.3043763156713,261.28312900000003L367.8025171584208,0Z" style="opacity: 0;"/><path data-target="point-1-33" d="M367.8025171584208,0L552.3043763156713,261.28312900000003L567.7132953500131,261.28312900000003L568.0076965249315,248.33712849999998L385.2983011226472,0Z" style="opacity: 0;"/><path data-target="point-1-34" d="M385.2983011226472,0L568.0076965249315,248.33712849999998L585.2042651558943,248.33712849999998L583.5678156024059,234.79181849999998L403.5856365990272,0Z" style="opacity: 0;"/><path data-target="point-1-35" d="M403.5856365990272,0L583.5678156024059,234.79181849999998L602.8998475201213,234.79181849999998L598.9650726067164,220.61922599999997L422.75995486614914,0Z" style="opacity: 0;"/><path data-target="point-1-36" d="M422.75995486614914,0L598.9650726067164,220.61922599999997L620.8302984408111,220.61922599999997L614.1774786704034,205.79008L442.92775080376964,0Z" style="opacity: 0;"/><path data-target="point-1-37" d="M442.92775080376964,0L614.1774786704034,205.79008L639.0299827821167,205.79008L629.1803847377065,190.273721L464.2078667367539,2.842170943040401e-14Z" style="opacity: 0;"/><path data-target="point-1-38" d="M464.2078667367539,2.842170943040401e-14L629.1803847377065,190.273721L657.537725144274,190.273721L643.9460977501916,174.03801049999998L486.7264290851619,0Z" style="opacity: 0;"/><path data-target="point-1-39" d="M486.7264290851619,0L643.9460977501916,174.03801049999998L674.4339103399915,174.03801049999998L658.4438427893463,157.049392L492.4758772486109,0Z" style="opacity: 0;"/><path data-target="point-1-40" d="M658.4438427893463,157.049392L674.4339103399915,174.03801049999998L823,321.5065881170762L823,292.59817750479135L690.0720988496889,157.049392Z" style="opacity: 0;"/><path data-target="point-1-41" d="M674.693462672862,139.2726495L690.0720988496889,157.049392L823,292.59817750479135L823,254.27006299137486L705.4997439565863,139.2726495Z" style="opacity: 0;"/><path data-target="point-1-42" d="M692.338367324336,120.6709075L705.4997439565863,139.2726495L823,254.27006299137486L823,216.77875194504065L720.6855097929243,120.6709075Z" style="opacity: 0;"/><path data-target="point-1-43" d="M710.2980161942929,101.2056595L720.6855097929243,120.6709075L823,216.77875194504065L823,180.00652594200756L735.594394911977,101.2056595Z" style="opacity: 0;"/><path data-target="point-1-44" d="M728.6227993634467,80.83644L735.594394911977,101.2056595L823,180.00652594200756L823,143.84116339765023L750.1868076751836,80.83644Z" style="opacity: 0;"/><path data-target="point-1-45" d="M747.370196298294,59.520970500000004L750.1868076751836,80.83644L823,143.84116339765023L823,108.17245130340484L764.4183765856371,59.520970500000004Z" style="opacity: 0;"/><path data-target="point-1-46" d="M764.4183765856371,59.520970500000004L823,108.17245130340484L823,37.2149515L766.6054072145018,37.2149515Z" style="opacity: 0;"/></g></g><g class="axes"><g class="y axis" fill="none" font-size="10" font-family="sans-serif" text-anchor="end" style="font-family: &quot;Source Sans Pro&quot;;"><path class="domain" stroke="#eeeeee" d="M0.5,543.68V0.5" stroke-dasharray="0" style="visibility: hidden;"/><g class="tick" opacity="1" transform="translate(0,543.68)" style="visibility: visible;"><line stroke="#eeeeee" x2="823" stroke-dasharray="0"/><text fill="rgb(0, 0, 0)" x="-3" dy="0.33em" opacity="1" text-anchor="end" font-size="14">$0</text></g><g class="tick" opacity="1" transform="translate(0, 483.32666015625)" style="visibility: visible;"><line stroke="#eeeeee" x2="823" stroke-dasharray="0"/><text fill="rgb(0, 0, 0)" x="-3" dy="0.33em" opacity="1" text-anchor="end" font-size="14">$10,000</text></g><g class="tick" opacity="1" transform="translate(0, 422.97332763671875)" style="visibility: visible;"><line stroke="#eeeeee" x2="823" stroke-dasharray="0"/><text fill="rgb(0, 0, 0)" x="-3" dy="0.33em" opacity="1" text-anchor="end" font-size="14">$20,000</text></g><g class="tick" opacity="1" transform="translate(0, 362.6199951171875)" style="visibility: visible;"><line stroke="#eeeeee" x2="823" stroke-dasharray="0"/><text fill="rgb(0, 0, 0)" x="-3" dy="0.33em" opacity="1" text-anchor="end" font-size="14">$30,000</text></g><g class="tick" opacity="1" transform="translate(0, 302.26666259765625)" style="visibility: visible;"><line stroke="#eeeeee" x2="823" stroke-dasharray="0"/><text fill="rgb(0, 0, 0)" x="-3" dy="0.33em" opacity="1" text-anchor="end" font-size="14">$40,000</text></g><g class="tick" opacity="1" transform="translate(0, 241.913330078125)" style="visibility: visible;"><line stroke="#eeeeee" x2="823" stroke-dasharray="0"/><text fill="rgb(0, 0, 0)" x="-3" dy="0.33em" opacity="1" text-anchor="end" font-size="14">$50,000</text></g><g class="tick" opacity="1" transform="translate(0, 181.55999755859375)" style="visibility: visible;"><line stroke="#eeeeee" x2="823" stroke-dasharray="0"/><text fill="rgb(0, 0, 0)" x="-3" dy="0.33em" opacity="1" text-anchor="end" font-size="14">$60,000</text></g><g class="tick" opacity="1" transform="translate(0, 121.2066650390625)" style="visibility: visible;"><line stroke="#eeeeee" x2="823" stroke-dasharray="0"/><text fill="rgb(0, 0, 0)" x="-3" dy="0.33em" opacity="1" text-anchor="end" font-size="14">$70,000</text></g><g class="tick" opacity="1" transform="translate(0, 60.85333251953125)" style="visibility: visible;"><line stroke="#eeeeee" x2="823" stroke-dasharray="0"/><text fill="rgb(0, 0, 0)" x="-3" dy="0.33em" opacity="1" text-anchor="end" font-size="14">$80,000</text></g><g class="tick" opacity="1" transform="translate(0, 0.5)" style="visibility: visible;"><line stroke="#eeeeee" x2="823" stroke-dasharray="0"/><text fill="rgb(0, 0, 0)" x="-3" dy="0.33em" opacity="1" text-anchor="end" font-size="14">$90,000</text></g></g><g class="x axis" transform="translate(0,543.18)" fill="none" font-size="10" font-family="sans-serif" text-anchor="middle" style="font-family: &quot;Source Sans Pro&quot;;"><path class="domain" stroke="#eeeeee" d="M0.5,0.5H823.5" stroke-dasharray="0"/><g class="tick" opacity="1" transform="translate(0.5,0)"><line stroke="#eeeeee" y2="6" stroke-dasharray="0"/><text fill="rgb(0, 0, 0)" y="9" dy="-9" opacity="1" dominant-baseline="central" font-size="16" transform="translate(0, 15) rotate(-45)" dx="5" style="text-anchor: end; visibility: visible;">1990</text></g><g class="tick" opacity="1" transform="translate(82.80000000000001,0)"><line stroke="#eeeeee" y2="6" stroke-dasharray="0"/><text fill="rgb(0, 0, 0)" y="9" dy="-9" opacity="1" dominant-baseline="central" font-size="16" transform="translate(0, 15) rotate(-45)" dx="5" style="text-anchor: end; visibility: visible;">1995</text></g><g class="tick" opacity="1" transform="translate(165.10000000000002,0)"><line stroke="#eeeeee" y2="6" stroke-dasharray="0"/><text fill="rgb(0, 0, 0)" y="9" dy="-9" opacity="1" dominant-baseline="central" font-size="16" transform="translate(0, 15) rotate(-45)" dx="5" style="text-anchor: end; visibility: visible;">2000</text></g><g class="tick" opacity="1" transform="translate(247.39999999999998,0)"><line stroke="#eeeeee" y2="6" stroke-dasharray="0"/><text fill="rgb(0, 0, 0)" y="9" dy="-9" opacity="1" dominant-baseline="central" font-size="16" transform="translate(0, 15) rotate(-45)" dx="5" style="text-anchor: end; visibility: visible;">2005</text></g><g class="tick" opacity="1" transform="translate(329.70000000000005,0)"><line stroke="#eeeeee" y2="6" stroke-dasharray="0"/><text fill="rgb(0, 0, 0)" y="9" dy="-9" opacity="1" dominant-baseline="central" font-size="16" transform="translate(0, 15) rotate(-45)" dx="5" style="text-anchor: end; visibility: visible;">2010</text></g><g class="tick" opacity="1" transform="translate(412,0)"><line stroke="#eeeeee" y2="6" stroke-dasharray="0"/><text fill="rgb(0, 0, 0)" y="9" dy="-9" opacity="1" dominant-baseline="central" font-size="16" transform="translate(0, 15) rotate(-45)" dx="5" style="text-anchor: end; visibility: visible;">2015</text></g><g class="tick" opacity="1" transform="translate(494.29999999999995,0)"><line stroke="#eeeeee" y2="6" stroke-dasharray="0"/><text fill="rgb(0, 0, 0)" y="9" dy="-9" opacity="1" dominant-baseline="central" font-size="16" transform="translate(0, 15) rotate(-45)" dx="5" style="text-anchor: end; visibility: visible;">2020</text></g><g class="tick" opacity="1" transform="translate(576.5999999999999,0)"><line stroke="#eeeeee" y2="6" stroke-dasharray="0"/><text fill="rgb(0, 0, 0)" y="9" dy="-9" opacity="1" dominant-baseline="central" font-size="16" transform="translate(0, 15) rotate(-45)" dx="5" style="text-anchor: end; visibility: visible;">2025</text></g><g class="tick" opacity="1" transform="translate(658.9000000000001,0)"><line stroke="#eeeeee" y2="6" stroke-dasharray="0"/><text fill="rgb(0, 0, 0)" y="9" dy="-9" opacity="1" dominant-baseline="central" font-size="16" transform="translate(0, 15) rotate(-45)" dx="5" style="text-anchor: end; visibility: visible;">2030</text></g><g class="tick" opacity="1" transform="translate(741.2,0)"><line stroke="#eeeeee" y2="6" stroke-dasharray="0"/><text fill="rgb(0, 0, 0)" y="9" dy="-9" opacity="1" dominant-baseline="central" font-size="16" transform="translate(0, 15) rotate(-45)" dx="5" style="text-anchor: end; visibility: visible;">2035</text></g><g class="tick" opacity="1" transform="translate(823.5,0)"><line stroke="#eeeeee" y2="6" stroke-dasharray="0"/><text fill="rgb(0, 0, 0)" y="9" dy="-9" opacity="1" dominant-baseline="central" font-size="16" transform="translate(0, 15) rotate(-45)" dx="5" style="text-anchor: end; visibility: visible;">2040</text></g></g></g></g></g></g><g class="annotations below"><g class="axis-highlights" transform="translate(50, 10)" style="opacity: 1;"><g class="line x" transform="translate(477.34, 0)"><line width="0" stroke-dasharray="2 2" stroke="#333333" stroke-width="2" y2="543.18"/><text transform="translate(0, 6) rotate(-90)" fill="#333333" text-anchor="end" dy="-0.5em" font-size="12">Current</text></g></g></g><g id="areas"><g class="series" pointer-events="none"><path class="area" transform="translate(50,10)" fill-opacity="0" fill="rgb(17, 165, 121)" clip-path="url(#clip-0-0)" d="M16.46,496.9493466666666C21.94666666666667,496.1446355555555,27.433333333333334,495.33992444444436,32.92,494.5352133333333C38.406666666666666,493.7305022222222,43.89333333333333,493.0304035555555,49.379999999999995,492.12107999999995C54.86666666666667,491.2117564444444,60.35333333333333,490.1787085555555,65.84,489.07927199999995C71.32666666666667,487.9798354444444,76.81333333333335,486.616856,82.30000000000001,485.52446066666664C87.78666666666668,484.4320653333333,93.27333333333333,483.7792434444444,98.75999999999999,482.52489999999995C104.24666666666667,481.2705565555555,109.73333333333333,479.6581166666666,115.22000000000001,477.99839999999995C120.70666666666668,476.3386833333333,126.19333333333334,474.1760222222222,131.68,472.56659999999994C137.16666666666666,470.9571777777777,142.65333333333334,469.85069999999996,148.14,468.34186666666665C153.62666666666667,466.83303333333333,159.11333333333334,465.31414111111104,164.60000000000002,463.51359999999994C170.08666666666667,461.71305888888884,175.57333333333335,460.4556977777777,181.06,457.5386199999999C186.54666666666665,454.62154222222216,192.03333333333333,448.8980344444444,197.51999999999998,446.0111333333333C203.00666666666666,443.1242322222222,208.49333333333334,442.1384611111111,213.98000000000002,440.2172133333333C219.4666666666667,438.29596555555554,224.95333333333335,436.33448222222216,230.44000000000003,434.48364666666663C235.92666666666668,432.6328111111111,241.41333333333333,431.31509666666665,246.89999999999998,429.1122C252.38666666666666,426.9093033333333,257.87333333333333,424.3845222222222,263.36,421.26626666666664C268.8466666666667,418.1480111111111,274.3333333333333,413.8226888888888,279.82,410.4026666666666C285.3066666666667,406.9826444444444,290.7933333333333,403.36144444444443,296.28,400.7461333333333C301.76666666666665,398.1308222222222,307.25333333333333,396.7245895555555,312.74,394.71079999999995C318.2266666666667,392.6970104444444,323.71333333333337,390.9668815555555,329.20000000000005,388.663396C334.68666666666667,386.35991044444444,340.17333333333335,383.1913604444444,345.65999999999997,380.88988666666665C351.14666666666665,378.58841288888885,356.6333333333333,376.9769788888889,362.12,374.85455333333334C367.6066666666667,372.7321277777778,373.09333333333336,370.3280533333333,378.58000000000004,368.15533333333326C384.06666666666666,365.98261333333323,389.55333333333334,364.03118888888883,395.03999999999996,361.8182333333333C400.52666666666664,359.60527777777776,406.0133333333333,357.4929111111111,411.5,354.8776C416.9866666666667,352.26228888888886,422.47333333333336,348.8925611111111,427.96000000000004,346.1263666666666C433.4466666666667,343.36017222222216,438.93333333333334,340.50847722222215,444.42,338.2804333333333C449.9066666666667,336.05238944444443,455.3933333333334,334.47068952,460.88000000000005,332.75810333333334C466.3666666666667,331.04551714666667,471.85333333333335,330.59557298777776,477.34,328.00491621333333C482.82666666666665,325.4142594388889,488.3133333333333,320.90127858555553,493.79999999999995,317.21416268666667C499.28666666666663,313.52704678777775,504.7733333333333,309.7542593322222,510.26,305.88222082C515.7466666666667,302.01018230777777,521.2333333333333,298.0481469166666,526.72,293.9819316133333C532.2066666666667,289.91571631,537.6933333333334,285.75504803999996,543.1800000000001,281.48492899999997C548.6666666666667,277.21480995999997,554.1533333333333,272.84548009888886,559.64,268.3612173733333C565.1266666666667,263.8769546477778,570.6133333333332,259.28850195111113,576.0999999999999,254.57935264666668C581.5866666666666,249.87020334222223,587.0733333333333,245.05163344444443,592.56,240.10632154666666C598.0466666666666,235.1610096488889,603.5333333333333,230.10078500444445,609.02,224.90748126C614.5066666666667,219.71417751555555,619.9933333333333,214.40023751666664,625.48,208.94649907999997C630.9666666666667,203.4927606433333,636.4533333333334,197.91230032444437,641.94,192.18505063999993C647.4266666666667,186.45780095555548,652.9133333333334,180.59746211222225,658.4000000000001,174.58300097333336C663.8866666666668,168.5685398344445,669.3733333333333,162.41436072888888,674.86,156.09828380666664C680.3466666666667,149.7822068844444,685.8333333333333,143.31937077333328,691.3199999999999,136.68653944C696.8066666666666,130.05370810666665,702.2933333333333,123.26675447777782,707.78,116.3012958066667C713.2666666666667,109.33583713555558,718.7533333333333,102.20855105999992,724.24,94.89378741333326C729.7266666666667,87.5790237666666,735.2133333333334,80.09430513333335,740.7,72.4127139266667C746.1866666666667,64.73112272000004,751.6733333333334,56.87105664777779,757.1600000000001,48.80424017333331C762.6466666666668,40.73742369888889,768.1333333333333,32.374619389444454,773.62,24.01181508000002L773.62,24.01181508000002C768.1333333333333,32.374619389444454,762.6466666666668,40.73742369888889,757.1600000000001,48.80424017333331C751.6733333333334,56.87105664777779,746.1866666666667,64.73112272000004,740.7,72.4127139266667C735.2133333333334,80.09430513333335,729.7266666666667,87.5790237666666,724.24,94.89378741333326C718.7533333333333,102.20855105999992,713.2666666666667,109.33583713555558,707.78,116.3012958066667C702.2933333333333,123.26675447777782,696.8066666666666,130.05370810666665,691.3199999999999,136.68653944C685.8333333333333,143.31937077333328,680.3466666666667,149.7822068844444,674.86,156.09828380666664C669.3733333333333,162.41436072888888,663.8866666666668,168.5685398344445,658.4000000000001,174.58300097333336C652.9133333333334,180.59746211222225,647.4266666666667,186.45780095555548,641.94,192.18505063999993C636.4533333333334,197.91230032444437,630.9666666666667,203.4927606433333,625.48,208.94649907999997C619.9933333333333,214.40023751666664,614.5066666666667,219.71417751555555,609.02,224.90748126C603.5333333333333,230.10078500444445,598.0466666666666,235.1610096488889,592.56,240.10632154666666C587.0733333333333,245.05163344444443,581.5866666666666,249.87020334222223,576.0999999999999,254.57935264666668C570.6133333333332,259.28850195111113,565.1266666666667,263.8769546477778,559.64,268.3612173733333C554.1533333333333,272.84548009888886,548.6666666666667,277.21480995999997,543.1800000000001,281.48492899999997C537.6933333333334,285.75504803999996,532.2066666666667,289.91571631,526.72,293.9819316133333C521.2333333333333,298.0481469166666,515.7466666666667,302.01018230777777,510.26,305.88222082C504.7733333333333,309.7542593322222,499.28666666666663,313.52704678777775,493.79999999999995,317.21416268666667C488.3133333333333,320.90127858555553,482.82666666666665,325.4142594388889,477.34,328.00491621333333C471.85333333333335,330.59557298777776,466.3666666666667,331.04551714666667,460.88000000000005,332.75810333333334C455.3933333333334,334.47068952,449.9066666666667,336.05238944444443,444.42,338.2804333333333C438.93333333333334,340.50847722222215,433.4466666666667,343.36017222222216,427.96000000000004,346.1263666666666C422.47333333333336,348.8925611111111,416.9866666666667,352.26228888888886,411.5,354.8776C406.0133333333333,357.4929111111111,400.52666666666664,359.60527777777776,395.03999999999996,361.8182333333333C389.55333333333334,364.03118888888883,384.06666666666666,365.98261333333323,378.58000000000004,368.15533333333326C373.09333333333336,370.3280533333333,367.6066666666667,372.7321277777778,362.12,374.85455333333334C356.6333333333333,376.9769788888889,351.14666666666665,378.58841288888885,345.65999999999997,380.88988666666665C340.17333333333335,383.1913604444444,334.68666666666667,386.35991044444444,329.20000000000005,388.663396C323.71333333333337,390.9668815555555,318.2266666666667,392.6970104444444,312.74,394.71079999999995C307.25333333333333,396.7245895555555,301.76666666666665,398.1308222222222,296.28,400.7461333333333C290.7933333333333,403.36144444444443,285.3066666666667,406.9826444444444,279.82,410.4026666666666C274.3333333333333,413.8226888888888,268.8466666666667,418.1480111111111,263.36,421.26626666666664C257.87333333333333,424.3845222222222,252.38666666666666,426.9093033333333,246.89999999999998,429.1122C241.41333333333333,431.31509666666665,235.92666666666668,432.6328111111111,230.44000000000003,434.48364666666663C224.95333333333335,436.33448222222216,219.4666666666667,438.29596555555554,213.98000000000002,440.2172133333333C208.49333333333334,442.1384611111111,203.00666666666666,443.1242322222222,197.51999999999998,446.0111333333333C192.03333333333333,448.8980344444444,186.54666666666665,454.62154222222216,181.06,457.5386199999999C175.57333333333335,460.4556977777777,170.08666666666667,461.71305888888884,164.60000000000002,463.51359999999994C159.11333333333334,465.31414111111104,153.62666666666667,466.83303333333333,148.14,468.34186666666665C142.65333333333334,469.85069999999996,137.16666666666666,470.9571777777777,131.68,472.56659999999994C126.19333333333334,474.1760222222222,120.70666666666668,476.3386833333333,115.22000000000001,477.99839999999995C109.73333333333333,479.6581166666666,104.24666666666667,481.2705565555555,98.75999999999999,482.52489999999995C93.27333333333333,483.7792434444444,87.78666666666668,484.4320653333333,82.30000000000001,485.52446066666664C76.81333333333335,486.616856,71.32666666666667,487.9798354444444,65.84,489.07927199999995C60.35333333333333,490.1787085555555,54.86666666666667,491.2117564444444,49.379999999999995,492.12107999999995C43.89333333333333,493.0304035555555,38.406666666666666,493.7305022222222,32.92,494.5352133333333C27.433333333333334,495.33992444444436,21.94666666666667,496.1446355555555,16.46,496.9493466666666Z"/></g><g class="series" pointer-events="none"><path class="area" transform="translate(50,10)" fill-opacity="0" fill="rgb(204, 80, 62)" clip-path="url(#clip-0-1)" d="M16.46,479.9236713333333C21.94666666666667,478.6617837222222,27.433333333333334,477.39989611111105,32.92,476.04295199999996C38.406666666666666,474.68600788888887,43.89333333333333,473.0665267777777,49.379999999999995,471.78200666666663C54.86666666666667,470.4974865555555,60.35333333333333,469.51070955555554,65.84,468.3358313333333C71.32666666666667,467.1609531111111,76.81333333333335,466.0534694444444,82.30000000000001,464.73273733333326C87.78666666666668,463.41200522222215,93.27333333333333,461.8639422222222,98.75999999999999,460.41143866666664C104.24666666666667,458.9589351111111,109.73333333333333,457.5828791111111,115.22000000000001,456.01771599999995C120.70666666666668,454.4525528888888,126.19333333333334,452.5986996666666,131.68,451.02045999999996C137.16666666666666,449.4422203333333,142.65333333333334,448.08024677777775,148.14,446.548278C153.62666666666667,445.0163092222222,159.11333333333334,443.53262311111104,164.60000000000002,441.82864733333327C170.08666666666667,440.1246715555555,175.57333333333335,438.3452541111111,181.06,436.3244233333333C186.54666666666665,434.3035925555555,192.03333333333333,432.19726122222215,197.51999999999998,429.7036626666666C203.00666666666666,427.2100641111111,208.49333333333334,424.1300323333333,213.98000000000002,421.36283199999997C219.4666666666667,418.59563166666663,224.95333333333335,415.8384902222222,230.44000000000003,413.10046066666666C235.92666666666668,410.3624311111111,241.41333333333333,407.69380788888884,246.89999999999998,404.93465466666663C252.38666666666666,402.1755014444444,257.87333333333333,399.5652197777777,263.36,396.5455413333333C268.8466666666667,393.52586288888887,274.3333333333333,389.96300444444444,279.82,386.816584C285.3066666666667,383.6701635555555,290.7933333333333,380.4291895555555,296.28,377.66701866666665C301.76666666666665,374.9048477777778,307.25333333333333,373.0419415555556,312.74,370.2435586666667C318.2266666666667,367.44517577777776,323.71333333333337,363.8501288888889,329.20000000000005,360.8767213333333C334.68666666666667,357.9033137777778,340.17333333333335,355.15824299999997,345.65999999999997,352.4031133333333C351.14666666666665,349.6479836666666,356.6333333333333,346.82646533333326,362.12,344.34594333333325C367.6066666666667,341.86542133333325,373.09333333333336,339.67157766666656,378.58000000000004,337.51998133333325C384.06666666666666,335.36838499999993,389.55333333333334,331.66973155555553,395.03999999999996,331.4363653333333C400.52666666666664,331.20299911111107,406.0133333333333,331.3196822222222,411.5,331.08631599999995C416.9866666666667,330.8529497777777,422.47333333333336,325.09825944444447,427.96000000000004,322.79980333333333C433.4466666666667,320.50134722222225,438.93333333333334,318.72394155555554,444.42,317.2955793333333C449.9066666666667,315.8672171111111,455.3933333333334,315.8073264866667,460.88000000000005,314.22963C466.3666666666667,312.65193351333335,471.85333333333335,310.53990884888884,477.34,307.8294004133333C482.82666666666665,305.11889197777776,488.3133333333333,301.32307972555554,493.79999999999995,297.96657938666664C499.28666666666663,294.61007904777773,504.7733333333333,291.18757228,510.26,287.69039838C515.7466666666667,284.19322447999997,521.2333333333333,280.62725783888885,526.72,276.98353598666665C532.2066666666667,273.33981413444445,537.6933333333334,269.6244830522222,543.1800000000001,265.82806726666666C548.6666666666667,262.0316514811111,554.1533333333333,258.16056856333336,559.64,254.20504127333334C565.1266666666667,250.24951398333334,570.6133333333332,246.21619124666665,576.0999999999999,242.09490352666666C581.5866666666666,237.97361580666663,587.0733333333333,233.77130373666662,592.56,229.4773149533333C598.0466666666666,225.18332616999996,603.5333333333333,220.80491313222223,609.02,216.33097082666666C614.5066666666667,211.8570285211111,619.9933333333333,207.2950910555555,625.48,202.63366111999994C630.9666666666667,197.97223118444438,636.4533333333334,193.21916477111108,641.94,188.3623912133333C647.4266666666667,183.5056176555555,652.9133333333334,178.55333494777776,658.4000000000001,173.4930197733333C663.8866666666668,168.43270459888888,669.3733333333333,163.27287683666665,674.86,158.00050016666665C680.3466666666667,152.72812349666665,685.8333333333333,147.35208997666666,691.3199999999999,141.85875975333335C696.8066666666666,136.36542953,702.2933333333333,130.7640567811111,707.78,125.04051882666664C713.2666666666667,119.31698087222219,718.7533333333333,113.48092418666663,724.24,107.51753202666663C729.7266666666667,101.55413986666663,735.2133333333334,95.47347112111112,740.7,89.26016586666668C746.1866666666667,83.04686061222225,751.6733333333334,76.71138009333336,757.1600000000001,70.23770050000002C762.6466666666668,63.764020906666715,768.1333333333333,57.091054606666724,773.62,50.41808830666673L773.62,50.41808830666673C768.1333333333333,57.091054606666724,762.6466666666668,63.764020906666715,757.1600000000001,70.23770050000002C751.6733333333334,76.71138009333336,746.1866666666667,83.04686061222225,740.7,89.26016586666668C735.2133333333334,95.47347112111112,729.7266666666667,101.55413986666663,724.24,107.51753202666663C718.7533333333333,113.48092418666663,713.2666666666667,119.31698087222219,707.78,125.04051882666664C702.2933333333333,130.7640567811111,696.8066666666666,136.36542953,691.3199999999999,141.85875975333335C685.8333333333333,147.35208997666666,680.3466666666667,152.72812349666665,674.86,158.00050016666665C669.3733333333333,163.27287683666665,663.8866666666668,168.43270459888888,658.4000000000001,173.4930197733333C652.9133333333334,178.55333494777776,647.4266666666667,183.5056176555555,641.94,188.3623912133333C636.4533333333334,193.21916477111108,630.9666666666667,197.97223118444438,625.48,202.63366111999994C619.9933333333333,207.2950910555555,614.5066666666667,211.8570285211111,609.02,216.33097082666666C603.5333333333333,220.80491313222223,598.0466666666666,225.18332616999996,592.56,229.4773149533333C587.0733333333333,233.77130373666662,581.5866666666666,237.97361580666663,576.0999999999999,242.09490352666666C570.6133333333332,246.21619124666665,565.1266666666667,250.24951398333334,559.64,254.20504127333334C554.1533333333333,258.16056856333336,548.6666666666667,262.0316514811111,543.1800000000001,265.82806726666666C537.6933333333334,269.6244830522222,532.2066666666667,273.33981413444445,526.72,276.98353598666665C521.2333333333333,280.62725783888885,515.7466666666667,284.19322447999997,510.26,287.69039838C504.7733333333333,291.18757228,499.28666666666663,294.61007904777773,493.79999999999995,297.96657938666664C488.3133333333333,301.32307972555554,482.82666666666665,305.11889197777776,477.34,307.8294004133333C471.85333333333335,310.53990884888884,466.3666666666667,312.65193351333335,460.88000000000005,314.22963C455.3933333333334,315.8073264866667,449.9066666666667,315.8672171111111,444.42,317.2955793333333C438.93333333333334,318.72394155555554,433.4466666666667,320.50134722222225,427.96000000000004,322.79980333333333C422.47333333333336,325.09825944444447,416.9866666666667,330.8529497777777,411.5,331.08631599999995C406.0133333333333,331.3196822222222,400.52666666666664,331.20299911111107,395.03999999999996,331.4363653333333C389.55333333333334,331.66973155555553,384.06666666666666,335.36838499999993,378.58000000000004,337.51998133333325C373.09333333333336,339.67157766666656,367.6066666666667,341.86542133333325,362.12,344.34594333333325C356.6333333333333,346.82646533333326,351.14666666666665,349.6479836666666,345.65999999999997,352.4031133333333C340.17333333333335,355.15824299999997,334.68666666666667,357.9033137777778,329.20000000000005,360.8767213333333C323.71333333333337,363.8501288888889,318.2266666666667,367.44517577777776,312.74,370.2435586666667C307.25333333333333,373.0419415555556,301.76666666666665,374.9048477777778,296.28,377.66701866666665C290.7933333333333,380.4291895555555,285.3066666666667,383.6701635555555,279.82,386.816584C274.3333333333333,389.96300444444444,268.8466666666667,393.52586288888887,263.36,396.5455413333333C257.87333333333333,399.5652197777777,252.38666666666666,402.1755014444444,246.89999999999998,404.93465466666663C241.41333333333333,407.69380788888884,235.92666666666668,410.3624311111111,230.44000000000003,413.10046066666666C224.95333333333335,415.8384902222222,219.4666666666667,418.59563166666663,213.98000000000002,421.36283199999997C208.49333333333334,424.1300323333333,203.00666666666666,427.2100641111111,197.51999999999998,429.7036626666666C192.03333333333333,432.19726122222215,186.54666666666665,434.3035925555555,181.06,436.3244233333333C175.57333333333335,438.3452541111111,170.08666666666667,440.1246715555555,164.60000000000002,441.82864733333327C159.11333333333334,443.53262311111104,153.62666666666667,445.0163092222222,148.14,446.548278C142.65333333333334,448.08024677777775,137.16666666666666,449.4422203333333,131.68,451.02045999999996C126.19333333333334,452.5986996666666,120.70666666666668,454.4525528888888,115.22000000000001,456.01771599999995C109.73333333333333,457.5828791111111,104.24666666666667,458.9589351111111,98.75999999999999,460.41143866666664C93.27333333333333,461.8639422222222,87.78666666666668,463.41200522222215,82.30000000000001,464.73273733333326C76.81333333333335,466.0534694444444,71.32666666666667,467.1609531111111,65.84,468.3358313333333C60.35333333333333,469.51070955555554,54.86666666666667,470.4974865555555,49.379999999999995,471.78200666666663C43.89333333333333,473.0665267777777,38.406666666666666,474.68600788888887,32.92,476.04295199999996C27.433333333333334,477.39989611111105,21.94666666666667,478.6617837222222,16.46,479.9236713333333Z"/></g></g><g id="lines"><g class="series"><clipPath id="clip-0-0"><rect width="823" y="-10" height="563.18"/></clipPath><path class="line" opacity="1" fill="none" stroke="rgb(17, 165, 121)" stroke-width="2" transform="translate(50,10)" clip-path="url(#clip-0-0)" d="M16.46,496.9493466666666C21.94666666666667,496.1446355555555,27.433333333333334,495.33992444444436,32.92,494.5352133333333C38.406666666666666,493.7305022222222,43.89333333333333,493.0304035555555,49.379999999999995,492.12107999999995C54.86666666666667,491.2117564444444,60.35333333333333,490.1787085555555,65.84,489.07927199999995C71.32666666666667,487.9798354444444,76.81333333333335,486.616856,82.30000000000001,485.52446066666664C87.78666666666668,484.4320653333333,93.27333333333333,483.7792434444444,98.75999999999999,482.52489999999995C104.24666666666667,481.2705565555555,109.73333333333333,479.6581166666666,115.22000000000001,477.99839999999995C120.70666666666668,476.3386833333333,126.19333333333334,474.1760222222222,131.68,472.56659999999994C137.16666666666666,470.9571777777777,142.65333333333334,469.85069999999996,148.14,468.34186666666665C153.62666666666667,466.83303333333333,159.11333333333334,465.31414111111104,164.60000000000002,463.51359999999994C170.08666666666667,461.71305888888884,175.57333333333335,460.4556977777777,181.06,457.5386199999999C186.54666666666665,454.62154222222216,192.03333333333333,448.8980344444444,197.51999999999998,446.0111333333333C203.00666666666666,443.1242322222222,208.49333333333334,442.1384611111111,213.98000000000002,440.2172133333333C219.4666666666667,438.29596555555554,224.95333333333335,436.33448222222216,230.44000000000003,434.48364666666663C235.92666666666668,432.6328111111111,241.41333333333333,431.31509666666665,246.89999999999998,429.1122C252.38666666666666,426.9093033333333,257.87333333333333,424.3845222222222,263.36,421.26626666666664C268.8466666666667,418.1480111111111,274.3333333333333,413.8226888888888,279.82,410.4026666666666C285.3066666666667,406.9826444444444,290.7933333333333,403.36144444444443,296.28,400.7461333333333C301.76666666666665,398.1308222222222,307.25333333333333,396.7245895555555,312.74,394.71079999999995C318.2266666666667,392.6970104444444,323.71333333333337,390.9668815555555,329.20000000000005,388.663396C334.68666666666667,386.35991044444444,340.17333333333335,383.1913604444444,345.65999999999997,380.88988666666665C351.14666666666665,378.58841288888885,356.6333333333333,376.9769788888889,362.12,374.85455333333334C367.6066666666667,372.7321277777778,373.09333333333336,370.3280533333333,378.58000000000004,368.15533333333326C384.06666666666666,365.98261333333323,389.55333333333334,364.03118888888883,395.03999999999996,361.8182333333333C400.52666666666664,359.60527777777776,406.0133333333333,357.4929111111111,411.5,354.8776C416.9866666666667,352.26228888888886,422.47333333333336,348.8925611111111,427.96000000000004,346.1263666666666C433.4466666666667,343.36017222222216,438.93333333333334,340.50847722222215,444.42,338.2804333333333C449.9066666666667,336.05238944444443,455.3933333333334,334.47068952,460.88000000000005,332.75810333333334C466.3666666666667,331.04551714666667,471.85333333333335,330.59557298777776,477.34,328.00491621333333C482.82666666666665,325.4142594388889,488.3133333333333,320.90127858555553,493.79999999999995,317.21416268666667C499.28666666666663,313.52704678777775,504.7733333333333,309.7542593322222,510.26,305.88222082C515.7466666666667,302.01018230777777,521.2333333333333,298.0481469166666,526.72,293.9819316133333C532.2066666666667,289.91571631,537.6933333333334,285.75504803999996,543.1800000000001,281.48492899999997C548.6666666666667,277.21480995999997,554.1533333333333,272.84548009888886,559.64,268.3612173733333C565.1266666666667,263.8769546477778,570.6133333333332,259.28850195111113,576.0999999999999,254.57935264666668C581.5866666666666,249.87020334222223,587.0733333333333,245.05163344444443,592.56,240.10632154666666C598.0466666666666,235.1610096488889,603.5333333333333,230.10078500444445,609.02,224.90748126C614.5066666666667,219.71417751555555,619.9933333333333,214.40023751666664,625.48,208.94649907999997C630.9666666666667,203.4927606433333,636.4533333333334,197.91230032444437,641.94,192.18505063999993C647.4266666666667,186.45780095555548,652.9133333333334,180.59746211222225,658.4000000000001,174.58300097333336C663.8866666666668,168.5685398344445,669.3733333333333,162.41436072888888,674.86,156.09828380666664C680.3466666666667,149.7822068844444,685.8333333333333,143.31937077333328,691.3199999999999,136.68653944C696.8066666666666,130.05370810666665,702.2933333333333,123.26675447777782,707.78,116.3012958066667C713.2666666666667,109.33583713555558,718.7533333333333,102.20855105999992,724.24,94.89378741333326C729.7266666666667,87.5790237666666,735.2133333333334,80.09430513333335,740.7,72.4127139266667C746.1866666666667,64.73112272000004,751.6733333333334,56.87105664777779,757.1600000000001,48.80424017333331C762.6466666666668,40.73742369888889,768.1333333333333,32.374619389444454,773.62,24.01181508000002"/><text class="label" font-size="11" alignment-baseline="middle" opacity="1" x="5" fill="rgb(17, 165, 121)" transform="translate(823.6199951171875, 34.01181411743164)"/></g><g class="series"><clipPath id="clip-0-1"><rect width="823" y="-10" height="563.18"/></clipPath><path class="line" opacity="1" fill="none" stroke="rgb(204, 80, 62)" stroke-width="2" transform="translate(50,10)" clip-path="url(#clip-0-1)" d="M16.46,479.9236713333333C21.94666666666667,478.6617837222222,27.433333333333334,477.39989611111105,32.92,476.04295199999996C38.406666666666666,474.68600788888887,43.89333333333333,473.0665267777777,49.379999999999995,471.78200666666663C54.86666666666667,470.4974865555555,60.35333333333333,469.51070955555554,65.84,468.3358313333333C71.32666666666667,467.1609531111111,76.81333333333335,466.0534694444444,82.30000000000001,464.73273733333326C87.78666666666668,463.41200522222215,93.27333333333333,461.8639422222222,98.75999999999999,460.41143866666664C104.24666666666667,458.9589351111111,109.73333333333333,457.5828791111111,115.22000000000001,456.01771599999995C120.70666666666668,454.4525528888888,126.19333333333334,452.5986996666666,131.68,451.02045999999996C137.16666666666666,449.4422203333333,142.65333333333334,448.08024677777775,148.14,446.548278C153.62666666666667,445.0163092222222,159.11333333333334,443.53262311111104,164.60000000000002,441.82864733333327C170.08666666666667,440.1246715555555,175.57333333333335,438.3452541111111,181.06,436.3244233333333C186.54666666666665,434.3035925555555,192.03333333333333,432.19726122222215,197.51999999999998,429.7036626666666C203.00666666666666,427.2100641111111,208.49333333333334,424.1300323333333,213.98000000000002,421.36283199999997C219.4666666666667,418.59563166666663,224.95333333333335,415.8384902222222,230.44000000000003,413.10046066666666C235.92666666666668,410.3624311111111,241.41333333333333,407.69380788888884,246.89999999999998,404.93465466666663C252.38666666666666,402.1755014444444,257.87333333333333,399.5652197777777,263.36,396.5455413333333C268.8466666666667,393.52586288888887,274.3333333333333,389.96300444444444,279.82,386.816584C285.3066666666667,383.6701635555555,290.7933333333333,380.4291895555555,296.28,377.66701866666665C301.76666666666665,374.9048477777778,307.25333333333333,373.0419415555556,312.74,370.2435586666667C318.2266666666667,367.44517577777776,323.71333333333337,363.8501288888889,329.20000000000005,360.8767213333333C334.68666666666667,357.9033137777778,340.17333333333335,355.15824299999997,345.65999999999997,352.4031133333333C351.14666666666665,349.6479836666666,356.6333333333333,346.82646533333326,362.12,344.34594333333325C367.6066666666667,341.86542133333325,373.09333333333336,339.67157766666656,378.58000000000004,337.51998133333325C384.06666666666666,335.36838499999993,389.55333333333334,331.66973155555553,395.03999999999996,331.4363653333333C400.52666666666664,331.20299911111107,406.0133333333333,331.3196822222222,411.5,331.08631599999995C416.9866666666667,330.8529497777777,422.47333333333336,325.09825944444447,427.96000000000004,322.79980333333333C433.4466666666667,320.50134722222225,438.93333333333334,318.72394155555554,444.42,317.2955793333333C449.9066666666667,315.8672171111111,455.3933333333334,315.8073264866667,460.88000000000005,314.22963C466.3666666666667,312.65193351333335,471.85333333333335,310.53990884888884,477.34,307.8294004133333C482.82666666666665,305.11889197777776,488.3133333333333,301.32307972555554,493.79999999999995,297.96657938666664C499.28666666666663,294.61007904777773,504.7733333333333,291.18757228,510.26,287.69039838C515.7466666666667,284.19322447999997,521.2333333333333,280.62725783888885,526.72,276.98353598666665C532.2066666666667,273.33981413444445,537.6933333333334,269.6244830522222,543.1800000000001,265.82806726666666C548.6666666666667,262.0316514811111,554.1533333333333,258.16056856333336,559.64,254.20504127333334C565.1266666666667,250.24951398333334,570.6133333333332,246.21619124666665,576.0999999999999,242.09490352666666C581.5866666666666,237.97361580666663,587.0733333333333,233.77130373666662,592.56,229.4773149533333C598.0466666666666,225.18332616999996,603.5333333333333,220.80491313222223,609.02,216.33097082666666C614.5066666666667,211.8570285211111,619.9933333333333,207.2950910555555,625.48,202.63366111999994C630.9666666666667,197.97223118444438,636.4533333333334,193.21916477111108,641.94,188.3623912133333C647.4266666666667,183.5056176555555,652.9133333333334,178.55333494777776,658.4000000000001,173.4930197733333C663.8866666666668,168.43270459888888,669.3733333333333,163.27287683666665,674.86,158.00050016666665C680.3466666666667,152.72812349666665,685.8333333333333,147.35208997666666,691.3199999999999,141.85875975333335C696.8066666666666,136.36542953,702.2933333333333,130.7640567811111,707.78,125.04051882666664C713.2666666666667,119.31698087222219,718.7533333333333,113.48092418666663,724.24,107.51753202666663C729.7266666666667,101.55413986666663,735.2133333333334,95.47347112111112,740.7,89.26016586666668C746.1866666666667,83.04686061222225,751.6733333333334,76.71138009333336,757.1600000000001,70.23770050000002C762.6466666666668,63.764020906666715,768.1333333333333,57.091054606666724,773.62,50.41808830666673"/><text class="label" font-size="11" alignment-baseline="middle" opacity="1" x="5" fill="rgb(204, 80, 62)" transform="translate(823.6199951171875, 60.418087005615234)"/></g></g><g id="data-points"><g class="series" transform="translate(50,10)"><path class="data-point" fill="rgb(17, 165, 121)" data-type="point" transform="translate(0, 0)" d="M13.46,496.9493466666666A3,3,0,1,1,19.46,496.9493466666666A3,3,0,1,1,13.46,496.9493466666666Z" id="point-0-0" opacity="1"/><path class="data-point" fill="rgb(17, 165, 121)" data-type="point" transform="translate(0, 0)" d="M29.92,494.5352133333333A3,3,0,1,1,35.92,494.5352133333333A3,3,0,1,1,29.92,494.5352133333333Z" id="point-0-1" opacity="1"/><path class="data-point" fill="rgb(17, 165, 121)" data-type="point" transform="translate(0, 0)" d="M46.379999999999995,492.12107999999995A3,3,0,1,1,52.379999999999995,492.12107999999995A3,3,0,1,1,46.379999999999995,492.12107999999995Z" id="point-0-2" opacity="1"/><path class="data-point" fill="rgb(17, 165, 121)" data-type="point" transform="translate(0, 0)" d="M62.84,489.07927199999995A3,3,0,1,1,68.84,489.07927199999995A3,3,0,1,1,62.84,489.07927199999995Z" id="point-0-3" opacity="1"/><path class="data-point" fill="rgb(17, 165, 121)" data-type="point" transform="translate(0, 0)" d="M79.30000000000001,485.52446066666664A3,3,0,1,1,85.30000000000001,485.52446066666664A3,3,0,1,1,79.30000000000001,485.52446066666664Z" id="point-0-4" opacity="1"/><path class="data-point" fill="rgb(17, 165, 121)" data-type="point" transform="translate(0, 0)" d="M95.75999999999999,482.52489999999995A3,3,0,1,1,101.75999999999999,482.52489999999995A3,3,0,1,1,95.75999999999999,482.52489999999995Z" id="point-0-5" opacity="1"/><path class="data-point" fill="rgb(17, 165, 121)" data-type="point" transform="translate(0, 0)" d="M112.22000000000001,477.99839999999995A3,3,0,1,1,118.22000000000001,477.99839999999995A3,3,0,1,1,112.22000000000001,477.99839999999995Z" id="point-0-6" opacity="1"/><path class="data-point" fill="rgb(17, 165, 121)" data-type="point" transform="translate(0, 0)" d="M128.68,472.56659999999994A3,3,0,1,1,134.68,472.56659999999994A3,3,0,1,1,128.68,472.56659999999994Z" id="point-0-7" opacity="1"/><path class="data-point" fill="rgb(17, 165, 121)" data-type="point" transform="translate(0, 0)" d="M145.14,468.34186666666665A3,3,0,1,1,151.14,468.34186666666665A3,3,0,1,1,145.14,468.34186666666665Z" id="point-0-8" opacity="1"/><path class="data-point" fill="rgb(17, 165, 121)" data-type="point" transform="translate(0, 0)" d="M161.60000000000002,463.51359999999994A3,3,0,1,1,167.60000000000002,463.51359999999994A3,3,0,1,1,161.60000000000002,463.51359999999994Z" id="point-0-9" opacity="1"/><path class="data-point" fill="rgb(17, 165, 121)" data-type="point" transform="translate(0, 0)" d="M178.06,457.5386199999999A3,3,0,1,1,184.06,457.5386199999999A3,3,0,1,1,178.06,457.5386199999999Z" id="point-0-10" opacity="1"/><path class="data-point" fill="rgb(17, 165, 121)" data-type="point" transform="translate(0, 0)" d="M194.51999999999998,446.0111333333333A3,3,0,1,1,200.51999999999998,446.0111333333333A3,3,0,1,1,194.51999999999998,446.0111333333333Z" id="point-0-11" opacity="1"/><path class="data-point" fill="rgb(17, 165, 121)" data-type="point" transform="translate(0, 0)" d="M210.98000000000002,440.2172133333333A3,3,0,1,1,216.98000000000002,440.2172133333333A3,3,0,1,1,210.98000000000002,440.2172133333333Z" id="point-0-12" opacity="1"/><path class="data-point" fill="rgb(17, 165, 121)" data-type="point" transform="translate(0, 0)" d="M227.44000000000003,434.48364666666663A3,3,0,1,1,233.44000000000003,434.48364666666663A3,3,0,1,1,227.44000000000003,434.48364666666663Z" id="point-0-13" opacity="1"/><path class="data-point" fill="rgb(17, 165, 121)" data-type="point" transform="translate(0, 0)" d="M243.89999999999998,429.1122A3,3,0,1,1,249.89999999999998,429.1122A3,3,0,1,1,243.89999999999998,429.1122Z" id="point-0-14" opacity="1"/><path class="data-point" fill="rgb(17, 165, 121)" data-type="point" transform="translate(0, 0)" d="M260.36,421.26626666666664A3,3,0,1,1,266.36,421.26626666666664A3,3,0,1,1,260.36,421.26626666666664Z" id="point-0-15" opacity="1"/><path class="data-point" fill="rgb(17, 165, 121)" data-type="point" transform="translate(0, 0)" d="M276.82,410.4026666666666A3,3,0,1,1,282.82,410.4026666666666A3,3,0,1,1,276.82,410.4026666666666Z" id="point-0-16" opacity="1"/><path class="data-point" fill="rgb(17, 165, 121)" data-type="point" transform="translate(0, 0)" d="M293.28,400.7461333333333A3,3,0,1,1,299.28,400.7461333333333A3,3,0,1,1,293.28,400.7461333333333Z" id="point-0-17" opacity="1"/><path class="data-point" fill="rgb(17, 165, 121)" data-type="point" transform="translate(0, 0)" d="M309.74,394.71079999999995A3,3,0,1,1,315.74,394.71079999999995A3,3,0,1,1,309.74,394.71079999999995Z" id="point-0-18" opacity="1"/><path class="data-point" fill="rgb(17, 165, 121)" data-type="point" transform="translate(0, 0)" d="M326.20000000000005,388.663396A3,3,0,1,1,332.20000000000005,388.663396A3,3,0,1,1,326.20000000000005,388.663396Z" id="point-0-19" opacity="1"/><path class="data-point" fill="rgb(17, 165, 121)" data-type="point" transform="translate(0, 0)" d="M342.65999999999997,380.88988666666665A3,3,0,1,1,348.65999999999997,380.88988666666665A3,3,0,1,1,342.65999999999997,380.88988666666665Z" id="point-0-20" opacity="1"/><path class="data-point" fill="rgb(17, 165, 121)" data-type="point" transform="translate(0, 0)" d="M359.12,374.85455333333334A3,3,0,1,1,365.12,374.85455333333334A3,3,0,1,1,359.12,374.85455333333334Z" id="point-0-21" opacity="1"/><path class="data-point" fill="rgb(17, 165, 121)" data-type="point" transform="translate(0, 0)" d="M375.58000000000004,368.15533333333326A3,3,0,1,1,381.58000000000004,368.15533333333326A3,3,0,1,1,375.58000000000004,368.15533333333326Z" id="point-0-22" opacity="1"/><path class="data-point" fill="rgb(17, 165, 121)" data-type="point" transform="translate(0, 0)" d="M392.03999999999996,361.8182333333333A3,3,0,1,1,398.03999999999996,361.8182333333333A3,3,0,1,1,392.03999999999996,361.8182333333333Z" id="point-0-23" opacity="1"/><path class="data-point" fill="rgb(17, 165, 121)" data-type="point" transform="translate(0, 0)" d="M408.5,354.8776A3,3,0,1,1,414.5,354.8776A3,3,0,1,1,408.5,354.8776Z" id="point-0-24" opacity="1"/><path class="data-point" fill="rgb(17, 165, 121)" data-type="point" transform="translate(0, 0)" d="M424.96000000000004,346.1263666666666A3,3,0,1,1,430.96000000000004,346.1263666666666A3,3,0,1,1,424.96000000000004,346.1263666666666Z" id="point-0-25" opacity="1"/><path class="data-point" fill="rgb(17, 165, 121)" data-type="point" transform="translate(0, 0)" d="M441.42,338.2804333333333A3,3,0,1,1,447.42,338.2804333333333A3,3,0,1,1,441.42,338.2804333333333Z" id="point-0-26" opacity="1"/><path class="data-point" fill="rgb(17, 165, 121)" data-type="point" transform="translate(0, 0)" d="M457.88000000000005,332.75810333333334A3,3,0,1,1,463.88000000000005,332.75810333333334A3,3,0,1,1,457.88000000000005,332.75810333333334Z" id="point-0-27" opacity="1"/><path class="data-point" fill="rgb(17, 165, 121)" data-type="point" transform="translate(0, 0)" d="M474.34,328.00491621333333A3,3,0,1,1,480.34,328.00491621333333A3,3,0,1,1,474.34,328.00491621333333Z" id="point-0-28" opacity="1"/><path class="data-point" fill="rgb(17, 165, 121)" data-type="point" transform="translate(0, 0)" d="M490.79999999999995,317.21416268666667A3,3,0,1,1,496.79999999999995,317.21416268666667A3,3,0,1,1,490.79999999999995,317.21416268666667Z" id="point-0-29" opacity="1"/><path class="data-point" fill="rgb(17, 165, 121)" data-type="point" transform="translate(0, 0)" d="M507.26,305.88222082A3,3,0,1,1,513.26,305.88222082A3,3,0,1,1,507.26,305.88222082Z" id="point-0-30" opacity="1"/><path class="data-point" fill="rgb(17, 165, 121)" data-type="point" transform="translate(0, 0)" d="M523.72,293.9819316133333A3,3,0,1,1,529.72,293.9819316133333A3,3,0,1,1,523.72,293.9819316133333Z" id="point-0-31" opacity="1"/><path class="data-point" fill="rgb(17, 165, 121)" data-type="point" transform="translate(0, 0)" d="M540.1800000000001,281.48492899999997A3,3,0,1,1,546.1800000000001,281.48492899999997A3,3,0,1,1,540.1800000000001,281.48492899999997Z" id="point-0-32" opacity="1"/><path class="data-point" fill="rgb(17, 165, 121)" data-type="point" transform="translate(0, 0)" d="M556.64,268.3612173733333A3,3,0,1,1,562.64,268.3612173733333A3,3,0,1,1,556.64,268.3612173733333Z" id="point-0-33" opacity="1"/><path class="data-point" fill="rgb(17, 165, 121)" data-type="point" transform="translate(0, 0)" d="M573.0999999999999,254.57935264666668A3,3,0,1,1,579.0999999999999,254.57935264666668A3,3,0,1,1,573.0999999999999,254.57935264666668Z" id="point-0-34" opacity="1"/><path class="data-point" fill="rgb(17, 165, 121)" data-type="point" transform="translate(0, 0)" d="M589.56,240.10632154666666A3,3,0,1,1,595.56,240.10632154666666A3,3,0,1,1,589.56,240.10632154666666Z" id="point-0-35" opacity="1"/><path class="data-point" fill="rgb(17, 165, 121)" data-type="point" transform="translate(0, 0)" d="M606.02,224.90748126A3,3,0,1,1,612.02,224.90748126A3,3,0,1,1,606.02,224.90748126Z" id="point-0-36" opacity="1"/><path class="data-point" fill="rgb(17, 165, 121)" data-type="point" transform="translate(0, 0)" d="M622.48,208.94649907999997A3,3,0,1,1,628.48,208.94649907999997A3,3,0,1,1,622.48,208.94649907999997Z" id="point-0-37" opacity="1"/><path class="data-point" fill="rgb(17, 165, 121)" data-type="point" transform="translate(0, 0)" d="M638.94,192.18505063999993A3,3,0,1,1,644.94,192.18505063999993A3,3,0,1,1,638.94,192.18505063999993Z" id="point-0-38" opacity="1"/><path class="data-point" fill="rgb(17, 165, 121)" data-type="point" transform="translate(0, 0)" d="M655.4000000000001,174.58300097333336A3,3,0,1,1,661.4000000000001,174.58300097333336A3,3,0,1,1,655.4000000000001,174.58300097333336Z" id="point-0-39" opacity="1"/><path class="data-point" fill="rgb(17, 165, 121)" data-type="point" transform="translate(0, 0)" d="M671.86,156.09828380666664A3,3,0,1,1,677.86,156.09828380666664A3,3,0,1,1,671.86,156.09828380666664Z" id="point-0-40" opacity="1"/><path class="data-point" fill="rgb(17, 165, 121)" data-type="point" transform="translate(0, 0)" d="M688.3199999999999,136.68653944A3,3,0,1,1,694.3199999999999,136.68653944A3,3,0,1,1,688.3199999999999,136.68653944Z" id="point-0-41" opacity="1"/><path class="data-point" fill="rgb(17, 165, 121)" data-type="point" transform="translate(0, 0)" d="M704.78,116.3012958066667A3,3,0,1,1,710.78,116.3012958066667A3,3,0,1,1,704.78,116.3012958066667Z" id="point-0-42" opacity="1"/><path class="data-point" fill="rgb(17, 165, 121)" data-type="point" transform="translate(0, 0)" d="M721.24,94.89378741333326A3,3,0,1,1,727.24,94.89378741333326A3,3,0,1,1,721.24,94.89378741333326Z" id="point-0-43" opacity="1"/><path class="data-point" fill="rgb(17, 165, 121)" data-type="point" transform="translate(0, 0)" d="M737.7,72.4127139266667A3,3,0,1,1,743.7,72.4127139266667A3,3,0,1,1,737.7,72.4127139266667Z" id="point-0-44" opacity="1"/><path class="data-point" fill="rgb(17, 165, 121)" data-type="point" transform="translate(0, 0)" d="M754.1600000000001,48.80424017333331A3,3,0,1,1,760.1600000000001,48.80424017333331A3,3,0,1,1,754.1600000000001,48.80424017333331Z" id="point-0-45" opacity="1"/><path class="data-point" fill="#11A579" data-type="point" transform="translate(0, 0)" d="M770.62,24.01181508000002A3,3,0,1,1,776.62,24.01181508000002A3,3,0,1,1,770.62,24.01181508000002Z" id="point-0-46" opacity="1"/></g><g class="series" transform="translate(50,10)"><path class="data-point" fill="rgb(204, 80, 62)" data-type="point" transform="translate(0, 0)" d="M13.46,479.9236713333333A3,3,0,1,1,19.46,479.9236713333333A3,3,0,1,1,13.46,479.9236713333333Z" id="point-1-0" opacity="1"/><path class="data-point" fill="rgb(204, 80, 62)" data-type="point" transform="translate(0, 0)" d="M29.92,476.04295199999996A3,3,0,1,1,35.92,476.04295199999996A3,3,0,1,1,29.92,476.04295199999996Z" id="point-1-1" opacity="1"/><path class="data-point" fill="rgb(204, 80, 62)" data-type="point" transform="translate(0, 0)" d="M46.379999999999995,471.78200666666663A3,3,0,1,1,52.379999999999995,471.78200666666663A3,3,0,1,1,46.379999999999995,471.78200666666663Z" id="point-1-2" opacity="1"/><path class="data-point" fill="rgb(204, 80, 62)" data-type="point" transform="translate(0, 0)" d="M62.84,468.3358313333333A3,3,0,1,1,68.84,468.3358313333333A3,3,0,1,1,62.84,468.3358313333333Z" id="point-1-3" opacity="1"/><path class="data-point" fill="rgb(204, 80, 62)" data-type="point" transform="translate(0, 0)" d="M79.30000000000001,464.73273733333326A3,3,0,1,1,85.30000000000001,464.73273733333326A3,3,0,1,1,79.30000000000001,464.73273733333326Z" id="point-1-4" opacity="1"/><path class="data-point" fill="rgb(204, 80, 62)" data-type="point" transform="translate(0, 0)" d="M95.75999999999999,460.41143866666664A3,3,0,1,1,101.75999999999999,460.41143866666664A3,3,0,1,1,95.75999999999999,460.41143866666664Z" id="point-1-5" opacity="1"/><path class="data-point" fill="rgb(204, 80, 62)" data-type="point" transform="translate(0, 0)" d="M112.22000000000001,456.01771599999995A3,3,0,1,1,118.22000000000001,456.01771599999995A3,3,0,1,1,112.22000000000001,456.01771599999995Z" id="point-1-6" opacity="1"/><path class="data-point" fill="rgb(204, 80, 62)" data-type="point" transform="translate(0, 0)" d="M128.68,451.02045999999996A3,3,0,1,1,134.68,451.02045999999996A3,3,0,1,1,128.68,451.02045999999996Z" id="point-1-7" opacity="1"/><path class="data-point" fill="rgb(204, 80, 62)" data-type="point" transform="translate(0, 0)" d="M145.14,446.548278A3,3,0,1,1,151.14,446.548278A3,3,0,1,1,145.14,446.548278Z" id="point-1-8" opacity="1"/><path class="data-point" fill="rgb(204, 80, 62)" data-type="point" transform="translate(0, 0)" d="M161.60000000000002,441.82864733333327A3,3,0,1,1,167.60000000000002,441.82864733333327A3,3,0,1,1,161.60000000000002,441.82864733333327Z" id="point-1-9" opacity="1"/><path class="data-point" fill="rgb(204, 80, 62)" data-type="point" transform="translate(0, 0)" d="M178.06,436.3244233333333A3,3,0,1,1,184.06,436.3244233333333A3,3,0,1,1,178.06,436.3244233333333Z" id="point-1-10" opacity="1"/><path class="data-point" fill="rgb(204, 80, 62)" data-type="point" transform="translate(0, 0)" d="M194.51999999999998,429.7036626666666A3,3,0,1,1,200.51999999999998,429.7036626666666A3,3,0,1,1,194.51999999999998,429.7036626666666Z" id="point-1-11" opacity="1"/><path class="data-point" fill="rgb(204, 80, 62)" data-type="point" transform="translate(0, 0)" d="M210.98000000000002,421.36283199999997A3,3,0,1,1,216.98000000000002,421.36283199999997A3,3,0,1,1,210.98000000000002,421.36283199999997Z" id="point-1-12" opacity="1"/><path class="data-point" fill="rgb(204, 80, 62)" data-type="point" transform="translate(0, 0)" d="M227.44000000000003,413.10046066666666A3,3,0,1,1,233.44000000000003,413.10046066666666A3,3,0,1,1,227.44000000000003,413.10046066666666Z" id="point-1-13" opacity="1"/><path class="data-point" fill="rgb(204, 80, 62)" data-type="point" transform="translate(0, 0)" d="M243.89999999999998,404.93465466666663A3,3,0,1,1,249.89999999999998,404.93465466666663A3,3,0,1,1,243.89999999999998,404.93465466666663Z" id="point-1-14" opacity="1"/><path class="data-point" fill="rgb(204, 80, 62)" data-type="point" transform="translate(0, 0)" d="M260.36,396.5455413333333A3,3,0,1,1,266.36,396.5455413333333A3,3,0,1,1,260.36,396.5455413333333Z" id="point-1-15" opacity="1"/><path class="data-point" fill="rgb(204, 80, 62)" data-type="point" transform="translate(0, 0)" d="M276.82,386.816584A3,3,0,1,1,282.82,386.816584A3,3,0,1,1,276.82,386.816584Z" id="point-1-16" opacity="1"/><path class="data-point" fill="rgb(204, 80, 62)" data-type="point" transform="translate(0, 0)" d="M293.28,377.66701866666665A3,3,0,1,1,299.28,377.66701866666665A3,3,0,1,1,293.28,377.66701866666665Z" id="point-1-17" opacity="1"/><path class="data-point" fill="rgb(204, 80, 62)" data-type="point" transform="translate(0, 0)" d="M309.74,370.2435586666667A3,3,0,1,1,315.74,370.2435586666667A3,3,0,1,1,309.74,370.2435586666667Z" id="point-1-18" opacity="1"/><path class="data-point" fill="rgb(204, 80, 62)" data-type="point" transform="translate(0, 0)" d="M326.20000000000005,360.8767213333333A3,3,0,1,1,332.20000000000005,360.8767213333333A3,3,0,1,1,326.20000000000005,360.8767213333333Z" id="point-1-19" opacity="1"/><path class="data-point" fill="rgb(204, 80, 62)" data-type="point" transform="translate(0, 0)" d="M342.65999999999997,352.4031133333333A3,3,0,1,1,348.65999999999997,352.4031133333333A3,3,0,1,1,342.65999999999997,352.4031133333333Z" id="point-1-20" opacity="1"/><path class="data-point" fill="rgb(204, 80, 62)" data-type="point" transform="translate(0, 0)" d="M359.12,344.34594333333325A3,3,0,1,1,365.12,344.34594333333325A3,3,0,1,1,359.12,344.34594333333325Z" id="point-1-21" opacity="1"/><path class="data-point" fill="rgb(204, 80, 62)" data-type="point" transform="translate(0, 0)" d="M375.58000000000004,337.51998133333325A3,3,0,1,1,381.58000000000004,337.51998133333325A3,3,0,1,1,375.58000000000004,337.51998133333325Z" id="point-1-22" opacity="1"/><path class="data-point" fill="rgb(204, 80, 62)" data-type="point" transform="translate(0, 0)" d="M392.03999999999996,331.4363653333333A3,3,0,1,1,398.03999999999996,331.4363653333333A3,3,0,1,1,392.03999999999996,331.4363653333333Z" id="point-1-23" opacity="1"/><path class="data-point" fill="rgb(204, 80, 62)" data-type="point" transform="translate(0, 0)" d="M408.5,331.08631599999995A3,3,0,1,1,414.5,331.08631599999995A3,3,0,1,1,408.5,331.08631599999995Z" id="point-1-24" opacity="1"/><path class="data-point" fill="rgb(204, 80, 62)" data-type="point" transform="translate(0, 0)" d="M424.96000000000004,322.79980333333333A3,3,0,1,1,430.96000000000004,322.79980333333333A3,3,0,1,1,424.96000000000004,322.79980333333333Z" id="point-1-25" opacity="1"/><path class="data-point" fill="rgb(204, 80, 62)" data-type="point" transform="translate(0, 0)" d="M441.42,317.2955793333333A3,3,0,1,1,447.42,317.2955793333333A3,3,0,1,1,441.42,317.2955793333333Z" id="point-1-26" opacity="1"/><path class="data-point" fill="rgb(204, 80, 62)" data-type="point" transform="translate(0, 0)" d="M457.88000000000005,314.22963A3,3,0,1,1,463.88000000000005,314.22963A3,3,0,1,1,457.88000000000005,314.22963Z" id="point-1-27" opacity="1"/><path class="data-point" fill="rgb(204, 80, 62)" data-type="point" transform="translate(0, 0)" d="M474.34,307.8294004133333A3,3,0,1,1,480.34,307.8294004133333A3,3,0,1,1,474.34,307.8294004133333Z" id="point-1-28" opacity="1"/><path class="data-point" fill="rgb(204, 80, 62)" data-type="point" transform="translate(0, 0)" d="M490.79999999999995,297.96657938666664A3,3,0,1,1,496.79999999999995,297.96657938666664A3,3,0,1,1,490.79999999999995,297.96657938666664Z" id="point-1-29" opacity="1"/><path class="data-point" fill="rgb(204, 80, 62)" data-type="point" transform="translate(0, 0)" d="M507.26,287.69039838A3,3,0,1,1,513.26,287.69039838A3,3,0,1,1,507.26,287.69039838Z" id="point-1-30" opacity="1"/><path class="data-point" fill="rgb(204, 80, 62)" data-type="point" transform="translate(0, 0)" d="M523.72,276.98353598666665A3,3,0,1,1,529.72,276.98353598666665A3,3,0,1,1,523.72,276.98353598666665Z" id="point-1-31" opacity="1"/><path class="data-point" fill="rgb(204, 80, 62)" data-type="point" transform="translate(0, 0)" d="M540.1800000000001,265.82806726666666A3,3,0,1,1,546.1800000000001,265.82806726666666A3,3,0,1,1,540.1800000000001,265.82806726666666Z" id="point-1-32" opacity="1"/><path class="data-point" fill="rgb(204, 80, 62)" data-type="point" transform="translate(0, 0)" d="M556.64,254.20504127333334A3,3,0,1,1,562.64,254.20504127333334A3,3,0,1,1,556.64,254.20504127333334Z" id="point-1-33" opacity="1"/><path class="data-point" fill="rgb(204, 80, 62)" data-type="point" transform="translate(0, 0)" d="M573.0999999999999,242.09490352666666A3,3,0,1,1,579.0999999999999,242.09490352666666A3,3,0,1,1,573.0999999999999,242.09490352666666Z" id="point-1-34" opacity="1"/><path class="data-point" fill="rgb(204, 80, 62)" data-type="point" transform="translate(0, 0)" d="M589.56,229.4773149533333A3,3,0,1,1,595.56,229.4773149533333A3,3,0,1,1,589.56,229.4773149533333Z" id="point-1-35" opacity="1"/><path class="data-point" fill="rgb(204, 80, 62)" data-type="point" transform="translate(0, 0)" d="M606.02,216.33097082666666A3,3,0,1,1,612.02,216.33097082666666A3,3,0,1,1,606.02,216.33097082666666Z" id="point-1-36" opacity="1"/><path class="data-point" fill="rgb(204, 80, 62)" data-type="point" transform="translate(0, 0)" d="M622.48,202.63366111999994A3,3,0,1,1,628.48,202.63366111999994A3,3,0,1,1,622.48,202.63366111999994Z" id="point-1-37" opacity="1"/><path class="data-point" fill="rgb(204, 80, 62)" data-type="point" transform="translate(0, 0)" d="M638.94,188.3623912133333A3,3,0,1,1,644.94,188.3623912133333A3,3,0,1,1,638.94,188.3623912133333Z" id="point-1-38" opacity="1"/><path class="data-point" fill="rgb(204, 80, 62)" data-type="point" transform="translate(0, 0)" d="M655.4000000000001,173.4930197733333A3,3,0,1,1,661.4000000000001,173.4930197733333A3,3,0,1,1,655.4000000000001,173.4930197733333Z" id="point-1-39" opacity="1"/><path class="data-point" fill="rgb(204, 80, 62)" data-type="point" transform="translate(0, 0)" d="M671.86,158.00050016666665A3,3,0,1,1,677.86,158.00050016666665A3,3,0,1,1,671.86,158.00050016666665Z" id="point-1-40" opacity="1"/><path class="data-point" fill="rgb(204, 80, 62)" data-type="point" transform="translate(0, 0)" d="M688.3199999999999,141.85875975333335A3,3,0,1,1,694.3199999999999,141.85875975333335A3,3,0,1,1,688.3199999999999,141.85875975333335Z" id="point-1-41" opacity="1"/><path class="data-point" fill="rgb(204, 80, 62)" data-type="point" transform="translate(0, 0)" d="M704.78,125.04051882666664A3,3,0,1,1,710.78,125.04051882666664A3,3,0,1,1,704.78,125.04051882666664Z" id="point-1-42" opacity="1"/><path class="data-point" fill="rgb(204, 80, 62)" data-type="point" transform="translate(0, 0)" d="M721.24,107.51753202666663A3,3,0,1,1,727.24,107.51753202666663A3,3,0,1,1,721.24,107.51753202666663Z" id="point-1-43" opacity="1"/><path class="data-point" fill="rgb(204, 80, 62)" data-type="point" transform="translate(0, 0)" d="M737.7,89.26016586666668A3,3,0,1,1,743.7,89.26016586666668A3,3,0,1,1,737.7,89.26016586666668Z" id="point-1-44" opacity="1"/><path class="data-point" fill="rgb(204, 80, 62)" data-type="point" transform="translate(0, 0)" d="M754.1600000000001,70.23770050000002A3,3,0,1,1,760.1600000000001,70.23770050000002A3,3,0,1,1,754.1600000000001,70.23770050000002Z" id="point-1-45" opacity="1"/><path class="data-point" fill="rgb(204, 80, 62)" data-type="point" transform="translate(0, 0)" d="M770.62,50.41808830666673A3,3,0,1,1,776.62,50.41808830666673A3,3,0,1,1,770.62,50.41808830666673Z" id="point-1-46" opacity="1"/></g></g><g id="data-labels"/><g class="annotations above"><g class="axis-highlights" transform="translate(50, 10)" style="opacity: 1;"/></g></svg>