<svg xmlns="http://www.w3.org/2000/svg" id="graphic" width="961" height="634.6"><g id="facets"><g class="facet" transform="translate(15,20)" opacity="1"><text class="facet-title" y="0" font-size="16" font-weight="bold" dominant-baseline="middle" x="0" clip-path="url(#facet-clip-0)" fill="black"/><g class="plot"><clipPath class="facet-clip" id="facet-clip-0"><rect width="951" height="581.6" transform="translate(-7.5,-10)"/></clipPath><g class="bg"><rect fill="none" width="936" height="561.6" style="fill: none;"/></g><g class="interaction"><g class="series"><path data-target="point-0-0" d="M73.71146285714295,561.6L65.82790257142855,505.00008L0,505.00008L0,561.6Z" style="opacity: 0;"/><path data-target="point-0-1" d="M65.82790257142855,505.00008L73.71146285714295,561.6L91.97911999999997,561.6L83.64230171428572,501.74591999999996L68.57124661642857,501.74591999999996Z" style="opacity: 0;"/><path data-target="point-0-2" d="M83.64230171428572,501.74591999999996L91.97911999999997,561.6L112.26068544000007,561.6L101.15069303999998,498.2952L86.8433374742857,498.2952Z" style="opacity: 0;"/><path data-target="point-0-3" d="M101.15069303999998,498.2952L112.26068544000007,561.6L132.4891473378572,561.6L118.81754649142856,494.9412L104.49792514714285,494.9412Z" style="opacity: 0;"/><path data-target="point-0-4" d="M118.81754649142856,494.9412L132.4891473378572,561.6L149.1447378649999,561.6L136.96821266,491.24087999999995L122.48720669714285,491.24087999999995Z" style="opacity: 0;"/><path data-target="point-0-5" d="M136.96821266,491.24087999999995L149.1447378649999,561.6L173.46902678571428,561.6L154.10561035714284,487.45632L140.85319866285715,487.45632Z" style="opacity: 0;"/><path data-target="point-0-6" d="M154.10561035714284,487.45632L173.46902678571428,561.6L196.40017857142854,561.6L171.71891157142858,482.84496L158.78474088,482.84496Z" style="opacity: 0;"/><path data-target="point-0-7" d="M171.71891157142858,482.84496L196.40017857142854,561.6L210.64804999999996,561.6L190.137365,477.4536L176.8666013542857,477.4536Z" style="opacity: 0;"/><path data-target="point-0-8" d="M190.137365,477.4536L210.64804999999996,561.6L232.4900571428573,561.6L207.79683942857142,472.95768L194.63047505,472.95768Z" style="opacity: 0;"/><path data-target="point-0-9" d="M207.79683942857142,472.95768L232.4900571428573,561.6L257.6197057857142,561.6L225.3603061642857,468.02184L212.62818945857143,468.02184Z" style="opacity: 0;"/><path data-target="point-0-10" d="M225.3603061642857,468.02184L257.6197057857142,561.6L303.7595312499999,561.6L288.12679629473655,530.314976950067L242.74949889285713,462.08759999999995L230.73911189714283,462.08759999999995Z" style="opacity: 0;"/><path data-target="point-0-11" d="M242.74949889285713,462.08759999999995L288.12679629473655,530.314976950067L262.18314377142855,452.70575999999994L247.9928584892857,452.70575999999994Z" style="opacity: 0;"/><path data-target="point-0-12" d="M262.18314377142855,452.70575999999994L288.12679629473655,530.314976950067L303.7595312499999,561.6L318.11599749999993,561.6L279.6761990714286,445.39872L266.61551594571426,445.39872Z" style="opacity: 0;"/><path data-target="point-0-13" d="M279.6761990714286,445.39872L318.11599749999993,561.6L335.5290699285715,561.6L297.27475745,438.16344L285.15343523285713,438.16344Z" style="opacity: 0;"/><path data-target="point-0-14" d="M297.27475745,438.16344L335.5290699285715,561.6L372.9831642857146,561.6L313.93816157142857,431.16528L303.73974513499996,431.16528Z" style="opacity: 0;"/><path data-target="point-0-15" d="M313.93816157142857,431.16528L372.9831642857146,561.6L418.205114285714,561.6L331.190008,422.77248L321.84642724285715,422.77248Z" style="opacity: 0;"/><path data-target="point-0-16" d="M331.190008,422.77248L418.205114285714,561.6L428.37584285714286,561.6L408.91923809523723,518.6189401709383L349.5880365714286,412.12703999999997L339.70103728,412.12703999999997Z" style="opacity: 0;"/><path data-target="point-0-17" d="M349.5880365714286,412.12703999999997L408.91923809523723,518.6189401709383L368.4519257142857,402.40512L357.4013353485714,402.40512Z" style="opacity: 0;"/><path data-target="point-0-18" d="M368.4519257142857,402.40512L408.91923809523723,518.6189401709383L428.37584285714286,561.6L444.08996891714327,561.6L386.11758843999996,395.44752L375.2937313714286,395.44752Z" style="opacity: 0;"/><path data-target="point-0-19" d="M386.11758843999996,395.44752L444.08996891714327,561.6L480.8131054399995,561.6L402.71985488,387.47903999999994L394.58609055999995,387.47903999999994Z" style="opacity: 0;"/><path data-target="point-0-20" d="M402.71985488,387.47903999999994L480.8131054399995,561.6L484.79455714285734,561.6L421.2384857142857,379.08L412.41804638857144,379.08Z" style="opacity: 0;"/><path data-target="point-0-21" d="M421.2384857142857,379.08L484.79455714285734,561.6L511.80568278571417,561.6L438.4425836071428,371.7948L430.67542157142856,371.79479999999995Z" style="opacity: 0;"/><path data-target="point-0-22" d="M438.4425836071428,371.7948L511.80568278571417,561.6L528.4812875000001,561.6L456.5273405,364.80288L448.0474215678571,364.80288Z" style="opacity: 0;"/><path data-target="point-0-23" d="M456.5273405,364.80288L528.4812875000001,561.6L555.5653124999998,561.6L474.18735814285714,358.38192L465.52895312,358.38192Z" style="opacity: 0;"/><path data-target="point-0-24" d="M474.18735814285714,358.38192L555.5653124999998,561.6L597.544273214286,561.6L493.034299,354.61296L479.2847419371428,354.61296Z" style="opacity: 0;"/><path data-target="point-0-25" d="M493.034299,354.61296L597.544273214286,561.6L605.0753741874998,561.6L582.8240507282028,503.90136650017314L511.25730392857145,345.8052L500.67723273999997,345.8052Z" style="opacity: 0;"/><path data-target="point-0-26" d="M511.25730392857145,345.8052L582.8240507282028,503.90136650017314L530.25316155,338.90376000000003L517.4214606285714,338.90376000000003Z" style="opacity: 0;"/><path data-target="point-0-27" d="M530.25316155,338.90376000000003L582.8240507282028,503.90136650017314L605.0753741874998,561.6L611.0567716991263,561.6L548.767081249126,334.464L534.21398244,334.464Z" style="opacity: 0;"/><path data-target="point-0-28" d="M548.767081249126,334.464L611.0567716991263,561.6L710.6202071267929,561.6L565.6195357496593,328.698178L553.3496310908766,328.698178Z" style="opacity: 0;"/><path data-target="point-0-29" d="M565.6195357496593,328.698178L710.6202071267929,561.6L743.1381608457862,561.6L583.8845976343714,318.021194L571.4007245820147,318.021194Z" style="opacity: 0;"/><path data-target="point-0-30" d="M583.8845976343714,318.021194L743.1381608457862,561.6L777.1573126626438,561.6L602.2468770315437,306.85075199999994L588.9861434825759,306.85075199999994Z" style="opacity: 0;"/><path data-target="point-0-31" d="M602.2468770315437,306.85075199999994L777.1573126626438,561.6L812.8296636051144,561.6L620.7221563072169,295.163856L606.4891733232652,295.163856Z" style="opacity: 0;"/><path data-target="point-0-32" d="M620.7221563072169,295.163856L812.8296636051144,561.6L850.3282077830705,561.6L639.3284461917127,282.936576L623.8977296702615,282.936576Z" style="opacity: 0;"/><path data-target="point-0-33" d="M639.3284461917127,282.936576L850.3282077830705,561.6L889.839945028583,561.6L658.0861349861848,270.14360899999997L641.1981704439589,270.14360899999997Z" style="opacity: 0;"/><path data-target="point-0-34" d="M658.0861349861848,270.14360899999997L889.839945028583,561.6L931.5717513889375,561.6L677.0184233531569,256.75859049999997L658.3752013413518,256.75859049999997Z" style="opacity: 0;"/><path data-target="point-0-35" d="M675.4116265056648,242.75394L677.0184233531569,256.75859049999997L931.5717513889375,561.6L936,561.6L936,516.2688486238326L696.1516171642512,242.75394Z" style="opacity: 0;"/><path data-target="point-0-36" d="M692.2881402142727,228.100735L696.1516171642512,242.75394L936,516.2688486238326L936,467.52782922658815L715.5154235012903,228.100735Z" style="opacity: 0;"/><path data-target="point-0-37" d="M708.9831526446806,212.768712L715.5154235012903,228.100735L936,467.52782922658815L936,420.465046464631L735.1435856634558,212.768712Z" style="opacity: 0;"/><path data-target="point-0-38" d="M725.4724609792233,196.7261715L735.1435856634558,212.768712L936,420.465046464631L936,374.87865495882806L755.0742231937567,196.7261715Z" style="opacity: 0;"/><path data-target="point-0-39" d="M741.7288734446122,179.939885L755.0742231937567,196.7261715L936,374.87865495882806L936,349.8679349263874L773.4225045917533,179.939885Z" style="opacity: 0;"/><path data-target="point-0-40" d="M594.761523385676,0L757.7221748121068,162.3751585L790.5355849424081,162.3751585L775.4356065338234,143.99558150000001L614.163576589686,0Z" style="opacity: 0;"/><path data-target="point-0-41" d="M614.163576589686,0L775.4356065338234,143.99558150000001L807.4419359245741,143.9955815L794.5190401658665,124.76302799999999L647.7795060636893,1.4210854715202004e-14Z" style="opacity: 0;"/><path data-target="point-0-42" d="M647.7795060636893,1.4210854715202004e-14L794.5190401658665,124.76302799999999L824.1107903128053,124.76302799999999L813.9115165612423,104.6376865L684.6707363657017,0Z" style="opacity: 0;"/><path data-target="point-0-43" d="M684.6707363657017,0L813.9115165612423,104.6376865L840.5077818617281,104.6376865L833.6625092392195,83.5777175L725.2566175835004,0Z" style="opacity: 0;"/><path data-target="point-0-44" d="M725.2566175835004,0L833.6625092392195,83.5777175L856.5940346704359,83.5777175L853.8284595772051,61.539410499999995L770.0048112148592,-7.105427357601002e-15Z" style="opacity: 0;"/><path data-target="point-0-45" d="M770.0048112148592,-7.105427357601002e-15L853.8284595772051,61.539410499999995L872.3259822210812,61.539410499999995L874.4733843173688,38.4769635L819.4350704247206,0Z" style="opacity: 0;"/><path data-target="point-0-46" d="M819.4350704247206,0L874.4733843173688,38.4769635L936,38.4769635L936,0Z" style="opacity: 0;"/><path data-target="point-1-0" d="M0,505.00008L65.82790257142855,505.00008L68.57124661642857,501.74591999999996L0,195.49000338158368Z" style="opacity: 0;"/><path data-target="point-1-1" d="M0,195.49000338158368L68.57124661642857,501.74591999999996L83.64230171428572,501.74591999999996L86.8433374742857,498.2952L0,145.0427195351204Z" style="opacity: 0;"/><path data-target="point-1-2" d="M0,145.0427195351204L86.8433374742857,498.2952L101.15069303999998,498.2952L104.49792514714285,494.9412L6.088589586428554,0L0,0Z" style="opacity: 0;"/><path data-target="point-1-3" d="M6.088589586428554,0L104.49792514714285,494.9412L118.81754649142856,494.9412L122.48720669714285,491.24087999999995L25.614856854769783,25.24838838183257L19.843007641071104,0Z" style="opacity: 0;"/><path data-target="point-1-4" d="M25.614856854769783,25.24838838183257L122.48720669714285,491.24087999999995L136.96821266,491.24087999999995L140.85319866285715,487.45632Z" style="opacity: 0;"/><path data-target="point-1-5" d="M19.843007641071104,0L25.614856854769783,25.24838838183257L140.85319866285715,487.45632L154.10561035714284,487.45632L158.78474088,482.84496L36.38354352000079,0Z" style="opacity: 0;"/><path data-target="point-1-6" d="M36.38354352000079,0L158.78474088,482.84496L171.71891157142858,482.84496L176.8666013542857,477.4536L39.20649732571425,0Z" style="opacity: 0;"/><path data-target="point-1-7" d="M39.20649732571425,0L176.8666013542857,477.4536L190.137365,477.4536L194.63047505,472.95768L72.59472510071365,0Z" style="opacity: 0;"/><path data-target="point-1-8" d="M72.59472510071365,0L194.63047505,472.95768L207.79683942857142,472.95768L212.62818945857143,468.02184L118.27555564022735,121.52387332498807L74.12902480982152,0Z" style="opacity: 0;"/><path data-target="point-1-9" d="M118.27555564022735,121.52387332498807L212.62818945857143,468.02184L225.3603061642857,468.02184L230.73911189714283,462.08759999999995L140.59013238939124,178.2176690264231Z" style="opacity: 0;"/><path data-target="point-1-10" d="M140.59013238939124,178.2176690264231L230.73911189714283,462.08759999999995L242.74949889285713,462.08759999999995L247.9928584892857,452.70575999999994L162.77697480153833,229.62231627170345Z" style="opacity: 0;"/><path data-target="point-1-11" d="M162.77697480153833,229.62231627170345L247.9928584892857,452.70575999999994L262.18314377142855,452.70575999999994L266.61551594571426,445.39872Z" style="opacity: 0;"/><path data-target="point-1-12" d="M74.12902480982152,0L118.27555564022735,121.52387332498807L140.59013238939124,178.2176690264231L162.77697480153833,229.62231627170345L266.61551594571426,445.39872L279.6761990714286,445.39872L285.15343523285713,438.16344L76.27857608071358,0Z" style="opacity: 0;"/><path data-target="point-1-13" d="M76.27857608071358,0L285.15343523285713,438.16344L297.27475745,438.16344L303.73974513499996,431.16528L100.60315290500128,5.684341886080802e-14Z" style="opacity: 0;"/><path data-target="point-1-14" d="M100.60315290500128,5.684341886080802e-14L303.73974513499996,431.16528L313.93816157142857,431.16528L321.84642724285715,422.77248L172.63979733409852,114.50569251095942L112.79114792428545,-1.4210854715202004e-14Z" style="opacity: 0;"/><path data-target="point-1-15" d="M172.63979733409852,114.50569251095942L321.84642724285715,422.77248L331.190008,422.77248L339.70103728,412.12703999999997Z" style="opacity: 0;"/><path data-target="point-1-16" d="M112.79114792428545,-1.4210854715202004e-14L172.63979733409852,114.50569251095942L339.70103728,412.12703999999997L349.5880365714286,412.12703999999997L357.4013353485714,402.40512L144.97454682285766,0Z" style="opacity: 0;"/><path data-target="point-1-17" d="M144.97454682285766,0L357.4013353485714,402.40512L368.4519257142857,402.40512L375.2937313714286,395.44752L285.14942470913735,184.9792617932756L195.551746378571,2.842170943040401e-14Z" style="opacity: 0;"/><path data-target="point-1-18" d="M285.14942470913735,184.9792617932756L375.2937313714286,395.44752L386.11758843999996,395.44752L394.58609055999995,387.47903999999994Z" style="opacity: 0;"/><path data-target="point-1-19" d="M195.551746378571,2.842170943040401e-14L285.14942470913735,184.9792617932756L394.58609055999995,387.47903999999994L402.71985488,387.47903999999994L412.41804638857144,379.08L227.08854210285708,0Z" style="opacity: 0;"/><path data-target="point-1-20" d="M227.08854210285708,0L412.41804638857144,379.08L421.2384857142857,379.08L430.67542157142856,371.79479999999995L257.84063351785676,0Z" style="opacity: 0;"/><path data-target="point-1-21" d="M257.84063351785676,0L430.67542157142856,371.79479999999995L438.4425836071428,371.7948L448.0474215678571,364.80288L304.3769730507147,0Z" style="opacity: 0;"/><path data-target="point-1-22" d="M304.3769730507147,0L448.0474215678571,364.80288L456.5273405,364.80288L465.52895312,358.38192L339.7368992000002,0Z" style="opacity: 0;"/><path data-target="point-1-23" d="M339.7368992000002,0L465.52895312,358.38192L474.18735814285714,358.38192L479.2847419371428,354.61296L478.155463627195,298.6982072528031L403.7356053746427,0Z" style="opacity: 0;"/><path data-target="point-1-24" d="M478.155463627195,298.6982072528031L479.2847419371428,354.61296L493.034299,354.61296L500.67723273999997,345.8052Z" style="opacity: 0;"/><path data-target="point-1-25" d="M403.7356053746427,0L478.155463627195,298.6982072528031L500.67723273999997,345.8052L511.25730392857145,345.8052L517.4214606285714,338.90376000000003L409.79530941714336,0Z" style="opacity: 0;"/><path data-target="point-1-26" d="M409.79530941714336,0L517.4214606285714,338.90376000000003L530.25316155,338.90376000000003L534.21398244,334.464L514.6605151070792,223.9255212352544L511.71205275404725,213.12845989970634L475.22633557023846,114.97865841873895L430.54685500534686,10.348936882303917L425.7328573610347,0Z" style="opacity: 0;"/><path data-target="point-1-27" d="M514.6605151070792,223.9255212352544L534.21398244,334.464L548.767081249126,334.464L553.3496310908766,328.698178Z" style="opacity: 0;"/><path data-target="point-1-28" d="M511.71205275404725,213.12845989970634L514.6605151070792,223.9255212352544L553.3496310908766,328.698178L565.6195357496593,328.698178L571.4007245820147,318.021194Z" style="opacity: 0;"/><path data-target="point-1-29" d="M475.22633557023846,114.97865841873895L511.71205275404725,213.12845989970634L571.4007245820147,318.021194L583.8845976343714,318.021194L588.9861434825759,306.85075199999994Z" style="opacity: 0;"/><path data-target="point-1-30" d="M430.54685500534686,10.348936882303917L475.22633557023846,114.97865841873895L588.9861434825759,306.85075199999994L602.2468770315437,306.85075199999994L606.4891733232652,295.163856Z" style="opacity: 0;"/><path data-target="point-1-31" d="M425.7328573610347,0L430.54685500534686,10.348936882303917L606.4891733232652,295.163856L620.7221563072169,295.163856L623.8977296702615,282.936576L441.7925812090334,0Z" style="opacity: 0;"/><path data-target="point-1-32" d="M441.7925812090334,0L623.8977296702615,282.936576L639.3284461917127,282.936576L641.1981704439589,270.14360899999997L460.0394592241476,0Z" style="opacity: 0;"/><path data-target="point-1-33" d="M460.0394592241476,0L641.1981704439589,270.14360899999997L658.0861349861848,270.14360899999997L658.3752013413518,256.75859049999997L478.9764553860887,0Z" style="opacity: 0;"/><path data-target="point-1-34" d="M478.9764553860887,0L658.3752013413518,256.75859049999997L677.0184233531569,256.75859049999997L675.4116265056648,242.75394L498.6907002278832,0Z" style="opacity: 0;"/><path data-target="point-1-35" d="M498.6907002278832,0L675.4116265056648,242.75394L696.1516171642512,242.75394L692.2881402142727,228.100735L519.275832974656,0Z" style="opacity: 0;"/><path data-target="point-1-36" d="M519.275832974656,0L692.2881402142727,228.100735L715.5154235012903,228.100735L708.9831526446806,212.768712L540.8364445283207,0Z" style="opacity: 0;"/><path data-target="point-1-37" d="M540.8364445283207,0L708.9831526446806,212.768712L735.1435856634558,212.768712L725.4724609792233,196.7261715L563.4892291684205,0Z" style="opacity: 0;"/><path data-target="point-1-38" d="M563.4892291684205,0L725.4724609792233,196.7261715L755.0742231937567,196.7261715L741.7288734446122,179.939885L587.3579942451418,0Z" style="opacity: 0;"/><path data-target="point-1-39" d="M587.3579942451418,0L741.7288734446122,179.939885L773.4225045917533,179.939885L757.7221748121068,162.3751585L594.761523385676,0Z" style="opacity: 0;"/><path data-target="point-1-40" d="M757.7221748121068,162.3751585L773.4225045917533,179.939885L936,349.8679349263874L936,318.5679808839143L790.5355849424081,162.3751585Z" style="opacity: 0;"/><path data-target="point-1-41" d="M775.4356065338234,143.99558150000001L790.5355849424081,162.3751585L936,318.5679808839143L936,276.4826333820455L807.4419359245741,143.9955815Z" style="opacity: 0;"/><path data-target="point-1-42" d="M794.5190401658665,124.76302799999999L807.4419359245741,143.9955815L936,276.4826333820455L936,235.43426123994902L824.1107903128053,124.76302799999999Z" style="opacity: 0;"/><path data-target="point-1-43" d="M813.9115165612423,104.6376865L824.1107903128053,124.76302799999999L936,235.43426123994902L936,195.29117839157527L840.5077818617281,104.6376865Z" style="opacity: 0;"/><path data-target="point-1-44" d="M833.6625092392195,83.5777175L840.5077818617281,104.6376865L936,195.29117839157527L936,155.92812885313015L856.5940346704359,83.5777175Z" style="opacity: 0;"/><path data-target="point-1-45" d="M853.8284595772051,61.539410499999995L856.5940346704359,83.5777175L936,155.92812885313015L936,117.22230249489132L872.3259822210812,61.539410499999995Z" style="opacity: 0;"/><path data-target="point-1-46" d="M872.3259822210812,61.539410499999995L936,117.22230249489132L936,38.4769635L874.4733843173688,38.4769635Z" style="opacity: 0;"/></g><g class="series"><path data-target="point-0-0" d="M73.71146285714295,561.6L65.82790257142855,505.00008L0,505.00008L0,561.6Z" style="opacity: 0;"/><path data-target="point-0-1" d="M65.82790257142855,505.00008L73.71146285714295,561.6L91.97911999999997,561.6L83.64230171428572,501.74591999999996L68.57124661642857,501.74591999999996Z" style="opacity: 0;"/><path data-target="point-0-2" d="M83.64230171428572,501.74591999999996L91.97911999999997,561.6L112.26068544000007,561.6L101.15069303999998,498.2952L86.8433374742857,498.2952Z" style="opacity: 0;"/><path data-target="point-0-3" d="M101.15069303999998,498.2952L112.26068544000007,561.6L132.4891473378572,561.6L118.81754649142856,494.9412L104.49792514714285,494.9412Z" style="opacity: 0;"/><path data-target="point-0-4" d="M118.81754649142856,494.9412L132.4891473378572,561.6L149.1447378649999,561.6L136.96821266,491.24087999999995L122.48720669714285,491.24087999999995Z" style="opacity: 0;"/><path data-target="point-0-5" d="M136.96821266,491.24087999999995L149.1447378649999,561.6L173.46902678571428,561.6L154.10561035714284,487.45632L140.85319866285715,487.45632Z" style="opacity: 0;"/><path data-target="point-0-6" d="M154.10561035714284,487.45632L173.46902678571428,561.6L196.40017857142854,561.6L171.71891157142858,482.84496L158.78474088,482.84496Z" style="opacity: 0;"/><path data-target="point-0-7" d="M171.71891157142858,482.84496L196.40017857142854,561.6L210.64804999999996,561.6L190.137365,477.4536L176.8666013542857,477.4536Z" style="opacity: 0;"/><path data-target="point-0-8" d="M190.137365,477.4536L210.64804999999996,561.6L232.4900571428573,561.6L207.79683942857142,472.95768L194.63047505,472.95768Z" style="opacity: 0;"/><path data-target="point-0-9" d="M207.79683942857142,472.95768L232.4900571428573,561.6L257.6197057857142,561.6L225.3603061642857,468.02184L212.62818945857143,468.02184Z" style="opacity: 0;"/><path data-target="point-0-10" d="M225.3603061642857,468.02184L257.6197057857142,561.6L303.7595312499999,561.6L288.12679629473655,530.314976950067L242.74949889285713,462.08759999999995L230.73911189714283,462.08759999999995Z" style="opacity: 0;"/><path data-target="point-0-11" d="M242.74949889285713,462.08759999999995L288.12679629473655,530.314976950067L262.18314377142855,452.70575999999994L247.9928584892857,452.70575999999994Z" style="opacity: 0;"/><path data-target="point-0-12" d="M262.18314377142855,452.70575999999994L288.12679629473655,530.314976950067L303.7595312499999,561.6L318.11599749999993,561.6L279.6761990714286,445.39872L266.61551594571426,445.39872Z" style="opacity: 0;"/><path data-target="point-0-13" d="M279.6761990714286,445.39872L318.11599749999993,561.6L335.5290699285715,561.6L297.27475745,438.16344L285.15343523285713,438.16344Z" style="opacity: 0;"/><path data-target="point-0-14" d="M297.27475745,438.16344L335.5290699285715,561.6L372.9831642857146,561.6L313.93816157142857,431.16528L303.73974513499996,431.16528Z" style="opacity: 0;"/><path data-target="point-0-15" d="M313.93816157142857,431.16528L372.9831642857146,561.6L418.205114285714,561.6L331.190008,422.77248L321.84642724285715,422.77248Z" style="opacity: 0;"/><path data-target="point-0-16" d="M331.190008,422.77248L418.205114285714,561.6L428.37584285714286,561.6L408.91923809523723,518.6189401709383L349.5880365714286,412.12703999999997L339.70103728,412.12703999999997Z" style="opacity: 0;"/><path data-target="point-0-17" d="M349.5880365714286,412.12703999999997L408.91923809523723,518.6189401709383L368.4519257142857,402.40512L357.4013353485714,402.40512Z" style="opacity: 0;"/><path data-target="point-0-18" d="M368.4519257142857,402.40512L408.91923809523723,518.6189401709383L428.37584285714286,561.6L444.08996891714327,561.6L386.11758843999996,395.44752L375.2937313714286,395.44752Z" style="opacity: 0;"/><path data-target="point-0-19" d="M386.11758843999996,395.44752L444.08996891714327,561.6L480.8131054399995,561.6L402.71985488,387.47903999999994L394.58609055999995,387.47903999999994Z" style="opacity: 0;"/><path data-target="point-0-20" d="M402.71985488,387.47903999999994L480.8131054399995,561.6L484.79455714285734,561.6L421.2384857142857,379.08L412.41804638857144,379.08Z" style="opacity: 0;"/><path data-target="point-0-21" d="M421.2384857142857,379.08L484.79455714285734,561.6L511.80568278571417,561.6L438.4425836071428,371.7948L430.67542157142856,371.79479999999995Z" style="opacity: 0;"/><path data-target="point-0-22" d="M438.4425836071428,371.7948L511.80568278571417,561.6L528.4812875000001,561.6L456.5273405,364.80288L448.0474215678571,364.80288Z" style="opacity: 0;"/><path data-target="point-0-23" d="M456.5273405,364.80288L528.4812875000001,561.6L555.5653124999998,561.6L474.18735814285714,358.38192L465.52895312,358.38192Z" style="opacity: 0;"/><path data-target="point-0-24" d="M474.18735814285714,358.38192L555.5653124999998,561.6L597.544273214286,561.6L493.034299,354.61296L479.2847419371428,354.61296Z" style="opacity: 0;"/><path data-target="point-0-25" d="M493.034299,354.61296L597.544273214286,561.6L605.0753741874998,561.6L582.8240507282028,503.90136650017314L511.25730392857145,345.8052L500.67723273999997,345.8052Z" style="opacity: 0;"/><path data-target="point-0-26" d="M511.25730392857145,345.8052L582.8240507282028,503.90136650017314L530.25316155,338.90376000000003L517.4214606285714,338.90376000000003Z" style="opacity: 0;"/><path data-target="point-0-27" d="M530.25316155,338.90376000000003L582.8240507282028,503.90136650017314L605.0753741874998,561.6L611.0567716991263,561.6L548.767081249126,334.464L534.21398244,334.464Z" style="opacity: 0;"/><path data-target="point-0-28" d="M548.767081249126,334.464L611.0567716991263,561.6L710.6202071267929,561.6L565.6195357496593,328.698178L553.3496310908766,328.698178Z" style="opacity: 0;"/><path data-target="point-0-29" d="M565.6195357496593,328.698178L710.6202071267929,561.6L743.1381608457862,561.6L583.8845976343714,318.021194L571.4007245820147,318.021194Z" style="opacity: 0;"/><path data-target="point-0-30" d="M583.8845976343714,318.021194L743.1381608457862,561.6L777.1573126626438,561.6L602.2468770315437,306.85075199999994L588.9861434825759,306.85075199999994Z" style="opacity: 0;"/><path data-target="point-0-31" d="M602.2468770315437,306.85075199999994L777.1573126626438,561.6L812.8296636051144,561.6L620.7221563072169,295.163856L606.4891733232652,295.163856Z" style="opacity: 0;"/><path data-target="point-0-32" d="M620.7221563072169,295.163856L812.8296636051144,561.6L850.3282077830705,561.6L639.3284461917127,282.936576L623.8977296702615,282.936576Z" style="opacity: 0;"/><path data-target="point-0-33" d="M639.3284461917127,282.936576L850.3282077830705,561.6L889.839945028583,561.6L658.0861349861848,270.14360899999997L641.1981704439589,270.14360899999997Z" style="opacity: 0;"/><path data-target="point-0-34" d="M658.0861349861848,270.14360899999997L889.839945028583,561.6L931.5717513889375,561.6L677.0184233531569,256.75859049999997L658.3752013413518,256.75859049999997Z" style="opacity: 0;"/><path data-target="point-0-35" d="M675.4116265056648,242.75394L677.0184233531569,256.75859049999997L931.5717513889375,561.6L936,561.6L936,516.2688486238326L696.1516171642512,242.75394Z" style="opacity: 0;"/><path data-target="point-0-36" d="M692.2881402142727,228.100735L696.1516171642512,242.75394L936,516.2688486238326L936,467.52782922658815L715.5154235012903,228.100735Z" style="opacity: 0;"/><path data-target="point-0-37" d="M708.9831526446806,212.768712L715.5154235012903,228.100735L936,467.52782922658815L936,420.465046464631L735.1435856634558,212.768712Z" style="opacity: 0;"/><path data-target="point-0-38" d="M725.4724609792233,196.7261715L735.1435856634558,212.768712L936,420.465046464631L936,374.87865495882806L755.0742231937567,196.7261715Z" style="opacity: 0;"/><path data-target="point-0-39" d="M741.7288734446122,179.939885L755.0742231937567,196.7261715L936,374.87865495882806L936,349.8679349263874L773.4225045917533,179.939885Z" style="opacity: 0;"/><path data-target="point-0-40" d="M594.761523385676,0L757.7221748121068,162.3751585L790.5355849424081,162.3751585L775.4356065338234,143.99558150000001L614.163576589686,0Z" style="opacity: 0;"/><path data-target="point-0-41" d="M614.163576589686,0L775.4356065338234,143.99558150000001L807.4419359245741,143.9955815L794.5190401658665,124.76302799999999L647.7795060636893,1.4210854715202004e-14Z" style="opacity: 0;"/><path data-target="point-0-42" d="M647.7795060636893,1.4210854715202004e-14L794.5190401658665,124.76302799999999L824.1107903128053,124.76302799999999L813.9115165612423,104.6376865L684.6707363657017,0Z" style="opacity: 0;"/><path data-target="point-0-43" d="M684.6707363657017,0L813.9115165612423,104.6376865L840.5077818617281,104.6376865L833.6625092392195,83.5777175L725.2566175835004,0Z" style="opacity: 0;"/><path data-target="point-0-44" d="M725.2566175835004,0L833.6625092392195,83.5777175L856.5940346704359,83.5777175L853.8284595772051,61.539410499999995L770.0048112148592,-7.105427357601002e-15Z" style="opacity: 0;"/><path data-target="point-0-45" d="M770.0048112148592,-7.105427357601002e-15L853.8284595772051,61.539410499999995L872.3259822210812,61.539410499999995L874.4733843173688,38.4769635L819.4350704247206,0Z" style="opacity: 0;"/><path data-target="point-0-46" d="M819.4350704247206,0L874.4733843173688,38.4769635L936,38.4769635L936,0Z" style="opacity: 0;"/><path data-target="point-1-0" d="M0,505.00008L65.82790257142855,505.00008L68.57124661642857,501.74591999999996L0,195.49000338158368Z" style="opacity: 0;"/><path data-target="point-1-1" d="M0,195.49000338158368L68.57124661642857,501.74591999999996L83.64230171428572,501.74591999999996L86.8433374742857,498.2952L0,145.0427195351204Z" style="opacity: 0;"/><path data-target="point-1-2" d="M0,145.0427195351204L86.8433374742857,498.2952L101.15069303999998,498.2952L104.49792514714285,494.9412L6.088589586428554,0L0,0Z" style="opacity: 0;"/><path data-target="point-1-3" d="M6.088589586428554,0L104.49792514714285,494.9412L118.81754649142856,494.9412L122.48720669714285,491.24087999999995L25.614856854769783,25.24838838183257L19.843007641071104,0Z" style="opacity: 0;"/><path data-target="point-1-4" d="M25.614856854769783,25.24838838183257L122.48720669714285,491.24087999999995L136.96821266,491.24087999999995L140.85319866285715,487.45632Z" style="opacity: 0;"/><path data-target="point-1-5" d="M19.843007641071104,0L25.614856854769783,25.24838838183257L140.85319866285715,487.45632L154.10561035714284,487.45632L158.78474088,482.84496L36.38354352000079,0Z" style="opacity: 0;"/><path data-target="point-1-6" d="M36.38354352000079,0L158.78474088,482.84496L171.71891157142858,482.84496L176.8666013542857,477.4536L39.20649732571425,0Z" style="opacity: 0;"/><path data-target="point-1-7" d="M39.20649732571425,0L176.8666013542857,477.4536L190.137365,477.4536L194.63047505,472.95768L72.59472510071365,0Z" style="opacity: 0;"/><path data-target="point-1-8" d="M72.59472510071365,0L194.63047505,472.95768L207.79683942857142,472.95768L212.62818945857143,468.02184L118.27555564022735,121.52387332498807L74.12902480982152,0Z" style="opacity: 0;"/><path data-target="point-1-9" d="M118.27555564022735,121.52387332498807L212.62818945857143,468.02184L225.3603061642857,468.02184L230.73911189714283,462.08759999999995L140.59013238939124,178.2176690264231Z" style="opacity: 0;"/><path data-target="point-1-10" d="M140.59013238939124,178.2176690264231L230.73911189714283,462.08759999999995L242.74949889285713,462.08759999999995L247.9928584892857,452.70575999999994L162.77697480153833,229.62231627170345Z" style="opacity: 0;"/><path data-target="point-1-11" d="M162.77697480153833,229.62231627170345L247.9928584892857,452.70575999999994L262.18314377142855,452.70575999999994L266.61551594571426,445.39872Z" style="opacity: 0;"/><path data-target="point-1-12" d="M74.12902480982152,0L118.27555564022735,121.52387332498807L140.59013238939124,178.2176690264231L162.77697480153833,229.62231627170345L266.61551594571426,445.39872L279.6761990714286,445.39872L285.15343523285713,438.16344L76.27857608071358,0Z" style="opacity: 0;"/><path data-target="point-1-13" d="M76.27857608071358,0L285.15343523285713,438.16344L297.27475745,438.16344L303.73974513499996,431.16528L100.60315290500128,5.684341886080802e-14Z" style="opacity: 0;"/><path data-target="point-1-14" d="M100.60315290500128,5.684341886080802e-14L303.73974513499996,431.16528L313.93816157142857,431.16528L321.84642724285715,422.77248L172.63979733409852,114.50569251095942L112.79114792428545,-1.4210854715202004e-14Z" style="opacity: 0;"/><path data-target="point-1-15" d="M172.63979733409852,114.50569251095942L321.84642724285715,422.77248L331.190008,422.77248L339.70103728,412.12703999999997Z" style="opacity: 0;"/><path data-target="point-1-16" d="M112.79114792428545,-1.4210854715202004e-14L172.63979733409852,114.50569251095942L339.70103728,412.12703999999997L349.5880365714286,412.12703999999997L357.4013353485714,402.40512L144.97454682285766,0Z" style="opacity: 0;"/><path data-target="point-1-17" d="M144.97454682285766,0L357.4013353485714,402.40512L368.4519257142857,402.40512L375.2937313714286,395.44752L285.14942470913735,184.9792617932756L195.551746378571,2.842170943040401e-14Z" style="opacity: 0;"/><path data-target="point-1-18" d="M285.14942470913735,184.9792617932756L375.2937313714286,395.44752L386.11758843999996,395.44752L394.58609055999995,387.47903999999994Z" style="opacity: 0;"/><path data-target="point-1-19" d="M195.551746378571,2.842170943040401e-14L285.14942470913735,184.9792617932756L394.58609055999995,387.47903999999994L402.71985488,387.47903999999994L412.41804638857144,379.08L227.08854210285708,0Z" style="opacity: 0;"/><path data-target="point-1-20" d="M227.08854210285708,0L412.41804638857144,379.08L421.2384857142857,379.08L430.67542157142856,371.79479999999995L257.84063351785676,0Z" style="opacity: 0;"/><path data-target="point-1-21" d="M257.84063351785676,0L430.67542157142856,371.79479999999995L438.4425836071428,371.7948L448.0474215678571,364.80288L304.3769730507147,0Z" style="opacity: 0;"/><path data-target="point-1-22" d="M304.3769730507147,0L448.0474215678571,364.80288L456.5273405,364.80288L465.52895312,358.38192L339.7368992000002,0Z" style="opacity: 0;"/><path data-target="point-1-23" d="M339.7368992000002,0L465.52895312,358.38192L474.18735814285714,358.38192L479.2847419371428,354.61296L478.155463627195,298.6982072528031L403.7356053746427,0Z" style="opacity: 0;"/><path data-target="point-1-24" d="M478.155463627195,298.6982072528031L479.2847419371428,354.61296L493.034299,354.61296L500.67723273999997,345.8052Z" style="opacity: 0;"/><path data-target="point-1-25" d="M403.7356053746427,0L478.155463627195,298.6982072528031L500.67723273999997,345.8052L511.25730392857145,345.8052L517.4214606285714,338.90376000000003L409.79530941714336,0Z" style="opacity: 0;"/><path data-target="point-1-26" d="M409.79530941714336,0L517.4214606285714,338.90376000000003L530.25316155,338.90376000000003L534.21398244,334.464L514.6605151070792,223.9255212352544L511.71205275404725,213.12845989970634L475.22633557023846,114.97865841873895L430.54685500534686,10.348936882303917L425.7328573610347,0Z" style="opacity: 0;"/><path data-target="point-1-27" d="M514.6605151070792,223.9255212352544L534.21398244,334.464L548.767081249126,334.464L553.3496310908766,328.698178Z" style="opacity: 0;"/><path data-target="point-1-28" d="M511.71205275404725,213.12845989970634L514.6605151070792,223.9255212352544L553.3496310908766,328.698178L565.6195357496593,328.698178L571.4007245820147,318.021194Z" style="opacity: 0;"/><path data-target="point-1-29" d="M475.22633557023846,114.97865841873895L511.71205275404725,213.12845989970634L571.4007245820147,318.021194L583.8845976343714,318.021194L588.9861434825759,306.85075199999994Z" style="opacity: 0;"/><path data-target="point-1-30" d="M430.54685500534686,10.348936882303917L475.22633557023846,114.97865841873895L588.9861434825759,306.85075199999994L602.2468770315437,306.85075199999994L606.4891733232652,295.163856Z" style="opacity: 0;"/><path data-target="point-1-31" d="M425.7328573610347,0L430.54685500534686,10.348936882303917L606.4891733232652,295.163856L620.7221563072169,295.163856L623.8977296702615,282.936576L441.7925812090334,0Z" style="opacity: 0;"/><path data-target="point-1-32" d="M441.7925812090334,0L623.8977296702615,282.936576L639.3284461917127,282.936576L641.1981704439589,270.14360899999997L460.0394592241476,0Z" style="opacity: 0;"/><path data-target="point-1-33" d="M460.0394592241476,0L641.1981704439589,270.14360899999997L658.0861349861848,270.14360899999997L658.3752013413518,256.75859049999997L478.9764553860887,0Z" style="opacity: 0;"/><path data-target="point-1-34" d="M478.9764553860887,0L658.3752013413518,256.75859049999997L677.0184233531569,256.75859049999997L675.4116265056648,242.75394L498.6907002278832,0Z" style="opacity: 0;"/><path data-target="point-1-35" d="M498.6907002278832,0L675.4116265056648,242.75394L696.1516171642512,242.75394L692.2881402142727,228.100735L519.275832974656,0Z" style="opacity: 0;"/><path data-target="point-1-36" d="M519.275832974656,0L692.2881402142727,228.100735L715.5154235012903,228.100735L708.9831526446806,212.768712L540.8364445283207,0Z" style="opacity: 0;"/><path data-target="point-1-37" d="M540.8364445283207,0L708.9831526446806,212.768712L735.1435856634558,212.768712L725.4724609792233,196.7261715L563.4892291684205,0Z" style="opacity: 0;"/><path data-target="point-1-38" d="M563.4892291684205,0L725.4724609792233,196.7261715L755.0742231937567,196.7261715L741.7288734446122,179.939885L587.3579942451418,0Z" style="opacity: 0;"/><path data-target="point-1-39" d="M587.3579942451418,0L741.7288734446122,179.939885L773.4225045917533,179.939885L757.7221748121068,162.3751585L594.761523385676,0Z" style="opacity: 0;"/><path data-target="point-1-40" d="M757.7221748121068,162.3751585L773.4225045917533,179.939885L936,349.8679349263874L936,318.5679808839143L790.5355849424081,162.3751585Z" style="opacity: 0;"/><path data-target="point-1-41" d="M775.4356065338234,143.99558150000001L790.5355849424081,162.3751585L936,318.5679808839143L936,276.4826333820455L807.4419359245741,143.9955815Z" style="opacity: 0;"/><path data-target="point-1-42" d="M794.5190401658665,124.76302799999999L807.4419359245741,143.9955815L936,276.4826333820455L936,235.43426123994902L824.1107903128053,124.76302799999999Z" style="opacity: 0;"/><path data-target="point-1-43" d="M813.9115165612423,104.6376865L824.1107903128053,124.76302799999999L936,235.43426123994902L936,195.29117839157527L840.5077818617281,104.6376865Z" style="opacity: 0;"/><path data-target="point-1-44" d="M833.6625092392195,83.5777175L840.5077818617281,104.6376865L936,195.29117839157527L936,155.92812885313015L856.5940346704359,83.5777175Z" style="opacity: 0;"/><path data-target="point-1-45" d="M853.8284595772051,61.539410499999995L856.5940346704359,83.5777175L936,155.92812885313015L936,117.22230249489132L872.3259822210812,61.539410499999995Z" style="opacity: 0;"/><path data-target="point-1-46" d="M872.3259822210812,61.539410499999995L936,117.22230249489132L936,38.4769635L874.4733843173688,38.4769635Z" style="opacity: 0;"/></g></g><g class="axes"><g class="y axis" fill="none" font-size="10" font-family="sans-serif" text-anchor="end" style="font-family: &quot;Source Sans Pro&quot;;"><path class="domain" stroke="#eeeeee" d="M0.5,562.1V0.5" stroke-dasharray="0" style="visibility: hidden;"/><g class="tick" opacity="1" transform="translate(0,562.1)" style="visibility: visible;"><line stroke="#eeeeee" x2="936" stroke-dasharray="0"/><text fill="rgb(0, 0, 0)" x="3" dy="-0.33em" opacity="1" text-anchor="start" font-size="18">$0</text></g><g class="tick" opacity="1" transform="translate(0, 499.70001220703125)" style="visibility: visible;"><line stroke="#eeeeee" x2="936" stroke-dasharray="0"/><text fill="rgb(0, 0, 0)" x="3" dy="-0.33em" opacity="1" text-anchor="start" font-size="18">$10,000</text></g><g class="tick" opacity="1" transform="translate(0, 437.29998779296875)" style="visibility: visible;"><line stroke="#eeeeee" x2="936" stroke-dasharray="0"/><text fill="rgb(0, 0, 0)" x="3" dy="-0.33em" opacity="1" text-anchor="start" font-size="18">$20,000</text></g><g class="tick" opacity="1" transform="translate(0, 374.8999938964844)" style="visibility: visible;"><line stroke="#eeeeee" x2="936" stroke-dasharray="0"/><text fill="rgb(0, 0, 0)" x="3" dy="-0.33em" opacity="1" text-anchor="start" font-size="18">$30,000</text></g><g class="tick" opacity="1" transform="translate(0, 312.5)" style="visibility: visible;"><line stroke="#eeeeee" x2="936" stroke-dasharray="0"/><text fill="rgb(0, 0, 0)" x="3" dy="-0.33em" opacity="1" text-anchor="start" font-size="18">$40,000</text></g><g class="tick" opacity="1" transform="translate(0, 250.10000610351562)" style="visibility: visible;"><line stroke="#eeeeee" x2="936" stroke-dasharray="0"/><text fill="rgb(0, 0, 0)" x="3" dy="-0.33em" opacity="1" text-anchor="start" font-size="18">$50,000</text></g><g class="tick" opacity="1" transform="translate(0, 187.6999969482422)" style="visibility: visible;"><line stroke="#eeeeee" x2="936" stroke-dasharray="0"/><text fill="rgb(0, 0, 0)" x="3" dy="-0.33em" opacity="1" text-anchor="start" font-size="18">$60,000</text></g><g class="tick" opacity="1" transform="translate(0, 125.30000305175781)" style="visibility: visible;"><line stroke="#eeeeee" x2="936" stroke-dasharray="0"/><text fill="rgb(0, 0, 0)" x="3" dy="-0.33em" opacity="1" text-anchor="start" font-size="18">$70,000</text></g><g class="tick" opacity="1" transform="translate(0, 62.900001525878906)" style="visibility: visible;"><line stroke="#eeeeee" x2="936" stroke-dasharray="0"/><text fill="rgb(0, 0, 0)" x="3" dy="-0.33em" opacity="1" text-anchor="start" font-size="18">$80,000</text></g><g class="tick" opacity="1" transform="translate(0, 0.5)" style="visibility: visible;"><line stroke="#eeeeee" x2="936" stroke-dasharray="0"/><text fill="rgb(0, 0, 0)" x="3" dy="-0.33em" opacity="1" text-anchor="start" font-size="18">$90,000</text></g></g><g class="x axis" transform="translate(0,561.6)" fill="none" font-size="10" font-family="sans-serif" text-anchor="middle" style="font-family: &quot;Source Sans Pro&quot;;"><path class="domain" stroke="#eeeeee" d="M40.5,0.5H936.5" stroke-dasharray="0"/><g class="tick" opacity="1" transform="translate(40.5,0)"><line stroke="#eeeeee" y2="6" stroke-dasharray="0"/><text fill="rgb(0, 0, 0)" y="9" dy="-9" opacity="1" dominant-baseline="central" font-size="18" transform="translate(0, 15) rotate(-45)" dx="5" style="text-anchor: end; visibility: visible;">1990</text></g><g class="tick" opacity="1" transform="translate(130.10000000000002,0)"><line stroke="#eeeeee" y2="6" stroke-dasharray="0"/><text fill="rgb(0, 0, 0)" y="9" dy="-9" opacity="1" dominant-baseline="central" font-size="18" transform="translate(0, 15) rotate(-45)" dx="5" style="text-anchor: end; visibility: visible;">1995</text></g><g class="tick" opacity="1" transform="translate(219.70000000000002,0)"><line stroke="#eeeeee" y2="6" stroke-dasharray="0"/><text fill="rgb(0, 0, 0)" y="9" dy="-9" opacity="1" dominant-baseline="central" font-size="18" transform="translate(0, 15) rotate(-45)" dx="5" style="text-anchor: end; visibility: visible;">2000</text></g><g class="tick" opacity="1" transform="translate(309.3,0)"><line stroke="#eeeeee" y2="6" stroke-dasharray="0"/><text fill="rgb(0, 0, 0)" y="9" dy="-9" opacity="1" dominant-baseline="central" font-size="18" transform="translate(0, 15) rotate(-45)" dx="5" style="text-anchor: end; visibility: visible;">2005</text></g><g class="tick" opacity="1" transform="translate(398.90000000000003,0)"><line stroke="#eeeeee" y2="6" stroke-dasharray="0"/><text fill="rgb(0, 0, 0)" y="9" dy="-9" opacity="1" dominant-baseline="central" font-size="18" transform="translate(0, 15) rotate(-45)" dx="5" style="text-anchor: end; visibility: visible;">2010</text></g><g class="tick" opacity="1" transform="translate(488.5,0)"><line stroke="#eeeeee" y2="6" stroke-dasharray="0"/><text fill="rgb(0, 0, 0)" y="9" dy="-9" opacity="1" dominant-baseline="central" font-size="18" transform="translate(0, 15) rotate(-45)" dx="5" style="text-anchor: end; visibility: visible;">2015</text></g><g class="tick" opacity="1" transform="translate(578.1,0)"><line stroke="#eeeeee" y2="6" stroke-dasharray="0"/><text fill="rgb(0, 0, 0)" y="9" dy="-9" opacity="1" dominant-baseline="central" font-size="18" transform="translate(0, 15) rotate(-45)" dx="5" style="text-anchor: end; visibility: visible;">2020</text></g><g class="tick" opacity="1" transform="translate(667.6999999999999,0)"><line stroke="#eeeeee" y2="6" stroke-dasharray="0"/><text fill="rgb(0, 0, 0)" y="9" dy="-9" opacity="1" dominant-baseline="central" font-size="18" transform="translate(0, 15) rotate(-45)" dx="5" style="text-anchor: end; visibility: visible;">2025</text></g><g class="tick" opacity="1" transform="translate(757.3000000000001,0)"><line stroke="#eeeeee" y2="6" stroke-dasharray="0"/><text fill="rgb(0, 0, 0)" y="9" dy="-9" opacity="1" dominant-baseline="central" font-size="18" transform="translate(0, 15) rotate(-45)" dx="5" style="text-anchor: end; visibility: visible;">2030</text></g><g class="tick" opacity="1" transform="translate(846.9,0)"><line stroke="#eeeeee" y2="6" stroke-dasharray="0"/><text fill="rgb(0, 0, 0)" y="9" dy="-9" opacity="1" dominant-baseline="central" font-size="18" transform="translate(0, 15) rotate(-45)" dx="5" style="text-anchor: end; visibility: visible;">2035</text></g><g class="tick" opacity="1" transform="translate(936.5,0)"><line stroke="#eeeeee" y2="6" stroke-dasharray="0"/><text fill="rgb(0, 0, 0)" y="9" dy="-9" opacity="1" dominant-baseline="central" font-size="18" transform="translate(0, 15) rotate(-45)" dx="5" style="text-anchor: end; visibility: visible;">2040</text></g></g></g></g></g></g><g class="annotations below"><g class="axis-highlights" transform="translate(15, 20)" style="opacity: 1;"><g class="line x" transform="translate(559.68, 0)"><line width="0" stroke-dasharray="2 2" stroke="#333333" stroke-width="2" y2="561.6"/><text transform="translate(0, 6) rotate(-90)" fill="#333333" text-anchor="end" dy="-0.5em" font-size="12">Current</text></g></g></g><g id="areas"><g class="series" pointer-events="none"><path class="area" transform="translate(15,20)" fill-opacity="0" fill="rgb(17, 165, 121)" clip-path="url(#clip-0-0)" d="M57.92,513.8016C63.89333333333334,512.9696,69.86666666666667,512.1376,75.84,511.3056C81.81333333333333,510.47360000000003,87.78666666666666,509.74976000000004,93.75999999999999,508.80960000000005C99.73333333333333,507.86944000000005,105.70666666666666,506.80136000000005,111.68,505.66464C117.65333333333335,504.52792,123.62666666666668,503.11872,129.60000000000002,501.98928C135.57333333333335,500.85984,141.54666666666665,500.18488,147.51999999999998,498.88800000000003C153.4933333333333,497.59112000000005,159.46666666666667,495.92400000000004,165.44,494.208C171.41333333333333,492.492,177.38666666666668,490.256,183.36,488.592C189.33333333333334,486.928,195.30666666666667,485.78400000000005,201.28,484.22400000000005C207.25333333333333,482.66400000000004,213.2266666666667,481.09360000000004,219.20000000000002,479.232C225.17333333333335,477.3704,231.14666666666668,476.0704,237.12,473.0544C243.09333333333333,470.03839999999997,249.06666666666666,464.12080000000003,255.04,461.136C261.0133333333333,458.1512,266.9866666666667,457.132,272.96000000000004,455.1456C278.93333333333334,453.1592,284.9066666666667,451.1312,290.88,449.2176C296.85333333333335,447.304,302.82666666666665,445.9416,308.8,443.664C314.77333333333337,441.3864,320.74666666666667,438.776,326.72,435.552C332.6933333333334,432.32800000000003,338.6666666666667,427.85600000000005,344.64000000000004,424.32000000000005C350.61333333333334,420.78400000000005,356.5866666666667,417.04,362.56,414.336C368.53333333333336,411.632,374.50666666666666,410.17808,380.48,408.096C386.4533333333334,406.01392,392.4266666666667,404.22512,398.40000000000003,401.84352C404.37333333333333,399.46192,410.3466666666667,396.18592000000007,416.32,393.80640000000005C422.29333333333335,391.42688000000004,428.26666666666665,389.7608000000001,434.24,387.56640000000004C440.21333333333337,385.372,446.18666666666667,382.8864,452.16,380.64C458.1333333333333,378.3936,464.1066666666667,376.376,470.08,374.08799999999997C476.05333333333334,371.79999999999995,482.02666666666664,369.61600000000004,488,366.91200000000003C493.97333333333336,364.208,499.94666666666666,360.72400000000005,505.92,357.86400000000003C511.8933333333334,355.004,517.8666666666667,352.0556,523.84,349.752C529.8133333333334,347.4484,535.7866666666666,345.81306240000004,541.76,344.04240000000004C547.7333333333333,342.27173760000005,553.7066666666666,341.8065352,559.68,339.1280256C565.6533333333333,336.449516,571.6266666666667,331.78349360000004,577.6,327.9713424C583.5733333333334,324.15919120000007,589.5466666666666,320.2584632,595.52,316.2551184C601.4933333333333,312.2517736,607.4666666666667,308.15538,613.44,303.9512736C619.4133333333334,299.7471672,625.3866666666667,295.4454048,631.36,291.03048C637.3333333333334,286.6155552,643.3066666666667,282.09805520000003,649.2800000000001,277.4617248C655.2533333333333,272.82539440000005,661.2266666666667,268.08134079999996,667.1999999999999,263.2124976C673.1733333333333,258.3436544,679.1466666666666,253.36168,685.12,248.24866559999998C691.0933333333334,243.1356512,697.0666666666666,237.9038272,703.04,232.53441120000002C709.0133333333333,227.16499520000002,714.9866666666667,221.67085200000005,720.96,216.03216960000003C726.9333333333334,210.39348720000004,732.9066666666666,204.62378559999993,738.88,198.70231679999995C744.8533333333334,192.78084799999993,750.8266666666667,186.72177680000004,756.8000000000001,180.5033568C762.7733333333333,174.28493680000005,768.7466666666667,167.92206079999997,774.7199999999999,161.3917968C780.6933333333333,154.86153279999996,786.6666666666666,148.17953280000003,792.64,141.32177280000002C798.6133333333333,134.46401280000003,804.5866666666666,127.44690400000003,810.56,120.24523680000004C816.5333333333333,113.04356960000001,822.5066666666667,105.67458719999996,828.48,98.11176959999995C834.4533333333334,90.54895199999997,840.4266666666666,82.81041600000002,846.4,74.86833120000006C852.3733333333333,66.92624640000004,858.3466666666667,58.79963440000003,864.32,50.45926079999998C870.2933333333334,42.11888719999999,876.2666666666667,33.47248839999996,882.24,24.826089599999932L882.24,24.826089599999932C876.2666666666667,33.47248839999996,870.2933333333334,42.11888719999999,864.32,50.45926079999998C858.3466666666667,58.79963440000003,852.3733333333333,66.92624640000004,846.4,74.86833120000006C840.4266666666666,82.81041600000002,834.4533333333334,90.54895199999997,828.48,98.11176959999995C822.5066666666667,105.67458719999996,816.5333333333333,113.04356960000001,810.56,120.24523680000004C804.5866666666666,127.44690400000003,798.6133333333333,134.46401280000003,792.64,141.32177280000002C786.6666666666666,148.17953280000003,780.6933333333333,154.86153279999996,774.7199999999999,161.3917968C768.7466666666667,167.92206079999997,762.7733333333333,174.28493680000005,756.8000000000001,180.5033568C750.8266666666667,186.72177680000004,744.8533333333334,192.78084799999993,738.88,198.70231679999995C732.9066666666666,204.62378559999993,726.9333333333334,210.39348720000004,720.96,216.03216960000003C714.9866666666667,221.67085200000005,709.0133333333333,227.16499520000002,703.04,232.53441120000002C697.0666666666666,237.9038272,691.0933333333334,243.1356512,685.12,248.24866559999998C679.1466666666666,253.36168,673.1733333333333,258.3436544,667.1999999999999,263.2124976C661.2266666666667,268.08134079999996,655.2533333333333,272.82539440000005,649.2800000000001,277.4617248C643.3066666666667,282.09805520000003,637.3333333333334,286.6155552,631.36,291.03048C625.3866666666667,295.4454048,619.4133333333334,299.7471672,613.44,303.9512736C607.4666666666667,308.15538,601.4933333333333,312.2517736,595.52,316.2551184C589.5466666666666,320.2584632,583.5733333333334,324.15919120000007,577.6,327.9713424C571.6266666666667,331.78349360000004,565.6533333333333,336.449516,559.68,339.1280256C553.7066666666666,341.8065352,547.7333333333333,342.27173760000005,541.76,344.04240000000004C535.7866666666666,345.81306240000004,529.8133333333334,347.4484,523.84,349.752C517.8666666666667,352.0556,511.8933333333334,355.004,505.92,357.86400000000003C499.94666666666666,360.72400000000005,493.97333333333336,364.208,488,366.91200000000003C482.02666666666664,369.61600000000004,476.05333333333334,371.79999999999995,470.08,374.08799999999997C464.1066666666667,376.376,458.1333333333333,378.3936,452.16,380.64C446.18666666666667,382.8864,440.21333333333337,385.372,434.24,387.56640000000004C428.26666666666665,389.7608000000001,422.29333333333335,391.42688000000004,416.32,393.80640000000005C410.3466666666667,396.18592000000007,404.37333333333333,399.46192,398.40000000000003,401.84352C392.4266666666667,404.22512,386.4533333333334,406.01392,380.48,408.096C374.50666666666666,410.17808,368.53333333333336,411.632,362.56,414.336C356.5866666666667,417.04,350.61333333333334,420.78400000000005,344.64000000000004,424.32000000000005C338.6666666666667,427.85600000000005,332.6933333333334,432.32800000000003,326.72,435.552C320.74666666666667,438.776,314.77333333333337,441.3864,308.8,443.664C302.82666666666665,445.9416,296.85333333333335,447.304,290.88,449.2176C284.9066666666667,451.1312,278.93333333333334,453.1592,272.96000000000004,455.1456C266.9866666666667,457.132,261.0133333333333,458.1512,255.04,461.136C249.06666666666666,464.12080000000003,243.09333333333333,470.03839999999997,237.12,473.0544C231.14666666666668,476.0704,225.17333333333335,477.3704,219.20000000000002,479.232C213.2266666666667,481.09360000000004,207.25333333333333,482.66400000000004,201.28,484.22400000000005C195.30666666666667,485.78400000000005,189.33333333333334,486.928,183.36,488.592C177.38666666666668,490.256,171.41333333333333,492.492,165.44,494.208C159.46666666666667,495.92400000000004,153.4933333333333,497.59112000000005,147.51999999999998,498.88800000000003C141.54666666666665,500.18488,135.57333333333335,500.85984,129.60000000000002,501.98928C123.62666666666668,503.11872,117.65333333333335,504.52792,111.68,505.66464C105.70666666666666,506.80136000000005,99.73333333333333,507.86944000000005,93.75999999999999,508.80960000000005C87.78666666666666,509.74976000000004,81.81333333333333,510.47360000000003,75.84,511.3056C69.86666666666667,512.1376,63.89333333333334,512.9696,57.92,513.8016Z"/></g><g class="series" pointer-events="none"><path class="area" transform="translate(15,20)" fill-opacity="0" fill="rgb(128, 35, 146)" clip-path="url(#clip-0-1)" d="M57.92,496.19856000000004C63.89333333333334,494.89388,69.86666666666667,493.5892,75.84,492.18624C81.81333333333333,490.78328,87.78666666666666,489.10888,93.75999999999999,487.7808C99.73333333333333,486.45272,105.70666666666666,485.43248,111.68,484.21776C117.65333333333335,483.00304,123.62666666666668,481.858,129.60000000000002,480.49248C135.57333333333335,479.12696,141.54666666666665,477.5264,147.51999999999998,476.02464000000003C153.4933333333333,474.52288000000004,159.46666666666667,473.10016,165.44,471.48192C171.41333333333333,469.86368,177.38666666666668,467.94696,183.36,466.3152C189.33333333333334,464.68344,195.30666666666667,463.27528,201.28,461.69136000000003C207.25333333333333,460.10744000000005,213.2266666666667,458.57344,219.20000000000002,456.81168C225.17333333333335,455.04992000000004,231.14666666666668,453.21016000000003,237.12,451.12080000000003C243.09333333333333,449.03144000000003,249.06666666666666,446.85368000000005,255.04,444.27552000000003C261.0133333333333,441.69736,266.9866666666667,438.51288,272.96000000000004,435.65184C278.93333333333334,432.7908,284.9066666666667,429.94016,290.88,427.10928C296.85333333333335,424.27840000000003,302.82666666666665,421.51928,308.8,418.66656C314.77333333333337,415.81384,320.74666666666667,413.11504,326.72,409.99296000000004C332.6933333333334,406.87088000000006,338.6666666666667,403.1872,344.64000000000004,399.93408C350.61333333333334,396.68095999999997,356.5866666666667,393.33008,362.56,390.47424C368.53333333333336,387.6184,374.50666666666666,385.69232,380.48,382.79904C386.4533333333334,379.90576,392.4266666666667,376.18879999999996,398.40000000000003,373.11456C404.37333333333333,370.04032,410.3466666666667,367.20216000000005,416.32,364.35360000000003C422.29333333333335,361.50504,428.26666666666665,358.58783999999997,434.24,356.0232C440.21333333333337,353.45856,446.18666666666667,351.19032,452.16,348.96576C458.1333333333333,346.7412,464.1066666666667,342.91712,470.08,342.67584C476.05333333333334,342.43456,482.02666666666664,342.5552,488,342.31392C493.97333333333336,342.07264,499.94666666666666,336.1228,505.92,333.7464C511.8933333333334,331.37,517.8666666666667,329.53232,523.84,328.05552C529.8133333333334,326.57872000000003,535.7866666666666,326.5167984,541.76,324.8856C547.7333333333333,323.2544016,553.7066666666666,321.0707552,559.68,318.2683296C565.6533333333333,315.465904,571.6266666666667,311.5413704,577.6,308.0710464C583.5733333333334,304.6007224,589.5466666666666,301.06215360000004,595.52,297.44638560000004C601.4933333333333,293.83061760000004,607.4666666666667,290.1437240000001,613.44,286.37643840000004C619.4133333333334,282.60915280000006,625.3866666666667,278.76782959999997,631.36,274.842672C637.3333333333334,270.91751439999996,643.3066666666667,266.91515760000004,649.2800000000001,262.8254928C655.2533333333333,258.735828,661.2266666666667,254.56572959999997,667.1999999999999,250.3046832C673.1733333333333,246.04363679999997,679.1466666666666,241.69881840000002,685.12,237.25921440000002C691.0933333333334,232.81961040000004,697.0666666666666,228.29271920000002,703.04,223.66705920000004C709.0133333333333,219.04139920000003,714.9866666666667,214.32476000000003,720.96,209.5052544C726.9333333333334,204.68574880000003,732.9066666666666,199.7714992,738.88,194.75002560000001C744.8533333333334,189.728552,750.8266666666667,184.60833040000006,756.8000000000001,179.37641280000003C762.7733333333333,174.14449520000005,768.7466666666667,168.80969039999997,774.7199999999999,163.35852C780.6933333333333,157.90734959999997,786.6666666666666,152.34900720000007,792.64,146.66939040000005C798.6133333333333,140.98977360000006,804.5866666666666,135.19845039999998,810.56,129.2808192C816.5333333333333,123.36318799999997,822.5066666666667,117.32922239999996,828.48,111.16360319999995C834.4533333333334,104.99798399999999,840.4266666666666,98.71111120000002,846.4,92.28710400000006C852.3733333333333,85.86309680000005,858.3466666666667,79.31277120000006,864.32,72.61956000000004C870.2933333333334,65.92634880000006,876.2666666666667,59.02709280000006,882.24,52.12783680000007L882.24,52.12783680000007C876.2666666666667,59.02709280000006,870.2933333333334,65.92634880000006,864.32,72.61956000000004C858.3466666666667,79.31277120000006,852.3733333333333,85.86309680000005,846.4,92.28710400000006C840.4266666666666,98.71111120000002,834.4533333333334,104.99798399999999,828.48,111.16360319999995C822.5066666666667,117.32922239999996,816.5333333333333,123.36318799999997,810.56,129.2808192C804.5866666666666,135.19845039999998,798.6133333333333,140.98977360000006,792.64,146.66939040000005C786.6666666666666,152.34900720000007,780.6933333333333,157.90734959999997,774.7199999999999,163.35852C768.7466666666667,168.80969039999997,762.7733333333333,174.14449520000005,756.8000000000001,179.37641280000003C750.8266666666667,184.60833040000006,744.8533333333334,189.728552,738.88,194.75002560000001C732.9066666666666,199.7714992,726.9333333333334,204.68574880000003,720.96,209.5052544C714.9866666666667,214.32476000000003,709.0133333333333,219.04139920000003,703.04,223.66705920000004C697.0666666666666,228.29271920000002,691.0933333333334,232.81961040000004,685.12,237.25921440000002C679.1466666666666,241.69881840000002,673.1733333333333,246.04363679999997,667.1999999999999,250.3046832C661.2266666666667,254.56572959999997,655.2533333333333,258.735828,649.2800000000001,262.8254928C643.3066666666667,266.91515760000004,637.3333333333334,270.91751439999996,631.36,274.842672C625.3866666666667,278.76782959999997,619.4133333333334,282.60915280000006,613.44,286.37643840000004C607.4666666666667,290.1437240000001,601.4933333333333,293.83061760000004,595.52,297.44638560000004C589.5466666666666,301.06215360000004,583.5733333333334,304.6007224,577.6,308.0710464C571.6266666666667,311.5413704,565.6533333333333,315.465904,559.68,318.2683296C553.7066666666666,321.0707552,547.7333333333333,323.2544016,541.76,324.8856C535.7866666666666,326.5167984,529.8133333333334,326.57872000000003,523.84,328.05552C517.8666666666667,329.53232,511.8933333333334,331.37,505.92,333.7464C499.94666666666666,336.1228,493.97333333333336,342.07264,488,342.31392C482.02666666666664,342.5552,476.05333333333334,342.43456,470.08,342.67584C464.1066666666667,342.91712,458.1333333333333,346.7412,452.16,348.96576C446.18666666666667,351.19032,440.21333333333337,353.45856,434.24,356.0232C428.26666666666665,358.58783999999997,422.29333333333335,361.50504,416.32,364.35360000000003C410.3466666666667,367.20216000000005,404.37333333333333,370.04032,398.40000000000003,373.11456C392.4266666666667,376.18879999999996,386.4533333333334,379.90576,380.48,382.79904C374.50666666666666,385.69232,368.53333333333336,387.6184,362.56,390.47424C356.5866666666667,393.33008,350.61333333333334,396.68095999999997,344.64000000000004,399.93408C338.6666666666667,403.1872,332.6933333333334,406.87088000000006,326.72,409.99296000000004C320.74666666666667,413.11504,314.77333333333337,415.81384,308.8,418.66656C302.82666666666665,421.51928,296.85333333333335,424.27840000000003,290.88,427.10928C284.9066666666667,429.94016,278.93333333333334,432.7908,272.96000000000004,435.65184C266.9866666666667,438.51288,261.0133333333333,441.69736,255.04,444.27552000000003C249.06666666666666,446.85368000000005,243.09333333333333,449.03144000000003,237.12,451.12080000000003C231.14666666666668,453.21016000000003,225.17333333333335,455.04992000000004,219.20000000000002,456.81168C213.2266666666667,458.57344,207.25333333333333,460.10744000000005,201.28,461.69136000000003C195.30666666666667,463.27528,189.33333333333334,464.68344,183.36,466.3152C177.38666666666668,467.94696,171.41333333333333,469.86368,165.44,471.48192C159.46666666666667,473.10016,153.4933333333333,474.52288000000004,147.51999999999998,476.02464000000003C141.54666666666665,477.5264,135.57333333333335,479.12696,129.60000000000002,480.49248C123.62666666666668,481.858,117.65333333333335,483.00304,111.68,484.21776C105.70666666666666,485.43248,99.73333333333333,486.45272,93.75999999999999,487.7808C87.78666666666666,489.10888,81.81333333333333,490.78328,75.84,492.18624C69.86666666666667,493.5892,63.89333333333334,494.89388,57.92,496.19856000000004Z"/></g></g><g id="lines"><g class="series"><clipPath id="clip-0-0"><rect width="936" y="-20" height="599.6"/></clipPath><path class="line" opacity="1" fill="none" stroke="rgb(17, 165, 121)" stroke-width="2" transform="translate(15,20)" clip-path="url(#clip-0-0)" d="M57.92,513.8016C63.89333333333334,512.9696,69.86666666666667,512.1376,75.84,511.3056C81.81333333333333,510.47360000000003,87.78666666666666,509.74976000000004,93.75999999999999,508.80960000000005C99.73333333333333,507.86944000000005,105.70666666666666,506.80136000000005,111.68,505.66464C117.65333333333335,504.52792,123.62666666666668,503.11872,129.60000000000002,501.98928C135.57333333333335,500.85984,141.54666666666665,500.18488,147.51999999999998,498.88800000000003C153.4933333333333,497.59112000000005,159.46666666666667,495.92400000000004,165.44,494.208C171.41333333333333,492.492,177.38666666666668,490.256,183.36,488.592C189.33333333333334,486.928,195.30666666666667,485.78400000000005,201.28,484.22400000000005C207.25333333333333,482.66400000000004,213.2266666666667,481.09360000000004,219.20000000000002,479.232C225.17333333333335,477.3704,231.14666666666668,476.0704,237.12,473.0544C243.09333333333333,470.03839999999997,249.06666666666666,464.12080000000003,255.04,461.136C261.0133333333333,458.1512,266.9866666666667,457.132,272.96000000000004,455.1456C278.93333333333334,453.1592,284.9066666666667,451.1312,290.88,449.2176C296.85333333333335,447.304,302.82666666666665,445.9416,308.8,443.664C314.77333333333337,441.3864,320.74666666666667,438.776,326.72,435.552C332.6933333333334,432.32800000000003,338.6666666666667,427.85600000000005,344.64000000000004,424.32000000000005C350.61333333333334,420.78400000000005,356.5866666666667,417.04,362.56,414.336C368.53333333333336,411.632,374.50666666666666,410.17808,380.48,408.096C386.4533333333334,406.01392,392.4266666666667,404.22512,398.40000000000003,401.84352C404.37333333333333,399.46192,410.3466666666667,396.18592000000007,416.32,393.80640000000005C422.29333333333335,391.42688000000004,428.26666666666665,389.7608000000001,434.24,387.56640000000004C440.21333333333337,385.372,446.18666666666667,382.8864,452.16,380.64C458.1333333333333,378.3936,464.1066666666667,376.376,470.08,374.08799999999997C476.05333333333334,371.79999999999995,482.02666666666664,369.61600000000004,488,366.91200000000003C493.97333333333336,364.208,499.94666666666666,360.72400000000005,505.92,357.86400000000003C511.8933333333334,355.004,517.8666666666667,352.0556,523.84,349.752C529.8133333333334,347.4484,535.7866666666666,345.81306240000004,541.76,344.04240000000004C547.7333333333333,342.27173760000005,553.7066666666666,341.8065352,559.68,339.1280256C565.6533333333333,336.449516,571.6266666666667,331.78349360000004,577.6,327.9713424C583.5733333333334,324.15919120000007,589.5466666666666,320.2584632,595.52,316.2551184C601.4933333333333,312.2517736,607.4666666666667,308.15538,613.44,303.9512736C619.4133333333334,299.7471672,625.3866666666667,295.4454048,631.36,291.03048C637.3333333333334,286.6155552,643.3066666666667,282.09805520000003,649.2800000000001,277.4617248C655.2533333333333,272.82539440000005,661.2266666666667,268.08134079999996,667.1999999999999,263.2124976C673.1733333333333,258.3436544,679.1466666666666,253.36168,685.12,248.24866559999998C691.0933333333334,243.1356512,697.0666666666666,237.9038272,703.04,232.53441120000002C709.0133333333333,227.16499520000002,714.9866666666667,221.67085200000005,720.96,216.03216960000003C726.9333333333334,210.39348720000004,732.9066666666666,204.62378559999993,738.88,198.70231679999995C744.8533333333334,192.78084799999993,750.8266666666667,186.72177680000004,756.8000000000001,180.5033568C762.7733333333333,174.28493680000005,768.7466666666667,167.92206079999997,774.7199999999999,161.3917968C780.6933333333333,154.86153279999996,786.6666666666666,148.17953280000003,792.64,141.32177280000002C798.6133333333333,134.46401280000003,804.5866666666666,127.44690400000003,810.56,120.24523680000004C816.5333333333333,113.04356960000001,822.5066666666667,105.67458719999996,828.48,98.11176959999995C834.4533333333334,90.54895199999997,840.4266666666666,82.81041600000002,846.4,74.86833120000006C852.3733333333333,66.92624640000004,858.3466666666667,58.79963440000003,864.32,50.45926079999998C870.2933333333334,42.11888719999999,876.2666666666667,33.47248839999996,882.24,24.826089599999932"/><text class="label" font-size="11" alignment-baseline="middle" opacity="1" x="5" fill="rgb(17, 165, 121)" transform="translate(897.239990234375, 44.826087951660156)"/></g><g class="series"><clipPath id="clip-0-1"><rect width="936" y="-20" height="599.6"/></clipPath><path class="line" opacity="1" fill="none" stroke="rgb(128, 35, 146)" stroke-width="2" transform="translate(15,20)" clip-path="url(#clip-0-1)" d="M57.92,496.19856000000004C63.89333333333334,494.89388,69.86666666666667,493.5892,75.84,492.18624C81.81333333333333,490.78328,87.78666666666666,489.10888,93.75999999999999,487.7808C99.73333333333333,486.45272,105.70666666666666,485.43248,111.68,484.21776C117.65333333333335,483.00304,123.62666666666668,481.858,129.60000000000002,480.49248C135.57333333333335,479.12696,141.54666666666665,477.5264,147.51999999999998,476.02464000000003C153.4933333333333,474.52288000000004,159.46666666666667,473.10016,165.44,471.48192C171.41333333333333,469.86368,177.38666666666668,467.94696,183.36,466.3152C189.33333333333334,464.68344,195.30666666666667,463.27528,201.28,461.69136000000003C207.25333333333333,460.10744000000005,213.2266666666667,458.57344,219.20000000000002,456.81168C225.17333333333335,455.04992000000004,231.14666666666668,453.21016000000003,237.12,451.12080000000003C243.09333333333333,449.03144000000003,249.06666666666666,446.85368000000005,255.04,444.27552000000003C261.0133333333333,441.69736,266.9866666666667,438.51288,272.96000000000004,435.65184C278.93333333333334,432.7908,284.9066666666667,429.94016,290.88,427.10928C296.85333333333335,424.27840000000003,302.82666666666665,421.51928,308.8,418.66656C314.77333333333337,415.81384,320.74666666666667,413.11504,326.72,409.99296000000004C332.6933333333334,406.87088000000006,338.6666666666667,403.1872,344.64000000000004,399.93408C350.61333333333334,396.68095999999997,356.5866666666667,393.33008,362.56,390.47424C368.53333333333336,387.6184,374.50666666666666,385.69232,380.48,382.79904C386.4533333333334,379.90576,392.4266666666667,376.18879999999996,398.40000000000003,373.11456C404.37333333333333,370.04032,410.3466666666667,367.20216000000005,416.32,364.35360000000003C422.29333333333335,361.50504,428.26666666666665,358.58783999999997,434.24,356.0232C440.21333333333337,353.45856,446.18666666666667,351.19032,452.16,348.96576C458.1333333333333,346.7412,464.1066666666667,342.91712,470.08,342.67584C476.05333333333334,342.43456,482.02666666666664,342.5552,488,342.31392C493.97333333333336,342.07264,499.94666666666666,336.1228,505.92,333.7464C511.8933333333334,331.37,517.8666666666667,329.53232,523.84,328.05552C529.8133333333334,326.57872000000003,535.7866666666666,326.5167984,541.76,324.8856C547.7333333333333,323.2544016,553.7066666666666,321.0707552,559.68,318.2683296C565.6533333333333,315.465904,571.6266666666667,311.5413704,577.6,308.0710464C583.5733333333334,304.6007224,589.5466666666666,301.06215360000004,595.52,297.44638560000004C601.4933333333333,293.83061760000004,607.4666666666667,290.1437240000001,613.44,286.37643840000004C619.4133333333334,282.60915280000006,625.3866666666667,278.76782959999997,631.36,274.842672C637.3333333333334,270.91751439999996,643.3066666666667,266.91515760000004,649.2800000000001,262.8254928C655.2533333333333,258.735828,661.2266666666667,254.56572959999997,667.1999999999999,250.3046832C673.1733333333333,246.04363679999997,679.1466666666666,241.69881840000002,685.12,237.25921440000002C691.0933333333334,232.81961040000004,697.0666666666666,228.29271920000002,703.04,223.66705920000004C709.0133333333333,219.04139920000003,714.9866666666667,214.32476000000003,720.96,209.5052544C726.9333333333334,204.68574880000003,732.9066666666666,199.7714992,738.88,194.75002560000001C744.8533333333334,189.728552,750.8266666666667,184.60833040000006,756.8000000000001,179.37641280000003C762.7733333333333,174.14449520000005,768.7466666666667,168.80969039999997,774.7199999999999,163.35852C780.6933333333333,157.90734959999997,786.6666666666666,152.34900720000007,792.64,146.66939040000005C798.6133333333333,140.98977360000006,804.5866666666666,135.19845039999998,810.56,129.2808192C816.5333333333333,123.36318799999997,822.5066666666667,117.32922239999996,828.48,111.16360319999995C834.4533333333334,104.99798399999999,840.4266666666666,98.71111120000002,846.4,92.28710400000006C852.3733333333333,85.86309680000005,858.3466666666667,79.31277120000006,864.32,72.61956000000004C870.2933333333334,65.92634880000006,876.2666666666667,59.02709280000006,882.24,52.12783680000007"/><text class="label" font-size="11" alignment-baseline="middle" opacity="1" x="5" fill="rgb(128, 35, 146)" transform="translate(897.239990234375, 72.12783813476562)"/></g></g><g id="data-points"><g class="series" transform="translate(15,20)"><path class="data-point" fill="rgb(17, 165, 121)" data-type="point" transform="translate(0, 0)" d="M54.92,513.8016A3,3,0,1,1,60.92,513.8016A3,3,0,1,1,54.92,513.8016Z" id="point-0-0" opacity="1"/><path class="data-point" fill="rgb(17, 165, 121)" data-type="point" transform="translate(0, 0)" d="M72.84,511.3056A3,3,0,1,1,78.84,511.3056A3,3,0,1,1,72.84,511.3056Z" id="point-0-1" opacity="1"/><path class="data-point" fill="rgb(17, 165, 121)" data-type="point" transform="translate(0, 0)" d="M90.75999999999999,508.80960000000005A3,3,0,1,1,96.75999999999999,508.80960000000005A3,3,0,1,1,90.75999999999999,508.80960000000005Z" id="point-0-2" opacity="1"/><path class="data-point" fill="rgb(17, 165, 121)" data-type="point" transform="translate(0, 0)" d="M108.68,505.66464A3,3,0,1,1,114.68,505.66464A3,3,0,1,1,108.68,505.66464Z" id="point-0-3" opacity="1"/><path class="data-point" fill="rgb(17, 165, 121)" data-type="point" transform="translate(0, 0)" d="M126.60000000000002,501.98928A3,3,0,1,1,132.60000000000002,501.98928A3,3,0,1,1,126.60000000000002,501.98928Z" id="point-0-4" opacity="1"/><path class="data-point" fill="rgb(17, 165, 121)" data-type="point" transform="translate(0, 0)" d="M144.51999999999998,498.88800000000003A3,3,0,1,1,150.51999999999998,498.88800000000003A3,3,0,1,1,144.51999999999998,498.88800000000003Z" id="point-0-5" opacity="1"/><path class="data-point" fill="rgb(17, 165, 121)" data-type="point" transform="translate(0, 0)" d="M162.44,494.208A3,3,0,1,1,168.44,494.208A3,3,0,1,1,162.44,494.208Z" id="point-0-6" opacity="1"/><path class="data-point" fill="rgb(17, 165, 121)" data-type="point" transform="translate(0, 0)" d="M180.36,488.592A3,3,0,1,1,186.36,488.592A3,3,0,1,1,180.36,488.592Z" id="point-0-7" opacity="1"/><path class="data-point" fill="rgb(17, 165, 121)" data-type="point" transform="translate(0, 0)" d="M198.28,484.22400000000005A3,3,0,1,1,204.28,484.22400000000005A3,3,0,1,1,198.28,484.22400000000005Z" id="point-0-8" opacity="1"/><path class="data-point" fill="rgb(17, 165, 121)" data-type="point" transform="translate(0, 0)" d="M216.20000000000002,479.232A3,3,0,1,1,222.20000000000002,479.232A3,3,0,1,1,216.20000000000002,479.232Z" id="point-0-9" opacity="1"/><path class="data-point" fill="rgb(17, 165, 121)" data-type="point" transform="translate(0, 0)" d="M234.12,473.0544A3,3,0,1,1,240.12,473.0544A3,3,0,1,1,234.12,473.0544Z" id="point-0-10" opacity="1"/><path class="data-point" fill="rgb(17, 165, 121)" data-type="point" transform="translate(0, 0)" d="M252.04,461.136A3,3,0,1,1,258.03999999999996,461.136A3,3,0,1,1,252.04,461.136Z" id="point-0-11" opacity="1"/><path class="data-point" fill="rgb(17, 165, 121)" data-type="point" transform="translate(0, 0)" d="M269.96000000000004,455.1456A3,3,0,1,1,275.96000000000004,455.1456A3,3,0,1,1,269.96000000000004,455.1456Z" id="point-0-12" opacity="1"/><path class="data-point" fill="rgb(17, 165, 121)" data-type="point" transform="translate(0, 0)" d="M287.88,449.2176A3,3,0,1,1,293.88,449.2176A3,3,0,1,1,287.88,449.2176Z" id="point-0-13" opacity="1"/><path class="data-point" fill="rgb(17, 165, 121)" data-type="point" transform="translate(0, 0)" d="M305.8,443.664A3,3,0,1,1,311.8,443.664A3,3,0,1,1,305.8,443.664Z" id="point-0-14" opacity="1"/><path class="data-point" fill="rgb(17, 165, 121)" data-type="point" transform="translate(0, 0)" d="M323.72,435.552A3,3,0,1,1,329.72,435.552A3,3,0,1,1,323.72,435.552Z" id="point-0-15" opacity="1"/><path class="data-point" fill="rgb(17, 165, 121)" data-type="point" transform="translate(0, 0)" d="M341.64000000000004,424.32000000000005A3,3,0,1,1,347.64000000000004,424.32000000000005A3,3,0,1,1,341.64000000000004,424.32000000000005Z" id="point-0-16" opacity="1"/><path class="data-point" fill="rgb(17, 165, 121)" data-type="point" transform="translate(0, 0)" d="M359.56,414.336A3,3,0,1,1,365.56,414.336A3,3,0,1,1,359.56,414.336Z" id="point-0-17" opacity="1"/><path class="data-point" fill="rgb(17, 165, 121)" data-type="point" transform="translate(0, 0)" d="M377.48,408.096A3,3,0,1,1,383.48,408.096A3,3,0,1,1,377.48,408.096Z" id="point-0-18" opacity="1"/><path class="data-point" fill="rgb(17, 165, 121)" data-type="point" transform="translate(0, 0)" d="M395.40000000000003,401.84352A3,3,0,1,1,401.40000000000003,401.84352A3,3,0,1,1,395.40000000000003,401.84352Z" id="point-0-19" opacity="1"/><path class="data-point" fill="rgb(17, 165, 121)" data-type="point" transform="translate(0, 0)" d="M413.32,393.80640000000005A3,3,0,1,1,419.32,393.80640000000005A3,3,0,1,1,413.32,393.80640000000005Z" id="point-0-20" opacity="1"/><path class="data-point" fill="rgb(17, 165, 121)" data-type="point" transform="translate(0, 0)" d="M431.24,387.56640000000004A3,3,0,1,1,437.24,387.56640000000004A3,3,0,1,1,431.24,387.56640000000004Z" id="point-0-21" opacity="1"/><path class="data-point" fill="rgb(17, 165, 121)" data-type="point" transform="translate(0, 0)" d="M449.16,380.64A3,3,0,1,1,455.16,380.64A3,3,0,1,1,449.16,380.64Z" id="point-0-22" opacity="1"/><path class="data-point" fill="rgb(17, 165, 121)" data-type="point" transform="translate(0, 0)" d="M467.08,374.08799999999997A3,3,0,1,1,473.08,374.08799999999997A3,3,0,1,1,467.08,374.08799999999997Z" id="point-0-23" opacity="1"/><path class="data-point" fill="rgb(17, 165, 121)" data-type="point" transform="translate(0, 0)" d="M485,366.91200000000003A3,3,0,1,1,491,366.91200000000003A3,3,0,1,1,485,366.91200000000003Z" id="point-0-24" opacity="1"/><path class="data-point" fill="rgb(17, 165, 121)" data-type="point" transform="translate(0, 0)" d="M502.92,357.86400000000003A3,3,0,1,1,508.92,357.86400000000003A3,3,0,1,1,502.92,357.86400000000003Z" id="point-0-25" opacity="1"/><path class="data-point" fill="rgb(17, 165, 121)" data-type="point" transform="translate(0, 0)" d="M520.84,349.752A3,3,0,1,1,526.84,349.752A3,3,0,1,1,520.84,349.752Z" id="point-0-26" opacity="1"/><path class="data-point" fill="rgb(17, 165, 121)" data-type="point" transform="translate(0, 0)" d="M538.76,344.04240000000004A3,3,0,1,1,544.76,344.04240000000004A3,3,0,1,1,538.76,344.04240000000004Z" id="point-0-27" opacity="1"/><path class="data-point" fill="rgb(17, 165, 121)" data-type="point" transform="translate(0, 0)" d="M556.68,339.1280256A3,3,0,1,1,562.68,339.1280256A3,3,0,1,1,556.68,339.1280256Z" id="point-0-28" opacity="1"/><path class="data-point" fill="rgb(17, 165, 121)" data-type="point" transform="translate(0, 0)" d="M574.6,327.9713424A3,3,0,1,1,580.6,327.9713424A3,3,0,1,1,574.6,327.9713424Z" id="point-0-29" opacity="1"/><path class="data-point" fill="rgb(17, 165, 121)" data-type="point" transform="translate(0, 0)" d="M592.52,316.2551184A3,3,0,1,1,598.52,316.2551184A3,3,0,1,1,592.52,316.2551184Z" id="point-0-30" opacity="1"/><path class="data-point" fill="rgb(17, 165, 121)" data-type="point" transform="translate(0, 0)" d="M610.44,303.9512736A3,3,0,1,1,616.44,303.9512736A3,3,0,1,1,610.44,303.9512736Z" id="point-0-31" opacity="1"/><path class="data-point" fill="rgb(17, 165, 121)" data-type="point" transform="translate(0, 0)" d="M628.36,291.03048A3,3,0,1,1,634.36,291.03048A3,3,0,1,1,628.36,291.03048Z" id="point-0-32" opacity="1"/><path class="data-point" fill="rgb(17, 165, 121)" data-type="point" transform="translate(0, 0)" d="M646.2800000000001,277.4617248A3,3,0,1,1,652.2800000000001,277.4617248A3,3,0,1,1,646.2800000000001,277.4617248Z" id="point-0-33" opacity="1"/><path class="data-point" fill="rgb(17, 165, 121)" data-type="point" transform="translate(0, 0)" d="M664.1999999999999,263.2124976A3,3,0,1,1,670.1999999999999,263.2124976A3,3,0,1,1,664.1999999999999,263.2124976Z" id="point-0-34" opacity="1"/><path class="data-point" fill="rgb(17, 165, 121)" data-type="point" transform="translate(0, 0)" d="M682.12,248.24866559999998A3,3,0,1,1,688.12,248.24866559999998A3,3,0,1,1,682.12,248.24866559999998Z" id="point-0-35" opacity="1"/><path class="data-point" fill="rgb(17, 165, 121)" data-type="point" transform="translate(0, 0)" d="M700.04,232.53441120000002A3,3,0,1,1,706.04,232.53441120000002A3,3,0,1,1,700.04,232.53441120000002Z" id="point-0-36" opacity="1"/><path class="data-point" fill="rgb(17, 165, 121)" data-type="point" transform="translate(0, 0)" d="M717.96,216.03216960000003A3,3,0,1,1,723.96,216.03216960000003A3,3,0,1,1,717.96,216.03216960000003Z" id="point-0-37" opacity="1"/><path class="data-point" fill="rgb(17, 165, 121)" data-type="point" transform="translate(0, 0)" d="M735.88,198.70231679999995A3,3,0,1,1,741.88,198.70231679999995A3,3,0,1,1,735.88,198.70231679999995Z" id="point-0-38" opacity="1"/><path class="data-point" fill="rgb(17, 165, 121)" data-type="point" transform="translate(0, 0)" d="M753.8000000000001,180.5033568A3,3,0,1,1,759.8000000000001,180.5033568A3,3,0,1,1,753.8000000000001,180.5033568Z" id="point-0-39" opacity="1"/><path class="data-point" fill="rgb(17, 165, 121)" data-type="point" transform="translate(0, 0)" d="M771.7199999999999,161.3917968A3,3,0,1,1,777.7199999999999,161.3917968A3,3,0,1,1,771.7199999999999,161.3917968Z" id="point-0-40" opacity="1"/><path class="data-point" fill="rgb(17, 165, 121)" data-type="point" transform="translate(0, 0)" d="M789.64,141.32177280000002A3,3,0,1,1,795.64,141.32177280000002A3,3,0,1,1,789.64,141.32177280000002Z" id="point-0-41" opacity="1"/><path class="data-point" fill="rgb(17, 165, 121)" data-type="point" transform="translate(0, 0)" d="M807.56,120.24523680000004A3,3,0,1,1,813.56,120.24523680000004A3,3,0,1,1,807.56,120.24523680000004Z" id="point-0-42" opacity="1"/><path class="data-point" fill="rgb(17, 165, 121)" data-type="point" transform="translate(0, 0)" d="M825.48,98.11176959999995A3,3,0,1,1,831.48,98.11176959999995A3,3,0,1,1,825.48,98.11176959999995Z" id="point-0-43" opacity="1"/><path class="data-point" fill="rgb(17, 165, 121)" data-type="point" transform="translate(0, 0)" d="M843.4,74.86833120000006A3,3,0,1,1,849.4,74.86833120000006A3,3,0,1,1,843.4,74.86833120000006Z" id="point-0-44" opacity="1"/><path class="data-point" fill="rgb(17, 165, 121)" data-type="point" transform="translate(0, 0)" d="M861.32,50.45926079999998A3,3,0,1,1,867.32,50.45926079999998A3,3,0,1,1,861.32,50.45926079999998Z" id="point-0-45" opacity="1"/><path class="data-point" fill="rgb(17, 165, 121)" data-type="point" transform="translate(0, 0)" d="M879.24,24.826089599999932A3,3,0,1,1,885.24,24.826089599999932A3,3,0,1,1,879.24,24.826089599999932Z" id="point-0-46" opacity="1"/></g><g class="series" transform="translate(15,20)"><path class="data-point" fill="rgb(128, 35, 146)" data-type="point" transform="translate(0, 0)" d="M54.92,496.19856000000004A3,3,0,1,1,60.92,496.19856000000004A3,3,0,1,1,54.92,496.19856000000004Z" id="point-1-0" opacity="1"/><path class="data-point" fill="rgb(128, 35, 146)" data-type="point" transform="translate(0, 0)" d="M72.84,492.18624A3,3,0,1,1,78.84,492.18624A3,3,0,1,1,72.84,492.18624Z" id="point-1-1" opacity="1"/><path class="data-point" fill="rgb(128, 35, 146)" data-type="point" transform="translate(0, 0)" d="M90.75999999999999,487.7808A3,3,0,1,1,96.75999999999999,487.7808A3,3,0,1,1,90.75999999999999,487.7808Z" id="point-1-2" opacity="1"/><path class="data-point" fill="rgb(128, 35, 146)" data-type="point" transform="translate(0, 0)" d="M108.68,484.21776A3,3,0,1,1,114.68,484.21776A3,3,0,1,1,108.68,484.21776Z" id="point-1-3" opacity="1"/><path class="data-point" fill="rgb(128, 35, 146)" data-type="point" transform="translate(0, 0)" d="M126.60000000000002,480.49248A3,3,0,1,1,132.60000000000002,480.49248A3,3,0,1,1,126.60000000000002,480.49248Z" id="point-1-4" opacity="1"/><path class="data-point" fill="rgb(128, 35, 146)" data-type="point" transform="translate(0, 0)" d="M144.51999999999998,476.02464000000003A3,3,0,1,1,150.51999999999998,476.02464000000003A3,3,0,1,1,144.51999999999998,476.02464000000003Z" id="point-1-5" opacity="1"/><path class="data-point" fill="rgb(128, 35, 146)" data-type="point" transform="translate(0, 0)" d="M162.44,471.48192A3,3,0,1,1,168.44,471.48192A3,3,0,1,1,162.44,471.48192Z" id="point-1-6" opacity="1"/><path class="data-point" fill="rgb(128, 35, 146)" data-type="point" transform="translate(0, 0)" d="M180.36,466.3152A3,3,0,1,1,186.36,466.3152A3,3,0,1,1,180.36,466.3152Z" id="point-1-7" opacity="1"/><path class="data-point" fill="rgb(128, 35, 146)" data-type="point" transform="translate(0, 0)" d="M198.28,461.69136000000003A3,3,0,1,1,204.28,461.69136000000003A3,3,0,1,1,198.28,461.69136000000003Z" id="point-1-8" opacity="1"/><path class="data-point" fill="rgb(128, 35, 146)" data-type="point" transform="translate(0, 0)" d="M216.20000000000002,456.81168A3,3,0,1,1,222.20000000000002,456.81168A3,3,0,1,1,216.20000000000002,456.81168Z" id="point-1-9" opacity="1"/><path class="data-point" fill="rgb(128, 35, 146)" data-type="point" transform="translate(0, 0)" d="M234.12,451.12080000000003A3,3,0,1,1,240.12,451.12080000000003A3,3,0,1,1,234.12,451.12080000000003Z" id="point-1-10" opacity="1"/><path class="data-point" fill="rgb(128, 35, 146)" data-type="point" transform="translate(0, 0)" d="M252.04,444.27552000000003A3,3,0,1,1,258.03999999999996,444.27552000000003A3,3,0,1,1,252.04,444.27552000000003Z" id="point-1-11" opacity="1"/><path class="data-point" fill="rgb(128, 35, 146)" data-type="point" transform="translate(0, 0)" d="M269.96000000000004,435.65184A3,3,0,1,1,275.96000000000004,435.65184A3,3,0,1,1,269.96000000000004,435.65184Z" id="point-1-12" opacity="1"/><path class="data-point" fill="rgb(128, 35, 146)" data-type="point" transform="translate(0, 0)" d="M287.88,427.10928A3,3,0,1,1,293.88,427.10928A3,3,0,1,1,287.88,427.10928Z" id="point-1-13" opacity="1"/><path class="data-point" fill="rgb(128, 35, 146)" data-type="point" transform="translate(0, 0)" d="M305.8,418.66656A3,3,0,1,1,311.8,418.66656A3,3,0,1,1,305.8,418.66656Z" id="point-1-14" opacity="1"/><path class="data-point" fill="rgb(128, 35, 146)" data-type="point" transform="translate(0, 0)" d="M323.72,409.99296000000004A3,3,0,1,1,329.72,409.99296000000004A3,3,0,1,1,323.72,409.99296000000004Z" id="point-1-15" opacity="1"/><path class="data-point" fill="rgb(128, 35, 146)" data-type="point" transform="translate(0, 0)" d="M341.64000000000004,399.93408A3,3,0,1,1,347.64000000000004,399.93408A3,3,0,1,1,341.64000000000004,399.93408Z" id="point-1-16" opacity="1"/><path class="data-point" fill="rgb(128, 35, 146)" data-type="point" transform="translate(0, 0)" d="M359.56,390.47424A3,3,0,1,1,365.56,390.47424A3,3,0,1,1,359.56,390.47424Z" id="point-1-17" opacity="1"/><path class="data-point" fill="rgb(128, 35, 146)" data-type="point" transform="translate(0, 0)" d="M377.48,382.79904A3,3,0,1,1,383.48,382.79904A3,3,0,1,1,377.48,382.79904Z" id="point-1-18" opacity="1"/><path class="data-point" fill="rgb(128, 35, 146)" data-type="point" transform="translate(0, 0)" d="M395.40000000000003,373.11456A3,3,0,1,1,401.40000000000003,373.11456A3,3,0,1,1,395.40000000000003,373.11456Z" id="point-1-19" opacity="1"/><path class="data-point" fill="rgb(128, 35, 146)" data-type="point" transform="translate(0, 0)" d="M413.32,364.35360000000003A3,3,0,1,1,419.32,364.35360000000003A3,3,0,1,1,413.32,364.35360000000003Z" id="point-1-20" opacity="1"/><path class="data-point" fill="rgb(128, 35, 146)" data-type="point" transform="translate(0, 0)" d="M431.24,356.0232A3,3,0,1,1,437.24,356.0232A3,3,0,1,1,431.24,356.0232Z" id="point-1-21" opacity="1"/><path class="data-point" fill="rgb(128, 35, 146)" data-type="point" transform="translate(0, 0)" d="M449.16,348.96576A3,3,0,1,1,455.16,348.96576A3,3,0,1,1,449.16,348.96576Z" id="point-1-22" opacity="1"/><path class="data-point" fill="rgb(128, 35, 146)" data-type="point" transform="translate(0, 0)" d="M467.08,342.67584A3,3,0,1,1,473.08,342.67584A3,3,0,1,1,467.08,342.67584Z" id="point-1-23" opacity="1"/><path class="data-point" fill="rgb(128, 35, 146)" data-type="point" transform="translate(0, 0)" d="M485,342.31392A3,3,0,1,1,491,342.31392A3,3,0,1,1,485,342.31392Z" id="point-1-24" opacity="1"/><path class="data-point" fill="rgb(128, 35, 146)" data-type="point" transform="translate(0, 0)" d="M502.92,333.7464A3,3,0,1,1,508.92,333.7464A3,3,0,1,1,502.92,333.7464Z" id="point-1-25" opacity="1"/><path class="data-point" fill="rgb(128, 35, 146)" data-type="point" transform="translate(0, 0)" d="M520.84,328.05552A3,3,0,1,1,526.84,328.05552A3,3,0,1,1,520.84,328.05552Z" id="point-1-26" opacity="1"/><path class="data-point" fill="rgb(128, 35, 146)" data-type="point" transform="translate(0, 0)" d="M538.76,324.8856A3,3,0,1,1,544.76,324.8856A3,3,0,1,1,538.76,324.8856Z" id="point-1-27" opacity="1"/><path class="data-point" fill="rgb(128, 35, 146)" data-type="point" transform="translate(0, 0)" d="M556.68,318.2683296A3,3,0,1,1,562.68,318.2683296A3,3,0,1,1,556.68,318.2683296Z" id="point-1-28" opacity="1"/><path class="data-point" fill="rgb(128, 35, 146)" data-type="point" transform="translate(0, 0)" d="M574.6,308.0710464A3,3,0,1,1,580.6,308.0710464A3,3,0,1,1,574.6,308.0710464Z" id="point-1-29" opacity="1"/><path class="data-point" fill="rgb(128, 35, 146)" data-type="point" transform="translate(0, 0)" d="M592.52,297.44638560000004A3,3,0,1,1,598.52,297.44638560000004A3,3,0,1,1,592.52,297.44638560000004Z" id="point-1-30" opacity="1"/><path class="data-point" fill="rgb(128, 35, 146)" data-type="point" transform="translate(0, 0)" d="M610.44,286.37643840000004A3,3,0,1,1,616.44,286.37643840000004A3,3,0,1,1,610.44,286.37643840000004Z" id="point-1-31" opacity="1"/><path class="data-point" fill="rgb(128, 35, 146)" data-type="point" transform="translate(0, 0)" d="M628.36,274.842672A3,3,0,1,1,634.36,274.842672A3,3,0,1,1,628.36,274.842672Z" id="point-1-32" opacity="1"/><path class="data-point" fill="rgb(128, 35, 146)" data-type="point" transform="translate(0, 0)" d="M646.2800000000001,262.8254928A3,3,0,1,1,652.2800000000001,262.8254928A3,3,0,1,1,646.2800000000001,262.8254928Z" id="point-1-33" opacity="1"/><path class="data-point" fill="rgb(128, 35, 146)" data-type="point" transform="translate(0, 0)" d="M664.1999999999999,250.3046832A3,3,0,1,1,670.1999999999999,250.3046832A3,3,0,1,1,664.1999999999999,250.3046832Z" id="point-1-34" opacity="1"/><path class="data-point" fill="rgb(128, 35, 146)" data-type="point" transform="translate(0, 0)" d="M682.12,237.25921440000002A3,3,0,1,1,688.12,237.25921440000002A3,3,0,1,1,682.12,237.25921440000002Z" id="point-1-35" opacity="1"/><path class="data-point" fill="rgb(128, 35, 146)" data-type="point" transform="translate(0, 0)" d="M700.04,223.66705920000004A3,3,0,1,1,706.04,223.66705920000004A3,3,0,1,1,700.04,223.66705920000004Z" id="point-1-36" opacity="1"/><path class="data-point" fill="rgb(128, 35, 146)" data-type="point" transform="translate(0, 0)" d="M717.96,209.5052544A3,3,0,1,1,723.96,209.5052544A3,3,0,1,1,717.96,209.5052544Z" id="point-1-37" opacity="1"/><path class="data-point" fill="rgb(128, 35, 146)" data-type="point" transform="translate(0, 0)" d="M735.88,194.75002560000001A3,3,0,1,1,741.88,194.75002560000001A3,3,0,1,1,735.88,194.75002560000001Z" id="point-1-38" opacity="1"/><path class="data-point" fill="rgb(128, 35, 146)" data-type="point" transform="translate(0, 0)" d="M753.8000000000001,179.37641280000003A3,3,0,1,1,759.8000000000001,179.37641280000003A3,3,0,1,1,753.8000000000001,179.37641280000003Z" id="point-1-39" opacity="1"/><path class="data-point" fill="rgb(128, 35, 146)" data-type="point" transform="translate(0, 0)" d="M771.7199999999999,163.35852A3,3,0,1,1,777.7199999999999,163.35852A3,3,0,1,1,771.7199999999999,163.35852Z" id="point-1-40" opacity="1"/><path class="data-point" fill="rgb(128, 35, 146)" data-type="point" transform="translate(0, 0)" d="M789.64,146.66939040000005A3,3,0,1,1,795.64,146.66939040000005A3,3,0,1,1,789.64,146.66939040000005Z" id="point-1-41" opacity="1"/><path class="data-point" fill="rgb(128, 35, 146)" data-type="point" transform="translate(0, 0)" d="M807.56,129.2808192A3,3,0,1,1,813.56,129.2808192A3,3,0,1,1,807.56,129.2808192Z" id="point-1-42" opacity="1"/><path class="data-point" fill="rgb(128, 35, 146)" data-type="point" transform="translate(0, 0)" d="M825.48,111.16360319999995A3,3,0,1,1,831.48,111.16360319999995A3,3,0,1,1,825.48,111.16360319999995Z" id="point-1-43" opacity="1"/><path class="data-point" fill="rgb(128, 35, 146)" data-type="point" transform="translate(0, 0)" d="M843.4,92.28710400000006A3,3,0,1,1,849.4,92.28710400000006A3,3,0,1,1,843.4,92.28710400000006Z" id="point-1-44" opacity="1"/><path class="data-point" fill="rgb(128, 35, 146)" data-type="point" transform="translate(0, 0)" d="M861.32,72.61956000000004A3,3,0,1,1,867.32,72.61956000000004A3,3,0,1,1,861.32,72.61956000000004Z" id="point-1-45" opacity="1"/><path class="data-point" fill="rgb(128, 35, 146)" data-type="point" transform="translate(0, 0)" d="M879.24,52.12783680000007A3,3,0,1,1,885.24,52.12783680000007A3,3,0,1,1,879.24,52.12783680000007Z" id="point-1-46" opacity="1"/></g></g><g id="data-labels"/><g class="annotations above"><g class="axis-highlights" transform="translate(15, 20)" style="opacity: 1;"/></g></svg>