<svg xmlns="http://www.w3.org/2000/svg" id="graphic" width="961" height="634.6"><g id="facets"><g class="facet" transform="translate(15,20)" opacity="1"><text class="facet-title" y="0" font-size="16" font-weight="bold" dominant-baseline="middle" x="0" clip-path="url(#facet-clip-0)" fill="black"/><g class="plot"><clipPath class="facet-clip" id="facet-clip-0"><rect width="951" height="581.6" transform="translate(-7.5,-10)"/></clipPath><g class="bg"><rect fill="none" width="936" height="561.6" style="fill: none;"/></g><g class="interaction"><g class="series"><path data-target="point-0-0" d="M78.93698981499996,561.6L67.12339259285714,496.48248L0,496.48248L0,561.6Z" style="opacity: 0;"/><path data-target="point-0-1" d="M66.5796133642857,492.8508L67.12339259285714,496.48248L78.93698981499996,561.6L101.39865018500006,561.6L85.14376121000001,492.8508Z" style="opacity: 0;"/><path data-target="point-0-2" d="M84.44256934571428,488.52959999999996L85.14376121000001,492.8508L101.39865018500006,561.6L102.72,561.6L102.72,488.52959999999996Z" style="opacity: 0;"/><path data-target="point-0-3" d="M102.72,488.52959999999996L102.72,561.6L133.6084110400001,561.6L120.47189908,486.74807999999996L102.86888417142856,486.74807999999996Z" style="opacity: 0;"/><path data-target="point-0-4" d="M120.47189908,486.74807999999996L133.6084110400001,561.6L152.08035151999985,561.6L138.34097599999998,483.31296L120.83911954214284,483.31296Z" style="opacity: 0;"/><path data-target="point-0-5" d="M138.34097599999998,483.31296L152.08035151999985,561.6L170.78011172571433,561.6L156.14402413714285,479.50656L138.87115314285714,479.50656Z" style="opacity: 0;"/><path data-target="point-0-6" d="M156.14402413714285,479.50656L170.78011172571433,561.6L192.4790405714284,561.6L173.92040697142858,475.63775999999996L156.95771567999998,475.63775999999996Z" style="opacity: 0;"/><path data-target="point-0-7" d="M173.92040697142858,475.63775999999996L192.4790405714284,561.6L211.23428685714293,561.6L191.70030114285714,471.12L175.04048875428572,471.12Z" style="opacity: 0;"/><path data-target="point-0-8" d="M191.70030114285714,471.12L211.23428685714293,561.6L243.17443028571435,561.6L209.52967127142855,466.87368L193.06064008571428,466.87368Z" style="opacity: 0;"/><path data-target="point-0-9" d="M209.52967127142855,466.87368L243.17443028571435,561.6L254.89565539285724,561.6L245.0814052161491,506.8727896544036L227.76565902142855,461.25144L210.78458535857143,461.25144Z" style="opacity: 0;"/><path data-target="point-0-10" d="M227.76565902142855,461.25144L245.0814052161491,506.8727896544036L246.16506735714285,455.00519999999995L228.48994401142855,455.00519999999995Z" style="opacity: 0;"/><path data-target="point-0-11" d="M245.0814052161491,506.8727896544036L254.89565539285724,561.6L316.79217171428564,561.6L262.4850405428571,451.76975999999996L247.63531484642854,451.76975999999996L246.16506735714285,455.00519999999995Z" style="opacity: 0;"/><path data-target="point-0-12" d="M262.4850405428571,451.76975999999996L316.79217171428564,561.6L337.8403254999997,561.6L280.4491278142857,443.02752L265.4744182885714,443.02752Z" style="opacity: 0;"/><path data-target="point-0-13" d="M280.4491278142857,443.02752L337.8403254999997,561.6L365.3454502142859,561.6L298.47345755,434.41944L283.3686503757143,434.41944Z" style="opacity: 0;"/><path data-target="point-0-14" d="M298.47345755,434.41944L365.3454502142859,561.6L385.08470201785724,561.6L316.5967120392857,425.48688L301.064458235,425.48688Z" style="opacity: 0;"/><path data-target="point-0-15" d="M316.5967120392857,425.48688L385.08470201785724,561.6L415.37610131249994,561.6L362.4476869267914,451.6545757648378L335.80818770714285,416.64167999999995L318.8790105642857,416.64167999999995Z" style="opacity: 0;"/><path data-target="point-0-16" d="M335.58542856571427,404.79504L335.80818770714285,416.64167999999995L362.4476869267914,451.6545757648378L352.9837342571428,404.79504Z" style="opacity: 0;"/><path data-target="point-0-17" d="M352.9837342571428,404.79504L362.4476869267914,451.6545757648378L415.37610131249994,561.6L461.2027838400002,561.6L369.9690580285714,398.25552L355.2107911485714,398.25552Z" style="opacity: 0;"/><path data-target="point-0-18" d="M369.9690580285714,398.25552L461.2027838400002,561.6L469.3323477942856,561.6L434.01743799365056,475.50732014994713L388.44917714285714,389.41344L372.70931335714283,389.41344Z" style="opacity: 0;"/><path data-target="point-0-19" d="M388.44917714285714,389.41344L434.01743799365056,475.50732014994713L406.16473736,379.8288L390.45168228571424,379.8288Z" style="opacity: 0;"/><path data-target="point-0-20" d="M406.16473736,379.8288L434.01743799365056,475.50732014994713L469.3323477942856,561.6L472.3275719999999,561.6L423.68816485714285,372.84L409.36735496,372.84Z" style="opacity: 0;"/><path data-target="point-0-21" d="M423.68816485714285,372.84L472.3275719999999,561.6L495.329491337143,561.6L478.4225418500611,487.58583714223107L440.85521553571425,366.366L428.15175664285715,366.366Z" style="opacity: 0;"/><path data-target="point-0-22" d="M440.85521553571425,366.366L478.4225418500611,487.58583714223107L459.68314606571425,360.06048L446.1797204821428,360.06048Z" style="opacity: 0;"/><path data-target="point-0-23" d="M459.68314606571425,360.06048L478.4225418500611,487.58583714223107L495.329491337143,561.6L527.5863282285713,561.6L510.88156245196626,478.60231714223335L476.1023406,355.59888L464.55210608,355.59888Z" style="opacity: 0;"/><path data-target="point-0-24" d="M476.1023406,355.59888L510.88156245196626,478.60231714223335L495.82236153142856,352.88448L479.2498328142857,352.88448Z" style="opacity: 0;"/><path data-target="point-0-25" d="M495.82236153142856,352.88448L510.88156245196626,478.60231714223335L527.5863282285713,561.6L548.7491890828569,561.6L512.8194035214286,347.52743999999996L501.50063260857144,347.52744Z" style="opacity: 0;"/><path data-target="point-0-26" d="M512.8194035214286,347.52743999999996L548.7491890828569,561.6L562.5807497742857,561.6L530.7886708842857,343.17816L518.7788879428571,343.17816Z" style="opacity: 0;"/><path data-target="point-0-27" d="M530.7886708842857,343.17816L562.5807497742857,561.6L612.0704254416652,561.6L546.9639766944599,340.28904L535.2443904085715,340.28904Z" style="opacity: 0;"/><path data-target="point-0-28" d="M546.9639766944599,340.28904L612.0704254416652,561.6L666.972091568626,561.6L563.1662068980639,334.34450400000003L555.4346346427751,334.34450400000003Z" style="opacity: 0;"/><path data-target="point-0-29" d="M563.1662068980639,334.34450400000003L666.972091568626,561.6L692.6630456743965,561.6L580.4720172166949,325.1531085L575.4591039135,325.1531085Z" style="opacity: 0;"/><path data-target="point-0-30" d="M580.4720172166949,325.1531085L692.6630456743965,561.6L718.9680402910911,561.6L597.7143444205656,315.58937299999997L594.1672192076798,315.58937299999997Z" style="opacity: 0;"/><path data-target="point-0-31" d="M597.7143444205656,315.58937299999997L718.9680402910911,561.6L745.9359006855946,561.6L614.8869274362319,305.638195L612.9596190857859,305.638195Z" style="opacity: 0;"/><path data-target="point-0-32" d="M614.8869274362319,305.638195L745.9359006855946,561.6L773.6173005255245,561.6L631.9830344760013,295.2839135L631.8447889028521,295.2839135Z" style="opacity: 0;"/><path data-target="point-0-33" d="M631.9830344760013,295.2839135L773.6173005255245,561.6L802.0719880575209,561.6L649.4359206612312,285.30833255976603Z" style="opacity: 0;"/><path data-target="point-0-34" d="M649.4359206612312,285.30833255976603L802.0719880575209,561.6L831.3578158918566,561.6L666.8590692083237,274.94547503491816L650.3469613174551,283.78627276102515Z" style="opacity: 0;"/><path data-target="point-0-35" d="M666.8590692083237,274.94547503491816L831.3578158918566,561.6L861.5414446577892,561.6L684.2124407312916,264.1168298048978L668.8895250285167,271.80687255794953Z" style="opacity: 0;"/><path data-target="point-0-36" d="M684.2124407312916,264.1168298048978L861.5414446577892,561.6L892.6966573835,561.6L701.489204174992,252.80671912750387L687.5175417527777,259.3833153967958Z" style="opacity: 0;"/><path data-target="point-0-37" d="M701.489204174992,252.80671912750387L892.6966573835,561.6L924.8943914815693,561.6L718.6820982617004,240.99831298493152L706.239779817594,246.49468222113728Z" style="opacity: 0;"/><path data-target="point-0-38" d="M718.6820982617004,240.99831298493152L924.8943914815693,561.6L936,561.6L936,528.3382119910068L735.7826573872751,228.67428478341162L725.0659916130177,233.11954117132385Z" style="opacity: 0;"/><path data-target="point-0-39" d="M735.7826573872751,228.67428478341162L936,528.3382119910068L936,479.8050842221403L752.7820181490234,215.81604729959807L744.0067512759358,219.23578518520296Z" style="opacity: 0;"/><path data-target="point-0-40" d="M752.7820181490234,215.81604729959807L936,479.8050842221403L936,433.1181045686449L769.6701209430664,202.4042737276211L763.074009784034,204.82049329958699Z" style="opacity: 0;"/><path data-target="point-0-41" d="M769.6701209430664,202.4042737276211L936,433.1181045686449L936,388.1347413221207L786.4359143429338,188.4186747594516L782.2807814752903,189.8500724230888Z" style="opacity: 0;"/><path data-target="point-0-42" d="M786.4359143429338,188.4186747594516L936,388.1347413221207L936,344.72192763951136L803.0674557154174,173.8378636416999L801.6414128575441,174.30007227556757Z" style="opacity: 0;"/><path data-target="point-0-43" d="M803.0674557154174,173.8378636416999L936,344.72192763951136L936,302.7479455538783L819.9839481371648,159.17484837506876Z" style="opacity: 0;"/><path data-target="point-0-44" d="M819.9839481371648,159.17484837506876L936,302.7479455538783L936,262.0869028475544L837.1830338823983,144.3609005509122L820.7274597386654,157.68713710560542Z" style="opacity: 0;"/><path data-target="point-0-45" d="M837.1830338823983,144.3609005509122L936,262.0869028475544L936,222.61590671325354L854.2646270556497,128.87425227896583L839.5397743108017,140.02405890254573Z" style="opacity: 0;"/><path data-target="point-0-46" d="M854.2646270556497,128.87425227896583L936,222.61590671325354L936,97.4991265L913.4463248232389,97.4991265L880.9662288335853,105.78433970985176L858.4904786389889,121.70917450466192Z" style="opacity: 0;"/><path data-target="point-1-0" d="M0,496.48248L67.12339259285714,496.48248L66.5796133642857,492.8508L0,195.49000338158373Z" style="opacity: 0;"/><path data-target="point-1-1" d="M0,195.49000338158373L66.5796133642857,492.8508L85.14376121000001,492.8508L84.44256934571428,488.52959999999996L0,145.04271953512034Z" style="opacity: 0;"/><path data-target="point-1-2" d="M0,145.04271953512034L84.44256934571428,488.52959999999996L102.72,488.52959999999996L102.86888417142856,486.74807999999996L6.08858958642854,0L0,0Z" style="opacity: 0;"/><path data-target="point-1-3" d="M6.08858958642854,0L102.86888417142856,486.74807999999996L120.47189908,486.74807999999996L120.83911954214284,483.31296L25.614856854769783,25.24838838183257L19.843007641071104,0Z" style="opacity: 0;"/><path data-target="point-1-4" d="M25.614856854769783,25.24838838183257L120.83911954214284,483.31296L138.34097599999998,483.31296L138.87115314285714,479.50656Z" style="opacity: 0;"/><path data-target="point-1-5" d="M19.843007641071104,0L25.614856854769783,25.24838838183257L138.87115314285714,479.50656L156.14402413714285,479.50656L156.95771567999998,475.63775999999996L36.38354352000077,0Z" style="opacity: 0;"/><path data-target="point-1-6" d="M36.38354352000077,0L156.95771567999998,475.63775999999996L173.92040697142858,475.63775999999996L175.04048875428572,471.12L39.20649732571425,0Z" style="opacity: 0;"/><path data-target="point-1-7" d="M39.20649732571425,0L175.04048875428572,471.12L191.70030114285714,471.12L193.06064008571428,466.87368L72.59472510071363,0Z" style="opacity: 0;"/><path data-target="point-1-8" d="M72.59472510071363,0L193.06064008571428,466.87368L209.52967127142855,466.87368L210.78458535857143,461.25144L118.27555564022735,121.52387332498807L74.12902480982152,0Z" style="opacity: 0;"/><path data-target="point-1-9" d="M118.27555564022735,121.52387332498807L210.78458535857143,461.25144L227.76565902142855,461.25144L228.48994401142855,455.00519999999995L140.59013238939124,178.2176690264231Z" style="opacity: 0;"/><path data-target="point-1-10" d="M140.59013238939124,178.2176690264231L228.48994401142855,455.00519999999995L246.16506735714285,455.00519999999995L247.63531484642854,451.76975999999996L162.77697480153833,229.62231627170345Z" style="opacity: 0;"/><path data-target="point-1-11" d="M162.77697480153833,229.62231627170345L247.63531484642854,451.76975999999996L262.4850405428571,451.76975999999996L265.4744182885714,443.02752Z" style="opacity: 0;"/><path data-target="point-1-12" d="M74.12902480982152,0L118.27555564022735,121.52387332498807L140.59013238939124,178.2176690264231L162.77697480153833,229.62231627170345L265.4744182885714,443.02752L280.4491278142857,443.02752L283.3686503757143,434.41944L76.27857608071358,0Z" style="opacity: 0;"/><path data-target="point-1-13" d="M76.27857608071358,0L283.3686503757143,434.41944L298.47345755,434.41944L301.064458235,425.48688L100.60315290500128,0Z" style="opacity: 0;"/><path data-target="point-1-14" d="M100.60315290500128,0L301.064458235,425.48688L316.5967120392857,425.48688L318.8790105642857,416.64167999999995L172.63979733409852,114.50569251095942L112.79114792428545,-1.4210854715202004e-14Z" style="opacity: 0;"/><path data-target="point-1-15" d="M172.63979733409852,114.50569251095942L318.8790105642857,416.64167999999995L335.80818770714285,416.64167999999995L335.58542856571427,404.79504Z" style="opacity: 0;"/><path data-target="point-1-16" d="M112.79114792428545,-1.4210854715202004e-14L172.63979733409852,114.50569251095942L335.58542856571427,404.79504L352.9837342571428,404.79504L355.2107911485714,398.25552L144.97454682285763,0Z" style="opacity: 0;"/><path data-target="point-1-17" d="M144.97454682285763,0L355.2107911485714,398.25552L369.9690580285714,398.25552L372.70931335714283,389.41344L285.14942470913735,184.9792617932756L195.551746378571,2.842170943040401e-14Z" style="opacity: 0;"/><path data-target="point-1-18" d="M285.14942470913735,184.9792617932756L372.70931335714283,389.41344L388.44917714285714,389.41344L390.45168228571424,379.8288Z" style="opacity: 0;"/><path data-target="point-1-19" d="M195.551746378571,2.842170943040401e-14L285.14942470913735,184.9792617932756L390.45168228571424,379.8288L406.16473736,379.8288L409.36735496,372.84L227.08854210285705,0Z" style="opacity: 0;"/><path data-target="point-1-20" d="M227.08854210285705,0L409.36735496,372.84L423.68816485714285,372.84L428.15175664285715,366.366L257.84063351785676,0Z" style="opacity: 0;"/><path data-target="point-1-21" d="M257.84063351785676,0L428.15175664285715,366.366L440.85521553571425,366.366L446.1797204821428,360.06048L304.3769730507147,0Z" style="opacity: 0;"/><path data-target="point-1-22" d="M304.3769730507147,0L446.1797204821428,360.06048L459.68314606571425,360.06048L464.55210608,355.59888L339.7368992000002,0Z" style="opacity: 0;"/><path data-target="point-1-23" d="M339.7368992000002,0L464.55210608,355.59888L476.1023406,355.59888L479.2498328142857,352.88448L478.155463627195,298.6982072528031L403.7356053746427,0Z" style="opacity: 0;"/><path data-target="point-1-24" d="M478.155463627195,298.6982072528031L479.2498328142857,352.88448L495.82236153142856,352.88448L501.50063260857144,347.52744Z" style="opacity: 0;"/><path data-target="point-1-25" d="M403.7356053746427,0L478.155463627195,298.6982072528031L501.50063260857144,347.52744L512.8194035214286,347.52743999999996L518.7788879428571,343.17816L409.79530941714336,0Z" style="opacity: 0;"/><path data-target="point-1-26" d="M409.79530941714336,0L518.7788879428571,343.17816L530.7886708842857,343.17816L535.2443904085715,340.28904L514.6605151070792,223.9255212352544L511.71205275404725,213.12845989970634L475.22633557023846,114.97865841873895L430.54685500534686,10.348936882303917L425.7328573610347,0Z" style="opacity: 0;"/><path data-target="point-1-27" d="M514.6605151070792,223.9255212352544L535.2443904085715,340.28904L546.9639766944599,340.28904L555.4346346427751,334.34450400000003Z" style="opacity: 0;"/><path data-target="point-1-28" d="M511.71205275404725,213.12845989970634L514.6605151070792,223.9255212352544L555.4346346427751,334.34450400000003L563.1662068980639,334.34450400000003L575.4591039135,325.1531085Z" style="opacity: 0;"/><path data-target="point-1-29" d="M475.22633557023846,114.97865841873895L511.71205275404725,213.12845989970634L575.4591039135,325.1531085L580.4720172166949,325.1531085L594.1672192076798,315.58937299999997Z" style="opacity: 0;"/><path data-target="point-1-30" d="M430.54685500534686,10.348936882303917L475.22633557023846,114.97865841873895L594.1672192076798,315.58937299999997L597.7143444205656,315.58937299999997L612.9596190857859,305.638195Z" style="opacity: 0;"/><path data-target="point-1-31" d="M425.7328573610347,0L430.54685500534686,10.348936882303917L612.9596190857859,305.638195L614.8869274362319,305.638195L631.8447889028521,295.2839135L441.7925812090334,0Z" style="opacity: 0;"/><path data-target="point-1-32" d="M441.7925812090334,0L631.8447889028521,295.2839135L631.9830344760013,295.2839135L649.4359206612312,285.30833255976603L650.3469613174551,283.78627276102515L460.0394592241476,0Z" style="opacity: 0;"/><path data-target="point-1-33" d="M460.0394592241476,0L650.3469613174551,283.78627276102515L666.8590692083237,274.94547503491816L668.8895250285167,271.80687255794953L478.9764553860887,0Z" style="opacity: 0;"/><path data-target="point-1-34" d="M478.9764553860887,0L668.8895250285167,271.80687255794953L684.2124407312916,264.1168298048978L687.5175417527777,259.3833153967958L498.69070022788327,0Z" style="opacity: 0;"/><path data-target="point-1-35" d="M498.69070022788327,0L687.5175417527777,259.3833153967958L701.489204174992,252.80671912750387L706.239779817594,246.49468222113728L519.275832974656,0Z" style="opacity: 0;"/><path data-target="point-1-36" d="M519.275832974656,0L706.239779817594,246.49468222113728L718.6820982617004,240.99831298493152L725.0659916130177,233.11954117132385L540.8364445283206,0Z" style="opacity: 0;"/><path data-target="point-1-37" d="M540.8364445283206,0L725.0659916130177,233.11954117132385L735.7826573872751,228.67428478341162L744.0067512759358,219.23578518520296L563.4892291684205,0Z" style="opacity: 0;"/><path data-target="point-1-38" d="M563.4892291684205,0L744.0067512759358,219.23578518520296L752.7820181490234,215.81604729959807L763.074009784034,204.82049329958699L587.3579942451416,0Z" style="opacity: 0;"/><path data-target="point-1-39" d="M587.3579942451416,0L763.074009784034,204.82049329958699L769.6701209430664,202.4042737276211L782.2807814752903,189.8500724230888L612.5822242143923,0Z" style="opacity: 0;"/><path data-target="point-1-40" d="M612.5822242143923,0L782.2807814752903,189.8500724230888L786.4359143429338,188.4186747594516L801.6414128575441,174.30007227556757L639.3134795307399,0Z" style="opacity: 0;"/><path data-target="point-1-41" d="M639.3134795307399,0L801.6414128575441,174.30007227556757L803.0674557154174,173.8378636416999L819.9839481371648,159.17484837506876L820.7274597386654,157.68713710560542L667.7166349982883,0Z" style="opacity: 0;"/><path data-target="point-1-42" d="M667.7166349982883,0L820.7274597386654,157.68713710560542L837.1830338823983,144.3609005509122L839.5397743108017,140.02405890254573L697.9747006314415,0Z" style="opacity: 0;"/><path data-target="point-1-43" d="M697.9747006314415,0L839.5397743108017,140.02405890254573L854.2646270556497,128.87425227896583L858.4904786389889,121.70917450466192L730.2849479008147,1.4210854715202004e-14Z" style="opacity: 0;"/><path data-target="point-1-44" d="M730.2849479008147,1.4210854715202004e-14L858.4904786389889,121.70917450466192L880.9662288335853,105.78433970985176L764.8658853205014,0Z" style="opacity: 0;"/><path data-target="point-1-45" d="M764.8658853205014,0L880.9662288335853,105.78433970985176L913.4463248232389,97.4991265L801.9549691881971,0Z" style="opacity: 0;"/><path data-target="point-1-46" d="M801.9549691881971,0L913.4463248232389,97.4991265L936,97.4991265L936,0Z" style="opacity: 0;"/></g><g class="series"><path data-target="point-0-0" d="M78.93698981499996,561.6L67.12339259285714,496.48248L0,496.48248L0,561.6Z" style="opacity: 0;"/><path data-target="point-0-1" d="M66.5796133642857,492.8508L67.12339259285714,496.48248L78.93698981499996,561.6L101.39865018500006,561.6L85.14376121000001,492.8508Z" style="opacity: 0;"/><path data-target="point-0-2" d="M84.44256934571428,488.52959999999996L85.14376121000001,492.8508L101.39865018500006,561.6L102.72,561.6L102.72,488.52959999999996Z" style="opacity: 0;"/><path data-target="point-0-3" d="M102.72,488.52959999999996L102.72,561.6L133.6084110400001,561.6L120.47189908,486.74807999999996L102.86888417142856,486.74807999999996Z" style="opacity: 0;"/><path data-target="point-0-4" d="M120.47189908,486.74807999999996L133.6084110400001,561.6L152.08035151999985,561.6L138.34097599999998,483.31296L120.83911954214284,483.31296Z" style="opacity: 0;"/><path data-target="point-0-5" d="M138.34097599999998,483.31296L152.08035151999985,561.6L170.78011172571433,561.6L156.14402413714285,479.50656L138.87115314285714,479.50656Z" style="opacity: 0;"/><path data-target="point-0-6" d="M156.14402413714285,479.50656L170.78011172571433,561.6L192.4790405714284,561.6L173.92040697142858,475.63775999999996L156.95771567999998,475.63775999999996Z" style="opacity: 0;"/><path data-target="point-0-7" d="M173.92040697142858,475.63775999999996L192.4790405714284,561.6L211.23428685714293,561.6L191.70030114285714,471.12L175.04048875428572,471.12Z" style="opacity: 0;"/><path data-target="point-0-8" d="M191.70030114285714,471.12L211.23428685714293,561.6L243.17443028571435,561.6L209.52967127142855,466.87368L193.06064008571428,466.87368Z" style="opacity: 0;"/><path data-target="point-0-9" d="M209.52967127142855,466.87368L243.17443028571435,561.6L254.89565539285724,561.6L245.0814052161491,506.8727896544036L227.76565902142855,461.25144L210.78458535857143,461.25144Z" style="opacity: 0;"/><path data-target="point-0-10" d="M227.76565902142855,461.25144L245.0814052161491,506.8727896544036L246.16506735714285,455.00519999999995L228.48994401142855,455.00519999999995Z" style="opacity: 0;"/><path data-target="point-0-11" d="M245.0814052161491,506.8727896544036L254.89565539285724,561.6L316.79217171428564,561.6L262.4850405428571,451.76975999999996L247.63531484642854,451.76975999999996L246.16506735714285,455.00519999999995Z" style="opacity: 0;"/><path data-target="point-0-12" d="M262.4850405428571,451.76975999999996L316.79217171428564,561.6L337.8403254999997,561.6L280.4491278142857,443.02752L265.4744182885714,443.02752Z" style="opacity: 0;"/><path data-target="point-0-13" d="M280.4491278142857,443.02752L337.8403254999997,561.6L365.3454502142859,561.6L298.47345755,434.41944L283.3686503757143,434.41944Z" style="opacity: 0;"/><path data-target="point-0-14" d="M298.47345755,434.41944L365.3454502142859,561.6L385.08470201785724,561.6L316.5967120392857,425.48688L301.064458235,425.48688Z" style="opacity: 0;"/><path data-target="point-0-15" d="M316.5967120392857,425.48688L385.08470201785724,561.6L415.37610131249994,561.6L362.4476869267914,451.6545757648378L335.80818770714285,416.64167999999995L318.8790105642857,416.64167999999995Z" style="opacity: 0;"/><path data-target="point-0-16" d="M335.58542856571427,404.79504L335.80818770714285,416.64167999999995L362.4476869267914,451.6545757648378L352.9837342571428,404.79504Z" style="opacity: 0;"/><path data-target="point-0-17" d="M352.9837342571428,404.79504L362.4476869267914,451.6545757648378L415.37610131249994,561.6L461.2027838400002,561.6L369.9690580285714,398.25552L355.2107911485714,398.25552Z" style="opacity: 0;"/><path data-target="point-0-18" d="M369.9690580285714,398.25552L461.2027838400002,561.6L469.3323477942856,561.6L434.01743799365056,475.50732014994713L388.44917714285714,389.41344L372.70931335714283,389.41344Z" style="opacity: 0;"/><path data-target="point-0-19" d="M388.44917714285714,389.41344L434.01743799365056,475.50732014994713L406.16473736,379.8288L390.45168228571424,379.8288Z" style="opacity: 0;"/><path data-target="point-0-20" d="M406.16473736,379.8288L434.01743799365056,475.50732014994713L469.3323477942856,561.6L472.3275719999999,561.6L423.68816485714285,372.84L409.36735496,372.84Z" style="opacity: 0;"/><path data-target="point-0-21" d="M423.68816485714285,372.84L472.3275719999999,561.6L495.329491337143,561.6L478.4225418500611,487.58583714223107L440.85521553571425,366.366L428.15175664285715,366.366Z" style="opacity: 0;"/><path data-target="point-0-22" d="M440.85521553571425,366.366L478.4225418500611,487.58583714223107L459.68314606571425,360.06048L446.1797204821428,360.06048Z" style="opacity: 0;"/><path data-target="point-0-23" d="M459.68314606571425,360.06048L478.4225418500611,487.58583714223107L495.329491337143,561.6L527.5863282285713,561.6L510.88156245196626,478.60231714223335L476.1023406,355.59888L464.55210608,355.59888Z" style="opacity: 0;"/><path data-target="point-0-24" d="M476.1023406,355.59888L510.88156245196626,478.60231714223335L495.82236153142856,352.88448L479.2498328142857,352.88448Z" style="opacity: 0;"/><path data-target="point-0-25" d="M495.82236153142856,352.88448L510.88156245196626,478.60231714223335L527.5863282285713,561.6L548.7491890828569,561.6L512.8194035214286,347.52743999999996L501.50063260857144,347.52744Z" style="opacity: 0;"/><path data-target="point-0-26" d="M512.8194035214286,347.52743999999996L548.7491890828569,561.6L562.5807497742857,561.6L530.7886708842857,343.17816L518.7788879428571,343.17816Z" style="opacity: 0;"/><path data-target="point-0-27" d="M530.7886708842857,343.17816L562.5807497742857,561.6L612.0704254416652,561.6L546.9639766944599,340.28904L535.2443904085715,340.28904Z" style="opacity: 0;"/><path data-target="point-0-28" d="M546.9639766944599,340.28904L612.0704254416652,561.6L666.972091568626,561.6L563.1662068980639,334.34450400000003L555.4346346427751,334.34450400000003Z" style="opacity: 0;"/><path data-target="point-0-29" d="M563.1662068980639,334.34450400000003L666.972091568626,561.6L692.6630456743965,561.6L580.4720172166949,325.1531085L575.4591039135,325.1531085Z" style="opacity: 0;"/><path data-target="point-0-30" d="M580.4720172166949,325.1531085L692.6630456743965,561.6L718.9680402910911,561.6L597.7143444205656,315.58937299999997L594.1672192076798,315.58937299999997Z" style="opacity: 0;"/><path data-target="point-0-31" d="M597.7143444205656,315.58937299999997L718.9680402910911,561.6L745.9359006855946,561.6L614.8869274362319,305.638195L612.9596190857859,305.638195Z" style="opacity: 0;"/><path data-target="point-0-32" d="M614.8869274362319,305.638195L745.9359006855946,561.6L773.6173005255245,561.6L631.9830344760013,295.2839135L631.8447889028521,295.2839135Z" style="opacity: 0;"/><path data-target="point-0-33" d="M631.9830344760013,295.2839135L773.6173005255245,561.6L802.0719880575209,561.6L649.4359206612312,285.30833255976603Z" style="opacity: 0;"/><path data-target="point-0-34" d="M649.4359206612312,285.30833255976603L802.0719880575209,561.6L831.3578158918566,561.6L666.8590692083237,274.94547503491816L650.3469613174551,283.78627276102515Z" style="opacity: 0;"/><path data-target="point-0-35" d="M666.8590692083237,274.94547503491816L831.3578158918566,561.6L861.5414446577892,561.6L684.2124407312916,264.1168298048978L668.8895250285167,271.80687255794953Z" style="opacity: 0;"/><path data-target="point-0-36" d="M684.2124407312916,264.1168298048978L861.5414446577892,561.6L892.6966573835,561.6L701.489204174992,252.80671912750387L687.5175417527777,259.3833153967958Z" style="opacity: 0;"/><path data-target="point-0-37" d="M701.489204174992,252.80671912750387L892.6966573835,561.6L924.8943914815693,561.6L718.6820982617004,240.99831298493152L706.239779817594,246.49468222113728Z" style="opacity: 0;"/><path data-target="point-0-38" d="M718.6820982617004,240.99831298493152L924.8943914815693,561.6L936,561.6L936,528.3382119910068L735.7826573872751,228.67428478341162L725.0659916130177,233.11954117132385Z" style="opacity: 0;"/><path data-target="point-0-39" d="M735.7826573872751,228.67428478341162L936,528.3382119910068L936,479.8050842221403L752.7820181490234,215.81604729959807L744.0067512759358,219.23578518520296Z" style="opacity: 0;"/><path data-target="point-0-40" d="M752.7820181490234,215.81604729959807L936,479.8050842221403L936,433.1181045686449L769.6701209430664,202.4042737276211L763.074009784034,204.82049329958699Z" style="opacity: 0;"/><path data-target="point-0-41" d="M769.6701209430664,202.4042737276211L936,433.1181045686449L936,388.1347413221207L786.4359143429338,188.4186747594516L782.2807814752903,189.8500724230888Z" style="opacity: 0;"/><path data-target="point-0-42" d="M786.4359143429338,188.4186747594516L936,388.1347413221207L936,344.72192763951136L803.0674557154174,173.8378636416999L801.6414128575441,174.30007227556757Z" style="opacity: 0;"/><path data-target="point-0-43" d="M803.0674557154174,173.8378636416999L936,344.72192763951136L936,302.7479455538783L819.9839481371648,159.17484837506876Z" style="opacity: 0;"/><path data-target="point-0-44" d="M819.9839481371648,159.17484837506876L936,302.7479455538783L936,262.0869028475544L837.1830338823983,144.3609005509122L820.7274597386654,157.68713710560542Z" style="opacity: 0;"/><path data-target="point-0-45" d="M837.1830338823983,144.3609005509122L936,262.0869028475544L936,222.61590671325354L854.2646270556497,128.87425227896583L839.5397743108017,140.02405890254573Z" style="opacity: 0;"/><path data-target="point-0-46" d="M854.2646270556497,128.87425227896583L936,222.61590671325354L936,97.4991265L913.4463248232389,97.4991265L880.9662288335853,105.78433970985176L858.4904786389889,121.70917450466192Z" style="opacity: 0;"/><path data-target="point-1-0" d="M0,496.48248L67.12339259285714,496.48248L66.5796133642857,492.8508L0,195.49000338158373Z" style="opacity: 0;"/><path data-target="point-1-1" d="M0,195.49000338158373L66.5796133642857,492.8508L85.14376121000001,492.8508L84.44256934571428,488.52959999999996L0,145.04271953512034Z" style="opacity: 0;"/><path data-target="point-1-2" d="M0,145.04271953512034L84.44256934571428,488.52959999999996L102.72,488.52959999999996L102.86888417142856,486.74807999999996L6.08858958642854,0L0,0Z" style="opacity: 0;"/><path data-target="point-1-3" d="M6.08858958642854,0L102.86888417142856,486.74807999999996L120.47189908,486.74807999999996L120.83911954214284,483.31296L25.614856854769783,25.24838838183257L19.843007641071104,0Z" style="opacity: 0;"/><path data-target="point-1-4" d="M25.614856854769783,25.24838838183257L120.83911954214284,483.31296L138.34097599999998,483.31296L138.87115314285714,479.50656Z" style="opacity: 0;"/><path data-target="point-1-5" d="M19.843007641071104,0L25.614856854769783,25.24838838183257L138.87115314285714,479.50656L156.14402413714285,479.50656L156.95771567999998,475.63775999999996L36.38354352000077,0Z" style="opacity: 0;"/><path data-target="point-1-6" d="M36.38354352000077,0L156.95771567999998,475.63775999999996L173.92040697142858,475.63775999999996L175.04048875428572,471.12L39.20649732571425,0Z" style="opacity: 0;"/><path data-target="point-1-7" d="M39.20649732571425,0L175.04048875428572,471.12L191.70030114285714,471.12L193.06064008571428,466.87368L72.59472510071363,0Z" style="opacity: 0;"/><path data-target="point-1-8" d="M72.59472510071363,0L193.06064008571428,466.87368L209.52967127142855,466.87368L210.78458535857143,461.25144L118.27555564022735,121.52387332498807L74.12902480982152,0Z" style="opacity: 0;"/><path data-target="point-1-9" d="M118.27555564022735,121.52387332498807L210.78458535857143,461.25144L227.76565902142855,461.25144L228.48994401142855,455.00519999999995L140.59013238939124,178.2176690264231Z" style="opacity: 0;"/><path data-target="point-1-10" d="M140.59013238939124,178.2176690264231L228.48994401142855,455.00519999999995L246.16506735714285,455.00519999999995L247.63531484642854,451.76975999999996L162.77697480153833,229.62231627170345Z" style="opacity: 0;"/><path data-target="point-1-11" d="M162.77697480153833,229.62231627170345L247.63531484642854,451.76975999999996L262.4850405428571,451.76975999999996L265.4744182885714,443.02752Z" style="opacity: 0;"/><path data-target="point-1-12" d="M74.12902480982152,0L118.27555564022735,121.52387332498807L140.59013238939124,178.2176690264231L162.77697480153833,229.62231627170345L265.4744182885714,443.02752L280.4491278142857,443.02752L283.3686503757143,434.41944L76.27857608071358,0Z" style="opacity: 0;"/><path data-target="point-1-13" d="M76.27857608071358,0L283.3686503757143,434.41944L298.47345755,434.41944L301.064458235,425.48688L100.60315290500128,0Z" style="opacity: 0;"/><path data-target="point-1-14" d="M100.60315290500128,0L301.064458235,425.48688L316.5967120392857,425.48688L318.8790105642857,416.64167999999995L172.63979733409852,114.50569251095942L112.79114792428545,-1.4210854715202004e-14Z" style="opacity: 0;"/><path data-target="point-1-15" d="M172.63979733409852,114.50569251095942L318.8790105642857,416.64167999999995L335.80818770714285,416.64167999999995L335.58542856571427,404.79504Z" style="opacity: 0;"/><path data-target="point-1-16" d="M112.79114792428545,-1.4210854715202004e-14L172.63979733409852,114.50569251095942L335.58542856571427,404.79504L352.9837342571428,404.79504L355.2107911485714,398.25552L144.97454682285763,0Z" style="opacity: 0;"/><path data-target="point-1-17" d="M144.97454682285763,0L355.2107911485714,398.25552L369.9690580285714,398.25552L372.70931335714283,389.41344L285.14942470913735,184.9792617932756L195.551746378571,2.842170943040401e-14Z" style="opacity: 0;"/><path data-target="point-1-18" d="M285.14942470913735,184.9792617932756L372.70931335714283,389.41344L388.44917714285714,389.41344L390.45168228571424,379.8288Z" style="opacity: 0;"/><path data-target="point-1-19" d="M195.551746378571,2.842170943040401e-14L285.14942470913735,184.9792617932756L390.45168228571424,379.8288L406.16473736,379.8288L409.36735496,372.84L227.08854210285705,0Z" style="opacity: 0;"/><path data-target="point-1-20" d="M227.08854210285705,0L409.36735496,372.84L423.68816485714285,372.84L428.15175664285715,366.366L257.84063351785676,0Z" style="opacity: 0;"/><path data-target="point-1-21" d="M257.84063351785676,0L428.15175664285715,366.366L440.85521553571425,366.366L446.1797204821428,360.06048L304.3769730507147,0Z" style="opacity: 0;"/><path data-target="point-1-22" d="M304.3769730507147,0L446.1797204821428,360.06048L459.68314606571425,360.06048L464.55210608,355.59888L339.7368992000002,0Z" style="opacity: 0;"/><path data-target="point-1-23" d="M339.7368992000002,0L464.55210608,355.59888L476.1023406,355.59888L479.2498328142857,352.88448L478.155463627195,298.6982072528031L403.7356053746427,0Z" style="opacity: 0;"/><path data-target="point-1-24" d="M478.155463627195,298.6982072528031L479.2498328142857,352.88448L495.82236153142856,352.88448L501.50063260857144,347.52744Z" style="opacity: 0;"/><path data-target="point-1-25" d="M403.7356053746427,0L478.155463627195,298.6982072528031L501.50063260857144,347.52744L512.8194035214286,347.52743999999996L518.7788879428571,343.17816L409.79530941714336,0Z" style="opacity: 0;"/><path data-target="point-1-26" d="M409.79530941714336,0L518.7788879428571,343.17816L530.7886708842857,343.17816L535.2443904085715,340.28904L514.6605151070792,223.9255212352544L511.71205275404725,213.12845989970634L475.22633557023846,114.97865841873895L430.54685500534686,10.348936882303917L425.7328573610347,0Z" style="opacity: 0;"/><path data-target="point-1-27" d="M514.6605151070792,223.9255212352544L535.2443904085715,340.28904L546.9639766944599,340.28904L555.4346346427751,334.34450400000003Z" style="opacity: 0;"/><path data-target="point-1-28" d="M511.71205275404725,213.12845989970634L514.6605151070792,223.9255212352544L555.4346346427751,334.34450400000003L563.1662068980639,334.34450400000003L575.4591039135,325.1531085Z" style="opacity: 0;"/><path data-target="point-1-29" d="M475.22633557023846,114.97865841873895L511.71205275404725,213.12845989970634L575.4591039135,325.1531085L580.4720172166949,325.1531085L594.1672192076798,315.58937299999997Z" style="opacity: 0;"/><path data-target="point-1-30" d="M430.54685500534686,10.348936882303917L475.22633557023846,114.97865841873895L594.1672192076798,315.58937299999997L597.7143444205656,315.58937299999997L612.9596190857859,305.638195Z" style="opacity: 0;"/><path data-target="point-1-31" d="M425.7328573610347,0L430.54685500534686,10.348936882303917L612.9596190857859,305.638195L614.8869274362319,305.638195L631.8447889028521,295.2839135L441.7925812090334,0Z" style="opacity: 0;"/><path data-target="point-1-32" d="M441.7925812090334,0L631.8447889028521,295.2839135L631.9830344760013,295.2839135L649.4359206612312,285.30833255976603L650.3469613174551,283.78627276102515L460.0394592241476,0Z" style="opacity: 0;"/><path data-target="point-1-33" d="M460.0394592241476,0L650.3469613174551,283.78627276102515L666.8590692083237,274.94547503491816L668.8895250285167,271.80687255794953L478.9764553860887,0Z" style="opacity: 0;"/><path data-target="point-1-34" d="M478.9764553860887,0L668.8895250285167,271.80687255794953L684.2124407312916,264.1168298048978L687.5175417527777,259.3833153967958L498.69070022788327,0Z" style="opacity: 0;"/><path data-target="point-1-35" d="M498.69070022788327,0L687.5175417527777,259.3833153967958L701.489204174992,252.80671912750387L706.239779817594,246.49468222113728L519.275832974656,0Z" style="opacity: 0;"/><path data-target="point-1-36" d="M519.275832974656,0L706.239779817594,246.49468222113728L718.6820982617004,240.99831298493152L725.0659916130177,233.11954117132385L540.8364445283206,0Z" style="opacity: 0;"/><path data-target="point-1-37" d="M540.8364445283206,0L725.0659916130177,233.11954117132385L735.7826573872751,228.67428478341162L744.0067512759358,219.23578518520296L563.4892291684205,0Z" style="opacity: 0;"/><path data-target="point-1-38" d="M563.4892291684205,0L744.0067512759358,219.23578518520296L752.7820181490234,215.81604729959807L763.074009784034,204.82049329958699L587.3579942451416,0Z" style="opacity: 0;"/><path data-target="point-1-39" d="M587.3579942451416,0L763.074009784034,204.82049329958699L769.6701209430664,202.4042737276211L782.2807814752903,189.8500724230888L612.5822242143923,0Z" style="opacity: 0;"/><path data-target="point-1-40" d="M612.5822242143923,0L782.2807814752903,189.8500724230888L786.4359143429338,188.4186747594516L801.6414128575441,174.30007227556757L639.3134795307399,0Z" style="opacity: 0;"/><path data-target="point-1-41" d="M639.3134795307399,0L801.6414128575441,174.30007227556757L803.0674557154174,173.8378636416999L819.9839481371648,159.17484837506876L820.7274597386654,157.68713710560542L667.7166349982883,0Z" style="opacity: 0;"/><path data-target="point-1-42" d="M667.7166349982883,0L820.7274597386654,157.68713710560542L837.1830338823983,144.3609005509122L839.5397743108017,140.02405890254573L697.9747006314415,0Z" style="opacity: 0;"/><path data-target="point-1-43" d="M697.9747006314415,0L839.5397743108017,140.02405890254573L854.2646270556497,128.87425227896583L858.4904786389889,121.70917450466192L730.2849479008147,1.4210854715202004e-14Z" style="opacity: 0;"/><path data-target="point-1-44" d="M730.2849479008147,1.4210854715202004e-14L858.4904786389889,121.70917450466192L880.9662288335853,105.78433970985176L764.8658853205014,0Z" style="opacity: 0;"/><path data-target="point-1-45" d="M764.8658853205014,0L880.9662288335853,105.78433970985176L913.4463248232389,97.4991265L801.9549691881971,0Z" style="opacity: 0;"/><path data-target="point-1-46" d="M801.9549691881971,0L913.4463248232389,97.4991265L936,97.4991265L936,0Z" style="opacity: 0;"/></g></g><g class="axes"><g class="y axis" fill="none" font-size="10" font-family="sans-serif" text-anchor="end" style="font-family: &quot;Source Sans Pro&quot;;"><path class="domain" stroke="#eeeeee" d="M0.5,562.1V0.5" stroke-dasharray="0" style="visibility: hidden;"/><g class="tick" opacity="1" transform="translate(0,562.1)" style="visibility: visible;"><line stroke="#eeeeee" x2="936" stroke-dasharray="0"/><text fill="rgb(0, 0, 0)" x="3" dy="-0.33em" opacity="1" text-anchor="start" font-size="18">$0</text></g><g class="tick" opacity="1" transform="translate(0, 499.70001220703125)" style="visibility: visible;"><line stroke="#eeeeee" x2="936" stroke-dasharray="0"/><text fill="rgb(0, 0, 0)" x="3" dy="-0.33em" opacity="1" text-anchor="start" font-size="18">$10,000</text></g><g class="tick" opacity="1" transform="translate(0, 437.29998779296875)" style="visibility: visible;"><line stroke="#eeeeee" x2="936" stroke-dasharray="0"/><text fill="rgb(0, 0, 0)" x="3" dy="-0.33em" opacity="1" text-anchor="start" font-size="18">$20,000</text></g><g class="tick" opacity="1" transform="translate(0, 374.8999938964844)" style="visibility: visible;"><line stroke="#eeeeee" x2="936" stroke-dasharray="0"/><text fill="rgb(0, 0, 0)" x="3" dy="-0.33em" opacity="1" text-anchor="start" font-size="18">$30,000</text></g><g class="tick" opacity="1" transform="translate(0, 312.5)" style="visibility: visible;"><line stroke="#eeeeee" x2="936" stroke-dasharray="0"/><text fill="rgb(0, 0, 0)" x="3" dy="-0.33em" opacity="1" text-anchor="start" font-size="18">$40,000</text></g><g class="tick" opacity="1" transform="translate(0, 250.10000610351562)" style="visibility: visible;"><line stroke="#eeeeee" x2="936" stroke-dasharray="0"/><text fill="rgb(0, 0, 0)" x="3" dy="-0.33em" opacity="1" text-anchor="start" font-size="18">$50,000</text></g><g class="tick" opacity="1" transform="translate(0, 187.6999969482422)" style="visibility: visible;"><line stroke="#eeeeee" x2="936" stroke-dasharray="0"/><text fill="rgb(0, 0, 0)" x="3" dy="-0.33em" opacity="1" text-anchor="start" font-size="18">$60,000</text></g><g class="tick" opacity="1" transform="translate(0, 125.30000305175781)" style="visibility: visible;"><line stroke="#eeeeee" x2="936" stroke-dasharray="0"/><text fill="rgb(0, 0, 0)" x="3" dy="-0.33em" opacity="1" text-anchor="start" font-size="18">$70,000</text></g><g class="tick" opacity="1" transform="translate(0, 62.900001525878906)" style="visibility: visible;"><line stroke="#eeeeee" x2="936" stroke-dasharray="0"/><text fill="rgb(0, 0, 0)" x="3" dy="-0.33em" opacity="1" text-anchor="start" font-size="18">$80,000</text></g><g class="tick" opacity="1" transform="translate(0, 0.5)" style="visibility: visible;"><line stroke="#eeeeee" x2="936" stroke-dasharray="0"/><text fill="rgb(0, 0, 0)" x="3" dy="-0.33em" opacity="1" text-anchor="start" font-size="18">$90,000</text></g></g><g class="x axis" transform="translate(0,561.6)" fill="none" font-size="10" font-family="sans-serif" text-anchor="middle" style="font-family: &quot;Source Sans Pro&quot;;"><path class="domain" stroke="#eeeeee" d="M40.5,0.5H936.5" stroke-dasharray="0"/><g class="tick" opacity="1" transform="translate(40.5,0)"><line stroke="#eeeeee" y2="6" stroke-dasharray="0"/><text fill="rgb(0, 0, 0)" y="9" dy="-9" opacity="1" dominant-baseline="central" font-size="18" transform="translate(0, 15) rotate(-45)" dx="5" style="text-anchor: end; visibility: visible;">1990</text></g><g class="tick" opacity="1" transform="translate(130.10000000000002,0)"><line stroke="#eeeeee" y2="6" stroke-dasharray="0"/><text fill="rgb(0, 0, 0)" y="9" dy="-9" opacity="1" dominant-baseline="central" font-size="18" transform="translate(0, 15) rotate(-45)" dx="5" style="text-anchor: end; visibility: visible;">1995</text></g><g class="tick" opacity="1" transform="translate(219.70000000000002,0)"><line stroke="#eeeeee" y2="6" stroke-dasharray="0"/><text fill="rgb(0, 0, 0)" y="9" dy="-9" opacity="1" dominant-baseline="central" font-size="18" transform="translate(0, 15) rotate(-45)" dx="5" style="text-anchor: end; visibility: visible;">2000</text></g><g class="tick" opacity="1" transform="translate(309.3,0)"><line stroke="#eeeeee" y2="6" stroke-dasharray="0"/><text fill="rgb(0, 0, 0)" y="9" dy="-9" opacity="1" dominant-baseline="central" font-size="18" transform="translate(0, 15) rotate(-45)" dx="5" style="text-anchor: end; visibility: visible;">2005</text></g><g class="tick" opacity="1" transform="translate(398.90000000000003,0)"><line stroke="#eeeeee" y2="6" stroke-dasharray="0"/><text fill="rgb(0, 0, 0)" y="9" dy="-9" opacity="1" dominant-baseline="central" font-size="18" transform="translate(0, 15) rotate(-45)" dx="5" style="text-anchor: end; visibility: visible;">2010</text></g><g class="tick" opacity="1" transform="translate(488.5,0)"><line stroke="#eeeeee" y2="6" stroke-dasharray="0"/><text fill="rgb(0, 0, 0)" y="9" dy="-9" opacity="1" dominant-baseline="central" font-size="18" transform="translate(0, 15) rotate(-45)" dx="5" style="text-anchor: end; visibility: visible;">2015</text></g><g class="tick" opacity="1" transform="translate(578.1,0)"><line stroke="#eeeeee" y2="6" stroke-dasharray="0"/><text fill="rgb(0, 0, 0)" y="9" dy="-9" opacity="1" dominant-baseline="central" font-size="18" transform="translate(0, 15) rotate(-45)" dx="5" style="text-anchor: end; visibility: visible;">2020</text></g><g class="tick" opacity="1" transform="translate(667.6999999999999,0)"><line stroke="#eeeeee" y2="6" stroke-dasharray="0"/><text fill="rgb(0, 0, 0)" y="9" dy="-9" opacity="1" dominant-baseline="central" font-size="18" transform="translate(0, 15) rotate(-45)" dx="5" style="text-anchor: end; visibility: visible;">2025</text></g><g class="tick" opacity="1" transform="translate(757.3000000000001,0)"><line stroke="#eeeeee" y2="6" stroke-dasharray="0"/><text fill="rgb(0, 0, 0)" y="9" dy="-9" opacity="1" dominant-baseline="central" font-size="18" transform="translate(0, 15) rotate(-45)" dx="5" style="text-anchor: end; visibility: visible;">2030</text></g><g class="tick" opacity="1" transform="translate(846.9,0)"><line stroke="#eeeeee" y2="6" stroke-dasharray="0"/><text fill="rgb(0, 0, 0)" y="9" dy="-9" opacity="1" dominant-baseline="central" font-size="18" transform="translate(0, 15) rotate(-45)" dx="5" style="text-anchor: end; visibility: visible;">2035</text></g><g class="tick" opacity="1" transform="translate(936.5,0)"><line stroke="#eeeeee" y2="6" stroke-dasharray="0"/><text fill="rgb(0, 0, 0)" y="9" dy="-9" opacity="1" dominant-baseline="central" font-size="18" transform="translate(0, 15) rotate(-45)" dx="5" style="text-anchor: end; visibility: visible;">2040</text></g></g></g></g></g></g><g class="annotations below"><g class="axis-highlights" transform="translate(15, 20)" style="opacity: 1;"><g class="line x" transform="translate(559.68, 0)"><line width="0" stroke-dasharray="2 2" stroke="#333333" stroke-width="2" y2="561.6"/><text transform="translate(0, 6) rotate(-90)" fill="#333333" text-anchor="end" dy="-0.5em" font-size="12">Current</text></g></g></g><g id="areas"><g class="series" pointer-events="none"><path class="area" transform="translate(15,20)" fill-opacity="0" fill="rgb(17, 165, 121)" clip-path="url(#clip-0-0)" d="M57.92,496.76640000000003C63.89333333333334,495.76488,69.86666666666667,494.76336,75.84,493.51536C81.81333333333333,492.26736,87.78666666666666,489.27840000000003,93.75999999999999,489.27840000000003C99.73333333333333,489.27840000000003,105.70666666666666,489.27840000000003,111.68,489.27840000000003C117.65333333333335,489.27840000000003,123.62666666666668,487.18176,129.60000000000002,486.13344C135.57333333333335,485.08512,141.54666666666665,484.04512,147.51999999999998,482.98848C153.4933333333333,481.93183999999997,159.46666666666667,480.97088,165.44,479.7936C171.41333333333333,478.61632000000003,177.38666666666668,477.2144,183.36,475.9248C189.33333333333334,474.6352,195.30666666666667,473.76160000000004,201.28,472.05600000000004C207.25333333333333,470.35040000000004,213.2266666666667,467.88560000000007,219.20000000000002,465.69120000000004C225.17333333333335,463.49680000000006,231.14666666666668,458.88960000000003,237.12,458.88960000000003C243.09333333333333,458.88960000000003,249.06666666666666,459.264,255.04,459.264C261.0133333333333,459.264,266.9866666666667,453.3256,272.96000000000004,450.4032C278.93333333333334,447.48080000000004,284.9066666666667,444.7456,290.88,441.7296C296.85333333333335,438.7136,302.82666666666665,435.3804,308.8,432.3072C314.77333333333337,429.23400000000004,320.74666666666667,427.06559999999996,326.72,423.2904C332.6933333333334,419.5152,338.6666666666667,412.0688000000001,344.64000000000004,409.65600000000006C350.61333333333334,407.2432,356.5866666666667,408.30816,362.56,406.03679999999997C368.53333333333336,403.76543999999996,374.50666666666666,399.27680000000004,380.48,396.02784C386.4533333333334,392.77888,392.4266666666667,388.99328,398.40000000000003,386.54304C404.37333333333333,384.0928,410.3466666666667,382.96544000000006,416.32,381.32640000000004C422.29333333333335,379.68736,428.26666666666665,378.404,434.24,376.7088C440.21333333333337,375.0136,446.18666666666667,372.51968000000005,452.16,371.15520000000004C458.1333333333333,369.79072,464.1066666666667,369.80528000000004,470.08,368.52192C476.05333333333334,367.23856,482.02666666666664,364.65728000000007,488,363.45504000000005C493.97333333333336,362.25280000000004,499.94666666666666,362.16752,505.92,361.30848000000003C511.8933333333334,360.44944000000004,517.8666666666667,359.23679999999996,523.84,358.3008C529.8133333333334,357.3648,535.7866666666666,357.0058336,541.76,355.69248000000005C547.7333333333333,354.3791264000001,553.7066666666666,352.66356320000006,559.68,350.42067840000004C565.6533333333333,348.17779360000003,571.6266666666667,345.01655760000006,577.6,342.2351712C583.5733333333334,339.45378480000005,589.5466666666666,336.6215632,595.52,333.73236C601.4933333333333,330.84315680000003,607.4666666666667,327.9011528,613.44,324.899952C619.4133333333334,321.8987512,625.3866666666667,318.84268,631.36,315.7251552C637.3333333333334,312.6076304,643.3066666666667,309.43316560000005,649.2800000000001,306.1948032C655.2533333333333,302.95644080000005,661.2266666666667,299.6588712,667.1999999999999,296.2949808C673.1733333333333,292.9310904,679.1466666666666,289.5057256,685.12,286.0114608C691.0933333333334,282.517196,697.0666666666666,278.95910640000005,703.04,275.32939200000004C709.0133333333333,271.69967760000003,714.9866666666667,268.00358,720.96,264.2331744C726.9333333333334,260.4627688,732.9066666666666,256.6235048,738.88,252.70695840000002C744.8533333333334,248.790412,750.8266666666667,244.80226160000004,756.8000000000001,240.73389600000002C762.7733333333333,236.66553040000005,768.7466666666667,232.52281519999997,774.7199999999999,228.2967648C780.6933333333333,224.07071439999999,786.6666666666666,219.76745440000002,792.64,215.3775936C798.6133333333333,210.98773280000003,804.5866666666666,206.5176256,810.56,201.9576C816.5333333333333,197.3975744,822.5066666666667,192.75421360000004,828.48,188.01744000000002C834.4533333333334,183.28066640000006,840.4266666666666,178.45732320000005,846.4,173.53695840000006C852.3733333333333,168.61659360000004,858.3466666666667,163.6063416,864.32,158.49525119999998C870.2933333333334,153.3841608,876.2666666666667,148.12728839999997,882.24,142.87041599999998L882.24,142.87041599999998C876.2666666666667,148.12728839999997,870.2933333333334,153.3841608,864.32,158.49525119999998C858.3466666666667,163.6063416,852.3733333333333,168.61659360000004,846.4,173.53695840000006C840.4266666666666,178.45732320000005,834.4533333333334,183.28066640000006,828.48,188.01744000000002C822.5066666666667,192.75421360000004,816.5333333333333,197.3975744,810.56,201.9576C804.5866666666666,206.5176256,798.6133333333333,210.98773280000003,792.64,215.3775936C786.6666666666666,219.76745440000002,780.6933333333333,224.07071439999999,774.7199999999999,228.2967648C768.7466666666667,232.52281519999997,762.7733333333333,236.66553040000005,756.8000000000001,240.73389600000002C750.8266666666667,244.80226160000004,744.8533333333334,248.790412,738.88,252.70695840000002C732.9066666666666,256.6235048,726.9333333333334,260.4627688,720.96,264.2331744C714.9866666666667,268.00358,709.0133333333333,271.69967760000003,703.04,275.32939200000004C697.0666666666666,278.95910640000005,691.0933333333334,282.517196,685.12,286.0114608C679.1466666666666,289.5057256,673.1733333333333,292.9310904,667.1999999999999,296.2949808C661.2266666666667,299.6588712,655.2533333333333,302.95644080000005,649.2800000000001,306.1948032C643.3066666666667,309.43316560000005,637.3333333333334,312.6076304,631.36,315.7251552C625.3866666666667,318.84268,619.4133333333334,321.8987512,613.44,324.899952C607.4666666666667,327.9011528,601.4933333333333,330.84315680000003,595.52,333.73236C589.5466666666666,336.6215632,583.5733333333334,339.45378480000005,577.6,342.2351712C571.6266666666667,345.01655760000006,565.6533333333333,348.17779360000003,559.68,350.42067840000004C553.7066666666666,352.66356320000006,547.7333333333333,354.3791264000001,541.76,355.69248000000005C535.7866666666666,357.0058336,529.8133333333334,357.3648,523.84,358.3008C517.8666666666667,359.23679999999996,511.8933333333334,360.44944000000004,505.92,361.30848000000003C499.94666666666666,362.16752,493.97333333333336,362.25280000000004,488,363.45504000000005C482.02666666666664,364.65728000000007,476.05333333333334,367.23856,470.08,368.52192C464.1066666666667,369.80528000000004,458.1333333333333,369.79072,452.16,371.15520000000004C446.18666666666667,372.51968000000005,440.21333333333337,375.0136,434.24,376.7088C428.26666666666665,378.404,422.29333333333335,379.68736,416.32,381.32640000000004C410.3466666666667,382.96544000000006,404.37333333333333,384.0928,398.40000000000003,386.54304C392.4266666666667,388.99328,386.4533333333334,392.77888,380.48,396.02784C374.50666666666666,399.27680000000004,368.53333333333336,403.76543999999996,362.56,406.03679999999997C356.5866666666667,408.30816,350.61333333333334,407.2432,344.64000000000004,409.65600000000006C338.6666666666667,412.0688000000001,332.6933333333334,419.5152,326.72,423.2904C320.74666666666667,427.06559999999996,314.77333333333337,429.23400000000004,308.8,432.3072C302.82666666666665,435.3804,296.85333333333335,438.7136,290.88,441.7296C284.9066666666667,444.7456,278.93333333333334,447.48080000000004,272.96000000000004,450.4032C266.9866666666667,453.3256,261.0133333333333,459.264,255.04,459.264C249.06666666666666,459.264,243.09333333333333,458.88960000000003,237.12,458.88960000000003C231.14666666666668,458.88960000000003,225.17333333333335,463.49680000000006,219.20000000000002,465.69120000000004C213.2266666666667,467.88560000000007,207.25333333333333,470.35040000000004,201.28,472.05600000000004C195.30666666666667,473.76160000000004,189.33333333333334,474.6352,183.36,475.9248C177.38666666666668,477.2144,171.41333333333333,478.61632000000003,165.44,479.7936C159.46666666666667,480.97088,153.4933333333333,481.93183999999997,147.51999999999998,482.98848C141.54666666666665,484.04512,135.57333333333335,485.08512,129.60000000000002,486.13344C123.62666666666668,487.18176,117.65333333333335,489.27840000000003,111.68,489.27840000000003C105.70666666666666,489.27840000000003,99.73333333333333,489.27840000000003,93.75999999999999,489.27840000000003C87.78666666666666,489.27840000000003,81.81333333333333,492.26736,75.84,493.51536C69.86666666666667,494.76336,63.89333333333334,495.76488,57.92,496.76640000000003Z"/></g><g class="series" pointer-events="none"><path class="area" transform="translate(15,20)" fill-opacity="0" fill="rgb(128, 35, 146)" clip-path="url(#clip-0-1)" d="M57.92,496.19856000000004C63.89333333333334,494.89388,69.86666666666667,493.5892,75.84,492.18624C81.81333333333333,490.78328,87.78666666666666,489.10888,93.75999999999999,487.7808C99.73333333333333,486.45272,105.70666666666666,485.43248,111.68,484.21776C117.65333333333335,483.00304,123.62666666666668,481.858,129.60000000000002,480.49248C135.57333333333335,479.12696,141.54666666666665,477.5264,147.51999999999998,476.02464000000003C153.4933333333333,474.52288000000004,159.46666666666667,473.10016,165.44,471.48192C171.41333333333333,469.86368,177.38666666666668,467.94696,183.36,466.3152C189.33333333333334,464.68344,195.30666666666667,463.27528,201.28,461.69136000000003C207.25333333333333,460.10744000000005,213.2266666666667,458.57344,219.20000000000002,456.81168C225.17333333333335,455.04992000000004,231.14666666666668,453.21016000000003,237.12,451.12080000000003C243.09333333333333,449.03144000000003,249.06666666666666,446.85368000000005,255.04,444.27552000000003C261.0133333333333,441.69736,266.9866666666667,438.51288,272.96000000000004,435.65184C278.93333333333334,432.7908,284.9066666666667,429.94016,290.88,427.10928C296.85333333333335,424.27840000000003,302.82666666666665,421.51928,308.8,418.66656C314.77333333333337,415.81384,320.74666666666667,413.11504,326.72,409.99296000000004C332.6933333333334,406.87088000000006,338.6666666666667,403.1872,344.64000000000004,399.93408C350.61333333333334,396.68095999999997,356.5866666666667,393.33008,362.56,390.47424C368.53333333333336,387.6184,374.50666666666666,385.69232,380.48,382.79904C386.4533333333334,379.90576,392.4266666666667,376.18879999999996,398.40000000000003,373.11456C404.37333333333333,370.04032,410.3466666666667,367.20216000000005,416.32,364.35360000000003C422.29333333333335,361.50504,428.26666666666665,358.58783999999997,434.24,356.0232C440.21333333333337,353.45856,446.18666666666667,351.19032,452.16,348.96576C458.1333333333333,346.7412,464.1066666666667,342.91712,470.08,342.67584C476.05333333333334,342.43456,482.02666666666664,342.5552,488,342.31392C493.97333333333336,342.07264,499.94666666666666,336.1228,505.92,333.7464C511.8933333333334,331.37,517.8666666666667,329.53232,523.84,328.05552C529.8133333333334,326.57872000000003,535.7866666666666,326.5167984,541.76,324.8856C547.7333333333333,323.2544016,553.7066666666666,321.0707552,559.68,318.2683296C565.6533333333333,315.465904,571.6266666666667,311.5413704,577.6,308.0710464C583.5733333333334,304.6007224,589.5466666666666,301.06215360000004,595.52,297.44638560000004C601.4933333333333,293.83061760000004,607.4666666666667,290.1437240000001,613.44,286.37643840000004C619.4133333333334,282.60915280000006,625.3866666666667,278.76782959999997,631.36,274.842672C637.3333333333334,270.91751439999996,643.3066666666667,266.91515760000004,649.2800000000001,262.8254928C655.2533333333333,258.735828,661.2266666666667,254.56572959999997,667.1999999999999,250.3046832C673.1733333333333,246.04363679999997,679.1466666666666,241.69881840000002,685.12,237.25921440000002C691.0933333333334,232.81961040000004,697.0666666666666,228.29271920000002,703.04,223.66705920000004C709.0133333333333,219.04139920000003,714.9866666666667,214.32476000000003,720.96,209.5052544C726.9333333333334,204.68574880000003,732.9066666666666,199.7714992,738.88,194.75002560000001C744.8533333333334,189.728552,750.8266666666667,184.60833040000006,756.8000000000001,179.37641280000003C762.7733333333333,174.14449520000005,768.7466666666667,168.80969039999997,774.7199999999999,163.35852C780.6933333333333,157.90734959999997,786.6666666666666,152.34900720000007,792.64,146.66939040000005C798.6133333333333,140.98977360000006,804.5866666666666,135.19845039999998,810.56,129.2808192C816.5333333333333,123.36318799999997,822.5066666666667,117.32922239999996,828.48,111.16360319999995C834.4533333333334,104.99798399999999,840.4266666666666,98.71111120000002,846.4,92.28710400000006C852.3733333333333,85.86309680000005,858.3466666666667,79.31277120000006,864.32,72.61956000000004C870.2933333333334,65.92634880000006,876.2666666666667,59.02709280000006,882.24,52.12783680000007L882.24,52.12783680000007C876.2666666666667,59.02709280000006,870.2933333333334,65.92634880000006,864.32,72.61956000000004C858.3466666666667,79.31277120000006,852.3733333333333,85.86309680000005,846.4,92.28710400000006C840.4266666666666,98.71111120000002,834.4533333333334,104.99798399999999,828.48,111.16360319999995C822.5066666666667,117.32922239999996,816.5333333333333,123.36318799999997,810.56,129.2808192C804.5866666666666,135.19845039999998,798.6133333333333,140.98977360000006,792.64,146.66939040000005C786.6666666666666,152.34900720000007,780.6933333333333,157.90734959999997,774.7199999999999,163.35852C768.7466666666667,168.80969039999997,762.7733333333333,174.14449520000005,756.8000000000001,179.37641280000003C750.8266666666667,184.60833040000006,744.8533333333334,189.728552,738.88,194.75002560000001C732.9066666666666,199.7714992,726.9333333333334,204.68574880000003,720.96,209.5052544C714.9866666666667,214.32476000000003,709.0133333333333,219.04139920000003,703.04,223.66705920000004C697.0666666666666,228.29271920000002,691.0933333333334,232.81961040000004,685.12,237.25921440000002C679.1466666666666,241.69881840000002,673.1733333333333,246.04363679999997,667.1999999999999,250.3046832C661.2266666666667,254.56572959999997,655.2533333333333,258.735828,649.2800000000001,262.8254928C643.3066666666667,266.91515760000004,637.3333333333334,270.91751439999996,631.36,274.842672C625.3866666666667,278.76782959999997,619.4133333333334,282.60915280000006,613.44,286.37643840000004C607.4666666666667,290.1437240000001,601.4933333333333,293.83061760000004,595.52,297.44638560000004C589.5466666666666,301.06215360000004,583.5733333333334,304.6007224,577.6,308.0710464C571.6266666666667,311.5413704,565.6533333333333,315.465904,559.68,318.2683296C553.7066666666666,321.0707552,547.7333333333333,323.2544016,541.76,324.8856C535.7866666666666,326.5167984,529.8133333333334,326.57872000000003,523.84,328.05552C517.8666666666667,329.53232,511.8933333333334,331.37,505.92,333.7464C499.94666666666666,336.1228,493.97333333333336,342.07264,488,342.31392C482.02666666666664,342.5552,476.05333333333334,342.43456,470.08,342.67584C464.1066666666667,342.91712,458.1333333333333,346.7412,452.16,348.96576C446.18666666666667,351.19032,440.21333333333337,353.45856,434.24,356.0232C428.26666666666665,358.58783999999997,422.29333333333335,361.50504,416.32,364.35360000000003C410.3466666666667,367.20216000000005,404.37333333333333,370.04032,398.40000000000003,373.11456C392.4266666666667,376.18879999999996,386.4533333333334,379.90576,380.48,382.79904C374.50666666666666,385.69232,368.53333333333336,387.6184,362.56,390.47424C356.5866666666667,393.33008,350.61333333333334,396.68095999999997,344.64000000000004,399.93408C338.6666666666667,403.1872,332.6933333333334,406.87088000000006,326.72,409.99296000000004C320.74666666666667,413.11504,314.77333333333337,415.81384,308.8,418.66656C302.82666666666665,421.51928,296.85333333333335,424.27840000000003,290.88,427.10928C284.9066666666667,429.94016,278.93333333333334,432.7908,272.96000000000004,435.65184C266.9866666666667,438.51288,261.0133333333333,441.69736,255.04,444.27552000000003C249.06666666666666,446.85368000000005,243.09333333333333,449.03144000000003,237.12,451.12080000000003C231.14666666666668,453.21016000000003,225.17333333333335,455.04992000000004,219.20000000000002,456.81168C213.2266666666667,458.57344,207.25333333333333,460.10744000000005,201.28,461.69136000000003C195.30666666666667,463.27528,189.33333333333334,464.68344,183.36,466.3152C177.38666666666668,467.94696,171.41333333333333,469.86368,165.44,471.48192C159.46666666666667,473.10016,153.4933333333333,474.52288000000004,147.51999999999998,476.02464000000003C141.54666666666665,477.5264,135.57333333333335,479.12696,129.60000000000002,480.49248C123.62666666666668,481.858,117.65333333333335,483.00304,111.68,484.21776C105.70666666666666,485.43248,99.73333333333333,486.45272,93.75999999999999,487.7808C87.78666666666666,489.10888,81.81333333333333,490.78328,75.84,492.18624C69.86666666666667,493.5892,63.89333333333334,494.89388,57.92,496.19856000000004Z"/></g></g><g id="lines"><g class="series"><clipPath id="clip-0-0"><rect width="936" y="-20" height="599.6"/></clipPath><path class="line" opacity="1" fill="none" stroke="rgb(17, 165, 121)" stroke-width="2" transform="translate(15,20)" clip-path="url(#clip-0-0)" d="M57.92,496.76640000000003C63.89333333333334,495.76488,69.86666666666667,494.76336,75.84,493.51536C81.81333333333333,492.26736,87.78666666666666,489.27840000000003,93.75999999999999,489.27840000000003C99.73333333333333,489.27840000000003,105.70666666666666,489.27840000000003,111.68,489.27840000000003C117.65333333333335,489.27840000000003,123.62666666666668,487.18176,129.60000000000002,486.13344C135.57333333333335,485.08512,141.54666666666665,484.04512,147.51999999999998,482.98848C153.4933333333333,481.93183999999997,159.46666666666667,480.97088,165.44,479.7936C171.41333333333333,478.61632000000003,177.38666666666668,477.2144,183.36,475.9248C189.33333333333334,474.6352,195.30666666666667,473.76160000000004,201.28,472.05600000000004C207.25333333333333,470.35040000000004,213.2266666666667,467.88560000000007,219.20000000000002,465.69120000000004C225.17333333333335,463.49680000000006,231.14666666666668,458.88960000000003,237.12,458.88960000000003C243.09333333333333,458.88960000000003,249.06666666666666,459.264,255.04,459.264C261.0133333333333,459.264,266.9866666666667,453.3256,272.96000000000004,450.4032C278.93333333333334,447.48080000000004,284.9066666666667,444.7456,290.88,441.7296C296.85333333333335,438.7136,302.82666666666665,435.3804,308.8,432.3072C314.77333333333337,429.23400000000004,320.74666666666667,427.06559999999996,326.72,423.2904C332.6933333333334,419.5152,338.6666666666667,412.0688000000001,344.64000000000004,409.65600000000006C350.61333333333334,407.2432,356.5866666666667,408.30816,362.56,406.03679999999997C368.53333333333336,403.76543999999996,374.50666666666666,399.27680000000004,380.48,396.02784C386.4533333333334,392.77888,392.4266666666667,388.99328,398.40000000000003,386.54304C404.37333333333333,384.0928,410.3466666666667,382.96544000000006,416.32,381.32640000000004C422.29333333333335,379.68736,428.26666666666665,378.404,434.24,376.7088C440.21333333333337,375.0136,446.18666666666667,372.51968000000005,452.16,371.15520000000004C458.1333333333333,369.79072,464.1066666666667,369.80528000000004,470.08,368.52192C476.05333333333334,367.23856,482.02666666666664,364.65728000000007,488,363.45504000000005C493.97333333333336,362.25280000000004,499.94666666666666,362.16752,505.92,361.30848000000003C511.8933333333334,360.44944000000004,517.8666666666667,359.23679999999996,523.84,358.3008C529.8133333333334,357.3648,535.7866666666666,357.0058336,541.76,355.69248000000005C547.7333333333333,354.3791264000001,553.7066666666666,352.66356320000006,559.68,350.42067840000004C565.6533333333333,348.17779360000003,571.6266666666667,345.01655760000006,577.6,342.2351712C583.5733333333334,339.45378480000005,589.5466666666666,336.6215632,595.52,333.73236C601.4933333333333,330.84315680000003,607.4666666666667,327.9011528,613.44,324.899952C619.4133333333334,321.8987512,625.3866666666667,318.84268,631.36,315.7251552C637.3333333333334,312.6076304,643.3066666666667,309.43316560000005,649.2800000000001,306.1948032C655.2533333333333,302.95644080000005,661.2266666666667,299.6588712,667.1999999999999,296.2949808C673.1733333333333,292.9310904,679.1466666666666,289.5057256,685.12,286.0114608C691.0933333333334,282.517196,697.0666666666666,278.95910640000005,703.04,275.32939200000004C709.0133333333333,271.69967760000003,714.9866666666667,268.00358,720.96,264.2331744C726.9333333333334,260.4627688,732.9066666666666,256.6235048,738.88,252.70695840000002C744.8533333333334,248.790412,750.8266666666667,244.80226160000004,756.8000000000001,240.73389600000002C762.7733333333333,236.66553040000005,768.7466666666667,232.52281519999997,774.7199999999999,228.2967648C780.6933333333333,224.07071439999999,786.6666666666666,219.76745440000002,792.64,215.3775936C798.6133333333333,210.98773280000003,804.5866666666666,206.5176256,810.56,201.9576C816.5333333333333,197.3975744,822.5066666666667,192.75421360000004,828.48,188.01744000000002C834.4533333333334,183.28066640000006,840.4266666666666,178.45732320000005,846.4,173.53695840000006C852.3733333333333,168.61659360000004,858.3466666666667,163.6063416,864.32,158.49525119999998C870.2933333333334,153.3841608,876.2666666666667,148.12728839999997,882.24,142.87041599999998"/><text class="label" font-size="11" alignment-baseline="middle" opacity="1" x="5" fill="rgb(17, 165, 121)" transform="translate(897.239990234375, 162.87042236328125)"/></g><g class="series"><clipPath id="clip-0-1"><rect width="936" y="-20" height="599.6"/></clipPath><path class="line" opacity="1" fill="none" stroke="rgb(128, 35, 146)" stroke-width="2" transform="translate(15,20)" clip-path="url(#clip-0-1)" d="M57.92,496.19856000000004C63.89333333333334,494.89388,69.86666666666667,493.5892,75.84,492.18624C81.81333333333333,490.78328,87.78666666666666,489.10888,93.75999999999999,487.7808C99.73333333333333,486.45272,105.70666666666666,485.43248,111.68,484.21776C117.65333333333335,483.00304,123.62666666666668,481.858,129.60000000000002,480.49248C135.57333333333335,479.12696,141.54666666666665,477.5264,147.51999999999998,476.02464000000003C153.4933333333333,474.52288000000004,159.46666666666667,473.10016,165.44,471.48192C171.41333333333333,469.86368,177.38666666666668,467.94696,183.36,466.3152C189.33333333333334,464.68344,195.30666666666667,463.27528,201.28,461.69136000000003C207.25333333333333,460.10744000000005,213.2266666666667,458.57344,219.20000000000002,456.81168C225.17333333333335,455.04992000000004,231.14666666666668,453.21016000000003,237.12,451.12080000000003C243.09333333333333,449.03144000000003,249.06666666666666,446.85368000000005,255.04,444.27552000000003C261.0133333333333,441.69736,266.9866666666667,438.51288,272.96000000000004,435.65184C278.93333333333334,432.7908,284.9066666666667,429.94016,290.88,427.10928C296.85333333333335,424.27840000000003,302.82666666666665,421.51928,308.8,418.66656C314.77333333333337,415.81384,320.74666666666667,413.11504,326.72,409.99296000000004C332.6933333333334,406.87088000000006,338.6666666666667,403.1872,344.64000000000004,399.93408C350.61333333333334,396.68095999999997,356.5866666666667,393.33008,362.56,390.47424C368.53333333333336,387.6184,374.50666666666666,385.69232,380.48,382.79904C386.4533333333334,379.90576,392.4266666666667,376.18879999999996,398.40000000000003,373.11456C404.37333333333333,370.04032,410.3466666666667,367.20216000000005,416.32,364.35360000000003C422.29333333333335,361.50504,428.26666666666665,358.58783999999997,434.24,356.0232C440.21333333333337,353.45856,446.18666666666667,351.19032,452.16,348.96576C458.1333333333333,346.7412,464.1066666666667,342.91712,470.08,342.67584C476.05333333333334,342.43456,482.02666666666664,342.5552,488,342.31392C493.97333333333336,342.07264,499.94666666666666,336.1228,505.92,333.7464C511.8933333333334,331.37,517.8666666666667,329.53232,523.84,328.05552C529.8133333333334,326.57872000000003,535.7866666666666,326.5167984,541.76,324.8856C547.7333333333333,323.2544016,553.7066666666666,321.0707552,559.68,318.2683296C565.6533333333333,315.465904,571.6266666666667,311.5413704,577.6,308.0710464C583.5733333333334,304.6007224,589.5466666666666,301.06215360000004,595.52,297.44638560000004C601.4933333333333,293.83061760000004,607.4666666666667,290.1437240000001,613.44,286.37643840000004C619.4133333333334,282.60915280000006,625.3866666666667,278.76782959999997,631.36,274.842672C637.3333333333334,270.91751439999996,643.3066666666667,266.91515760000004,649.2800000000001,262.8254928C655.2533333333333,258.735828,661.2266666666667,254.56572959999997,667.1999999999999,250.3046832C673.1733333333333,246.04363679999997,679.1466666666666,241.69881840000002,685.12,237.25921440000002C691.0933333333334,232.81961040000004,697.0666666666666,228.29271920000002,703.04,223.66705920000004C709.0133333333333,219.04139920000003,714.9866666666667,214.32476000000003,720.96,209.5052544C726.9333333333334,204.68574880000003,732.9066666666666,199.7714992,738.88,194.75002560000001C744.8533333333334,189.728552,750.8266666666667,184.60833040000006,756.8000000000001,179.37641280000003C762.7733333333333,174.14449520000005,768.7466666666667,168.80969039999997,774.7199999999999,163.35852C780.6933333333333,157.90734959999997,786.6666666666666,152.34900720000007,792.64,146.66939040000005C798.6133333333333,140.98977360000006,804.5866666666666,135.19845039999998,810.56,129.2808192C816.5333333333333,123.36318799999997,822.5066666666667,117.32922239999996,828.48,111.16360319999995C834.4533333333334,104.99798399999999,840.4266666666666,98.71111120000002,846.4,92.28710400000006C852.3733333333333,85.86309680000005,858.3466666666667,79.31277120000006,864.32,72.61956000000004C870.2933333333334,65.92634880000006,876.2666666666667,59.02709280000006,882.24,52.12783680000007"/><text class="label" font-size="11" alignment-baseline="middle" opacity="1" x="5" fill="rgb(128, 35, 146)" transform="translate(897.239990234375, 72.12783813476562)"/></g></g><g id="data-points"><g class="series" transform="translate(15,20)"><path class="data-point" fill="rgb(17, 165, 121)" data-type="point" transform="translate(0, 0)" d="M54.92,496.76640000000003A3,3,0,1,1,60.92,496.76640000000003A3,3,0,1,1,54.92,496.76640000000003Z" id="point-0-0" opacity="1"/><path class="data-point" fill="rgb(17, 165, 121)" data-type="point" transform="translate(0, 0)" d="M72.84,493.51536A3,3,0,1,1,78.84,493.51536A3,3,0,1,1,72.84,493.51536Z" id="point-0-1" opacity="1"/><path class="data-point" fill="rgb(17, 165, 121)" data-type="point" transform="translate(0, 0)" d="M90.75999999999999,489.27840000000003A3,3,0,1,1,96.75999999999999,489.27840000000003A3,3,0,1,1,90.75999999999999,489.27840000000003Z" id="point-0-2" opacity="1"/><path class="data-point" fill="rgb(17, 165, 121)" data-type="point" transform="translate(0, 0)" d="M108.68,489.27840000000003A3,3,0,1,1,114.68,489.27840000000003A3,3,0,1,1,108.68,489.27840000000003Z" id="point-0-3" opacity="1"/><path class="data-point" fill="rgb(17, 165, 121)" data-type="point" transform="translate(0, 0)" d="M126.60000000000002,486.13344A3,3,0,1,1,132.60000000000002,486.13344A3,3,0,1,1,126.60000000000002,486.13344Z" id="point-0-4" opacity="1"/><path class="data-point" fill="rgb(17, 165, 121)" data-type="point" transform="translate(0, 0)" d="M144.51999999999998,482.98848A3,3,0,1,1,150.51999999999998,482.98848A3,3,0,1,1,144.51999999999998,482.98848Z" id="point-0-5" opacity="1"/><path class="data-point" fill="rgb(17, 165, 121)" data-type="point" transform="translate(0, 0)" d="M162.44,479.7936A3,3,0,1,1,168.44,479.7936A3,3,0,1,1,162.44,479.7936Z" id="point-0-6" opacity="1"/><path class="data-point" fill="rgb(17, 165, 121)" data-type="point" transform="translate(0, 0)" d="M180.36,475.9248A3,3,0,1,1,186.36,475.9248A3,3,0,1,1,180.36,475.9248Z" id="point-0-7" opacity="1"/><path class="data-point" fill="rgb(17, 165, 121)" data-type="point" transform="translate(0, 0)" d="M198.28,472.05600000000004A3,3,0,1,1,204.28,472.05600000000004A3,3,0,1,1,198.28,472.05600000000004Z" id="point-0-8" opacity="1"/><path class="data-point" fill="rgb(17, 165, 121)" data-type="point" transform="translate(0, 0)" d="M216.20000000000002,465.69120000000004A3,3,0,1,1,222.20000000000002,465.69120000000004A3,3,0,1,1,216.20000000000002,465.69120000000004Z" id="point-0-9" opacity="1"/><path class="data-point" fill="rgb(17, 165, 121)" data-type="point" transform="translate(0, 0)" d="M234.12,458.88960000000003A3,3,0,1,1,240.12,458.88960000000003A3,3,0,1,1,234.12,458.88960000000003Z" id="point-0-10" opacity="1"/><path class="data-point" fill="rgb(17, 165, 121)" data-type="point" transform="translate(0, 0)" d="M252.04,459.264A3,3,0,1,1,258.03999999999996,459.264A3,3,0,1,1,252.04,459.264Z" id="point-0-11" opacity="1"/><path class="data-point" fill="rgb(17, 165, 121)" data-type="point" transform="translate(0, 0)" d="M269.96000000000004,450.4032A3,3,0,1,1,275.96000000000004,450.4032A3,3,0,1,1,269.96000000000004,450.4032Z" id="point-0-12" opacity="1"/><path class="data-point" fill="rgb(17, 165, 121)" data-type="point" transform="translate(0, 0)" d="M287.88,441.7296A3,3,0,1,1,293.88,441.7296A3,3,0,1,1,287.88,441.7296Z" id="point-0-13" opacity="1"/><path class="data-point" fill="rgb(17, 165, 121)" data-type="point" transform="translate(0, 0)" d="M305.8,432.3072A3,3,0,1,1,311.8,432.3072A3,3,0,1,1,305.8,432.3072Z" id="point-0-14" opacity="1"/><path class="data-point" fill="rgb(17, 165, 121)" data-type="point" transform="translate(0, 0)" d="M323.72,423.2904A3,3,0,1,1,329.72,423.2904A3,3,0,1,1,323.72,423.2904Z" id="point-0-15" opacity="1"/><path class="data-point" fill="rgb(17, 165, 121)" data-type="point" transform="translate(0, 0)" d="M341.64000000000004,409.65600000000006A3,3,0,1,1,347.64000000000004,409.65600000000006A3,3,0,1,1,341.64000000000004,409.65600000000006Z" id="point-0-16" opacity="1"/><path class="data-point" fill="rgb(17, 165, 121)" data-type="point" transform="translate(0, 0)" d="M359.56,406.03679999999997A3,3,0,1,1,365.56,406.03679999999997A3,3,0,1,1,359.56,406.03679999999997Z" id="point-0-17" opacity="1"/><path class="data-point" fill="rgb(17, 165, 121)" data-type="point" transform="translate(0, 0)" d="M377.48,396.02784A3,3,0,1,1,383.48,396.02784A3,3,0,1,1,377.48,396.02784Z" id="point-0-18" opacity="1"/><path class="data-point" fill="rgb(17, 165, 121)" data-type="point" transform="translate(0, 0)" d="M395.40000000000003,386.54304A3,3,0,1,1,401.40000000000003,386.54304A3,3,0,1,1,395.40000000000003,386.54304Z" id="point-0-19" opacity="1"/><path class="data-point" fill="rgb(17, 165, 121)" data-type="point" transform="translate(0, 0)" d="M413.32,381.32640000000004A3,3,0,1,1,419.32,381.32640000000004A3,3,0,1,1,413.32,381.32640000000004Z" id="point-0-20" opacity="1"/><path class="data-point" fill="rgb(17, 165, 121)" data-type="point" transform="translate(0, 0)" d="M431.24,376.7088A3,3,0,1,1,437.24,376.7088A3,3,0,1,1,431.24,376.7088Z" id="point-0-21" opacity="1"/><path class="data-point" fill="rgb(17, 165, 121)" data-type="point" transform="translate(0, 0)" d="M449.16,371.15520000000004A3,3,0,1,1,455.16,371.15520000000004A3,3,0,1,1,449.16,371.15520000000004Z" id="point-0-22" opacity="1"/><path class="data-point" fill="rgb(17, 165, 121)" data-type="point" transform="translate(0, 0)" d="M467.08,368.52192A3,3,0,1,1,473.08,368.52192A3,3,0,1,1,467.08,368.52192Z" id="point-0-23" opacity="1"/><path class="data-point" fill="rgb(17, 165, 121)" data-type="point" transform="translate(0, 0)" d="M485,363.45504000000005A3,3,0,1,1,491,363.45504000000005A3,3,0,1,1,485,363.45504000000005Z" id="point-0-24" opacity="1"/><path class="data-point" fill="rgb(17, 165, 121)" data-type="point" transform="translate(0, 0)" d="M502.92,361.30848000000003A3,3,0,1,1,508.92,361.30848000000003A3,3,0,1,1,502.92,361.30848000000003Z" id="point-0-25" opacity="1"/><path class="data-point" fill="rgb(17, 165, 121)" data-type="point" transform="translate(0, 0)" d="M520.84,358.3008A3,3,0,1,1,526.84,358.3008A3,3,0,1,1,520.84,358.3008Z" id="point-0-26" opacity="1"/><path class="data-point" fill="rgb(17, 165, 121)" data-type="point" transform="translate(0, 0)" d="M538.76,355.69248000000005A3,3,0,1,1,544.76,355.69248000000005A3,3,0,1,1,538.76,355.69248000000005Z" id="point-0-27" opacity="1"/><path class="data-point" fill="rgb(17, 165, 121)" data-type="point" transform="translate(0, 0)" d="M556.68,350.42067840000004A3,3,0,1,1,562.68,350.42067840000004A3,3,0,1,1,556.68,350.42067840000004Z" id="point-0-28" opacity="1"/><path class="data-point" fill="rgb(17, 165, 121)" data-type="point" transform="translate(0, 0)" d="M574.6,342.2351712A3,3,0,1,1,580.6,342.2351712A3,3,0,1,1,574.6,342.2351712Z" id="point-0-29" opacity="1"/><path class="data-point" fill="rgb(17, 165, 121)" data-type="point" transform="translate(0, 0)" d="M592.52,333.73236A3,3,0,1,1,598.52,333.73236A3,3,0,1,1,592.52,333.73236Z" id="point-0-30" opacity="1"/><path class="data-point" fill="rgb(17, 165, 121)" data-type="point" transform="translate(0, 0)" d="M610.44,324.899952A3,3,0,1,1,616.44,324.899952A3,3,0,1,1,610.44,324.899952Z" id="point-0-31" opacity="1"/><path class="data-point" fill="rgb(17, 165, 121)" data-type="point" transform="translate(0, 0)" d="M628.36,315.7251552A3,3,0,1,1,634.36,315.7251552A3,3,0,1,1,628.36,315.7251552Z" id="point-0-32" opacity="1"/><path class="data-point" fill="rgb(17, 165, 121)" data-type="point" transform="translate(0, 0)" d="M646.2800000000001,306.1948032A3,3,0,1,1,652.2800000000001,306.1948032A3,3,0,1,1,646.2800000000001,306.1948032Z" id="point-0-33" opacity="1"/><path class="data-point" fill="rgb(17, 165, 121)" data-type="point" transform="translate(0, 0)" d="M664.1999999999999,296.2949808A3,3,0,1,1,670.1999999999999,296.2949808A3,3,0,1,1,664.1999999999999,296.2949808Z" id="point-0-34" opacity="1"/><path class="data-point" fill="rgb(17, 165, 121)" data-type="point" transform="translate(0, 0)" d="M682.12,286.0114608A3,3,0,1,1,688.12,286.0114608A3,3,0,1,1,682.12,286.0114608Z" id="point-0-35" opacity="1"/><path class="data-point" fill="rgb(17, 165, 121)" data-type="point" transform="translate(0, 0)" d="M700.04,275.32939200000004A3,3,0,1,1,706.04,275.32939200000004A3,3,0,1,1,700.04,275.32939200000004Z" id="point-0-36" opacity="1"/><path class="data-point" fill="rgb(17, 165, 121)" data-type="point" transform="translate(0, 0)" d="M717.96,264.2331744A3,3,0,1,1,723.96,264.2331744A3,3,0,1,1,717.96,264.2331744Z" id="point-0-37" opacity="1"/><path class="data-point" fill="rgb(17, 165, 121)" data-type="point" transform="translate(0, 0)" d="M735.88,252.70695840000002A3,3,0,1,1,741.88,252.70695840000002A3,3,0,1,1,735.88,252.70695840000002Z" id="point-0-38" opacity="1"/><path class="data-point" fill="rgb(17, 165, 121)" data-type="point" transform="translate(0, 0)" d="M753.8000000000001,240.73389600000002A3,3,0,1,1,759.8000000000001,240.73389600000002A3,3,0,1,1,753.8000000000001,240.73389600000002Z" id="point-0-39" opacity="1"/><path class="data-point" fill="rgb(17, 165, 121)" data-type="point" transform="translate(0, 0)" d="M771.7199999999999,228.2967648A3,3,0,1,1,777.7199999999999,228.2967648A3,3,0,1,1,771.7199999999999,228.2967648Z" id="point-0-40" opacity="1"/><path class="data-point" fill="rgb(17, 165, 121)" data-type="point" transform="translate(0, 0)" d="M789.64,215.3775936A3,3,0,1,1,795.64,215.3775936A3,3,0,1,1,789.64,215.3775936Z" id="point-0-41" opacity="1"/><path class="data-point" fill="rgb(17, 165, 121)" data-type="point" transform="translate(0, 0)" d="M807.56,201.9576A3,3,0,1,1,813.56,201.9576A3,3,0,1,1,807.56,201.9576Z" id="point-0-42" opacity="1"/><path class="data-point" fill="rgb(17, 165, 121)" data-type="point" transform="translate(0, 0)" d="M825.48,188.01744000000002A3,3,0,1,1,831.48,188.01744000000002A3,3,0,1,1,825.48,188.01744000000002Z" id="point-0-43" opacity="1"/><path class="data-point" fill="rgb(17, 165, 121)" data-type="point" transform="translate(0, 0)" d="M843.4,173.53695840000006A3,3,0,1,1,849.4,173.53695840000006A3,3,0,1,1,843.4,173.53695840000006Z" id="point-0-44" opacity="1"/><path class="data-point" fill="rgb(17, 165, 121)" data-type="point" transform="translate(0, 0)" d="M861.32,158.49525119999998A3,3,0,1,1,867.32,158.49525119999998A3,3,0,1,1,861.32,158.49525119999998Z" id="point-0-45" opacity="1"/><path class="data-point" fill="rgb(17, 165, 121)" data-type="point" transform="translate(0, 0)" d="M879.24,142.87041599999998A3,3,0,1,1,885.24,142.87041599999998A3,3,0,1,1,879.24,142.87041599999998Z" id="point-0-46" opacity="1"/></g><g class="series" transform="translate(15,20)"><path class="data-point" fill="rgb(128, 35, 146)" data-type="point" transform="translate(0, 0)" d="M54.92,496.19856000000004A3,3,0,1,1,60.92,496.19856000000004A3,3,0,1,1,54.92,496.19856000000004Z" id="point-1-0" opacity="1"/><path class="data-point" fill="rgb(128, 35, 146)" data-type="point" transform="translate(0, 0)" d="M72.84,492.18624A3,3,0,1,1,78.84,492.18624A3,3,0,1,1,72.84,492.18624Z" id="point-1-1" opacity="1"/><path class="data-point" fill="rgb(128, 35, 146)" data-type="point" transform="translate(0, 0)" d="M90.75999999999999,487.7808A3,3,0,1,1,96.75999999999999,487.7808A3,3,0,1,1,90.75999999999999,487.7808Z" id="point-1-2" opacity="1"/><path class="data-point" fill="rgb(128, 35, 146)" data-type="point" transform="translate(0, 0)" d="M108.68,484.21776A3,3,0,1,1,114.68,484.21776A3,3,0,1,1,108.68,484.21776Z" id="point-1-3" opacity="1"/><path class="data-point" fill="rgb(128, 35, 146)" data-type="point" transform="translate(0, 0)" d="M126.60000000000002,480.49248A3,3,0,1,1,132.60000000000002,480.49248A3,3,0,1,1,126.60000000000002,480.49248Z" id="point-1-4" opacity="1"/><path class="data-point" fill="rgb(128, 35, 146)" data-type="point" transform="translate(0, 0)" d="M144.51999999999998,476.02464000000003A3,3,0,1,1,150.51999999999998,476.02464000000003A3,3,0,1,1,144.51999999999998,476.02464000000003Z" id="point-1-5" opacity="1"/><path class="data-point" fill="rgb(128, 35, 146)" data-type="point" transform="translate(0, 0)" d="M162.44,471.48192A3,3,0,1,1,168.44,471.48192A3,3,0,1,1,162.44,471.48192Z" id="point-1-6" opacity="1"/><path class="data-point" fill="rgb(128, 35, 146)" data-type="point" transform="translate(0, 0)" d="M180.36,466.3152A3,3,0,1,1,186.36,466.3152A3,3,0,1,1,180.36,466.3152Z" id="point-1-7" opacity="1"/><path class="data-point" fill="rgb(128, 35, 146)" data-type="point" transform="translate(0, 0)" d="M198.28,461.69136000000003A3,3,0,1,1,204.28,461.69136000000003A3,3,0,1,1,198.28,461.69136000000003Z" id="point-1-8" opacity="1"/><path class="data-point" fill="rgb(128, 35, 146)" data-type="point" transform="translate(0, 0)" d="M216.20000000000002,456.81168A3,3,0,1,1,222.20000000000002,456.81168A3,3,0,1,1,216.20000000000002,456.81168Z" id="point-1-9" opacity="1"/><path class="data-point" fill="rgb(128, 35, 146)" data-type="point" transform="translate(0, 0)" d="M234.12,451.12080000000003A3,3,0,1,1,240.12,451.12080000000003A3,3,0,1,1,234.12,451.12080000000003Z" id="point-1-10" opacity="1"/><path class="data-point" fill="rgb(128, 35, 146)" data-type="point" transform="translate(0, 0)" d="M252.04,444.27552000000003A3,3,0,1,1,258.03999999999996,444.27552000000003A3,3,0,1,1,252.04,444.27552000000003Z" id="point-1-11" opacity="1"/><path class="data-point" fill="rgb(128, 35, 146)" data-type="point" transform="translate(0, 0)" d="M269.96000000000004,435.65184A3,3,0,1,1,275.96000000000004,435.65184A3,3,0,1,1,269.96000000000004,435.65184Z" id="point-1-12" opacity="1"/><path class="data-point" fill="rgb(128, 35, 146)" data-type="point" transform="translate(0, 0)" d="M287.88,427.10928A3,3,0,1,1,293.88,427.10928A3,3,0,1,1,287.88,427.10928Z" id="point-1-13" opacity="1"/><path class="data-point" fill="rgb(128, 35, 146)" data-type="point" transform="translate(0, 0)" d="M305.8,418.66656A3,3,0,1,1,311.8,418.66656A3,3,0,1,1,305.8,418.66656Z" id="point-1-14" opacity="1"/><path class="data-point" fill="rgb(128, 35, 146)" data-type="point" transform="translate(0, 0)" d="M323.72,409.99296000000004A3,3,0,1,1,329.72,409.99296000000004A3,3,0,1,1,323.72,409.99296000000004Z" id="point-1-15" opacity="1"/><path class="data-point" fill="rgb(128, 35, 146)" data-type="point" transform="translate(0, 0)" d="M341.64000000000004,399.93408A3,3,0,1,1,347.64000000000004,399.93408A3,3,0,1,1,341.64000000000004,399.93408Z" id="point-1-16" opacity="1"/><path class="data-point" fill="rgb(128, 35, 146)" data-type="point" transform="translate(0, 0)" d="M359.56,390.47424A3,3,0,1,1,365.56,390.47424A3,3,0,1,1,359.56,390.47424Z" id="point-1-17" opacity="1"/><path class="data-point" fill="rgb(128, 35, 146)" data-type="point" transform="translate(0, 0)" d="M377.48,382.79904A3,3,0,1,1,383.48,382.79904A3,3,0,1,1,377.48,382.79904Z" id="point-1-18" opacity="1"/><path class="data-point" fill="rgb(128, 35, 146)" data-type="point" transform="translate(0, 0)" d="M395.40000000000003,373.11456A3,3,0,1,1,401.40000000000003,373.11456A3,3,0,1,1,395.40000000000003,373.11456Z" id="point-1-19" opacity="1"/><path class="data-point" fill="rgb(128, 35, 146)" data-type="point" transform="translate(0, 0)" d="M413.32,364.35360000000003A3,3,0,1,1,419.32,364.35360000000003A3,3,0,1,1,413.32,364.35360000000003Z" id="point-1-20" opacity="1"/><path class="data-point" fill="rgb(128, 35, 146)" data-type="point" transform="translate(0, 0)" d="M431.24,356.0232A3,3,0,1,1,437.24,356.0232A3,3,0,1,1,431.24,356.0232Z" id="point-1-21" opacity="1"/><path class="data-point" fill="rgb(128, 35, 146)" data-type="point" transform="translate(0, 0)" d="M449.16,348.96576A3,3,0,1,1,455.16,348.96576A3,3,0,1,1,449.16,348.96576Z" id="point-1-22" opacity="1"/><path class="data-point" fill="rgb(128, 35, 146)" data-type="point" transform="translate(0, 0)" d="M467.08,342.67584A3,3,0,1,1,473.08,342.67584A3,3,0,1,1,467.08,342.67584Z" id="point-1-23" opacity="1"/><path class="data-point" fill="rgb(128, 35, 146)" data-type="point" transform="translate(0, 0)" d="M485,342.31392A3,3,0,1,1,491,342.31392A3,3,0,1,1,485,342.31392Z" id="point-1-24" opacity="1"/><path class="data-point" fill="rgb(128, 35, 146)" data-type="point" transform="translate(0, 0)" d="M502.92,333.7464A3,3,0,1,1,508.92,333.7464A3,3,0,1,1,502.92,333.7464Z" id="point-1-25" opacity="1"/><path class="data-point" fill="rgb(128, 35, 146)" data-type="point" transform="translate(0, 0)" d="M520.84,328.05552A3,3,0,1,1,526.84,328.05552A3,3,0,1,1,520.84,328.05552Z" id="point-1-26" opacity="1"/><path class="data-point" fill="rgb(128, 35, 146)" data-type="point" transform="translate(0, 0)" d="M538.76,324.8856A3,3,0,1,1,544.76,324.8856A3,3,0,1,1,538.76,324.8856Z" id="point-1-27" opacity="1"/><path class="data-point" fill="rgb(128, 35, 146)" data-type="point" transform="translate(0, 0)" d="M556.68,318.2683296A3,3,0,1,1,562.68,318.2683296A3,3,0,1,1,556.68,318.2683296Z" id="point-1-28" opacity="1"/><path class="data-point" fill="rgb(128, 35, 146)" data-type="point" transform="translate(0, 0)" d="M574.6,308.0710464A3,3,0,1,1,580.6,308.0710464A3,3,0,1,1,574.6,308.0710464Z" id="point-1-29" opacity="1"/><path class="data-point" fill="rgb(128, 35, 146)" data-type="point" transform="translate(0, 0)" d="M592.52,297.44638560000004A3,3,0,1,1,598.52,297.44638560000004A3,3,0,1,1,592.52,297.44638560000004Z" id="point-1-30" opacity="1"/><path class="data-point" fill="rgb(128, 35, 146)" data-type="point" transform="translate(0, 0)" d="M610.44,286.37643840000004A3,3,0,1,1,616.44,286.37643840000004A3,3,0,1,1,610.44,286.37643840000004Z" id="point-1-31" opacity="1"/><path class="data-point" fill="rgb(128, 35, 146)" data-type="point" transform="translate(0, 0)" d="M628.36,274.842672A3,3,0,1,1,634.36,274.842672A3,3,0,1,1,628.36,274.842672Z" id="point-1-32" opacity="1"/><path class="data-point" fill="rgb(128, 35, 146)" data-type="point" transform="translate(0, 0)" d="M646.2800000000001,262.8254928A3,3,0,1,1,652.2800000000001,262.8254928A3,3,0,1,1,646.2800000000001,262.8254928Z" id="point-1-33" opacity="1"/><path class="data-point" fill="rgb(128, 35, 146)" data-type="point" transform="translate(0, 0)" d="M664.1999999999999,250.3046832A3,3,0,1,1,670.1999999999999,250.3046832A3,3,0,1,1,664.1999999999999,250.3046832Z" id="point-1-34" opacity="1"/><path class="data-point" fill="rgb(128, 35, 146)" data-type="point" transform="translate(0, 0)" d="M682.12,237.25921440000002A3,3,0,1,1,688.12,237.25921440000002A3,3,0,1,1,682.12,237.25921440000002Z" id="point-1-35" opacity="1"/><path class="data-point" fill="rgb(128, 35, 146)" data-type="point" transform="translate(0, 0)" d="M700.04,223.66705920000004A3,3,0,1,1,706.04,223.66705920000004A3,3,0,1,1,700.04,223.66705920000004Z" id="point-1-36" opacity="1"/><path class="data-point" fill="rgb(128, 35, 146)" data-type="point" transform="translate(0, 0)" d="M717.96,209.5052544A3,3,0,1,1,723.96,209.5052544A3,3,0,1,1,717.96,209.5052544Z" id="point-1-37" opacity="1"/><path class="data-point" fill="rgb(128, 35, 146)" data-type="point" transform="translate(0, 0)" d="M735.88,194.75002560000001A3,3,0,1,1,741.88,194.75002560000001A3,3,0,1,1,735.88,194.75002560000001Z" id="point-1-38" opacity="1"/><path class="data-point" fill="rgb(128, 35, 146)" data-type="point" transform="translate(0, 0)" d="M753.8000000000001,179.37641280000003A3,3,0,1,1,759.8000000000001,179.37641280000003A3,3,0,1,1,753.8000000000001,179.37641280000003Z" id="point-1-39" opacity="1"/><path class="data-point" fill="rgb(128, 35, 146)" data-type="point" transform="translate(0, 0)" d="M771.7199999999999,163.35852A3,3,0,1,1,777.7199999999999,163.35852A3,3,0,1,1,771.7199999999999,163.35852Z" id="point-1-40" opacity="1"/><path class="data-point" fill="rgb(128, 35, 146)" data-type="point" transform="translate(0, 0)" d="M789.64,146.66939040000005A3,3,0,1,1,795.64,146.66939040000005A3,3,0,1,1,789.64,146.66939040000005Z" id="point-1-41" opacity="1"/><path class="data-point" fill="rgb(128, 35, 146)" data-type="point" transform="translate(0, 0)" d="M807.56,129.2808192A3,3,0,1,1,813.56,129.2808192A3,3,0,1,1,807.56,129.2808192Z" id="point-1-42" opacity="1"/><path class="data-point" fill="rgb(128, 35, 146)" data-type="point" transform="translate(0, 0)" d="M825.48,111.16360319999995A3,3,0,1,1,831.48,111.16360319999995A3,3,0,1,1,825.48,111.16360319999995Z" id="point-1-43" opacity="1"/><path class="data-point" fill="rgb(128, 35, 146)" data-type="point" transform="translate(0, 0)" d="M843.4,92.28710400000006A3,3,0,1,1,849.4,92.28710400000006A3,3,0,1,1,843.4,92.28710400000006Z" id="point-1-44" opacity="1"/><path class="data-point" fill="rgb(128, 35, 146)" data-type="point" transform="translate(0, 0)" d="M861.32,72.61956000000004A3,3,0,1,1,867.32,72.61956000000004A3,3,0,1,1,861.32,72.61956000000004Z" id="point-1-45" opacity="1"/><path class="data-point" fill="rgb(128, 35, 146)" data-type="point" transform="translate(0, 0)" d="M879.24,52.12783680000007A3,3,0,1,1,885.24,52.12783680000007A3,3,0,1,1,879.24,52.12783680000007Z" id="point-1-46" opacity="1"/></g></g><g id="data-labels"/><g class="annotations above"><g class="axis-highlights" transform="translate(15, 20)" style="opacity: 1;"/></g></svg>