<svg xmlns="http://www.w3.org/2000/svg" xmlns:xlink="http://www.w3.org/1999/xlink" xml:space="preserve" version="1.1" style="shape-rendering:geometricPrecision;text-rendering:geometricPrecision;image-rendering:optimizeQuality;" viewBox="0 0 8158 8449" x="0px" y="0px" fill-rule="evenodd" clip-rule="evenodd"><defs><style type="text/css">
   
    .fil0 {fill:black;fill-rule:nonzero}
   
  </style></defs><g><path class="fil0" d="M5019 365c-285,0 -571,0 -857,0 0,168 0,335 0,502 286,0 572,0 857,0 0,-167 0,-334 0,-502z"></path><path class="fil0" d="M3996 1491c0,-469 0,-939 0,-1408 0,-46 37,-83 83,-83 46,0 83,37 83,83 0,39 0,77 0,116 314,0 627,0 941,0 46,0 83,37 83,83 0,223 0,446 0,668 0,46 -37,84 -83,84 -314,0 -627,0 -941,0l0 457 -166 0z"></path><path class="fil0" d="M2608 3822c-869,417 -1739,835 -2608,1253 0,1124 0,2249 0,3374 869,0 1739,0 2608,0 0,-1543 0,-3085 0,-4627zm-322 2396c-260,0 -519,0 -779,0 -46,0 -83,-37 -83,-83 0,-232 0,-463 0,-695 0,-46 37,-84 83,-84 260,0 519,0 779,0 46,0 83,38 83,84 0,232 0,463 0,695 0,46 -37,83 -83,83zm-1185 0c-259,0 -519,0 -779,0 -46,0 -83,-37 -83,-83 0,-232 0,-463 0,-695 0,-46 37,-84 83,-84 260,0 520,0 779,0 46,0 84,38 84,84 0,232 0,463 0,695 0,46 -38,83 -84,83zm1185 1031c-260,0 -519,0 -779,0 -46,0 -83,-37 -83,-83 0,-232 0,-464 0,-695 0,-47 37,-84 83,-84 260,0 519,0 779,0 46,0 83,37 83,84 0,231 0,463 0,695 0,46 -37,83 -83,83zm-1185 0c-259,0 -519,0 -779,0 -46,0 -83,-37 -83,-83 0,-232 0,-464 0,-695 0,-47 37,-84 83,-84 260,0 520,0 779,0 46,0 84,37 84,84 0,231 0,463 0,695 0,46 -38,83 -84,83zm406 169c260,0 519,0 779,0 46,0 83,37 83,83 0,232 0,464 0,695 0,46 -37,84 -83,84 -260,0 -519,0 -779,0 -46,0 -83,-38 -83,-84 0,-231 0,-463 0,-695 0,-46 37,-83 83,-83zm-1185 0c260,0 520,0 779,0 46,0 84,37 84,83 0,232 0,464 0,695 0,46 -38,84 -84,84 -259,0 -519,0 -779,0 -46,0 -83,-38 -83,-84 0,-231 0,-463 0,-695 0,-46 37,-83 83,-83z"></path><path class="fil0" d="M8158 5075c-870,-418 -1739,-836 -2608,-1253 0,1542 0,3084 0,4627 869,0 1738,0 2608,0 0,-1125 0,-2250 0,-3374zm-323 1143c-259,0 -519,0 -778,0 -46,0 -84,-37 -84,-83 0,-232 0,-463 0,-695 0,-46 38,-84 84,-84 259,0 519,0 778,0 46,0 84,38 84,84 0,232 0,463 0,695 0,46 -38,83 -84,83zm-1184 0c-260,0 -520,0 -779,0 -46,0 -84,-37 -84,-83 0,-232 0,-463 0,-695 0,-46 38,-84 84,-84 259,0 519,0 779,0 46,0 83,38 83,84 0,232 0,463 0,695 0,46 -37,83 -83,83zm1184 1031c-259,0 -519,0 -778,0 -46,0 -84,-37 -84,-83 0,-232 0,-464 0,-695 0,-47 38,-84 84,-84 259,0 519,0 778,0 46,0 84,37 84,84 0,231 0,463 0,695 0,46 -38,83 -84,83zm-1184 0c-260,0 -520,0 -779,0 -46,0 -84,-37 -84,-83 0,-232 0,-464 0,-695 0,-47 38,-84 84,-84 259,0 519,0 779,0 46,0 83,37 83,84 0,231 0,463 0,695 0,46 -37,83 -83,83zm406 169c259,0 519,0 778,0 46,0 84,37 84,83 0,232 0,464 0,695 0,46 -38,84 -84,84 -259,0 -519,0 -778,0 -46,0 -84,-38 -84,-84 0,-231 0,-463 0,-695 0,-46 38,-83 84,-83zm-1185 0c259,0 519,0 779,0 46,0 83,37 83,83 0,232 0,464 0,695 0,46 -37,84 -83,84 -260,0 -520,0 -779,0 -46,0 -84,-38 -84,-84 0,-231 0,-463 0,-695 0,-46 38,-83 84,-83z"></path><path class="fil0" d="M3646 6798c289,0 577,0 866,0 46,0 83,37 83,83 0,523 0,1045 0,1568 263,0 525,0 788,0 0,-2064 0,-4127 0,-6190 -435,-208 -869,-416 -1304,-624 -435,208 -870,416 -1304,624 0,2063 0,4126 0,6190 262,0 525,0 788,0 0,-523 0,-1045 0,-1568 0,-46 37,-83 83,-83zm433 -4950c381,0 691,309 691,691 0,381 -310,691 -691,691 -382,0 -691,-310 -691,-691 0,-382 309,-691 691,-691zm982 2309c-260,0 -520,0 -779,0 -46,0 -84,-37 -84,-83 0,-232 0,-464 0,-696 0,-46 38,-83 84,-83 259,0 519,0 779,0 46,0 83,37 83,83 0,232 0,464 0,696 0,46 -37,83 -83,83zm-1185 0c-260,0 -519,0 -779,0 -46,0 -83,-37 -83,-83 0,-232 0,-464 0,-696 0,-46 37,-83 83,-83 260,0 519,0 779,0 46,0 83,37 83,83 0,232 0,464 0,696 0,46 -37,83 -83,83zm1185 1031c-260,0 -520,0 -779,0 -46,0 -84,-38 -84,-84 0,-231 0,-463 0,-695 0,-46 38,-83 84,-83 259,0 519,0 779,0 46,0 83,37 83,83 0,232 0,464 0,695 0,46 -37,84 -83,84zm-1185 0c-260,0 -519,0 -779,0 -46,0 -83,-38 -83,-84 0,-231 0,-463 0,-695 0,-46 37,-83 83,-83 260,0 519,0 779,0 46,0 83,37 83,83 0,232 0,464 0,695 0,46 -37,84 -83,84zm406 168c259,0 519,0 779,0 46,0 83,38 83,84 0,232 0,463 0,695 0,46 -37,83 -83,83 -260,0 -520,0 -779,0 -46,0 -84,-37 -84,-83 0,-232 0,-463 0,-695 0,-46 38,-84 84,-84zm-1185 0c260,0 519,0 779,0 46,0 83,38 83,84 0,232 0,463 0,695 0,46 -37,83 -83,83 -260,0 -519,0 -779,0 -46,0 -83,-37 -83,-83 0,-232 0,-463 0,-695 0,-46 37,-84 83,-84z"></path></g></svg>