<svg xmlns="http://www.w3.org/2000/svg" id="graphic" width="961" height="634.6"><g id="facets"><g class="facet" transform="translate(15,20)" opacity="1"><text class="facet-title" y="0" font-size="16" font-weight="bold" dominant-baseline="middle" x="0" clip-path="url(#facet-clip-0)" fill="black"/><g class="plot"><clipPath class="facet-clip" id="facet-clip-0"><rect width="951" height="581.6" transform="translate(-7.5,-10)"/></clipPath><g class="bg"><rect fill="none" width="936" height="561.6" style="fill: none;"/></g><g class="interaction"><g class="series"><path data-target="point-0-0" d="M0,477.65639999999996L63.17756007142859,477.65639999999996L71.88952214285716,472.93584L0,235.6347353728272Z" style="opacity: 0;"/><path data-target="point-0-1" d="M0,235.6347353728272L71.88952214285716,472.93584L80.60901052571427,472.93584L89.33529172571428,468.34943999999996L0,132.54756480601415Z" style="opacity: 0;"/><path data-target="point-0-2" d="M0,132.54756480601415L89.33529172571428,468.34943999999996L99.21067600928569,468.34943999999996L108.15299896285715,463.80984L0,112.4600348068229Z" style="opacity: 0;"/><path data-target="point-0-3" d="M0,112.4600348068229L108.15299896285715,463.80984L116.78473433714285,463.80984L125.13458107428569,459.77567999999997L13.70466091428635,0L0,0Z" style="opacity: 0;"/><path data-target="point-0-4" d="M13.70466091428635,0L125.13458107428569,459.77567999999997L133.95182195428566,459.77567999999997L143.47710618285714,455.15808L72.72817356556523,189.22035503233005L14.811539718571396,0Z" style="opacity: 0;"/><path data-target="point-0-5" d="M72.72817356556523,189.22035503233005L143.47710618285714,455.15808L151.76611680000002,455.15808L162.91626359999998,449.78544Z" style="opacity: 0;"/><path data-target="point-0-6" d="M14.811539718571396,0L72.72817356556523,189.22035503233005L162.91626359999998,449.78544L168.88927793714285,449.78544L179.9639657542857,444.59376L50.53954654857171,0Z" style="opacity: 0;"/><path data-target="point-0-7" d="M50.53954654857171,0L179.9639657542857,444.59376L187.31182394214284,444.59376L197.56472958285713,439.86072L126.39394156727884,176.47424571554424L84.30573756023995,41.122970877391595L78.12994456966149,25.494128227048066L67.30837001571423,0Z" style="opacity: 0;"/><path data-target="point-0-8" d="M126.39394156727884,176.47424571554424L197.56472958285713,439.86072L204.95981590714283,439.86072L217.05967510714288,434.26968Z" style="opacity: 0;"/><path data-target="point-0-9" d="M84.30573756023995,41.122970877391595L126.39394156727884,176.47424571554424L217.05967510714288,434.26968L221.90493530285713,434.26968L235.73192042285712,427.97975999999994L102.58055305142858,81.6179719658121Z" style="opacity: 0;"/><path data-target="point-0-10" d="M102.58055305142858,81.6179719658121L235.73192042285712,427.97975999999994L238.54774725714285,427.97975999999994L254.48426377142852,420.73824L163.61153286531072,207.5292182661878Z" style="opacity: 0;"/><path data-target="point-0-11" d="M163.61153286531072,207.5292182661878L254.48426377142852,420.73824L254.74810031142857,420.73823999999996L272.82961318985963,412.3113662644318L274.0546707528335,410.8433445548545Z" style="opacity: 0;"/><path data-target="point-0-12" d="M78.12994456966149,25.494128227048066L84.30573756023995,41.122970877391595L102.58055305142858,81.6179719658121L163.61153286531072,207.5292182661878L274.0546707528335,410.8433445548545L290.6344022797635,403.34868250939985L292.61355831608,401.0751904471696Z" style="opacity: 0;"/><path data-target="point-0-13" d="M67.30837001571423,0L78.12994456966149,25.494128227048066L292.61355831608,401.0751904471696L308.102200373599,394.37636471948144L311.3581248281787,390.814327709343L74.56651520000042,0Z" style="opacity: 0;"/><path data-target="point-0-14" d="M74.56651520000042,0L311.3581248281787,390.814327709343L324.6682406258146,385.3459554216968L329.66814027978404,380.00616881486957L93.86752670571343,0Z" style="opacity: 0;"/><path data-target="point-0-15" d="M93.86752670571343,0L329.66814027978404,380.00616881486957L342.7972404309557,374.7402355068506L347.63373818819537,369.8183965781871L125.88138214000054,0Z" style="opacity: 0;"/><path data-target="point-0-16" d="M125.88138214000054,0L347.63373818819537,369.8183965781871L361.9295264180947,364.24487345479713L365.98840806604886,360.4455659248698L155.127752,0Z" style="opacity: 0;"/><path data-target="point-0-17" d="M155.127752,0L365.98840806604886,360.4455659248698L377.6590282558399,356.15748670126345L383.269941123458,351.01272590965635L194.18377333499967,0Z" style="opacity: 0;"/><path data-target="point-0-18" d="M194.18377333499967,0L383.269941123458,351.01272590965635L396.3458140289692,346.2052461049849L401.42972215044466,341.64774921972514L216.3176505999996,0Z" style="opacity: 0;"/><path data-target="point-0-19" d="M216.3176505999996,0L401.42972215044466,341.64774921972514L414.4741732816012,336.943367973482L418.81277079976303,333.18369322893193L252.78912137642874,0Z" style="opacity: 0;"/><path data-target="point-0-20" d="M252.78912137642874,0L418.81277079976303,333.18369322893193L433.52948270940834,327.9394473185458L438.35890893663895,323.93565936442553L256.0756857599995,0Z" style="opacity: 0;"/><path data-target="point-0-21" d="M256.0756857599995,0L438.35890893663895,323.93565936442553L451.84702146251254,319.402057727956L453.5939696404881,318.07061483549273L358.467156270877,80.10485281019729L322.2890868985716,0Z" style="opacity: 0;"/><path data-target="point-0-22" d="M358.467156270877,80.10485281019729L453.5939696404881,318.07061483549273L474.76235310285716,311.07024Z" style="opacity: 0;"/><path data-target="point-0-23" d="M322.2890868985716,0L358.467156270877,80.10485281019729L474.76235310285716,311.07024L478.40533450285716,311.07024L483.39088728070743,309.6487264078144L492.1489640538545,303.86613071545673L352.4790675428579,0Z" style="opacity: 0;"/><path data-target="point-0-24" d="M352.4790675428579,0L492.1489640538545,303.86613071545673L495.3272608214286,302.95512L498.28345815717205,246.35783767465426L385.3041937242856,0Z" style="opacity: 0;"/><path data-target="point-0-25" d="M495.3272608214286,302.95512L506.0051996685715,302.95511999999997L516.8420022701979,299.4806224965944L535.0527592298178,284.2866775668619L498.28345815717205,246.35783767465426Z" style="opacity: 0;"/><path data-target="point-0-26" d="M385.3041937242856,0L498.28345815717205,246.35783767465426L535.0527592298178,284.2866775668619L546.1933854406964,280.9774519544307L559.0808122276258,272.9951277535603L565.2329047971139,266.78753706008854L576.874640940793,247.2239361111351L585.3809604175092,223.09311246785245L590.6605847369303,194.78203405217317L592.710295404951,162.7778405021724L591.610521804859,127.63996470034259L587.5151909508846,89.96728590381832L580.6362302168,50.36167067245648L571.2243422102994,9.39417714931082L568.6013793475128,0Z" style="opacity: 0;"/><path data-target="point-0-27" d="M516.8420022701979,299.4806224965944L531.6558994542858,320.0028L550.138712342101,320.0028L550.9365179627232,315.461765L546.1933854406964,280.9774519544307L535.0527592298178,284.2866775668619Z" style="opacity: 0;"/><path data-target="point-0-28" d="M546.1933854406964,280.9774519544307L550.9365179627232,315.461765L569.2028976396875,315.461765L568.3215445518125,309.118243L559.0808122276258,272.9951277535603Z" style="opacity: 0;"/><path data-target="point-0-29" d="M568.3215445518125,309.118243L569.2028976396875,315.461765L595.7043757212773,374.0712842236462L586.5894922488482,309.118243Z" style="opacity: 0;"/><path data-target="point-0-30" d="M586.4353956239074,302.54855299999997L586.5894922488482,309.118243L595.7043757212773,374.0712842236462L630.9202095617068,492.94318522971014L603.936870299366,302.54855299999997Z" style="opacity: 0;"/><path data-target="point-0-31" d="M603.936870299366,302.54855299999997L630.9202095617068,492.94318522971014L647.7233647404454,561.6L659.2912129207141,561.6L621.2429092817054,295.743739L606.8473917750556,295.743739Z" style="opacity: 0;"/><path data-target="point-0-32" d="M621.2429092817054,295.743739L659.2912129207141,561.6L677.9426683392861,561.6L638.5053921353572,288.69453599999997L627.6036986031498,288.69453599999997Z" style="opacity: 0;"/><path data-target="point-0-33" d="M638.5053921353572,288.69453599999997L677.9426683392861,561.6L696.6049445864284,561.6L655.7219724878258,281.3911465L648.7407860380835,281.3911465Z" style="opacity: 0;"/><path data-target="point-0-34" d="M655.7219724878258,281.3911465L696.6049445864284,561.6L715.3710844914283,561.6L672.8829341286071,273.8234615L670.2985276508111,273.8234615Z" style="opacity: 0;"/><path data-target="point-0-35" d="M672.8829341286071,273.8234615L715.3710844914283,561.6L734.0571730800003,561.6L690.1305330194618,266.86098210039114Z" style="opacity: 0;"/><path data-target="point-0-36" d="M690.1305330194618,266.86098210039114L734.0571730800003,561.6L752.7544214628568,561.6L707.426590610791,260.275388447804L691.87206623429,265.36493849587345Z" style="opacity: 0;"/><path data-target="point-0-37" d="M707.426590610791,260.275388447804L752.7544214628568,561.6L771.4629339371428,561.6L724.619145232899,253.05469684337112L713.5141990806474,256.0853316210239Z" style="opacity: 0;"/><path data-target="point-0-38" d="M724.619145232899,253.05469684337112L771.4629339371428,561.6L790.2795275850003,561.6L741.7103380528096,245.3171214834976L735.7924342691366,246.69251809041359Z" style="opacity: 0;"/><path data-target="point-0-39" d="M741.7103380528096,245.3171214834976L790.2795275850003,561.6L809.0128128035711,561.6L758.7318757685317,237.11339971625276L758.7277607232766,237.11422727341386Z" style="opacity: 0;"/><path data-target="point-0-40" d="M758.7318757685317,237.11339971625276L809.0128128035711,561.6L827.7577010792855,561.6L775.9098219702726,229.98201929019066Z" style="opacity: 0;"/><path data-target="point-0-41" d="M775.9098219702726,229.98201929019066L827.7577010792855,561.6L846.6139385057146,561.6L792.9612077017217,222.2175392495672L781.5473597781537,226.35365091807407Z" style="opacity: 0;"/><path data-target="point-0-42" d="M792.9612077017217,222.2175392495672L846.6139385057146,561.6L865.484973089286,561.5999999999999L809.9088545400328,213.8805833463876L805.1272276204901,215.40950866866612Z" style="opacity: 0;"/><path data-target="point-0-43" d="M809.9088545400328,213.8805833463876L865.484973089286,561.5999999999999L884.2693204507143,561.6L826.863455809496,205.53549095550486Z" style="opacity: 0;"/><path data-target="point-0-44" d="M826.863455809496,205.53549095550486L884.2693204507143,561.6L903.1684022742859,561.6L843.8417028716972,197.55275404942444L829.2396159571393,203.93372001782538Z" style="opacity: 0;"/><path data-target="point-0-45" d="M843.8417028716972,197.55275404942444L903.1684022742859,561.6L921.9790477257135,561.6L860.726663613485,188.92143521459718L853.7010666921948,191.66848247362014Z" style="opacity: 0;"/><path data-target="point-0-46" d="M860.726663613485,188.92143521459718L921.9790477257135,561.6L936,561.6L936,163.08099622123677L908.190871706558,168.89117810452638L879.0864206573127,179.14021794869714Z" style="opacity: 0;"/><path data-target="point-1-0" d="M81.97268201071425,561.6L63.17756007142859,477.65639999999996L0,477.65639999999996L0,561.6Z" style="opacity: 0;"/><path data-target="point-1-1" d="M63.17756007142859,477.65639999999996L81.97268201071425,561.6L102.40614428857144,561.6L80.60901052571427,472.93584L71.88952214285716,472.93584Z" style="opacity: 0;"/><path data-target="point-1-2" d="M80.60901052571427,472.93584L102.40614428857144,561.6L117.75171815785714,561.6L99.21067600928569,468.34943999999996L89.33529172571428,468.34943999999996Z" style="opacity: 0;"/><path data-target="point-1-3" d="M99.21067600928569,468.34943999999996L117.75171815785714,561.6L137.1137369735714,561.6L116.78473433714285,463.80984L108.15299896285715,463.80984Z" style="opacity: 0;"/><path data-target="point-1-4" d="M116.78473433714285,463.80984L137.1137369735714,561.6L159.33880688000013,561.6L133.95182195428566,459.77567999999997L125.13458107428569,459.77567999999997Z" style="opacity: 0;"/><path data-target="point-1-5" d="M133.95182195428566,459.77567999999997L159.33880688000013,561.6L178.74914351999985,561.6L151.76611680000002,455.15808L143.47710618285714,455.15808Z" style="opacity: 0;"/><path data-target="point-1-6" d="M151.76611680000002,455.15808L178.74914351999985,561.6L201.12781161142857,561.6L168.88927793714285,449.78544L162.91626359999998,449.78544Z" style="opacity: 0;"/><path data-target="point-1-7" d="M168.88927793714285,449.78544L201.12781161142857,561.6L217.50256795785728,561.6L187.31182394214284,444.59376L179.9639657542857,444.59376Z" style="opacity: 0;"/><path data-target="point-1-8" d="M187.31182394214284,444.59376L217.50256795785728,561.6L238.10985663428576,561.6L204.95981590714283,439.86072L197.56472958285713,439.86072Z" style="opacity: 0;"/><path data-target="point-1-9" d="M204.95981590714283,439.86072L238.10985663428576,561.6L262.34140692571424,561.6L221.90493530285713,434.26968L217.05967510714288,434.26968Z" style="opacity: 0;"/><path data-target="point-1-10" d="M221.90493530285713,434.26968L262.34140692571424,561.6L289.5894858992857,561.6L238.54774725714285,427.97975999999994L235.73192042285712,427.97975999999994Z" style="opacity: 0;"/><path data-target="point-1-11" d="M238.54774725714285,427.97975999999994L289.5894858992857,561.6L322.53530692285705,561.6L254.74810031142857,420.73823999999996L254.48426377142852,420.73824Z" style="opacity: 0;"/><path data-target="point-1-12" d="M254.74810031142857,420.73823999999996L322.53530692285705,561.6L343.9963046521431,561.6L272.82961318985963,412.3113662644318Z" style="opacity: 0;"/><path data-target="point-1-13" d="M272.82961318985963,412.3113662644318L343.9963046521431,561.6L365.19196719071385,561.6L290.6344022797635,403.34868250939985L274.0546707528335,410.8433445548545Z" style="opacity: 0;"/><path data-target="point-1-14" d="M290.6344022797635,403.34868250939985L365.19196719071385,561.6L389.0414259857146,561.6L308.102200373599,394.37636471948144L292.61355831608,401.0751904471696Z" style="opacity: 0;"/><path data-target="point-1-15" d="M308.102200373599,394.37636471948144L389.0414259857146,561.6L423.6034127199998,561.6L324.6682406258146,385.3459554216968L311.3581248281787,390.814327709343Z" style="opacity: 0;"/><path data-target="point-1-16" d="M324.6682406258146,385.3459554216968L423.6034127199998,561.6L441.43917539428554,561.6L342.7972404309557,374.7402355068506L329.66814027978404,380.00616881486957Z" style="opacity: 0;"/><path data-target="point-1-17" d="M342.7972404309557,374.7402355068506L441.43917539428554,561.6L446.45743195714317,561.6L361.9295264180947,364.24487345479713L347.63373818819537,369.8183965781871Z" style="opacity: 0;"/><path data-target="point-1-18" d="M361.9295264180947,364.24487345479713L446.45743195714317,561.6L488.68603222857143,561.6L377.6590282558399,356.15748670126345L365.98840806604886,360.4455659248698Z" style="opacity: 0;"/><path data-target="point-1-19" d="M377.6590282558399,356.15748670126345L488.68603222857143,561.6L501.65077067428575,561.6L396.3458140289692,346.2052461049849L383.269941123458,351.01272590965635Z" style="opacity: 0;"/><path data-target="point-1-20" d="M396.3458140289692,346.2052461049849L501.65077067428575,561.6L516.1962902399999,561.6L510.89608470888857,544.3620576854989L414.4741732816012,336.943367973482L401.42972215044466,341.64774921972514Z" style="opacity: 0;"/><path data-target="point-1-21" d="M414.4741732816012,336.943367973482L510.89608470888857,544.3620576854989L496.4443951758851,487.69074968870655L433.52948270940834,327.9394473185458L418.81277079976303,333.18369322893193Z" style="opacity: 0;"/><path data-target="point-1-22" d="M433.52948270940834,327.9394473185458L496.4443951758851,487.69074968870655L480.20533587301054,400.1949762763834L451.84702146251254,319.402057727956L438.35890893663895,323.93565936442553Z" style="opacity: 0;"/><path data-target="point-1-23" d="M451.84702146251254,319.402057727956L480.20533587301054,400.1949762763834L478.40533450285716,311.07024L474.76235310285716,311.07024L453.5939696404881,318.07061483549273Z" style="opacity: 0;"/><path data-target="point-1-24" d="M478.40533450285716,311.07024L480.20533587301054,400.1949762763834L496.4443951758851,487.69074968870655L510.89608470888857,544.3620576854989L516.1962902399999,561.6L588.794827805,561.6L557.0965681860521,463.8224496041707L557.074259227393,463.7663736715034L483.39088728070743,309.6487264078144Z" style="opacity: 0;"/><path data-target="point-1-25" d="M483.39088728070743,309.6487264078144L557.074259227393,463.7663736715034L506.0051996685715,302.95511999999997L495.3272608214286,302.95512L492.1489640538545,303.86613071545673Z" style="opacity: 0;"/><path data-target="point-1-26" d="M506.0051996685715,302.95511999999997L557.074259227393,463.7663736715034L557.0965681860521,463.8224496041707L531.6558994542858,320.0028L516.8420022701979,299.4806224965944Z" style="opacity: 0;"/><path data-target="point-1-27" d="M531.6558994542858,320.0028L557.0965681860521,463.8224496041707L588.794827805,561.6L639.3526578579497,561.6L550.138712342101,320.0028Z" style="opacity: 0;"/><path data-target="point-1-28" d="M550.138712342101,320.0028L639.3526578579497,561.6L647.7233647404454,561.6L630.9202095617068,492.94318522971014L595.7043757212773,374.0712842236462L569.2028976396875,315.461765L550.9365179627232,315.461765Z" style="opacity: 0;"/><path data-target="point-1-29" d="M559.0808122276258,272.9951277535603L568.3215445518125,309.118243L586.5894922488482,309.118243L586.4353956239074,302.54855299999997L565.2329047971139,266.78753706008854Z" style="opacity: 0;"/><path data-target="point-1-30" d="M565.2329047971139,266.78753706008854L586.4353956239074,302.54855299999997L603.936870299366,302.54855299999997L606.8473917750556,295.743739L576.874640940793,247.2239361111351Z" style="opacity: 0;"/><path data-target="point-1-31" d="M576.874640940793,247.2239361111351L606.8473917750556,295.743739L621.2429092817054,295.743739L627.6036986031498,288.69453599999997L585.3809604175092,223.09311246785245Z" style="opacity: 0;"/><path data-target="point-1-32" d="M585.3809604175092,223.09311246785245L627.6036986031498,288.69453599999997L638.5053921353572,288.69453599999997L648.7407860380835,281.3911465L590.6605847369303,194.78203405217317Z" style="opacity: 0;"/><path data-target="point-1-33" d="M590.6605847369303,194.78203405217317L648.7407860380835,281.3911465L655.7219724878258,281.3911465L670.2985276508111,273.8234615L592.710295404951,162.7778405021724Z" style="opacity: 0;"/><path data-target="point-1-34" d="M591.610521804859,127.63996470034259L592.710295404951,162.7778405021724L670.2985276508111,273.8234615L672.8829341286071,273.8234615L690.1305330194618,266.86098210039114L691.87206623429,265.36493849587345Z" style="opacity: 0;"/><path data-target="point-1-35" d="M587.5151909508846,89.96728590381832L591.610521804859,127.63996470034259L691.87206623429,265.36493849587345L707.426590610791,260.275388447804L713.5141990806474,256.0853316210239Z" style="opacity: 0;"/><path data-target="point-1-36" d="M580.6362302168,50.36167067245648L587.5151909508846,89.96728590381832L713.5141990806474,256.0853316210239L724.619145232899,253.05469684337112L735.7924342691366,246.69251809041359Z" style="opacity: 0;"/><path data-target="point-1-37" d="M571.2243422102994,9.39417714931082L580.6362302168,50.36167067245648L735.7924342691366,246.69251809041359L741.7103380528096,245.3171214834976L758.7277607232766,237.11422727341386Z" style="opacity: 0;"/><path data-target="point-1-38" d="M568.6013793475128,0L571.2243422102994,9.39417714931082L758.7277607232766,237.11422727341386L758.7318757685317,237.11339971625276L775.9098219702726,229.98201929019066L781.5473597781537,226.35365091807407L587.3579942451418,0Z" style="opacity: 0;"/><path data-target="point-1-39" d="M587.3579942451418,0L781.5473597781537,226.35365091807407L792.9612077017217,222.2175392495672L805.1272276204901,215.40950866866612L612.5822242143923,0Z" style="opacity: 0;"/><path data-target="point-1-40" d="M612.5822242143923,0L805.1272276204901,215.40950866866612L809.9088545400328,213.8805833463876L826.863455809496,205.53549095550486L829.2396159571393,203.93372001782538L639.31347953074,0Z" style="opacity: 0;"/><path data-target="point-1-41" d="M639.31347953074,0L829.2396159571393,203.93372001782538L843.8417028716972,197.55275404942444L853.7010666921948,191.66848247362014L667.7166349982883,0Z" style="opacity: 0;"/><path data-target="point-1-42" d="M667.7166349982883,0L853.7010666921948,191.66848247362014L860.726663613485,188.92143521459718L879.0864206573127,179.14021794869714L697.9747006314415,2.842170943040401e-14Z" style="opacity: 0;"/><path data-target="point-1-43" d="M697.9747006314415,2.842170943040401e-14L879.0864206573127,179.14021794869714L908.190871706558,168.89117810452638L730.2849479008147,0Z" style="opacity: 0;"/><path data-target="point-1-44" d="M730.2849479008147,0L908.190871706558,168.89117810452638L936,163.08099622123677L936,155.92812885312998L764.8658853205015,0Z" style="opacity: 0;"/><path data-target="point-1-45" d="M764.8658853205015,0L936,155.92812885312998L936,117.22230249489132L801.9549691881969,0Z" style="opacity: 0;"/><path data-target="point-1-46" d="M801.9549691881969,0L936,117.22230249489132L936,0Z" style="opacity: 0;"/></g><g class="series"><path data-target="point-0-0" d="M0,477.65639999999996L63.17756007142859,477.65639999999996L71.88952214285716,472.93584L0,235.6347353728272Z" style="opacity: 0;"/><path data-target="point-0-1" d="M0,235.6347353728272L71.88952214285716,472.93584L80.60901052571427,472.93584L89.33529172571428,468.34943999999996L0,132.54756480601415Z" style="opacity: 0;"/><path data-target="point-0-2" d="M0,132.54756480601415L89.33529172571428,468.34943999999996L99.21067600928569,468.34943999999996L108.15299896285715,463.80984L0,112.4600348068229Z" style="opacity: 0;"/><path data-target="point-0-3" d="M0,112.4600348068229L108.15299896285715,463.80984L116.78473433714285,463.80984L125.13458107428569,459.77567999999997L13.70466091428635,0L0,0Z" style="opacity: 0;"/><path data-target="point-0-4" d="M13.70466091428635,0L125.13458107428569,459.77567999999997L133.95182195428566,459.77567999999997L143.47710618285714,455.15808L72.72817356556523,189.22035503233005L14.811539718571396,0Z" style="opacity: 0;"/><path data-target="point-0-5" d="M72.72817356556523,189.22035503233005L143.47710618285714,455.15808L151.76611680000002,455.15808L162.91626359999998,449.78544Z" style="opacity: 0;"/><path data-target="point-0-6" d="M14.811539718571396,0L72.72817356556523,189.22035503233005L162.91626359999998,449.78544L168.88927793714285,449.78544L179.9639657542857,444.59376L50.53954654857171,0Z" style="opacity: 0;"/><path data-target="point-0-7" d="M50.53954654857171,0L179.9639657542857,444.59376L187.31182394214284,444.59376L197.56472958285713,439.86072L126.39394156727884,176.47424571554424L84.30573756023995,41.122970877391595L78.12994456966149,25.494128227048066L67.30837001571423,0Z" style="opacity: 0;"/><path data-target="point-0-8" d="M126.39394156727884,176.47424571554424L197.56472958285713,439.86072L204.95981590714283,439.86072L217.05967510714288,434.26968Z" style="opacity: 0;"/><path data-target="point-0-9" d="M84.30573756023995,41.122970877391595L126.39394156727884,176.47424571554424L217.05967510714288,434.26968L221.90493530285713,434.26968L235.73192042285712,427.97975999999994L102.58055305142858,81.6179719658121Z" style="opacity: 0;"/><path data-target="point-0-10" d="M102.58055305142858,81.6179719658121L235.73192042285712,427.97975999999994L238.54774725714285,427.97975999999994L254.48426377142852,420.73824L163.61153286531072,207.5292182661878Z" style="opacity: 0;"/><path data-target="point-0-11" d="M163.61153286531072,207.5292182661878L254.48426377142852,420.73824L254.74810031142857,420.73823999999996L272.82961318985963,412.3113662644318L274.0546707528335,410.8433445548545Z" style="opacity: 0;"/><path data-target="point-0-12" d="M78.12994456966149,25.494128227048066L84.30573756023995,41.122970877391595L102.58055305142858,81.6179719658121L163.61153286531072,207.5292182661878L274.0546707528335,410.8433445548545L290.6344022797635,403.34868250939985L292.61355831608,401.0751904471696Z" style="opacity: 0;"/><path data-target="point-0-13" d="M67.30837001571423,0L78.12994456966149,25.494128227048066L292.61355831608,401.0751904471696L308.102200373599,394.37636471948144L311.3581248281787,390.814327709343L74.56651520000042,0Z" style="opacity: 0;"/><path data-target="point-0-14" d="M74.56651520000042,0L311.3581248281787,390.814327709343L324.6682406258146,385.3459554216968L329.66814027978404,380.00616881486957L93.86752670571343,0Z" style="opacity: 0;"/><path data-target="point-0-15" d="M93.86752670571343,0L329.66814027978404,380.00616881486957L342.7972404309557,374.7402355068506L347.63373818819537,369.8183965781871L125.88138214000054,0Z" style="opacity: 0;"/><path data-target="point-0-16" d="M125.88138214000054,0L347.63373818819537,369.8183965781871L361.9295264180947,364.24487345479713L365.98840806604886,360.4455659248698L155.127752,0Z" style="opacity: 0;"/><path data-target="point-0-17" d="M155.127752,0L365.98840806604886,360.4455659248698L377.6590282558399,356.15748670126345L383.269941123458,351.01272590965635L194.18377333499967,0Z" style="opacity: 0;"/><path data-target="point-0-18" d="M194.18377333499967,0L383.269941123458,351.01272590965635L396.3458140289692,346.2052461049849L401.42972215044466,341.64774921972514L216.3176505999996,0Z" style="opacity: 0;"/><path data-target="point-0-19" d="M216.3176505999996,0L401.42972215044466,341.64774921972514L414.4741732816012,336.943367973482L418.81277079976303,333.18369322893193L252.78912137642874,0Z" style="opacity: 0;"/><path data-target="point-0-20" d="M252.78912137642874,0L418.81277079976303,333.18369322893193L433.52948270940834,327.9394473185458L438.35890893663895,323.93565936442553L256.0756857599995,0Z" style="opacity: 0;"/><path data-target="point-0-21" d="M256.0756857599995,0L438.35890893663895,323.93565936442553L451.84702146251254,319.402057727956L453.5939696404881,318.07061483549273L358.467156270877,80.10485281019729L322.2890868985716,0Z" style="opacity: 0;"/><path data-target="point-0-22" d="M358.467156270877,80.10485281019729L453.5939696404881,318.07061483549273L474.76235310285716,311.07024Z" style="opacity: 0;"/><path data-target="point-0-23" d="M322.2890868985716,0L358.467156270877,80.10485281019729L474.76235310285716,311.07024L478.40533450285716,311.07024L483.39088728070743,309.6487264078144L492.1489640538545,303.86613071545673L352.4790675428579,0Z" style="opacity: 0;"/><path data-target="point-0-24" d="M352.4790675428579,0L492.1489640538545,303.86613071545673L495.3272608214286,302.95512L498.28345815717205,246.35783767465426L385.3041937242856,0Z" style="opacity: 0;"/><path data-target="point-0-25" d="M495.3272608214286,302.95512L506.0051996685715,302.95511999999997L516.8420022701979,299.4806224965944L535.0527592298178,284.2866775668619L498.28345815717205,246.35783767465426Z" style="opacity: 0;"/><path data-target="point-0-26" d="M385.3041937242856,0L498.28345815717205,246.35783767465426L535.0527592298178,284.2866775668619L546.1933854406964,280.9774519544307L559.0808122276258,272.9951277535603L565.2329047971139,266.78753706008854L576.874640940793,247.2239361111351L585.3809604175092,223.09311246785245L590.6605847369303,194.78203405217317L592.710295404951,162.7778405021724L591.610521804859,127.63996470034259L587.5151909508846,89.96728590381832L580.6362302168,50.36167067245648L571.2243422102994,9.39417714931082L568.6013793475128,0Z" style="opacity: 0;"/><path data-target="point-0-27" d="M516.8420022701979,299.4806224965944L531.6558994542858,320.0028L550.138712342101,320.0028L550.9365179627232,315.461765L546.1933854406964,280.9774519544307L535.0527592298178,284.2866775668619Z" style="opacity: 0;"/><path data-target="point-0-28" d="M546.1933854406964,280.9774519544307L550.9365179627232,315.461765L569.2028976396875,315.461765L568.3215445518125,309.118243L559.0808122276258,272.9951277535603Z" style="opacity: 0;"/><path data-target="point-0-29" d="M568.3215445518125,309.118243L569.2028976396875,315.461765L595.7043757212773,374.0712842236462L586.5894922488482,309.118243Z" style="opacity: 0;"/><path data-target="point-0-30" d="M586.4353956239074,302.54855299999997L586.5894922488482,309.118243L595.7043757212773,374.0712842236462L630.9202095617068,492.94318522971014L603.936870299366,302.54855299999997Z" style="opacity: 0;"/><path data-target="point-0-31" d="M603.936870299366,302.54855299999997L630.9202095617068,492.94318522971014L647.7233647404454,561.6L659.2912129207141,561.6L621.2429092817054,295.743739L606.8473917750556,295.743739Z" style="opacity: 0;"/><path data-target="point-0-32" d="M621.2429092817054,295.743739L659.2912129207141,561.6L677.9426683392861,561.6L638.5053921353572,288.69453599999997L627.6036986031498,288.69453599999997Z" style="opacity: 0;"/><path data-target="point-0-33" d="M638.5053921353572,288.69453599999997L677.9426683392861,561.6L696.6049445864284,561.6L655.7219724878258,281.3911465L648.7407860380835,281.3911465Z" style="opacity: 0;"/><path data-target="point-0-34" d="M655.7219724878258,281.3911465L696.6049445864284,561.6L715.3710844914283,561.6L672.8829341286071,273.8234615L670.2985276508111,273.8234615Z" style="opacity: 0;"/><path data-target="point-0-35" d="M672.8829341286071,273.8234615L715.3710844914283,561.6L734.0571730800003,561.6L690.1305330194618,266.86098210039114Z" style="opacity: 0;"/><path data-target="point-0-36" d="M690.1305330194618,266.86098210039114L734.0571730800003,561.6L752.7544214628568,561.6L707.426590610791,260.275388447804L691.87206623429,265.36493849587345Z" style="opacity: 0;"/><path data-target="point-0-37" d="M707.426590610791,260.275388447804L752.7544214628568,561.6L771.4629339371428,561.6L724.619145232899,253.05469684337112L713.5141990806474,256.0853316210239Z" style="opacity: 0;"/><path data-target="point-0-38" d="M724.619145232899,253.05469684337112L771.4629339371428,561.6L790.2795275850003,561.6L741.7103380528096,245.3171214834976L735.7924342691366,246.69251809041359Z" style="opacity: 0;"/><path data-target="point-0-39" d="M741.7103380528096,245.3171214834976L790.2795275850003,561.6L809.0128128035711,561.6L758.7318757685317,237.11339971625276L758.7277607232766,237.11422727341386Z" style="opacity: 0;"/><path data-target="point-0-40" d="M758.7318757685317,237.11339971625276L809.0128128035711,561.6L827.7577010792855,561.6L775.9098219702726,229.98201929019066Z" style="opacity: 0;"/><path data-target="point-0-41" d="M775.9098219702726,229.98201929019066L827.7577010792855,561.6L846.6139385057146,561.6L792.9612077017217,222.2175392495672L781.5473597781537,226.35365091807407Z" style="opacity: 0;"/><path data-target="point-0-42" d="M792.9612077017217,222.2175392495672L846.6139385057146,561.6L865.484973089286,561.5999999999999L809.9088545400328,213.8805833463876L805.1272276204901,215.40950866866612Z" style="opacity: 0;"/><path data-target="point-0-43" d="M809.9088545400328,213.8805833463876L865.484973089286,561.5999999999999L884.2693204507143,561.6L826.863455809496,205.53549095550486Z" style="opacity: 0;"/><path data-target="point-0-44" d="M826.863455809496,205.53549095550486L884.2693204507143,561.6L903.1684022742859,561.6L843.8417028716972,197.55275404942444L829.2396159571393,203.93372001782538Z" style="opacity: 0;"/><path data-target="point-0-45" d="M843.8417028716972,197.55275404942444L903.1684022742859,561.6L921.9790477257135,561.6L860.726663613485,188.92143521459718L853.7010666921948,191.66848247362014Z" style="opacity: 0;"/><path data-target="point-0-46" d="M860.726663613485,188.92143521459718L921.9790477257135,561.6L936,561.6L936,163.08099622123677L908.190871706558,168.89117810452638L879.0864206573127,179.14021794869714Z" style="opacity: 0;"/><path data-target="point-1-0" d="M81.97268201071425,561.6L63.17756007142859,477.65639999999996L0,477.65639999999996L0,561.6Z" style="opacity: 0;"/><path data-target="point-1-1" d="M63.17756007142859,477.65639999999996L81.97268201071425,561.6L102.40614428857144,561.6L80.60901052571427,472.93584L71.88952214285716,472.93584Z" style="opacity: 0;"/><path data-target="point-1-2" d="M80.60901052571427,472.93584L102.40614428857144,561.6L117.75171815785714,561.6L99.21067600928569,468.34943999999996L89.33529172571428,468.34943999999996Z" style="opacity: 0;"/><path data-target="point-1-3" d="M99.21067600928569,468.34943999999996L117.75171815785714,561.6L137.1137369735714,561.6L116.78473433714285,463.80984L108.15299896285715,463.80984Z" style="opacity: 0;"/><path data-target="point-1-4" d="M116.78473433714285,463.80984L137.1137369735714,561.6L159.33880688000013,561.6L133.95182195428566,459.77567999999997L125.13458107428569,459.77567999999997Z" style="opacity: 0;"/><path data-target="point-1-5" d="M133.95182195428566,459.77567999999997L159.33880688000013,561.6L178.74914351999985,561.6L151.76611680000002,455.15808L143.47710618285714,455.15808Z" style="opacity: 0;"/><path data-target="point-1-6" d="M151.76611680000002,455.15808L178.74914351999985,561.6L201.12781161142857,561.6L168.88927793714285,449.78544L162.91626359999998,449.78544Z" style="opacity: 0;"/><path data-target="point-1-7" d="M168.88927793714285,449.78544L201.12781161142857,561.6L217.50256795785728,561.6L187.31182394214284,444.59376L179.9639657542857,444.59376Z" style="opacity: 0;"/><path data-target="point-1-8" d="M187.31182394214284,444.59376L217.50256795785728,561.6L238.10985663428576,561.6L204.95981590714283,439.86072L197.56472958285713,439.86072Z" style="opacity: 0;"/><path data-target="point-1-9" d="M204.95981590714283,439.86072L238.10985663428576,561.6L262.34140692571424,561.6L221.90493530285713,434.26968L217.05967510714288,434.26968Z" style="opacity: 0;"/><path data-target="point-1-10" d="M221.90493530285713,434.26968L262.34140692571424,561.6L289.5894858992857,561.6L238.54774725714285,427.97975999999994L235.73192042285712,427.97975999999994Z" style="opacity: 0;"/><path data-target="point-1-11" d="M238.54774725714285,427.97975999999994L289.5894858992857,561.6L322.53530692285705,561.6L254.74810031142857,420.73823999999996L254.48426377142852,420.73824Z" style="opacity: 0;"/><path data-target="point-1-12" d="M254.74810031142857,420.73823999999996L322.53530692285705,561.6L343.9963046521431,561.6L272.82961318985963,412.3113662644318Z" style="opacity: 0;"/><path data-target="point-1-13" d="M272.82961318985963,412.3113662644318L343.9963046521431,561.6L365.19196719071385,561.6L290.6344022797635,403.34868250939985L274.0546707528335,410.8433445548545Z" style="opacity: 0;"/><path data-target="point-1-14" d="M290.6344022797635,403.34868250939985L365.19196719071385,561.6L389.0414259857146,561.6L308.102200373599,394.37636471948144L292.61355831608,401.0751904471696Z" style="opacity: 0;"/><path data-target="point-1-15" d="M308.102200373599,394.37636471948144L389.0414259857146,561.6L423.6034127199998,561.6L324.6682406258146,385.3459554216968L311.3581248281787,390.814327709343Z" style="opacity: 0;"/><path data-target="point-1-16" d="M324.6682406258146,385.3459554216968L423.6034127199998,561.6L441.43917539428554,561.6L342.7972404309557,374.7402355068506L329.66814027978404,380.00616881486957Z" style="opacity: 0;"/><path data-target="point-1-17" d="M342.7972404309557,374.7402355068506L441.43917539428554,561.6L446.45743195714317,561.6L361.9295264180947,364.24487345479713L347.63373818819537,369.8183965781871Z" style="opacity: 0;"/><path data-target="point-1-18" d="M361.9295264180947,364.24487345479713L446.45743195714317,561.6L488.68603222857143,561.6L377.6590282558399,356.15748670126345L365.98840806604886,360.4455659248698Z" style="opacity: 0;"/><path data-target="point-1-19" d="M377.6590282558399,356.15748670126345L488.68603222857143,561.6L501.65077067428575,561.6L396.3458140289692,346.2052461049849L383.269941123458,351.01272590965635Z" style="opacity: 0;"/><path data-target="point-1-20" d="M396.3458140289692,346.2052461049849L501.65077067428575,561.6L516.1962902399999,561.6L510.89608470888857,544.3620576854989L414.4741732816012,336.943367973482L401.42972215044466,341.64774921972514Z" style="opacity: 0;"/><path data-target="point-1-21" d="M414.4741732816012,336.943367973482L510.89608470888857,544.3620576854989L496.4443951758851,487.69074968870655L433.52948270940834,327.9394473185458L418.81277079976303,333.18369322893193Z" style="opacity: 0;"/><path data-target="point-1-22" d="M433.52948270940834,327.9394473185458L496.4443951758851,487.69074968870655L480.20533587301054,400.1949762763834L451.84702146251254,319.402057727956L438.35890893663895,323.93565936442553Z" style="opacity: 0;"/><path data-target="point-1-23" d="M451.84702146251254,319.402057727956L480.20533587301054,400.1949762763834L478.40533450285716,311.07024L474.76235310285716,311.07024L453.5939696404881,318.07061483549273Z" style="opacity: 0;"/><path data-target="point-1-24" d="M478.40533450285716,311.07024L480.20533587301054,400.1949762763834L496.4443951758851,487.69074968870655L510.89608470888857,544.3620576854989L516.1962902399999,561.6L588.794827805,561.6L557.0965681860521,463.8224496041707L557.074259227393,463.7663736715034L483.39088728070743,309.6487264078144Z" style="opacity: 0;"/><path data-target="point-1-25" d="M483.39088728070743,309.6487264078144L557.074259227393,463.7663736715034L506.0051996685715,302.95511999999997L495.3272608214286,302.95512L492.1489640538545,303.86613071545673Z" style="opacity: 0;"/><path data-target="point-1-26" d="M506.0051996685715,302.95511999999997L557.074259227393,463.7663736715034L557.0965681860521,463.8224496041707L531.6558994542858,320.0028L516.8420022701979,299.4806224965944Z" style="opacity: 0;"/><path data-target="point-1-27" d="M531.6558994542858,320.0028L557.0965681860521,463.8224496041707L588.794827805,561.6L639.3526578579497,561.6L550.138712342101,320.0028Z" style="opacity: 0;"/><path data-target="point-1-28" d="M550.138712342101,320.0028L639.3526578579497,561.6L647.7233647404454,561.6L630.9202095617068,492.94318522971014L595.7043757212773,374.0712842236462L569.2028976396875,315.461765L550.9365179627232,315.461765Z" style="opacity: 0;"/><path data-target="point-1-29" d="M559.0808122276258,272.9951277535603L568.3215445518125,309.118243L586.5894922488482,309.118243L586.4353956239074,302.54855299999997L565.2329047971139,266.78753706008854Z" style="opacity: 0;"/><path data-target="point-1-30" d="M565.2329047971139,266.78753706008854L586.4353956239074,302.54855299999997L603.936870299366,302.54855299999997L606.8473917750556,295.743739L576.874640940793,247.2239361111351Z" style="opacity: 0;"/><path data-target="point-1-31" d="M576.874640940793,247.2239361111351L606.8473917750556,295.743739L621.2429092817054,295.743739L627.6036986031498,288.69453599999997L585.3809604175092,223.09311246785245Z" style="opacity: 0;"/><path data-target="point-1-32" d="M585.3809604175092,223.09311246785245L627.6036986031498,288.69453599999997L638.5053921353572,288.69453599999997L648.7407860380835,281.3911465L590.6605847369303,194.78203405217317Z" style="opacity: 0;"/><path data-target="point-1-33" d="M590.6605847369303,194.78203405217317L648.7407860380835,281.3911465L655.7219724878258,281.3911465L670.2985276508111,273.8234615L592.710295404951,162.7778405021724Z" style="opacity: 0;"/><path data-target="point-1-34" d="M591.610521804859,127.63996470034259L592.710295404951,162.7778405021724L670.2985276508111,273.8234615L672.8829341286071,273.8234615L690.1305330194618,266.86098210039114L691.87206623429,265.36493849587345Z" style="opacity: 0;"/><path data-target="point-1-35" d="M587.5151909508846,89.96728590381832L591.610521804859,127.63996470034259L691.87206623429,265.36493849587345L707.426590610791,260.275388447804L713.5141990806474,256.0853316210239Z" style="opacity: 0;"/><path data-target="point-1-36" d="M580.6362302168,50.36167067245648L587.5151909508846,89.96728590381832L713.5141990806474,256.0853316210239L724.619145232899,253.05469684337112L735.7924342691366,246.69251809041359Z" style="opacity: 0;"/><path data-target="point-1-37" d="M571.2243422102994,9.39417714931082L580.6362302168,50.36167067245648L735.7924342691366,246.69251809041359L741.7103380528096,245.3171214834976L758.7277607232766,237.11422727341386Z" style="opacity: 0;"/><path data-target="point-1-38" d="M568.6013793475128,0L571.2243422102994,9.39417714931082L758.7277607232766,237.11422727341386L758.7318757685317,237.11339971625276L775.9098219702726,229.98201929019066L781.5473597781537,226.35365091807407L587.3579942451418,0Z" style="opacity: 0;"/><path data-target="point-1-39" d="M587.3579942451418,0L781.5473597781537,226.35365091807407L792.9612077017217,222.2175392495672L805.1272276204901,215.40950866866612L612.5822242143923,0Z" style="opacity: 0;"/><path data-target="point-1-40" d="M612.5822242143923,0L805.1272276204901,215.40950866866612L809.9088545400328,213.8805833463876L826.863455809496,205.53549095550486L829.2396159571393,203.93372001782538L639.31347953074,0Z" style="opacity: 0;"/><path data-target="point-1-41" d="M639.31347953074,0L829.2396159571393,203.93372001782538L843.8417028716972,197.55275404942444L853.7010666921948,191.66848247362014L667.7166349982883,0Z" style="opacity: 0;"/><path data-target="point-1-42" d="M667.7166349982883,0L853.7010666921948,191.66848247362014L860.726663613485,188.92143521459718L879.0864206573127,179.14021794869714L697.9747006314415,2.842170943040401e-14Z" style="opacity: 0;"/><path data-target="point-1-43" d="M697.9747006314415,2.842170943040401e-14L879.0864206573127,179.14021794869714L908.190871706558,168.89117810452638L730.2849479008147,0Z" style="opacity: 0;"/><path data-target="point-1-44" d="M730.2849479008147,0L908.190871706558,168.89117810452638L936,163.08099622123677L936,155.92812885312998L764.8658853205015,0Z" style="opacity: 0;"/><path data-target="point-1-45" d="M764.8658853205015,0L936,155.92812885312998L936,117.22230249489132L801.9549691881969,0Z" style="opacity: 0;"/><path data-target="point-1-46" d="M801.9549691881969,0L936,117.22230249489132L936,0Z" style="opacity: 0;"/></g></g><g class="axes"><g class="y axis" fill="none" font-size="10" font-family="sans-serif" text-anchor="end" style="font-family: &quot;Source Sans Pro&quot;;"><path class="domain" stroke="#eeeeee" d="M0.5,562.1V0.5" stroke-dasharray="0" style="visibility: hidden;"/><g class="tick" opacity="1" transform="translate(0,562.1)" style="visibility: visible;"><line stroke="#eeeeee" x2="936" stroke-dasharray="0"/><text fill="rgb(0, 0, 0)" x="3" dy="-0.33em" opacity="1" text-anchor="start" font-size="18">$0</text></g><g class="tick" opacity="1" transform="translate(0, 499.70001220703125)" style="visibility: visible;"><line stroke="#eeeeee" x2="936" stroke-dasharray="0"/><text fill="rgb(0, 0, 0)" x="3" dy="-0.33em" opacity="1" text-anchor="start" font-size="18">$10,000</text></g><g class="tick" opacity="1" transform="translate(0, 437.29998779296875)" style="visibility: visible;"><line stroke="#eeeeee" x2="936" stroke-dasharray="0"/><text fill="rgb(0, 0, 0)" x="3" dy="-0.33em" opacity="1" text-anchor="start" font-size="18">$20,000</text></g><g class="tick" opacity="1" transform="translate(0, 374.8999938964844)" style="visibility: visible;"><line stroke="#eeeeee" x2="936" stroke-dasharray="0"/><text fill="rgb(0, 0, 0)" x="3" dy="-0.33em" opacity="1" text-anchor="start" font-size="18">$30,000</text></g><g class="tick" opacity="1" transform="translate(0, 312.5)" style="visibility: visible;"><line stroke="#eeeeee" x2="936" stroke-dasharray="0"/><text fill="rgb(0, 0, 0)" x="3" dy="-0.33em" opacity="1" text-anchor="start" font-size="18">$40,000</text></g><g class="tick" opacity="1" transform="translate(0, 250.10000610351562)" style="visibility: visible;"><line stroke="#eeeeee" x2="936" stroke-dasharray="0"/><text fill="rgb(0, 0, 0)" x="3" dy="-0.33em" opacity="1" text-anchor="start" font-size="18">$50,000</text></g><g class="tick" opacity="1" transform="translate(0, 187.6999969482422)" style="visibility: visible;"><line stroke="#eeeeee" x2="936" stroke-dasharray="0"/><text fill="rgb(0, 0, 0)" x="3" dy="-0.33em" opacity="1" text-anchor="start" font-size="18">$60,000</text></g><g class="tick" opacity="1" transform="translate(0, 125.30000305175781)" style="visibility: visible;"><line stroke="#eeeeee" x2="936" stroke-dasharray="0"/><text fill="rgb(0, 0, 0)" x="3" dy="-0.33em" opacity="1" text-anchor="start" font-size="18">$70,000</text></g><g class="tick" opacity="1" transform="translate(0, 62.900001525878906)" style="visibility: visible;"><line stroke="#eeeeee" x2="936" stroke-dasharray="0"/><text fill="rgb(0, 0, 0)" x="3" dy="-0.33em" opacity="1" text-anchor="start" font-size="18">$80,000</text></g><g class="tick" opacity="1" transform="translate(0, 0.5)" style="visibility: visible;"><line stroke="#eeeeee" x2="936" stroke-dasharray="0"/><text fill="rgb(0, 0, 0)" x="3" dy="-0.33em" opacity="1" text-anchor="start" font-size="18">$90,000</text></g></g><g class="x axis" transform="translate(0,561.6)" fill="none" font-size="10" font-family="sans-serif" text-anchor="middle" style="font-family: &quot;Source Sans Pro&quot;;"><path class="domain" stroke="#eeeeee" d="M40.5,0.5H936.5" stroke-dasharray="0"/><g class="tick" opacity="1" transform="translate(40.5,0)"><line stroke="#eeeeee" y2="6" stroke-dasharray="0"/><text fill="rgb(0, 0, 0)" y="9" dy="-9" opacity="1" dominant-baseline="central" font-size="18" transform="translate(0, 15) rotate(-45)" dx="5" style="text-anchor: end; visibility: visible;">1990</text></g><g class="tick" opacity="1" transform="translate(130.10000000000002,0)"><line stroke="#eeeeee" y2="6" stroke-dasharray="0"/><text fill="rgb(0, 0, 0)" y="9" dy="-9" opacity="1" dominant-baseline="central" font-size="18" transform="translate(0, 15) rotate(-45)" dx="5" style="text-anchor: end; visibility: visible;">1995</text></g><g class="tick" opacity="1" transform="translate(219.70000000000002,0)"><line stroke="#eeeeee" y2="6" stroke-dasharray="0"/><text fill="rgb(0, 0, 0)" y="9" dy="-9" opacity="1" dominant-baseline="central" font-size="18" transform="translate(0, 15) rotate(-45)" dx="5" style="text-anchor: end; visibility: visible;">2000</text></g><g class="tick" opacity="1" transform="translate(309.3,0)"><line stroke="#eeeeee" y2="6" stroke-dasharray="0"/><text fill="rgb(0, 0, 0)" y="9" dy="-9" opacity="1" dominant-baseline="central" font-size="18" transform="translate(0, 15) rotate(-45)" dx="5" style="text-anchor: end; visibility: visible;">2005</text></g><g class="tick" opacity="1" transform="translate(398.90000000000003,0)"><line stroke="#eeeeee" y2="6" stroke-dasharray="0"/><text fill="rgb(0, 0, 0)" y="9" dy="-9" opacity="1" dominant-baseline="central" font-size="18" transform="translate(0, 15) rotate(-45)" dx="5" style="text-anchor: end; visibility: visible;">2010</text></g><g class="tick" opacity="1" transform="translate(488.5,0)"><line stroke="#eeeeee" y2="6" stroke-dasharray="0"/><text fill="rgb(0, 0, 0)" y="9" dy="-9" opacity="1" dominant-baseline="central" font-size="18" transform="translate(0, 15) rotate(-45)" dx="5" style="text-anchor: end; visibility: visible;">2015</text></g><g class="tick" opacity="1" transform="translate(578.1,0)"><line stroke="#eeeeee" y2="6" stroke-dasharray="0"/><text fill="rgb(0, 0, 0)" y="9" dy="-9" opacity="1" dominant-baseline="central" font-size="18" transform="translate(0, 15) rotate(-45)" dx="5" style="text-anchor: end; visibility: visible;">2020</text></g><g class="tick" opacity="1" transform="translate(667.6999999999999,0)"><line stroke="#eeeeee" y2="6" stroke-dasharray="0"/><text fill="rgb(0, 0, 0)" y="9" dy="-9" opacity="1" dominant-baseline="central" font-size="18" transform="translate(0, 15) rotate(-45)" dx="5" style="text-anchor: end; visibility: visible;">2025</text></g><g class="tick" opacity="1" transform="translate(757.3000000000001,0)"><line stroke="#eeeeee" y2="6" stroke-dasharray="0"/><text fill="rgb(0, 0, 0)" y="9" dy="-9" opacity="1" dominant-baseline="central" font-size="18" transform="translate(0, 15) rotate(-45)" dx="5" style="text-anchor: end; visibility: visible;">2030</text></g><g class="tick" opacity="1" transform="translate(846.9,0)"><line stroke="#eeeeee" y2="6" stroke-dasharray="0"/><text fill="rgb(0, 0, 0)" y="9" dy="-9" opacity="1" dominant-baseline="central" font-size="18" transform="translate(0, 15) rotate(-45)" dx="5" style="text-anchor: end; visibility: visible;">2035</text></g><g class="tick" opacity="1" transform="translate(936.5,0)"><line stroke="#eeeeee" y2="6" stroke-dasharray="0"/><text fill="rgb(0, 0, 0)" y="9" dy="-9" opacity="1" dominant-baseline="central" font-size="18" transform="translate(0, 15) rotate(-45)" dx="5" style="text-anchor: end; visibility: visible;">2040</text></g></g></g></g></g></g><g class="annotations below"><g class="axis-highlights" transform="translate(15, 20)" style="opacity: 1;"><g class="line x" transform="translate(559.68, 0)"><line width="0" stroke-dasharray="2 2" stroke="#333333" stroke-width="2" y2="561.6"/><text transform="translate(0, 6) rotate(-90)" fill="#333333" text-anchor="end" dy="-0.5em" font-size="12">Current</text></g></g></g><g id="areas"><g class="series" pointer-events="none"><path class="area" transform="translate(15,20)" fill-opacity="0" fill="rgb(17, 165, 121)" clip-path="url(#clip-0-0)" d="M57.92,459.11424C63.89333333333334,457.24952,69.86666666666667,455.38480000000004,75.84,453.68544C81.81333333333333,451.98608,87.78666666666666,450.632,93.75999999999999,448.91808000000003C99.73333333333333,447.20416,105.70666666666666,445.04512,111.68,443.40192C117.65333333333335,441.75872000000004,123.62666666666668,440.57728000000003,129.60000000000002,439.05888000000004C135.57333333333335,437.54048000000006,141.54666666666665,436.11984,147.51999999999998,434.29152C153.4933333333333,432.4632,159.46666666666667,429.99216,165.44,428.08896000000004C171.41333333333333,426.1857600000001,177.38666666666668,424.5488,183.36,422.87232C189.33333333333334,421.19584,195.30666666666667,419.88752,201.28,418.03008C207.25333333333333,416.17264,213.2266666666667,413.92624,219.20000000000002,411.72768C225.17333333333335,409.52912000000003,231.14666666666668,407.25984000000005,237.12,404.83872C243.09333333333333,402.4176,249.06666666666666,400.09632,255.04,397.20096C261.0133333333333,394.3056,266.9866666666667,390.79456000000005,272.96000000000004,387.46656C278.93333333333334,384.13856000000004,284.9066666666667,380.74816,290.88,377.23296C296.85333333333335,373.71776,302.82666666666665,370.03824000000003,308.8,366.37536C314.77333333333337,362.71247999999997,320.74666666666667,358.89984,326.72,355.25568C332.6933333333334,351.61152,338.6666666666667,348.04848,344.64000000000004,344.5104C350.61333333333334,340.97232,356.5866666666667,337.38328,362.56,334.0272C368.53333333333336,330.67112,374.50666666666666,327.60104,380.48,324.37392C386.4533333333334,321.1468,392.4266666666667,317.77096,398.40000000000003,314.66448C404.37333333333333,311.55800000000005,410.3466666666667,308.90392,416.32,305.73504C422.29333333333335,302.56616,428.26666666666665,298.52576,434.24,295.6512C440.21333333333337,292.77664000000004,446.18666666666667,291.18544,452.16,288.48768C458.1333333333333,285.78992,464.1066666666667,282.34128,470.08,279.46464C476.05333333333334,276.58799999999997,482.02666666666664,271.22784,488,271.22784C493.97333333333336,271.22784,499.94666666666666,272.16384,505.92,272.16384C511.8933333333334,272.16384,517.8666666666667,254.79168000000004,523.84,254.79168000000004C529.8133333333334,254.79168000000004,535.7866666666666,315.12,541.76,315.12C547.7333333333333,315.12,553.7066666666666,313.48096000000004,559.68,312.65520000000004C565.6533333333333,311.82944000000003,571.6266666666667,310.99952,577.6,310.16544C583.5733333333334,309.33136,589.5466666666666,308.49312000000003,595.52,307.65072000000004C601.4933333333333,306.80832000000004,607.4666666666667,305.96176,613.44,305.11104C619.4133333333334,304.26032,625.3866666666667,303.40544,631.36,302.5464C637.3333333333334,301.68736,643.3066666666667,300.82416,649.2800000000001,299.9568C655.2533333333333,299.08943999999997,661.2266666666667,298.21896,667.1999999999999,297.34224C673.1733333333333,296.46552,679.1466666666666,295.58256,685.12,294.69648C691.0933333333334,293.8104,697.0666666666666,292.92016,703.04,292.02576C709.0133333333333,291.13136,714.9866666666667,290.2328,720.96,289.33008C726.9333333333334,288.42736,732.9066666666666,287.52152,738.88,286.60944C744.8533333333334,285.69736,750.8266666666667,284.77904,756.8000000000001,283.8576C762.7733333333333,282.93616,768.7466666666667,282.01056,774.7199999999999,281.0808C780.6933333333333,280.15104,786.6666666666666,279.21816,792.64,278.27904C798.6133333333333,277.33992,804.5866666666666,276.39560000000006,810.56,275.44608000000005C816.5333333333333,274.49656000000004,822.5066666666667,273.5408,828.48,272.58191999999997C834.4533333333334,271.62303999999995,840.4266666666666,270.66104,846.4,269.69280000000003C852.3733333333333,268.72456000000005,858.3466666666667,267.75008,864.32,266.77248000000003C870.2933333333334,265.79488000000003,876.2666666666667,264.81104,882.24,263.8272L882.24,263.8272C876.2666666666667,264.81104,870.2933333333334,265.79488000000003,864.32,266.77248000000003C858.3466666666667,267.75008,852.3733333333333,268.72456000000005,846.4,269.69280000000003C840.4266666666666,270.66104,834.4533333333334,271.62303999999995,828.48,272.58191999999997C822.5066666666667,273.5408,816.5333333333333,274.49656000000004,810.56,275.44608000000005C804.5866666666666,276.39560000000006,798.6133333333333,277.33992,792.64,278.27904C786.6666666666666,279.21816,780.6933333333333,280.15104,774.7199999999999,281.0808C768.7466666666667,282.01056,762.7733333333333,282.93616,756.8000000000001,283.8576C750.8266666666667,284.77904,744.8533333333334,285.69736,738.88,286.60944C732.9066666666666,287.52152,726.9333333333334,288.42736,720.96,289.33008C714.9866666666667,290.2328,709.0133333333333,291.13136,703.04,292.02576C697.0666666666666,292.92016,691.0933333333334,293.8104,685.12,294.69648C679.1466666666666,295.58256,673.1733333333333,296.46552,667.1999999999999,297.34224C661.2266666666667,298.21896,655.2533333333333,299.08943999999997,649.2800000000001,299.9568C643.3066666666667,300.82416,637.3333333333334,301.68736,631.36,302.5464C625.3866666666667,303.40544,619.4133333333334,304.26032,613.44,305.11104C607.4666666666667,305.96176,601.4933333333333,306.80832000000004,595.52,307.65072000000004C589.5466666666666,308.49312000000003,583.5733333333334,309.33136,577.6,310.16544C571.6266666666667,310.99952,565.6533333333333,311.82944000000003,559.68,312.65520000000004C553.7066666666666,313.48096000000004,547.7333333333333,315.12,541.76,315.12C535.7866666666666,315.12,529.8133333333334,254.79168000000004,523.84,254.79168000000004C517.8666666666667,254.79168000000004,511.8933333333334,272.16384,505.92,272.16384C499.94666666666666,272.16384,493.97333333333336,271.22784,488,271.22784C482.02666666666664,271.22784,476.05333333333334,276.58799999999997,470.08,279.46464C464.1066666666667,282.34128,458.1333333333333,285.78992,452.16,288.48768C446.18666666666667,291.18544,440.21333333333337,292.77664000000004,434.24,295.6512C428.26666666666665,298.52576,422.29333333333335,302.56616,416.32,305.73504C410.3466666666667,308.90392,404.37333333333333,311.55800000000005,398.40000000000003,314.66448C392.4266666666667,317.77096,386.4533333333334,321.1468,380.48,324.37392C374.50666666666666,327.60104,368.53333333333336,330.67112,362.56,334.0272C356.5866666666667,337.38328,350.61333333333334,340.97232,344.64000000000004,344.5104C338.6666666666667,348.04848,332.6933333333334,351.61152,326.72,355.25568C320.74666666666667,358.89984,314.77333333333337,362.71247999999997,308.8,366.37536C302.82666666666665,370.03824000000003,296.85333333333335,373.71776,290.88,377.23296C284.9066666666667,380.74816,278.93333333333334,384.13856000000004,272.96000000000004,387.46656C266.9866666666667,390.79456000000005,261.0133333333333,394.3056,255.04,397.20096C249.06666666666666,400.09632,243.09333333333333,402.4176,237.12,404.83872C231.14666666666668,407.25984000000005,225.17333333333335,409.52912000000003,219.20000000000002,411.72768C213.2266666666667,413.92624,207.25333333333333,416.17264,201.28,418.03008C195.30666666666667,419.88752,189.33333333333334,421.19584,183.36,422.87232C177.38666666666668,424.5488,171.41333333333333,426.1857600000001,165.44,428.08896000000004C159.46666666666667,429.99216,153.4933333333333,432.4632,147.51999999999998,434.29152C141.54666666666665,436.11984,135.57333333333335,437.54048000000006,129.60000000000002,439.05888000000004C123.62666666666668,440.57728000000003,117.65333333333335,441.75872000000004,111.68,443.40192C105.70666666666666,445.04512,99.73333333333333,447.20416,93.75999999999999,448.91808000000003C87.78666666666666,450.632,81.81333333333333,451.98608,75.84,453.68544C69.86666666666667,455.38480000000004,63.89333333333334,457.24952,57.92,459.11424Z"/></g><g class="series" pointer-events="none"><path class="area" transform="translate(15,20)" fill-opacity="0" fill="rgb(128, 35, 146)" clip-path="url(#clip-0-1)" d="M57.92,496.19856000000004C63.89333333333334,494.89388,69.86666666666667,493.5892,75.84,492.18624C81.81333333333333,490.78328,87.78666666666666,489.10888,93.75999999999999,487.7808C99.73333333333333,486.45272,105.70666666666666,485.43248,111.68,484.21776C117.65333333333335,483.00304,123.62666666666668,481.858,129.60000000000002,480.49248C135.57333333333335,479.12696,141.54666666666665,477.5264,147.51999999999998,476.02464000000003C153.4933333333333,474.52288000000004,159.46666666666667,473.10016,165.44,471.48192C171.41333333333333,469.86368,177.38666666666668,467.94696,183.36,466.3152C189.33333333333334,464.68344,195.30666666666667,463.27528,201.28,461.69136000000003C207.25333333333333,460.10744000000005,213.2266666666667,458.57344,219.20000000000002,456.81168C225.17333333333335,455.04992000000004,231.14666666666668,453.21016000000003,237.12,451.12080000000003C243.09333333333333,449.03144000000003,249.06666666666666,446.85368000000005,255.04,444.27552000000003C261.0133333333333,441.69736,266.9866666666667,438.51288,272.96000000000004,435.65184C278.93333333333334,432.7908,284.9066666666667,429.94016,290.88,427.10928C296.85333333333335,424.27840000000003,302.82666666666665,421.51928,308.8,418.66656C314.77333333333337,415.81384,320.74666666666667,413.11504,326.72,409.99296000000004C332.6933333333334,406.87088000000006,338.6666666666667,403.1872,344.64000000000004,399.93408C350.61333333333334,396.68095999999997,356.5866666666667,393.33008,362.56,390.47424C368.53333333333336,387.6184,374.50666666666666,385.69232,380.48,382.79904C386.4533333333334,379.90576,392.4266666666667,376.18879999999996,398.40000000000003,373.11456C404.37333333333333,370.04032,410.3466666666667,367.20216000000005,416.32,364.35360000000003C422.29333333333335,361.50504,428.26666666666665,358.58783999999997,434.24,356.0232C440.21333333333337,353.45856,446.18666666666667,351.19032,452.16,348.96576C458.1333333333333,346.7412,464.1066666666667,342.91712,470.08,342.67584C476.05333333333334,342.43456,482.02666666666664,342.5552,488,342.31392C493.97333333333336,342.07264,499.94666666666666,336.1228,505.92,333.7464C511.8933333333334,331.37,517.8666666666667,329.53232,523.84,328.05552C529.8133333333334,326.57872000000003,535.7866666666666,326.5167984,541.76,324.8856C547.7333333333333,323.2544016,553.7066666666666,321.0707552,559.68,318.2683296C565.6533333333333,315.465904,571.6266666666667,311.5413704,577.6,308.0710464C583.5733333333334,304.6007224,589.5466666666666,301.06215360000004,595.52,297.44638560000004C601.4933333333333,293.83061760000004,607.4666666666667,290.1437240000001,613.44,286.37643840000004C619.4133333333334,282.60915280000006,625.3866666666667,278.76782959999997,631.36,274.842672C637.3333333333334,270.91751439999996,643.3066666666667,266.91515760000004,649.2800000000001,262.8254928C655.2533333333333,258.735828,661.2266666666667,254.56572959999997,667.1999999999999,250.3046832C673.1733333333333,246.04363679999997,679.1466666666666,241.69881840000002,685.12,237.25921440000002C691.0933333333334,232.81961040000004,697.0666666666666,228.29271920000002,703.04,223.66705920000004C709.0133333333333,219.04139920000003,714.9866666666667,214.32476000000003,720.96,209.5052544C726.9333333333334,204.68574880000003,732.9066666666666,199.7714992,738.88,194.75002560000001C744.8533333333334,189.728552,750.8266666666667,184.60833040000006,756.8000000000001,179.37641280000003C762.7733333333333,174.14449520000005,768.7466666666667,168.80969039999997,774.7199999999999,163.35852C780.6933333333333,157.90734959999997,786.6666666666666,152.34900720000007,792.64,146.66939040000005C798.6133333333333,140.98977360000006,804.5866666666666,135.19845039999998,810.56,129.2808192C816.5333333333333,123.36318799999997,822.5066666666667,117.32922239999996,828.48,111.16360319999995C834.4533333333334,104.99798399999999,840.4266666666666,98.71111120000002,846.4,92.28710400000006C852.3733333333333,85.86309680000005,858.3466666666667,79.31277120000006,864.32,72.61956000000004C870.2933333333334,65.92634880000006,876.2666666666667,59.02709280000006,882.24,52.12783680000007L882.24,52.12783680000007C876.2666666666667,59.02709280000006,870.2933333333334,65.92634880000006,864.32,72.61956000000004C858.3466666666667,79.31277120000006,852.3733333333333,85.86309680000005,846.4,92.28710400000006C840.4266666666666,98.71111120000002,834.4533333333334,104.99798399999999,828.48,111.16360319999995C822.5066666666667,117.32922239999996,816.5333333333333,123.36318799999997,810.56,129.2808192C804.5866666666666,135.19845039999998,798.6133333333333,140.98977360000006,792.64,146.66939040000005C786.6666666666666,152.34900720000007,780.6933333333333,157.90734959999997,774.7199999999999,163.35852C768.7466666666667,168.80969039999997,762.7733333333333,174.14449520000005,756.8000000000001,179.37641280000003C750.8266666666667,184.60833040000006,744.8533333333334,189.728552,738.88,194.75002560000001C732.9066666666666,199.7714992,726.9333333333334,204.68574880000003,720.96,209.5052544C714.9866666666667,214.32476000000003,709.0133333333333,219.04139920000003,703.04,223.66705920000004C697.0666666666666,228.29271920000002,691.0933333333334,232.81961040000004,685.12,237.25921440000002C679.1466666666666,241.69881840000002,673.1733333333333,246.04363679999997,667.1999999999999,250.3046832C661.2266666666667,254.56572959999997,655.2533333333333,258.735828,649.2800000000001,262.8254928C643.3066666666667,266.91515760000004,637.3333333333334,270.91751439999996,631.36,274.842672C625.3866666666667,278.76782959999997,619.4133333333334,282.60915280000006,613.44,286.37643840000004C607.4666666666667,290.1437240000001,601.4933333333333,293.83061760000004,595.52,297.44638560000004C589.5466666666666,301.06215360000004,583.5733333333334,304.6007224,577.6,308.0710464C571.6266666666667,311.5413704,565.6533333333333,315.465904,559.68,318.2683296C553.7066666666666,321.0707552,547.7333333333333,323.2544016,541.76,324.8856C535.7866666666666,326.5167984,529.8133333333334,326.57872000000003,523.84,328.05552C517.8666666666667,329.53232,511.8933333333334,331.37,505.92,333.7464C499.94666666666666,336.1228,493.97333333333336,342.07264,488,342.31392C482.02666666666664,342.5552,476.05333333333334,342.43456,470.08,342.67584C464.1066666666667,342.91712,458.1333333333333,346.7412,452.16,348.96576C446.18666666666667,351.19032,440.21333333333337,353.45856,434.24,356.0232C428.26666666666665,358.58783999999997,422.29333333333335,361.50504,416.32,364.35360000000003C410.3466666666667,367.20216000000005,404.37333333333333,370.04032,398.40000000000003,373.11456C392.4266666666667,376.18879999999996,386.4533333333334,379.90576,380.48,382.79904C374.50666666666666,385.69232,368.53333333333336,387.6184,362.56,390.47424C356.5866666666667,393.33008,350.61333333333334,396.68095999999997,344.64000000000004,399.93408C338.6666666666667,403.1872,332.6933333333334,406.87088000000006,326.72,409.99296000000004C320.74666666666667,413.11504,314.77333333333337,415.81384,308.8,418.66656C302.82666666666665,421.51928,296.85333333333335,424.27840000000003,290.88,427.10928C284.9066666666667,429.94016,278.93333333333334,432.7908,272.96000000000004,435.65184C266.9866666666667,438.51288,261.0133333333333,441.69736,255.04,444.27552000000003C249.06666666666666,446.85368000000005,243.09333333333333,449.03144000000003,237.12,451.12080000000003C231.14666666666668,453.21016000000003,225.17333333333335,455.04992000000004,219.20000000000002,456.81168C213.2266666666667,458.57344,207.25333333333333,460.10744000000005,201.28,461.69136000000003C195.30666666666667,463.27528,189.33333333333334,464.68344,183.36,466.3152C177.38666666666668,467.94696,171.41333333333333,469.86368,165.44,471.48192C159.46666666666667,473.10016,153.4933333333333,474.52288000000004,147.51999999999998,476.02464000000003C141.54666666666665,477.5264,135.57333333333335,479.12696,129.60000000000002,480.49248C123.62666666666668,481.858,117.65333333333335,483.00304,111.68,484.21776C105.70666666666666,485.43248,99.73333333333333,486.45272,93.75999999999999,487.7808C87.78666666666666,489.10888,81.81333333333333,490.78328,75.84,492.18624C69.86666666666667,493.5892,63.89333333333334,494.89388,57.92,496.19856000000004Z"/></g></g><g id="lines"><g class="series"><clipPath id="clip-0-0"><rect width="936" y="-20" height="599.6"/></clipPath><path class="line" opacity="1" fill="none" stroke="rgb(17, 165, 121)" stroke-width="2" transform="translate(15,20)" clip-path="url(#clip-0-0)" d="M57.92,459.11424C63.89333333333334,457.24952,69.86666666666667,455.38480000000004,75.84,453.68544C81.81333333333333,451.98608,87.78666666666666,450.632,93.75999999999999,448.91808000000003C99.73333333333333,447.20416,105.70666666666666,445.04512,111.68,443.40192C117.65333333333335,441.75872000000004,123.62666666666668,440.57728000000003,129.60000000000002,439.05888000000004C135.57333333333335,437.54048000000006,141.54666666666665,436.11984,147.51999999999998,434.29152C153.4933333333333,432.4632,159.46666666666667,429.99216,165.44,428.08896000000004C171.41333333333333,426.1857600000001,177.38666666666668,424.5488,183.36,422.87232C189.33333333333334,421.19584,195.30666666666667,419.88752,201.28,418.03008C207.25333333333333,416.17264,213.2266666666667,413.92624,219.20000000000002,411.72768C225.17333333333335,409.52912000000003,231.14666666666668,407.25984000000005,237.12,404.83872C243.09333333333333,402.4176,249.06666666666666,400.09632,255.04,397.20096C261.0133333333333,394.3056,266.9866666666667,390.79456000000005,272.96000000000004,387.46656C278.93333333333334,384.13856000000004,284.9066666666667,380.74816,290.88,377.23296C296.85333333333335,373.71776,302.82666666666665,370.03824000000003,308.8,366.37536C314.77333333333337,362.71247999999997,320.74666666666667,358.89984,326.72,355.25568C332.6933333333334,351.61152,338.6666666666667,348.04848,344.64000000000004,344.5104C350.61333333333334,340.97232,356.5866666666667,337.38328,362.56,334.0272C368.53333333333336,330.67112,374.50666666666666,327.60104,380.48,324.37392C386.4533333333334,321.1468,392.4266666666667,317.77096,398.40000000000003,314.66448C404.37333333333333,311.55800000000005,410.3466666666667,308.90392,416.32,305.73504C422.29333333333335,302.56616,428.26666666666665,298.52576,434.24,295.6512C440.21333333333337,292.77664000000004,446.18666666666667,291.18544,452.16,288.48768C458.1333333333333,285.78992,464.1066666666667,282.34128,470.08,279.46464C476.05333333333334,276.58799999999997,482.02666666666664,271.22784,488,271.22784C493.97333333333336,271.22784,499.94666666666666,272.16384,505.92,272.16384C511.8933333333334,272.16384,517.8666666666667,254.79168000000004,523.84,254.79168000000004C529.8133333333334,254.79168000000004,535.7866666666666,315.12,541.76,315.12C547.7333333333333,315.12,553.7066666666666,313.48096000000004,559.68,312.65520000000004C565.6533333333333,311.82944000000003,571.6266666666667,310.99952,577.6,310.16544C583.5733333333334,309.33136,589.5466666666666,308.49312000000003,595.52,307.65072000000004C601.4933333333333,306.80832000000004,607.4666666666667,305.96176,613.44,305.11104C619.4133333333334,304.26032,625.3866666666667,303.40544,631.36,302.5464C637.3333333333334,301.68736,643.3066666666667,300.82416,649.2800000000001,299.9568C655.2533333333333,299.08943999999997,661.2266666666667,298.21896,667.1999999999999,297.34224C673.1733333333333,296.46552,679.1466666666666,295.58256,685.12,294.69648C691.0933333333334,293.8104,697.0666666666666,292.92016,703.04,292.02576C709.0133333333333,291.13136,714.9866666666667,290.2328,720.96,289.33008C726.9333333333334,288.42736,732.9066666666666,287.52152,738.88,286.60944C744.8533333333334,285.69736,750.8266666666667,284.77904,756.8000000000001,283.8576C762.7733333333333,282.93616,768.7466666666667,282.01056,774.7199999999999,281.0808C780.6933333333333,280.15104,786.6666666666666,279.21816,792.64,278.27904C798.6133333333333,277.33992,804.5866666666666,276.39560000000006,810.56,275.44608000000005C816.5333333333333,274.49656000000004,822.5066666666667,273.5408,828.48,272.58191999999997C834.4533333333334,271.62303999999995,840.4266666666666,270.66104,846.4,269.69280000000003C852.3733333333333,268.72456000000005,858.3466666666667,267.75008,864.32,266.77248000000003C870.2933333333334,265.79488000000003,876.2666666666667,264.81104,882.24,263.8272"/><text class="label" font-size="11" alignment-baseline="middle" opacity="1" x="5" fill="rgb(17, 165, 121)" transform="translate(897.239990234375, 283.82720947265625)"/></g><g class="series"><clipPath id="clip-0-1"><rect width="936" y="-20" height="599.6"/></clipPath><path class="line" opacity="1" fill="none" stroke="rgb(128, 35, 146)" stroke-width="2" transform="translate(15,20)" clip-path="url(#clip-0-1)" d="M57.92,496.19856000000004C63.89333333333334,494.89388,69.86666666666667,493.5892,75.84,492.18624C81.81333333333333,490.78328,87.78666666666666,489.10888,93.75999999999999,487.7808C99.73333333333333,486.45272,105.70666666666666,485.43248,111.68,484.21776C117.65333333333335,483.00304,123.62666666666668,481.858,129.60000000000002,480.49248C135.57333333333335,479.12696,141.54666666666665,477.5264,147.51999999999998,476.02464000000003C153.4933333333333,474.52288000000004,159.46666666666667,473.10016,165.44,471.48192C171.41333333333333,469.86368,177.38666666666668,467.94696,183.36,466.3152C189.33333333333334,464.68344,195.30666666666667,463.27528,201.28,461.69136000000003C207.25333333333333,460.10744000000005,213.2266666666667,458.57344,219.20000000000002,456.81168C225.17333333333335,455.04992000000004,231.14666666666668,453.21016000000003,237.12,451.12080000000003C243.09333333333333,449.03144000000003,249.06666666666666,446.85368000000005,255.04,444.27552000000003C261.0133333333333,441.69736,266.9866666666667,438.51288,272.96000000000004,435.65184C278.93333333333334,432.7908,284.9066666666667,429.94016,290.88,427.10928C296.85333333333335,424.27840000000003,302.82666666666665,421.51928,308.8,418.66656C314.77333333333337,415.81384,320.74666666666667,413.11504,326.72,409.99296000000004C332.6933333333334,406.87088000000006,338.6666666666667,403.1872,344.64000000000004,399.93408C350.61333333333334,396.68095999999997,356.5866666666667,393.33008,362.56,390.47424C368.53333333333336,387.6184,374.50666666666666,385.69232,380.48,382.79904C386.4533333333334,379.90576,392.4266666666667,376.18879999999996,398.40000000000003,373.11456C404.37333333333333,370.04032,410.3466666666667,367.20216000000005,416.32,364.35360000000003C422.29333333333335,361.50504,428.26666666666665,358.58783999999997,434.24,356.0232C440.21333333333337,353.45856,446.18666666666667,351.19032,452.16,348.96576C458.1333333333333,346.7412,464.1066666666667,342.91712,470.08,342.67584C476.05333333333334,342.43456,482.02666666666664,342.5552,488,342.31392C493.97333333333336,342.07264,499.94666666666666,336.1228,505.92,333.7464C511.8933333333334,331.37,517.8666666666667,329.53232,523.84,328.05552C529.8133333333334,326.57872000000003,535.7866666666666,326.5167984,541.76,324.8856C547.7333333333333,323.2544016,553.7066666666666,321.0707552,559.68,318.2683296C565.6533333333333,315.465904,571.6266666666667,311.5413704,577.6,308.0710464C583.5733333333334,304.6007224,589.5466666666666,301.06215360000004,595.52,297.44638560000004C601.4933333333333,293.83061760000004,607.4666666666667,290.1437240000001,613.44,286.37643840000004C619.4133333333334,282.60915280000006,625.3866666666667,278.76782959999997,631.36,274.842672C637.3333333333334,270.91751439999996,643.3066666666667,266.91515760000004,649.2800000000001,262.8254928C655.2533333333333,258.735828,661.2266666666667,254.56572959999997,667.1999999999999,250.3046832C673.1733333333333,246.04363679999997,679.1466666666666,241.69881840000002,685.12,237.25921440000002C691.0933333333334,232.81961040000004,697.0666666666666,228.29271920000002,703.04,223.66705920000004C709.0133333333333,219.04139920000003,714.9866666666667,214.32476000000003,720.96,209.5052544C726.9333333333334,204.68574880000003,732.9066666666666,199.7714992,738.88,194.75002560000001C744.8533333333334,189.728552,750.8266666666667,184.60833040000006,756.8000000000001,179.37641280000003C762.7733333333333,174.14449520000005,768.7466666666667,168.80969039999997,774.7199999999999,163.35852C780.6933333333333,157.90734959999997,786.6666666666666,152.34900720000007,792.64,146.66939040000005C798.6133333333333,140.98977360000006,804.5866666666666,135.19845039999998,810.56,129.2808192C816.5333333333333,123.36318799999997,822.5066666666667,117.32922239999996,828.48,111.16360319999995C834.4533333333334,104.99798399999999,840.4266666666666,98.71111120000002,846.4,92.28710400000006C852.3733333333333,85.86309680000005,858.3466666666667,79.31277120000006,864.32,72.61956000000004C870.2933333333334,65.92634880000006,876.2666666666667,59.02709280000006,882.24,52.12783680000007"/><text class="label" font-size="11" alignment-baseline="middle" opacity="1" x="5" fill="rgb(128, 35, 146)" transform="translate(897.239990234375, 72.12783813476562)"/></g></g><g id="data-points"><g class="series" transform="translate(15,20)"><path class="data-point" fill="rgb(17, 165, 121)" data-type="point" transform="translate(0, 0)" d="M54.92,459.11424A3,3,0,1,1,60.92,459.11424A3,3,0,1,1,54.92,459.11424Z" id="point-0-0" opacity="1"/><path class="data-point" fill="rgb(17, 165, 121)" data-type="point" transform="translate(0, 0)" d="M72.84,453.68544A3,3,0,1,1,78.84,453.68544A3,3,0,1,1,72.84,453.68544Z" id="point-0-1" opacity="1"/><path class="data-point" fill="rgb(17, 165, 121)" data-type="point" transform="translate(0, 0)" d="M90.75999999999999,448.91808000000003A3,3,0,1,1,96.75999999999999,448.91808000000003A3,3,0,1,1,90.75999999999999,448.91808000000003Z" id="point-0-2" opacity="1"/><path class="data-point" fill="rgb(17, 165, 121)" data-type="point" transform="translate(0, 0)" d="M108.68,443.40192A3,3,0,1,1,114.68,443.40192A3,3,0,1,1,108.68,443.40192Z" id="point-0-3" opacity="1"/><path class="data-point" fill="rgb(17, 165, 121)" data-type="point" transform="translate(0, 0)" d="M126.60000000000002,439.05888000000004A3,3,0,1,1,132.60000000000002,439.05888000000004A3,3,0,1,1,126.60000000000002,439.05888000000004Z" id="point-0-4" opacity="1"/><path class="data-point" fill="rgb(17, 165, 121)" data-type="point" transform="translate(0, 0)" d="M144.51999999999998,434.29152A3,3,0,1,1,150.51999999999998,434.29152A3,3,0,1,1,144.51999999999998,434.29152Z" id="point-0-5" opacity="1"/><path class="data-point" fill="rgb(17, 165, 121)" data-type="point" transform="translate(0, 0)" d="M162.44,428.08896000000004A3,3,0,1,1,168.44,428.08896000000004A3,3,0,1,1,162.44,428.08896000000004Z" id="point-0-6" opacity="1"/><path class="data-point" fill="rgb(17, 165, 121)" data-type="point" transform="translate(0, 0)" d="M180.36,422.87232A3,3,0,1,1,186.36,422.87232A3,3,0,1,1,180.36,422.87232Z" id="point-0-7" opacity="1"/><path class="data-point" fill="rgb(17, 165, 121)" data-type="point" transform="translate(0, 0)" d="M198.28,418.03008A3,3,0,1,1,204.28,418.03008A3,3,0,1,1,198.28,418.03008Z" id="point-0-8" opacity="1"/><path class="data-point" fill="rgb(17, 165, 121)" data-type="point" transform="translate(0, 0)" d="M216.20000000000002,411.72768A3,3,0,1,1,222.20000000000002,411.72768A3,3,0,1,1,216.20000000000002,411.72768Z" id="point-0-9" opacity="1"/><path class="data-point" fill="rgb(17, 165, 121)" data-type="point" transform="translate(0, 0)" d="M234.12,404.83872A3,3,0,1,1,240.12,404.83872A3,3,0,1,1,234.12,404.83872Z" id="point-0-10" opacity="1"/><path class="data-point" fill="rgb(17, 165, 121)" data-type="point" transform="translate(0, 0)" d="M252.04,397.20096A3,3,0,1,1,258.03999999999996,397.20096A3,3,0,1,1,252.04,397.20096Z" id="point-0-11" opacity="1"/><path class="data-point" fill="rgb(17, 165, 121)" data-type="point" transform="translate(0, 0)" d="M269.96000000000004,387.46656A3,3,0,1,1,275.96000000000004,387.46656A3,3,0,1,1,269.96000000000004,387.46656Z" id="point-0-12" opacity="1"/><path class="data-point" fill="rgb(17, 165, 121)" data-type="point" transform="translate(0, 0)" d="M287.88,377.23296A3,3,0,1,1,293.88,377.23296A3,3,0,1,1,287.88,377.23296Z" id="point-0-13" opacity="1"/><path class="data-point" fill="rgb(17, 165, 121)" data-type="point" transform="translate(0, 0)" d="M305.8,366.37536A3,3,0,1,1,311.8,366.37536A3,3,0,1,1,305.8,366.37536Z" id="point-0-14" opacity="1"/><path class="data-point" fill="rgb(17, 165, 121)" data-type="point" transform="translate(0, 0)" d="M323.72,355.25568A3,3,0,1,1,329.72,355.25568A3,3,0,1,1,323.72,355.25568Z" id="point-0-15" opacity="1"/><path class="data-point" fill="rgb(17, 165, 121)" data-type="point" transform="translate(0, 0)" d="M341.64000000000004,344.5104A3,3,0,1,1,347.64000000000004,344.5104A3,3,0,1,1,341.64000000000004,344.5104Z" id="point-0-16" opacity="1"/><path class="data-point" fill="rgb(17, 165, 121)" data-type="point" transform="translate(0, 0)" d="M359.56,334.0272A3,3,0,1,1,365.56,334.0272A3,3,0,1,1,359.56,334.0272Z" id="point-0-17" opacity="1"/><path class="data-point" fill="rgb(17, 165, 121)" data-type="point" transform="translate(0, 0)" d="M377.48,324.37392A3,3,0,1,1,383.48,324.37392A3,3,0,1,1,377.48,324.37392Z" id="point-0-18" opacity="1"/><path class="data-point" fill="rgb(17, 165, 121)" data-type="point" transform="translate(0, 0)" d="M395.40000000000003,314.66448A3,3,0,1,1,401.40000000000003,314.66448A3,3,0,1,1,395.40000000000003,314.66448Z" id="point-0-19" opacity="1"/><path class="data-point" fill="rgb(17, 165, 121)" data-type="point" transform="translate(0, 0)" d="M413.32,305.73504A3,3,0,1,1,419.32,305.73504A3,3,0,1,1,413.32,305.73504Z" id="point-0-20" opacity="1"/><path class="data-point" fill="rgb(17, 165, 121)" data-type="point" transform="translate(0, 0)" d="M431.24,295.6512A3,3,0,1,1,437.24,295.6512A3,3,0,1,1,431.24,295.6512Z" id="point-0-21" opacity="1"/><path class="data-point" fill="rgb(17, 165, 121)" data-type="point" transform="translate(0, 0)" d="M449.16,288.48768A3,3,0,1,1,455.16,288.48768A3,3,0,1,1,449.16,288.48768Z" id="point-0-22" opacity="1"/><path class="data-point" fill="rgb(17, 165, 121)" data-type="point" transform="translate(0, 0)" d="M467.08,279.46464A3,3,0,1,1,473.08,279.46464A3,3,0,1,1,467.08,279.46464Z" id="point-0-23" opacity="1"/><path class="data-point" fill="rgb(17, 165, 121)" data-type="point" transform="translate(0, 0)" d="M485,271.22784A3,3,0,1,1,491,271.22784A3,3,0,1,1,485,271.22784Z" id="point-0-24" opacity="1"/><path class="data-point" fill="rgb(17, 165, 121)" data-type="point" transform="translate(0, 0)" d="M502.92,272.16384A3,3,0,1,1,508.92,272.16384A3,3,0,1,1,502.92,272.16384Z" id="point-0-25" opacity="1"/><path class="data-point" fill="rgb(17, 165, 121)" data-type="point" transform="translate(0, 0)" d="M520.84,254.79168000000004A3,3,0,1,1,526.84,254.79168000000004A3,3,0,1,1,520.84,254.79168000000004Z" id="point-0-26" opacity="1"/><path class="data-point" fill="rgb(17, 165, 121)" data-type="point" transform="translate(0, 0)" d="M538.76,315.12A3,3,0,1,1,544.76,315.12A3,3,0,1,1,538.76,315.12Z" id="point-0-27" opacity="1"/><path class="data-point" fill="rgb(17, 165, 121)" data-type="point" transform="translate(0, 0)" d="M556.68,312.65520000000004A3,3,0,1,1,562.68,312.65520000000004A3,3,0,1,1,556.68,312.65520000000004Z" id="point-0-28" opacity="1"/><path class="data-point" fill="rgb(17, 165, 121)" data-type="point" transform="translate(0, 0)" d="M574.6,310.16544A3,3,0,1,1,580.6,310.16544A3,3,0,1,1,574.6,310.16544Z" id="point-0-29" opacity="1"/><path class="data-point" fill="rgb(17, 165, 121)" data-type="point" transform="translate(0, 0)" d="M592.52,307.65072000000004A3,3,0,1,1,598.52,307.65072000000004A3,3,0,1,1,592.52,307.65072000000004Z" id="point-0-30" opacity="1"/><path class="data-point" fill="rgb(17, 165, 121)" data-type="point" transform="translate(0, 0)" d="M610.44,305.11104A3,3,0,1,1,616.44,305.11104A3,3,0,1,1,610.44,305.11104Z" id="point-0-31" opacity="1"/><path class="data-point" fill="rgb(17, 165, 121)" data-type="point" transform="translate(0, 0)" d="M628.36,302.5464A3,3,0,1,1,634.36,302.5464A3,3,0,1,1,628.36,302.5464Z" id="point-0-32" opacity="1"/><path class="data-point" fill="rgb(17, 165, 121)" data-type="point" transform="translate(0, 0)" d="M646.2800000000001,299.9568A3,3,0,1,1,652.2800000000001,299.9568A3,3,0,1,1,646.2800000000001,299.9568Z" id="point-0-33" opacity="1"/><path class="data-point" fill="rgb(17, 165, 121)" data-type="point" transform="translate(0, 0)" d="M664.1999999999999,297.34224A3,3,0,1,1,670.1999999999999,297.34224A3,3,0,1,1,664.1999999999999,297.34224Z" id="point-0-34" opacity="1"/><path class="data-point" fill="rgb(17, 165, 121)" data-type="point" transform="translate(0, 0)" d="M682.12,294.69648A3,3,0,1,1,688.12,294.69648A3,3,0,1,1,682.12,294.69648Z" id="point-0-35" opacity="1"/><path class="data-point" fill="rgb(17, 165, 121)" data-type="point" transform="translate(0, 0)" d="M700.04,292.02576A3,3,0,1,1,706.04,292.02576A3,3,0,1,1,700.04,292.02576Z" id="point-0-36" opacity="1"/><path class="data-point" fill="rgb(17, 165, 121)" data-type="point" transform="translate(0, 0)" d="M717.96,289.33008A3,3,0,1,1,723.96,289.33008A3,3,0,1,1,717.96,289.33008Z" id="point-0-37" opacity="1"/><path class="data-point" fill="rgb(17, 165, 121)" data-type="point" transform="translate(0, 0)" d="M735.88,286.60944A3,3,0,1,1,741.88,286.60944A3,3,0,1,1,735.88,286.60944Z" id="point-0-38" opacity="1"/><path class="data-point" fill="rgb(17, 165, 121)" data-type="point" transform="translate(0, 0)" d="M753.8000000000001,283.8576A3,3,0,1,1,759.8000000000001,283.8576A3,3,0,1,1,753.8000000000001,283.8576Z" id="point-0-39" opacity="1"/><path class="data-point" fill="rgb(17, 165, 121)" data-type="point" transform="translate(0, 0)" d="M771.7199999999999,281.0808A3,3,0,1,1,777.7199999999999,281.0808A3,3,0,1,1,771.7199999999999,281.0808Z" id="point-0-40" opacity="1"/><path class="data-point" fill="rgb(17, 165, 121)" data-type="point" transform="translate(0, 0)" d="M789.64,278.27904A3,3,0,1,1,795.64,278.27904A3,3,0,1,1,789.64,278.27904Z" id="point-0-41" opacity="1"/><path class="data-point" fill="rgb(17, 165, 121)" data-type="point" transform="translate(0, 0)" d="M807.56,275.44608000000005A3,3,0,1,1,813.56,275.44608000000005A3,3,0,1,1,807.56,275.44608000000005Z" id="point-0-42" opacity="1"/><path class="data-point" fill="rgb(17, 165, 121)" data-type="point" transform="translate(0, 0)" d="M825.48,272.58191999999997A3,3,0,1,1,831.48,272.58191999999997A3,3,0,1,1,825.48,272.58191999999997Z" id="point-0-43" opacity="1"/><path class="data-point" fill="rgb(17, 165, 121)" data-type="point" transform="translate(0, 0)" d="M843.4,269.69280000000003A3,3,0,1,1,849.4,269.69280000000003A3,3,0,1,1,843.4,269.69280000000003Z" id="point-0-44" opacity="1"/><path class="data-point" fill="rgb(17, 165, 121)" data-type="point" transform="translate(0, 0)" d="M861.32,266.77248000000003A3,3,0,1,1,867.32,266.77248000000003A3,3,0,1,1,861.32,266.77248000000003Z" id="point-0-45" opacity="1"/><path class="data-point" fill="rgb(17, 165, 121)" data-type="point" transform="translate(0, 0)" d="M879.24,263.8272A3,3,0,1,1,885.24,263.8272A3,3,0,1,1,879.24,263.8272Z" id="point-0-46" opacity="1"/></g><g class="series" transform="translate(15,20)"><path class="data-point" fill="rgb(128, 35, 146)" data-type="point" transform="translate(0, 0)" d="M54.92,496.19856000000004A3,3,0,1,1,60.92,496.19856000000004A3,3,0,1,1,54.92,496.19856000000004Z" id="point-1-0" opacity="1"/><path class="data-point" fill="rgb(128, 35, 146)" data-type="point" transform="translate(0, 0)" d="M72.84,492.18624A3,3,0,1,1,78.84,492.18624A3,3,0,1,1,72.84,492.18624Z" id="point-1-1" opacity="1"/><path class="data-point" fill="rgb(128, 35, 146)" data-type="point" transform="translate(0, 0)" d="M90.75999999999999,487.7808A3,3,0,1,1,96.75999999999999,487.7808A3,3,0,1,1,90.75999999999999,487.7808Z" id="point-1-2" opacity="1"/><path class="data-point" fill="rgb(128, 35, 146)" data-type="point" transform="translate(0, 0)" d="M108.68,484.21776A3,3,0,1,1,114.68,484.21776A3,3,0,1,1,108.68,484.21776Z" id="point-1-3" opacity="1"/><path class="data-point" fill="rgb(128, 35, 146)" data-type="point" transform="translate(0, 0)" d="M126.60000000000002,480.49248A3,3,0,1,1,132.60000000000002,480.49248A3,3,0,1,1,126.60000000000002,480.49248Z" id="point-1-4" opacity="1"/><path class="data-point" fill="rgb(128, 35, 146)" data-type="point" transform="translate(0, 0)" d="M144.51999999999998,476.02464000000003A3,3,0,1,1,150.51999999999998,476.02464000000003A3,3,0,1,1,144.51999999999998,476.02464000000003Z" id="point-1-5" opacity="1"/><path class="data-point" fill="rgb(128, 35, 146)" data-type="point" transform="translate(0, 0)" d="M162.44,471.48192A3,3,0,1,1,168.44,471.48192A3,3,0,1,1,162.44,471.48192Z" id="point-1-6" opacity="1"/><path class="data-point" fill="rgb(128, 35, 146)" data-type="point" transform="translate(0, 0)" d="M180.36,466.3152A3,3,0,1,1,186.36,466.3152A3,3,0,1,1,180.36,466.3152Z" id="point-1-7" opacity="1"/><path class="data-point" fill="rgb(128, 35, 146)" data-type="point" transform="translate(0, 0)" d="M198.28,461.69136000000003A3,3,0,1,1,204.28,461.69136000000003A3,3,0,1,1,198.28,461.69136000000003Z" id="point-1-8" opacity="1"/><path class="data-point" fill="rgb(128, 35, 146)" data-type="point" transform="translate(0, 0)" d="M216.20000000000002,456.81168A3,3,0,1,1,222.20000000000002,456.81168A3,3,0,1,1,216.20000000000002,456.81168Z" id="point-1-9" opacity="1"/><path class="data-point" fill="rgb(128, 35, 146)" data-type="point" transform="translate(0, 0)" d="M234.12,451.12080000000003A3,3,0,1,1,240.12,451.12080000000003A3,3,0,1,1,234.12,451.12080000000003Z" id="point-1-10" opacity="1"/><path class="data-point" fill="rgb(128, 35, 146)" data-type="point" transform="translate(0, 0)" d="M252.04,444.27552000000003A3,3,0,1,1,258.03999999999996,444.27552000000003A3,3,0,1,1,252.04,444.27552000000003Z" id="point-1-11" opacity="1"/><path class="data-point" fill="rgb(128, 35, 146)" data-type="point" transform="translate(0, 0)" d="M269.96000000000004,435.65184A3,3,0,1,1,275.96000000000004,435.65184A3,3,0,1,1,269.96000000000004,435.65184Z" id="point-1-12" opacity="1"/><path class="data-point" fill="rgb(128, 35, 146)" data-type="point" transform="translate(0, 0)" d="M287.88,427.10928A3,3,0,1,1,293.88,427.10928A3,3,0,1,1,287.88,427.10928Z" id="point-1-13" opacity="1"/><path class="data-point" fill="rgb(128, 35, 146)" data-type="point" transform="translate(0, 0)" d="M305.8,418.66656A3,3,0,1,1,311.8,418.66656A3,3,0,1,1,305.8,418.66656Z" id="point-1-14" opacity="1"/><path class="data-point" fill="rgb(128, 35, 146)" data-type="point" transform="translate(0, 0)" d="M323.72,409.99296000000004A3,3,0,1,1,329.72,409.99296000000004A3,3,0,1,1,323.72,409.99296000000004Z" id="point-1-15" opacity="1"/><path class="data-point" fill="rgb(128, 35, 146)" data-type="point" transform="translate(0, 0)" d="M341.64000000000004,399.93408A3,3,0,1,1,347.64000000000004,399.93408A3,3,0,1,1,341.64000000000004,399.93408Z" id="point-1-16" opacity="1"/><path class="data-point" fill="rgb(128, 35, 146)" data-type="point" transform="translate(0, 0)" d="M359.56,390.47424A3,3,0,1,1,365.56,390.47424A3,3,0,1,1,359.56,390.47424Z" id="point-1-17" opacity="1"/><path class="data-point" fill="rgb(128, 35, 146)" data-type="point" transform="translate(0, 0)" d="M377.48,382.79904A3,3,0,1,1,383.48,382.79904A3,3,0,1,1,377.48,382.79904Z" id="point-1-18" opacity="1"/><path class="data-point" fill="rgb(128, 35, 146)" data-type="point" transform="translate(0, 0)" d="M395.40000000000003,373.11456A3,3,0,1,1,401.40000000000003,373.11456A3,3,0,1,1,395.40000000000003,373.11456Z" id="point-1-19" opacity="1"/><path class="data-point" fill="rgb(128, 35, 146)" data-type="point" transform="translate(0, 0)" d="M413.32,364.35360000000003A3,3,0,1,1,419.32,364.35360000000003A3,3,0,1,1,413.32,364.35360000000003Z" id="point-1-20" opacity="1"/><path class="data-point" fill="rgb(128, 35, 146)" data-type="point" transform="translate(0, 0)" d="M431.24,356.0232A3,3,0,1,1,437.24,356.0232A3,3,0,1,1,431.24,356.0232Z" id="point-1-21" opacity="1"/><path class="data-point" fill="rgb(128, 35, 146)" data-type="point" transform="translate(0, 0)" d="M449.16,348.96576A3,3,0,1,1,455.16,348.96576A3,3,0,1,1,449.16,348.96576Z" id="point-1-22" opacity="1"/><path class="data-point" fill="rgb(128, 35, 146)" data-type="point" transform="translate(0, 0)" d="M467.08,342.67584A3,3,0,1,1,473.08,342.67584A3,3,0,1,1,467.08,342.67584Z" id="point-1-23" opacity="1"/><path class="data-point" fill="rgb(128, 35, 146)" data-type="point" transform="translate(0, 0)" d="M485,342.31392A3,3,0,1,1,491,342.31392A3,3,0,1,1,485,342.31392Z" id="point-1-24" opacity="1"/><path class="data-point" fill="rgb(128, 35, 146)" data-type="point" transform="translate(0, 0)" d="M502.92,333.7464A3,3,0,1,1,508.92,333.7464A3,3,0,1,1,502.92,333.7464Z" id="point-1-25" opacity="1"/><path class="data-point" fill="rgb(128, 35, 146)" data-type="point" transform="translate(0, 0)" d="M520.84,328.05552A3,3,0,1,1,526.84,328.05552A3,3,0,1,1,520.84,328.05552Z" id="point-1-26" opacity="1"/><path class="data-point" fill="rgb(128, 35, 146)" data-type="point" transform="translate(0, 0)" d="M538.76,324.8856A3,3,0,1,1,544.76,324.8856A3,3,0,1,1,538.76,324.8856Z" id="point-1-27" opacity="1"/><path class="data-point" fill="rgb(128, 35, 146)" data-type="point" transform="translate(0, 0)" d="M556.68,318.2683296A3,3,0,1,1,562.68,318.2683296A3,3,0,1,1,556.68,318.2683296Z" id="point-1-28" opacity="1"/><path class="data-point" fill="rgb(128, 35, 146)" data-type="point" transform="translate(0, 0)" d="M574.6,308.0710464A3,3,0,1,1,580.6,308.0710464A3,3,0,1,1,574.6,308.0710464Z" id="point-1-29" opacity="1"/><path class="data-point" fill="rgb(128, 35, 146)" data-type="point" transform="translate(0, 0)" d="M592.52,297.44638560000004A3,3,0,1,1,598.52,297.44638560000004A3,3,0,1,1,592.52,297.44638560000004Z" id="point-1-30" opacity="1"/><path class="data-point" fill="rgb(128, 35, 146)" data-type="point" transform="translate(0, 0)" d="M610.44,286.37643840000004A3,3,0,1,1,616.44,286.37643840000004A3,3,0,1,1,610.44,286.37643840000004Z" id="point-1-31" opacity="1"/><path class="data-point" fill="rgb(128, 35, 146)" data-type="point" transform="translate(0, 0)" d="M628.36,274.842672A3,3,0,1,1,634.36,274.842672A3,3,0,1,1,628.36,274.842672Z" id="point-1-32" opacity="1"/><path class="data-point" fill="rgb(128, 35, 146)" data-type="point" transform="translate(0, 0)" d="M646.2800000000001,262.8254928A3,3,0,1,1,652.2800000000001,262.8254928A3,3,0,1,1,646.2800000000001,262.8254928Z" id="point-1-33" opacity="1"/><path class="data-point" fill="rgb(128, 35, 146)" data-type="point" transform="translate(0, 0)" d="M664.1999999999999,250.3046832A3,3,0,1,1,670.1999999999999,250.3046832A3,3,0,1,1,664.1999999999999,250.3046832Z" id="point-1-34" opacity="1"/><path class="data-point" fill="rgb(128, 35, 146)" data-type="point" transform="translate(0, 0)" d="M682.12,237.25921440000002A3,3,0,1,1,688.12,237.25921440000002A3,3,0,1,1,682.12,237.25921440000002Z" id="point-1-35" opacity="1"/><path class="data-point" fill="rgb(128, 35, 146)" data-type="point" transform="translate(0, 0)" d="M700.04,223.66705920000004A3,3,0,1,1,706.04,223.66705920000004A3,3,0,1,1,700.04,223.66705920000004Z" id="point-1-36" opacity="1"/><path class="data-point" fill="rgb(128, 35, 146)" data-type="point" transform="translate(0, 0)" d="M717.96,209.5052544A3,3,0,1,1,723.96,209.5052544A3,3,0,1,1,717.96,209.5052544Z" id="point-1-37" opacity="1"/><path class="data-point" fill="rgb(128, 35, 146)" data-type="point" transform="translate(0, 0)" d="M735.88,194.75002560000001A3,3,0,1,1,741.88,194.75002560000001A3,3,0,1,1,735.88,194.75002560000001Z" id="point-1-38" opacity="1"/><path class="data-point" fill="rgb(128, 35, 146)" data-type="point" transform="translate(0, 0)" d="M753.8000000000001,179.37641280000003A3,3,0,1,1,759.8000000000001,179.37641280000003A3,3,0,1,1,753.8000000000001,179.37641280000003Z" id="point-1-39" opacity="1"/><path class="data-point" fill="rgb(128, 35, 146)" data-type="point" transform="translate(0, 0)" d="M771.7199999999999,163.35852A3,3,0,1,1,777.7199999999999,163.35852A3,3,0,1,1,771.7199999999999,163.35852Z" id="point-1-40" opacity="1"/><path class="data-point" fill="rgb(128, 35, 146)" data-type="point" transform="translate(0, 0)" d="M789.64,146.66939040000005A3,3,0,1,1,795.64,146.66939040000005A3,3,0,1,1,789.64,146.66939040000005Z" id="point-1-41" opacity="1"/><path class="data-point" fill="rgb(128, 35, 146)" data-type="point" transform="translate(0, 0)" d="M807.56,129.2808192A3,3,0,1,1,813.56,129.2808192A3,3,0,1,1,807.56,129.2808192Z" id="point-1-42" opacity="1"/><path class="data-point" fill="rgb(128, 35, 146)" data-type="point" transform="translate(0, 0)" d="M825.48,111.16360319999995A3,3,0,1,1,831.48,111.16360319999995A3,3,0,1,1,825.48,111.16360319999995Z" id="point-1-43" opacity="1"/><path class="data-point" fill="rgb(128, 35, 146)" data-type="point" transform="translate(0, 0)" d="M843.4,92.28710400000006A3,3,0,1,1,849.4,92.28710400000006A3,3,0,1,1,843.4,92.28710400000006Z" id="point-1-44" opacity="1"/><path class="data-point" fill="rgb(128, 35, 146)" data-type="point" transform="translate(0, 0)" d="M861.32,72.61956000000004A3,3,0,1,1,867.32,72.61956000000004A3,3,0,1,1,861.32,72.61956000000004Z" id="point-1-45" opacity="1"/><path class="data-point" fill="rgb(128, 35, 146)" data-type="point" transform="translate(0, 0)" d="M879.24,52.12783680000007A3,3,0,1,1,885.24,52.12783680000007A3,3,0,1,1,879.24,52.12783680000007Z" id="point-1-46" opacity="1"/></g></g><g id="data-labels"/><g class="annotations above"><g class="axis-highlights" transform="translate(15, 20)" style="opacity: 1;"/></g></svg>