<svg xmlns="http://www.w3.org/2000/svg" id="graphic" width="883" height="598.18"><g id="facets"><g class="facet" transform="translate(50,10)" opacity="1"><text class="facet-title" y="0" font-size="16" font-weight="bold" dominant-baseline="middle" x="0" clip-path="url(#facet-clip-0)" fill="black"/><g class="plot"><clipPath class="facet-clip" id="facet-clip-0"><rect width="838" height="563.18" transform="translate(-7.5,-10)"/></clipPath><g class="bg"><rect fill="none" width="823" height="543.18" style="fill: none;"/></g><g class="interaction"><g class="series"><path data-target="point-0-0" d="M0,476.751555L22.16576846999999,476.751555L28.105367700000013,473.01595799999996L0,365.33255685057486Z" style="opacity: 0;"/><path data-target="point-0-1" d="M0,365.33255685057486L28.105367700000013,473.01595799999996L38.29268753119997,473.015958L44.24204918719999,469.386528L0,276.35839018499075Z" style="opacity: 0;"/><path data-target="point-0-2" d="M0,276.35839018499075L44.24204918719999,469.386528L55.217430117100015,469.386528L61.314083671600024,465.794133L0,234.5947224736065Z" style="opacity: 0;"/><path data-target="point-0-3" d="M0,234.5947224736065L61.314083671600024,465.794133L71.44157568239999,465.794133L77.1342936768,462.60171599999995L0,93.18460068965507Z" style="opacity: 0;"/><path data-target="point-0-4" d="M0,93.18460068965507L77.1342936768,462.60171599999995L87.38825873120003,462.60171599999995L93.88236079519999,458.947596L31.554721738914722,187.0119980231873L3.552713678800501e-15,67.35055798179633Z" style="opacity: 0;"/><path data-target="point-0-5" d="M31.554721738914722,187.0119980231873L93.88236079519999,458.947596L103.77619158399997,458.947596L111.37808456799998,454.69597799999997Z" style="opacity: 0;"/><path data-target="point-0-6" d="M3.552713678800501e-15,67.35055798179633L31.554721738914722,187.0119980231873L111.37808456799998,454.69597799999997L119.69292665040001,454.69597799999997L127.24337357520001,450.58756199999993L14.236013025599625,0L0,0Z" style="opacity: 0;"/><path data-target="point-0-7" d="M14.236013025599625,0L127.24337357520001,450.58756199999993L136.49555002730003,450.58756199999993L143.4857262872,446.842089L80.89381015746888,177.97646988603447L44.88717322920684,43.57319654425703L41.95362635323485,34.956268815517774L29.170118847399998,0Z" style="opacity: 0;"/><path data-target="point-0-8" d="M80.89381015746888,177.97646988603447L143.4857262872,446.842089L152.770101709,446.842089L161.01948500499998,442.417641Z" style="opacity: 0;"/><path data-target="point-0-9" d="M44.88717322920684,43.57319654425703L80.89381015746888,177.97646988603447L161.01948500499998,442.417641L168.56545234079996,442.417641L177.99234716639998,437.440137L62.818165222402925,89.69200311111939Z" style="opacity: 0;"/><path data-target="point-0-10" d="M62.818165222402925,89.69200311111939L177.99234716639998,437.440137L184.154697272,437.440137L195.01981817600003,431.70958799999994L117.60990170514027,220.89826863491518Z" style="opacity: 0;"/><path data-target="point-0-11" d="M117.60990170514027,220.89826863491518L195.01981817600003,431.70958799999994L199.4422847212,431.709588L212.870141704,424.44579Z" style="opacity: 0;"/><path data-target="point-0-12" d="M41.95362635323485,34.956268815517774L44.88717322920684,43.57319654425703L62.818165222402925,89.69200311111939L117.60990170514027,220.89826863491518L212.870141704,424.44579L215.7679417401,424.44579L229.927294044,417.01656899999995Z" style="opacity: 0;"/><path data-target="point-0-13" d="M29.170118847399998,0L41.95362635323485,34.956268815517774L229.927294044,417.01656899999995L232.01561045599993,417.01656899999995L247.22775151999997,409.37995199999995L33.531416576000595,0Z" style="opacity: 0;"/><path data-target="point-0-14" d="M33.531416576000595,0L247.22775151999997,409.37995199999995L247.93328473000005,409.379952L263.2874021791853,402.0580075797876L264.0941554495137,401.0579415449191L49.68857989960088,0Z" style="opacity: 0;"/><path data-target="point-0-15" d="M49.68857989960088,0L264.0941554495137,401.0579415449191L279.9436185673988,393.67923432057785L280.5436501403963,392.9704798048709L77.53510027319945,0Z" style="opacity: 0;"/><path data-target="point-0-16" d="M77.53510027319945,0L280.5436501403963,392.9704798048709L297.216073616,385.425714L102.96151375999978,0Z" style="opacity: 0;"/><path data-target="point-0-17" d="M102.96151375999978,0L297.216073616,385.425714L297.38914722399994,385.425714L312.2351549109998,379.09425388101334L313.2221734495556,378.04378715202677L137.7720518322999,0Z" style="opacity: 0;"/><path data-target="point-0-18" d="M137.7720518322999,0L313.2221734495556,378.04378715202677L329.2743996200113,371.19352206840296L329.8377990603611,370.6072888439612L156.8383166280005,0Z" style="opacity: 0;"/><path data-target="point-0-19" d="M156.8383166280005,0L329.8377990603611,370.6072888439612L345.8703157571,363.896034L189.64974836089954,0Z" style="opacity: 0;"/><path data-target="point-0-20" d="M189.64974836089954,0L345.8703157571,363.896034L345.9209827645,363.896034L363.23475231244413,356.7347776208197L363.4816806250431,356.4971637711286L190.6518556288005,0Z" style="opacity: 0;"/><path data-target="point-0-21" d="M190.6518556288005,0L363.4816806250431,356.4971637711286L377.61516483840006,350.983164L296.2373181241386,114.69441047427142L251.6097230085994,0Z" style="opacity: 0;"/><path data-target="point-0-22" d="M296.2373181241386,114.69441047427142L377.61516483840006,350.983164L380.32630328959993,350.983164L396.1110173048,344.92423799999995Z" style="opacity: 0;"/><path data-target="point-0-23" d="M251.6097230085994,0L296.2373181241386,114.69441047427142L396.1110173048,344.92423799999995L402.83730083679995,344.92423799999995L409.96995372412397,342.56368303331874L412.7012558391783,340.4704906241879L277.8749415520009,0Z" style="opacity: 0;"/><path data-target="point-0-24" d="M277.8749415520009,0L412.7012558391783,340.4704906241879L418.616839005,338.502369L420.8492021768507,288.8942985144286L306.70706483379996,0Z" style="opacity: 0;"/><path data-target="point-0-25" d="M418.616839005,338.502369L430.1393816912,338.502369L440.97287310966937,334.47070236367483L450.89183784732614,324.86488720034265L420.8492021768507,288.8942985144286Z" style="opacity: 0;"/><path data-target="point-0-26" d="M306.70706483379996,0L420.8492021768507,288.8942985144286L450.89183784732614,324.86488720034265L467.53163790721305,319.1278164308326L432.7340570793479,196.63260772312537L397.83889826560784,106.24422336906815L354.42146078250903,8.177079757436672L350.4845500933803,0Z" style="opacity: 0;"/><path data-target="point-0-27" d="M440.97287310966937,334.47070236367483L451.8699806812,351.992985L468.7136925074159,351.992985L473.3156073098175,321.5896214358904L473.1741113831671,320.7545711262487L467.53163790721305,319.1278164308326L450.89183784732614,324.86488720034265Z" style="opacity: 0;"/><path data-target="point-0-28" d="M432.7340570793479,196.63260772312537L467.53163790721305,319.1278164308326L473.1741113831671,320.7545711262487L490.25583345837646,315.29654860294283L498.8683175041576,308.71925379357117Z" style="opacity: 0;"/><path data-target="point-0-29" d="M397.83889826560784,106.24422336906815L432.7340570793479,196.63260772312537L498.8683175041576,308.71925379357117L506.0922225686531,306.4680312957423L515.9934063817876,299.06990119978565Z" style="opacity: 0;"/><path data-target="point-0-30" d="M354.42146078250903,8.177079757436672L397.83889826560784,106.24422336906815L515.9934063817876,299.06990119978565L521.8949481673623,297.27580592779333L533.1526272567445,289.0432494776738Z" style="opacity: 0;"/><path data-target="point-0-31" d="M350.4845500933803,0L354.42146078250903,8.177079757436672L533.1526272567445,289.0432494776738L537.6623192574181,287.7055676387238L550.3471391851717,278.62398090524584L366.2137586766808,0Z" style="opacity: 0;"/><path data-target="point-0-32" d="M366.2137586766808,0L550.3471391851717,278.62398090524584L553.393071440357,277.74222449997177L567.5783217713862,267.79614303768705L383.78392297230573,0Z" style="opacity: 0;"/><path data-target="point-0-33" d="M383.78392297230573,0L567.5783217713862,267.79614303768705L569.0857753456864,267.3701585176558L584.7590044391525,256.60397366444624L584.82669288998,256.5140460172254L401.9942650760128,0Z" style="opacity: 0;"/><path data-target="point-0-34" d="M401.9942650760128,0L584.82669288998,256.5140460172254L600.6911483687328,245.8339855120306L601.8053004889879,244.37439692328024L420.9166846588024,0Z" style="opacity: 0;"/><path data-target="point-0-35" d="M420.9166846588024,0L601.8053004889879,244.37439692328024L616.607786568398,234.60445605616076L618.7979925629115,231.77329867825495L440.62921113816196,0Z" style="opacity: 0;"/><path data-target="point-0-36" d="M440.62921113816196,0L618.7979925629115,231.77329867825495L632.5092754731849,222.8973721950191L635.8042648069406,218.6917688025277L461.2154113350389,2.842170943040401e-14Z" style="opacity: 0;"/><path data-target="point-0-37" d="M461.2154113350389,2.842170943040401e-14L635.8042648069406,218.6917688025277L648.3963135888976,210.6936712673167L652.8232145240326,205.11042395968465L482.77027419645117,0Z" style="opacity: 0;"/><path data-target="point-0-38" d="M482.77027419645117,0L652.8232145240326,205.11042395968465L664.2697425131262,197.97362825809586L669.854012379938,191.00892659518857L505.3930289042352,0Z" style="opacity: 0;"/><path data-target="point-0-39" d="M505.3930289042352,0L669.854012379938,191.00892659518857L680.1304943945032,184.71668926077436L686.8956059640674,176.36611203777304L529.1925537591658,0Z" style="opacity: 0;"/><path data-target="point-0-40" d="M529.1925537591658,0L686.8956059640674,176.36611203777304L695.9798777597574,170.9012161919687L703.9465129520628,161.16035058192213L554.290269913344,0Z" style="opacity: 0;"/><path data-target="point-0-41" d="M554.290269913344,0L703.9465129520628,161.16035058192213L711.8192606985191,156.5049336311672L721.0053523227493,145.36876545083348L580.8133134484874,0Z" style="opacity: 0;"/><path data-target="point-0-42" d="M580.8133134484874,0L721.0053523227493,145.36876545083348L727.6504316662069,141.50428341425203L738.0701438949377,128.9680244129928L608.9045461099162,0Z" style="opacity: 0;"/><path data-target="point-0-43" d="M608.9045461099162,0L738.0701438949377,128.9680244129928L743.4754071549601,125.87491028510884L755.1388993939486,111.93365357043723L638.7156998645022,-1.4210854715202004e-14Z" style="opacity: 0;"/><path data-target="point-0-44" d="M638.7156998645022,-1.4210854715202004e-14L755.1388993939486,111.93365357043723L777.6324086644456,99.26111106208958L670.4134330170464,-1.4210854715202004e-14Z" style="opacity: 0;"/><path data-target="point-0-45" d="M670.4134330170464,-1.4210854715202004e-14L777.6324086644456,99.26111106208958L808.1363346284826,92.67297649999998L704.1781036000989,-1.4210854715202004e-14Z" style="opacity: 0;"/><path data-target="point-0-46" d="M704.1781036000989,-1.4210854715202004e-14L808.1363346284826,92.67297649999998L823,92.67297649999999L823,0Z" style="opacity: 0;"/><path data-target="point-1-0" d="M34.97981551050004,543.18L22.16576846999999,476.751555L0,476.751555L0,543.18Z" style="opacity: 0;"/><path data-target="point-1-1" d="M22.16576846999999,476.751555L34.97981551050004,543.18L53.15343162680013,543.18L38.29268753119997,473.015958L28.105367700000013,473.01595799999996Z" style="opacity: 0;"/><path data-target="point-1-2" d="M38.29268753119997,473.015958L53.15343162680013,543.18L67.85825187069993,543.18L55.217430117100015,469.386528L44.24204918719999,469.386528Z" style="opacity: 0;"/><path data-target="point-1-3" d="M55.217430117100015,469.386528L67.85825187069993,543.18L85.30138446210006,543.18L71.44157568239999,465.794133L61.314083671600024,465.794133Z" style="opacity: 0;"/><path data-target="point-1-4" d="M71.44157568239999,465.794133L85.30138446210006,543.18L104.69647413439986,543.18L87.38825873120003,462.60171599999995L77.1342936768,462.60171599999995Z" style="opacity: 0;"/><path data-target="point-1-5" d="M87.38825873120003,462.60171599999995L104.69647413439986,543.18L122.17254861760011,543.18L103.77619158399997,458.947596L93.88236079519999,458.947596Z" style="opacity: 0;"/><path data-target="point-1-6" d="M103.77619158399997,458.947596L122.17254861760011,543.18L141.67235771519998,543.18L119.69292665040001,454.69597799999997L111.37808456799998,454.69597799999997Z" style="opacity: 0;"/><path data-target="point-1-7" d="M119.69292665040001,454.69597799999997L141.67235771519998,543.18L157.07884899469983,543.18L136.49555002730003,450.58756199999993L127.24337357520001,450.58756199999993Z" style="opacity: 0;"/><path data-target="point-1-8" d="M136.49555002730003,450.58756199999993L157.07884899469983,543.18L175.37097562959994,543.18L152.770101709,446.842089L143.4857262872,446.842089Z" style="opacity: 0;"/><path data-target="point-1-9" d="M152.770101709,446.842089L175.37097562959994,543.18L196.1340337632001,543.18L168.56545234079996,442.417641L161.01948500499998,442.417641Z" style="opacity: 0;"/><path data-target="point-1-10" d="M168.56545234079996,442.417641L196.1340337632001,543.18L218.95368618530009,543.18L184.154697272,437.440137L177.99234716639998,437.440137Z" style="opacity: 0;"/><path data-target="point-1-11" d="M184.154697272,437.440137L218.95368618530009,543.18L245.65791753640002,543.18L199.4422847212,431.709588L195.01981817600003,431.70958799999994Z" style="opacity: 0;"/><path data-target="point-1-12" d="M199.4422847212,431.709588L245.65791753640002,543.18L264.53208178709974,543.18L215.7679417401,424.44579L212.870141704,424.44579Z" style="opacity: 0;"/><path data-target="point-1-13" d="M215.7679417401,424.44579L264.53208178709974,543.18L283.2253470989003,543.18L232.01561045599993,417.01656899999995L229.927294044,417.01656899999995Z" style="opacity: 0;"/><path data-target="point-1-14" d="M232.01561045599993,417.01656899999995L283.2253470989003,543.18L303.7279047459997,543.18L247.93328473000005,409.379952L247.22775151999997,409.37995199999995Z" style="opacity: 0;"/><path data-target="point-1-15" d="M247.93328473000005,409.379952L303.7279047459997,543.18L331.5339977136001,543.18L263.2874021791853,402.0580075797876Z" style="opacity: 0;"/><path data-target="point-1-16" d="M263.2874021791853,402.0580075797876L331.5339977136001,543.18L347.93656679839984,543.18L279.9436185673988,393.67923432057785L264.0941554495137,401.0579415449191Z" style="opacity: 0;"/><path data-target="point-1-17" d="M279.9436185673988,393.67923432057785L347.93656679839984,543.18L355.60047875800024,543.18L297.38914722399994,385.425714L297.216073616,385.425714L280.5436501403963,392.9704798048709Z" style="opacity: 0;"/><path data-target="point-1-18" d="M297.38914722399994,385.425714L355.60047875800024,543.18L388.63347830399994,543.18L312.2351549109998,379.09425388101334Z" style="opacity: 0;"/><path data-target="point-1-19" d="M312.2351549109998,379.09425388101334L388.63347830399994,543.18L401.71510412480006,543.18L329.2743996200113,371.19352206840296L313.2221734495556,378.04378715202677Z" style="opacity: 0;"/><path data-target="point-1-20" d="M329.2743996200113,371.19352206840296L401.71510412480006,543.18L417.72421114749955,543.18L345.9209827645,363.896034L345.8703157571,363.896034L329.8377990603611,370.6072888439612Z" style="opacity: 0;"/><path data-target="point-1-21" d="M345.9209827645,363.896034L417.72421114749955,543.18L423.74306461910004,543.18L418.68674692045437,520.1653541254179L363.23475231244413,356.7347776208197Z" style="opacity: 0;"/><path data-target="point-1-22" d="M363.23475231244413,356.7347776208197L418.68674692045437,520.1653541254179L404.32351828168083,430.33903368280687L380.32630328959993,350.983164L377.61516483840006,350.983164L363.4816806250431,356.4971637711286Z" style="opacity: 0;"/><path data-target="point-1-23" d="M380.32630328959993,350.983164L404.32351828168083,430.33903368280687L402.83730083679995,344.92423799999995L396.1110173048,344.92423799999995Z" style="opacity: 0;"/><path data-target="point-1-24" d="M402.83730083679995,344.92423799999995L404.32351828168083,430.33903368280687L418.68674692045437,520.1653541254179L423.74306461910004,543.18L486.58329266089993,543.18L474.3099154929694,499.2366517438935L473.35014588700994,496.43644866304896L409.96995372412397,342.56368303331874Z" style="opacity: 0;"/><path data-target="point-1-25" d="M409.96995372412397,342.56368303331874L473.35014588700994,496.43644866304896L430.1393816912,338.502369L418.616839005,338.502369L412.7012558391783,340.4704906241879Z" style="opacity: 0;"/><path data-target="point-1-26" d="M430.1393816912,338.502369L473.35014588700994,496.43644866304896L474.3099154929694,499.2366517438935L451.8699806812,351.992985L440.97287310966937,334.47070236367483Z" style="opacity: 0;"/><path data-target="point-1-27" d="M451.8699806812,351.992985L474.3099154929694,499.2366517438935L486.58329266089993,543.18L529.5375415101662,543.18L468.7136925074159,351.992985Z" style="opacity: 0;"/><path data-target="point-1-28" d="M468.7136925074159,351.992985L529.5375415101662,543.18L581.9511789163631,543.18L473.3156073098175,321.5896214358904Z" style="opacity: 0;"/><path data-target="point-1-29" d="M473.1741113831671,320.7545711262487L473.3156073098175,321.5896214358904L581.9511789163631,543.18L606.658935791572,543.18L490.25583345837646,315.29654860294283Z" style="opacity: 0;"/><path data-target="point-1-30" d="M490.25583345837646,315.29654860294283L606.658935791572,543.18L632.0724607074317,543.18L506.0922225686531,306.4680312957423L498.8683175041576,308.71925379357117Z" style="opacity: 0;"/><path data-target="point-1-31" d="M506.0922225686531,306.4680312957423L632.0724607074317,543.18L658.2507957945938,543.18L521.8949481673623,297.27580592779333L515.9934063817876,299.06990119978565Z" style="opacity: 0;"/><path data-target="point-1-32" d="M521.8949481673623,297.27580592779333L658.2507957945938,543.18L685.2624086984131,543.18L537.6623192574181,287.7055676387238L533.1526272567445,289.0432494776738Z" style="opacity: 0;"/><path data-target="point-1-33" d="M537.6623192574181,287.7055676387238L685.2624086984131,543.18L713.176533396496,543.18L553.393071440357,277.74222449997177L550.3471391851717,278.62398090524584Z" style="opacity: 0;"/><path data-target="point-1-34" d="M553.393071440357,277.74222449997177L713.176533396496,543.18L742.069837202066,543.18L569.0857753456864,267.3701585176558L567.5783217713862,267.79614303768705Z" style="opacity: 0;"/><path data-target="point-1-35" d="M569.0857753456864,267.3701585176558L742.069837202066,543.18L772.0275583193375,543.18L584.7590044391525,256.60397366444624Z" style="opacity: 0;"/><path data-target="point-1-36" d="M584.7590044391525,256.60397366444624L772.0275583193375,543.18L803.1409707444963,543.18L600.6911483687328,245.8339855120306L584.82669288998,256.5140460172254Z" style="opacity: 0;"/><path data-target="point-1-37" d="M600.6911483687328,245.8339855120306L803.1409707444963,543.18L823,543.18L823,525.5493342044329L616.607786568398,234.60445605616076L601.8053004889879,244.37439692328024Z" style="opacity: 0;"/><path data-target="point-1-38" d="M616.607786568398,234.60445605616076L823,525.5493342044329L823,480.6251368568701L632.5092754731849,222.8973721950191L618.7979925629115,231.77329867825495Z" style="opacity: 0;"/><path data-target="point-1-39" d="M632.5092754731849,222.8973721950191L823,480.6251368568701L823,437.4249075532197L648.3963135888976,210.6936712673167L635.8042648069406,218.6917688025277Z" style="opacity: 0;"/><path data-target="point-1-40" d="M648.3963135888976,210.6936712673167L823,437.4249075532197L823,395.80236857309944L664.2697425131262,197.97362825809586L652.8232145240326,205.11042395968465Z" style="opacity: 0;"/><path data-target="point-1-41" d="M664.2697425131262,197.97362825809586L823,395.80236857309944L823,355.61547498945833L680.1304943945032,184.71668926077436L669.854012379938,191.00892659518857Z" style="opacity: 0;"/><path data-target="point-1-42" d="M680.1304943945032,184.71668926077436L823,355.61547498945833L823,316.73038660385896L695.9798777597574,170.9012161919687L686.8956059640674,176.36611203777304Z" style="opacity: 0;"/><path data-target="point-1-43" d="M695.9798777597574,170.9012161919687L823,316.73038660385896L823,279.0149053775851L711.8192606985191,156.5049336311672L703.9465129520628,161.16035058192213Z" style="opacity: 0;"/><path data-target="point-1-44" d="M711.8192606985191,156.5049336311672L823,279.0149053775851L823,242.3440696195446L727.6504316662069,141.50428341425203L721.0053523227493,145.36876545083348Z" style="opacity: 0;"/><path data-target="point-1-45" d="M727.6504316662069,141.50428341425203L823,242.3440696195446L823,206.59587014359465L743.4754071549601,125.87491028510884L738.0701438949377,128.9680244129928Z" style="opacity: 0;"/><path data-target="point-1-46" d="M743.4754071549601,125.87491028510884L823,206.59587014359465L823,92.67297649999999L808.1363346284826,92.67297649999998L777.6324086644456,99.26111106208958L755.1388993939486,111.93365357043723Z" style="opacity: 0;"/></g><g class="series"><path data-target="point-0-0" d="M0,476.751555L22.16576846999999,476.751555L28.105367700000013,473.01595799999996L0,365.33255685057486Z" style="opacity: 0;"/><path data-target="point-0-1" d="M0,365.33255685057486L28.105367700000013,473.01595799999996L38.29268753119997,473.015958L44.24204918719999,469.386528L0,276.35839018499075Z" style="opacity: 0;"/><path data-target="point-0-2" d="M0,276.35839018499075L44.24204918719999,469.386528L55.217430117100015,469.386528L61.314083671600024,465.794133L0,234.5947224736065Z" style="opacity: 0;"/><path data-target="point-0-3" d="M0,234.5947224736065L61.314083671600024,465.794133L71.44157568239999,465.794133L77.1342936768,462.60171599999995L0,93.18460068965507Z" style="opacity: 0;"/><path data-target="point-0-4" d="M0,93.18460068965507L77.1342936768,462.60171599999995L87.38825873120003,462.60171599999995L93.88236079519999,458.947596L31.554721738914722,187.0119980231873L3.552713678800501e-15,67.35055798179633Z" style="opacity: 0;"/><path data-target="point-0-5" d="M31.554721738914722,187.0119980231873L93.88236079519999,458.947596L103.77619158399997,458.947596L111.37808456799998,454.69597799999997Z" style="opacity: 0;"/><path data-target="point-0-6" d="M3.552713678800501e-15,67.35055798179633L31.554721738914722,187.0119980231873L111.37808456799998,454.69597799999997L119.69292665040001,454.69597799999997L127.24337357520001,450.58756199999993L14.236013025599625,0L0,0Z" style="opacity: 0;"/><path data-target="point-0-7" d="M14.236013025599625,0L127.24337357520001,450.58756199999993L136.49555002730003,450.58756199999993L143.4857262872,446.842089L80.89381015746888,177.97646988603447L44.88717322920684,43.57319654425703L41.95362635323485,34.956268815517774L29.170118847399998,0Z" style="opacity: 0;"/><path data-target="point-0-8" d="M80.89381015746888,177.97646988603447L143.4857262872,446.842089L152.770101709,446.842089L161.01948500499998,442.417641Z" style="opacity: 0;"/><path data-target="point-0-9" d="M44.88717322920684,43.57319654425703L80.89381015746888,177.97646988603447L161.01948500499998,442.417641L168.56545234079996,442.417641L177.99234716639998,437.440137L62.818165222402925,89.69200311111939Z" style="opacity: 0;"/><path data-target="point-0-10" d="M62.818165222402925,89.69200311111939L177.99234716639998,437.440137L184.154697272,437.440137L195.01981817600003,431.70958799999994L117.60990170514027,220.89826863491518Z" style="opacity: 0;"/><path data-target="point-0-11" d="M117.60990170514027,220.89826863491518L195.01981817600003,431.70958799999994L199.4422847212,431.709588L212.870141704,424.44579Z" style="opacity: 0;"/><path data-target="point-0-12" d="M41.95362635323485,34.956268815517774L44.88717322920684,43.57319654425703L62.818165222402925,89.69200311111939L117.60990170514027,220.89826863491518L212.870141704,424.44579L215.7679417401,424.44579L229.927294044,417.01656899999995Z" style="opacity: 0;"/><path data-target="point-0-13" d="M29.170118847399998,0L41.95362635323485,34.956268815517774L229.927294044,417.01656899999995L232.01561045599993,417.01656899999995L247.22775151999997,409.37995199999995L33.531416576000595,0Z" style="opacity: 0;"/><path data-target="point-0-14" d="M33.531416576000595,0L247.22775151999997,409.37995199999995L247.93328473000005,409.379952L263.2874021791853,402.0580075797876L264.0941554495137,401.0579415449191L49.68857989960088,0Z" style="opacity: 0;"/><path data-target="point-0-15" d="M49.68857989960088,0L264.0941554495137,401.0579415449191L279.9436185673988,393.67923432057785L280.5436501403963,392.9704798048709L77.53510027319945,0Z" style="opacity: 0;"/><path data-target="point-0-16" d="M77.53510027319945,0L280.5436501403963,392.9704798048709L297.216073616,385.425714L102.96151375999978,0Z" style="opacity: 0;"/><path data-target="point-0-17" d="M102.96151375999978,0L297.216073616,385.425714L297.38914722399994,385.425714L312.2351549109998,379.09425388101334L313.2221734495556,378.04378715202677L137.7720518322999,0Z" style="opacity: 0;"/><path data-target="point-0-18" d="M137.7720518322999,0L313.2221734495556,378.04378715202677L329.2743996200113,371.19352206840296L329.8377990603611,370.6072888439612L156.8383166280005,0Z" style="opacity: 0;"/><path data-target="point-0-19" d="M156.8383166280005,0L329.8377990603611,370.6072888439612L345.8703157571,363.896034L189.64974836089954,0Z" style="opacity: 0;"/><path data-target="point-0-20" d="M189.64974836089954,0L345.8703157571,363.896034L345.9209827645,363.896034L363.23475231244413,356.7347776208197L363.4816806250431,356.4971637711286L190.6518556288005,0Z" style="opacity: 0;"/><path data-target="point-0-21" d="M190.6518556288005,0L363.4816806250431,356.4971637711286L377.61516483840006,350.983164L296.2373181241386,114.69441047427142L251.6097230085994,0Z" style="opacity: 0;"/><path data-target="point-0-22" d="M296.2373181241386,114.69441047427142L377.61516483840006,350.983164L380.32630328959993,350.983164L396.1110173048,344.92423799999995Z" style="opacity: 0;"/><path data-target="point-0-23" d="M251.6097230085994,0L296.2373181241386,114.69441047427142L396.1110173048,344.92423799999995L402.83730083679995,344.92423799999995L409.96995372412397,342.56368303331874L412.7012558391783,340.4704906241879L277.8749415520009,0Z" style="opacity: 0;"/><path data-target="point-0-24" d="M277.8749415520009,0L412.7012558391783,340.4704906241879L418.616839005,338.502369L420.8492021768507,288.8942985144286L306.70706483379996,0Z" style="opacity: 0;"/><path data-target="point-0-25" d="M418.616839005,338.502369L430.1393816912,338.502369L440.97287310966937,334.47070236367483L450.89183784732614,324.86488720034265L420.8492021768507,288.8942985144286Z" style="opacity: 0;"/><path data-target="point-0-26" d="M306.70706483379996,0L420.8492021768507,288.8942985144286L450.89183784732614,324.86488720034265L467.53163790721305,319.1278164308326L432.7340570793479,196.63260772312537L397.83889826560784,106.24422336906815L354.42146078250903,8.177079757436672L350.4845500933803,0Z" style="opacity: 0;"/><path data-target="point-0-27" d="M440.97287310966937,334.47070236367483L451.8699806812,351.992985L468.7136925074159,351.992985L473.3156073098175,321.5896214358904L473.1741113831671,320.7545711262487L467.53163790721305,319.1278164308326L450.89183784732614,324.86488720034265Z" style="opacity: 0;"/><path data-target="point-0-28" d="M432.7340570793479,196.63260772312537L467.53163790721305,319.1278164308326L473.1741113831671,320.7545711262487L490.25583345837646,315.29654860294283L498.8683175041576,308.71925379357117Z" style="opacity: 0;"/><path data-target="point-0-29" d="M397.83889826560784,106.24422336906815L432.7340570793479,196.63260772312537L498.8683175041576,308.71925379357117L506.0922225686531,306.4680312957423L515.9934063817876,299.06990119978565Z" style="opacity: 0;"/><path data-target="point-0-30" d="M354.42146078250903,8.177079757436672L397.83889826560784,106.24422336906815L515.9934063817876,299.06990119978565L521.8949481673623,297.27580592779333L533.1526272567445,289.0432494776738Z" style="opacity: 0;"/><path data-target="point-0-31" d="M350.4845500933803,0L354.42146078250903,8.177079757436672L533.1526272567445,289.0432494776738L537.6623192574181,287.7055676387238L550.3471391851717,278.62398090524584L366.2137586766808,0Z" style="opacity: 0;"/><path data-target="point-0-32" d="M366.2137586766808,0L550.3471391851717,278.62398090524584L553.393071440357,277.74222449997177L567.5783217713862,267.79614303768705L383.78392297230573,0Z" style="opacity: 0;"/><path data-target="point-0-33" d="M383.78392297230573,0L567.5783217713862,267.79614303768705L569.0857753456864,267.3701585176558L584.7590044391525,256.60397366444624L584.82669288998,256.5140460172254L401.9942650760128,0Z" style="opacity: 0;"/><path data-target="point-0-34" d="M401.9942650760128,0L584.82669288998,256.5140460172254L600.6911483687328,245.8339855120306L601.8053004889879,244.37439692328024L420.9166846588024,0Z" style="opacity: 0;"/><path data-target="point-0-35" d="M420.9166846588024,0L601.8053004889879,244.37439692328024L616.607786568398,234.60445605616076L618.7979925629115,231.77329867825495L440.62921113816196,0Z" style="opacity: 0;"/><path data-target="point-0-36" d="M440.62921113816196,0L618.7979925629115,231.77329867825495L632.5092754731849,222.8973721950191L635.8042648069406,218.6917688025277L461.2154113350389,2.842170943040401e-14Z" style="opacity: 0;"/><path data-target="point-0-37" d="M461.2154113350389,2.842170943040401e-14L635.8042648069406,218.6917688025277L648.3963135888976,210.6936712673167L652.8232145240326,205.11042395968465L482.77027419645117,0Z" style="opacity: 0;"/><path data-target="point-0-38" d="M482.77027419645117,0L652.8232145240326,205.11042395968465L664.2697425131262,197.97362825809586L669.854012379938,191.00892659518857L505.3930289042352,0Z" style="opacity: 0;"/><path data-target="point-0-39" d="M505.3930289042352,0L669.854012379938,191.00892659518857L680.1304943945032,184.71668926077436L686.8956059640674,176.36611203777304L529.1925537591658,0Z" style="opacity: 0;"/><path data-target="point-0-40" d="M529.1925537591658,0L686.8956059640674,176.36611203777304L695.9798777597574,170.9012161919687L703.9465129520628,161.16035058192213L554.290269913344,0Z" style="opacity: 0;"/><path data-target="point-0-41" d="M554.290269913344,0L703.9465129520628,161.16035058192213L711.8192606985191,156.5049336311672L721.0053523227493,145.36876545083348L580.8133134484874,0Z" style="opacity: 0;"/><path data-target="point-0-42" d="M580.8133134484874,0L721.0053523227493,145.36876545083348L727.6504316662069,141.50428341425203L738.0701438949377,128.9680244129928L608.9045461099162,0Z" style="opacity: 0;"/><path data-target="point-0-43" d="M608.9045461099162,0L738.0701438949377,128.9680244129928L743.4754071549601,125.87491028510884L755.1388993939486,111.93365357043723L638.7156998645022,-1.4210854715202004e-14Z" style="opacity: 0;"/><path data-target="point-0-44" d="M638.7156998645022,-1.4210854715202004e-14L755.1388993939486,111.93365357043723L777.6324086644456,99.26111106208958L670.4134330170464,-1.4210854715202004e-14Z" style="opacity: 0;"/><path data-target="point-0-45" d="M670.4134330170464,-1.4210854715202004e-14L777.6324086644456,99.26111106208958L808.1363346284826,92.67297649999998L704.1781036000989,-1.4210854715202004e-14Z" style="opacity: 0;"/><path data-target="point-0-46" d="M704.1781036000989,-1.4210854715202004e-14L808.1363346284826,92.67297649999998L823,92.67297649999999L823,0Z" style="opacity: 0;"/><path data-target="point-1-0" d="M34.97981551050004,543.18L22.16576846999999,476.751555L0,476.751555L0,543.18Z" style="opacity: 0;"/><path data-target="point-1-1" d="M22.16576846999999,476.751555L34.97981551050004,543.18L53.15343162680013,543.18L38.29268753119997,473.015958L28.105367700000013,473.01595799999996Z" style="opacity: 0;"/><path data-target="point-1-2" d="M38.29268753119997,473.015958L53.15343162680013,543.18L67.85825187069993,543.18L55.217430117100015,469.386528L44.24204918719999,469.386528Z" style="opacity: 0;"/><path data-target="point-1-3" d="M55.217430117100015,469.386528L67.85825187069993,543.18L85.30138446210006,543.18L71.44157568239999,465.794133L61.314083671600024,465.794133Z" style="opacity: 0;"/><path data-target="point-1-4" d="M71.44157568239999,465.794133L85.30138446210006,543.18L104.69647413439986,543.18L87.38825873120003,462.60171599999995L77.1342936768,462.60171599999995Z" style="opacity: 0;"/><path data-target="point-1-5" d="M87.38825873120003,462.60171599999995L104.69647413439986,543.18L122.17254861760011,543.18L103.77619158399997,458.947596L93.88236079519999,458.947596Z" style="opacity: 0;"/><path data-target="point-1-6" d="M103.77619158399997,458.947596L122.17254861760011,543.18L141.67235771519998,543.18L119.69292665040001,454.69597799999997L111.37808456799998,454.69597799999997Z" style="opacity: 0;"/><path data-target="point-1-7" d="M119.69292665040001,454.69597799999997L141.67235771519998,543.18L157.07884899469983,543.18L136.49555002730003,450.58756199999993L127.24337357520001,450.58756199999993Z" style="opacity: 0;"/><path data-target="point-1-8" d="M136.49555002730003,450.58756199999993L157.07884899469983,543.18L175.37097562959994,543.18L152.770101709,446.842089L143.4857262872,446.842089Z" style="opacity: 0;"/><path data-target="point-1-9" d="M152.770101709,446.842089L175.37097562959994,543.18L196.1340337632001,543.18L168.56545234079996,442.417641L161.01948500499998,442.417641Z" style="opacity: 0;"/><path data-target="point-1-10" d="M168.56545234079996,442.417641L196.1340337632001,543.18L218.95368618530009,543.18L184.154697272,437.440137L177.99234716639998,437.440137Z" style="opacity: 0;"/><path data-target="point-1-11" d="M184.154697272,437.440137L218.95368618530009,543.18L245.65791753640002,543.18L199.4422847212,431.709588L195.01981817600003,431.70958799999994Z" style="opacity: 0;"/><path data-target="point-1-12" d="M199.4422847212,431.709588L245.65791753640002,543.18L264.53208178709974,543.18L215.7679417401,424.44579L212.870141704,424.44579Z" style="opacity: 0;"/><path data-target="point-1-13" d="M215.7679417401,424.44579L264.53208178709974,543.18L283.2253470989003,543.18L232.01561045599993,417.01656899999995L229.927294044,417.01656899999995Z" style="opacity: 0;"/><path data-target="point-1-14" d="M232.01561045599993,417.01656899999995L283.2253470989003,543.18L303.7279047459997,543.18L247.93328473000005,409.379952L247.22775151999997,409.37995199999995Z" style="opacity: 0;"/><path data-target="point-1-15" d="M247.93328473000005,409.379952L303.7279047459997,543.18L331.5339977136001,543.18L263.2874021791853,402.0580075797876Z" style="opacity: 0;"/><path data-target="point-1-16" d="M263.2874021791853,402.0580075797876L331.5339977136001,543.18L347.93656679839984,543.18L279.9436185673988,393.67923432057785L264.0941554495137,401.0579415449191Z" style="opacity: 0;"/><path data-target="point-1-17" d="M279.9436185673988,393.67923432057785L347.93656679839984,543.18L355.60047875800024,543.18L297.38914722399994,385.425714L297.216073616,385.425714L280.5436501403963,392.9704798048709Z" style="opacity: 0;"/><path data-target="point-1-18" d="M297.38914722399994,385.425714L355.60047875800024,543.18L388.63347830399994,543.18L312.2351549109998,379.09425388101334Z" style="opacity: 0;"/><path data-target="point-1-19" d="M312.2351549109998,379.09425388101334L388.63347830399994,543.18L401.71510412480006,543.18L329.2743996200113,371.19352206840296L313.2221734495556,378.04378715202677Z" style="opacity: 0;"/><path data-target="point-1-20" d="M329.2743996200113,371.19352206840296L401.71510412480006,543.18L417.72421114749955,543.18L345.9209827645,363.896034L345.8703157571,363.896034L329.8377990603611,370.6072888439612Z" style="opacity: 0;"/><path data-target="point-1-21" d="M345.9209827645,363.896034L417.72421114749955,543.18L423.74306461910004,543.18L418.68674692045437,520.1653541254179L363.23475231244413,356.7347776208197Z" style="opacity: 0;"/><path data-target="point-1-22" d="M363.23475231244413,356.7347776208197L418.68674692045437,520.1653541254179L404.32351828168083,430.33903368280687L380.32630328959993,350.983164L377.61516483840006,350.983164L363.4816806250431,356.4971637711286Z" style="opacity: 0;"/><path data-target="point-1-23" d="M380.32630328959993,350.983164L404.32351828168083,430.33903368280687L402.83730083679995,344.92423799999995L396.1110173048,344.92423799999995Z" style="opacity: 0;"/><path data-target="point-1-24" d="M402.83730083679995,344.92423799999995L404.32351828168083,430.33903368280687L418.68674692045437,520.1653541254179L423.74306461910004,543.18L486.58329266089993,543.18L474.3099154929694,499.2366517438935L473.35014588700994,496.43644866304896L409.96995372412397,342.56368303331874Z" style="opacity: 0;"/><path data-target="point-1-25" d="M409.96995372412397,342.56368303331874L473.35014588700994,496.43644866304896L430.1393816912,338.502369L418.616839005,338.502369L412.7012558391783,340.4704906241879Z" style="opacity: 0;"/><path data-target="point-1-26" d="M430.1393816912,338.502369L473.35014588700994,496.43644866304896L474.3099154929694,499.2366517438935L451.8699806812,351.992985L440.97287310966937,334.47070236367483Z" style="opacity: 0;"/><path data-target="point-1-27" d="M451.8699806812,351.992985L474.3099154929694,499.2366517438935L486.58329266089993,543.18L529.5375415101662,543.18L468.7136925074159,351.992985Z" style="opacity: 0;"/><path data-target="point-1-28" d="M468.7136925074159,351.992985L529.5375415101662,543.18L581.9511789163631,543.18L473.3156073098175,321.5896214358904Z" style="opacity: 0;"/><path data-target="point-1-29" d="M473.1741113831671,320.7545711262487L473.3156073098175,321.5896214358904L581.9511789163631,543.18L606.658935791572,543.18L490.25583345837646,315.29654860294283Z" style="opacity: 0;"/><path data-target="point-1-30" d="M490.25583345837646,315.29654860294283L606.658935791572,543.18L632.0724607074317,543.18L506.0922225686531,306.4680312957423L498.8683175041576,308.71925379357117Z" style="opacity: 0;"/><path data-target="point-1-31" d="M506.0922225686531,306.4680312957423L632.0724607074317,543.18L658.2507957945938,543.18L521.8949481673623,297.27580592779333L515.9934063817876,299.06990119978565Z" style="opacity: 0;"/><path data-target="point-1-32" d="M521.8949481673623,297.27580592779333L658.2507957945938,543.18L685.2624086984131,543.18L537.6623192574181,287.7055676387238L533.1526272567445,289.0432494776738Z" style="opacity: 0;"/><path data-target="point-1-33" d="M537.6623192574181,287.7055676387238L685.2624086984131,543.18L713.176533396496,543.18L553.393071440357,277.74222449997177L550.3471391851717,278.62398090524584Z" style="opacity: 0;"/><path data-target="point-1-34" d="M553.393071440357,277.74222449997177L713.176533396496,543.18L742.069837202066,543.18L569.0857753456864,267.3701585176558L567.5783217713862,267.79614303768705Z" style="opacity: 0;"/><path data-target="point-1-35" d="M569.0857753456864,267.3701585176558L742.069837202066,543.18L772.0275583193375,543.18L584.7590044391525,256.60397366444624Z" style="opacity: 0;"/><path data-target="point-1-36" d="M584.7590044391525,256.60397366444624L772.0275583193375,543.18L803.1409707444963,543.18L600.6911483687328,245.8339855120306L584.82669288998,256.5140460172254Z" style="opacity: 0;"/><path data-target="point-1-37" d="M600.6911483687328,245.8339855120306L803.1409707444963,543.18L823,543.18L823,525.5493342044329L616.607786568398,234.60445605616076L601.8053004889879,244.37439692328024Z" style="opacity: 0;"/><path data-target="point-1-38" d="M616.607786568398,234.60445605616076L823,525.5493342044329L823,480.6251368568701L632.5092754731849,222.8973721950191L618.7979925629115,231.77329867825495Z" style="opacity: 0;"/><path data-target="point-1-39" d="M632.5092754731849,222.8973721950191L823,480.6251368568701L823,437.4249075532197L648.3963135888976,210.6936712673167L635.8042648069406,218.6917688025277Z" style="opacity: 0;"/><path data-target="point-1-40" d="M648.3963135888976,210.6936712673167L823,437.4249075532197L823,395.80236857309944L664.2697425131262,197.97362825809586L652.8232145240326,205.11042395968465Z" style="opacity: 0;"/><path data-target="point-1-41" d="M664.2697425131262,197.97362825809586L823,395.80236857309944L823,355.61547498945833L680.1304943945032,184.71668926077436L669.854012379938,191.00892659518857Z" style="opacity: 0;"/><path data-target="point-1-42" d="M680.1304943945032,184.71668926077436L823,355.61547498945833L823,316.73038660385896L695.9798777597574,170.9012161919687L686.8956059640674,176.36611203777304Z" style="opacity: 0;"/><path data-target="point-1-43" d="M695.9798777597574,170.9012161919687L823,316.73038660385896L823,279.0149053775851L711.8192606985191,156.5049336311672L703.9465129520628,161.16035058192213Z" style="opacity: 0;"/><path data-target="point-1-44" d="M711.8192606985191,156.5049336311672L823,279.0149053775851L823,242.3440696195446L727.6504316662069,141.50428341425203L721.0053523227493,145.36876545083348Z" style="opacity: 0;"/><path data-target="point-1-45" d="M727.6504316662069,141.50428341425203L823,242.3440696195446L823,206.59587014359465L743.4754071549601,125.87491028510884L738.0701438949377,128.9680244129928Z" style="opacity: 0;"/><path data-target="point-1-46" d="M743.4754071549601,125.87491028510884L823,206.59587014359465L823,92.67297649999999L808.1363346284826,92.67297649999998L777.6324086644456,99.26111106208958L755.1388993939486,111.93365357043723Z" style="opacity: 0;"/></g></g><g class="axes"><g class="y axis" fill="none" font-size="10" font-family="sans-serif" text-anchor="end" style="font-family: &quot;Source Sans Pro&quot;;"><path class="domain" stroke="#eeeeee" d="M0.5,543.68V0.5" stroke-dasharray="0" style="visibility: hidden;"/><g class="tick" opacity="1" transform="translate(0,543.68)" style="visibility: visible;"><line stroke="#eeeeee" x2="823" stroke-dasharray="0"/><text fill="rgb(0, 0, 0)" x="-3" dy="0.33em" opacity="1" text-anchor="end" font-size="14">$0</text></g><g class="tick" opacity="1" transform="translate(0, 494.29998779296875)" style="visibility: visible;"><line stroke="#eeeeee" x2="823" stroke-dasharray="0"/><text fill="rgb(0, 0, 0)" x="-3" dy="0.33em" opacity="1" text-anchor="end" font-size="14">$10,000</text></g><g class="tick" opacity="1" transform="translate(0, 444.9200134277344)" style="visibility: visible;"><line stroke="#eeeeee" x2="823" stroke-dasharray="0"/><text fill="rgb(0, 0, 0)" x="-3" dy="0.33em" opacity="1" text-anchor="end" font-size="14">$20,000</text></g><g class="tick" opacity="1" transform="translate(0, 395.5400085449219)" style="visibility: visible;"><line stroke="#eeeeee" x2="823" stroke-dasharray="0"/><text fill="rgb(0, 0, 0)" x="-3" dy="0.33em" opacity="1" text-anchor="end" font-size="14">$30,000</text></g><g class="tick" opacity="1" transform="translate(0, 346.1600036621094)" style="visibility: visible;"><line stroke="#eeeeee" x2="823" stroke-dasharray="0"/><text fill="rgb(0, 0, 0)" x="-3" dy="0.33em" opacity="1" text-anchor="end" font-size="14">$40,000</text></g><g class="tick" opacity="1" transform="translate(0, 296.7799987792969)" style="visibility: visible;"><line stroke="#eeeeee" x2="823" stroke-dasharray="0"/><text fill="rgb(0, 0, 0)" x="-3" dy="0.33em" opacity="1" text-anchor="end" font-size="14">$50,000</text></g><g class="tick" opacity="1" transform="translate(0, 247.39999389648438)" style="visibility: visible;"><line stroke="#eeeeee" x2="823" stroke-dasharray="0"/><text fill="rgb(0, 0, 0)" x="-3" dy="0.33em" opacity="1" text-anchor="end" font-size="14">$60,000</text></g><g class="tick" opacity="1" transform="translate(0, 198.02000427246094)" style="visibility: visible;"><line stroke="#eeeeee" x2="823" stroke-dasharray="0"/><text fill="rgb(0, 0, 0)" x="-3" dy="0.33em" opacity="1" text-anchor="end" font-size="14">$70,000</text></g><g class="tick" opacity="1" transform="translate(0, 148.63999938964844)" style="visibility: visible;"><line stroke="#eeeeee" x2="823" stroke-dasharray="0"/><text fill="rgb(0, 0, 0)" x="-3" dy="0.33em" opacity="1" text-anchor="end" font-size="14">$80,000</text></g><g class="tick" opacity="1" transform="translate(0, 99.26000213623047)" style="visibility: visible;"><line stroke="#eeeeee" x2="823" stroke-dasharray="0"/><text fill="rgb(0, 0, 0)" x="-3" dy="0.33em" opacity="1" text-anchor="end" font-size="14">$90,000</text></g><g class="tick" opacity="1" transform="translate(0, 49.880001068115234)" style="visibility: visible;"><line stroke="#eeeeee" x2="823" stroke-dasharray="0"/><text fill="rgb(0, 0, 0)" x="-3" dy="0.33em" opacity="1" text-anchor="end" font-size="14">$100,000</text></g><g class="tick" opacity="1" transform="translate(0, 0.5)" style="visibility: visible;"><line stroke="#eeeeee" x2="823" stroke-dasharray="0"/><text fill="rgb(0, 0, 0)" x="-3" dy="0.33em" opacity="1" text-anchor="end" font-size="14">$110,000</text></g></g><g class="x axis" transform="translate(0,543.18)" fill="none" font-size="10" font-family="sans-serif" text-anchor="middle" style="font-family: &quot;Source Sans Pro&quot;;"><path class="domain" stroke="#eeeeee" d="M0.5,0.5H823.5" stroke-dasharray="0"/><g class="tick" opacity="1" transform="translate(0.5,0)"><line stroke="#eeeeee" y2="6" stroke-dasharray="0"/><text fill="rgb(0, 0, 0)" y="9" dy="-9" opacity="1" dominant-baseline="central" font-size="16" transform="translate(0, 15) rotate(-45)" dx="5" style="text-anchor: end; visibility: visible;">1990</text></g><g class="tick" opacity="1" transform="translate(82.80000000000001,0)"><line stroke="#eeeeee" y2="6" stroke-dasharray="0"/><text fill="rgb(0, 0, 0)" y="9" dy="-9" opacity="1" dominant-baseline="central" font-size="16" transform="translate(0, 15) rotate(-45)" dx="5" style="text-anchor: end; visibility: visible;">1995</text></g><g class="tick" opacity="1" transform="translate(165.10000000000002,0)"><line stroke="#eeeeee" y2="6" stroke-dasharray="0"/><text fill="rgb(0, 0, 0)" y="9" dy="-9" opacity="1" dominant-baseline="central" font-size="16" transform="translate(0, 15) rotate(-45)" dx="5" style="text-anchor: end; visibility: visible;">2000</text></g><g class="tick" opacity="1" transform="translate(247.39999999999998,0)"><line stroke="#eeeeee" y2="6" stroke-dasharray="0"/><text fill="rgb(0, 0, 0)" y="9" dy="-9" opacity="1" dominant-baseline="central" font-size="16" transform="translate(0, 15) rotate(-45)" dx="5" style="text-anchor: end; visibility: visible;">2005</text></g><g class="tick" opacity="1" transform="translate(329.70000000000005,0)"><line stroke="#eeeeee" y2="6" stroke-dasharray="0"/><text fill="rgb(0, 0, 0)" y="9" dy="-9" opacity="1" dominant-baseline="central" font-size="16" transform="translate(0, 15) rotate(-45)" dx="5" style="text-anchor: end; visibility: visible;">2010</text></g><g class="tick" opacity="1" transform="translate(412,0)"><line stroke="#eeeeee" y2="6" stroke-dasharray="0"/><text fill="rgb(0, 0, 0)" y="9" dy="-9" opacity="1" dominant-baseline="central" font-size="16" transform="translate(0, 15) rotate(-45)" dx="5" style="text-anchor: end; visibility: visible;">2015</text></g><g class="tick" opacity="1" transform="translate(494.29999999999995,0)"><line stroke="#eeeeee" y2="6" stroke-dasharray="0"/><text fill="rgb(0, 0, 0)" y="9" dy="-9" opacity="1" dominant-baseline="central" font-size="16" transform="translate(0, 15) rotate(-45)" dx="5" style="text-anchor: end; visibility: visible;">2020</text></g><g class="tick" opacity="1" transform="translate(576.5999999999999,0)"><line stroke="#eeeeee" y2="6" stroke-dasharray="0"/><text fill="rgb(0, 0, 0)" y="9" dy="-9" opacity="1" dominant-baseline="central" font-size="16" transform="translate(0, 15) rotate(-45)" dx="5" style="text-anchor: end; visibility: visible;">2025</text></g><g class="tick" opacity="1" transform="translate(658.9000000000001,0)"><line stroke="#eeeeee" y2="6" stroke-dasharray="0"/><text fill="rgb(0, 0, 0)" y="9" dy="-9" opacity="1" dominant-baseline="central" font-size="16" transform="translate(0, 15) rotate(-45)" dx="5" style="text-anchor: end; visibility: visible;">2030</text></g><g class="tick" opacity="1" transform="translate(741.2,0)"><line stroke="#eeeeee" y2="6" stroke-dasharray="0"/><text fill="rgb(0, 0, 0)" y="9" dy="-9" opacity="1" dominant-baseline="central" font-size="16" transform="translate(0, 15) rotate(-45)" dx="5" style="text-anchor: end; visibility: visible;">2035</text></g><g class="tick" opacity="1" transform="translate(823.5,0)"><line stroke="#eeeeee" y2="6" stroke-dasharray="0"/><text fill="rgb(0, 0, 0)" y="9" dy="-9" opacity="1" dominant-baseline="central" font-size="16" transform="translate(0, 15) rotate(-45)" dx="5" style="text-anchor: end; visibility: visible;">2040</text></g></g></g></g></g></g><g class="annotations below"><g class="axis-highlights" transform="translate(50, 10)" style="opacity: 1;"><g class="line x" transform="translate(477.34, 0)"><line width="0" stroke-dasharray="2 2" stroke="#333333" stroke-width="2" y2="543.18"/><text transform="translate(0, 6) rotate(-90)" fill="#333333" text-anchor="end" dy="-0.5em" font-size="12">Current</text></g></g></g><g id="areas"><g class="series" pointer-events="none"><path class="area" transform="translate(50,10)" fill-opacity="0" fill="rgb(17, 165, 121)" clip-path="url(#clip-0-0)" d="M16.46,462.07828799999993C21.94666666666667,460.60264899999993,27.433333333333334,459.12701,32.92,457.782228C38.406666666666666,456.43744599999997,43.89333333333333,455.3659,49.379999999999995,454.009596C54.86666666666667,452.65329199999996,60.35333333333333,450.94474399999996,65.84,449.64440399999995C71.32666666666667,448.34406399999995,76.81333333333335,447.40913599999993,82.30000000000001,446.20755599999995C87.78666666666668,445.005976,93.27333333333333,443.881758,98.75999999999999,442.43492399999997C104.24666666666667,440.98808999999994,109.73333333333333,439.03264199999995,115.22000000000001,437.5265519999999C120.70666666666668,436.02046199999995,126.19333333333334,434.72506,131.68,433.39838399999996C137.16666666666666,432.071708,142.65333333333334,431.03637399999997,148.14,429.566496C153.62666666666667,428.096618,159.11333333333334,426.318938,164.60000000000002,424.579116C170.08666666666667,422.839294,175.57333333333335,421.043508,181.06,419.12756399999995C186.54666666666665,417.2116199999999,192.03333333333333,415.37468399999995,197.51999999999998,413.08345199999997C203.00666666666666,410.79222,208.49333333333334,408.01377199999996,213.98000000000002,405.38017199999996C219.4666666666667,402.74657199999996,224.95333333333335,400.06359199999997,230.44000000000003,397.28185199999996C235.92666666666668,394.50011199999994,241.41333333333333,391.58833799999996,246.89999999999998,388.689732C252.38666666666666,385.79112599999996,257.87333333333333,382.774008,263.36,379.89021599999995C268.8466666666667,377.006424,274.3333333333333,374.186826,279.82,371.38698C285.3066666666667,368.587134,290.7933333333333,365.746961,296.28,363.09114C301.76666666666665,360.435319,307.25333333333333,358.00582299999996,312.74,355.452054C318.2266666666667,352.898285,323.71333333333337,350.22682699999996,329.20000000000005,347.76852599999995C334.68666666666667,345.31022499999995,340.17333333333335,343.20992899999993,345.65999999999997,340.70224799999994C351.14666666666665,338.19456699999995,356.6333333333333,334.997212,362.12,332.72244C367.6066666666667,330.447668,373.09333333333336,329.188478,378.58000000000004,327.053616C384.06666666666666,324.918754,389.55333333333334,322.18968599999994,395.03999999999996,319.91326799999996C400.52666666666664,317.6368499999999,406.0133333333333,313.39510799999994,411.5,313.39510799999994C416.9866666666667,313.39510799999994,422.47333333333336,314.135808,427.96000000000004,314.135808C433.4466666666667,314.135808,438.93333333333334,300.38841599999995,444.42,300.38841599999995C449.9066666666667,300.38841599999995,455.3933333333334,348.129,460.88000000000005,348.129C466.3666666666667,348.129,471.85333333333335,297.51130676,477.34,291.03673284C482.82666666666665,284.56215892,488.3133333333333,284.62450117,493.79999999999995,281.32487196C499.28666666666663,278.02524274999996,504.7733333333333,274.66568268,510.26,271.23895758C515.7466666666667,267.81223248,521.2333333333333,264.3232392,526.72,260.76452136C532.2066666666667,257.20580352,537.6933333333334,253.58243902999996,543.1800000000001,249.88665053999995C548.6666666666667,246.19086204999994,554.1533333333333,242.42793321999991,559.64,238.58979041999993C565.1266666666667,234.75164761999994,570.6133333333332,230.84377203000003,576.0999999999999,226.85779374000003C581.5866666666666,222.87181545000004,587.0733333333333,218.81342138999997,592.56,214.67392067999998C598.0466666666666,210.53441997,603.5333333333333,206.31973821000003,609.02,202.02078948000002C614.5066666666667,197.72184075,619.9933333333333,193.34476463000001,625.48,188.8802283C630.9666666666667,184.41569196999998,636.4533333333334,179.87005721999998,641.94,175.23357149999998C647.4266666666667,170.59708578,652.9133333333334,165.87639070000003,658.4000000000001,161.06131398000002C663.8866666666668,156.24623726000004,669.3733333333333,151.34365094999998,674.86,146.34311118C680.3466666666667,141.34257141,685.8333333333333,136.25122182,691.3199999999999,131.05807536000003C696.8066666666666,125.86492890000001,702.2933333333333,120.57740902999996,707.78,115.18423241999994C713.2666666666667,109.79105580999993,718.7533333333333,104.29991750999996,724.24,98.69901569999996C729.7266666666667,93.09811388999996,735.2133333333334,87.39545635999993,740.7,81.57882155999994C746.1866666666667,75.76218675999995,751.6733333333334,69.83987876000002,757.1600000000001,63.7992069C762.6466666666668,57.75853504000003,768.1333333333333,51.54666272,773.62,45.334790399999974L773.62,45.334790399999974C768.1333333333333,51.54666272,762.6466666666668,57.75853504000003,757.1600000000001,63.7992069C751.6733333333334,69.83987876000002,746.1866666666667,75.76218675999995,740.7,81.57882155999994C735.2133333333334,87.39545635999993,729.7266666666667,93.09811388999996,724.24,98.69901569999996C718.7533333333333,104.29991750999996,713.2666666666667,109.79105580999993,707.78,115.18423241999994C702.2933333333333,120.57740902999996,696.8066666666666,125.86492890000001,691.3199999999999,131.05807536000003C685.8333333333333,136.25122182,680.3466666666667,141.34257141,674.86,146.34311118C669.3733333333333,151.34365094999998,663.8866666666668,156.24623726000004,658.4000000000001,161.06131398000002C652.9133333333334,165.87639070000003,647.4266666666667,170.59708578,641.94,175.23357149999998C636.4533333333334,179.87005721999998,630.9666666666667,184.41569196999998,625.48,188.8802283C619.9933333333333,193.34476463000001,614.5066666666667,197.72184075,609.02,202.02078948000002C603.5333333333333,206.31973821000003,598.0466666666666,210.53441997,592.56,214.67392067999998C587.0733333333333,218.81342138999997,581.5866666666666,222.87181545000004,576.0999999999999,226.85779374000003C570.6133333333332,230.84377203000003,565.1266666666667,234.75164761999994,559.64,238.58979041999993C554.1533333333333,242.42793321999991,548.6666666666667,246.19086204999994,543.1800000000001,249.88665053999995C537.6933333333334,253.58243902999996,532.2066666666667,257.20580352,526.72,260.76452136C521.2333333333333,264.3232392,515.7466666666667,267.81223248,510.26,271.23895758C504.7733333333333,274.66568268,499.28666666666663,278.02524274999996,493.79999999999995,281.32487196C488.3133333333333,284.62450117,482.82666666666665,284.56215892,477.34,291.03673284C471.85333333333335,297.51130676,466.3666666666667,348.129,460.88000000000005,348.129C455.3933333333334,348.129,449.9066666666667,300.38841599999995,444.42,300.38841599999995C438.93333333333334,300.38841599999995,433.4466666666667,314.135808,427.96000000000004,314.135808C422.47333333333336,314.135808,416.9866666666667,313.39510799999994,411.5,313.39510799999994C406.0133333333333,313.39510799999994,400.52666666666664,317.6368499999999,395.03999999999996,319.91326799999996C389.55333333333334,322.18968599999994,384.06666666666666,324.918754,378.58000000000004,327.053616C373.09333333333336,329.188478,367.6066666666667,330.447668,362.12,332.72244C356.6333333333333,334.997212,351.14666666666665,338.19456699999995,345.65999999999997,340.70224799999994C340.17333333333335,343.20992899999993,334.68666666666667,345.31022499999995,329.20000000000005,347.76852599999995C323.71333333333337,350.22682699999996,318.2266666666667,352.898285,312.74,355.452054C307.25333333333333,358.00582299999996,301.76666666666665,360.435319,296.28,363.09114C290.7933333333333,365.746961,285.3066666666667,368.587134,279.82,371.38698C274.3333333333333,374.186826,268.8466666666667,377.006424,263.36,379.89021599999995C257.87333333333333,382.774008,252.38666666666666,385.79112599999996,246.89999999999998,388.689732C241.41333333333333,391.58833799999996,235.92666666666668,394.50011199999994,230.44000000000003,397.28185199999996C224.95333333333335,400.06359199999997,219.4666666666667,402.74657199999996,213.98000000000002,405.38017199999996C208.49333333333334,408.01377199999996,203.00666666666666,410.79222,197.51999999999998,413.08345199999997C192.03333333333333,415.37468399999995,186.54666666666665,417.2116199999999,181.06,419.12756399999995C175.57333333333335,421.043508,170.08666666666667,422.839294,164.60000000000002,424.579116C159.11333333333334,426.318938,153.62666666666667,428.096618,148.14,429.566496C142.65333333333334,431.03637399999997,137.16666666666666,432.071708,131.68,433.39838399999996C126.19333333333334,434.72506,120.70666666666668,436.02046199999995,115.22000000000001,437.5265519999999C109.73333333333333,439.03264199999995,104.24666666666667,440.98808999999994,98.75999999999999,442.43492399999997C93.27333333333333,443.881758,87.78666666666668,445.005976,82.30000000000001,446.20755599999995C76.81333333333335,447.40913599999993,71.32666666666667,448.34406399999995,65.84,449.64440399999995C60.35333333333333,450.94474399999996,54.86666666666667,452.65329199999996,49.379999999999995,454.009596C43.89333333333333,455.3659,38.406666666666666,456.43744599999997,32.92,457.782228C27.433333333333334,459.12701,21.94666666666667,460.60264899999993,16.46,462.07828799999993Z"/></g><g class="series" pointer-events="none"><path class="area" transform="translate(50,10)" fill-opacity="0" fill="rgb(204, 80, 62)" clip-path="url(#clip-0-1)" d="M16.46,491.42482199999995C21.94666666666667,490.3923684999999,27.433333333333334,489.35991499999994,32.92,488.24968799999994C38.406666666666666,487.1394609999999,43.89333333333333,485.81443099999996,49.379999999999995,484.76345999999995C54.86666666666667,483.71248899999995,60.35333333333333,482.90512599999994,65.84,481.94386199999997C71.32666666666667,480.982598,76.81333333333335,480.07647499999996,82.30000000000001,478.99587599999995C87.78666666666668,477.91527699999995,93.27333333333333,476.6486799999999,98.75999999999999,475.4602679999999C104.24666666666667,474.2718559999999,109.73333333333333,473.145992,115.22000000000001,471.86540399999996C120.70666666666668,470.584816,126.19333333333334,469.068027,131.68,467.77673999999996C137.16666666666666,466.48545299999995,142.65333333333334,465.3711109999999,148.14,464.11768199999995C153.62666666666667,462.86425299999996,159.11333333333334,461.65032799999994,164.60000000000002,460.25616599999995C170.08666666666667,458.86200399999996,175.57333333333335,457.406117,181.06,455.75271C186.54666666666665,454.09930299999996,192.03333333333333,452.37594099999995,197.51999999999998,450.33572399999997C203.00666666666666,448.295507,208.49333333333334,445.77548099999996,213.98000000000002,443.51140799999996C219.4666666666667,441.24733499999996,224.95333333333335,438.99149199999994,230.44000000000003,436.75128599999994C235.92666666666668,434.51107999999994,241.41333333333333,432.327661,246.89999999999998,430.07017199999996C252.38666666666666,427.81268299999994,257.87333333333333,425.6769979999999,263.36,423.2063519999999C268.8466666666667,420.73570599999994,274.3333333333333,417.82063999999997,279.82,415.246296C285.3066666666667,412.671952,290.7933333333333,410.02024599999993,296.28,407.76028799999995C301.76666666666665,405.50032999999996,307.25333333333333,403.97613399999994,312.74,401.68654799999996C318.2266666666667,399.396962,323.71333333333337,396.45555999999993,329.20000000000005,394.0227719999999C334.68666666666667,391.5899839999999,340.17333333333335,389.3440169999999,345.65999999999997,387.0898199999999C351.14666666666665,384.83562299999994,356.6333333333333,382.52710799999994,362.12,380.49758999999995C367.6066666666667,378.46807199999995,373.09333333333336,376.67310899999995,378.58000000000004,374.91271199999994C384.06666666666666,373.15231499999993,389.55333333333334,370.126144,395.03999999999996,369.935208C400.52666666666664,369.74427199999997,406.0133333333333,369.83973999999995,411.5,369.6488039999999C416.9866666666667,369.4578679999999,422.47333333333336,364.749485,427.96000000000004,362.86893C433.4466666666667,360.98837499999996,438.93333333333334,359.53413399999994,444.42,358.36547399999995C449.9066666666667,357.19681399999996,455.3933333333334,357.14781257999994,460.88000000000005,355.85696999999993C466.3666666666667,354.56612741999993,471.85333333333335,352.83810723999994,477.34,350.62041851999993C482.82666666666665,348.4027297999999,488.3133333333333,345.29706523,493.79999999999995,342.55083768C499.28666666666663,339.80461012999996,504.7733333333333,337.00437731999995,510.26,334.14305321999996C515.7466666666667,331.28172911999997,521.2333333333333,328.36412004999994,526.72,325.38289308C532.2066666666667,322.40166611,537.6933333333334,319.36184977,543.1800000000001,316.2556914C548.6666666666667,313.14953303,554.1533333333333,309.98228337,559.64,306.74594286C565.1266666666667,303.50960235,570.6133333333332,300.20961101999995,576.0999999999999,296.83764834C581.5866666666666,293.46568565999996,587.0733333333333,290.02743033,592.56,286.51416678C598.0466666666666,283.00090322999995,603.5333333333333,279.41856528999995,609.02,275.75806703999996C614.5066666666667,272.09756878999997,619.9933333333333,268.3650745,625.48,264.55117728C630.9666666666667,260.73728006,636.4533333333334,256.8484075399999,641.94,252.87468371999995C647.4266666666667,248.90095989999995,652.9133333333334,244.84909223,658.4000000000001,240.70883435999997C663.8866666666668,236.56857649,669.3733333333333,232.34689922999996,674.86,228.03313649999996C680.3466666666667,223.71937376999995,685.8333333333333,219.32080088999996,691.3199999999999,214.82625797999998C696.8066666666666,210.33171506999997,702.2933333333333,205.74877372999998,707.78,201.06587903999997C713.2666666666667,196.38298434999996,718.7533333333333,191.6080288799999,724.24,186.7288898399999C729.7266666666667,181.84975079999992,735.2133333333334,176.87465819,740.7,171.7910448C746.1866666666667,166.70743141000003,751.6733333333334,161.52385643999997,757.1600000000001,156.22720949999996C762.6466666666668,150.93056255999997,768.1333333333333,145.47086286,773.62,140.01116316000002L773.62,140.01116316000002C768.1333333333333,145.47086286,762.6466666666668,150.93056255999997,757.1600000000001,156.22720949999996C751.6733333333334,161.52385643999997,746.1866666666667,166.70743141000003,740.7,171.7910448C735.2133333333334,176.87465819,729.7266666666667,181.84975079999992,724.24,186.7288898399999C718.7533333333333,191.6080288799999,713.2666666666667,196.38298434999996,707.78,201.06587903999997C702.2933333333333,205.74877372999998,696.8066666666666,210.33171506999997,691.3199999999999,214.82625797999998C685.8333333333333,219.32080088999996,680.3466666666667,223.71937376999995,674.86,228.03313649999996C669.3733333333333,232.34689922999996,663.8866666666668,236.56857649,658.4000000000001,240.70883435999997C652.9133333333334,244.84909223,647.4266666666667,248.90095989999995,641.94,252.87468371999995C636.4533333333334,256.8484075399999,630.9666666666667,260.73728006,625.48,264.55117728C619.9933333333333,268.3650745,614.5066666666667,272.09756878999997,609.02,275.75806703999996C603.5333333333333,279.41856528999995,598.0466666666666,283.00090322999995,592.56,286.51416678C587.0733333333333,290.02743033,581.5866666666666,293.46568565999996,576.0999999999999,296.83764834C570.6133333333332,300.20961101999995,565.1266666666667,303.50960235,559.64,306.74594286C554.1533333333333,309.98228337,548.6666666666667,313.14953303,543.1800000000001,316.2556914C537.6933333333334,319.36184977,532.2066666666667,322.40166611,526.72,325.38289308C521.2333333333333,328.36412004999994,515.7466666666667,331.28172911999997,510.26,334.14305321999996C504.7733333333333,337.00437731999995,499.28666666666663,339.80461012999996,493.79999999999995,342.55083768C488.3133333333333,345.29706523,482.82666666666665,348.4027297999999,477.34,350.62041851999993C471.85333333333335,352.83810723999994,466.3666666666667,354.56612741999993,460.88000000000005,355.85696999999993C455.3933333333334,357.14781257999994,449.9066666666667,357.19681399999996,444.42,358.36547399999995C438.93333333333334,359.53413399999994,433.4466666666667,360.98837499999996,427.96000000000004,362.86893C422.47333333333336,364.749485,416.9866666666667,369.4578679999999,411.5,369.6488039999999C406.0133333333333,369.83973999999995,400.52666666666664,369.74427199999997,395.03999999999996,369.935208C389.55333333333334,370.126144,384.06666666666666,373.15231499999993,378.58000000000004,374.91271199999994C373.09333333333336,376.67310899999995,367.6066666666667,378.46807199999995,362.12,380.49758999999995C356.6333333333333,382.52710799999994,351.14666666666665,384.83562299999994,345.65999999999997,387.0898199999999C340.17333333333335,389.3440169999999,334.68666666666667,391.5899839999999,329.20000000000005,394.0227719999999C323.71333333333337,396.45555999999993,318.2266666666667,399.396962,312.74,401.68654799999996C307.25333333333333,403.97613399999994,301.76666666666665,405.50032999999996,296.28,407.76028799999995C290.7933333333333,410.02024599999993,285.3066666666667,412.671952,279.82,415.246296C274.3333333333333,417.82063999999997,268.8466666666667,420.73570599999994,263.36,423.2063519999999C257.87333333333333,425.6769979999999,252.38666666666666,427.81268299999994,246.89999999999998,430.07017199999996C241.41333333333333,432.327661,235.92666666666668,434.51107999999994,230.44000000000003,436.75128599999994C224.95333333333335,438.99149199999994,219.4666666666667,441.24733499999996,213.98000000000002,443.51140799999996C208.49333333333334,445.77548099999996,203.00666666666666,448.295507,197.51999999999998,450.33572399999997C192.03333333333333,452.37594099999995,186.54666666666665,454.09930299999996,181.06,455.75271C175.57333333333335,457.406117,170.08666666666667,458.86200399999996,164.60000000000002,460.25616599999995C159.11333333333334,461.65032799999994,153.62666666666667,462.86425299999996,148.14,464.11768199999995C142.65333333333334,465.3711109999999,137.16666666666666,466.48545299999995,131.68,467.77673999999996C126.19333333333334,469.068027,120.70666666666668,470.584816,115.22000000000001,471.86540399999996C109.73333333333333,473.145992,104.24666666666667,474.2718559999999,98.75999999999999,475.4602679999999C93.27333333333333,476.6486799999999,87.78666666666668,477.91527699999995,82.30000000000001,478.99587599999995C76.81333333333335,480.07647499999996,71.32666666666667,480.982598,65.84,481.94386199999997C60.35333333333333,482.90512599999994,54.86666666666667,483.71248899999995,49.379999999999995,484.76345999999995C43.89333333333333,485.81443099999996,38.406666666666666,487.1394609999999,32.92,488.24968799999994C27.433333333333334,489.35991499999994,21.94666666666667,490.3923684999999,16.46,491.42482199999995Z"/></g></g><g id="lines"><g class="series"><clipPath id="clip-0-0"><rect width="823" y="-10" height="563.18"/></clipPath><path class="line" opacity="1" fill="none" stroke="rgb(17, 165, 121)" stroke-width="2" transform="translate(50,10)" clip-path="url(#clip-0-0)" d="M16.46,462.07828799999993C21.94666666666667,460.60264899999993,27.433333333333334,459.12701,32.92,457.782228C38.406666666666666,456.43744599999997,43.89333333333333,455.3659,49.379999999999995,454.009596C54.86666666666667,452.65329199999996,60.35333333333333,450.94474399999996,65.84,449.64440399999995C71.32666666666667,448.34406399999995,76.81333333333335,447.40913599999993,82.30000000000001,446.20755599999995C87.78666666666668,445.005976,93.27333333333333,443.881758,98.75999999999999,442.43492399999997C104.24666666666667,440.98808999999994,109.73333333333333,439.03264199999995,115.22000000000001,437.5265519999999C120.70666666666668,436.02046199999995,126.19333333333334,434.72506,131.68,433.39838399999996C137.16666666666666,432.071708,142.65333333333334,431.03637399999997,148.14,429.566496C153.62666666666667,428.096618,159.11333333333334,426.318938,164.60000000000002,424.579116C170.08666666666667,422.839294,175.57333333333335,421.043508,181.06,419.12756399999995C186.54666666666665,417.2116199999999,192.03333333333333,415.37468399999995,197.51999999999998,413.08345199999997C203.00666666666666,410.79222,208.49333333333334,408.01377199999996,213.98000000000002,405.38017199999996C219.4666666666667,402.74657199999996,224.95333333333335,400.06359199999997,230.44000000000003,397.28185199999996C235.92666666666668,394.50011199999994,241.41333333333333,391.58833799999996,246.89999999999998,388.689732C252.38666666666666,385.79112599999996,257.87333333333333,382.774008,263.36,379.89021599999995C268.8466666666667,377.006424,274.3333333333333,374.186826,279.82,371.38698C285.3066666666667,368.587134,290.7933333333333,365.746961,296.28,363.09114C301.76666666666665,360.435319,307.25333333333333,358.00582299999996,312.74,355.452054C318.2266666666667,352.898285,323.71333333333337,350.22682699999996,329.20000000000005,347.76852599999995C334.68666666666667,345.31022499999995,340.17333333333335,343.20992899999993,345.65999999999997,340.70224799999994C351.14666666666665,338.19456699999995,356.6333333333333,334.997212,362.12,332.72244C367.6066666666667,330.447668,373.09333333333336,329.188478,378.58000000000004,327.053616C384.06666666666666,324.918754,389.55333333333334,322.18968599999994,395.03999999999996,319.91326799999996C400.52666666666664,317.6368499999999,406.0133333333333,313.39510799999994,411.5,313.39510799999994C416.9866666666667,313.39510799999994,422.47333333333336,314.135808,427.96000000000004,314.135808C433.4466666666667,314.135808,438.93333333333334,300.38841599999995,444.42,300.38841599999995C449.9066666666667,300.38841599999995,455.3933333333334,348.129,460.88000000000005,348.129C466.3666666666667,348.129,471.85333333333335,297.51130676,477.34,291.03673284C482.82666666666665,284.56215892,488.3133333333333,284.62450117,493.79999999999995,281.32487196C499.28666666666663,278.02524274999996,504.7733333333333,274.66568268,510.26,271.23895758C515.7466666666667,267.81223248,521.2333333333333,264.3232392,526.72,260.76452136C532.2066666666667,257.20580352,537.6933333333334,253.58243902999996,543.1800000000001,249.88665053999995C548.6666666666667,246.19086204999994,554.1533333333333,242.42793321999991,559.64,238.58979041999993C565.1266666666667,234.75164761999994,570.6133333333332,230.84377203000003,576.0999999999999,226.85779374000003C581.5866666666666,222.87181545000004,587.0733333333333,218.81342138999997,592.56,214.67392067999998C598.0466666666666,210.53441997,603.5333333333333,206.31973821000003,609.02,202.02078948000002C614.5066666666667,197.72184075,619.9933333333333,193.34476463000001,625.48,188.8802283C630.9666666666667,184.41569196999998,636.4533333333334,179.87005721999998,641.94,175.23357149999998C647.4266666666667,170.59708578,652.9133333333334,165.87639070000003,658.4000000000001,161.06131398000002C663.8866666666668,156.24623726000004,669.3733333333333,151.34365094999998,674.86,146.34311118C680.3466666666667,141.34257141,685.8333333333333,136.25122182,691.3199999999999,131.05807536000003C696.8066666666666,125.86492890000001,702.2933333333333,120.57740902999996,707.78,115.18423241999994C713.2666666666667,109.79105580999993,718.7533333333333,104.29991750999996,724.24,98.69901569999996C729.7266666666667,93.09811388999996,735.2133333333334,87.39545635999993,740.7,81.57882155999994C746.1866666666667,75.76218675999995,751.6733333333334,69.83987876000002,757.1600000000001,63.7992069C762.6466666666668,57.75853504000003,768.1333333333333,51.54666272,773.62,45.334790399999974"/><text class="label" font-size="11" alignment-baseline="middle" opacity="1" x="5" fill="rgb(17, 165, 121)" transform="translate(823.6199951171875, 55.33478927612305)"/></g><g class="series"><clipPath id="clip-0-1"><rect width="823" y="-10" height="563.18"/></clipPath><path class="line" opacity="1" fill="none" stroke="rgb(204, 80, 62)" stroke-width="2" transform="translate(50,10)" clip-path="url(#clip-0-1)" d="M16.46,491.42482199999995C21.94666666666667,490.3923684999999,27.433333333333334,489.35991499999994,32.92,488.24968799999994C38.406666666666666,487.1394609999999,43.89333333333333,485.81443099999996,49.379999999999995,484.76345999999995C54.86666666666667,483.71248899999995,60.35333333333333,482.90512599999994,65.84,481.94386199999997C71.32666666666667,480.982598,76.81333333333335,480.07647499999996,82.30000000000001,478.99587599999995C87.78666666666668,477.91527699999995,93.27333333333333,476.6486799999999,98.75999999999999,475.4602679999999C104.24666666666667,474.2718559999999,109.73333333333333,473.145992,115.22000000000001,471.86540399999996C120.70666666666668,470.584816,126.19333333333334,469.068027,131.68,467.77673999999996C137.16666666666666,466.48545299999995,142.65333333333334,465.3711109999999,148.14,464.11768199999995C153.62666666666667,462.86425299999996,159.11333333333334,461.65032799999994,164.60000000000002,460.25616599999995C170.08666666666667,458.86200399999996,175.57333333333335,457.406117,181.06,455.75271C186.54666666666665,454.09930299999996,192.03333333333333,452.37594099999995,197.51999999999998,450.33572399999997C203.00666666666666,448.295507,208.49333333333334,445.77548099999996,213.98000000000002,443.51140799999996C219.4666666666667,441.24733499999996,224.95333333333335,438.99149199999994,230.44000000000003,436.75128599999994C235.92666666666668,434.51107999999994,241.41333333333333,432.327661,246.89999999999998,430.07017199999996C252.38666666666666,427.81268299999994,257.87333333333333,425.6769979999999,263.36,423.2063519999999C268.8466666666667,420.73570599999994,274.3333333333333,417.82063999999997,279.82,415.246296C285.3066666666667,412.671952,290.7933333333333,410.02024599999993,296.28,407.76028799999995C301.76666666666665,405.50032999999996,307.25333333333333,403.97613399999994,312.74,401.68654799999996C318.2266666666667,399.396962,323.71333333333337,396.45555999999993,329.20000000000005,394.0227719999999C334.68666666666667,391.5899839999999,340.17333333333335,389.3440169999999,345.65999999999997,387.0898199999999C351.14666666666665,384.83562299999994,356.6333333333333,382.52710799999994,362.12,380.49758999999995C367.6066666666667,378.46807199999995,373.09333333333336,376.67310899999995,378.58000000000004,374.91271199999994C384.06666666666666,373.15231499999993,389.55333333333334,370.126144,395.03999999999996,369.935208C400.52666666666664,369.74427199999997,406.0133333333333,369.83973999999995,411.5,369.6488039999999C416.9866666666667,369.4578679999999,422.47333333333336,364.749485,427.96000000000004,362.86893C433.4466666666667,360.98837499999996,438.93333333333334,359.53413399999994,444.42,358.36547399999995C449.9066666666667,357.19681399999996,455.3933333333334,357.14781257999994,460.88000000000005,355.85696999999993C466.3666666666667,354.56612741999993,471.85333333333335,352.83810723999994,477.34,350.62041851999993C482.82666666666665,348.4027297999999,488.3133333333333,345.29706523,493.79999999999995,342.55083768C499.28666666666663,339.80461012999996,504.7733333333333,337.00437731999995,510.26,334.14305321999996C515.7466666666667,331.28172911999997,521.2333333333333,328.36412004999994,526.72,325.38289308C532.2066666666667,322.40166611,537.6933333333334,319.36184977,543.1800000000001,316.2556914C548.6666666666667,313.14953303,554.1533333333333,309.98228337,559.64,306.74594286C565.1266666666667,303.50960235,570.6133333333332,300.20961101999995,576.0999999999999,296.83764834C581.5866666666666,293.46568565999996,587.0733333333333,290.02743033,592.56,286.51416678C598.0466666666666,283.00090322999995,603.5333333333333,279.41856528999995,609.02,275.75806703999996C614.5066666666667,272.09756878999997,619.9933333333333,268.3650745,625.48,264.55117728C630.9666666666667,260.73728006,636.4533333333334,256.8484075399999,641.94,252.87468371999995C647.4266666666667,248.90095989999995,652.9133333333334,244.84909223,658.4000000000001,240.70883435999997C663.8866666666668,236.56857649,669.3733333333333,232.34689922999996,674.86,228.03313649999996C680.3466666666667,223.71937376999995,685.8333333333333,219.32080088999996,691.3199999999999,214.82625797999998C696.8066666666666,210.33171506999997,702.2933333333333,205.74877372999998,707.78,201.06587903999997C713.2666666666667,196.38298434999996,718.7533333333333,191.6080288799999,724.24,186.7288898399999C729.7266666666667,181.84975079999992,735.2133333333334,176.87465819,740.7,171.7910448C746.1866666666667,166.70743141000003,751.6733333333334,161.52385643999997,757.1600000000001,156.22720949999996C762.6466666666668,150.93056255999997,768.1333333333333,145.47086286,773.62,140.01116316000002"/><text class="label" font-size="11" alignment-baseline="middle" opacity="1" x="5" fill="rgb(204, 80, 62)" transform="translate(823.6199951171875, 150.01116943359375)"/></g></g><g id="data-points"><g class="series" transform="translate(50,10)"><path class="data-point" fill="rgb(17, 165, 121)" data-type="point" transform="translate(0, 0)" d="M13.46,462.07828799999993A3,3,0,1,1,19.46,462.07828799999993A3,3,0,1,1,13.46,462.07828799999993Z" id="point-0-0" opacity="1"/><path class="data-point" fill="rgb(17, 165, 121)" data-type="point" transform="translate(0, 0)" d="M29.92,457.782228A3,3,0,1,1,35.92,457.782228A3,3,0,1,1,29.92,457.782228Z" id="point-0-1" opacity="1"/><path class="data-point" fill="rgb(17, 165, 121)" data-type="point" transform="translate(0, 0)" d="M46.379999999999995,454.009596A3,3,0,1,1,52.379999999999995,454.009596A3,3,0,1,1,46.379999999999995,454.009596Z" id="point-0-2" opacity="1"/><path class="data-point" fill="rgb(17, 165, 121)" data-type="point" transform="translate(0, 0)" d="M62.84,449.64440399999995A3,3,0,1,1,68.84,449.64440399999995A3,3,0,1,1,62.84,449.64440399999995Z" id="point-0-3" opacity="1"/><path class="data-point" fill="rgb(17, 165, 121)" data-type="point" transform="translate(0, 0)" d="M79.30000000000001,446.20755599999995A3,3,0,1,1,85.30000000000001,446.20755599999995A3,3,0,1,1,79.30000000000001,446.20755599999995Z" id="point-0-4" opacity="1"/><path class="data-point" fill="rgb(17, 165, 121)" data-type="point" transform="translate(0, 0)" d="M95.75999999999999,442.43492399999997A3,3,0,1,1,101.75999999999999,442.43492399999997A3,3,0,1,1,95.75999999999999,442.43492399999997Z" id="point-0-5" opacity="1"/><path class="data-point" fill="rgb(17, 165, 121)" data-type="point" transform="translate(0, 0)" d="M112.22000000000001,437.5265519999999A3,3,0,1,1,118.22000000000001,437.5265519999999A3,3,0,1,1,112.22000000000001,437.5265519999999Z" id="point-0-6" opacity="1"/><path class="data-point" fill="rgb(17, 165, 121)" data-type="point" transform="translate(0, 0)" d="M128.68,433.39838399999996A3,3,0,1,1,134.68,433.39838399999996A3,3,0,1,1,128.68,433.39838399999996Z" id="point-0-7" opacity="1"/><path class="data-point" fill="rgb(17, 165, 121)" data-type="point" transform="translate(0, 0)" d="M145.14,429.566496A3,3,0,1,1,151.14,429.566496A3,3,0,1,1,145.14,429.566496Z" id="point-0-8" opacity="1"/><path class="data-point" fill="rgb(17, 165, 121)" data-type="point" transform="translate(0, 0)" d="M161.60000000000002,424.579116A3,3,0,1,1,167.60000000000002,424.579116A3,3,0,1,1,161.60000000000002,424.579116Z" id="point-0-9" opacity="1"/><path class="data-point" fill="rgb(17, 165, 121)" data-type="point" transform="translate(0, 0)" d="M178.06,419.12756399999995A3,3,0,1,1,184.06,419.12756399999995A3,3,0,1,1,178.06,419.12756399999995Z" id="point-0-10" opacity="1"/><path class="data-point" fill="rgb(17, 165, 121)" data-type="point" transform="translate(0, 0)" d="M194.51999999999998,413.08345199999997A3,3,0,1,1,200.51999999999998,413.08345199999997A3,3,0,1,1,194.51999999999998,413.08345199999997Z" id="point-0-11" opacity="1"/><path class="data-point" fill="rgb(17, 165, 121)" data-type="point" transform="translate(0, 0)" d="M210.98000000000002,405.38017199999996A3,3,0,1,1,216.98000000000002,405.38017199999996A3,3,0,1,1,210.98000000000002,405.38017199999996Z" id="point-0-12" opacity="1"/><path class="data-point" fill="rgb(17, 165, 121)" data-type="point" transform="translate(0, 0)" d="M227.44000000000003,397.28185199999996A3,3,0,1,1,233.44000000000003,397.28185199999996A3,3,0,1,1,227.44000000000003,397.28185199999996Z" id="point-0-13" opacity="1"/><path class="data-point" fill="rgb(17, 165, 121)" data-type="point" transform="translate(0, 0)" d="M243.89999999999998,388.689732A3,3,0,1,1,249.89999999999998,388.689732A3,3,0,1,1,243.89999999999998,388.689732Z" id="point-0-14" opacity="1"/><path class="data-point" fill="rgb(17, 165, 121)" data-type="point" transform="translate(0, 0)" d="M260.36,379.89021599999995A3,3,0,1,1,266.36,379.89021599999995A3,3,0,1,1,260.36,379.89021599999995Z" id="point-0-15" opacity="1"/><path class="data-point" fill="rgb(17, 165, 121)" data-type="point" transform="translate(0, 0)" d="M276.82,371.38698A3,3,0,1,1,282.82,371.38698A3,3,0,1,1,276.82,371.38698Z" id="point-0-16" opacity="1"/><path class="data-point" fill="rgb(17, 165, 121)" data-type="point" transform="translate(0, 0)" d="M293.28,363.09114A3,3,0,1,1,299.28,363.09114A3,3,0,1,1,293.28,363.09114Z" id="point-0-17" opacity="1"/><path class="data-point" fill="rgb(17, 165, 121)" data-type="point" transform="translate(0, 0)" d="M309.74,355.452054A3,3,0,1,1,315.74,355.452054A3,3,0,1,1,309.74,355.452054Z" id="point-0-18" opacity="1"/><path class="data-point" fill="rgb(17, 165, 121)" data-type="point" transform="translate(0, 0)" d="M326.20000000000005,347.76852599999995A3,3,0,1,1,332.20000000000005,347.76852599999995A3,3,0,1,1,326.20000000000005,347.76852599999995Z" id="point-0-19" opacity="1"/><path class="data-point" fill="rgb(17, 165, 121)" data-type="point" transform="translate(0, 0)" d="M342.65999999999997,340.70224799999994A3,3,0,1,1,348.65999999999997,340.70224799999994A3,3,0,1,1,342.65999999999997,340.70224799999994Z" id="point-0-20" opacity="1"/><path class="data-point" fill="rgb(17, 165, 121)" data-type="point" transform="translate(0, 0)" d="M359.12,332.72244A3,3,0,1,1,365.12,332.72244A3,3,0,1,1,359.12,332.72244Z" id="point-0-21" opacity="1"/><path class="data-point" fill="rgb(17, 165, 121)" data-type="point" transform="translate(0, 0)" d="M375.58000000000004,327.053616A3,3,0,1,1,381.58000000000004,327.053616A3,3,0,1,1,375.58000000000004,327.053616Z" id="point-0-22" opacity="1"/><path class="data-point" fill="rgb(17, 165, 121)" data-type="point" transform="translate(0, 0)" d="M392.03999999999996,319.91326799999996A3,3,0,1,1,398.03999999999996,319.91326799999996A3,3,0,1,1,392.03999999999996,319.91326799999996Z" id="point-0-23" opacity="1"/><path class="data-point" fill="rgb(17, 165, 121)" data-type="point" transform="translate(0, 0)" d="M408.5,313.39510799999994A3,3,0,1,1,414.5,313.39510799999994A3,3,0,1,1,408.5,313.39510799999994Z" id="point-0-24" opacity="1"/><path class="data-point" fill="rgb(17, 165, 121)" data-type="point" transform="translate(0, 0)" d="M424.96000000000004,314.135808A3,3,0,1,1,430.96000000000004,314.135808A3,3,0,1,1,424.96000000000004,314.135808Z" id="point-0-25" opacity="1"/><path class="data-point" fill="rgb(17, 165, 121)" data-type="point" transform="translate(0, 0)" d="M441.42,300.38841599999995A3,3,0,1,1,447.42,300.38841599999995A3,3,0,1,1,441.42,300.38841599999995Z" id="point-0-26" opacity="1"/><path class="data-point" fill="rgb(17, 165, 121)" data-type="point" transform="translate(0, 0)" d="M457.88000000000005,348.129A3,3,0,1,1,463.88000000000005,348.129A3,3,0,1,1,457.88000000000005,348.129Z" id="point-0-27" opacity="1"/><path class="data-point" fill="rgb(17, 165, 121)" data-type="point" transform="translate(0, 0)" d="M474.34,291.03673284A3,3,0,1,1,480.34,291.03673284A3,3,0,1,1,474.34,291.03673284Z" id="point-0-28" opacity="1"/><path class="data-point" fill="rgb(17, 165, 121)" data-type="point" transform="translate(0, 0)" d="M490.79999999999995,281.32487196A3,3,0,1,1,496.79999999999995,281.32487196A3,3,0,1,1,490.79999999999995,281.32487196Z" id="point-0-29" opacity="1"/><path class="data-point" fill="rgb(17, 165, 121)" data-type="point" transform="translate(0, 0)" d="M507.26,271.23895758A3,3,0,1,1,513.26,271.23895758A3,3,0,1,1,507.26,271.23895758Z" id="point-0-30" opacity="1"/><path class="data-point" fill="rgb(17, 165, 121)" data-type="point" transform="translate(0, 0)" d="M523.72,260.76452136A3,3,0,1,1,529.72,260.76452136A3,3,0,1,1,523.72,260.76452136Z" id="point-0-31" opacity="1"/><path class="data-point" fill="rgb(17, 165, 121)" data-type="point" transform="translate(0, 0)" d="M540.1800000000001,249.88665053999995A3,3,0,1,1,546.1800000000001,249.88665053999995A3,3,0,1,1,540.1800000000001,249.88665053999995Z" id="point-0-32" opacity="1"/><path class="data-point" fill="rgb(17, 165, 121)" data-type="point" transform="translate(0, 0)" d="M556.64,238.58979041999993A3,3,0,1,1,562.64,238.58979041999993A3,3,0,1,1,556.64,238.58979041999993Z" id="point-0-33" opacity="1"/><path class="data-point" fill="rgb(17, 165, 121)" data-type="point" transform="translate(0, 0)" d="M573.0999999999999,226.85779374000003A3,3,0,1,1,579.0999999999999,226.85779374000003A3,3,0,1,1,573.0999999999999,226.85779374000003Z" id="point-0-34" opacity="1"/><path class="data-point" fill="rgb(17, 165, 121)" data-type="point" transform="translate(0, 0)" d="M589.56,214.67392067999998A3,3,0,1,1,595.56,214.67392067999998A3,3,0,1,1,589.56,214.67392067999998Z" id="point-0-35" opacity="1"/><path class="data-point" fill="rgb(17, 165, 121)" data-type="point" transform="translate(0, 0)" d="M606.02,202.02078948000002A3,3,0,1,1,612.02,202.02078948000002A3,3,0,1,1,606.02,202.02078948000002Z" id="point-0-36" opacity="1"/><path class="data-point" fill="rgb(17, 165, 121)" data-type="point" transform="translate(0, 0)" d="M622.48,188.8802283A3,3,0,1,1,628.48,188.8802283A3,3,0,1,1,622.48,188.8802283Z" id="point-0-37" opacity="1"/><path class="data-point" fill="rgb(17, 165, 121)" data-type="point" transform="translate(0, 0)" d="M638.94,175.23357149999998A3,3,0,1,1,644.94,175.23357149999998A3,3,0,1,1,638.94,175.23357149999998Z" id="point-0-38" opacity="1"/><path class="data-point" fill="rgb(17, 165, 121)" data-type="point" transform="translate(0, 0)" d="M655.4000000000001,161.06131398000002A3,3,0,1,1,661.4000000000001,161.06131398000002A3,3,0,1,1,655.4000000000001,161.06131398000002Z" id="point-0-39" opacity="1"/><path class="data-point" fill="rgb(17, 165, 121)" data-type="point" transform="translate(0, 0)" d="M671.86,146.34311118A3,3,0,1,1,677.86,146.34311118A3,3,0,1,1,671.86,146.34311118Z" id="point-0-40" opacity="1"/><path class="data-point" fill="rgb(17, 165, 121)" data-type="point" transform="translate(0, 0)" d="M688.3199999999999,131.05807536000003A3,3,0,1,1,694.3199999999999,131.05807536000003A3,3,0,1,1,688.3199999999999,131.05807536000003Z" id="point-0-41" opacity="1"/><path class="data-point" fill="rgb(17, 165, 121)" data-type="point" transform="translate(0, 0)" d="M704.78,115.18423241999994A3,3,0,1,1,710.78,115.18423241999994A3,3,0,1,1,704.78,115.18423241999994Z" id="point-0-42" opacity="1"/><path class="data-point" fill="rgb(17, 165, 121)" data-type="point" transform="translate(0, 0)" d="M721.24,98.69901569999996A3,3,0,1,1,727.24,98.69901569999996A3,3,0,1,1,721.24,98.69901569999996Z" id="point-0-43" opacity="1"/><path class="data-point" fill="rgb(17, 165, 121)" data-type="point" transform="translate(0, 0)" d="M737.7,81.57882155999994A3,3,0,1,1,743.7,81.57882155999994A3,3,0,1,1,737.7,81.57882155999994Z" id="point-0-44" opacity="1"/><path class="data-point" fill="rgb(17, 165, 121)" data-type="point" transform="translate(0, 0)" d="M754.1600000000001,63.7992069A3,3,0,1,1,760.1600000000001,63.7992069A3,3,0,1,1,754.1600000000001,63.7992069Z" id="point-0-45" opacity="1"/><path class="data-point" fill="#11A579" data-type="point" transform="translate(0, 0)" d="M770.62,45.334790399999974A3,3,0,1,1,776.62,45.334790399999974A3,3,0,1,1,770.62,45.334790399999974Z" id="point-0-46" opacity="1"/></g><g class="series" transform="translate(50,10)"><path class="data-point" fill="rgb(204, 80, 62)" data-type="point" transform="translate(0, 0)" d="M13.46,491.42482199999995A3,3,0,1,1,19.46,491.42482199999995A3,3,0,1,1,13.46,491.42482199999995Z" id="point-1-0" opacity="1"/><path class="data-point" fill="rgb(204, 80, 62)" data-type="point" transform="translate(0, 0)" d="M29.92,488.24968799999994A3,3,0,1,1,35.92,488.24968799999994A3,3,0,1,1,29.92,488.24968799999994Z" id="point-1-1" opacity="1"/><path class="data-point" fill="rgb(204, 80, 62)" data-type="point" transform="translate(0, 0)" d="M46.379999999999995,484.76345999999995A3,3,0,1,1,52.379999999999995,484.76345999999995A3,3,0,1,1,46.379999999999995,484.76345999999995Z" id="point-1-2" opacity="1"/><path class="data-point" fill="rgb(204, 80, 62)" data-type="point" transform="translate(0, 0)" d="M62.84,481.94386199999997A3,3,0,1,1,68.84,481.94386199999997A3,3,0,1,1,62.84,481.94386199999997Z" id="point-1-3" opacity="1"/><path class="data-point" fill="rgb(204, 80, 62)" data-type="point" transform="translate(0, 0)" d="M79.30000000000001,478.99587599999995A3,3,0,1,1,85.30000000000001,478.99587599999995A3,3,0,1,1,79.30000000000001,478.99587599999995Z" id="point-1-4" opacity="1"/><path class="data-point" fill="rgb(204, 80, 62)" data-type="point" transform="translate(0, 0)" d="M95.75999999999999,475.4602679999999A3,3,0,1,1,101.75999999999999,475.4602679999999A3,3,0,1,1,95.75999999999999,475.4602679999999Z" id="point-1-5" opacity="1"/><path class="data-point" fill="rgb(204, 80, 62)" data-type="point" transform="translate(0, 0)" d="M112.22000000000001,471.86540399999996A3,3,0,1,1,118.22000000000001,471.86540399999996A3,3,0,1,1,112.22000000000001,471.86540399999996Z" id="point-1-6" opacity="1"/><path class="data-point" fill="rgb(204, 80, 62)" data-type="point" transform="translate(0, 0)" d="M128.68,467.77673999999996A3,3,0,1,1,134.68,467.77673999999996A3,3,0,1,1,128.68,467.77673999999996Z" id="point-1-7" opacity="1"/><path class="data-point" fill="rgb(204, 80, 62)" data-type="point" transform="translate(0, 0)" d="M145.14,464.11768199999995A3,3,0,1,1,151.14,464.11768199999995A3,3,0,1,1,145.14,464.11768199999995Z" id="point-1-8" opacity="1"/><path class="data-point" fill="rgb(204, 80, 62)" data-type="point" transform="translate(0, 0)" d="M161.60000000000002,460.25616599999995A3,3,0,1,1,167.60000000000002,460.25616599999995A3,3,0,1,1,161.60000000000002,460.25616599999995Z" id="point-1-9" opacity="1"/><path class="data-point" fill="rgb(204, 80, 62)" data-type="point" transform="translate(0, 0)" d="M178.06,455.75271A3,3,0,1,1,184.06,455.75271A3,3,0,1,1,178.06,455.75271Z" id="point-1-10" opacity="1"/><path class="data-point" fill="rgb(204, 80, 62)" data-type="point" transform="translate(0, 0)" d="M194.51999999999998,450.33572399999997A3,3,0,1,1,200.51999999999998,450.33572399999997A3,3,0,1,1,194.51999999999998,450.33572399999997Z" id="point-1-11" opacity="1"/><path class="data-point" fill="rgb(204, 80, 62)" data-type="point" transform="translate(0, 0)" d="M210.98000000000002,443.51140799999996A3,3,0,1,1,216.98000000000002,443.51140799999996A3,3,0,1,1,210.98000000000002,443.51140799999996Z" id="point-1-12" opacity="1"/><path class="data-point" fill="rgb(204, 80, 62)" data-type="point" transform="translate(0, 0)" d="M227.44000000000003,436.75128599999994A3,3,0,1,1,233.44000000000003,436.75128599999994A3,3,0,1,1,227.44000000000003,436.75128599999994Z" id="point-1-13" opacity="1"/><path class="data-point" fill="rgb(204, 80, 62)" data-type="point" transform="translate(0, 0)" d="M243.89999999999998,430.07017199999996A3,3,0,1,1,249.89999999999998,430.07017199999996A3,3,0,1,1,243.89999999999998,430.07017199999996Z" id="point-1-14" opacity="1"/><path class="data-point" fill="rgb(204, 80, 62)" data-type="point" transform="translate(0, 0)" d="M260.36,423.2063519999999A3,3,0,1,1,266.36,423.2063519999999A3,3,0,1,1,260.36,423.2063519999999Z" id="point-1-15" opacity="1"/><path class="data-point" fill="rgb(204, 80, 62)" data-type="point" transform="translate(0, 0)" d="M276.82,415.246296A3,3,0,1,1,282.82,415.246296A3,3,0,1,1,276.82,415.246296Z" id="point-1-16" opacity="1"/><path class="data-point" fill="rgb(204, 80, 62)" data-type="point" transform="translate(0, 0)" d="M293.28,407.76028799999995A3,3,0,1,1,299.28,407.76028799999995A3,3,0,1,1,293.28,407.76028799999995Z" id="point-1-17" opacity="1"/><path class="data-point" fill="rgb(204, 80, 62)" data-type="point" transform="translate(0, 0)" d="M309.74,401.68654799999996A3,3,0,1,1,315.74,401.68654799999996A3,3,0,1,1,309.74,401.68654799999996Z" id="point-1-18" opacity="1"/><path class="data-point" fill="rgb(204, 80, 62)" data-type="point" transform="translate(0, 0)" d="M326.20000000000005,394.0227719999999A3,3,0,1,1,332.20000000000005,394.0227719999999A3,3,0,1,1,326.20000000000005,394.0227719999999Z" id="point-1-19" opacity="1"/><path class="data-point" fill="rgb(204, 80, 62)" data-type="point" transform="translate(0, 0)" d="M342.65999999999997,387.0898199999999A3,3,0,1,1,348.65999999999997,387.0898199999999A3,3,0,1,1,342.65999999999997,387.0898199999999Z" id="point-1-20" opacity="1"/><path class="data-point" fill="rgb(204, 80, 62)" data-type="point" transform="translate(0, 0)" d="M359.12,380.49758999999995A3,3,0,1,1,365.12,380.49758999999995A3,3,0,1,1,359.12,380.49758999999995Z" id="point-1-21" opacity="1"/><path class="data-point" fill="rgb(204, 80, 62)" data-type="point" transform="translate(0, 0)" d="M375.58000000000004,374.91271199999994A3,3,0,1,1,381.58000000000004,374.91271199999994A3,3,0,1,1,375.58000000000004,374.91271199999994Z" id="point-1-22" opacity="1"/><path class="data-point" fill="rgb(204, 80, 62)" data-type="point" transform="translate(0, 0)" d="M392.03999999999996,369.935208A3,3,0,1,1,398.03999999999996,369.935208A3,3,0,1,1,392.03999999999996,369.935208Z" id="point-1-23" opacity="1"/><path class="data-point" fill="rgb(204, 80, 62)" data-type="point" transform="translate(0, 0)" d="M408.5,369.6488039999999A3,3,0,1,1,414.5,369.6488039999999A3,3,0,1,1,408.5,369.6488039999999Z" id="point-1-24" opacity="1"/><path class="data-point" fill="rgb(204, 80, 62)" data-type="point" transform="translate(0, 0)" d="M424.96000000000004,362.86893A3,3,0,1,1,430.96000000000004,362.86893A3,3,0,1,1,424.96000000000004,362.86893Z" id="point-1-25" opacity="1"/><path class="data-point" fill="rgb(204, 80, 62)" data-type="point" transform="translate(0, 0)" d="M441.42,358.36547399999995A3,3,0,1,1,447.42,358.36547399999995A3,3,0,1,1,441.42,358.36547399999995Z" id="point-1-26" opacity="1"/><path class="data-point" fill="rgb(204, 80, 62)" data-type="point" transform="translate(0, 0)" d="M457.88000000000005,355.85696999999993A3,3,0,1,1,463.88000000000005,355.85696999999993A3,3,0,1,1,457.88000000000005,355.85696999999993Z" id="point-1-27" opacity="1"/><path class="data-point" fill="rgb(204, 80, 62)" data-type="point" transform="translate(0, 0)" d="M474.34,350.62041851999993A3,3,0,1,1,480.34,350.62041851999993A3,3,0,1,1,474.34,350.62041851999993Z" id="point-1-28" opacity="1"/><path class="data-point" fill="rgb(204, 80, 62)" data-type="point" transform="translate(0, 0)" d="M490.79999999999995,342.55083768A3,3,0,1,1,496.79999999999995,342.55083768A3,3,0,1,1,490.79999999999995,342.55083768Z" id="point-1-29" opacity="1"/><path class="data-point" fill="rgb(204, 80, 62)" data-type="point" transform="translate(0, 0)" d="M507.26,334.14305321999996A3,3,0,1,1,513.26,334.14305321999996A3,3,0,1,1,507.26,334.14305321999996Z" id="point-1-30" opacity="1"/><path class="data-point" fill="rgb(204, 80, 62)" data-type="point" transform="translate(0, 0)" d="M523.72,325.38289308A3,3,0,1,1,529.72,325.38289308A3,3,0,1,1,523.72,325.38289308Z" id="point-1-31" opacity="1"/><path class="data-point" fill="rgb(204, 80, 62)" data-type="point" transform="translate(0, 0)" d="M540.1800000000001,316.2556914A3,3,0,1,1,546.1800000000001,316.2556914A3,3,0,1,1,540.1800000000001,316.2556914Z" id="point-1-32" opacity="1"/><path class="data-point" fill="rgb(204, 80, 62)" data-type="point" transform="translate(0, 0)" d="M556.64,306.74594286A3,3,0,1,1,562.64,306.74594286A3,3,0,1,1,556.64,306.74594286Z" id="point-1-33" opacity="1"/><path class="data-point" fill="rgb(204, 80, 62)" data-type="point" transform="translate(0, 0)" d="M573.0999999999999,296.83764834A3,3,0,1,1,579.0999999999999,296.83764834A3,3,0,1,1,573.0999999999999,296.83764834Z" id="point-1-34" opacity="1"/><path class="data-point" fill="rgb(204, 80, 62)" data-type="point" transform="translate(0, 0)" d="M589.56,286.51416678A3,3,0,1,1,595.56,286.51416678A3,3,0,1,1,589.56,286.51416678Z" id="point-1-35" opacity="1"/><path class="data-point" fill="rgb(204, 80, 62)" data-type="point" transform="translate(0, 0)" d="M606.02,275.75806703999996A3,3,0,1,1,612.02,275.75806703999996A3,3,0,1,1,606.02,275.75806703999996Z" id="point-1-36" opacity="1"/><path class="data-point" fill="rgb(204, 80, 62)" data-type="point" transform="translate(0, 0)" d="M622.48,264.55117728A3,3,0,1,1,628.48,264.55117728A3,3,0,1,1,622.48,264.55117728Z" id="point-1-37" opacity="1"/><path class="data-point" fill="rgb(204, 80, 62)" data-type="point" transform="translate(0, 0)" d="M638.94,252.87468371999995A3,3,0,1,1,644.94,252.87468371999995A3,3,0,1,1,638.94,252.87468371999995Z" id="point-1-38" opacity="1"/><path class="data-point" fill="rgb(204, 80, 62)" data-type="point" transform="translate(0, 0)" d="M655.4000000000001,240.70883435999997A3,3,0,1,1,661.4000000000001,240.70883435999997A3,3,0,1,1,655.4000000000001,240.70883435999997Z" id="point-1-39" opacity="1"/><path class="data-point" fill="rgb(204, 80, 62)" data-type="point" transform="translate(0, 0)" d="M671.86,228.03313649999996A3,3,0,1,1,677.86,228.03313649999996A3,3,0,1,1,671.86,228.03313649999996Z" id="point-1-40" opacity="1"/><path class="data-point" fill="rgb(204, 80, 62)" data-type="point" transform="translate(0, 0)" d="M688.3199999999999,214.82625797999998A3,3,0,1,1,694.3199999999999,214.82625797999998A3,3,0,1,1,688.3199999999999,214.82625797999998Z" id="point-1-41" opacity="1"/><path class="data-point" fill="rgb(204, 80, 62)" data-type="point" transform="translate(0, 0)" d="M704.78,201.06587903999997A3,3,0,1,1,710.78,201.06587903999997A3,3,0,1,1,704.78,201.06587903999997Z" id="point-1-42" opacity="1"/><path class="data-point" fill="rgb(204, 80, 62)" data-type="point" transform="translate(0, 0)" d="M721.24,186.7288898399999A3,3,0,1,1,727.24,186.7288898399999A3,3,0,1,1,721.24,186.7288898399999Z" id="point-1-43" opacity="1"/><path class="data-point" fill="rgb(204, 80, 62)" data-type="point" transform="translate(0, 0)" d="M737.7,171.7910448A3,3,0,1,1,743.7,171.7910448A3,3,0,1,1,737.7,171.7910448Z" id="point-1-44" opacity="1"/><path class="data-point" fill="rgb(204, 80, 62)" data-type="point" transform="translate(0, 0)" d="M754.1600000000001,156.22720949999996A3,3,0,1,1,760.1600000000001,156.22720949999996A3,3,0,1,1,754.1600000000001,156.22720949999996Z" id="point-1-45" opacity="1"/><path class="data-point" fill="rgb(204, 80, 62)" data-type="point" transform="translate(0, 0)" d="M770.62,140.01116316000002A3,3,0,1,1,776.62,140.01116316000002A3,3,0,1,1,770.62,140.01116316000002Z" id="point-1-46" opacity="1"/></g></g><g id="data-labels"/><g class="annotations above"><g class="axis-highlights" transform="translate(50, 10)" style="opacity: 1;"/></g></svg>