<svg xmlns="http://www.w3.org/2000/svg" id="graphic" width="883" height="598.18"><g id="facets"><g class="facet" transform="translate(50,10)" opacity="1"><text class="facet-title" y="0" font-size="16" font-weight="bold" dominant-baseline="middle" x="0" clip-path="url(#facet-clip-0)" fill="black"/><g class="plot"><clipPath class="facet-clip" id="facet-clip-0"><rect width="838" height="563.18" transform="translate(-7.5,-10)"/></clipPath><g class="bg"><rect fill="none" width="823" height="543.18" style="fill: none;"/></g><g class="interaction"><g class="series"><path data-target="point-0-0" d="M36.331309425339114,543.18L24.691145340339006,487.9793325L0,487.9793325L0,543.18Z" style="opacity: 0;"/><path data-target="point-0-1" d="M24.68884749014699,484.49754899999994L24.691145340339006,487.9793325L36.331309425339114,543.18L52.906066844785926,543.18L41.132017737053005,484.49754899999994Z" style="opacity: 0;"/><path data-target="point-0-2" d="M41.132017737053005,484.49754899999994L52.906066844785926,543.18L70.67962779888713,543.18L57.55272982,480.928856L41.170880717099,480.928856Z" style="opacity: 0;"/><path data-target="point-0-3" d="M57.55272982,480.928856L70.67962779888713,543.18L87.89371372799984,543.18L74.0522184384,477.642617L57.66117570699999,477.642617Z" style="opacity: 0;"/><path data-target="point-0-4" d="M74.0522184384,477.642617L87.89371372799984,543.18L114.41526487938809,543.18L90.906248096312,474.283049L74.086586859861,474.283049Z" style="opacity: 0;"/><path data-target="point-0-5" d="M90.269464545062,469.530224L90.906248096312,474.283049L114.41526487938809,543.18L124.80439871200001,543.18L107.256601292452,469.530224Z" style="opacity: 0;"/><path data-target="point-0-6" d="M106.72118317097198,465.59216849999996L107.256601292452,469.530224L124.80439871200001,543.18L141.87954503279977,543.18L123.70071611235,465.59216849999996Z" style="opacity: 0;"/><path data-target="point-0-7" d="M123.15761560202401,461.41511449999996L123.70071611235,465.59216849999996L141.87954503279977,543.18L164.06262394516423,543.18L140.264139352028,461.41511449999996Z" style="opacity: 0;"/><path data-target="point-0-8" d="M139.612474710026,457.007209L140.264139352028,461.41511449999996L164.06262394516423,543.18L182.69130054703598,543.18L156.870482310625,457.00720899999993Z" style="opacity: 0;"/><path data-target="point-0-9" d="M155.938967991175,452.417338L156.870482310625,457.00720899999993L182.69130054703598,543.18L206.0298100644869,543.18L173.71195010897398,452.417338Z" style="opacity: 0;"/><path data-target="point-0-10" d="M131.139493810119,334.22801567655915L171.930067529574,446.496676L190.182730295303,446.496676L188.3297249975,440.3125715L170.07017466998298,393.421070915724Z" style="opacity: 0;"/><path data-target="point-0-11" d="M170.07017466998298,393.421070915724L188.3297249975,440.3125715L207.12486071305,440.3125715L202.95849528234996,428.9383825Z" style="opacity: 0;"/><path data-target="point-0-12" d="M0,40.321254889734355L12.113568076838789,71.78763661868214L25.9122451723711,105.51781147543022L89.05543550922332,250.2553311583077L120.56006070872903,315.32165374107296L131.139493810119,334.22801567655915L170.07017466998298,393.421070915724L202.95849528234996,428.9383825L221.80878329967598,428.9383825L222.651367700301,421.13017L13.358090696689231,0L0,0Z" style="opacity: 0;"/><path data-target="point-0-13" d="M13.358090696689231,0L222.651367700301,421.13017L238.0879413008,421.13017L239.09073415999998,414.799407L219.9529648828626,355.50161088500687L36.23684888908193,5.684341886080802e-14Z" style="opacity: 0;"/><path data-target="point-0-14" d="M219.9529648828626,355.50161088500687L239.09073415999998,414.799407L255.0452868253,414.799407L255.261274946176,405.17425749999995Z" style="opacity: 0;"/><path data-target="point-0-15" d="M36.23684888908193,5.684341886080802e-14L219.9529648828626,355.50161088500687L255.261274946176,405.17425749999995L270.70870246035,405.17425749999995L272.5248752457,396.152038L48.97628020229922,0Z" style="opacity: 0;"/><path data-target="point-0-16" d="M48.97628020229922,0L272.5248752457,396.152038L286.957596820088,396.152038L287.730061372112,393.240593L290.9838735545736,371.0333008057938L212.50772207392833,214.3755163827148L90.3093884889161,0Z" style="opacity: 0;"/><path data-target="point-0-17" d="M287.730061372112,393.240593L305.4690739147,393.240593L301.79652258280004,380.448704L290.9838735545736,371.0333008057938Z" style="opacity: 0;"/><path data-target="point-0-18" d="M212.50772207392833,214.3755163827148L290.9838735545736,371.0333008057938L301.79652258280004,380.448704L319.498348118652,380.44870399999996L323.004900026874,370.4053055Z" style="opacity: 0;"/><path data-target="point-0-19" d="M90.3093884889161,0L212.50772207392833,214.3755163827148L323.004900026874,370.4053055L335.165004641,370.4053055L339.998285522,362.268469L149.67691384455188,0Z" style="opacity: 0;"/><path data-target="point-0-20" d="M149.67691384455188,0L339.998285522,362.268469L351.428820506425,362.268469L356.37883319574996,354.9762775L198.23690156950087,0Z" style="opacity: 0;"/><path data-target="point-0-21" d="M198.23690156950087,0L356.37883319574996,354.9762775L368.042920295037,354.9762775L372.373539114036,349.210422L258.05602809753555,0Z" style="opacity: 0;"/><path data-target="point-0-22" d="M258.05602809753555,0L372.373539114036,349.210422L384.7682777834,349.210422L388.61676240139997,344.050212L287.3421336361998,0Z" style="opacity: 0;"/><path data-target="point-0-23" d="M287.3421336361998,0L388.61676240139997,344.050212L403.109166378964,344.050212L405.643677988462,341.56787899999995L367.8016370557154,207.6042734173068L301.8132698852511,23.389860142317843L292.69496690210406,-3.552713678800501e-15Z" style="opacity: 0;"/><path data-target="point-0-24" d="M367.8016370557154,207.6042734173068L405.643677988462,341.56787899999995L416.558880122877,341.56787899999995L422.76716158927496,334.26753999999994Z" style="opacity: 0;"/><path data-target="point-0-25" d="M301.8132698852511,23.389860142317843L367.8016370557154,207.6042734173068L422.76716158927496,334.26753999999994L433.75421555659995,334.26753999999994L439.8570302537,328.0617085Z" style="opacity: 0;"/><path data-target="point-0-26" d="M292.69496690210406,-3.552713678800501e-15L301.8132698852511,23.389860142317843L439.8570302537,328.0617085L450.89939683855,328.0617085L457.3435472056,322.98297549999995L312.17561118845185,0Z" style="opacity: 0;"/><path data-target="point-0-27" d="M312.17561118845185,0L457.3435472056,322.98297549999995L465.16898675402695,322.9829755L471.27423843509376,318.5212405L460.5968286312969,262.961470297365L423.54224952814155,177.1551303103691L370.883382307856,76.30381822892187L326.97272297313845,0Z" style="opacity: 0;"/><path data-target="point-0-28" d="M460.5968286312969,262.961470297365L471.27423843509376,318.5212405L481.03738356816217,318.5212405L491.2139280100304,308.556522Z" style="opacity: 0;"/><path data-target="point-0-29" d="M423.54224952814155,177.1551303103691L460.5968286312969,262.961470297365L491.2139280100304,308.556522L496.80050681261747,308.556522L508.57059131046293,298.148596Z" style="opacity: 0;"/><path data-target="point-0-30" d="M370.883382307856,76.30381822892187L423.54224952814155,177.1551303103691L508.57059131046293,298.148596L512.4760686667445,298.148596L526.0450846443733,287.277717Z" style="opacity: 0;"/><path data-target="point-0-31" d="M326.97272297313845,0L370.883382307856,76.30381822892187L526.0450846443733,287.277717L528.0541086242317,287.277717L543.5639543367319,275.98710805690723L543.6082998163797,275.8669583493073L331.27844612757247,0Z" style="opacity: 0;"/><path data-target="point-0-32" d="M331.27844612757247,0L543.6082998163797,275.8669583493073L559.6450134864562,265.2314925016879L560.5750301655464,263.0320767293866L348.70261245963826,0Z" style="opacity: 0;"/><path data-target="point-0-33" d="M348.70261245963826,0L560.5750301655464,263.0320767293866L575.6297054030828,253.9146321218337L577.6569767997579,249.69681762688532L367.16548733408524,0Z" style="opacity: 0;"/><path data-target="point-0-34" d="M367.16548733408524,0L577.6569767997579,249.69681762688532L591.5086303086125,242.01970157977757L594.8668461621858,235.8320789166231L386.81137324520193,0Z" style="opacity: 0;"/><path data-target="point-0-35" d="M386.81137324520193,0L594.8668461621858,235.8320789166231L607.2711005179823,229.52808264416024L612.2191406576309,221.40815187703532L407.79801135888715,0Z" style="opacity: 0;"/><path data-target="point-0-36" d="M407.79801135888715,0L612.2191406576309,221.40815187703532L622.9050224960196,216.4194507168321L629.7302691716893,206.39479674948524L430.3026886607646,0Z" style="opacity: 0;"/><path data-target="point-0-37" d="M430.3026886607646,0L629.7302691716893,206.39479674948524L638.3966261552246,202.67203163929574L647.418767150379,190.76089036469244L454.5196164093756,0Z" style="opacity: 0;"/><path data-target="point-0-38" d="M454.5196164093756,0L647.418767150379,190.76089036469244L653.7305313869834,188.26228708967363L665.3055550105527,174.47442861553253L480.6644293602425,0Z" style="opacity: 0;"/><path data-target="point-0-39" d="M480.6644293602425,0L665.3055550105527,174.47442861553253L668.8894228688627,173.1651514143527L683.4141032396186,157.50249380366924L508.97701019755925,0Z" style="opacity: 0;"/><path data-target="point-0-40" d="M508.97701019755925,0L683.4141032396186,157.50249380366924L683.8538809165783,157.35403104384358L699.6467651706449,141.8906768795019L700.7247998540261,138.90855823163002L539.721122286364,0Z" style="opacity: 0;"/><path data-target="point-0-41" d="M539.721122286364,0L700.7247998540261,138.90855823163002L715.430640091175,125.79918481623923L718.0703452532784,119.43990364230446L573.1892559581561,0Z" style="opacity: 0;"/><path data-target="point-0-42" d="M573.1892559581561,0L718.0703452532784,119.43990364230446L731.0378505469056,108.88987754179527L735.6228066081479,99.1909076268494L609.7045172196042,0Z" style="opacity: 0;"/><path data-target="point-0-43" d="M609.7045172196042,0L735.6228066081479,99.1909076268494L746.4487790372782,91.1347662901986L753.4073417875429,78.11947304187264L649.6232393498674,0Z" style="opacity: 0;"/><path data-target="point-0-44" d="M649.6232393498674,0L753.4073417875429,78.11947304187264L778.3249160908116,61.12519175247284L693.3389375631356,0Z" style="opacity: 0;"/><path data-target="point-0-45" d="M693.3389375631356,0L778.3249160908116,61.12519175247284L817.1565372481841,52.142264999999995L741.2862883253013,7.105427357601002e-15Z" style="opacity: 0;"/><path data-target="point-0-46" d="M741.2862883253013,7.105427357601002e-15L817.1565372481841,52.142264999999995L823,52.142264999999995L823,0Z" style="opacity: 0;"/><path data-target="point-1-0" d="M0,487.9793325L24.691145340339006,487.9793325L24.68884749014699,484.49754899999994L0,368.1449861192349Z" style="opacity: 0;"/><path data-target="point-1-1" d="M0,368.1449861192349L24.68884749014699,484.49754899999994L41.132017737053005,484.49754899999994L41.170880717099,480.928856L0,304.21463774133576Z" style="opacity: 0;"/><path data-target="point-1-2" d="M0,304.21463774133576L41.170880717099,480.928856L57.55272982,480.928856L57.66117570699999,477.642617L0,171.6341682986644Z" style="opacity: 0;"/><path data-target="point-1-3" d="M0,171.6341682986644L57.66117570699999,477.642617L74.0522184384,477.642617L74.086586859861,474.283049L0,98.22802353012571Z" style="opacity: 0;"/><path data-target="point-1-4" d="M0,98.22802353012571L74.086586859861,474.283049L90.906248096312,474.283049L90.269464545062,469.530224L0,87.48578560924682Z" style="opacity: 0;"/><path data-target="point-1-5" d="M0,87.48578560924682L90.269464545062,469.530224L107.256601292452,469.530224L106.72118317097198,465.59216849999996L12.113568076838789,71.78763661868214L0,40.321254889734355Z" style="opacity: 0;"/><path data-target="point-1-6" d="M12.113568076838789,71.78763661868214L106.72118317097198,465.59216849999996L123.70071611235,465.59216849999996L123.15761560202401,461.41511449999996L25.9122451723711,105.51781147543022Z" style="opacity: 0;"/><path data-target="point-1-7" d="M25.9122451723711,105.51781147543022L123.15761560202401,461.41511449999996L140.264139352028,461.41511449999996L139.612474710026,457.007209L89.05543550922332,250.2553311583077Z" style="opacity: 0;"/><path data-target="point-1-8" d="M89.05543550922332,250.2553311583077L139.612474710026,457.007209L156.870482310625,457.00720899999993L155.938967991175,452.417338L120.56006070872903,315.32165374107296Z" style="opacity: 0;"/><path data-target="point-1-9" d="M120.56006070872903,315.32165374107296L155.938967991175,452.417338L173.71195010897398,452.417338L171.930067529574,446.496676L131.139493810119,334.22801567655915Z" style="opacity: 0;"/><path data-target="point-1-10" d="M171.930067529574,446.496676L173.71195010897398,452.417338L206.0298100644869,543.18L225.18306276607706,543.18L190.182730295303,446.496676Z" style="opacity: 0;"/><path data-target="point-1-11" d="M188.3297249975,440.3125715L190.182730295303,446.496676L225.18306276607706,543.18L254.03857640503608,543.18L207.12486071305,440.3125715Z" style="opacity: 0;"/><path data-target="point-1-12" d="M202.95849528234996,428.9383825L207.12486071305,440.3125715L254.03857640503608,543.18L273.4197174495388,543.18L221.80878329967598,428.9383825Z" style="opacity: 0;"/><path data-target="point-1-13" d="M221.80878329967598,428.9383825L273.4197174495388,543.18L292.5819743464609,543.18L238.0879413008,421.13017L222.651367700301,421.13017Z" style="opacity: 0;"/><path data-target="point-1-14" d="M238.0879413008,421.13017L292.5819743464609,543.18L313.93346483439996,543.18L255.0452868253,414.799407L239.09073415999998,414.799407Z" style="opacity: 0;"/><path data-target="point-1-15" d="M255.0452868253,414.799407L313.93346483439996,543.18L344.122232210064,543.18L270.70870246035,405.17425749999995L255.261274946176,405.17425749999995Z" style="opacity: 0;"/><path data-target="point-1-16" d="M270.70870246035,405.17425749999995L344.122232210064,543.18L360.5127474359364,543.18L286.957596820088,396.152038L272.5248752457,396.152038Z" style="opacity: 0;"/><path data-target="point-1-17" d="M286.957596820088,396.152038L360.5127474359364,543.18L366.32947921599964,543.18L305.4690739147,393.240593L287.730061372112,393.240593Z" style="opacity: 0;"/><path data-target="point-1-18" d="M301.79652258280004,380.448704L305.4690739147,393.240593L366.32947921599964,543.18L402.84281263260027,543.18L319.498348118652,380.44870399999996Z" style="opacity: 0;"/><path data-target="point-1-19" d="M319.498348118652,380.44870399999996L402.84281263260027,543.18L415.21497399741185,543.18L335.165004641,370.4053055L323.004900026874,370.4053055Z" style="opacity: 0;"/><path data-target="point-1-20" d="M335.165004641,370.4053055L415.21497399741185,543.18L431.1293954884751,543.18L351.428820506425,362.268469L339.998285522,362.268469Z" style="opacity: 0;"/><path data-target="point-1-21" d="M351.428820506425,362.268469L431.1293954884751,543.18L431.49900973535887,543.18L419.03124008193214,491.58994233655676L368.042920295037,354.9762775L356.37883319574996,354.9762775Z" style="opacity: 0;"/><path data-target="point-1-22" d="M368.042920295037,354.9762775L419.03124008193214,491.58994233655676L404.33372482424596,408.0291102822833L384.7682777834,349.210422L372.373539114036,349.210422Z" style="opacity: 0;"/><path data-target="point-1-23" d="M384.7682777834,349.210422L404.33372482424596,408.0291102822833L403.109166378964,344.050212L388.61676240139997,344.050212Z" style="opacity: 0;"/><path data-target="point-1-24" d="M403.109166378964,344.050212L404.33372482424596,408.0291102822833L419.03124008193214,491.58994233655676L431.49900973535887,543.18L497.165882573441,543.18L474.7073032761964,470.0797822823652L474.31557196104905,469.0407760754894L416.558880122877,341.56787899999995L405.643677988462,341.56787899999995Z" style="opacity: 0;"/><path data-target="point-1-25" d="M416.558880122877,341.56787899999995L474.31557196104905,469.0407760754894L433.75421555659995,334.26753999999994L422.76716158927496,334.26753999999994Z" style="opacity: 0;"/><path data-target="point-1-26" d="M433.75421555659995,334.26753999999994L474.31557196104905,469.0407760754894L474.7073032761964,470.0797822823652L450.89939683855,328.0617085L439.8570302537,328.0617085Z" style="opacity: 0;"/><path data-target="point-1-27" d="M450.89939683855,328.0617085L474.7073032761964,470.0797822823652L497.165882573441,543.18L542.2273368089521,543.18L465.16898675402695,322.9829755L457.3435472056,322.98297549999995Z" style="opacity: 0;"/><path data-target="point-1-28" d="M465.16898675402695,322.9829755L542.2273368089521,543.18L602.1912256333736,543.18L481.03738356816217,318.5212405L471.27423843509376,318.5212405Z" style="opacity: 0;"/><path data-target="point-1-29" d="M481.03738356816217,318.5212405L602.1912256333736,543.18L628.6309918028138,543.18L496.80050681261747,308.556522L491.2139280100304,308.556522Z" style="opacity: 0;"/><path data-target="point-1-30" d="M496.80050681261747,308.556522L628.6309918028138,543.18L655.9247916012825,543.18L512.4760686667445,298.148596L508.57059131046293,298.148596Z" style="opacity: 0;"/><path data-target="point-1-31" d="M512.4760686667445,298.148596L655.9247916012825,543.18L684.1439448963857,543.18L528.0541086242317,287.277717L526.0450846443733,287.277717Z" style="opacity: 0;"/><path data-target="point-1-32" d="M528.0541086242317,287.277717L684.1439448963857,543.18L713.3714329137986,543.18L543.5639543367319,275.98710805690723Z" style="opacity: 0;"/><path data-target="point-1-33" d="M543.5639543367319,275.98710805690723L713.3714329137986,543.18L743.6908973770404,543.18L559.6450134864562,265.2314925016879L543.6082998163797,275.8669583493073Z" style="opacity: 0;"/><path data-target="point-1-34" d="M559.6450134864562,265.2314925016879L743.6908973770404,543.18L775.1952183138931,543.18L575.6297054030828,253.9146321218337L560.5750301655464,263.0320767293866Z" style="opacity: 0;"/><path data-target="point-1-35" d="M575.6297054030828,253.9146321218337L775.1952183138931,543.18L807.9874281981156,543.18L591.5086303086125,242.01970157977757L577.6569767997579,249.69681762688532Z" style="opacity: 0;"/><path data-target="point-1-36" d="M591.5086303086125,242.01970157977757L807.9874281981156,543.18L823,543.18L823,517.5730982529847L607.2711005179823,229.52808264416024L594.8668461621858,235.8320789166231Z" style="opacity: 0;"/><path data-target="point-1-37" d="M607.2711005179823,229.52808264416024L823,517.5730982529847L823,472.84475910179003L622.9050224960196,216.4194507168321L612.2191406576309,221.40815187703532Z" style="opacity: 0;"/><path data-target="point-1-38" d="M622.9050224960196,216.4194507168321L823,472.84475910179003L823,429.7287489363892L638.3966261552246,202.67203163929574L629.7302691716893,206.39479674948524Z" style="opacity: 0;"/><path data-target="point-1-39" d="M638.3966261552246,202.67203163929574L823,429.7287489363892L823,388.08455640058844L653.7305313869834,188.26228708967363L647.418767150379,190.76089036469244Z" style="opacity: 0;"/><path data-target="point-1-40" d="M653.7305313869834,188.26228708967363L823,388.08455640058844L823,347.7752753386568L668.8894228688627,173.1651514143527L665.3055550105527,174.47442861553253Z" style="opacity: 0;"/><path data-target="point-1-41" d="M668.8894228688627,173.1651514143527L823,347.7752753386568L823,308.6675896035164L683.8538809165783,157.35403104384358L683.4141032396186,157.50249380366924Z" style="opacity: 0;"/><path data-target="point-1-42" d="M683.8538809165783,157.35403104384358L823,308.6675896035164L823,270.6354878409L699.6467651706449,141.8906768795019Z" style="opacity: 0;"/><path data-target="point-1-43" d="M699.6467651706449,141.8906768795019L823,270.6354878409L823,233.55426840193644L715.430640091175,125.79918481623923L700.7247998540261,138.90855823163002Z" style="opacity: 0;"/><path data-target="point-1-44" d="M715.430640091175,125.79918481623923L823,233.55426840193644L823,197.30562619535726L731.0378505469056,108.88987754179527L718.0703452532784,119.43990364230446Z" style="opacity: 0;"/><path data-target="point-1-45" d="M731.0378505469056,108.88987754179527L823,197.30562619535726L823,161.77372525662327L746.4487790372782,91.1347662901986L735.6228066081479,99.1909076268494Z" style="opacity: 0;"/><path data-target="point-1-46" d="M746.4487790372782,91.1347662901986L823,161.77372525662327L823,52.142264999999995L817.1565372481841,52.142264999999995L778.3249160908116,61.12519175247284L753.4073417875429,78.11947304187264Z" style="opacity: 0;"/></g><g class="series"><path data-target="point-0-0" d="M36.331309425339114,543.18L24.691145340339006,487.9793325L0,487.9793325L0,543.18Z" style="opacity: 0;"/><path data-target="point-0-1" d="M24.68884749014699,484.49754899999994L24.691145340339006,487.9793325L36.331309425339114,543.18L52.906066844785926,543.18L41.132017737053005,484.49754899999994Z" style="opacity: 0;"/><path data-target="point-0-2" d="M41.132017737053005,484.49754899999994L52.906066844785926,543.18L70.67962779888713,543.18L57.55272982,480.928856L41.170880717099,480.928856Z" style="opacity: 0;"/><path data-target="point-0-3" d="M57.55272982,480.928856L70.67962779888713,543.18L87.89371372799984,543.18L74.0522184384,477.642617L57.66117570699999,477.642617Z" style="opacity: 0;"/><path data-target="point-0-4" d="M74.0522184384,477.642617L87.89371372799984,543.18L114.41526487938809,543.18L90.906248096312,474.283049L74.086586859861,474.283049Z" style="opacity: 0;"/><path data-target="point-0-5" d="M90.269464545062,469.530224L90.906248096312,474.283049L114.41526487938809,543.18L124.80439871200001,543.18L107.256601292452,469.530224Z" style="opacity: 0;"/><path data-target="point-0-6" d="M106.72118317097198,465.59216849999996L107.256601292452,469.530224L124.80439871200001,543.18L141.87954503279977,543.18L123.70071611235,465.59216849999996Z" style="opacity: 0;"/><path data-target="point-0-7" d="M123.15761560202401,461.41511449999996L123.70071611235,465.59216849999996L141.87954503279977,543.18L164.06262394516423,543.18L140.264139352028,461.41511449999996Z" style="opacity: 0;"/><path data-target="point-0-8" d="M139.612474710026,457.007209L140.264139352028,461.41511449999996L164.06262394516423,543.18L182.69130054703598,543.18L156.870482310625,457.00720899999993Z" style="opacity: 0;"/><path data-target="point-0-9" d="M155.938967991175,452.417338L156.870482310625,457.00720899999993L182.69130054703598,543.18L206.0298100644869,543.18L173.71195010897398,452.417338Z" style="opacity: 0;"/><path data-target="point-0-10" d="M131.139493810119,334.22801567655915L171.930067529574,446.496676L190.182730295303,446.496676L188.3297249975,440.3125715L170.07017466998298,393.421070915724Z" style="opacity: 0;"/><path data-target="point-0-11" d="M170.07017466998298,393.421070915724L188.3297249975,440.3125715L207.12486071305,440.3125715L202.95849528234996,428.9383825Z" style="opacity: 0;"/><path data-target="point-0-12" d="M0,40.321254889734355L12.113568076838789,71.78763661868214L25.9122451723711,105.51781147543022L89.05543550922332,250.2553311583077L120.56006070872903,315.32165374107296L131.139493810119,334.22801567655915L170.07017466998298,393.421070915724L202.95849528234996,428.9383825L221.80878329967598,428.9383825L222.651367700301,421.13017L13.358090696689231,0L0,0Z" style="opacity: 0;"/><path data-target="point-0-13" d="M13.358090696689231,0L222.651367700301,421.13017L238.0879413008,421.13017L239.09073415999998,414.799407L219.9529648828626,355.50161088500687L36.23684888908193,5.684341886080802e-14Z" style="opacity: 0;"/><path data-target="point-0-14" d="M219.9529648828626,355.50161088500687L239.09073415999998,414.799407L255.0452868253,414.799407L255.261274946176,405.17425749999995Z" style="opacity: 0;"/><path data-target="point-0-15" d="M36.23684888908193,5.684341886080802e-14L219.9529648828626,355.50161088500687L255.261274946176,405.17425749999995L270.70870246035,405.17425749999995L272.5248752457,396.152038L48.97628020229922,0Z" style="opacity: 0;"/><path data-target="point-0-16" d="M48.97628020229922,0L272.5248752457,396.152038L286.957596820088,396.152038L287.730061372112,393.240593L290.9838735545736,371.0333008057938L212.50772207392833,214.3755163827148L90.3093884889161,0Z" style="opacity: 0;"/><path data-target="point-0-17" d="M287.730061372112,393.240593L305.4690739147,393.240593L301.79652258280004,380.448704L290.9838735545736,371.0333008057938Z" style="opacity: 0;"/><path data-target="point-0-18" d="M212.50772207392833,214.3755163827148L290.9838735545736,371.0333008057938L301.79652258280004,380.448704L319.498348118652,380.44870399999996L323.004900026874,370.4053055Z" style="opacity: 0;"/><path data-target="point-0-19" d="M90.3093884889161,0L212.50772207392833,214.3755163827148L323.004900026874,370.4053055L335.165004641,370.4053055L339.998285522,362.268469L149.67691384455188,0Z" style="opacity: 0;"/><path data-target="point-0-20" d="M149.67691384455188,0L339.998285522,362.268469L351.428820506425,362.268469L356.37883319574996,354.9762775L198.23690156950087,0Z" style="opacity: 0;"/><path data-target="point-0-21" d="M198.23690156950087,0L356.37883319574996,354.9762775L368.042920295037,354.9762775L372.373539114036,349.210422L258.05602809753555,0Z" style="opacity: 0;"/><path data-target="point-0-22" d="M258.05602809753555,0L372.373539114036,349.210422L384.7682777834,349.210422L388.61676240139997,344.050212L287.3421336361998,0Z" style="opacity: 0;"/><path data-target="point-0-23" d="M287.3421336361998,0L388.61676240139997,344.050212L403.109166378964,344.050212L405.643677988462,341.56787899999995L367.8016370557154,207.6042734173068L301.8132698852511,23.389860142317843L292.69496690210406,-3.552713678800501e-15Z" style="opacity: 0;"/><path data-target="point-0-24" d="M367.8016370557154,207.6042734173068L405.643677988462,341.56787899999995L416.558880122877,341.56787899999995L422.76716158927496,334.26753999999994Z" style="opacity: 0;"/><path data-target="point-0-25" d="M301.8132698852511,23.389860142317843L367.8016370557154,207.6042734173068L422.76716158927496,334.26753999999994L433.75421555659995,334.26753999999994L439.8570302537,328.0617085Z" style="opacity: 0;"/><path data-target="point-0-26" d="M292.69496690210406,-3.552713678800501e-15L301.8132698852511,23.389860142317843L439.8570302537,328.0617085L450.89939683855,328.0617085L457.3435472056,322.98297549999995L312.17561118845185,0Z" style="opacity: 0;"/><path data-target="point-0-27" d="M312.17561118845185,0L457.3435472056,322.98297549999995L465.16898675402695,322.9829755L471.27423843509376,318.5212405L460.5968286312969,262.961470297365L423.54224952814155,177.1551303103691L370.883382307856,76.30381822892187L326.97272297313845,0Z" style="opacity: 0;"/><path data-target="point-0-28" d="M460.5968286312969,262.961470297365L471.27423843509376,318.5212405L481.03738356816217,318.5212405L491.2139280100304,308.556522Z" style="opacity: 0;"/><path data-target="point-0-29" d="M423.54224952814155,177.1551303103691L460.5968286312969,262.961470297365L491.2139280100304,308.556522L496.80050681261747,308.556522L508.57059131046293,298.148596Z" style="opacity: 0;"/><path data-target="point-0-30" d="M370.883382307856,76.30381822892187L423.54224952814155,177.1551303103691L508.57059131046293,298.148596L512.4760686667445,298.148596L526.0450846443733,287.277717Z" style="opacity: 0;"/><path data-target="point-0-31" d="M326.97272297313845,0L370.883382307856,76.30381822892187L526.0450846443733,287.277717L528.0541086242317,287.277717L543.5639543367319,275.98710805690723L543.6082998163797,275.8669583493073L331.27844612757247,0Z" style="opacity: 0;"/><path data-target="point-0-32" d="M331.27844612757247,0L543.6082998163797,275.8669583493073L559.6450134864562,265.2314925016879L560.5750301655464,263.0320767293866L348.70261245963826,0Z" style="opacity: 0;"/><path data-target="point-0-33" d="M348.70261245963826,0L560.5750301655464,263.0320767293866L575.6297054030828,253.9146321218337L577.6569767997579,249.69681762688532L367.16548733408524,0Z" style="opacity: 0;"/><path data-target="point-0-34" d="M367.16548733408524,0L577.6569767997579,249.69681762688532L591.5086303086125,242.01970157977757L594.8668461621858,235.8320789166231L386.81137324520193,0Z" style="opacity: 0;"/><path data-target="point-0-35" d="M386.81137324520193,0L594.8668461621858,235.8320789166231L607.2711005179823,229.52808264416024L612.2191406576309,221.40815187703532L407.79801135888715,0Z" style="opacity: 0;"/><path data-target="point-0-36" d="M407.79801135888715,0L612.2191406576309,221.40815187703532L622.9050224960196,216.4194507168321L629.7302691716893,206.39479674948524L430.3026886607646,0Z" style="opacity: 0;"/><path data-target="point-0-37" d="M430.3026886607646,0L629.7302691716893,206.39479674948524L638.3966261552246,202.67203163929574L647.418767150379,190.76089036469244L454.5196164093756,0Z" style="opacity: 0;"/><path data-target="point-0-38" d="M454.5196164093756,0L647.418767150379,190.76089036469244L653.7305313869834,188.26228708967363L665.3055550105527,174.47442861553253L480.6644293602425,0Z" style="opacity: 0;"/><path data-target="point-0-39" d="M480.6644293602425,0L665.3055550105527,174.47442861553253L668.8894228688627,173.1651514143527L683.4141032396186,157.50249380366924L508.97701019755925,0Z" style="opacity: 0;"/><path data-target="point-0-40" d="M508.97701019755925,0L683.4141032396186,157.50249380366924L683.8538809165783,157.35403104384358L699.6467651706449,141.8906768795019L700.7247998540261,138.90855823163002L539.721122286364,0Z" style="opacity: 0;"/><path data-target="point-0-41" d="M539.721122286364,0L700.7247998540261,138.90855823163002L715.430640091175,125.79918481623923L718.0703452532784,119.43990364230446L573.1892559581561,0Z" style="opacity: 0;"/><path data-target="point-0-42" d="M573.1892559581561,0L718.0703452532784,119.43990364230446L731.0378505469056,108.88987754179527L735.6228066081479,99.1909076268494L609.7045172196042,0Z" style="opacity: 0;"/><path data-target="point-0-43" d="M609.7045172196042,0L735.6228066081479,99.1909076268494L746.4487790372782,91.1347662901986L753.4073417875429,78.11947304187264L649.6232393498674,0Z" style="opacity: 0;"/><path data-target="point-0-44" d="M649.6232393498674,0L753.4073417875429,78.11947304187264L778.3249160908116,61.12519175247284L693.3389375631356,0Z" style="opacity: 0;"/><path data-target="point-0-45" d="M693.3389375631356,0L778.3249160908116,61.12519175247284L817.1565372481841,52.142264999999995L741.2862883253013,7.105427357601002e-15Z" style="opacity: 0;"/><path data-target="point-0-46" d="M741.2862883253013,7.105427357601002e-15L817.1565372481841,52.142264999999995L823,52.142264999999995L823,0Z" style="opacity: 0;"/><path data-target="point-1-0" d="M0,487.9793325L24.691145340339006,487.9793325L24.68884749014699,484.49754899999994L0,368.1449861192349Z" style="opacity: 0;"/><path data-target="point-1-1" d="M0,368.1449861192349L24.68884749014699,484.49754899999994L41.132017737053005,484.49754899999994L41.170880717099,480.928856L0,304.21463774133576Z" style="opacity: 0;"/><path data-target="point-1-2" d="M0,304.21463774133576L41.170880717099,480.928856L57.55272982,480.928856L57.66117570699999,477.642617L0,171.6341682986644Z" style="opacity: 0;"/><path data-target="point-1-3" d="M0,171.6341682986644L57.66117570699999,477.642617L74.0522184384,477.642617L74.086586859861,474.283049L0,98.22802353012571Z" style="opacity: 0;"/><path data-target="point-1-4" d="M0,98.22802353012571L74.086586859861,474.283049L90.906248096312,474.283049L90.269464545062,469.530224L0,87.48578560924682Z" style="opacity: 0;"/><path data-target="point-1-5" d="M0,87.48578560924682L90.269464545062,469.530224L107.256601292452,469.530224L106.72118317097198,465.59216849999996L12.113568076838789,71.78763661868214L0,40.321254889734355Z" style="opacity: 0;"/><path data-target="point-1-6" d="M12.113568076838789,71.78763661868214L106.72118317097198,465.59216849999996L123.70071611235,465.59216849999996L123.15761560202401,461.41511449999996L25.9122451723711,105.51781147543022Z" style="opacity: 0;"/><path data-target="point-1-7" d="M25.9122451723711,105.51781147543022L123.15761560202401,461.41511449999996L140.264139352028,461.41511449999996L139.612474710026,457.007209L89.05543550922332,250.2553311583077Z" style="opacity: 0;"/><path data-target="point-1-8" d="M89.05543550922332,250.2553311583077L139.612474710026,457.007209L156.870482310625,457.00720899999993L155.938967991175,452.417338L120.56006070872903,315.32165374107296Z" style="opacity: 0;"/><path data-target="point-1-9" d="M120.56006070872903,315.32165374107296L155.938967991175,452.417338L173.71195010897398,452.417338L171.930067529574,446.496676L131.139493810119,334.22801567655915Z" style="opacity: 0;"/><path data-target="point-1-10" d="M171.930067529574,446.496676L173.71195010897398,452.417338L206.0298100644869,543.18L225.18306276607706,543.18L190.182730295303,446.496676Z" style="opacity: 0;"/><path data-target="point-1-11" d="M188.3297249975,440.3125715L190.182730295303,446.496676L225.18306276607706,543.18L254.03857640503608,543.18L207.12486071305,440.3125715Z" style="opacity: 0;"/><path data-target="point-1-12" d="M202.95849528234996,428.9383825L207.12486071305,440.3125715L254.03857640503608,543.18L273.4197174495388,543.18L221.80878329967598,428.9383825Z" style="opacity: 0;"/><path data-target="point-1-13" d="M221.80878329967598,428.9383825L273.4197174495388,543.18L292.5819743464609,543.18L238.0879413008,421.13017L222.651367700301,421.13017Z" style="opacity: 0;"/><path data-target="point-1-14" d="M238.0879413008,421.13017L292.5819743464609,543.18L313.93346483439996,543.18L255.0452868253,414.799407L239.09073415999998,414.799407Z" style="opacity: 0;"/><path data-target="point-1-15" d="M255.0452868253,414.799407L313.93346483439996,543.18L344.122232210064,543.18L270.70870246035,405.17425749999995L255.261274946176,405.17425749999995Z" style="opacity: 0;"/><path data-target="point-1-16" d="M270.70870246035,405.17425749999995L344.122232210064,543.18L360.5127474359364,543.18L286.957596820088,396.152038L272.5248752457,396.152038Z" style="opacity: 0;"/><path data-target="point-1-17" d="M286.957596820088,396.152038L360.5127474359364,543.18L366.32947921599964,543.18L305.4690739147,393.240593L287.730061372112,393.240593Z" style="opacity: 0;"/><path data-target="point-1-18" d="M301.79652258280004,380.448704L305.4690739147,393.240593L366.32947921599964,543.18L402.84281263260027,543.18L319.498348118652,380.44870399999996Z" style="opacity: 0;"/><path data-target="point-1-19" d="M319.498348118652,380.44870399999996L402.84281263260027,543.18L415.21497399741185,543.18L335.165004641,370.4053055L323.004900026874,370.4053055Z" style="opacity: 0;"/><path data-target="point-1-20" d="M335.165004641,370.4053055L415.21497399741185,543.18L431.1293954884751,543.18L351.428820506425,362.268469L339.998285522,362.268469Z" style="opacity: 0;"/><path data-target="point-1-21" d="M351.428820506425,362.268469L431.1293954884751,543.18L431.49900973535887,543.18L419.03124008193214,491.58994233655676L368.042920295037,354.9762775L356.37883319574996,354.9762775Z" style="opacity: 0;"/><path data-target="point-1-22" d="M368.042920295037,354.9762775L419.03124008193214,491.58994233655676L404.33372482424596,408.0291102822833L384.7682777834,349.210422L372.373539114036,349.210422Z" style="opacity: 0;"/><path data-target="point-1-23" d="M384.7682777834,349.210422L404.33372482424596,408.0291102822833L403.109166378964,344.050212L388.61676240139997,344.050212Z" style="opacity: 0;"/><path data-target="point-1-24" d="M403.109166378964,344.050212L404.33372482424596,408.0291102822833L419.03124008193214,491.58994233655676L431.49900973535887,543.18L497.165882573441,543.18L474.7073032761964,470.0797822823652L474.31557196104905,469.0407760754894L416.558880122877,341.56787899999995L405.643677988462,341.56787899999995Z" style="opacity: 0;"/><path data-target="point-1-25" d="M416.558880122877,341.56787899999995L474.31557196104905,469.0407760754894L433.75421555659995,334.26753999999994L422.76716158927496,334.26753999999994Z" style="opacity: 0;"/><path data-target="point-1-26" d="M433.75421555659995,334.26753999999994L474.31557196104905,469.0407760754894L474.7073032761964,470.0797822823652L450.89939683855,328.0617085L439.8570302537,328.0617085Z" style="opacity: 0;"/><path data-target="point-1-27" d="M450.89939683855,328.0617085L474.7073032761964,470.0797822823652L497.165882573441,543.18L542.2273368089521,543.18L465.16898675402695,322.9829755L457.3435472056,322.98297549999995Z" style="opacity: 0;"/><path data-target="point-1-28" d="M465.16898675402695,322.9829755L542.2273368089521,543.18L602.1912256333736,543.18L481.03738356816217,318.5212405L471.27423843509376,318.5212405Z" style="opacity: 0;"/><path data-target="point-1-29" d="M481.03738356816217,318.5212405L602.1912256333736,543.18L628.6309918028138,543.18L496.80050681261747,308.556522L491.2139280100304,308.556522Z" style="opacity: 0;"/><path data-target="point-1-30" d="M496.80050681261747,308.556522L628.6309918028138,543.18L655.9247916012825,543.18L512.4760686667445,298.148596L508.57059131046293,298.148596Z" style="opacity: 0;"/><path data-target="point-1-31" d="M512.4760686667445,298.148596L655.9247916012825,543.18L684.1439448963857,543.18L528.0541086242317,287.277717L526.0450846443733,287.277717Z" style="opacity: 0;"/><path data-target="point-1-32" d="M528.0541086242317,287.277717L684.1439448963857,543.18L713.3714329137986,543.18L543.5639543367319,275.98710805690723Z" style="opacity: 0;"/><path data-target="point-1-33" d="M543.5639543367319,275.98710805690723L713.3714329137986,543.18L743.6908973770404,543.18L559.6450134864562,265.2314925016879L543.6082998163797,275.8669583493073Z" style="opacity: 0;"/><path data-target="point-1-34" d="M559.6450134864562,265.2314925016879L743.6908973770404,543.18L775.1952183138931,543.18L575.6297054030828,253.9146321218337L560.5750301655464,263.0320767293866Z" style="opacity: 0;"/><path data-target="point-1-35" d="M575.6297054030828,253.9146321218337L775.1952183138931,543.18L807.9874281981156,543.18L591.5086303086125,242.01970157977757L577.6569767997579,249.69681762688532Z" style="opacity: 0;"/><path data-target="point-1-36" d="M591.5086303086125,242.01970157977757L807.9874281981156,543.18L823,543.18L823,517.5730982529847L607.2711005179823,229.52808264416024L594.8668461621858,235.8320789166231Z" style="opacity: 0;"/><path data-target="point-1-37" d="M607.2711005179823,229.52808264416024L823,517.5730982529847L823,472.84475910179003L622.9050224960196,216.4194507168321L612.2191406576309,221.40815187703532Z" style="opacity: 0;"/><path data-target="point-1-38" d="M622.9050224960196,216.4194507168321L823,472.84475910179003L823,429.7287489363892L638.3966261552246,202.67203163929574L629.7302691716893,206.39479674948524Z" style="opacity: 0;"/><path data-target="point-1-39" d="M638.3966261552246,202.67203163929574L823,429.7287489363892L823,388.08455640058844L653.7305313869834,188.26228708967363L647.418767150379,190.76089036469244Z" style="opacity: 0;"/><path data-target="point-1-40" d="M653.7305313869834,188.26228708967363L823,388.08455640058844L823,347.7752753386568L668.8894228688627,173.1651514143527L665.3055550105527,174.47442861553253Z" style="opacity: 0;"/><path data-target="point-1-41" d="M668.8894228688627,173.1651514143527L823,347.7752753386568L823,308.6675896035164L683.8538809165783,157.35403104384358L683.4141032396186,157.50249380366924Z" style="opacity: 0;"/><path data-target="point-1-42" d="M683.8538809165783,157.35403104384358L823,308.6675896035164L823,270.6354878409L699.6467651706449,141.8906768795019Z" style="opacity: 0;"/><path data-target="point-1-43" d="M699.6467651706449,141.8906768795019L823,270.6354878409L823,233.55426840193644L715.430640091175,125.79918481623923L700.7247998540261,138.90855823163002Z" style="opacity: 0;"/><path data-target="point-1-44" d="M715.430640091175,125.79918481623923L823,233.55426840193644L823,197.30562619535726L731.0378505469056,108.88987754179527L718.0703452532784,119.43990364230446Z" style="opacity: 0;"/><path data-target="point-1-45" d="M731.0378505469056,108.88987754179527L823,197.30562619535726L823,161.77372525662327L746.4487790372782,91.1347662901986L735.6228066081479,99.1909076268494Z" style="opacity: 0;"/><path data-target="point-1-46" d="M746.4487790372782,91.1347662901986L823,161.77372525662327L823,52.142264999999995L817.1565372481841,52.142264999999995L778.3249160908116,61.12519175247284L753.4073417875429,78.11947304187264Z" style="opacity: 0;"/></g></g><g class="axes"><g class="y axis" fill="none" font-size="10" font-family="sans-serif" text-anchor="end" style="font-family: &quot;Source Sans Pro&quot;;"><path class="domain" stroke="#eeeeee" d="M0.5,543.68V0.5" stroke-dasharray="0" style="visibility: hidden;"/><g class="tick" opacity="1" transform="translate(0,543.68)" style="visibility: visible;"><line stroke="#eeeeee" x2="823" stroke-dasharray="0"/><text fill="rgb(0, 0, 0)" x="-3" dy="0.33em" opacity="1" text-anchor="end" font-size="14">$0</text></g><g class="tick" opacity="1" transform="translate(0, 489.36199951171875)" style="visibility: visible;"><line stroke="#eeeeee" x2="823" stroke-dasharray="0"/><text fill="rgb(0, 0, 0)" x="-3" dy="0.33em" opacity="1" text-anchor="end" font-size="14">$10,000</text></g><g class="tick" opacity="1" transform="translate(0, 435.04400634765625)" style="visibility: visible;"><line stroke="#eeeeee" x2="823" stroke-dasharray="0"/><text fill="rgb(0, 0, 0)" x="-3" dy="0.33em" opacity="1" text-anchor="end" font-size="14">$20,000</text></g><g class="tick" opacity="1" transform="translate(0, 380.72601318359375)" style="visibility: visible;"><line stroke="#eeeeee" x2="823" stroke-dasharray="0"/><text fill="rgb(0, 0, 0)" x="-3" dy="0.33em" opacity="1" text-anchor="end" font-size="14">$30,000</text></g><g class="tick" opacity="1" transform="translate(0, 326.4079895019531)" style="visibility: visible;"><line stroke="#eeeeee" x2="823" stroke-dasharray="0"/><text fill="rgb(0, 0, 0)" x="-3" dy="0.33em" opacity="1" text-anchor="end" font-size="14">$40,000</text></g><g class="tick" opacity="1" transform="translate(0, 272.0899963378906)" style="visibility: visible;"><line stroke="#eeeeee" x2="823" stroke-dasharray="0"/><text fill="rgb(0, 0, 0)" x="-3" dy="0.33em" opacity="1" text-anchor="end" font-size="14">$50,000</text></g><g class="tick" opacity="1" transform="translate(0, 217.77200317382812)" style="visibility: visible;"><line stroke="#eeeeee" x2="823" stroke-dasharray="0"/><text fill="rgb(0, 0, 0)" x="-3" dy="0.33em" opacity="1" text-anchor="end" font-size="14">$60,000</text></g><g class="tick" opacity="1" transform="translate(0, 163.45399475097656)" style="visibility: visible;"><line stroke="#eeeeee" x2="823" stroke-dasharray="0"/><text fill="rgb(0, 0, 0)" x="-3" dy="0.33em" opacity="1" text-anchor="end" font-size="14">$70,000</text></g><g class="tick" opacity="1" transform="translate(0, 109.13600158691406)" style="visibility: visible;"><line stroke="#eeeeee" x2="823" stroke-dasharray="0"/><text fill="rgb(0, 0, 0)" x="-3" dy="0.33em" opacity="1" text-anchor="end" font-size="14">$80,000</text></g><g class="tick" opacity="1" transform="translate(0, 54.81800079345703)" style="visibility: visible;"><line stroke="#eeeeee" x2="823" stroke-dasharray="0"/><text fill="rgb(0, 0, 0)" x="-3" dy="0.33em" opacity="1" text-anchor="end" font-size="14">$90,000</text></g><g class="tick" opacity="1" transform="translate(0, 0.5)" style="visibility: visible;"><line stroke="#eeeeee" x2="823" stroke-dasharray="0"/><text fill="rgb(0, 0, 0)" x="-3" dy="0.33em" opacity="1" text-anchor="end" font-size="14">$100,000</text></g></g><g class="x axis" transform="translate(0,543.18)" fill="none" font-size="10" font-family="sans-serif" text-anchor="middle" style="font-family: &quot;Source Sans Pro&quot;;"><path class="domain" stroke="#eeeeee" d="M0.5,0.5H823.5" stroke-dasharray="0"/><g class="tick" opacity="1" transform="translate(0.5,0)"><line stroke="#eeeeee" y2="6" stroke-dasharray="0"/><text fill="rgb(0, 0, 0)" y="9" dy="-9" opacity="1" dominant-baseline="central" font-size="16" transform="translate(0, 15) rotate(-45)" dx="5" style="text-anchor: end; visibility: visible;">1990</text></g><g class="tick" opacity="1" transform="translate(82.80000000000001,0)"><line stroke="#eeeeee" y2="6" stroke-dasharray="0"/><text fill="rgb(0, 0, 0)" y="9" dy="-9" opacity="1" dominant-baseline="central" font-size="16" transform="translate(0, 15) rotate(-45)" dx="5" style="text-anchor: end; visibility: visible;">1995</text></g><g class="tick" opacity="1" transform="translate(165.10000000000002,0)"><line stroke="#eeeeee" y2="6" stroke-dasharray="0"/><text fill="rgb(0, 0, 0)" y="9" dy="-9" opacity="1" dominant-baseline="central" font-size="16" transform="translate(0, 15) rotate(-45)" dx="5" style="text-anchor: end; visibility: visible;">2000</text></g><g class="tick" opacity="1" transform="translate(247.39999999999998,0)"><line stroke="#eeeeee" y2="6" stroke-dasharray="0"/><text fill="rgb(0, 0, 0)" y="9" dy="-9" opacity="1" dominant-baseline="central" font-size="16" transform="translate(0, 15) rotate(-45)" dx="5" style="text-anchor: end; visibility: visible;">2005</text></g><g class="tick" opacity="1" transform="translate(329.70000000000005,0)"><line stroke="#eeeeee" y2="6" stroke-dasharray="0"/><text fill="rgb(0, 0, 0)" y="9" dy="-9" opacity="1" dominant-baseline="central" font-size="16" transform="translate(0, 15) rotate(-45)" dx="5" style="text-anchor: end; visibility: visible;">2010</text></g><g class="tick" opacity="1" transform="translate(412,0)"><line stroke="#eeeeee" y2="6" stroke-dasharray="0"/><text fill="rgb(0, 0, 0)" y="9" dy="-9" opacity="1" dominant-baseline="central" font-size="16" transform="translate(0, 15) rotate(-45)" dx="5" style="text-anchor: end; visibility: visible;">2015</text></g><g class="tick" opacity="1" transform="translate(494.29999999999995,0)"><line stroke="#eeeeee" y2="6" stroke-dasharray="0"/><text fill="rgb(0, 0, 0)" y="9" dy="-9" opacity="1" dominant-baseline="central" font-size="16" transform="translate(0, 15) rotate(-45)" dx="5" style="text-anchor: end; visibility: visible;">2020</text></g><g class="tick" opacity="1" transform="translate(576.5999999999999,0)"><line stroke="#eeeeee" y2="6" stroke-dasharray="0"/><text fill="rgb(0, 0, 0)" y="9" dy="-9" opacity="1" dominant-baseline="central" font-size="16" transform="translate(0, 15) rotate(-45)" dx="5" style="text-anchor: end; visibility: visible;">2025</text></g><g class="tick" opacity="1" transform="translate(658.9000000000001,0)"><line stroke="#eeeeee" y2="6" stroke-dasharray="0"/><text fill="rgb(0, 0, 0)" y="9" dy="-9" opacity="1" dominant-baseline="central" font-size="16" transform="translate(0, 15) rotate(-45)" dx="5" style="text-anchor: end; visibility: visible;">2030</text></g><g class="tick" opacity="1" transform="translate(741.2,0)"><line stroke="#eeeeee" y2="6" stroke-dasharray="0"/><text fill="rgb(0, 0, 0)" y="9" dy="-9" opacity="1" dominant-baseline="central" font-size="16" transform="translate(0, 15) rotate(-45)" dx="5" style="text-anchor: end; visibility: visible;">2035</text></g><g class="tick" opacity="1" transform="translate(823.5,0)"><line stroke="#eeeeee" y2="6" stroke-dasharray="0"/><text fill="rgb(0, 0, 0)" y="9" dy="-9" opacity="1" dominant-baseline="central" font-size="16" transform="translate(0, 15) rotate(-45)" dx="5" style="text-anchor: end; visibility: visible;">2040</text></g></g></g></g></g></g><g class="annotations below"><g class="axis-highlights" transform="translate(50, 10)" style="opacity: 1;"><g class="line x" transform="translate(477.34, 0)"><line width="0" stroke-dasharray="2 2" stroke="#333333" stroke-width="2" y2="543.18"/><text transform="translate(0, 6) rotate(-90)" fill="#333333" text-anchor="end" dy="-0.5em" font-size="12">Current</text></g></g></g><g id="areas"><g class="series" pointer-events="none"><path class="area" transform="translate(50,10)" fill-opacity="0" fill="rgb(17, 165, 121)" clip-path="url(#clip-0-0)" d="M16.46,489.70936079999996C21.94666666666667,488.53835524999994,27.433333333333334,487.3673496999999,32.92,486.23844059999993C38.406666666666666,485.10953149999995,43.89333333333333,484.06481529999996,49.379999999999995,482.9359062C54.86666666666667,481.8069971,60.35333333333333,480.6228647,65.84,479.46498599999995C71.32666666666667,478.3071072999999,76.81333333333335,477.5041061999999,82.30000000000001,475.98863399999993C87.78666666666668,474.47316179999996,93.27333333333333,471.96185959999997,98.75999999999999,470.3721528C104.24666666666667,468.782446,109.73333333333333,467.74678279999995,115.22000000000001,466.45039319999995C120.70666666666668,465.15400359999995,126.19333333333334,464.0350528,131.68,462.5938152C137.16666666666666,461.15257760000003,142.65333333333334,459.4234546,148.14,457.8029676C153.62666666666667,456.18248059999996,159.11333333333334,454.84082599999994,164.60000000000002,452.87089319999995C170.08666666666667,450.9009604,175.57333333333335,448.1995452,181.06,445.9833708C186.54666666666665,443.7671964,192.03333333333333,443.18237259999995,197.51999999999998,439.57384679999996C203.00666666666666,435.96532099999996,208.49333333333334,428.23586959999994,213.98000000000002,424.33221599999996C219.4666666666667,420.4285624,224.95333333333335,418.4006903999999,230.44000000000003,416.15192519999994C235.92666666666668,413.90315999999996,241.41333333333333,413.6750243999999,246.89999999999998,410.83962479999997C252.38666666666666,408.00422519999995,257.87333333333333,402.63760679999996,263.36,399.13952759999995C268.8466666666667,395.64144839999994,274.3333333333333,389.8511496,279.82,389.8511496C285.3066666666667,389.8511496,290.7933333333333,392.2628688,296.28,392.2628688C301.76666666666665,392.2628688,307.25333333333333,378.4534226,312.74,373.3602048C318.2266666666667,368.26698700000003,323.71333333333337,365.08757339999994,329.20000000000005,361.7035619999999C334.68666666666667,358.3195505999999,340.17333333333335,355.71952899999997,345.65999999999997,353.05613639999996C351.14666666666665,350.39274379999995,356.6333333333333,347.843419,362.12,345.7232064C367.6066666666667,343.6029938,373.09333333333336,342.04044600000003,378.58000000000004,340.3348608C384.06666666666666,338.6292756,389.55333333333334,337.07215959999996,395.03999999999996,335.48969519999997C400.52666666666664,333.9072308,406.0133333333333,332.8054806999999,411.5,330.84007439999993C416.9866666666667,328.87466809999995,422.47333333333336,326.1307038,427.96000000000004,323.6972574C433.4466666666667,321.26381100000003,438.93333333333334,318.71539149999995,444.42,316.23939599999994C449.9066666666667,313.76340049999993,455.3933333333334,310.6015135079999,460.88000000000005,308.84128439999995C466.3666666666667,307.081055292,471.85333333333335,307.78686338399996,477.34,305.678021352C482.82666666666665,303.56917932,488.3133333333333,298.395154442,493.79999999999995,294.625123122C499.28666666666663,290.855091802,504.7733333333333,287.00331189199994,510.26,283.05783343199994C515.7466666666667,279.11235497199993,521.2333333333333,275.0813437679999,526.72,270.9522523619999C532.2066666666667,266.8231609559999,537.6933333333334,262.60453537999996,543.1800000000001,258.28328499599996C548.6666666666667,253.962034612,554.1533333333333,249.547103784,559.64,245.024750058C565.1266666666667,240.502396332,570.6133333333332,235.88198050999998,576.0999999999999,231.14916264C581.5866666666666,226.41634476999997,587.0733333333333,221.580920198,592.56,216.627842838C598.0466666666666,211.67476547799998,603.5333333333333,206.61428332599993,609.02,201.43069847999993C614.5066666666667,196.24711363399993,619.9933333333333,190.9511448459999,625.48,185.52633376199992C630.9666666666667,180.10152267799995,636.4533333333334,174.55910407100004,641.94,168.88183197600006C647.4266666666667,163.20455988100008,652.9133333333334,157.40418509200003,658.4000000000001,151.462701192C663.8866666666668,145.52121729200002,669.3733333333333,139.450918255,674.86,133.232928576C680.3466666666667,127.014938897,685.8333333333333,120.66213194199992,691.3199999999999,114.15476311799995C696.8066666666666,107.64739429399992,702.2933333333333,100.99892541200002,707.78,94.18871563200003C713.2666666666667,87.37850585200003,718.7533333333333,80.42064164200002,724.24,73.29350443800001C729.7266666666667,66.166367234,735.2133333333334,58.88471342599998,740.7,51.42589240799998C746.1866666666667,43.96707138999998,751.6733333333334,36.34651852700005,757.1600000000001,28.540578330000017C762.6466666666668,20.73463813300004,768.1333333333333,12.662444679500005,773.62,4.590251225999964L773.62,4.590251225999964C768.1333333333333,12.662444679500005,762.6466666666668,20.73463813300004,757.1600000000001,28.540578330000017C751.6733333333334,36.34651852700005,746.1866666666667,43.96707138999998,740.7,51.42589240799998C735.2133333333334,58.88471342599998,729.7266666666667,66.166367234,724.24,73.29350443800001C718.7533333333333,80.42064164200002,713.2666666666667,87.37850585200003,707.78,94.18871563200003C702.2933333333333,100.99892541200002,696.8066666666666,107.64739429399992,691.3199999999999,114.15476311799995C685.8333333333333,120.66213194199992,680.3466666666667,127.014938897,674.86,133.232928576C669.3733333333333,139.450918255,663.8866666666668,145.52121729200002,658.4000000000001,151.462701192C652.9133333333334,157.40418509200003,647.4266666666667,163.20455988100008,641.94,168.88183197600006C636.4533333333334,174.55910407100004,630.9666666666667,180.10152267799995,625.48,185.52633376199992C619.9933333333333,190.9511448459999,614.5066666666667,196.24711363399993,609.02,201.43069847999993C603.5333333333333,206.61428332599993,598.0466666666666,211.67476547799998,592.56,216.627842838C587.0733333333333,221.580920198,581.5866666666666,226.41634476999997,576.0999999999999,231.14916264C570.6133333333332,235.88198050999998,565.1266666666667,240.502396332,559.64,245.024750058C554.1533333333333,249.547103784,548.6666666666667,253.962034612,543.1800000000001,258.28328499599996C537.6933333333334,262.60453537999996,532.2066666666667,266.8231609559999,526.72,270.9522523619999C521.2333333333333,275.0813437679999,515.7466666666667,279.11235497199993,510.26,283.05783343199994C504.7733333333333,287.00331189199994,499.28666666666663,290.855091802,493.79999999999995,294.625123122C488.3133333333333,298.395154442,482.82666666666665,303.56917932,477.34,305.678021352C471.85333333333335,307.78686338399996,466.3666666666667,307.081055292,460.88000000000005,308.84128439999995C455.3933333333334,310.6015135079999,449.9066666666667,313.76340049999993,444.42,316.23939599999994C438.93333333333334,318.71539149999995,433.4466666666667,321.26381100000003,427.96000000000004,323.6972574C422.47333333333336,326.1307038,416.9866666666667,328.87466809999995,411.5,330.84007439999993C406.0133333333333,332.8054806999999,400.52666666666664,333.9072308,395.03999999999996,335.48969519999997C389.55333333333334,337.07215959999996,384.06666666666666,338.6292756,378.58000000000004,340.3348608C373.09333333333336,342.04044600000003,367.6066666666667,343.6029938,362.12,345.7232064C356.6333333333333,347.843419,351.14666666666665,350.39274379999995,345.65999999999997,353.05613639999996C340.17333333333335,355.71952899999997,334.68666666666667,358.3195505999999,329.20000000000005,361.7035619999999C323.71333333333337,365.08757339999994,318.2266666666667,368.26698700000003,312.74,373.3602048C307.25333333333333,378.4534226,301.76666666666665,392.2628688,296.28,392.2628688C290.7933333333333,392.2628688,285.3066666666667,389.8511496,279.82,389.8511496C274.3333333333333,389.8511496,268.8466666666667,395.64144839999994,263.36,399.13952759999995C257.87333333333333,402.63760679999996,252.38666666666666,408.00422519999995,246.89999999999998,410.83962479999997C241.41333333333333,413.6750243999999,235.92666666666668,413.90315999999996,230.44000000000003,416.15192519999994C224.95333333333335,418.4006903999999,219.4666666666667,420.4285624,213.98000000000002,424.33221599999996C208.49333333333334,428.23586959999994,203.00666666666666,435.96532099999996,197.51999999999998,439.57384679999996C192.03333333333333,443.18237259999995,186.54666666666665,443.7671964,181.06,445.9833708C175.57333333333335,448.1995452,170.08666666666667,450.9009604,164.60000000000002,452.87089319999995C159.11333333333334,454.84082599999994,153.62666666666667,456.18248059999996,148.14,457.8029676C142.65333333333334,459.4234546,137.16666666666666,461.15257760000003,131.68,462.5938152C126.19333333333334,464.0350528,120.70666666666668,465.15400359999995,115.22000000000001,466.45039319999995C109.73333333333333,467.74678279999995,104.24666666666667,468.782446,98.75999999999999,470.3721528C93.27333333333333,471.96185959999997,87.78666666666668,474.47316179999996,82.30000000000001,475.98863399999993C76.81333333333335,477.5041061999999,71.32666666666667,478.3071072999999,65.84,479.46498599999995C60.35333333333333,480.6228647,54.86666666666667,481.8069971,49.379999999999995,482.9359062C43.89333333333333,484.06481529999996,38.406666666666666,485.10953149999995,32.92,486.23844059999993C27.433333333333334,487.3673496999999,21.94666666666667,488.53835524999994,16.46,489.70936079999996Z"/></g><g class="series" pointer-events="none"><path class="area" transform="translate(50,10)" fill-opacity="0" fill="rgb(204, 80, 62)" clip-path="url(#clip-0-1)" d="M16.46,486.2493042C21.94666666666667,485.11360535,27.433333333333334,483.97790649999996,32.92,482.7566568C38.406666666666666,481.5354071,43.89333333333333,480.0778741,49.379999999999995,478.92180599999995C54.86666666666667,477.7657378999999,60.35333333333333,476.8776385999999,65.84,475.8202481999999C71.32666666666667,474.76285779999995,76.81333333333335,473.76612249999994,82.30000000000001,472.57746359999993C87.78666666666668,471.3888046999999,93.27333333333333,469.9955479999999,98.75999999999999,468.68829479999994C104.24666666666667,467.38104159999995,109.73333333333333,466.1425911999999,115.22000000000001,464.7339443999999C120.70666666666668,463.32529759999994,126.19333333333334,461.65682969999995,131.68,460.23641399999997C137.16666666666666,458.8159983,142.65333333333334,457.59022209999995,148.14,456.21145019999994C153.62666666666667,454.83267829999994,159.11333333333334,453.49736079999997,164.60000000000002,451.96378259999994C170.08666666666667,450.4302043999999,175.57333333333335,448.82872869999994,181.06,447.0099809999999C186.54666666666665,445.1912332999999,192.03333333333333,443.29553509999994,197.51999999999998,441.05129639999996C203.00666666666666,438.8070577,208.49333333333334,436.0350291,213.98000000000002,433.5445488C219.4666666666667,431.05406849999997,224.95333333333335,428.57264119999996,230.44000000000003,426.10841459999995C235.92666666666668,423.64418799999993,241.41333333333333,421.24242709999993,246.89999999999998,418.7591891999999C252.38666666666666,416.2759512999999,257.87333333333333,413.92669779999994,263.36,411.20898719999997C268.8466666666667,408.4912766,274.3333333333333,405.284704,279.82,402.45292559999996C285.3066666666667,399.62114719999994,290.7933333333333,396.7042706,296.28,394.21831679999997C301.76666666666665,391.73236299999996,307.25333333333333,390.0557473999999,312.74,387.53720279999993C318.2266666666667,385.01865819999995,323.71333333333337,381.783116,329.20000000000005,379.1070492C334.68666666666667,376.4309824,340.17333333333335,373.9604187,345.65999999999997,371.480802C351.14666666666665,369.0011853,356.6333333333333,366.46181879999995,362.12,364.22934899999996C367.6066666666667,361.99687919999997,373.09333333333336,360.0224199,378.58000000000004,358.0859832C384.06666666666666,356.1495465,389.55333333333334,352.82075839999993,395.03999999999996,352.61072879999995C400.52666666666664,352.40069919999996,406.0133333333333,352.50571399999995,411.5,352.29568439999997C416.9866666666667,352.0856548,422.47333333333336,346.9064335,427.96000000000004,344.83782299999996C433.4466666666667,342.7692125,438.93333333333334,341.16954739999994,444.42,339.88402139999994C449.9066666666667,338.59849539999993,455.3933333333334,338.5445938379999,460.88000000000005,337.12466699999993C466.3666666666667,335.70474016199995,471.85333333333335,333.80391796399994,477.34,331.36446037199994C482.82666666666665,328.92500277999994,488.3133333333333,325.50877175299996,493.79999999999995,322.48792144799995C499.28666666666663,319.46707114299994,504.7733333333333,316.386815052,510.26,313.239358542C515.7466666666667,310.091902032,521.2333333333333,306.882532055,526.72,303.603182388C532.2066666666667,300.323832721,537.6933333333334,296.980034747,543.1800000000001,293.56326054C548.6666666666667,290.146486333,554.1533333333333,286.66251170699996,559.64,283.102537146C565.1266666666667,279.542562585,570.6133333333332,275.912572122,576.0999999999999,272.203413174C581.5866666666666,268.49425422599995,587.0733333333333,264.712173363,592.56,260.847583458C598.0466666666666,256.982993553,603.5333333333333,253.04242181899997,609.02,249.01587374399998C614.5066666666667,244.98932566899998,619.9933333333333,240.88358194999995,625.48,236.68829500799995C630.9666666666667,232.49300806599996,636.4533333333334,228.215248294,641.94,223.844152092C647.4266666666667,219.47305589,652.9133333333334,215.01600145299997,658.4000000000001,210.46171779599996C663.8866666666668,205.90743413899997,669.3733333333333,201.26358915299997,674.86,196.51845014999998C680.3466666666667,191.773311147,685.8333333333333,186.93488097899998,691.3199999999999,181.990883778C696.8066666666666,177.046886577,702.2933333333333,172.00565110300005,707.78,166.85446694400002C713.2666666666667,161.703282785,718.7533333333333,156.45083176799992,724.24,151.08377882399992C729.7266666666667,145.71672587999993,735.2133333333334,140.244124009,740.7,134.65214928C746.1866666666667,129.06017455100002,751.6733333333334,123.35824208400003,757.1600000000001,117.53193045C762.6466666666668,111.70561881600003,768.1333333333333,105.69994914600002,773.62,99.69427947600002L773.62,99.69427947600002C768.1333333333333,105.69994914600002,762.6466666666668,111.70561881600003,757.1600000000001,117.53193045C751.6733333333334,123.35824208400003,746.1866666666667,129.06017455100002,740.7,134.65214928C735.2133333333334,140.244124009,729.7266666666667,145.71672587999993,724.24,151.08377882399992C718.7533333333333,156.45083176799992,713.2666666666667,161.703282785,707.78,166.85446694400002C702.2933333333333,172.00565110300005,696.8066666666666,177.046886577,691.3199999999999,181.990883778C685.8333333333333,186.93488097899998,680.3466666666667,191.773311147,674.86,196.51845014999998C669.3733333333333,201.26358915299997,663.8866666666668,205.90743413899997,658.4000000000001,210.46171779599996C652.9133333333334,215.01600145299997,647.4266666666667,219.47305589,641.94,223.844152092C636.4533333333334,228.215248294,630.9666666666667,232.49300806599996,625.48,236.68829500799995C619.9933333333333,240.88358194999995,614.5066666666667,244.98932566899998,609.02,249.01587374399998C603.5333333333333,253.04242181899997,598.0466666666666,256.982993553,592.56,260.847583458C587.0733333333333,264.712173363,581.5866666666666,268.49425422599995,576.0999999999999,272.203413174C570.6133333333332,275.912572122,565.1266666666667,279.542562585,559.64,283.102537146C554.1533333333333,286.66251170699996,548.6666666666667,290.146486333,543.1800000000001,293.56326054C537.6933333333334,296.980034747,532.2066666666667,300.323832721,526.72,303.603182388C521.2333333333333,306.882532055,515.7466666666667,310.091902032,510.26,313.239358542C504.7733333333333,316.386815052,499.28666666666663,319.46707114299994,493.79999999999995,322.48792144799995C488.3133333333333,325.50877175299996,482.82666666666665,328.92500277999994,477.34,331.36446037199994C471.85333333333335,333.80391796399994,466.3666666666667,335.70474016199995,460.88000000000005,337.12466699999993C455.3933333333334,338.5445938379999,449.9066666666667,338.59849539999993,444.42,339.88402139999994C438.93333333333334,341.16954739999994,433.4466666666667,342.7692125,427.96000000000004,344.83782299999996C422.47333333333336,346.9064335,416.9866666666667,352.0856548,411.5,352.29568439999997C406.0133333333333,352.50571399999995,400.52666666666664,352.40069919999996,395.03999999999996,352.61072879999995C389.55333333333334,352.82075839999993,384.06666666666666,356.1495465,378.58000000000004,358.0859832C373.09333333333336,360.0224199,367.6066666666667,361.99687919999997,362.12,364.22934899999996C356.6333333333333,366.46181879999995,351.14666666666665,369.0011853,345.65999999999997,371.480802C340.17333333333335,373.9604187,334.68666666666667,376.4309824,329.20000000000005,379.1070492C323.71333333333337,381.783116,318.2266666666667,385.01865819999995,312.74,387.53720279999993C307.25333333333333,390.0557473999999,301.76666666666665,391.73236299999996,296.28,394.21831679999997C290.7933333333333,396.7042706,285.3066666666667,399.62114719999994,279.82,402.45292559999996C274.3333333333333,405.284704,268.8466666666667,408.4912766,263.36,411.20898719999997C257.87333333333333,413.92669779999994,252.38666666666666,416.2759512999999,246.89999999999998,418.7591891999999C241.41333333333333,421.24242709999993,235.92666666666668,423.64418799999993,230.44000000000003,426.10841459999995C224.95333333333335,428.57264119999996,219.4666666666667,431.05406849999997,213.98000000000002,433.5445488C208.49333333333334,436.0350291,203.00666666666666,438.8070577,197.51999999999998,441.05129639999996C192.03333333333333,443.29553509999994,186.54666666666665,445.1912332999999,181.06,447.0099809999999C175.57333333333335,448.82872869999994,170.08666666666667,450.4302043999999,164.60000000000002,451.96378259999994C159.11333333333334,453.49736079999997,153.62666666666667,454.83267829999994,148.14,456.21145019999994C142.65333333333334,457.59022209999995,137.16666666666666,458.8159983,131.68,460.23641399999997C126.19333333333334,461.65682969999995,120.70666666666668,463.32529759999994,115.22000000000001,464.7339443999999C109.73333333333333,466.1425911999999,104.24666666666667,467.38104159999995,98.75999999999999,468.68829479999994C93.27333333333333,469.9955479999999,87.78666666666668,471.3888046999999,82.30000000000001,472.57746359999993C76.81333333333335,473.76612249999994,71.32666666666667,474.76285779999995,65.84,475.8202481999999C60.35333333333333,476.8776385999999,54.86666666666667,477.7657378999999,49.379999999999995,478.92180599999995C43.89333333333333,480.0778741,38.406666666666666,481.5354071,32.92,482.7566568C27.433333333333334,483.97790649999996,21.94666666666667,485.11360535,16.46,486.2493042Z"/></g></g><g id="lines"><g class="series"><clipPath id="clip-0-0"><rect width="823" y="-10" height="563.18"/></clipPath><path class="line" opacity="1" fill="none" stroke="rgb(17, 165, 121)" stroke-width="2" transform="translate(50,10)" clip-path="url(#clip-0-0)" d="M16.46,489.70936079999996C21.94666666666667,488.53835524999994,27.433333333333334,487.3673496999999,32.92,486.23844059999993C38.406666666666666,485.10953149999995,43.89333333333333,484.06481529999996,49.379999999999995,482.9359062C54.86666666666667,481.8069971,60.35333333333333,480.6228647,65.84,479.46498599999995C71.32666666666667,478.3071072999999,76.81333333333335,477.5041061999999,82.30000000000001,475.98863399999993C87.78666666666668,474.47316179999996,93.27333333333333,471.96185959999997,98.75999999999999,470.3721528C104.24666666666667,468.782446,109.73333333333333,467.74678279999995,115.22000000000001,466.45039319999995C120.70666666666668,465.15400359999995,126.19333333333334,464.0350528,131.68,462.5938152C137.16666666666666,461.15257760000003,142.65333333333334,459.4234546,148.14,457.8029676C153.62666666666667,456.18248059999996,159.11333333333334,454.84082599999994,164.60000000000002,452.87089319999995C170.08666666666667,450.9009604,175.57333333333335,448.1995452,181.06,445.9833708C186.54666666666665,443.7671964,192.03333333333333,443.18237259999995,197.51999999999998,439.57384679999996C203.00666666666666,435.96532099999996,208.49333333333334,428.23586959999994,213.98000000000002,424.33221599999996C219.4666666666667,420.4285624,224.95333333333335,418.4006903999999,230.44000000000003,416.15192519999994C235.92666666666668,413.90315999999996,241.41333333333333,413.6750243999999,246.89999999999998,410.83962479999997C252.38666666666666,408.00422519999995,257.87333333333333,402.63760679999996,263.36,399.13952759999995C268.8466666666667,395.64144839999994,274.3333333333333,389.8511496,279.82,389.8511496C285.3066666666667,389.8511496,290.7933333333333,392.2628688,296.28,392.2628688C301.76666666666665,392.2628688,307.25333333333333,378.4534226,312.74,373.3602048C318.2266666666667,368.26698700000003,323.71333333333337,365.08757339999994,329.20000000000005,361.7035619999999C334.68666666666667,358.3195505999999,340.17333333333335,355.71952899999997,345.65999999999997,353.05613639999996C351.14666666666665,350.39274379999995,356.6333333333333,347.843419,362.12,345.7232064C367.6066666666667,343.6029938,373.09333333333336,342.04044600000003,378.58000000000004,340.3348608C384.06666666666666,338.6292756,389.55333333333334,337.07215959999996,395.03999999999996,335.48969519999997C400.52666666666664,333.9072308,406.0133333333333,332.8054806999999,411.5,330.84007439999993C416.9866666666667,328.87466809999995,422.47333333333336,326.1307038,427.96000000000004,323.6972574C433.4466666666667,321.26381100000003,438.93333333333334,318.71539149999995,444.42,316.23939599999994C449.9066666666667,313.76340049999993,455.3933333333334,310.6015135079999,460.88000000000005,308.84128439999995C466.3666666666667,307.081055292,471.85333333333335,307.78686338399996,477.34,305.678021352C482.82666666666665,303.56917932,488.3133333333333,298.395154442,493.79999999999995,294.625123122C499.28666666666663,290.855091802,504.7733333333333,287.00331189199994,510.26,283.05783343199994C515.7466666666667,279.11235497199993,521.2333333333333,275.0813437679999,526.72,270.9522523619999C532.2066666666667,266.8231609559999,537.6933333333334,262.60453537999996,543.1800000000001,258.28328499599996C548.6666666666667,253.962034612,554.1533333333333,249.547103784,559.64,245.024750058C565.1266666666667,240.502396332,570.6133333333332,235.88198050999998,576.0999999999999,231.14916264C581.5866666666666,226.41634476999997,587.0733333333333,221.580920198,592.56,216.627842838C598.0466666666666,211.67476547799998,603.5333333333333,206.61428332599993,609.02,201.43069847999993C614.5066666666667,196.24711363399993,619.9933333333333,190.9511448459999,625.48,185.52633376199992C630.9666666666667,180.10152267799995,636.4533333333334,174.55910407100004,641.94,168.88183197600006C647.4266666666667,163.20455988100008,652.9133333333334,157.40418509200003,658.4000000000001,151.462701192C663.8866666666668,145.52121729200002,669.3733333333333,139.450918255,674.86,133.232928576C680.3466666666667,127.014938897,685.8333333333333,120.66213194199992,691.3199999999999,114.15476311799995C696.8066666666666,107.64739429399992,702.2933333333333,100.99892541200002,707.78,94.18871563200003C713.2666666666667,87.37850585200003,718.7533333333333,80.42064164200002,724.24,73.29350443800001C729.7266666666667,66.166367234,735.2133333333334,58.88471342599998,740.7,51.42589240799998C746.1866666666667,43.96707138999998,751.6733333333334,36.34651852700005,757.1600000000001,28.540578330000017C762.6466666666668,20.73463813300004,768.1333333333333,12.662444679500005,773.62,4.590251225999964"/><text class="label" font-size="11" alignment-baseline="middle" opacity="1" x="5" fill="rgb(17, 165, 121)" transform="translate(823.6199951171875, 14.590250968933105)"/></g><g class="series"><clipPath id="clip-0-1"><rect width="823" y="-10" height="563.18"/></clipPath><path class="line" opacity="1" fill="none" stroke="rgb(204, 80, 62)" stroke-width="2" transform="translate(50,10)" clip-path="url(#clip-0-1)" d="M16.46,486.2493042C21.94666666666667,485.11360535,27.433333333333334,483.97790649999996,32.92,482.7566568C38.406666666666666,481.5354071,43.89333333333333,480.0778741,49.379999999999995,478.92180599999995C54.86666666666667,477.7657378999999,60.35333333333333,476.8776385999999,65.84,475.8202481999999C71.32666666666667,474.76285779999995,76.81333333333335,473.76612249999994,82.30000000000001,472.57746359999993C87.78666666666668,471.3888046999999,93.27333333333333,469.9955479999999,98.75999999999999,468.68829479999994C104.24666666666667,467.38104159999995,109.73333333333333,466.1425911999999,115.22000000000001,464.7339443999999C120.70666666666668,463.32529759999994,126.19333333333334,461.65682969999995,131.68,460.23641399999997C137.16666666666666,458.8159983,142.65333333333334,457.59022209999995,148.14,456.21145019999994C153.62666666666667,454.83267829999994,159.11333333333334,453.49736079999997,164.60000000000002,451.96378259999994C170.08666666666667,450.4302043999999,175.57333333333335,448.82872869999994,181.06,447.0099809999999C186.54666666666665,445.1912332999999,192.03333333333333,443.29553509999994,197.51999999999998,441.05129639999996C203.00666666666666,438.8070577,208.49333333333334,436.0350291,213.98000000000002,433.5445488C219.4666666666667,431.05406849999997,224.95333333333335,428.57264119999996,230.44000000000003,426.10841459999995C235.92666666666668,423.64418799999993,241.41333333333333,421.24242709999993,246.89999999999998,418.7591891999999C252.38666666666666,416.2759512999999,257.87333333333333,413.92669779999994,263.36,411.20898719999997C268.8466666666667,408.4912766,274.3333333333333,405.284704,279.82,402.45292559999996C285.3066666666667,399.62114719999994,290.7933333333333,396.7042706,296.28,394.21831679999997C301.76666666666665,391.73236299999996,307.25333333333333,390.0557473999999,312.74,387.53720279999993C318.2266666666667,385.01865819999995,323.71333333333337,381.783116,329.20000000000005,379.1070492C334.68666666666667,376.4309824,340.17333333333335,373.9604187,345.65999999999997,371.480802C351.14666666666665,369.0011853,356.6333333333333,366.46181879999995,362.12,364.22934899999996C367.6066666666667,361.99687919999997,373.09333333333336,360.0224199,378.58000000000004,358.0859832C384.06666666666666,356.1495465,389.55333333333334,352.82075839999993,395.03999999999996,352.61072879999995C400.52666666666664,352.40069919999996,406.0133333333333,352.50571399999995,411.5,352.29568439999997C416.9866666666667,352.0856548,422.47333333333336,346.9064335,427.96000000000004,344.83782299999996C433.4466666666667,342.7692125,438.93333333333334,341.16954739999994,444.42,339.88402139999994C449.9066666666667,338.59849539999993,455.3933333333334,338.5445938379999,460.88000000000005,337.12466699999993C466.3666666666667,335.70474016199995,471.85333333333335,333.80391796399994,477.34,331.36446037199994C482.82666666666665,328.92500277999994,488.3133333333333,325.50877175299996,493.79999999999995,322.48792144799995C499.28666666666663,319.46707114299994,504.7733333333333,316.386815052,510.26,313.239358542C515.7466666666667,310.091902032,521.2333333333333,306.882532055,526.72,303.603182388C532.2066666666667,300.323832721,537.6933333333334,296.980034747,543.1800000000001,293.56326054C548.6666666666667,290.146486333,554.1533333333333,286.66251170699996,559.64,283.102537146C565.1266666666667,279.542562585,570.6133333333332,275.912572122,576.0999999999999,272.203413174C581.5866666666666,268.49425422599995,587.0733333333333,264.712173363,592.56,260.847583458C598.0466666666666,256.982993553,603.5333333333333,253.04242181899997,609.02,249.01587374399998C614.5066666666667,244.98932566899998,619.9933333333333,240.88358194999995,625.48,236.68829500799995C630.9666666666667,232.49300806599996,636.4533333333334,228.215248294,641.94,223.844152092C647.4266666666667,219.47305589,652.9133333333334,215.01600145299997,658.4000000000001,210.46171779599996C663.8866666666668,205.90743413899997,669.3733333333333,201.26358915299997,674.86,196.51845014999998C680.3466666666667,191.773311147,685.8333333333333,186.93488097899998,691.3199999999999,181.990883778C696.8066666666666,177.046886577,702.2933333333333,172.00565110300005,707.78,166.85446694400002C713.2666666666667,161.703282785,718.7533333333333,156.45083176799992,724.24,151.08377882399992C729.7266666666667,145.71672587999993,735.2133333333334,140.244124009,740.7,134.65214928C746.1866666666667,129.06017455100002,751.6733333333334,123.35824208400003,757.1600000000001,117.53193045C762.6466666666668,111.70561881600003,768.1333333333333,105.69994914600002,773.62,99.69427947600002"/><text class="label" font-size="11" alignment-baseline="middle" opacity="1" x="5" fill="rgb(204, 80, 62)" transform="translate(823.6199951171875, 109.69428253173828)"/></g></g><g id="data-points"><g class="series" transform="translate(50,10)"><path class="data-point" fill="rgb(17, 165, 121)" data-type="point" transform="translate(0, 0)" d="M13.46,489.70936079999996A3,3,0,1,1,19.46,489.70936079999996A3,3,0,1,1,13.46,489.70936079999996Z" id="point-0-0" opacity="1"/><path class="data-point" fill="rgb(17, 165, 121)" data-type="point" transform="translate(0, 0)" d="M29.92,486.23844059999993A3,3,0,1,1,35.92,486.23844059999993A3,3,0,1,1,29.92,486.23844059999993Z" id="point-0-1" opacity="1"/><path class="data-point" fill="rgb(17, 165, 121)" data-type="point" transform="translate(0, 0)" d="M46.379999999999995,482.9359062A3,3,0,1,1,52.379999999999995,482.9359062A3,3,0,1,1,46.379999999999995,482.9359062Z" id="point-0-2" opacity="1"/><path class="data-point" fill="rgb(17, 165, 121)" data-type="point" transform="translate(0, 0)" d="M62.84,479.46498599999995A3,3,0,1,1,68.84,479.46498599999995A3,3,0,1,1,62.84,479.46498599999995Z" id="point-0-3" opacity="1"/><path class="data-point" fill="rgb(17, 165, 121)" data-type="point" transform="translate(0, 0)" d="M79.30000000000001,475.98863399999993A3,3,0,1,1,85.30000000000001,475.98863399999993A3,3,0,1,1,79.30000000000001,475.98863399999993Z" id="point-0-4" opacity="1"/><path class="data-point" fill="rgb(17, 165, 121)" data-type="point" transform="translate(0, 0)" d="M95.75999999999999,470.3721528A3,3,0,1,1,101.75999999999999,470.3721528A3,3,0,1,1,95.75999999999999,470.3721528Z" id="point-0-5" opacity="1"/><path class="data-point" fill="rgb(17, 165, 121)" data-type="point" transform="translate(0, 0)" d="M112.22000000000001,466.45039319999995A3,3,0,1,1,118.22000000000001,466.45039319999995A3,3,0,1,1,112.22000000000001,466.45039319999995Z" id="point-0-6" opacity="1"/><path class="data-point" fill="rgb(17, 165, 121)" data-type="point" transform="translate(0, 0)" d="M128.68,462.5938152A3,3,0,1,1,134.68,462.5938152A3,3,0,1,1,128.68,462.5938152Z" id="point-0-7" opacity="1"/><path class="data-point" fill="rgb(17, 165, 121)" data-type="point" transform="translate(0, 0)" d="M145.14,457.8029676A3,3,0,1,1,151.14,457.8029676A3,3,0,1,1,145.14,457.8029676Z" id="point-0-8" opacity="1"/><path class="data-point" fill="rgb(17, 165, 121)" data-type="point" transform="translate(0, 0)" d="M161.60000000000002,452.87089319999995A3,3,0,1,1,167.60000000000002,452.87089319999995A3,3,0,1,1,161.60000000000002,452.87089319999995Z" id="point-0-9" opacity="1"/><path class="data-point" fill="rgb(17, 165, 121)" data-type="point" transform="translate(0, 0)" d="M178.06,445.9833708A3,3,0,1,1,184.06,445.9833708A3,3,0,1,1,178.06,445.9833708Z" id="point-0-10" opacity="1"/><path class="data-point" fill="rgb(17, 165, 121)" data-type="point" transform="translate(0, 0)" d="M194.51999999999998,439.57384679999996A3,3,0,1,1,200.51999999999998,439.57384679999996A3,3,0,1,1,194.51999999999998,439.57384679999996Z" id="point-0-11" opacity="1"/><path class="data-point" fill="rgb(17, 165, 121)" data-type="point" transform="translate(0, 0)" d="M210.98000000000002,424.33221599999996A3,3,0,1,1,216.98000000000002,424.33221599999996A3,3,0,1,1,210.98000000000002,424.33221599999996Z" id="point-0-12" opacity="1"/><path class="data-point" fill="rgb(17, 165, 121)" data-type="point" transform="translate(0, 0)" d="M227.44000000000003,416.15192519999994A3,3,0,1,1,233.44000000000003,416.15192519999994A3,3,0,1,1,227.44000000000003,416.15192519999994Z" id="point-0-13" opacity="1"/><path class="data-point" fill="rgb(17, 165, 121)" data-type="point" transform="translate(0, 0)" d="M243.89999999999998,410.83962479999997A3,3,0,1,1,249.89999999999998,410.83962479999997A3,3,0,1,1,243.89999999999998,410.83962479999997Z" id="point-0-14" opacity="1"/><path class="data-point" fill="rgb(17, 165, 121)" data-type="point" transform="translate(0, 0)" d="M260.36,399.13952759999995A3,3,0,1,1,266.36,399.13952759999995A3,3,0,1,1,260.36,399.13952759999995Z" id="point-0-15" opacity="1"/><path class="data-point" fill="rgb(17, 165, 121)" data-type="point" transform="translate(0, 0)" d="M276.82,389.8511496A3,3,0,1,1,282.82,389.8511496A3,3,0,1,1,276.82,389.8511496Z" id="point-0-16" opacity="1"/><path class="data-point" fill="rgb(17, 165, 121)" data-type="point" transform="translate(0, 0)" d="M293.28,392.2628688A3,3,0,1,1,299.28,392.2628688A3,3,0,1,1,293.28,392.2628688Z" id="point-0-17" opacity="1"/><path class="data-point" fill="rgb(17, 165, 121)" data-type="point" transform="translate(0, 0)" d="M309.74,373.3602048A3,3,0,1,1,315.74,373.3602048A3,3,0,1,1,309.74,373.3602048Z" id="point-0-18" opacity="1"/><path class="data-point" fill="rgb(17, 165, 121)" data-type="point" transform="translate(0, 0)" d="M326.20000000000005,361.7035619999999A3,3,0,1,1,332.20000000000005,361.7035619999999A3,3,0,1,1,326.20000000000005,361.7035619999999Z" id="point-0-19" opacity="1"/><path class="data-point" fill="rgb(17, 165, 121)" data-type="point" transform="translate(0, 0)" d="M342.65999999999997,353.05613639999996A3,3,0,1,1,348.65999999999997,353.05613639999996A3,3,0,1,1,342.65999999999997,353.05613639999996Z" id="point-0-20" opacity="1"/><path class="data-point" fill="rgb(17, 165, 121)" data-type="point" transform="translate(0, 0)" d="M359.12,345.7232064A3,3,0,1,1,365.12,345.7232064A3,3,0,1,1,359.12,345.7232064Z" id="point-0-21" opacity="1"/><path class="data-point" fill="rgb(17, 165, 121)" data-type="point" transform="translate(0, 0)" d="M375.58000000000004,340.3348608A3,3,0,1,1,381.58000000000004,340.3348608A3,3,0,1,1,375.58000000000004,340.3348608Z" id="point-0-22" opacity="1"/><path class="data-point" fill="rgb(17, 165, 121)" data-type="point" transform="translate(0, 0)" d="M392.03999999999996,335.48969519999997A3,3,0,1,1,398.03999999999996,335.48969519999997A3,3,0,1,1,392.03999999999996,335.48969519999997Z" id="point-0-23" opacity="1"/><path class="data-point" fill="rgb(17, 165, 121)" data-type="point" transform="translate(0, 0)" d="M408.5,330.84007439999993A3,3,0,1,1,414.5,330.84007439999993A3,3,0,1,1,408.5,330.84007439999993Z" id="point-0-24" opacity="1"/><path class="data-point" fill="rgb(17, 165, 121)" data-type="point" transform="translate(0, 0)" d="M424.96000000000004,323.6972574A3,3,0,1,1,430.96000000000004,323.6972574A3,3,0,1,1,424.96000000000004,323.6972574Z" id="point-0-25" opacity="1"/><path class="data-point" fill="rgb(17, 165, 121)" data-type="point" transform="translate(0, 0)" d="M441.42,316.23939599999994A3,3,0,1,1,447.42,316.23939599999994A3,3,0,1,1,441.42,316.23939599999994Z" id="point-0-26" opacity="1"/><path class="data-point" fill="rgb(17, 165, 121)" data-type="point" transform="translate(0, 0)" d="M457.88000000000005,308.84128439999995A3,3,0,1,1,463.88000000000005,308.84128439999995A3,3,0,1,1,457.88000000000005,308.84128439999995Z" id="point-0-27" opacity="1"/><path class="data-point" fill="rgb(17, 165, 121)" data-type="point" transform="translate(0, 0)" d="M474.34,305.678021352A3,3,0,1,1,480.34,305.678021352A3,3,0,1,1,474.34,305.678021352Z" id="point-0-28" opacity="1"/><path class="data-point" fill="rgb(17, 165, 121)" data-type="point" transform="translate(0, 0)" d="M490.79999999999995,294.625123122A3,3,0,1,1,496.79999999999995,294.625123122A3,3,0,1,1,490.79999999999995,294.625123122Z" id="point-0-29" opacity="1"/><path class="data-point" fill="rgb(17, 165, 121)" data-type="point" transform="translate(0, 0)" d="M507.26,283.05783343199994A3,3,0,1,1,513.26,283.05783343199994A3,3,0,1,1,507.26,283.05783343199994Z" id="point-0-30" opacity="1"/><path class="data-point" fill="rgb(17, 165, 121)" data-type="point" transform="translate(0, 0)" d="M523.72,270.9522523619999A3,3,0,1,1,529.72,270.9522523619999A3,3,0,1,1,523.72,270.9522523619999Z" id="point-0-31" opacity="1"/><path class="data-point" fill="rgb(17, 165, 121)" data-type="point" transform="translate(0, 0)" d="M540.1800000000001,258.28328499599996A3,3,0,1,1,546.1800000000001,258.28328499599996A3,3,0,1,1,540.1800000000001,258.28328499599996Z" id="point-0-32" opacity="1"/><path class="data-point" fill="rgb(17, 165, 121)" data-type="point" transform="translate(0, 0)" d="M556.64,245.024750058A3,3,0,1,1,562.64,245.024750058A3,3,0,1,1,556.64,245.024750058Z" id="point-0-33" opacity="1"/><path class="data-point" fill="rgb(17, 165, 121)" data-type="point" transform="translate(0, 0)" d="M573.0999999999999,231.14916264A3,3,0,1,1,579.0999999999999,231.14916264A3,3,0,1,1,573.0999999999999,231.14916264Z" id="point-0-34" opacity="1"/><path class="data-point" fill="rgb(17, 165, 121)" data-type="point" transform="translate(0, 0)" d="M589.56,216.627842838A3,3,0,1,1,595.56,216.627842838A3,3,0,1,1,589.56,216.627842838Z" id="point-0-35" opacity="1"/><path class="data-point" fill="rgb(17, 165, 121)" data-type="point" transform="translate(0, 0)" d="M606.02,201.43069847999993A3,3,0,1,1,612.02,201.43069847999993A3,3,0,1,1,606.02,201.43069847999993Z" id="point-0-36" opacity="1"/><path class="data-point" fill="rgb(17, 165, 121)" data-type="point" transform="translate(0, 0)" d="M622.48,185.52633376199992A3,3,0,1,1,628.48,185.52633376199992A3,3,0,1,1,622.48,185.52633376199992Z" id="point-0-37" opacity="1"/><path class="data-point" fill="rgb(17, 165, 121)" data-type="point" transform="translate(0, 0)" d="M638.94,168.88183197600006A3,3,0,1,1,644.94,168.88183197600006A3,3,0,1,1,638.94,168.88183197600006Z" id="point-0-38" opacity="1"/><path class="data-point" fill="rgb(17, 165, 121)" data-type="point" transform="translate(0, 0)" d="M655.4000000000001,151.462701192A3,3,0,1,1,661.4000000000001,151.462701192A3,3,0,1,1,655.4000000000001,151.462701192Z" id="point-0-39" opacity="1"/><path class="data-point" fill="rgb(17, 165, 121)" data-type="point" transform="translate(0, 0)" d="M671.86,133.232928576A3,3,0,1,1,677.86,133.232928576A3,3,0,1,1,671.86,133.232928576Z" id="point-0-40" opacity="1"/><path class="data-point" fill="rgb(17, 165, 121)" data-type="point" transform="translate(0, 0)" d="M688.3199999999999,114.15476311799995A3,3,0,1,1,694.3199999999999,114.15476311799995A3,3,0,1,1,688.3199999999999,114.15476311799995Z" id="point-0-41" opacity="1"/><path class="data-point" fill="rgb(17, 165, 121)" data-type="point" transform="translate(0, 0)" d="M704.78,94.18871563200003A3,3,0,1,1,710.78,94.18871563200003A3,3,0,1,1,704.78,94.18871563200003Z" id="point-0-42" opacity="1"/><path class="data-point" fill="rgb(17, 165, 121)" data-type="point" transform="translate(0, 0)" d="M721.24,73.29350443800001A3,3,0,1,1,727.24,73.29350443800001A3,3,0,1,1,721.24,73.29350443800001Z" id="point-0-43" opacity="1"/><path class="data-point" fill="rgb(17, 165, 121)" data-type="point" transform="translate(0, 0)" d="M737.7,51.42589240799998A3,3,0,1,1,743.7,51.42589240799998A3,3,0,1,1,737.7,51.42589240799998Z" id="point-0-44" opacity="1"/><path class="data-point" fill="rgb(17, 165, 121)" data-type="point" transform="translate(0, 0)" d="M754.1600000000001,28.540578330000017A3,3,0,1,1,760.1600000000001,28.540578330000017A3,3,0,1,1,754.1600000000001,28.540578330000017Z" id="point-0-45" opacity="1"/><path class="data-point" fill="#11A579" data-type="point" transform="translate(0, 0)" d="M770.62,4.590251225999964A3,3,0,1,1,776.62,4.590251225999964A3,3,0,1,1,770.62,4.590251225999964Z" id="point-0-46" opacity="1"/></g><g class="series" transform="translate(50,10)"><path class="data-point" fill="rgb(204, 80, 62)" data-type="point" transform="translate(0, 0)" d="M13.46,486.2493042A3,3,0,1,1,19.46,486.2493042A3,3,0,1,1,13.46,486.2493042Z" id="point-1-0" opacity="1"/><path class="data-point" fill="rgb(204, 80, 62)" data-type="point" transform="translate(0, 0)" d="M29.92,482.7566568A3,3,0,1,1,35.92,482.7566568A3,3,0,1,1,29.92,482.7566568Z" id="point-1-1" opacity="1"/><path class="data-point" fill="rgb(204, 80, 62)" data-type="point" transform="translate(0, 0)" d="M46.379999999999995,478.92180599999995A3,3,0,1,1,52.379999999999995,478.92180599999995A3,3,0,1,1,46.379999999999995,478.92180599999995Z" id="point-1-2" opacity="1"/><path class="data-point" fill="rgb(204, 80, 62)" data-type="point" transform="translate(0, 0)" d="M62.84,475.8202481999999A3,3,0,1,1,68.84,475.8202481999999A3,3,0,1,1,62.84,475.8202481999999Z" id="point-1-3" opacity="1"/><path class="data-point" fill="rgb(204, 80, 62)" data-type="point" transform="translate(0, 0)" d="M79.30000000000001,472.57746359999993A3,3,0,1,1,85.30000000000001,472.57746359999993A3,3,0,1,1,79.30000000000001,472.57746359999993Z" id="point-1-4" opacity="1"/><path class="data-point" fill="rgb(204, 80, 62)" data-type="point" transform="translate(0, 0)" d="M95.75999999999999,468.68829479999994A3,3,0,1,1,101.75999999999999,468.68829479999994A3,3,0,1,1,95.75999999999999,468.68829479999994Z" id="point-1-5" opacity="1"/><path class="data-point" fill="rgb(204, 80, 62)" data-type="point" transform="translate(0, 0)" d="M112.22000000000001,464.7339443999999A3,3,0,1,1,118.22000000000001,464.7339443999999A3,3,0,1,1,112.22000000000001,464.7339443999999Z" id="point-1-6" opacity="1"/><path class="data-point" fill="rgb(204, 80, 62)" data-type="point" transform="translate(0, 0)" d="M128.68,460.23641399999997A3,3,0,1,1,134.68,460.23641399999997A3,3,0,1,1,128.68,460.23641399999997Z" id="point-1-7" opacity="1"/><path class="data-point" fill="rgb(204, 80, 62)" data-type="point" transform="translate(0, 0)" d="M145.14,456.21145019999994A3,3,0,1,1,151.14,456.21145019999994A3,3,0,1,1,145.14,456.21145019999994Z" id="point-1-8" opacity="1"/><path class="data-point" fill="rgb(204, 80, 62)" data-type="point" transform="translate(0, 0)" d="M161.60000000000002,451.96378259999994A3,3,0,1,1,167.60000000000002,451.96378259999994A3,3,0,1,1,161.60000000000002,451.96378259999994Z" id="point-1-9" opacity="1"/><path class="data-point" fill="rgb(204, 80, 62)" data-type="point" transform="translate(0, 0)" d="M178.06,447.0099809999999A3,3,0,1,1,184.06,447.0099809999999A3,3,0,1,1,178.06,447.0099809999999Z" id="point-1-10" opacity="1"/><path class="data-point" fill="rgb(204, 80, 62)" data-type="point" transform="translate(0, 0)" d="M194.51999999999998,441.05129639999996A3,3,0,1,1,200.51999999999998,441.05129639999996A3,3,0,1,1,194.51999999999998,441.05129639999996Z" id="point-1-11" opacity="1"/><path class="data-point" fill="rgb(204, 80, 62)" data-type="point" transform="translate(0, 0)" d="M210.98000000000002,433.5445488A3,3,0,1,1,216.98000000000002,433.5445488A3,3,0,1,1,210.98000000000002,433.5445488Z" id="point-1-12" opacity="1"/><path class="data-point" fill="rgb(204, 80, 62)" data-type="point" transform="translate(0, 0)" d="M227.44000000000003,426.10841459999995A3,3,0,1,1,233.44000000000003,426.10841459999995A3,3,0,1,1,227.44000000000003,426.10841459999995Z" id="point-1-13" opacity="1"/><path class="data-point" fill="rgb(204, 80, 62)" data-type="point" transform="translate(0, 0)" d="M243.89999999999998,418.7591891999999A3,3,0,1,1,249.89999999999998,418.7591891999999A3,3,0,1,1,243.89999999999998,418.7591891999999Z" id="point-1-14" opacity="1"/><path class="data-point" fill="rgb(204, 80, 62)" data-type="point" transform="translate(0, 0)" d="M260.36,411.20898719999997A3,3,0,1,1,266.36,411.20898719999997A3,3,0,1,1,260.36,411.20898719999997Z" id="point-1-15" opacity="1"/><path class="data-point" fill="rgb(204, 80, 62)" data-type="point" transform="translate(0, 0)" d="M276.82,402.45292559999996A3,3,0,1,1,282.82,402.45292559999996A3,3,0,1,1,276.82,402.45292559999996Z" id="point-1-16" opacity="1"/><path class="data-point" fill="rgb(204, 80, 62)" data-type="point" transform="translate(0, 0)" d="M293.28,394.21831679999997A3,3,0,1,1,299.28,394.21831679999997A3,3,0,1,1,293.28,394.21831679999997Z" id="point-1-17" opacity="1"/><path class="data-point" fill="rgb(204, 80, 62)" data-type="point" transform="translate(0, 0)" d="M309.74,387.53720279999993A3,3,0,1,1,315.74,387.53720279999993A3,3,0,1,1,309.74,387.53720279999993Z" id="point-1-18" opacity="1"/><path class="data-point" fill="rgb(204, 80, 62)" data-type="point" transform="translate(0, 0)" d="M326.20000000000005,379.1070492A3,3,0,1,1,332.20000000000005,379.1070492A3,3,0,1,1,326.20000000000005,379.1070492Z" id="point-1-19" opacity="1"/><path class="data-point" fill="rgb(204, 80, 62)" data-type="point" transform="translate(0, 0)" d="M342.65999999999997,371.480802A3,3,0,1,1,348.65999999999997,371.480802A3,3,0,1,1,342.65999999999997,371.480802Z" id="point-1-20" opacity="1"/><path class="data-point" fill="rgb(204, 80, 62)" data-type="point" transform="translate(0, 0)" d="M359.12,364.22934899999996A3,3,0,1,1,365.12,364.22934899999996A3,3,0,1,1,359.12,364.22934899999996Z" id="point-1-21" opacity="1"/><path class="data-point" fill="rgb(204, 80, 62)" data-type="point" transform="translate(0, 0)" d="M375.58000000000004,358.0859832A3,3,0,1,1,381.58000000000004,358.0859832A3,3,0,1,1,375.58000000000004,358.0859832Z" id="point-1-22" opacity="1"/><path class="data-point" fill="rgb(204, 80, 62)" data-type="point" transform="translate(0, 0)" d="M392.03999999999996,352.61072879999995A3,3,0,1,1,398.03999999999996,352.61072879999995A3,3,0,1,1,392.03999999999996,352.61072879999995Z" id="point-1-23" opacity="1"/><path class="data-point" fill="rgb(204, 80, 62)" data-type="point" transform="translate(0, 0)" d="M408.5,352.29568439999997A3,3,0,1,1,414.5,352.29568439999997A3,3,0,1,1,408.5,352.29568439999997Z" id="point-1-24" opacity="1"/><path class="data-point" fill="rgb(204, 80, 62)" data-type="point" transform="translate(0, 0)" d="M424.96000000000004,344.83782299999996A3,3,0,1,1,430.96000000000004,344.83782299999996A3,3,0,1,1,424.96000000000004,344.83782299999996Z" id="point-1-25" opacity="1"/><path class="data-point" fill="rgb(204, 80, 62)" data-type="point" transform="translate(0, 0)" d="M441.42,339.88402139999994A3,3,0,1,1,447.42,339.88402139999994A3,3,0,1,1,441.42,339.88402139999994Z" id="point-1-26" opacity="1"/><path class="data-point" fill="rgb(204, 80, 62)" data-type="point" transform="translate(0, 0)" d="M457.88000000000005,337.12466699999993A3,3,0,1,1,463.88000000000005,337.12466699999993A3,3,0,1,1,457.88000000000005,337.12466699999993Z" id="point-1-27" opacity="1"/><path class="data-point" fill="rgb(204, 80, 62)" data-type="point" transform="translate(0, 0)" d="M474.34,331.36446037199994A3,3,0,1,1,480.34,331.36446037199994A3,3,0,1,1,474.34,331.36446037199994Z" id="point-1-28" opacity="1"/><path class="data-point" fill="rgb(204, 80, 62)" data-type="point" transform="translate(0, 0)" d="M490.79999999999995,322.48792144799995A3,3,0,1,1,496.79999999999995,322.48792144799995A3,3,0,1,1,490.79999999999995,322.48792144799995Z" id="point-1-29" opacity="1"/><path class="data-point" fill="rgb(204, 80, 62)" data-type="point" transform="translate(0, 0)" d="M507.26,313.239358542A3,3,0,1,1,513.26,313.239358542A3,3,0,1,1,507.26,313.239358542Z" id="point-1-30" opacity="1"/><path class="data-point" fill="rgb(204, 80, 62)" data-type="point" transform="translate(0, 0)" d="M523.72,303.603182388A3,3,0,1,1,529.72,303.603182388A3,3,0,1,1,523.72,303.603182388Z" id="point-1-31" opacity="1"/><path class="data-point" fill="rgb(204, 80, 62)" data-type="point" transform="translate(0, 0)" d="M540.1800000000001,293.56326054A3,3,0,1,1,546.1800000000001,293.56326054A3,3,0,1,1,540.1800000000001,293.56326054Z" id="point-1-32" opacity="1"/><path class="data-point" fill="rgb(204, 80, 62)" data-type="point" transform="translate(0, 0)" d="M556.64,283.102537146A3,3,0,1,1,562.64,283.102537146A3,3,0,1,1,556.64,283.102537146Z" id="point-1-33" opacity="1"/><path class="data-point" fill="rgb(204, 80, 62)" data-type="point" transform="translate(0, 0)" d="M573.0999999999999,272.203413174A3,3,0,1,1,579.0999999999999,272.203413174A3,3,0,1,1,573.0999999999999,272.203413174Z" id="point-1-34" opacity="1"/><path class="data-point" fill="rgb(204, 80, 62)" data-type="point" transform="translate(0, 0)" d="M589.56,260.847583458A3,3,0,1,1,595.56,260.847583458A3,3,0,1,1,589.56,260.847583458Z" id="point-1-35" opacity="1"/><path class="data-point" fill="rgb(204, 80, 62)" data-type="point" transform="translate(0, 0)" d="M606.02,249.01587374399998A3,3,0,1,1,612.02,249.01587374399998A3,3,0,1,1,606.02,249.01587374399998Z" id="point-1-36" opacity="1"/><path class="data-point" fill="rgb(204, 80, 62)" data-type="point" transform="translate(0, 0)" d="M622.48,236.68829500799995A3,3,0,1,1,628.48,236.68829500799995A3,3,0,1,1,622.48,236.68829500799995Z" id="point-1-37" opacity="1"/><path class="data-point" fill="rgb(204, 80, 62)" data-type="point" transform="translate(0, 0)" d="M638.94,223.844152092A3,3,0,1,1,644.94,223.844152092A3,3,0,1,1,638.94,223.844152092Z" id="point-1-38" opacity="1"/><path class="data-point" fill="rgb(204, 80, 62)" data-type="point" transform="translate(0, 0)" d="M655.4000000000001,210.46171779599996A3,3,0,1,1,661.4000000000001,210.46171779599996A3,3,0,1,1,655.4000000000001,210.46171779599996Z" id="point-1-39" opacity="1"/><path class="data-point" fill="rgb(204, 80, 62)" data-type="point" transform="translate(0, 0)" d="M671.86,196.51845014999998A3,3,0,1,1,677.86,196.51845014999998A3,3,0,1,1,671.86,196.51845014999998Z" id="point-1-40" opacity="1"/><path class="data-point" fill="rgb(204, 80, 62)" data-type="point" transform="translate(0, 0)" d="M688.3199999999999,181.990883778A3,3,0,1,1,694.3199999999999,181.990883778A3,3,0,1,1,688.3199999999999,181.990883778Z" id="point-1-41" opacity="1"/><path class="data-point" fill="rgb(204, 80, 62)" data-type="point" transform="translate(0, 0)" d="M704.78,166.85446694400002A3,3,0,1,1,710.78,166.85446694400002A3,3,0,1,1,704.78,166.85446694400002Z" id="point-1-42" opacity="1"/><path class="data-point" fill="rgb(204, 80, 62)" data-type="point" transform="translate(0, 0)" d="M721.24,151.08377882399992A3,3,0,1,1,727.24,151.08377882399992A3,3,0,1,1,721.24,151.08377882399992Z" id="point-1-43" opacity="1"/><path class="data-point" fill="rgb(204, 80, 62)" data-type="point" transform="translate(0, 0)" d="M737.7,134.65214928A3,3,0,1,1,743.7,134.65214928A3,3,0,1,1,737.7,134.65214928Z" id="point-1-44" opacity="1"/><path class="data-point" fill="rgb(204, 80, 62)" data-type="point" transform="translate(0, 0)" d="M754.1600000000001,117.53193045A3,3,0,1,1,760.1600000000001,117.53193045A3,3,0,1,1,754.1600000000001,117.53193045Z" id="point-1-45" opacity="1"/><path class="data-point" fill="rgb(204, 80, 62)" data-type="point" transform="translate(0, 0)" d="M770.62,99.69427947600002A3,3,0,1,1,776.62,99.69427947600002A3,3,0,1,1,770.62,99.69427947600002Z" id="point-1-46" opacity="1"/></g></g><g id="data-labels"/><g class="annotations above"><g class="axis-highlights" transform="translate(50, 10)" style="opacity: 1;"/></g></svg>