<svg xmlns="http://www.w3.org/2000/svg" id="graphic" width="961" height="634.6"><g id="facets"><g class="facet" transform="translate(15,20)" opacity="1"><text class="facet-title" y="0" font-size="16" font-weight="bold" dominant-baseline="middle" x="0" clip-path="url(#facet-clip-0)" fill="black"/><g class="plot"><clipPath class="facet-clip" id="facet-clip-0"><rect width="951" height="581.6" transform="translate(-7.5,-10)"/></clipPath><g class="bg"><rect fill="none" width="936" height="561.6" style="fill: none;"/></g><g class="interaction"><g class="series"><path data-target="point-0-0" d="M78.31037141823566,561.6L66.88112464912857,504.52739999999994L0,504.52739999999994L0,561.6Z" style="opacity: 0;"/><path data-target="point-0-1" d="M66.87886831081428,500.927544L66.88112464912857,504.52739999999994L78.31037141823566,561.6L96.34304665280007,561.6L84.78234353668572,500.927544Z" style="opacity: 0;"/><path data-target="point-0-2" d="M84.78234353668572,500.927544L96.34304665280007,561.6L115.55280888156425,561.6L102.66376754357142,497.23783199999997L84.82050240641428,497.23783199999997Z" style="opacity: 0;"/><path data-target="point-0-3" d="M102.66376754357142,497.23783199999997L115.55280888156425,561.6L134.21323017142862,561.6L120.62254065828571,493.840152L102.77024840785714,493.840152Z" style="opacity: 0;"/><path data-target="point-0-4" d="M120.62254065828571,493.840152L134.21323017142862,561.6L162.01246843939995,561.6L138.9294305186,490.366656L120.65628629219285,490.366656Z" style="opacity: 0;"/><path data-target="point-0-5" d="M138.30418544359998,485.452656L138.9294305186,490.366656L162.01246843939995,561.6L173.97160277614287,561.6L156.74177044474285,485.452656Z" style="opacity: 0;"/><path data-target="point-0-6" d="M156.21605417759997,481.38105599999994L156.74177044474285,485.452656L173.97160277614287,561.6L192.49560447871414,561.6L174.64617319814283,481.38105599999994Z" style="opacity: 0;"/><path data-target="point-0-7" d="M174.11291350977143,477.06235200000003L174.64617319814283,481.38105599999994L192.49560447871414,561.6L216.03498513020017,561.6L192.6677225024,477.06235200000003Z" style="opacity: 0;"/><path data-target="point-0-8" d="M192.0278657888,472.50496799999996L192.6677225024,477.06235200000003L216.03498513020017,561.6L236.08435953394266,561.6L210.73141358871428,472.50496799999996Z" style="opacity: 0;"/><path data-target="point-0-9" d="M209.81677816478572,467.759448L210.73141358871428,472.50496799999996L236.08435953394266,561.6L260.75823571392175,561.6L229.02596926891428,467.759448Z" style="opacity: 0;"/><path data-target="point-0-10" d="M183.96959192456976,336.1276684630711L227.27637426777142,461.63800799999996L246.95655399482854,461.63800799999996L245.13712514685713,455.244192L225.9324579547495,403.3121159577945Z" style="opacity: 0;"/><path data-target="point-0-11" d="M225.9324579547495,403.3121159577945L245.13712514685713,455.244192L265.3499485572857,455.244192L261.25907695242853,443.484288Z" style="opacity: 0;"/><path data-target="point-0-12" d="M41.46224885041204,0L54.566996177717996,35.844970092126346L69.78849897485149,75.02488734032858L137.90201186272657,239.42901997718616L172.06917237309472,313.73361575346263L183.96959192456976,336.1276684630711L225.9324579547495,403.3121159577945L261.25907695242853,443.484288L281.52605336240714,443.484288L282.3533700775857,435.41128799999996L76.85245998425734,0Z" style="opacity: 0;"/><path data-target="point-0-13" d="M76.85245998425734,0L282.3533700775857,435.41128799999996L299.26848816114284,435.41128799999996L300.25311055314285,428.86584L279.9998921276875,362.7864389416444L101.954025389029,0Z" style="opacity: 0;"/><path data-target="point-0-14" d="M279.9998921276875,362.7864389416444L300.25311055314285,428.86584L317.6768217248571,428.86584L317.8888964062286,418.914288Z" style="opacity: 0;"/><path data-target="point-0-15" d="M101.954025389029,0L279.9998921276875,362.7864389416444L317.8888964062286,418.914288L334.8146713762857,418.914288L336.59793545071426,409.58611199999996L117.10000662614283,0Z" style="opacity: 0;"/><path data-target="point-0-16" d="M117.10000662614283,0L336.59793545071426,409.58611199999996L352.5273909738286,409.58611199999996L353.2858585701714,406.57593599999996L356.6796584374696,382.1858032302174L273.93059637061475,208.24470230104976L161.2006735697997,0Z" style="opacity: 0;"/><path data-target="point-0-17" d="M353.2858585701714,406.57593599999996L372.46169564357143,406.57593599999996L368.8556903742857,393.35025599999994L356.6796584374696,382.1858032302174Z" style="opacity: 0;"/><path data-target="point-0-18" d="M273.93059637061475,208.24470230104976L356.6796584374696,382.1858032302174L368.8556903742857,393.35025599999994L387.9950141913143,393.35025599999994L391.43802805762857,382.966272Z" style="opacity: 0;"/><path data-target="point-0-19" d="M161.2006735697997,0L273.93059637061475,208.24470230104976L391.43802805762857,382.966272L405.1360459485714,382.966272L409.8817484685714,374.553504L223.00897917645713,0Z" style="opacity: 0;"/><path data-target="point-0-20" d="M223.00897917645713,0L409.8817484685714,374.553504L422.86341678503567,374.553504L427.7237358353571,367.01402399999995L272.44731148500006,0Z" style="opacity: 0;"/><path data-target="point-0-21" d="M272.44731148500006,0L427.7237358353571,367.01402399999995L440.9347243331714,367.01402399999995L445.1868730870857,361.05264L332.9407652059426,-5.684341886080802e-14Z" style="opacity: 0;"/><path data-target="point-0-22" d="M332.9407652059426,-5.684341886080802e-14L445.1868730870857,361.05264L459.115273328,361.05264L462.89402399942855,355.71744L363.45448406685796,0Z" style="opacity: 0;"/><path data-target="point-0-23" d="M363.45448406685796,0L462.89402399942855,355.71744L478.8820809582,355.71744L481.3706672376,353.150928L440.93531554975993,202.42139059558522L372.07399836983194,0Z" style="opacity: 0;"/><path data-target="point-0-24" d="M440.93531554975993,202.42139059558522L481.3706672376,353.150928L493.84634024699284,353.150928L499.94212860539284,345.60302399999995Z" style="opacity: 0;"/><path data-target="point-0-25" d="M372.07399836983194,0L440.93531554975993,202.42139059558522L499.94212860539284,345.60302399999995L512.4883517874285,345.60302399999995L518.4805844252857,339.186744L372.5324654710786,0Z" style="opacity: 0;"/><path data-target="point-0-26" d="M372.5324654710786,0L518.4805844252857,339.186744L531.0811172481428,339.186744L537.4085006063572,333.93578399999996L394.87099277545747,0Z" style="opacity: 0;"/><path data-target="point-0-27" d="M394.87099277545747,0L537.4085006063572,333.93578399999996L546.8503977338402,333.93578399999996L552.8450229874845,329.3227455L541.6561323200169,268.01626748722913L502.6530143631631,172.91163581549904L447.4237880186778,61.53249864877935L413.7956053538492,7.105427357601002e-15Z" style="opacity: 0;"/><path data-target="point-0-28" d="M541.6561323200169,268.01626748722913L552.8450229874845,329.3227455L564.1895137090642,329.3227455L574.1816609157007,319.0201095Z" style="opacity: 0;"/><path data-target="point-0-29" d="M502.6530143631631,172.91163581549904L541.6561323200169,268.01626748722913L574.1816609157007,319.0201095L581.4252640344126,319.0201095L592.9820764083402,308.2592355Z" style="opacity: 0;"/><path data-target="point-0-30" d="M447.4237880186778,61.53249864877935L502.6530143631631,172.91163581549904L592.9820764083402,308.2592355L598.575040910893,308.2592355L611.8981881585108,297.01971000000003Z" style="opacity: 0;"/><path data-target="point-0-31" d="M413.7956053538492,7.105427357601002e-15L447.4237880186778,61.53249864877935L611.8981881585108,297.01971000000003L615.6290604426841,297.01971L630.9439713156366,285.2802205L422.41895132909315,0Z" style="opacity: 0;"/><path data-target="point-0-32" d="M422.41895132909315,0L630.9439713156366,285.2802205L632.5762904659993,285.2802205L649.6275347124406,273.37268017070886L649.8954566418546,272.70548988977936L441.285633319417,0Z" style="opacity: 0;"/><path data-target="point-0-33" d="M441.285633319417,0L649.8954566418546,272.70548988977936L667.0992093861306,261.7343998998246L668.4095316240484,258.86376124303615L461.1722183788452,0Z" style="opacity: 0;"/><path data-target="point-0-34" d="M461.1722183788452,0L668.4095316240484,258.86376124303615L684.4658901756628,249.49314008713347L687.0502068507789,244.47912312729977L482.2203859419917,0Z" style="opacity: 0;"/><path data-target="point-0-35" d="M482.2203859419917,0L687.0502068507789,244.47912312729977L701.7171869675503,236.6301861038022L705.8316379016917,229.5204112077583L504.58500338035674,0Z" style="opacity: 0;"/><path data-target="point-0-36" d="M504.58500338035674,0L705.8316379016917,229.5204112077583L718.8413179855928,223.12499821669837L724.769857056991,213.95596414359514L528.4401272931593,0Z" style="opacity: 0;"/><path data-target="point-0-37" d="M528.4401272931593,0L724.769857056991,213.95596414359514L735.8248400561813,208.95548088554068L743.8829949634678,197.7532580422132L553.9765244024771,0Z" style="opacity: 0;"/><path data-target="point-0-38" d="M553.9765244024771,0L743.8829949634678,197.7532580422132L752.6527259050847,194.09766663545162L763.1915337829433,180.87889013177332L581.4058469027511,0Z" style="opacity: 0;"/><path data-target="point-0-39" d="M581.4058469027511,0L763.1915337829433,180.87889013177332L769.308038784918,178.5259666795188L782.7184619088288,163.2985508569524L610.9636523331973,0Z" style="opacity: 0;"/><path data-target="point-0-40" d="M610.9636523331973,0L782.7184619088288,163.2985508569524L785.7717666303546,162.21317703084364L802.1766708716075,145.29939251176717L802.3355041804402,144.83673608150735L642.9089482377158,0Z" style="opacity: 0;"/><path data-target="point-0-41" d="M642.9089482377158,0L802.3355041804402,144.83673608150735L819.4675217907557,128.75527702619817L821.0947338691623,124.62744899099512L677.5288921657698,0Z" style="opacity: 0;"/><path data-target="point-0-42" d="M677.5288921657698,0L821.0947338691623,124.62744899099512L836.5832135102997,111.35867716208054L840.0585906802025,103.61731809582652L715.140761113983,0Z" style="opacity: 0;"/><path data-target="point-0-43" d="M715.140761113983,0L840.0585906802025,103.61731809582652L853.5046052575758,93.08124953482631L859.2516760214672,81.7623082067035L756.0944074451842,0Z" style="opacity: 0;"/><path data-target="point-0-44" d="M756.0944074451842,0L859.2516760214672,81.7623082067035L884.6501724129262,63.522095683314376L800.7762388742021,0Z" style="opacity: 0;"/><path data-target="point-0-45" d="M800.7762388742021,0L884.6501724129262,63.522095683314376L924.1085366258394,53.910483L849.6130426656996,0Z" style="opacity: 0;"/><path data-target="point-0-46" d="M849.6130426656996,0L924.1085366258394,53.910483L936,53.910483L936,0Z" style="opacity: 0;"/><path data-target="point-1-0" d="M0,504.52739999999994L66.88112464912857,504.52739999999994L66.87886831081428,500.927544L0,169.04160820176025Z" style="opacity: 0;"/><path data-target="point-1-1" d="M0,169.04160820176025L66.87886831081428,500.927544L84.78234353668572,500.927544L84.82050240641428,497.23783199999997L0,113.8776119279126Z" style="opacity: 0;"/><path data-target="point-1-2" d="M0,113.8776119279126L84.82050240641428,497.23783199999997L102.66376754357142,497.23783199999997L102.77024840785714,493.840152L14.398875993579168,0L0,0Z" style="opacity: 0;"/><path data-target="point-1-3" d="M14.398875993579168,0L102.77024840785714,493.840152L120.62254065828571,493.840152L120.65628629219285,490.366656L28.91087409144975,0Z" style="opacity: 0;"/><path data-target="point-1-4" d="M28.91087409144975,0L120.65628629219285,490.366656L138.9294305186,490.366656L138.30418544359998,485.452656L29.3738107156574,0Z" style="opacity: 0;"/><path data-target="point-1-5" d="M29.3738107156574,0L138.30418544359998,485.452656L156.74177044474285,485.452656L156.21605417759997,481.38105599999994L54.566996177717996,35.844970092126346L41.46224885041204,0Z" style="opacity: 0;"/><path data-target="point-1-6" d="M54.566996177717996,35.844970092126346L156.21605417759997,481.38105599999994L174.64617319814283,481.38105599999994L174.11291350977143,477.06235200000003L69.78849897485149,75.02488734032858Z" style="opacity: 0;"/><path data-target="point-1-7" d="M69.78849897485149,75.02488734032858L174.11291350977143,477.06235200000003L192.6677225024,477.06235200000003L192.0278657888,472.50496799999996L137.90201186272657,239.42901997718616Z" style="opacity: 0;"/><path data-target="point-1-8" d="M137.90201186272657,239.42901997718616L192.0278657888,472.50496799999996L210.73141358871428,472.50496799999996L209.81677816478572,467.759448L172.06917237309472,313.73361575346263Z" style="opacity: 0;"/><path data-target="point-1-9" d="M172.06917237309472,313.73361575346263L209.81677816478572,467.759448L229.02596926891428,467.759448L227.27637426777142,461.63800799999996L183.96959192456976,336.1276684630711Z" style="opacity: 0;"/><path data-target="point-1-10" d="M227.27637426777142,461.63800799999996L229.02596926891428,467.759448L260.75823571392175,561.6L281.32268357842105,561.6L246.95655399482854,461.63800799999996Z" style="opacity: 0;"/><path data-target="point-1-11" d="M245.13712514685713,455.244192L246.95655399482854,461.63800799999996L281.32268357842105,561.6L311.41359860751453,561.6L265.3499485572857,455.244192Z" style="opacity: 0;"/><path data-target="point-1-12" d="M261.25907695242853,443.484288L265.3499485572857,455.244192L311.41359860751453,561.6L332.20180676823577,561.6L281.52605336240714,443.484288Z" style="opacity: 0;"/><path data-target="point-1-13" d="M281.52605336240714,443.484288L332.20180676823577,561.6L352.77509342447826,561.6L299.26848816114284,435.41128799999996L282.3533700775857,435.41128799999996Z" style="opacity: 0;"/><path data-target="point-1-14" d="M299.26848816114284,435.41128799999996L352.77509342447826,561.6L375.4979550484287,561.6L317.6768217248571,428.86584L300.25311055314285,428.86584Z" style="opacity: 0;"/><path data-target="point-1-15" d="M317.6768217248571,428.86584L375.4979550484287,561.6L406.89796430320007,561.6L334.8146713762857,418.914288L317.8888964062286,418.914288Z" style="opacity: 0;"/><path data-target="point-1-16" d="M334.8146713762857,418.914288L406.89796430320007,561.6L424.74973206937113,561.6L352.5273909738286,409.58611199999996L336.59793545071426,409.58611199999996Z" style="opacity: 0;"/><path data-target="point-1-17" d="M352.5273909738286,409.58611199999996L424.74973206937113,561.6L432.2193198852861,561.6L372.46169564357143,406.57593599999996L353.2858585701714,406.57593599999996Z" style="opacity: 0;"/><path data-target="point-1-18" d="M368.8556903742857,393.35025599999994L372.46169564357143,406.57593599999996L432.2193198852861,561.6L469.82928610514267,561.6L387.9950141913143,393.35025599999994Z" style="opacity: 0;"/><path data-target="point-1-19" d="M387.9950141913143,393.35025599999994L469.82928610514267,561.6L483.7355242461713,561.6L405.1360459485714,382.966272L391.43802805762857,382.966272Z" style="opacity: 0;"/><path data-target="point-1-20" d="M405.1360459485714,382.966272L483.7355242461713,561.6L501.11982957803605,561.6L422.86341678503567,374.553504L409.8817484685714,374.553504Z" style="opacity: 0;"/><path data-target="point-1-21" d="M422.86341678503567,374.553504L501.11982957803605,561.6L504.99925026652136,561.6L495.9872296576841,522.3333112289965L440.9347243331714,367.01402399999995L427.7237358353571,367.01402399999995Z" style="opacity: 0;"/><path data-target="point-1-22" d="M440.9347243331714,367.01402399999995L495.9872296576841,522.3333112289965L480.1917940571384,427.77160400486986L459.115273328,361.05264L445.1868730870857,361.05264Z" style="opacity: 0;"/><path data-target="point-1-23" d="M459.115273328,361.05264L480.1917940571384,427.77160400486986L478.8820809582,355.71744L462.89402399942855,355.71744Z" style="opacity: 0;"/><path data-target="point-1-24" d="M478.8820809582,355.71744L480.1917940571384,427.77160400486986L495.9872296576841,522.3333112289965L504.99925026652136,561.6L574.7510105220501,561.6L556.5691998997333,499.2841741196863L555.7930931412153,497.11658899050843L493.84634024699284,353.150928L481.3706672376,353.150928Z" style="opacity: 0;"/><path data-target="point-1-25" d="M493.84634024699284,353.150928L555.7930931412153,497.11658899050843L512.4883517874285,345.60302399999995L499.94212860539284,345.60302399999995Z" style="opacity: 0;"/><path data-target="point-1-26" d="M512.4883517874285,345.60302399999995L555.7930931412153,497.11658899050843L556.5691998997333,499.2841741196863L531.0811172481428,339.186744L518.4805844252857,339.186744Z" style="opacity: 0;"/><path data-target="point-1-27" d="M531.0811172481428,339.186744L556.5691998997333,499.2841741196863L574.7510105220501,561.6L622.5124528649387,561.6L546.8503977338402,333.93578399999996L537.4085006063572,333.93578399999996Z" style="opacity: 0;"/><path data-target="point-1-28" d="M546.8503977338402,333.93578399999996L622.5124528649387,561.6L683.1480671924758,561.6L564.1895137090642,329.3227455L552.8450229874845,329.3227455Z" style="opacity: 0;"/><path data-target="point-1-29" d="M564.1895137090642,329.3227455L683.1480671924758,561.6L710.8670171616258,561.6L581.4252640344126,319.0201095L574.1816609157007,319.0201095Z" style="opacity: 0;"/><path data-target="point-1-30" d="M581.4252640344126,319.0201095L710.8670171616258,561.6L739.4244759754469,561.6L598.575040910893,308.2592355L592.9820764083402,308.2592355Z" style="opacity: 0;"/><path data-target="point-1-31" d="M598.575040910893,308.2592355L739.4244759754469,561.6L768.8905892659598,561.6L615.6290604426841,297.01971L611.8981881585108,297.01971000000003Z" style="opacity: 0;"/><path data-target="point-1-32" d="M615.6290604426841,297.01971L768.8905892659598,561.6L799.3467033404885,561.6L632.5762904659993,285.2802205L630.9439713156366,285.2802205Z" style="opacity: 0;"/><path data-target="point-1-33" d="M632.5762904659993,285.2802205L799.3467033404885,561.6L830.8750546651538,561.6L649.6275347124406,273.37268017070886Z" style="opacity: 0;"/><path data-target="point-1-34" d="M649.6275347124406,273.37268017070886L830.8750546651538,561.6L863.5667663760491,561.6L667.0992093861306,261.7343998998246L649.8954566418546,272.70548988977936Z" style="opacity: 0;"/><path data-target="point-1-35" d="M667.0992093861306,261.7343998998246L863.5667663760491,561.6L897.5230604269186,561.6L684.4658901756628,249.49314008713347L668.4095316240484,258.86376124303615Z" style="opacity: 0;"/><path data-target="point-1-36" d="M684.4658901756628,249.49314008713347L897.5230604269186,561.6L932.8524023286512,561.6L701.7171869675503,236.6301861038022L687.0502068507789,244.47912312729977Z" style="opacity: 0;"/><path data-target="point-1-37" d="M701.7171869675503,236.6301861038022L932.8524023286512,561.6L936,561.6L936,516.1648879324948L718.8413179855928,223.12499821669837L705.8316379016917,229.5204112077583Z" style="opacity: 0;"/><path data-target="point-1-38" d="M718.8413179855928,223.12499821669837L936,516.1648879324948L936,468.21204295522426L735.8248400561813,208.95548088554068L724.769857056991,213.95596414359514Z" style="opacity: 0;"/><path data-target="point-1-39" d="M735.8248400561813,208.95548088554068L936,468.21204295522426L936,422.00828324732316L752.6527259050847,194.09766663545162L743.8829949634678,197.7532580422132Z" style="opacity: 0;"/><path data-target="point-1-40" d="M752.6527259050847,194.09766663545162L936,422.00828324732316L936,377.39925492657176L769.308038784918,178.5259666795188L763.1915337829433,180.87889013177332Z" style="opacity: 0;"/><path data-target="point-1-41" d="M769.308038784918,178.5259666795188L936,377.39925492657176L936,334.2348473299965L785.7717666303546,162.21317703084364L782.7184619088288,163.2985508569524Z" style="opacity: 0;"/><path data-target="point-1-42" d="M785.7717666303546,162.21317703084364L936,334.2348473299965L936,292.3733822958734L802.1766708716075,145.29939251176717Z" style="opacity: 0;"/><path data-target="point-1-43" d="M802.1766708716075,145.29939251176717L936,292.3733822958734L936,251.67484676924852L819.4675217907557,128.75527702619817L802.3355041804402,144.83673608150735Z" style="opacity: 0;"/><path data-target="point-1-44" d="M819.4675217907557,128.75527702619817L936,251.67484676924852L936,212.0066603252854L836.5832135102997,111.35867716208054L821.0947338691623,124.62744899099512Z" style="opacity: 0;"/><path data-target="point-1-45" d="M836.5832135102997,111.35867716208054L936,212.0066603252854L936,173.23922083631533L853.5046052575758,93.08124953482631L840.0585906802025,103.61731809582652Z" style="opacity: 0;"/><path data-target="point-1-46" d="M853.5046052575758,93.08124953482631L936,173.23922083631533L936,53.910483L924.1085366258394,53.910483L884.6501724129262,63.522095683314376L859.2516760214672,81.7623082067035Z" style="opacity: 0;"/></g><g class="series"><path data-target="point-0-0" d="M78.31037141823566,561.6L66.88112464912857,504.52739999999994L0,504.52739999999994L0,561.6Z" style="opacity: 0;"/><path data-target="point-0-1" d="M66.87886831081428,500.927544L66.88112464912857,504.52739999999994L78.31037141823566,561.6L96.34304665280007,561.6L84.78234353668572,500.927544Z" style="opacity: 0;"/><path data-target="point-0-2" d="M84.78234353668572,500.927544L96.34304665280007,561.6L115.55280888156425,561.6L102.66376754357142,497.23783199999997L84.82050240641428,497.23783199999997Z" style="opacity: 0;"/><path data-target="point-0-3" d="M102.66376754357142,497.23783199999997L115.55280888156425,561.6L134.21323017142862,561.6L120.62254065828571,493.840152L102.77024840785714,493.840152Z" style="opacity: 0;"/><path data-target="point-0-4" d="M120.62254065828571,493.840152L134.21323017142862,561.6L162.01246843939995,561.6L138.9294305186,490.366656L120.65628629219285,490.366656Z" style="opacity: 0;"/><path data-target="point-0-5" d="M138.30418544359998,485.452656L138.9294305186,490.366656L162.01246843939995,561.6L173.97160277614287,561.6L156.74177044474285,485.452656Z" style="opacity: 0;"/><path data-target="point-0-6" d="M156.21605417759997,481.38105599999994L156.74177044474285,485.452656L173.97160277614287,561.6L192.49560447871414,561.6L174.64617319814283,481.38105599999994Z" style="opacity: 0;"/><path data-target="point-0-7" d="M174.11291350977143,477.06235200000003L174.64617319814283,481.38105599999994L192.49560447871414,561.6L216.03498513020017,561.6L192.6677225024,477.06235200000003Z" style="opacity: 0;"/><path data-target="point-0-8" d="M192.0278657888,472.50496799999996L192.6677225024,477.06235200000003L216.03498513020017,561.6L236.08435953394266,561.6L210.73141358871428,472.50496799999996Z" style="opacity: 0;"/><path data-target="point-0-9" d="M209.81677816478572,467.759448L210.73141358871428,472.50496799999996L236.08435953394266,561.6L260.75823571392175,561.6L229.02596926891428,467.759448Z" style="opacity: 0;"/><path data-target="point-0-10" d="M183.96959192456976,336.1276684630711L227.27637426777142,461.63800799999996L246.95655399482854,461.63800799999996L245.13712514685713,455.244192L225.9324579547495,403.3121159577945Z" style="opacity: 0;"/><path data-target="point-0-11" d="M225.9324579547495,403.3121159577945L245.13712514685713,455.244192L265.3499485572857,455.244192L261.25907695242853,443.484288Z" style="opacity: 0;"/><path data-target="point-0-12" d="M41.46224885041204,0L54.566996177717996,35.844970092126346L69.78849897485149,75.02488734032858L137.90201186272657,239.42901997718616L172.06917237309472,313.73361575346263L183.96959192456976,336.1276684630711L225.9324579547495,403.3121159577945L261.25907695242853,443.484288L281.52605336240714,443.484288L282.3533700775857,435.41128799999996L76.85245998425734,0Z" style="opacity: 0;"/><path data-target="point-0-13" d="M76.85245998425734,0L282.3533700775857,435.41128799999996L299.26848816114284,435.41128799999996L300.25311055314285,428.86584L279.9998921276875,362.7864389416444L101.954025389029,0Z" style="opacity: 0;"/><path data-target="point-0-14" d="M279.9998921276875,362.7864389416444L300.25311055314285,428.86584L317.6768217248571,428.86584L317.8888964062286,418.914288Z" style="opacity: 0;"/><path data-target="point-0-15" d="M101.954025389029,0L279.9998921276875,362.7864389416444L317.8888964062286,418.914288L334.8146713762857,418.914288L336.59793545071426,409.58611199999996L117.10000662614283,0Z" style="opacity: 0;"/><path data-target="point-0-16" d="M117.10000662614283,0L336.59793545071426,409.58611199999996L352.5273909738286,409.58611199999996L353.2858585701714,406.57593599999996L356.6796584374696,382.1858032302174L273.93059637061475,208.24470230104976L161.2006735697997,0Z" style="opacity: 0;"/><path data-target="point-0-17" d="M353.2858585701714,406.57593599999996L372.46169564357143,406.57593599999996L368.8556903742857,393.35025599999994L356.6796584374696,382.1858032302174Z" style="opacity: 0;"/><path data-target="point-0-18" d="M273.93059637061475,208.24470230104976L356.6796584374696,382.1858032302174L368.8556903742857,393.35025599999994L387.9950141913143,393.35025599999994L391.43802805762857,382.966272Z" style="opacity: 0;"/><path data-target="point-0-19" d="M161.2006735697997,0L273.93059637061475,208.24470230104976L391.43802805762857,382.966272L405.1360459485714,382.966272L409.8817484685714,374.553504L223.00897917645713,0Z" style="opacity: 0;"/><path data-target="point-0-20" d="M223.00897917645713,0L409.8817484685714,374.553504L422.86341678503567,374.553504L427.7237358353571,367.01402399999995L272.44731148500006,0Z" style="opacity: 0;"/><path data-target="point-0-21" d="M272.44731148500006,0L427.7237358353571,367.01402399999995L440.9347243331714,367.01402399999995L445.1868730870857,361.05264L332.9407652059426,-5.684341886080802e-14Z" style="opacity: 0;"/><path data-target="point-0-22" d="M332.9407652059426,-5.684341886080802e-14L445.1868730870857,361.05264L459.115273328,361.05264L462.89402399942855,355.71744L363.45448406685796,0Z" style="opacity: 0;"/><path data-target="point-0-23" d="M363.45448406685796,0L462.89402399942855,355.71744L478.8820809582,355.71744L481.3706672376,353.150928L440.93531554975993,202.42139059558522L372.07399836983194,0Z" style="opacity: 0;"/><path data-target="point-0-24" d="M440.93531554975993,202.42139059558522L481.3706672376,353.150928L493.84634024699284,353.150928L499.94212860539284,345.60302399999995Z" style="opacity: 0;"/><path data-target="point-0-25" d="M372.07399836983194,0L440.93531554975993,202.42139059558522L499.94212860539284,345.60302399999995L512.4883517874285,345.60302399999995L518.4805844252857,339.186744L372.5324654710786,0Z" style="opacity: 0;"/><path data-target="point-0-26" d="M372.5324654710786,0L518.4805844252857,339.186744L531.0811172481428,339.186744L537.4085006063572,333.93578399999996L394.87099277545747,0Z" style="opacity: 0;"/><path data-target="point-0-27" d="M394.87099277545747,0L537.4085006063572,333.93578399999996L546.8503977338402,333.93578399999996L552.8450229874845,329.3227455L541.6561323200169,268.01626748722913L502.6530143631631,172.91163581549904L447.4237880186778,61.53249864877935L413.7956053538492,7.105427357601002e-15Z" style="opacity: 0;"/><path data-target="point-0-28" d="M541.6561323200169,268.01626748722913L552.8450229874845,329.3227455L564.1895137090642,329.3227455L574.1816609157007,319.0201095Z" style="opacity: 0;"/><path data-target="point-0-29" d="M502.6530143631631,172.91163581549904L541.6561323200169,268.01626748722913L574.1816609157007,319.0201095L581.4252640344126,319.0201095L592.9820764083402,308.2592355Z" style="opacity: 0;"/><path data-target="point-0-30" d="M447.4237880186778,61.53249864877935L502.6530143631631,172.91163581549904L592.9820764083402,308.2592355L598.575040910893,308.2592355L611.8981881585108,297.01971000000003Z" style="opacity: 0;"/><path data-target="point-0-31" d="M413.7956053538492,7.105427357601002e-15L447.4237880186778,61.53249864877935L611.8981881585108,297.01971000000003L615.6290604426841,297.01971L630.9439713156366,285.2802205L422.41895132909315,0Z" style="opacity: 0;"/><path data-target="point-0-32" d="M422.41895132909315,0L630.9439713156366,285.2802205L632.5762904659993,285.2802205L649.6275347124406,273.37268017070886L649.8954566418546,272.70548988977936L441.285633319417,0Z" style="opacity: 0;"/><path data-target="point-0-33" d="M441.285633319417,0L649.8954566418546,272.70548988977936L667.0992093861306,261.7343998998246L668.4095316240484,258.86376124303615L461.1722183788452,0Z" style="opacity: 0;"/><path data-target="point-0-34" d="M461.1722183788452,0L668.4095316240484,258.86376124303615L684.4658901756628,249.49314008713347L687.0502068507789,244.47912312729977L482.2203859419917,0Z" style="opacity: 0;"/><path data-target="point-0-35" d="M482.2203859419917,0L687.0502068507789,244.47912312729977L701.7171869675503,236.6301861038022L705.8316379016917,229.5204112077583L504.58500338035674,0Z" style="opacity: 0;"/><path data-target="point-0-36" d="M504.58500338035674,0L705.8316379016917,229.5204112077583L718.8413179855928,223.12499821669837L724.769857056991,213.95596414359514L528.4401272931593,0Z" style="opacity: 0;"/><path data-target="point-0-37" d="M528.4401272931593,0L724.769857056991,213.95596414359514L735.8248400561813,208.95548088554068L743.8829949634678,197.7532580422132L553.9765244024771,0Z" style="opacity: 0;"/><path data-target="point-0-38" d="M553.9765244024771,0L743.8829949634678,197.7532580422132L752.6527259050847,194.09766663545162L763.1915337829433,180.87889013177332L581.4058469027511,0Z" style="opacity: 0;"/><path data-target="point-0-39" d="M581.4058469027511,0L763.1915337829433,180.87889013177332L769.308038784918,178.5259666795188L782.7184619088288,163.2985508569524L610.9636523331973,0Z" style="opacity: 0;"/><path data-target="point-0-40" d="M610.9636523331973,0L782.7184619088288,163.2985508569524L785.7717666303546,162.21317703084364L802.1766708716075,145.29939251176717L802.3355041804402,144.83673608150735L642.9089482377158,0Z" style="opacity: 0;"/><path data-target="point-0-41" d="M642.9089482377158,0L802.3355041804402,144.83673608150735L819.4675217907557,128.75527702619817L821.0947338691623,124.62744899099512L677.5288921657698,0Z" style="opacity: 0;"/><path data-target="point-0-42" d="M677.5288921657698,0L821.0947338691623,124.62744899099512L836.5832135102997,111.35867716208054L840.0585906802025,103.61731809582652L715.140761113983,0Z" style="opacity: 0;"/><path data-target="point-0-43" d="M715.140761113983,0L840.0585906802025,103.61731809582652L853.5046052575758,93.08124953482631L859.2516760214672,81.7623082067035L756.0944074451842,0Z" style="opacity: 0;"/><path data-target="point-0-44" d="M756.0944074451842,0L859.2516760214672,81.7623082067035L884.6501724129262,63.522095683314376L800.7762388742021,0Z" style="opacity: 0;"/><path data-target="point-0-45" d="M800.7762388742021,0L884.6501724129262,63.522095683314376L924.1085366258394,53.910483L849.6130426656996,0Z" style="opacity: 0;"/><path data-target="point-0-46" d="M849.6130426656996,0L924.1085366258394,53.910483L936,53.910483L936,0Z" style="opacity: 0;"/><path data-target="point-1-0" d="M0,504.52739999999994L66.88112464912857,504.52739999999994L66.87886831081428,500.927544L0,169.04160820176025Z" style="opacity: 0;"/><path data-target="point-1-1" d="M0,169.04160820176025L66.87886831081428,500.927544L84.78234353668572,500.927544L84.82050240641428,497.23783199999997L0,113.8776119279126Z" style="opacity: 0;"/><path data-target="point-1-2" d="M0,113.8776119279126L84.82050240641428,497.23783199999997L102.66376754357142,497.23783199999997L102.77024840785714,493.840152L14.398875993579168,0L0,0Z" style="opacity: 0;"/><path data-target="point-1-3" d="M14.398875993579168,0L102.77024840785714,493.840152L120.62254065828571,493.840152L120.65628629219285,490.366656L28.91087409144975,0Z" style="opacity: 0;"/><path data-target="point-1-4" d="M28.91087409144975,0L120.65628629219285,490.366656L138.9294305186,490.366656L138.30418544359998,485.452656L29.3738107156574,0Z" style="opacity: 0;"/><path data-target="point-1-5" d="M29.3738107156574,0L138.30418544359998,485.452656L156.74177044474285,485.452656L156.21605417759997,481.38105599999994L54.566996177717996,35.844970092126346L41.46224885041204,0Z" style="opacity: 0;"/><path data-target="point-1-6" d="M54.566996177717996,35.844970092126346L156.21605417759997,481.38105599999994L174.64617319814283,481.38105599999994L174.11291350977143,477.06235200000003L69.78849897485149,75.02488734032858Z" style="opacity: 0;"/><path data-target="point-1-7" d="M69.78849897485149,75.02488734032858L174.11291350977143,477.06235200000003L192.6677225024,477.06235200000003L192.0278657888,472.50496799999996L137.90201186272657,239.42901997718616Z" style="opacity: 0;"/><path data-target="point-1-8" d="M137.90201186272657,239.42901997718616L192.0278657888,472.50496799999996L210.73141358871428,472.50496799999996L209.81677816478572,467.759448L172.06917237309472,313.73361575346263Z" style="opacity: 0;"/><path data-target="point-1-9" d="M172.06917237309472,313.73361575346263L209.81677816478572,467.759448L229.02596926891428,467.759448L227.27637426777142,461.63800799999996L183.96959192456976,336.1276684630711Z" style="opacity: 0;"/><path data-target="point-1-10" d="M227.27637426777142,461.63800799999996L229.02596926891428,467.759448L260.75823571392175,561.6L281.32268357842105,561.6L246.95655399482854,461.63800799999996Z" style="opacity: 0;"/><path data-target="point-1-11" d="M245.13712514685713,455.244192L246.95655399482854,461.63800799999996L281.32268357842105,561.6L311.41359860751453,561.6L265.3499485572857,455.244192Z" style="opacity: 0;"/><path data-target="point-1-12" d="M261.25907695242853,443.484288L265.3499485572857,455.244192L311.41359860751453,561.6L332.20180676823577,561.6L281.52605336240714,443.484288Z" style="opacity: 0;"/><path data-target="point-1-13" d="M281.52605336240714,443.484288L332.20180676823577,561.6L352.77509342447826,561.6L299.26848816114284,435.41128799999996L282.3533700775857,435.41128799999996Z" style="opacity: 0;"/><path data-target="point-1-14" d="M299.26848816114284,435.41128799999996L352.77509342447826,561.6L375.4979550484287,561.6L317.6768217248571,428.86584L300.25311055314285,428.86584Z" style="opacity: 0;"/><path data-target="point-1-15" d="M317.6768217248571,428.86584L375.4979550484287,561.6L406.89796430320007,561.6L334.8146713762857,418.914288L317.8888964062286,418.914288Z" style="opacity: 0;"/><path data-target="point-1-16" d="M334.8146713762857,418.914288L406.89796430320007,561.6L424.74973206937113,561.6L352.5273909738286,409.58611199999996L336.59793545071426,409.58611199999996Z" style="opacity: 0;"/><path data-target="point-1-17" d="M352.5273909738286,409.58611199999996L424.74973206937113,561.6L432.2193198852861,561.6L372.46169564357143,406.57593599999996L353.2858585701714,406.57593599999996Z" style="opacity: 0;"/><path data-target="point-1-18" d="M368.8556903742857,393.35025599999994L372.46169564357143,406.57593599999996L432.2193198852861,561.6L469.82928610514267,561.6L387.9950141913143,393.35025599999994Z" style="opacity: 0;"/><path data-target="point-1-19" d="M387.9950141913143,393.35025599999994L469.82928610514267,561.6L483.7355242461713,561.6L405.1360459485714,382.966272L391.43802805762857,382.966272Z" style="opacity: 0;"/><path data-target="point-1-20" d="M405.1360459485714,382.966272L483.7355242461713,561.6L501.11982957803605,561.6L422.86341678503567,374.553504L409.8817484685714,374.553504Z" style="opacity: 0;"/><path data-target="point-1-21" d="M422.86341678503567,374.553504L501.11982957803605,561.6L504.99925026652136,561.6L495.9872296576841,522.3333112289965L440.9347243331714,367.01402399999995L427.7237358353571,367.01402399999995Z" style="opacity: 0;"/><path data-target="point-1-22" d="M440.9347243331714,367.01402399999995L495.9872296576841,522.3333112289965L480.1917940571384,427.77160400486986L459.115273328,361.05264L445.1868730870857,361.05264Z" style="opacity: 0;"/><path data-target="point-1-23" d="M459.115273328,361.05264L480.1917940571384,427.77160400486986L478.8820809582,355.71744L462.89402399942855,355.71744Z" style="opacity: 0;"/><path data-target="point-1-24" d="M478.8820809582,355.71744L480.1917940571384,427.77160400486986L495.9872296576841,522.3333112289965L504.99925026652136,561.6L574.7510105220501,561.6L556.5691998997333,499.2841741196863L555.7930931412153,497.11658899050843L493.84634024699284,353.150928L481.3706672376,353.150928Z" style="opacity: 0;"/><path data-target="point-1-25" d="M493.84634024699284,353.150928L555.7930931412153,497.11658899050843L512.4883517874285,345.60302399999995L499.94212860539284,345.60302399999995Z" style="opacity: 0;"/><path data-target="point-1-26" d="M512.4883517874285,345.60302399999995L555.7930931412153,497.11658899050843L556.5691998997333,499.2841741196863L531.0811172481428,339.186744L518.4805844252857,339.186744Z" style="opacity: 0;"/><path data-target="point-1-27" d="M531.0811172481428,339.186744L556.5691998997333,499.2841741196863L574.7510105220501,561.6L622.5124528649387,561.6L546.8503977338402,333.93578399999996L537.4085006063572,333.93578399999996Z" style="opacity: 0;"/><path data-target="point-1-28" d="M546.8503977338402,333.93578399999996L622.5124528649387,561.6L683.1480671924758,561.6L564.1895137090642,329.3227455L552.8450229874845,329.3227455Z" style="opacity: 0;"/><path data-target="point-1-29" d="M564.1895137090642,329.3227455L683.1480671924758,561.6L710.8670171616258,561.6L581.4252640344126,319.0201095L574.1816609157007,319.0201095Z" style="opacity: 0;"/><path data-target="point-1-30" d="M581.4252640344126,319.0201095L710.8670171616258,561.6L739.4244759754469,561.6L598.575040910893,308.2592355L592.9820764083402,308.2592355Z" style="opacity: 0;"/><path data-target="point-1-31" d="M598.575040910893,308.2592355L739.4244759754469,561.6L768.8905892659598,561.6L615.6290604426841,297.01971L611.8981881585108,297.01971000000003Z" style="opacity: 0;"/><path data-target="point-1-32" d="M615.6290604426841,297.01971L768.8905892659598,561.6L799.3467033404885,561.6L632.5762904659993,285.2802205L630.9439713156366,285.2802205Z" style="opacity: 0;"/><path data-target="point-1-33" d="M632.5762904659993,285.2802205L799.3467033404885,561.6L830.8750546651538,561.6L649.6275347124406,273.37268017070886Z" style="opacity: 0;"/><path data-target="point-1-34" d="M649.6275347124406,273.37268017070886L830.8750546651538,561.6L863.5667663760491,561.6L667.0992093861306,261.7343998998246L649.8954566418546,272.70548988977936Z" style="opacity: 0;"/><path data-target="point-1-35" d="M667.0992093861306,261.7343998998246L863.5667663760491,561.6L897.5230604269186,561.6L684.4658901756628,249.49314008713347L668.4095316240484,258.86376124303615Z" style="opacity: 0;"/><path data-target="point-1-36" d="M684.4658901756628,249.49314008713347L897.5230604269186,561.6L932.8524023286512,561.6L701.7171869675503,236.6301861038022L687.0502068507789,244.47912312729977Z" style="opacity: 0;"/><path data-target="point-1-37" d="M701.7171869675503,236.6301861038022L932.8524023286512,561.6L936,561.6L936,516.1648879324948L718.8413179855928,223.12499821669837L705.8316379016917,229.5204112077583Z" style="opacity: 0;"/><path data-target="point-1-38" d="M718.8413179855928,223.12499821669837L936,516.1648879324948L936,468.21204295522426L735.8248400561813,208.95548088554068L724.769857056991,213.95596414359514Z" style="opacity: 0;"/><path data-target="point-1-39" d="M735.8248400561813,208.95548088554068L936,468.21204295522426L936,422.00828324732316L752.6527259050847,194.09766663545162L743.8829949634678,197.7532580422132Z" style="opacity: 0;"/><path data-target="point-1-40" d="M752.6527259050847,194.09766663545162L936,422.00828324732316L936,377.39925492657176L769.308038784918,178.5259666795188L763.1915337829433,180.87889013177332Z" style="opacity: 0;"/><path data-target="point-1-41" d="M769.308038784918,178.5259666795188L936,377.39925492657176L936,334.2348473299965L785.7717666303546,162.21317703084364L782.7184619088288,163.2985508569524Z" style="opacity: 0;"/><path data-target="point-1-42" d="M785.7717666303546,162.21317703084364L936,334.2348473299965L936,292.3733822958734L802.1766708716075,145.29939251176717Z" style="opacity: 0;"/><path data-target="point-1-43" d="M802.1766708716075,145.29939251176717L936,292.3733822958734L936,251.67484676924852L819.4675217907557,128.75527702619817L802.3355041804402,144.83673608150735Z" style="opacity: 0;"/><path data-target="point-1-44" d="M819.4675217907557,128.75527702619817L936,251.67484676924852L936,212.0066603252854L836.5832135102997,111.35867716208054L821.0947338691623,124.62744899099512Z" style="opacity: 0;"/><path data-target="point-1-45" d="M836.5832135102997,111.35867716208054L936,212.0066603252854L936,173.23922083631533L853.5046052575758,93.08124953482631L840.0585906802025,103.61731809582652Z" style="opacity: 0;"/><path data-target="point-1-46" d="M853.5046052575758,93.08124953482631L936,173.23922083631533L936,53.910483L924.1085366258394,53.910483L884.6501724129262,63.522095683314376L859.2516760214672,81.7623082067035Z" style="opacity: 0;"/></g></g><g class="axes"><g class="y axis" fill="none" font-size="10" font-family="sans-serif" text-anchor="end" style="font-family: &quot;Source Sans Pro&quot;;"><path class="domain" stroke="#eeeeee" d="M0.5,562.1V0.5" stroke-dasharray="0" style="visibility: hidden;"/><g class="tick" opacity="1" transform="translate(0,562.1)" style="visibility: visible;"><line stroke="#eeeeee" x2="936" stroke-dasharray="0"/><text fill="rgb(0, 0, 0)" x="3" dy="-0.33em" opacity="1" text-anchor="start" font-size="18">$0</text></g><g class="tick" opacity="1" transform="translate(0, 505.94000244140625)" style="visibility: visible;"><line stroke="#eeeeee" x2="936" stroke-dasharray="0"/><text fill="rgb(0, 0, 0)" x="3" dy="-0.33em" opacity="1" text-anchor="start" font-size="18">$10,000</text></g><g class="tick" opacity="1" transform="translate(0, 449.7799987792969)" style="visibility: visible;"><line stroke="#eeeeee" x2="936" stroke-dasharray="0"/><text fill="rgb(0, 0, 0)" x="3" dy="-0.33em" opacity="1" text-anchor="start" font-size="18">$20,000</text></g><g class="tick" opacity="1" transform="translate(0, 393.6199951171875)" style="visibility: visible;"><line stroke="#eeeeee" x2="936" stroke-dasharray="0"/><text fill="rgb(0, 0, 0)" x="3" dy="-0.33em" opacity="1" text-anchor="start" font-size="18">$30,000</text></g><g class="tick" opacity="1" transform="translate(0, 337.4599914550781)" style="visibility: visible;"><line stroke="#eeeeee" x2="936" stroke-dasharray="0"/><text fill="rgb(0, 0, 0)" x="3" dy="-0.33em" opacity="1" text-anchor="start" font-size="18">$40,000</text></g><g class="tick" opacity="1" transform="translate(0, 281.29998779296875)" style="visibility: visible;"><line stroke="#eeeeee" x2="936" stroke-dasharray="0"/><text fill="rgb(0, 0, 0)" x="3" dy="-0.33em" opacity="1" text-anchor="start" font-size="18">$50,000</text></g><g class="tick" opacity="1" transform="translate(0, 225.13999938964844)" style="visibility: visible;"><line stroke="#eeeeee" x2="936" stroke-dasharray="0"/><text fill="rgb(0, 0, 0)" x="3" dy="-0.33em" opacity="1" text-anchor="start" font-size="18">$60,000</text></g><g class="tick" opacity="1" transform="translate(0, 168.97999572753906)" style="visibility: visible;"><line stroke="#eeeeee" x2="936" stroke-dasharray="0"/><text fill="rgb(0, 0, 0)" x="3" dy="-0.33em" opacity="1" text-anchor="start" font-size="18">$70,000</text></g><g class="tick" opacity="1" transform="translate(0, 112.81999969482422)" style="visibility: visible;"><line stroke="#eeeeee" x2="936" stroke-dasharray="0"/><text fill="rgb(0, 0, 0)" x="3" dy="-0.33em" opacity="1" text-anchor="start" font-size="18">$80,000</text></g><g class="tick" opacity="1" transform="translate(0, 56.65999984741211)" style="visibility: visible;"><line stroke="#eeeeee" x2="936" stroke-dasharray="0"/><text fill="rgb(0, 0, 0)" x="3" dy="-0.33em" opacity="1" text-anchor="start" font-size="18">$90,000</text></g><g class="tick" opacity="1" transform="translate(0, 0.5)" style="visibility: visible;"><line stroke="#eeeeee" x2="936" stroke-dasharray="0"/><text fill="rgb(0, 0, 0)" x="3" dy="-0.33em" opacity="1" text-anchor="start" font-size="18">$100,000</text></g></g><g class="x axis" transform="translate(0,561.6)" fill="none" font-size="10" font-family="sans-serif" text-anchor="middle" style="font-family: &quot;Source Sans Pro&quot;;"><path class="domain" stroke="#eeeeee" d="M40.5,0.5H936.5" stroke-dasharray="0"/><g class="tick" opacity="1" transform="translate(40.5,0)"><line stroke="#eeeeee" y2="6" stroke-dasharray="0"/><text fill="rgb(0, 0, 0)" y="9" dy="-9" opacity="1" dominant-baseline="central" font-size="18" transform="translate(0, 15) rotate(-45)" dx="5" style="text-anchor: end; visibility: visible;">1990</text></g><g class="tick" opacity="1" transform="translate(130.10000000000002,0)"><line stroke="#eeeeee" y2="6" stroke-dasharray="0"/><text fill="rgb(0, 0, 0)" y="9" dy="-9" opacity="1" dominant-baseline="central" font-size="18" transform="translate(0, 15) rotate(-45)" dx="5" style="text-anchor: end; visibility: visible;">1995</text></g><g class="tick" opacity="1" transform="translate(219.70000000000002,0)"><line stroke="#eeeeee" y2="6" stroke-dasharray="0"/><text fill="rgb(0, 0, 0)" y="9" dy="-9" opacity="1" dominant-baseline="central" font-size="18" transform="translate(0, 15) rotate(-45)" dx="5" style="text-anchor: end; visibility: visible;">2000</text></g><g class="tick" opacity="1" transform="translate(309.3,0)"><line stroke="#eeeeee" y2="6" stroke-dasharray="0"/><text fill="rgb(0, 0, 0)" y="9" dy="-9" opacity="1" dominant-baseline="central" font-size="18" transform="translate(0, 15) rotate(-45)" dx="5" style="text-anchor: end; visibility: visible;">2005</text></g><g class="tick" opacity="1" transform="translate(398.90000000000003,0)"><line stroke="#eeeeee" y2="6" stroke-dasharray="0"/><text fill="rgb(0, 0, 0)" y="9" dy="-9" opacity="1" dominant-baseline="central" font-size="18" transform="translate(0, 15) rotate(-45)" dx="5" style="text-anchor: end; visibility: visible;">2010</text></g><g class="tick" opacity="1" transform="translate(488.5,0)"><line stroke="#eeeeee" y2="6" stroke-dasharray="0"/><text fill="rgb(0, 0, 0)" y="9" dy="-9" opacity="1" dominant-baseline="central" font-size="18" transform="translate(0, 15) rotate(-45)" dx="5" style="text-anchor: end; visibility: visible;">2015</text></g><g class="tick" opacity="1" transform="translate(578.1,0)"><line stroke="#eeeeee" y2="6" stroke-dasharray="0"/><text fill="rgb(0, 0, 0)" y="9" dy="-9" opacity="1" dominant-baseline="central" font-size="18" transform="translate(0, 15) rotate(-45)" dx="5" style="text-anchor: end; visibility: visible;">2020</text></g><g class="tick" opacity="1" transform="translate(667.6999999999999,0)"><line stroke="#eeeeee" y2="6" stroke-dasharray="0"/><text fill="rgb(0, 0, 0)" y="9" dy="-9" opacity="1" dominant-baseline="central" font-size="18" transform="translate(0, 15) rotate(-45)" dx="5" style="text-anchor: end; visibility: visible;">2025</text></g><g class="tick" opacity="1" transform="translate(757.3000000000001,0)"><line stroke="#eeeeee" y2="6" stroke-dasharray="0"/><text fill="rgb(0, 0, 0)" y="9" dy="-9" opacity="1" dominant-baseline="central" font-size="18" transform="translate(0, 15) rotate(-45)" dx="5" style="text-anchor: end; visibility: visible;">2030</text></g><g class="tick" opacity="1" transform="translate(846.9,0)"><line stroke="#eeeeee" y2="6" stroke-dasharray="0"/><text fill="rgb(0, 0, 0)" y="9" dy="-9" opacity="1" dominant-baseline="central" font-size="18" transform="translate(0, 15) rotate(-45)" dx="5" style="text-anchor: end; visibility: visible;">2035</text></g><g class="tick" opacity="1" transform="translate(936.5,0)"><line stroke="#eeeeee" y2="6" stroke-dasharray="0"/><text fill="rgb(0, 0, 0)" y="9" dy="-9" opacity="1" dominant-baseline="central" font-size="18" transform="translate(0, 15) rotate(-45)" dx="5" style="text-anchor: end; visibility: visible;">2040</text></g></g></g></g></g></g><g class="annotations below"><g class="axis-highlights" transform="translate(15, 20)" style="opacity: 1;"><g class="line x" transform="translate(559.68, 0)"><line width="0" stroke-dasharray="2 2" stroke="#333333" stroke-width="2" y2="561.6"/><text transform="translate(0, 6) rotate(-90)" fill="#333333" text-anchor="end" dy="-0.5em" font-size="12">Current</text></g></g></g><g id="areas"><g class="series" pointer-events="none"><path class="area" transform="translate(15,20)" fill-opacity="0" fill="rgb(17, 165, 121)" clip-path="url(#clip-0-0)" d="M57.92,506.316096C63.89333333333334,505.10538,69.86666666666667,503.89466400000003,75.84,502.72747200000003C81.81333333333333,501.56028000000003,87.78666666666666,500.480136,93.75999999999999,499.312944C99.73333333333333,498.145752,105.70666666666666,496.921464,111.68,495.72432000000003C117.65333333333335,494.52717600000005,123.62666666666668,493.69694400000003,129.60000000000002,492.13008C135.57333333333335,490.563216,141.54666666666665,487.96675200000004,147.51999999999998,486.32313600000003C153.4933333333333,484.67952,159.46666666666667,483.608736,165.44,482.268384C171.41333333333333,480.92803200000003,177.38666666666668,479.771136,183.36,478.281024C189.33333333333334,476.790912,195.30666666666667,475.003152,201.28,473.327712C207.25333333333333,471.65227200000004,213.2266666666667,470.26512,219.20000000000002,468.228384C225.17333333333335,466.191648,231.14666666666668,463.39862400000004,237.12,461.107296C243.09333333333333,458.815968,249.06666666666666,458.21131199999996,255.04,454.480416C261.0133333333333,450.74951999999996,266.9866666666667,442.757952,272.96000000000004,438.72192C278.93333333333334,434.68588800000003,284.9066666666667,432.589248,290.88,430.264224C296.85333333333335,427.9392,302.82666666666665,427.70332800000006,308.8,424.77177600000005C314.77333333333337,421.84022400000003,320.74666666666667,416.29161600000003,326.72,412.674912C332.6933333333334,409.058208,338.6666666666667,403.071552,344.64000000000004,403.071552C350.61333333333334,403.071552,356.5866666666667,405.565056,362.56,405.565056C368.53333333333336,405.565056,374.50666666666666,391.28731200000004,380.48,386.02137600000003C386.4533333333334,380.75544,392.4266666666667,377.468208,398.40000000000003,373.96944C404.37333333333333,370.47067200000004,410.3466666666667,367.78248,416.32,365.028768C422.29333333333335,362.275056,428.26666666666665,359.63928000000004,434.24,357.44716800000003C440.21333333333337,355.255056,446.18666666666667,353.63952,452.16,351.876096C458.1333333333333,350.11267200000003,464.1066666666667,348.502752,470.08,346.866624C476.05333333333334,345.230496,482.02666666666664,344.09138400000006,488,342.05932800000005C493.97333333333336,340.02727200000004,499.94666666666666,337.19025600000003,505.92,334.67428800000005C511.8933333333334,332.15832000000006,517.8666666666667,329.52348,523.84,326.96352C529.8133333333334,324.40356,535.7866666666666,321.13444896,541.76,319.314528C547.7333333333333,317.49460704,553.7066666666666,318.22435008,559.68,316.04399424C565.6533333333333,313.8636384,571.6266666666667,308.51415504000005,577.6,304.61627664C583.5733333333334,300.71839824000006,589.5466666666666,296.73599903999997,595.52,292.65672384C601.4933333333333,288.57744863999994,607.4666666666667,284.40974015999996,613.44,280.14062543999995C619.4133333333334,275.87151071999995,625.3866666666667,271.5098256,631.36,267.04203552C637.3333333333334,262.57424544,643.3066666666667,258.00959808000005,649.2800000000001,253.33388496000003C655.2533333333333,248.65817184000008,661.2266666666667,243.88107120000004,667.1999999999999,238.98775680000006C673.1733333333333,234.09444240000002,679.1466666666666,229.09504176000007,685.12,223.97399856000004C691.0933333333334,218.85295536000004,697.0666666666666,213.62086512,703.04,208.26149759999998C709.0133333333333,202.90213007999995,714.9866666666667,197.42656751999996,720.96,191.81779343999995C726.9333333333334,186.20901935999998,732.9066666666666,180.47864952000003,738.88,174.60885312000005C744.8533333333334,168.73905672000004,750.8266666666667,162.74198304000004,756.8000000000001,156.59901503999998C762.7733333333333,150.45604704000002,768.7466666666667,144.17989559999998,774.7199999999999,137.75104512000001C780.6933333333333,131.32219463999996,786.6666666666666,124.75395504,792.64,118.02591215999996C798.6133333333333,111.29786927999999,804.5866666666666,104.42394144000002,810.56,97.38278784000005C816.5333333333333,90.34163424000002,822.5066666666667,83.14781904000006,828.48,75.77899056000001C834.4533333333334,68.41016208000002,840.4266666666666,60.881577119999974,846.4,53.16981695999999C852.3733333333333,45.45805679999995,858.3466666666667,37.579080239999996,864.32,29.5084296C870.2933333333334,21.43777896000003,876.2666666666667,13.091846040000064,882.24,4.745913120000068L882.24,4.745913120000068C876.2666666666667,13.091846040000064,870.2933333333334,21.43777896000003,864.32,29.5084296C858.3466666666667,37.579080239999996,852.3733333333333,45.45805679999995,846.4,53.16981695999999C840.4266666666666,60.881577119999974,834.4533333333334,68.41016208000002,828.48,75.77899056000001C822.5066666666667,83.14781904000006,816.5333333333333,90.34163424000002,810.56,97.38278784000005C804.5866666666666,104.42394144000002,798.6133333333333,111.29786927999999,792.64,118.02591215999996C786.6666666666666,124.75395504,780.6933333333333,131.32219463999996,774.7199999999999,137.75104512000001C768.7466666666667,144.17989559999998,762.7733333333333,150.45604704000002,756.8000000000001,156.59901503999998C750.8266666666667,162.74198304000004,744.8533333333334,168.73905672000004,738.88,174.60885312000005C732.9066666666666,180.47864952000003,726.9333333333334,186.20901935999998,720.96,191.81779343999995C714.9866666666667,197.42656751999996,709.0133333333333,202.90213007999995,703.04,208.26149759999998C697.0666666666666,213.62086512,691.0933333333334,218.85295536000004,685.12,223.97399856000004C679.1466666666666,229.09504176000007,673.1733333333333,234.09444240000002,667.1999999999999,238.98775680000006C661.2266666666667,243.88107120000004,655.2533333333333,248.65817184000008,649.2800000000001,253.33388496000003C643.3066666666667,258.00959808000005,637.3333333333334,262.57424544,631.36,267.04203552C625.3866666666667,271.5098256,619.4133333333334,275.87151071999995,613.44,280.14062543999995C607.4666666666667,284.40974015999996,601.4933333333333,288.57744863999994,595.52,292.65672384C589.5466666666666,296.73599903999997,583.5733333333334,300.71839824000006,577.6,304.61627664C571.6266666666667,308.51415504000005,565.6533333333333,313.8636384,559.68,316.04399424C553.7066666666666,318.22435008,547.7333333333333,317.49460704,541.76,319.314528C535.7866666666666,321.13444896,529.8133333333334,324.40356,523.84,326.96352C517.8666666666667,329.52348,511.8933333333334,332.15832000000006,505.92,334.67428800000005C499.94666666666666,337.19025600000003,493.97333333333336,340.02727200000004,488,342.05932800000005C482.02666666666664,344.09138400000006,476.05333333333334,345.230496,470.08,346.866624C464.1066666666667,348.502752,458.1333333333333,350.11267200000003,452.16,351.876096C446.18666666666667,353.63952,440.21333333333337,355.255056,434.24,357.44716800000003C428.26666666666665,359.63928000000004,422.29333333333335,362.275056,416.32,365.028768C410.3466666666667,367.78248,404.37333333333333,370.47067200000004,398.40000000000003,373.96944C392.4266666666667,377.468208,386.4533333333334,380.75544,380.48,386.02137600000003C374.50666666666666,391.28731200000004,368.53333333333336,405.565056,362.56,405.565056C356.5866666666667,405.565056,350.61333333333334,403.071552,344.64000000000004,403.071552C338.6666666666667,403.071552,332.6933333333334,409.058208,326.72,412.674912C320.74666666666667,416.29161600000003,314.77333333333337,421.84022400000003,308.8,424.77177600000005C302.82666666666665,427.70332800000006,296.85333333333335,427.9392,290.88,430.264224C284.9066666666667,432.589248,278.93333333333334,434.68588800000003,272.96000000000004,438.72192C266.9866666666667,442.757952,261.0133333333333,450.74951999999996,255.04,454.480416C249.06666666666666,458.21131199999996,243.09333333333333,458.815968,237.12,461.107296C231.14666666666668,463.39862400000004,225.17333333333335,466.191648,219.20000000000002,468.228384C213.2266666666667,470.26512,207.25333333333333,471.65227200000004,201.28,473.327712C195.30666666666667,475.003152,189.33333333333334,476.790912,183.36,478.281024C177.38666666666668,479.771136,171.41333333333333,480.92803200000003,165.44,482.268384C159.46666666666667,483.608736,153.4933333333333,484.67952,147.51999999999998,486.32313600000003C141.54666666666665,487.96675200000004,135.57333333333335,490.563216,129.60000000000002,492.13008C123.62666666666668,493.69694400000003,117.65333333333335,494.52717600000005,111.68,495.72432000000003C105.70666666666666,496.921464,99.73333333333333,498.145752,93.75999999999999,499.312944C87.78666666666666,500.480136,81.81333333333333,501.56028000000003,75.84,502.72747200000003C69.86666666666667,503.89466400000003,63.89333333333334,505.10538,57.92,506.316096Z"/></g><g class="series" pointer-events="none"><path class="area" transform="translate(15,20)" fill-opacity="0" fill="rgb(128, 35, 146)" clip-path="url(#clip-0-1)" d="M57.92,502.73870400000004C63.89333333333334,501.56449200000003,69.86666666666667,500.39028,75.84,499.127616C81.81333333333333,497.864952,87.78666666666666,496.357992,93.75999999999999,495.16272000000004C99.73333333333333,493.96744800000005,105.70666666666666,493.0492320000001,111.68,491.95598400000006C117.65333333333335,490.86273600000004,123.62666666666668,489.83220000000006,129.60000000000002,488.60323200000005C135.57333333333335,487.37426400000004,141.54666666666665,485.93376,147.51999999999998,484.582176C153.4933333333333,483.230592,159.46666666666667,481.950144,165.44,480.49372800000003C171.41333333333333,479.03731200000004,177.38666666666668,477.312264,183.36,475.84368C189.33333333333334,474.375096,195.30666666666667,473.107752,201.28,471.682224C207.25333333333333,470.25669600000003,213.2266666666667,468.876096,219.20000000000002,467.29051200000004C225.17333333333335,465.70492800000005,231.14666666666668,464.049144,237.12,462.16872C243.09333333333333,460.288296,249.06666666666666,458.328312,255.04,456.007968C261.0133333333333,453.687624,266.9866666666667,450.821592,272.96000000000004,448.24665600000003C278.93333333333334,445.67172000000005,284.9066666666667,443.10614400000003,290.88,440.558352C296.85333333333335,438.01056,302.82666666666665,435.52735200000006,308.8,432.95990400000005C314.77333333333337,430.39245600000004,320.74666666666667,427.96353600000003,326.72,425.15366400000005C332.6933333333334,422.34379200000006,338.6666666666667,419.02848000000006,344.64000000000004,416.10067200000003C350.61333333333334,413.172864,356.5866666666667,410.157072,362.56,407.586816C368.53333333333336,405.01655999999997,374.50666666666666,403.28308799999996,380.48,400.67913599999997C386.4533333333334,398.075184,392.4266666666667,394.72992000000005,398.40000000000003,391.96310400000004C404.37333333333333,389.19628800000004,410.3466666666667,386.6419440000001,416.32,384.07824000000005C422.29333333333335,381.514536,428.26666666666665,378.889056,434.24,376.58088C440.21333333333337,374.272704,446.18666666666667,372.231288,452.16,370.22918400000003C458.1333333333333,368.22708000000006,464.1066666666667,364.785408,470.08,364.568256C476.05333333333334,364.351104,482.02666666666664,364.45968,488,364.242528C493.97333333333336,364.025376,499.94666666666666,358.67052,505.92,356.53176C511.8933333333334,354.39300000000003,517.8666666666667,352.73908800000004,523.84,351.40996800000005C529.8133333333334,350.08084800000006,535.7866666666666,350.02511856,541.76,348.55704000000003C547.7333333333333,347.08896144000005,553.7066666666666,345.12367968,559.68,342.60149664000005C565.6533333333333,340.07931360000003,571.6266666666667,336.54723336000006,577.6,333.42394176000005C583.5733333333334,330.3006501600001,589.5466666666666,327.11593824000005,595.52,323.86174704000007C601.4933333333333,320.60755584000003,607.4666666666667,317.2893516000001,613.44,313.89879456000006C619.4133333333334,310.5082375200001,625.3866666666667,307.05104664000004,631.36,303.51840480000004C637.3333333333334,299.98576296000005,643.3066666666667,296.38364184000005,649.2800000000001,292.70294352C655.2533333333333,289.02224520000004,661.2266666666667,285.26915664,667.1999999999999,281.43421488C673.1733333333333,277.59927311999996,679.1466666666666,273.68893656,685.12,269.69329296C691.0933333333334,265.69764936,697.0666666666666,261.62344728,703.04,257.46035328C709.0133333333333,253.29725928,714.9866666666667,249.05228400000001,720.96,244.71472896C726.9333333333334,240.37717392000002,732.9066666666666,235.95434928000003,738.88,231.43502304000003C744.8533333333334,226.91569680000003,750.8266666666667,222.30749736000004,756.8000000000001,217.59877152C762.7733333333333,212.89004568000004,768.7466666666667,208.08872135999994,774.7199999999999,203.18266799999998C780.6933333333333,198.27661463999996,786.6666666666666,193.27410648000006,792.64,188.16245136000003C798.6133333333333,183.05079624000007,804.5866666666666,177.83860536,810.56,172.51273728C816.5333333333333,167.1868692,822.5066666666667,161.75630016,828.48,156.20724287999997C834.4533333333334,150.6581856,840.4266666666666,145.00000007999998,846.4,139.2183936C852.3733333333333,133.43678712,858.3466666666667,127.54149408000002,864.32,121.517604C870.2933333333334,115.49371392000003,876.2666666666667,109.28438352000005,882.24,103.07505312000006L882.24,103.07505312000006C876.2666666666667,109.28438352000005,870.2933333333334,115.49371392000003,864.32,121.517604C858.3466666666667,127.54149408000002,852.3733333333333,133.43678712,846.4,139.2183936C840.4266666666666,145.00000007999998,834.4533333333334,150.6581856,828.48,156.20724287999997C822.5066666666667,161.75630016,816.5333333333333,167.1868692,810.56,172.51273728C804.5866666666666,177.83860536,798.6133333333333,183.05079624000007,792.64,188.16245136000003C786.6666666666666,193.27410648000006,780.6933333333333,198.27661463999996,774.7199999999999,203.18266799999998C768.7466666666667,208.08872135999994,762.7733333333333,212.89004568000004,756.8000000000001,217.59877152C750.8266666666667,222.30749736000004,744.8533333333334,226.91569680000003,738.88,231.43502304000003C732.9066666666666,235.95434928000003,726.9333333333334,240.37717392000002,720.96,244.71472896C714.9866666666667,249.05228400000001,709.0133333333333,253.29725928,703.04,257.46035328C697.0666666666666,261.62344728,691.0933333333334,265.69764936,685.12,269.69329296C679.1466666666666,273.68893656,673.1733333333333,277.59927311999996,667.1999999999999,281.43421488C661.2266666666667,285.26915664,655.2533333333333,289.02224520000004,649.2800000000001,292.70294352C643.3066666666667,296.38364184000005,637.3333333333334,299.98576296000005,631.36,303.51840480000004C625.3866666666667,307.05104664000004,619.4133333333334,310.5082375200001,613.44,313.89879456000006C607.4666666666667,317.2893516000001,601.4933333333333,320.60755584000003,595.52,323.86174704000007C589.5466666666666,327.11593824000005,583.5733333333334,330.3006501600001,577.6,333.42394176000005C571.6266666666667,336.54723336000006,565.6533333333333,340.07931360000003,559.68,342.60149664000005C553.7066666666666,345.12367968,547.7333333333333,347.08896144000005,541.76,348.55704000000003C535.7866666666666,350.02511856,529.8133333333334,350.08084800000006,523.84,351.40996800000005C517.8666666666667,352.73908800000004,511.8933333333334,354.39300000000003,505.92,356.53176C499.94666666666666,358.67052,493.97333333333336,364.025376,488,364.242528C482.02666666666664,364.45968,476.05333333333334,364.351104,470.08,364.568256C464.1066666666667,364.785408,458.1333333333333,368.22708000000006,452.16,370.22918400000003C446.18666666666667,372.231288,440.21333333333337,374.272704,434.24,376.58088C428.26666666666665,378.889056,422.29333333333335,381.514536,416.32,384.07824000000005C410.3466666666667,386.6419440000001,404.37333333333333,389.19628800000004,398.40000000000003,391.96310400000004C392.4266666666667,394.72992000000005,386.4533333333334,398.075184,380.48,400.67913599999997C374.50666666666666,403.28308799999996,368.53333333333336,405.01655999999997,362.56,407.586816C356.5866666666667,410.157072,350.61333333333334,413.172864,344.64000000000004,416.10067200000003C338.6666666666667,419.02848000000006,332.6933333333334,422.34379200000006,326.72,425.15366400000005C320.74666666666667,427.96353600000003,314.77333333333337,430.39245600000004,308.8,432.95990400000005C302.82666666666665,435.52735200000006,296.85333333333335,438.01056,290.88,440.558352C284.9066666666667,443.10614400000003,278.93333333333334,445.67172000000005,272.96000000000004,448.24665600000003C266.9866666666667,450.821592,261.0133333333333,453.687624,255.04,456.007968C249.06666666666666,458.328312,243.09333333333333,460.288296,237.12,462.16872C231.14666666666668,464.049144,225.17333333333335,465.70492800000005,219.20000000000002,467.29051200000004C213.2266666666667,468.876096,207.25333333333333,470.25669600000003,201.28,471.682224C195.30666666666667,473.107752,189.33333333333334,474.375096,183.36,475.84368C177.38666666666668,477.312264,171.41333333333333,479.03731200000004,165.44,480.49372800000003C159.46666666666667,481.950144,153.4933333333333,483.230592,147.51999999999998,484.582176C141.54666666666665,485.93376,135.57333333333335,487.37426400000004,129.60000000000002,488.60323200000005C123.62666666666668,489.83220000000006,117.65333333333335,490.86273600000004,111.68,491.95598400000006C105.70666666666666,493.0492320000001,99.73333333333333,493.96744800000005,93.75999999999999,495.16272000000004C87.78666666666666,496.357992,81.81333333333333,497.864952,75.84,499.127616C69.86666666666667,500.39028,63.89333333333334,501.56449200000003,57.92,502.73870400000004Z"/></g></g><g id="lines"><g class="series"><clipPath id="clip-0-0"><rect width="936" y="-20" height="599.6"/></clipPath><path class="line" opacity="1" fill="none" stroke="rgb(17, 165, 121)" stroke-width="2" transform="translate(15,20)" clip-path="url(#clip-0-0)" d="M57.92,506.316096C63.89333333333334,505.10538,69.86666666666667,503.89466400000003,75.84,502.72747200000003C81.81333333333333,501.56028000000003,87.78666666666666,500.480136,93.75999999999999,499.312944C99.73333333333333,498.145752,105.70666666666666,496.921464,111.68,495.72432000000003C117.65333333333335,494.52717600000005,123.62666666666668,493.69694400000003,129.60000000000002,492.13008C135.57333333333335,490.563216,141.54666666666665,487.96675200000004,147.51999999999998,486.32313600000003C153.4933333333333,484.67952,159.46666666666667,483.608736,165.44,482.268384C171.41333333333333,480.92803200000003,177.38666666666668,479.771136,183.36,478.281024C189.33333333333334,476.790912,195.30666666666667,475.003152,201.28,473.327712C207.25333333333333,471.65227200000004,213.2266666666667,470.26512,219.20000000000002,468.228384C225.17333333333335,466.191648,231.14666666666668,463.39862400000004,237.12,461.107296C243.09333333333333,458.815968,249.06666666666666,458.21131199999996,255.04,454.480416C261.0133333333333,450.74951999999996,266.9866666666667,442.757952,272.96000000000004,438.72192C278.93333333333334,434.68588800000003,284.9066666666667,432.589248,290.88,430.264224C296.85333333333335,427.9392,302.82666666666665,427.70332800000006,308.8,424.77177600000005C314.77333333333337,421.84022400000003,320.74666666666667,416.29161600000003,326.72,412.674912C332.6933333333334,409.058208,338.6666666666667,403.071552,344.64000000000004,403.071552C350.61333333333334,403.071552,356.5866666666667,405.565056,362.56,405.565056C368.53333333333336,405.565056,374.50666666666666,391.28731200000004,380.48,386.02137600000003C386.4533333333334,380.75544,392.4266666666667,377.468208,398.40000000000003,373.96944C404.37333333333333,370.47067200000004,410.3466666666667,367.78248,416.32,365.028768C422.29333333333335,362.275056,428.26666666666665,359.63928000000004,434.24,357.44716800000003C440.21333333333337,355.255056,446.18666666666667,353.63952,452.16,351.876096C458.1333333333333,350.11267200000003,464.1066666666667,348.502752,470.08,346.866624C476.05333333333334,345.230496,482.02666666666664,344.09138400000006,488,342.05932800000005C493.97333333333336,340.02727200000004,499.94666666666666,337.19025600000003,505.92,334.67428800000005C511.8933333333334,332.15832000000006,517.8666666666667,329.52348,523.84,326.96352C529.8133333333334,324.40356,535.7866666666666,321.13444896,541.76,319.314528C547.7333333333333,317.49460704,553.7066666666666,318.22435008,559.68,316.04399424C565.6533333333333,313.8636384,571.6266666666667,308.51415504000005,577.6,304.61627664C583.5733333333334,300.71839824000006,589.5466666666666,296.73599903999997,595.52,292.65672384C601.4933333333333,288.57744863999994,607.4666666666667,284.40974015999996,613.44,280.14062543999995C619.4133333333334,275.87151071999995,625.3866666666667,271.5098256,631.36,267.04203552C637.3333333333334,262.57424544,643.3066666666667,258.00959808000005,649.2800000000001,253.33388496000003C655.2533333333333,248.65817184000008,661.2266666666667,243.88107120000004,667.1999999999999,238.98775680000006C673.1733333333333,234.09444240000002,679.1466666666666,229.09504176000007,685.12,223.97399856000004C691.0933333333334,218.85295536000004,697.0666666666666,213.62086512,703.04,208.26149759999998C709.0133333333333,202.90213007999995,714.9866666666667,197.42656751999996,720.96,191.81779343999995C726.9333333333334,186.20901935999998,732.9066666666666,180.47864952000003,738.88,174.60885312000005C744.8533333333334,168.73905672000004,750.8266666666667,162.74198304000004,756.8000000000001,156.59901503999998C762.7733333333333,150.45604704000002,768.7466666666667,144.17989559999998,774.7199999999999,137.75104512000001C780.6933333333333,131.32219463999996,786.6666666666666,124.75395504,792.64,118.02591215999996C798.6133333333333,111.29786927999999,804.5866666666666,104.42394144000002,810.56,97.38278784000005C816.5333333333333,90.34163424000002,822.5066666666667,83.14781904000006,828.48,75.77899056000001C834.4533333333334,68.41016208000002,840.4266666666666,60.881577119999974,846.4,53.16981695999999C852.3733333333333,45.45805679999995,858.3466666666667,37.579080239999996,864.32,29.5084296C870.2933333333334,21.43777896000003,876.2666666666667,13.091846040000064,882.24,4.745913120000068"/><text class="label" font-size="11" alignment-baseline="middle" opacity="1" x="5" fill="rgb(17, 165, 121)" transform="translate(897.239990234375, 24.745912551879883)"/></g><g class="series"><clipPath id="clip-0-1"><rect width="936" y="-20" height="599.6"/></clipPath><path class="line" opacity="1" fill="none" stroke="rgb(128, 35, 146)" stroke-width="2" transform="translate(15,20)" clip-path="url(#clip-0-1)" d="M57.92,502.73870400000004C63.89333333333334,501.56449200000003,69.86666666666667,500.39028,75.84,499.127616C81.81333333333333,497.864952,87.78666666666666,496.357992,93.75999999999999,495.16272000000004C99.73333333333333,493.96744800000005,105.70666666666666,493.0492320000001,111.68,491.95598400000006C117.65333333333335,490.86273600000004,123.62666666666668,489.83220000000006,129.60000000000002,488.60323200000005C135.57333333333335,487.37426400000004,141.54666666666665,485.93376,147.51999999999998,484.582176C153.4933333333333,483.230592,159.46666666666667,481.950144,165.44,480.49372800000003C171.41333333333333,479.03731200000004,177.38666666666668,477.312264,183.36,475.84368C189.33333333333334,474.375096,195.30666666666667,473.107752,201.28,471.682224C207.25333333333333,470.25669600000003,213.2266666666667,468.876096,219.20000000000002,467.29051200000004C225.17333333333335,465.70492800000005,231.14666666666668,464.049144,237.12,462.16872C243.09333333333333,460.288296,249.06666666666666,458.328312,255.04,456.007968C261.0133333333333,453.687624,266.9866666666667,450.821592,272.96000000000004,448.24665600000003C278.93333333333334,445.67172000000005,284.9066666666667,443.10614400000003,290.88,440.558352C296.85333333333335,438.01056,302.82666666666665,435.52735200000006,308.8,432.95990400000005C314.77333333333337,430.39245600000004,320.74666666666667,427.96353600000003,326.72,425.15366400000005C332.6933333333334,422.34379200000006,338.6666666666667,419.02848000000006,344.64000000000004,416.10067200000003C350.61333333333334,413.172864,356.5866666666667,410.157072,362.56,407.586816C368.53333333333336,405.01655999999997,374.50666666666666,403.28308799999996,380.48,400.67913599999997C386.4533333333334,398.075184,392.4266666666667,394.72992000000005,398.40000000000003,391.96310400000004C404.37333333333333,389.19628800000004,410.3466666666667,386.6419440000001,416.32,384.07824000000005C422.29333333333335,381.514536,428.26666666666665,378.889056,434.24,376.58088C440.21333333333337,374.272704,446.18666666666667,372.231288,452.16,370.22918400000003C458.1333333333333,368.22708000000006,464.1066666666667,364.785408,470.08,364.568256C476.05333333333334,364.351104,482.02666666666664,364.45968,488,364.242528C493.97333333333336,364.025376,499.94666666666666,358.67052,505.92,356.53176C511.8933333333334,354.39300000000003,517.8666666666667,352.73908800000004,523.84,351.40996800000005C529.8133333333334,350.08084800000006,535.7866666666666,350.02511856,541.76,348.55704000000003C547.7333333333333,347.08896144000005,553.7066666666666,345.12367968,559.68,342.60149664000005C565.6533333333333,340.07931360000003,571.6266666666667,336.54723336000006,577.6,333.42394176000005C583.5733333333334,330.3006501600001,589.5466666666666,327.11593824000005,595.52,323.86174704000007C601.4933333333333,320.60755584000003,607.4666666666667,317.2893516000001,613.44,313.89879456000006C619.4133333333334,310.5082375200001,625.3866666666667,307.05104664000004,631.36,303.51840480000004C637.3333333333334,299.98576296000005,643.3066666666667,296.38364184000005,649.2800000000001,292.70294352C655.2533333333333,289.02224520000004,661.2266666666667,285.26915664,667.1999999999999,281.43421488C673.1733333333333,277.59927311999996,679.1466666666666,273.68893656,685.12,269.69329296C691.0933333333334,265.69764936,697.0666666666666,261.62344728,703.04,257.46035328C709.0133333333333,253.29725928,714.9866666666667,249.05228400000001,720.96,244.71472896C726.9333333333334,240.37717392000002,732.9066666666666,235.95434928000003,738.88,231.43502304000003C744.8533333333334,226.91569680000003,750.8266666666667,222.30749736000004,756.8000000000001,217.59877152C762.7733333333333,212.89004568000004,768.7466666666667,208.08872135999994,774.7199999999999,203.18266799999998C780.6933333333333,198.27661463999996,786.6666666666666,193.27410648000006,792.64,188.16245136000003C798.6133333333333,183.05079624000007,804.5866666666666,177.83860536,810.56,172.51273728C816.5333333333333,167.1868692,822.5066666666667,161.75630016,828.48,156.20724287999997C834.4533333333334,150.6581856,840.4266666666666,145.00000007999998,846.4,139.2183936C852.3733333333333,133.43678712,858.3466666666667,127.54149408000002,864.32,121.517604C870.2933333333334,115.49371392000003,876.2666666666667,109.28438352000005,882.24,103.07505312000006"/><text class="label" font-size="11" alignment-baseline="middle" opacity="1" x="5" fill="rgb(128, 35, 146)" transform="translate(897.239990234375, 123.0750503540039)"/></g></g><g id="data-points"><g class="series" transform="translate(15,20)"><path class="data-point" fill="rgb(17, 165, 121)" data-type="point" transform="translate(0, 0)" d="M54.92,506.316096A3,3,0,1,1,60.92,506.316096A3,3,0,1,1,54.92,506.316096Z" id="point-0-0" opacity="1"/><path class="data-point" fill="rgb(17, 165, 121)" data-type="point" transform="translate(0, 0)" d="M72.84,502.72747200000003A3,3,0,1,1,78.84,502.72747200000003A3,3,0,1,1,72.84,502.72747200000003Z" id="point-0-1" opacity="1"/><path class="data-point" fill="rgb(17, 165, 121)" data-type="point" transform="translate(0, 0)" d="M90.75999999999999,499.312944A3,3,0,1,1,96.75999999999999,499.312944A3,3,0,1,1,90.75999999999999,499.312944Z" id="point-0-2" opacity="1"/><path class="data-point" fill="rgb(17, 165, 121)" data-type="point" transform="translate(0, 0)" d="M108.68,495.72432000000003A3,3,0,1,1,114.68,495.72432000000003A3,3,0,1,1,108.68,495.72432000000003Z" id="point-0-3" opacity="1"/><path class="data-point" fill="rgb(17, 165, 121)" data-type="point" transform="translate(0, 0)" d="M126.60000000000002,492.13008A3,3,0,1,1,132.60000000000002,492.13008A3,3,0,1,1,126.60000000000002,492.13008Z" id="point-0-4" opacity="1"/><path class="data-point" fill="rgb(17, 165, 121)" data-type="point" transform="translate(0, 0)" d="M144.51999999999998,486.32313600000003A3,3,0,1,1,150.51999999999998,486.32313600000003A3,3,0,1,1,144.51999999999998,486.32313600000003Z" id="point-0-5" opacity="1"/><path class="data-point" fill="rgb(17, 165, 121)" data-type="point" transform="translate(0, 0)" d="M162.44,482.268384A3,3,0,1,1,168.44,482.268384A3,3,0,1,1,162.44,482.268384Z" id="point-0-6" opacity="1"/><path class="data-point" fill="rgb(17, 165, 121)" data-type="point" transform="translate(0, 0)" d="M180.36,478.281024A3,3,0,1,1,186.36,478.281024A3,3,0,1,1,180.36,478.281024Z" id="point-0-7" opacity="1"/><path class="data-point" fill="rgb(17, 165, 121)" data-type="point" transform="translate(0, 0)" d="M198.28,473.327712A3,3,0,1,1,204.28,473.327712A3,3,0,1,1,198.28,473.327712Z" id="point-0-8" opacity="1"/><path class="data-point" fill="rgb(17, 165, 121)" data-type="point" transform="translate(0, 0)" d="M216.20000000000002,468.228384A3,3,0,1,1,222.20000000000002,468.228384A3,3,0,1,1,216.20000000000002,468.228384Z" id="point-0-9" opacity="1"/><path class="data-point" fill="rgb(17, 165, 121)" data-type="point" transform="translate(0, 0)" d="M234.12,461.107296A3,3,0,1,1,240.12,461.107296A3,3,0,1,1,234.12,461.107296Z" id="point-0-10" opacity="1"/><path class="data-point" fill="rgb(17, 165, 121)" data-type="point" transform="translate(0, 0)" d="M252.04,454.480416A3,3,0,1,1,258.03999999999996,454.480416A3,3,0,1,1,252.04,454.480416Z" id="point-0-11" opacity="1"/><path class="data-point" fill="rgb(17, 165, 121)" data-type="point" transform="translate(0, 0)" d="M269.96000000000004,438.72192A3,3,0,1,1,275.96000000000004,438.72192A3,3,0,1,1,269.96000000000004,438.72192Z" id="point-0-12" opacity="1"/><path class="data-point" fill="rgb(17, 165, 121)" data-type="point" transform="translate(0, 0)" d="M287.88,430.264224A3,3,0,1,1,293.88,430.264224A3,3,0,1,1,287.88,430.264224Z" id="point-0-13" opacity="1"/><path class="data-point" fill="rgb(17, 165, 121)" data-type="point" transform="translate(0, 0)" d="M305.8,424.77177600000005A3,3,0,1,1,311.8,424.77177600000005A3,3,0,1,1,305.8,424.77177600000005Z" id="point-0-14" opacity="1"/><path class="data-point" fill="rgb(17, 165, 121)" data-type="point" transform="translate(0, 0)" d="M323.72,412.674912A3,3,0,1,1,329.72,412.674912A3,3,0,1,1,323.72,412.674912Z" id="point-0-15" opacity="1"/><path class="data-point" fill="rgb(17, 165, 121)" data-type="point" transform="translate(0, 0)" d="M341.64000000000004,403.071552A3,3,0,1,1,347.64000000000004,403.071552A3,3,0,1,1,341.64000000000004,403.071552Z" id="point-0-16" opacity="1"/><path class="data-point" fill="rgb(17, 165, 121)" data-type="point" transform="translate(0, 0)" d="M359.56,405.565056A3,3,0,1,1,365.56,405.565056A3,3,0,1,1,359.56,405.565056Z" id="point-0-17" opacity="1"/><path class="data-point" fill="rgb(17, 165, 121)" data-type="point" transform="translate(0, 0)" d="M377.48,386.02137600000003A3,3,0,1,1,383.48,386.02137600000003A3,3,0,1,1,377.48,386.02137600000003Z" id="point-0-18" opacity="1"/><path class="data-point" fill="rgb(17, 165, 121)" data-type="point" transform="translate(0, 0)" d="M395.40000000000003,373.96944A3,3,0,1,1,401.40000000000003,373.96944A3,3,0,1,1,395.40000000000003,373.96944Z" id="point-0-19" opacity="1"/><path class="data-point" fill="rgb(17, 165, 121)" data-type="point" transform="translate(0, 0)" d="M413.32,365.028768A3,3,0,1,1,419.32,365.028768A3,3,0,1,1,413.32,365.028768Z" id="point-0-20" opacity="1"/><path class="data-point" fill="rgb(17, 165, 121)" data-type="point" transform="translate(0, 0)" d="M431.24,357.44716800000003A3,3,0,1,1,437.24,357.44716800000003A3,3,0,1,1,431.24,357.44716800000003Z" id="point-0-21" opacity="1"/><path class="data-point" fill="rgb(17, 165, 121)" data-type="point" transform="translate(0, 0)" d="M449.16,351.876096A3,3,0,1,1,455.16,351.876096A3,3,0,1,1,449.16,351.876096Z" id="point-0-22" opacity="1"/><path class="data-point" fill="rgb(17, 165, 121)" data-type="point" transform="translate(0, 0)" d="M467.08,346.866624A3,3,0,1,1,473.08,346.866624A3,3,0,1,1,467.08,346.866624Z" id="point-0-23" opacity="1"/><path class="data-point" fill="rgb(17, 165, 121)" data-type="point" transform="translate(0, 0)" d="M485,342.05932800000005A3,3,0,1,1,491,342.05932800000005A3,3,0,1,1,485,342.05932800000005Z" id="point-0-24" opacity="1"/><path class="data-point" fill="rgb(17, 165, 121)" data-type="point" transform="translate(0, 0)" d="M502.92,334.67428800000005A3,3,0,1,1,508.92,334.67428800000005A3,3,0,1,1,502.92,334.67428800000005Z" id="point-0-25" opacity="1"/><path class="data-point" fill="rgb(17, 165, 121)" data-type="point" transform="translate(0, 0)" d="M520.84,326.96352A3,3,0,1,1,526.84,326.96352A3,3,0,1,1,520.84,326.96352Z" id="point-0-26" opacity="1"/><path class="data-point" fill="rgb(17, 165, 121)" data-type="point" transform="translate(0, 0)" d="M538.76,319.314528A3,3,0,1,1,544.76,319.314528A3,3,0,1,1,538.76,319.314528Z" id="point-0-27" opacity="1"/><path class="data-point" fill="rgb(17, 165, 121)" data-type="point" transform="translate(0, 0)" d="M556.68,316.04399424A3,3,0,1,1,562.68,316.04399424A3,3,0,1,1,556.68,316.04399424Z" id="point-0-28" opacity="1"/><path class="data-point" fill="rgb(17, 165, 121)" data-type="point" transform="translate(0, 0)" d="M574.6,304.61627664A3,3,0,1,1,580.6,304.61627664A3,3,0,1,1,574.6,304.61627664Z" id="point-0-29" opacity="1"/><path class="data-point" fill="rgb(17, 165, 121)" data-type="point" transform="translate(0, 0)" d="M592.52,292.65672384A3,3,0,1,1,598.52,292.65672384A3,3,0,1,1,592.52,292.65672384Z" id="point-0-30" opacity="1"/><path class="data-point" fill="rgb(17, 165, 121)" data-type="point" transform="translate(0, 0)" d="M610.44,280.14062543999995A3,3,0,1,1,616.44,280.14062543999995A3,3,0,1,1,610.44,280.14062543999995Z" id="point-0-31" opacity="1"/><path class="data-point" fill="rgb(17, 165, 121)" data-type="point" transform="translate(0, 0)" d="M628.36,267.04203552A3,3,0,1,1,634.36,267.04203552A3,3,0,1,1,628.36,267.04203552Z" id="point-0-32" opacity="1"/><path class="data-point" fill="rgb(17, 165, 121)" data-type="point" transform="translate(0, 0)" d="M646.2800000000001,253.33388496000003A3,3,0,1,1,652.2800000000001,253.33388496000003A3,3,0,1,1,646.2800000000001,253.33388496000003Z" id="point-0-33" opacity="1"/><path class="data-point" fill="rgb(17, 165, 121)" data-type="point" transform="translate(0, 0)" d="M664.1999999999999,238.98775680000006A3,3,0,1,1,670.1999999999999,238.98775680000006A3,3,0,1,1,664.1999999999999,238.98775680000006Z" id="point-0-34" opacity="1"/><path class="data-point" fill="rgb(17, 165, 121)" data-type="point" transform="translate(0, 0)" d="M682.12,223.97399856000004A3,3,0,1,1,688.12,223.97399856000004A3,3,0,1,1,682.12,223.97399856000004Z" id="point-0-35" opacity="1"/><path class="data-point" fill="rgb(17, 165, 121)" data-type="point" transform="translate(0, 0)" d="M700.04,208.26149759999998A3,3,0,1,1,706.04,208.26149759999998A3,3,0,1,1,700.04,208.26149759999998Z" id="point-0-36" opacity="1"/><path class="data-point" fill="rgb(17, 165, 121)" data-type="point" transform="translate(0, 0)" d="M717.96,191.81779343999995A3,3,0,1,1,723.96,191.81779343999995A3,3,0,1,1,717.96,191.81779343999995Z" id="point-0-37" opacity="1"/><path class="data-point" fill="rgb(17, 165, 121)" data-type="point" transform="translate(0, 0)" d="M735.88,174.60885312000005A3,3,0,1,1,741.88,174.60885312000005A3,3,0,1,1,735.88,174.60885312000005Z" id="point-0-38" opacity="1"/><path class="data-point" fill="rgb(17, 165, 121)" data-type="point" transform="translate(0, 0)" d="M753.8000000000001,156.59901503999998A3,3,0,1,1,759.8000000000001,156.59901503999998A3,3,0,1,1,753.8000000000001,156.59901503999998Z" id="point-0-39" opacity="1"/><path class="data-point" fill="rgb(17, 165, 121)" data-type="point" transform="translate(0, 0)" d="M771.7199999999999,137.75104512000001A3,3,0,1,1,777.7199999999999,137.75104512000001A3,3,0,1,1,771.7199999999999,137.75104512000001Z" id="point-0-40" opacity="1"/><path class="data-point" fill="rgb(17, 165, 121)" data-type="point" transform="translate(0, 0)" d="M789.64,118.02591215999996A3,3,0,1,1,795.64,118.02591215999996A3,3,0,1,1,789.64,118.02591215999996Z" id="point-0-41" opacity="1"/><path class="data-point" fill="rgb(17, 165, 121)" data-type="point" transform="translate(0, 0)" d="M807.56,97.38278784000005A3,3,0,1,1,813.56,97.38278784000005A3,3,0,1,1,807.56,97.38278784000005Z" id="point-0-42" opacity="1"/><path class="data-point" fill="rgb(17, 165, 121)" data-type="point" transform="translate(0, 0)" d="M825.48,75.77899056000001A3,3,0,1,1,831.48,75.77899056000001A3,3,0,1,1,825.48,75.77899056000001Z" id="point-0-43" opacity="1"/><path class="data-point" fill="rgb(17, 165, 121)" data-type="point" transform="translate(0, 0)" d="M843.4,53.16981695999999A3,3,0,1,1,849.4,53.16981695999999A3,3,0,1,1,843.4,53.16981695999999Z" id="point-0-44" opacity="1"/><path class="data-point" fill="rgb(17, 165, 121)" data-type="point" transform="translate(0, 0)" d="M861.32,29.5084296A3,3,0,1,1,867.32,29.5084296A3,3,0,1,1,861.32,29.5084296Z" id="point-0-45" opacity="1"/><path class="data-point" fill="rgb(17, 165, 121)" data-type="point" transform="translate(0, 0)" d="M879.24,4.745913120000068A3,3,0,1,1,885.24,4.745913120000068A3,3,0,1,1,879.24,4.745913120000068Z" id="point-0-46" opacity="1"/></g><g class="series" transform="translate(15,20)"><path class="data-point" fill="rgb(128, 35, 146)" data-type="point" transform="translate(0, 0)" d="M54.92,502.73870400000004A3,3,0,1,1,60.92,502.73870400000004A3,3,0,1,1,54.92,502.73870400000004Z" id="point-1-0" opacity="1"/><path class="data-point" fill="rgb(128, 35, 146)" data-type="point" transform="translate(0, 0)" d="M72.84,499.127616A3,3,0,1,1,78.84,499.127616A3,3,0,1,1,72.84,499.127616Z" id="point-1-1" opacity="1"/><path class="data-point" fill="rgb(128, 35, 146)" data-type="point" transform="translate(0, 0)" d="M90.75999999999999,495.16272000000004A3,3,0,1,1,96.75999999999999,495.16272000000004A3,3,0,1,1,90.75999999999999,495.16272000000004Z" id="point-1-2" opacity="1"/><path class="data-point" fill="rgb(128, 35, 146)" data-type="point" transform="translate(0, 0)" d="M108.68,491.95598400000006A3,3,0,1,1,114.68,491.95598400000006A3,3,0,1,1,108.68,491.95598400000006Z" id="point-1-3" opacity="1"/><path class="data-point" fill="rgb(128, 35, 146)" data-type="point" transform="translate(0, 0)" d="M126.60000000000002,488.60323200000005A3,3,0,1,1,132.60000000000002,488.60323200000005A3,3,0,1,1,126.60000000000002,488.60323200000005Z" id="point-1-4" opacity="1"/><path class="data-point" fill="rgb(128, 35, 146)" data-type="point" transform="translate(0, 0)" d="M144.51999999999998,484.582176A3,3,0,1,1,150.51999999999998,484.582176A3,3,0,1,1,144.51999999999998,484.582176Z" id="point-1-5" opacity="1"/><path class="data-point" fill="rgb(128, 35, 146)" data-type="point" transform="translate(0, 0)" d="M162.44,480.49372800000003A3,3,0,1,1,168.44,480.49372800000003A3,3,0,1,1,162.44,480.49372800000003Z" id="point-1-6" opacity="1"/><path class="data-point" fill="rgb(128, 35, 146)" data-type="point" transform="translate(0, 0)" d="M180.36,475.84368A3,3,0,1,1,186.36,475.84368A3,3,0,1,1,180.36,475.84368Z" id="point-1-7" opacity="1"/><path class="data-point" fill="rgb(128, 35, 146)" data-type="point" transform="translate(0, 0)" d="M198.28,471.682224A3,3,0,1,1,204.28,471.682224A3,3,0,1,1,198.28,471.682224Z" id="point-1-8" opacity="1"/><path class="data-point" fill="rgb(128, 35, 146)" data-type="point" transform="translate(0, 0)" d="M216.20000000000002,467.29051200000004A3,3,0,1,1,222.20000000000002,467.29051200000004A3,3,0,1,1,216.20000000000002,467.29051200000004Z" id="point-1-9" opacity="1"/><path class="data-point" fill="rgb(128, 35, 146)" data-type="point" transform="translate(0, 0)" d="M234.12,462.16872A3,3,0,1,1,240.12,462.16872A3,3,0,1,1,234.12,462.16872Z" id="point-1-10" opacity="1"/><path class="data-point" fill="rgb(128, 35, 146)" data-type="point" transform="translate(0, 0)" d="M252.04,456.007968A3,3,0,1,1,258.03999999999996,456.007968A3,3,0,1,1,252.04,456.007968Z" id="point-1-11" opacity="1"/><path class="data-point" fill="rgb(128, 35, 146)" data-type="point" transform="translate(0, 0)" d="M269.96000000000004,448.24665600000003A3,3,0,1,1,275.96000000000004,448.24665600000003A3,3,0,1,1,269.96000000000004,448.24665600000003Z" id="point-1-12" opacity="1"/><path class="data-point" fill="rgb(128, 35, 146)" data-type="point" transform="translate(0, 0)" d="M287.88,440.558352A3,3,0,1,1,293.88,440.558352A3,3,0,1,1,287.88,440.558352Z" id="point-1-13" opacity="1"/><path class="data-point" fill="rgb(128, 35, 146)" data-type="point" transform="translate(0, 0)" d="M305.8,432.95990400000005A3,3,0,1,1,311.8,432.95990400000005A3,3,0,1,1,305.8,432.95990400000005Z" id="point-1-14" opacity="1"/><path class="data-point" fill="rgb(128, 35, 146)" data-type="point" transform="translate(0, 0)" d="M323.72,425.15366400000005A3,3,0,1,1,329.72,425.15366400000005A3,3,0,1,1,323.72,425.15366400000005Z" id="point-1-15" opacity="1"/><path class="data-point" fill="rgb(128, 35, 146)" data-type="point" transform="translate(0, 0)" d="M341.64000000000004,416.10067200000003A3,3,0,1,1,347.64000000000004,416.10067200000003A3,3,0,1,1,341.64000000000004,416.10067200000003Z" id="point-1-16" opacity="1"/><path class="data-point" fill="rgb(128, 35, 146)" data-type="point" transform="translate(0, 0)" d="M359.56,407.586816A3,3,0,1,1,365.56,407.586816A3,3,0,1,1,359.56,407.586816Z" id="point-1-17" opacity="1"/><path class="data-point" fill="rgb(128, 35, 146)" data-type="point" transform="translate(0, 0)" d="M377.48,400.67913599999997A3,3,0,1,1,383.48,400.67913599999997A3,3,0,1,1,377.48,400.67913599999997Z" id="point-1-18" opacity="1"/><path class="data-point" fill="rgb(128, 35, 146)" data-type="point" transform="translate(0, 0)" d="M395.40000000000003,391.96310400000004A3,3,0,1,1,401.40000000000003,391.96310400000004A3,3,0,1,1,395.40000000000003,391.96310400000004Z" id="point-1-19" opacity="1"/><path class="data-point" fill="rgb(128, 35, 146)" data-type="point" transform="translate(0, 0)" d="M413.32,384.07824000000005A3,3,0,1,1,419.32,384.07824000000005A3,3,0,1,1,413.32,384.07824000000005Z" id="point-1-20" opacity="1"/><path class="data-point" fill="rgb(128, 35, 146)" data-type="point" transform="translate(0, 0)" d="M431.24,376.58088A3,3,0,1,1,437.24,376.58088A3,3,0,1,1,431.24,376.58088Z" id="point-1-21" opacity="1"/><path class="data-point" fill="rgb(128, 35, 146)" data-type="point" transform="translate(0, 0)" d="M449.16,370.22918400000003A3,3,0,1,1,455.16,370.22918400000003A3,3,0,1,1,449.16,370.22918400000003Z" id="point-1-22" opacity="1"/><path class="data-point" fill="rgb(128, 35, 146)" data-type="point" transform="translate(0, 0)" d="M467.08,364.568256A3,3,0,1,1,473.08,364.568256A3,3,0,1,1,467.08,364.568256Z" id="point-1-23" opacity="1"/><path class="data-point" fill="rgb(128, 35, 146)" data-type="point" transform="translate(0, 0)" d="M485,364.242528A3,3,0,1,1,491,364.242528A3,3,0,1,1,485,364.242528Z" id="point-1-24" opacity="1"/><path class="data-point" fill="rgb(128, 35, 146)" data-type="point" transform="translate(0, 0)" d="M502.92,356.53176A3,3,0,1,1,508.92,356.53176A3,3,0,1,1,502.92,356.53176Z" id="point-1-25" opacity="1"/><path class="data-point" fill="rgb(128, 35, 146)" data-type="point" transform="translate(0, 0)" d="M520.84,351.40996800000005A3,3,0,1,1,526.84,351.40996800000005A3,3,0,1,1,520.84,351.40996800000005Z" id="point-1-26" opacity="1"/><path class="data-point" fill="rgb(128, 35, 146)" data-type="point" transform="translate(0, 0)" d="M538.76,348.55704000000003A3,3,0,1,1,544.76,348.55704000000003A3,3,0,1,1,538.76,348.55704000000003Z" id="point-1-27" opacity="1"/><path class="data-point" fill="rgb(128, 35, 146)" data-type="point" transform="translate(0, 0)" d="M556.68,342.60149664000005A3,3,0,1,1,562.68,342.60149664000005A3,3,0,1,1,556.68,342.60149664000005Z" id="point-1-28" opacity="1"/><path class="data-point" fill="rgb(128, 35, 146)" data-type="point" transform="translate(0, 0)" d="M574.6,333.42394176000005A3,3,0,1,1,580.6,333.42394176000005A3,3,0,1,1,574.6,333.42394176000005Z" id="point-1-29" opacity="1"/><path class="data-point" fill="rgb(128, 35, 146)" data-type="point" transform="translate(0, 0)" d="M592.52,323.86174704000007A3,3,0,1,1,598.52,323.86174704000007A3,3,0,1,1,592.52,323.86174704000007Z" id="point-1-30" opacity="1"/><path class="data-point" fill="rgb(128, 35, 146)" data-type="point" transform="translate(0, 0)" d="M610.44,313.89879456000006A3,3,0,1,1,616.44,313.89879456000006A3,3,0,1,1,610.44,313.89879456000006Z" id="point-1-31" opacity="1"/><path class="data-point" fill="rgb(128, 35, 146)" data-type="point" transform="translate(0, 0)" d="M628.36,303.51840480000004A3,3,0,1,1,634.36,303.51840480000004A3,3,0,1,1,628.36,303.51840480000004Z" id="point-1-32" opacity="1"/><path class="data-point" fill="rgb(128, 35, 146)" data-type="point" transform="translate(0, 0)" d="M646.2800000000001,292.70294352A3,3,0,1,1,652.2800000000001,292.70294352A3,3,0,1,1,646.2800000000001,292.70294352Z" id="point-1-33" opacity="1"/><path class="data-point" fill="rgb(128, 35, 146)" data-type="point" transform="translate(0, 0)" d="M664.1999999999999,281.43421488A3,3,0,1,1,670.1999999999999,281.43421488A3,3,0,1,1,664.1999999999999,281.43421488Z" id="point-1-34" opacity="1"/><path class="data-point" fill="rgb(128, 35, 146)" data-type="point" transform="translate(0, 0)" d="M682.12,269.69329296A3,3,0,1,1,688.12,269.69329296A3,3,0,1,1,682.12,269.69329296Z" id="point-1-35" opacity="1"/><path class="data-point" fill="rgb(128, 35, 146)" data-type="point" transform="translate(0, 0)" d="M700.04,257.46035328A3,3,0,1,1,706.04,257.46035328A3,3,0,1,1,700.04,257.46035328Z" id="point-1-36" opacity="1"/><path class="data-point" fill="rgb(128, 35, 146)" data-type="point" transform="translate(0, 0)" d="M717.96,244.71472896A3,3,0,1,1,723.96,244.71472896A3,3,0,1,1,717.96,244.71472896Z" id="point-1-37" opacity="1"/><path class="data-point" fill="rgb(128, 35, 146)" data-type="point" transform="translate(0, 0)" d="M735.88,231.43502304000003A3,3,0,1,1,741.88,231.43502304000003A3,3,0,1,1,735.88,231.43502304000003Z" id="point-1-38" opacity="1"/><path class="data-point" fill="rgb(128, 35, 146)" data-type="point" transform="translate(0, 0)" d="M753.8000000000001,217.59877152A3,3,0,1,1,759.8000000000001,217.59877152A3,3,0,1,1,753.8000000000001,217.59877152Z" id="point-1-39" opacity="1"/><path class="data-point" fill="rgb(128, 35, 146)" data-type="point" transform="translate(0, 0)" d="M771.7199999999999,203.18266799999998A3,3,0,1,1,777.7199999999999,203.18266799999998A3,3,0,1,1,771.7199999999999,203.18266799999998Z" id="point-1-40" opacity="1"/><path class="data-point" fill="rgb(128, 35, 146)" data-type="point" transform="translate(0, 0)" d="M789.64,188.16245136000003A3,3,0,1,1,795.64,188.16245136000003A3,3,0,1,1,789.64,188.16245136000003Z" id="point-1-41" opacity="1"/><path class="data-point" fill="rgb(128, 35, 146)" data-type="point" transform="translate(0, 0)" d="M807.56,172.51273728A3,3,0,1,1,813.56,172.51273728A3,3,0,1,1,807.56,172.51273728Z" id="point-1-42" opacity="1"/><path class="data-point" fill="rgb(128, 35, 146)" data-type="point" transform="translate(0, 0)" d="M825.48,156.20724287999997A3,3,0,1,1,831.48,156.20724287999997A3,3,0,1,1,825.48,156.20724287999997Z" id="point-1-43" opacity="1"/><path class="data-point" fill="rgb(128, 35, 146)" data-type="point" transform="translate(0, 0)" d="M843.4,139.2183936A3,3,0,1,1,849.4,139.2183936A3,3,0,1,1,843.4,139.2183936Z" id="point-1-44" opacity="1"/><path class="data-point" fill="rgb(128, 35, 146)" data-type="point" transform="translate(0, 0)" d="M861.32,121.517604A3,3,0,1,1,867.32,121.517604A3,3,0,1,1,861.32,121.517604Z" id="point-1-45" opacity="1"/><path class="data-point" fill="rgb(128, 35, 146)" data-type="point" transform="translate(0, 0)" d="M879.24,103.07505312000006A3,3,0,1,1,885.24,103.07505312000006A3,3,0,1,1,879.24,103.07505312000006Z" id="point-1-46" opacity="1"/></g></g><g id="data-labels"/><g class="annotations above"><g class="axis-highlights" transform="translate(15, 20)" style="opacity: 1;"/></g></svg>