<svg xmlns="http://www.w3.org/2000/svg" id="graphic" width="961" height="634.6"><g id="facets"><g class="facet" transform="translate(15,20)" opacity="1"><text class="facet-title" y="0" font-size="16" font-weight="bold" dominant-baseline="middle" x="0" clip-path="url(#facet-clip-0)" fill="black"/><g class="plot"><clipPath class="facet-clip" id="facet-clip-0"><rect width="951" height="581.6" transform="translate(-7.5,-10)"/></clipPath><g class="bg"><rect fill="none" width="936" height="561.6" style="fill: none;"/></g><g class="interaction"><g class="series"><path data-target="point-0-0" d="M73.89561249999998,561.6L65.37372110714287,507.21528L0,507.21528L0,561.6Z" style="opacity: 0;"/><path data-target="point-0-1" d="M65.37372110714287,507.21528L73.89561249999998,561.6L92.25561607142856,561.6L83.19936478571428,503.80512L69.03230517357142,503.80512Z" style="opacity: 0;"/><path data-target="point-0-2" d="M83.19936478571428,503.80512L92.25561607142856,561.6L110.79607542857148,561.6L100.96085485714283,500.1984L87.31121880285714,500.1984Z" style="opacity: 0;"/><path data-target="point-0-3" d="M100.96085485714283,500.1984L110.79607542857148,561.6L129.17585200000005,561.6L118.8253818142857,496.98168L104.9036345142857,496.98168Z" style="opacity: 0;"/><path data-target="point-0-4" d="M118.8253818142857,496.98168L129.17585200000005,561.6L153.09109513142857,561.6L135.77975106285714,493.68384L122.9950588192857,493.68384Z" style="opacity: 0;"/><path data-target="point-0-5" d="M135.77975106285714,493.68384L153.09109513142857,561.6L169.03961404285715,561.6L154.15832387142856,489.16607999999997L141.27947846857143,489.16607999999997Z" style="opacity: 0;"/><path data-target="point-0-6" d="M154.15832387142856,489.16607999999997L169.03961404285715,561.6L184.48781521428572,561.6L172.49331785714287,485.05391999999995L159.34471223999998,485.05391999999995Z" style="opacity: 0;"/><path data-target="point-0-7" d="M172.49331785714287,485.05391999999995L184.48781521428572,561.6L204.47695753999986,561.6L189.95073830000004,481.06656L177.90829514285713,481.06656Z" style="opacity: 0;"/><path data-target="point-0-8" d="M189.95073830000004,481.06656L204.47695753999986,561.6L225.81123750000023,561.6L207.28249154999997,477.13847999999996L195.7092334357143,477.13847999999996Z" style="opacity: 0;"/><path data-target="point-0-9" d="M207.28249154999997,477.13847999999996L225.81123750000023,561.6L238.2315187857141,561.6L226.1630682357143,472.73303999999996L213.91106604428572,472.73303999999996Z" style="opacity: 0;"/><path data-target="point-0-10" d="M226.1630682357143,472.73303999999996L238.2315187857141,561.6L273.98339685714285,561.6L240.97693635714285,468.6708L232.82974812571427,468.6708Z" style="opacity: 0;"/><path data-target="point-0-11" d="M240.97693635714285,468.6708L273.98339685714285,561.6L333.0557964285715,561.6L307.7379670329669,522.2985877712028L255.30313928571425,462.06575999999995L251.56829491785712,462.06575999999995Z" style="opacity: 0;"/><path data-target="point-0-12" d="M255.30313928571425,462.06575999999995L307.7379670329669,522.2985877712028L277.50823085714285,449.95392L268.8076246028571,449.95392Z" style="opacity: 0;"/><path data-target="point-0-13" d="M277.50823085714285,449.95392L307.7379670329669,522.2985877712028L333.0557964285715,561.6L371.68384375000005,561.6L332.87896465517264,490.84466489832045L293.71047864285714,441.93863999999996L286.95309329714286,441.93863999999996Z" style="opacity: 0;"/><path data-target="point-0-14" d="M293.71047864285714,441.93863999999996L332.87896465517264,490.84466489832045L315.0302395714285,430.54128000000003L303.4457575635714,430.54128000000003Z" style="opacity: 0;"/><path data-target="point-0-15" d="M315.0302395714285,430.54128000000003L332.87896465517264,490.84466489832045L371.68384375000005,561.6L414.86706249999963,561.6L330.744355,423.55247999999995L322.2239611714286,423.55247999999995Z" style="opacity: 0;"/><path data-target="point-0-16" d="M330.744355,423.55247999999995L414.86706249999963,561.6L441.99182857142875,561.6L348.890984,413.06304L340.22643413714286,413.06304Z" style="opacity: 0;"/><path data-target="point-0-17" d="M348.890984,413.06304L441.99182857142875,561.6L453.276466071429,561.6L367.5222687857143,402.71712L357.56603792,402.71712Z" style="opacity: 0;"/><path data-target="point-0-18" d="M367.5222687857143,402.71712L453.276466071429,561.6L466.3353772321426,561.6L386.11023223214283,394.04352L374.6923931571428,394.04352Z" style="opacity: 0;"/><path data-target="point-0-19" d="M386.11023223214283,394.04352L466.3353772321426,561.6L495.93108928571434,561.6L403.6427846428571,384.91128L393.19839969142856,384.91128Z" style="opacity: 0;"/><path data-target="point-0-20" d="M403.6427846428571,384.91128L495.93108928571434,561.6L499.20542731249975,561.6L457.35275041666665,445.19098994640035L421.7385144642857,375.85079999999994L410.8393135742857,375.85079999999994Z" style="opacity: 0;"/><path data-target="point-0-21" d="M421.7385144642857,375.85079999999994L457.35275041666665,445.19098994640035L441.30586610714283,367.0836L428.48534453571426,367.0836Z" style="opacity: 0;"/><path data-target="point-0-22" d="M441.30586610714283,367.0836L457.35275041666665,445.19098994640035L499.20542731249975,561.6L501.6067656607143,561.6L458.80083895357143,361.71407999999997L446.83095836071425,361.71407999999997Z" style="opacity: 0;"/><path data-target="point-0-23" d="M458.80083895357143,361.71407999999997L501.6067656607143,561.6L521.3663879999998,561.6L476.40555195,356.65031999999997L464.92116151999994,356.65031999999997Z" style="opacity: 0;"/><path data-target="point-0-24" d="M476.40555195,356.65031999999997L521.3663879999998,561.6L555.3644392550001,561.6L523.7200245543274,405.0067756605254L492.8568200285714,354.50376L479.28253648714286,354.50376Z" style="opacity: 0;"/><path data-target="point-0-25" d="M492.8568200285714,354.50376L523.7200245543274,405.0067756605254L523.7510389928036,392.2829034651905L512.8256722142858,344.7444L500.1700661542857,344.7444Z" style="opacity: 0;"/><path data-target="point-0-26" d="M512.8256722142858,344.7444L523.7510389928036,392.2829034651905L535.9377034928572,340.35767999999996L535.1649159857143,339.83975999999996L517.7187074857143,339.83975999999996Z" style="opacity: 0;"/><path data-target="point-0-27" d="M523.7200245543274,405.0067756605254L555.3644392550001,561.6L712.5931064995393,561.6L649.3896768515679,471.36139355179097L544.0724140877929,340.35767999999996L535.9377034928572,340.35767999999996L523.7510389928036,392.2829034651905Z" style="opacity: 0;"/><path data-target="point-0-28" d="M544.0724140877929,340.35767999999996L649.3896768515679,471.36139355179097L564.9217379507858,329.84587L553.7734362159235,329.84587Z" style="opacity: 0;"/><path data-target="point-0-29" d="M564.9217379507858,329.84587L649.3896768515679,471.36139355179097L712.5931064995393,561.6L734.5677166661274,561.6L582.9798148476207,319.39917349999996L572.1848567420413,319.39917349999996Z" style="opacity: 0;"/><path data-target="point-0-30" d="M582.9798148476207,319.39917349999996L734.5677166661274,561.6L767.2167505011972,561.6L601.0986273619602,308.47898649999996L589.9515139046055,308.47898649999996Z" style="opacity: 0;"/><path data-target="point-0-31" d="M601.0986273619602,308.47898649999996L767.2167505011972,561.6L801.333275047111,561.6L619.2885644846596,297.0637485L607.6628179203963,297.0637485Z" style="opacity: 0;"/><path data-target="point-0-32" d="M619.2885644846596,297.0637485L801.333275047111,561.6L837.0599615356855,561.6L637.5615273604891,285.130903L625.3100541203441,285.130903Z" style="opacity: 0;"/><path data-target="point-0-33" d="M637.5615273604891,285.130903L837.0599615356855,561.6L874.5603916866222,561.6L655.9308982786675,272.65683149999995L642.8835412391222,272.65683149999995Z" style="opacity: 0;"/><path data-target="point-0-34" d="M655.9308982786675,272.65683149999995L874.5603916866222,561.6L914.0072923019369,561.6L674.4119518785781,259.6168225L660.3722649467045,259.6168225Z" style="opacity: 0;"/><path data-target="point-0-35" d="M674.4119518785781,259.6168225L914.0072923019369,561.6L936,561.6L936,538.0435159224478L693.0220248501213,245.985168L677.7639080182726,245.985168Z" style="opacity: 0;"/><path data-target="point-0-36" d="M693.0220248501213,245.985168L936,538.0435159224478L936,488.7587425934753L711.7807326602876,231.7348175L695.0445583293837,231.7348175Z" style="opacity: 0;"/><path data-target="point-0-37" d="M711.7807326602876,231.7348175L936,488.7587425934753L936,441.2595757290948L730.7102480217452,216.83750399999997L712.1986347255712,216.837504Z" style="opacity: 0;"/><path data-target="point-0-38" d="M729.208672442751,201.26374349999998L730.7102480217452,216.83750399999997L936,441.2595757290948L936,395.3498936007619L749.8356515729457,201.26374349999998Z" style="opacity: 0;"/><path data-target="point-0-39" d="M746.0550720565493,184.98264749999998L749.8356515729457,201.26374349999998L936,395.3498936007619L936,350.83899419233103L769.1852220506721,184.98264749999998Z" style="opacity: 0;"/><path data-target="point-0-40" d="M762.7159366421901,167.961924L769.1852220506721,184.98264749999998L936,350.83899419233103L936,307.5436614359123L788.7910163665531,167.961924Z" style="opacity: 0;"/><path data-target="point-0-41" d="M779.1666683298646,150.1677525L788.7910163665531,167.961924L936,307.5436614359123L936,265.29003877317245L808.6889874860217,150.1677525Z" style="opacity: 0;"/><path data-target="point-0-42" d="M795.3798117130968,131.564815L808.6889874860217,150.1677525L936,265.29003877317245L936,223.90733750510864L828.9197191169701,131.564815Z" style="opacity: 0;"/><path data-target="point-0-43" d="M811.3247809704491,112.11620149999999L828.9197191169701,131.564815L936,223.90733750510864L936,187.6659722270304L848.3854705290821,112.11620149999999Z" style="opacity: 0;"/><path data-target="point-0-44" d="M725.1230549802988,0L826.9671661419593,91.783193L865.5997015475102,91.783193L843.4644220186043,70.52541599999999L753.5444772629032,0Z" style="opacity: 0;"/><path data-target="point-0-45" d="M753.5444772629032,0L843.4644220186043,70.52541599999999L882.6015813049247,70.52541599999999L862.3816354362518,48.300564L797.8066357375197,0Z" style="opacity: 0;"/><path data-target="point-0-46" d="M797.8066357375197,0L862.3816354362518,48.300564L936,48.300563999999994L936,0Z" style="opacity: 0;"/><path data-target="point-1-0" d="M0,507.21528L65.37372110714287,507.21528L69.03230517357142,503.80512L1.4210854715202004e-14,195.49000338158373Z" style="opacity: 0;"/><path data-target="point-1-1" d="M1.4210854715202004e-14,195.49000338158373L69.03230517357142,503.80512L83.19936478571428,503.80512L87.31121880285714,500.1984L0,145.04271953512034Z" style="opacity: 0;"/><path data-target="point-1-2" d="M0,145.04271953512034L87.31121880285714,500.1984L100.96085485714283,500.1984L104.9036345142857,496.98168L6.08858958642854,0L0,0Z" style="opacity: 0;"/><path data-target="point-1-3" d="M6.08858958642854,0L104.9036345142857,496.98168L118.8253818142857,496.98168L122.9950588192857,493.68384L25.614856854769783,25.24838838183257L19.843007641071104,0Z" style="opacity: 0;"/><path data-target="point-1-4" d="M25.614856854769783,25.24838838183257L122.9950588192857,493.68384L135.77975106285714,493.68384L141.27947846857143,489.16607999999997Z" style="opacity: 0;"/><path data-target="point-1-5" d="M19.843007641071104,0L25.614856854769783,25.24838838183257L141.27947846857143,489.16607999999997L154.15832387142856,489.16607999999997L159.34471223999998,485.05391999999995L36.38354352000079,0Z" style="opacity: 0;"/><path data-target="point-1-6" d="M36.38354352000079,0L159.34471223999998,485.05391999999995L172.49331785714287,485.05391999999995L177.90829514285713,481.06656L39.20649732571425,0Z" style="opacity: 0;"/><path data-target="point-1-7" d="M39.20649732571425,0L177.90829514285713,481.06656L189.95073830000004,481.06656L195.7092334357143,477.13847999999996L72.59472510071365,0Z" style="opacity: 0;"/><path data-target="point-1-8" d="M72.59472510071365,0L195.7092334357143,477.13847999999996L207.28249154999997,477.13847999999996L213.91106604428572,472.73303999999996L118.27555564022735,121.52387332498807L74.12902480982152,0Z" style="opacity: 0;"/><path data-target="point-1-9" d="M118.27555564022735,121.52387332498807L213.91106604428572,472.73303999999996L226.1630682357143,472.73303999999996L232.82974812571427,468.6708L140.59013238939124,178.2176690264231Z" style="opacity: 0;"/><path data-target="point-1-10" d="M140.59013238939124,178.2176690264231L232.82974812571427,468.6708L240.97693635714285,468.6708L251.56829491785712,462.06575999999995L162.77697480153833,229.62231627170345Z" style="opacity: 0;"/><path data-target="point-1-11" d="M162.77697480153833,229.62231627170345L251.56829491785712,462.06575999999995L255.30313928571425,462.06575999999995L268.8076246028571,449.95392Z" style="opacity: 0;"/><path data-target="point-1-12" d="M74.12902480982152,0L118.27555564022735,121.52387332498807L140.59013238939124,178.2176690264231L162.77697480153833,229.62231627170345L268.8076246028571,449.95392L277.50823085714285,449.95392L286.95309329714286,441.93863999999996L76.27857608071355,0Z" style="opacity: 0;"/><path data-target="point-1-13" d="M76.27857608071355,0L286.95309329714286,441.93863999999996L293.71047864285714,441.93863999999996L303.4457575635714,430.54128000000003L100.60315290500131,0Z" style="opacity: 0;"/><path data-target="point-1-14" d="M100.60315290500131,0L303.4457575635714,430.54128000000003L315.0302395714285,430.54128000000003L322.2239611714286,423.55247999999995L172.63979733409852,114.50569251095942L112.79114792428545,-1.4210854715202004e-14Z" style="opacity: 0;"/><path data-target="point-1-15" d="M172.63979733409852,114.50569251095942L322.2239611714286,423.55247999999995L330.744355,423.55247999999995L340.22643413714286,413.06304Z" style="opacity: 0;"/><path data-target="point-1-16" d="M112.79114792428545,-1.4210854715202004e-14L172.63979733409852,114.50569251095942L340.22643413714286,413.06304L348.890984,413.06304L357.56603792,402.71712L144.97454682285763,0Z" style="opacity: 0;"/><path data-target="point-1-17" d="M144.97454682285763,0L357.56603792,402.71712L367.5222687857143,402.71712L374.6923931571428,394.04352L285.14942470913735,184.9792617932756L195.551746378571,2.842170943040401e-14Z" style="opacity: 0;"/><path data-target="point-1-18" d="M285.14942470913735,184.9792617932756L374.6923931571428,394.04352L386.11023223214283,394.04352L393.19839969142856,384.91128Z" style="opacity: 0;"/><path data-target="point-1-19" d="M195.551746378571,2.842170943040401e-14L285.14942470913735,184.9792617932756L393.19839969142856,384.91128L403.6427846428571,384.91128L410.8393135742857,375.85079999999994L227.08854210285705,0Z" style="opacity: 0;"/><path data-target="point-1-20" d="M227.08854210285705,0L410.8393135742857,375.85079999999994L421.7385144642857,375.85079999999994L428.48534453571426,367.0836L257.84063351785676,0Z" style="opacity: 0;"/><path data-target="point-1-21" d="M257.84063351785676,0L428.48534453571426,367.0836L441.30586610714283,367.0836L446.83095836071425,361.71407999999997L304.3769730507147,0Z" style="opacity: 0;"/><path data-target="point-1-22" d="M304.3769730507147,0L446.83095836071425,361.71407999999997L458.80083895357143,361.71407999999997L464.92116151999994,356.65031999999997L339.7368992000002,0Z" style="opacity: 0;"/><path data-target="point-1-23" d="M339.7368992000002,0L464.92116151999994,356.65031999999997L476.40555195,356.65031999999997L479.28253648714286,354.50376L478.155463627195,298.6982072528031L403.7356053746427,0Z" style="opacity: 0;"/><path data-target="point-1-24" d="M478.155463627195,298.6982072528031L479.28253648714286,354.50376L492.8568200285714,354.50376L500.1700661542857,344.7444Z" style="opacity: 0;"/><path data-target="point-1-25" d="M403.7356053746427,0L478.155463627195,298.6982072528031L500.1700661542857,344.7444L512.8256722142858,344.7444L517.7187074857143,339.83975999999996L409.79530941714336,0Z" style="opacity: 0;"/><path data-target="point-1-26" d="M409.79530941714336,0L517.7187074857143,339.83975999999996L535.1649159857143,339.83975999999996L514.6605151070792,223.9255212352544L511.71205275404725,213.12845989970634L475.22633557023846,114.97865841873895L430.54685500534686,10.348936882303917L425.7328573610347,0Z" style="opacity: 0;"/><path data-target="point-1-27" d="M514.6605151070792,223.9255212352544L535.1649159857143,339.83975999999996L535.9377034928572,340.35767999999996L544.0724140877929,340.35767999999996L553.7734362159235,329.84587Z" style="opacity: 0;"/><path data-target="point-1-28" d="M511.71205275404725,213.12845989970634L514.6605151070792,223.9255212352544L553.7734362159235,329.84587L564.9217379507858,329.84587L572.1848567420413,319.39917349999996Z" style="opacity: 0;"/><path data-target="point-1-29" d="M475.22633557023846,114.97865841873895L511.71205275404725,213.12845989970634L572.1848567420413,319.39917349999996L582.9798148476207,319.39917349999996L589.9515139046055,308.47898649999996Z" style="opacity: 0;"/><path data-target="point-1-30" d="M430.54685500534686,10.348936882303917L475.22633557023846,114.97865841873895L589.9515139046055,308.47898649999996L601.0986273619602,308.47898649999996L607.6628179203963,297.0637485Z" style="opacity: 0;"/><path data-target="point-1-31" d="M425.7328573610347,0L430.54685500534686,10.348936882303917L607.6628179203963,297.0637485L619.2885644846596,297.0637485L625.3100541203441,285.130903L441.7925812090334,0Z" style="opacity: 0;"/><path data-target="point-1-32" d="M441.7925812090334,0L625.3100541203441,285.130903L637.5615273604891,285.130903L642.8835412391222,272.65683149999995L460.0394592241476,0Z" style="opacity: 0;"/><path data-target="point-1-33" d="M460.0394592241476,0L642.8835412391222,272.65683149999995L655.9308982786675,272.65683149999995L660.3722649467045,259.6168225L478.9764553860887,0Z" style="opacity: 0;"/><path data-target="point-1-34" d="M478.9764553860887,0L660.3722649467045,259.6168225L674.4119518785781,259.6168225L677.7639080182726,245.985168L498.6907002278832,0Z" style="opacity: 0;"/><path data-target="point-1-35" d="M498.6907002278832,0L677.7639080182726,245.985168L693.0220248501213,245.985168L695.0445583293837,231.7348175L519.2758329746562,0Z" style="opacity: 0;"/><path data-target="point-1-36" d="M519.2758329746562,0L695.0445583293837,231.7348175L711.7807326602876,231.7348175L712.1986347255712,216.837504L540.8364445283206,0Z" style="opacity: 0;"/><path data-target="point-1-37" d="M540.8364445283206,0L712.1986347255712,216.837504L730.7102480217452,216.83750399999997L729.208672442751,201.26374349999998L563.4892291684205,0Z" style="opacity: 0;"/><path data-target="point-1-38" d="M563.4892291684205,0L729.208672442751,201.26374349999998L749.8356515729457,201.26374349999998L746.0550720565493,184.98264749999998L587.3579942451416,0Z" style="opacity: 0;"/><path data-target="point-1-39" d="M587.3579942451416,0L746.0550720565493,184.98264749999998L769.1852220506721,184.98264749999998L762.7159366421901,167.961924L612.5822242143923,0Z" style="opacity: 0;"/><path data-target="point-1-40" d="M612.5822242143923,0L762.7159366421901,167.961924L788.7910163665531,167.961924L779.1666683298646,150.1677525L639.3134795307399,0Z" style="opacity: 0;"/><path data-target="point-1-41" d="M639.3134795307399,0L779.1666683298646,150.1677525L808.6889874860217,150.1677525L795.3798117130968,131.564815L667.7166349982883,0Z" style="opacity: 0;"/><path data-target="point-1-42" d="M667.7166349982883,0L795.3798117130968,131.564815L828.9197191169701,131.564815L811.3247809704491,112.11620149999999L697.9747006314415,0Z" style="opacity: 0;"/><path data-target="point-1-43" d="M697.9747006314415,0L811.3247809704491,112.11620149999999L848.3854705290821,112.11620149999999L826.9671661419593,91.783193L725.1230549802988,0Z" style="opacity: 0;"/><path data-target="point-1-44" d="M826.9671661419593,91.783193L848.3854705290821,112.11620149999999L936,187.6659722270304L936,155.9281288531301L865.5997015475102,91.783193Z" style="opacity: 0;"/><path data-target="point-1-45" d="M843.4644220186043,70.52541599999999L865.5997015475102,91.783193L936,155.9281288531301L936,117.22230249489132L882.6015813049247,70.52541599999999Z" style="opacity: 0;"/><path data-target="point-1-46" d="M862.3816354362518,48.300564L882.6015813049247,70.52541599999999L936,117.22230249489132L936,48.300563999999994Z" style="opacity: 0;"/></g><g class="series"><path data-target="point-0-0" d="M73.89561249999998,561.6L65.37372110714287,507.21528L0,507.21528L0,561.6Z" style="opacity: 0;"/><path data-target="point-0-1" d="M65.37372110714287,507.21528L73.89561249999998,561.6L92.25561607142856,561.6L83.19936478571428,503.80512L69.03230517357142,503.80512Z" style="opacity: 0;"/><path data-target="point-0-2" d="M83.19936478571428,503.80512L92.25561607142856,561.6L110.79607542857148,561.6L100.96085485714283,500.1984L87.31121880285714,500.1984Z" style="opacity: 0;"/><path data-target="point-0-3" d="M100.96085485714283,500.1984L110.79607542857148,561.6L129.17585200000005,561.6L118.8253818142857,496.98168L104.9036345142857,496.98168Z" style="opacity: 0;"/><path data-target="point-0-4" d="M118.8253818142857,496.98168L129.17585200000005,561.6L153.09109513142857,561.6L135.77975106285714,493.68384L122.9950588192857,493.68384Z" style="opacity: 0;"/><path data-target="point-0-5" d="M135.77975106285714,493.68384L153.09109513142857,561.6L169.03961404285715,561.6L154.15832387142856,489.16607999999997L141.27947846857143,489.16607999999997Z" style="opacity: 0;"/><path data-target="point-0-6" d="M154.15832387142856,489.16607999999997L169.03961404285715,561.6L184.48781521428572,561.6L172.49331785714287,485.05391999999995L159.34471223999998,485.05391999999995Z" style="opacity: 0;"/><path data-target="point-0-7" d="M172.49331785714287,485.05391999999995L184.48781521428572,561.6L204.47695753999986,561.6L189.95073830000004,481.06656L177.90829514285713,481.06656Z" style="opacity: 0;"/><path data-target="point-0-8" d="M189.95073830000004,481.06656L204.47695753999986,561.6L225.81123750000023,561.6L207.28249154999997,477.13847999999996L195.7092334357143,477.13847999999996Z" style="opacity: 0;"/><path data-target="point-0-9" d="M207.28249154999997,477.13847999999996L225.81123750000023,561.6L238.2315187857141,561.6L226.1630682357143,472.73303999999996L213.91106604428572,472.73303999999996Z" style="opacity: 0;"/><path data-target="point-0-10" d="M226.1630682357143,472.73303999999996L238.2315187857141,561.6L273.98339685714285,561.6L240.97693635714285,468.6708L232.82974812571427,468.6708Z" style="opacity: 0;"/><path data-target="point-0-11" d="M240.97693635714285,468.6708L273.98339685714285,561.6L333.0557964285715,561.6L307.7379670329669,522.2985877712028L255.30313928571425,462.06575999999995L251.56829491785712,462.06575999999995Z" style="opacity: 0;"/><path data-target="point-0-12" d="M255.30313928571425,462.06575999999995L307.7379670329669,522.2985877712028L277.50823085714285,449.95392L268.8076246028571,449.95392Z" style="opacity: 0;"/><path data-target="point-0-13" d="M277.50823085714285,449.95392L307.7379670329669,522.2985877712028L333.0557964285715,561.6L371.68384375000005,561.6L332.87896465517264,490.84466489832045L293.71047864285714,441.93863999999996L286.95309329714286,441.93863999999996Z" style="opacity: 0;"/><path data-target="point-0-14" d="M293.71047864285714,441.93863999999996L332.87896465517264,490.84466489832045L315.0302395714285,430.54128000000003L303.4457575635714,430.54128000000003Z" style="opacity: 0;"/><path data-target="point-0-15" d="M315.0302395714285,430.54128000000003L332.87896465517264,490.84466489832045L371.68384375000005,561.6L414.86706249999963,561.6L330.744355,423.55247999999995L322.2239611714286,423.55247999999995Z" style="opacity: 0;"/><path data-target="point-0-16" d="M330.744355,423.55247999999995L414.86706249999963,561.6L441.99182857142875,561.6L348.890984,413.06304L340.22643413714286,413.06304Z" style="opacity: 0;"/><path data-target="point-0-17" d="M348.890984,413.06304L441.99182857142875,561.6L453.276466071429,561.6L367.5222687857143,402.71712L357.56603792,402.71712Z" style="opacity: 0;"/><path data-target="point-0-18" d="M367.5222687857143,402.71712L453.276466071429,561.6L466.3353772321426,561.6L386.11023223214283,394.04352L374.6923931571428,394.04352Z" style="opacity: 0;"/><path data-target="point-0-19" d="M386.11023223214283,394.04352L466.3353772321426,561.6L495.93108928571434,561.6L403.6427846428571,384.91128L393.19839969142856,384.91128Z" style="opacity: 0;"/><path data-target="point-0-20" d="M403.6427846428571,384.91128L495.93108928571434,561.6L499.20542731249975,561.6L457.35275041666665,445.19098994640035L421.7385144642857,375.85079999999994L410.8393135742857,375.85079999999994Z" style="opacity: 0;"/><path data-target="point-0-21" d="M421.7385144642857,375.85079999999994L457.35275041666665,445.19098994640035L441.30586610714283,367.0836L428.48534453571426,367.0836Z" style="opacity: 0;"/><path data-target="point-0-22" d="M441.30586610714283,367.0836L457.35275041666665,445.19098994640035L499.20542731249975,561.6L501.6067656607143,561.6L458.80083895357143,361.71407999999997L446.83095836071425,361.71407999999997Z" style="opacity: 0;"/><path data-target="point-0-23" d="M458.80083895357143,361.71407999999997L501.6067656607143,561.6L521.3663879999998,561.6L476.40555195,356.65031999999997L464.92116151999994,356.65031999999997Z" style="opacity: 0;"/><path data-target="point-0-24" d="M476.40555195,356.65031999999997L521.3663879999998,561.6L555.3644392550001,561.6L523.7200245543274,405.0067756605254L492.8568200285714,354.50376L479.28253648714286,354.50376Z" style="opacity: 0;"/><path data-target="point-0-25" d="M492.8568200285714,354.50376L523.7200245543274,405.0067756605254L523.7510389928036,392.2829034651905L512.8256722142858,344.7444L500.1700661542857,344.7444Z" style="opacity: 0;"/><path data-target="point-0-26" d="M512.8256722142858,344.7444L523.7510389928036,392.2829034651905L535.9377034928572,340.35767999999996L535.1649159857143,339.83975999999996L517.7187074857143,339.83975999999996Z" style="opacity: 0;"/><path data-target="point-0-27" d="M523.7200245543274,405.0067756605254L555.3644392550001,561.6L712.5931064995393,561.6L649.3896768515679,471.36139355179097L544.0724140877929,340.35767999999996L535.9377034928572,340.35767999999996L523.7510389928036,392.2829034651905Z" style="opacity: 0;"/><path data-target="point-0-28" d="M544.0724140877929,340.35767999999996L649.3896768515679,471.36139355179097L564.9217379507858,329.84587L553.7734362159235,329.84587Z" style="opacity: 0;"/><path data-target="point-0-29" d="M564.9217379507858,329.84587L649.3896768515679,471.36139355179097L712.5931064995393,561.6L734.5677166661274,561.6L582.9798148476207,319.39917349999996L572.1848567420413,319.39917349999996Z" style="opacity: 0;"/><path data-target="point-0-30" d="M582.9798148476207,319.39917349999996L734.5677166661274,561.6L767.2167505011972,561.6L601.0986273619602,308.47898649999996L589.9515139046055,308.47898649999996Z" style="opacity: 0;"/><path data-target="point-0-31" d="M601.0986273619602,308.47898649999996L767.2167505011972,561.6L801.333275047111,561.6L619.2885644846596,297.0637485L607.6628179203963,297.0637485Z" style="opacity: 0;"/><path data-target="point-0-32" d="M619.2885644846596,297.0637485L801.333275047111,561.6L837.0599615356855,561.6L637.5615273604891,285.130903L625.3100541203441,285.130903Z" style="opacity: 0;"/><path data-target="point-0-33" d="M637.5615273604891,285.130903L837.0599615356855,561.6L874.5603916866222,561.6L655.9308982786675,272.65683149999995L642.8835412391222,272.65683149999995Z" style="opacity: 0;"/><path data-target="point-0-34" d="M655.9308982786675,272.65683149999995L874.5603916866222,561.6L914.0072923019369,561.6L674.4119518785781,259.6168225L660.3722649467045,259.6168225Z" style="opacity: 0;"/><path data-target="point-0-35" d="M674.4119518785781,259.6168225L914.0072923019369,561.6L936,561.6L936,538.0435159224478L693.0220248501213,245.985168L677.7639080182726,245.985168Z" style="opacity: 0;"/><path data-target="point-0-36" d="M693.0220248501213,245.985168L936,538.0435159224478L936,488.7587425934753L711.7807326602876,231.7348175L695.0445583293837,231.7348175Z" style="opacity: 0;"/><path data-target="point-0-37" d="M711.7807326602876,231.7348175L936,488.7587425934753L936,441.2595757290948L730.7102480217452,216.83750399999997L712.1986347255712,216.837504Z" style="opacity: 0;"/><path data-target="point-0-38" d="M729.208672442751,201.26374349999998L730.7102480217452,216.83750399999997L936,441.2595757290948L936,395.3498936007619L749.8356515729457,201.26374349999998Z" style="opacity: 0;"/><path data-target="point-0-39" d="M746.0550720565493,184.98264749999998L749.8356515729457,201.26374349999998L936,395.3498936007619L936,350.83899419233103L769.1852220506721,184.98264749999998Z" style="opacity: 0;"/><path data-target="point-0-40" d="M762.7159366421901,167.961924L769.1852220506721,184.98264749999998L936,350.83899419233103L936,307.5436614359123L788.7910163665531,167.961924Z" style="opacity: 0;"/><path data-target="point-0-41" d="M779.1666683298646,150.1677525L788.7910163665531,167.961924L936,307.5436614359123L936,265.29003877317245L808.6889874860217,150.1677525Z" style="opacity: 0;"/><path data-target="point-0-42" d="M795.3798117130968,131.564815L808.6889874860217,150.1677525L936,265.29003877317245L936,223.90733750510864L828.9197191169701,131.564815Z" style="opacity: 0;"/><path data-target="point-0-43" d="M811.3247809704491,112.11620149999999L828.9197191169701,131.564815L936,223.90733750510864L936,187.6659722270304L848.3854705290821,112.11620149999999Z" style="opacity: 0;"/><path data-target="point-0-44" d="M725.1230549802988,0L826.9671661419593,91.783193L865.5997015475102,91.783193L843.4644220186043,70.52541599999999L753.5444772629032,0Z" style="opacity: 0;"/><path data-target="point-0-45" d="M753.5444772629032,0L843.4644220186043,70.52541599999999L882.6015813049247,70.52541599999999L862.3816354362518,48.300564L797.8066357375197,0Z" style="opacity: 0;"/><path data-target="point-0-46" d="M797.8066357375197,0L862.3816354362518,48.300564L936,48.300563999999994L936,0Z" style="opacity: 0;"/><path data-target="point-1-0" d="M0,507.21528L65.37372110714287,507.21528L69.03230517357142,503.80512L1.4210854715202004e-14,195.49000338158373Z" style="opacity: 0;"/><path data-target="point-1-1" d="M1.4210854715202004e-14,195.49000338158373L69.03230517357142,503.80512L83.19936478571428,503.80512L87.31121880285714,500.1984L0,145.04271953512034Z" style="opacity: 0;"/><path data-target="point-1-2" d="M0,145.04271953512034L87.31121880285714,500.1984L100.96085485714283,500.1984L104.9036345142857,496.98168L6.08858958642854,0L0,0Z" style="opacity: 0;"/><path data-target="point-1-3" d="M6.08858958642854,0L104.9036345142857,496.98168L118.8253818142857,496.98168L122.9950588192857,493.68384L25.614856854769783,25.24838838183257L19.843007641071104,0Z" style="opacity: 0;"/><path data-target="point-1-4" d="M25.614856854769783,25.24838838183257L122.9950588192857,493.68384L135.77975106285714,493.68384L141.27947846857143,489.16607999999997Z" style="opacity: 0;"/><path data-target="point-1-5" d="M19.843007641071104,0L25.614856854769783,25.24838838183257L141.27947846857143,489.16607999999997L154.15832387142856,489.16607999999997L159.34471223999998,485.05391999999995L36.38354352000079,0Z" style="opacity: 0;"/><path data-target="point-1-6" d="M36.38354352000079,0L159.34471223999998,485.05391999999995L172.49331785714287,485.05391999999995L177.90829514285713,481.06656L39.20649732571425,0Z" style="opacity: 0;"/><path data-target="point-1-7" d="M39.20649732571425,0L177.90829514285713,481.06656L189.95073830000004,481.06656L195.7092334357143,477.13847999999996L72.59472510071365,0Z" style="opacity: 0;"/><path data-target="point-1-8" d="M72.59472510071365,0L195.7092334357143,477.13847999999996L207.28249154999997,477.13847999999996L213.91106604428572,472.73303999999996L118.27555564022735,121.52387332498807L74.12902480982152,0Z" style="opacity: 0;"/><path data-target="point-1-9" d="M118.27555564022735,121.52387332498807L213.91106604428572,472.73303999999996L226.1630682357143,472.73303999999996L232.82974812571427,468.6708L140.59013238939124,178.2176690264231Z" style="opacity: 0;"/><path data-target="point-1-10" d="M140.59013238939124,178.2176690264231L232.82974812571427,468.6708L240.97693635714285,468.6708L251.56829491785712,462.06575999999995L162.77697480153833,229.62231627170345Z" style="opacity: 0;"/><path data-target="point-1-11" d="M162.77697480153833,229.62231627170345L251.56829491785712,462.06575999999995L255.30313928571425,462.06575999999995L268.8076246028571,449.95392Z" style="opacity: 0;"/><path data-target="point-1-12" d="M74.12902480982152,0L118.27555564022735,121.52387332498807L140.59013238939124,178.2176690264231L162.77697480153833,229.62231627170345L268.8076246028571,449.95392L277.50823085714285,449.95392L286.95309329714286,441.93863999999996L76.27857608071355,0Z" style="opacity: 0;"/><path data-target="point-1-13" d="M76.27857608071355,0L286.95309329714286,441.93863999999996L293.71047864285714,441.93863999999996L303.4457575635714,430.54128000000003L100.60315290500131,0Z" style="opacity: 0;"/><path data-target="point-1-14" d="M100.60315290500131,0L303.4457575635714,430.54128000000003L315.0302395714285,430.54128000000003L322.2239611714286,423.55247999999995L172.63979733409852,114.50569251095942L112.79114792428545,-1.4210854715202004e-14Z" style="opacity: 0;"/><path data-target="point-1-15" d="M172.63979733409852,114.50569251095942L322.2239611714286,423.55247999999995L330.744355,423.55247999999995L340.22643413714286,413.06304Z" style="opacity: 0;"/><path data-target="point-1-16" d="M112.79114792428545,-1.4210854715202004e-14L172.63979733409852,114.50569251095942L340.22643413714286,413.06304L348.890984,413.06304L357.56603792,402.71712L144.97454682285763,0Z" style="opacity: 0;"/><path data-target="point-1-17" d="M144.97454682285763,0L357.56603792,402.71712L367.5222687857143,402.71712L374.6923931571428,394.04352L285.14942470913735,184.9792617932756L195.551746378571,2.842170943040401e-14Z" style="opacity: 0;"/><path data-target="point-1-18" d="M285.14942470913735,184.9792617932756L374.6923931571428,394.04352L386.11023223214283,394.04352L393.19839969142856,384.91128Z" style="opacity: 0;"/><path data-target="point-1-19" d="M195.551746378571,2.842170943040401e-14L285.14942470913735,184.9792617932756L393.19839969142856,384.91128L403.6427846428571,384.91128L410.8393135742857,375.85079999999994L227.08854210285705,0Z" style="opacity: 0;"/><path data-target="point-1-20" d="M227.08854210285705,0L410.8393135742857,375.85079999999994L421.7385144642857,375.85079999999994L428.48534453571426,367.0836L257.84063351785676,0Z" style="opacity: 0;"/><path data-target="point-1-21" d="M257.84063351785676,0L428.48534453571426,367.0836L441.30586610714283,367.0836L446.83095836071425,361.71407999999997L304.3769730507147,0Z" style="opacity: 0;"/><path data-target="point-1-22" d="M304.3769730507147,0L446.83095836071425,361.71407999999997L458.80083895357143,361.71407999999997L464.92116151999994,356.65031999999997L339.7368992000002,0Z" style="opacity: 0;"/><path data-target="point-1-23" d="M339.7368992000002,0L464.92116151999994,356.65031999999997L476.40555195,356.65031999999997L479.28253648714286,354.50376L478.155463627195,298.6982072528031L403.7356053746427,0Z" style="opacity: 0;"/><path data-target="point-1-24" d="M478.155463627195,298.6982072528031L479.28253648714286,354.50376L492.8568200285714,354.50376L500.1700661542857,344.7444Z" style="opacity: 0;"/><path data-target="point-1-25" d="M403.7356053746427,0L478.155463627195,298.6982072528031L500.1700661542857,344.7444L512.8256722142858,344.7444L517.7187074857143,339.83975999999996L409.79530941714336,0Z" style="opacity: 0;"/><path data-target="point-1-26" d="M409.79530941714336,0L517.7187074857143,339.83975999999996L535.1649159857143,339.83975999999996L514.6605151070792,223.9255212352544L511.71205275404725,213.12845989970634L475.22633557023846,114.97865841873895L430.54685500534686,10.348936882303917L425.7328573610347,0Z" style="opacity: 0;"/><path data-target="point-1-27" d="M514.6605151070792,223.9255212352544L535.1649159857143,339.83975999999996L535.9377034928572,340.35767999999996L544.0724140877929,340.35767999999996L553.7734362159235,329.84587Z" style="opacity: 0;"/><path data-target="point-1-28" d="M511.71205275404725,213.12845989970634L514.6605151070792,223.9255212352544L553.7734362159235,329.84587L564.9217379507858,329.84587L572.1848567420413,319.39917349999996Z" style="opacity: 0;"/><path data-target="point-1-29" d="M475.22633557023846,114.97865841873895L511.71205275404725,213.12845989970634L572.1848567420413,319.39917349999996L582.9798148476207,319.39917349999996L589.9515139046055,308.47898649999996Z" style="opacity: 0;"/><path data-target="point-1-30" d="M430.54685500534686,10.348936882303917L475.22633557023846,114.97865841873895L589.9515139046055,308.47898649999996L601.0986273619602,308.47898649999996L607.6628179203963,297.0637485Z" style="opacity: 0;"/><path data-target="point-1-31" d="M425.7328573610347,0L430.54685500534686,10.348936882303917L607.6628179203963,297.0637485L619.2885644846596,297.0637485L625.3100541203441,285.130903L441.7925812090334,0Z" style="opacity: 0;"/><path data-target="point-1-32" d="M441.7925812090334,0L625.3100541203441,285.130903L637.5615273604891,285.130903L642.8835412391222,272.65683149999995L460.0394592241476,0Z" style="opacity: 0;"/><path data-target="point-1-33" d="M460.0394592241476,0L642.8835412391222,272.65683149999995L655.9308982786675,272.65683149999995L660.3722649467045,259.6168225L478.9764553860887,0Z" style="opacity: 0;"/><path data-target="point-1-34" d="M478.9764553860887,0L660.3722649467045,259.6168225L674.4119518785781,259.6168225L677.7639080182726,245.985168L498.6907002278832,0Z" style="opacity: 0;"/><path data-target="point-1-35" d="M498.6907002278832,0L677.7639080182726,245.985168L693.0220248501213,245.985168L695.0445583293837,231.7348175L519.2758329746562,0Z" style="opacity: 0;"/><path data-target="point-1-36" d="M519.2758329746562,0L695.0445583293837,231.7348175L711.7807326602876,231.7348175L712.1986347255712,216.837504L540.8364445283206,0Z" style="opacity: 0;"/><path data-target="point-1-37" d="M540.8364445283206,0L712.1986347255712,216.837504L730.7102480217452,216.83750399999997L729.208672442751,201.26374349999998L563.4892291684205,0Z" style="opacity: 0;"/><path data-target="point-1-38" d="M563.4892291684205,0L729.208672442751,201.26374349999998L749.8356515729457,201.26374349999998L746.0550720565493,184.98264749999998L587.3579942451416,0Z" style="opacity: 0;"/><path data-target="point-1-39" d="M587.3579942451416,0L746.0550720565493,184.98264749999998L769.1852220506721,184.98264749999998L762.7159366421901,167.961924L612.5822242143923,0Z" style="opacity: 0;"/><path data-target="point-1-40" d="M612.5822242143923,0L762.7159366421901,167.961924L788.7910163665531,167.961924L779.1666683298646,150.1677525L639.3134795307399,0Z" style="opacity: 0;"/><path data-target="point-1-41" d="M639.3134795307399,0L779.1666683298646,150.1677525L808.6889874860217,150.1677525L795.3798117130968,131.564815L667.7166349982883,0Z" style="opacity: 0;"/><path data-target="point-1-42" d="M667.7166349982883,0L795.3798117130968,131.564815L828.9197191169701,131.564815L811.3247809704491,112.11620149999999L697.9747006314415,0Z" style="opacity: 0;"/><path data-target="point-1-43" d="M697.9747006314415,0L811.3247809704491,112.11620149999999L848.3854705290821,112.11620149999999L826.9671661419593,91.783193L725.1230549802988,0Z" style="opacity: 0;"/><path data-target="point-1-44" d="M826.9671661419593,91.783193L848.3854705290821,112.11620149999999L936,187.6659722270304L936,155.9281288531301L865.5997015475102,91.783193Z" style="opacity: 0;"/><path data-target="point-1-45" d="M843.4644220186043,70.52541599999999L865.5997015475102,91.783193L936,155.9281288531301L936,117.22230249489132L882.6015813049247,70.52541599999999Z" style="opacity: 0;"/><path data-target="point-1-46" d="M862.3816354362518,48.300564L882.6015813049247,70.52541599999999L936,117.22230249489132L936,48.300563999999994Z" style="opacity: 0;"/></g></g><g class="axes"><g class="y axis" fill="none" font-size="10" font-family="sans-serif" text-anchor="end" style="font-family: &quot;Source Sans Pro&quot;;"><path class="domain" stroke="#eeeeee" d="M0.5,562.1V0.5" stroke-dasharray="0" style="visibility: hidden;"/><g class="tick" opacity="1" transform="translate(0,562.1)" style="visibility: visible;"><line stroke="#eeeeee" x2="936" stroke-dasharray="0"/><text fill="rgb(0, 0, 0)" x="3" dy="-0.33em" opacity="1" text-anchor="start" font-size="18">$0</text></g><g class="tick" opacity="1" transform="translate(0, 499.70001220703125)" style="visibility: visible;"><line stroke="#eeeeee" x2="936" stroke-dasharray="0"/><text fill="rgb(0, 0, 0)" x="3" dy="-0.33em" opacity="1" text-anchor="start" font-size="18">$10,000</text></g><g class="tick" opacity="1" transform="translate(0, 437.29998779296875)" style="visibility: visible;"><line stroke="#eeeeee" x2="936" stroke-dasharray="0"/><text fill="rgb(0, 0, 0)" x="3" dy="-0.33em" opacity="1" text-anchor="start" font-size="18">$20,000</text></g><g class="tick" opacity="1" transform="translate(0, 374.8999938964844)" style="visibility: visible;"><line stroke="#eeeeee" x2="936" stroke-dasharray="0"/><text fill="rgb(0, 0, 0)" x="3" dy="-0.33em" opacity="1" text-anchor="start" font-size="18">$30,000</text></g><g class="tick" opacity="1" transform="translate(0, 312.5)" style="visibility: visible;"><line stroke="#eeeeee" x2="936" stroke-dasharray="0"/><text fill="rgb(0, 0, 0)" x="3" dy="-0.33em" opacity="1" text-anchor="start" font-size="18">$40,000</text></g><g class="tick" opacity="1" transform="translate(0, 250.10000610351562)" style="visibility: visible;"><line stroke="#eeeeee" x2="936" stroke-dasharray="0"/><text fill="rgb(0, 0, 0)" x="3" dy="-0.33em" opacity="1" text-anchor="start" font-size="18">$50,000</text></g><g class="tick" opacity="1" transform="translate(0, 187.6999969482422)" style="visibility: visible;"><line stroke="#eeeeee" x2="936" stroke-dasharray="0"/><text fill="rgb(0, 0, 0)" x="3" dy="-0.33em" opacity="1" text-anchor="start" font-size="18">$60,000</text></g><g class="tick" opacity="1" transform="translate(0, 125.30000305175781)" style="visibility: visible;"><line stroke="#eeeeee" x2="936" stroke-dasharray="0"/><text fill="rgb(0, 0, 0)" x="3" dy="-0.33em" opacity="1" text-anchor="start" font-size="18">$70,000</text></g><g class="tick" opacity="1" transform="translate(0, 62.900001525878906)" style="visibility: visible;"><line stroke="#eeeeee" x2="936" stroke-dasharray="0"/><text fill="rgb(0, 0, 0)" x="3" dy="-0.33em" opacity="1" text-anchor="start" font-size="18">$80,000</text></g><g class="tick" opacity="1" transform="translate(0, 0.5)" style="visibility: visible;"><line stroke="#eeeeee" x2="936" stroke-dasharray="0"/><text fill="rgb(0, 0, 0)" x="3" dy="-0.33em" opacity="1" text-anchor="start" font-size="18">$90,000</text></g></g><g class="x axis" transform="translate(0,561.6)" fill="none" font-size="10" font-family="sans-serif" text-anchor="middle" style="font-family: &quot;Source Sans Pro&quot;;"><path class="domain" stroke="#eeeeee" d="M40.5,0.5H936.5" stroke-dasharray="0"/><g class="tick" opacity="1" transform="translate(40.5,0)"><line stroke="#eeeeee" y2="6" stroke-dasharray="0"/><text fill="rgb(0, 0, 0)" y="9" dy="-9" opacity="1" dominant-baseline="central" font-size="18" transform="translate(0, 15) rotate(-45)" dx="5" style="text-anchor: end; visibility: visible;">1990</text></g><g class="tick" opacity="1" transform="translate(130.10000000000002,0)"><line stroke="#eeeeee" y2="6" stroke-dasharray="0"/><text fill="rgb(0, 0, 0)" y="9" dy="-9" opacity="1" dominant-baseline="central" font-size="18" transform="translate(0, 15) rotate(-45)" dx="5" style="text-anchor: end; visibility: visible;">1995</text></g><g class="tick" opacity="1" transform="translate(219.70000000000002,0)"><line stroke="#eeeeee" y2="6" stroke-dasharray="0"/><text fill="rgb(0, 0, 0)" y="9" dy="-9" opacity="1" dominant-baseline="central" font-size="18" transform="translate(0, 15) rotate(-45)" dx="5" style="text-anchor: end; visibility: visible;">2000</text></g><g class="tick" opacity="1" transform="translate(309.3,0)"><line stroke="#eeeeee" y2="6" stroke-dasharray="0"/><text fill="rgb(0, 0, 0)" y="9" dy="-9" opacity="1" dominant-baseline="central" font-size="18" transform="translate(0, 15) rotate(-45)" dx="5" style="text-anchor: end; visibility: visible;">2005</text></g><g class="tick" opacity="1" transform="translate(398.90000000000003,0)"><line stroke="#eeeeee" y2="6" stroke-dasharray="0"/><text fill="rgb(0, 0, 0)" y="9" dy="-9" opacity="1" dominant-baseline="central" font-size="18" transform="translate(0, 15) rotate(-45)" dx="5" style="text-anchor: end; visibility: visible;">2010</text></g><g class="tick" opacity="1" transform="translate(488.5,0)"><line stroke="#eeeeee" y2="6" stroke-dasharray="0"/><text fill="rgb(0, 0, 0)" y="9" dy="-9" opacity="1" dominant-baseline="central" font-size="18" transform="translate(0, 15) rotate(-45)" dx="5" style="text-anchor: end; visibility: visible;">2015</text></g><g class="tick" opacity="1" transform="translate(578.1,0)"><line stroke="#eeeeee" y2="6" stroke-dasharray="0"/><text fill="rgb(0, 0, 0)" y="9" dy="-9" opacity="1" dominant-baseline="central" font-size="18" transform="translate(0, 15) rotate(-45)" dx="5" style="text-anchor: end; visibility: visible;">2020</text></g><g class="tick" opacity="1" transform="translate(667.6999999999999,0)"><line stroke="#eeeeee" y2="6" stroke-dasharray="0"/><text fill="rgb(0, 0, 0)" y="9" dy="-9" opacity="1" dominant-baseline="central" font-size="18" transform="translate(0, 15) rotate(-45)" dx="5" style="text-anchor: end; visibility: visible;">2025</text></g><g class="tick" opacity="1" transform="translate(757.3000000000001,0)"><line stroke="#eeeeee" y2="6" stroke-dasharray="0"/><text fill="rgb(0, 0, 0)" y="9" dy="-9" opacity="1" dominant-baseline="central" font-size="18" transform="translate(0, 15) rotate(-45)" dx="5" style="text-anchor: end; visibility: visible;">2030</text></g><g class="tick" opacity="1" transform="translate(846.9,0)"><line stroke="#eeeeee" y2="6" stroke-dasharray="0"/><text fill="rgb(0, 0, 0)" y="9" dy="-9" opacity="1" dominant-baseline="central" font-size="18" transform="translate(0, 15) rotate(-45)" dx="5" style="text-anchor: end; visibility: visible;">2035</text></g><g class="tick" opacity="1" transform="translate(936.5,0)"><line stroke="#eeeeee" y2="6" stroke-dasharray="0"/><text fill="rgb(0, 0, 0)" y="9" dy="-9" opacity="1" dominant-baseline="central" font-size="18" transform="translate(0, 15) rotate(-45)" dx="5" style="text-anchor: end; visibility: visible;">2040</text></g></g></g></g></g></g><g class="annotations below"><g class="axis-highlights" transform="translate(15, 20)" style="opacity: 1;"><g class="line x" transform="translate(559.68, 0)"><line width="0" stroke-dasharray="2 2" stroke="#333333" stroke-width="2" y2="561.6"/><text transform="translate(0, 6) rotate(-90)" fill="#333333" text-anchor="end" dy="-0.5em" font-size="12">Current</text></g></g></g><g id="areas"><g class="series" pointer-events="none"><path class="area" transform="translate(15,20)" fill-opacity="0" fill="rgb(17, 165, 121)" clip-path="url(#clip-0-0)" d="M57.92,518.232C63.89333333333334,517.2959999999999,69.86666666666667,516.36,75.84,515.424C81.81333333333333,514.4879999999999,87.78666666666666,513.5624,93.75999999999999,512.616C99.73333333333333,511.6696,105.70666666666666,510.7024,111.68,509.7456C117.65333333333335,508.78880000000004,123.62666666666668,508.11488,129.60000000000002,506.8752C135.57333333333335,505.63552,141.54666666666665,503.68240000000003,147.51999999999998,502.30752C153.4933333333333,500.93264,159.46666666666667,499.70752,165.44,498.62592C171.41333333333333,497.54432,177.38666666666668,496.82464000000004,183.36,495.81792C189.33333333333334,494.81120000000004,195.30666666666667,493.77952,201.28,492.5856C207.25333333333333,491.39168,213.2266666666667,489.7152,219.20000000000002,488.6544C225.17333333333335,487.59360000000004,231.14666666666668,487.6872000000001,237.12,486.22080000000005C243.09333333333333,484.75440000000003,249.06666666666666,483.5168,255.04,479.856C261.0133333333333,476.1952,266.9866666666667,468.10400000000004,272.96000000000004,464.25600000000003C278.93333333333334,460.4080000000001,284.9066666666667,460.408,290.88,456.76800000000003C296.85333333333335,453.12800000000004,302.82666666666665,445.692,308.8,442.416C314.77333333333337,439.14,320.74666666666667,439.81600000000003,326.72,437.112C332.6933333333334,434.408,338.6666666666667,429.884,344.64000000000004,426.192C350.61333333333334,422.5,356.5866666666667,418.444,362.56,414.96000000000004C368.53333333333336,411.47600000000006,374.50666666666666,408.33000000000004,380.48,405.288C386.4533333333334,402.246,392.4266666666667,399.69800000000004,398.40000000000003,396.708C404.37333333333333,393.718,410.3466666666667,390.442,416.32,387.348C422.29333333333335,384.254,428.26666666666665,380.2916,434.24,378.144C440.21333333333337,375.9964,446.18666666666667,375.7156,452.16,374.4624C458.1333333333333,373.2092,464.1066666666667,371.91960000000006,470.08,370.62480000000005C476.05333333333334,369.33000000000004,482.02666666666664,369.17400000000004,488,366.6936C493.97333333333336,364.2132,499.94666666666666,358.25399999999996,505.92,355.7424C511.8933333333334,353.2308,517.8666666666667,351.624,523.84,351.624C529.8133333333334,351.624,535.7866666666666,355.82976,541.76,355.82976C547.7333333333333,355.82976,553.7066666666666,345.6071528,559.68,341.4234096C565.6533333333333,337.2396664,571.6266666666667,334.37927120000006,577.6,330.7273008C583.5733333333334,327.07533040000004,589.5466666666666,323.3409608,595.52,319.5115872C601.4933333333333,315.6822136,607.4666666666667,311.766468,613.44,307.7510592C619.4133333333334,303.7356504,625.3866666666667,299.629616,631.36,295.4191344C637.3333333333334,291.2086528,643.3066666666667,286.9031984,649.2800000000001,282.4881696C655.2533333333333,278.07314080000003,661.2266666666667,273.55846959999997,667.1999999999999,268.9289616C673.1733333333333,264.29945359999994,679.1466666666666,259.56551920000004,685.12,254.7111216C691.0933333333334,249.85672400000004,697.0666666666666,244.892804,703.04,239.80257600000004C709.0133333333333,234.71234800000002,714.9866666666667,229.50727280000007,720.96,224.16975360000004C726.9333333333334,218.83223440000006,732.9066666666666,213.37427280000003,738.88,207.77746080000003C744.8533333333334,202.1806488,750.8266666666667,196.45757040000004,756.8000000000001,190.58888159999998C762.7733333333333,184.7201928,768.7466666666667,178.71912239999992,774.7199999999999,172.56532799999997C780.6933333333333,166.41153359999993,786.6666666666666,160.11886800000005,792.64,153.66611520000004C798.6133333333333,147.21336240000005,804.5866666666666,140.6150304,810.56,133.8488112C816.5333333333333,127.08259199999998,822.5066666666667,120.16372160000003,828.48,113.06880000000001C834.4533333333334,105.97387840000003,840.4266666666666,98.71886959999996,846.4,91.27928159999999C852.3733333333333,83.83969359999998,858.3466666666667,76.23227040000005,864.32,68.43127200000004C870.2933333333334,60.63027360000007,876.2666666666667,52.551782400000064,882.24,44.47329120000006L882.24,44.47329120000006C876.2666666666667,52.551782400000064,870.2933333333334,60.63027360000007,864.32,68.43127200000004C858.3466666666667,76.23227040000005,852.3733333333333,83.83969359999998,846.4,91.27928159999999C840.4266666666666,98.71886959999996,834.4533333333334,105.97387840000003,828.48,113.06880000000001C822.5066666666667,120.16372160000003,816.5333333333333,127.08259199999998,810.56,133.8488112C804.5866666666666,140.6150304,798.6133333333333,147.21336240000005,792.64,153.66611520000004C786.6666666666666,160.11886800000005,780.6933333333333,166.41153359999993,774.7199999999999,172.56532799999997C768.7466666666667,178.71912239999992,762.7733333333333,184.7201928,756.8000000000001,190.58888159999998C750.8266666666667,196.45757040000004,744.8533333333334,202.1806488,738.88,207.77746080000003C732.9066666666666,213.37427280000003,726.9333333333334,218.83223440000006,720.96,224.16975360000004C714.9866666666667,229.50727280000007,709.0133333333333,234.71234800000002,703.04,239.80257600000004C697.0666666666666,244.892804,691.0933333333334,249.85672400000004,685.12,254.7111216C679.1466666666666,259.56551920000004,673.1733333333333,264.29945359999994,667.1999999999999,268.9289616C661.2266666666667,273.55846959999997,655.2533333333333,278.07314080000003,649.2800000000001,282.4881696C643.3066666666667,286.9031984,637.3333333333334,291.2086528,631.36,295.4191344C625.3866666666667,299.629616,619.4133333333334,303.7356504,613.44,307.7510592C607.4666666666667,311.766468,601.4933333333333,315.6822136,595.52,319.5115872C589.5466666666666,323.3409608,583.5733333333334,327.07533040000004,577.6,330.7273008C571.6266666666667,334.37927120000006,565.6533333333333,337.2396664,559.68,341.4234096C553.7066666666666,345.6071528,547.7333333333333,355.82976,541.76,355.82976C535.7866666666666,355.82976,529.8133333333334,351.624,523.84,351.624C517.8666666666667,351.624,511.8933333333334,353.2308,505.92,355.7424C499.94666666666666,358.25399999999996,493.97333333333336,364.2132,488,366.6936C482.02666666666664,369.17400000000004,476.05333333333334,369.33000000000004,470.08,370.62480000000005C464.1066666666667,371.91960000000006,458.1333333333333,373.2092,452.16,374.4624C446.18666666666667,375.7156,440.21333333333337,375.9964,434.24,378.144C428.26666666666665,380.2916,422.29333333333335,384.254,416.32,387.348C410.3466666666667,390.442,404.37333333333333,393.718,398.40000000000003,396.708C392.4266666666667,399.69800000000004,386.4533333333334,402.246,380.48,405.288C374.50666666666666,408.33000000000004,368.53333333333336,411.47600000000006,362.56,414.96000000000004C356.5866666666667,418.444,350.61333333333334,422.5,344.64000000000004,426.192C338.6666666666667,429.884,332.6933333333334,434.408,326.72,437.112C320.74666666666667,439.81600000000003,314.77333333333337,439.14,308.8,442.416C302.82666666666665,445.692,296.85333333333335,453.12800000000004,290.88,456.76800000000003C284.9066666666667,460.408,278.93333333333334,460.4080000000001,272.96000000000004,464.25600000000003C266.9866666666667,468.10400000000004,261.0133333333333,476.1952,255.04,479.856C249.06666666666666,483.5168,243.09333333333333,484.75440000000003,237.12,486.22080000000005C231.14666666666668,487.6872000000001,225.17333333333335,487.59360000000004,219.20000000000002,488.6544C213.2266666666667,489.7152,207.25333333333333,491.39168,201.28,492.5856C195.30666666666667,493.77952,189.33333333333334,494.81120000000004,183.36,495.81792C177.38666666666668,496.82464000000004,171.41333333333333,497.54432,165.44,498.62592C159.46666666666667,499.70752,153.4933333333333,500.93264,147.51999999999998,502.30752C141.54666666666665,503.68240000000003,135.57333333333335,505.63552,129.60000000000002,506.8752C123.62666666666668,508.11488,117.65333333333335,508.78880000000004,111.68,509.7456C105.70666666666666,510.7024,99.73333333333333,511.6696,93.75999999999999,512.616C87.78666666666666,513.5624,81.81333333333333,514.4879999999999,75.84,515.424C69.86666666666667,516.36,63.89333333333334,517.2959999999999,57.92,518.232Z"/></g><g class="series" pointer-events="none"><path class="area" transform="translate(15,20)" fill-opacity="0" fill="rgb(128, 35, 146)" clip-path="url(#clip-0-1)" d="M57.92,496.19856000000004C63.89333333333334,494.89388,69.86666666666667,493.5892,75.84,492.18624C81.81333333333333,490.78328,87.78666666666666,489.10888,93.75999999999999,487.7808C99.73333333333333,486.45272,105.70666666666666,485.43248,111.68,484.21776C117.65333333333335,483.00304,123.62666666666668,481.858,129.60000000000002,480.49248C135.57333333333335,479.12696,141.54666666666665,477.5264,147.51999999999998,476.02464000000003C153.4933333333333,474.52288000000004,159.46666666666667,473.10016,165.44,471.48192C171.41333333333333,469.86368,177.38666666666668,467.94696,183.36,466.3152C189.33333333333334,464.68344,195.30666666666667,463.27528,201.28,461.69136000000003C207.25333333333333,460.10744000000005,213.2266666666667,458.57344,219.20000000000002,456.81168C225.17333333333335,455.04992000000004,231.14666666666668,453.21016000000003,237.12,451.12080000000003C243.09333333333333,449.03144000000003,249.06666666666666,446.85368000000005,255.04,444.27552000000003C261.0133333333333,441.69736,266.9866666666667,438.51288,272.96000000000004,435.65184C278.93333333333334,432.7908,284.9066666666667,429.94016,290.88,427.10928C296.85333333333335,424.27840000000003,302.82666666666665,421.51928,308.8,418.66656C314.77333333333337,415.81384,320.74666666666667,413.11504,326.72,409.99296000000004C332.6933333333334,406.87088000000006,338.6666666666667,403.1872,344.64000000000004,399.93408C350.61333333333334,396.68095999999997,356.5866666666667,393.33008,362.56,390.47424C368.53333333333336,387.6184,374.50666666666666,385.69232,380.48,382.79904C386.4533333333334,379.90576,392.4266666666667,376.18879999999996,398.40000000000003,373.11456C404.37333333333333,370.04032,410.3466666666667,367.20216000000005,416.32,364.35360000000003C422.29333333333335,361.50504,428.26666666666665,358.58783999999997,434.24,356.0232C440.21333333333337,353.45856,446.18666666666667,351.19032,452.16,348.96576C458.1333333333333,346.7412,464.1066666666667,342.91712,470.08,342.67584C476.05333333333334,342.43456,482.02666666666664,342.5552,488,342.31392C493.97333333333336,342.07264,499.94666666666666,336.1228,505.92,333.7464C511.8933333333334,331.37,517.8666666666667,329.53232,523.84,328.05552C529.8133333333334,326.57872000000003,535.7866666666666,326.5167984,541.76,324.8856C547.7333333333333,323.2544016,553.7066666666666,321.0707552,559.68,318.2683296C565.6533333333333,315.465904,571.6266666666667,311.5413704,577.6,308.0710464C583.5733333333334,304.6007224,589.5466666666666,301.06215360000004,595.52,297.44638560000004C601.4933333333333,293.83061760000004,607.4666666666667,290.1437240000001,613.44,286.37643840000004C619.4133333333334,282.60915280000006,625.3866666666667,278.76782959999997,631.36,274.842672C637.3333333333334,270.91751439999996,643.3066666666667,266.91515760000004,649.2800000000001,262.8254928C655.2533333333333,258.735828,661.2266666666667,254.56572959999997,667.1999999999999,250.3046832C673.1733333333333,246.04363679999997,679.1466666666666,241.69881840000002,685.12,237.25921440000002C691.0933333333334,232.81961040000004,697.0666666666666,228.29271920000002,703.04,223.66705920000004C709.0133333333333,219.04139920000003,714.9866666666667,214.32476000000003,720.96,209.5052544C726.9333333333334,204.68574880000003,732.9066666666666,199.7714992,738.88,194.75002560000001C744.8533333333334,189.728552,750.8266666666667,184.60833040000006,756.8000000000001,179.37641280000003C762.7733333333333,174.14449520000005,768.7466666666667,168.80969039999997,774.7199999999999,163.35852C780.6933333333333,157.90734959999997,786.6666666666666,152.34900720000007,792.64,146.66939040000005C798.6133333333333,140.98977360000006,804.5866666666666,135.19845039999998,810.56,129.2808192C816.5333333333333,123.36318799999997,822.5066666666667,117.32922239999996,828.48,111.16360319999995C834.4533333333334,104.99798399999999,840.4266666666666,98.71111120000002,846.4,92.28710400000006C852.3733333333333,85.86309680000005,858.3466666666667,79.31277120000006,864.32,72.61956000000004C870.2933333333334,65.92634880000006,876.2666666666667,59.02709280000006,882.24,52.12783680000007L882.24,52.12783680000007C876.2666666666667,59.02709280000006,870.2933333333334,65.92634880000006,864.32,72.61956000000004C858.3466666666667,79.31277120000006,852.3733333333333,85.86309680000005,846.4,92.28710400000006C840.4266666666666,98.71111120000002,834.4533333333334,104.99798399999999,828.48,111.16360319999995C822.5066666666667,117.32922239999996,816.5333333333333,123.36318799999997,810.56,129.2808192C804.5866666666666,135.19845039999998,798.6133333333333,140.98977360000006,792.64,146.66939040000005C786.6666666666666,152.34900720000007,780.6933333333333,157.90734959999997,774.7199999999999,163.35852C768.7466666666667,168.80969039999997,762.7733333333333,174.14449520000005,756.8000000000001,179.37641280000003C750.8266666666667,184.60833040000006,744.8533333333334,189.728552,738.88,194.75002560000001C732.9066666666666,199.7714992,726.9333333333334,204.68574880000003,720.96,209.5052544C714.9866666666667,214.32476000000003,709.0133333333333,219.04139920000003,703.04,223.66705920000004C697.0666666666666,228.29271920000002,691.0933333333334,232.81961040000004,685.12,237.25921440000002C679.1466666666666,241.69881840000002,673.1733333333333,246.04363679999997,667.1999999999999,250.3046832C661.2266666666667,254.56572959999997,655.2533333333333,258.735828,649.2800000000001,262.8254928C643.3066666666667,266.91515760000004,637.3333333333334,270.91751439999996,631.36,274.842672C625.3866666666667,278.76782959999997,619.4133333333334,282.60915280000006,613.44,286.37643840000004C607.4666666666667,290.1437240000001,601.4933333333333,293.83061760000004,595.52,297.44638560000004C589.5466666666666,301.06215360000004,583.5733333333334,304.6007224,577.6,308.0710464C571.6266666666667,311.5413704,565.6533333333333,315.465904,559.68,318.2683296C553.7066666666666,321.0707552,547.7333333333333,323.2544016,541.76,324.8856C535.7866666666666,326.5167984,529.8133333333334,326.57872000000003,523.84,328.05552C517.8666666666667,329.53232,511.8933333333334,331.37,505.92,333.7464C499.94666666666666,336.1228,493.97333333333336,342.07264,488,342.31392C482.02666666666664,342.5552,476.05333333333334,342.43456,470.08,342.67584C464.1066666666667,342.91712,458.1333333333333,346.7412,452.16,348.96576C446.18666666666667,351.19032,440.21333333333337,353.45856,434.24,356.0232C428.26666666666665,358.58783999999997,422.29333333333335,361.50504,416.32,364.35360000000003C410.3466666666667,367.20216000000005,404.37333333333333,370.04032,398.40000000000003,373.11456C392.4266666666667,376.18879999999996,386.4533333333334,379.90576,380.48,382.79904C374.50666666666666,385.69232,368.53333333333336,387.6184,362.56,390.47424C356.5866666666667,393.33008,350.61333333333334,396.68095999999997,344.64000000000004,399.93408C338.6666666666667,403.1872,332.6933333333334,406.87088000000006,326.72,409.99296000000004C320.74666666666667,413.11504,314.77333333333337,415.81384,308.8,418.66656C302.82666666666665,421.51928,296.85333333333335,424.27840000000003,290.88,427.10928C284.9066666666667,429.94016,278.93333333333334,432.7908,272.96000000000004,435.65184C266.9866666666667,438.51288,261.0133333333333,441.69736,255.04,444.27552000000003C249.06666666666666,446.85368000000005,243.09333333333333,449.03144000000003,237.12,451.12080000000003C231.14666666666668,453.21016000000003,225.17333333333335,455.04992000000004,219.20000000000002,456.81168C213.2266666666667,458.57344,207.25333333333333,460.10744000000005,201.28,461.69136000000003C195.30666666666667,463.27528,189.33333333333334,464.68344,183.36,466.3152C177.38666666666668,467.94696,171.41333333333333,469.86368,165.44,471.48192C159.46666666666667,473.10016,153.4933333333333,474.52288000000004,147.51999999999998,476.02464000000003C141.54666666666665,477.5264,135.57333333333335,479.12696,129.60000000000002,480.49248C123.62666666666668,481.858,117.65333333333335,483.00304,111.68,484.21776C105.70666666666666,485.43248,99.73333333333333,486.45272,93.75999999999999,487.7808C87.78666666666666,489.10888,81.81333333333333,490.78328,75.84,492.18624C69.86666666666667,493.5892,63.89333333333334,494.89388,57.92,496.19856000000004Z"/></g></g><g id="lines"><g class="series"><clipPath id="clip-0-0"><rect width="936" y="-20" height="599.6"/></clipPath><path class="line" opacity="1" fill="none" stroke="rgb(17, 165, 121)" stroke-width="2" transform="translate(15,20)" clip-path="url(#clip-0-0)" d="M57.92,518.232C63.89333333333334,517.2959999999999,69.86666666666667,516.36,75.84,515.424C81.81333333333333,514.4879999999999,87.78666666666666,513.5624,93.75999999999999,512.616C99.73333333333333,511.6696,105.70666666666666,510.7024,111.68,509.7456C117.65333333333335,508.78880000000004,123.62666666666668,508.11488,129.60000000000002,506.8752C135.57333333333335,505.63552,141.54666666666665,503.68240000000003,147.51999999999998,502.30752C153.4933333333333,500.93264,159.46666666666667,499.70752,165.44,498.62592C171.41333333333333,497.54432,177.38666666666668,496.82464000000004,183.36,495.81792C189.33333333333334,494.81120000000004,195.30666666666667,493.77952,201.28,492.5856C207.25333333333333,491.39168,213.2266666666667,489.7152,219.20000000000002,488.6544C225.17333333333335,487.59360000000004,231.14666666666668,487.6872000000001,237.12,486.22080000000005C243.09333333333333,484.75440000000003,249.06666666666666,483.5168,255.04,479.856C261.0133333333333,476.1952,266.9866666666667,468.10400000000004,272.96000000000004,464.25600000000003C278.93333333333334,460.4080000000001,284.9066666666667,460.408,290.88,456.76800000000003C296.85333333333335,453.12800000000004,302.82666666666665,445.692,308.8,442.416C314.77333333333337,439.14,320.74666666666667,439.81600000000003,326.72,437.112C332.6933333333334,434.408,338.6666666666667,429.884,344.64000000000004,426.192C350.61333333333334,422.5,356.5866666666667,418.444,362.56,414.96000000000004C368.53333333333336,411.47600000000006,374.50666666666666,408.33000000000004,380.48,405.288C386.4533333333334,402.246,392.4266666666667,399.69800000000004,398.40000000000003,396.708C404.37333333333333,393.718,410.3466666666667,390.442,416.32,387.348C422.29333333333335,384.254,428.26666666666665,380.2916,434.24,378.144C440.21333333333337,375.9964,446.18666666666667,375.7156,452.16,374.4624C458.1333333333333,373.2092,464.1066666666667,371.91960000000006,470.08,370.62480000000005C476.05333333333334,369.33000000000004,482.02666666666664,369.17400000000004,488,366.6936C493.97333333333336,364.2132,499.94666666666666,358.25399999999996,505.92,355.7424C511.8933333333334,353.2308,517.8666666666667,351.624,523.84,351.624C529.8133333333334,351.624,535.7866666666666,355.82976,541.76,355.82976C547.7333333333333,355.82976,553.7066666666666,345.6071528,559.68,341.4234096C565.6533333333333,337.2396664,571.6266666666667,334.37927120000006,577.6,330.7273008C583.5733333333334,327.07533040000004,589.5466666666666,323.3409608,595.52,319.5115872C601.4933333333333,315.6822136,607.4666666666667,311.766468,613.44,307.7510592C619.4133333333334,303.7356504,625.3866666666667,299.629616,631.36,295.4191344C637.3333333333334,291.2086528,643.3066666666667,286.9031984,649.2800000000001,282.4881696C655.2533333333333,278.07314080000003,661.2266666666667,273.55846959999997,667.1999999999999,268.9289616C673.1733333333333,264.29945359999994,679.1466666666666,259.56551920000004,685.12,254.7111216C691.0933333333334,249.85672400000004,697.0666666666666,244.892804,703.04,239.80257600000004C709.0133333333333,234.71234800000002,714.9866666666667,229.50727280000007,720.96,224.16975360000004C726.9333333333334,218.83223440000006,732.9066666666666,213.37427280000003,738.88,207.77746080000003C744.8533333333334,202.1806488,750.8266666666667,196.45757040000004,756.8000000000001,190.58888159999998C762.7733333333333,184.7201928,768.7466666666667,178.71912239999992,774.7199999999999,172.56532799999997C780.6933333333333,166.41153359999993,786.6666666666666,160.11886800000005,792.64,153.66611520000004C798.6133333333333,147.21336240000005,804.5866666666666,140.6150304,810.56,133.8488112C816.5333333333333,127.08259199999998,822.5066666666667,120.16372160000003,828.48,113.06880000000001C834.4533333333334,105.97387840000003,840.4266666666666,98.71886959999996,846.4,91.27928159999999C852.3733333333333,83.83969359999998,858.3466666666667,76.23227040000005,864.32,68.43127200000004C870.2933333333334,60.63027360000007,876.2666666666667,52.551782400000064,882.24,44.47329120000006"/><text class="label" font-size="11" alignment-baseline="middle" opacity="1" x="5" fill="rgb(17, 165, 121)" transform="translate(897.239990234375, 64.4732894897461)"/></g><g class="series"><clipPath id="clip-0-1"><rect width="936" y="-20" height="599.6"/></clipPath><path class="line" opacity="1" fill="none" stroke="rgb(128, 35, 146)" stroke-width="2" transform="translate(15,20)" clip-path="url(#clip-0-1)" d="M57.92,496.19856000000004C63.89333333333334,494.89388,69.86666666666667,493.5892,75.84,492.18624C81.81333333333333,490.78328,87.78666666666666,489.10888,93.75999999999999,487.7808C99.73333333333333,486.45272,105.70666666666666,485.43248,111.68,484.21776C117.65333333333335,483.00304,123.62666666666668,481.858,129.60000000000002,480.49248C135.57333333333335,479.12696,141.54666666666665,477.5264,147.51999999999998,476.02464000000003C153.4933333333333,474.52288000000004,159.46666666666667,473.10016,165.44,471.48192C171.41333333333333,469.86368,177.38666666666668,467.94696,183.36,466.3152C189.33333333333334,464.68344,195.30666666666667,463.27528,201.28,461.69136000000003C207.25333333333333,460.10744000000005,213.2266666666667,458.57344,219.20000000000002,456.81168C225.17333333333335,455.04992000000004,231.14666666666668,453.21016000000003,237.12,451.12080000000003C243.09333333333333,449.03144000000003,249.06666666666666,446.85368000000005,255.04,444.27552000000003C261.0133333333333,441.69736,266.9866666666667,438.51288,272.96000000000004,435.65184C278.93333333333334,432.7908,284.9066666666667,429.94016,290.88,427.10928C296.85333333333335,424.27840000000003,302.82666666666665,421.51928,308.8,418.66656C314.77333333333337,415.81384,320.74666666666667,413.11504,326.72,409.99296000000004C332.6933333333334,406.87088000000006,338.6666666666667,403.1872,344.64000000000004,399.93408C350.61333333333334,396.68095999999997,356.5866666666667,393.33008,362.56,390.47424C368.53333333333336,387.6184,374.50666666666666,385.69232,380.48,382.79904C386.4533333333334,379.90576,392.4266666666667,376.18879999999996,398.40000000000003,373.11456C404.37333333333333,370.04032,410.3466666666667,367.20216000000005,416.32,364.35360000000003C422.29333333333335,361.50504,428.26666666666665,358.58783999999997,434.24,356.0232C440.21333333333337,353.45856,446.18666666666667,351.19032,452.16,348.96576C458.1333333333333,346.7412,464.1066666666667,342.91712,470.08,342.67584C476.05333333333334,342.43456,482.02666666666664,342.5552,488,342.31392C493.97333333333336,342.07264,499.94666666666666,336.1228,505.92,333.7464C511.8933333333334,331.37,517.8666666666667,329.53232,523.84,328.05552C529.8133333333334,326.57872000000003,535.7866666666666,326.5167984,541.76,324.8856C547.7333333333333,323.2544016,553.7066666666666,321.0707552,559.68,318.2683296C565.6533333333333,315.465904,571.6266666666667,311.5413704,577.6,308.0710464C583.5733333333334,304.6007224,589.5466666666666,301.06215360000004,595.52,297.44638560000004C601.4933333333333,293.83061760000004,607.4666666666667,290.1437240000001,613.44,286.37643840000004C619.4133333333334,282.60915280000006,625.3866666666667,278.76782959999997,631.36,274.842672C637.3333333333334,270.91751439999996,643.3066666666667,266.91515760000004,649.2800000000001,262.8254928C655.2533333333333,258.735828,661.2266666666667,254.56572959999997,667.1999999999999,250.3046832C673.1733333333333,246.04363679999997,679.1466666666666,241.69881840000002,685.12,237.25921440000002C691.0933333333334,232.81961040000004,697.0666666666666,228.29271920000002,703.04,223.66705920000004C709.0133333333333,219.04139920000003,714.9866666666667,214.32476000000003,720.96,209.5052544C726.9333333333334,204.68574880000003,732.9066666666666,199.7714992,738.88,194.75002560000001C744.8533333333334,189.728552,750.8266666666667,184.60833040000006,756.8000000000001,179.37641280000003C762.7733333333333,174.14449520000005,768.7466666666667,168.80969039999997,774.7199999999999,163.35852C780.6933333333333,157.90734959999997,786.6666666666666,152.34900720000007,792.64,146.66939040000005C798.6133333333333,140.98977360000006,804.5866666666666,135.19845039999998,810.56,129.2808192C816.5333333333333,123.36318799999997,822.5066666666667,117.32922239999996,828.48,111.16360319999995C834.4533333333334,104.99798399999999,840.4266666666666,98.71111120000002,846.4,92.28710400000006C852.3733333333333,85.86309680000005,858.3466666666667,79.31277120000006,864.32,72.61956000000004C870.2933333333334,65.92634880000006,876.2666666666667,59.02709280000006,882.24,52.12783680000007"/><text class="label" font-size="11" alignment-baseline="middle" opacity="1" x="5" fill="rgb(128, 35, 146)" transform="translate(897.239990234375, 72.12783813476562)"/></g></g><g id="data-points"><g class="series" transform="translate(15,20)"><path class="data-point" fill="rgb(17, 165, 121)" data-type="point" transform="translate(0, 0)" d="M54.92,518.232A3,3,0,1,1,60.92,518.232A3,3,0,1,1,54.92,518.232Z" id="point-0-0" opacity="1"/><path class="data-point" fill="rgb(17, 165, 121)" data-type="point" transform="translate(0, 0)" d="M72.84,515.424A3,3,0,1,1,78.84,515.424A3,3,0,1,1,72.84,515.424Z" id="point-0-1" opacity="1"/><path class="data-point" fill="rgb(17, 165, 121)" data-type="point" transform="translate(0, 0)" d="M90.75999999999999,512.616A3,3,0,1,1,96.75999999999999,512.616A3,3,0,1,1,90.75999999999999,512.616Z" id="point-0-2" opacity="1"/><path class="data-point" fill="rgb(17, 165, 121)" data-type="point" transform="translate(0, 0)" d="M108.68,509.7456A3,3,0,1,1,114.68,509.7456A3,3,0,1,1,108.68,509.7456Z" id="point-0-3" opacity="1"/><path class="data-point" fill="rgb(17, 165, 121)" data-type="point" transform="translate(0, 0)" d="M126.60000000000002,506.8752A3,3,0,1,1,132.60000000000002,506.8752A3,3,0,1,1,126.60000000000002,506.8752Z" id="point-0-4" opacity="1"/><path class="data-point" fill="rgb(17, 165, 121)" data-type="point" transform="translate(0, 0)" d="M144.51999999999998,502.30752A3,3,0,1,1,150.51999999999998,502.30752A3,3,0,1,1,144.51999999999998,502.30752Z" id="point-0-5" opacity="1"/><path class="data-point" fill="rgb(17, 165, 121)" data-type="point" transform="translate(0, 0)" d="M162.44,498.62592A3,3,0,1,1,168.44,498.62592A3,3,0,1,1,162.44,498.62592Z" id="point-0-6" opacity="1"/><path class="data-point" fill="rgb(17, 165, 121)" data-type="point" transform="translate(0, 0)" d="M180.36,495.81792A3,3,0,1,1,186.36,495.81792A3,3,0,1,1,180.36,495.81792Z" id="point-0-7" opacity="1"/><path class="data-point" fill="rgb(17, 165, 121)" data-type="point" transform="translate(0, 0)" d="M198.28,492.5856A3,3,0,1,1,204.28,492.5856A3,3,0,1,1,198.28,492.5856Z" id="point-0-8" opacity="1"/><path class="data-point" fill="rgb(17, 165, 121)" data-type="point" transform="translate(0, 0)" d="M216.20000000000002,488.6544A3,3,0,1,1,222.20000000000002,488.6544A3,3,0,1,1,216.20000000000002,488.6544Z" id="point-0-9" opacity="1"/><path class="data-point" fill="rgb(17, 165, 121)" data-type="point" transform="translate(0, 0)" d="M234.12,486.22080000000005A3,3,0,1,1,240.12,486.22080000000005A3,3,0,1,1,234.12,486.22080000000005Z" id="point-0-10" opacity="1"/><path class="data-point" fill="rgb(17, 165, 121)" data-type="point" transform="translate(0, 0)" d="M252.04,479.856A3,3,0,1,1,258.03999999999996,479.856A3,3,0,1,1,252.04,479.856Z" id="point-0-11" opacity="1"/><path class="data-point" fill="rgb(17, 165, 121)" data-type="point" transform="translate(0, 0)" d="M269.96000000000004,464.25600000000003A3,3,0,1,1,275.96000000000004,464.25600000000003A3,3,0,1,1,269.96000000000004,464.25600000000003Z" id="point-0-12" opacity="1"/><path class="data-point" fill="rgb(17, 165, 121)" data-type="point" transform="translate(0, 0)" d="M287.88,456.76800000000003A3,3,0,1,1,293.88,456.76800000000003A3,3,0,1,1,287.88,456.76800000000003Z" id="point-0-13" opacity="1"/><path class="data-point" fill="rgb(17, 165, 121)" data-type="point" transform="translate(0, 0)" d="M305.8,442.416A3,3,0,1,1,311.8,442.416A3,3,0,1,1,305.8,442.416Z" id="point-0-14" opacity="1"/><path class="data-point" fill="rgb(17, 165, 121)" data-type="point" transform="translate(0, 0)" d="M323.72,437.112A3,3,0,1,1,329.72,437.112A3,3,0,1,1,323.72,437.112Z" id="point-0-15" opacity="1"/><path class="data-point" fill="rgb(17, 165, 121)" data-type="point" transform="translate(0, 0)" d="M341.64000000000004,426.192A3,3,0,1,1,347.64000000000004,426.192A3,3,0,1,1,341.64000000000004,426.192Z" id="point-0-16" opacity="1"/><path class="data-point" fill="rgb(17, 165, 121)" data-type="point" transform="translate(0, 0)" d="M359.56,414.96000000000004A3,3,0,1,1,365.56,414.96000000000004A3,3,0,1,1,359.56,414.96000000000004Z" id="point-0-17" opacity="1"/><path class="data-point" fill="rgb(17, 165, 121)" data-type="point" transform="translate(0, 0)" d="M377.48,405.288A3,3,0,1,1,383.48,405.288A3,3,0,1,1,377.48,405.288Z" id="point-0-18" opacity="1"/><path class="data-point" fill="rgb(17, 165, 121)" data-type="point" transform="translate(0, 0)" d="M395.40000000000003,396.708A3,3,0,1,1,401.40000000000003,396.708A3,3,0,1,1,395.40000000000003,396.708Z" id="point-0-19" opacity="1"/><path class="data-point" fill="rgb(17, 165, 121)" data-type="point" transform="translate(0, 0)" d="M413.32,387.348A3,3,0,1,1,419.32,387.348A3,3,0,1,1,413.32,387.348Z" id="point-0-20" opacity="1"/><path class="data-point" fill="rgb(17, 165, 121)" data-type="point" transform="translate(0, 0)" d="M431.24,378.144A3,3,0,1,1,437.24,378.144A3,3,0,1,1,431.24,378.144Z" id="point-0-21" opacity="1"/><path class="data-point" fill="rgb(17, 165, 121)" data-type="point" transform="translate(0, 0)" d="M449.16,374.4624A3,3,0,1,1,455.16,374.4624A3,3,0,1,1,449.16,374.4624Z" id="point-0-22" opacity="1"/><path class="data-point" fill="rgb(17, 165, 121)" data-type="point" transform="translate(0, 0)" d="M467.08,370.62480000000005A3,3,0,1,1,473.08,370.62480000000005A3,3,0,1,1,467.08,370.62480000000005Z" id="point-0-23" opacity="1"/><path class="data-point" fill="rgb(17, 165, 121)" data-type="point" transform="translate(0, 0)" d="M485,366.6936A3,3,0,1,1,491,366.6936A3,3,0,1,1,485,366.6936Z" id="point-0-24" opacity="1"/><path class="data-point" fill="rgb(17, 165, 121)" data-type="point" transform="translate(0, 0)" d="M502.92,355.7424A3,3,0,1,1,508.92,355.7424A3,3,0,1,1,502.92,355.7424Z" id="point-0-25" opacity="1"/><path class="data-point" fill="rgb(17, 165, 121)" data-type="point" transform="translate(0, 0)" d="M520.84,351.624A3,3,0,1,1,526.84,351.624A3,3,0,1,1,520.84,351.624Z" id="point-0-26" opacity="1"/><path class="data-point" fill="rgb(17, 165, 121)" data-type="point" transform="translate(0, 0)" d="M538.76,355.82976A3,3,0,1,1,544.76,355.82976A3,3,0,1,1,538.76,355.82976Z" id="point-0-27" opacity="1"/><path class="data-point" fill="rgb(17, 165, 121)" data-type="point" transform="translate(0, 0)" d="M556.68,341.4234096A3,3,0,1,1,562.68,341.4234096A3,3,0,1,1,556.68,341.4234096Z" id="point-0-28" opacity="1"/><path class="data-point" fill="rgb(17, 165, 121)" data-type="point" transform="translate(0, 0)" d="M574.6,330.7273008A3,3,0,1,1,580.6,330.7273008A3,3,0,1,1,574.6,330.7273008Z" id="point-0-29" opacity="1"/><path class="data-point" fill="rgb(17, 165, 121)" data-type="point" transform="translate(0, 0)" d="M592.52,319.5115872A3,3,0,1,1,598.52,319.5115872A3,3,0,1,1,592.52,319.5115872Z" id="point-0-30" opacity="1"/><path class="data-point" fill="rgb(17, 165, 121)" data-type="point" transform="translate(0, 0)" d="M610.44,307.7510592A3,3,0,1,1,616.44,307.7510592A3,3,0,1,1,610.44,307.7510592Z" id="point-0-31" opacity="1"/><path class="data-point" fill="rgb(17, 165, 121)" data-type="point" transform="translate(0, 0)" d="M628.36,295.4191344A3,3,0,1,1,634.36,295.4191344A3,3,0,1,1,628.36,295.4191344Z" id="point-0-32" opacity="1"/><path class="data-point" fill="rgb(17, 165, 121)" data-type="point" transform="translate(0, 0)" d="M646.2800000000001,282.4881696A3,3,0,1,1,652.2800000000001,282.4881696A3,3,0,1,1,646.2800000000001,282.4881696Z" id="point-0-33" opacity="1"/><path class="data-point" fill="rgb(17, 165, 121)" data-type="point" transform="translate(0, 0)" d="M664.1999999999999,268.9289616A3,3,0,1,1,670.1999999999999,268.9289616A3,3,0,1,1,664.1999999999999,268.9289616Z" id="point-0-34" opacity="1"/><path class="data-point" fill="rgb(17, 165, 121)" data-type="point" transform="translate(0, 0)" d="M682.12,254.7111216A3,3,0,1,1,688.12,254.7111216A3,3,0,1,1,682.12,254.7111216Z" id="point-0-35" opacity="1"/><path class="data-point" fill="rgb(17, 165, 121)" data-type="point" transform="translate(0, 0)" d="M700.04,239.80257600000004A3,3,0,1,1,706.04,239.80257600000004A3,3,0,1,1,700.04,239.80257600000004Z" id="point-0-36" opacity="1"/><path class="data-point" fill="rgb(17, 165, 121)" data-type="point" transform="translate(0, 0)" d="M717.96,224.16975360000004A3,3,0,1,1,723.96,224.16975360000004A3,3,0,1,1,717.96,224.16975360000004Z" id="point-0-37" opacity="1"/><path class="data-point" fill="rgb(17, 165, 121)" data-type="point" transform="translate(0, 0)" d="M735.88,207.77746080000003A3,3,0,1,1,741.88,207.77746080000003A3,3,0,1,1,735.88,207.77746080000003Z" id="point-0-38" opacity="1"/><path class="data-point" fill="rgb(17, 165, 121)" data-type="point" transform="translate(0, 0)" d="M753.8000000000001,190.58888159999998A3,3,0,1,1,759.8000000000001,190.58888159999998A3,3,0,1,1,753.8000000000001,190.58888159999998Z" id="point-0-39" opacity="1"/><path class="data-point" fill="rgb(17, 165, 121)" data-type="point" transform="translate(0, 0)" d="M771.7199999999999,172.56532799999997A3,3,0,1,1,777.7199999999999,172.56532799999997A3,3,0,1,1,771.7199999999999,172.56532799999997Z" id="point-0-40" opacity="1"/><path class="data-point" fill="rgb(17, 165, 121)" data-type="point" transform="translate(0, 0)" d="M789.64,153.66611520000004A3,3,0,1,1,795.64,153.66611520000004A3,3,0,1,1,789.64,153.66611520000004Z" id="point-0-41" opacity="1"/><path class="data-point" fill="rgb(17, 165, 121)" data-type="point" transform="translate(0, 0)" d="M807.56,133.8488112A3,3,0,1,1,813.56,133.8488112A3,3,0,1,1,807.56,133.8488112Z" id="point-0-42" opacity="1"/><path class="data-point" fill="rgb(17, 165, 121)" data-type="point" transform="translate(0, 0)" d="M825.48,113.06880000000001A3,3,0,1,1,831.48,113.06880000000001A3,3,0,1,1,825.48,113.06880000000001Z" id="point-0-43" opacity="1"/><path class="data-point" fill="rgb(17, 165, 121)" data-type="point" transform="translate(0, 0)" d="M843.4,91.27928159999999A3,3,0,1,1,849.4,91.27928159999999A3,3,0,1,1,843.4,91.27928159999999Z" id="point-0-44" opacity="1"/><path class="data-point" fill="rgb(17, 165, 121)" data-type="point" transform="translate(0, 0)" d="M861.32,68.43127200000004A3,3,0,1,1,867.32,68.43127200000004A3,3,0,1,1,861.32,68.43127200000004Z" id="point-0-45" opacity="1"/><path class="data-point" fill="rgb(17, 165, 121)" data-type="point" transform="translate(0, 0)" d="M879.24,44.47329120000006A3,3,0,1,1,885.24,44.47329120000006A3,3,0,1,1,879.24,44.47329120000006Z" id="point-0-46" opacity="1"/></g><g class="series" transform="translate(15,20)"><path class="data-point" fill="rgb(128, 35, 146)" data-type="point" transform="translate(0, 0)" d="M54.92,496.19856000000004A3,3,0,1,1,60.92,496.19856000000004A3,3,0,1,1,54.92,496.19856000000004Z" id="point-1-0" opacity="1"/><path class="data-point" fill="rgb(128, 35, 146)" data-type="point" transform="translate(0, 0)" d="M72.84,492.18624A3,3,0,1,1,78.84,492.18624A3,3,0,1,1,72.84,492.18624Z" id="point-1-1" opacity="1"/><path class="data-point" fill="rgb(128, 35, 146)" data-type="point" transform="translate(0, 0)" d="M90.75999999999999,487.7808A3,3,0,1,1,96.75999999999999,487.7808A3,3,0,1,1,90.75999999999999,487.7808Z" id="point-1-2" opacity="1"/><path class="data-point" fill="rgb(128, 35, 146)" data-type="point" transform="translate(0, 0)" d="M108.68,484.21776A3,3,0,1,1,114.68,484.21776A3,3,0,1,1,108.68,484.21776Z" id="point-1-3" opacity="1"/><path class="data-point" fill="rgb(128, 35, 146)" data-type="point" transform="translate(0, 0)" d="M126.60000000000002,480.49248A3,3,0,1,1,132.60000000000002,480.49248A3,3,0,1,1,126.60000000000002,480.49248Z" id="point-1-4" opacity="1"/><path class="data-point" fill="rgb(128, 35, 146)" data-type="point" transform="translate(0, 0)" d="M144.51999999999998,476.02464000000003A3,3,0,1,1,150.51999999999998,476.02464000000003A3,3,0,1,1,144.51999999999998,476.02464000000003Z" id="point-1-5" opacity="1"/><path class="data-point" fill="rgb(128, 35, 146)" data-type="point" transform="translate(0, 0)" d="M162.44,471.48192A3,3,0,1,1,168.44,471.48192A3,3,0,1,1,162.44,471.48192Z" id="point-1-6" opacity="1"/><path class="data-point" fill="rgb(128, 35, 146)" data-type="point" transform="translate(0, 0)" d="M180.36,466.3152A3,3,0,1,1,186.36,466.3152A3,3,0,1,1,180.36,466.3152Z" id="point-1-7" opacity="1"/><path class="data-point" fill="rgb(128, 35, 146)" data-type="point" transform="translate(0, 0)" d="M198.28,461.69136000000003A3,3,0,1,1,204.28,461.69136000000003A3,3,0,1,1,198.28,461.69136000000003Z" id="point-1-8" opacity="1"/><path class="data-point" fill="rgb(128, 35, 146)" data-type="point" transform="translate(0, 0)" d="M216.20000000000002,456.81168A3,3,0,1,1,222.20000000000002,456.81168A3,3,0,1,1,216.20000000000002,456.81168Z" id="point-1-9" opacity="1"/><path class="data-point" fill="rgb(128, 35, 146)" data-type="point" transform="translate(0, 0)" d="M234.12,451.12080000000003A3,3,0,1,1,240.12,451.12080000000003A3,3,0,1,1,234.12,451.12080000000003Z" id="point-1-10" opacity="1"/><path class="data-point" fill="rgb(128, 35, 146)" data-type="point" transform="translate(0, 0)" d="M252.04,444.27552000000003A3,3,0,1,1,258.03999999999996,444.27552000000003A3,3,0,1,1,252.04,444.27552000000003Z" id="point-1-11" opacity="1"/><path class="data-point" fill="rgb(128, 35, 146)" data-type="point" transform="translate(0, 0)" d="M269.96000000000004,435.65184A3,3,0,1,1,275.96000000000004,435.65184A3,3,0,1,1,269.96000000000004,435.65184Z" id="point-1-12" opacity="1"/><path class="data-point" fill="rgb(128, 35, 146)" data-type="point" transform="translate(0, 0)" d="M287.88,427.10928A3,3,0,1,1,293.88,427.10928A3,3,0,1,1,287.88,427.10928Z" id="point-1-13" opacity="1"/><path class="data-point" fill="rgb(128, 35, 146)" data-type="point" transform="translate(0, 0)" d="M305.8,418.66656A3,3,0,1,1,311.8,418.66656A3,3,0,1,1,305.8,418.66656Z" id="point-1-14" opacity="1"/><path class="data-point" fill="rgb(128, 35, 146)" data-type="point" transform="translate(0, 0)" d="M323.72,409.99296000000004A3,3,0,1,1,329.72,409.99296000000004A3,3,0,1,1,323.72,409.99296000000004Z" id="point-1-15" opacity="1"/><path class="data-point" fill="rgb(128, 35, 146)" data-type="point" transform="translate(0, 0)" d="M341.64000000000004,399.93408A3,3,0,1,1,347.64000000000004,399.93408A3,3,0,1,1,341.64000000000004,399.93408Z" id="point-1-16" opacity="1"/><path class="data-point" fill="rgb(128, 35, 146)" data-type="point" transform="translate(0, 0)" d="M359.56,390.47424A3,3,0,1,1,365.56,390.47424A3,3,0,1,1,359.56,390.47424Z" id="point-1-17" opacity="1"/><path class="data-point" fill="rgb(128, 35, 146)" data-type="point" transform="translate(0, 0)" d="M377.48,382.79904A3,3,0,1,1,383.48,382.79904A3,3,0,1,1,377.48,382.79904Z" id="point-1-18" opacity="1"/><path class="data-point" fill="rgb(128, 35, 146)" data-type="point" transform="translate(0, 0)" d="M395.40000000000003,373.11456A3,3,0,1,1,401.40000000000003,373.11456A3,3,0,1,1,395.40000000000003,373.11456Z" id="point-1-19" opacity="1"/><path class="data-point" fill="rgb(128, 35, 146)" data-type="point" transform="translate(0, 0)" d="M413.32,364.35360000000003A3,3,0,1,1,419.32,364.35360000000003A3,3,0,1,1,413.32,364.35360000000003Z" id="point-1-20" opacity="1"/><path class="data-point" fill="rgb(128, 35, 146)" data-type="point" transform="translate(0, 0)" d="M431.24,356.0232A3,3,0,1,1,437.24,356.0232A3,3,0,1,1,431.24,356.0232Z" id="point-1-21" opacity="1"/><path class="data-point" fill="rgb(128, 35, 146)" data-type="point" transform="translate(0, 0)" d="M449.16,348.96576A3,3,0,1,1,455.16,348.96576A3,3,0,1,1,449.16,348.96576Z" id="point-1-22" opacity="1"/><path class="data-point" fill="rgb(128, 35, 146)" data-type="point" transform="translate(0, 0)" d="M467.08,342.67584A3,3,0,1,1,473.08,342.67584A3,3,0,1,1,467.08,342.67584Z" id="point-1-23" opacity="1"/><path class="data-point" fill="rgb(128, 35, 146)" data-type="point" transform="translate(0, 0)" d="M485,342.31392A3,3,0,1,1,491,342.31392A3,3,0,1,1,485,342.31392Z" id="point-1-24" opacity="1"/><path class="data-point" fill="rgb(128, 35, 146)" data-type="point" transform="translate(0, 0)" d="M502.92,333.7464A3,3,0,1,1,508.92,333.7464A3,3,0,1,1,502.92,333.7464Z" id="point-1-25" opacity="1"/><path class="data-point" fill="rgb(128, 35, 146)" data-type="point" transform="translate(0, 0)" d="M520.84,328.05552A3,3,0,1,1,526.84,328.05552A3,3,0,1,1,520.84,328.05552Z" id="point-1-26" opacity="1"/><path class="data-point" fill="rgb(128, 35, 146)" data-type="point" transform="translate(0, 0)" d="M538.76,324.8856A3,3,0,1,1,544.76,324.8856A3,3,0,1,1,538.76,324.8856Z" id="point-1-27" opacity="1"/><path class="data-point" fill="rgb(128, 35, 146)" data-type="point" transform="translate(0, 0)" d="M556.68,318.2683296A3,3,0,1,1,562.68,318.2683296A3,3,0,1,1,556.68,318.2683296Z" id="point-1-28" opacity="1"/><path class="data-point" fill="rgb(128, 35, 146)" data-type="point" transform="translate(0, 0)" d="M574.6,308.0710464A3,3,0,1,1,580.6,308.0710464A3,3,0,1,1,574.6,308.0710464Z" id="point-1-29" opacity="1"/><path class="data-point" fill="rgb(128, 35, 146)" data-type="point" transform="translate(0, 0)" d="M592.52,297.44638560000004A3,3,0,1,1,598.52,297.44638560000004A3,3,0,1,1,592.52,297.44638560000004Z" id="point-1-30" opacity="1"/><path class="data-point" fill="rgb(128, 35, 146)" data-type="point" transform="translate(0, 0)" d="M610.44,286.37643840000004A3,3,0,1,1,616.44,286.37643840000004A3,3,0,1,1,610.44,286.37643840000004Z" id="point-1-31" opacity="1"/><path class="data-point" fill="rgb(128, 35, 146)" data-type="point" transform="translate(0, 0)" d="M628.36,274.842672A3,3,0,1,1,634.36,274.842672A3,3,0,1,1,628.36,274.842672Z" id="point-1-32" opacity="1"/><path class="data-point" fill="rgb(128, 35, 146)" data-type="point" transform="translate(0, 0)" d="M646.2800000000001,262.8254928A3,3,0,1,1,652.2800000000001,262.8254928A3,3,0,1,1,646.2800000000001,262.8254928Z" id="point-1-33" opacity="1"/><path class="data-point" fill="rgb(128, 35, 146)" data-type="point" transform="translate(0, 0)" d="M664.1999999999999,250.3046832A3,3,0,1,1,670.1999999999999,250.3046832A3,3,0,1,1,664.1999999999999,250.3046832Z" id="point-1-34" opacity="1"/><path class="data-point" fill="rgb(128, 35, 146)" data-type="point" transform="translate(0, 0)" d="M682.12,237.25921440000002A3,3,0,1,1,688.12,237.25921440000002A3,3,0,1,1,682.12,237.25921440000002Z" id="point-1-35" opacity="1"/><path class="data-point" fill="rgb(128, 35, 146)" data-type="point" transform="translate(0, 0)" d="M700.04,223.66705920000004A3,3,0,1,1,706.04,223.66705920000004A3,3,0,1,1,700.04,223.66705920000004Z" id="point-1-36" opacity="1"/><path class="data-point" fill="rgb(128, 35, 146)" data-type="point" transform="translate(0, 0)" d="M717.96,209.5052544A3,3,0,1,1,723.96,209.5052544A3,3,0,1,1,717.96,209.5052544Z" id="point-1-37" opacity="1"/><path class="data-point" fill="rgb(128, 35, 146)" data-type="point" transform="translate(0, 0)" d="M735.88,194.75002560000001A3,3,0,1,1,741.88,194.75002560000001A3,3,0,1,1,735.88,194.75002560000001Z" id="point-1-38" opacity="1"/><path class="data-point" fill="rgb(128, 35, 146)" data-type="point" transform="translate(0, 0)" d="M753.8000000000001,179.37641280000003A3,3,0,1,1,759.8000000000001,179.37641280000003A3,3,0,1,1,753.8000000000001,179.37641280000003Z" id="point-1-39" opacity="1"/><path class="data-point" fill="rgb(128, 35, 146)" data-type="point" transform="translate(0, 0)" d="M771.7199999999999,163.35852A3,3,0,1,1,777.7199999999999,163.35852A3,3,0,1,1,771.7199999999999,163.35852Z" id="point-1-40" opacity="1"/><path class="data-point" fill="rgb(128, 35, 146)" data-type="point" transform="translate(0, 0)" d="M789.64,146.66939040000005A3,3,0,1,1,795.64,146.66939040000005A3,3,0,1,1,789.64,146.66939040000005Z" id="point-1-41" opacity="1"/><path class="data-point" fill="rgb(128, 35, 146)" data-type="point" transform="translate(0, 0)" d="M807.56,129.2808192A3,3,0,1,1,813.56,129.2808192A3,3,0,1,1,807.56,129.2808192Z" id="point-1-42" opacity="1"/><path class="data-point" fill="rgb(128, 35, 146)" data-type="point" transform="translate(0, 0)" d="M825.48,111.16360319999995A3,3,0,1,1,831.48,111.16360319999995A3,3,0,1,1,825.48,111.16360319999995Z" id="point-1-43" opacity="1"/><path class="data-point" fill="rgb(128, 35, 146)" data-type="point" transform="translate(0, 0)" d="M843.4,92.28710400000006A3,3,0,1,1,849.4,92.28710400000006A3,3,0,1,1,843.4,92.28710400000006Z" id="point-1-44" opacity="1"/><path class="data-point" fill="rgb(128, 35, 146)" data-type="point" transform="translate(0, 0)" d="M861.32,72.61956000000004A3,3,0,1,1,867.32,72.61956000000004A3,3,0,1,1,861.32,72.61956000000004Z" id="point-1-45" opacity="1"/><path class="data-point" fill="rgb(128, 35, 146)" data-type="point" transform="translate(0, 0)" d="M879.24,52.12783680000007A3,3,0,1,1,885.24,52.12783680000007A3,3,0,1,1,879.24,52.12783680000007Z" id="point-1-46" opacity="1"/></g></g><g id="data-labels"/><g class="annotations above"><g class="axis-highlights" transform="translate(15, 20)" style="opacity: 1;"/></g></svg>