<svg xmlns="http://www.w3.org/2000/svg" id="graphic" width="961" height="634.6"><g id="facets"><g class="facet" transform="translate(15,20)" opacity="1"><text class="facet-title" y="0" font-size="16" font-weight="bold" dominant-baseline="middle" x="0" clip-path="url(#facet-clip-0)" fill="black"/><g class="plot"><clipPath class="facet-clip" id="facet-clip-0"><rect width="951" height="581.6" transform="translate(-7.5,-10)"/></clipPath><g class="bg"><rect fill="none" width="936" height="561.6" style="fill: none;"/></g><g class="interaction"><g class="series"><path data-target="point-0-0" d="M73.95604508928584,561.6L65.67672603571427,505.65527999999995L0,505.65527999999995L0,561.6Z" style="opacity: 0;"/><path data-target="point-0-1" d="M65.67672603571427,505.65527999999995L73.95604508928584,561.6L97.31022499999985,561.6L82.86148550000003,502.32311999999996L68.70048272714284,502.32311999999996Z" style="opacity: 0;"/><path data-target="point-0-2" d="M82.86148550000003,502.32311999999996L97.31022499999985,561.6L116.39571841071431,561.6L100.76687303571428,497.9364L86.75513033857142,497.9364Z" style="opacity: 0;"/><path data-target="point-0-3" d="M100.76687303571428,497.9364L116.39571841071431,561.6L133.77459549999995,561.6L118.93503505,493.95528L104.30189432142856,493.95528Z" style="opacity: 0;"/><path data-target="point-0-4" d="M118.93503505,493.95528L133.77459549999995,561.6L151.46021374571436,561.6L136.97545261999997,490.12703999999997L122.25565726214285,490.12703999999997Z" style="opacity: 0;"/><path data-target="point-0-5" d="M136.97545261999997,490.12703999999997L151.46021374571436,561.6L171.12874230857136,561.6L154.71873414857143,486.07728L140.50937444,486.07728Z" style="opacity: 0;"/><path data-target="point-0-6" d="M154.71873414857143,486.07728L171.12874230857136,561.6L187.2535798857143,561.6L172.81477034285714,481.85904L158.53481015999998,481.85904Z" style="opacity: 0;"/><path data-target="point-0-7" d="M172.81477034285714,481.85904L187.2535798857143,561.6L210.49710161428575,561.6L190.0935515085714,477.65328L176.92417337714284,477.65328Z" style="opacity: 0;"/><path data-target="point-0-8" d="M190.0935515085714,477.65328L210.49710161428575,561.6L226.93602569142865,561.6L208.2127764342857,473.1636L194.68360792571428,473.1636Z" style="opacity: 0;"/><path data-target="point-0-9" d="M208.2127764342857,473.1636L226.93602569142865,561.6L254.28886354,561.6L225.27901523285712,468.82679999999993L212.84738294142858,468.82679999999993Z" style="opacity: 0;"/><path data-target="point-0-10" d="M225.27901523285712,468.82679999999993L254.28886354,561.6L277.7226938749999,561.6L242.93723375,463.17959999999994L231.08589989714284,463.17959999999994Z" style="opacity: 0;"/><path data-target="point-0-11" d="M242.93723375,463.17959999999994L277.7226938749999,561.6L311.91906045642867,561.6L260.1051427071428,456.59015999999997L249.47666460714285,456.59015999999997Z" style="opacity: 0;"/><path data-target="point-0-12" d="M260.1051427071428,456.59015999999997L311.91906045642867,561.6L343.2942968799998,561.6L277.8637972,447.85727999999995L267.7986540428571,447.85727999999995Z" style="opacity: 0;"/><path data-target="point-0-13" d="M277.8637972,447.85727999999995L343.2942968799998,561.6L347.1433433599999,561.6L296.70594908,438.43175999999994L285.2813448142857,438.43175999999994Z" style="opacity: 0;"/><path data-target="point-0-14" d="M296.70594908,438.43175999999994L347.1433433599999,561.6L370.53894336000013,561.6L314.31475248,430.54128000000003L303.4457575635714,430.54128000000003Z" style="opacity: 0;"/><path data-target="point-0-15" d="M314.31475248,430.54128000000003L370.53894336000013,561.6L372.5449941400002,561.6L332.8841542942857,422.36064L321.64708932857144,422.36064Z" style="opacity: 0;"/><path data-target="point-0-16" d="M332.8841542942857,422.36064L372.5449941400002,561.6L445.36628199999996,561.6L398.66026033201075,481.28256676163375L347.4822338,414.77904L341.1896617085714,414.77904Z" style="opacity: 0;"/><path data-target="point-0-17" d="M347.4822338,414.77904L398.66026033201075,481.28256676163375L367.91803298571426,403.15391999999997L357.79662152,403.15391999999997Z" style="opacity: 0;"/><path data-target="point-0-18" d="M367.91803298571426,403.15391999999997L398.66026033201075,481.28256676163375L445.36628199999996,561.6L474.89294321428565,561.6L457.5833740920801,519.591944925525L384.90100137999997,395.79071999999996L375.4407251571429,395.79071999999996Z" style="opacity: 0;"/><path data-target="point-0-19" d="M384.90100137999997,395.79071999999996L457.5833740920801,519.591944925525L425.9698159897716,422.18029896265057L402.9954079314286,385.68816L393.61824784,385.68816Z" style="opacity: 0;"/><path data-target="point-0-20" d="M402.9954079314286,385.68816L425.9698159897716,422.18029896265057L425.06280119999997,375.66671999999994L410.74931817714287,375.66671999999994Z" style="opacity: 0;"/><path data-target="point-0-21" d="M425.06280119999997,375.66671999999994L425.9698159897716,422.18029896265057L457.5833740920801,519.591944925525L474.89294321428565,561.6L528.0562622864286,561.6L510.4465410257676,505.0639382782524L437.51920189,371.3268L430.45786425,371.3268Z" style="opacity: 0;"/><path data-target="point-0-22" d="M437.51920189,371.3268L510.4465410257676,505.0639382782524L496.96,447.31456548096025L495.87538109370854,444.2183398219746L456.46511421714285,362.91216L447.30279863499993,362.91216Z" style="opacity: 0;"/><path data-target="point-0-23" d="M456.46511421714285,362.91216L495.87538109370854,444.2183398219746L476.7053519142857,355.42416000000003L464.49077936,355.42416000000003Z" style="opacity: 0;"/><path data-target="point-0-24" d="M476.7053519142857,355.42416000000003L495.87538109370854,444.2183398219746L496.96,447.31456548096025L496.96,353.3088L479.25840256285716,353.30879999999996Z" style="opacity: 0;"/><path data-target="point-0-25" d="M496.96,353.3088L496.96,447.31456548096025L510.4465410257676,505.0639382782524L528.0562622864286,561.6L559.4340837114283,561.6L511.9121922071429,349.02504L502.2166324942857,349.02504Z" style="opacity: 0;"/><path data-target="point-0-26" d="M511.9121922071429,349.02504L559.4340837114283,561.6L583.5459660685718,561.6L529.3376434028571,344.17656L519.0959512571428,344.17656Z" style="opacity: 0;"/><path data-target="point-0-27" d="M529.3376434028571,344.17656L583.5459660685718,561.6L604.158029166716,561.6L547.3373715638232,340.35767999999996L535.2565323342857,340.35767999999996Z" style="opacity: 0;"/><path data-target="point-0-28" d="M547.3373715638232,340.35767999999996L604.158029166716,561.6L682.4245424061122,561.6L562.4300042867603,334.747889L555.5835915322255,334.747889Z" style="opacity: 0;"/><path data-target="point-0-29" d="M562.4300042867603,334.747889L682.4245424061122,561.6L710.8288827670556,561.6L579.9896898294281,324.909811L575.3206567201971,324.90981099999993Z" style="opacity: 0;"/><path data-target="point-0-30" d="M579.9896898294281,324.909811L710.8288827670556,561.6L740.1989435115518,561.6L597.5349906156623,314.64451199999996L593.6070168152545,314.64451199999996Z" style="opacity: 0;"/><path data-target="point-0-31" d="M597.5349906156623,314.64451199999996L740.1989435115518,561.6L770.6255560531915,561.6L615.066192494073,303.933427L611.9065112112288,303.933427Z" style="opacity: 0;"/><path data-target="point-0-32" d="M615.066192494073,303.933427L770.6255560531915,561.6L802.2038666737873,561.6L632.5839563710541,292.7571815L630.2185201733481,292.7571815Z" style="opacity: 0;"/><path data-target="point-0-33" d="M632.5839563710541,292.7571815L802.2038666737873,561.6L835.0398098079379,561.6L650.0889612748716,281.09549549999997L648.5425220320271,281.09549549999997Z" style="opacity: 0;"/><path data-target="point-0-34" d="M650.0889612748716,281.09549549999997L835.0398098079379,561.6L869.2522797360427,561.6L667.5821109324379,268.927308L666.8775562387389,268.927308Z" style="opacity: 0;"/><path data-target="point-0-35" d="M667.5821109324379,268.927308L869.2522797360427,561.6L904.9635575326072,561.6L685.1186246349266,256.3052461868246Z" style="opacity: 0;"/><path data-target="point-0-36" d="M685.1186246349266,256.3052461868246L904.9635575326072,561.6L936,561.6L936,553.2064475711281L702.9016348154274,243.46474512683446L685.1684218878946,256.1564304163705Z" style="opacity: 0;"/><path data-target="point-0-37" d="M702.9016348154274,243.46474512683446L936,553.2064475711281L936,503.79905287258293L720.6987197664798,230.04005155574808L703.2117852517458,242.50255127354285Z" style="opacity: 0;"/><path data-target="point-0-38" d="M720.6987197664798,230.04005155574808L936,503.79905287258293L936,456.2879034399834L738.512160576084,216.00499400479055L721.2414243740773,228.28002778148326Z" style="opacity: 0;"/><path data-target="point-0-39" d="M738.512160576084,216.00499400479055L936,456.2879034399834L936,410.49325752794914L756.3444221791138,201.3319663271237L739.2551898124192,213.46508605224358Z" style="opacity: 0;"/><path data-target="point-0-40" d="M756.3444221791138,201.3319663271237L936,410.49325752794914L936,366.24565767559636L774.1980809227772,185.99183247633L757.2509150243515,198.03289834103614Z" style="opacity: 0;"/><path data-target="point-0-41" d="M774.1980809227772,185.99183247633L936,366.24565767559636L936,323.379192291889L792.0757275197424,169.95412381628026L775.2263490102288,181.95793393933803Z" style="opacity: 0;"/><path data-target="point-0-42" d="M792.0757275197424,169.95412381628026L936,323.379192291889L936,281.73291661226995L809.9799433876789,153.18674846242195L793.179258052086,165.21380989317794Z" style="opacity: 0;"/><path data-target="point-0-43" d="M809.9799433876789,153.18674846242195L936,281.73291661226995L936,241.15596774396784L827.9132511409224,135.65567167895563L811.1074822502936,147.77315414567028Z" style="opacity: 0;"/><path data-target="point-0-44" d="M827.9132511409224,135.65567167895563L936,241.15596774396784L936,201.49820657772977L845.877904727347,117.32535191166843L829.0090539504653,129.6079713062379Z" style="opacity: 0;"/><path data-target="point-0-45" d="M845.877904727347,117.32535191166843L936,201.49820657772977L936,162.61672587538465L863.8758005964718,98.15798703246739L846.8823262486729,110.68922367403067Z" style="opacity: 0;"/><path data-target="point-0-46" d="M863.8758005964718,98.15798703246739L936,162.61672587538465L936,74.3325025L886.9550278448264,74.3325025L864.7261380496154,90.98724929283074Z" style="opacity: 0;"/><path data-target="point-1-0" d="M0,505.65527999999995L65.67672603571427,505.65527999999995L68.70048272714284,502.32311999999996L0,195.49000338158373Z" style="opacity: 0;"/><path data-target="point-1-1" d="M0,195.49000338158373L68.70048272714284,502.32311999999996L82.86148550000003,502.32311999999996L86.75513033857142,497.9364L0,145.0427195351204Z" style="opacity: 0;"/><path data-target="point-1-2" d="M0,145.0427195351204L86.75513033857142,497.9364L100.76687303571428,497.9364L104.30189432142856,493.95528L6.08858958642854,0L0,0Z" style="opacity: 0;"/><path data-target="point-1-3" d="M6.08858958642854,0L104.30189432142856,493.95528L118.93503505,493.95528L122.25565726214285,490.12703999999997L25.614856854769783,25.24838838183257L19.843007641071104,0Z" style="opacity: 0;"/><path data-target="point-1-4" d="M25.614856854769783,25.24838838183257L122.25565726214285,490.12703999999997L136.97545261999997,490.12703999999997L140.50937444,486.07728Z" style="opacity: 0;"/><path data-target="point-1-5" d="M19.843007641071104,0L25.614856854769783,25.24838838183257L140.50937444,486.07728L154.71873414857143,486.07728L158.53481015999998,481.85904L36.383543520000785,0Z" style="opacity: 0;"/><path data-target="point-1-6" d="M36.383543520000785,0L158.53481015999998,481.85904L172.81477034285714,481.85904L176.92417337714284,477.65328L39.20649732571425,0Z" style="opacity: 0;"/><path data-target="point-1-7" d="M39.20649732571425,0L176.92417337714284,477.65328L190.0935515085714,477.65328L194.68360792571428,473.1636L72.59472510071365,0Z" style="opacity: 0;"/><path data-target="point-1-8" d="M72.59472510071365,0L194.68360792571428,473.1636L208.2127764342857,473.1636L212.84738294142858,468.82679999999993L118.27555564022735,121.52387332498807L74.12902480982152,0Z" style="opacity: 0;"/><path data-target="point-1-9" d="M118.27555564022735,121.52387332498807L212.84738294142858,468.82679999999993L225.27901523285712,468.82679999999993L231.08589989714284,463.17959999999994L140.59013238939124,178.2176690264231Z" style="opacity: 0;"/><path data-target="point-1-10" d="M140.59013238939124,178.2176690264231L231.08589989714284,463.17959999999994L242.93723375,463.17959999999994L249.47666460714285,456.59015999999997L162.77697480153833,229.62231627170345Z" style="opacity: 0;"/><path data-target="point-1-11" d="M162.77697480153833,229.62231627170345L249.47666460714285,456.59015999999997L260.1051427071428,456.59015999999997L267.7986540428571,447.85727999999995Z" style="opacity: 0;"/><path data-target="point-1-12" d="M74.12902480982152,0L118.27555564022735,121.52387332498807L140.59013238939124,178.2176690264231L162.77697480153833,229.62231627170345L267.7986540428571,447.85727999999995L277.8637972,447.85727999999995L285.2813448142857,438.43175999999994L76.27857608071358,0Z" style="opacity: 0;"/><path data-target="point-1-13" d="M76.27857608071358,0L285.2813448142857,438.43175999999994L296.70594908,438.43175999999994L303.4457575635714,430.54128000000003L100.60315290500131,0Z" style="opacity: 0;"/><path data-target="point-1-14" d="M100.60315290500131,0L303.4457575635714,430.54128000000003L314.31475248,430.54128000000003L321.64708932857144,422.36064L172.63979733409852,114.50569251095942L112.79114792428545,-1.4210854715202004e-14Z" style="opacity: 0;"/><path data-target="point-1-15" d="M172.63979733409852,114.50569251095942L321.64708932857144,422.36064L332.8841542942857,422.36064L341.1896617085714,414.77904Z" style="opacity: 0;"/><path data-target="point-1-16" d="M112.79114792428545,-1.4210854715202004e-14L172.63979733409852,114.50569251095942L341.1896617085714,414.77904L347.4822338,414.77904L357.79662152,403.15391999999997L144.97454682285766,0Z" style="opacity: 0;"/><path data-target="point-1-17" d="M144.97454682285766,0L357.79662152,403.15391999999997L367.91803298571426,403.15391999999997L375.4407251571429,395.79071999999996L285.14942470913735,184.9792617932756L195.551746378571,2.842170943040401e-14Z" style="opacity: 0;"/><path data-target="point-1-18" d="M285.14942470913735,184.9792617932756L375.4407251571429,395.79071999999996L384.90100137999997,395.79071999999996L393.61824784,385.68816Z" style="opacity: 0;"/><path data-target="point-1-19" d="M195.551746378571,2.842170943040401e-14L285.14942470913735,184.9792617932756L393.61824784,385.68816L402.9954079314286,385.68816L410.74931817714287,375.66671999999994L227.08854210285708,0Z" style="opacity: 0;"/><path data-target="point-1-20" d="M227.08854210285708,0L410.74931817714287,375.66671999999994L425.06280119999997,375.66671999999994L430.45786425,371.3268L257.84063351785676,0Z" style="opacity: 0;"/><path data-target="point-1-21" d="M257.84063351785676,0L430.45786425,371.3268L437.51920189,371.3268L447.30279863499993,362.91216L304.3769730507147,0Z" style="opacity: 0;"/><path data-target="point-1-22" d="M304.3769730507147,0L447.30279863499993,362.91216L456.46511421714285,362.91216L464.49077936,355.42416000000003L339.7368992000002,0Z" style="opacity: 0;"/><path data-target="point-1-23" d="M339.7368992000002,0L464.49077936,355.42416000000003L476.7053519142857,355.42416000000003L479.25840256285716,353.30879999999996L478.155463627195,298.6982072528031L403.7356053746427,0Z" style="opacity: 0;"/><path data-target="point-1-24" d="M478.155463627195,298.6982072528031L479.25840256285716,353.30879999999996L496.96,353.3088L502.2166324942857,349.02504Z" style="opacity: 0;"/><path data-target="point-1-25" d="M403.7356053746427,0L478.155463627195,298.6982072528031L502.2166324942857,349.02504L511.9121922071429,349.02504L519.0959512571428,344.17656L409.79530941714336,0Z" style="opacity: 0;"/><path data-target="point-1-26" d="M409.79530941714336,0L519.0959512571428,344.17656L529.3376434028571,344.17656L535.2565323342857,340.35767999999996L514.6605151070792,223.9255212352544L511.71205275404725,213.12845989970634L475.22633557023846,114.97865841873895L430.54685500534686,10.348936882303917L425.7328573610347,0Z" style="opacity: 0;"/><path data-target="point-1-27" d="M514.6605151070792,223.9255212352544L535.2565323342857,340.35767999999996L547.3373715638232,340.35767999999996L555.5835915322255,334.747889Z" style="opacity: 0;"/><path data-target="point-1-28" d="M511.71205275404725,213.12845989970634L514.6605151070792,223.9255212352544L555.5835915322255,334.747889L562.4300042867603,334.747889L575.3206567201971,324.90981099999993Z" style="opacity: 0;"/><path data-target="point-1-29" d="M475.22633557023846,114.97865841873895L511.71205275404725,213.12845989970634L575.3206567201971,324.90981099999993L579.9896898294281,324.909811L593.6070168152545,314.64451199999996Z" style="opacity: 0;"/><path data-target="point-1-30" d="M430.54685500534686,10.348936882303917L475.22633557023846,114.97865841873895L593.6070168152545,314.64451199999996L597.5349906156623,314.64451199999996L611.9065112112288,303.933427Z" style="opacity: 0;"/><path data-target="point-1-31" d="M425.7328573610347,0L430.54685500534686,10.348936882303917L611.9065112112288,303.933427L615.066192494073,303.933427L630.2185201733481,292.7571815L441.7925812090334,0Z" style="opacity: 0;"/><path data-target="point-1-32" d="M441.7925812090334,0L630.2185201733481,292.7571815L632.5839563710541,292.7571815L648.5425220320271,281.09549549999997L460.0394592241476,0Z" style="opacity: 0;"/><path data-target="point-1-33" d="M460.0394592241476,0L648.5425220320271,281.09549549999997L650.0889612748716,281.09549549999997L666.8775562387389,268.927308L478.9764553860887,0Z" style="opacity: 0;"/><path data-target="point-1-34" d="M478.9764553860887,0L666.8775562387389,268.927308L667.5821109324379,268.927308L685.1186246349266,256.3052461868246L685.1684218878946,256.1564304163705L498.6907002278832,0Z" style="opacity: 0;"/><path data-target="point-1-35" d="M498.6907002278832,0L685.1684218878946,256.1564304163705L702.9016348154274,243.46474512683446L703.2117852517458,242.50255127354285L519.275832974656,0Z" style="opacity: 0;"/><path data-target="point-1-36" d="M519.275832974656,0L703.2117852517458,242.50255127354285L720.6987197664798,230.04005155574808L721.2414243740773,228.28002778148326L540.8364445283206,0Z" style="opacity: 0;"/><path data-target="point-1-37" d="M540.8364445283206,0L721.2414243740773,228.28002778148326L738.512160576084,216.00499400479055L739.2551898124192,213.46508605224358L563.4892291684205,0Z" style="opacity: 0;"/><path data-target="point-1-38" d="M563.4892291684205,0L739.2551898124192,213.46508605224358L756.3444221791138,201.3319663271237L757.2509150243515,198.03289834103614L587.3579942451416,0Z" style="opacity: 0;"/><path data-target="point-1-39" d="M587.3579942451416,0L757.2509150243515,198.03289834103614L774.1980809227772,185.99183247633L775.2263490102288,181.95793393933803L612.5822242143923,0Z" style="opacity: 0;"/><path data-target="point-1-40" d="M612.5822242143923,0L775.2263490102288,181.95793393933803L792.0757275197424,169.95412381628026L793.179258052086,165.21380989317794L639.3134795307399,0Z" style="opacity: 0;"/><path data-target="point-1-41" d="M639.3134795307399,0L793.179258052086,165.21380989317794L809.9799433876789,153.18674846242195L811.1074822502936,147.77315414567028L667.7166349982883,0Z" style="opacity: 0;"/><path data-target="point-1-42" d="M667.7166349982883,0L811.1074822502936,147.77315414567028L827.9132511409224,135.65567167895563L829.0090539504653,129.6079713062379L697.9747006314415,0Z" style="opacity: 0;"/><path data-target="point-1-43" d="M697.9747006314415,0L829.0090539504653,129.6079713062379L845.877904727347,117.32535191166843L846.8823262486729,110.68922367403067L730.2849479008147,0Z" style="opacity: 0;"/><path data-target="point-1-44" d="M730.2849479008147,0L846.8823262486729,110.68922367403067L863.8758005964718,98.15798703246739L864.7261380496154,90.98724929283074L764.8658853205014,0Z" style="opacity: 0;"/><path data-target="point-1-45" d="M764.8658853205014,0L864.7261380496154,90.98724929283074L886.9550278448264,74.3325025L801.954969188197,0Z" style="opacity: 0;"/><path data-target="point-1-46" d="M801.954969188197,0L886.9550278448264,74.3325025L936,74.3325025L936,0Z" style="opacity: 0;"/></g><g class="series"><path data-target="point-0-0" d="M73.95604508928584,561.6L65.67672603571427,505.65527999999995L0,505.65527999999995L0,561.6Z" style="opacity: 0;"/><path data-target="point-0-1" d="M65.67672603571427,505.65527999999995L73.95604508928584,561.6L97.31022499999985,561.6L82.86148550000003,502.32311999999996L68.70048272714284,502.32311999999996Z" style="opacity: 0;"/><path data-target="point-0-2" d="M82.86148550000003,502.32311999999996L97.31022499999985,561.6L116.39571841071431,561.6L100.76687303571428,497.9364L86.75513033857142,497.9364Z" style="opacity: 0;"/><path data-target="point-0-3" d="M100.76687303571428,497.9364L116.39571841071431,561.6L133.77459549999995,561.6L118.93503505,493.95528L104.30189432142856,493.95528Z" style="opacity: 0;"/><path data-target="point-0-4" d="M118.93503505,493.95528L133.77459549999995,561.6L151.46021374571436,561.6L136.97545261999997,490.12703999999997L122.25565726214285,490.12703999999997Z" style="opacity: 0;"/><path data-target="point-0-5" d="M136.97545261999997,490.12703999999997L151.46021374571436,561.6L171.12874230857136,561.6L154.71873414857143,486.07728L140.50937444,486.07728Z" style="opacity: 0;"/><path data-target="point-0-6" d="M154.71873414857143,486.07728L171.12874230857136,561.6L187.2535798857143,561.6L172.81477034285714,481.85904L158.53481015999998,481.85904Z" style="opacity: 0;"/><path data-target="point-0-7" d="M172.81477034285714,481.85904L187.2535798857143,561.6L210.49710161428575,561.6L190.0935515085714,477.65328L176.92417337714284,477.65328Z" style="opacity: 0;"/><path data-target="point-0-8" d="M190.0935515085714,477.65328L210.49710161428575,561.6L226.93602569142865,561.6L208.2127764342857,473.1636L194.68360792571428,473.1636Z" style="opacity: 0;"/><path data-target="point-0-9" d="M208.2127764342857,473.1636L226.93602569142865,561.6L254.28886354,561.6L225.27901523285712,468.82679999999993L212.84738294142858,468.82679999999993Z" style="opacity: 0;"/><path data-target="point-0-10" d="M225.27901523285712,468.82679999999993L254.28886354,561.6L277.7226938749999,561.6L242.93723375,463.17959999999994L231.08589989714284,463.17959999999994Z" style="opacity: 0;"/><path data-target="point-0-11" d="M242.93723375,463.17959999999994L277.7226938749999,561.6L311.91906045642867,561.6L260.1051427071428,456.59015999999997L249.47666460714285,456.59015999999997Z" style="opacity: 0;"/><path data-target="point-0-12" d="M260.1051427071428,456.59015999999997L311.91906045642867,561.6L343.2942968799998,561.6L277.8637972,447.85727999999995L267.7986540428571,447.85727999999995Z" style="opacity: 0;"/><path data-target="point-0-13" d="M277.8637972,447.85727999999995L343.2942968799998,561.6L347.1433433599999,561.6L296.70594908,438.43175999999994L285.2813448142857,438.43175999999994Z" style="opacity: 0;"/><path data-target="point-0-14" d="M296.70594908,438.43175999999994L347.1433433599999,561.6L370.53894336000013,561.6L314.31475248,430.54128000000003L303.4457575635714,430.54128000000003Z" style="opacity: 0;"/><path data-target="point-0-15" d="M314.31475248,430.54128000000003L370.53894336000013,561.6L372.5449941400002,561.6L332.8841542942857,422.36064L321.64708932857144,422.36064Z" style="opacity: 0;"/><path data-target="point-0-16" d="M332.8841542942857,422.36064L372.5449941400002,561.6L445.36628199999996,561.6L398.66026033201075,481.28256676163375L347.4822338,414.77904L341.1896617085714,414.77904Z" style="opacity: 0;"/><path data-target="point-0-17" d="M347.4822338,414.77904L398.66026033201075,481.28256676163375L367.91803298571426,403.15391999999997L357.79662152,403.15391999999997Z" style="opacity: 0;"/><path data-target="point-0-18" d="M367.91803298571426,403.15391999999997L398.66026033201075,481.28256676163375L445.36628199999996,561.6L474.89294321428565,561.6L457.5833740920801,519.591944925525L384.90100137999997,395.79071999999996L375.4407251571429,395.79071999999996Z" style="opacity: 0;"/><path data-target="point-0-19" d="M384.90100137999997,395.79071999999996L457.5833740920801,519.591944925525L425.9698159897716,422.18029896265057L402.9954079314286,385.68816L393.61824784,385.68816Z" style="opacity: 0;"/><path data-target="point-0-20" d="M402.9954079314286,385.68816L425.9698159897716,422.18029896265057L425.06280119999997,375.66671999999994L410.74931817714287,375.66671999999994Z" style="opacity: 0;"/><path data-target="point-0-21" d="M425.06280119999997,375.66671999999994L425.9698159897716,422.18029896265057L457.5833740920801,519.591944925525L474.89294321428565,561.6L528.0562622864286,561.6L510.4465410257676,505.0639382782524L437.51920189,371.3268L430.45786425,371.3268Z" style="opacity: 0;"/><path data-target="point-0-22" d="M437.51920189,371.3268L510.4465410257676,505.0639382782524L496.96,447.31456548096025L495.87538109370854,444.2183398219746L456.46511421714285,362.91216L447.30279863499993,362.91216Z" style="opacity: 0;"/><path data-target="point-0-23" d="M456.46511421714285,362.91216L495.87538109370854,444.2183398219746L476.7053519142857,355.42416000000003L464.49077936,355.42416000000003Z" style="opacity: 0;"/><path data-target="point-0-24" d="M476.7053519142857,355.42416000000003L495.87538109370854,444.2183398219746L496.96,447.31456548096025L496.96,353.3088L479.25840256285716,353.30879999999996Z" style="opacity: 0;"/><path data-target="point-0-25" d="M496.96,353.3088L496.96,447.31456548096025L510.4465410257676,505.0639382782524L528.0562622864286,561.6L559.4340837114283,561.6L511.9121922071429,349.02504L502.2166324942857,349.02504Z" style="opacity: 0;"/><path data-target="point-0-26" d="M511.9121922071429,349.02504L559.4340837114283,561.6L583.5459660685718,561.6L529.3376434028571,344.17656L519.0959512571428,344.17656Z" style="opacity: 0;"/><path data-target="point-0-27" d="M529.3376434028571,344.17656L583.5459660685718,561.6L604.158029166716,561.6L547.3373715638232,340.35767999999996L535.2565323342857,340.35767999999996Z" style="opacity: 0;"/><path data-target="point-0-28" d="M547.3373715638232,340.35767999999996L604.158029166716,561.6L682.4245424061122,561.6L562.4300042867603,334.747889L555.5835915322255,334.747889Z" style="opacity: 0;"/><path data-target="point-0-29" d="M562.4300042867603,334.747889L682.4245424061122,561.6L710.8288827670556,561.6L579.9896898294281,324.909811L575.3206567201971,324.90981099999993Z" style="opacity: 0;"/><path data-target="point-0-30" d="M579.9896898294281,324.909811L710.8288827670556,561.6L740.1989435115518,561.6L597.5349906156623,314.64451199999996L593.6070168152545,314.64451199999996Z" style="opacity: 0;"/><path data-target="point-0-31" d="M597.5349906156623,314.64451199999996L740.1989435115518,561.6L770.6255560531915,561.6L615.066192494073,303.933427L611.9065112112288,303.933427Z" style="opacity: 0;"/><path data-target="point-0-32" d="M615.066192494073,303.933427L770.6255560531915,561.6L802.2038666737873,561.6L632.5839563710541,292.7571815L630.2185201733481,292.7571815Z" style="opacity: 0;"/><path data-target="point-0-33" d="M632.5839563710541,292.7571815L802.2038666737873,561.6L835.0398098079379,561.6L650.0889612748716,281.09549549999997L648.5425220320271,281.09549549999997Z" style="opacity: 0;"/><path data-target="point-0-34" d="M650.0889612748716,281.09549549999997L835.0398098079379,561.6L869.2522797360427,561.6L667.5821109324379,268.927308L666.8775562387389,268.927308Z" style="opacity: 0;"/><path data-target="point-0-35" d="M667.5821109324379,268.927308L869.2522797360427,561.6L904.9635575326072,561.6L685.1186246349266,256.3052461868246Z" style="opacity: 0;"/><path data-target="point-0-36" d="M685.1186246349266,256.3052461868246L904.9635575326072,561.6L936,561.6L936,553.2064475711281L702.9016348154274,243.46474512683446L685.1684218878946,256.1564304163705Z" style="opacity: 0;"/><path data-target="point-0-37" d="M702.9016348154274,243.46474512683446L936,553.2064475711281L936,503.79905287258293L720.6987197664798,230.04005155574808L703.2117852517458,242.50255127354285Z" style="opacity: 0;"/><path data-target="point-0-38" d="M720.6987197664798,230.04005155574808L936,503.79905287258293L936,456.2879034399834L738.512160576084,216.00499400479055L721.2414243740773,228.28002778148326Z" style="opacity: 0;"/><path data-target="point-0-39" d="M738.512160576084,216.00499400479055L936,456.2879034399834L936,410.49325752794914L756.3444221791138,201.3319663271237L739.2551898124192,213.46508605224358Z" style="opacity: 0;"/><path data-target="point-0-40" d="M756.3444221791138,201.3319663271237L936,410.49325752794914L936,366.24565767559636L774.1980809227772,185.99183247633L757.2509150243515,198.03289834103614Z" style="opacity: 0;"/><path data-target="point-0-41" d="M774.1980809227772,185.99183247633L936,366.24565767559636L936,323.379192291889L792.0757275197424,169.95412381628026L775.2263490102288,181.95793393933803Z" style="opacity: 0;"/><path data-target="point-0-42" d="M792.0757275197424,169.95412381628026L936,323.379192291889L936,281.73291661226995L809.9799433876789,153.18674846242195L793.179258052086,165.21380989317794Z" style="opacity: 0;"/><path data-target="point-0-43" d="M809.9799433876789,153.18674846242195L936,281.73291661226995L936,241.15596774396784L827.9132511409224,135.65567167895563L811.1074822502936,147.77315414567028Z" style="opacity: 0;"/><path data-target="point-0-44" d="M827.9132511409224,135.65567167895563L936,241.15596774396784L936,201.49820657772977L845.877904727347,117.32535191166843L829.0090539504653,129.6079713062379Z" style="opacity: 0;"/><path data-target="point-0-45" d="M845.877904727347,117.32535191166843L936,201.49820657772977L936,162.61672587538465L863.8758005964718,98.15798703246739L846.8823262486729,110.68922367403067Z" style="opacity: 0;"/><path data-target="point-0-46" d="M863.8758005964718,98.15798703246739L936,162.61672587538465L936,74.3325025L886.9550278448264,74.3325025L864.7261380496154,90.98724929283074Z" style="opacity: 0;"/><path data-target="point-1-0" d="M0,505.65527999999995L65.67672603571427,505.65527999999995L68.70048272714284,502.32311999999996L0,195.49000338158373Z" style="opacity: 0;"/><path data-target="point-1-1" d="M0,195.49000338158373L68.70048272714284,502.32311999999996L82.86148550000003,502.32311999999996L86.75513033857142,497.9364L0,145.0427195351204Z" style="opacity: 0;"/><path data-target="point-1-2" d="M0,145.0427195351204L86.75513033857142,497.9364L100.76687303571428,497.9364L104.30189432142856,493.95528L6.08858958642854,0L0,0Z" style="opacity: 0;"/><path data-target="point-1-3" d="M6.08858958642854,0L104.30189432142856,493.95528L118.93503505,493.95528L122.25565726214285,490.12703999999997L25.614856854769783,25.24838838183257L19.843007641071104,0Z" style="opacity: 0;"/><path data-target="point-1-4" d="M25.614856854769783,25.24838838183257L122.25565726214285,490.12703999999997L136.97545261999997,490.12703999999997L140.50937444,486.07728Z" style="opacity: 0;"/><path data-target="point-1-5" d="M19.843007641071104,0L25.614856854769783,25.24838838183257L140.50937444,486.07728L154.71873414857143,486.07728L158.53481015999998,481.85904L36.383543520000785,0Z" style="opacity: 0;"/><path data-target="point-1-6" d="M36.383543520000785,0L158.53481015999998,481.85904L172.81477034285714,481.85904L176.92417337714284,477.65328L39.20649732571425,0Z" style="opacity: 0;"/><path data-target="point-1-7" d="M39.20649732571425,0L176.92417337714284,477.65328L190.0935515085714,477.65328L194.68360792571428,473.1636L72.59472510071365,0Z" style="opacity: 0;"/><path data-target="point-1-8" d="M72.59472510071365,0L194.68360792571428,473.1636L208.2127764342857,473.1636L212.84738294142858,468.82679999999993L118.27555564022735,121.52387332498807L74.12902480982152,0Z" style="opacity: 0;"/><path data-target="point-1-9" d="M118.27555564022735,121.52387332498807L212.84738294142858,468.82679999999993L225.27901523285712,468.82679999999993L231.08589989714284,463.17959999999994L140.59013238939124,178.2176690264231Z" style="opacity: 0;"/><path data-target="point-1-10" d="M140.59013238939124,178.2176690264231L231.08589989714284,463.17959999999994L242.93723375,463.17959999999994L249.47666460714285,456.59015999999997L162.77697480153833,229.62231627170345Z" style="opacity: 0;"/><path data-target="point-1-11" d="M162.77697480153833,229.62231627170345L249.47666460714285,456.59015999999997L260.1051427071428,456.59015999999997L267.7986540428571,447.85727999999995Z" style="opacity: 0;"/><path data-target="point-1-12" d="M74.12902480982152,0L118.27555564022735,121.52387332498807L140.59013238939124,178.2176690264231L162.77697480153833,229.62231627170345L267.7986540428571,447.85727999999995L277.8637972,447.85727999999995L285.2813448142857,438.43175999999994L76.27857608071358,0Z" style="opacity: 0;"/><path data-target="point-1-13" d="M76.27857608071358,0L285.2813448142857,438.43175999999994L296.70594908,438.43175999999994L303.4457575635714,430.54128000000003L100.60315290500131,0Z" style="opacity: 0;"/><path data-target="point-1-14" d="M100.60315290500131,0L303.4457575635714,430.54128000000003L314.31475248,430.54128000000003L321.64708932857144,422.36064L172.63979733409852,114.50569251095942L112.79114792428545,-1.4210854715202004e-14Z" style="opacity: 0;"/><path data-target="point-1-15" d="M172.63979733409852,114.50569251095942L321.64708932857144,422.36064L332.8841542942857,422.36064L341.1896617085714,414.77904Z" style="opacity: 0;"/><path data-target="point-1-16" d="M112.79114792428545,-1.4210854715202004e-14L172.63979733409852,114.50569251095942L341.1896617085714,414.77904L347.4822338,414.77904L357.79662152,403.15391999999997L144.97454682285766,0Z" style="opacity: 0;"/><path data-target="point-1-17" d="M144.97454682285766,0L357.79662152,403.15391999999997L367.91803298571426,403.15391999999997L375.4407251571429,395.79071999999996L285.14942470913735,184.9792617932756L195.551746378571,2.842170943040401e-14Z" style="opacity: 0;"/><path data-target="point-1-18" d="M285.14942470913735,184.9792617932756L375.4407251571429,395.79071999999996L384.90100137999997,395.79071999999996L393.61824784,385.68816Z" style="opacity: 0;"/><path data-target="point-1-19" d="M195.551746378571,2.842170943040401e-14L285.14942470913735,184.9792617932756L393.61824784,385.68816L402.9954079314286,385.68816L410.74931817714287,375.66671999999994L227.08854210285708,0Z" style="opacity: 0;"/><path data-target="point-1-20" d="M227.08854210285708,0L410.74931817714287,375.66671999999994L425.06280119999997,375.66671999999994L430.45786425,371.3268L257.84063351785676,0Z" style="opacity: 0;"/><path data-target="point-1-21" d="M257.84063351785676,0L430.45786425,371.3268L437.51920189,371.3268L447.30279863499993,362.91216L304.3769730507147,0Z" style="opacity: 0;"/><path data-target="point-1-22" d="M304.3769730507147,0L447.30279863499993,362.91216L456.46511421714285,362.91216L464.49077936,355.42416000000003L339.7368992000002,0Z" style="opacity: 0;"/><path data-target="point-1-23" d="M339.7368992000002,0L464.49077936,355.42416000000003L476.7053519142857,355.42416000000003L479.25840256285716,353.30879999999996L478.155463627195,298.6982072528031L403.7356053746427,0Z" style="opacity: 0;"/><path data-target="point-1-24" d="M478.155463627195,298.6982072528031L479.25840256285716,353.30879999999996L496.96,353.3088L502.2166324942857,349.02504Z" style="opacity: 0;"/><path data-target="point-1-25" d="M403.7356053746427,0L478.155463627195,298.6982072528031L502.2166324942857,349.02504L511.9121922071429,349.02504L519.0959512571428,344.17656L409.79530941714336,0Z" style="opacity: 0;"/><path data-target="point-1-26" d="M409.79530941714336,0L519.0959512571428,344.17656L529.3376434028571,344.17656L535.2565323342857,340.35767999999996L514.6605151070792,223.9255212352544L511.71205275404725,213.12845989970634L475.22633557023846,114.97865841873895L430.54685500534686,10.348936882303917L425.7328573610347,0Z" style="opacity: 0;"/><path data-target="point-1-27" d="M514.6605151070792,223.9255212352544L535.2565323342857,340.35767999999996L547.3373715638232,340.35767999999996L555.5835915322255,334.747889Z" style="opacity: 0;"/><path data-target="point-1-28" d="M511.71205275404725,213.12845989970634L514.6605151070792,223.9255212352544L555.5835915322255,334.747889L562.4300042867603,334.747889L575.3206567201971,324.90981099999993Z" style="opacity: 0;"/><path data-target="point-1-29" d="M475.22633557023846,114.97865841873895L511.71205275404725,213.12845989970634L575.3206567201971,324.90981099999993L579.9896898294281,324.909811L593.6070168152545,314.64451199999996Z" style="opacity: 0;"/><path data-target="point-1-30" d="M430.54685500534686,10.348936882303917L475.22633557023846,114.97865841873895L593.6070168152545,314.64451199999996L597.5349906156623,314.64451199999996L611.9065112112288,303.933427Z" style="opacity: 0;"/><path data-target="point-1-31" d="M425.7328573610347,0L430.54685500534686,10.348936882303917L611.9065112112288,303.933427L615.066192494073,303.933427L630.2185201733481,292.7571815L441.7925812090334,0Z" style="opacity: 0;"/><path data-target="point-1-32" d="M441.7925812090334,0L630.2185201733481,292.7571815L632.5839563710541,292.7571815L648.5425220320271,281.09549549999997L460.0394592241476,0Z" style="opacity: 0;"/><path data-target="point-1-33" d="M460.0394592241476,0L648.5425220320271,281.09549549999997L650.0889612748716,281.09549549999997L666.8775562387389,268.927308L478.9764553860887,0Z" style="opacity: 0;"/><path data-target="point-1-34" d="M478.9764553860887,0L666.8775562387389,268.927308L667.5821109324379,268.927308L685.1186246349266,256.3052461868246L685.1684218878946,256.1564304163705L498.6907002278832,0Z" style="opacity: 0;"/><path data-target="point-1-35" d="M498.6907002278832,0L685.1684218878946,256.1564304163705L702.9016348154274,243.46474512683446L703.2117852517458,242.50255127354285L519.275832974656,0Z" style="opacity: 0;"/><path data-target="point-1-36" d="M519.275832974656,0L703.2117852517458,242.50255127354285L720.6987197664798,230.04005155574808L721.2414243740773,228.28002778148326L540.8364445283206,0Z" style="opacity: 0;"/><path data-target="point-1-37" d="M540.8364445283206,0L721.2414243740773,228.28002778148326L738.512160576084,216.00499400479055L739.2551898124192,213.46508605224358L563.4892291684205,0Z" style="opacity: 0;"/><path data-target="point-1-38" d="M563.4892291684205,0L739.2551898124192,213.46508605224358L756.3444221791138,201.3319663271237L757.2509150243515,198.03289834103614L587.3579942451416,0Z" style="opacity: 0;"/><path data-target="point-1-39" d="M587.3579942451416,0L757.2509150243515,198.03289834103614L774.1980809227772,185.99183247633L775.2263490102288,181.95793393933803L612.5822242143923,0Z" style="opacity: 0;"/><path data-target="point-1-40" d="M612.5822242143923,0L775.2263490102288,181.95793393933803L792.0757275197424,169.95412381628026L793.179258052086,165.21380989317794L639.3134795307399,0Z" style="opacity: 0;"/><path data-target="point-1-41" d="M639.3134795307399,0L793.179258052086,165.21380989317794L809.9799433876789,153.18674846242195L811.1074822502936,147.77315414567028L667.7166349982883,0Z" style="opacity: 0;"/><path data-target="point-1-42" d="M667.7166349982883,0L811.1074822502936,147.77315414567028L827.9132511409224,135.65567167895563L829.0090539504653,129.6079713062379L697.9747006314415,0Z" style="opacity: 0;"/><path data-target="point-1-43" d="M697.9747006314415,0L829.0090539504653,129.6079713062379L845.877904727347,117.32535191166843L846.8823262486729,110.68922367403067L730.2849479008147,0Z" style="opacity: 0;"/><path data-target="point-1-44" d="M730.2849479008147,0L846.8823262486729,110.68922367403067L863.8758005964718,98.15798703246739L864.7261380496154,90.98724929283074L764.8658853205014,0Z" style="opacity: 0;"/><path data-target="point-1-45" d="M764.8658853205014,0L864.7261380496154,90.98724929283074L886.9550278448264,74.3325025L801.954969188197,0Z" style="opacity: 0;"/><path data-target="point-1-46" d="M801.954969188197,0L886.9550278448264,74.3325025L936,74.3325025L936,0Z" style="opacity: 0;"/></g></g><g class="axes"><g class="y axis" fill="none" font-size="10" font-family="sans-serif" text-anchor="end" style="font-family: &quot;Source Sans Pro&quot;;"><path class="domain" stroke="#eeeeee" d="M0.5,562.1V0.5" stroke-dasharray="0" style="visibility: hidden;"/><g class="tick" opacity="1" transform="translate(0,562.1)" style="visibility: visible;"><line stroke="#eeeeee" x2="936" stroke-dasharray="0"/><text fill="rgb(0, 0, 0)" x="3" dy="-0.33em" opacity="1" text-anchor="start" font-size="18">$0</text></g><g class="tick" opacity="1" transform="translate(0, 499.70001220703125)" style="visibility: visible;"><line stroke="#eeeeee" x2="936" stroke-dasharray="0"/><text fill="rgb(0, 0, 0)" x="3" dy="-0.33em" opacity="1" text-anchor="start" font-size="18">$10,000</text></g><g class="tick" opacity="1" transform="translate(0, 437.29998779296875)" style="visibility: visible;"><line stroke="#eeeeee" x2="936" stroke-dasharray="0"/><text fill="rgb(0, 0, 0)" x="3" dy="-0.33em" opacity="1" text-anchor="start" font-size="18">$20,000</text></g><g class="tick" opacity="1" transform="translate(0, 374.8999938964844)" style="visibility: visible;"><line stroke="#eeeeee" x2="936" stroke-dasharray="0"/><text fill="rgb(0, 0, 0)" x="3" dy="-0.33em" opacity="1" text-anchor="start" font-size="18">$30,000</text></g><g class="tick" opacity="1" transform="translate(0, 312.5)" style="visibility: visible;"><line stroke="#eeeeee" x2="936" stroke-dasharray="0"/><text fill="rgb(0, 0, 0)" x="3" dy="-0.33em" opacity="1" text-anchor="start" font-size="18">$40,000</text></g><g class="tick" opacity="1" transform="translate(0, 250.10000610351562)" style="visibility: visible;"><line stroke="#eeeeee" x2="936" stroke-dasharray="0"/><text fill="rgb(0, 0, 0)" x="3" dy="-0.33em" opacity="1" text-anchor="start" font-size="18">$50,000</text></g><g class="tick" opacity="1" transform="translate(0, 187.6999969482422)" style="visibility: visible;"><line stroke="#eeeeee" x2="936" stroke-dasharray="0"/><text fill="rgb(0, 0, 0)" x="3" dy="-0.33em" opacity="1" text-anchor="start" font-size="18">$60,000</text></g><g class="tick" opacity="1" transform="translate(0, 125.30000305175781)" style="visibility: visible;"><line stroke="#eeeeee" x2="936" stroke-dasharray="0"/><text fill="rgb(0, 0, 0)" x="3" dy="-0.33em" opacity="1" text-anchor="start" font-size="18">$70,000</text></g><g class="tick" opacity="1" transform="translate(0, 62.900001525878906)" style="visibility: visible;"><line stroke="#eeeeee" x2="936" stroke-dasharray="0"/><text fill="rgb(0, 0, 0)" x="3" dy="-0.33em" opacity="1" text-anchor="start" font-size="18">$80,000</text></g><g class="tick" opacity="1" transform="translate(0, 0.5)" style="visibility: visible;"><line stroke="#eeeeee" x2="936" stroke-dasharray="0"/><text fill="rgb(0, 0, 0)" x="3" dy="-0.33em" opacity="1" text-anchor="start" font-size="18">$90,000</text></g></g><g class="x axis" transform="translate(0,561.6)" fill="none" font-size="10" font-family="sans-serif" text-anchor="middle" style="font-family: &quot;Source Sans Pro&quot;;"><path class="domain" stroke="#eeeeee" d="M40.5,0.5H936.5" stroke-dasharray="0"/><g class="tick" opacity="1" transform="translate(40.5,0)"><line stroke="#eeeeee" y2="6" stroke-dasharray="0"/><text fill="rgb(0, 0, 0)" y="9" dy="-9" opacity="1" dominant-baseline="central" font-size="18" transform="translate(0, 15) rotate(-45)" dx="5" style="text-anchor: end; visibility: visible;">1990</text></g><g class="tick" opacity="1" transform="translate(130.10000000000002,0)"><line stroke="#eeeeee" y2="6" stroke-dasharray="0"/><text fill="rgb(0, 0, 0)" y="9" dy="-9" opacity="1" dominant-baseline="central" font-size="18" transform="translate(0, 15) rotate(-45)" dx="5" style="text-anchor: end; visibility: visible;">1995</text></g><g class="tick" opacity="1" transform="translate(219.70000000000002,0)"><line stroke="#eeeeee" y2="6" stroke-dasharray="0"/><text fill="rgb(0, 0, 0)" y="9" dy="-9" opacity="1" dominant-baseline="central" font-size="18" transform="translate(0, 15) rotate(-45)" dx="5" style="text-anchor: end; visibility: visible;">2000</text></g><g class="tick" opacity="1" transform="translate(309.3,0)"><line stroke="#eeeeee" y2="6" stroke-dasharray="0"/><text fill="rgb(0, 0, 0)" y="9" dy="-9" opacity="1" dominant-baseline="central" font-size="18" transform="translate(0, 15) rotate(-45)" dx="5" style="text-anchor: end; visibility: visible;">2005</text></g><g class="tick" opacity="1" transform="translate(398.90000000000003,0)"><line stroke="#eeeeee" y2="6" stroke-dasharray="0"/><text fill="rgb(0, 0, 0)" y="9" dy="-9" opacity="1" dominant-baseline="central" font-size="18" transform="translate(0, 15) rotate(-45)" dx="5" style="text-anchor: end; visibility: visible;">2010</text></g><g class="tick" opacity="1" transform="translate(488.5,0)"><line stroke="#eeeeee" y2="6" stroke-dasharray="0"/><text fill="rgb(0, 0, 0)" y="9" dy="-9" opacity="1" dominant-baseline="central" font-size="18" transform="translate(0, 15) rotate(-45)" dx="5" style="text-anchor: end; visibility: visible;">2015</text></g><g class="tick" opacity="1" transform="translate(578.1,0)"><line stroke="#eeeeee" y2="6" stroke-dasharray="0"/><text fill="rgb(0, 0, 0)" y="9" dy="-9" opacity="1" dominant-baseline="central" font-size="18" transform="translate(0, 15) rotate(-45)" dx="5" style="text-anchor: end; visibility: visible;">2020</text></g><g class="tick" opacity="1" transform="translate(667.6999999999999,0)"><line stroke="#eeeeee" y2="6" stroke-dasharray="0"/><text fill="rgb(0, 0, 0)" y="9" dy="-9" opacity="1" dominant-baseline="central" font-size="18" transform="translate(0, 15) rotate(-45)" dx="5" style="text-anchor: end; visibility: visible;">2025</text></g><g class="tick" opacity="1" transform="translate(757.3000000000001,0)"><line stroke="#eeeeee" y2="6" stroke-dasharray="0"/><text fill="rgb(0, 0, 0)" y="9" dy="-9" opacity="1" dominant-baseline="central" font-size="18" transform="translate(0, 15) rotate(-45)" dx="5" style="text-anchor: end; visibility: visible;">2030</text></g><g class="tick" opacity="1" transform="translate(846.9,0)"><line stroke="#eeeeee" y2="6" stroke-dasharray="0"/><text fill="rgb(0, 0, 0)" y="9" dy="-9" opacity="1" dominant-baseline="central" font-size="18" transform="translate(0, 15) rotate(-45)" dx="5" style="text-anchor: end; visibility: visible;">2035</text></g><g class="tick" opacity="1" transform="translate(936.5,0)"><line stroke="#eeeeee" y2="6" stroke-dasharray="0"/><text fill="rgb(0, 0, 0)" y="9" dy="-9" opacity="1" dominant-baseline="central" font-size="18" transform="translate(0, 15) rotate(-45)" dx="5" style="text-anchor: end; visibility: visible;">2040</text></g></g></g></g></g></g><g class="annotations below"><g class="axis-highlights" transform="translate(15, 20)" style="opacity: 1;"><g class="line x" transform="translate(559.68, 0)"><line width="0" stroke-dasharray="2 2" stroke="#333333" stroke-width="2" y2="561.6"/><text transform="translate(0, 6) rotate(-90)" fill="#333333" text-anchor="end" dy="-0.5em" font-size="12">Current</text></g></g></g><g id="areas"><g class="series" pointer-events="none"><path class="area" transform="translate(15,20)" fill-opacity="0" fill="rgb(17, 165, 121)" clip-path="url(#clip-0-0)" d="M57.92,515.112C63.89333333333334,514.371,69.86666666666667,513.63,75.84,512.46C81.81333333333333,511.2900000000001,87.78666666666666,509.55320000000006,93.75999999999999,508.09200000000004C99.73333333333333,506.6308,105.70666666666666,505.0812,111.68,503.69280000000003C117.65333333333335,502.30440000000004,123.62666666666668,501.0220800000001,129.60000000000002,499.76160000000004C135.57333333333335,498.50112000000007,141.54666666666665,497.38416,147.51999999999998,496.12992C153.4933333333333,494.87568000000005,159.46666666666667,493.42592,165.44,492.23616000000004C171.41333333333333,491.04640000000006,177.38666666666668,490.25808,183.36,488.99136C189.33333333333334,487.72463999999997,195.30666666666667,485.99408,201.28,484.63584000000003C207.25333333333333,483.2776,213.2266666666667,482.40816,219.20000000000002,480.84192C225.17333333333335,479.27568,231.14666666666668,477.22792000000004,237.12,475.2384C243.09333333333333,473.24888,249.06666666666666,471.43408,255.04,468.9048C261.0133333333333,466.37552,266.9866666666667,463.25448,272.96000000000004,460.06272C278.93333333333334,456.87096,284.9066666666667,452.69536,290.88,449.75424C296.85333333333335,446.81311999999997,302.82666666666665,444.92032,308.8,442.416C314.77333333333337,439.91168,320.74666666666667,436.86032,326.72,434.72832C332.6933333333334,432.59632,338.6666666666667,432.77312,344.64000000000004,429.624C350.61333333333334,426.47488000000004,356.5866666666667,419.3072,362.56,415.83360000000005C368.53333333333336,412.36,374.50666666666666,411.71104,380.48,408.7824C386.4533333333334,405.85375999999997,392.4266666666667,401.89552,398.40000000000003,398.26176C404.37333333333333,394.628,410.3466666666667,387.2128,416.32,386.97984C422.29333333333335,386.74688000000003,428.26666666666665,386.86336,434.24,386.6304C440.21333333333337,386.39744,446.18666666666667,379.93488,452.16,376.85856C458.1333333333333,373.78224,464.1066666666667,370.26496000000003,470.08,368.17248C476.05333333333334,366.08,482.02666666666664,364.30368,488,364.30368C493.97333333333336,364.30368,499.94666666666666,364.30368,505.92,364.30368C511.8933333333334,364.30368,517.8666666666667,361.70992,523.84,360.2976C529.8133333333334,358.88528,535.7866666666666,357.341452,541.76,355.82976C547.7333333333333,354.31806800000004,553.7066666666666,353.57431199999996,559.68,351.227448C565.6533333333333,348.880584,571.6266666666667,344.9793776,577.6,341.748576C583.5733333333334,338.51777440000006,589.5466666666666,335.21899840000003,595.52,331.84263840000006C601.4933333333333,328.4662784,607.4666666666667,325.01890720000006,613.44,321.49041600000004C619.4133333333334,317.9619248,625.3866666666667,314.3591776,631.36,310.6716912C637.3333333333334,306.9842048,643.3066666666667,303.219124,649.2800000000001,299.3654976C655.2533333333333,295.51187120000003,661.2266666666667,291.5771976,667.1999999999999,287.5499328C673.1733333333333,283.522668,679.1466666666666,279.41063280000003,685.12,275.2019088C691.0933333333334,270.99318480000005,697.0666666666666,266.6959464,703.04,262.2975888C709.0133333333333,257.89923120000003,714.9866666666667,253.40830320000003,720.96,248.81176320000003C726.9333333333334,244.21522320000005,732.9066666666666,239.52198400000003,738.88,234.71834880000006C744.8533333333334,229.91471360000006,750.8266666666667,225.0100320000001,756.8000000000001,219.98995200000007C762.7733333333333,214.9698720000001,768.7466666666667,209.8441488,774.7199999999999,204.59786880000001C780.6933333333333,199.35158879999997,786.6666666666666,193.99492320000002,792.64,188.512272C798.6133333333333,183.0296208,804.5866666666666,177.43165439999999,810.56,171.7019616C816.5333333333333,165.9722688,822.5066666666667,160.12197760000006,828.48,154.13411520000005C834.4533333333334,148.14625280000007,840.4266666666666,142.032436,846.4,135.7747872C852.3733333333333,129.51713839999996,858.3466666666667,123.12782560000004,864.32,116.5882224C870.2933333333334,110.04861920000002,876.2666666666667,103.29289359999999,882.24,96.53716799999995L882.24,96.53716799999995C876.2666666666667,103.29289359999999,870.2933333333334,110.04861920000002,864.32,116.5882224C858.3466666666667,123.12782560000004,852.3733333333333,129.51713839999996,846.4,135.7747872C840.4266666666666,142.032436,834.4533333333334,148.14625280000007,828.48,154.13411520000005C822.5066666666667,160.12197760000006,816.5333333333333,165.9722688,810.56,171.7019616C804.5866666666666,177.43165439999999,798.6133333333333,183.0296208,792.64,188.512272C786.6666666666666,193.99492320000002,780.6933333333333,199.35158879999997,774.7199999999999,204.59786880000001C768.7466666666667,209.8441488,762.7733333333333,214.9698720000001,756.8000000000001,219.98995200000007C750.8266666666667,225.0100320000001,744.8533333333334,229.91471360000006,738.88,234.71834880000006C732.9066666666666,239.52198400000003,726.9333333333334,244.21522320000005,720.96,248.81176320000003C714.9866666666667,253.40830320000003,709.0133333333333,257.89923120000003,703.04,262.2975888C697.0666666666666,266.6959464,691.0933333333334,270.99318480000005,685.12,275.2019088C679.1466666666666,279.41063280000003,673.1733333333333,283.522668,667.1999999999999,287.5499328C661.2266666666667,291.5771976,655.2533333333333,295.51187120000003,649.2800000000001,299.3654976C643.3066666666667,303.219124,637.3333333333334,306.9842048,631.36,310.6716912C625.3866666666667,314.3591776,619.4133333333334,317.9619248,613.44,321.49041600000004C607.4666666666667,325.01890720000006,601.4933333333333,328.4662784,595.52,331.84263840000006C589.5466666666666,335.21899840000003,583.5733333333334,338.51777440000006,577.6,341.748576C571.6266666666667,344.9793776,565.6533333333333,348.880584,559.68,351.227448C553.7066666666666,353.57431199999996,547.7333333333333,354.31806800000004,541.76,355.82976C535.7866666666666,357.341452,529.8133333333334,358.88528,523.84,360.2976C517.8666666666667,361.70992,511.8933333333334,364.30368,505.92,364.30368C499.94666666666666,364.30368,493.97333333333336,364.30368,488,364.30368C482.02666666666664,364.30368,476.05333333333334,366.08,470.08,368.17248C464.1066666666667,370.26496000000003,458.1333333333333,373.78224,452.16,376.85856C446.18666666666667,379.93488,440.21333333333337,386.39744,434.24,386.6304C428.26666666666665,386.86336,422.29333333333335,386.74688000000003,416.32,386.97984C410.3466666666667,387.2128,404.37333333333333,394.628,398.40000000000003,398.26176C392.4266666666667,401.89552,386.4533333333334,405.85375999999997,380.48,408.7824C374.50666666666666,411.71104,368.53333333333336,412.36,362.56,415.83360000000005C356.5866666666667,419.3072,350.61333333333334,426.47488000000004,344.64000000000004,429.624C338.6666666666667,432.77312,332.6933333333334,432.59632,326.72,434.72832C320.74666666666667,436.86032,314.77333333333337,439.91168,308.8,442.416C302.82666666666665,444.92032,296.85333333333335,446.81311999999997,290.88,449.75424C284.9066666666667,452.69536,278.93333333333334,456.87096,272.96000000000004,460.06272C266.9866666666667,463.25448,261.0133333333333,466.37552,255.04,468.9048C249.06666666666666,471.43408,243.09333333333333,473.24888,237.12,475.2384C231.14666666666668,477.22792000000004,225.17333333333335,479.27568,219.20000000000002,480.84192C213.2266666666667,482.40816,207.25333333333333,483.2776,201.28,484.63584000000003C195.30666666666667,485.99408,189.33333333333334,487.72463999999997,183.36,488.99136C177.38666666666668,490.25808,171.41333333333333,491.04640000000006,165.44,492.23616000000004C159.46666666666667,493.42592,153.4933333333333,494.87568000000005,147.51999999999998,496.12992C141.54666666666665,497.38416,135.57333333333335,498.50112000000007,129.60000000000002,499.76160000000004C123.62666666666668,501.0220800000001,117.65333333333335,502.30440000000004,111.68,503.69280000000003C105.70666666666666,505.0812,99.73333333333333,506.6308,93.75999999999999,508.09200000000004C87.78666666666666,509.55320000000006,81.81333333333333,511.2900000000001,75.84,512.46C69.86666666666667,513.63,63.89333333333334,514.371,57.92,515.112Z"/></g><g class="series" pointer-events="none"><path class="area" transform="translate(15,20)" fill-opacity="0" fill="rgb(128, 35, 146)" clip-path="url(#clip-0-1)" d="M57.92,496.19856000000004C63.89333333333334,494.89388,69.86666666666667,493.5892,75.84,492.18624C81.81333333333333,490.78328,87.78666666666666,489.10888,93.75999999999999,487.7808C99.73333333333333,486.45272,105.70666666666666,485.43248,111.68,484.21776C117.65333333333335,483.00304,123.62666666666668,481.858,129.60000000000002,480.49248C135.57333333333335,479.12696,141.54666666666665,477.5264,147.51999999999998,476.02464000000003C153.4933333333333,474.52288000000004,159.46666666666667,473.10016,165.44,471.48192C171.41333333333333,469.86368,177.38666666666668,467.94696,183.36,466.3152C189.33333333333334,464.68344,195.30666666666667,463.27528,201.28,461.69136000000003C207.25333333333333,460.10744000000005,213.2266666666667,458.57344,219.20000000000002,456.81168C225.17333333333335,455.04992000000004,231.14666666666668,453.21016000000003,237.12,451.12080000000003C243.09333333333333,449.03144000000003,249.06666666666666,446.85368000000005,255.04,444.27552000000003C261.0133333333333,441.69736,266.9866666666667,438.51288,272.96000000000004,435.65184C278.93333333333334,432.7908,284.9066666666667,429.94016,290.88,427.10928C296.85333333333335,424.27840000000003,302.82666666666665,421.51928,308.8,418.66656C314.77333333333337,415.81384,320.74666666666667,413.11504,326.72,409.99296000000004C332.6933333333334,406.87088000000006,338.6666666666667,403.1872,344.64000000000004,399.93408C350.61333333333334,396.68095999999997,356.5866666666667,393.33008,362.56,390.47424C368.53333333333336,387.6184,374.50666666666666,385.69232,380.48,382.79904C386.4533333333334,379.90576,392.4266666666667,376.18879999999996,398.40000000000003,373.11456C404.37333333333333,370.04032,410.3466666666667,367.20216000000005,416.32,364.35360000000003C422.29333333333335,361.50504,428.26666666666665,358.58783999999997,434.24,356.0232C440.21333333333337,353.45856,446.18666666666667,351.19032,452.16,348.96576C458.1333333333333,346.7412,464.1066666666667,342.91712,470.08,342.67584C476.05333333333334,342.43456,482.02666666666664,342.5552,488,342.31392C493.97333333333336,342.07264,499.94666666666666,336.1228,505.92,333.7464C511.8933333333334,331.37,517.8666666666667,329.53232,523.84,328.05552C529.8133333333334,326.57872000000003,535.7866666666666,326.5167984,541.76,324.8856C547.7333333333333,323.2544016,553.7066666666666,321.0707552,559.68,318.2683296C565.6533333333333,315.465904,571.6266666666667,311.5413704,577.6,308.0710464C583.5733333333334,304.6007224,589.5466666666666,301.06215360000004,595.52,297.44638560000004C601.4933333333333,293.83061760000004,607.4666666666667,290.1437240000001,613.44,286.37643840000004C619.4133333333334,282.60915280000006,625.3866666666667,278.76782959999997,631.36,274.842672C637.3333333333334,270.91751439999996,643.3066666666667,266.91515760000004,649.2800000000001,262.8254928C655.2533333333333,258.735828,661.2266666666667,254.56572959999997,667.1999999999999,250.3046832C673.1733333333333,246.04363679999997,679.1466666666666,241.69881840000002,685.12,237.25921440000002C691.0933333333334,232.81961040000004,697.0666666666666,228.29271920000002,703.04,223.66705920000004C709.0133333333333,219.04139920000003,714.9866666666667,214.32476000000003,720.96,209.5052544C726.9333333333334,204.68574880000003,732.9066666666666,199.7714992,738.88,194.75002560000001C744.8533333333334,189.728552,750.8266666666667,184.60833040000006,756.8000000000001,179.37641280000003C762.7733333333333,174.14449520000005,768.7466666666667,168.80969039999997,774.7199999999999,163.35852C780.6933333333333,157.90734959999997,786.6666666666666,152.34900720000007,792.64,146.66939040000005C798.6133333333333,140.98977360000006,804.5866666666666,135.19845039999998,810.56,129.2808192C816.5333333333333,123.36318799999997,822.5066666666667,117.32922239999996,828.48,111.16360319999995C834.4533333333334,104.99798399999999,840.4266666666666,98.71111120000002,846.4,92.28710400000006C852.3733333333333,85.86309680000005,858.3466666666667,79.31277120000006,864.32,72.61956000000004C870.2933333333334,65.92634880000006,876.2666666666667,59.02709280000006,882.24,52.12783680000007L882.24,52.12783680000007C876.2666666666667,59.02709280000006,870.2933333333334,65.92634880000006,864.32,72.61956000000004C858.3466666666667,79.31277120000006,852.3733333333333,85.86309680000005,846.4,92.28710400000006C840.4266666666666,98.71111120000002,834.4533333333334,104.99798399999999,828.48,111.16360319999995C822.5066666666667,117.32922239999996,816.5333333333333,123.36318799999997,810.56,129.2808192C804.5866666666666,135.19845039999998,798.6133333333333,140.98977360000006,792.64,146.66939040000005C786.6666666666666,152.34900720000007,780.6933333333333,157.90734959999997,774.7199999999999,163.35852C768.7466666666667,168.80969039999997,762.7733333333333,174.14449520000005,756.8000000000001,179.37641280000003C750.8266666666667,184.60833040000006,744.8533333333334,189.728552,738.88,194.75002560000001C732.9066666666666,199.7714992,726.9333333333334,204.68574880000003,720.96,209.5052544C714.9866666666667,214.32476000000003,709.0133333333333,219.04139920000003,703.04,223.66705920000004C697.0666666666666,228.29271920000002,691.0933333333334,232.81961040000004,685.12,237.25921440000002C679.1466666666666,241.69881840000002,673.1733333333333,246.04363679999997,667.1999999999999,250.3046832C661.2266666666667,254.56572959999997,655.2533333333333,258.735828,649.2800000000001,262.8254928C643.3066666666667,266.91515760000004,637.3333333333334,270.91751439999996,631.36,274.842672C625.3866666666667,278.76782959999997,619.4133333333334,282.60915280000006,613.44,286.37643840000004C607.4666666666667,290.1437240000001,601.4933333333333,293.83061760000004,595.52,297.44638560000004C589.5466666666666,301.06215360000004,583.5733333333334,304.6007224,577.6,308.0710464C571.6266666666667,311.5413704,565.6533333333333,315.465904,559.68,318.2683296C553.7066666666666,321.0707552,547.7333333333333,323.2544016,541.76,324.8856C535.7866666666666,326.5167984,529.8133333333334,326.57872000000003,523.84,328.05552C517.8666666666667,329.53232,511.8933333333334,331.37,505.92,333.7464C499.94666666666666,336.1228,493.97333333333336,342.07264,488,342.31392C482.02666666666664,342.5552,476.05333333333334,342.43456,470.08,342.67584C464.1066666666667,342.91712,458.1333333333333,346.7412,452.16,348.96576C446.18666666666667,351.19032,440.21333333333337,353.45856,434.24,356.0232C428.26666666666665,358.58783999999997,422.29333333333335,361.50504,416.32,364.35360000000003C410.3466666666667,367.20216000000005,404.37333333333333,370.04032,398.40000000000003,373.11456C392.4266666666667,376.18879999999996,386.4533333333334,379.90576,380.48,382.79904C374.50666666666666,385.69232,368.53333333333336,387.6184,362.56,390.47424C356.5866666666667,393.33008,350.61333333333334,396.68095999999997,344.64000000000004,399.93408C338.6666666666667,403.1872,332.6933333333334,406.87088000000006,326.72,409.99296000000004C320.74666666666667,413.11504,314.77333333333337,415.81384,308.8,418.66656C302.82666666666665,421.51928,296.85333333333335,424.27840000000003,290.88,427.10928C284.9066666666667,429.94016,278.93333333333334,432.7908,272.96000000000004,435.65184C266.9866666666667,438.51288,261.0133333333333,441.69736,255.04,444.27552000000003C249.06666666666666,446.85368000000005,243.09333333333333,449.03144000000003,237.12,451.12080000000003C231.14666666666668,453.21016000000003,225.17333333333335,455.04992000000004,219.20000000000002,456.81168C213.2266666666667,458.57344,207.25333333333333,460.10744000000005,201.28,461.69136000000003C195.30666666666667,463.27528,189.33333333333334,464.68344,183.36,466.3152C177.38666666666668,467.94696,171.41333333333333,469.86368,165.44,471.48192C159.46666666666667,473.10016,153.4933333333333,474.52288000000004,147.51999999999998,476.02464000000003C141.54666666666665,477.5264,135.57333333333335,479.12696,129.60000000000002,480.49248C123.62666666666668,481.858,117.65333333333335,483.00304,111.68,484.21776C105.70666666666666,485.43248,99.73333333333333,486.45272,93.75999999999999,487.7808C87.78666666666666,489.10888,81.81333333333333,490.78328,75.84,492.18624C69.86666666666667,493.5892,63.89333333333334,494.89388,57.92,496.19856000000004Z"/></g></g><g id="lines"><g class="series"><clipPath id="clip-0-0"><rect width="936" y="-20" height="599.6"/></clipPath><path class="line" opacity="1" fill="none" stroke="rgb(17, 165, 121)" stroke-width="2" transform="translate(15,20)" clip-path="url(#clip-0-0)" d="M57.92,515.112C63.89333333333334,514.371,69.86666666666667,513.63,75.84,512.46C81.81333333333333,511.2900000000001,87.78666666666666,509.55320000000006,93.75999999999999,508.09200000000004C99.73333333333333,506.6308,105.70666666666666,505.0812,111.68,503.69280000000003C117.65333333333335,502.30440000000004,123.62666666666668,501.0220800000001,129.60000000000002,499.76160000000004C135.57333333333335,498.50112000000007,141.54666666666665,497.38416,147.51999999999998,496.12992C153.4933333333333,494.87568000000005,159.46666666666667,493.42592,165.44,492.23616000000004C171.41333333333333,491.04640000000006,177.38666666666668,490.25808,183.36,488.99136C189.33333333333334,487.72463999999997,195.30666666666667,485.99408,201.28,484.63584000000003C207.25333333333333,483.2776,213.2266666666667,482.40816,219.20000000000002,480.84192C225.17333333333335,479.27568,231.14666666666668,477.22792000000004,237.12,475.2384C243.09333333333333,473.24888,249.06666666666666,471.43408,255.04,468.9048C261.0133333333333,466.37552,266.9866666666667,463.25448,272.96000000000004,460.06272C278.93333333333334,456.87096,284.9066666666667,452.69536,290.88,449.75424C296.85333333333335,446.81311999999997,302.82666666666665,444.92032,308.8,442.416C314.77333333333337,439.91168,320.74666666666667,436.86032,326.72,434.72832C332.6933333333334,432.59632,338.6666666666667,432.77312,344.64000000000004,429.624C350.61333333333334,426.47488000000004,356.5866666666667,419.3072,362.56,415.83360000000005C368.53333333333336,412.36,374.50666666666666,411.71104,380.48,408.7824C386.4533333333334,405.85375999999997,392.4266666666667,401.89552,398.40000000000003,398.26176C404.37333333333333,394.628,410.3466666666667,387.2128,416.32,386.97984C422.29333333333335,386.74688000000003,428.26666666666665,386.86336,434.24,386.6304C440.21333333333337,386.39744,446.18666666666667,379.93488,452.16,376.85856C458.1333333333333,373.78224,464.1066666666667,370.26496000000003,470.08,368.17248C476.05333333333334,366.08,482.02666666666664,364.30368,488,364.30368C493.97333333333336,364.30368,499.94666666666666,364.30368,505.92,364.30368C511.8933333333334,364.30368,517.8666666666667,361.70992,523.84,360.2976C529.8133333333334,358.88528,535.7866666666666,357.341452,541.76,355.82976C547.7333333333333,354.31806800000004,553.7066666666666,353.57431199999996,559.68,351.227448C565.6533333333333,348.880584,571.6266666666667,344.9793776,577.6,341.748576C583.5733333333334,338.51777440000006,589.5466666666666,335.21899840000003,595.52,331.84263840000006C601.4933333333333,328.4662784,607.4666666666667,325.01890720000006,613.44,321.49041600000004C619.4133333333334,317.9619248,625.3866666666667,314.3591776,631.36,310.6716912C637.3333333333334,306.9842048,643.3066666666667,303.219124,649.2800000000001,299.3654976C655.2533333333333,295.51187120000003,661.2266666666667,291.5771976,667.1999999999999,287.5499328C673.1733333333333,283.522668,679.1466666666666,279.41063280000003,685.12,275.2019088C691.0933333333334,270.99318480000005,697.0666666666666,266.6959464,703.04,262.2975888C709.0133333333333,257.89923120000003,714.9866666666667,253.40830320000003,720.96,248.81176320000003C726.9333333333334,244.21522320000005,732.9066666666666,239.52198400000003,738.88,234.71834880000006C744.8533333333334,229.91471360000006,750.8266666666667,225.0100320000001,756.8000000000001,219.98995200000007C762.7733333333333,214.9698720000001,768.7466666666667,209.8441488,774.7199999999999,204.59786880000001C780.6933333333333,199.35158879999997,786.6666666666666,193.99492320000002,792.64,188.512272C798.6133333333333,183.0296208,804.5866666666666,177.43165439999999,810.56,171.7019616C816.5333333333333,165.9722688,822.5066666666667,160.12197760000006,828.48,154.13411520000005C834.4533333333334,148.14625280000007,840.4266666666666,142.032436,846.4,135.7747872C852.3733333333333,129.51713839999996,858.3466666666667,123.12782560000004,864.32,116.5882224C870.2933333333334,110.04861920000002,876.2666666666667,103.29289359999999,882.24,96.53716799999995"/><text class="label" font-size="11" alignment-baseline="middle" opacity="1" x="5" fill="rgb(17, 165, 121)" transform="translate(897.239990234375, 116.53717041015625)"/></g><g class="series"><clipPath id="clip-0-1"><rect width="936" y="-20" height="599.6"/></clipPath><path class="line" opacity="1" fill="none" stroke="rgb(128, 35, 146)" stroke-width="2" transform="translate(15,20)" clip-path="url(#clip-0-1)" d="M57.92,496.19856000000004C63.89333333333334,494.89388,69.86666666666667,493.5892,75.84,492.18624C81.81333333333333,490.78328,87.78666666666666,489.10888,93.75999999999999,487.7808C99.73333333333333,486.45272,105.70666666666666,485.43248,111.68,484.21776C117.65333333333335,483.00304,123.62666666666668,481.858,129.60000000000002,480.49248C135.57333333333335,479.12696,141.54666666666665,477.5264,147.51999999999998,476.02464000000003C153.4933333333333,474.52288000000004,159.46666666666667,473.10016,165.44,471.48192C171.41333333333333,469.86368,177.38666666666668,467.94696,183.36,466.3152C189.33333333333334,464.68344,195.30666666666667,463.27528,201.28,461.69136000000003C207.25333333333333,460.10744000000005,213.2266666666667,458.57344,219.20000000000002,456.81168C225.17333333333335,455.04992000000004,231.14666666666668,453.21016000000003,237.12,451.12080000000003C243.09333333333333,449.03144000000003,249.06666666666666,446.85368000000005,255.04,444.27552000000003C261.0133333333333,441.69736,266.9866666666667,438.51288,272.96000000000004,435.65184C278.93333333333334,432.7908,284.9066666666667,429.94016,290.88,427.10928C296.85333333333335,424.27840000000003,302.82666666666665,421.51928,308.8,418.66656C314.77333333333337,415.81384,320.74666666666667,413.11504,326.72,409.99296000000004C332.6933333333334,406.87088000000006,338.6666666666667,403.1872,344.64000000000004,399.93408C350.61333333333334,396.68095999999997,356.5866666666667,393.33008,362.56,390.47424C368.53333333333336,387.6184,374.50666666666666,385.69232,380.48,382.79904C386.4533333333334,379.90576,392.4266666666667,376.18879999999996,398.40000000000003,373.11456C404.37333333333333,370.04032,410.3466666666667,367.20216000000005,416.32,364.35360000000003C422.29333333333335,361.50504,428.26666666666665,358.58783999999997,434.24,356.0232C440.21333333333337,353.45856,446.18666666666667,351.19032,452.16,348.96576C458.1333333333333,346.7412,464.1066666666667,342.91712,470.08,342.67584C476.05333333333334,342.43456,482.02666666666664,342.5552,488,342.31392C493.97333333333336,342.07264,499.94666666666666,336.1228,505.92,333.7464C511.8933333333334,331.37,517.8666666666667,329.53232,523.84,328.05552C529.8133333333334,326.57872000000003,535.7866666666666,326.5167984,541.76,324.8856C547.7333333333333,323.2544016,553.7066666666666,321.0707552,559.68,318.2683296C565.6533333333333,315.465904,571.6266666666667,311.5413704,577.6,308.0710464C583.5733333333334,304.6007224,589.5466666666666,301.06215360000004,595.52,297.44638560000004C601.4933333333333,293.83061760000004,607.4666666666667,290.1437240000001,613.44,286.37643840000004C619.4133333333334,282.60915280000006,625.3866666666667,278.76782959999997,631.36,274.842672C637.3333333333334,270.91751439999996,643.3066666666667,266.91515760000004,649.2800000000001,262.8254928C655.2533333333333,258.735828,661.2266666666667,254.56572959999997,667.1999999999999,250.3046832C673.1733333333333,246.04363679999997,679.1466666666666,241.69881840000002,685.12,237.25921440000002C691.0933333333334,232.81961040000004,697.0666666666666,228.29271920000002,703.04,223.66705920000004C709.0133333333333,219.04139920000003,714.9866666666667,214.32476000000003,720.96,209.5052544C726.9333333333334,204.68574880000003,732.9066666666666,199.7714992,738.88,194.75002560000001C744.8533333333334,189.728552,750.8266666666667,184.60833040000006,756.8000000000001,179.37641280000003C762.7733333333333,174.14449520000005,768.7466666666667,168.80969039999997,774.7199999999999,163.35852C780.6933333333333,157.90734959999997,786.6666666666666,152.34900720000007,792.64,146.66939040000005C798.6133333333333,140.98977360000006,804.5866666666666,135.19845039999998,810.56,129.2808192C816.5333333333333,123.36318799999997,822.5066666666667,117.32922239999996,828.48,111.16360319999995C834.4533333333334,104.99798399999999,840.4266666666666,98.71111120000002,846.4,92.28710400000006C852.3733333333333,85.86309680000005,858.3466666666667,79.31277120000006,864.32,72.61956000000004C870.2933333333334,65.92634880000006,876.2666666666667,59.02709280000006,882.24,52.12783680000007"/><text class="label" font-size="11" alignment-baseline="middle" opacity="1" x="5" fill="rgb(128, 35, 146)" transform="translate(897.239990234375, 72.12783813476562)"/></g></g><g id="data-points"><g class="series" transform="translate(15,20)"><path class="data-point" fill="rgb(17, 165, 121)" data-type="point" transform="translate(0, 0)" d="M54.92,515.112A3,3,0,1,1,60.92,515.112A3,3,0,1,1,54.92,515.112Z" id="point-0-0" opacity="1"/><path class="data-point" fill="rgb(17, 165, 121)" data-type="point" transform="translate(0, 0)" d="M72.84,512.46A3,3,0,1,1,78.84,512.46A3,3,0,1,1,72.84,512.46Z" id="point-0-1" opacity="1"/><path class="data-point" fill="rgb(17, 165, 121)" data-type="point" transform="translate(0, 0)" d="M90.75999999999999,508.09200000000004A3,3,0,1,1,96.75999999999999,508.09200000000004A3,3,0,1,1,90.75999999999999,508.09200000000004Z" id="point-0-2" opacity="1"/><path class="data-point" fill="rgb(17, 165, 121)" data-type="point" transform="translate(0, 0)" d="M108.68,503.69280000000003A3,3,0,1,1,114.68,503.69280000000003A3,3,0,1,1,108.68,503.69280000000003Z" id="point-0-3" opacity="1"/><path class="data-point" fill="rgb(17, 165, 121)" data-type="point" transform="translate(0, 0)" d="M126.60000000000002,499.76160000000004A3,3,0,1,1,132.60000000000002,499.76160000000004A3,3,0,1,1,126.60000000000002,499.76160000000004Z" id="point-0-4" opacity="1"/><path class="data-point" fill="rgb(17, 165, 121)" data-type="point" transform="translate(0, 0)" d="M144.51999999999998,496.12992A3,3,0,1,1,150.51999999999998,496.12992A3,3,0,1,1,144.51999999999998,496.12992Z" id="point-0-5" opacity="1"/><path class="data-point" fill="rgb(17, 165, 121)" data-type="point" transform="translate(0, 0)" d="M162.44,492.23616000000004A3,3,0,1,1,168.44,492.23616000000004A3,3,0,1,1,162.44,492.23616000000004Z" id="point-0-6" opacity="1"/><path class="data-point" fill="rgb(17, 165, 121)" data-type="point" transform="translate(0, 0)" d="M180.36,488.99136A3,3,0,1,1,186.36,488.99136A3,3,0,1,1,180.36,488.99136Z" id="point-0-7" opacity="1"/><path class="data-point" fill="rgb(17, 165, 121)" data-type="point" transform="translate(0, 0)" d="M198.28,484.63584000000003A3,3,0,1,1,204.28,484.63584000000003A3,3,0,1,1,198.28,484.63584000000003Z" id="point-0-8" opacity="1"/><path class="data-point" fill="rgb(17, 165, 121)" data-type="point" transform="translate(0, 0)" d="M216.20000000000002,480.84192A3,3,0,1,1,222.20000000000002,480.84192A3,3,0,1,1,216.20000000000002,480.84192Z" id="point-0-9" opacity="1"/><path class="data-point" fill="rgb(17, 165, 121)" data-type="point" transform="translate(0, 0)" d="M234.12,475.2384A3,3,0,1,1,240.12,475.2384A3,3,0,1,1,234.12,475.2384Z" id="point-0-10" opacity="1"/><path class="data-point" fill="rgb(17, 165, 121)" data-type="point" transform="translate(0, 0)" d="M252.04,468.9048A3,3,0,1,1,258.03999999999996,468.9048A3,3,0,1,1,252.04,468.9048Z" id="point-0-11" opacity="1"/><path class="data-point" fill="rgb(17, 165, 121)" data-type="point" transform="translate(0, 0)" d="M269.96000000000004,460.06272A3,3,0,1,1,275.96000000000004,460.06272A3,3,0,1,1,269.96000000000004,460.06272Z" id="point-0-12" opacity="1"/><path class="data-point" fill="rgb(17, 165, 121)" data-type="point" transform="translate(0, 0)" d="M287.88,449.75424A3,3,0,1,1,293.88,449.75424A3,3,0,1,1,287.88,449.75424Z" id="point-0-13" opacity="1"/><path class="data-point" fill="rgb(17, 165, 121)" data-type="point" transform="translate(0, 0)" d="M305.8,442.416A3,3,0,1,1,311.8,442.416A3,3,0,1,1,305.8,442.416Z" id="point-0-14" opacity="1"/><path class="data-point" fill="rgb(17, 165, 121)" data-type="point" transform="translate(0, 0)" d="M323.72,434.72832A3,3,0,1,1,329.72,434.72832A3,3,0,1,1,323.72,434.72832Z" id="point-0-15" opacity="1"/><path class="data-point" fill="rgb(17, 165, 121)" data-type="point" transform="translate(0, 0)" d="M341.64000000000004,429.624A3,3,0,1,1,347.64000000000004,429.624A3,3,0,1,1,341.64000000000004,429.624Z" id="point-0-16" opacity="1"/><path class="data-point" fill="rgb(17, 165, 121)" data-type="point" transform="translate(0, 0)" d="M359.56,415.83360000000005A3,3,0,1,1,365.56,415.83360000000005A3,3,0,1,1,359.56,415.83360000000005Z" id="point-0-17" opacity="1"/><path class="data-point" fill="rgb(17, 165, 121)" data-type="point" transform="translate(0, 0)" d="M377.48,408.7824A3,3,0,1,1,383.48,408.7824A3,3,0,1,1,377.48,408.7824Z" id="point-0-18" opacity="1"/><path class="data-point" fill="rgb(17, 165, 121)" data-type="point" transform="translate(0, 0)" d="M395.40000000000003,398.26176A3,3,0,1,1,401.40000000000003,398.26176A3,3,0,1,1,395.40000000000003,398.26176Z" id="point-0-19" opacity="1"/><path class="data-point" fill="rgb(17, 165, 121)" data-type="point" transform="translate(0, 0)" d="M413.32,386.97984A3,3,0,1,1,419.32,386.97984A3,3,0,1,1,413.32,386.97984Z" id="point-0-20" opacity="1"/><path class="data-point" fill="rgb(17, 165, 121)" data-type="point" transform="translate(0, 0)" d="M431.24,386.6304A3,3,0,1,1,437.24,386.6304A3,3,0,1,1,431.24,386.6304Z" id="point-0-21" opacity="1"/><path class="data-point" fill="rgb(17, 165, 121)" data-type="point" transform="translate(0, 0)" d="M449.16,376.85856A3,3,0,1,1,455.16,376.85856A3,3,0,1,1,449.16,376.85856Z" id="point-0-22" opacity="1"/><path class="data-point" fill="rgb(17, 165, 121)" data-type="point" transform="translate(0, 0)" d="M467.08,368.17248A3,3,0,1,1,473.08,368.17248A3,3,0,1,1,467.08,368.17248Z" id="point-0-23" opacity="1"/><path class="data-point" fill="rgb(17, 165, 121)" data-type="point" transform="translate(0, 0)" d="M485,364.30368A3,3,0,1,1,491,364.30368A3,3,0,1,1,485,364.30368Z" id="point-0-24" opacity="1"/><path class="data-point" fill="rgb(17, 165, 121)" data-type="point" transform="translate(0, 0)" d="M502.92,364.30368A3,3,0,1,1,508.92,364.30368A3,3,0,1,1,502.92,364.30368Z" id="point-0-25" opacity="1"/><path class="data-point" fill="rgb(17, 165, 121)" data-type="point" transform="translate(0, 0)" d="M520.84,360.2976A3,3,0,1,1,526.84,360.2976A3,3,0,1,1,520.84,360.2976Z" id="point-0-26" opacity="1"/><path class="data-point" fill="rgb(17, 165, 121)" data-type="point" transform="translate(0, 0)" d="M538.76,355.82976A3,3,0,1,1,544.76,355.82976A3,3,0,1,1,538.76,355.82976Z" id="point-0-27" opacity="1"/><path class="data-point" fill="rgb(17, 165, 121)" data-type="point" transform="translate(0, 0)" d="M556.68,351.227448A3,3,0,1,1,562.68,351.227448A3,3,0,1,1,556.68,351.227448Z" id="point-0-28" opacity="1"/><path class="data-point" fill="rgb(17, 165, 121)" data-type="point" transform="translate(0, 0)" d="M574.6,341.748576A3,3,0,1,1,580.6,341.748576A3,3,0,1,1,574.6,341.748576Z" id="point-0-29" opacity="1"/><path class="data-point" fill="rgb(17, 165, 121)" data-type="point" transform="translate(0, 0)" d="M592.52,331.84263840000006A3,3,0,1,1,598.52,331.84263840000006A3,3,0,1,1,592.52,331.84263840000006Z" id="point-0-30" opacity="1"/><path class="data-point" fill="rgb(17, 165, 121)" data-type="point" transform="translate(0, 0)" d="M610.44,321.49041600000004A3,3,0,1,1,616.44,321.49041600000004A3,3,0,1,1,610.44,321.49041600000004Z" id="point-0-31" opacity="1"/><path class="data-point" fill="rgb(17, 165, 121)" data-type="point" transform="translate(0, 0)" d="M628.36,310.6716912A3,3,0,1,1,634.36,310.6716912A3,3,0,1,1,628.36,310.6716912Z" id="point-0-32" opacity="1"/><path class="data-point" fill="rgb(17, 165, 121)" data-type="point" transform="translate(0, 0)" d="M646.2800000000001,299.3654976A3,3,0,1,1,652.2800000000001,299.3654976A3,3,0,1,1,646.2800000000001,299.3654976Z" id="point-0-33" opacity="1"/><path class="data-point" fill="rgb(17, 165, 121)" data-type="point" transform="translate(0, 0)" d="M664.1999999999999,287.5499328A3,3,0,1,1,670.1999999999999,287.5499328A3,3,0,1,1,664.1999999999999,287.5499328Z" id="point-0-34" opacity="1"/><path class="data-point" fill="rgb(17, 165, 121)" data-type="point" transform="translate(0, 0)" d="M682.12,275.2019088A3,3,0,1,1,688.12,275.2019088A3,3,0,1,1,682.12,275.2019088Z" id="point-0-35" opacity="1"/><path class="data-point" fill="rgb(17, 165, 121)" data-type="point" transform="translate(0, 0)" d="M700.04,262.2975888A3,3,0,1,1,706.04,262.2975888A3,3,0,1,1,700.04,262.2975888Z" id="point-0-36" opacity="1"/><path class="data-point" fill="rgb(17, 165, 121)" data-type="point" transform="translate(0, 0)" d="M717.96,248.81176320000003A3,3,0,1,1,723.96,248.81176320000003A3,3,0,1,1,717.96,248.81176320000003Z" id="point-0-37" opacity="1"/><path class="data-point" fill="rgb(17, 165, 121)" data-type="point" transform="translate(0, 0)" d="M735.88,234.71834880000006A3,3,0,1,1,741.88,234.71834880000006A3,3,0,1,1,735.88,234.71834880000006Z" id="point-0-38" opacity="1"/><path class="data-point" fill="rgb(17, 165, 121)" data-type="point" transform="translate(0, 0)" d="M753.8000000000001,219.98995200000007A3,3,0,1,1,759.8000000000001,219.98995200000007A3,3,0,1,1,753.8000000000001,219.98995200000007Z" id="point-0-39" opacity="1"/><path class="data-point" fill="rgb(17, 165, 121)" data-type="point" transform="translate(0, 0)" d="M771.7199999999999,204.59786880000001A3,3,0,1,1,777.7199999999999,204.59786880000001A3,3,0,1,1,771.7199999999999,204.59786880000001Z" id="point-0-40" opacity="1"/><path class="data-point" fill="rgb(17, 165, 121)" data-type="point" transform="translate(0, 0)" d="M789.64,188.512272A3,3,0,1,1,795.64,188.512272A3,3,0,1,1,789.64,188.512272Z" id="point-0-41" opacity="1"/><path class="data-point" fill="rgb(17, 165, 121)" data-type="point" transform="translate(0, 0)" d="M807.56,171.7019616A3,3,0,1,1,813.56,171.7019616A3,3,0,1,1,807.56,171.7019616Z" id="point-0-42" opacity="1"/><path class="data-point" fill="rgb(17, 165, 121)" data-type="point" transform="translate(0, 0)" d="M825.48,154.13411520000005A3,3,0,1,1,831.48,154.13411520000005A3,3,0,1,1,825.48,154.13411520000005Z" id="point-0-43" opacity="1"/><path class="data-point" fill="rgb(17, 165, 121)" data-type="point" transform="translate(0, 0)" d="M843.4,135.7747872A3,3,0,1,1,849.4,135.7747872A3,3,0,1,1,843.4,135.7747872Z" id="point-0-44" opacity="1"/><path class="data-point" fill="rgb(17, 165, 121)" data-type="point" transform="translate(0, 0)" d="M861.32,116.5882224A3,3,0,1,1,867.32,116.5882224A3,3,0,1,1,861.32,116.5882224Z" id="point-0-45" opacity="1"/><path class="data-point" fill="rgb(17, 165, 121)" data-type="point" transform="translate(0, 0)" d="M879.24,96.53716799999995A3,3,0,1,1,885.24,96.53716799999995A3,3,0,1,1,879.24,96.53716799999995Z" id="point-0-46" opacity="1"/></g><g class="series" transform="translate(15,20)"><path class="data-point" fill="rgb(128, 35, 146)" data-type="point" transform="translate(0, 0)" d="M54.92,496.19856000000004A3,3,0,1,1,60.92,496.19856000000004A3,3,0,1,1,54.92,496.19856000000004Z" id="point-1-0" opacity="1"/><path class="data-point" fill="rgb(128, 35, 146)" data-type="point" transform="translate(0, 0)" d="M72.84,492.18624A3,3,0,1,1,78.84,492.18624A3,3,0,1,1,72.84,492.18624Z" id="point-1-1" opacity="1"/><path class="data-point" fill="rgb(128, 35, 146)" data-type="point" transform="translate(0, 0)" d="M90.75999999999999,487.7808A3,3,0,1,1,96.75999999999999,487.7808A3,3,0,1,1,90.75999999999999,487.7808Z" id="point-1-2" opacity="1"/><path class="data-point" fill="rgb(128, 35, 146)" data-type="point" transform="translate(0, 0)" d="M108.68,484.21776A3,3,0,1,1,114.68,484.21776A3,3,0,1,1,108.68,484.21776Z" id="point-1-3" opacity="1"/><path class="data-point" fill="rgb(128, 35, 146)" data-type="point" transform="translate(0, 0)" d="M126.60000000000002,480.49248A3,3,0,1,1,132.60000000000002,480.49248A3,3,0,1,1,126.60000000000002,480.49248Z" id="point-1-4" opacity="1"/><path class="data-point" fill="rgb(128, 35, 146)" data-type="point" transform="translate(0, 0)" d="M144.51999999999998,476.02464000000003A3,3,0,1,1,150.51999999999998,476.02464000000003A3,3,0,1,1,144.51999999999998,476.02464000000003Z" id="point-1-5" opacity="1"/><path class="data-point" fill="rgb(128, 35, 146)" data-type="point" transform="translate(0, 0)" d="M162.44,471.48192A3,3,0,1,1,168.44,471.48192A3,3,0,1,1,162.44,471.48192Z" id="point-1-6" opacity="1"/><path class="data-point" fill="rgb(128, 35, 146)" data-type="point" transform="translate(0, 0)" d="M180.36,466.3152A3,3,0,1,1,186.36,466.3152A3,3,0,1,1,180.36,466.3152Z" id="point-1-7" opacity="1"/><path class="data-point" fill="rgb(128, 35, 146)" data-type="point" transform="translate(0, 0)" d="M198.28,461.69136000000003A3,3,0,1,1,204.28,461.69136000000003A3,3,0,1,1,198.28,461.69136000000003Z" id="point-1-8" opacity="1"/><path class="data-point" fill="rgb(128, 35, 146)" data-type="point" transform="translate(0, 0)" d="M216.20000000000002,456.81168A3,3,0,1,1,222.20000000000002,456.81168A3,3,0,1,1,216.20000000000002,456.81168Z" id="point-1-9" opacity="1"/><path class="data-point" fill="rgb(128, 35, 146)" data-type="point" transform="translate(0, 0)" d="M234.12,451.12080000000003A3,3,0,1,1,240.12,451.12080000000003A3,3,0,1,1,234.12,451.12080000000003Z" id="point-1-10" opacity="1"/><path class="data-point" fill="rgb(128, 35, 146)" data-type="point" transform="translate(0, 0)" d="M252.04,444.27552000000003A3,3,0,1,1,258.03999999999996,444.27552000000003A3,3,0,1,1,252.04,444.27552000000003Z" id="point-1-11" opacity="1"/><path class="data-point" fill="rgb(128, 35, 146)" data-type="point" transform="translate(0, 0)" d="M269.96000000000004,435.65184A3,3,0,1,1,275.96000000000004,435.65184A3,3,0,1,1,269.96000000000004,435.65184Z" id="point-1-12" opacity="1"/><path class="data-point" fill="rgb(128, 35, 146)" data-type="point" transform="translate(0, 0)" d="M287.88,427.10928A3,3,0,1,1,293.88,427.10928A3,3,0,1,1,287.88,427.10928Z" id="point-1-13" opacity="1"/><path class="data-point" fill="rgb(128, 35, 146)" data-type="point" transform="translate(0, 0)" d="M305.8,418.66656A3,3,0,1,1,311.8,418.66656A3,3,0,1,1,305.8,418.66656Z" id="point-1-14" opacity="1"/><path class="data-point" fill="rgb(128, 35, 146)" data-type="point" transform="translate(0, 0)" d="M323.72,409.99296000000004A3,3,0,1,1,329.72,409.99296000000004A3,3,0,1,1,323.72,409.99296000000004Z" id="point-1-15" opacity="1"/><path class="data-point" fill="rgb(128, 35, 146)" data-type="point" transform="translate(0, 0)" d="M341.64000000000004,399.93408A3,3,0,1,1,347.64000000000004,399.93408A3,3,0,1,1,341.64000000000004,399.93408Z" id="point-1-16" opacity="1"/><path class="data-point" fill="rgb(128, 35, 146)" data-type="point" transform="translate(0, 0)" d="M359.56,390.47424A3,3,0,1,1,365.56,390.47424A3,3,0,1,1,359.56,390.47424Z" id="point-1-17" opacity="1"/><path class="data-point" fill="rgb(128, 35, 146)" data-type="point" transform="translate(0, 0)" d="M377.48,382.79904A3,3,0,1,1,383.48,382.79904A3,3,0,1,1,377.48,382.79904Z" id="point-1-18" opacity="1"/><path class="data-point" fill="rgb(128, 35, 146)" data-type="point" transform="translate(0, 0)" d="M395.40000000000003,373.11456A3,3,0,1,1,401.40000000000003,373.11456A3,3,0,1,1,395.40000000000003,373.11456Z" id="point-1-19" opacity="1"/><path class="data-point" fill="rgb(128, 35, 146)" data-type="point" transform="translate(0, 0)" d="M413.32,364.35360000000003A3,3,0,1,1,419.32,364.35360000000003A3,3,0,1,1,413.32,364.35360000000003Z" id="point-1-20" opacity="1"/><path class="data-point" fill="rgb(128, 35, 146)" data-type="point" transform="translate(0, 0)" d="M431.24,356.0232A3,3,0,1,1,437.24,356.0232A3,3,0,1,1,431.24,356.0232Z" id="point-1-21" opacity="1"/><path class="data-point" fill="rgb(128, 35, 146)" data-type="point" transform="translate(0, 0)" d="M449.16,348.96576A3,3,0,1,1,455.16,348.96576A3,3,0,1,1,449.16,348.96576Z" id="point-1-22" opacity="1"/><path class="data-point" fill="rgb(128, 35, 146)" data-type="point" transform="translate(0, 0)" d="M467.08,342.67584A3,3,0,1,1,473.08,342.67584A3,3,0,1,1,467.08,342.67584Z" id="point-1-23" opacity="1"/><path class="data-point" fill="rgb(128, 35, 146)" data-type="point" transform="translate(0, 0)" d="M485,342.31392A3,3,0,1,1,491,342.31392A3,3,0,1,1,485,342.31392Z" id="point-1-24" opacity="1"/><path class="data-point" fill="rgb(128, 35, 146)" data-type="point" transform="translate(0, 0)" d="M502.92,333.7464A3,3,0,1,1,508.92,333.7464A3,3,0,1,1,502.92,333.7464Z" id="point-1-25" opacity="1"/><path class="data-point" fill="rgb(128, 35, 146)" data-type="point" transform="translate(0, 0)" d="M520.84,328.05552A3,3,0,1,1,526.84,328.05552A3,3,0,1,1,520.84,328.05552Z" id="point-1-26" opacity="1"/><path class="data-point" fill="rgb(128, 35, 146)" data-type="point" transform="translate(0, 0)" d="M538.76,324.8856A3,3,0,1,1,544.76,324.8856A3,3,0,1,1,538.76,324.8856Z" id="point-1-27" opacity="1"/><path class="data-point" fill="rgb(128, 35, 146)" data-type="point" transform="translate(0, 0)" d="M556.68,318.2683296A3,3,0,1,1,562.68,318.2683296A3,3,0,1,1,556.68,318.2683296Z" id="point-1-28" opacity="1"/><path class="data-point" fill="rgb(128, 35, 146)" data-type="point" transform="translate(0, 0)" d="M574.6,308.0710464A3,3,0,1,1,580.6,308.0710464A3,3,0,1,1,574.6,308.0710464Z" id="point-1-29" opacity="1"/><path class="data-point" fill="rgb(128, 35, 146)" data-type="point" transform="translate(0, 0)" d="M592.52,297.44638560000004A3,3,0,1,1,598.52,297.44638560000004A3,3,0,1,1,592.52,297.44638560000004Z" id="point-1-30" opacity="1"/><path class="data-point" fill="rgb(128, 35, 146)" data-type="point" transform="translate(0, 0)" d="M610.44,286.37643840000004A3,3,0,1,1,616.44,286.37643840000004A3,3,0,1,1,610.44,286.37643840000004Z" id="point-1-31" opacity="1"/><path class="data-point" fill="rgb(128, 35, 146)" data-type="point" transform="translate(0, 0)" d="M628.36,274.842672A3,3,0,1,1,634.36,274.842672A3,3,0,1,1,628.36,274.842672Z" id="point-1-32" opacity="1"/><path class="data-point" fill="rgb(128, 35, 146)" data-type="point" transform="translate(0, 0)" d="M646.2800000000001,262.8254928A3,3,0,1,1,652.2800000000001,262.8254928A3,3,0,1,1,646.2800000000001,262.8254928Z" id="point-1-33" opacity="1"/><path class="data-point" fill="rgb(128, 35, 146)" data-type="point" transform="translate(0, 0)" d="M664.1999999999999,250.3046832A3,3,0,1,1,670.1999999999999,250.3046832A3,3,0,1,1,664.1999999999999,250.3046832Z" id="point-1-34" opacity="1"/><path class="data-point" fill="rgb(128, 35, 146)" data-type="point" transform="translate(0, 0)" d="M682.12,237.25921440000002A3,3,0,1,1,688.12,237.25921440000002A3,3,0,1,1,682.12,237.25921440000002Z" id="point-1-35" opacity="1"/><path class="data-point" fill="rgb(128, 35, 146)" data-type="point" transform="translate(0, 0)" d="M700.04,223.66705920000004A3,3,0,1,1,706.04,223.66705920000004A3,3,0,1,1,700.04,223.66705920000004Z" id="point-1-36" opacity="1"/><path class="data-point" fill="rgb(128, 35, 146)" data-type="point" transform="translate(0, 0)" d="M717.96,209.5052544A3,3,0,1,1,723.96,209.5052544A3,3,0,1,1,717.96,209.5052544Z" id="point-1-37" opacity="1"/><path class="data-point" fill="rgb(128, 35, 146)" data-type="point" transform="translate(0, 0)" d="M735.88,194.75002560000001A3,3,0,1,1,741.88,194.75002560000001A3,3,0,1,1,735.88,194.75002560000001Z" id="point-1-38" opacity="1"/><path class="data-point" fill="rgb(128, 35, 146)" data-type="point" transform="translate(0, 0)" d="M753.8000000000001,179.37641280000003A3,3,0,1,1,759.8000000000001,179.37641280000003A3,3,0,1,1,753.8000000000001,179.37641280000003Z" id="point-1-39" opacity="1"/><path class="data-point" fill="rgb(128, 35, 146)" data-type="point" transform="translate(0, 0)" d="M771.7199999999999,163.35852A3,3,0,1,1,777.7199999999999,163.35852A3,3,0,1,1,771.7199999999999,163.35852Z" id="point-1-40" opacity="1"/><path class="data-point" fill="rgb(128, 35, 146)" data-type="point" transform="translate(0, 0)" d="M789.64,146.66939040000005A3,3,0,1,1,795.64,146.66939040000005A3,3,0,1,1,789.64,146.66939040000005Z" id="point-1-41" opacity="1"/><path class="data-point" fill="rgb(128, 35, 146)" data-type="point" transform="translate(0, 0)" d="M807.56,129.2808192A3,3,0,1,1,813.56,129.2808192A3,3,0,1,1,807.56,129.2808192Z" id="point-1-42" opacity="1"/><path class="data-point" fill="rgb(128, 35, 146)" data-type="point" transform="translate(0, 0)" d="M825.48,111.16360319999995A3,3,0,1,1,831.48,111.16360319999995A3,3,0,1,1,825.48,111.16360319999995Z" id="point-1-43" opacity="1"/><path class="data-point" fill="rgb(128, 35, 146)" data-type="point" transform="translate(0, 0)" d="M843.4,92.28710400000006A3,3,0,1,1,849.4,92.28710400000006A3,3,0,1,1,843.4,92.28710400000006Z" id="point-1-44" opacity="1"/><path class="data-point" fill="rgb(128, 35, 146)" data-type="point" transform="translate(0, 0)" d="M861.32,72.61956000000004A3,3,0,1,1,867.32,72.61956000000004A3,3,0,1,1,861.32,72.61956000000004Z" id="point-1-45" opacity="1"/><path class="data-point" fill="rgb(128, 35, 146)" data-type="point" transform="translate(0, 0)" d="M879.24,52.12783680000007A3,3,0,1,1,885.24,52.12783680000007A3,3,0,1,1,879.24,52.12783680000007Z" id="point-1-46" opacity="1"/></g></g><g id="data-labels"/><g class="annotations above"><g class="axis-highlights" transform="translate(15, 20)" style="opacity: 1;"/></g></svg>