<svg xmlns="http://www.w3.org/2000/svg" id="graphic" width="961" height="634.6"><g id="facets"><g class="facet" transform="translate(15,20)" opacity="1"><text class="facet-title" y="0" font-size="16" font-weight="bold" dominant-baseline="middle" x="0" clip-path="url(#facet-clip-0)" fill="black"/><g class="plot"><clipPath class="facet-clip" id="facet-clip-0"><rect width="951" height="581.6" transform="translate(-7.5,-10)"/></clipPath><g class="bg"><rect fill="none" width="936" height="561.6" style="fill: none;"/></g><g class="interaction"><g class="series"><path data-target="point-0-0" d="M74.98061241785712,561.6L66.36050245,511.58952L0,511.58952L0,561.6Z" style="opacity: 0;"/><path data-target="point-0-1" d="M66.36050245,511.58952L74.98061241785712,561.6L82.88721647428567,561.6L85.02404981857143,507.77063999999996L67.64507821,507.77063999999996Z" style="opacity: 0;"/><path data-target="point-0-2" d="M116.09684191071442,561.6L101.53067034642855,506.91887999999994L85.56059017357144,506.91887999999994L85.02404981857143,507.77063999999996L82.88721647428567,561.6Z" style="opacity: 0;"/><path data-target="point-0-3" d="M101.53067034642855,506.91887999999994L116.09684191071442,561.6L136.7326026207142,561.6L119.57607136428571,502.73496L103.61549526857141,502.73496Z" style="opacity: 0;"/><path data-target="point-0-4" d="M119.57607136428571,502.73496L136.7326026207142,561.6L156.04315079642848,561.6L137.70412460857142,498.22344L121.41411294999999,498.22344Z" style="opacity: 0;"/><path data-target="point-0-5" d="M137.70412460857142,498.22344L156.04315079642848,561.6L177.25078903714302,561.6L155.58822031714283,492.93503999999996L139.44986322285715,492.93503999999996Z" style="opacity: 0;"/><path data-target="point-0-6" d="M155.58822031714283,492.93503999999996L177.25078903714302,561.6L195.714672562857,561.6L173.39327182857141,486.88847999999996L157.49580202285713,486.88847999999996Z" style="opacity: 0;"/><path data-target="point-0-7" d="M173.39327182857141,486.88847999999996L195.714672562857,561.6L227.29121985500007,561.6L191.0825632892857,480.80448L175.6812904,480.80448Z" style="opacity: 0;"/><path data-target="point-0-8" d="M191.0825632892857,480.80448L227.29121985500007,561.6L230.4711686571427,561.6L209.34943277142855,473.69088L193.2747588607143,473.69088Z" style="opacity: 0;"/><path data-target="point-0-9" d="M209.34943277142855,473.69088L230.4711686571427,561.6L276.51025200571445,561.6L226.96788365714283,468.24336L211.60295506285715,468.24336Z" style="opacity: 0;"/><path data-target="point-0-10" d="M226.96788365714283,468.24336L276.51025200571445,561.6L323.2531064000001,561.6L245.94623891428571,458.81784L229.33099617142855,458.81784Z" style="opacity: 0;"/><path data-target="point-0-11" d="M245.94623891428571,458.81784L323.2531064000001,561.6L354.3992395599999,561.6L348.1267943274648,550.7877694763454L308.16327508189636,491.932882487474L265.68169365,445.82615999999996L246.20410056285712,445.82615999999996Z" style="opacity: 0;"/><path data-target="point-0-12" d="M262.732056375,431.34623999999997L265.68169365,445.82615999999996L308.16327508189636,491.932882487474L281.7074684971428,431.34623999999997Z" style="opacity: 0;"/><path data-target="point-0-13" d="M281.7074684971428,431.34623999999997L308.16327508189636,491.932882487474L348.1267943274648,550.7877694763454L298.5087251942857,421.0128L282.26879572,421.0128Z" style="opacity: 0;"/><path data-target="point-0-14" d="M298.5087251942857,421.0128L348.1267943274648,550.7877694763454L354.3992395599999,561.6L398.1559565592862,561.6L315.32893137857144,411.71832L302.12062651142855,411.71832Z" style="opacity: 0;"/><path data-target="point-0-15" d="M315.32893137857144,411.71832L398.1559565592862,561.6L411.5339659149998,561.6L332.35528412499997,399.99024L321.0872092285714,399.99024Z" style="opacity: 0;"/><path data-target="point-0-16" d="M332.35528412499997,399.99024L411.5339659149998,561.6L445.1432485353572,561.6L387.3441449690103,444.00370583338605L349.09225141142855,389.67551999999995L340.16730308928567,389.67551999999995Z" style="opacity: 0;"/><path data-target="point-0-17" d="M349.09225141142855,389.67551999999995L387.3441449690103,444.00370583338605L368.41850282571426,376.15031999999997L358.7564898542857,376.15031999999997Z" style="opacity: 0;"/><path data-target="point-0-18" d="M368.41850282571426,376.15031999999997L387.3441449690103,444.00370583338605L445.1432485353572,561.6L458.9342520721425,561.6L385.0815006228571,370.01016L376.03866067714284,370.01016Z" style="opacity: 0;"/><path data-target="point-0-19" d="M385.0815006228571,370.01016L458.9342520721425,561.6L482.7059671249999,561.6L402.582881225,362.38176L394.70799653714283,362.38176Z" style="opacity: 0;"/><path data-target="point-0-20" d="M402.582881225,362.38176L482.7059671249999,561.6L506.83907177785767,561.6L419.4927210257142,353.08728L414.9041252342857,353.08727999999996Z" style="opacity: 0;"/><path data-target="point-0-21" d="M419.4927210257142,353.08728L506.83907177785767,561.6L509.8998773907141,561.6L438.3553553435714,345.55247999999995L431.11057532571425,345.55247999999995Z" style="opacity: 0;"/><path data-target="point-0-22" d="M438.3553553435714,345.55247999999995L509.8998773907141,561.6L531.7631796199996,561.6L456.6892618142857,341.15328L445.53826697928565,341.15328Z" style="opacity: 0;"/><path data-target="point-0-23" d="M456.6892618142857,341.15328L531.7631796199996,561.6L554.2515215892859,561.6L474.7134839935714,335.66832L464.65371757142856,335.66832Z" style="opacity: 0;"/><path data-target="point-0-24" d="M474.7134839935714,335.66832L554.2515215892859,561.6L556.2208562828571,561.6L534.7064170378874,467.1274368604791L493.20733665142853,329.66856L482.9428512342857,329.66856Z" style="opacity: 0;"/><path data-target="point-0-25" d="M493.20733665142853,329.66856L534.7064170378874,467.1274368604791L512.800161785,324.47375999999997L500.41400847999995,324.47375999999997Z" style="opacity: 0;"/><path data-target="point-0-26" d="M512.800161785,324.47375999999997L534.7064170378874,467.1274368604791L556.2208562828571,561.6L599.5946106145454,561.6L567.1667384955975,432.93355304327474L528.1912657028571,320.21496L519.23775626,320.21495999999996Z" style="opacity: 0;"/><path data-target="point-0-27" d="M528.1912657028571,320.21496L567.1667384955975,432.93355304327474L548.3606760258759,314.12159999999994L537.2555739428572,314.12159999999994Z" style="opacity: 0;"/><path data-target="point-0-28" d="M548.3606760258759,314.12159999999994L567.1667384955975,432.93355304327474L599.5946106145454,561.6L693.7860285963865,561.6L562.0714496176531,310.3831225L554.5799058053634,310.3831225Z" style="opacity: 0;"/><path data-target="point-0-29" d="M562.0714496176531,310.3831225L693.7860285963865,561.6L721.9571050594158,561.6L579.3742504123118,300.1507705L576.3785611497941,300.1507705Z" style="opacity: 0;"/><path data-target="point-0-30" d="M579.3742504123118,300.1507705L721.9571050594158,561.6L750.9708872927479,561.6L596.6197622073986,289.501524L595.0346561448416,289.501524Z" style="opacity: 0;"/><path data-target="point-0-31" d="M596.6197622073986,289.501524L750.9708872927479,561.6L780.8901740898123,561.6L613.8030989731465,278.4184415L613.7595148914015,278.4184415Z" style="opacity: 0;"/><path data-target="point-0-32" d="M613.8030989731465,278.4184415L780.8901740898123,561.6L811.7907747319471,561.6L631.3681574522712,267.61670517112964Z" style="opacity: 0;"/><path data-target="point-0-33" d="M631.3681574522712,267.61670517112964L811.7907747319471,561.6L843.7606057602284,561.6L648.9061863988443,256.3629577283479L632.0843612664324,266.201863684144Z" style="opacity: 0;"/><path data-target="point-0-34" d="M648.9061863988443,256.3629577283479L843.7606057602284,561.6L876.8791710500682,561.6L666.4016532345458,244.6187966953021L650.4404158046691,253.49886443934588Z" style="opacity: 0;"/><path data-target="point-0-35" d="M666.4016532345458,244.6187966953021L876.8791710500682,561.6L911.2377416980604,561.6L683.8505546795542,232.36597642494604L668.8445469750977,240.3081245610727Z" style="opacity: 0;"/><path data-target="point-0-36" d="M683.8505546795542,232.36597642494604L911.2377416980604,561.6L936,561.6L936,546.3556743862873L701.2480290307725,219.5855195837261L687.3017497328243,226.60803018621576Z" style="opacity: 0;"/><path data-target="point-0-37" d="M701.2480290307725,219.5855195837261L936,546.3556743862873L936,497.20683248486677L718.5896166817005,206.2569724177776L705.8167661798849,212.37668492278394Z" style="opacity: 0;"/><path data-target="point-0-38" d="M718.5896166817005,206.2569724177776L936,497.20683248486677L936,449.849427949148L735.8697160330107,192.35944182485142L724.395686058063,197.59069052192964Z" style="opacity: 0;"/><path data-target="point-0-39" d="M735.8697160330107,192.35944182485142L936,449.849427949148L936,404.12603321601443L753.0823189533463,177.87144476596288L743.0442468245199,182.226841791424Z" style="opacity: 0;"/><path data-target="point-0-40" d="M753.0823189533463,177.87144476596288L936,404.12603321601443L936,359.90998845794763L770.2212667079903,162.76947834861429L761.7695735867346,166.25967050377446Z" style="opacity: 0;"/><path data-target="point-0-41" d="M770.2212667079903,162.76947834861429L936,359.90998845794763L936,317.0588623750268L787.2793471439387,147.03011592730954L780.578866060776,149.6638902053499Z" style="opacity: 0;"/><path data-target="point-0-42" d="M787.2793471439387,147.03011592730954L936,317.0588623750268L936,275.4401639904876L804.2488186227607,130.62853314519595L799.4802606290968,132.41282569890643Z" style="opacity: 0;"/><path data-target="point-0-43" d="M804.2488186227607,130.62853314519595L936,275.4401639904876L936,234.93205343762503L821.1214528351413,113.5384998654597L818.4827534871827,114.47846987887814Z" style="opacity: 0;"/><path data-target="point-0-44" d="M821.1214528351413,113.5384998654597L936,234.93205343762503L936,195.40700778882209L837.8875783887188,95.73325694175557L837.5962846022518,95.83205173360982Z" style="opacity: 0;"/><path data-target="point-0-45" d="M837.8875783887188,95.73325694175557L936,195.40700778882209L936,156.74905237655184L855.3369188492555,77.9653150735954Z" style="opacity: 0;"/><path data-target="point-0-46" d="M855.3369188492555,77.9653150735954L936,156.74905237655184L936,46.1796195L909.0521148568731,46.1796195L876.1993932784349,56.28246983251596L856.034343406585,75.74016201593219Z" style="opacity: 0;"/><path data-target="point-1-0" d="M0,511.58952L66.36050245,511.58952L67.64507821,507.77063999999996L0,241.29219184411164Z" style="opacity: 0;"/><path data-target="point-1-1" d="M0,241.29219184411164L67.64507821,507.77063999999996L85.02404981857143,507.77063999999996L85.56059017357144,506.91887999999994L46.872712269928634,219.82934675890004L28.45299295924464,109.96921081638038L17.627355306023503,65.14653103490696L10.109522989087822,36.73906748913117L0,12.140485598553138Z" style="opacity: 0;"/><path data-target="point-1-2" d="M46.872712269928634,219.82934675890004L85.56059017357144,506.91887999999994L101.53067034642855,506.91887999999994L103.61549526857141,502.73496Z" style="opacity: 0;"/><path data-target="point-1-3" d="M28.45299295924464,109.96921081638038L46.872712269928634,219.82934675890004L103.61549526857141,502.73496L119.57607136428571,502.73496L121.41411294999999,498.22344L74.54068886776518,277.187546891908L55.604576052356094,203.3509797839368Z" style="opacity: 0;"/><path data-target="point-1-4" d="M74.54068886776518,277.187546891908L121.41411294999999,498.22344L137.70412460857142,498.22344L139.44986322285715,492.93503999999996Z" style="opacity: 0;"/><path data-target="point-1-5" d="M55.604576052356094,203.3509797839368L74.54068886776518,277.187546891908L139.44986322285715,492.93503999999996L155.58822031714283,492.93503999999996L157.49580202285713,486.88847999999996Z" style="opacity: 0;"/><path data-target="point-1-6" d="M17.627355306023503,65.14653103490696L28.45299295924464,109.96921081638038L55.604576052356094,203.3509797839368L157.49580202285713,486.88847999999996L173.39327182857141,486.88847999999996L175.6812904,480.80448Z" style="opacity: 0;"/><path data-target="point-1-7" d="M10.109522989087822,36.73906748913117L17.627355306023503,65.14653103490696L175.6812904,480.80448L191.0825632892857,480.80448L193.2747588607143,473.69088L107.36926201948631,225.2488202944323L79.52906172067946,167.62622970138324L21.377360744095228,56.957073537895155Z" style="opacity: 0;"/><path data-target="point-1-8" d="M107.36926201948631,225.2488202944323L193.2747588607143,473.69088L209.34943277142855,473.69088L211.60295506285715,468.24336L157.38694316485973,320.8027682028036L154.62662284449564,314.5927613555394Z" style="opacity: 0;"/><path data-target="point-1-9" d="M157.38694316485973,320.8027682028036L211.60295506285715,468.24336L226.96788365714283,468.24336L229.33099617142855,458.81784Z" style="opacity: 0;"/><path data-target="point-1-10" d="M154.62662284449564,314.5927613555394L157.38694316485973,320.8027682028036L229.33099617142855,458.81784L245.94623891428571,458.81784L246.20410056285712,445.82615999999996Z" style="opacity: 0;"/><path data-target="point-1-11" d="M79.52906172067946,167.62622970138324L107.36926201948631,225.2488202944323L154.62662284449564,314.5927613555394L246.20410056285712,445.82615999999996L265.68169365,445.82615999999996L262.732056375,431.34623999999997Z" style="opacity: 0;"/><path data-target="point-1-12" d="M21.377360744095228,56.957073537895155L79.52906172067946,167.62622970138324L262.732056375,431.34623999999997L281.7074684971428,431.34623999999997L282.26879572,421.0128Z" style="opacity: 0;"/><path data-target="point-1-13" d="M0,12.140485598553138L10.109522989087822,36.73906748913117L21.377360744095228,56.957073537895155L282.26879572,421.0128L298.5087251942857,421.0128L302.12062651142855,411.71832L122.1859703507294,137.00517655477398L25.507411232499507,0L0,0Z" style="opacity: 0;"/><path data-target="point-1-14" d="M122.1859703507294,137.00517655477398L302.12062651142855,411.71832L315.32893137857144,411.71832L321.0872092285714,399.99024Z" style="opacity: 0;"/><path data-target="point-1-15" d="M25.507411232499507,0L122.1859703507294,137.00517655477398L321.0872092285714,399.99024L332.35528412499997,399.99024L340.16730308928567,389.67551999999995L204.93167618888063,185.16315569428744L69.14425985142904,0Z" style="opacity: 0;"/><path data-target="point-1-16" d="M204.93167618888063,185.16315569428744L340.16730308928567,389.67551999999995L349.09225141142855,389.67551999999995L358.7564898542857,376.15031999999997Z" style="opacity: 0;"/><path data-target="point-1-17" d="M69.14425985142904,0L204.93167618888063,185.16315569428744L358.7564898542857,376.15031999999997L368.41850282571426,376.15031999999997L376.03866067714284,370.01016L274.78957145610116,120.8528204979537L214.06426628499983,1.4210854715202004e-14Z" style="opacity: 0;"/><path data-target="point-1-18" d="M274.78957145610116,120.8528204979537L376.03866067714284,370.01016L385.0815006228571,370.01016L394.70799653714283,362.38176L322.8539516551664,208.15898151735567Z" style="opacity: 0;"/><path data-target="point-1-19" d="M322.8539516551664,208.15898151735567L394.70799653714283,362.38176L402.582881225,362.38176L414.9041252342857,353.08727999999996Z" style="opacity: 0;"/><path data-target="point-1-20" d="M214.06426628499983,1.4210854715202004e-14L274.78957145610116,120.8528204979537L322.8539516551664,208.15898151735567L414.9041252342857,353.08727999999996L419.4927210257142,353.08728L431.11057532571425,345.55247999999995L285.2750876057138,0Z" style="opacity: 0;"/><path data-target="point-1-21" d="M285.2750876057138,0L431.11057532571425,345.55247999999995L438.3553553435714,345.55247999999995L445.53826697928565,341.15328L416.07474968317854,156.8108445403031L390.7156391495383,39.2544868586445L380.9149854350001,0Z" style="opacity: 0;"/><path data-target="point-1-22" d="M416.07474968317854,156.8108445403031L445.53826697928565,341.15328L456.6892618142857,341.15328L464.65371757142856,335.66832Z" style="opacity: 0;"/><path data-target="point-1-23" d="M390.7156391495383,39.2544868586445L416.07474968317854,156.8108445403031L464.65371757142856,335.66832L474.7134839935714,335.66832L482.9428512342857,329.66856Z" style="opacity: 0;"/><path data-target="point-1-24" d="M380.9149854350001,0L390.7156391495383,39.2544868586445L482.9428512342857,329.66856L493.20733665142853,329.66856L500.41400847999995,324.47375999999997L410.2508624200001,0Z" style="opacity: 0;"/><path data-target="point-1-25" d="M410.2508624200001,0L500.41400847999995,324.47375999999997L512.800161785,324.47375999999997L519.23775626,320.21495999999996L416.2085928800004,-7.105427357601002e-15Z" style="opacity: 0;"/><path data-target="point-1-26" d="M416.2085928800004,-7.105427357601002e-15L519.23775626,320.21495999999996L528.1912657028571,320.21496L537.2555739428572,314.12159999999994L446.9488887881305,43.97339654569106L426.5659471562725,0Z" style="opacity: 0;"/><path data-target="point-1-27" d="M446.9488887881305,43.97339654569106L537.2555739428572,314.12159999999994L548.3606760258759,314.12159999999994L554.5799058053634,310.3831225L534.2821362333265,232.00019989511236L483.42224933641836,115.96834337384522Z" style="opacity: 0;"/><path data-target="point-1-28" d="M534.2821362333265,232.00019989511236L554.5799058053634,310.3831225L562.0714496176531,310.3831225L576.3785611497941,300.1507705Z" style="opacity: 0;"/><path data-target="point-1-29" d="M483.42224933641836,115.96834337384522L534.2821362333265,232.00019989511236L576.3785611497941,300.1507705L579.3742504123118,300.1507705L595.0346561448416,289.501524Z" style="opacity: 0;"/><path data-target="point-1-30" d="M426.5659471562725,0L446.9488887881305,43.97339654569106L483.42224933641836,115.96834337384522L595.0346561448416,289.501524L596.6197622073986,289.501524L613.7595148914015,278.4184415L427.30569874706805,0Z" style="opacity: 0;"/><path data-target="point-1-31" d="M427.30569874706805,0L613.7595148914015,278.4184415L613.8030989731465,278.4184415L631.3681574522712,267.61670517112964L632.0843612664324,266.201863684144L446.4592615119633,0Z" style="opacity: 0;"/><path data-target="point-1-32" d="M446.4592615119633,0L632.0843612664324,266.201863684144L648.9061863988443,256.3629577283479L650.4404158046691,253.49886443934588L466.38285461319913,0Z" style="opacity: 0;"/><path data-target="point-1-33" d="M466.38285461319913,0L650.4404158046691,253.49886443934588L666.4016532345458,244.6187966953021L668.8445469750977,240.3081245610727L487.1721814391451,0Z" style="opacity: 0;"/><path data-target="point-1-34" d="M487.1721814391451,0L668.8445469750977,240.3081245610727L683.8505546795542,232.36597642494604L687.3017497328243,226.60803018621576L508.9203975360126,0Z" style="opacity: 0;"/><path data-target="point-1-35" d="M508.9203975360126,0L687.3017497328243,226.60803018621576L701.2480290307725,219.5855195837261L705.8167661798849,212.37668492278394L531.7471465559674,0Z" style="opacity: 0;"/><path data-target="point-1-36" d="M531.7471465559674,0L705.8167661798849,212.37668492278394L718.5896166817005,206.2569724177776L724.395686058063,197.59069052192964L555.7635210669888,0Z" style="opacity: 0;"/><path data-target="point-1-37" d="M555.7635210669888,0L724.395686058063,197.59069052192964L735.8697160330107,192.35944182485142L743.0442468245199,182.226841791424L581.1147397722526,-2.842170943040401e-14Z" style="opacity: 0;"/><path data-target="point-1-38" d="M581.1147397722526,-2.842170943040401e-14L743.0442468245199,182.226841791424L753.0823189533463,177.87144476596288L761.7695735867346,166.25967050377446L607.9342414680086,0Z" style="opacity: 0;"/><path data-target="point-1-39" d="M607.9342414680086,0L761.7695735867346,166.25967050377446L770.2212667079903,162.76947834861429L780.578866060776,149.6638902053499L636.3894003393433,0Z" style="opacity: 0;"/><path data-target="point-1-40" d="M636.3894003393433,0L780.578866060776,149.6638902053499L787.2793471439387,147.03011592730954L799.4802606290968,132.41282569890643L666.6517606271947,0Z" style="opacity: 0;"/><path data-target="point-1-41" d="M666.6517606271947,0L799.4802606290968,132.41282569890643L804.2488186227607,130.62853314519595L818.4827534871827,114.47846987887814L698.9091867719528,0Z" style="opacity: 0;"/><path data-target="point-1-42" d="M698.9091867719528,0L818.4827534871827,114.47846987887814L821.1214528351413,113.5384998654597L837.5962846022518,95.83205173360982L733.3704842119466,0Z" style="opacity: 0;"/><path data-target="point-1-43" d="M733.3704842119466,0L837.5962846022518,95.83205173360982L837.8875783887188,95.73325694175557L855.3369188492555,77.9653150735954L856.034343406585,75.74016201593219L770.2643496076944,0Z" style="opacity: 0;"/><path data-target="point-1-44" d="M770.2643496076944,0L856.034343406585,75.74016201593219L876.1993932784349,56.28246983251596L809.8356212688749,0Z" style="opacity: 0;"/><path data-target="point-1-45" d="M809.8356212688749,0L876.1993932784349,56.28246983251596L909.0521148568731,46.1796195L852.3551875182685,0Z" style="opacity: 0;"/><path data-target="point-1-46" d="M852.3551875182685,0L909.0521148568731,46.1796195L936,46.1796195L936,0Z" style="opacity: 0;"/></g><g class="series"><path data-target="point-0-0" d="M74.98061241785712,561.6L66.36050245,511.58952L0,511.58952L0,561.6Z" style="opacity: 0;"/><path data-target="point-0-1" d="M66.36050245,511.58952L74.98061241785712,561.6L82.88721647428567,561.6L85.02404981857143,507.77063999999996L67.64507821,507.77063999999996Z" style="opacity: 0;"/><path data-target="point-0-2" d="M116.09684191071442,561.6L101.53067034642855,506.91887999999994L85.56059017357144,506.91887999999994L85.02404981857143,507.77063999999996L82.88721647428567,561.6Z" style="opacity: 0;"/><path data-target="point-0-3" d="M101.53067034642855,506.91887999999994L116.09684191071442,561.6L136.7326026207142,561.6L119.57607136428571,502.73496L103.61549526857141,502.73496Z" style="opacity: 0;"/><path data-target="point-0-4" d="M119.57607136428571,502.73496L136.7326026207142,561.6L156.04315079642848,561.6L137.70412460857142,498.22344L121.41411294999999,498.22344Z" style="opacity: 0;"/><path data-target="point-0-5" d="M137.70412460857142,498.22344L156.04315079642848,561.6L177.25078903714302,561.6L155.58822031714283,492.93503999999996L139.44986322285715,492.93503999999996Z" style="opacity: 0;"/><path data-target="point-0-6" d="M155.58822031714283,492.93503999999996L177.25078903714302,561.6L195.714672562857,561.6L173.39327182857141,486.88847999999996L157.49580202285713,486.88847999999996Z" style="opacity: 0;"/><path data-target="point-0-7" d="M173.39327182857141,486.88847999999996L195.714672562857,561.6L227.29121985500007,561.6L191.0825632892857,480.80448L175.6812904,480.80448Z" style="opacity: 0;"/><path data-target="point-0-8" d="M191.0825632892857,480.80448L227.29121985500007,561.6L230.4711686571427,561.6L209.34943277142855,473.69088L193.2747588607143,473.69088Z" style="opacity: 0;"/><path data-target="point-0-9" d="M209.34943277142855,473.69088L230.4711686571427,561.6L276.51025200571445,561.6L226.96788365714283,468.24336L211.60295506285715,468.24336Z" style="opacity: 0;"/><path data-target="point-0-10" d="M226.96788365714283,468.24336L276.51025200571445,561.6L323.2531064000001,561.6L245.94623891428571,458.81784L229.33099617142855,458.81784Z" style="opacity: 0;"/><path data-target="point-0-11" d="M245.94623891428571,458.81784L323.2531064000001,561.6L354.3992395599999,561.6L348.1267943274648,550.7877694763454L308.16327508189636,491.932882487474L265.68169365,445.82615999999996L246.20410056285712,445.82615999999996Z" style="opacity: 0;"/><path data-target="point-0-12" d="M262.732056375,431.34623999999997L265.68169365,445.82615999999996L308.16327508189636,491.932882487474L281.7074684971428,431.34623999999997Z" style="opacity: 0;"/><path data-target="point-0-13" d="M281.7074684971428,431.34623999999997L308.16327508189636,491.932882487474L348.1267943274648,550.7877694763454L298.5087251942857,421.0128L282.26879572,421.0128Z" style="opacity: 0;"/><path data-target="point-0-14" d="M298.5087251942857,421.0128L348.1267943274648,550.7877694763454L354.3992395599999,561.6L398.1559565592862,561.6L315.32893137857144,411.71832L302.12062651142855,411.71832Z" style="opacity: 0;"/><path data-target="point-0-15" d="M315.32893137857144,411.71832L398.1559565592862,561.6L411.5339659149998,561.6L332.35528412499997,399.99024L321.0872092285714,399.99024Z" style="opacity: 0;"/><path data-target="point-0-16" d="M332.35528412499997,399.99024L411.5339659149998,561.6L445.1432485353572,561.6L387.3441449690103,444.00370583338605L349.09225141142855,389.67551999999995L340.16730308928567,389.67551999999995Z" style="opacity: 0;"/><path data-target="point-0-17" d="M349.09225141142855,389.67551999999995L387.3441449690103,444.00370583338605L368.41850282571426,376.15031999999997L358.7564898542857,376.15031999999997Z" style="opacity: 0;"/><path data-target="point-0-18" d="M368.41850282571426,376.15031999999997L387.3441449690103,444.00370583338605L445.1432485353572,561.6L458.9342520721425,561.6L385.0815006228571,370.01016L376.03866067714284,370.01016Z" style="opacity: 0;"/><path data-target="point-0-19" d="M385.0815006228571,370.01016L458.9342520721425,561.6L482.7059671249999,561.6L402.582881225,362.38176L394.70799653714283,362.38176Z" style="opacity: 0;"/><path data-target="point-0-20" d="M402.582881225,362.38176L482.7059671249999,561.6L506.83907177785767,561.6L419.4927210257142,353.08728L414.9041252342857,353.08727999999996Z" style="opacity: 0;"/><path data-target="point-0-21" d="M419.4927210257142,353.08728L506.83907177785767,561.6L509.8998773907141,561.6L438.3553553435714,345.55247999999995L431.11057532571425,345.55247999999995Z" style="opacity: 0;"/><path data-target="point-0-22" d="M438.3553553435714,345.55247999999995L509.8998773907141,561.6L531.7631796199996,561.6L456.6892618142857,341.15328L445.53826697928565,341.15328Z" style="opacity: 0;"/><path data-target="point-0-23" d="M456.6892618142857,341.15328L531.7631796199996,561.6L554.2515215892859,561.6L474.7134839935714,335.66832L464.65371757142856,335.66832Z" style="opacity: 0;"/><path data-target="point-0-24" d="M474.7134839935714,335.66832L554.2515215892859,561.6L556.2208562828571,561.6L534.7064170378874,467.1274368604791L493.20733665142853,329.66856L482.9428512342857,329.66856Z" style="opacity: 0;"/><path data-target="point-0-25" d="M493.20733665142853,329.66856L534.7064170378874,467.1274368604791L512.800161785,324.47375999999997L500.41400847999995,324.47375999999997Z" style="opacity: 0;"/><path data-target="point-0-26" d="M512.800161785,324.47375999999997L534.7064170378874,467.1274368604791L556.2208562828571,561.6L599.5946106145454,561.6L567.1667384955975,432.93355304327474L528.1912657028571,320.21496L519.23775626,320.21495999999996Z" style="opacity: 0;"/><path data-target="point-0-27" d="M528.1912657028571,320.21496L567.1667384955975,432.93355304327474L548.3606760258759,314.12159999999994L537.2555739428572,314.12159999999994Z" style="opacity: 0;"/><path data-target="point-0-28" d="M548.3606760258759,314.12159999999994L567.1667384955975,432.93355304327474L599.5946106145454,561.6L693.7860285963865,561.6L562.0714496176531,310.3831225L554.5799058053634,310.3831225Z" style="opacity: 0;"/><path data-target="point-0-29" d="M562.0714496176531,310.3831225L693.7860285963865,561.6L721.9571050594158,561.6L579.3742504123118,300.1507705L576.3785611497941,300.1507705Z" style="opacity: 0;"/><path data-target="point-0-30" d="M579.3742504123118,300.1507705L721.9571050594158,561.6L750.9708872927479,561.6L596.6197622073986,289.501524L595.0346561448416,289.501524Z" style="opacity: 0;"/><path data-target="point-0-31" d="M596.6197622073986,289.501524L750.9708872927479,561.6L780.8901740898123,561.6L613.8030989731465,278.4184415L613.7595148914015,278.4184415Z" style="opacity: 0;"/><path data-target="point-0-32" d="M613.8030989731465,278.4184415L780.8901740898123,561.6L811.7907747319471,561.6L631.3681574522712,267.61670517112964Z" style="opacity: 0;"/><path data-target="point-0-33" d="M631.3681574522712,267.61670517112964L811.7907747319471,561.6L843.7606057602284,561.6L648.9061863988443,256.3629577283479L632.0843612664324,266.201863684144Z" style="opacity: 0;"/><path data-target="point-0-34" d="M648.9061863988443,256.3629577283479L843.7606057602284,561.6L876.8791710500682,561.6L666.4016532345458,244.6187966953021L650.4404158046691,253.49886443934588Z" style="opacity: 0;"/><path data-target="point-0-35" d="M666.4016532345458,244.6187966953021L876.8791710500682,561.6L911.2377416980604,561.6L683.8505546795542,232.36597642494604L668.8445469750977,240.3081245610727Z" style="opacity: 0;"/><path data-target="point-0-36" d="M683.8505546795542,232.36597642494604L911.2377416980604,561.6L936,561.6L936,546.3556743862873L701.2480290307725,219.5855195837261L687.3017497328243,226.60803018621576Z" style="opacity: 0;"/><path data-target="point-0-37" d="M701.2480290307725,219.5855195837261L936,546.3556743862873L936,497.20683248486677L718.5896166817005,206.2569724177776L705.8167661798849,212.37668492278394Z" style="opacity: 0;"/><path data-target="point-0-38" d="M718.5896166817005,206.2569724177776L936,497.20683248486677L936,449.849427949148L735.8697160330107,192.35944182485142L724.395686058063,197.59069052192964Z" style="opacity: 0;"/><path data-target="point-0-39" d="M735.8697160330107,192.35944182485142L936,449.849427949148L936,404.12603321601443L753.0823189533463,177.87144476596288L743.0442468245199,182.226841791424Z" style="opacity: 0;"/><path data-target="point-0-40" d="M753.0823189533463,177.87144476596288L936,404.12603321601443L936,359.90998845794763L770.2212667079903,162.76947834861429L761.7695735867346,166.25967050377446Z" style="opacity: 0;"/><path data-target="point-0-41" d="M770.2212667079903,162.76947834861429L936,359.90998845794763L936,317.0588623750268L787.2793471439387,147.03011592730954L780.578866060776,149.6638902053499Z" style="opacity: 0;"/><path data-target="point-0-42" d="M787.2793471439387,147.03011592730954L936,317.0588623750268L936,275.4401639904876L804.2488186227607,130.62853314519595L799.4802606290968,132.41282569890643Z" style="opacity: 0;"/><path data-target="point-0-43" d="M804.2488186227607,130.62853314519595L936,275.4401639904876L936,234.93205343762503L821.1214528351413,113.5384998654597L818.4827534871827,114.47846987887814Z" style="opacity: 0;"/><path data-target="point-0-44" d="M821.1214528351413,113.5384998654597L936,234.93205343762503L936,195.40700778882209L837.8875783887188,95.73325694175557L837.5962846022518,95.83205173360982Z" style="opacity: 0;"/><path data-target="point-0-45" d="M837.8875783887188,95.73325694175557L936,195.40700778882209L936,156.74905237655184L855.3369188492555,77.9653150735954Z" style="opacity: 0;"/><path data-target="point-0-46" d="M855.3369188492555,77.9653150735954L936,156.74905237655184L936,46.1796195L909.0521148568731,46.1796195L876.1993932784349,56.28246983251596L856.034343406585,75.74016201593219Z" style="opacity: 0;"/><path data-target="point-1-0" d="M0,511.58952L66.36050245,511.58952L67.64507821,507.77063999999996L0,241.29219184411164Z" style="opacity: 0;"/><path data-target="point-1-1" d="M0,241.29219184411164L67.64507821,507.77063999999996L85.02404981857143,507.77063999999996L85.56059017357144,506.91887999999994L46.872712269928634,219.82934675890004L28.45299295924464,109.96921081638038L17.627355306023503,65.14653103490696L10.109522989087822,36.73906748913117L0,12.140485598553138Z" style="opacity: 0;"/><path data-target="point-1-2" d="M46.872712269928634,219.82934675890004L85.56059017357144,506.91887999999994L101.53067034642855,506.91887999999994L103.61549526857141,502.73496Z" style="opacity: 0;"/><path data-target="point-1-3" d="M28.45299295924464,109.96921081638038L46.872712269928634,219.82934675890004L103.61549526857141,502.73496L119.57607136428571,502.73496L121.41411294999999,498.22344L74.54068886776518,277.187546891908L55.604576052356094,203.3509797839368Z" style="opacity: 0;"/><path data-target="point-1-4" d="M74.54068886776518,277.187546891908L121.41411294999999,498.22344L137.70412460857142,498.22344L139.44986322285715,492.93503999999996Z" style="opacity: 0;"/><path data-target="point-1-5" d="M55.604576052356094,203.3509797839368L74.54068886776518,277.187546891908L139.44986322285715,492.93503999999996L155.58822031714283,492.93503999999996L157.49580202285713,486.88847999999996Z" style="opacity: 0;"/><path data-target="point-1-6" d="M17.627355306023503,65.14653103490696L28.45299295924464,109.96921081638038L55.604576052356094,203.3509797839368L157.49580202285713,486.88847999999996L173.39327182857141,486.88847999999996L175.6812904,480.80448Z" style="opacity: 0;"/><path data-target="point-1-7" d="M10.109522989087822,36.73906748913117L17.627355306023503,65.14653103490696L175.6812904,480.80448L191.0825632892857,480.80448L193.2747588607143,473.69088L107.36926201948631,225.2488202944323L79.52906172067946,167.62622970138324L21.377360744095228,56.957073537895155Z" style="opacity: 0;"/><path data-target="point-1-8" d="M107.36926201948631,225.2488202944323L193.2747588607143,473.69088L209.34943277142855,473.69088L211.60295506285715,468.24336L157.38694316485973,320.8027682028036L154.62662284449564,314.5927613555394Z" style="opacity: 0;"/><path data-target="point-1-9" d="M157.38694316485973,320.8027682028036L211.60295506285715,468.24336L226.96788365714283,468.24336L229.33099617142855,458.81784Z" style="opacity: 0;"/><path data-target="point-1-10" d="M154.62662284449564,314.5927613555394L157.38694316485973,320.8027682028036L229.33099617142855,458.81784L245.94623891428571,458.81784L246.20410056285712,445.82615999999996Z" style="opacity: 0;"/><path data-target="point-1-11" d="M79.52906172067946,167.62622970138324L107.36926201948631,225.2488202944323L154.62662284449564,314.5927613555394L246.20410056285712,445.82615999999996L265.68169365,445.82615999999996L262.732056375,431.34623999999997Z" style="opacity: 0;"/><path data-target="point-1-12" d="M21.377360744095228,56.957073537895155L79.52906172067946,167.62622970138324L262.732056375,431.34623999999997L281.7074684971428,431.34623999999997L282.26879572,421.0128Z" style="opacity: 0;"/><path data-target="point-1-13" d="M0,12.140485598553138L10.109522989087822,36.73906748913117L21.377360744095228,56.957073537895155L282.26879572,421.0128L298.5087251942857,421.0128L302.12062651142855,411.71832L122.1859703507294,137.00517655477398L25.507411232499507,0L0,0Z" style="opacity: 0;"/><path data-target="point-1-14" d="M122.1859703507294,137.00517655477398L302.12062651142855,411.71832L315.32893137857144,411.71832L321.0872092285714,399.99024Z" style="opacity: 0;"/><path data-target="point-1-15" d="M25.507411232499507,0L122.1859703507294,137.00517655477398L321.0872092285714,399.99024L332.35528412499997,399.99024L340.16730308928567,389.67551999999995L204.93167618888063,185.16315569428744L69.14425985142904,0Z" style="opacity: 0;"/><path data-target="point-1-16" d="M204.93167618888063,185.16315569428744L340.16730308928567,389.67551999999995L349.09225141142855,389.67551999999995L358.7564898542857,376.15031999999997Z" style="opacity: 0;"/><path data-target="point-1-17" d="M69.14425985142904,0L204.93167618888063,185.16315569428744L358.7564898542857,376.15031999999997L368.41850282571426,376.15031999999997L376.03866067714284,370.01016L274.78957145610116,120.8528204979537L214.06426628499983,1.4210854715202004e-14Z" style="opacity: 0;"/><path data-target="point-1-18" d="M274.78957145610116,120.8528204979537L376.03866067714284,370.01016L385.0815006228571,370.01016L394.70799653714283,362.38176L322.8539516551664,208.15898151735567Z" style="opacity: 0;"/><path data-target="point-1-19" d="M322.8539516551664,208.15898151735567L394.70799653714283,362.38176L402.582881225,362.38176L414.9041252342857,353.08727999999996Z" style="opacity: 0;"/><path data-target="point-1-20" d="M214.06426628499983,1.4210854715202004e-14L274.78957145610116,120.8528204979537L322.8539516551664,208.15898151735567L414.9041252342857,353.08727999999996L419.4927210257142,353.08728L431.11057532571425,345.55247999999995L285.2750876057138,0Z" style="opacity: 0;"/><path data-target="point-1-21" d="M285.2750876057138,0L431.11057532571425,345.55247999999995L438.3553553435714,345.55247999999995L445.53826697928565,341.15328L416.07474968317854,156.8108445403031L390.7156391495383,39.2544868586445L380.9149854350001,0Z" style="opacity: 0;"/><path data-target="point-1-22" d="M416.07474968317854,156.8108445403031L445.53826697928565,341.15328L456.6892618142857,341.15328L464.65371757142856,335.66832Z" style="opacity: 0;"/><path data-target="point-1-23" d="M390.7156391495383,39.2544868586445L416.07474968317854,156.8108445403031L464.65371757142856,335.66832L474.7134839935714,335.66832L482.9428512342857,329.66856Z" style="opacity: 0;"/><path data-target="point-1-24" d="M380.9149854350001,0L390.7156391495383,39.2544868586445L482.9428512342857,329.66856L493.20733665142853,329.66856L500.41400847999995,324.47375999999997L410.2508624200001,0Z" style="opacity: 0;"/><path data-target="point-1-25" d="M410.2508624200001,0L500.41400847999995,324.47375999999997L512.800161785,324.47375999999997L519.23775626,320.21495999999996L416.2085928800004,-7.105427357601002e-15Z" style="opacity: 0;"/><path data-target="point-1-26" d="M416.2085928800004,-7.105427357601002e-15L519.23775626,320.21495999999996L528.1912657028571,320.21496L537.2555739428572,314.12159999999994L446.9488887881305,43.97339654569106L426.5659471562725,0Z" style="opacity: 0;"/><path data-target="point-1-27" d="M446.9488887881305,43.97339654569106L537.2555739428572,314.12159999999994L548.3606760258759,314.12159999999994L554.5799058053634,310.3831225L534.2821362333265,232.00019989511236L483.42224933641836,115.96834337384522Z" style="opacity: 0;"/><path data-target="point-1-28" d="M534.2821362333265,232.00019989511236L554.5799058053634,310.3831225L562.0714496176531,310.3831225L576.3785611497941,300.1507705Z" style="opacity: 0;"/><path data-target="point-1-29" d="M483.42224933641836,115.96834337384522L534.2821362333265,232.00019989511236L576.3785611497941,300.1507705L579.3742504123118,300.1507705L595.0346561448416,289.501524Z" style="opacity: 0;"/><path data-target="point-1-30" d="M426.5659471562725,0L446.9488887881305,43.97339654569106L483.42224933641836,115.96834337384522L595.0346561448416,289.501524L596.6197622073986,289.501524L613.7595148914015,278.4184415L427.30569874706805,0Z" style="opacity: 0;"/><path data-target="point-1-31" d="M427.30569874706805,0L613.7595148914015,278.4184415L613.8030989731465,278.4184415L631.3681574522712,267.61670517112964L632.0843612664324,266.201863684144L446.4592615119633,0Z" style="opacity: 0;"/><path data-target="point-1-32" d="M446.4592615119633,0L632.0843612664324,266.201863684144L648.9061863988443,256.3629577283479L650.4404158046691,253.49886443934588L466.38285461319913,0Z" style="opacity: 0;"/><path data-target="point-1-33" d="M466.38285461319913,0L650.4404158046691,253.49886443934588L666.4016532345458,244.6187966953021L668.8445469750977,240.3081245610727L487.1721814391451,0Z" style="opacity: 0;"/><path data-target="point-1-34" d="M487.1721814391451,0L668.8445469750977,240.3081245610727L683.8505546795542,232.36597642494604L687.3017497328243,226.60803018621576L508.9203975360126,0Z" style="opacity: 0;"/><path data-target="point-1-35" d="M508.9203975360126,0L687.3017497328243,226.60803018621576L701.2480290307725,219.5855195837261L705.8167661798849,212.37668492278394L531.7471465559674,0Z" style="opacity: 0;"/><path data-target="point-1-36" d="M531.7471465559674,0L705.8167661798849,212.37668492278394L718.5896166817005,206.2569724177776L724.395686058063,197.59069052192964L555.7635210669888,0Z" style="opacity: 0;"/><path data-target="point-1-37" d="M555.7635210669888,0L724.395686058063,197.59069052192964L735.8697160330107,192.35944182485142L743.0442468245199,182.226841791424L581.1147397722526,-2.842170943040401e-14Z" style="opacity: 0;"/><path data-target="point-1-38" d="M581.1147397722526,-2.842170943040401e-14L743.0442468245199,182.226841791424L753.0823189533463,177.87144476596288L761.7695735867346,166.25967050377446L607.9342414680086,0Z" style="opacity: 0;"/><path data-target="point-1-39" d="M607.9342414680086,0L761.7695735867346,166.25967050377446L770.2212667079903,162.76947834861429L780.578866060776,149.6638902053499L636.3894003393433,0Z" style="opacity: 0;"/><path data-target="point-1-40" d="M636.3894003393433,0L780.578866060776,149.6638902053499L787.2793471439387,147.03011592730954L799.4802606290968,132.41282569890643L666.6517606271947,0Z" style="opacity: 0;"/><path data-target="point-1-41" d="M666.6517606271947,0L799.4802606290968,132.41282569890643L804.2488186227607,130.62853314519595L818.4827534871827,114.47846987887814L698.9091867719528,0Z" style="opacity: 0;"/><path data-target="point-1-42" d="M698.9091867719528,0L818.4827534871827,114.47846987887814L821.1214528351413,113.5384998654597L837.5962846022518,95.83205173360982L733.3704842119466,0Z" style="opacity: 0;"/><path data-target="point-1-43" d="M733.3704842119466,0L837.5962846022518,95.83205173360982L837.8875783887188,95.73325694175557L855.3369188492555,77.9653150735954L856.034343406585,75.74016201593219L770.2643496076944,0Z" style="opacity: 0;"/><path data-target="point-1-44" d="M770.2643496076944,0L856.034343406585,75.74016201593219L876.1993932784349,56.28246983251596L809.8356212688749,0Z" style="opacity: 0;"/><path data-target="point-1-45" d="M809.8356212688749,0L876.1993932784349,56.28246983251596L909.0521148568731,46.1796195L852.3551875182685,0Z" style="opacity: 0;"/><path data-target="point-1-46" d="M852.3551875182685,0L909.0521148568731,46.1796195L936,46.1796195L936,0Z" style="opacity: 0;"/></g></g><g class="axes"><g class="y axis" fill="none" font-size="10" font-family="sans-serif" text-anchor="end" style="font-family: &quot;Source Sans Pro&quot;;"><path class="domain" stroke="#eeeeee" d="M0.5,562.1V0.5" stroke-dasharray="0" style="visibility: hidden;"/><g class="tick" opacity="1" transform="translate(0,562.1)" style="visibility: visible;"><line stroke="#eeeeee" x2="936" stroke-dasharray="0"/><text fill="rgb(0, 0, 0)" x="3" dy="-0.33em" opacity="1" text-anchor="start" font-size="18">$0</text></g><g class="tick" opacity="1" transform="translate(0, 524.6599731445312)" style="visibility: visible;"><line stroke="#eeeeee" x2="936" stroke-dasharray="0"/><text fill="rgb(0, 0, 0)" x="3" dy="-0.33em" opacity="1" text-anchor="start" font-size="18">$2000</text></g><g class="tick" opacity="1" transform="translate(0, 487.2200012207031)" style="visibility: visible;"><line stroke="#eeeeee" x2="936" stroke-dasharray="0"/><text fill="rgb(0, 0, 0)" x="3" dy="-0.33em" opacity="1" text-anchor="start" font-size="18">$4000</text></g><g class="tick" opacity="1" transform="translate(0, 449.7799987792969)" style="visibility: visible;"><line stroke="#eeeeee" x2="936" stroke-dasharray="0"/><text fill="rgb(0, 0, 0)" x="3" dy="-0.33em" opacity="1" text-anchor="start" font-size="18">$6000</text></g><g class="tick" opacity="1" transform="translate(0, 412.3399963378906)" style="visibility: visible;"><line stroke="#eeeeee" x2="936" stroke-dasharray="0"/><text fill="rgb(0, 0, 0)" x="3" dy="-0.33em" opacity="1" text-anchor="start" font-size="18">$8000</text></g><g class="tick" opacity="1" transform="translate(0, 374.8999938964844)" style="visibility: visible;"><line stroke="#eeeeee" x2="936" stroke-dasharray="0"/><text fill="rgb(0, 0, 0)" x="3" dy="-0.33em" opacity="1" text-anchor="start" font-size="18">$10,000</text></g><g class="tick" opacity="1" transform="translate(0, 337.4599914550781)" style="visibility: visible;"><line stroke="#eeeeee" x2="936" stroke-dasharray="0"/><text fill="rgb(0, 0, 0)" x="3" dy="-0.33em" opacity="1" text-anchor="start" font-size="18">$12,000</text></g><g class="tick" opacity="1" transform="translate(0, 300.0199890136719)" style="visibility: visible;"><line stroke="#eeeeee" x2="936" stroke-dasharray="0"/><text fill="rgb(0, 0, 0)" x="3" dy="-0.33em" opacity="1" text-anchor="start" font-size="18">$14,000</text></g><g class="tick" opacity="1" transform="translate(0, 262.5799865722656)" style="visibility: visible;"><line stroke="#eeeeee" x2="936" stroke-dasharray="0"/><text fill="rgb(0, 0, 0)" x="3" dy="-0.33em" opacity="1" text-anchor="start" font-size="18">$16,000</text></g><g class="tick" opacity="1" transform="translate(0, 225.13999938964844)" style="visibility: visible;"><line stroke="#eeeeee" x2="936" stroke-dasharray="0"/><text fill="rgb(0, 0, 0)" x="3" dy="-0.33em" opacity="1" text-anchor="start" font-size="18">$18,000</text></g><g class="tick" opacity="1" transform="translate(0, 187.6999969482422)" style="visibility: visible;"><line stroke="#eeeeee" x2="936" stroke-dasharray="0"/><text fill="rgb(0, 0, 0)" x="3" dy="-0.33em" opacity="1" text-anchor="start" font-size="18">$20,000</text></g><g class="tick" opacity="1" transform="translate(0, 150.25999450683594)" style="visibility: visible;"><line stroke="#eeeeee" x2="936" stroke-dasharray="0"/><text fill="rgb(0, 0, 0)" x="3" dy="-0.33em" opacity="1" text-anchor="start" font-size="18">$22,000</text></g><g class="tick" opacity="1" transform="translate(0, 112.81999969482422)" style="visibility: visible;"><line stroke="#eeeeee" x2="936" stroke-dasharray="0"/><text fill="rgb(0, 0, 0)" x="3" dy="-0.33em" opacity="1" text-anchor="start" font-size="18">$24,000</text></g><g class="tick" opacity="1" transform="translate(0, 75.37999725341797)" style="visibility: visible;"><line stroke="#eeeeee" x2="936" stroke-dasharray="0"/><text fill="rgb(0, 0, 0)" x="3" dy="-0.33em" opacity="1" text-anchor="start" font-size="18">$26,000</text></g><g class="tick" opacity="1" transform="translate(0, 37.939998626708984)" style="visibility: visible;"><line stroke="#eeeeee" x2="936" stroke-dasharray="0"/><text fill="rgb(0, 0, 0)" x="3" dy="-0.33em" opacity="1" text-anchor="start" font-size="18">$28,000</text></g><g class="tick" opacity="1" transform="translate(0, 0.5)" style="visibility: visible;"><line stroke="#eeeeee" x2="936" stroke-dasharray="0"/><text fill="rgb(0, 0, 0)" x="3" dy="-0.33em" opacity="1" text-anchor="start" font-size="18">$30,000</text></g></g><g class="x axis" transform="translate(0,561.6)" fill="none" font-size="10" font-family="sans-serif" text-anchor="middle" style="font-family: &quot;Source Sans Pro&quot;;"><path class="domain" stroke="#eeeeee" d="M40.5,0.5H936.5" stroke-dasharray="0"/><g class="tick" opacity="1" transform="translate(40.5,0)"><line stroke="#eeeeee" y2="6" stroke-dasharray="0"/><text fill="rgb(0, 0, 0)" y="9" dy="-9" opacity="1" dominant-baseline="central" font-size="18" transform="translate(0, 15) rotate(-45)" dx="5" style="text-anchor: end; visibility: visible;">1990</text></g><g class="tick" opacity="1" transform="translate(130.10000000000002,0)"><line stroke="#eeeeee" y2="6" stroke-dasharray="0"/><text fill="rgb(0, 0, 0)" y="9" dy="-9" opacity="1" dominant-baseline="central" font-size="18" transform="translate(0, 15) rotate(-45)" dx="5" style="text-anchor: end; visibility: visible;">1995</text></g><g class="tick" opacity="1" transform="translate(219.70000000000002,0)"><line stroke="#eeeeee" y2="6" stroke-dasharray="0"/><text fill="rgb(0, 0, 0)" y="9" dy="-9" opacity="1" dominant-baseline="central" font-size="18" transform="translate(0, 15) rotate(-45)" dx="5" style="text-anchor: end; visibility: visible;">2000</text></g><g class="tick" opacity="1" transform="translate(309.3,0)"><line stroke="#eeeeee" y2="6" stroke-dasharray="0"/><text fill="rgb(0, 0, 0)" y="9" dy="-9" opacity="1" dominant-baseline="central" font-size="18" transform="translate(0, 15) rotate(-45)" dx="5" style="text-anchor: end; visibility: visible;">2005</text></g><g class="tick" opacity="1" transform="translate(398.90000000000003,0)"><line stroke="#eeeeee" y2="6" stroke-dasharray="0"/><text fill="rgb(0, 0, 0)" y="9" dy="-9" opacity="1" dominant-baseline="central" font-size="18" transform="translate(0, 15) rotate(-45)" dx="5" style="text-anchor: end; visibility: visible;">2010</text></g><g class="tick" opacity="1" transform="translate(488.5,0)"><line stroke="#eeeeee" y2="6" stroke-dasharray="0"/><text fill="rgb(0, 0, 0)" y="9" dy="-9" opacity="1" dominant-baseline="central" font-size="18" transform="translate(0, 15) rotate(-45)" dx="5" style="text-anchor: end; visibility: visible;">2015</text></g><g class="tick" opacity="1" transform="translate(578.1,0)"><line stroke="#eeeeee" y2="6" stroke-dasharray="0"/><text fill="rgb(0, 0, 0)" y="9" dy="-9" opacity="1" dominant-baseline="central" font-size="18" transform="translate(0, 15) rotate(-45)" dx="5" style="text-anchor: end; visibility: visible;">2020</text></g><g class="tick" opacity="1" transform="translate(667.6999999999999,0)"><line stroke="#eeeeee" y2="6" stroke-dasharray="0"/><text fill="rgb(0, 0, 0)" y="9" dy="-9" opacity="1" dominant-baseline="central" font-size="18" transform="translate(0, 15) rotate(-45)" dx="5" style="text-anchor: end; visibility: visible;">2025</text></g><g class="tick" opacity="1" transform="translate(757.3000000000001,0)"><line stroke="#eeeeee" y2="6" stroke-dasharray="0"/><text fill="rgb(0, 0, 0)" y="9" dy="-9" opacity="1" dominant-baseline="central" font-size="18" transform="translate(0, 15) rotate(-45)" dx="5" style="text-anchor: end; visibility: visible;">2030</text></g><g class="tick" opacity="1" transform="translate(846.9,0)"><line stroke="#eeeeee" y2="6" stroke-dasharray="0"/><text fill="rgb(0, 0, 0)" y="9" dy="-9" opacity="1" dominant-baseline="central" font-size="18" transform="translate(0, 15) rotate(-45)" dx="5" style="text-anchor: end; visibility: visible;">2035</text></g><g class="tick" opacity="1" transform="translate(936.5,0)"><line stroke="#eeeeee" y2="6" stroke-dasharray="0"/><text fill="rgb(0, 0, 0)" y="9" dy="-9" opacity="1" dominant-baseline="central" font-size="18" transform="translate(0, 15) rotate(-45)" dx="5" style="text-anchor: end; visibility: visible;">2040</text></g></g></g></g></g></g><g class="annotations below"><g class="axis-highlights" transform="translate(15, 20)" style="opacity: 1;"><g class="line x" transform="translate(559.68, 0)"><line width="0" stroke-dasharray="2 2" stroke="#333333" stroke-width="2" y2="561.6"/><text transform="translate(0, 6) rotate(-90)" fill="#333333" text-anchor="end" dy="-0.5em" font-size="12">Current</text></g></g></g><g id="areas"><g class="series" pointer-events="none"><path class="area" transform="translate(15,20)" fill-opacity="0" fill="#11A579" clip-path="url(#clip-0-0)" d="M57.92,516.14784C63.89333333333334,514.60344,69.86666666666667,513.05904,75.84,513.05904C81.81333333333333,513.05904,87.78666666666666,513.7704,93.75999999999999,513.7704C99.73333333333333,513.7704,105.70666666666666,510.66288,111.68,508.9968C117.65333333333335,507.33072000000004,123.62666666666668,505.50864,129.60000000000002,503.77392000000003C135.57333333333335,502.03920000000005,141.54666666666665,500.39496,147.51999999999998,498.58848C153.4933333333333,496.782,159.46666666666667,494.7696,165.44,492.93504C171.41333333333333,491.10048,177.38666666666668,489.81192,183.36,487.58112C189.33333333333334,485.35032,195.30666666666667,481.60632000000004,201.28,479.55024000000003C207.25333333333333,477.49416,213.2266666666667,477.54720000000003,219.20000000000002,475.24464C225.17333333333335,472.94208000000003,231.14666666666668,469.56624000000005,237.12,465.73488000000003C243.09333333333333,461.90352,249.06666666666666,457.25472,255.04,452.25648C261.0133333333333,447.25824,266.9866666666667,439.80144,272.96000000000004,435.74544000000003C278.93333333333334,431.68944000000005,284.9066666666667,430.36656,290.88,427.92048C296.85333333333335,425.4744,302.82666666666665,423.86136000000005,308.8,421.06896000000006C314.77333333333337,418.2765600000001,320.74666666666667,414.27984000000004,326.72,411.16608C332.6933333333334,408.05232,338.6666666666667,405.95256000000006,344.64000000000004,402.38640000000004C350.61333333333334,398.82024000000007,356.5866666666667,392.70504000000005,362.56,389.76912000000004C368.53333333333336,386.83320000000003,374.50666666666666,386.75520000000006,380.48,384.77088000000003C386.4533333333334,382.78656,392.4266666666667,380.21568,398.40000000000003,377.8632C404.37333333333333,375.51072,410.3466666666667,373.10832,416.32,370.656C422.29333333333335,368.20368,428.26666666666665,365.38944,434.24,363.14928C440.21333333333337,360.90912,446.18666666666667,359.22120000000007,452.16,357.21504000000004C458.1333333333333,355.2088800000001,464.1066666666667,353.18088,470.08,351.11232C476.05333333333334,349.04376,482.02666666666664,346.7568,488,344.80368C493.97333333333336,342.85056,499.94666666666666,340.75392,505.92,339.3936C511.8933333333334,338.03328,517.8666666666667,338.13311999999996,523.84,336.64176C529.8133333333334,335.1504,535.7866666666666,331.95090239999996,541.76,330.44543999999996C547.7333333333333,328.93997759999996,553.7066666666666,329.4999552,559.68,327.6089856C565.6533333333333,325.718016,571.6266666666667,321.40814159999996,577.6,318.21341759999996C583.5733333333334,315.0186936,589.5466666666666,311.76366,595.52,308.44064160000005C601.4933333333333,305.1176232,607.4666666666667,301.73176800000005,613.44,298.27530720000004C619.4133333333334,294.81884640000004,625.3866666666667,291.29708400000004,631.36,287.70187680000004C637.3333333333334,284.10666960000003,643.3066666666667,280.4436336000001,649.2800000000001,276.7040640000001C655.2533333333333,272.9644944000001,661.2266666666667,269.1542256,667.1999999999999,265.26445920000003C673.1733333333333,261.3746928,679.1466666666666,257.411388,685.12,253.3654656C691.0933333333334,249.3195432,697.0666666666666,245.1973056,703.04,240.9889248C709.0133333333333,236.780544,714.9866666666667,232.49257200000002,720.96,228.11518080000002C726.9333333333334,223.73778960000004,732.9066666666666,219.2776872,738.88,214.72457760000003C744.8533333333334,210.171468,750.8266666666667,205.53246480000004,756.8000000000001,200.79652320000002C762.7733333333333,196.06058160000006,768.7466666666667,191.23506480000003,774.7199999999999,186.30892800000004C780.6933333333333,181.38279119999999,786.6666666666666,176.36361599999998,792.64,171.23970239999994C798.6133333333333,166.11578879999996,804.5866666666666,160.89512399999995,810.56,155.56544639999998C816.5333333333333,150.2357688,822.5066666666667,144.80531520000005,828.48,139.26163680000002C834.4533333333334,133.71795840000004,840.4266666666666,128.06963519999994,846.4,122.30337599999996C852.3733333333333,116.53711679999994,858.3466666666667,110.66187599999999,864.32,104.66408159999997C870.2933333333334,98.6662872,876.2666666666667,92.4914484,882.24,86.31660959999999L882.24,86.31660959999999C876.2666666666667,92.4914484,870.2933333333334,98.6662872,864.32,104.66408159999997C858.3466666666667,110.66187599999999,852.3733333333333,116.53711679999994,846.4,122.30337599999996C840.4266666666666,128.06963519999994,834.4533333333334,133.71795840000004,828.48,139.26163680000002C822.5066666666667,144.80531520000005,816.5333333333333,150.2357688,810.56,155.56544639999998C804.5866666666666,160.89512399999995,798.6133333333333,166.11578879999996,792.64,171.23970239999994C786.6666666666666,176.36361599999998,780.6933333333333,181.38279119999999,774.7199999999999,186.30892800000004C768.7466666666667,191.23506480000003,762.7733333333333,196.06058160000006,756.8000000000001,200.79652320000002C750.8266666666667,205.53246480000004,744.8533333333334,210.171468,738.88,214.72457760000003C732.9066666666666,219.2776872,726.9333333333334,223.73778960000004,720.96,228.11518080000002C714.9866666666667,232.49257200000002,709.0133333333333,236.780544,703.04,240.9889248C697.0666666666666,245.1973056,691.0933333333334,249.3195432,685.12,253.3654656C679.1466666666666,257.411388,673.1733333333333,261.3746928,667.1999999999999,265.26445920000003C661.2266666666667,269.1542256,655.2533333333333,272.9644944000001,649.2800000000001,276.7040640000001C643.3066666666667,280.4436336000001,637.3333333333334,284.10666960000003,631.36,287.70187680000004C625.3866666666667,291.29708400000004,619.4133333333334,294.81884640000004,613.44,298.27530720000004C607.4666666666667,301.73176800000005,601.4933333333333,305.1176232,595.52,308.44064160000005C589.5466666666666,311.76366,583.5733333333334,315.0186936,577.6,318.21341759999996C571.6266666666667,321.40814159999996,565.6533333333333,325.718016,559.68,327.6089856C553.7066666666666,329.4999552,547.7333333333333,328.93997759999996,541.76,330.44543999999996C535.7866666666666,331.95090239999996,529.8133333333334,335.1504,523.84,336.64176C517.8666666666667,338.13311999999996,511.8933333333334,338.03328,505.92,339.3936C499.94666666666666,340.75392,493.97333333333336,342.85056,488,344.80368C482.02666666666664,346.7568,476.05333333333334,349.04376,470.08,351.11232C464.1066666666667,353.18088,458.1333333333333,355.2088800000001,452.16,357.21504000000004C446.18666666666667,359.22120000000007,440.21333333333337,360.90912,434.24,363.14928C428.26666666666665,365.38944,422.29333333333335,368.20368,416.32,370.656C410.3466666666667,373.10832,404.37333333333333,375.51072,398.40000000000003,377.8632C392.4266666666667,380.21568,386.4533333333334,382.78656,380.48,384.77088000000003C374.50666666666666,386.75520000000006,368.53333333333336,386.83320000000003,362.56,389.76912000000004C356.5866666666667,392.70504000000005,350.61333333333334,398.82024000000007,344.64000000000004,402.38640000000004C338.6666666666667,405.95256000000006,332.6933333333334,408.05232,326.72,411.16608C320.74666666666667,414.27984000000004,314.77333333333337,418.2765600000001,308.8,421.06896000000006C302.82666666666665,423.86136000000005,296.85333333333335,425.4744,290.88,427.92048C284.9066666666667,430.36656,278.93333333333334,431.68944000000005,272.96000000000004,435.74544000000003C266.9866666666667,439.80144,261.0133333333333,447.25824,255.04,452.25648C249.06666666666666,457.25472,243.09333333333333,461.90352,237.12,465.73488000000003C231.14666666666668,469.56624000000005,225.17333333333335,472.94208000000003,219.20000000000002,475.24464C213.2266666666667,477.54720000000003,207.25333333333333,477.49416,201.28,479.55024000000003C195.30666666666667,481.60632000000004,189.33333333333334,485.35032,183.36,487.58112C177.38666666666668,489.81192,171.41333333333333,491.10048,165.44,492.93504C159.46666666666667,494.7696,153.4933333333333,496.782,147.51999999999998,498.58848C141.54666666666665,500.39496,135.57333333333335,502.03920000000005,129.60000000000002,503.77392000000003C123.62666666666668,505.50864,117.65333333333335,507.33072000000004,111.68,508.9968C105.70666666666666,510.66288,99.73333333333333,513.7704,93.75999999999999,513.7704C87.78666666666666,513.7704,81.81333333333333,513.05904,75.84,513.05904C69.86666666666667,513.05904,63.89333333333334,514.60344,57.92,516.14784Z"/></g><g class="series" pointer-events="none"><path class="area" transform="translate(15,20)" fill-opacity="0" fill="#802392" clip-path="url(#clip-0-1)" d="M57.92,507.0312C63.89333333333334,505.33704000000006,69.86666666666667,503.64288000000005,75.84,502.48224000000005C81.81333333333333,501.32160000000005,87.78666666666666,501.06888000000004,93.75999999999999,500.06736C99.73333333333333,499.06584,105.70666666666666,497.70552,111.68,496.47312C117.65333333333335,495.24072,123.62666666666668,494.20488,129.60000000000002,492.67296C135.57333333333335,491.14104,141.54666666666665,489.25344,147.51999999999998,487.2816C153.4933333333333,485.30976000000004,159.46666666666667,483.05088,165.44,480.84192C171.41333333333333,478.63296,177.38666666666668,476.19624000000005,183.36,474.02784C189.33333333333334,471.85944,195.30666666666667,469.96248,201.28,467.83152C207.25333333333333,465.70056,213.2266666666667,463.8972,219.20000000000002,461.24208C225.17333333333335,458.58696,231.14666666666668,455.54184,237.12,451.9008C243.09333333333333,448.25976,249.06666666666666,443.5548,255.04,439.39584C261.0133333333333,435.23688000000004,266.9866666666667,431.16216000000003,272.96000000000004,426.94704C278.93333333333334,422.73192000000006,284.9066666666667,418.20168000000007,290.88,414.10512000000006C296.85333333333335,410.00856000000005,302.82666666666665,406.5828,308.8,402.36768C314.77333333333337,398.15256,320.74666666666667,393.04824,326.72,388.81440000000003C332.6933333333334,384.58056000000005,338.6666666666667,381.34512000000007,344.64000000000004,376.96464000000003C350.61333333333334,372.58416000000005,356.5866666666667,366.15072,362.56,362.53152C368.53333333333336,358.91232,374.50666666666666,357.85464,380.48,355.24944000000005C386.4533333333334,352.6442400000001,392.4266666666667,350.1888,398.40000000000003,346.90032C404.37333333333333,343.61184000000003,410.3466666666667,338.676,416.32,335.51856C422.29333333333335,332.36111999999997,428.26666666666665,329.69352000000003,434.24,327.95568000000003C440.21333333333337,326.21784,446.18666666666667,326.38008,452.16,325.09152C458.1333333333333,323.80296,464.1066666666667,321.98400000000004,470.08,320.22432000000003C476.05333333333334,318.46464000000003,482.02666666666664,316.31184,488,314.53344000000004C493.97333333333336,312.75504000000006,499.94666666666666,311.3448000000001,505.92,309.55392000000006C511.8933333333334,307.76304000000005,517.8666666666667,305.74752,523.84,303.78816C529.8133333333334,301.8288,535.7866666666666,299.5695768,541.76,297.79776C547.7333333333333,296.0259432,553.7066666666666,295.77553200000006,559.68,293.15725920000006C565.6533333333333,290.53898640000006,571.6266666666667,285.853932,577.6,282.0881232C583.5733333333334,278.3223144,589.5466666666666,274.4834976,595.52,270.56240640000004C601.4933333333333,266.6413152,607.4666666666667,262.64434559999995,613.44,258.56157599999995C619.4133333333334,254.47880639999994,625.3866666666667,250.3169448,631.36,246.0657888C637.3333333333334,241.8146328,643.3066666666667,237.48107760000002,649.2800000000001,233.05464C655.2533333333333,228.62820240000005,661.2266666666667,224.1161208,667.1999999999999,219.50716320000004C673.1733333333333,214.8982056,679.1466666666666,210.19989120000005,685.12,205.40089440000003C691.0933333333334,200.60189760000003,697.0666666666666,195.71008079999993,703.04,190.71318239999994C709.0133333333333,185.71628399999992,714.9866666666667,180.6224472,720.96,175.41950400000002C726.9333333333334,170.21656080000005,732.9066666666666,164.9129976,738.88,159.49552320000004C744.8533333333334,154.07804880000003,750.8266666666667,148.5555552000001,756.8000000000001,142.91465760000006C762.7733333333333,137.2737600000001,768.7466666666667,131.52360000000002,774.7199999999999,125.65013760000005C780.6933333333333,119.77667520000001,786.6666666666666,113.78952000000007,792.64,107.67388320000003C798.6133333333333,101.55824640000004,804.5866666666666,95.32417439999996,810.56,88.95631679999997C816.5333333333333,82.58845919999995,822.5066666666667,76.09717440000001,828.48,69.46673759999999C834.4533333333334,62.836300800000004,840.4266666666666,56.077507199999914,846.4,49.17369599999995C852.3733333333333,42.26988479999994,858.3466666666667,35.23238160000008,864.32,28.04387040000006C870.2933333333334,20.855359200000095,876.2666666666667,13.448994000000027,882.24,6.042628799999989L882.24,6.042628799999989C876.2666666666667,13.448994000000027,870.2933333333334,20.855359200000095,864.32,28.04387040000006C858.3466666666667,35.23238160000008,852.3733333333333,42.26988479999994,846.4,49.17369599999995C840.4266666666666,56.077507199999914,834.4533333333334,62.836300800000004,828.48,69.46673759999999C822.5066666666667,76.09717440000001,816.5333333333333,82.58845919999995,810.56,88.95631679999997C804.5866666666666,95.32417439999996,798.6133333333333,101.55824640000004,792.64,107.67388320000003C786.6666666666666,113.78952000000007,780.6933333333333,119.77667520000001,774.7199999999999,125.65013760000005C768.7466666666667,131.52360000000002,762.7733333333333,137.2737600000001,756.8000000000001,142.91465760000006C750.8266666666667,148.5555552000001,744.8533333333334,154.07804880000003,738.88,159.49552320000004C732.9066666666666,164.9129976,726.9333333333334,170.21656080000005,720.96,175.41950400000002C714.9866666666667,180.6224472,709.0133333333333,185.71628399999992,703.04,190.71318239999994C697.0666666666666,195.71008079999993,691.0933333333334,200.60189760000003,685.12,205.40089440000003C679.1466666666666,210.19989120000005,673.1733333333333,214.8982056,667.1999999999999,219.50716320000004C661.2266666666667,224.1161208,655.2533333333333,228.62820240000005,649.2800000000001,233.05464C643.3066666666667,237.48107760000002,637.3333333333334,241.8146328,631.36,246.0657888C625.3866666666667,250.3169448,619.4133333333334,254.47880639999994,613.44,258.56157599999995C607.4666666666667,262.64434559999995,601.4933333333333,266.6413152,595.52,270.56240640000004C589.5466666666666,274.4834976,583.5733333333334,278.3223144,577.6,282.0881232C571.6266666666667,285.853932,565.6533333333333,290.53898640000006,559.68,293.15725920000006C553.7066666666666,295.77553200000006,547.7333333333333,296.0259432,541.76,297.79776C535.7866666666666,299.5695768,529.8133333333334,301.8288,523.84,303.78816C517.8666666666667,305.74752,511.8933333333334,307.76304000000005,505.92,309.55392000000006C499.94666666666666,311.3448000000001,493.97333333333336,312.75504000000006,488,314.53344000000004C482.02666666666664,316.31184,476.05333333333334,318.46464000000003,470.08,320.22432000000003C464.1066666666667,321.98400000000004,458.1333333333333,323.80296,452.16,325.09152C446.18666666666667,326.38008,440.21333333333337,326.21784,434.24,327.95568000000003C428.26666666666665,329.69352000000003,422.29333333333335,332.36111999999997,416.32,335.51856C410.3466666666667,338.676,404.37333333333333,343.61184000000003,398.40000000000003,346.90032C392.4266666666667,350.1888,386.4533333333334,352.6442400000001,380.48,355.24944000000005C374.50666666666666,357.85464,368.53333333333336,358.91232,362.56,362.53152C356.5866666666667,366.15072,350.61333333333334,372.58416000000005,344.64000000000004,376.96464000000003C338.6666666666667,381.34512000000007,332.6933333333334,384.58056000000005,326.72,388.81440000000003C320.74666666666667,393.04824,314.77333333333337,398.15256,308.8,402.36768C302.82666666666665,406.5828,296.85333333333335,410.00856000000005,290.88,414.10512000000006C284.9066666666667,418.20168000000007,278.93333333333334,422.73192000000006,272.96000000000004,426.94704C266.9866666666667,431.16216000000003,261.0133333333333,435.23688000000004,255.04,439.39584C249.06666666666666,443.5548,243.09333333333333,448.25976,237.12,451.9008C231.14666666666668,455.54184,225.17333333333335,458.58696,219.20000000000002,461.24208C213.2266666666667,463.8972,207.25333333333333,465.70056,201.28,467.83152C195.30666666666667,469.96248,189.33333333333334,471.85944,183.36,474.02784C177.38666666666668,476.19624000000005,171.41333333333333,478.63296,165.44,480.84192C159.46666666666667,483.05088,153.4933333333333,485.30976000000004,147.51999999999998,487.2816C141.54666666666665,489.25344,135.57333333333335,491.14104,129.60000000000002,492.67296C123.62666666666668,494.20488,117.65333333333335,495.24072,111.68,496.47312C105.70666666666666,497.70552,99.73333333333333,499.06584,93.75999999999999,500.06736C87.78666666666666,501.06888000000004,81.81333333333333,501.32160000000005,75.84,502.48224000000005C69.86666666666667,503.64288000000005,63.89333333333334,505.33704000000006,57.92,507.0312Z"/></g></g><g id="lines"><g class="series"><clipPath id="clip-0-0"><rect width="936" y="-20" height="599.6"/></clipPath><path class="line" opacity="1" fill="none" stroke="#11A579" stroke-width="2" transform="translate(15,20)" clip-path="url(#clip-0-0)" d="M57.92,516.14784C63.89333333333334,514.60344,69.86666666666667,513.05904,75.84,513.05904C81.81333333333333,513.05904,87.78666666666666,513.7704,93.75999999999999,513.7704C99.73333333333333,513.7704,105.70666666666666,510.66288,111.68,508.9968C117.65333333333335,507.33072000000004,123.62666666666668,505.50864,129.60000000000002,503.77392000000003C135.57333333333335,502.03920000000005,141.54666666666665,500.39496,147.51999999999998,498.58848C153.4933333333333,496.782,159.46666666666667,494.7696,165.44,492.93504C171.41333333333333,491.10048,177.38666666666668,489.81192,183.36,487.58112C189.33333333333334,485.35032,195.30666666666667,481.60632000000004,201.28,479.55024000000003C207.25333333333333,477.49416,213.2266666666667,477.54720000000003,219.20000000000002,475.24464C225.17333333333335,472.94208000000003,231.14666666666668,469.56624000000005,237.12,465.73488000000003C243.09333333333333,461.90352,249.06666666666666,457.25472,255.04,452.25648C261.0133333333333,447.25824,266.9866666666667,439.80144,272.96000000000004,435.74544000000003C278.93333333333334,431.68944000000005,284.9066666666667,430.36656,290.88,427.92048C296.85333333333335,425.4744,302.82666666666665,423.86136000000005,308.8,421.06896000000006C314.77333333333337,418.2765600000001,320.74666666666667,414.27984000000004,326.72,411.16608C332.6933333333334,408.05232,338.6666666666667,405.95256000000006,344.64000000000004,402.38640000000004C350.61333333333334,398.82024000000007,356.5866666666667,392.70504000000005,362.56,389.76912000000004C368.53333333333336,386.83320000000003,374.50666666666666,386.75520000000006,380.48,384.77088000000003C386.4533333333334,382.78656,392.4266666666667,380.21568,398.40000000000003,377.8632C404.37333333333333,375.51072,410.3466666666667,373.10832,416.32,370.656C422.29333333333335,368.20368,428.26666666666665,365.38944,434.24,363.14928C440.21333333333337,360.90912,446.18666666666667,359.22120000000007,452.16,357.21504000000004C458.1333333333333,355.2088800000001,464.1066666666667,353.18088,470.08,351.11232C476.05333333333334,349.04376,482.02666666666664,346.7568,488,344.80368C493.97333333333336,342.85056,499.94666666666666,340.75392,505.92,339.3936C511.8933333333334,338.03328,517.8666666666667,338.13311999999996,523.84,336.64176C529.8133333333334,335.1504,535.7866666666666,331.95090239999996,541.76,330.44543999999996C547.7333333333333,328.93997759999996,553.7066666666666,329.4999552,559.68,327.6089856C565.6533333333333,325.718016,571.6266666666667,321.40814159999996,577.6,318.21341759999996C583.5733333333334,315.0186936,589.5466666666666,311.76366,595.52,308.44064160000005C601.4933333333333,305.1176232,607.4666666666667,301.73176800000005,613.44,298.27530720000004C619.4133333333334,294.81884640000004,625.3866666666667,291.29708400000004,631.36,287.70187680000004C637.3333333333334,284.10666960000003,643.3066666666667,280.4436336000001,649.2800000000001,276.7040640000001C655.2533333333333,272.9644944000001,661.2266666666667,269.1542256,667.1999999999999,265.26445920000003C673.1733333333333,261.3746928,679.1466666666666,257.411388,685.12,253.3654656C691.0933333333334,249.3195432,697.0666666666666,245.1973056,703.04,240.9889248C709.0133333333333,236.780544,714.9866666666667,232.49257200000002,720.96,228.11518080000002C726.9333333333334,223.73778960000004,732.9066666666666,219.2776872,738.88,214.72457760000003C744.8533333333334,210.171468,750.8266666666667,205.53246480000004,756.8000000000001,200.79652320000002C762.7733333333333,196.06058160000006,768.7466666666667,191.23506480000003,774.7199999999999,186.30892800000004C780.6933333333333,181.38279119999999,786.6666666666666,176.36361599999998,792.64,171.23970239999994C798.6133333333333,166.11578879999996,804.5866666666666,160.89512399999995,810.56,155.56544639999998C816.5333333333333,150.2357688,822.5066666666667,144.80531520000005,828.48,139.26163680000002C834.4533333333334,133.71795840000004,840.4266666666666,128.06963519999994,846.4,122.30337599999996C852.3733333333333,116.53711679999994,858.3466666666667,110.66187599999999,864.32,104.66408159999997C870.2933333333334,98.6662872,876.2666666666667,92.4914484,882.24,86.31660959999999"/><text class="label" font-size="11" alignment-baseline="middle" opacity="1" x="5" fill="#11A579" transform="translate(897.239990234375, 106.31661224365234)"/></g><g class="series"><clipPath id="clip-0-1"><rect width="936" y="-20" height="599.6"/></clipPath><path class="line" opacity="1" fill="none" stroke="#802392" stroke-width="2" transform="translate(15,20)" clip-path="url(#clip-0-1)" d="M57.92,507.0312C63.89333333333334,505.33704000000006,69.86666666666667,503.64288000000005,75.84,502.48224000000005C81.81333333333333,501.32160000000005,87.78666666666666,501.06888000000004,93.75999999999999,500.06736C99.73333333333333,499.06584,105.70666666666666,497.70552,111.68,496.47312C117.65333333333335,495.24072,123.62666666666668,494.20488,129.60000000000002,492.67296C135.57333333333335,491.14104,141.54666666666665,489.25344,147.51999999999998,487.2816C153.4933333333333,485.30976000000004,159.46666666666667,483.05088,165.44,480.84192C171.41333333333333,478.63296,177.38666666666668,476.19624000000005,183.36,474.02784C189.33333333333334,471.85944,195.30666666666667,469.96248,201.28,467.83152C207.25333333333333,465.70056,213.2266666666667,463.8972,219.20000000000002,461.24208C225.17333333333335,458.58696,231.14666666666668,455.54184,237.12,451.9008C243.09333333333333,448.25976,249.06666666666666,443.5548,255.04,439.39584C261.0133333333333,435.23688000000004,266.9866666666667,431.16216000000003,272.96000000000004,426.94704C278.93333333333334,422.73192000000006,284.9066666666667,418.20168000000007,290.88,414.10512000000006C296.85333333333335,410.00856000000005,302.82666666666665,406.5828,308.8,402.36768C314.77333333333337,398.15256,320.74666666666667,393.04824,326.72,388.81440000000003C332.6933333333334,384.58056000000005,338.6666666666667,381.34512000000007,344.64000000000004,376.96464000000003C350.61333333333334,372.58416000000005,356.5866666666667,366.15072,362.56,362.53152C368.53333333333336,358.91232,374.50666666666666,357.85464,380.48,355.24944000000005C386.4533333333334,352.6442400000001,392.4266666666667,350.1888,398.40000000000003,346.90032C404.37333333333333,343.61184000000003,410.3466666666667,338.676,416.32,335.51856C422.29333333333335,332.36111999999997,428.26666666666665,329.69352000000003,434.24,327.95568000000003C440.21333333333337,326.21784,446.18666666666667,326.38008,452.16,325.09152C458.1333333333333,323.80296,464.1066666666667,321.98400000000004,470.08,320.22432000000003C476.05333333333334,318.46464000000003,482.02666666666664,316.31184,488,314.53344000000004C493.97333333333336,312.75504000000006,499.94666666666666,311.3448000000001,505.92,309.55392000000006C511.8933333333334,307.76304000000005,517.8666666666667,305.74752,523.84,303.78816C529.8133333333334,301.8288,535.7866666666666,299.5695768,541.76,297.79776C547.7333333333333,296.0259432,553.7066666666666,295.77553200000006,559.68,293.15725920000006C565.6533333333333,290.53898640000006,571.6266666666667,285.853932,577.6,282.0881232C583.5733333333334,278.3223144,589.5466666666666,274.4834976,595.52,270.56240640000004C601.4933333333333,266.6413152,607.4666666666667,262.64434559999995,613.44,258.56157599999995C619.4133333333334,254.47880639999994,625.3866666666667,250.3169448,631.36,246.0657888C637.3333333333334,241.8146328,643.3066666666667,237.48107760000002,649.2800000000001,233.05464C655.2533333333333,228.62820240000005,661.2266666666667,224.1161208,667.1999999999999,219.50716320000004C673.1733333333333,214.8982056,679.1466666666666,210.19989120000005,685.12,205.40089440000003C691.0933333333334,200.60189760000003,697.0666666666666,195.71008079999993,703.04,190.71318239999994C709.0133333333333,185.71628399999992,714.9866666666667,180.6224472,720.96,175.41950400000002C726.9333333333334,170.21656080000005,732.9066666666666,164.9129976,738.88,159.49552320000004C744.8533333333334,154.07804880000003,750.8266666666667,148.5555552000001,756.8000000000001,142.91465760000006C762.7733333333333,137.2737600000001,768.7466666666667,131.52360000000002,774.7199999999999,125.65013760000005C780.6933333333333,119.77667520000001,786.6666666666666,113.78952000000007,792.64,107.67388320000003C798.6133333333333,101.55824640000004,804.5866666666666,95.32417439999996,810.56,88.95631679999997C816.5333333333333,82.58845919999995,822.5066666666667,76.09717440000001,828.48,69.46673759999999C834.4533333333334,62.836300800000004,840.4266666666666,56.077507199999914,846.4,49.17369599999995C852.3733333333333,42.26988479999994,858.3466666666667,35.23238160000008,864.32,28.04387040000006C870.2933333333334,20.855359200000095,876.2666666666667,13.448994000000027,882.24,6.042628799999989"/><text class="label" font-size="11" alignment-baseline="middle" opacity="1" x="5" fill="#802392" transform="translate(897.239990234375, 26.04262924194336)"/></g></g><g id="data-points"><g class="series" transform="translate(15,20)"><path class="data-point" fill="#11A579" data-type="point" transform="translate(0, 0)" d="M54.92,516.14784A3,3,0,1,1,60.92,516.14784A3,3,0,1,1,54.92,516.14784Z" id="point-0-0" opacity="1"/><path class="data-point" fill="#11A579" data-type="point" transform="translate(0, 0)" d="M72.84,513.05904A3,3,0,1,1,78.84,513.05904A3,3,0,1,1,72.84,513.05904Z" id="point-0-1" opacity="1"/><path class="data-point" fill="#11A579" data-type="point" transform="translate(0, 0)" d="M90.75999999999999,513.7704A3,3,0,1,1,96.75999999999999,513.7704A3,3,0,1,1,90.75999999999999,513.7704Z" id="point-0-2" opacity="1"/><path class="data-point" fill="#11A579" data-type="point" transform="translate(0, 0)" d="M108.68,508.9968A3,3,0,1,1,114.68,508.9968A3,3,0,1,1,108.68,508.9968Z" id="point-0-3" opacity="1"/><path class="data-point" fill="#11A579" data-type="point" transform="translate(0, 0)" d="M126.60000000000002,503.77392000000003A3,3,0,1,1,132.60000000000002,503.77392000000003A3,3,0,1,1,126.60000000000002,503.77392000000003Z" id="point-0-4" opacity="1"/><path class="data-point" fill="#11A579" data-type="point" transform="translate(0, 0)" d="M144.51999999999998,498.58848A3,3,0,1,1,150.51999999999998,498.58848A3,3,0,1,1,144.51999999999998,498.58848Z" id="point-0-5" opacity="1"/><path class="data-point" fill="#11A579" data-type="point" transform="translate(0, 0)" d="M162.44,492.93504A3,3,0,1,1,168.44,492.93504A3,3,0,1,1,162.44,492.93504Z" id="point-0-6" opacity="1"/><path class="data-point" fill="#11A579" data-type="point" transform="translate(0, 0)" d="M180.36,487.58112A3,3,0,1,1,186.36,487.58112A3,3,0,1,1,180.36,487.58112Z" id="point-0-7" opacity="1"/><path class="data-point" fill="#11A579" data-type="point" transform="translate(0, 0)" d="M198.28,479.55024000000003A3,3,0,1,1,204.28,479.55024000000003A3,3,0,1,1,198.28,479.55024000000003Z" id="point-0-8" opacity="1"/><path class="data-point" fill="#11A579" data-type="point" transform="translate(0, 0)" d="M216.20000000000002,475.24464A3,3,0,1,1,222.20000000000002,475.24464A3,3,0,1,1,216.20000000000002,475.24464Z" id="point-0-9" opacity="1"/><path class="data-point" fill="#11A579" data-type="point" transform="translate(0, 0)" d="M234.12,465.73488000000003A3,3,0,1,1,240.12,465.73488000000003A3,3,0,1,1,234.12,465.73488000000003Z" id="point-0-10" opacity="1"/><path class="data-point" fill="#11A579" data-type="point" transform="translate(0, 0)" d="M252.04,452.25648A3,3,0,1,1,258.03999999999996,452.25648A3,3,0,1,1,252.04,452.25648Z" id="point-0-11" opacity="1"/><path class="data-point" fill="#11A579" data-type="point" transform="translate(0, 0)" d="M269.96000000000004,435.74544000000003A3,3,0,1,1,275.96000000000004,435.74544000000003A3,3,0,1,1,269.96000000000004,435.74544000000003Z" id="point-0-12" opacity="1"/><path class="data-point" fill="#11A579" data-type="point" transform="translate(0, 0)" d="M287.88,427.92048A3,3,0,1,1,293.88,427.92048A3,3,0,1,1,287.88,427.92048Z" id="point-0-13" opacity="1"/><path class="data-point" fill="#11A579" data-type="point" transform="translate(0, 0)" d="M305.8,421.06896000000006A3,3,0,1,1,311.8,421.06896000000006A3,3,0,1,1,305.8,421.06896000000006Z" id="point-0-14" opacity="1"/><path class="data-point" fill="#11A579" data-type="point" transform="translate(0, 0)" d="M323.72,411.16608A3,3,0,1,1,329.72,411.16608A3,3,0,1,1,323.72,411.16608Z" id="point-0-15" opacity="1"/><path class="data-point" fill="#11A579" data-type="point" transform="translate(0, 0)" d="M341.64000000000004,402.38640000000004A3,3,0,1,1,347.64000000000004,402.38640000000004A3,3,0,1,1,341.64000000000004,402.38640000000004Z" id="point-0-16" opacity="1"/><path class="data-point" fill="#11A579" data-type="point" transform="translate(0, 0)" d="M359.56,389.76912000000004A3,3,0,1,1,365.56,389.76912000000004A3,3,0,1,1,359.56,389.76912000000004Z" id="point-0-17" opacity="1"/><path class="data-point" fill="#11A579" data-type="point" transform="translate(0, 0)" d="M377.48,384.77088000000003A3,3,0,1,1,383.48,384.77088000000003A3,3,0,1,1,377.48,384.77088000000003Z" id="point-0-18" opacity="1"/><path class="data-point" fill="#11A579" data-type="point" transform="translate(0, 0)" d="M395.40000000000003,377.8632A3,3,0,1,1,401.40000000000003,377.8632A3,3,0,1,1,395.40000000000003,377.8632Z" id="point-0-19" opacity="1"/><path class="data-point" fill="#11A579" data-type="point" transform="translate(0, 0)" d="M413.32,370.656A3,3,0,1,1,419.32,370.656A3,3,0,1,1,413.32,370.656Z" id="point-0-20" opacity="1"/><path class="data-point" fill="#11A579" data-type="point" transform="translate(0, 0)" d="M431.24,363.14928A3,3,0,1,1,437.24,363.14928A3,3,0,1,1,431.24,363.14928Z" id="point-0-21" opacity="1"/><path class="data-point" fill="#11A579" data-type="point" transform="translate(0, 0)" d="M449.16,357.21504000000004A3,3,0,1,1,455.16,357.21504000000004A3,3,0,1,1,449.16,357.21504000000004Z" id="point-0-22" opacity="1"/><path class="data-point" fill="#11A579" data-type="point" transform="translate(0, 0)" d="M467.08,351.11232A3,3,0,1,1,473.08,351.11232A3,3,0,1,1,467.08,351.11232Z" id="point-0-23" opacity="1"/><path class="data-point" fill="#11A579" data-type="point" transform="translate(0, 0)" d="M485,344.80368A3,3,0,1,1,491,344.80368A3,3,0,1,1,485,344.80368Z" id="point-0-24" opacity="1"/><path class="data-point" fill="#11A579" data-type="point" transform="translate(0, 0)" d="M502.92,339.3936A3,3,0,1,1,508.92,339.3936A3,3,0,1,1,502.92,339.3936Z" id="point-0-25" opacity="1"/><path class="data-point" fill="#11A579" data-type="point" transform="translate(0, 0)" d="M520.84,336.64176A3,3,0,1,1,526.84,336.64176A3,3,0,1,1,520.84,336.64176Z" id="point-0-26" opacity="1"/><path class="data-point" fill="#11A579" data-type="point" transform="translate(0, 0)" d="M538.76,330.44543999999996A3,3,0,1,1,544.76,330.44543999999996A3,3,0,1,1,538.76,330.44543999999996Z" id="point-0-27" opacity="1"/><path class="data-point" fill="#11A579" data-type="point" transform="translate(0, 0)" d="M556.68,327.6089856A3,3,0,1,1,562.68,327.6089856A3,3,0,1,1,556.68,327.6089856Z" id="point-0-28" opacity="1"/><path class="data-point" fill="#11A579" data-type="point" transform="translate(0, 0)" d="M574.6,318.21341759999996A3,3,0,1,1,580.6,318.21341759999996A3,3,0,1,1,574.6,318.21341759999996Z" id="point-0-29" opacity="1"/><path class="data-point" fill="#11A579" data-type="point" transform="translate(0, 0)" d="M592.52,308.44064160000005A3,3,0,1,1,598.52,308.44064160000005A3,3,0,1,1,592.52,308.44064160000005Z" id="point-0-30" opacity="1"/><path class="data-point" fill="#11A579" data-type="point" transform="translate(0, 0)" d="M610.44,298.27530720000004A3,3,0,1,1,616.44,298.27530720000004A3,3,0,1,1,610.44,298.27530720000004Z" id="point-0-31" opacity="1"/><path class="data-point" fill="#11A579" data-type="point" transform="translate(0, 0)" d="M628.36,287.70187680000004A3,3,0,1,1,634.36,287.70187680000004A3,3,0,1,1,628.36,287.70187680000004Z" id="point-0-32" opacity="1"/><path class="data-point" fill="#11A579" data-type="point" transform="translate(0, 0)" d="M646.2800000000001,276.7040640000001A3,3,0,1,1,652.2800000000001,276.7040640000001A3,3,0,1,1,646.2800000000001,276.7040640000001Z" id="point-0-33" opacity="1"/><path class="data-point" fill="#11A579" data-type="point" transform="translate(0, 0)" d="M664.1999999999999,265.26445920000003A3,3,0,1,1,670.1999999999999,265.26445920000003A3,3,0,1,1,664.1999999999999,265.26445920000003Z" id="point-0-34" opacity="1"/><path class="data-point" fill="#11A579" data-type="point" transform="translate(0, 0)" d="M682.12,253.3654656A3,3,0,1,1,688.12,253.3654656A3,3,0,1,1,682.12,253.3654656Z" id="point-0-35" opacity="1"/><path class="data-point" fill="#11A579" data-type="point" transform="translate(0, 0)" d="M700.04,240.9889248A3,3,0,1,1,706.04,240.9889248A3,3,0,1,1,700.04,240.9889248Z" id="point-0-36" opacity="1"/><path class="data-point" fill="#11A579" data-type="point" transform="translate(0, 0)" d="M717.96,228.11518080000002A3,3,0,1,1,723.96,228.11518080000002A3,3,0,1,1,717.96,228.11518080000002Z" id="point-0-37" opacity="1"/><path class="data-point" fill="#11A579" data-type="point" transform="translate(0, 0)" d="M735.88,214.72457760000003A3,3,0,1,1,741.88,214.72457760000003A3,3,0,1,1,735.88,214.72457760000003Z" id="point-0-38" opacity="1"/><path class="data-point" fill="#11A579" data-type="point" transform="translate(0, 0)" d="M753.8000000000001,200.79652320000002A3,3,0,1,1,759.8000000000001,200.79652320000002A3,3,0,1,1,753.8000000000001,200.79652320000002Z" id="point-0-39" opacity="1"/><path class="data-point" fill="#11A579" data-type="point" transform="translate(0, 0)" d="M771.7199999999999,186.30892800000004A3,3,0,1,1,777.7199999999999,186.30892800000004A3,3,0,1,1,771.7199999999999,186.30892800000004Z" id="point-0-40" opacity="1"/><path class="data-point" fill="#11A579" data-type="point" transform="translate(0, 0)" d="M789.64,171.23970239999994A3,3,0,1,1,795.64,171.23970239999994A3,3,0,1,1,789.64,171.23970239999994Z" id="point-0-41" opacity="1"/><path class="data-point" fill="#11A579" data-type="point" transform="translate(0, 0)" d="M807.56,155.56544639999998A3,3,0,1,1,813.56,155.56544639999998A3,3,0,1,1,807.56,155.56544639999998Z" id="point-0-42" opacity="1"/><path class="data-point" fill="#11A579" data-type="point" transform="translate(0, 0)" d="M825.48,139.26163680000002A3,3,0,1,1,831.48,139.26163680000002A3,3,0,1,1,825.48,139.26163680000002Z" id="point-0-43" opacity="1"/><path class="data-point" fill="#11A579" data-type="point" transform="translate(0, 0)" d="M843.4,122.30337599999996A3,3,0,1,1,849.4,122.30337599999996A3,3,0,1,1,843.4,122.30337599999996Z" id="point-0-44" opacity="1"/><path class="data-point" fill="#11A579" data-type="point" transform="translate(0, 0)" d="M861.32,104.66408159999997A3,3,0,1,1,867.32,104.66408159999997A3,3,0,1,1,861.32,104.66408159999997Z" id="point-0-45" opacity="1"/><path class="data-point" fill="#11A579" data-type="point" transform="translate(0, 0)" d="M879.24,86.31660959999999A3,3,0,1,1,885.24,86.31660959999999A3,3,0,1,1,879.24,86.31660959999999Z" id="point-0-46" opacity="1"/></g><g class="series" transform="translate(15,20)"><path class="data-point" fill="#802392" data-type="point" transform="translate(0, 0)" d="M54.92,507.0312A3,3,0,1,1,60.92,507.0312A3,3,0,1,1,54.92,507.0312Z" id="point-1-0" opacity="1"/><path class="data-point" fill="#802392" data-type="point" transform="translate(0, 0)" d="M72.84,502.48224000000005A3,3,0,1,1,78.84,502.48224000000005A3,3,0,1,1,72.84,502.48224000000005Z" id="point-1-1" opacity="1"/><path class="data-point" fill="#802392" data-type="point" transform="translate(0, 0)" d="M90.75999999999999,500.06736A3,3,0,1,1,96.75999999999999,500.06736A3,3,0,1,1,90.75999999999999,500.06736Z" id="point-1-2" opacity="1"/><path class="data-point" fill="#802392" data-type="point" transform="translate(0, 0)" d="M108.68,496.47312A3,3,0,1,1,114.68,496.47312A3,3,0,1,1,108.68,496.47312Z" id="point-1-3" opacity="1"/><path class="data-point" fill="#802392" data-type="point" transform="translate(0, 0)" d="M126.60000000000002,492.67296A3,3,0,1,1,132.60000000000002,492.67296A3,3,0,1,1,126.60000000000002,492.67296Z" id="point-1-4" opacity="1"/><path class="data-point" fill="#802392" data-type="point" transform="translate(0, 0)" d="M144.51999999999998,487.2816A3,3,0,1,1,150.51999999999998,487.2816A3,3,0,1,1,144.51999999999998,487.2816Z" id="point-1-5" opacity="1"/><path class="data-point" fill="#802392" data-type="point" transform="translate(0, 0)" d="M162.44,480.84192A3,3,0,1,1,168.44,480.84192A3,3,0,1,1,162.44,480.84192Z" id="point-1-6" opacity="1"/><path class="data-point" fill="#802392" data-type="point" transform="translate(0, 0)" d="M180.36,474.02784A3,3,0,1,1,186.36,474.02784A3,3,0,1,1,180.36,474.02784Z" id="point-1-7" opacity="1"/><path class="data-point" fill="#802392" data-type="point" transform="translate(0, 0)" d="M198.28,467.83152A3,3,0,1,1,204.28,467.83152A3,3,0,1,1,198.28,467.83152Z" id="point-1-8" opacity="1"/><path class="data-point" fill="#802392" data-type="point" transform="translate(0, 0)" d="M216.20000000000002,461.24208A3,3,0,1,1,222.20000000000002,461.24208A3,3,0,1,1,216.20000000000002,461.24208Z" id="point-1-9" opacity="1"/><path class="data-point" fill="#802392" data-type="point" transform="translate(0, 0)" d="M234.12,451.9008A3,3,0,1,1,240.12,451.9008A3,3,0,1,1,234.12,451.9008Z" id="point-1-10" opacity="1"/><path class="data-point" fill="#802392" data-type="point" transform="translate(0, 0)" d="M252.04,439.39584A3,3,0,1,1,258.03999999999996,439.39584A3,3,0,1,1,252.04,439.39584Z" id="point-1-11" opacity="1"/><path class="data-point" fill="#802392" data-type="point" transform="translate(0, 0)" d="M269.96000000000004,426.94704A3,3,0,1,1,275.96000000000004,426.94704A3,3,0,1,1,269.96000000000004,426.94704Z" id="point-1-12" opacity="1"/><path class="data-point" fill="#802392" data-type="point" transform="translate(0, 0)" d="M287.88,414.10512000000006A3,3,0,1,1,293.88,414.10512000000006A3,3,0,1,1,287.88,414.10512000000006Z" id="point-1-13" opacity="1"/><path class="data-point" fill="#802392" data-type="point" transform="translate(0, 0)" d="M305.8,402.36768A3,3,0,1,1,311.8,402.36768A3,3,0,1,1,305.8,402.36768Z" id="point-1-14" opacity="1"/><path class="data-point" fill="#802392" data-type="point" transform="translate(0, 0)" d="M323.72,388.81440000000003A3,3,0,1,1,329.72,388.81440000000003A3,3,0,1,1,323.72,388.81440000000003Z" id="point-1-15" opacity="1"/><path class="data-point" fill="#802392" data-type="point" transform="translate(0, 0)" d="M341.64000000000004,376.96464000000003A3,3,0,1,1,347.64000000000004,376.96464000000003A3,3,0,1,1,341.64000000000004,376.96464000000003Z" id="point-1-16" opacity="1"/><path class="data-point" fill="#802392" data-type="point" transform="translate(0, 0)" d="M359.56,362.53152A3,3,0,1,1,365.56,362.53152A3,3,0,1,1,359.56,362.53152Z" id="point-1-17" opacity="1"/><path class="data-point" fill="#802392" data-type="point" transform="translate(0, 0)" d="M377.48,355.24944000000005A3,3,0,1,1,383.48,355.24944000000005A3,3,0,1,1,377.48,355.24944000000005Z" id="point-1-18" opacity="1"/><path class="data-point" fill="#802392" data-type="point" transform="translate(0, 0)" d="M395.40000000000003,346.90032A3,3,0,1,1,401.40000000000003,346.90032A3,3,0,1,1,395.40000000000003,346.90032Z" id="point-1-19" opacity="1"/><path class="data-point" fill="#802392" data-type="point" transform="translate(0, 0)" d="M413.32,335.51856A3,3,0,1,1,419.32,335.51856A3,3,0,1,1,413.32,335.51856Z" id="point-1-20" opacity="1"/><path class="data-point" fill="#802392" data-type="point" transform="translate(0, 0)" d="M431.24,327.95568000000003A3,3,0,1,1,437.24,327.95568000000003A3,3,0,1,1,431.24,327.95568000000003Z" id="point-1-21" opacity="1"/><path class="data-point" fill="#802392" data-type="point" transform="translate(0, 0)" d="M449.16,325.09152A3,3,0,1,1,455.16,325.09152A3,3,0,1,1,449.16,325.09152Z" id="point-1-22" opacity="1"/><path class="data-point" fill="#802392" data-type="point" transform="translate(0, 0)" d="M467.08,320.22432000000003A3,3,0,1,1,473.08,320.22432000000003A3,3,0,1,1,467.08,320.22432000000003Z" id="point-1-23" opacity="1"/><path class="data-point" fill="#802392" data-type="point" transform="translate(0, 0)" d="M485,314.53344000000004A3,3,0,1,1,491,314.53344000000004A3,3,0,1,1,485,314.53344000000004Z" id="point-1-24" opacity="1"/><path class="data-point" fill="#802392" data-type="point" transform="translate(0, 0)" d="M502.92,309.55392000000006A3,3,0,1,1,508.92,309.55392000000006A3,3,0,1,1,502.92,309.55392000000006Z" id="point-1-25" opacity="1"/><path class="data-point" fill="#802392" data-type="point" transform="translate(0, 0)" d="M520.84,303.78816A3,3,0,1,1,526.84,303.78816A3,3,0,1,1,520.84,303.78816Z" id="point-1-26" opacity="1"/><path class="data-point" fill="#802392" data-type="point" transform="translate(0, 0)" d="M538.76,297.79776A3,3,0,1,1,544.76,297.79776A3,3,0,1,1,538.76,297.79776Z" id="point-1-27" opacity="1"/><path class="data-point" fill="#802392" data-type="point" transform="translate(0, 0)" d="M556.68,293.15725920000006A3,3,0,1,1,562.68,293.15725920000006A3,3,0,1,1,556.68,293.15725920000006Z" id="point-1-28" opacity="1"/><path class="data-point" fill="#802392" data-type="point" transform="translate(0, 0)" d="M574.6,282.0881232A3,3,0,1,1,580.6,282.0881232A3,3,0,1,1,574.6,282.0881232Z" id="point-1-29" opacity="1"/><path class="data-point" fill="#802392" data-type="point" transform="translate(0, 0)" d="M592.52,270.56240640000004A3,3,0,1,1,598.52,270.56240640000004A3,3,0,1,1,592.52,270.56240640000004Z" id="point-1-30" opacity="1"/><path class="data-point" fill="#802392" data-type="point" transform="translate(0, 0)" d="M610.44,258.56157599999995A3,3,0,1,1,616.44,258.56157599999995A3,3,0,1,1,610.44,258.56157599999995Z" id="point-1-31" opacity="1"/><path class="data-point" fill="#802392" data-type="point" transform="translate(0, 0)" d="M628.36,246.0657888A3,3,0,1,1,634.36,246.0657888A3,3,0,1,1,628.36,246.0657888Z" id="point-1-32" opacity="1"/><path class="data-point" fill="#802392" data-type="point" transform="translate(0, 0)" d="M646.2800000000001,233.05464A3,3,0,1,1,652.2800000000001,233.05464A3,3,0,1,1,646.2800000000001,233.05464Z" id="point-1-33" opacity="1"/><path class="data-point" fill="#802392" data-type="point" transform="translate(0, 0)" d="M664.1999999999999,219.50716320000004A3,3,0,1,1,670.1999999999999,219.50716320000004A3,3,0,1,1,664.1999999999999,219.50716320000004Z" id="point-1-34" opacity="1"/><path class="data-point" fill="#802392" data-type="point" transform="translate(0, 0)" d="M682.12,205.40089440000003A3,3,0,1,1,688.12,205.40089440000003A3,3,0,1,1,682.12,205.40089440000003Z" id="point-1-35" opacity="1"/><path class="data-point" fill="#802392" data-type="point" transform="translate(0, 0)" d="M700.04,190.71318239999994A3,3,0,1,1,706.04,190.71318239999994A3,3,0,1,1,700.04,190.71318239999994Z" id="point-1-36" opacity="1"/><path class="data-point" fill="#802392" data-type="point" transform="translate(0, 0)" d="M717.96,175.41950400000002A3,3,0,1,1,723.96,175.41950400000002A3,3,0,1,1,717.96,175.41950400000002Z" id="point-1-37" opacity="1"/><path class="data-point" fill="#802392" data-type="point" transform="translate(0, 0)" d="M735.88,159.49552320000004A3,3,0,1,1,741.88,159.49552320000004A3,3,0,1,1,735.88,159.49552320000004Z" id="point-1-38" opacity="1"/><path class="data-point" fill="#802392" data-type="point" transform="translate(0, 0)" d="M753.8000000000001,142.91465760000006A3,3,0,1,1,759.8000000000001,142.91465760000006A3,3,0,1,1,753.8000000000001,142.91465760000006Z" id="point-1-39" opacity="1"/><path class="data-point" fill="#802392" data-type="point" transform="translate(0, 0)" d="M771.7199999999999,125.65013760000005A3,3,0,1,1,777.7199999999999,125.65013760000005A3,3,0,1,1,771.7199999999999,125.65013760000005Z" id="point-1-40" opacity="1"/><path class="data-point" fill="#802392" data-type="point" transform="translate(0, 0)" d="M789.64,107.67388320000003A3,3,0,1,1,795.64,107.67388320000003A3,3,0,1,1,789.64,107.67388320000003Z" id="point-1-41" opacity="1"/><path class="data-point" fill="#802392" data-type="point" transform="translate(0, 0)" d="M807.56,88.95631679999997A3,3,0,1,1,813.56,88.95631679999997A3,3,0,1,1,807.56,88.95631679999997Z" id="point-1-42" opacity="1"/><path class="data-point" fill="#802392" data-type="point" transform="translate(0, 0)" d="M825.48,69.46673759999999A3,3,0,1,1,831.48,69.46673759999999A3,3,0,1,1,825.48,69.46673759999999Z" id="point-1-43" opacity="1"/><path class="data-point" fill="#802392" data-type="point" transform="translate(0, 0)" d="M843.4,49.17369599999995A3,3,0,1,1,849.4,49.17369599999995A3,3,0,1,1,843.4,49.17369599999995Z" id="point-1-44" opacity="1"/><path class="data-point" fill="#802392" data-type="point" transform="translate(0, 0)" d="M861.32,28.04387040000006A3,3,0,1,1,867.32,28.04387040000006A3,3,0,1,1,861.32,28.04387040000006Z" id="point-1-45" opacity="1"/><path class="data-point" fill="#802392" data-type="point" transform="translate(0, 0)" d="M879.24,6.042628799999989A3,3,0,1,1,885.24,6.042628799999989A3,3,0,1,1,879.24,6.042628799999989Z" id="point-1-46" opacity="1"/></g></g><g id="data-labels"/><g class="annotations above"><g class="axis-highlights" transform="translate(15, 20)" style="opacity: 1;"/></g></svg>