<svg xmlns="http://www.w3.org/2000/svg" xmlns:xlink="http://www.w3.org/1999/xlink" version="1.1" x="0px" y="0px" viewBox="0 0 66 66" enable-background="new 0 0 66 66" xml:space="preserve"><g><g><path d="M59.2,9.9L33.3,1.1c-0.2-0.1-0.4-0.1-0.7,0L6.8,9.9c-0.4,0.1-0.7,0.5-0.7,0.9c0,0.4,0.3,0.8,0.7,0.9l2.5,0.9v12.7    c-1.1,0.4-1.9,1.5-1.9,2.8V32c0,0.6,0.4,1,1,1h3.9c0.6,0,1-0.4,1-1v-3.9c0-1.3-0.8-2.4-1.9-2.8v-12l5.6,1.9    c2.8-1.6,9.5-3.6,16.1-3.6c6.8,0,13.8,2.2,16.1,3.6l10.1-3.5c0.4-0.1,0.7-0.5,0.7-0.9C59.8,10.4,59.6,10.1,59.2,9.9z"></path></g><g><path d="M18.9,26.1c8.9-4,19.2-4,28.2,0c0.1,0.1,0.3,0.1,0.4,0.1c0.2,0,0.4,0,0.5-0.2c0.3-0.2,0.5-0.5,0.5-0.8v-7.4    c0-0.4-0.3-0.8-0.7-1c-9.4-4.2-20.2-4.2-29.5,0c0,0-0.1,0-0.1,0.1c-0.4,0.1-0.6,0.5-0.6,0.9v7.4c0,0.3,0.2,0.7,0.5,0.8    C18.2,26.2,18.6,26.2,18.9,26.1z"></path></g><g><path d="M33,30.9c-7.7,0-13.9,6.2-13.9,13.9c0,7.7,6.2,13.9,13.9,13.9c7.7,0,13.9-6.2,13.9-13.9C46.9,37.1,40.7,30.9,33,30.9z     M33.8,53.4v2.9H32v-2.8c-1.6,0-3.3-0.5-4.3-1.2l0.7-1.9c1,0.7,2.5,1.2,4.1,1.2c2,0,3.4-1.2,3.4-2.8c0-1.5-1.1-2.5-3.2-3.4    C29.8,44.3,28,43,28,40.6c0-2.3,1.7-4.1,4.3-4.5v-2.8H34v2.7c1.7,0.1,2.8,0.5,3.7,1l-0.7,1.9c-0.6-0.3-1.7-1-3.5-1    c-2.2,0-3,1.3-3,2.4c0,1.5,1,2.2,3.5,3.2c2.9,1.2,4.4,2.6,4.4,5.2C38.3,50.9,36.7,52.9,33.8,53.4z"></path></g><g><path d="M33,24.6c-11.2,0-20.2,9.1-20.2,20.2C12.8,55.9,21.9,65,33,65s20.2-9.1,20.2-20.2C53.2,33.6,44.2,24.6,33,24.6z M33,60.7    c-8.8,0-15.9-7.1-15.9-15.9c0-8.8,7.1-15.9,15.9-15.9c8.8,0,15.9,7.1,15.9,15.9C48.9,53.5,41.8,60.7,33,60.7z"></path></g></g></svg>