<svg xmlns="http://www.w3.org/2000/svg" id="graphic" width="883" height="598.18"><g id="facets"><g class="facet" transform="translate(50,10)" opacity="1"><text class="facet-title" y="0" font-size="16" font-weight="bold" dominant-baseline="middle" x="0" clip-path="url(#facet-clip-0)" fill="black"/><g class="plot"><clipPath class="facet-clip" id="facet-clip-0"><rect width="838" height="563.18" transform="translate(-7.5,-10)"/></clipPath><g class="bg"><rect fill="none" width="823" height="543.18" style="fill: none;"/></g><g class="interaction"><g class="series"><path data-target="point-0-0" d="M0,485.654522L24.934345562901008,485.654522L24.5151960003,482.6588845L0,321.1622046561262Z" style="opacity: 0;"/><path data-target="point-0-1" d="M0,321.1622046561262L24.5151960003,482.6588845L41.5617000437,482.6588845L40.7536795766,478.948965L0,294.62657885526795Z" style="opacity: 0;"/><path data-target="point-0-2" d="M40.7536795766,478.948965L41.5617000437,482.6588845L55.46219058711196,543.18L70.2223479975129,543.18L57.907330876513,478.948965Z" style="opacity: 0;"/><path data-target="point-0-3" d="M0,208.57838242191457L57.27735790449999,475.605692L74.34716070907801,475.605692L73.7635911192,472.19180599999993L0,133.51599737190185Z" style="opacity: 0;"/><path data-target="point-0-4" d="M0,133.51599737190185L73.7635911192,472.19180599999993L90.89834317236199,472.19180599999993L90.1904658083,468.4547275L0,54.35708834342921Z" style="opacity: 0;"/><path data-target="point-0-5" d="M0,54.35708834342921L90.1904658083,468.4547275L107.40888444947801,468.4547275L46.411115358462936,180.5393017741215L2.6213077131496334,0L0,0Z" style="opacity: 0;"/><path data-target="point-0-7" d="M122.98545023559599,460.78502599999996L140.0065999599,543.18L156.9440484113357,543.18L140.14041441031398,460.78502599999996Z" style="opacity: 0;"/><path data-target="point-0-8" d="M139.633726446587,457.0941175L140.14041441031398,460.78502599999996L156.9440484113357,543.18L174.7320217792001,543.18L156.5506833952,457.0941175Z" style="opacity: 0;"/><path data-target="point-0-9" d="M156.149227507675,453.232108L156.5506833952,457.0941175L174.7320217792001,543.18L195.2211158460001,543.18L173.018380370574,453.232108Z" style="opacity: 0;"/><path data-target="point-0-10" d="M172.600316940174,448.723714L173.018380370574,453.232108L195.2211158460001,543.18L215.18125409631207,543.18L189.434358510725,448.723714Z" style="opacity: 0;"/><path data-target="point-0-11" d="M189.09827931012498,443.501038L189.434358510725,448.723714L215.18125409631207,543.18L234.20831354528795,543.18L205.72205857376198,443.501038Z" style="opacity: 0;"/><path data-target="point-0-12" d="M205.72205857376198,443.501038L234.20831354528795,543.18L254.55094498139968,543.18L221.8064737824,437.39569499999993L205.794590122786,437.39569499999993Z" style="opacity: 0;"/><path data-target="point-0-13" d="M221.8064737824,437.39569499999993L254.55094498139968,543.18L274.14367129460015,543.18L237.90673816219999,431.130114L222.7989418128,431.130114Z" style="opacity: 0;"/><path data-target="point-0-14" d="M237.90673816219999,431.130114L274.14367129460015,543.18L300.2843276538641,543.18L254.028519524014,424.793919L239.723768725361,424.79391899999996Z" style="opacity: 0;"/><path data-target="point-0-15" d="M254.028519524014,424.793919L300.2843276538641,543.18L318.5136691041357,543.18L270.271179590874,417.80319249999997L256.42312323415,417.80319249999997Z" style="opacity: 0;"/><path data-target="point-0-16" d="M270.271179590874,417.80319249999997L318.5136691041357,543.18L332.9953944139643,543.18L286.32397173724996,410.2584225L273.413274688422,410.2584225Z" style="opacity: 0;"/><path data-target="point-0-17" d="M286.32397173724996,410.2584225L332.9953944139643,543.18L344.82909965023583,543.18L302.53148089315,403.25140049999993L290.50926597784996,403.25140049999993Z" style="opacity: 0;"/><path data-target="point-0-18" d="M302.53148089315,403.25140049999993L344.82909965023583,543.18L382.7559630497999,543.18L318.206049473652,397.423079L307.1667449821,397.423079Z" style="opacity: 0;"/><path data-target="point-0-19" d="M318.206049473652,397.423079L382.7559630497999,543.18L417.51976303671233,543.18L334.17961328853795,389.563264L324.166461389748,389.563264Z" style="opacity: 0;"/><path data-target="point-0-20" d="M334.17961328853795,389.563264L417.51976303671233,543.18L441.9381084708259,543.18L438.9559939966994,537.1914574233562L350.978093497,381.285201L340.205877691862,381.285201Z" style="opacity: 0;"/><path data-target="point-0-21" d="M350.978093497,381.285201L438.9559939966994,537.1914574233562L368.090995137402,373.01528549999995L356.1633305155,373.0152855Z" style="opacity: 0;"/><path data-target="point-0-22" d="M368.090995137402,373.01528549999995L438.9559939966994,537.1914574233562L441.9381084708259,543.18L460.1407328750478,543.18L384.76505815582397,366.39120549999996L372.303314011176,366.39120549999996Z" style="opacity: 0;"/><path data-target="point-0-23" d="M384.76505815582397,366.39120549999996L460.1407328750478,543.18L487.19625315725176,543.18L401.54668914112597,360.1446355L388.40543429632396,360.1446355Z" style="opacity: 0;"/><path data-target="point-0-24" d="M401.54668914112597,360.1446355L487.19625315725176,543.18L521.0368443945365,543.18L420.055509585786,356.135967L403.340488170214,356.135967Z" style="opacity: 0;"/><path data-target="point-0-25" d="M419.456818687497,347.96382399999993L420.055509585786,356.135967L521.0368443945365,543.18L522.6284197875764,543.18L515.9918404597845,524.1462128587191L436.45605641120295,347.96382399999993Z" style="opacity: 0;"/><path data-target="point-0-26" d="M436.012629059198,341.77157149999994L436.45605641120295,347.96382399999993L515.9918404597845,524.1462128587191L487.34573984330956,427.78891197443033L453.197717938702,341.77157149999994Z" style="opacity: 0;"/><path data-target="point-0-27" d="M415.0727287201556,177.79754165096685L452.32628645254596,336.5733395L469.32237951163575,336.5733395L468.8058598736671,332.618391L446.9103008555186,255.2384924097691Z" style="opacity: 0;"/><path data-target="point-0-28" d="M468.8058598736671,332.618391L469.32237951163575,336.5733395L487.34573984330956,427.78891197443033L515.9918404597845,524.1462128587191L522.6284197875764,543.18L619.3275413278607,543.18L487.98985284500196,332.618391Z" style="opacity: 0;"/><path data-target="point-0-29" d="M483.4778509892434,323.04666349999997L487.98985284500196,332.618391L619.3275413278607,543.18L643.5760526496363,543.18L504.9422426602191,323.04666349999997Z" style="opacity: 0;"/><path data-target="point-0-30" d="M396.3811451243573,129.29825877855288L407.6501188276697,156.72796418872213L499.3180772033454,313.037133L521.1922641590318,313.037133L515.3214891402461,302.5696465Z" style="opacity: 0;"/><path data-target="point-0-31" d="M361.90270418476354,55.30268276597292L396.3811451243573,129.29825877855288L515.3214891402461,302.5696465L537.381554803914,302.5696465L532.0793375760722,291.62318500000003Z" style="opacity: 0;"/><path data-target="point-0-32" d="M333.79167633038406,0L361.90270418476354,55.30268276597292L532.0793375760722,291.62318500000003L553.5010555119723,291.62318500000003L548.9243994173498,280.1755845L337.26966907550275,0Z" style="opacity: 0;"/><path data-target="point-0-33" d="M337.26966907550275,0L548.9243994173498,280.1755845L569.5403665701141,280.1755845L565.8708612433287,268.203843L353.3224278732421,0Z" style="opacity: 0;"/><path data-target="point-0-34" d="M353.3224278732421,0L565.8708612433287,268.203843L585.487897964845,268.203843L582.9346870833764,255.68381549999998L370.36877820363736,0Z" style="opacity: 0;"/><path data-target="point-0-35" d="M370.36877820363736,0L582.9346870833764,255.68381549999998L601.3306120611593,255.68381549999998L600.1340744508705,242.59024449999998L388.5612918643965,0Z" style="opacity: 0;"/><path data-target="point-0-36" d="M388.5612918643965,0L600.1340744508705,242.59024449999998L617.0538971272564,242.59024449999998L617.4895630950328,228.89664949999997L408.0670539411239,0Z" style="opacity: 0;"/><path data-target="point-0-37" d="M408.0670539411239,0L617.4895630950328,228.89664949999997L632.6412877092903,228.89664949999997L635.0245149618389,214.57543699999997L429.0753494697824,0Z" style="opacity: 0;"/><path data-target="point-0-38" d="M429.0753494697824,0L635.0245149618389,214.57543699999997L648.0744230334063,214.57543699999997L652.7652298082337,199.597602L451.7945030172215,0Z" style="opacity: 0;"/><path data-target="point-0-39" d="M451.7945030172215,0L652.7652298082337,199.597602L663.3326780248374,199.597602L670.741501509667,183.932888L476.4592038164668,0Z" style="opacity: 0;"/><path data-target="point-0-40" d="M476.4592038164668,0L670.741501509667,183.932888L678.3930075540757,183.932888L688.9869601721417,167.5496015L503.3284939141999,0Z" style="opacity: 0;"/><path data-target="point-0-41" d="M503.3284939141999,0L688.9869601721417,167.5496015L693.22960424448,167.5496015L707.5395008983093,150.414554L532.6923780095118,0Z" style="opacity: 0;"/><path data-target="point-0-42" d="M532.6923780095118,0L707.5395008983093,150.414554L707.8136793029482,150.414554L724.2337416867493,134.61748539038524L724.3133844250792,130.74765810300556L564.8728509037992,0Z" style="opacity: 0;"/><path data-target="point-0-43" d="M564.8728509037992,0L724.3133844250792,130.74765810300556L740.4545535536704,117.94343763301545L741.2998597594926,110.27635411191419L600.2268372640417,0Z" style="opacity: 0;"/><path data-target="point-0-44" d="M600.2268372640417,0L741.2998597594926,110.27635411191419L756.3311927183088,100.2539338975122L758.6615494129758,89.05228520610028L639.1515215493718,0Z" style="opacity: 0;"/><path data-target="point-0-45" d="M639.1515215493718,0L758.6615494129758,89.05228520610028L785.7602925748723,73.6385865L682.0885038409999,0Z" style="opacity: 0;"/><path data-target="point-0-46" d="M682.0885038409999,0L785.7602925748723,73.6385865L823,73.6385865L823,0Z" style="opacity: 0;"/><path data-target="point-1-0" d="M37.140675341775115,543.18L24.934345562901008,485.654522L0,485.654522L0,543.18Z" style="opacity: 0;"/><path data-target="point-1-1" d="M24.5151960003,482.6588845L24.934345562901008,485.654522L37.140675341775115,543.18L55.46219058711196,543.18L41.5617000437,482.6588845Z" style="opacity: 0;"/><path data-target="point-1-2" d="M0,294.62657885526795L40.7536795766,478.948965L57.907330876513,478.948965L57.27735790449999,475.605692L0,208.57838242191457Z" style="opacity: 0;"/><path data-target="point-1-3" d="M57.27735790449999,475.605692L57.907330876513,478.948965L70.2223479975129,543.18L87.65997266493912,543.18L74.34716070907801,475.605692Z" style="opacity: 0;"/><path data-target="point-1-4" d="M73.7635911192,472.19180599999993L74.34716070907801,475.605692L87.65997266493912,543.18L107.67143451323591,543.18L90.89834317236199,472.19180599999993Z" style="opacity: 0;"/><path data-target="point-1-5" d="M90.1904658083,468.4547275L90.89834317236199,472.19180599999993L107.67143451323591,543.18L125.36088663876413,543.18L107.40888444947801,468.4547275Z" style="opacity: 0;"/><path data-target="point-1-6" d="M46.411115358462936,180.5393017741215L107.40888444947801,468.4547275L125.36088663876413,543.18L140.0065999599,543.18L122.98545023559599,460.78502599999996Z" style="opacity: 0;"/><path data-target="point-1-7" d="M2.6213077131496334,0L46.411115358462936,180.5393017741215L122.98545023559599,460.78502599999996L140.14041441031398,460.78502599999996L139.633726446587,457.0941175L27.860496340312565,0Z" style="opacity: 0;"/><path data-target="point-1-8" d="M27.860496340312565,0L139.633726446587,457.0941175L156.5506833952,457.0941175L156.149227507675,453.232108L72.97481387389506,130.92556927838513L27.90074161991879,0Z" style="opacity: 0;"/><path data-target="point-1-9" d="M72.97481387389506,130.92556927838513L156.149227507675,453.232108L173.018380370574,453.232108L172.600316940174,448.723714L93.5846744181828,186.17840518225216Z" style="opacity: 0;"/><path data-target="point-1-10" d="M93.5846744181828,186.17840518225216L172.600316940174,448.723714L189.434358510725,448.723714L189.09827931012498,443.501038L114.11456790749882,236.36944945534214Z" style="opacity: 0;"/><path data-target="point-1-11" d="M114.11456790749882,236.36944945534214L189.09827931012498,443.501038L205.72205857376198,443.501038L205.794590122786,437.39569499999993Z" style="opacity: 0;"/><path data-target="point-1-12" d="M27.90074161991879,0L72.97481387389506,130.92556927838513L93.5846744181828,186.17840518225216L114.11456790749882,236.36944945534214L205.794590122786,437.39569499999993L221.8064737824,437.39569499999993L222.7989418128,431.130114L28.027295449539594,0Z" style="opacity: 0;"/><path data-target="point-1-13" d="M28.027295449539594,0L222.7989418128,431.130114L237.90673816219999,431.130114L239.723768725361,424.79391899999996L50.05751634646106,0Z" style="opacity: 0;"/><path data-target="point-1-14" d="M50.05751634646106,0L239.723768725361,424.79391899999996L254.028519524014,424.793919L256.42312323415,417.80319249999997L124.91361108925011,131.10270820765214L59.97450902223207,0Z" style="opacity: 0;"/><path data-target="point-1-15" d="M124.91361108925011,131.10270820765214L256.42312323415,417.80319249999997L270.271179590874,417.80319249999997L273.413274688422,410.2584225Z" style="opacity: 0;"/><path data-target="point-1-16" d="M59.97450902223207,0L124.91361108925011,131.10270820765214L273.413274688422,410.2584225L286.32397173724996,410.2584225L290.50926597784996,403.25140049999993L88.77065043593487,0Z" style="opacity: 0;"/><path data-target="point-1-17" d="M88.77065043593487,0L290.50926597784996,403.25140049999993L302.53148089315,403.25140049999993L307.1667449821,397.423079L226.85311328022456,199.55751678793828L135.25022392430012,0Z" style="opacity: 0;"/><path data-target="point-1-18" d="M226.85311328022456,199.55751678793828L307.1667449821,397.423079L318.206049473652,397.423079L324.166461389748,389.563264Z" style="opacity: 0;"/><path data-target="point-1-19" d="M135.25022392430012,0L226.85311328022456,199.55751678793828L324.166461389748,389.563264L334.17961328853795,389.563264L340.205877691862,381.285201L163.5488229974123,0Z" style="opacity: 0;"/><path data-target="point-1-20" d="M163.5488229974123,0L340.205877691862,381.285201L350.978093497,381.285201L356.1633305155,373.0152855L191.83144648847477,0Z" style="opacity: 0;"/><path data-target="point-1-21" d="M191.83144648847477,0L356.1633305155,373.0152855L368.090995137402,373.01528549999995L372.303314011176,366.39120549999996L235.55511993051377,0Z" style="opacity: 0;"/><path data-target="point-1-22" d="M235.55511993051377,0L372.303314011176,366.39120549999996L384.76505815582397,366.39120549999996L388.40543429632396,360.1446355L268.60693149559967,5.684341886080802e-14Z" style="opacity: 0;"/><path data-target="point-1-23" d="M268.60693149559967,5.684341886080802e-14L388.40543429632396,360.1446355L401.54668914112597,360.1446355L403.340488170214,356.135967L402.4663383204737,310.4646929701776L329.16096545364314,0Z" style="opacity: 0;"/><path data-target="point-1-24" d="M402.4663383204737,310.4646929701776L403.340488170214,356.135967L420.055509585786,356.135967L419.456818687497,347.96382399999993Z" style="opacity: 0;"/><path data-target="point-1-25" d="M329.16096545364314,0L402.4663383204737,310.4646929701776L419.456818687497,347.96382399999993L436.45605641120295,347.96382399999993L436.012629059198,341.77157149999994L333.1530485950519,0Z" style="opacity: 0;"/><path data-target="point-1-26" d="M333.1530485950519,0L436.012629059198,341.77157149999994L453.197717938702,341.77157149999994L452.32628645254596,336.5733395L415.0727287201556,177.79754165096685L407.6501188276697,156.72796418872213L396.3811451243573,129.29825877855288L361.90270418476354,55.30268276597292L333.79167633038406,0Z" style="opacity: 0;"/><path data-target="point-1-27" d="M452.32628645254596,336.5733395L453.197717938702,341.77157149999994L487.34573984330956,427.78891197443033L469.32237951163575,336.5733395Z" style="opacity: 0;"/><path data-target="point-1-28" d="M446.9103008555186,255.2384924097691L468.8058598736671,332.618391L487.98985284500196,332.618391L483.4778509892434,323.04666349999997Z" style="opacity: 0;"/><path data-target="point-1-29" d="M407.6501188276697,156.72796418872213L415.0727287201556,177.79754165096685L446.9103008555186,255.2384924097691L483.4778509892434,323.04666349999997L504.9422426602191,323.04666349999997L499.3180772033454,313.037133Z" style="opacity: 0;"/><path data-target="point-1-30" d="M499.3180772033454,313.037133L504.9422426602191,323.04666349999997L643.5760526496363,543.18L655.9247916012825,543.18L521.1922641590318,313.037133Z" style="opacity: 0;"/><path data-target="point-1-31" d="M515.3214891402461,302.5696465L521.1922641590318,313.037133L655.9247916012825,543.18L684.1439448963856,543.18L537.381554803914,302.5696465Z" style="opacity: 0;"/><path data-target="point-1-32" d="M532.0793375760722,291.62318500000003L537.381554803914,302.5696465L684.1439448963856,543.18L713.3714329137986,543.18L553.5010555119723,291.62318500000003Z" style="opacity: 0;"/><path data-target="point-1-33" d="M548.9243994173498,280.1755845L553.5010555119723,291.62318500000003L713.3714329137986,543.18L743.6908973770404,543.18L569.5403665701141,280.1755845Z" style="opacity: 0;"/><path data-target="point-1-34" d="M565.8708612433287,268.203843L569.5403665701141,280.1755845L743.6908973770404,543.18L775.1952183138931,543.18L585.487897964845,268.203843Z" style="opacity: 0;"/><path data-target="point-1-35" d="M582.9346870833764,255.68381549999998L585.487897964845,268.203843L775.1952183138931,543.18L807.9874281981156,543.18L601.3306120611593,255.68381549999998Z" style="opacity: 0;"/><path data-target="point-1-36" d="M600.1340744508705,242.59024449999998L601.3306120611593,255.68381549999998L807.9874281981156,543.18L823,543.18L823,517.5730982529847L617.0538971272564,242.59024449999998Z" style="opacity: 0;"/><path data-target="point-1-37" d="M617.0538971272564,242.59024449999998L823,517.5730982529847L823,472.84475910179003L632.6412877092903,228.89664949999997L617.4895630950328,228.89664949999997Z" style="opacity: 0;"/><path data-target="point-1-38" d="M632.6412877092903,228.89664949999997L823,472.84475910179003L823,429.72874893638914L648.0744230334063,214.57543699999997L635.0245149618389,214.57543699999997Z" style="opacity: 0;"/><path data-target="point-1-39" d="M648.0744230334063,214.57543699999997L823,429.72874893638914L823,388.08455640058844L663.3326780248374,199.597602L652.7652298082337,199.597602Z" style="opacity: 0;"/><path data-target="point-1-40" d="M663.3326780248374,199.597602L823,388.08455640058844L823,347.7752753386568L678.3930075540757,183.932888L670.741501509667,183.932888Z" style="opacity: 0;"/><path data-target="point-1-41" d="M678.3930075540757,183.932888L823,347.7752753386568L823,308.66758960351643L693.22960424448,167.5496015L688.9869601721417,167.5496015Z" style="opacity: 0;"/><path data-target="point-1-42" d="M693.22960424448,167.5496015L823,308.66758960351643L823,270.63548784090005L707.8136793029482,150.414554L707.5395008983093,150.414554Z" style="opacity: 0;"/><path data-target="point-1-43" d="M707.8136793029482,150.414554L823,270.63548784090005L823,233.5542684019365L724.2337416867493,134.61748539038524Z" style="opacity: 0;"/><path data-target="point-1-44" d="M724.2337416867493,134.61748539038524L823,233.5542684019365L823,197.30562619535726L740.4545535536704,117.94343763301545L724.3133844250792,130.74765810300556Z" style="opacity: 0;"/><path data-target="point-1-45" d="M740.4545535536704,117.94343763301545L823,197.30562619535726L823,161.77372525662327L756.3311927183088,100.2539338975122L741.2998597594926,110.27635411191419Z" style="opacity: 0;"/><path data-target="point-1-46" d="M756.3311927183088,100.2539338975122L823,161.77372525662327L823,73.6385865L785.7602925748723,73.6385865L758.6615494129758,89.05228520610028Z" style="opacity: 0;"/></g><g class="series"><path data-target="point-0-0" d="M0,485.654522L24.934345562901008,485.654522L24.5151960003,482.6588845L0,321.1622046561262Z" style="opacity: 0;"/><path data-target="point-0-1" d="M0,321.1622046561262L24.5151960003,482.6588845L41.5617000437,482.6588845L40.7536795766,478.948965L0,294.62657885526795Z" style="opacity: 0;"/><path data-target="point-0-2" d="M40.7536795766,478.948965L41.5617000437,482.6588845L55.46219058711196,543.18L70.2223479975129,543.18L57.907330876513,478.948965Z" style="opacity: 0;"/><path data-target="point-0-3" d="M0,208.57838242191457L57.27735790449999,475.605692L74.34716070907801,475.605692L73.7635911192,472.19180599999993L0,133.51599737190185Z" style="opacity: 0;"/><path data-target="point-0-4" d="M0,133.51599737190185L73.7635911192,472.19180599999993L90.89834317236199,472.19180599999993L90.1904658083,468.4547275L0,54.35708834342921Z" style="opacity: 0;"/><path data-target="point-0-5" d="M0,54.35708834342921L90.1904658083,468.4547275L107.40888444947801,468.4547275L46.411115358462936,180.5393017741215L2.6213077131496334,0L0,0Z" style="opacity: 0;"/><path data-target="point-0-7" d="M122.98545023559599,460.78502599999996L140.0065999599,543.18L156.9440484113357,543.18L140.14041441031398,460.78502599999996Z" style="opacity: 0;"/><path data-target="point-0-8" d="M139.633726446587,457.0941175L140.14041441031398,460.78502599999996L156.9440484113357,543.18L174.7320217792001,543.18L156.5506833952,457.0941175Z" style="opacity: 0;"/><path data-target="point-0-9" d="M156.149227507675,453.232108L156.5506833952,457.0941175L174.7320217792001,543.18L195.2211158460001,543.18L173.018380370574,453.232108Z" style="opacity: 0;"/><path data-target="point-0-10" d="M172.600316940174,448.723714L173.018380370574,453.232108L195.2211158460001,543.18L215.18125409631207,543.18L189.434358510725,448.723714Z" style="opacity: 0;"/><path data-target="point-0-11" d="M189.09827931012498,443.501038L189.434358510725,448.723714L215.18125409631207,543.18L234.20831354528795,543.18L205.72205857376198,443.501038Z" style="opacity: 0;"/><path data-target="point-0-12" d="M205.72205857376198,443.501038L234.20831354528795,543.18L254.55094498139968,543.18L221.8064737824,437.39569499999993L205.794590122786,437.39569499999993Z" style="opacity: 0;"/><path data-target="point-0-13" d="M221.8064737824,437.39569499999993L254.55094498139968,543.18L274.14367129460015,543.18L237.90673816219999,431.130114L222.7989418128,431.130114Z" style="opacity: 0;"/><path data-target="point-0-14" d="M237.90673816219999,431.130114L274.14367129460015,543.18L300.2843276538641,543.18L254.028519524014,424.793919L239.723768725361,424.79391899999996Z" style="opacity: 0;"/><path data-target="point-0-15" d="M254.028519524014,424.793919L300.2843276538641,543.18L318.5136691041357,543.18L270.271179590874,417.80319249999997L256.42312323415,417.80319249999997Z" style="opacity: 0;"/><path data-target="point-0-16" d="M270.271179590874,417.80319249999997L318.5136691041357,543.18L332.9953944139643,543.18L286.32397173724996,410.2584225L273.413274688422,410.2584225Z" style="opacity: 0;"/><path data-target="point-0-17" d="M286.32397173724996,410.2584225L332.9953944139643,543.18L344.82909965023583,543.18L302.53148089315,403.25140049999993L290.50926597784996,403.25140049999993Z" style="opacity: 0;"/><path data-target="point-0-18" d="M302.53148089315,403.25140049999993L344.82909965023583,543.18L382.7559630497999,543.18L318.206049473652,397.423079L307.1667449821,397.423079Z" style="opacity: 0;"/><path data-target="point-0-19" d="M318.206049473652,397.423079L382.7559630497999,543.18L417.51976303671233,543.18L334.17961328853795,389.563264L324.166461389748,389.563264Z" style="opacity: 0;"/><path data-target="point-0-20" d="M334.17961328853795,389.563264L417.51976303671233,543.18L441.9381084708259,543.18L438.9559939966994,537.1914574233562L350.978093497,381.285201L340.205877691862,381.285201Z" style="opacity: 0;"/><path data-target="point-0-21" d="M350.978093497,381.285201L438.9559939966994,537.1914574233562L368.090995137402,373.01528549999995L356.1633305155,373.0152855Z" style="opacity: 0;"/><path data-target="point-0-22" d="M368.090995137402,373.01528549999995L438.9559939966994,537.1914574233562L441.9381084708259,543.18L460.1407328750478,543.18L384.76505815582397,366.39120549999996L372.303314011176,366.39120549999996Z" style="opacity: 0;"/><path data-target="point-0-23" d="M384.76505815582397,366.39120549999996L460.1407328750478,543.18L487.19625315725176,543.18L401.54668914112597,360.1446355L388.40543429632396,360.1446355Z" style="opacity: 0;"/><path data-target="point-0-24" d="M401.54668914112597,360.1446355L487.19625315725176,543.18L521.0368443945365,543.18L420.055509585786,356.135967L403.340488170214,356.135967Z" style="opacity: 0;"/><path data-target="point-0-25" d="M419.456818687497,347.96382399999993L420.055509585786,356.135967L521.0368443945365,543.18L522.6284197875764,543.18L515.9918404597845,524.1462128587191L436.45605641120295,347.96382399999993Z" style="opacity: 0;"/><path data-target="point-0-26" d="M436.012629059198,341.77157149999994L436.45605641120295,347.96382399999993L515.9918404597845,524.1462128587191L487.34573984330956,427.78891197443033L453.197717938702,341.77157149999994Z" style="opacity: 0;"/><path data-target="point-0-27" d="M415.0727287201556,177.79754165096685L452.32628645254596,336.5733395L469.32237951163575,336.5733395L468.8058598736671,332.618391L446.9103008555186,255.2384924097691Z" style="opacity: 0;"/><path data-target="point-0-28" d="M468.8058598736671,332.618391L469.32237951163575,336.5733395L487.34573984330956,427.78891197443033L515.9918404597845,524.1462128587191L522.6284197875764,543.18L619.3275413278607,543.18L487.98985284500196,332.618391Z" style="opacity: 0;"/><path data-target="point-0-29" d="M483.4778509892434,323.04666349999997L487.98985284500196,332.618391L619.3275413278607,543.18L643.5760526496363,543.18L504.9422426602191,323.04666349999997Z" style="opacity: 0;"/><path data-target="point-0-30" d="M396.3811451243573,129.29825877855288L407.6501188276697,156.72796418872213L499.3180772033454,313.037133L521.1922641590318,313.037133L515.3214891402461,302.5696465Z" style="opacity: 0;"/><path data-target="point-0-31" d="M361.90270418476354,55.30268276597292L396.3811451243573,129.29825877855288L515.3214891402461,302.5696465L537.381554803914,302.5696465L532.0793375760722,291.62318500000003Z" style="opacity: 0;"/><path data-target="point-0-32" d="M333.79167633038406,0L361.90270418476354,55.30268276597292L532.0793375760722,291.62318500000003L553.5010555119723,291.62318500000003L548.9243994173498,280.1755845L337.26966907550275,0Z" style="opacity: 0;"/><path data-target="point-0-33" d="M337.26966907550275,0L548.9243994173498,280.1755845L569.5403665701141,280.1755845L565.8708612433287,268.203843L353.3224278732421,0Z" style="opacity: 0;"/><path data-target="point-0-34" d="M353.3224278732421,0L565.8708612433287,268.203843L585.487897964845,268.203843L582.9346870833764,255.68381549999998L370.36877820363736,0Z" style="opacity: 0;"/><path data-target="point-0-35" d="M370.36877820363736,0L582.9346870833764,255.68381549999998L601.3306120611593,255.68381549999998L600.1340744508705,242.59024449999998L388.5612918643965,0Z" style="opacity: 0;"/><path data-target="point-0-36" d="M388.5612918643965,0L600.1340744508705,242.59024449999998L617.0538971272564,242.59024449999998L617.4895630950328,228.89664949999997L408.0670539411239,0Z" style="opacity: 0;"/><path data-target="point-0-37" d="M408.0670539411239,0L617.4895630950328,228.89664949999997L632.6412877092903,228.89664949999997L635.0245149618389,214.57543699999997L429.0753494697824,0Z" style="opacity: 0;"/><path data-target="point-0-38" d="M429.0753494697824,0L635.0245149618389,214.57543699999997L648.0744230334063,214.57543699999997L652.7652298082337,199.597602L451.7945030172215,0Z" style="opacity: 0;"/><path data-target="point-0-39" d="M451.7945030172215,0L652.7652298082337,199.597602L663.3326780248374,199.597602L670.741501509667,183.932888L476.4592038164668,0Z" style="opacity: 0;"/><path data-target="point-0-40" d="M476.4592038164668,0L670.741501509667,183.932888L678.3930075540757,183.932888L688.9869601721417,167.5496015L503.3284939141999,0Z" style="opacity: 0;"/><path data-target="point-0-41" d="M503.3284939141999,0L688.9869601721417,167.5496015L693.22960424448,167.5496015L707.5395008983093,150.414554L532.6923780095118,0Z" style="opacity: 0;"/><path data-target="point-0-42" d="M532.6923780095118,0L707.5395008983093,150.414554L707.8136793029482,150.414554L724.2337416867493,134.61748539038524L724.3133844250792,130.74765810300556L564.8728509037992,0Z" style="opacity: 0;"/><path data-target="point-0-43" d="M564.8728509037992,0L724.3133844250792,130.74765810300556L740.4545535536704,117.94343763301545L741.2998597594926,110.27635411191419L600.2268372640417,0Z" style="opacity: 0;"/><path data-target="point-0-44" d="M600.2268372640417,0L741.2998597594926,110.27635411191419L756.3311927183088,100.2539338975122L758.6615494129758,89.05228520610028L639.1515215493718,0Z" style="opacity: 0;"/><path data-target="point-0-45" d="M639.1515215493718,0L758.6615494129758,89.05228520610028L785.7602925748723,73.6385865L682.0885038409999,0Z" style="opacity: 0;"/><path data-target="point-0-46" d="M682.0885038409999,0L785.7602925748723,73.6385865L823,73.6385865L823,0Z" style="opacity: 0;"/><path data-target="point-1-0" d="M37.140675341775115,543.18L24.934345562901008,485.654522L0,485.654522L0,543.18Z" style="opacity: 0;"/><path data-target="point-1-1" d="M24.5151960003,482.6588845L24.934345562901008,485.654522L37.140675341775115,543.18L55.46219058711196,543.18L41.5617000437,482.6588845Z" style="opacity: 0;"/><path data-target="point-1-2" d="M0,294.62657885526795L40.7536795766,478.948965L57.907330876513,478.948965L57.27735790449999,475.605692L0,208.57838242191457Z" style="opacity: 0;"/><path data-target="point-1-3" d="M57.27735790449999,475.605692L57.907330876513,478.948965L70.2223479975129,543.18L87.65997266493912,543.18L74.34716070907801,475.605692Z" style="opacity: 0;"/><path data-target="point-1-4" d="M73.7635911192,472.19180599999993L74.34716070907801,475.605692L87.65997266493912,543.18L107.67143451323591,543.18L90.89834317236199,472.19180599999993Z" style="opacity: 0;"/><path data-target="point-1-5" d="M90.1904658083,468.4547275L90.89834317236199,472.19180599999993L107.67143451323591,543.18L125.36088663876413,543.18L107.40888444947801,468.4547275Z" style="opacity: 0;"/><path data-target="point-1-6" d="M46.411115358462936,180.5393017741215L107.40888444947801,468.4547275L125.36088663876413,543.18L140.0065999599,543.18L122.98545023559599,460.78502599999996Z" style="opacity: 0;"/><path data-target="point-1-7" d="M2.6213077131496334,0L46.411115358462936,180.5393017741215L122.98545023559599,460.78502599999996L140.14041441031398,460.78502599999996L139.633726446587,457.0941175L27.860496340312565,0Z" style="opacity: 0;"/><path data-target="point-1-8" d="M27.860496340312565,0L139.633726446587,457.0941175L156.5506833952,457.0941175L156.149227507675,453.232108L72.97481387389506,130.92556927838513L27.90074161991879,0Z" style="opacity: 0;"/><path data-target="point-1-9" d="M72.97481387389506,130.92556927838513L156.149227507675,453.232108L173.018380370574,453.232108L172.600316940174,448.723714L93.5846744181828,186.17840518225216Z" style="opacity: 0;"/><path data-target="point-1-10" d="M93.5846744181828,186.17840518225216L172.600316940174,448.723714L189.434358510725,448.723714L189.09827931012498,443.501038L114.11456790749882,236.36944945534214Z" style="opacity: 0;"/><path data-target="point-1-11" d="M114.11456790749882,236.36944945534214L189.09827931012498,443.501038L205.72205857376198,443.501038L205.794590122786,437.39569499999993Z" style="opacity: 0;"/><path data-target="point-1-12" d="M27.90074161991879,0L72.97481387389506,130.92556927838513L93.5846744181828,186.17840518225216L114.11456790749882,236.36944945534214L205.794590122786,437.39569499999993L221.8064737824,437.39569499999993L222.7989418128,431.130114L28.027295449539594,0Z" style="opacity: 0;"/><path data-target="point-1-13" d="M28.027295449539594,0L222.7989418128,431.130114L237.90673816219999,431.130114L239.723768725361,424.79391899999996L50.05751634646106,0Z" style="opacity: 0;"/><path data-target="point-1-14" d="M50.05751634646106,0L239.723768725361,424.79391899999996L254.028519524014,424.793919L256.42312323415,417.80319249999997L124.91361108925011,131.10270820765214L59.97450902223207,0Z" style="opacity: 0;"/><path data-target="point-1-15" d="M124.91361108925011,131.10270820765214L256.42312323415,417.80319249999997L270.271179590874,417.80319249999997L273.413274688422,410.2584225Z" style="opacity: 0;"/><path data-target="point-1-16" d="M59.97450902223207,0L124.91361108925011,131.10270820765214L273.413274688422,410.2584225L286.32397173724996,410.2584225L290.50926597784996,403.25140049999993L88.77065043593487,0Z" style="opacity: 0;"/><path data-target="point-1-17" d="M88.77065043593487,0L290.50926597784996,403.25140049999993L302.53148089315,403.25140049999993L307.1667449821,397.423079L226.85311328022456,199.55751678793828L135.25022392430012,0Z" style="opacity: 0;"/><path data-target="point-1-18" d="M226.85311328022456,199.55751678793828L307.1667449821,397.423079L318.206049473652,397.423079L324.166461389748,389.563264Z" style="opacity: 0;"/><path data-target="point-1-19" d="M135.25022392430012,0L226.85311328022456,199.55751678793828L324.166461389748,389.563264L334.17961328853795,389.563264L340.205877691862,381.285201L163.5488229974123,0Z" style="opacity: 0;"/><path data-target="point-1-20" d="M163.5488229974123,0L340.205877691862,381.285201L350.978093497,381.285201L356.1633305155,373.0152855L191.83144648847477,0Z" style="opacity: 0;"/><path data-target="point-1-21" d="M191.83144648847477,0L356.1633305155,373.0152855L368.090995137402,373.01528549999995L372.303314011176,366.39120549999996L235.55511993051377,0Z" style="opacity: 0;"/><path data-target="point-1-22" d="M235.55511993051377,0L372.303314011176,366.39120549999996L384.76505815582397,366.39120549999996L388.40543429632396,360.1446355L268.60693149559967,5.684341886080802e-14Z" style="opacity: 0;"/><path data-target="point-1-23" d="M268.60693149559967,5.684341886080802e-14L388.40543429632396,360.1446355L401.54668914112597,360.1446355L403.340488170214,356.135967L402.4663383204737,310.4646929701776L329.16096545364314,0Z" style="opacity: 0;"/><path data-target="point-1-24" d="M402.4663383204737,310.4646929701776L403.340488170214,356.135967L420.055509585786,356.135967L419.456818687497,347.96382399999993Z" style="opacity: 0;"/><path data-target="point-1-25" d="M329.16096545364314,0L402.4663383204737,310.4646929701776L419.456818687497,347.96382399999993L436.45605641120295,347.96382399999993L436.012629059198,341.77157149999994L333.1530485950519,0Z" style="opacity: 0;"/><path data-target="point-1-26" d="M333.1530485950519,0L436.012629059198,341.77157149999994L453.197717938702,341.77157149999994L452.32628645254596,336.5733395L415.0727287201556,177.79754165096685L407.6501188276697,156.72796418872213L396.3811451243573,129.29825877855288L361.90270418476354,55.30268276597292L333.79167633038406,0Z" style="opacity: 0;"/><path data-target="point-1-27" d="M452.32628645254596,336.5733395L453.197717938702,341.77157149999994L487.34573984330956,427.78891197443033L469.32237951163575,336.5733395Z" style="opacity: 0;"/><path data-target="point-1-28" d="M446.9103008555186,255.2384924097691L468.8058598736671,332.618391L487.98985284500196,332.618391L483.4778509892434,323.04666349999997Z" style="opacity: 0;"/><path data-target="point-1-29" d="M407.6501188276697,156.72796418872213L415.0727287201556,177.79754165096685L446.9103008555186,255.2384924097691L483.4778509892434,323.04666349999997L504.9422426602191,323.04666349999997L499.3180772033454,313.037133Z" style="opacity: 0;"/><path data-target="point-1-30" d="M499.3180772033454,313.037133L504.9422426602191,323.04666349999997L643.5760526496363,543.18L655.9247916012825,543.18L521.1922641590318,313.037133Z" style="opacity: 0;"/><path data-target="point-1-31" d="M515.3214891402461,302.5696465L521.1922641590318,313.037133L655.9247916012825,543.18L684.1439448963856,543.18L537.381554803914,302.5696465Z" style="opacity: 0;"/><path data-target="point-1-32" d="M532.0793375760722,291.62318500000003L537.381554803914,302.5696465L684.1439448963856,543.18L713.3714329137986,543.18L553.5010555119723,291.62318500000003Z" style="opacity: 0;"/><path data-target="point-1-33" d="M548.9243994173498,280.1755845L553.5010555119723,291.62318500000003L713.3714329137986,543.18L743.6908973770404,543.18L569.5403665701141,280.1755845Z" style="opacity: 0;"/><path data-target="point-1-34" d="M565.8708612433287,268.203843L569.5403665701141,280.1755845L743.6908973770404,543.18L775.1952183138931,543.18L585.487897964845,268.203843Z" style="opacity: 0;"/><path data-target="point-1-35" d="M582.9346870833764,255.68381549999998L585.487897964845,268.203843L775.1952183138931,543.18L807.9874281981156,543.18L601.3306120611593,255.68381549999998Z" style="opacity: 0;"/><path data-target="point-1-36" d="M600.1340744508705,242.59024449999998L601.3306120611593,255.68381549999998L807.9874281981156,543.18L823,543.18L823,517.5730982529847L617.0538971272564,242.59024449999998Z" style="opacity: 0;"/><path data-target="point-1-37" d="M617.0538971272564,242.59024449999998L823,517.5730982529847L823,472.84475910179003L632.6412877092903,228.89664949999997L617.4895630950328,228.89664949999997Z" style="opacity: 0;"/><path data-target="point-1-38" d="M632.6412877092903,228.89664949999997L823,472.84475910179003L823,429.72874893638914L648.0744230334063,214.57543699999997L635.0245149618389,214.57543699999997Z" style="opacity: 0;"/><path data-target="point-1-39" d="M648.0744230334063,214.57543699999997L823,429.72874893638914L823,388.08455640058844L663.3326780248374,199.597602L652.7652298082337,199.597602Z" style="opacity: 0;"/><path data-target="point-1-40" d="M663.3326780248374,199.597602L823,388.08455640058844L823,347.7752753386568L678.3930075540757,183.932888L670.741501509667,183.932888Z" style="opacity: 0;"/><path data-target="point-1-41" d="M678.3930075540757,183.932888L823,347.7752753386568L823,308.66758960351643L693.22960424448,167.5496015L688.9869601721417,167.5496015Z" style="opacity: 0;"/><path data-target="point-1-42" d="M693.22960424448,167.5496015L823,308.66758960351643L823,270.63548784090005L707.8136793029482,150.414554L707.5395008983093,150.414554Z" style="opacity: 0;"/><path data-target="point-1-43" d="M707.8136793029482,150.414554L823,270.63548784090005L823,233.5542684019365L724.2337416867493,134.61748539038524Z" style="opacity: 0;"/><path data-target="point-1-44" d="M724.2337416867493,134.61748539038524L823,233.5542684019365L823,197.30562619535726L740.4545535536704,117.94343763301545L724.3133844250792,130.74765810300556Z" style="opacity: 0;"/><path data-target="point-1-45" d="M740.4545535536704,117.94343763301545L823,197.30562619535726L823,161.77372525662327L756.3311927183088,100.2539338975122L741.2998597594926,110.27635411191419Z" style="opacity: 0;"/><path data-target="point-1-46" d="M756.3311927183088,100.2539338975122L823,161.77372525662327L823,73.6385865L785.7602925748723,73.6385865L758.6615494129758,89.05228520610028Z" style="opacity: 0;"/></g></g><g class="axes"><g class="y axis" fill="none" font-size="10" font-family="sans-serif" text-anchor="end" style="font-family: &quot;Source Sans Pro&quot;;"><path class="domain" stroke="#eeeeee" d="M0.5,543.68V0.5" stroke-dasharray="0" style="visibility: hidden;"/><g class="tick" opacity="1" transform="translate(0,543.68)" style="visibility: visible;"><line stroke="#eeeeee" x2="823" stroke-dasharray="0"/><text fill="rgb(0, 0, 0)" x="-3" dy="0.33em" opacity="1" text-anchor="end" font-size="14">$0</text></g><g class="tick" opacity="1" transform="translate(0, 489.36199951171875)" style="visibility: visible;"><line stroke="#eeeeee" x2="823" stroke-dasharray="0"/><text fill="rgb(0, 0, 0)" x="-3" dy="0.33em" opacity="1" text-anchor="end" font-size="14">$10,000</text></g><g class="tick" opacity="1" transform="translate(0, 435.04400634765625)" style="visibility: visible;"><line stroke="#eeeeee" x2="823" stroke-dasharray="0"/><text fill="rgb(0, 0, 0)" x="-3" dy="0.33em" opacity="1" text-anchor="end" font-size="14">$20,000</text></g><g class="tick" opacity="1" transform="translate(0, 380.72601318359375)" style="visibility: visible;"><line stroke="#eeeeee" x2="823" stroke-dasharray="0"/><text fill="rgb(0, 0, 0)" x="-3" dy="0.33em" opacity="1" text-anchor="end" font-size="14">$30,000</text></g><g class="tick" opacity="1" transform="translate(0, 326.4079895019531)" style="visibility: visible;"><line stroke="#eeeeee" x2="823" stroke-dasharray="0"/><text fill="rgb(0, 0, 0)" x="-3" dy="0.33em" opacity="1" text-anchor="end" font-size="14">$40,000</text></g><g class="tick" opacity="1" transform="translate(0, 272.0899963378906)" style="visibility: visible;"><line stroke="#eeeeee" x2="823" stroke-dasharray="0"/><text fill="rgb(0, 0, 0)" x="-3" dy="0.33em" opacity="1" text-anchor="end" font-size="14">$50,000</text></g><g class="tick" opacity="1" transform="translate(0, 217.77200317382812)" style="visibility: visible;"><line stroke="#eeeeee" x2="823" stroke-dasharray="0"/><text fill="rgb(0, 0, 0)" x="-3" dy="0.33em" opacity="1" text-anchor="end" font-size="14">$60,000</text></g><g class="tick" opacity="1" transform="translate(0, 163.45399475097656)" style="visibility: visible;"><line stroke="#eeeeee" x2="823" stroke-dasharray="0"/><text fill="rgb(0, 0, 0)" x="-3" dy="0.33em" opacity="1" text-anchor="end" font-size="14">$70,000</text></g><g class="tick" opacity="1" transform="translate(0, 109.13600158691406)" style="visibility: visible;"><line stroke="#eeeeee" x2="823" stroke-dasharray="0"/><text fill="rgb(0, 0, 0)" x="-3" dy="0.33em" opacity="1" text-anchor="end" font-size="14">$80,000</text></g><g class="tick" opacity="1" transform="translate(0, 54.81800079345703)" style="visibility: visible;"><line stroke="#eeeeee" x2="823" stroke-dasharray="0"/><text fill="rgb(0, 0, 0)" x="-3" dy="0.33em" opacity="1" text-anchor="end" font-size="14">$90,000</text></g><g class="tick" opacity="1" transform="translate(0, 0.5)" style="visibility: visible;"><line stroke="#eeeeee" x2="823" stroke-dasharray="0"/><text fill="rgb(0, 0, 0)" x="-3" dy="0.33em" opacity="1" text-anchor="end" font-size="14">$100,000</text></g></g><g class="x axis" transform="translate(0,543.18)" fill="none" font-size="10" font-family="sans-serif" text-anchor="middle" style="font-family: &quot;Source Sans Pro&quot;;"><path class="domain" stroke="#eeeeee" d="M0.5,0.5H823.5" stroke-dasharray="0"/><g class="tick" opacity="1" transform="translate(0.5,0)"><line stroke="#eeeeee" y2="6" stroke-dasharray="0"/><text fill="rgb(0, 0, 0)" y="9" dy="-9" opacity="1" dominant-baseline="central" font-size="16" transform="translate(0, 15) rotate(-45)" dx="5" style="text-anchor: end; visibility: visible;">1990</text></g><g class="tick" opacity="1" transform="translate(82.80000000000001,0)"><line stroke="#eeeeee" y2="6" stroke-dasharray="0"/><text fill="rgb(0, 0, 0)" y="9" dy="-9" opacity="1" dominant-baseline="central" font-size="16" transform="translate(0, 15) rotate(-45)" dx="5" style="text-anchor: end; visibility: visible;">1995</text></g><g class="tick" opacity="1" transform="translate(165.10000000000002,0)"><line stroke="#eeeeee" y2="6" stroke-dasharray="0"/><text fill="rgb(0, 0, 0)" y="9" dy="-9" opacity="1" dominant-baseline="central" font-size="16" transform="translate(0, 15) rotate(-45)" dx="5" style="text-anchor: end; visibility: visible;">2000</text></g><g class="tick" opacity="1" transform="translate(247.39999999999998,0)"><line stroke="#eeeeee" y2="6" stroke-dasharray="0"/><text fill="rgb(0, 0, 0)" y="9" dy="-9" opacity="1" dominant-baseline="central" font-size="16" transform="translate(0, 15) rotate(-45)" dx="5" style="text-anchor: end; visibility: visible;">2005</text></g><g class="tick" opacity="1" transform="translate(329.70000000000005,0)"><line stroke="#eeeeee" y2="6" stroke-dasharray="0"/><text fill="rgb(0, 0, 0)" y="9" dy="-9" opacity="1" dominant-baseline="central" font-size="16" transform="translate(0, 15) rotate(-45)" dx="5" style="text-anchor: end; visibility: visible;">2010</text></g><g class="tick" opacity="1" transform="translate(412,0)"><line stroke="#eeeeee" y2="6" stroke-dasharray="0"/><text fill="rgb(0, 0, 0)" y="9" dy="-9" opacity="1" dominant-baseline="central" font-size="16" transform="translate(0, 15) rotate(-45)" dx="5" style="text-anchor: end; visibility: visible;">2015</text></g><g class="tick" opacity="1" transform="translate(494.29999999999995,0)"><line stroke="#eeeeee" y2="6" stroke-dasharray="0"/><text fill="rgb(0, 0, 0)" y="9" dy="-9" opacity="1" dominant-baseline="central" font-size="16" transform="translate(0, 15) rotate(-45)" dx="5" style="text-anchor: end; visibility: visible;">2020</text></g><g class="tick" opacity="1" transform="translate(576.5999999999999,0)"><line stroke="#eeeeee" y2="6" stroke-dasharray="0"/><text fill="rgb(0, 0, 0)" y="9" dy="-9" opacity="1" dominant-baseline="central" font-size="16" transform="translate(0, 15) rotate(-45)" dx="5" style="text-anchor: end; visibility: visible;">2025</text></g><g class="tick" opacity="1" transform="translate(658.9000000000001,0)"><line stroke="#eeeeee" y2="6" stroke-dasharray="0"/><text fill="rgb(0, 0, 0)" y="9" dy="-9" opacity="1" dominant-baseline="central" font-size="16" transform="translate(0, 15) rotate(-45)" dx="5" style="text-anchor: end; visibility: visible;">2030</text></g><g class="tick" opacity="1" transform="translate(741.2,0)"><line stroke="#eeeeee" y2="6" stroke-dasharray="0"/><text fill="rgb(0, 0, 0)" y="9" dy="-9" opacity="1" dominant-baseline="central" font-size="16" transform="translate(0, 15) rotate(-45)" dx="5" style="text-anchor: end; visibility: visible;">2035</text></g><g class="tick" opacity="1" transform="translate(823.5,0)"><line stroke="#eeeeee" y2="6" stroke-dasharray="0"/><text fill="rgb(0, 0, 0)" y="9" dy="-9" opacity="1" dominant-baseline="central" font-size="16" transform="translate(0, 15) rotate(-45)" dx="5" style="text-anchor: end; visibility: visible;">2040</text></g></g></g></g></g></g><g class="annotations below"><g class="axis-highlights" transform="translate(50, 10)" style="opacity: 1;"><g class="line x" transform="translate(477.34, 0)"><line width="0" stroke-dasharray="2 2" stroke="#333333" stroke-width="2" y2="543.18"/><text transform="translate(0, 6) rotate(-90)" fill="#333333" text-anchor="end" dy="-0.5em" font-size="12">Current</text></g></g></g><g id="areas"><g class="series" pointer-events="none"><path class="area" transform="translate(50,10)" fill-opacity="0" fill="rgb(17, 165, 121)" clip-path="url(#clip-0-0)" d="M16.46,485.05974C21.94666666666667,484.317394,27.433333333333334,483.575048,32.92,482.561112C38.406666666666666,481.547176,43.89333333333333,480.17112,49.379999999999995,478.97612399999997C54.86666666666667,477.78112799999997,60.35333333333333,476.58613199999996,65.84,475.39113599999996C71.32666666666667,474.19613999999996,76.81333333333335,473.00114399999995,82.30000000000001,471.80614799999995C87.78666666666668,470.61115199999995,93.27333333333333,469.39986059999995,98.75999999999999,468.22115999999994C104.24666666666667,467.0424593999999,109.73333333333333,465.8818647999999,115.22000000000001,464.7339443999999C120.70666666666668,463.58602399999995,126.19333333333334,462.45983079999996,131.68,461.3336376C137.16666666666666,460.2074444,142.65333333333334,459.1156525999999,148.14,457.97678519999994C153.62666666666667,456.83791779999996,159.11333333333334,455.7569896,164.60000000000002,454.5004332C170.08666666666667,453.2438768,175.57333333333335,451.862389,181.06,450.4374468C186.54666666666665,449.01250459999994,192.03333333333333,447.4825476,197.51999999999998,445.95077999999995C203.00666666666666,444.41901239999993,208.49333333333334,442.88000239999997,213.98000000000002,441.24684119999995C219.4666666666667,439.61367999999993,224.95333333333335,437.88817819999997,230.44000000000003,436.15181279999996C235.92666666666668,434.41544739999995,241.41333333333333,432.787718,246.89999999999998,430.8286488C252.38666666666666,428.8695796,257.87333333333333,426.5248526,263.36,424.3973976C268.8466666666667,422.2699426,274.3333333333333,420.08273779999996,279.82,418.06391879999995C285.3066666666667,416.04509979999995,290.7933333333333,414.0769775999999,296.28,412.28448359999993C301.76666666666665,410.49198959999995,307.25333333333333,409.3531222,312.74,407.3089548C318.2266666666667,405.2647874,323.71333333333337,402.722705,329.20000000000005,400.0194792C334.68666666666667,397.3162534,340.17333333333335,394.12597619999997,345.65999999999997,391.08959999999996C351.14666666666665,388.05322379999996,356.6333333333333,384.53341739999996,362.12,381.80122199999994C367.6066666666667,379.0690265999999,373.09333333333336,377.05020759999996,378.58000000000004,374.6964276C384.06666666666666,372.3426476,389.55333333333334,370.13190499999996,395.03999999999996,367.678542C400.52666666666664,365.22517899999997,406.0133333333333,362.74103579999996,411.5,359.97624959999996C416.9866666666667,357.21146339999996,422.47333333333336,353.80934599999995,427.96000000000004,351.0898248C433.4466666666667,348.3703036,438.93333333333334,346.1704246,444.42,343.6591224C449.9066666666667,341.1478202,455.3933333333334,337.455137712,460.88000000000005,336.0220116C466.3666666666667,334.58888548799996,471.85333333333335,335.305448544,477.34,333.872322432C482.82666666666665,332.43919631999995,488.3133333333333,327.11164161499994,493.79999999999995,323.60540566199995C499.28666666666663,320.09916970899997,504.7733333333333,316.513122508,510.26,312.834906714C515.7466666666667,309.15669092,521.2333333333333,305.39474392899996,526.72,301.53611089799995C532.2066666666667,297.67747786699994,537.6933333333334,293.73102168299994,543.1800000000001,289.68310852799993C548.6666666666667,285.63519537299993,554.1533333333333,281.49510457199995,559.64,277.248631968C565.1266666666667,273.002159364,570.6133333333332,268.659036932,576.0999999999999,264.204272904C581.5866666666666,259.749508876,587.0733333333333,255.193324089,592.56,250.5200478C598.0466666666666,245.846771511,603.5333333333333,241.067122472,609.02,236.16461517C614.5066666666667,231.262107868,619.9933333333333,226.24798612899997,625.48,221.10500398799996C630.9666666666667,215.96202184699996,636.4533333333334,210.70197536299997,641.94,205.30672232399996C647.4266666666667,199.91146928499995,652.9133333333334,194.39338514199997,658.4000000000001,188.73348575399996C663.8866666666668,183.07358636599997,669.3733333333333,177.28485373499993,674.86,171.34732599599994C680.3466666666667,165.40979825699995,685.8333333333333,159.33710017499993,691.3199999999999,153.10831931999996C696.8066666666666,146.87953846499994,702.2933333333333,140.50895141799995,707.78,133.97464086599996C713.2666666666667,127.44033031399997,718.7533333333333,120.75727897199998,724.24,113.902456008C729.7266666666667,107.04763304400002,735.2133333333334,100.03677257200006,740.7,92.84570308200006C746.1866666666667,85.65463359200005,751.6733333333334,78.29984059699999,757.1600000000001,70.75603906799995C762.6466666666668,63.212237538999965,768.1333333333333,55.397565723499994,773.62,47.58289390800002L773.62,47.58289390800002C768.1333333333333,55.397565723499994,762.6466666666668,63.212237538999965,757.1600000000001,70.75603906799995C751.6733333333334,78.29984059699999,746.1866666666667,85.65463359200005,740.7,92.84570308200006C735.2133333333334,100.03677257200006,729.7266666666667,107.04763304400002,724.24,113.902456008C718.7533333333333,120.75727897199998,713.2666666666667,127.44033031399997,707.78,133.97464086599996C702.2933333333333,140.50895141799995,696.8066666666666,146.87953846499994,691.3199999999999,153.10831931999996C685.8333333333333,159.33710017499993,680.3466666666667,165.40979825699995,674.86,171.34732599599994C669.3733333333333,177.28485373499993,663.8866666666668,183.07358636599997,658.4000000000001,188.73348575399996C652.9133333333334,194.39338514199997,647.4266666666667,199.91146928499995,641.94,205.30672232399996C636.4533333333334,210.70197536299997,630.9666666666667,215.96202184699996,625.48,221.10500398799996C619.9933333333333,226.24798612899997,614.5066666666667,231.262107868,609.02,236.16461517C603.5333333333333,241.067122472,598.0466666666666,245.846771511,592.56,250.5200478C587.0733333333333,255.193324089,581.5866666666666,259.749508876,576.0999999999999,264.204272904C570.6133333333332,268.659036932,565.1266666666667,273.002159364,559.64,277.248631968C554.1533333333333,281.49510457199995,548.6666666666667,285.63519537299993,543.1800000000001,289.68310852799993C537.6933333333334,293.73102168299994,532.2066666666667,297.67747786699994,526.72,301.53611089799995C521.2333333333333,305.39474392899996,515.7466666666667,309.15669092,510.26,312.834906714C504.7733333333333,316.513122508,499.28666666666663,320.09916970899997,493.79999999999995,323.60540566199995C488.3133333333333,327.11164161499994,482.82666666666665,332.43919631999995,477.34,333.872322432C471.85333333333335,335.305448544,466.3666666666667,334.58888548799996,460.88000000000005,336.0220116C455.3933333333334,337.455137712,449.9066666666667,341.1478202,444.42,343.6591224C438.93333333333334,346.1704246,433.4466666666667,348.3703036,427.96000000000004,351.0898248C422.47333333333336,353.80934599999995,416.9866666666667,357.21146339999996,411.5,359.97624959999996C406.0133333333333,362.74103579999996,400.52666666666664,365.22517899999997,395.03999999999996,367.678542C389.55333333333334,370.13190499999996,384.06666666666666,372.3426476,378.58000000000004,374.6964276C373.09333333333336,377.05020759999996,367.6066666666667,379.0690265999999,362.12,381.80122199999994C356.6333333333333,384.53341739999996,351.14666666666665,388.05322379999996,345.65999999999997,391.08959999999996C340.17333333333335,394.12597619999997,334.68666666666667,397.3162534,329.20000000000005,400.0194792C323.71333333333337,402.722705,318.2266666666667,405.2647874,312.74,407.3089548C307.25333333333333,409.3531222,301.76666666666665,410.49198959999995,296.28,412.28448359999993C290.7933333333333,414.0769775999999,285.3066666666667,416.04509979999995,279.82,418.06391879999995C274.3333333333333,420.08273779999996,268.8466666666667,422.2699426,263.36,424.3973976C257.87333333333333,426.5248526,252.38666666666666,428.8695796,246.89999999999998,430.8286488C241.41333333333333,432.787718,235.92666666666668,434.41544739999995,230.44000000000003,436.15181279999996C224.95333333333335,437.88817819999997,219.4666666666667,439.61367999999993,213.98000000000002,441.24684119999995C208.49333333333334,442.88000239999997,203.00666666666666,444.41901239999993,197.51999999999998,445.95077999999995C192.03333333333333,447.4825476,186.54666666666665,449.01250459999994,181.06,450.4374468C175.57333333333335,451.862389,170.08666666666667,453.2438768,164.60000000000002,454.5004332C159.11333333333334,455.7569896,153.62666666666667,456.83791779999996,148.14,457.97678519999994C142.65333333333334,459.1156525999999,137.16666666666666,460.2074444,131.68,461.3336376C126.19333333333334,462.45983079999996,120.70666666666668,463.58602399999995,115.22000000000001,464.7339443999999C109.73333333333333,465.8818647999999,104.24666666666667,467.0424593999999,98.75999999999999,468.22115999999994C93.27333333333333,469.39986059999995,87.78666666666668,470.61115199999995,82.30000000000001,471.80614799999995C76.81333333333335,473.00114399999995,71.32666666666667,474.19613999999996,65.84,475.39113599999996C60.35333333333333,476.58613199999996,54.86666666666667,477.78112799999997,49.379999999999995,478.97612399999997C43.89333333333333,480.17112,38.406666666666666,481.547176,32.92,482.561112C27.433333333333334,483.575048,21.94666666666667,484.317394,16.46,485.05974Z"/></g><g class="series" pointer-events="none"><path class="area" transform="translate(50,10)" fill-opacity="0" fill="rgb(204, 80, 62)" clip-path="url(#clip-0-1)" d="M16.46,486.2493042C21.94666666666667,485.11360535,27.433333333333334,483.97790649999996,32.92,482.7566568C38.406666666666666,481.5354071,43.89333333333333,480.0778741,49.379999999999995,478.92180599999995C54.86666666666667,477.7657378999999,60.35333333333333,476.8776385999999,65.84,475.8202481999999C71.32666666666667,474.76285779999995,76.81333333333335,473.76612249999994,82.30000000000001,472.57746359999993C87.78666666666668,471.3888046999999,93.27333333333333,469.9955479999999,98.75999999999999,468.68829479999994C104.24666666666667,467.38104159999995,109.73333333333333,466.1425911999999,115.22000000000001,464.7339443999999C120.70666666666668,463.32529759999994,126.19333333333334,461.65682969999995,131.68,460.23641399999997C137.16666666666666,458.8159983,142.65333333333334,457.59022209999995,148.14,456.21145019999994C153.62666666666667,454.83267829999994,159.11333333333334,453.49736079999997,164.60000000000002,451.96378259999994C170.08666666666667,450.4302043999999,175.57333333333335,448.82872869999994,181.06,447.0099809999999C186.54666666666665,445.1912332999999,192.03333333333333,443.29553509999994,197.51999999999998,441.05129639999996C203.00666666666666,438.8070577,208.49333333333334,436.0350291,213.98000000000002,433.5445488C219.4666666666667,431.05406849999997,224.95333333333335,428.57264119999996,230.44000000000003,426.10841459999995C235.92666666666668,423.64418799999993,241.41333333333333,421.24242709999993,246.89999999999998,418.7591891999999C252.38666666666666,416.2759512999999,257.87333333333333,413.92669779999994,263.36,411.20898719999997C268.8466666666667,408.4912766,274.3333333333333,405.284704,279.82,402.45292559999996C285.3066666666667,399.62114719999994,290.7933333333333,396.7042706,296.28,394.21831679999997C301.76666666666665,391.73236299999996,307.25333333333333,390.0557473999999,312.74,387.53720279999993C318.2266666666667,385.01865819999995,323.71333333333337,381.783116,329.20000000000005,379.1070492C334.68666666666667,376.4309824,340.17333333333335,373.9604187,345.65999999999997,371.480802C351.14666666666665,369.0011853,356.6333333333333,366.46181879999995,362.12,364.22934899999996C367.6066666666667,361.99687919999997,373.09333333333336,360.0224199,378.58000000000004,358.0859832C384.06666666666666,356.1495465,389.55333333333334,352.82075839999993,395.03999999999996,352.61072879999995C400.52666666666664,352.40069919999996,406.0133333333333,352.50571399999995,411.5,352.29568439999997C416.9866666666667,352.0856548,422.47333333333336,346.9064335,427.96000000000004,344.83782299999996C433.4466666666667,342.7692125,438.93333333333334,341.16954739999994,444.42,339.88402139999994C449.9066666666667,338.59849539999993,455.3933333333334,338.5445938379999,460.88000000000005,337.12466699999993C466.3666666666667,335.70474016199995,471.85333333333335,333.80391796399994,477.34,331.36446037199994C482.82666666666665,328.92500277999994,488.3133333333333,325.50877175299996,493.79999999999995,322.48792144799995C499.28666666666663,319.46707114299994,504.7733333333333,316.386815052,510.26,313.239358542C515.7466666666667,310.091902032,521.2333333333333,306.882532055,526.72,303.603182388C532.2066666666667,300.323832721,537.6933333333334,296.980034747,543.1800000000001,293.56326054C548.6666666666667,290.146486333,554.1533333333333,286.66251170699996,559.64,283.102537146C565.1266666666667,279.542562585,570.6133333333332,275.912572122,576.0999999999999,272.203413174C581.5866666666666,268.49425422599995,587.0733333333333,264.712173363,592.56,260.847583458C598.0466666666666,256.982993553,603.5333333333333,253.04242181899997,609.02,249.01587374399998C614.5066666666667,244.98932566899998,619.9933333333333,240.88358194999995,625.48,236.68829500799995C630.9666666666667,232.49300806599996,636.4533333333334,228.215248294,641.94,223.844152092C647.4266666666667,219.47305589,652.9133333333334,215.01600145299997,658.4000000000001,210.46171779599996C663.8866666666668,205.90743413899997,669.3733333333333,201.26358915299997,674.86,196.51845014999998C680.3466666666667,191.773311147,685.8333333333333,186.93488097899998,691.3199999999999,181.990883778C696.8066666666666,177.046886577,702.2933333333333,172.00565110300005,707.78,166.85446694400002C713.2666666666667,161.703282785,718.7533333333333,156.45083176799992,724.24,151.08377882399992C729.7266666666667,145.71672587999993,735.2133333333334,140.244124009,740.7,134.65214928C746.1866666666667,129.06017455100002,751.6733333333334,123.35824208400003,757.1600000000001,117.53193045C762.6466666666668,111.70561881600003,768.1333333333333,105.69994914600002,773.62,99.69427947600002L773.62,99.69427947600002C768.1333333333333,105.69994914600002,762.6466666666668,111.70561881600003,757.1600000000001,117.53193045C751.6733333333334,123.35824208400003,746.1866666666667,129.06017455100002,740.7,134.65214928C735.2133333333334,140.244124009,729.7266666666667,145.71672587999993,724.24,151.08377882399992C718.7533333333333,156.45083176799992,713.2666666666667,161.703282785,707.78,166.85446694400002C702.2933333333333,172.00565110300005,696.8066666666666,177.046886577,691.3199999999999,181.990883778C685.8333333333333,186.93488097899998,680.3466666666667,191.773311147,674.86,196.51845014999998C669.3733333333333,201.26358915299997,663.8866666666668,205.90743413899997,658.4000000000001,210.46171779599996C652.9133333333334,215.01600145299997,647.4266666666667,219.47305589,641.94,223.844152092C636.4533333333334,228.215248294,630.9666666666667,232.49300806599996,625.48,236.68829500799995C619.9933333333333,240.88358194999995,614.5066666666667,244.98932566899998,609.02,249.01587374399998C603.5333333333333,253.04242181899997,598.0466666666666,256.982993553,592.56,260.847583458C587.0733333333333,264.712173363,581.5866666666666,268.49425422599995,576.0999999999999,272.203413174C570.6133333333332,275.912572122,565.1266666666667,279.542562585,559.64,283.102537146C554.1533333333333,286.66251170699996,548.6666666666667,290.146486333,543.1800000000001,293.56326054C537.6933333333334,296.980034747,532.2066666666667,300.323832721,526.72,303.603182388C521.2333333333333,306.882532055,515.7466666666667,310.091902032,510.26,313.239358542C504.7733333333333,316.386815052,499.28666666666663,319.46707114299994,493.79999999999995,322.48792144799995C488.3133333333333,325.50877175299996,482.82666666666665,328.92500277999994,477.34,331.36446037199994C471.85333333333335,333.80391796399994,466.3666666666667,335.70474016199995,460.88000000000005,337.12466699999993C455.3933333333334,338.5445938379999,449.9066666666667,338.59849539999993,444.42,339.88402139999994C438.93333333333334,341.16954739999994,433.4466666666667,342.7692125,427.96000000000004,344.83782299999996C422.47333333333336,346.9064335,416.9866666666667,352.0856548,411.5,352.29568439999997C406.0133333333333,352.50571399999995,400.52666666666664,352.40069919999996,395.03999999999996,352.61072879999995C389.55333333333334,352.82075839999993,384.06666666666666,356.1495465,378.58000000000004,358.0859832C373.09333333333336,360.0224199,367.6066666666667,361.99687919999997,362.12,364.22934899999996C356.6333333333333,366.46181879999995,351.14666666666665,369.0011853,345.65999999999997,371.480802C340.17333333333335,373.9604187,334.68666666666667,376.4309824,329.20000000000005,379.1070492C323.71333333333337,381.783116,318.2266666666667,385.01865819999995,312.74,387.53720279999993C307.25333333333333,390.0557473999999,301.76666666666665,391.73236299999996,296.28,394.21831679999997C290.7933333333333,396.7042706,285.3066666666667,399.62114719999994,279.82,402.45292559999996C274.3333333333333,405.284704,268.8466666666667,408.4912766,263.36,411.20898719999997C257.87333333333333,413.92669779999994,252.38666666666666,416.2759512999999,246.89999999999998,418.7591891999999C241.41333333333333,421.24242709999993,235.92666666666668,423.64418799999993,230.44000000000003,426.10841459999995C224.95333333333335,428.57264119999996,219.4666666666667,431.05406849999997,213.98000000000002,433.5445488C208.49333333333334,436.0350291,203.00666666666666,438.8070577,197.51999999999998,441.05129639999996C192.03333333333333,443.29553509999994,186.54666666666665,445.1912332999999,181.06,447.0099809999999C175.57333333333335,448.82872869999994,170.08666666666667,450.4302043999999,164.60000000000002,451.96378259999994C159.11333333333334,453.49736079999997,153.62666666666667,454.83267829999994,148.14,456.21145019999994C142.65333333333334,457.59022209999995,137.16666666666666,458.8159983,131.68,460.23641399999997C126.19333333333334,461.65682969999995,120.70666666666668,463.32529759999994,115.22000000000001,464.7339443999999C109.73333333333333,466.1425911999999,104.24666666666667,467.38104159999995,98.75999999999999,468.68829479999994C93.27333333333333,469.9955479999999,87.78666666666668,471.3888046999999,82.30000000000001,472.57746359999993C76.81333333333335,473.76612249999994,71.32666666666667,474.76285779999995,65.84,475.8202481999999C60.35333333333333,476.8776385999999,54.86666666666667,477.7657378999999,49.379999999999995,478.92180599999995C43.89333333333333,480.0778741,38.406666666666666,481.5354071,32.92,482.7566568C27.433333333333334,483.97790649999996,21.94666666666667,485.11360535,16.46,486.2493042Z"/></g></g><g id="lines"><g class="series"><clipPath id="clip-0-0"><rect width="823" y="-10" height="563.18"/></clipPath><path class="line" opacity="1" fill="none" stroke="rgb(17, 165, 121)" stroke-width="2" transform="translate(50,10)" clip-path="url(#clip-0-0)" d="M16.46,485.05974C21.94666666666667,484.317394,27.433333333333334,483.575048,32.92,482.561112C38.406666666666666,481.547176,43.89333333333333,480.17112,49.379999999999995,478.97612399999997C54.86666666666667,477.78112799999997,60.35333333333333,476.58613199999996,65.84,475.39113599999996C71.32666666666667,474.19613999999996,76.81333333333335,473.00114399999995,82.30000000000001,471.80614799999995C87.78666666666668,470.61115199999995,93.27333333333333,469.39986059999995,98.75999999999999,468.22115999999994C104.24666666666667,467.0424593999999,109.73333333333333,465.8818647999999,115.22000000000001,464.7339443999999C120.70666666666668,463.58602399999995,126.19333333333334,462.45983079999996,131.68,461.3336376C137.16666666666666,460.2074444,142.65333333333334,459.1156525999999,148.14,457.97678519999994C153.62666666666667,456.83791779999996,159.11333333333334,455.7569896,164.60000000000002,454.5004332C170.08666666666667,453.2438768,175.57333333333335,451.862389,181.06,450.4374468C186.54666666666665,449.01250459999994,192.03333333333333,447.4825476,197.51999999999998,445.95077999999995C203.00666666666666,444.41901239999993,208.49333333333334,442.88000239999997,213.98000000000002,441.24684119999995C219.4666666666667,439.61367999999993,224.95333333333335,437.88817819999997,230.44000000000003,436.15181279999996C235.92666666666668,434.41544739999995,241.41333333333333,432.787718,246.89999999999998,430.8286488C252.38666666666666,428.8695796,257.87333333333333,426.5248526,263.36,424.3973976C268.8466666666667,422.2699426,274.3333333333333,420.08273779999996,279.82,418.06391879999995C285.3066666666667,416.04509979999995,290.7933333333333,414.0769775999999,296.28,412.28448359999993C301.76666666666665,410.49198959999995,307.25333333333333,409.3531222,312.74,407.3089548C318.2266666666667,405.2647874,323.71333333333337,402.722705,329.20000000000005,400.0194792C334.68666666666667,397.3162534,340.17333333333335,394.12597619999997,345.65999999999997,391.08959999999996C351.14666666666665,388.05322379999996,356.6333333333333,384.53341739999996,362.12,381.80122199999994C367.6066666666667,379.0690265999999,373.09333333333336,377.05020759999996,378.58000000000004,374.6964276C384.06666666666666,372.3426476,389.55333333333334,370.13190499999996,395.03999999999996,367.678542C400.52666666666664,365.22517899999997,406.0133333333333,362.74103579999996,411.5,359.97624959999996C416.9866666666667,357.21146339999996,422.47333333333336,353.80934599999995,427.96000000000004,351.0898248C433.4466666666667,348.3703036,438.93333333333334,346.1704246,444.42,343.6591224C449.9066666666667,341.1478202,455.3933333333334,337.455137712,460.88000000000005,336.0220116C466.3666666666667,334.58888548799996,471.85333333333335,335.305448544,477.34,333.872322432C482.82666666666665,332.43919631999995,488.3133333333333,327.11164161499994,493.79999999999995,323.60540566199995C499.28666666666663,320.09916970899997,504.7733333333333,316.513122508,510.26,312.834906714C515.7466666666667,309.15669092,521.2333333333333,305.39474392899996,526.72,301.53611089799995C532.2066666666667,297.67747786699994,537.6933333333334,293.73102168299994,543.1800000000001,289.68310852799993C548.6666666666667,285.63519537299993,554.1533333333333,281.49510457199995,559.64,277.248631968C565.1266666666667,273.002159364,570.6133333333332,268.659036932,576.0999999999999,264.204272904C581.5866666666666,259.749508876,587.0733333333333,255.193324089,592.56,250.5200478C598.0466666666666,245.846771511,603.5333333333333,241.067122472,609.02,236.16461517C614.5066666666667,231.262107868,619.9933333333333,226.24798612899997,625.48,221.10500398799996C630.9666666666667,215.96202184699996,636.4533333333334,210.70197536299997,641.94,205.30672232399996C647.4266666666667,199.91146928499995,652.9133333333334,194.39338514199997,658.4000000000001,188.73348575399996C663.8866666666668,183.07358636599997,669.3733333333333,177.28485373499993,674.86,171.34732599599994C680.3466666666667,165.40979825699995,685.8333333333333,159.33710017499993,691.3199999999999,153.10831931999996C696.8066666666666,146.87953846499994,702.2933333333333,140.50895141799995,707.78,133.97464086599996C713.2666666666667,127.44033031399997,718.7533333333333,120.75727897199998,724.24,113.902456008C729.7266666666667,107.04763304400002,735.2133333333334,100.03677257200006,740.7,92.84570308200006C746.1866666666667,85.65463359200005,751.6733333333334,78.29984059699999,757.1600000000001,70.75603906799995C762.6466666666668,63.212237538999965,768.1333333333333,55.397565723499994,773.62,47.58289390800002"/><text class="label" font-size="11" alignment-baseline="middle" opacity="1" x="5" fill="rgb(17, 165, 121)" transform="translate(823.6199951171875, 57.58289337158203)"/></g><g class="series"><clipPath id="clip-0-1"><rect width="823" y="-10" height="563.18"/></clipPath><path class="line" opacity="1" fill="none" stroke="rgb(204, 80, 62)" stroke-width="2" transform="translate(50,10)" clip-path="url(#clip-0-1)" d="M16.46,486.2493042C21.94666666666667,485.11360535,27.433333333333334,483.97790649999996,32.92,482.7566568C38.406666666666666,481.5354071,43.89333333333333,480.0778741,49.379999999999995,478.92180599999995C54.86666666666667,477.7657378999999,60.35333333333333,476.8776385999999,65.84,475.8202481999999C71.32666666666667,474.76285779999995,76.81333333333335,473.76612249999994,82.30000000000001,472.57746359999993C87.78666666666668,471.3888046999999,93.27333333333333,469.9955479999999,98.75999999999999,468.68829479999994C104.24666666666667,467.38104159999995,109.73333333333333,466.1425911999999,115.22000000000001,464.7339443999999C120.70666666666668,463.32529759999994,126.19333333333334,461.65682969999995,131.68,460.23641399999997C137.16666666666666,458.8159983,142.65333333333334,457.59022209999995,148.14,456.21145019999994C153.62666666666667,454.83267829999994,159.11333333333334,453.49736079999997,164.60000000000002,451.96378259999994C170.08666666666667,450.4302043999999,175.57333333333335,448.82872869999994,181.06,447.0099809999999C186.54666666666665,445.1912332999999,192.03333333333333,443.29553509999994,197.51999999999998,441.05129639999996C203.00666666666666,438.8070577,208.49333333333334,436.0350291,213.98000000000002,433.5445488C219.4666666666667,431.05406849999997,224.95333333333335,428.57264119999996,230.44000000000003,426.10841459999995C235.92666666666668,423.64418799999993,241.41333333333333,421.24242709999993,246.89999999999998,418.7591891999999C252.38666666666666,416.2759512999999,257.87333333333333,413.92669779999994,263.36,411.20898719999997C268.8466666666667,408.4912766,274.3333333333333,405.284704,279.82,402.45292559999996C285.3066666666667,399.62114719999994,290.7933333333333,396.7042706,296.28,394.21831679999997C301.76666666666665,391.73236299999996,307.25333333333333,390.0557473999999,312.74,387.53720279999993C318.2266666666667,385.01865819999995,323.71333333333337,381.783116,329.20000000000005,379.1070492C334.68666666666667,376.4309824,340.17333333333335,373.9604187,345.65999999999997,371.480802C351.14666666666665,369.0011853,356.6333333333333,366.46181879999995,362.12,364.22934899999996C367.6066666666667,361.99687919999997,373.09333333333336,360.0224199,378.58000000000004,358.0859832C384.06666666666666,356.1495465,389.55333333333334,352.82075839999993,395.03999999999996,352.61072879999995C400.52666666666664,352.40069919999996,406.0133333333333,352.50571399999995,411.5,352.29568439999997C416.9866666666667,352.0856548,422.47333333333336,346.9064335,427.96000000000004,344.83782299999996C433.4466666666667,342.7692125,438.93333333333334,341.16954739999994,444.42,339.88402139999994C449.9066666666667,338.59849539999993,455.3933333333334,338.5445938379999,460.88000000000005,337.12466699999993C466.3666666666667,335.70474016199995,471.85333333333335,333.80391796399994,477.34,331.36446037199994C482.82666666666665,328.92500277999994,488.3133333333333,325.50877175299996,493.79999999999995,322.48792144799995C499.28666666666663,319.46707114299994,504.7733333333333,316.386815052,510.26,313.239358542C515.7466666666667,310.091902032,521.2333333333333,306.882532055,526.72,303.603182388C532.2066666666667,300.323832721,537.6933333333334,296.980034747,543.1800000000001,293.56326054C548.6666666666667,290.146486333,554.1533333333333,286.66251170699996,559.64,283.102537146C565.1266666666667,279.542562585,570.6133333333332,275.912572122,576.0999999999999,272.203413174C581.5866666666666,268.49425422599995,587.0733333333333,264.712173363,592.56,260.847583458C598.0466666666666,256.982993553,603.5333333333333,253.04242181899997,609.02,249.01587374399998C614.5066666666667,244.98932566899998,619.9933333333333,240.88358194999995,625.48,236.68829500799995C630.9666666666667,232.49300806599996,636.4533333333334,228.215248294,641.94,223.844152092C647.4266666666667,219.47305589,652.9133333333334,215.01600145299997,658.4000000000001,210.46171779599996C663.8866666666668,205.90743413899997,669.3733333333333,201.26358915299997,674.86,196.51845014999998C680.3466666666667,191.773311147,685.8333333333333,186.93488097899998,691.3199999999999,181.990883778C696.8066666666666,177.046886577,702.2933333333333,172.00565110300005,707.78,166.85446694400002C713.2666666666667,161.703282785,718.7533333333333,156.45083176799992,724.24,151.08377882399992C729.7266666666667,145.71672587999993,735.2133333333334,140.244124009,740.7,134.65214928C746.1866666666667,129.06017455100002,751.6733333333334,123.35824208400003,757.1600000000001,117.53193045C762.6466666666668,111.70561881600003,768.1333333333333,105.69994914600002,773.62,99.69427947600002"/><text class="label" font-size="11" alignment-baseline="middle" opacity="1" x="5" fill="rgb(204, 80, 62)" transform="translate(823.6199951171875, 109.69428253173828)"/></g></g><g id="data-points"><g class="series" transform="translate(50,10)"><path class="data-point" fill="rgb(17, 165, 121)" data-type="point" transform="translate(0, 0)" d="M13.46,485.05974A3,3,0,1,1,19.46,485.05974A3,3,0,1,1,13.46,485.05974Z" id="point-0-0" opacity="1"/><path class="data-point" fill="rgb(17, 165, 121)" data-type="point" transform="translate(0, 0)" d="M29.92,482.561112A3,3,0,1,1,35.92,482.561112A3,3,0,1,1,29.92,482.561112Z" id="point-0-1" opacity="1"/><path class="data-point" fill="rgb(17, 165, 121)" data-type="point" transform="translate(0, 0)" d="M46.379999999999995,478.97612399999997A3,3,0,1,1,52.379999999999995,478.97612399999997A3,3,0,1,1,46.379999999999995,478.97612399999997Z" id="point-0-2" opacity="1"/><path class="data-point" fill="rgb(17, 165, 121)" data-type="point" transform="translate(0, 0)" d="M62.84,475.39113599999996A3,3,0,1,1,68.84,475.39113599999996A3,3,0,1,1,62.84,475.39113599999996Z" id="point-0-3" opacity="1"/><path class="data-point" fill="rgb(17, 165, 121)" data-type="point" transform="translate(0, 0)" d="M79.30000000000001,471.80614799999995A3,3,0,1,1,85.30000000000001,471.80614799999995A3,3,0,1,1,79.30000000000001,471.80614799999995Z" id="point-0-4" opacity="1"/><path class="data-point" fill="rgb(17, 165, 121)" data-type="point" transform="translate(0, 0)" d="M95.75999999999999,468.22115999999994A3,3,0,1,1,101.75999999999999,468.22115999999994A3,3,0,1,1,95.75999999999999,468.22115999999994Z" id="point-0-5" opacity="1"/><path class="data-point" fill="rgb(17, 165, 121)" data-type="point" transform="translate(0, 0)" d="M112.22000000000001,464.7339443999999A3,3,0,1,1,118.22000000000001,464.7339443999999A3,3,0,1,1,112.22000000000001,464.7339443999999Z" id="point-0-6" opacity="1"/><path class="data-point" fill="rgb(17, 165, 121)" data-type="point" transform="translate(0, 0)" d="M128.68,461.3336376A3,3,0,1,1,134.68,461.3336376A3,3,0,1,1,128.68,461.3336376Z" id="point-0-7" opacity="1"/><path class="data-point" fill="rgb(17, 165, 121)" data-type="point" transform="translate(0, 0)" d="M145.14,457.97678519999994A3,3,0,1,1,151.14,457.97678519999994A3,3,0,1,1,145.14,457.97678519999994Z" id="point-0-8" opacity="1"/><path class="data-point" fill="rgb(17, 165, 121)" data-type="point" transform="translate(0, 0)" d="M161.60000000000002,454.5004332A3,3,0,1,1,167.60000000000002,454.5004332A3,3,0,1,1,161.60000000000002,454.5004332Z" id="point-0-9" opacity="1"/><path class="data-point" fill="rgb(17, 165, 121)" data-type="point" transform="translate(0, 0)" d="M178.06,450.4374468A3,3,0,1,1,184.06,450.4374468A3,3,0,1,1,178.06,450.4374468Z" id="point-0-10" opacity="1"/><path class="data-point" fill="rgb(17, 165, 121)" data-type="point" transform="translate(0, 0)" d="M194.51999999999998,445.95077999999995A3,3,0,1,1,200.51999999999998,445.95077999999995A3,3,0,1,1,194.51999999999998,445.95077999999995Z" id="point-0-11" opacity="1"/><path class="data-point" fill="rgb(17, 165, 121)" data-type="point" transform="translate(0, 0)" d="M210.98000000000002,441.24684119999995A3,3,0,1,1,216.98000000000002,441.24684119999995A3,3,0,1,1,210.98000000000002,441.24684119999995Z" id="point-0-12" opacity="1"/><path class="data-point" fill="rgb(17, 165, 121)" data-type="point" transform="translate(0, 0)" d="M227.44000000000003,436.15181279999996A3,3,0,1,1,233.44000000000003,436.15181279999996A3,3,0,1,1,227.44000000000003,436.15181279999996Z" id="point-0-13" opacity="1"/><path class="data-point" fill="rgb(17, 165, 121)" data-type="point" transform="translate(0, 0)" d="M243.89999999999998,430.8286488A3,3,0,1,1,249.89999999999998,430.8286488A3,3,0,1,1,243.89999999999998,430.8286488Z" id="point-0-14" opacity="1"/><path class="data-point" fill="rgb(17, 165, 121)" data-type="point" transform="translate(0, 0)" d="M260.36,424.3973976A3,3,0,1,1,266.36,424.3973976A3,3,0,1,1,260.36,424.3973976Z" id="point-0-15" opacity="1"/><path class="data-point" fill="rgb(17, 165, 121)" data-type="point" transform="translate(0, 0)" d="M276.82,418.06391879999995A3,3,0,1,1,282.82,418.06391879999995A3,3,0,1,1,276.82,418.06391879999995Z" id="point-0-16" opacity="1"/><path class="data-point" fill="rgb(17, 165, 121)" data-type="point" transform="translate(0, 0)" d="M293.28,412.28448359999993A3,3,0,1,1,299.28,412.28448359999993A3,3,0,1,1,293.28,412.28448359999993Z" id="point-0-17" opacity="1"/><path class="data-point" fill="rgb(17, 165, 121)" data-type="point" transform="translate(0, 0)" d="M309.74,407.3089548A3,3,0,1,1,315.74,407.3089548A3,3,0,1,1,309.74,407.3089548Z" id="point-0-18" opacity="1"/><path class="data-point" fill="rgb(17, 165, 121)" data-type="point" transform="translate(0, 0)" d="M326.20000000000005,400.0194792A3,3,0,1,1,332.20000000000005,400.0194792A3,3,0,1,1,326.20000000000005,400.0194792Z" id="point-0-19" opacity="1"/><path class="data-point" fill="rgb(17, 165, 121)" data-type="point" transform="translate(0, 0)" d="M342.65999999999997,391.08959999999996A3,3,0,1,1,348.65999999999997,391.08959999999996A3,3,0,1,1,342.65999999999997,391.08959999999996Z" id="point-0-20" opacity="1"/><path class="data-point" fill="rgb(17, 165, 121)" data-type="point" transform="translate(0, 0)" d="M359.12,381.80122199999994A3,3,0,1,1,365.12,381.80122199999994A3,3,0,1,1,359.12,381.80122199999994Z" id="point-0-21" opacity="1"/><path class="data-point" fill="rgb(17, 165, 121)" data-type="point" transform="translate(0, 0)" d="M375.58000000000004,374.6964276A3,3,0,1,1,381.58000000000004,374.6964276A3,3,0,1,1,375.58000000000004,374.6964276Z" id="point-0-22" opacity="1"/><path class="data-point" fill="rgb(17, 165, 121)" data-type="point" transform="translate(0, 0)" d="M392.03999999999996,367.678542A3,3,0,1,1,398.03999999999996,367.678542A3,3,0,1,1,392.03999999999996,367.678542Z" id="point-0-23" opacity="1"/><path class="data-point" fill="rgb(17, 165, 121)" data-type="point" transform="translate(0, 0)" d="M408.5,359.97624959999996A3,3,0,1,1,414.5,359.97624959999996A3,3,0,1,1,408.5,359.97624959999996Z" id="point-0-24" opacity="1"/><path class="data-point" fill="rgb(17, 165, 121)" data-type="point" transform="translate(0, 0)" d="M424.96000000000004,351.0898248A3,3,0,1,1,430.96000000000004,351.0898248A3,3,0,1,1,424.96000000000004,351.0898248Z" id="point-0-25" opacity="1"/><path class="data-point" fill="rgb(17, 165, 121)" data-type="point" transform="translate(0, 0)" d="M441.42,343.6591224A3,3,0,1,1,447.42,343.6591224A3,3,0,1,1,441.42,343.6591224Z" id="point-0-26" opacity="1"/><path class="data-point" fill="rgb(17, 165, 121)" data-type="point" transform="translate(0, 0)" d="M457.88000000000005,336.0220116A3,3,0,1,1,463.88000000000005,336.0220116A3,3,0,1,1,457.88000000000005,336.0220116Z" id="point-0-27" opacity="1"/><path class="data-point" fill="rgb(17, 165, 121)" data-type="point" transform="translate(0, 0)" d="M474.34,333.872322432A3,3,0,1,1,480.34,333.872322432A3,3,0,1,1,474.34,333.872322432Z" id="point-0-28" opacity="1"/><path class="data-point" fill="rgb(17, 165, 121)" data-type="point" transform="translate(0, 0)" d="M490.79999999999995,323.60540566199995A3,3,0,1,1,496.79999999999995,323.60540566199995A3,3,0,1,1,490.79999999999995,323.60540566199995Z" id="point-0-29" opacity="1"/><path class="data-point" fill="rgb(17, 165, 121)" data-type="point" transform="translate(0, 0)" d="M507.26,312.834906714A3,3,0,1,1,513.26,312.834906714A3,3,0,1,1,507.26,312.834906714Z" id="point-0-30" opacity="1"/><path class="data-point" fill="rgb(17, 165, 121)" data-type="point" transform="translate(0, 0)" d="M523.72,301.53611089799995A3,3,0,1,1,529.72,301.53611089799995A3,3,0,1,1,523.72,301.53611089799995Z" id="point-0-31" opacity="1"/><path class="data-point" fill="rgb(17, 165, 121)" data-type="point" transform="translate(0, 0)" d="M540.1800000000001,289.68310852799993A3,3,0,1,1,546.1800000000001,289.68310852799993A3,3,0,1,1,540.1800000000001,289.68310852799993Z" id="point-0-32" opacity="1"/><path class="data-point" fill="rgb(17, 165, 121)" data-type="point" transform="translate(0, 0)" d="M556.64,277.248631968A3,3,0,1,1,562.64,277.248631968A3,3,0,1,1,556.64,277.248631968Z" id="point-0-33" opacity="1"/><path class="data-point" fill="rgb(17, 165, 121)" data-type="point" transform="translate(0, 0)" d="M573.0999999999999,264.204272904A3,3,0,1,1,579.0999999999999,264.204272904A3,3,0,1,1,573.0999999999999,264.204272904Z" id="point-0-34" opacity="1"/><path class="data-point" fill="rgb(17, 165, 121)" data-type="point" transform="translate(0, 0)" d="M589.56,250.5200478A3,3,0,1,1,595.56,250.5200478A3,3,0,1,1,589.56,250.5200478Z" id="point-0-35" opacity="1"/><path class="data-point" fill="rgb(17, 165, 121)" data-type="point" transform="translate(0, 0)" d="M606.02,236.16461517A3,3,0,1,1,612.02,236.16461517A3,3,0,1,1,606.02,236.16461517Z" id="point-0-36" opacity="1"/><path class="data-point" fill="rgb(17, 165, 121)" data-type="point" transform="translate(0, 0)" d="M622.48,221.10500398799996A3,3,0,1,1,628.48,221.10500398799996A3,3,0,1,1,622.48,221.10500398799996Z" id="point-0-37" opacity="1"/><path class="data-point" fill="rgb(17, 165, 121)" data-type="point" transform="translate(0, 0)" d="M638.94,205.30672232399996A3,3,0,1,1,644.94,205.30672232399996A3,3,0,1,1,638.94,205.30672232399996Z" id="point-0-38" opacity="1"/><path class="data-point" fill="rgb(17, 165, 121)" data-type="point" transform="translate(0, 0)" d="M655.4000000000001,188.73348575399996A3,3,0,1,1,661.4000000000001,188.73348575399996A3,3,0,1,1,655.4000000000001,188.73348575399996Z" id="point-0-39" opacity="1"/><path class="data-point" fill="rgb(17, 165, 121)" data-type="point" transform="translate(0, 0)" d="M671.86,171.34732599599994A3,3,0,1,1,677.86,171.34732599599994A3,3,0,1,1,671.86,171.34732599599994Z" id="point-0-40" opacity="1"/><path class="data-point" fill="rgb(17, 165, 121)" data-type="point" transform="translate(0, 0)" d="M688.3199999999999,153.10831931999996A3,3,0,1,1,694.3199999999999,153.10831931999996A3,3,0,1,1,688.3199999999999,153.10831931999996Z" id="point-0-41" opacity="1"/><path class="data-point" fill="rgb(17, 165, 121)" data-type="point" transform="translate(0, 0)" d="M704.78,133.97464086599996A3,3,0,1,1,710.78,133.97464086599996A3,3,0,1,1,704.78,133.97464086599996Z" id="point-0-42" opacity="1"/><path class="data-point" fill="rgb(17, 165, 121)" data-type="point" transform="translate(0, 0)" d="M721.24,113.902456008A3,3,0,1,1,727.24,113.902456008A3,3,0,1,1,721.24,113.902456008Z" id="point-0-43" opacity="1"/><path class="data-point" fill="rgb(17, 165, 121)" data-type="point" transform="translate(0, 0)" d="M737.7,92.84570308200006A3,3,0,1,1,743.7,92.84570308200006A3,3,0,1,1,737.7,92.84570308200006Z" id="point-0-44" opacity="1"/><path class="data-point" fill="rgb(17, 165, 121)" data-type="point" transform="translate(0, 0)" d="M754.1600000000001,70.75603906799995A3,3,0,1,1,760.1600000000001,70.75603906799995A3,3,0,1,1,754.1600000000001,70.75603906799995Z" id="point-0-45" opacity="1"/><path class="data-point" fill="#11A579" data-type="point" transform="translate(0, 0)" d="M770.62,47.58289390800002A3,3,0,1,1,776.62,47.58289390800002A3,3,0,1,1,770.62,47.58289390800002Z" id="point-0-46" opacity="1"/></g><g class="series" transform="translate(50,10)"><path class="data-point" fill="rgb(204, 80, 62)" data-type="point" transform="translate(0, 0)" d="M13.46,486.2493042A3,3,0,1,1,19.46,486.2493042A3,3,0,1,1,13.46,486.2493042Z" id="point-1-0" opacity="1"/><path class="data-point" fill="rgb(204, 80, 62)" data-type="point" transform="translate(0, 0)" d="M29.92,482.7566568A3,3,0,1,1,35.92,482.7566568A3,3,0,1,1,29.92,482.7566568Z" id="point-1-1" opacity="1"/><path class="data-point" fill="rgb(204, 80, 62)" data-type="point" transform="translate(0, 0)" d="M46.379999999999995,478.92180599999995A3,3,0,1,1,52.379999999999995,478.92180599999995A3,3,0,1,1,46.379999999999995,478.92180599999995Z" id="point-1-2" opacity="1"/><path class="data-point" fill="rgb(204, 80, 62)" data-type="point" transform="translate(0, 0)" d="M62.84,475.8202481999999A3,3,0,1,1,68.84,475.8202481999999A3,3,0,1,1,62.84,475.8202481999999Z" id="point-1-3" opacity="1"/><path class="data-point" fill="rgb(204, 80, 62)" data-type="point" transform="translate(0, 0)" d="M79.30000000000001,472.57746359999993A3,3,0,1,1,85.30000000000001,472.57746359999993A3,3,0,1,1,79.30000000000001,472.57746359999993Z" id="point-1-4" opacity="1"/><path class="data-point" fill="rgb(204, 80, 62)" data-type="point" transform="translate(0, 0)" d="M95.75999999999999,468.68829479999994A3,3,0,1,1,101.75999999999999,468.68829479999994A3,3,0,1,1,95.75999999999999,468.68829479999994Z" id="point-1-5" opacity="1"/><path class="data-point" fill="rgb(204, 80, 62)" data-type="point" transform="translate(0, 0)" d="M112.22000000000001,464.7339443999999A3,3,0,1,1,118.22000000000001,464.7339443999999A3,3,0,1,1,112.22000000000001,464.7339443999999Z" id="point-1-6" opacity="1"/><path class="data-point" fill="rgb(204, 80, 62)" data-type="point" transform="translate(0, 0)" d="M128.68,460.23641399999997A3,3,0,1,1,134.68,460.23641399999997A3,3,0,1,1,128.68,460.23641399999997Z" id="point-1-7" opacity="1"/><path class="data-point" fill="rgb(204, 80, 62)" data-type="point" transform="translate(0, 0)" d="M145.14,456.21145019999994A3,3,0,1,1,151.14,456.21145019999994A3,3,0,1,1,145.14,456.21145019999994Z" id="point-1-8" opacity="1"/><path class="data-point" fill="rgb(204, 80, 62)" data-type="point" transform="translate(0, 0)" d="M161.60000000000002,451.96378259999994A3,3,0,1,1,167.60000000000002,451.96378259999994A3,3,0,1,1,161.60000000000002,451.96378259999994Z" id="point-1-9" opacity="1"/><path class="data-point" fill="rgb(204, 80, 62)" data-type="point" transform="translate(0, 0)" d="M178.06,447.0099809999999A3,3,0,1,1,184.06,447.0099809999999A3,3,0,1,1,178.06,447.0099809999999Z" id="point-1-10" opacity="1"/><path class="data-point" fill="rgb(204, 80, 62)" data-type="point" transform="translate(0, 0)" d="M194.51999999999998,441.05129639999996A3,3,0,1,1,200.51999999999998,441.05129639999996A3,3,0,1,1,194.51999999999998,441.05129639999996Z" id="point-1-11" opacity="1"/><path class="data-point" fill="rgb(204, 80, 62)" data-type="point" transform="translate(0, 0)" d="M210.98000000000002,433.5445488A3,3,0,1,1,216.98000000000002,433.5445488A3,3,0,1,1,210.98000000000002,433.5445488Z" id="point-1-12" opacity="1"/><path class="data-point" fill="rgb(204, 80, 62)" data-type="point" transform="translate(0, 0)" d="M227.44000000000003,426.10841459999995A3,3,0,1,1,233.44000000000003,426.10841459999995A3,3,0,1,1,227.44000000000003,426.10841459999995Z" id="point-1-13" opacity="1"/><path class="data-point" fill="rgb(204, 80, 62)" data-type="point" transform="translate(0, 0)" d="M243.89999999999998,418.7591891999999A3,3,0,1,1,249.89999999999998,418.7591891999999A3,3,0,1,1,243.89999999999998,418.7591891999999Z" id="point-1-14" opacity="1"/><path class="data-point" fill="rgb(204, 80, 62)" data-type="point" transform="translate(0, 0)" d="M260.36,411.20898719999997A3,3,0,1,1,266.36,411.20898719999997A3,3,0,1,1,260.36,411.20898719999997Z" id="point-1-15" opacity="1"/><path class="data-point" fill="rgb(204, 80, 62)" data-type="point" transform="translate(0, 0)" d="M276.82,402.45292559999996A3,3,0,1,1,282.82,402.45292559999996A3,3,0,1,1,276.82,402.45292559999996Z" id="point-1-16" opacity="1"/><path class="data-point" fill="rgb(204, 80, 62)" data-type="point" transform="translate(0, 0)" d="M293.28,394.21831679999997A3,3,0,1,1,299.28,394.21831679999997A3,3,0,1,1,293.28,394.21831679999997Z" id="point-1-17" opacity="1"/><path class="data-point" fill="rgb(204, 80, 62)" data-type="point" transform="translate(0, 0)" d="M309.74,387.53720279999993A3,3,0,1,1,315.74,387.53720279999993A3,3,0,1,1,309.74,387.53720279999993Z" id="point-1-18" opacity="1"/><path class="data-point" fill="rgb(204, 80, 62)" data-type="point" transform="translate(0, 0)" d="M326.20000000000005,379.1070492A3,3,0,1,1,332.20000000000005,379.1070492A3,3,0,1,1,326.20000000000005,379.1070492Z" id="point-1-19" opacity="1"/><path class="data-point" fill="rgb(204, 80, 62)" data-type="point" transform="translate(0, 0)" d="M342.65999999999997,371.480802A3,3,0,1,1,348.65999999999997,371.480802A3,3,0,1,1,342.65999999999997,371.480802Z" id="point-1-20" opacity="1"/><path class="data-point" fill="rgb(204, 80, 62)" data-type="point" transform="translate(0, 0)" d="M359.12,364.22934899999996A3,3,0,1,1,365.12,364.22934899999996A3,3,0,1,1,359.12,364.22934899999996Z" id="point-1-21" opacity="1"/><path class="data-point" fill="rgb(204, 80, 62)" data-type="point" transform="translate(0, 0)" d="M375.58000000000004,358.0859832A3,3,0,1,1,381.58000000000004,358.0859832A3,3,0,1,1,375.58000000000004,358.0859832Z" id="point-1-22" opacity="1"/><path class="data-point" fill="rgb(204, 80, 62)" data-type="point" transform="translate(0, 0)" d="M392.03999999999996,352.61072879999995A3,3,0,1,1,398.03999999999996,352.61072879999995A3,3,0,1,1,392.03999999999996,352.61072879999995Z" id="point-1-23" opacity="1"/><path class="data-point" fill="rgb(204, 80, 62)" data-type="point" transform="translate(0, 0)" d="M408.5,352.29568439999997A3,3,0,1,1,414.5,352.29568439999997A3,3,0,1,1,408.5,352.29568439999997Z" id="point-1-24" opacity="1"/><path class="data-point" fill="rgb(204, 80, 62)" data-type="point" transform="translate(0, 0)" d="M424.96000000000004,344.83782299999996A3,3,0,1,1,430.96000000000004,344.83782299999996A3,3,0,1,1,424.96000000000004,344.83782299999996Z" id="point-1-25" opacity="1"/><path class="data-point" fill="rgb(204, 80, 62)" data-type="point" transform="translate(0, 0)" d="M441.42,339.88402139999994A3,3,0,1,1,447.42,339.88402139999994A3,3,0,1,1,441.42,339.88402139999994Z" id="point-1-26" opacity="1"/><path class="data-point" fill="rgb(204, 80, 62)" data-type="point" transform="translate(0, 0)" d="M457.88000000000005,337.12466699999993A3,3,0,1,1,463.88000000000005,337.12466699999993A3,3,0,1,1,457.88000000000005,337.12466699999993Z" id="point-1-27" opacity="1"/><path class="data-point" fill="rgb(204, 80, 62)" data-type="point" transform="translate(0, 0)" d="M474.34,331.36446037199994A3,3,0,1,1,480.34,331.36446037199994A3,3,0,1,1,474.34,331.36446037199994Z" id="point-1-28" opacity="1"/><path class="data-point" fill="rgb(204, 80, 62)" data-type="point" transform="translate(0, 0)" d="M490.79999999999995,322.48792144799995A3,3,0,1,1,496.79999999999995,322.48792144799995A3,3,0,1,1,490.79999999999995,322.48792144799995Z" id="point-1-29" opacity="1"/><path class="data-point" fill="rgb(204, 80, 62)" data-type="point" transform="translate(0, 0)" d="M507.26,313.239358542A3,3,0,1,1,513.26,313.239358542A3,3,0,1,1,507.26,313.239358542Z" id="point-1-30" opacity="1"/><path class="data-point" fill="rgb(204, 80, 62)" data-type="point" transform="translate(0, 0)" d="M523.72,303.603182388A3,3,0,1,1,529.72,303.603182388A3,3,0,1,1,523.72,303.603182388Z" id="point-1-31" opacity="1"/><path class="data-point" fill="rgb(204, 80, 62)" data-type="point" transform="translate(0, 0)" d="M540.1800000000001,293.56326054A3,3,0,1,1,546.1800000000001,293.56326054A3,3,0,1,1,540.1800000000001,293.56326054Z" id="point-1-32" opacity="1"/><path class="data-point" fill="rgb(204, 80, 62)" data-type="point" transform="translate(0, 0)" d="M556.64,283.102537146A3,3,0,1,1,562.64,283.102537146A3,3,0,1,1,556.64,283.102537146Z" id="point-1-33" opacity="1"/><path class="data-point" fill="rgb(204, 80, 62)" data-type="point" transform="translate(0, 0)" d="M573.0999999999999,272.203413174A3,3,0,1,1,579.0999999999999,272.203413174A3,3,0,1,1,573.0999999999999,272.203413174Z" id="point-1-34" opacity="1"/><path class="data-point" fill="rgb(204, 80, 62)" data-type="point" transform="translate(0, 0)" d="M589.56,260.847583458A3,3,0,1,1,595.56,260.847583458A3,3,0,1,1,589.56,260.847583458Z" id="point-1-35" opacity="1"/><path class="data-point" fill="rgb(204, 80, 62)" data-type="point" transform="translate(0, 0)" d="M606.02,249.01587374399998A3,3,0,1,1,612.02,249.01587374399998A3,3,0,1,1,606.02,249.01587374399998Z" id="point-1-36" opacity="1"/><path class="data-point" fill="rgb(204, 80, 62)" data-type="point" transform="translate(0, 0)" d="M622.48,236.68829500799995A3,3,0,1,1,628.48,236.68829500799995A3,3,0,1,1,622.48,236.68829500799995Z" id="point-1-37" opacity="1"/><path class="data-point" fill="rgb(204, 80, 62)" data-type="point" transform="translate(0, 0)" d="M638.94,223.844152092A3,3,0,1,1,644.94,223.844152092A3,3,0,1,1,638.94,223.844152092Z" id="point-1-38" opacity="1"/><path class="data-point" fill="rgb(204, 80, 62)" data-type="point" transform="translate(0, 0)" d="M655.4000000000001,210.46171779599996A3,3,0,1,1,661.4000000000001,210.46171779599996A3,3,0,1,1,655.4000000000001,210.46171779599996Z" id="point-1-39" opacity="1"/><path class="data-point" fill="rgb(204, 80, 62)" data-type="point" transform="translate(0, 0)" d="M671.86,196.51845014999998A3,3,0,1,1,677.86,196.51845014999998A3,3,0,1,1,671.86,196.51845014999998Z" id="point-1-40" opacity="1"/><path class="data-point" fill="rgb(204, 80, 62)" data-type="point" transform="translate(0, 0)" d="M688.3199999999999,181.990883778A3,3,0,1,1,694.3199999999999,181.990883778A3,3,0,1,1,688.3199999999999,181.990883778Z" id="point-1-41" opacity="1"/><path class="data-point" fill="rgb(204, 80, 62)" data-type="point" transform="translate(0, 0)" d="M704.78,166.85446694400002A3,3,0,1,1,710.78,166.85446694400002A3,3,0,1,1,704.78,166.85446694400002Z" id="point-1-42" opacity="1"/><path class="data-point" fill="rgb(204, 80, 62)" data-type="point" transform="translate(0, 0)" d="M721.24,151.08377882399992A3,3,0,1,1,727.24,151.08377882399992A3,3,0,1,1,721.24,151.08377882399992Z" id="point-1-43" opacity="1"/><path class="data-point" fill="rgb(204, 80, 62)" data-type="point" transform="translate(0, 0)" d="M737.7,134.65214928A3,3,0,1,1,743.7,134.65214928A3,3,0,1,1,737.7,134.65214928Z" id="point-1-44" opacity="1"/><path class="data-point" fill="rgb(204, 80, 62)" data-type="point" transform="translate(0, 0)" d="M754.1600000000001,117.53193045A3,3,0,1,1,760.1600000000001,117.53193045A3,3,0,1,1,754.1600000000001,117.53193045Z" id="point-1-45" opacity="1"/><path class="data-point" fill="rgb(204, 80, 62)" data-type="point" transform="translate(0, 0)" d="M770.62,99.69427947600002A3,3,0,1,1,776.62,99.69427947600002A3,3,0,1,1,770.62,99.69427947600002Z" id="point-1-46" opacity="1"/></g></g><g id="data-labels"/><g class="annotations above"><g class="axis-highlights" transform="translate(50, 10)" style="opacity: 1;"/></g></svg>