<svg xmlns="http://www.w3.org/2000/svg" id="graphic" width="961" height="634.6"><g id="facets"><g class="facet" transform="translate(15,20)" opacity="1"><text class="facet-title" y="0" font-size="16" font-weight="bold" dominant-baseline="middle" x="0" clip-path="url(#facet-clip-0)" fill="black"/><g class="plot"><clipPath class="facet-clip" id="facet-clip-0"><rect width="951" height="581.6" transform="translate(-7.5,-10)"/></clipPath><g class="bg"><rect fill="none" width="936" height="561.6" style="fill: none;"/></g><g class="interaction"><g class="series"><path data-target="point-0-0" d="M0,502.12375199999997L67.11991810737142,502.12375199999997L66.70836340685715,499.026528L26.16725443993367,217.80491247321424L0,70.02322690870403Z" style="opacity: 0;"/><path data-target="point-0-1" d="M26.16725443993367,217.80491247321424L66.70836340685715,499.026528L85.20424008114287,499.026528L84.41086084142856,495.19079999999997Z" style="opacity: 0;"/><path data-target="point-0-2" d="M84.41086084142856,495.19079999999997L85.20424008114287,499.026528L98.85285518445728,561.6L115.10381339714982,561.6L103.01194324964999,495.19079999999997Z" style="opacity: 0;"/><path data-target="point-0-3" d="M2.2245042964288615,0L102.39338534892858,491.734152L120.9121386889,491.734152L120.33914315799998,488.20449599999995L19.359273922856502,0Z" style="opacity: 0;"/><path data-target="point-0-4" d="M19.359273922856502,0L120.33914315799998,488.20449599999995L138.9216688556,488.20449599999995L138.226618094,484.340688L38.04593614571509,0Z" style="opacity: 0;"/><path data-target="point-0-5" d="M38.04593614571509,0L138.226618094,484.340688L156.8912942184,484.340688L90.93004142393247,156.49854969554144L54.881578617500125,0Z" style="opacity: 0;"/><path data-target="point-0-7" d="M173.94386765765714,476.410896L190.65660075185727,561.6L209.04539111694282,561.6L192.54623927634285,476.410896Z" style="opacity: 0;"/><path data-target="point-0-8" d="M192.04873251817142,472.59482399999996L192.54623927634285,476.410896L209.04539111694282,561.6L228.26930474057124,561.6L210.41740944,472.59482399999996Z" style="opacity: 0;"/><path data-target="point-0-9" d="M210.0232278405,468.601848L210.41740944,472.59482399999996L228.26930474057124,561.6L250.14539445142879,561.6L228.34496694134285,468.601848Z" style="opacity: 0;"/><path data-target="point-0-10" d="M227.93447880948568,463.940568L228.34496694134285,468.601848L250.14539445142879,561.6L271.5021074665998,561.6L246.22174275049997,463.9405679999999Z" style="opacity: 0;"/><path data-target="point-0-11" d="M245.89175327203571,458.54078400000003L246.22174275049997,463.9405679999999L271.5021074665998,561.6L291.9426520854003,561.6L263.97256489731427,458.54078400000003Z" style="opacity: 0;"/><path data-target="point-0-12" d="M263.97256489731427,458.54078400000003L291.9426520854003,561.6L313.67493454899994,561.6L281.523785584,452.22839999999997L264.0437821153714,452.22839999999997Z" style="opacity: 0;"/><path data-target="point-0-13" d="M281.523785584,452.22839999999997L313.67493454899994,561.6L334.6708939159999,561.6L299.090568317,445.7503439999999L282.49827029371426,445.7503439999999Z" style="opacity: 0;"/><path data-target="point-0-14" d="M299.090568317,445.7503439999999L334.6708939159999,561.6L362.09613970834283,561.6L316.6784782614857,439.19928L300.8746745582643,439.19928Z" style="opacity: 0;"/><path data-target="point-0-15" d="M316.6784782614857,439.19928L362.09613970834283,561.6L381.7534181295145,561.6L334.3850765293428,431.97148799999997L319.02969190585713,431.971488Z" style="opacity: 0;"/><path data-target="point-0-16" d="M334.3850765293428,431.97148799999997L381.7534181295145,561.6L397.7309924431998,561.6L351.905247044,424.17086399999994L337.47023725102855,424.17086399999994Z" style="opacity: 0;"/><path data-target="point-0-17" d="M351.905247044,424.17086399999994L397.7309924431998,561.6L411.10852229279993,561.6L369.57733143171424,416.926224L356.0147043997143,416.926224Z" style="opacity: 0;"/><path data-target="point-0-18" d="M369.57733143171424,416.926224L411.10852229279993,561.6L450.10640761814284,561.6L386.72613189202855,410.900256L374.12860517357143,410.900256Z" style="opacity: 0;"/><path data-target="point-0-19" d="M386.72613189202855,410.900256L450.10640761814284,561.6L485.9985506147429,561.6L404.1685097752571,402.773904L392.5785419549714,402.773904Z" style="opacity: 0;"/><path data-target="point-0-20" d="M404.1685097752571,402.773904L485.9985506147429,561.6L512.1227128864289,561.6L422.42085679285714,394.21511999999996L410.0855792430286,394.21511999999996Z" style="opacity: 0;"/><path data-target="point-0-21" d="M422.42085679285714,394.21511999999996L512.1227128864289,561.6L513.1009244930286,561.6L440.98192791631425,385.66476L427.51213811785715,385.66476Z" style="opacity: 0;"/><path data-target="point-0-22" d="M440.98192791631425,385.66476L513.1009244930286,561.6L533.1219873069709,561.6L459.11211234234287,378.81604799999997L445.1179201274071,378.81604799999997Z" style="opacity: 0;"/><path data-target="point-0-23" d="M459.11211234234287,378.81604799999997L533.1219873069709,561.6L561.4455267906003,561.6L477.3479152256571,372.357648L462.6865253552,372.357648Z" style="opacity: 0;"/><path data-target="point-0-24" d="M477.3479152256571,372.357648L561.4455267906003,561.6L596.4311779493715,561.6L497.27961155422855,368.21304L479.10921080177144,368.21304Z" style="opacity: 0;"/><path data-target="point-0-25" d="M496.69176854281426,359.76376799999997L497.27961155422855,368.21304L596.4311779493715,561.6L601.5104184288788,561.6L600.9596370524571,559.9366446812958L515.1412354004,359.76376799999997Z" style="opacity: 0;"/><path data-target="point-0-26" d="M514.7058430664,353.361528L515.1412354004,359.76376799999997L600.9596370524571,559.9366446812958L570.3676089905363,451.5808263022225L533.3377934851715,353.36152799999996Z" style="opacity: 0;"/><path data-target="point-0-27" d="M492.3974163381165,168.0915038045629L532.4821519800857,347.987016L550.9285310943629,347.987016L550.4213710546579,343.8979505L526.9815449465626,256.6708463586676Z" style="opacity: 0;"/><path data-target="point-0-28" d="M550.4213710546579,343.8979505L550.9285310943629,347.987016L570.3676089905363,451.5808263022225L600.9596370524571,559.9366446812958L601.5104184288788,561.6L699.9738926759429,561.6L571.0160062522491,343.8979505Z" style="opacity: 0;"/><path data-target="point-0-29" d="M566.5857600039152,334.00163150000003L571.0160062522491,343.8979505L699.9738926759429,561.6L725.5412568602395,561.6L589.4194735634746,334.00163150000003Z" style="opacity: 0;"/><path data-target="point-0-30" d="M473.6358325855,116.88896553251556L485.0832983005404,146.22969921804162L583.8972163053965,323.6526635L607.1332989622019,323.6526635L601.3689023630053,312.8302105Z" style="opacity: 0;"/><path data-target="point-0-31" d="M437.54319752971594,35.32439213879712L473.6358325855,116.88896553251556L601.3689023630053,312.8302105L624.7874957822597,312.8302105L619.5813531693623,301.51253799999995Z" style="opacity: 0;"/><path data-target="point-0-32" d="M420.4909987153144,0L437.54319752971594,35.32439213879712L619.5813531693623,301.51253799999995L642.3731652908244,301.51253799999995L637.879438770651,289.676734L430.05986986529865,0Z" style="opacity: 0;"/><path data-target="point-0-33" d="M430.05986986529865,0L637.879438770651,289.676734L659.8800996791646,289.676734L656.2770854579796,277.2990135L447.57999098484305,0Z" style="opacity: 0;"/><path data-target="point-0-34" d="M447.57999098484305,0L656.2770854579796,277.2990135L677.2969166539765,277.2990135L674.7899704052666,264.35441449999996L466.0757283202002,0Z" style="opacity: 0;"/><path data-target="point-0-35" d="M466.0757283202002,0L674.7899704052666,264.35441449999996L694.6108164154024,264.35441449999996L693.4359595797707,250.8168215L485.6968431935485,0Z" style="opacity: 0;"/><path data-target="point-0-36" d="M485.6968431935485,0L693.4359595797707,250.8168215L711.8074503930542,250.8168215L712.2352223573107,236.65885799999998L506.6074251087627,0Z" style="opacity: 0;"/><path data-target="point-0-37" d="M506.6074251087627,0L712.2352223573107,236.65885799999998L728.8706527494024,236.65885799999998L731.2106959819437,221.851993L528.9932976499226,0Z" style="opacity: 0;"/><path data-target="point-0-38" d="M528.9932976499226,0L731.2106959819437,221.851993L745.7823946677996,221.851993L750.3882047331342,206.366238L553.0590229817029,0Z" style="opacity: 0;"/><path data-target="point-0-39" d="M553.0590229817029,0L750.3882047331342,206.366238L762.5224246061312,206.366238L769.7970019119718,190.17031199999997L579.0350819569838,0Z" style="opacity: 0;"/><path data-target="point-0-40" d="M579.0350819569838,0L769.7970019119718,190.17031199999997L779.068116549235,190.17031199999997L789.4701077718585,173.2314445L607.1757393106566,0Z" style="opacity: 0;"/><path data-target="point-0-41" d="M607.1757393106566,0L789.4701077718585,173.2314445L795.3941290560132,173.2314445L809.4447322241035,155.5153235L637.7658124937568,2.842170943040401e-14Z" style="opacity: 0;"/><path data-target="point-0-42" d="M637.7658124937568,2.842170943040401e-14L809.4447322241035,155.5153235L811.4721955051479,155.5153235L828.4916130518053,138.273974578811L828.5374641904067,135.92801834358832L671.121433459942,0Z" style="opacity: 0;"/><path data-target="point-0-43" d="M671.121433459942,0L828.5374641904067,135.92801834358832L846.2432569176946,121.13835241163234L846.9192362246076,114.68219164656324L707.5930639312895,0Z" style="opacity: 0;"/><path data-target="point-0-44" d="M707.5930639312895,0L846.9192362246076,114.68219164656324L863.647796017092,102.93704325937837L865.6763520213341,92.66938542817L747.570688937409,0Z" style="opacity: 0;"/><path data-target="point-0-45" d="M747.570688937409,0L865.6763520213341,92.66938542817L893.2811863011127,76.135775L791.4879142936509,0Z" style="opacity: 0;"/><path data-target="point-0-46" d="M791.4879142936509,0L893.2811863011127,76.135775L936,76.135775L936,0Z" style="opacity: 0;"/><path data-target="point-1-0" d="M79.10507242867855,561.6L67.11991810737142,502.12375199999997L0,502.12375199999997L0,561.6Z" style="opacity: 0;"/><path data-target="point-1-1" d="M66.70836340685715,499.026528L67.11991810737142,502.12375199999997L79.10507242867855,561.6L98.85285518445728,561.6L85.20424008114287,499.026528Z" style="opacity: 0;"/><path data-target="point-1-2" d="M0,70.02322690870403L26.16725443993367,217.80491247321424L84.41086084142856,495.19079999999997L103.01194324964999,495.19079999999997L102.39338534892858,491.734152L2.2245042964288615,0L0,0Z" style="opacity: 0;"/><path data-target="point-1-3" d="M102.39338534892858,491.734152L103.01194324964999,495.19079999999997L115.10381339714982,561.6L133.9837269485929,561.6L120.9121386889,491.734152Z" style="opacity: 0;"/><path data-target="point-1-4" d="M120.33914315799998,488.20449599999995L120.9121386889,491.734152L133.9837269485929,561.6L155.39083357279998,561.6L138.9216688556,488.20449599999995Z" style="opacity: 0;"/><path data-target="point-1-5" d="M138.226618094,484.340688L138.9216688556,488.20449599999995L155.39083357279998,561.6L174.51800625120012,561.6L156.8912942184,484.340688Z" style="opacity: 0;"/><path data-target="point-1-6" d="M90.93004142393247,156.49854969554144L156.8912942184,484.340688L174.51800625120012,561.6L190.65660075185727,561.6L173.94386765765714,476.410896Z" style="opacity: 0;"/><path data-target="point-1-7" d="M54.881578617500125,0L90.93004142393247,156.49854969554144L173.94386765765714,476.410896L192.54623927634285,476.410896L192.04873251817142,472.59482399999996L82.30082147443467,0Z" style="opacity: 0;"/><path data-target="point-1-8" d="M82.30082147443467,0L192.04873251817142,472.59482399999996L210.41740944,472.59482399999996L210.0232278405,468.601848L120.46141097767683,103.15262041362917L86.73596106024108,0Z" style="opacity: 0;"/><path data-target="point-1-9" d="M120.46141097767683,103.15262041362917L210.0232278405,468.601848L228.34496694134285,468.601848L227.93447880948568,463.940568L143.00621975448857,166.79566202460325Z" style="opacity: 0;"/><path data-target="point-1-10" d="M143.00621975448857,166.79566202460325L227.93447880948568,463.940568L246.22174275049997,463.9405679999999L245.89175327203571,458.54078400000003L165.49905625591882,224.6996667907974Z" style="opacity: 0;"/><path data-target="point-1-11" d="M165.49905625591882,224.6996667907974L245.89175327203571,458.54078400000003L263.97256489731427,458.54078400000003L264.0437821153714,452.22839999999997Z" style="opacity: 0;"/><path data-target="point-1-12" d="M86.73596106024108,0L120.46141097767683,103.15262041362917L143.00621975448857,166.79566202460325L165.49905625591882,224.6996667907974L264.0437821153714,452.22839999999997L281.523785584,452.22839999999997L282.49827029371426,445.7503439999999L91.25585105394975,0Z" style="opacity: 0;"/><path data-target="point-1-13" d="M91.25585105394975,0L282.49827029371426,445.7503439999999L299.090568317,445.7503439999999L300.8746745582643,439.19928L114.6451605673368,0Z" style="opacity: 0;"/><path data-target="point-1-14" d="M114.6451605673368,0L300.8746745582643,439.19928L316.6784782614857,439.19928L319.02969190585713,431.971488L178.8942934982816,110.27674898816497L127.01981539009962,0Z" style="opacity: 0;"/><path data-target="point-1-15" d="M178.8942934982816,110.27674898816497L319.02969190585713,431.971488L334.3850765293428,431.97148799999997L337.47023725102855,424.17086399999994Z" style="opacity: 0;"/><path data-target="point-1-16" d="M127.01981539009962,0L178.8942934982816,110.27674898816497L337.47023725102855,424.17086399999994L351.905247044,424.17086399999994L356.0147043997143,416.926224L157.93156635508643,0Z" style="opacity: 0;"/><path data-target="point-1-17" d="M157.93156635508643,0L356.0147043997143,416.926224L369.57733143171424,416.926224L374.12860517357143,410.900256L288.55392097092107,188.9012142216482L206.20631585235688,0Z" style="opacity: 0;"/><path data-target="point-1-18" d="M288.55392097092107,188.9012142216482L374.12860517357143,410.900256L386.72613189202855,410.900256L392.5785419549714,402.773904Z" style="opacity: 0;"/><path data-target="point-1-19" d="M206.20631585235688,0L288.55392097092107,188.9012142216482L392.5785419549714,402.773904L404.1685097752571,402.773904L410.0855792430286,394.21511999999996L236.62951853188602,5.684341886080802e-14Z" style="opacity: 0;"/><path data-target="point-1-20" d="M236.62951853188602,5.684341886080802e-14L410.0855792430286,394.21511999999996L422.42085679285714,394.21511999999996L427.51213811785715,385.66476L266.15792243517785,0Z" style="opacity: 0;"/><path data-target="point-1-21" d="M266.15792243517785,0L427.51213811785715,385.66476L440.98192791631425,385.66476L445.1179201274071,378.81604799999997L310.84758659965,0Z" style="opacity: 0;"/><path data-target="point-1-22" d="M310.84758659965,0L445.1179201274071,378.81604799999997L459.11211234234287,378.81604799999997L462.6865253552,372.357648L345.05874435199985,0Z" style="opacity: 0;"/><path data-target="point-1-23" d="M345.05874435199985,0L462.6865253552,372.357648L477.3479152256571,372.357648L479.10921080177144,368.21304L478.1733518498151,316.7265469166341L407.1529381391749,0Z" style="opacity: 0;"/><path data-target="point-1-24" d="M478.1733518498151,316.7265469166341L479.10921080177144,368.21304L497.27961155422855,368.21304L496.69176854281426,359.76376799999997Z" style="opacity: 0;"/><path data-target="point-1-25" d="M407.1529381391749,0L478.1733518498151,316.7265469166341L496.69176854281426,359.76376799999997L515.1412354004,359.76376799999997L514.7058430664,353.361528L413.7100703421724,0Z" style="opacity: 0;"/><path data-target="point-1-26" d="M413.7100703421724,0L514.7058430664,353.361528L533.3377934851715,353.36152799999996L532.4821519800857,347.987016L492.3974163381165,168.0915038045629L485.0832983005404,146.22969921804162L473.6358325855,116.88896553251556L437.54319752971594,35.32439213879712L420.4909987153144,0Z" style="opacity: 0;"/><path data-target="point-1-27" d="M532.4821519800857,347.987016L533.3377934851715,353.36152799999996L570.3676089905363,451.5808263022225L550.9285310943629,347.987016Z" style="opacity: 0;"/><path data-target="point-1-28" d="M526.9815449465626,256.6708463586676L550.4213710546579,343.8979505L571.0160062522491,343.8979505L566.5857600039152,334.00163150000003Z" style="opacity: 0;"/><path data-target="point-1-29" d="M485.0832983005404,146.22969921804162L492.3974163381165,168.0915038045629L526.9815449465626,256.6708463586676L566.5857600039152,334.00163150000003L589.4194735634746,334.00163150000003L583.8972163053965,323.6526635Z" style="opacity: 0;"/><path data-target="point-1-30" d="M583.8972163053965,323.6526635L589.4194735634746,334.00163150000003L725.5412568602395,561.6L739.4244759754467,561.6L607.1332989622019,323.6526635Z" style="opacity: 0;"/><path data-target="point-1-31" d="M601.3689023630053,312.8302105L607.1332989622019,323.6526635L739.4244759754467,561.6L768.8905892659596,561.6L624.7874957822597,312.8302105Z" style="opacity: 0;"/><path data-target="point-1-32" d="M619.5813531693623,301.51253799999995L624.7874957822597,312.8302105L768.8905892659596,561.6L799.3467033404885,561.6L642.3731652908244,301.51253799999995Z" style="opacity: 0;"/><path data-target="point-1-33" d="M637.879438770651,289.676734L642.3731652908244,301.51253799999995L799.3467033404885,561.6L830.8750546651538,561.6L659.8800996791646,289.676734Z" style="opacity: 0;"/><path data-target="point-1-34" d="M656.2770854579796,277.2990135L659.8800996791646,289.676734L830.8750546651538,561.6L863.5667663760491,561.6L677.2969166539765,277.2990135Z" style="opacity: 0;"/><path data-target="point-1-35" d="M674.7899704052666,264.35441449999996L677.2969166539765,277.2990135L863.5667663760491,561.6L897.5230604269186,561.6L694.6108164154024,264.35441449999996Z" style="opacity: 0;"/><path data-target="point-1-36" d="M693.4359595797707,250.8168215L694.6108164154024,264.35441449999996L897.5230604269186,561.6L932.8524023286512,561.6L711.8074503930542,250.8168215Z" style="opacity: 0;"/><path data-target="point-1-37" d="M711.8074503930542,250.8168215L932.8524023286512,561.6L936,561.6L936,516.1648879324947L728.8706527494024,236.65885799999998L712.2352223573107,236.65885799999998Z" style="opacity: 0;"/><path data-target="point-1-38" d="M728.8706527494024,236.65885799999998L936,516.1648879324947L936,468.21204295522426L745.7823946677996,221.851993L731.2106959819437,221.851993Z" style="opacity: 0;"/><path data-target="point-1-39" d="M745.7823946677996,221.851993L936,468.21204295522426L936,422.0082832473232L762.5224246061312,206.366238L750.3882047331342,206.366238Z" style="opacity: 0;"/><path data-target="point-1-40" d="M762.5224246061312,206.366238L936,422.0082832473232L936,377.39925492657176L779.068116549235,190.17031199999997L769.7970019119718,190.17031199999997Z" style="opacity: 0;"/><path data-target="point-1-41" d="M779.068116549235,190.17031199999997L936,377.39925492657176L936,334.23484732999646L795.3941290560132,173.2314445L789.4701077718585,173.2314445Z" style="opacity: 0;"/><path data-target="point-1-42" d="M795.3941290560132,173.2314445L936,334.23484732999646L936,292.3733822958734L811.4721955051479,155.5153235L809.4447322241035,155.5153235Z" style="opacity: 0;"/><path data-target="point-1-43" d="M811.4721955051479,155.5153235L936,292.3733822958734L936,251.6748467692485L828.4916130518053,138.273974578811Z" style="opacity: 0;"/><path data-target="point-1-44" d="M828.4916130518053,138.273974578811L936,251.6748467692485L936,212.00666032528534L846.2432569176946,121.13835241163234L828.5374641904067,135.92801834358832Z" style="opacity: 0;"/><path data-target="point-1-45" d="M846.2432569176946,121.13835241163234L936,212.00666032528534L936,173.23922083631533L863.647796017092,102.93704325937837L846.9192362246076,114.68219164656324Z" style="opacity: 0;"/><path data-target="point-1-46" d="M863.647796017092,102.93704325937837L936,173.23922083631533L936,76.135775L893.2811863011127,76.135775L865.6763520213341,92.66938542817Z" style="opacity: 0;"/></g><g class="series"><path data-target="point-0-0" d="M0,502.12375199999997L67.11991810737142,502.12375199999997L66.70836340685715,499.026528L26.16725443993367,217.80491247321424L0,70.02322690870403Z" style="opacity: 0;"/><path data-target="point-0-1" d="M26.16725443993367,217.80491247321424L66.70836340685715,499.026528L85.20424008114287,499.026528L84.41086084142856,495.19079999999997Z" style="opacity: 0;"/><path data-target="point-0-2" d="M84.41086084142856,495.19079999999997L85.20424008114287,499.026528L98.85285518445728,561.6L115.10381339714982,561.6L103.01194324964999,495.19079999999997Z" style="opacity: 0;"/><path data-target="point-0-3" d="M2.2245042964288615,0L102.39338534892858,491.734152L120.9121386889,491.734152L120.33914315799998,488.20449599999995L19.359273922856502,0Z" style="opacity: 0;"/><path data-target="point-0-4" d="M19.359273922856502,0L120.33914315799998,488.20449599999995L138.9216688556,488.20449599999995L138.226618094,484.340688L38.04593614571509,0Z" style="opacity: 0;"/><path data-target="point-0-5" d="M38.04593614571509,0L138.226618094,484.340688L156.8912942184,484.340688L90.93004142393247,156.49854969554144L54.881578617500125,0Z" style="opacity: 0;"/><path data-target="point-0-7" d="M173.94386765765714,476.410896L190.65660075185727,561.6L209.04539111694282,561.6L192.54623927634285,476.410896Z" style="opacity: 0;"/><path data-target="point-0-8" d="M192.04873251817142,472.59482399999996L192.54623927634285,476.410896L209.04539111694282,561.6L228.26930474057124,561.6L210.41740944,472.59482399999996Z" style="opacity: 0;"/><path data-target="point-0-9" d="M210.0232278405,468.601848L210.41740944,472.59482399999996L228.26930474057124,561.6L250.14539445142879,561.6L228.34496694134285,468.601848Z" style="opacity: 0;"/><path data-target="point-0-10" d="M227.93447880948568,463.940568L228.34496694134285,468.601848L250.14539445142879,561.6L271.5021074665998,561.6L246.22174275049997,463.9405679999999Z" style="opacity: 0;"/><path data-target="point-0-11" d="M245.89175327203571,458.54078400000003L246.22174275049997,463.9405679999999L271.5021074665998,561.6L291.9426520854003,561.6L263.97256489731427,458.54078400000003Z" style="opacity: 0;"/><path data-target="point-0-12" d="M263.97256489731427,458.54078400000003L291.9426520854003,561.6L313.67493454899994,561.6L281.523785584,452.22839999999997L264.0437821153714,452.22839999999997Z" style="opacity: 0;"/><path data-target="point-0-13" d="M281.523785584,452.22839999999997L313.67493454899994,561.6L334.6708939159999,561.6L299.090568317,445.7503439999999L282.49827029371426,445.7503439999999Z" style="opacity: 0;"/><path data-target="point-0-14" d="M299.090568317,445.7503439999999L334.6708939159999,561.6L362.09613970834283,561.6L316.6784782614857,439.19928L300.8746745582643,439.19928Z" style="opacity: 0;"/><path data-target="point-0-15" d="M316.6784782614857,439.19928L362.09613970834283,561.6L381.7534181295145,561.6L334.3850765293428,431.97148799999997L319.02969190585713,431.971488Z" style="opacity: 0;"/><path data-target="point-0-16" d="M334.3850765293428,431.97148799999997L381.7534181295145,561.6L397.7309924431998,561.6L351.905247044,424.17086399999994L337.47023725102855,424.17086399999994Z" style="opacity: 0;"/><path data-target="point-0-17" d="M351.905247044,424.17086399999994L397.7309924431998,561.6L411.10852229279993,561.6L369.57733143171424,416.926224L356.0147043997143,416.926224Z" style="opacity: 0;"/><path data-target="point-0-18" d="M369.57733143171424,416.926224L411.10852229279993,561.6L450.10640761814284,561.6L386.72613189202855,410.900256L374.12860517357143,410.900256Z" style="opacity: 0;"/><path data-target="point-0-19" d="M386.72613189202855,410.900256L450.10640761814284,561.6L485.9985506147429,561.6L404.1685097752571,402.773904L392.5785419549714,402.773904Z" style="opacity: 0;"/><path data-target="point-0-20" d="M404.1685097752571,402.773904L485.9985506147429,561.6L512.1227128864289,561.6L422.42085679285714,394.21511999999996L410.0855792430286,394.21511999999996Z" style="opacity: 0;"/><path data-target="point-0-21" d="M422.42085679285714,394.21511999999996L512.1227128864289,561.6L513.1009244930286,561.6L440.98192791631425,385.66476L427.51213811785715,385.66476Z" style="opacity: 0;"/><path data-target="point-0-22" d="M440.98192791631425,385.66476L513.1009244930286,561.6L533.1219873069709,561.6L459.11211234234287,378.81604799999997L445.1179201274071,378.81604799999997Z" style="opacity: 0;"/><path data-target="point-0-23" d="M459.11211234234287,378.81604799999997L533.1219873069709,561.6L561.4455267906003,561.6L477.3479152256571,372.357648L462.6865253552,372.357648Z" style="opacity: 0;"/><path data-target="point-0-24" d="M477.3479152256571,372.357648L561.4455267906003,561.6L596.4311779493715,561.6L497.27961155422855,368.21304L479.10921080177144,368.21304Z" style="opacity: 0;"/><path data-target="point-0-25" d="M496.69176854281426,359.76376799999997L497.27961155422855,368.21304L596.4311779493715,561.6L601.5104184288788,561.6L600.9596370524571,559.9366446812958L515.1412354004,359.76376799999997Z" style="opacity: 0;"/><path data-target="point-0-26" d="M514.7058430664,353.361528L515.1412354004,359.76376799999997L600.9596370524571,559.9366446812958L570.3676089905363,451.5808263022225L533.3377934851715,353.36152799999996Z" style="opacity: 0;"/><path data-target="point-0-27" d="M492.3974163381165,168.0915038045629L532.4821519800857,347.987016L550.9285310943629,347.987016L550.4213710546579,343.8979505L526.9815449465626,256.6708463586676Z" style="opacity: 0;"/><path data-target="point-0-28" d="M550.4213710546579,343.8979505L550.9285310943629,347.987016L570.3676089905363,451.5808263022225L600.9596370524571,559.9366446812958L601.5104184288788,561.6L699.9738926759429,561.6L571.0160062522491,343.8979505Z" style="opacity: 0;"/><path data-target="point-0-29" d="M566.5857600039152,334.00163150000003L571.0160062522491,343.8979505L699.9738926759429,561.6L725.5412568602395,561.6L589.4194735634746,334.00163150000003Z" style="opacity: 0;"/><path data-target="point-0-30" d="M473.6358325855,116.88896553251556L485.0832983005404,146.22969921804162L583.8972163053965,323.6526635L607.1332989622019,323.6526635L601.3689023630053,312.8302105Z" style="opacity: 0;"/><path data-target="point-0-31" d="M437.54319752971594,35.32439213879712L473.6358325855,116.88896553251556L601.3689023630053,312.8302105L624.7874957822597,312.8302105L619.5813531693623,301.51253799999995Z" style="opacity: 0;"/><path data-target="point-0-32" d="M420.4909987153144,0L437.54319752971594,35.32439213879712L619.5813531693623,301.51253799999995L642.3731652908244,301.51253799999995L637.879438770651,289.676734L430.05986986529865,0Z" style="opacity: 0;"/><path data-target="point-0-33" d="M430.05986986529865,0L637.879438770651,289.676734L659.8800996791646,289.676734L656.2770854579796,277.2990135L447.57999098484305,0Z" style="opacity: 0;"/><path data-target="point-0-34" d="M447.57999098484305,0L656.2770854579796,277.2990135L677.2969166539765,277.2990135L674.7899704052666,264.35441449999996L466.0757283202002,0Z" style="opacity: 0;"/><path data-target="point-0-35" d="M466.0757283202002,0L674.7899704052666,264.35441449999996L694.6108164154024,264.35441449999996L693.4359595797707,250.8168215L485.6968431935485,0Z" style="opacity: 0;"/><path data-target="point-0-36" d="M485.6968431935485,0L693.4359595797707,250.8168215L711.8074503930542,250.8168215L712.2352223573107,236.65885799999998L506.6074251087627,0Z" style="opacity: 0;"/><path data-target="point-0-37" d="M506.6074251087627,0L712.2352223573107,236.65885799999998L728.8706527494024,236.65885799999998L731.2106959819437,221.851993L528.9932976499226,0Z" style="opacity: 0;"/><path data-target="point-0-38" d="M528.9932976499226,0L731.2106959819437,221.851993L745.7823946677996,221.851993L750.3882047331342,206.366238L553.0590229817029,0Z" style="opacity: 0;"/><path data-target="point-0-39" d="M553.0590229817029,0L750.3882047331342,206.366238L762.5224246061312,206.366238L769.7970019119718,190.17031199999997L579.0350819569838,0Z" style="opacity: 0;"/><path data-target="point-0-40" d="M579.0350819569838,0L769.7970019119718,190.17031199999997L779.068116549235,190.17031199999997L789.4701077718585,173.2314445L607.1757393106566,0Z" style="opacity: 0;"/><path data-target="point-0-41" d="M607.1757393106566,0L789.4701077718585,173.2314445L795.3941290560132,173.2314445L809.4447322241035,155.5153235L637.7658124937568,2.842170943040401e-14Z" style="opacity: 0;"/><path data-target="point-0-42" d="M637.7658124937568,2.842170943040401e-14L809.4447322241035,155.5153235L811.4721955051479,155.5153235L828.4916130518053,138.273974578811L828.5374641904067,135.92801834358832L671.121433459942,0Z" style="opacity: 0;"/><path data-target="point-0-43" d="M671.121433459942,0L828.5374641904067,135.92801834358832L846.2432569176946,121.13835241163234L846.9192362246076,114.68219164656324L707.5930639312895,0Z" style="opacity: 0;"/><path data-target="point-0-44" d="M707.5930639312895,0L846.9192362246076,114.68219164656324L863.647796017092,102.93704325937837L865.6763520213341,92.66938542817L747.570688937409,0Z" style="opacity: 0;"/><path data-target="point-0-45" d="M747.570688937409,0L865.6763520213341,92.66938542817L893.2811863011127,76.135775L791.4879142936509,0Z" style="opacity: 0;"/><path data-target="point-0-46" d="M791.4879142936509,0L893.2811863011127,76.135775L936,76.135775L936,0Z" style="opacity: 0;"/><path data-target="point-1-0" d="M79.10507242867855,561.6L67.11991810737142,502.12375199999997L0,502.12375199999997L0,561.6Z" style="opacity: 0;"/><path data-target="point-1-1" d="M66.70836340685715,499.026528L67.11991810737142,502.12375199999997L79.10507242867855,561.6L98.85285518445728,561.6L85.20424008114287,499.026528Z" style="opacity: 0;"/><path data-target="point-1-2" d="M0,70.02322690870403L26.16725443993367,217.80491247321424L84.41086084142856,495.19079999999997L103.01194324964999,495.19079999999997L102.39338534892858,491.734152L2.2245042964288615,0L0,0Z" style="opacity: 0;"/><path data-target="point-1-3" d="M102.39338534892858,491.734152L103.01194324964999,495.19079999999997L115.10381339714982,561.6L133.9837269485929,561.6L120.9121386889,491.734152Z" style="opacity: 0;"/><path data-target="point-1-4" d="M120.33914315799998,488.20449599999995L120.9121386889,491.734152L133.9837269485929,561.6L155.39083357279998,561.6L138.9216688556,488.20449599999995Z" style="opacity: 0;"/><path data-target="point-1-5" d="M138.226618094,484.340688L138.9216688556,488.20449599999995L155.39083357279998,561.6L174.51800625120012,561.6L156.8912942184,484.340688Z" style="opacity: 0;"/><path data-target="point-1-6" d="M90.93004142393247,156.49854969554144L156.8912942184,484.340688L174.51800625120012,561.6L190.65660075185727,561.6L173.94386765765714,476.410896Z" style="opacity: 0;"/><path data-target="point-1-7" d="M54.881578617500125,0L90.93004142393247,156.49854969554144L173.94386765765714,476.410896L192.54623927634285,476.410896L192.04873251817142,472.59482399999996L82.30082147443467,0Z" style="opacity: 0;"/><path data-target="point-1-8" d="M82.30082147443467,0L192.04873251817142,472.59482399999996L210.41740944,472.59482399999996L210.0232278405,468.601848L120.46141097767683,103.15262041362917L86.73596106024108,0Z" style="opacity: 0;"/><path data-target="point-1-9" d="M120.46141097767683,103.15262041362917L210.0232278405,468.601848L228.34496694134285,468.601848L227.93447880948568,463.940568L143.00621975448857,166.79566202460325Z" style="opacity: 0;"/><path data-target="point-1-10" d="M143.00621975448857,166.79566202460325L227.93447880948568,463.940568L246.22174275049997,463.9405679999999L245.89175327203571,458.54078400000003L165.49905625591882,224.6996667907974Z" style="opacity: 0;"/><path data-target="point-1-11" d="M165.49905625591882,224.6996667907974L245.89175327203571,458.54078400000003L263.97256489731427,458.54078400000003L264.0437821153714,452.22839999999997Z" style="opacity: 0;"/><path data-target="point-1-12" d="M86.73596106024108,0L120.46141097767683,103.15262041362917L143.00621975448857,166.79566202460325L165.49905625591882,224.6996667907974L264.0437821153714,452.22839999999997L281.523785584,452.22839999999997L282.49827029371426,445.7503439999999L91.25585105394975,0Z" style="opacity: 0;"/><path data-target="point-1-13" d="M91.25585105394975,0L282.49827029371426,445.7503439999999L299.090568317,445.7503439999999L300.8746745582643,439.19928L114.6451605673368,0Z" style="opacity: 0;"/><path data-target="point-1-14" d="M114.6451605673368,0L300.8746745582643,439.19928L316.6784782614857,439.19928L319.02969190585713,431.971488L178.8942934982816,110.27674898816497L127.01981539009962,0Z" style="opacity: 0;"/><path data-target="point-1-15" d="M178.8942934982816,110.27674898816497L319.02969190585713,431.971488L334.3850765293428,431.97148799999997L337.47023725102855,424.17086399999994Z" style="opacity: 0;"/><path data-target="point-1-16" d="M127.01981539009962,0L178.8942934982816,110.27674898816497L337.47023725102855,424.17086399999994L351.905247044,424.17086399999994L356.0147043997143,416.926224L157.93156635508643,0Z" style="opacity: 0;"/><path data-target="point-1-17" d="M157.93156635508643,0L356.0147043997143,416.926224L369.57733143171424,416.926224L374.12860517357143,410.900256L288.55392097092107,188.9012142216482L206.20631585235688,0Z" style="opacity: 0;"/><path data-target="point-1-18" d="M288.55392097092107,188.9012142216482L374.12860517357143,410.900256L386.72613189202855,410.900256L392.5785419549714,402.773904Z" style="opacity: 0;"/><path data-target="point-1-19" d="M206.20631585235688,0L288.55392097092107,188.9012142216482L392.5785419549714,402.773904L404.1685097752571,402.773904L410.0855792430286,394.21511999999996L236.62951853188602,5.684341886080802e-14Z" style="opacity: 0;"/><path data-target="point-1-20" d="M236.62951853188602,5.684341886080802e-14L410.0855792430286,394.21511999999996L422.42085679285714,394.21511999999996L427.51213811785715,385.66476L266.15792243517785,0Z" style="opacity: 0;"/><path data-target="point-1-21" d="M266.15792243517785,0L427.51213811785715,385.66476L440.98192791631425,385.66476L445.1179201274071,378.81604799999997L310.84758659965,0Z" style="opacity: 0;"/><path data-target="point-1-22" d="M310.84758659965,0L445.1179201274071,378.81604799999997L459.11211234234287,378.81604799999997L462.6865253552,372.357648L345.05874435199985,0Z" style="opacity: 0;"/><path data-target="point-1-23" d="M345.05874435199985,0L462.6865253552,372.357648L477.3479152256571,372.357648L479.10921080177144,368.21304L478.1733518498151,316.7265469166341L407.1529381391749,0Z" style="opacity: 0;"/><path data-target="point-1-24" d="M478.1733518498151,316.7265469166341L479.10921080177144,368.21304L497.27961155422855,368.21304L496.69176854281426,359.76376799999997Z" style="opacity: 0;"/><path data-target="point-1-25" d="M407.1529381391749,0L478.1733518498151,316.7265469166341L496.69176854281426,359.76376799999997L515.1412354004,359.76376799999997L514.7058430664,353.361528L413.7100703421724,0Z" style="opacity: 0;"/><path data-target="point-1-26" d="M413.7100703421724,0L514.7058430664,353.361528L533.3377934851715,353.36152799999996L532.4821519800857,347.987016L492.3974163381165,168.0915038045629L485.0832983005404,146.22969921804162L473.6358325855,116.88896553251556L437.54319752971594,35.32439213879712L420.4909987153144,0Z" style="opacity: 0;"/><path data-target="point-1-27" d="M532.4821519800857,347.987016L533.3377934851715,353.36152799999996L570.3676089905363,451.5808263022225L550.9285310943629,347.987016Z" style="opacity: 0;"/><path data-target="point-1-28" d="M526.9815449465626,256.6708463586676L550.4213710546579,343.8979505L571.0160062522491,343.8979505L566.5857600039152,334.00163150000003Z" style="opacity: 0;"/><path data-target="point-1-29" d="M485.0832983005404,146.22969921804162L492.3974163381165,168.0915038045629L526.9815449465626,256.6708463586676L566.5857600039152,334.00163150000003L589.4194735634746,334.00163150000003L583.8972163053965,323.6526635Z" style="opacity: 0;"/><path data-target="point-1-30" d="M583.8972163053965,323.6526635L589.4194735634746,334.00163150000003L725.5412568602395,561.6L739.4244759754467,561.6L607.1332989622019,323.6526635Z" style="opacity: 0;"/><path data-target="point-1-31" d="M601.3689023630053,312.8302105L607.1332989622019,323.6526635L739.4244759754467,561.6L768.8905892659596,561.6L624.7874957822597,312.8302105Z" style="opacity: 0;"/><path data-target="point-1-32" d="M619.5813531693623,301.51253799999995L624.7874957822597,312.8302105L768.8905892659596,561.6L799.3467033404885,561.6L642.3731652908244,301.51253799999995Z" style="opacity: 0;"/><path data-target="point-1-33" d="M637.879438770651,289.676734L642.3731652908244,301.51253799999995L799.3467033404885,561.6L830.8750546651538,561.6L659.8800996791646,289.676734Z" style="opacity: 0;"/><path data-target="point-1-34" d="M656.2770854579796,277.2990135L659.8800996791646,289.676734L830.8750546651538,561.6L863.5667663760491,561.6L677.2969166539765,277.2990135Z" style="opacity: 0;"/><path data-target="point-1-35" d="M674.7899704052666,264.35441449999996L677.2969166539765,277.2990135L863.5667663760491,561.6L897.5230604269186,561.6L694.6108164154024,264.35441449999996Z" style="opacity: 0;"/><path data-target="point-1-36" d="M693.4359595797707,250.8168215L694.6108164154024,264.35441449999996L897.5230604269186,561.6L932.8524023286512,561.6L711.8074503930542,250.8168215Z" style="opacity: 0;"/><path data-target="point-1-37" d="M711.8074503930542,250.8168215L932.8524023286512,561.6L936,561.6L936,516.1648879324947L728.8706527494024,236.65885799999998L712.2352223573107,236.65885799999998Z" style="opacity: 0;"/><path data-target="point-1-38" d="M728.8706527494024,236.65885799999998L936,516.1648879324947L936,468.21204295522426L745.7823946677996,221.851993L731.2106959819437,221.851993Z" style="opacity: 0;"/><path data-target="point-1-39" d="M745.7823946677996,221.851993L936,468.21204295522426L936,422.0082832473232L762.5224246061312,206.366238L750.3882047331342,206.366238Z" style="opacity: 0;"/><path data-target="point-1-40" d="M762.5224246061312,206.366238L936,422.0082832473232L936,377.39925492657176L779.068116549235,190.17031199999997L769.7970019119718,190.17031199999997Z" style="opacity: 0;"/><path data-target="point-1-41" d="M779.068116549235,190.17031199999997L936,377.39925492657176L936,334.23484732999646L795.3941290560132,173.2314445L789.4701077718585,173.2314445Z" style="opacity: 0;"/><path data-target="point-1-42" d="M795.3941290560132,173.2314445L936,334.23484732999646L936,292.3733822958734L811.4721955051479,155.5153235L809.4447322241035,155.5153235Z" style="opacity: 0;"/><path data-target="point-1-43" d="M811.4721955051479,155.5153235L936,292.3733822958734L936,251.6748467692485L828.4916130518053,138.273974578811Z" style="opacity: 0;"/><path data-target="point-1-44" d="M828.4916130518053,138.273974578811L936,251.6748467692485L936,212.00666032528534L846.2432569176946,121.13835241163234L828.5374641904067,135.92801834358832Z" style="opacity: 0;"/><path data-target="point-1-45" d="M846.2432569176946,121.13835241163234L936,212.00666032528534L936,173.23922083631533L863.647796017092,102.93704325937837L846.9192362246076,114.68219164656324Z" style="opacity: 0;"/><path data-target="point-1-46" d="M863.647796017092,102.93704325937837L936,173.23922083631533L936,76.135775L893.2811863011127,76.135775L865.6763520213341,92.66938542817Z" style="opacity: 0;"/></g></g><g class="axes"><g class="y axis" fill="none" font-size="10" font-family="sans-serif" text-anchor="end" style="font-family: &quot;Source Sans Pro&quot;;"><path class="domain" stroke="#eeeeee" d="M0.5,562.1V0.5" stroke-dasharray="0" style="visibility: hidden;"/><g class="tick" opacity="1" transform="translate(0,562.1)" style="visibility: visible;"><line stroke="#eeeeee" x2="936" stroke-dasharray="0"/><text fill="rgb(0, 0, 0)" x="3" dy="-0.33em" opacity="1" text-anchor="start" font-size="18">$0</text></g><g class="tick" opacity="1" transform="translate(0, 505.94000244140625)" style="visibility: visible;"><line stroke="#eeeeee" x2="936" stroke-dasharray="0"/><text fill="rgb(0, 0, 0)" x="3" dy="-0.33em" opacity="1" text-anchor="start" font-size="18">$10,000</text></g><g class="tick" opacity="1" transform="translate(0, 449.7799987792969)" style="visibility: visible;"><line stroke="#eeeeee" x2="936" stroke-dasharray="0"/><text fill="rgb(0, 0, 0)" x="3" dy="-0.33em" opacity="1" text-anchor="start" font-size="18">$20,000</text></g><g class="tick" opacity="1" transform="translate(0, 393.6199951171875)" style="visibility: visible;"><line stroke="#eeeeee" x2="936" stroke-dasharray="0"/><text fill="rgb(0, 0, 0)" x="3" dy="-0.33em" opacity="1" text-anchor="start" font-size="18">$30,000</text></g><g class="tick" opacity="1" transform="translate(0, 337.4599914550781)" style="visibility: visible;"><line stroke="#eeeeee" x2="936" stroke-dasharray="0"/><text fill="rgb(0, 0, 0)" x="3" dy="-0.33em" opacity="1" text-anchor="start" font-size="18">$40,000</text></g><g class="tick" opacity="1" transform="translate(0, 281.29998779296875)" style="visibility: visible;"><line stroke="#eeeeee" x2="936" stroke-dasharray="0"/><text fill="rgb(0, 0, 0)" x="3" dy="-0.33em" opacity="1" text-anchor="start" font-size="18">$50,000</text></g><g class="tick" opacity="1" transform="translate(0, 225.13999938964844)" style="visibility: visible;"><line stroke="#eeeeee" x2="936" stroke-dasharray="0"/><text fill="rgb(0, 0, 0)" x="3" dy="-0.33em" opacity="1" text-anchor="start" font-size="18">$60,000</text></g><g class="tick" opacity="1" transform="translate(0, 168.97999572753906)" style="visibility: visible;"><line stroke="#eeeeee" x2="936" stroke-dasharray="0"/><text fill="rgb(0, 0, 0)" x="3" dy="-0.33em" opacity="1" text-anchor="start" font-size="18">$70,000</text></g><g class="tick" opacity="1" transform="translate(0, 112.81999969482422)" style="visibility: visible;"><line stroke="#eeeeee" x2="936" stroke-dasharray="0"/><text fill="rgb(0, 0, 0)" x="3" dy="-0.33em" opacity="1" text-anchor="start" font-size="18">$80,000</text></g><g class="tick" opacity="1" transform="translate(0, 56.65999984741211)" style="visibility: visible;"><line stroke="#eeeeee" x2="936" stroke-dasharray="0"/><text fill="rgb(0, 0, 0)" x="3" dy="-0.33em" opacity="1" text-anchor="start" font-size="18">$90,000</text></g><g class="tick" opacity="1" transform="translate(0, 0.5)" style="visibility: visible;"><line stroke="#eeeeee" x2="936" stroke-dasharray="0"/><text fill="rgb(0, 0, 0)" x="3" dy="-0.33em" opacity="1" text-anchor="start" font-size="18">$100,000</text></g></g><g class="x axis" transform="translate(0,561.6)" fill="none" font-size="10" font-family="sans-serif" text-anchor="middle" style="font-family: &quot;Source Sans Pro&quot;;"><path class="domain" stroke="#eeeeee" d="M40.5,0.5H936.5" stroke-dasharray="0"/><g class="tick" opacity="1" transform="translate(40.5,0)"><line stroke="#eeeeee" y2="6" stroke-dasharray="0"/><text fill="rgb(0, 0, 0)" y="9" dy="-9" opacity="1" dominant-baseline="central" font-size="18" transform="translate(0, 15) rotate(-45)" dx="5" style="text-anchor: end; visibility: visible;">1990</text></g><g class="tick" opacity="1" transform="translate(130.10000000000002,0)"><line stroke="#eeeeee" y2="6" stroke-dasharray="0"/><text fill="rgb(0, 0, 0)" y="9" dy="-9" opacity="1" dominant-baseline="central" font-size="18" transform="translate(0, 15) rotate(-45)" dx="5" style="text-anchor: end; visibility: visible;">1995</text></g><g class="tick" opacity="1" transform="translate(219.70000000000002,0)"><line stroke="#eeeeee" y2="6" stroke-dasharray="0"/><text fill="rgb(0, 0, 0)" y="9" dy="-9" opacity="1" dominant-baseline="central" font-size="18" transform="translate(0, 15) rotate(-45)" dx="5" style="text-anchor: end; visibility: visible;">2000</text></g><g class="tick" opacity="1" transform="translate(309.3,0)"><line stroke="#eeeeee" y2="6" stroke-dasharray="0"/><text fill="rgb(0, 0, 0)" y="9" dy="-9" opacity="1" dominant-baseline="central" font-size="18" transform="translate(0, 15) rotate(-45)" dx="5" style="text-anchor: end; visibility: visible;">2005</text></g><g class="tick" opacity="1" transform="translate(398.90000000000003,0)"><line stroke="#eeeeee" y2="6" stroke-dasharray="0"/><text fill="rgb(0, 0, 0)" y="9" dy="-9" opacity="1" dominant-baseline="central" font-size="18" transform="translate(0, 15) rotate(-45)" dx="5" style="text-anchor: end; visibility: visible;">2010</text></g><g class="tick" opacity="1" transform="translate(488.5,0)"><line stroke="#eeeeee" y2="6" stroke-dasharray="0"/><text fill="rgb(0, 0, 0)" y="9" dy="-9" opacity="1" dominant-baseline="central" font-size="18" transform="translate(0, 15) rotate(-45)" dx="5" style="text-anchor: end; visibility: visible;">2015</text></g><g class="tick" opacity="1" transform="translate(578.1,0)"><line stroke="#eeeeee" y2="6" stroke-dasharray="0"/><text fill="rgb(0, 0, 0)" y="9" dy="-9" opacity="1" dominant-baseline="central" font-size="18" transform="translate(0, 15) rotate(-45)" dx="5" style="text-anchor: end; visibility: visible;">2020</text></g><g class="tick" opacity="1" transform="translate(667.6999999999999,0)"><line stroke="#eeeeee" y2="6" stroke-dasharray="0"/><text fill="rgb(0, 0, 0)" y="9" dy="-9" opacity="1" dominant-baseline="central" font-size="18" transform="translate(0, 15) rotate(-45)" dx="5" style="text-anchor: end; visibility: visible;">2025</text></g><g class="tick" opacity="1" transform="translate(757.3000000000001,0)"><line stroke="#eeeeee" y2="6" stroke-dasharray="0"/><text fill="rgb(0, 0, 0)" y="9" dy="-9" opacity="1" dominant-baseline="central" font-size="18" transform="translate(0, 15) rotate(-45)" dx="5" style="text-anchor: end; visibility: visible;">2030</text></g><g class="tick" opacity="1" transform="translate(846.9,0)"><line stroke="#eeeeee" y2="6" stroke-dasharray="0"/><text fill="rgb(0, 0, 0)" y="9" dy="-9" opacity="1" dominant-baseline="central" font-size="18" transform="translate(0, 15) rotate(-45)" dx="5" style="text-anchor: end; visibility: visible;">2035</text></g><g class="tick" opacity="1" transform="translate(936.5,0)"><line stroke="#eeeeee" y2="6" stroke-dasharray="0"/><text fill="rgb(0, 0, 0)" y="9" dy="-9" opacity="1" dominant-baseline="central" font-size="18" transform="translate(0, 15) rotate(-45)" dx="5" style="text-anchor: end; visibility: visible;">2040</text></g></g></g></g></g></g><g class="annotations below"><g class="axis-highlights" transform="translate(15, 20)" style="opacity: 1;"><g class="line x" transform="translate(559.68, 0)"><line width="0" stroke-dasharray="2 2" stroke="#333333" stroke-width="2" y2="561.6"/><text transform="translate(0, 6) rotate(-90)" fill="#333333" text-anchor="end" dy="-0.5em" font-size="12">Current</text></g></g></g><g id="areas"><g class="series" pointer-events="none"><path class="area" transform="translate(15,20)" fill-opacity="0" fill="rgb(17, 165, 121)" clip-path="url(#clip-0-0)" d="M57.92,501.5088C63.89333333333334,500.74128,69.86666666666667,499.97376,75.84,498.92544000000004C81.81333333333333,497.87712000000005,87.78666666666666,496.4544,93.75999999999999,495.21888C99.73333333333333,493.98336,105.70666666666666,492.74784000000005,111.68,491.51232000000005C117.65333333333335,490.27680000000004,123.62666666666668,489.04128000000003,129.60000000000002,487.80576C135.57333333333335,486.57024,141.54666666666665,485.31787199999997,147.51999999999998,484.0992C153.4933333333333,482.88052799999997,159.46666666666667,481.68057600000003,165.44,480.49372800000003C171.41333333333333,479.30688000000004,177.38666666666668,478.142496,183.36,476.978112C189.33333333333334,475.813728,195.30666666666667,474.684912,201.28,473.507424C207.25333333333333,472.32993600000003,213.2266666666667,471.212352,219.20000000000002,469.913184C225.17333333333335,468.614016,231.14666666666668,467.18568,237.12,465.712416C243.09333333333333,464.23915200000005,249.06666666666666,462.65731200000005,255.04,461.07360000000006C261.0133333333333,459.48988800000006,266.9866666666667,457.89868800000005,272.96000000000004,456.210144C278.93333333333334,454.52160000000003,284.9066666666667,452.737584,290.88,450.942336C296.85333333333335,449.147088,302.82666666666665,447.46416000000005,308.8,445.43865600000004C314.77333333333337,443.413152,320.74666666666667,440.988912,326.72,438.789312C332.6933333333334,436.58971199999996,338.6666666666667,434.32833600000004,344.64000000000004,432.241056C350.61333333333334,430.153776,356.5866666666667,428.11891199999997,362.56,426.265632C368.53333333333336,424.412352,374.50666666666666,423.2348640000001,380.48,421.12137600000005C386.4533333333334,419.00788800000004,392.4266666666667,416.3796,398.40000000000003,413.584704C404.37333333333333,410.789808,410.3466666666667,407.49134399999997,416.32,404.352C422.29333333333335,401.212656,428.26666666666665,397.573488,434.24,394.74864C440.21333333333337,391.92379200000005,446.18666666666667,389.836512,452.16,387.402912C458.1333333333333,384.969312,464.1066666666667,382.6836,470.08,380.14704C476.05333333333334,377.61048,482.02666666666664,375.04209599999996,488,372.18355199999996C493.97333333333336,369.32500799999997,499.94666666666666,365.80751999999995,505.92,362.995776C511.8933333333334,360.184032,517.8666666666667,357.90955199999996,523.84,355.313088C529.8133333333334,352.716624,535.7866666666666,348.8987174400001,541.76,347.41699200000005C547.7333333333333,345.93526656,553.7066666666666,346.67612928000005,559.68,345.19440384C565.6533333333333,343.71267839999996,571.6266666666667,338.2044588,577.6,334.57932144C583.5733333333334,330.95418408,589.5466666666666,327.24652896000003,595.52,323.44357968C601.4933333333333,319.6406304,607.4666666666667,315.75111048,613.44,311.76162576C619.4133333333334,307.77214104,625.3866666666667,303.69185495999994,631.36,299.50667136C637.3333333333334,295.32148775999997,643.3066666666667,291.04100064000005,649.2800000000001,286.65052416000003C655.2533333333333,282.26004768000007,661.2266666666667,277.76964384,667.1999999999999,273.16381248000005C673.1733333333333,268.55798112,679.1466666666666,263.84728968,685.12,259.015536C691.0933333333334,254.18378232,697.0666666666666,249.24204864000004,703.04,244.17329040000004C709.0133333333333,239.10453216000002,714.9866666666667,233.92037448,720.96,228.60298655999998C726.9333333333334,223.28559864,732.9066666666666,217.84717655999998,738.88,212.26896288C744.8533333333334,206.69074919999997,750.8266666666667,200.98553904,756.8000000000001,195.13370447999995C762.7733333333333,189.28186992,768.7466666666667,183.29683319999992,774.7199999999999,177.15795551999997C780.6933333333333,171.01907783999994,786.6666666666666,164.740446,792.64,158.30043839999996C798.6133333333333,151.8604308,804.5866666666666,145.27380815999993,810.56,138.51790991999997C816.5333333333333,131.76201167999994,822.5066666666667,124.85232864000001,828.48,117.76504896C834.4533333333334,110.67776928000004,840.4266666666666,103.42916064000005,846.4,95.99423184000005C852.3733333333333,88.55930304000002,858.3466666666667,80.95509863999996,864.32,73.15547615999992C870.2933333333334,65.35585367999994,876.2666666666667,57.276175319999965,882.24,49.19649695999999L882.24,49.19649695999999C876.2666666666667,57.276175319999965,870.2933333333334,65.35585367999994,864.32,73.15547615999992C858.3466666666667,80.95509863999996,852.3733333333333,88.55930304000002,846.4,95.99423184000005C840.4266666666666,103.42916064000005,834.4533333333334,110.67776928000004,828.48,117.76504896C822.5066666666667,124.85232864000001,816.5333333333333,131.76201167999994,810.56,138.51790991999997C804.5866666666666,145.27380815999993,798.6133333333333,151.8604308,792.64,158.30043839999996C786.6666666666666,164.740446,780.6933333333333,171.01907783999994,774.7199999999999,177.15795551999997C768.7466666666667,183.29683319999992,762.7733333333333,189.28186992,756.8000000000001,195.13370447999995C750.8266666666667,200.98553904,744.8533333333334,206.69074919999997,738.88,212.26896288C732.9066666666666,217.84717655999998,726.9333333333334,223.28559864,720.96,228.60298655999998C714.9866666666667,233.92037448,709.0133333333333,239.10453216000002,703.04,244.17329040000004C697.0666666666666,249.24204864000004,691.0933333333334,254.18378232,685.12,259.015536C679.1466666666666,263.84728968,673.1733333333333,268.55798112,667.1999999999999,273.16381248000005C661.2266666666667,277.76964384,655.2533333333333,282.26004768000007,649.2800000000001,286.65052416000003C643.3066666666667,291.04100064000005,637.3333333333334,295.32148775999997,631.36,299.50667136C625.3866666666667,303.69185495999994,619.4133333333334,307.77214104,613.44,311.76162576C607.4666666666667,315.75111048,601.4933333333333,319.6406304,595.52,323.44357968C589.5466666666666,327.24652896000003,583.5733333333334,330.95418408,577.6,334.57932144C571.6266666666667,338.2044588,565.6533333333333,343.71267839999996,559.68,345.19440384C553.7066666666666,346.67612928000005,547.7333333333333,345.93526656,541.76,347.41699200000005C535.7866666666666,348.8987174400001,529.8133333333334,352.716624,523.84,355.313088C517.8666666666667,357.90955199999996,511.8933333333334,360.184032,505.92,362.995776C499.94666666666666,365.80751999999995,493.97333333333336,369.32500799999997,488,372.18355199999996C482.02666666666664,375.04209599999996,476.05333333333334,377.61048,470.08,380.14704C464.1066666666667,382.6836,458.1333333333333,384.969312,452.16,387.402912C446.18666666666667,389.836512,440.21333333333337,391.92379200000005,434.24,394.74864C428.26666666666665,397.573488,422.29333333333335,401.212656,416.32,404.352C410.3466666666667,407.49134399999997,404.37333333333333,410.789808,398.40000000000003,413.584704C392.4266666666667,416.3796,386.4533333333334,419.00788800000004,380.48,421.12137600000005C374.50666666666666,423.2348640000001,368.53333333333336,424.412352,362.56,426.265632C356.5866666666667,428.11891199999997,350.61333333333334,430.153776,344.64000000000004,432.241056C338.6666666666667,434.32833600000004,332.6933333333334,436.58971199999996,326.72,438.789312C320.74666666666667,440.988912,314.77333333333337,443.413152,308.8,445.43865600000004C302.82666666666665,447.46416000000005,296.85333333333335,449.147088,290.88,450.942336C284.9066666666667,452.737584,278.93333333333334,454.52160000000003,272.96000000000004,456.210144C266.9866666666667,457.89868800000005,261.0133333333333,459.48988800000006,255.04,461.07360000000006C249.06666666666666,462.65731200000005,243.09333333333333,464.23915200000005,237.12,465.712416C231.14666666666668,467.18568,225.17333333333335,468.614016,219.20000000000002,469.913184C213.2266666666667,471.212352,207.25333333333333,472.32993600000003,201.28,473.507424C195.30666666666667,474.684912,189.33333333333334,475.813728,183.36,476.978112C177.38666666666668,478.142496,171.41333333333333,479.30688000000004,165.44,480.49372800000003C159.46666666666667,481.68057600000003,153.4933333333333,482.88052799999997,147.51999999999998,484.0992C141.54666666666665,485.31787199999997,135.57333333333335,486.57024,129.60000000000002,487.80576C123.62666666666668,489.04128000000003,117.65333333333335,490.27680000000004,111.68,491.51232000000005C105.70666666666666,492.74784000000005,99.73333333333333,493.98336,93.75999999999999,495.21888C87.78666666666666,496.4544,81.81333333333333,497.87712000000005,75.84,498.92544000000004C69.86666666666667,499.97376,63.89333333333334,500.74128,57.92,501.5088Z"/></g><g class="series" pointer-events="none"><path class="area" transform="translate(15,20)" fill-opacity="0" fill="rgb(128, 35, 146)" clip-path="url(#clip-0-1)" d="M57.92,502.73870400000004C63.89333333333334,501.56449200000003,69.86666666666667,500.39028,75.84,499.127616C81.81333333333333,497.864952,87.78666666666666,496.357992,93.75999999999999,495.16272000000004C99.73333333333333,493.96744800000005,105.70666666666666,493.0492320000001,111.68,491.95598400000006C117.65333333333335,490.86273600000004,123.62666666666668,489.83220000000006,129.60000000000002,488.60323200000005C135.57333333333335,487.37426400000004,141.54666666666665,485.93376,147.51999999999998,484.582176C153.4933333333333,483.230592,159.46666666666667,481.950144,165.44,480.49372800000003C171.41333333333333,479.03731200000004,177.38666666666668,477.312264,183.36,475.84368C189.33333333333334,474.375096,195.30666666666667,473.107752,201.28,471.682224C207.25333333333333,470.25669600000003,213.2266666666667,468.876096,219.20000000000002,467.29051200000004C225.17333333333335,465.70492800000005,231.14666666666668,464.049144,237.12,462.16872C243.09333333333333,460.288296,249.06666666666666,458.328312,255.04,456.007968C261.0133333333333,453.687624,266.9866666666667,450.821592,272.96000000000004,448.24665600000003C278.93333333333334,445.67172000000005,284.9066666666667,443.10614400000003,290.88,440.558352C296.85333333333335,438.01056,302.82666666666665,435.52735200000006,308.8,432.95990400000005C314.77333333333337,430.39245600000004,320.74666666666667,427.96353600000003,326.72,425.15366400000005C332.6933333333334,422.34379200000006,338.6666666666667,419.02848000000006,344.64000000000004,416.10067200000003C350.61333333333334,413.172864,356.5866666666667,410.157072,362.56,407.586816C368.53333333333336,405.01655999999997,374.50666666666666,403.28308799999996,380.48,400.67913599999997C386.4533333333334,398.075184,392.4266666666667,394.72992000000005,398.40000000000003,391.96310400000004C404.37333333333333,389.19628800000004,410.3466666666667,386.6419440000001,416.32,384.07824000000005C422.29333333333335,381.514536,428.26666666666665,378.889056,434.24,376.58088C440.21333333333337,374.272704,446.18666666666667,372.231288,452.16,370.22918400000003C458.1333333333333,368.22708000000006,464.1066666666667,364.785408,470.08,364.568256C476.05333333333334,364.351104,482.02666666666664,364.45968,488,364.242528C493.97333333333336,364.025376,499.94666666666666,358.67052,505.92,356.53176C511.8933333333334,354.39300000000003,517.8666666666667,352.73908800000004,523.84,351.40996800000005C529.8133333333334,350.08084800000006,535.7866666666666,350.02511856,541.76,348.55704000000003C547.7333333333333,347.08896144000005,553.7066666666666,345.12367968,559.68,342.60149664000005C565.6533333333333,340.07931360000003,571.6266666666667,336.54723336000006,577.6,333.42394176000005C583.5733333333334,330.3006501600001,589.5466666666666,327.11593824000005,595.52,323.86174704000007C601.4933333333333,320.60755584000003,607.4666666666667,317.2893516000001,613.44,313.89879456000006C619.4133333333334,310.5082375200001,625.3866666666667,307.05104664000004,631.36,303.51840480000004C637.3333333333334,299.98576296000005,643.3066666666667,296.38364184000005,649.2800000000001,292.70294352C655.2533333333333,289.02224520000004,661.2266666666667,285.26915664,667.1999999999999,281.43421488C673.1733333333333,277.59927311999996,679.1466666666666,273.68893656,685.12,269.69329296C691.0933333333334,265.69764936,697.0666666666666,261.62344728,703.04,257.46035328C709.0133333333333,253.29725928,714.9866666666667,249.05228400000001,720.96,244.71472896C726.9333333333334,240.37717392000002,732.9066666666666,235.95434928000003,738.88,231.43502304000003C744.8533333333334,226.91569680000003,750.8266666666667,222.30749736000004,756.8000000000001,217.59877152C762.7733333333333,212.89004568000004,768.7466666666667,208.08872135999994,774.7199999999999,203.18266799999998C780.6933333333333,198.27661463999996,786.6666666666666,193.27410648000006,792.64,188.16245136000003C798.6133333333333,183.05079624000007,804.5866666666666,177.83860536,810.56,172.51273728C816.5333333333333,167.1868692,822.5066666666667,161.75630016,828.48,156.20724287999997C834.4533333333334,150.6581856,840.4266666666666,145.00000007999998,846.4,139.2183936C852.3733333333333,133.43678712,858.3466666666667,127.54149408000002,864.32,121.517604C870.2933333333334,115.49371392000003,876.2666666666667,109.28438352000005,882.24,103.07505312000006L882.24,103.07505312000006C876.2666666666667,109.28438352000005,870.2933333333334,115.49371392000003,864.32,121.517604C858.3466666666667,127.54149408000002,852.3733333333333,133.43678712,846.4,139.2183936C840.4266666666666,145.00000007999998,834.4533333333334,150.6581856,828.48,156.20724287999997C822.5066666666667,161.75630016,816.5333333333333,167.1868692,810.56,172.51273728C804.5866666666666,177.83860536,798.6133333333333,183.05079624000007,792.64,188.16245136000003C786.6666666666666,193.27410648000006,780.6933333333333,198.27661463999996,774.7199999999999,203.18266799999998C768.7466666666667,208.08872135999994,762.7733333333333,212.89004568000004,756.8000000000001,217.59877152C750.8266666666667,222.30749736000004,744.8533333333334,226.91569680000003,738.88,231.43502304000003C732.9066666666666,235.95434928000003,726.9333333333334,240.37717392000002,720.96,244.71472896C714.9866666666667,249.05228400000001,709.0133333333333,253.29725928,703.04,257.46035328C697.0666666666666,261.62344728,691.0933333333334,265.69764936,685.12,269.69329296C679.1466666666666,273.68893656,673.1733333333333,277.59927311999996,667.1999999999999,281.43421488C661.2266666666667,285.26915664,655.2533333333333,289.02224520000004,649.2800000000001,292.70294352C643.3066666666667,296.38364184000005,637.3333333333334,299.98576296000005,631.36,303.51840480000004C625.3866666666667,307.05104664000004,619.4133333333334,310.5082375200001,613.44,313.89879456000006C607.4666666666667,317.2893516000001,601.4933333333333,320.60755584000003,595.52,323.86174704000007C589.5466666666666,327.11593824000005,583.5733333333334,330.3006501600001,577.6,333.42394176000005C571.6266666666667,336.54723336000006,565.6533333333333,340.07931360000003,559.68,342.60149664000005C553.7066666666666,345.12367968,547.7333333333333,347.08896144000005,541.76,348.55704000000003C535.7866666666666,350.02511856,529.8133333333334,350.08084800000006,523.84,351.40996800000005C517.8666666666667,352.73908800000004,511.8933333333334,354.39300000000003,505.92,356.53176C499.94666666666666,358.67052,493.97333333333336,364.025376,488,364.242528C482.02666666666664,364.45968,476.05333333333334,364.351104,470.08,364.568256C464.1066666666667,364.785408,458.1333333333333,368.22708000000006,452.16,370.22918400000003C446.18666666666667,372.231288,440.21333333333337,374.272704,434.24,376.58088C428.26666666666665,378.889056,422.29333333333335,381.514536,416.32,384.07824000000005C410.3466666666667,386.6419440000001,404.37333333333333,389.19628800000004,398.40000000000003,391.96310400000004C392.4266666666667,394.72992000000005,386.4533333333334,398.075184,380.48,400.67913599999997C374.50666666666666,403.28308799999996,368.53333333333336,405.01655999999997,362.56,407.586816C356.5866666666667,410.157072,350.61333333333334,413.172864,344.64000000000004,416.10067200000003C338.6666666666667,419.02848000000006,332.6933333333334,422.34379200000006,326.72,425.15366400000005C320.74666666666667,427.96353600000003,314.77333333333337,430.39245600000004,308.8,432.95990400000005C302.82666666666665,435.52735200000006,296.85333333333335,438.01056,290.88,440.558352C284.9066666666667,443.10614400000003,278.93333333333334,445.67172000000005,272.96000000000004,448.24665600000003C266.9866666666667,450.821592,261.0133333333333,453.687624,255.04,456.007968C249.06666666666666,458.328312,243.09333333333333,460.288296,237.12,462.16872C231.14666666666668,464.049144,225.17333333333335,465.70492800000005,219.20000000000002,467.29051200000004C213.2266666666667,468.876096,207.25333333333333,470.25669600000003,201.28,471.682224C195.30666666666667,473.107752,189.33333333333334,474.375096,183.36,475.84368C177.38666666666668,477.312264,171.41333333333333,479.03731200000004,165.44,480.49372800000003C159.46666666666667,481.950144,153.4933333333333,483.230592,147.51999999999998,484.582176C141.54666666666665,485.93376,135.57333333333335,487.37426400000004,129.60000000000002,488.60323200000005C123.62666666666668,489.83220000000006,117.65333333333335,490.86273600000004,111.68,491.95598400000006C105.70666666666666,493.0492320000001,99.73333333333333,493.96744800000005,93.75999999999999,495.16272000000004C87.78666666666666,496.357992,81.81333333333333,497.864952,75.84,499.127616C69.86666666666667,500.39028,63.89333333333334,501.56449200000003,57.92,502.73870400000004Z"/></g></g><g id="lines"><g class="series"><clipPath id="clip-0-0"><rect width="936" y="-20" height="599.6"/></clipPath><path class="line" opacity="1" fill="none" stroke="rgb(17, 165, 121)" stroke-width="2" transform="translate(15,20)" clip-path="url(#clip-0-0)" d="M57.92,501.5088C63.89333333333334,500.74128,69.86666666666667,499.97376,75.84,498.92544000000004C81.81333333333333,497.87712000000005,87.78666666666666,496.4544,93.75999999999999,495.21888C99.73333333333333,493.98336,105.70666666666666,492.74784000000005,111.68,491.51232000000005C117.65333333333335,490.27680000000004,123.62666666666668,489.04128000000003,129.60000000000002,487.80576C135.57333333333335,486.57024,141.54666666666665,485.31787199999997,147.51999999999998,484.0992C153.4933333333333,482.88052799999997,159.46666666666667,481.68057600000003,165.44,480.49372800000003C171.41333333333333,479.30688000000004,177.38666666666668,478.142496,183.36,476.978112C189.33333333333334,475.813728,195.30666666666667,474.684912,201.28,473.507424C207.25333333333333,472.32993600000003,213.2266666666667,471.212352,219.20000000000002,469.913184C225.17333333333335,468.614016,231.14666666666668,467.18568,237.12,465.712416C243.09333333333333,464.23915200000005,249.06666666666666,462.65731200000005,255.04,461.07360000000006C261.0133333333333,459.48988800000006,266.9866666666667,457.89868800000005,272.96000000000004,456.210144C278.93333333333334,454.52160000000003,284.9066666666667,452.737584,290.88,450.942336C296.85333333333335,449.147088,302.82666666666665,447.46416000000005,308.8,445.43865600000004C314.77333333333337,443.413152,320.74666666666667,440.988912,326.72,438.789312C332.6933333333334,436.58971199999996,338.6666666666667,434.32833600000004,344.64000000000004,432.241056C350.61333333333334,430.153776,356.5866666666667,428.11891199999997,362.56,426.265632C368.53333333333336,424.412352,374.50666666666666,423.2348640000001,380.48,421.12137600000005C386.4533333333334,419.00788800000004,392.4266666666667,416.3796,398.40000000000003,413.584704C404.37333333333333,410.789808,410.3466666666667,407.49134399999997,416.32,404.352C422.29333333333335,401.212656,428.26666666666665,397.573488,434.24,394.74864C440.21333333333337,391.92379200000005,446.18666666666667,389.836512,452.16,387.402912C458.1333333333333,384.969312,464.1066666666667,382.6836,470.08,380.14704C476.05333333333334,377.61048,482.02666666666664,375.04209599999996,488,372.18355199999996C493.97333333333336,369.32500799999997,499.94666666666666,365.80751999999995,505.92,362.995776C511.8933333333334,360.184032,517.8666666666667,357.90955199999996,523.84,355.313088C529.8133333333334,352.716624,535.7866666666666,348.8987174400001,541.76,347.41699200000005C547.7333333333333,345.93526656,553.7066666666666,346.67612928000005,559.68,345.19440384C565.6533333333333,343.71267839999996,571.6266666666667,338.2044588,577.6,334.57932144C583.5733333333334,330.95418408,589.5466666666666,327.24652896000003,595.52,323.44357968C601.4933333333333,319.6406304,607.4666666666667,315.75111048,613.44,311.76162576C619.4133333333334,307.77214104,625.3866666666667,303.69185495999994,631.36,299.50667136C637.3333333333334,295.32148775999997,643.3066666666667,291.04100064000005,649.2800000000001,286.65052416000003C655.2533333333333,282.26004768000007,661.2266666666667,277.76964384,667.1999999999999,273.16381248000005C673.1733333333333,268.55798112,679.1466666666666,263.84728968,685.12,259.015536C691.0933333333334,254.18378232,697.0666666666666,249.24204864000004,703.04,244.17329040000004C709.0133333333333,239.10453216000002,714.9866666666667,233.92037448,720.96,228.60298655999998C726.9333333333334,223.28559864,732.9066666666666,217.84717655999998,738.88,212.26896288C744.8533333333334,206.69074919999997,750.8266666666667,200.98553904,756.8000000000001,195.13370447999995C762.7733333333333,189.28186992,768.7466666666667,183.29683319999992,774.7199999999999,177.15795551999997C780.6933333333333,171.01907783999994,786.6666666666666,164.740446,792.64,158.30043839999996C798.6133333333333,151.8604308,804.5866666666666,145.27380815999993,810.56,138.51790991999997C816.5333333333333,131.76201167999994,822.5066666666667,124.85232864000001,828.48,117.76504896C834.4533333333334,110.67776928000004,840.4266666666666,103.42916064000005,846.4,95.99423184000005C852.3733333333333,88.55930304000002,858.3466666666667,80.95509863999996,864.32,73.15547615999992C870.2933333333334,65.35585367999994,876.2666666666667,57.276175319999965,882.24,49.19649695999999"/><text class="label" font-size="11" alignment-baseline="middle" opacity="1" x="5" fill="rgb(17, 165, 121)" transform="translate(897.239990234375, 69.19649505615234)"/></g><g class="series"><clipPath id="clip-0-1"><rect width="936" y="-20" height="599.6"/></clipPath><path class="line" opacity="1" fill="none" stroke="rgb(128, 35, 146)" stroke-width="2" transform="translate(15,20)" clip-path="url(#clip-0-1)" d="M57.92,502.73870400000004C63.89333333333334,501.56449200000003,69.86666666666667,500.39028,75.84,499.127616C81.81333333333333,497.864952,87.78666666666666,496.357992,93.75999999999999,495.16272000000004C99.73333333333333,493.96744800000005,105.70666666666666,493.0492320000001,111.68,491.95598400000006C117.65333333333335,490.86273600000004,123.62666666666668,489.83220000000006,129.60000000000002,488.60323200000005C135.57333333333335,487.37426400000004,141.54666666666665,485.93376,147.51999999999998,484.582176C153.4933333333333,483.230592,159.46666666666667,481.950144,165.44,480.49372800000003C171.41333333333333,479.03731200000004,177.38666666666668,477.312264,183.36,475.84368C189.33333333333334,474.375096,195.30666666666667,473.107752,201.28,471.682224C207.25333333333333,470.25669600000003,213.2266666666667,468.876096,219.20000000000002,467.29051200000004C225.17333333333335,465.70492800000005,231.14666666666668,464.049144,237.12,462.16872C243.09333333333333,460.288296,249.06666666666666,458.328312,255.04,456.007968C261.0133333333333,453.687624,266.9866666666667,450.821592,272.96000000000004,448.24665600000003C278.93333333333334,445.67172000000005,284.9066666666667,443.10614400000003,290.88,440.558352C296.85333333333335,438.01056,302.82666666666665,435.52735200000006,308.8,432.95990400000005C314.77333333333337,430.39245600000004,320.74666666666667,427.96353600000003,326.72,425.15366400000005C332.6933333333334,422.34379200000006,338.6666666666667,419.02848000000006,344.64000000000004,416.10067200000003C350.61333333333334,413.172864,356.5866666666667,410.157072,362.56,407.586816C368.53333333333336,405.01655999999997,374.50666666666666,403.28308799999996,380.48,400.67913599999997C386.4533333333334,398.075184,392.4266666666667,394.72992000000005,398.40000000000003,391.96310400000004C404.37333333333333,389.19628800000004,410.3466666666667,386.6419440000001,416.32,384.07824000000005C422.29333333333335,381.514536,428.26666666666665,378.889056,434.24,376.58088C440.21333333333337,374.272704,446.18666666666667,372.231288,452.16,370.22918400000003C458.1333333333333,368.22708000000006,464.1066666666667,364.785408,470.08,364.568256C476.05333333333334,364.351104,482.02666666666664,364.45968,488,364.242528C493.97333333333336,364.025376,499.94666666666666,358.67052,505.92,356.53176C511.8933333333334,354.39300000000003,517.8666666666667,352.73908800000004,523.84,351.40996800000005C529.8133333333334,350.08084800000006,535.7866666666666,350.02511856,541.76,348.55704000000003C547.7333333333333,347.08896144000005,553.7066666666666,345.12367968,559.68,342.60149664000005C565.6533333333333,340.07931360000003,571.6266666666667,336.54723336000006,577.6,333.42394176000005C583.5733333333334,330.3006501600001,589.5466666666666,327.11593824000005,595.52,323.86174704000007C601.4933333333333,320.60755584000003,607.4666666666667,317.2893516000001,613.44,313.89879456000006C619.4133333333334,310.5082375200001,625.3866666666667,307.05104664000004,631.36,303.51840480000004C637.3333333333334,299.98576296000005,643.3066666666667,296.38364184000005,649.2800000000001,292.70294352C655.2533333333333,289.02224520000004,661.2266666666667,285.26915664,667.1999999999999,281.43421488C673.1733333333333,277.59927311999996,679.1466666666666,273.68893656,685.12,269.69329296C691.0933333333334,265.69764936,697.0666666666666,261.62344728,703.04,257.46035328C709.0133333333333,253.29725928,714.9866666666667,249.05228400000001,720.96,244.71472896C726.9333333333334,240.37717392000002,732.9066666666666,235.95434928000003,738.88,231.43502304000003C744.8533333333334,226.91569680000003,750.8266666666667,222.30749736000004,756.8000000000001,217.59877152C762.7733333333333,212.89004568000004,768.7466666666667,208.08872135999994,774.7199999999999,203.18266799999998C780.6933333333333,198.27661463999996,786.6666666666666,193.27410648000006,792.64,188.16245136000003C798.6133333333333,183.05079624000007,804.5866666666666,177.83860536,810.56,172.51273728C816.5333333333333,167.1868692,822.5066666666667,161.75630016,828.48,156.20724287999997C834.4533333333334,150.6581856,840.4266666666666,145.00000007999998,846.4,139.2183936C852.3733333333333,133.43678712,858.3466666666667,127.54149408000002,864.32,121.517604C870.2933333333334,115.49371392000003,876.2666666666667,109.28438352000005,882.24,103.07505312000006"/><text class="label" font-size="11" alignment-baseline="middle" opacity="1" x="5" fill="rgb(128, 35, 146)" transform="translate(897.239990234375, 123.0750503540039)"/></g></g><g id="data-points"><g class="series" transform="translate(15,20)"><path class="data-point" fill="rgb(17, 165, 121)" data-type="point" transform="translate(0, 0)" d="M54.92,501.5088A3,3,0,1,1,60.92,501.5088A3,3,0,1,1,54.92,501.5088Z" id="point-0-0" opacity="1"/><path class="data-point" fill="rgb(17, 165, 121)" data-type="point" transform="translate(0, 0)" d="M72.84,498.92544000000004A3,3,0,1,1,78.84,498.92544000000004A3,3,0,1,1,72.84,498.92544000000004Z" id="point-0-1" opacity="1"/><path class="data-point" fill="rgb(17, 165, 121)" data-type="point" transform="translate(0, 0)" d="M90.75999999999999,495.21888A3,3,0,1,1,96.75999999999999,495.21888A3,3,0,1,1,90.75999999999999,495.21888Z" id="point-0-2" opacity="1"/><path class="data-point" fill="rgb(17, 165, 121)" data-type="point" transform="translate(0, 0)" d="M108.68,491.51232000000005A3,3,0,1,1,114.68,491.51232000000005A3,3,0,1,1,108.68,491.51232000000005Z" id="point-0-3" opacity="1"/><path class="data-point" fill="rgb(17, 165, 121)" data-type="point" transform="translate(0, 0)" d="M126.60000000000002,487.80576A3,3,0,1,1,132.60000000000002,487.80576A3,3,0,1,1,126.60000000000002,487.80576Z" id="point-0-4" opacity="1"/><path class="data-point" fill="rgb(17, 165, 121)" data-type="point" transform="translate(0, 0)" d="M144.51999999999998,484.0992A3,3,0,1,1,150.51999999999998,484.0992A3,3,0,1,1,144.51999999999998,484.0992Z" id="point-0-5" opacity="1"/><path class="data-point" fill="rgb(17, 165, 121)" data-type="point" transform="translate(0, 0)" d="M162.44,480.49372800000003A3,3,0,1,1,168.44,480.49372800000003A3,3,0,1,1,162.44,480.49372800000003Z" id="point-0-6" opacity="1"/><path class="data-point" fill="rgb(17, 165, 121)" data-type="point" transform="translate(0, 0)" d="M180.36,476.978112A3,3,0,1,1,186.36,476.978112A3,3,0,1,1,180.36,476.978112Z" id="point-0-7" opacity="1"/><path class="data-point" fill="rgb(17, 165, 121)" data-type="point" transform="translate(0, 0)" d="M198.28,473.507424A3,3,0,1,1,204.28,473.507424A3,3,0,1,1,198.28,473.507424Z" id="point-0-8" opacity="1"/><path class="data-point" fill="rgb(17, 165, 121)" data-type="point" transform="translate(0, 0)" d="M216.20000000000002,469.913184A3,3,0,1,1,222.20000000000002,469.913184A3,3,0,1,1,216.20000000000002,469.913184Z" id="point-0-9" opacity="1"/><path class="data-point" fill="rgb(17, 165, 121)" data-type="point" transform="translate(0, 0)" d="M234.12,465.712416A3,3,0,1,1,240.12,465.712416A3,3,0,1,1,234.12,465.712416Z" id="point-0-10" opacity="1"/><path class="data-point" fill="rgb(17, 165, 121)" data-type="point" transform="translate(0, 0)" d="M252.04,461.07360000000006A3,3,0,1,1,258.03999999999996,461.07360000000006A3,3,0,1,1,252.04,461.07360000000006Z" id="point-0-11" opacity="1"/><path class="data-point" fill="rgb(17, 165, 121)" data-type="point" transform="translate(0, 0)" d="M269.96000000000004,456.210144A3,3,0,1,1,275.96000000000004,456.210144A3,3,0,1,1,269.96000000000004,456.210144Z" id="point-0-12" opacity="1"/><path class="data-point" fill="rgb(17, 165, 121)" data-type="point" transform="translate(0, 0)" d="M287.88,450.942336A3,3,0,1,1,293.88,450.942336A3,3,0,1,1,287.88,450.942336Z" id="point-0-13" opacity="1"/><path class="data-point" fill="rgb(17, 165, 121)" data-type="point" transform="translate(0, 0)" d="M305.8,445.43865600000004A3,3,0,1,1,311.8,445.43865600000004A3,3,0,1,1,305.8,445.43865600000004Z" id="point-0-14" opacity="1"/><path class="data-point" fill="rgb(17, 165, 121)" data-type="point" transform="translate(0, 0)" d="M323.72,438.789312A3,3,0,1,1,329.72,438.789312A3,3,0,1,1,323.72,438.789312Z" id="point-0-15" opacity="1"/><path class="data-point" fill="rgb(17, 165, 121)" data-type="point" transform="translate(0, 0)" d="M341.64000000000004,432.241056A3,3,0,1,1,347.64000000000004,432.241056A3,3,0,1,1,341.64000000000004,432.241056Z" id="point-0-16" opacity="1"/><path class="data-point" fill="rgb(17, 165, 121)" data-type="point" transform="translate(0, 0)" d="M359.56,426.265632A3,3,0,1,1,365.56,426.265632A3,3,0,1,1,359.56,426.265632Z" id="point-0-17" opacity="1"/><path class="data-point" fill="rgb(17, 165, 121)" data-type="point" transform="translate(0, 0)" d="M377.48,421.12137600000005A3,3,0,1,1,383.48,421.12137600000005A3,3,0,1,1,377.48,421.12137600000005Z" id="point-0-18" opacity="1"/><path class="data-point" fill="rgb(17, 165, 121)" data-type="point" transform="translate(0, 0)" d="M395.40000000000003,413.584704A3,3,0,1,1,401.40000000000003,413.584704A3,3,0,1,1,395.40000000000003,413.584704Z" id="point-0-19" opacity="1"/><path class="data-point" fill="rgb(17, 165, 121)" data-type="point" transform="translate(0, 0)" d="M413.32,404.352A3,3,0,1,1,419.32,404.352A3,3,0,1,1,413.32,404.352Z" id="point-0-20" opacity="1"/><path class="data-point" fill="rgb(17, 165, 121)" data-type="point" transform="translate(0, 0)" d="M431.24,394.74864A3,3,0,1,1,437.24,394.74864A3,3,0,1,1,431.24,394.74864Z" id="point-0-21" opacity="1"/><path class="data-point" fill="rgb(17, 165, 121)" data-type="point" transform="translate(0, 0)" d="M449.16,387.402912A3,3,0,1,1,455.16,387.402912A3,3,0,1,1,449.16,387.402912Z" id="point-0-22" opacity="1"/><path class="data-point" fill="rgb(17, 165, 121)" data-type="point" transform="translate(0, 0)" d="M467.08,380.14704A3,3,0,1,1,473.08,380.14704A3,3,0,1,1,467.08,380.14704Z" id="point-0-23" opacity="1"/><path class="data-point" fill="rgb(17, 165, 121)" data-type="point" transform="translate(0, 0)" d="M485,372.18355199999996A3,3,0,1,1,491,372.18355199999996A3,3,0,1,1,485,372.18355199999996Z" id="point-0-24" opacity="1"/><path class="data-point" fill="rgb(17, 165, 121)" data-type="point" transform="translate(0, 0)" d="M502.92,362.995776A3,3,0,1,1,508.92,362.995776A3,3,0,1,1,502.92,362.995776Z" id="point-0-25" opacity="1"/><path class="data-point" fill="rgb(17, 165, 121)" data-type="point" transform="translate(0, 0)" d="M520.84,355.313088A3,3,0,1,1,526.84,355.313088A3,3,0,1,1,520.84,355.313088Z" id="point-0-26" opacity="1"/><path class="data-point" fill="rgb(17, 165, 121)" data-type="point" transform="translate(0, 0)" d="M538.76,347.41699200000005A3,3,0,1,1,544.76,347.41699200000005A3,3,0,1,1,538.76,347.41699200000005Z" id="point-0-27" opacity="1"/><path class="data-point" fill="rgb(17, 165, 121)" data-type="point" transform="translate(0, 0)" d="M556.68,345.19440384A3,3,0,1,1,562.68,345.19440384A3,3,0,1,1,556.68,345.19440384Z" id="point-0-28" opacity="1"/><path class="data-point" fill="rgb(17, 165, 121)" data-type="point" transform="translate(0, 0)" d="M574.6,334.57932144A3,3,0,1,1,580.6,334.57932144A3,3,0,1,1,574.6,334.57932144Z" id="point-0-29" opacity="1"/><path class="data-point" fill="rgb(17, 165, 121)" data-type="point" transform="translate(0, 0)" d="M592.52,323.44357968A3,3,0,1,1,598.52,323.44357968A3,3,0,1,1,592.52,323.44357968Z" id="point-0-30" opacity="1"/><path class="data-point" fill="rgb(17, 165, 121)" data-type="point" transform="translate(0, 0)" d="M610.44,311.76162576A3,3,0,1,1,616.44,311.76162576A3,3,0,1,1,610.44,311.76162576Z" id="point-0-31" opacity="1"/><path class="data-point" fill="rgb(17, 165, 121)" data-type="point" transform="translate(0, 0)" d="M628.36,299.50667136A3,3,0,1,1,634.36,299.50667136A3,3,0,1,1,628.36,299.50667136Z" id="point-0-32" opacity="1"/><path class="data-point" fill="rgb(17, 165, 121)" data-type="point" transform="translate(0, 0)" d="M646.2800000000001,286.65052416000003A3,3,0,1,1,652.2800000000001,286.65052416000003A3,3,0,1,1,646.2800000000001,286.65052416000003Z" id="point-0-33" opacity="1"/><path class="data-point" fill="rgb(17, 165, 121)" data-type="point" transform="translate(0, 0)" d="M664.1999999999999,273.16381248000005A3,3,0,1,1,670.1999999999999,273.16381248000005A3,3,0,1,1,664.1999999999999,273.16381248000005Z" id="point-0-34" opacity="1"/><path class="data-point" fill="rgb(17, 165, 121)" data-type="point" transform="translate(0, 0)" d="M682.12,259.015536A3,3,0,1,1,688.12,259.015536A3,3,0,1,1,682.12,259.015536Z" id="point-0-35" opacity="1"/><path class="data-point" fill="rgb(17, 165, 121)" data-type="point" transform="translate(0, 0)" d="M700.04,244.17329040000004A3,3,0,1,1,706.04,244.17329040000004A3,3,0,1,1,700.04,244.17329040000004Z" id="point-0-36" opacity="1"/><path class="data-point" fill="rgb(17, 165, 121)" data-type="point" transform="translate(0, 0)" d="M717.96,228.60298655999998A3,3,0,1,1,723.96,228.60298655999998A3,3,0,1,1,717.96,228.60298655999998Z" id="point-0-37" opacity="1"/><path class="data-point" fill="rgb(17, 165, 121)" data-type="point" transform="translate(0, 0)" d="M735.88,212.26896288A3,3,0,1,1,741.88,212.26896288A3,3,0,1,1,735.88,212.26896288Z" id="point-0-38" opacity="1"/><path class="data-point" fill="rgb(17, 165, 121)" data-type="point" transform="translate(0, 0)" d="M753.8000000000001,195.13370447999995A3,3,0,1,1,759.8000000000001,195.13370447999995A3,3,0,1,1,753.8000000000001,195.13370447999995Z" id="point-0-39" opacity="1"/><path class="data-point" fill="rgb(17, 165, 121)" data-type="point" transform="translate(0, 0)" d="M771.7199999999999,177.15795551999997A3,3,0,1,1,777.7199999999999,177.15795551999997A3,3,0,1,1,771.7199999999999,177.15795551999997Z" id="point-0-40" opacity="1"/><path class="data-point" fill="rgb(17, 165, 121)" data-type="point" transform="translate(0, 0)" d="M789.64,158.30043839999996A3,3,0,1,1,795.64,158.30043839999996A3,3,0,1,1,789.64,158.30043839999996Z" id="point-0-41" opacity="1"/><path class="data-point" fill="rgb(17, 165, 121)" data-type="point" transform="translate(0, 0)" d="M807.56,138.51790991999997A3,3,0,1,1,813.56,138.51790991999997A3,3,0,1,1,807.56,138.51790991999997Z" id="point-0-42" opacity="1"/><path class="data-point" fill="rgb(17, 165, 121)" data-type="point" transform="translate(0, 0)" d="M825.48,117.76504896A3,3,0,1,1,831.48,117.76504896A3,3,0,1,1,825.48,117.76504896Z" id="point-0-43" opacity="1"/><path class="data-point" fill="rgb(17, 165, 121)" data-type="point" transform="translate(0, 0)" d="M843.4,95.99423184000005A3,3,0,1,1,849.4,95.99423184000005A3,3,0,1,1,843.4,95.99423184000005Z" id="point-0-44" opacity="1"/><path class="data-point" fill="rgb(17, 165, 121)" data-type="point" transform="translate(0, 0)" d="M861.32,73.15547615999992A3,3,0,1,1,867.32,73.15547615999992A3,3,0,1,1,861.32,73.15547615999992Z" id="point-0-45" opacity="1"/><path class="data-point" fill="rgb(17, 165, 121)" data-type="point" transform="translate(0, 0)" d="M879.24,49.19649695999999A3,3,0,1,1,885.24,49.19649695999999A3,3,0,1,1,879.24,49.19649695999999Z" id="point-0-46" opacity="1"/></g><g class="series" transform="translate(15,20)"><path class="data-point" fill="rgb(128, 35, 146)" data-type="point" transform="translate(0, 0)" d="M54.92,502.73870400000004A3,3,0,1,1,60.92,502.73870400000004A3,3,0,1,1,54.92,502.73870400000004Z" id="point-1-0" opacity="1"/><path class="data-point" fill="rgb(128, 35, 146)" data-type="point" transform="translate(0, 0)" d="M72.84,499.127616A3,3,0,1,1,78.84,499.127616A3,3,0,1,1,72.84,499.127616Z" id="point-1-1" opacity="1"/><path class="data-point" fill="rgb(128, 35, 146)" data-type="point" transform="translate(0, 0)" d="M90.75999999999999,495.16272000000004A3,3,0,1,1,96.75999999999999,495.16272000000004A3,3,0,1,1,90.75999999999999,495.16272000000004Z" id="point-1-2" opacity="1"/><path class="data-point" fill="rgb(128, 35, 146)" data-type="point" transform="translate(0, 0)" d="M108.68,491.95598400000006A3,3,0,1,1,114.68,491.95598400000006A3,3,0,1,1,108.68,491.95598400000006Z" id="point-1-3" opacity="1"/><path class="data-point" fill="rgb(128, 35, 146)" data-type="point" transform="translate(0, 0)" d="M126.60000000000002,488.60323200000005A3,3,0,1,1,132.60000000000002,488.60323200000005A3,3,0,1,1,126.60000000000002,488.60323200000005Z" id="point-1-4" opacity="1"/><path class="data-point" fill="rgb(128, 35, 146)" data-type="point" transform="translate(0, 0)" d="M144.51999999999998,484.582176A3,3,0,1,1,150.51999999999998,484.582176A3,3,0,1,1,144.51999999999998,484.582176Z" id="point-1-5" opacity="1"/><path class="data-point" fill="rgb(128, 35, 146)" data-type="point" transform="translate(0, 0)" d="M162.44,480.49372800000003A3,3,0,1,1,168.44,480.49372800000003A3,3,0,1,1,162.44,480.49372800000003Z" id="point-1-6" opacity="1"/><path class="data-point" fill="rgb(128, 35, 146)" data-type="point" transform="translate(0, 0)" d="M180.36,475.84368A3,3,0,1,1,186.36,475.84368A3,3,0,1,1,180.36,475.84368Z" id="point-1-7" opacity="1"/><path class="data-point" fill="rgb(128, 35, 146)" data-type="point" transform="translate(0, 0)" d="M198.28,471.682224A3,3,0,1,1,204.28,471.682224A3,3,0,1,1,198.28,471.682224Z" id="point-1-8" opacity="1"/><path class="data-point" fill="rgb(128, 35, 146)" data-type="point" transform="translate(0, 0)" d="M216.20000000000002,467.29051200000004A3,3,0,1,1,222.20000000000002,467.29051200000004A3,3,0,1,1,216.20000000000002,467.29051200000004Z" id="point-1-9" opacity="1"/><path class="data-point" fill="rgb(128, 35, 146)" data-type="point" transform="translate(0, 0)" d="M234.12,462.16872A3,3,0,1,1,240.12,462.16872A3,3,0,1,1,234.12,462.16872Z" id="point-1-10" opacity="1"/><path class="data-point" fill="rgb(128, 35, 146)" data-type="point" transform="translate(0, 0)" d="M252.04,456.007968A3,3,0,1,1,258.03999999999996,456.007968A3,3,0,1,1,252.04,456.007968Z" id="point-1-11" opacity="1"/><path class="data-point" fill="rgb(128, 35, 146)" data-type="point" transform="translate(0, 0)" d="M269.96000000000004,448.24665600000003A3,3,0,1,1,275.96000000000004,448.24665600000003A3,3,0,1,1,269.96000000000004,448.24665600000003Z" id="point-1-12" opacity="1"/><path class="data-point" fill="rgb(128, 35, 146)" data-type="point" transform="translate(0, 0)" d="M287.88,440.558352A3,3,0,1,1,293.88,440.558352A3,3,0,1,1,287.88,440.558352Z" id="point-1-13" opacity="1"/><path class="data-point" fill="rgb(128, 35, 146)" data-type="point" transform="translate(0, 0)" d="M305.8,432.95990400000005A3,3,0,1,1,311.8,432.95990400000005A3,3,0,1,1,305.8,432.95990400000005Z" id="point-1-14" opacity="1"/><path class="data-point" fill="rgb(128, 35, 146)" data-type="point" transform="translate(0, 0)" d="M323.72,425.15366400000005A3,3,0,1,1,329.72,425.15366400000005A3,3,0,1,1,323.72,425.15366400000005Z" id="point-1-15" opacity="1"/><path class="data-point" fill="rgb(128, 35, 146)" data-type="point" transform="translate(0, 0)" d="M341.64000000000004,416.10067200000003A3,3,0,1,1,347.64000000000004,416.10067200000003A3,3,0,1,1,341.64000000000004,416.10067200000003Z" id="point-1-16" opacity="1"/><path class="data-point" fill="rgb(128, 35, 146)" data-type="point" transform="translate(0, 0)" d="M359.56,407.586816A3,3,0,1,1,365.56,407.586816A3,3,0,1,1,359.56,407.586816Z" id="point-1-17" opacity="1"/><path class="data-point" fill="rgb(128, 35, 146)" data-type="point" transform="translate(0, 0)" d="M377.48,400.67913599999997A3,3,0,1,1,383.48,400.67913599999997A3,3,0,1,1,377.48,400.67913599999997Z" id="point-1-18" opacity="1"/><path class="data-point" fill="rgb(128, 35, 146)" data-type="point" transform="translate(0, 0)" d="M395.40000000000003,391.96310400000004A3,3,0,1,1,401.40000000000003,391.96310400000004A3,3,0,1,1,395.40000000000003,391.96310400000004Z" id="point-1-19" opacity="1"/><path class="data-point" fill="rgb(128, 35, 146)" data-type="point" transform="translate(0, 0)" d="M413.32,384.07824000000005A3,3,0,1,1,419.32,384.07824000000005A3,3,0,1,1,413.32,384.07824000000005Z" id="point-1-20" opacity="1"/><path class="data-point" fill="rgb(128, 35, 146)" data-type="point" transform="translate(0, 0)" d="M431.24,376.58088A3,3,0,1,1,437.24,376.58088A3,3,0,1,1,431.24,376.58088Z" id="point-1-21" opacity="1"/><path class="data-point" fill="rgb(128, 35, 146)" data-type="point" transform="translate(0, 0)" d="M449.16,370.22918400000003A3,3,0,1,1,455.16,370.22918400000003A3,3,0,1,1,449.16,370.22918400000003Z" id="point-1-22" opacity="1"/><path class="data-point" fill="rgb(128, 35, 146)" data-type="point" transform="translate(0, 0)" d="M467.08,364.568256A3,3,0,1,1,473.08,364.568256A3,3,0,1,1,467.08,364.568256Z" id="point-1-23" opacity="1"/><path class="data-point" fill="rgb(128, 35, 146)" data-type="point" transform="translate(0, 0)" d="M485,364.242528A3,3,0,1,1,491,364.242528A3,3,0,1,1,485,364.242528Z" id="point-1-24" opacity="1"/><path class="data-point" fill="rgb(128, 35, 146)" data-type="point" transform="translate(0, 0)" d="M502.92,356.53176A3,3,0,1,1,508.92,356.53176A3,3,0,1,1,502.92,356.53176Z" id="point-1-25" opacity="1"/><path class="data-point" fill="rgb(128, 35, 146)" data-type="point" transform="translate(0, 0)" d="M520.84,351.40996800000005A3,3,0,1,1,526.84,351.40996800000005A3,3,0,1,1,520.84,351.40996800000005Z" id="point-1-26" opacity="1"/><path class="data-point" fill="rgb(128, 35, 146)" data-type="point" transform="translate(0, 0)" d="M538.76,348.55704000000003A3,3,0,1,1,544.76,348.55704000000003A3,3,0,1,1,538.76,348.55704000000003Z" id="point-1-27" opacity="1"/><path class="data-point" fill="rgb(128, 35, 146)" data-type="point" transform="translate(0, 0)" d="M556.68,342.60149664000005A3,3,0,1,1,562.68,342.60149664000005A3,3,0,1,1,556.68,342.60149664000005Z" id="point-1-28" opacity="1"/><path class="data-point" fill="rgb(128, 35, 146)" data-type="point" transform="translate(0, 0)" d="M574.6,333.42394176000005A3,3,0,1,1,580.6,333.42394176000005A3,3,0,1,1,574.6,333.42394176000005Z" id="point-1-29" opacity="1"/><path class="data-point" fill="rgb(128, 35, 146)" data-type="point" transform="translate(0, 0)" d="M592.52,323.86174704000007A3,3,0,1,1,598.52,323.86174704000007A3,3,0,1,1,592.52,323.86174704000007Z" id="point-1-30" opacity="1"/><path class="data-point" fill="rgb(128, 35, 146)" data-type="point" transform="translate(0, 0)" d="M610.44,313.89879456000006A3,3,0,1,1,616.44,313.89879456000006A3,3,0,1,1,610.44,313.89879456000006Z" id="point-1-31" opacity="1"/><path class="data-point" fill="rgb(128, 35, 146)" data-type="point" transform="translate(0, 0)" d="M628.36,303.51840480000004A3,3,0,1,1,634.36,303.51840480000004A3,3,0,1,1,628.36,303.51840480000004Z" id="point-1-32" opacity="1"/><path class="data-point" fill="rgb(128, 35, 146)" data-type="point" transform="translate(0, 0)" d="M646.2800000000001,292.70294352A3,3,0,1,1,652.2800000000001,292.70294352A3,3,0,1,1,646.2800000000001,292.70294352Z" id="point-1-33" opacity="1"/><path class="data-point" fill="rgb(128, 35, 146)" data-type="point" transform="translate(0, 0)" d="M664.1999999999999,281.43421488A3,3,0,1,1,670.1999999999999,281.43421488A3,3,0,1,1,664.1999999999999,281.43421488Z" id="point-1-34" opacity="1"/><path class="data-point" fill="rgb(128, 35, 146)" data-type="point" transform="translate(0, 0)" d="M682.12,269.69329296A3,3,0,1,1,688.12,269.69329296A3,3,0,1,1,682.12,269.69329296Z" id="point-1-35" opacity="1"/><path class="data-point" fill="rgb(128, 35, 146)" data-type="point" transform="translate(0, 0)" d="M700.04,257.46035328A3,3,0,1,1,706.04,257.46035328A3,3,0,1,1,700.04,257.46035328Z" id="point-1-36" opacity="1"/><path class="data-point" fill="rgb(128, 35, 146)" data-type="point" transform="translate(0, 0)" d="M717.96,244.71472896A3,3,0,1,1,723.96,244.71472896A3,3,0,1,1,717.96,244.71472896Z" id="point-1-37" opacity="1"/><path class="data-point" fill="rgb(128, 35, 146)" data-type="point" transform="translate(0, 0)" d="M735.88,231.43502304000003A3,3,0,1,1,741.88,231.43502304000003A3,3,0,1,1,735.88,231.43502304000003Z" id="point-1-38" opacity="1"/><path class="data-point" fill="rgb(128, 35, 146)" data-type="point" transform="translate(0, 0)" d="M753.8000000000001,217.59877152A3,3,0,1,1,759.8000000000001,217.59877152A3,3,0,1,1,753.8000000000001,217.59877152Z" id="point-1-39" opacity="1"/><path class="data-point" fill="rgb(128, 35, 146)" data-type="point" transform="translate(0, 0)" d="M771.7199999999999,203.18266799999998A3,3,0,1,1,777.7199999999999,203.18266799999998A3,3,0,1,1,771.7199999999999,203.18266799999998Z" id="point-1-40" opacity="1"/><path class="data-point" fill="rgb(128, 35, 146)" data-type="point" transform="translate(0, 0)" d="M789.64,188.16245136000003A3,3,0,1,1,795.64,188.16245136000003A3,3,0,1,1,789.64,188.16245136000003Z" id="point-1-41" opacity="1"/><path class="data-point" fill="rgb(128, 35, 146)" data-type="point" transform="translate(0, 0)" d="M807.56,172.51273728A3,3,0,1,1,813.56,172.51273728A3,3,0,1,1,807.56,172.51273728Z" id="point-1-42" opacity="1"/><path class="data-point" fill="rgb(128, 35, 146)" data-type="point" transform="translate(0, 0)" d="M825.48,156.20724287999997A3,3,0,1,1,831.48,156.20724287999997A3,3,0,1,1,825.48,156.20724287999997Z" id="point-1-43" opacity="1"/><path class="data-point" fill="rgb(128, 35, 146)" data-type="point" transform="translate(0, 0)" d="M843.4,139.2183936A3,3,0,1,1,849.4,139.2183936A3,3,0,1,1,843.4,139.2183936Z" id="point-1-44" opacity="1"/><path class="data-point" fill="rgb(128, 35, 146)" data-type="point" transform="translate(0, 0)" d="M861.32,121.517604A3,3,0,1,1,867.32,121.517604A3,3,0,1,1,861.32,121.517604Z" id="point-1-45" opacity="1"/><path class="data-point" fill="rgb(128, 35, 146)" data-type="point" transform="translate(0, 0)" d="M879.24,103.07505312000006A3,3,0,1,1,885.24,103.07505312000006A3,3,0,1,1,879.24,103.07505312000006Z" id="point-1-46" opacity="1"/></g></g><g id="data-labels"/><g class="annotations above"><g class="axis-highlights" transform="translate(15, 20)" style="opacity: 1;"/></g></svg>