<svg xmlns="http://www.w3.org/2000/svg" id="graphic" width="961" height="634.6"><g id="facets"><g class="facet" transform="translate(15,20)" opacity="1"><text class="facet-title" y="0" font-size="16" font-weight="bold" dominant-baseline="middle" x="0" clip-path="url(#facet-clip-0)" fill="black"/><g class="plot"><clipPath class="facet-clip" id="facet-clip-0"><rect width="951" height="581.6" transform="translate(-7.5,-10)"/></clipPath><g class="bg"><rect fill="none" width="936" height="561.6" style="fill: none;"/></g><g class="interaction"><g class="series"><path data-target="point-0-0" d="M71.17235217357161,561.6L66.69415226928571,509.95152L0,509.95151999999996L0,561.6Z" style="opacity: 0;"/><path data-target="point-0-1" d="M66.69415226928571,509.95152L71.17235217357161,561.6L92.73270705499989,561.6L84.332862875,506.90015999999997L67.42410841642857,506.90015999999997Z" style="opacity: 0;"/><path data-target="point-0-2" d="M84.332862875,506.90015999999997L92.73270705499989,561.6L111.36691107428571,561.6L102.27115724571428,504.31679999999994L85.20993666071429,504.31679999999994Z" style="opacity: 0;"/><path data-target="point-0-3" d="M102.27115724571428,504.31679999999994L111.36691107428571,561.6L130.29163478500013,561.6L120.11577974499998,501.09695999999997L103.28695926857142,501.09695999999997Z" style="opacity: 0;"/><path data-target="point-0-4" d="M120.11577974499998,501.09695999999997L130.29163478500013,561.6L159.24838125714277,561.6L137.8841545142857,497.68992L121.30097336499999,497.68992Z" style="opacity: 0;"/><path data-target="point-0-5" d="M137.8841545142857,497.68992L159.24838125714277,561.6L173.81822339785725,561.6L155.85931140642856,491.99904L139.16826093714286,491.99904Z" style="opacity: 0;"/><path data-target="point-0-6" d="M155.85931140642856,491.99904L173.81822339785725,561.6L201.01141599999988,561.6L173.54101525,486.46727999999996L157.3444407942857,486.46727999999996Z" style="opacity: 0;"/><path data-target="point-0-7" d="M173.54101525,486.46727999999996L201.01141599999988,561.6L208.4353948057144,561.6L191.51268144714285,479.78423999999995L175.29334414,479.78424Z" style="opacity: 0;"/><path data-target="point-0-8" d="M191.51268144714285,479.78423999999995L208.4353948057144,561.6L236.11807671428568,561.6L208.92585599999998,474.83279999999996L193.66960828785713,474.83279999999996Z" style="opacity: 0;"/><path data-target="point-0-9" d="M208.92585599999998,474.83279999999996L236.11807671428568,561.6L279.37532059428594,561.6L226.79270356857143,468.73008L211.78192896,468.73008Z" style="opacity: 0;"/><path data-target="point-0-10" d="M226.79270356857143,468.73008L279.37532059428594,561.6L319.25250592785704,561.6L245.60978285,458.98632L229.41882088428568,458.98632Z" style="opacity: 0;"/><path data-target="point-0-11" d="M245.60978285,458.98632L319.25250592785704,561.6L350.40344459428576,561.6L347.0411163401223,556.391846258038L263.8939591392857,446.30351999999993L246.53721259999998,446.30352Z" style="opacity: 0;"/><path data-target="point-0-12" d="M263.8939591392857,446.30351999999993L347.0411163401223,556.391846258038L281.08232120071426,433.31183999999996L264.097534125,433.31183999999996Z" style="opacity: 0;"/><path data-target="point-0-13" d="M281.08232120071426,433.31183999999996L347.0411163401223,556.391846258038L350.40344459428576,561.6L398.2444031749998,561.6L298.70469300714285,422.0892L283.04017087,422.0892Z" style="opacity: 0;"/><path data-target="point-0-14" d="M298.70469300714285,422.0892L398.2444031749998,561.6L422.99446321999994,561.6L398.2093176706218,521.5899640891547L317.06684770714287,409.82759999999996L300.88222179285714,409.82759999999996Z" style="opacity: 0;"/><path data-target="point-0-15" d="M317.06684770714287,409.82759999999996L398.2093176706218,521.5899640891547L334.07168916785713,396.54576L318.4820751942857,396.54576Z" style="opacity: 0;"/><path data-target="point-0-16" d="M334.07168916785713,396.54576L398.2093176706218,521.5899640891547L422.99446321999994,561.6L433.2795789067857,561.6L390.35985834061233,456.1172157288785L351.33295493214285,386.02512L337.75344349642853,386.02512Z" style="opacity: 0;"/><path data-target="point-0-17" d="M351.33295493214285,386.02512L390.35985834061233,456.1172157288785L369.2108612571428,373.81968L356.87934661785715,373.81968Z" style="opacity: 0;"/><path data-target="point-0-18" d="M369.2108612571428,373.81968L390.35985834061233,456.1172157288785L433.2795789067857,561.6L455.28389444285716,561.6L386.07256466714284,367.87608L375.1714429714286,367.87608Z" style="opacity: 0;"/><path data-target="point-0-19" d="M386.07256466714284,367.87608L455.28389444285716,561.6L514.5439371457144,561.6L505.4228552713208,538.6832229640381L476.5843299011487,475.0746751390101L471.27804635412895,465.32511795499164L402.29027885,360.5004L393.8314507557143,360.5004Z" style="opacity: 0;"/><path data-target="point-0-20" d="M402.29027885,360.5004L471.27804635412895,465.32511795499164L421.17498179142854,348.91272L412.2526832685714,348.91272Z" style="opacity: 0;"/><path data-target="point-0-21" d="M421.17498179142854,348.91272L471.27804635412895,465.32511795499164L476.5843299011487,475.0746751390101L440.24337155714284,341.27495999999996L429.3053091171428,341.27495999999996Z" style="opacity: 0;"/><path data-target="point-0-22" d="M440.24337155714284,341.27495999999996L476.5843299011487,475.0746751390101L505.4228552713208,538.6832229640381L458.74527139142856,337.40928L444.9398621221428,337.40928Z" style="opacity: 0;"/><path data-target="point-0-23" d="M458.74527139142856,337.40928L505.4228552713208,538.6832229640381L514.5439371457144,561.6L531.9224061257139,561.6L476.4947846742857,332.89775999999995L463.90121368571425,332.89775999999995Z" style="opacity: 0;"/><path data-target="point-0-24" d="M476.4947846742857,332.89775999999995L531.9224061257139,561.6L577.3092672914289,561.6L493.3206033485714,327.8808L482.37510973714285,327.8808Z" style="opacity: 0;"/><path data-target="point-0-25" d="M493.3206033485714,327.8808L577.3092672914289,561.6L596.3253357435715,561.6L511.5354741864286,322.1712L499.77418461999997,322.1712Z" style="opacity: 0;"/><path data-target="point-0-26" d="M511.5354741864286,322.1712L596.3253357435715,561.6L605.2209174832706,561.6L572.3115860958719,438.21144709115106L529.5833783357143,316.11528L517.9186842199999,316.11528Z" style="opacity: 0;"/><path data-target="point-0-27" d="M529.5833783357143,316.11528L572.3115860958719,438.21144709115106L548.7857014395947,309.98447999999996L535.8725938285714,309.98447999999996Z" style="opacity: 0;"/><path data-target="point-0-28" d="M548.7857014395947,309.98447999999996L572.3115860958719,438.21144709115106L605.2209174832706,561.6L706.1836105311438,561.6L564.2600214967794,306.0203325L553.4501328501296,306.0203325Z" style="opacity: 0;"/><path data-target="point-0-29" d="M564.2600214967794,306.0203325L706.1836105311438,561.6L735.6119741895159,561.6L581.7951972259708,295.5102695L573.5121361120075,295.5102695Z" style="opacity: 0;"/><path data-target="point-0-30" d="M581.7951972259708,295.5102695L735.6119741895159,561.6L766.0022950583989,561.6L599.2965808189147,284.5679615L591.8615063023856,284.5679615Z" style="opacity: 0;"/><path data-target="point-0-31" d="M599.2965808189147,284.5679615L766.0022950583989,561.6L797.4419264937716,561.6L616.7612013273354,273.175812L610.2485826713968,273.175812Z" style="opacity: 0;"/><path data-target="point-0-32" d="M616.7612013273354,273.175812L797.4419264937716,561.6L830.0042632336534,561.6L634.1860568909243,261.3150075L628.6767098168401,261.3150075Z" style="opacity: 0;"/><path data-target="point-0-33" d="M634.1860568909243,261.3150075L830.0042632336534,561.6L863.7987486711914,561.6L651.5673019638939,248.9665465L647.1496421426043,248.9665465Z" style="opacity: 0;"/><path data-target="point-0-34" d="M651.5673019638939,248.9665465L863.7987486711914,561.6L898.9219049455718,561.6L668.9014437987707,236.11030549999998L665.6710058378185,236.11030549999998Z" style="opacity: 0;"/><path data-target="point-0-35" d="M668.9014437987707,236.11030549999998L898.9219049455718,561.6L935.4768747952996,561.6L686.1843458843651,222.7252245L684.245282016056,222.7252245Z" style="opacity: 0;"/><path data-target="point-0-36" d="M686.1843458843651,222.7252245L935.4768747952996,561.6L936,561.6L936,512.5030057889296L703.4113148160417,208.789963L702.8769928190625,208.789963Z" style="opacity: 0;"/><path data-target="point-0-37" d="M703.4113148160417,208.789963L936,512.5030057889296L936,464.4987570863045L720.9642454129676,194.7664732296652Z" style="opacity: 0;"/><path data-target="point-0-38" d="M720.9642454129676,194.7664732296652L936,464.4987570863045L936,418.1485824697836L738.7088599029906,180.41850881537528L721.1789573798178,193.8215659258609Z" style="opacity: 0;"/><path data-target="point-0-39" d="M738.7088599029906,180.41850881537528L936,418.1485824697836L936,373.30004635887076L756.4352020914918,165.4510879596222L739.2871723767147,177.99883033469908Z" style="opacity: 0;"/><path data-target="point-0-40" d="M756.4352020914918,165.4510879596222L936,373.30004635887076L936,329.8138279386819L774.1415183227404,149.83979481726945L757.4149141047857,161.55331182366191Z" style="opacity: 0;"/><path data-target="point-0-41" d="M774.1415183227404,149.83979481726945L936,329.8138279386819L936,287.55699346039955L791.8260134598344,133.55933103673306L775.5638782928902,144.458498986798Z" style="opacity: 0;"/><path data-target="point-0-42" d="M791.8260134598344,133.55933103673306L936,287.55699346039955L936,246.394203493995L809.4866043839194,116.58355957109184L793.7360883805848,126.68662929741248Z" style="opacity: 0;"/><path data-target="point-0-43" d="M809.4866043839194,116.58355957109184L936,246.394203493995L936,206.20253876441097L827.121098088891,98.88475133741599L811.9337277849526,108.20850184008704Z" style="opacity: 0;"/><path data-target="point-0-44" d="M827.121098088891,98.88475133741599L936,206.20253876441097L936,166.8546543198379L844.7269241572325,80.43449025167808L830.1592690684969,88.99397081021542Z" style="opacity: 0;"/><path data-target="point-0-45" d="M844.7269241572325,80.43449025167808L936,166.8546543198379L936,128.23501594951324L862.3016162308645,61.202652814176986L848.4151372339301,69.0119359267152Z" style="opacity: 0;"/><path data-target="point-0-46" d="M862.3016162308645,61.202652814176986L936,128.23501594951324L936,33.6898225L893.7177937721591,33.6898225L866.7043237388491,48.22979366994945Z" style="opacity: 0;"/><path data-target="point-1-0" d="M0,509.95151999999996L66.69415226928571,509.95152L67.42410841642857,506.90015999999997L0,241.29219184411164Z" style="opacity: 0;"/><path data-target="point-1-1" d="M0,241.29219184411164L67.42410841642857,506.90015999999997L84.332862875,506.90015999999997L85.20993666071429,504.31679999999994L46.872712269928634,219.82934675890004L28.45299295924464,109.96921081638038L17.627355306023503,65.14653103490696L10.109522989087822,36.73906748913117L0,12.140485598553138Z" style="opacity: 0;"/><path data-target="point-1-2" d="M46.872712269928634,219.82934675890004L85.20993666071429,504.31679999999994L102.27115724571428,504.31679999999994L103.28695926857142,501.09695999999997Z" style="opacity: 0;"/><path data-target="point-1-3" d="M28.45299295924464,109.96921081638038L46.872712269928634,219.82934675890004L103.28695926857142,501.09695999999997L120.11577974499998,501.09695999999997L121.30097336499999,497.68992L74.54068886776518,277.187546891908L55.604576052356094,203.3509797839368Z" style="opacity: 0;"/><path data-target="point-1-4" d="M74.54068886776518,277.187546891908L121.30097336499999,497.68992L137.8841545142857,497.68992L139.16826093714286,491.99904Z" style="opacity: 0;"/><path data-target="point-1-5" d="M55.604576052356094,203.3509797839368L74.54068886776518,277.187546891908L139.16826093714286,491.99904L155.85931140642856,491.99904L157.3444407942857,486.46727999999996Z" style="opacity: 0;"/><path data-target="point-1-6" d="M17.627355306023503,65.14653103490696L28.45299295924464,109.96921081638038L55.604576052356094,203.3509797839368L157.3444407942857,486.46727999999996L173.54101525,486.46727999999996L175.29334414,479.78424Z" style="opacity: 0;"/><path data-target="point-1-7" d="M10.109522989087822,36.73906748913117L17.627355306023503,65.14653103490696L175.29334414,479.78424L191.51268144714285,479.78423999999995L193.66960828785713,474.83279999999996L107.36926201948631,225.2488202944323L79.52906172067946,167.62622970138324L21.377360744095228,56.957073537895155Z" style="opacity: 0;"/><path data-target="point-1-8" d="M107.36926201948631,225.2488202944323L193.66960828785713,474.83279999999996L208.92585599999998,474.83279999999996L211.78192896,468.73008L157.38694316485973,320.8027682028036L154.62662284449564,314.5927613555394Z" style="opacity: 0;"/><path data-target="point-1-9" d="M157.38694316485973,320.8027682028036L211.78192896,468.73008L226.79270356857143,468.73008L229.41882088428568,458.98632Z" style="opacity: 0;"/><path data-target="point-1-10" d="M154.62662284449564,314.5927613555394L157.38694316485973,320.8027682028036L229.41882088428568,458.98632L245.60978285,458.98632L246.53721259999998,446.30352Z" style="opacity: 0;"/><path data-target="point-1-11" d="M79.52906172067946,167.62622970138324L107.36926201948631,225.2488202944323L154.62662284449564,314.5927613555394L246.53721259999998,446.30352L263.8939591392857,446.30351999999993L264.097534125,433.31183999999996Z" style="opacity: 0;"/><path data-target="point-1-12" d="M21.377360744095228,56.957073537895155L79.52906172067946,167.62622970138324L264.097534125,433.31183999999996L281.08232120071426,433.31183999999996L283.04017087,422.0892Z" style="opacity: 0;"/><path data-target="point-1-13" d="M0,12.140485598553138L10.109522989087822,36.73906748913117L21.377360744095228,56.957073537895155L283.04017087,422.0892L298.70469300714285,422.0892L300.88222179285714,409.82759999999996L122.1859703507294,137.00517655477398L25.507411232499507,0L0,0Z" style="opacity: 0;"/><path data-target="point-1-14" d="M122.1859703507294,137.00517655477398L300.88222179285714,409.82759999999996L317.06684770714287,409.82759999999996L318.4820751942857,396.54576Z" style="opacity: 0;"/><path data-target="point-1-15" d="M25.507411232499507,0L122.1859703507294,137.00517655477398L318.4820751942857,396.54576L334.07168916785713,396.54576L337.75344349642853,386.02512L204.93167618888063,185.16315569428744L69.14425985142904,0Z" style="opacity: 0;"/><path data-target="point-1-16" d="M204.93167618888063,185.16315569428744L337.75344349642853,386.02512L351.33295493214285,386.02512L356.87934661785715,373.81968Z" style="opacity: 0;"/><path data-target="point-1-17" d="M69.14425985142904,0L204.93167618888063,185.16315569428744L356.87934661785715,373.81968L369.2108612571428,373.81968L375.1714429714286,367.87608L274.78957145610116,120.8528204979537L214.06426628499983,1.4210854715202004e-14Z" style="opacity: 0;"/><path data-target="point-1-18" d="M274.78957145610116,120.8528204979537L375.1714429714286,367.87608L386.07256466714284,367.87608L393.8314507557143,360.5004L322.8539516551664,208.15898151735567Z" style="opacity: 0;"/><path data-target="point-1-19" d="M322.8539516551664,208.15898151735567L393.8314507557143,360.5004L402.29027885,360.5004L412.2526832685714,348.91272Z" style="opacity: 0;"/><path data-target="point-1-20" d="M214.06426628499983,1.4210854715202004e-14L274.78957145610116,120.8528204979537L322.8539516551664,208.15898151735567L412.2526832685714,348.91272L421.17498179142854,348.91272L429.3053091171428,341.27495999999996L285.2750876057138,5.684341886080802e-14Z" style="opacity: 0;"/><path data-target="point-1-21" d="M285.2750876057138,5.684341886080802e-14L429.3053091171428,341.27495999999996L440.24337155714284,341.27495999999996L444.9398621221428,337.40928L416.07474968317854,156.8108445403031L390.7156391495383,39.2544868586445L380.9149854350001,0Z" style="opacity: 0;"/><path data-target="point-1-22" d="M416.07474968317854,156.8108445403031L444.9398621221428,337.40928L458.74527139142856,337.40928L463.90121368571425,332.89775999999995Z" style="opacity: 0;"/><path data-target="point-1-23" d="M390.7156391495383,39.2544868586445L416.07474968317854,156.8108445403031L463.90121368571425,332.89775999999995L476.4947846742857,332.89775999999995L482.37510973714285,327.8808Z" style="opacity: 0;"/><path data-target="point-1-24" d="M380.9149854350001,0L390.7156391495383,39.2544868586445L482.37510973714285,327.8808L493.3206033485714,327.8808L499.77418461999997,322.1712L410.25086242000015,0Z" style="opacity: 0;"/><path data-target="point-1-25" d="M410.25086242000015,0L499.77418461999997,322.1712L511.5354741864286,322.1712L517.9186842199999,316.11528L416.2085928800004,7.105427357601002e-15Z" style="opacity: 0;"/><path data-target="point-1-26" d="M416.2085928800004,7.105427357601002e-15L517.9186842199999,316.11528L529.5833783357143,316.11528L535.8725938285714,309.98447999999996L446.9488887881305,43.97339654569106L426.5659471562725,0Z" style="opacity: 0;"/><path data-target="point-1-27" d="M446.9488887881305,43.97339654569106L535.8725938285714,309.98447999999996L548.7857014395947,309.98447999999996L553.4501328501296,306.0203325L534.2821362333265,232.00019989511236L483.42224933641836,115.96834337384522Z" style="opacity: 0;"/><path data-target="point-1-28" d="M534.2821362333265,232.00019989511236L553.4501328501296,306.0203325L564.2600214967794,306.0203325L573.5121361120075,295.5102695Z" style="opacity: 0;"/><path data-target="point-1-29" d="M483.42224933641836,115.96834337384522L534.2821362333265,232.00019989511236L573.5121361120075,295.5102695L581.7951972259708,295.5102695L591.8615063023856,284.5679615Z" style="opacity: 0;"/><path data-target="point-1-30" d="M426.5659471562725,0L446.9488887881305,43.97339654569106L483.42224933641836,115.96834337384522L591.8615063023856,284.5679615L599.2965808189147,284.5679615L610.2485826713968,273.175812L427.30569874706805,0Z" style="opacity: 0;"/><path data-target="point-1-31" d="M427.30569874706805,0L610.2485826713968,273.175812L616.7612013273354,273.175812L628.6767098168401,261.3150075L446.4592615119633,0Z" style="opacity: 0;"/><path data-target="point-1-32" d="M446.4592615119633,0L628.6767098168401,261.3150075L634.1860568909243,261.3150075L647.1496421426043,248.9665465L466.38285461319913,-2.842170943040401e-14Z" style="opacity: 0;"/><path data-target="point-1-33" d="M466.38285461319913,-2.842170943040401e-14L647.1496421426043,248.9665465L651.5673019638939,248.9665465L665.6710058378185,236.11030549999998L487.1721814391451,2.842170943040401e-14Z" style="opacity: 0;"/><path data-target="point-1-34" d="M487.1721814391451,2.842170943040401e-14L665.6710058378185,236.11030549999998L668.9014437987707,236.11030549999998L684.245282016056,222.7252245L508.9203975360126,0Z" style="opacity: 0;"/><path data-target="point-1-35" d="M508.9203975360126,0L684.245282016056,222.7252245L686.1843458843651,222.7252245L702.8769928190625,208.789963L531.7471465559674,0Z" style="opacity: 0;"/><path data-target="point-1-36" d="M531.7471465559674,0L702.8769928190625,208.789963L703.4113148160417,208.789963L720.9642454129676,194.7664732296652L721.1789573798178,193.8215659258609L555.7635210669888,0Z" style="opacity: 0;"/><path data-target="point-1-37" d="M555.7635210669888,0L721.1789573798178,193.8215659258609L738.7088599029906,180.41850881537528L739.2871723767147,177.99883033469908L581.1147397722526,0Z" style="opacity: 0;"/><path data-target="point-1-38" d="M581.1147397722526,0L739.2871723767147,177.99883033469908L756.4352020914918,165.4510879596222L757.4149141047857,161.55331182366191L607.9342414680085,0Z" style="opacity: 0;"/><path data-target="point-1-39" d="M607.9342414680085,0L757.4149141047857,161.55331182366191L774.1415183227404,149.83979481726945L775.5638782928902,144.458498986798L636.3894003393433,0Z" style="opacity: 0;"/><path data-target="point-1-40" d="M636.3894003393433,0L775.5638782928902,144.458498986798L791.8260134598344,133.55933103673306L793.7360883805848,126.68662929741248L666.6517606271947,0Z" style="opacity: 0;"/><path data-target="point-1-41" d="M666.6517606271947,0L793.7360883805848,126.68662929741248L809.4866043839194,116.58355957109184L811.9337277849526,108.20850184008704L698.9091867719529,0Z" style="opacity: 0;"/><path data-target="point-1-42" d="M698.9091867719529,0L811.9337277849526,108.20850184008704L827.121098088891,98.88475133741599L830.1592690684969,88.99397081021542L733.3704842119466,0Z" style="opacity: 0;"/><path data-target="point-1-43" d="M733.3704842119466,0L830.1592690684969,88.99397081021542L844.7269241572325,80.43449025167808L848.4151372339301,69.0119359267152L770.2643496076944,0Z" style="opacity: 0;"/><path data-target="point-1-44" d="M770.2643496076944,0L848.4151372339301,69.0119359267152L862.3016162308645,61.202652814176986L866.7043237388491,48.22979366994945L809.835621268875,0Z" style="opacity: 0;"/><path data-target="point-1-45" d="M809.835621268875,0L866.7043237388491,48.22979366994945L893.7177937721591,33.6898225L852.3551875182685,0Z" style="opacity: 0;"/><path data-target="point-1-46" d="M852.3551875182685,0L893.7177937721591,33.6898225L936,33.6898225L936,0Z" style="opacity: 0;"/></g><g class="series"><path data-target="point-0-0" d="M71.17235217357161,561.6L66.69415226928571,509.95152L0,509.95151999999996L0,561.6Z" style="opacity: 0;"/><path data-target="point-0-1" d="M66.69415226928571,509.95152L71.17235217357161,561.6L92.73270705499989,561.6L84.332862875,506.90015999999997L67.42410841642857,506.90015999999997Z" style="opacity: 0;"/><path data-target="point-0-2" d="M84.332862875,506.90015999999997L92.73270705499989,561.6L111.36691107428571,561.6L102.27115724571428,504.31679999999994L85.20993666071429,504.31679999999994Z" style="opacity: 0;"/><path data-target="point-0-3" d="M102.27115724571428,504.31679999999994L111.36691107428571,561.6L130.29163478500013,561.6L120.11577974499998,501.09695999999997L103.28695926857142,501.09695999999997Z" style="opacity: 0;"/><path data-target="point-0-4" d="M120.11577974499998,501.09695999999997L130.29163478500013,561.6L159.24838125714277,561.6L137.8841545142857,497.68992L121.30097336499999,497.68992Z" style="opacity: 0;"/><path data-target="point-0-5" d="M137.8841545142857,497.68992L159.24838125714277,561.6L173.81822339785725,561.6L155.85931140642856,491.99904L139.16826093714286,491.99904Z" style="opacity: 0;"/><path data-target="point-0-6" d="M155.85931140642856,491.99904L173.81822339785725,561.6L201.01141599999988,561.6L173.54101525,486.46727999999996L157.3444407942857,486.46727999999996Z" style="opacity: 0;"/><path data-target="point-0-7" d="M173.54101525,486.46727999999996L201.01141599999988,561.6L208.4353948057144,561.6L191.51268144714285,479.78423999999995L175.29334414,479.78424Z" style="opacity: 0;"/><path data-target="point-0-8" d="M191.51268144714285,479.78423999999995L208.4353948057144,561.6L236.11807671428568,561.6L208.92585599999998,474.83279999999996L193.66960828785713,474.83279999999996Z" style="opacity: 0;"/><path data-target="point-0-9" d="M208.92585599999998,474.83279999999996L236.11807671428568,561.6L279.37532059428594,561.6L226.79270356857143,468.73008L211.78192896,468.73008Z" style="opacity: 0;"/><path data-target="point-0-10" d="M226.79270356857143,468.73008L279.37532059428594,561.6L319.25250592785704,561.6L245.60978285,458.98632L229.41882088428568,458.98632Z" style="opacity: 0;"/><path data-target="point-0-11" d="M245.60978285,458.98632L319.25250592785704,561.6L350.40344459428576,561.6L347.0411163401223,556.391846258038L263.8939591392857,446.30351999999993L246.53721259999998,446.30352Z" style="opacity: 0;"/><path data-target="point-0-12" d="M263.8939591392857,446.30351999999993L347.0411163401223,556.391846258038L281.08232120071426,433.31183999999996L264.097534125,433.31183999999996Z" style="opacity: 0;"/><path data-target="point-0-13" d="M281.08232120071426,433.31183999999996L347.0411163401223,556.391846258038L350.40344459428576,561.6L398.2444031749998,561.6L298.70469300714285,422.0892L283.04017087,422.0892Z" style="opacity: 0;"/><path data-target="point-0-14" d="M298.70469300714285,422.0892L398.2444031749998,561.6L422.99446321999994,561.6L398.2093176706218,521.5899640891547L317.06684770714287,409.82759999999996L300.88222179285714,409.82759999999996Z" style="opacity: 0;"/><path data-target="point-0-15" d="M317.06684770714287,409.82759999999996L398.2093176706218,521.5899640891547L334.07168916785713,396.54576L318.4820751942857,396.54576Z" style="opacity: 0;"/><path data-target="point-0-16" d="M334.07168916785713,396.54576L398.2093176706218,521.5899640891547L422.99446321999994,561.6L433.2795789067857,561.6L390.35985834061233,456.1172157288785L351.33295493214285,386.02512L337.75344349642853,386.02512Z" style="opacity: 0;"/><path data-target="point-0-17" d="M351.33295493214285,386.02512L390.35985834061233,456.1172157288785L369.2108612571428,373.81968L356.87934661785715,373.81968Z" style="opacity: 0;"/><path data-target="point-0-18" d="M369.2108612571428,373.81968L390.35985834061233,456.1172157288785L433.2795789067857,561.6L455.28389444285716,561.6L386.07256466714284,367.87608L375.1714429714286,367.87608Z" style="opacity: 0;"/><path data-target="point-0-19" d="M386.07256466714284,367.87608L455.28389444285716,561.6L514.5439371457144,561.6L505.4228552713208,538.6832229640381L476.5843299011487,475.0746751390101L471.27804635412895,465.32511795499164L402.29027885,360.5004L393.8314507557143,360.5004Z" style="opacity: 0;"/><path data-target="point-0-20" d="M402.29027885,360.5004L471.27804635412895,465.32511795499164L421.17498179142854,348.91272L412.2526832685714,348.91272Z" style="opacity: 0;"/><path data-target="point-0-21" d="M421.17498179142854,348.91272L471.27804635412895,465.32511795499164L476.5843299011487,475.0746751390101L440.24337155714284,341.27495999999996L429.3053091171428,341.27495999999996Z" style="opacity: 0;"/><path data-target="point-0-22" d="M440.24337155714284,341.27495999999996L476.5843299011487,475.0746751390101L505.4228552713208,538.6832229640381L458.74527139142856,337.40928L444.9398621221428,337.40928Z" style="opacity: 0;"/><path data-target="point-0-23" d="M458.74527139142856,337.40928L505.4228552713208,538.6832229640381L514.5439371457144,561.6L531.9224061257139,561.6L476.4947846742857,332.89775999999995L463.90121368571425,332.89775999999995Z" style="opacity: 0;"/><path data-target="point-0-24" d="M476.4947846742857,332.89775999999995L531.9224061257139,561.6L577.3092672914289,561.6L493.3206033485714,327.8808L482.37510973714285,327.8808Z" style="opacity: 0;"/><path data-target="point-0-25" d="M493.3206033485714,327.8808L577.3092672914289,561.6L596.3253357435715,561.6L511.5354741864286,322.1712L499.77418461999997,322.1712Z" style="opacity: 0;"/><path data-target="point-0-26" d="M511.5354741864286,322.1712L596.3253357435715,561.6L605.2209174832706,561.6L572.3115860958719,438.21144709115106L529.5833783357143,316.11528L517.9186842199999,316.11528Z" style="opacity: 0;"/><path data-target="point-0-27" d="M529.5833783357143,316.11528L572.3115860958719,438.21144709115106L548.7857014395947,309.98447999999996L535.8725938285714,309.98447999999996Z" style="opacity: 0;"/><path data-target="point-0-28" d="M548.7857014395947,309.98447999999996L572.3115860958719,438.21144709115106L605.2209174832706,561.6L706.1836105311438,561.6L564.2600214967794,306.0203325L553.4501328501296,306.0203325Z" style="opacity: 0;"/><path data-target="point-0-29" d="M564.2600214967794,306.0203325L706.1836105311438,561.6L735.6119741895159,561.6L581.7951972259708,295.5102695L573.5121361120075,295.5102695Z" style="opacity: 0;"/><path data-target="point-0-30" d="M581.7951972259708,295.5102695L735.6119741895159,561.6L766.0022950583989,561.6L599.2965808189147,284.5679615L591.8615063023856,284.5679615Z" style="opacity: 0;"/><path data-target="point-0-31" d="M599.2965808189147,284.5679615L766.0022950583989,561.6L797.4419264937716,561.6L616.7612013273354,273.175812L610.2485826713968,273.175812Z" style="opacity: 0;"/><path data-target="point-0-32" d="M616.7612013273354,273.175812L797.4419264937716,561.6L830.0042632336534,561.6L634.1860568909243,261.3150075L628.6767098168401,261.3150075Z" style="opacity: 0;"/><path data-target="point-0-33" d="M634.1860568909243,261.3150075L830.0042632336534,561.6L863.7987486711914,561.6L651.5673019638939,248.9665465L647.1496421426043,248.9665465Z" style="opacity: 0;"/><path data-target="point-0-34" d="M651.5673019638939,248.9665465L863.7987486711914,561.6L898.9219049455718,561.6L668.9014437987707,236.11030549999998L665.6710058378185,236.11030549999998Z" style="opacity: 0;"/><path data-target="point-0-35" d="M668.9014437987707,236.11030549999998L898.9219049455718,561.6L935.4768747952996,561.6L686.1843458843651,222.7252245L684.245282016056,222.7252245Z" style="opacity: 0;"/><path data-target="point-0-36" d="M686.1843458843651,222.7252245L935.4768747952996,561.6L936,561.6L936,512.5030057889296L703.4113148160417,208.789963L702.8769928190625,208.789963Z" style="opacity: 0;"/><path data-target="point-0-37" d="M703.4113148160417,208.789963L936,512.5030057889296L936,464.4987570863045L720.9642454129676,194.7664732296652Z" style="opacity: 0;"/><path data-target="point-0-38" d="M720.9642454129676,194.7664732296652L936,464.4987570863045L936,418.1485824697836L738.7088599029906,180.41850881537528L721.1789573798178,193.8215659258609Z" style="opacity: 0;"/><path data-target="point-0-39" d="M738.7088599029906,180.41850881537528L936,418.1485824697836L936,373.30004635887076L756.4352020914918,165.4510879596222L739.2871723767147,177.99883033469908Z" style="opacity: 0;"/><path data-target="point-0-40" d="M756.4352020914918,165.4510879596222L936,373.30004635887076L936,329.8138279386819L774.1415183227404,149.83979481726945L757.4149141047857,161.55331182366191Z" style="opacity: 0;"/><path data-target="point-0-41" d="M774.1415183227404,149.83979481726945L936,329.8138279386819L936,287.55699346039955L791.8260134598344,133.55933103673306L775.5638782928902,144.458498986798Z" style="opacity: 0;"/><path data-target="point-0-42" d="M791.8260134598344,133.55933103673306L936,287.55699346039955L936,246.394203493995L809.4866043839194,116.58355957109184L793.7360883805848,126.68662929741248Z" style="opacity: 0;"/><path data-target="point-0-43" d="M809.4866043839194,116.58355957109184L936,246.394203493995L936,206.20253876441097L827.121098088891,98.88475133741599L811.9337277849526,108.20850184008704Z" style="opacity: 0;"/><path data-target="point-0-44" d="M827.121098088891,98.88475133741599L936,206.20253876441097L936,166.8546543198379L844.7269241572325,80.43449025167808L830.1592690684969,88.99397081021542Z" style="opacity: 0;"/><path data-target="point-0-45" d="M844.7269241572325,80.43449025167808L936,166.8546543198379L936,128.23501594951324L862.3016162308645,61.202652814176986L848.4151372339301,69.0119359267152Z" style="opacity: 0;"/><path data-target="point-0-46" d="M862.3016162308645,61.202652814176986L936,128.23501594951324L936,33.6898225L893.7177937721591,33.6898225L866.7043237388491,48.22979366994945Z" style="opacity: 0;"/><path data-target="point-1-0" d="M0,509.95151999999996L66.69415226928571,509.95152L67.42410841642857,506.90015999999997L0,241.29219184411164Z" style="opacity: 0;"/><path data-target="point-1-1" d="M0,241.29219184411164L67.42410841642857,506.90015999999997L84.332862875,506.90015999999997L85.20993666071429,504.31679999999994L46.872712269928634,219.82934675890004L28.45299295924464,109.96921081638038L17.627355306023503,65.14653103490696L10.109522989087822,36.73906748913117L0,12.140485598553138Z" style="opacity: 0;"/><path data-target="point-1-2" d="M46.872712269928634,219.82934675890004L85.20993666071429,504.31679999999994L102.27115724571428,504.31679999999994L103.28695926857142,501.09695999999997Z" style="opacity: 0;"/><path data-target="point-1-3" d="M28.45299295924464,109.96921081638038L46.872712269928634,219.82934675890004L103.28695926857142,501.09695999999997L120.11577974499998,501.09695999999997L121.30097336499999,497.68992L74.54068886776518,277.187546891908L55.604576052356094,203.3509797839368Z" style="opacity: 0;"/><path data-target="point-1-4" d="M74.54068886776518,277.187546891908L121.30097336499999,497.68992L137.8841545142857,497.68992L139.16826093714286,491.99904Z" style="opacity: 0;"/><path data-target="point-1-5" d="M55.604576052356094,203.3509797839368L74.54068886776518,277.187546891908L139.16826093714286,491.99904L155.85931140642856,491.99904L157.3444407942857,486.46727999999996Z" style="opacity: 0;"/><path data-target="point-1-6" d="M17.627355306023503,65.14653103490696L28.45299295924464,109.96921081638038L55.604576052356094,203.3509797839368L157.3444407942857,486.46727999999996L173.54101525,486.46727999999996L175.29334414,479.78424Z" style="opacity: 0;"/><path data-target="point-1-7" d="M10.109522989087822,36.73906748913117L17.627355306023503,65.14653103490696L175.29334414,479.78424L191.51268144714285,479.78423999999995L193.66960828785713,474.83279999999996L107.36926201948631,225.2488202944323L79.52906172067946,167.62622970138324L21.377360744095228,56.957073537895155Z" style="opacity: 0;"/><path data-target="point-1-8" d="M107.36926201948631,225.2488202944323L193.66960828785713,474.83279999999996L208.92585599999998,474.83279999999996L211.78192896,468.73008L157.38694316485973,320.8027682028036L154.62662284449564,314.5927613555394Z" style="opacity: 0;"/><path data-target="point-1-9" d="M157.38694316485973,320.8027682028036L211.78192896,468.73008L226.79270356857143,468.73008L229.41882088428568,458.98632Z" style="opacity: 0;"/><path data-target="point-1-10" d="M154.62662284449564,314.5927613555394L157.38694316485973,320.8027682028036L229.41882088428568,458.98632L245.60978285,458.98632L246.53721259999998,446.30352Z" style="opacity: 0;"/><path data-target="point-1-11" d="M79.52906172067946,167.62622970138324L107.36926201948631,225.2488202944323L154.62662284449564,314.5927613555394L246.53721259999998,446.30352L263.8939591392857,446.30351999999993L264.097534125,433.31183999999996Z" style="opacity: 0;"/><path data-target="point-1-12" d="M21.377360744095228,56.957073537895155L79.52906172067946,167.62622970138324L264.097534125,433.31183999999996L281.08232120071426,433.31183999999996L283.04017087,422.0892Z" style="opacity: 0;"/><path data-target="point-1-13" d="M0,12.140485598553138L10.109522989087822,36.73906748913117L21.377360744095228,56.957073537895155L283.04017087,422.0892L298.70469300714285,422.0892L300.88222179285714,409.82759999999996L122.1859703507294,137.00517655477398L25.507411232499507,0L0,0Z" style="opacity: 0;"/><path data-target="point-1-14" d="M122.1859703507294,137.00517655477398L300.88222179285714,409.82759999999996L317.06684770714287,409.82759999999996L318.4820751942857,396.54576Z" style="opacity: 0;"/><path data-target="point-1-15" d="M25.507411232499507,0L122.1859703507294,137.00517655477398L318.4820751942857,396.54576L334.07168916785713,396.54576L337.75344349642853,386.02512L204.93167618888063,185.16315569428744L69.14425985142904,0Z" style="opacity: 0;"/><path data-target="point-1-16" d="M204.93167618888063,185.16315569428744L337.75344349642853,386.02512L351.33295493214285,386.02512L356.87934661785715,373.81968Z" style="opacity: 0;"/><path data-target="point-1-17" d="M69.14425985142904,0L204.93167618888063,185.16315569428744L356.87934661785715,373.81968L369.2108612571428,373.81968L375.1714429714286,367.87608L274.78957145610116,120.8528204979537L214.06426628499983,1.4210854715202004e-14Z" style="opacity: 0;"/><path data-target="point-1-18" d="M274.78957145610116,120.8528204979537L375.1714429714286,367.87608L386.07256466714284,367.87608L393.8314507557143,360.5004L322.8539516551664,208.15898151735567Z" style="opacity: 0;"/><path data-target="point-1-19" d="M322.8539516551664,208.15898151735567L393.8314507557143,360.5004L402.29027885,360.5004L412.2526832685714,348.91272Z" style="opacity: 0;"/><path data-target="point-1-20" d="M214.06426628499983,1.4210854715202004e-14L274.78957145610116,120.8528204979537L322.8539516551664,208.15898151735567L412.2526832685714,348.91272L421.17498179142854,348.91272L429.3053091171428,341.27495999999996L285.2750876057138,5.684341886080802e-14Z" style="opacity: 0;"/><path data-target="point-1-21" d="M285.2750876057138,5.684341886080802e-14L429.3053091171428,341.27495999999996L440.24337155714284,341.27495999999996L444.9398621221428,337.40928L416.07474968317854,156.8108445403031L390.7156391495383,39.2544868586445L380.9149854350001,0Z" style="opacity: 0;"/><path data-target="point-1-22" d="M416.07474968317854,156.8108445403031L444.9398621221428,337.40928L458.74527139142856,337.40928L463.90121368571425,332.89775999999995Z" style="opacity: 0;"/><path data-target="point-1-23" d="M390.7156391495383,39.2544868586445L416.07474968317854,156.8108445403031L463.90121368571425,332.89775999999995L476.4947846742857,332.89775999999995L482.37510973714285,327.8808Z" style="opacity: 0;"/><path data-target="point-1-24" d="M380.9149854350001,0L390.7156391495383,39.2544868586445L482.37510973714285,327.8808L493.3206033485714,327.8808L499.77418461999997,322.1712L410.25086242000015,0Z" style="opacity: 0;"/><path data-target="point-1-25" d="M410.25086242000015,0L499.77418461999997,322.1712L511.5354741864286,322.1712L517.9186842199999,316.11528L416.2085928800004,7.105427357601002e-15Z" style="opacity: 0;"/><path data-target="point-1-26" d="M416.2085928800004,7.105427357601002e-15L517.9186842199999,316.11528L529.5833783357143,316.11528L535.8725938285714,309.98447999999996L446.9488887881305,43.97339654569106L426.5659471562725,0Z" style="opacity: 0;"/><path data-target="point-1-27" d="M446.9488887881305,43.97339654569106L535.8725938285714,309.98447999999996L548.7857014395947,309.98447999999996L553.4501328501296,306.0203325L534.2821362333265,232.00019989511236L483.42224933641836,115.96834337384522Z" style="opacity: 0;"/><path data-target="point-1-28" d="M534.2821362333265,232.00019989511236L553.4501328501296,306.0203325L564.2600214967794,306.0203325L573.5121361120075,295.5102695Z" style="opacity: 0;"/><path data-target="point-1-29" d="M483.42224933641836,115.96834337384522L534.2821362333265,232.00019989511236L573.5121361120075,295.5102695L581.7951972259708,295.5102695L591.8615063023856,284.5679615Z" style="opacity: 0;"/><path data-target="point-1-30" d="M426.5659471562725,0L446.9488887881305,43.97339654569106L483.42224933641836,115.96834337384522L591.8615063023856,284.5679615L599.2965808189147,284.5679615L610.2485826713968,273.175812L427.30569874706805,0Z" style="opacity: 0;"/><path data-target="point-1-31" d="M427.30569874706805,0L610.2485826713968,273.175812L616.7612013273354,273.175812L628.6767098168401,261.3150075L446.4592615119633,0Z" style="opacity: 0;"/><path data-target="point-1-32" d="M446.4592615119633,0L628.6767098168401,261.3150075L634.1860568909243,261.3150075L647.1496421426043,248.9665465L466.38285461319913,-2.842170943040401e-14Z" style="opacity: 0;"/><path data-target="point-1-33" d="M466.38285461319913,-2.842170943040401e-14L647.1496421426043,248.9665465L651.5673019638939,248.9665465L665.6710058378185,236.11030549999998L487.1721814391451,2.842170943040401e-14Z" style="opacity: 0;"/><path data-target="point-1-34" d="M487.1721814391451,2.842170943040401e-14L665.6710058378185,236.11030549999998L668.9014437987707,236.11030549999998L684.245282016056,222.7252245L508.9203975360126,0Z" style="opacity: 0;"/><path data-target="point-1-35" d="M508.9203975360126,0L684.245282016056,222.7252245L686.1843458843651,222.7252245L702.8769928190625,208.789963L531.7471465559674,0Z" style="opacity: 0;"/><path data-target="point-1-36" d="M531.7471465559674,0L702.8769928190625,208.789963L703.4113148160417,208.789963L720.9642454129676,194.7664732296652L721.1789573798178,193.8215659258609L555.7635210669888,0Z" style="opacity: 0;"/><path data-target="point-1-37" d="M555.7635210669888,0L721.1789573798178,193.8215659258609L738.7088599029906,180.41850881537528L739.2871723767147,177.99883033469908L581.1147397722526,0Z" style="opacity: 0;"/><path data-target="point-1-38" d="M581.1147397722526,0L739.2871723767147,177.99883033469908L756.4352020914918,165.4510879596222L757.4149141047857,161.55331182366191L607.9342414680085,0Z" style="opacity: 0;"/><path data-target="point-1-39" d="M607.9342414680085,0L757.4149141047857,161.55331182366191L774.1415183227404,149.83979481726945L775.5638782928902,144.458498986798L636.3894003393433,0Z" style="opacity: 0;"/><path data-target="point-1-40" d="M636.3894003393433,0L775.5638782928902,144.458498986798L791.8260134598344,133.55933103673306L793.7360883805848,126.68662929741248L666.6517606271947,0Z" style="opacity: 0;"/><path data-target="point-1-41" d="M666.6517606271947,0L793.7360883805848,126.68662929741248L809.4866043839194,116.58355957109184L811.9337277849526,108.20850184008704L698.9091867719529,0Z" style="opacity: 0;"/><path data-target="point-1-42" d="M698.9091867719529,0L811.9337277849526,108.20850184008704L827.121098088891,98.88475133741599L830.1592690684969,88.99397081021542L733.3704842119466,0Z" style="opacity: 0;"/><path data-target="point-1-43" d="M733.3704842119466,0L830.1592690684969,88.99397081021542L844.7269241572325,80.43449025167808L848.4151372339301,69.0119359267152L770.2643496076944,0Z" style="opacity: 0;"/><path data-target="point-1-44" d="M770.2643496076944,0L848.4151372339301,69.0119359267152L862.3016162308645,61.202652814176986L866.7043237388491,48.22979366994945L809.835621268875,0Z" style="opacity: 0;"/><path data-target="point-1-45" d="M809.835621268875,0L866.7043237388491,48.22979366994945L893.7177937721591,33.6898225L852.3551875182685,0Z" style="opacity: 0;"/><path data-target="point-1-46" d="M852.3551875182685,0L893.7177937721591,33.6898225L936,33.6898225L936,0Z" style="opacity: 0;"/></g></g><g class="axes"><g class="y axis" fill="none" font-size="10" font-family="sans-serif" text-anchor="end" style="font-family: &quot;Source Sans Pro&quot;;"><path class="domain" stroke="#eeeeee" d="M0.5,562.1V0.5" stroke-dasharray="0" style="visibility: hidden;"/><g class="tick" opacity="1" transform="translate(0,562.1)" style="visibility: visible;"><line stroke="#eeeeee" x2="936" stroke-dasharray="0"/><text fill="rgb(0, 0, 0)" x="3" dy="-0.33em" opacity="1" text-anchor="start" font-size="18">$0</text></g><g class="tick" opacity="1" transform="translate(0, 524.6599731445312)" style="visibility: visible;"><line stroke="#eeeeee" x2="936" stroke-dasharray="0"/><text fill="rgb(0, 0, 0)" x="3" dy="-0.33em" opacity="1" text-anchor="start" font-size="18">$2000</text></g><g class="tick" opacity="1" transform="translate(0, 487.2200012207031)" style="visibility: visible;"><line stroke="#eeeeee" x2="936" stroke-dasharray="0"/><text fill="rgb(0, 0, 0)" x="3" dy="-0.33em" opacity="1" text-anchor="start" font-size="18">$4000</text></g><g class="tick" opacity="1" transform="translate(0, 449.7799987792969)" style="visibility: visible;"><line stroke="#eeeeee" x2="936" stroke-dasharray="0"/><text fill="rgb(0, 0, 0)" x="3" dy="-0.33em" opacity="1" text-anchor="start" font-size="18">$6000</text></g><g class="tick" opacity="1" transform="translate(0, 412.3399963378906)" style="visibility: visible;"><line stroke="#eeeeee" x2="936" stroke-dasharray="0"/><text fill="rgb(0, 0, 0)" x="3" dy="-0.33em" opacity="1" text-anchor="start" font-size="18">$8000</text></g><g class="tick" opacity="1" transform="translate(0, 374.8999938964844)" style="visibility: visible;"><line stroke="#eeeeee" x2="936" stroke-dasharray="0"/><text fill="rgb(0, 0, 0)" x="3" dy="-0.33em" opacity="1" text-anchor="start" font-size="18">$10,000</text></g><g class="tick" opacity="1" transform="translate(0, 337.4599914550781)" style="visibility: visible;"><line stroke="#eeeeee" x2="936" stroke-dasharray="0"/><text fill="rgb(0, 0, 0)" x="3" dy="-0.33em" opacity="1" text-anchor="start" font-size="18">$12,000</text></g><g class="tick" opacity="1" transform="translate(0, 300.0199890136719)" style="visibility: visible;"><line stroke="#eeeeee" x2="936" stroke-dasharray="0"/><text fill="rgb(0, 0, 0)" x="3" dy="-0.33em" opacity="1" text-anchor="start" font-size="18">$14,000</text></g><g class="tick" opacity="1" transform="translate(0, 262.5799865722656)" style="visibility: visible;"><line stroke="#eeeeee" x2="936" stroke-dasharray="0"/><text fill="rgb(0, 0, 0)" x="3" dy="-0.33em" opacity="1" text-anchor="start" font-size="18">$16,000</text></g><g class="tick" opacity="1" transform="translate(0, 225.13999938964844)" style="visibility: visible;"><line stroke="#eeeeee" x2="936" stroke-dasharray="0"/><text fill="rgb(0, 0, 0)" x="3" dy="-0.33em" opacity="1" text-anchor="start" font-size="18">$18,000</text></g><g class="tick" opacity="1" transform="translate(0, 187.6999969482422)" style="visibility: visible;"><line stroke="#eeeeee" x2="936" stroke-dasharray="0"/><text fill="rgb(0, 0, 0)" x="3" dy="-0.33em" opacity="1" text-anchor="start" font-size="18">$20,000</text></g><g class="tick" opacity="1" transform="translate(0, 150.25999450683594)" style="visibility: visible;"><line stroke="#eeeeee" x2="936" stroke-dasharray="0"/><text fill="rgb(0, 0, 0)" x="3" dy="-0.33em" opacity="1" text-anchor="start" font-size="18">$22,000</text></g><g class="tick" opacity="1" transform="translate(0, 112.81999969482422)" style="visibility: visible;"><line stroke="#eeeeee" x2="936" stroke-dasharray="0"/><text fill="rgb(0, 0, 0)" x="3" dy="-0.33em" opacity="1" text-anchor="start" font-size="18">$24,000</text></g><g class="tick" opacity="1" transform="translate(0, 75.37999725341797)" style="visibility: visible;"><line stroke="#eeeeee" x2="936" stroke-dasharray="0"/><text fill="rgb(0, 0, 0)" x="3" dy="-0.33em" opacity="1" text-anchor="start" font-size="18">$26,000</text></g><g class="tick" opacity="1" transform="translate(0, 37.939998626708984)" style="visibility: visible;"><line stroke="#eeeeee" x2="936" stroke-dasharray="0"/><text fill="rgb(0, 0, 0)" x="3" dy="-0.33em" opacity="1" text-anchor="start" font-size="18">$28,000</text></g><g class="tick" opacity="1" transform="translate(0, 0.5)" style="visibility: visible;"><line stroke="#eeeeee" x2="936" stroke-dasharray="0"/><text fill="rgb(0, 0, 0)" x="3" dy="-0.33em" opacity="1" text-anchor="start" font-size="18">$30,000</text></g></g><g class="x axis" transform="translate(0,561.6)" fill="none" font-size="10" font-family="sans-serif" text-anchor="middle" style="font-family: &quot;Source Sans Pro&quot;;"><path class="domain" stroke="#eeeeee" d="M40.5,0.5H936.5" stroke-dasharray="0"/><g class="tick" opacity="1" transform="translate(40.5,0)"><line stroke="#eeeeee" y2="6" stroke-dasharray="0"/><text fill="rgb(0, 0, 0)" y="9" dy="-9" opacity="1" dominant-baseline="central" font-size="18" transform="translate(0, 15) rotate(-45)" dx="5" style="text-anchor: end; visibility: visible;">1990</text></g><g class="tick" opacity="1" transform="translate(130.10000000000002,0)"><line stroke="#eeeeee" y2="6" stroke-dasharray="0"/><text fill="rgb(0, 0, 0)" y="9" dy="-9" opacity="1" dominant-baseline="central" font-size="18" transform="translate(0, 15) rotate(-45)" dx="5" style="text-anchor: end; visibility: visible;">1995</text></g><g class="tick" opacity="1" transform="translate(219.70000000000002,0)"><line stroke="#eeeeee" y2="6" stroke-dasharray="0"/><text fill="rgb(0, 0, 0)" y="9" dy="-9" opacity="1" dominant-baseline="central" font-size="18" transform="translate(0, 15) rotate(-45)" dx="5" style="text-anchor: end; visibility: visible;">2000</text></g><g class="tick" opacity="1" transform="translate(309.3,0)"><line stroke="#eeeeee" y2="6" stroke-dasharray="0"/><text fill="rgb(0, 0, 0)" y="9" dy="-9" opacity="1" dominant-baseline="central" font-size="18" transform="translate(0, 15) rotate(-45)" dx="5" style="text-anchor: end; visibility: visible;">2005</text></g><g class="tick" opacity="1" transform="translate(398.90000000000003,0)"><line stroke="#eeeeee" y2="6" stroke-dasharray="0"/><text fill="rgb(0, 0, 0)" y="9" dy="-9" opacity="1" dominant-baseline="central" font-size="18" transform="translate(0, 15) rotate(-45)" dx="5" style="text-anchor: end; visibility: visible;">2010</text></g><g class="tick" opacity="1" transform="translate(488.5,0)"><line stroke="#eeeeee" y2="6" stroke-dasharray="0"/><text fill="rgb(0, 0, 0)" y="9" dy="-9" opacity="1" dominant-baseline="central" font-size="18" transform="translate(0, 15) rotate(-45)" dx="5" style="text-anchor: end; visibility: visible;">2015</text></g><g class="tick" opacity="1" transform="translate(578.1,0)"><line stroke="#eeeeee" y2="6" stroke-dasharray="0"/><text fill="rgb(0, 0, 0)" y="9" dy="-9" opacity="1" dominant-baseline="central" font-size="18" transform="translate(0, 15) rotate(-45)" dx="5" style="text-anchor: end; visibility: visible;">2020</text></g><g class="tick" opacity="1" transform="translate(667.6999999999999,0)"><line stroke="#eeeeee" y2="6" stroke-dasharray="0"/><text fill="rgb(0, 0, 0)" y="9" dy="-9" opacity="1" dominant-baseline="central" font-size="18" transform="translate(0, 15) rotate(-45)" dx="5" style="text-anchor: end; visibility: visible;">2025</text></g><g class="tick" opacity="1" transform="translate(757.3000000000001,0)"><line stroke="#eeeeee" y2="6" stroke-dasharray="0"/><text fill="rgb(0, 0, 0)" y="9" dy="-9" opacity="1" dominant-baseline="central" font-size="18" transform="translate(0, 15) rotate(-45)" dx="5" style="text-anchor: end; visibility: visible;">2030</text></g><g class="tick" opacity="1" transform="translate(846.9,0)"><line stroke="#eeeeee" y2="6" stroke-dasharray="0"/><text fill="rgb(0, 0, 0)" y="9" dy="-9" opacity="1" dominant-baseline="central" font-size="18" transform="translate(0, 15) rotate(-45)" dx="5" style="text-anchor: end; visibility: visible;">2035</text></g><g class="tick" opacity="1" transform="translate(936.5,0)"><line stroke="#eeeeee" y2="6" stroke-dasharray="0"/><text fill="rgb(0, 0, 0)" y="9" dy="-9" opacity="1" dominant-baseline="central" font-size="18" transform="translate(0, 15) rotate(-45)" dx="5" style="text-anchor: end; visibility: visible;">2040</text></g></g></g></g></g></g><g class="annotations below"><g class="axis-highlights" transform="translate(15, 20)" style="opacity: 1;"><g class="line x" transform="translate(559.68, 0)"><line width="0" stroke-dasharray="2 2" stroke="#333333" stroke-width="2" y2="561.6"/><text transform="translate(0, 6) rotate(-90)" fill="#333333" text-anchor="end" dy="-0.5em" font-size="12">Current</text></g></g></g><g id="areas"><g class="series" pointer-events="none"><path class="area" transform="translate(15,20)" fill-opacity="0" fill="#11A579" clip-path="url(#clip-0-0)" d="M57.92,512.87184C63.89333333333334,512.45376,69.86666666666667,512.0356800000001,75.84,511.31808C81.81333333333333,510.60048,87.78666666666666,509.49912,93.75999999999999,508.56624C99.73333333333333,507.63336,105.70666666666666,506.69736,111.68,505.7208C117.65333333333335,504.74424,123.62666666666668,504.2076,129.60000000000002,502.70688C135.57333333333335,501.20616,141.54666666666665,498.48552000000007,147.51999999999998,496.71648000000005C153.4933333333333,494.94744000000003,159.46666666666667,493.95528,165.44,492.09264C171.41333333333333,490.23,177.38666666666668,487.25040000000007,183.36,485.54064000000005C189.33333333333334,483.83088000000004,195.30666666666667,483.38784000000004,201.28,481.83408000000003C207.25333333333333,480.28032,213.2266666666667,478.84512000000007,219.20000000000002,476.21808000000004C225.17333333333335,473.59104,231.14666666666668,469.90632,237.12,466.07184C243.09333333333333,462.23736,249.06666666666666,457.6104,255.04,453.2112C261.0133333333333,448.812,266.9866666666667,443.53296,272.96000000000004,439.67664C278.93333333333334,435.82032000000004,284.9066666666667,433.8048,290.88,430.07328C296.85333333333335,426.34176,302.82666666666665,421.58687999999995,308.8,417.28752C314.77333333333337,412.98816,320.74666666666667,407.97743999999994,326.72,404.27711999999997C332.6933333333334,400.5768,338.6666666666667,398.28048,344.64000000000004,395.0856C350.61333333333334,391.89072,356.5866666666667,387.53832,362.56,385.10784C368.53333333333336,382.67736,374.50666666666666,382.33728,380.48,380.50272C386.4533333333334,378.66816,392.4266666666667,377.1331200000001,398.40000000000003,374.10048000000006C404.37333333333333,371.06784000000005,410.3466666666667,365.55791999999997,416.32,362.30688C422.29333333333335,359.05584,428.26666666666665,356.69088,434.24,354.59424C440.21333333333337,352.49760000000003,446.18666666666667,351.23088,452.16,349.72704C458.1333333333333,348.2232,464.1066666666667,346.98768,470.08,345.57120000000003C476.05333333333334,344.15472000000005,482.02666666666664,343.02528,488,341.22816C493.97333333333336,339.43104,499.94666666666666,336.91944000000007,505.92,334.78848000000005C511.8933333333334,332.65752000000003,517.8666666666667,330.54528000000005,523.84,328.4424C529.8133333333334,326.33952,535.7866666666666,323.7643656,541.76,322.1712C547.7333333333333,320.5780344,553.7066666666666,321.0752688,559.68,318.8834064C565.6533333333333,316.691544,571.6266666666667,312.3173976,577.6,308.932416C583.5733333333334,305.5474344,589.5466666666666,302.0972448,595.52,298.5735168C601.4933333333333,295.0497888,607.4666666666667,291.45826320000003,613.44,287.790048C619.4133333333334,284.12183280000005,625.3866666666667,280.38282480000004,631.36,276.56422560000004C637.3333333333334,272.74562640000005,643.3066666666667,268.8535824,649.2800000000001,264.8784528C655.2533333333333,260.90332320000005,661.2266666666667,256.85159760000005,667.1999999999999,252.71344800000008C673.1733333333333,248.57529840000007,679.1466666666666,244.3573392,685.12,240.0495552C691.0933333333334,235.7417712,697.0666666666666,231.35112,703.04,226.86674400000004C709.0133333333333,222.38236800000004,714.9866666666667,217.81156800000008,720.96,213.14329920000006C726.9333333333334,208.47503040000007,732.9066666666666,203.71678079999995,738.88,198.85713119999997C744.8533333333334,193.99748159999996,750.8266666666667,189.04426320000002,756.8000000000001,183.9854016C762.7733333333333,178.92654000000002,768.7466666666667,173.77024079999998,774.7199999999999,168.50396160000003C780.6933333333333,163.23768239999998,786.6666666666666,157.8699096,792.64,152.38772639999996C798.6133333333333,146.90554319999998,804.5866666666666,141.31781039999993,810.56,135.61086239999997C816.5333333333333,129.90391439999996,822.5066666666667,124.08695520000008,828.48,118.14603840000007C834.4533333333334,112.20512160000008,840.4266666666666,106.1498568,846.4,99.9653616C852.3733333333333,93.78086639999997,858.3466666666667,87.4771248,864.32,81.03906719999998C870.2933333333334,74.6010096,876.2666666666667,67.9690128,882.24,61.337016000000006L882.24,61.337016000000006C876.2666666666667,67.9690128,870.2933333333334,74.6010096,864.32,81.03906719999998C858.3466666666667,87.4771248,852.3733333333333,93.78086639999997,846.4,99.9653616C840.4266666666666,106.1498568,834.4533333333334,112.20512160000008,828.48,118.14603840000007C822.5066666666667,124.08695520000008,816.5333333333333,129.90391439999996,810.56,135.61086239999997C804.5866666666666,141.31781039999993,798.6133333333333,146.90554319999998,792.64,152.38772639999996C786.6666666666666,157.8699096,780.6933333333333,163.23768239999998,774.7199999999999,168.50396160000003C768.7466666666667,173.77024079999998,762.7733333333333,178.92654000000002,756.8000000000001,183.9854016C750.8266666666667,189.04426320000002,744.8533333333334,193.99748159999996,738.88,198.85713119999997C732.9066666666666,203.71678079999995,726.9333333333334,208.47503040000007,720.96,213.14329920000006C714.9866666666667,217.81156800000008,709.0133333333333,222.38236800000004,703.04,226.86674400000004C697.0666666666666,231.35112,691.0933333333334,235.7417712,685.12,240.0495552C679.1466666666666,244.3573392,673.1733333333333,248.57529840000007,667.1999999999999,252.71344800000008C661.2266666666667,256.85159760000005,655.2533333333333,260.90332320000005,649.2800000000001,264.8784528C643.3066666666667,268.8535824,637.3333333333334,272.74562640000005,631.36,276.56422560000004C625.3866666666667,280.38282480000004,619.4133333333334,284.12183280000005,613.44,287.790048C607.4666666666667,291.45826320000003,601.4933333333333,295.0497888,595.52,298.5735168C589.5466666666666,302.0972448,583.5733333333334,305.5474344,577.6,308.932416C571.6266666666667,312.3173976,565.6533333333333,316.691544,559.68,318.8834064C553.7066666666666,321.0752688,547.7333333333333,320.5780344,541.76,322.1712C535.7866666666666,323.7643656,529.8133333333334,326.33952,523.84,328.4424C517.8666666666667,330.54528000000005,511.8933333333334,332.65752000000003,505.92,334.78848000000005C499.94666666666666,336.91944000000007,493.97333333333336,339.43104,488,341.22816C482.02666666666664,343.02528,476.05333333333334,344.15472000000005,470.08,345.57120000000003C464.1066666666667,346.98768,458.1333333333333,348.2232,452.16,349.72704C446.18666666666667,351.23088,440.21333333333337,352.49760000000003,434.24,354.59424C428.26666666666665,356.69088,422.29333333333335,359.05584,416.32,362.30688C410.3466666666667,365.55791999999997,404.37333333333333,371.06784000000005,398.40000000000003,374.10048000000006C392.4266666666667,377.1331200000001,386.4533333333334,378.66816,380.48,380.50272C374.50666666666666,382.33728,368.53333333333336,382.67736,362.56,385.10784C356.5866666666667,387.53832,350.61333333333334,391.89072,344.64000000000004,395.0856C338.6666666666667,398.28048,332.6933333333334,400.5768,326.72,404.27711999999997C320.74666666666667,407.97743999999994,314.77333333333337,412.98816,308.8,417.28752C302.82666666666665,421.58687999999995,296.85333333333335,426.34176,290.88,430.07328C284.9066666666667,433.8048,278.93333333333334,435.82032000000004,272.96000000000004,439.67664C266.9866666666667,443.53296,261.0133333333333,448.812,255.04,453.2112C249.06666666666666,457.6104,243.09333333333333,462.23736,237.12,466.07184C231.14666666666668,469.90632,225.17333333333335,473.59104,219.20000000000002,476.21808000000004C213.2266666666667,478.84512000000007,207.25333333333333,480.28032,201.28,481.83408000000003C195.30666666666667,483.38784000000004,189.33333333333334,483.83088000000004,183.36,485.54064000000005C177.38666666666668,487.25040000000007,171.41333333333333,490.23,165.44,492.09264C159.46666666666667,493.95528,153.4933333333333,494.94744000000003,147.51999999999998,496.71648000000005C141.54666666666665,498.48552000000007,135.57333333333335,501.20616,129.60000000000002,502.70688C123.62666666666668,504.2076,117.65333333333335,504.74424,111.68,505.7208C105.70666666666666,506.69736,99.73333333333333,507.63336,93.75999999999999,508.56624C87.78666666666666,509.49912,81.81333333333333,510.60048,75.84,511.31808C69.86666666666667,512.0356800000001,63.89333333333334,512.45376,57.92,512.87184Z"/></g><g class="series" pointer-events="none"><path class="area" transform="translate(15,20)" fill-opacity="0" fill="#802392" clip-path="url(#clip-0-1)" d="M57.92,507.0312C63.89333333333334,505.33704000000006,69.86666666666667,503.64288000000005,75.84,502.48224000000005C81.81333333333333,501.32160000000005,87.78666666666666,501.06888000000004,93.75999999999999,500.06736C99.73333333333333,499.06584,105.70666666666666,497.70552,111.68,496.47312C117.65333333333335,495.24072,123.62666666666668,494.20488,129.60000000000002,492.67296C135.57333333333335,491.14104,141.54666666666665,489.25344,147.51999999999998,487.2816C153.4933333333333,485.30976000000004,159.46666666666667,483.05088,165.44,480.84192C171.41333333333333,478.63296,177.38666666666668,476.19624000000005,183.36,474.02784C189.33333333333334,471.85944,195.30666666666667,469.96248,201.28,467.83152C207.25333333333333,465.70056,213.2266666666667,463.8972,219.20000000000002,461.24208C225.17333333333335,458.58696,231.14666666666668,455.54184,237.12,451.9008C243.09333333333333,448.25976,249.06666666666666,443.5548,255.04,439.39584C261.0133333333333,435.23688000000004,266.9866666666667,431.16216000000003,272.96000000000004,426.94704C278.93333333333334,422.73192000000006,284.9066666666667,418.20168000000007,290.88,414.10512000000006C296.85333333333335,410.00856000000005,302.82666666666665,406.5828,308.8,402.36768C314.77333333333337,398.15256,320.74666666666667,393.04824,326.72,388.81440000000003C332.6933333333334,384.58056000000005,338.6666666666667,381.34512000000007,344.64000000000004,376.96464000000003C350.61333333333334,372.58416000000005,356.5866666666667,366.15072,362.56,362.53152C368.53333333333336,358.91232,374.50666666666666,357.85464,380.48,355.24944000000005C386.4533333333334,352.6442400000001,392.4266666666667,350.1888,398.40000000000003,346.90032C404.37333333333333,343.61184000000003,410.3466666666667,338.676,416.32,335.51856C422.29333333333335,332.36111999999997,428.26666666666665,329.69352000000003,434.24,327.95568000000003C440.21333333333337,326.21784,446.18666666666667,326.38008,452.16,325.09152C458.1333333333333,323.80296,464.1066666666667,321.98400000000004,470.08,320.22432000000003C476.05333333333334,318.46464000000003,482.02666666666664,316.31184,488,314.53344000000004C493.97333333333336,312.75504000000006,499.94666666666666,311.3448000000001,505.92,309.55392000000006C511.8933333333334,307.76304000000005,517.8666666666667,305.74752,523.84,303.78816C529.8133333333334,301.8288,535.7866666666666,299.5695768,541.76,297.79776C547.7333333333333,296.0259432,553.7066666666666,295.77553200000006,559.68,293.15725920000006C565.6533333333333,290.53898640000006,571.6266666666667,285.853932,577.6,282.0881232C583.5733333333334,278.3223144,589.5466666666666,274.4834976,595.52,270.56240640000004C601.4933333333333,266.6413152,607.4666666666667,262.64434559999995,613.44,258.56157599999995C619.4133333333334,254.47880639999994,625.3866666666667,250.3169448,631.36,246.0657888C637.3333333333334,241.8146328,643.3066666666667,237.48107760000002,649.2800000000001,233.05464C655.2533333333333,228.62820240000005,661.2266666666667,224.1161208,667.1999999999999,219.50716320000004C673.1733333333333,214.8982056,679.1466666666666,210.19989120000005,685.12,205.40089440000003C691.0933333333334,200.60189760000003,697.0666666666666,195.71008079999993,703.04,190.71318239999994C709.0133333333333,185.71628399999992,714.9866666666667,180.6224472,720.96,175.41950400000002C726.9333333333334,170.21656080000005,732.9066666666666,164.9129976,738.88,159.49552320000004C744.8533333333334,154.07804880000003,750.8266666666667,148.5555552000001,756.8000000000001,142.91465760000006C762.7733333333333,137.2737600000001,768.7466666666667,131.52360000000002,774.7199999999999,125.65013760000005C780.6933333333333,119.77667520000001,786.6666666666666,113.78952000000007,792.64,107.67388320000003C798.6133333333333,101.55824640000004,804.5866666666666,95.32417439999996,810.56,88.95631679999997C816.5333333333333,82.58845919999995,822.5066666666667,76.09717440000001,828.48,69.46673759999999C834.4533333333334,62.836300800000004,840.4266666666666,56.077507199999914,846.4,49.17369599999995C852.3733333333333,42.26988479999994,858.3466666666667,35.232381600000075,864.32,28.04387040000006C870.2933333333334,20.855359200000088,876.2666666666667,13.448994000000038,882.24,6.042628799999989L882.24,6.042628799999989C876.2666666666667,13.448994000000038,870.2933333333334,20.855359200000088,864.32,28.04387040000006C858.3466666666667,35.232381600000075,852.3733333333333,42.26988479999994,846.4,49.17369599999995C840.4266666666666,56.077507199999914,834.4533333333334,62.836300800000004,828.48,69.46673759999999C822.5066666666667,76.09717440000001,816.5333333333333,82.58845919999995,810.56,88.95631679999997C804.5866666666666,95.32417439999996,798.6133333333333,101.55824640000004,792.64,107.67388320000003C786.6666666666666,113.78952000000007,780.6933333333333,119.77667520000001,774.7199999999999,125.65013760000005C768.7466666666667,131.52360000000002,762.7733333333333,137.2737600000001,756.8000000000001,142.91465760000006C750.8266666666667,148.5555552000001,744.8533333333334,154.07804880000003,738.88,159.49552320000004C732.9066666666666,164.9129976,726.9333333333334,170.21656080000005,720.96,175.41950400000002C714.9866666666667,180.6224472,709.0133333333333,185.71628399999992,703.04,190.71318239999994C697.0666666666666,195.71008079999993,691.0933333333334,200.60189760000003,685.12,205.40089440000003C679.1466666666666,210.19989120000005,673.1733333333333,214.8982056,667.1999999999999,219.50716320000004C661.2266666666667,224.1161208,655.2533333333333,228.62820240000005,649.2800000000001,233.05464C643.3066666666667,237.48107760000002,637.3333333333334,241.8146328,631.36,246.0657888C625.3866666666667,250.3169448,619.4133333333334,254.47880639999994,613.44,258.56157599999995C607.4666666666667,262.64434559999995,601.4933333333333,266.6413152,595.52,270.56240640000004C589.5466666666666,274.4834976,583.5733333333334,278.3223144,577.6,282.0881232C571.6266666666667,285.853932,565.6533333333333,290.53898640000006,559.68,293.15725920000006C553.7066666666666,295.77553200000006,547.7333333333333,296.0259432,541.76,297.79776C535.7866666666666,299.5695768,529.8133333333334,301.8288,523.84,303.78816C517.8666666666667,305.74752,511.8933333333334,307.76304000000005,505.92,309.55392000000006C499.94666666666666,311.3448000000001,493.97333333333336,312.75504000000006,488,314.53344000000004C482.02666666666664,316.31184,476.05333333333334,318.46464000000003,470.08,320.22432000000003C464.1066666666667,321.98400000000004,458.1333333333333,323.80296,452.16,325.09152C446.18666666666667,326.38008,440.21333333333337,326.21784,434.24,327.95568000000003C428.26666666666665,329.69352000000003,422.29333333333335,332.36111999999997,416.32,335.51856C410.3466666666667,338.676,404.37333333333333,343.61184000000003,398.40000000000003,346.90032C392.4266666666667,350.1888,386.4533333333334,352.6442400000001,380.48,355.24944000000005C374.50666666666666,357.85464,368.53333333333336,358.91232,362.56,362.53152C356.5866666666667,366.15072,350.61333333333334,372.58416000000005,344.64000000000004,376.96464000000003C338.6666666666667,381.34512000000007,332.6933333333334,384.58056000000005,326.72,388.81440000000003C320.74666666666667,393.04824,314.77333333333337,398.15256,308.8,402.36768C302.82666666666665,406.5828,296.85333333333335,410.00856000000005,290.88,414.10512000000006C284.9066666666667,418.20168000000007,278.93333333333334,422.73192000000006,272.96000000000004,426.94704C266.9866666666667,431.16216000000003,261.0133333333333,435.23688000000004,255.04,439.39584C249.06666666666666,443.5548,243.09333333333333,448.25976,237.12,451.9008C231.14666666666668,455.54184,225.17333333333335,458.58696,219.20000000000002,461.24208C213.2266666666667,463.8972,207.25333333333333,465.70056,201.28,467.83152C195.30666666666667,469.96248,189.33333333333334,471.85944,183.36,474.02784C177.38666666666668,476.19624000000005,171.41333333333333,478.63296,165.44,480.84192C159.46666666666667,483.05088,153.4933333333333,485.30976000000004,147.51999999999998,487.2816C141.54666666666665,489.25344,135.57333333333335,491.14104,129.60000000000002,492.67296C123.62666666666668,494.20488,117.65333333333335,495.24072,111.68,496.47312C105.70666666666666,497.70552,99.73333333333333,499.06584,93.75999999999999,500.06736C87.78666666666666,501.06888000000004,81.81333333333333,501.32160000000005,75.84,502.48224000000005C69.86666666666667,503.64288000000005,63.89333333333334,505.33704000000006,57.92,507.0312Z"/></g></g><g id="lines"><g class="series"><clipPath id="clip-0-0"><rect width="936" y="-20" height="599.6"/></clipPath><path class="line" opacity="1" fill="none" stroke="#11A579" stroke-width="2" transform="translate(15,20)" clip-path="url(#clip-0-0)" d="M57.92,512.87184C63.89333333333334,512.45376,69.86666666666667,512.0356800000001,75.84,511.31808C81.81333333333333,510.60048,87.78666666666666,509.49912,93.75999999999999,508.56624C99.73333333333333,507.63336,105.70666666666666,506.69736,111.68,505.7208C117.65333333333335,504.74424,123.62666666666668,504.2076,129.60000000000002,502.70688C135.57333333333335,501.20616,141.54666666666665,498.48552000000007,147.51999999999998,496.71648000000005C153.4933333333333,494.94744000000003,159.46666666666667,493.95528,165.44,492.09264C171.41333333333333,490.23,177.38666666666668,487.25040000000007,183.36,485.54064000000005C189.33333333333334,483.83088000000004,195.30666666666667,483.38784000000004,201.28,481.83408000000003C207.25333333333333,480.28032,213.2266666666667,478.84512000000007,219.20000000000002,476.21808000000004C225.17333333333335,473.59104,231.14666666666668,469.90632,237.12,466.07184C243.09333333333333,462.23736,249.06666666666666,457.6104,255.04,453.2112C261.0133333333333,448.812,266.9866666666667,443.53296,272.96000000000004,439.67664C278.93333333333334,435.82032000000004,284.9066666666667,433.8048,290.88,430.07328C296.85333333333335,426.34176,302.82666666666665,421.58687999999995,308.8,417.28752C314.77333333333337,412.98816,320.74666666666667,407.97743999999994,326.72,404.27711999999997C332.6933333333334,400.5768,338.6666666666667,398.28048,344.64000000000004,395.0856C350.61333333333334,391.89072,356.5866666666667,387.53832,362.56,385.10784C368.53333333333336,382.67736,374.50666666666666,382.33728,380.48,380.50272C386.4533333333334,378.66816,392.4266666666667,377.1331200000001,398.40000000000003,374.10048000000006C404.37333333333333,371.06784000000005,410.3466666666667,365.55791999999997,416.32,362.30688C422.29333333333335,359.05584,428.26666666666665,356.69088,434.24,354.59424C440.21333333333337,352.49760000000003,446.18666666666667,351.23088,452.16,349.72704C458.1333333333333,348.2232,464.1066666666667,346.98768,470.08,345.57120000000003C476.05333333333334,344.15472000000005,482.02666666666664,343.02528,488,341.22816C493.97333333333336,339.43104,499.94666666666666,336.91944000000007,505.92,334.78848000000005C511.8933333333334,332.65752000000003,517.8666666666667,330.54528000000005,523.84,328.4424C529.8133333333334,326.33952,535.7866666666666,323.7643656,541.76,322.1712C547.7333333333333,320.5780344,553.7066666666666,321.0752688,559.68,318.8834064C565.6533333333333,316.691544,571.6266666666667,312.3173976,577.6,308.932416C583.5733333333334,305.5474344,589.5466666666666,302.0972448,595.52,298.5735168C601.4933333333333,295.0497888,607.4666666666667,291.45826320000003,613.44,287.790048C619.4133333333334,284.12183280000005,625.3866666666667,280.38282480000004,631.36,276.56422560000004C637.3333333333334,272.74562640000005,643.3066666666667,268.8535824,649.2800000000001,264.8784528C655.2533333333333,260.90332320000005,661.2266666666667,256.85159760000005,667.1999999999999,252.71344800000008C673.1733333333333,248.57529840000007,679.1466666666666,244.3573392,685.12,240.0495552C691.0933333333334,235.7417712,697.0666666666666,231.35112,703.04,226.86674400000004C709.0133333333333,222.38236800000004,714.9866666666667,217.81156800000008,720.96,213.14329920000006C726.9333333333334,208.47503040000007,732.9066666666666,203.71678079999995,738.88,198.85713119999997C744.8533333333334,193.99748159999996,750.8266666666667,189.04426320000002,756.8000000000001,183.9854016C762.7733333333333,178.92654000000002,768.7466666666667,173.77024079999998,774.7199999999999,168.50396160000003C780.6933333333333,163.23768239999998,786.6666666666666,157.8699096,792.64,152.38772639999996C798.6133333333333,146.90554319999998,804.5866666666666,141.31781039999993,810.56,135.61086239999997C816.5333333333333,129.90391439999996,822.5066666666667,124.08695520000008,828.48,118.14603840000007C834.4533333333334,112.20512160000008,840.4266666666666,106.1498568,846.4,99.9653616C852.3733333333333,93.78086639999997,858.3466666666667,87.4771248,864.32,81.03906719999998C870.2933333333334,74.6010096,876.2666666666667,67.9690128,882.24,61.337016000000006"/><text class="label" font-size="11" alignment-baseline="middle" opacity="1" x="5" fill="#11A579" transform="translate(897.239990234375, 81.3370132446289)"/></g><g class="series"><clipPath id="clip-0-1"><rect width="936" y="-20" height="599.6"/></clipPath><path class="line" opacity="1" fill="none" stroke="#802392" stroke-width="2" transform="translate(15,20)" clip-path="url(#clip-0-1)" d="M57.92,507.0312C63.89333333333334,505.33704000000006,69.86666666666667,503.64288000000005,75.84,502.48224000000005C81.81333333333333,501.32160000000005,87.78666666666666,501.06888000000004,93.75999999999999,500.06736C99.73333333333333,499.06584,105.70666666666666,497.70552,111.68,496.47312C117.65333333333335,495.24072,123.62666666666668,494.20488,129.60000000000002,492.67296C135.57333333333335,491.14104,141.54666666666665,489.25344,147.51999999999998,487.2816C153.4933333333333,485.30976000000004,159.46666666666667,483.05088,165.44,480.84192C171.41333333333333,478.63296,177.38666666666668,476.19624000000005,183.36,474.02784C189.33333333333334,471.85944,195.30666666666667,469.96248,201.28,467.83152C207.25333333333333,465.70056,213.2266666666667,463.8972,219.20000000000002,461.24208C225.17333333333335,458.58696,231.14666666666668,455.54184,237.12,451.9008C243.09333333333333,448.25976,249.06666666666666,443.5548,255.04,439.39584C261.0133333333333,435.23688000000004,266.9866666666667,431.16216000000003,272.96000000000004,426.94704C278.93333333333334,422.73192000000006,284.9066666666667,418.20168000000007,290.88,414.10512000000006C296.85333333333335,410.00856000000005,302.82666666666665,406.5828,308.8,402.36768C314.77333333333337,398.15256,320.74666666666667,393.04824,326.72,388.81440000000003C332.6933333333334,384.58056000000005,338.6666666666667,381.34512000000007,344.64000000000004,376.96464000000003C350.61333333333334,372.58416000000005,356.5866666666667,366.15072,362.56,362.53152C368.53333333333336,358.91232,374.50666666666666,357.85464,380.48,355.24944000000005C386.4533333333334,352.6442400000001,392.4266666666667,350.1888,398.40000000000003,346.90032C404.37333333333333,343.61184000000003,410.3466666666667,338.676,416.32,335.51856C422.29333333333335,332.36111999999997,428.26666666666665,329.69352000000003,434.24,327.95568000000003C440.21333333333337,326.21784,446.18666666666667,326.38008,452.16,325.09152C458.1333333333333,323.80296,464.1066666666667,321.98400000000004,470.08,320.22432000000003C476.05333333333334,318.46464000000003,482.02666666666664,316.31184,488,314.53344000000004C493.97333333333336,312.75504000000006,499.94666666666666,311.3448000000001,505.92,309.55392000000006C511.8933333333334,307.76304000000005,517.8666666666667,305.74752,523.84,303.78816C529.8133333333334,301.8288,535.7866666666666,299.5695768,541.76,297.79776C547.7333333333333,296.0259432,553.7066666666666,295.77553200000006,559.68,293.15725920000006C565.6533333333333,290.53898640000006,571.6266666666667,285.853932,577.6,282.0881232C583.5733333333334,278.3223144,589.5466666666666,274.4834976,595.52,270.56240640000004C601.4933333333333,266.6413152,607.4666666666667,262.64434559999995,613.44,258.56157599999995C619.4133333333334,254.47880639999994,625.3866666666667,250.3169448,631.36,246.0657888C637.3333333333334,241.8146328,643.3066666666667,237.48107760000002,649.2800000000001,233.05464C655.2533333333333,228.62820240000005,661.2266666666667,224.1161208,667.1999999999999,219.50716320000004C673.1733333333333,214.8982056,679.1466666666666,210.19989120000005,685.12,205.40089440000003C691.0933333333334,200.60189760000003,697.0666666666666,195.71008079999993,703.04,190.71318239999994C709.0133333333333,185.71628399999992,714.9866666666667,180.6224472,720.96,175.41950400000002C726.9333333333334,170.21656080000005,732.9066666666666,164.9129976,738.88,159.49552320000004C744.8533333333334,154.07804880000003,750.8266666666667,148.5555552000001,756.8000000000001,142.91465760000006C762.7733333333333,137.2737600000001,768.7466666666667,131.52360000000002,774.7199999999999,125.65013760000005C780.6933333333333,119.77667520000001,786.6666666666666,113.78952000000007,792.64,107.67388320000003C798.6133333333333,101.55824640000004,804.5866666666666,95.32417439999996,810.56,88.95631679999997C816.5333333333333,82.58845919999995,822.5066666666667,76.09717440000001,828.48,69.46673759999999C834.4533333333334,62.836300800000004,840.4266666666666,56.077507199999914,846.4,49.17369599999995C852.3733333333333,42.26988479999994,858.3466666666667,35.232381600000075,864.32,28.04387040000006C870.2933333333334,20.855359200000088,876.2666666666667,13.448994000000038,882.24,6.042628799999989"/><text class="label" font-size="11" alignment-baseline="middle" opacity="1" x="5" fill="#802392" transform="translate(897.239990234375, 26.04262924194336)"/></g></g><g id="data-points"><g class="series" transform="translate(15,20)"><path class="data-point" fill="#11A579" data-type="point" transform="translate(0, 0)" d="M54.92,512.87184A3,3,0,1,1,60.92,512.87184A3,3,0,1,1,54.92,512.87184Z" id="point-0-0" opacity="1"/><path class="data-point" fill="#11A579" data-type="point" transform="translate(0, 0)" d="M72.84,511.31808A3,3,0,1,1,78.84,511.31808A3,3,0,1,1,72.84,511.31808Z" id="point-0-1" opacity="1"/><path class="data-point" fill="#11A579" data-type="point" transform="translate(0, 0)" d="M90.75999999999999,508.56624A3,3,0,1,1,96.75999999999999,508.56624A3,3,0,1,1,90.75999999999999,508.56624Z" id="point-0-2" opacity="1"/><path class="data-point" fill="#11A579" data-type="point" transform="translate(0, 0)" d="M108.68,505.7208A3,3,0,1,1,114.68,505.7208A3,3,0,1,1,108.68,505.7208Z" id="point-0-3" opacity="1"/><path class="data-point" fill="#11A579" data-type="point" transform="translate(0, 0)" d="M126.60000000000002,502.70688A3,3,0,1,1,132.60000000000002,502.70688A3,3,0,1,1,126.60000000000002,502.70688Z" id="point-0-4" opacity="1"/><path class="data-point" fill="#11A579" data-type="point" transform="translate(0, 0)" d="M144.51999999999998,496.71648000000005A3,3,0,1,1,150.51999999999998,496.71648000000005A3,3,0,1,1,144.51999999999998,496.71648000000005Z" id="point-0-5" opacity="1"/><path class="data-point" fill="#11A579" data-type="point" transform="translate(0, 0)" d="M162.44,492.09264A3,3,0,1,1,168.44,492.09264A3,3,0,1,1,162.44,492.09264Z" id="point-0-6" opacity="1"/><path class="data-point" fill="#11A579" data-type="point" transform="translate(0, 0)" d="M180.36,485.54064000000005A3,3,0,1,1,186.36,485.54064000000005A3,3,0,1,1,180.36,485.54064000000005Z" id="point-0-7" opacity="1"/><path class="data-point" fill="#11A579" data-type="point" transform="translate(0, 0)" d="M198.28,481.83408000000003A3,3,0,1,1,204.28,481.83408000000003A3,3,0,1,1,198.28,481.83408000000003Z" id="point-0-8" opacity="1"/><path class="data-point" fill="#11A579" data-type="point" transform="translate(0, 0)" d="M216.20000000000002,476.21808000000004A3,3,0,1,1,222.20000000000002,476.21808000000004A3,3,0,1,1,216.20000000000002,476.21808000000004Z" id="point-0-9" opacity="1"/><path class="data-point" fill="#11A579" data-type="point" transform="translate(0, 0)" d="M234.12,466.07184A3,3,0,1,1,240.12,466.07184A3,3,0,1,1,234.12,466.07184Z" id="point-0-10" opacity="1"/><path class="data-point" fill="#11A579" data-type="point" transform="translate(0, 0)" d="M252.04,453.2112A3,3,0,1,1,258.03999999999996,453.2112A3,3,0,1,1,252.04,453.2112Z" id="point-0-11" opacity="1"/><path class="data-point" fill="#11A579" data-type="point" transform="translate(0, 0)" d="M269.96000000000004,439.67664A3,3,0,1,1,275.96000000000004,439.67664A3,3,0,1,1,269.96000000000004,439.67664Z" id="point-0-12" opacity="1"/><path class="data-point" fill="#11A579" data-type="point" transform="translate(0, 0)" d="M287.88,430.07328A3,3,0,1,1,293.88,430.07328A3,3,0,1,1,287.88,430.07328Z" id="point-0-13" opacity="1"/><path class="data-point" fill="#11A579" data-type="point" transform="translate(0, 0)" d="M305.8,417.28752A3,3,0,1,1,311.8,417.28752A3,3,0,1,1,305.8,417.28752Z" id="point-0-14" opacity="1"/><path class="data-point" fill="#11A579" data-type="point" transform="translate(0, 0)" d="M323.72,404.27711999999997A3,3,0,1,1,329.72,404.27711999999997A3,3,0,1,1,323.72,404.27711999999997Z" id="point-0-15" opacity="1"/><path class="data-point" fill="#11A579" data-type="point" transform="translate(0, 0)" d="M341.64000000000004,395.0856A3,3,0,1,1,347.64000000000004,395.0856A3,3,0,1,1,341.64000000000004,395.0856Z" id="point-0-16" opacity="1"/><path class="data-point" fill="#11A579" data-type="point" transform="translate(0, 0)" d="M359.56,385.10784A3,3,0,1,1,365.56,385.10784A3,3,0,1,1,359.56,385.10784Z" id="point-0-17" opacity="1"/><path class="data-point" fill="#11A579" data-type="point" transform="translate(0, 0)" d="M377.48,380.50272A3,3,0,1,1,383.48,380.50272A3,3,0,1,1,377.48,380.50272Z" id="point-0-18" opacity="1"/><path class="data-point" fill="#11A579" data-type="point" transform="translate(0, 0)" d="M395.40000000000003,374.10048000000006A3,3,0,1,1,401.40000000000003,374.10048000000006A3,3,0,1,1,395.40000000000003,374.10048000000006Z" id="point-0-19" opacity="1"/><path class="data-point" fill="#11A579" data-type="point" transform="translate(0, 0)" d="M413.32,362.30688A3,3,0,1,1,419.32,362.30688A3,3,0,1,1,413.32,362.30688Z" id="point-0-20" opacity="1"/><path class="data-point" fill="#11A579" data-type="point" transform="translate(0, 0)" d="M431.24,354.59424A3,3,0,1,1,437.24,354.59424A3,3,0,1,1,431.24,354.59424Z" id="point-0-21" opacity="1"/><path class="data-point" fill="#11A579" data-type="point" transform="translate(0, 0)" d="M449.16,349.72704A3,3,0,1,1,455.16,349.72704A3,3,0,1,1,449.16,349.72704Z" id="point-0-22" opacity="1"/><path class="data-point" fill="#11A579" data-type="point" transform="translate(0, 0)" d="M467.08,345.57120000000003A3,3,0,1,1,473.08,345.57120000000003A3,3,0,1,1,467.08,345.57120000000003Z" id="point-0-23" opacity="1"/><path class="data-point" fill="#11A579" data-type="point" transform="translate(0, 0)" d="M485,341.22816A3,3,0,1,1,491,341.22816A3,3,0,1,1,485,341.22816Z" id="point-0-24" opacity="1"/><path class="data-point" fill="#11A579" data-type="point" transform="translate(0, 0)" d="M502.92,334.78848000000005A3,3,0,1,1,508.92,334.78848000000005A3,3,0,1,1,502.92,334.78848000000005Z" id="point-0-25" opacity="1"/><path class="data-point" fill="#11A579" data-type="point" transform="translate(0, 0)" d="M520.84,328.4424A3,3,0,1,1,526.84,328.4424A3,3,0,1,1,520.84,328.4424Z" id="point-0-26" opacity="1"/><path class="data-point" fill="#11A579" data-type="point" transform="translate(0, 0)" d="M538.76,322.1712A3,3,0,1,1,544.76,322.1712A3,3,0,1,1,538.76,322.1712Z" id="point-0-27" opacity="1"/><path class="data-point" fill="#11A579" data-type="point" transform="translate(0, 0)" d="M556.68,318.8834064A3,3,0,1,1,562.68,318.8834064A3,3,0,1,1,556.68,318.8834064Z" id="point-0-28" opacity="1"/><path class="data-point" fill="#11A579" data-type="point" transform="translate(0, 0)" d="M574.6,308.932416A3,3,0,1,1,580.6,308.932416A3,3,0,1,1,574.6,308.932416Z" id="point-0-29" opacity="1"/><path class="data-point" fill="#11A579" data-type="point" transform="translate(0, 0)" d="M592.52,298.5735168A3,3,0,1,1,598.52,298.5735168A3,3,0,1,1,592.52,298.5735168Z" id="point-0-30" opacity="1"/><path class="data-point" fill="#11A579" data-type="point" transform="translate(0, 0)" d="M610.44,287.790048A3,3,0,1,1,616.44,287.790048A3,3,0,1,1,610.44,287.790048Z" id="point-0-31" opacity="1"/><path class="data-point" fill="#11A579" data-type="point" transform="translate(0, 0)" d="M628.36,276.56422560000004A3,3,0,1,1,634.36,276.56422560000004A3,3,0,1,1,628.36,276.56422560000004Z" id="point-0-32" opacity="1"/><path class="data-point" fill="#11A579" data-type="point" transform="translate(0, 0)" d="M646.2800000000001,264.8784528A3,3,0,1,1,652.2800000000001,264.8784528A3,3,0,1,1,646.2800000000001,264.8784528Z" id="point-0-33" opacity="1"/><path class="data-point" fill="#11A579" data-type="point" transform="translate(0, 0)" d="M664.1999999999999,252.71344800000008A3,3,0,1,1,670.1999999999999,252.71344800000008A3,3,0,1,1,664.1999999999999,252.71344800000008Z" id="point-0-34" opacity="1"/><path class="data-point" fill="#11A579" data-type="point" transform="translate(0, 0)" d="M682.12,240.0495552A3,3,0,1,1,688.12,240.0495552A3,3,0,1,1,682.12,240.0495552Z" id="point-0-35" opacity="1"/><path class="data-point" fill="#11A579" data-type="point" transform="translate(0, 0)" d="M700.04,226.86674400000004A3,3,0,1,1,706.04,226.86674400000004A3,3,0,1,1,700.04,226.86674400000004Z" id="point-0-36" opacity="1"/><path class="data-point" fill="#11A579" data-type="point" transform="translate(0, 0)" d="M717.96,213.14329920000006A3,3,0,1,1,723.96,213.14329920000006A3,3,0,1,1,717.96,213.14329920000006Z" id="point-0-37" opacity="1"/><path class="data-point" fill="#11A579" data-type="point" transform="translate(0, 0)" d="M735.88,198.85713119999997A3,3,0,1,1,741.88,198.85713119999997A3,3,0,1,1,735.88,198.85713119999997Z" id="point-0-38" opacity="1"/><path class="data-point" fill="#11A579" data-type="point" transform="translate(0, 0)" d="M753.8000000000001,183.9854016A3,3,0,1,1,759.8000000000001,183.9854016A3,3,0,1,1,753.8000000000001,183.9854016Z" id="point-0-39" opacity="1"/><path class="data-point" fill="#11A579" data-type="point" transform="translate(0, 0)" d="M771.7199999999999,168.50396160000003A3,3,0,1,1,777.7199999999999,168.50396160000003A3,3,0,1,1,771.7199999999999,168.50396160000003Z" id="point-0-40" opacity="1"/><path class="data-point" fill="#11A579" data-type="point" transform="translate(0, 0)" d="M789.64,152.38772639999996A3,3,0,1,1,795.64,152.38772639999996A3,3,0,1,1,789.64,152.38772639999996Z" id="point-0-41" opacity="1"/><path class="data-point" fill="#11A579" data-type="point" transform="translate(0, 0)" d="M807.56,135.61086239999997A3,3,0,1,1,813.56,135.61086239999997A3,3,0,1,1,807.56,135.61086239999997Z" id="point-0-42" opacity="1"/><path class="data-point" fill="#11A579" data-type="point" transform="translate(0, 0)" d="M825.48,118.14603840000007A3,3,0,1,1,831.48,118.14603840000007A3,3,0,1,1,825.48,118.14603840000007Z" id="point-0-43" opacity="1"/><path class="data-point" fill="#11A579" data-type="point" transform="translate(0, 0)" d="M843.4,99.9653616A3,3,0,1,1,849.4,99.9653616A3,3,0,1,1,843.4,99.9653616Z" id="point-0-44" opacity="1"/><path class="data-point" fill="#11A579" data-type="point" transform="translate(0, 0)" d="M861.32,81.03906719999998A3,3,0,1,1,867.32,81.03906719999998A3,3,0,1,1,861.32,81.03906719999998Z" id="point-0-45" opacity="1"/><path class="data-point" fill="#11A579" data-type="point" transform="translate(0, 0)" d="M879.24,61.337016000000006A3,3,0,1,1,885.24,61.337016000000006A3,3,0,1,1,879.24,61.337016000000006Z" id="point-0-46" opacity="1"/></g><g class="series" transform="translate(15,20)"><path class="data-point" fill="#802392" data-type="point" transform="translate(0, 0)" d="M54.92,507.0312A3,3,0,1,1,60.92,507.0312A3,3,0,1,1,54.92,507.0312Z" id="point-1-0" opacity="1"/><path class="data-point" fill="#802392" data-type="point" transform="translate(0, 0)" d="M72.84,502.48224000000005A3,3,0,1,1,78.84,502.48224000000005A3,3,0,1,1,72.84,502.48224000000005Z" id="point-1-1" opacity="1"/><path class="data-point" fill="#802392" data-type="point" transform="translate(0, 0)" d="M90.75999999999999,500.06736A3,3,0,1,1,96.75999999999999,500.06736A3,3,0,1,1,90.75999999999999,500.06736Z" id="point-1-2" opacity="1"/><path class="data-point" fill="#802392" data-type="point" transform="translate(0, 0)" d="M108.68,496.47312A3,3,0,1,1,114.68,496.47312A3,3,0,1,1,108.68,496.47312Z" id="point-1-3" opacity="1"/><path class="data-point" fill="#802392" data-type="point" transform="translate(0, 0)" d="M126.60000000000002,492.67296A3,3,0,1,1,132.60000000000002,492.67296A3,3,0,1,1,126.60000000000002,492.67296Z" id="point-1-4" opacity="1"/><path class="data-point" fill="#802392" data-type="point" transform="translate(0, 0)" d="M144.51999999999998,487.2816A3,3,0,1,1,150.51999999999998,487.2816A3,3,0,1,1,144.51999999999998,487.2816Z" id="point-1-5" opacity="1"/><path class="data-point" fill="#802392" data-type="point" transform="translate(0, 0)" d="M162.44,480.84192A3,3,0,1,1,168.44,480.84192A3,3,0,1,1,162.44,480.84192Z" id="point-1-6" opacity="1"/><path class="data-point" fill="#802392" data-type="point" transform="translate(0, 0)" d="M180.36,474.02784A3,3,0,1,1,186.36,474.02784A3,3,0,1,1,180.36,474.02784Z" id="point-1-7" opacity="1"/><path class="data-point" fill="#802392" data-type="point" transform="translate(0, 0)" d="M198.28,467.83152A3,3,0,1,1,204.28,467.83152A3,3,0,1,1,198.28,467.83152Z" id="point-1-8" opacity="1"/><path class="data-point" fill="#802392" data-type="point" transform="translate(0, 0)" d="M216.20000000000002,461.24208A3,3,0,1,1,222.20000000000002,461.24208A3,3,0,1,1,216.20000000000002,461.24208Z" id="point-1-9" opacity="1"/><path class="data-point" fill="#802392" data-type="point" transform="translate(0, 0)" d="M234.12,451.9008A3,3,0,1,1,240.12,451.9008A3,3,0,1,1,234.12,451.9008Z" id="point-1-10" opacity="1"/><path class="data-point" fill="#802392" data-type="point" transform="translate(0, 0)" d="M252.04,439.39584A3,3,0,1,1,258.03999999999996,439.39584A3,3,0,1,1,252.04,439.39584Z" id="point-1-11" opacity="1"/><path class="data-point" fill="#802392" data-type="point" transform="translate(0, 0)" d="M269.96000000000004,426.94704A3,3,0,1,1,275.96000000000004,426.94704A3,3,0,1,1,269.96000000000004,426.94704Z" id="point-1-12" opacity="1"/><path class="data-point" fill="#802392" data-type="point" transform="translate(0, 0)" d="M287.88,414.10512000000006A3,3,0,1,1,293.88,414.10512000000006A3,3,0,1,1,287.88,414.10512000000006Z" id="point-1-13" opacity="1"/><path class="data-point" fill="#802392" data-type="point" transform="translate(0, 0)" d="M305.8,402.36768A3,3,0,1,1,311.8,402.36768A3,3,0,1,1,305.8,402.36768Z" id="point-1-14" opacity="1"/><path class="data-point" fill="#802392" data-type="point" transform="translate(0, 0)" d="M323.72,388.81440000000003A3,3,0,1,1,329.72,388.81440000000003A3,3,0,1,1,323.72,388.81440000000003Z" id="point-1-15" opacity="1"/><path class="data-point" fill="#802392" data-type="point" transform="translate(0, 0)" d="M341.64000000000004,376.96464000000003A3,3,0,1,1,347.64000000000004,376.96464000000003A3,3,0,1,1,341.64000000000004,376.96464000000003Z" id="point-1-16" opacity="1"/><path class="data-point" fill="#802392" data-type="point" transform="translate(0, 0)" d="M359.56,362.53152A3,3,0,1,1,365.56,362.53152A3,3,0,1,1,359.56,362.53152Z" id="point-1-17" opacity="1"/><path class="data-point" fill="#802392" data-type="point" transform="translate(0, 0)" d="M377.48,355.24944000000005A3,3,0,1,1,383.48,355.24944000000005A3,3,0,1,1,377.48,355.24944000000005Z" id="point-1-18" opacity="1"/><path class="data-point" fill="#802392" data-type="point" transform="translate(0, 0)" d="M395.40000000000003,346.90032A3,3,0,1,1,401.40000000000003,346.90032A3,3,0,1,1,395.40000000000003,346.90032Z" id="point-1-19" opacity="1"/><path class="data-point" fill="#802392" data-type="point" transform="translate(0, 0)" d="M413.32,335.51856A3,3,0,1,1,419.32,335.51856A3,3,0,1,1,413.32,335.51856Z" id="point-1-20" opacity="1"/><path class="data-point" fill="#802392" data-type="point" transform="translate(0, 0)" d="M431.24,327.95568000000003A3,3,0,1,1,437.24,327.95568000000003A3,3,0,1,1,431.24,327.95568000000003Z" id="point-1-21" opacity="1"/><path class="data-point" fill="#802392" data-type="point" transform="translate(0, 0)" d="M449.16,325.09152A3,3,0,1,1,455.16,325.09152A3,3,0,1,1,449.16,325.09152Z" id="point-1-22" opacity="1"/><path class="data-point" fill="#802392" data-type="point" transform="translate(0, 0)" d="M467.08,320.22432000000003A3,3,0,1,1,473.08,320.22432000000003A3,3,0,1,1,467.08,320.22432000000003Z" id="point-1-23" opacity="1"/><path class="data-point" fill="#802392" data-type="point" transform="translate(0, 0)" d="M485,314.53344000000004A3,3,0,1,1,491,314.53344000000004A3,3,0,1,1,485,314.53344000000004Z" id="point-1-24" opacity="1"/><path class="data-point" fill="#802392" data-type="point" transform="translate(0, 0)" d="M502.92,309.55392000000006A3,3,0,1,1,508.92,309.55392000000006A3,3,0,1,1,502.92,309.55392000000006Z" id="point-1-25" opacity="1"/><path class="data-point" fill="#802392" data-type="point" transform="translate(0, 0)" d="M520.84,303.78816A3,3,0,1,1,526.84,303.78816A3,3,0,1,1,520.84,303.78816Z" id="point-1-26" opacity="1"/><path class="data-point" fill="#802392" data-type="point" transform="translate(0, 0)" d="M538.76,297.79776A3,3,0,1,1,544.76,297.79776A3,3,0,1,1,538.76,297.79776Z" id="point-1-27" opacity="1"/><path class="data-point" fill="#802392" data-type="point" transform="translate(0, 0)" d="M556.68,293.15725920000006A3,3,0,1,1,562.68,293.15725920000006A3,3,0,1,1,556.68,293.15725920000006Z" id="point-1-28" opacity="1"/><path class="data-point" fill="#802392" data-type="point" transform="translate(0, 0)" d="M574.6,282.0881232A3,3,0,1,1,580.6,282.0881232A3,3,0,1,1,574.6,282.0881232Z" id="point-1-29" opacity="1"/><path class="data-point" fill="#802392" data-type="point" transform="translate(0, 0)" d="M592.52,270.56240640000004A3,3,0,1,1,598.52,270.56240640000004A3,3,0,1,1,592.52,270.56240640000004Z" id="point-1-30" opacity="1"/><path class="data-point" fill="#802392" data-type="point" transform="translate(0, 0)" d="M610.44,258.56157599999995A3,3,0,1,1,616.44,258.56157599999995A3,3,0,1,1,610.44,258.56157599999995Z" id="point-1-31" opacity="1"/><path class="data-point" fill="#802392" data-type="point" transform="translate(0, 0)" d="M628.36,246.0657888A3,3,0,1,1,634.36,246.0657888A3,3,0,1,1,628.36,246.0657888Z" id="point-1-32" opacity="1"/><path class="data-point" fill="#802392" data-type="point" transform="translate(0, 0)" d="M646.2800000000001,233.05464A3,3,0,1,1,652.2800000000001,233.05464A3,3,0,1,1,646.2800000000001,233.05464Z" id="point-1-33" opacity="1"/><path class="data-point" fill="#802392" data-type="point" transform="translate(0, 0)" d="M664.1999999999999,219.50716320000004A3,3,0,1,1,670.1999999999999,219.50716320000004A3,3,0,1,1,664.1999999999999,219.50716320000004Z" id="point-1-34" opacity="1"/><path class="data-point" fill="#802392" data-type="point" transform="translate(0, 0)" d="M682.12,205.40089440000003A3,3,0,1,1,688.12,205.40089440000003A3,3,0,1,1,682.12,205.40089440000003Z" id="point-1-35" opacity="1"/><path class="data-point" fill="#802392" data-type="point" transform="translate(0, 0)" d="M700.04,190.71318239999994A3,3,0,1,1,706.04,190.71318239999994A3,3,0,1,1,700.04,190.71318239999994Z" id="point-1-36" opacity="1"/><path class="data-point" fill="#802392" data-type="point" transform="translate(0, 0)" d="M717.96,175.41950400000002A3,3,0,1,1,723.96,175.41950400000002A3,3,0,1,1,717.96,175.41950400000002Z" id="point-1-37" opacity="1"/><path class="data-point" fill="#802392" data-type="point" transform="translate(0, 0)" d="M735.88,159.49552320000004A3,3,0,1,1,741.88,159.49552320000004A3,3,0,1,1,735.88,159.49552320000004Z" id="point-1-38" opacity="1"/><path class="data-point" fill="#802392" data-type="point" transform="translate(0, 0)" d="M753.8000000000001,142.91465760000006A3,3,0,1,1,759.8000000000001,142.91465760000006A3,3,0,1,1,753.8000000000001,142.91465760000006Z" id="point-1-39" opacity="1"/><path class="data-point" fill="#802392" data-type="point" transform="translate(0, 0)" d="M771.7199999999999,125.65013760000005A3,3,0,1,1,777.7199999999999,125.65013760000005A3,3,0,1,1,771.7199999999999,125.65013760000005Z" id="point-1-40" opacity="1"/><path class="data-point" fill="#802392" data-type="point" transform="translate(0, 0)" d="M789.64,107.67388320000003A3,3,0,1,1,795.64,107.67388320000003A3,3,0,1,1,789.64,107.67388320000003Z" id="point-1-41" opacity="1"/><path class="data-point" fill="#802392" data-type="point" transform="translate(0, 0)" d="M807.56,88.95631679999997A3,3,0,1,1,813.56,88.95631679999997A3,3,0,1,1,807.56,88.95631679999997Z" id="point-1-42" opacity="1"/><path class="data-point" fill="#802392" data-type="point" transform="translate(0, 0)" d="M825.48,69.46673759999999A3,3,0,1,1,831.48,69.46673759999999A3,3,0,1,1,825.48,69.46673759999999Z" id="point-1-43" opacity="1"/><path class="data-point" fill="#802392" data-type="point" transform="translate(0, 0)" d="M843.4,49.17369599999995A3,3,0,1,1,849.4,49.17369599999995A3,3,0,1,1,843.4,49.17369599999995Z" id="point-1-44" opacity="1"/><path class="data-point" fill="#802392" data-type="point" transform="translate(0, 0)" d="M861.32,28.04387040000006A3,3,0,1,1,867.32,28.04387040000006A3,3,0,1,1,861.32,28.04387040000006Z" id="point-1-45" opacity="1"/><path class="data-point" fill="#802392" data-type="point" transform="translate(0, 0)" d="M879.24,6.042628799999989A3,3,0,1,1,885.24,6.042628799999989A3,3,0,1,1,879.24,6.042628799999989Z" id="point-1-46" opacity="1"/></g></g><g id="data-labels"/><g class="annotations above"><g class="axis-highlights" transform="translate(15, 20)" style="opacity: 1;"/></g></svg>