<svg xmlns="http://www.w3.org/2000/svg" id="graphic" width="961" height="634.6"><g id="facets"><g class="facet" transform="translate(15,20)" opacity="1"><text class="facet-title" y="0" font-size="16" font-weight="bold" dominant-baseline="middle" x="0" clip-path="url(#facet-clip-0)" fill="black"/><g class="plot"><clipPath class="facet-clip" id="facet-clip-0"><rect width="951" height="581.6" transform="translate(-7.5,-10)"/></clipPath><g class="bg"><rect fill="none" width="936" height="561.6" style="fill: none;"/></g><g class="interaction"><g class="series"><path data-target="point-0-0" d="M76.25908055247017,561.6L66.44414864312773,518.7820115L0,518.7820115L0,561.6Z" style="opacity: 0;"/><path data-target="point-0-1" d="M66.44414864312773,518.7820115L76.25908055247017,561.6L89.52057455740375,561.6L84.48966274879737,514.7786054999999L67.29371831124179,514.7786054999999Z" style="opacity: 0;"/><path data-target="point-0-2" d="M84.48966274879737,514.7786054999999L89.52057455740375,561.6L112.47663452726897,561.6L102.29150480109784,512.7809139999999L85.13361247251476,512.7809139999999Z" style="opacity: 0;"/><path data-target="point-0-3" d="M102.29150480109784,512.7809139999999L112.47663452726897,561.6L126.28643553695187,561.6L120.34714078177332,509.3712L103.07309478027987,509.3712Z" style="opacity: 0;"/><path data-target="point-0-4" d="M120.34714078177332,509.3712L126.28643553695187,561.6L156.331258540191,561.6L138.15067098296427,506.72365699999995L121.1081134879107,506.723657Z" style="opacity: 0;"/><path data-target="point-0-5" d="M138.15067098296427,506.72365699999995L156.331258540191,561.6L172.33305830930885,561.6L156.17397296765378,501.444617L138.8786128915357,501.444617Z" style="opacity: 0;"/><path data-target="point-0-6" d="M156.17397296765378,501.444617L172.33305830930885,561.6L190.65811551039332,561.6L173.98847995941819,496.2778975L156.83091097250838,496.2778975Z" style="opacity: 0;"/><path data-target="point-0-7" d="M173.98847995941819,496.2778975L190.65811551039332,561.6L207.22908104562495,561.6L191.75679549125,491.071063L174.92559045871428,491.071063Z" style="opacity: 0;"/><path data-target="point-0-8" d="M191.75679549125,491.071063L207.22908104562495,561.6L227.1378319461014,561.6L209.50784843272905,486.44989699999996L193.08090086715669,486.44989699999996Z" style="opacity: 0;"/><path data-target="point-0-9" d="M209.50784843272905,486.44989699999996L227.1378319461014,561.6L258.97511119814175,561.6L227.21164686184784,481.523863L211.22365397283073,481.523863Z" style="opacity: 0;"/><path data-target="point-0-10" d="M227.21164686184784,481.523863L258.97511119814175,561.6L283.68803961826796,561.6L245.00335966577606,473.96633149999997L229.22823539106795,473.9663315Z" style="opacity: 0;"/><path data-target="point-0-11" d="M245.00335966577606,473.96633149999997L283.68803961826796,561.6L305.273876596221,561.6L262.3038132298502,464.651794L247.53881471754153,464.651794Z" style="opacity: 0;"/><path data-target="point-0-12" d="M262.3038132298502,464.651794L305.273876596221,561.6L305.98279195457684,561.6L295.17304378497556,490.16553825893317L279.61504927210024,455.34528L266.2787157238393,455.34528Z" style="opacity: 0;"/><path data-target="point-0-13" d="M279.61504927210024,455.34528L295.17304378497556,490.16553825893317L301.5633053957322,445.838194L285.08872963224997,445.838194Z" style="opacity: 0;"/><path data-target="point-0-14" d="M295.17304378497556,490.16553825893317L305.98279195457684,561.6L416.41414163812544,561.6L409.4259061457999,549.5884183325221L373.41555217984995,504.01709524695264L309.76873063832136,442.0995425L306.55125775445265,442.0995425L301.5633053957322,445.838194Z" style="opacity: 0;"/><path data-target="point-0-15" d="M309.76873063832136,442.0995425L373.41555217984995,504.01709524695264L330.91077816786424,427.08075399999996L322.7997900232648,427.08075399999996Z" style="opacity: 0;"/><path data-target="point-0-16" d="M330.91077816786424,427.08075399999996L373.41555217984995,504.01709524695264L409.4259061457999,549.5884183325221L389.3825801627972,495.90839744265645L348.92390758759643,417.052183L340.5728972367771,417.052183Z" style="opacity: 0;"/><path data-target="point-0-17" d="M348.92390758759643,417.052183L389.3825801627972,495.90839744265645L368.43382600803494,406.26946250000003L359.8919145779025,406.2694625Z" style="opacity: 0;"/><path data-target="point-0-18" d="M368.43382600803494,406.26946250000003L389.3825801627972,495.90839744265645L409.4259061457999,549.5884183325221L416.41414163812544,561.6L436.85952492436286,561.6L385.10820975263937,401.0546055L376.1197005103688,401.0546055Z" style="opacity: 0;"/><path data-target="point-0-19" d="M385.10820975263937,401.0546055L436.85952492436286,561.6L487.7815908857557,561.6L467.2921313079971,508.99582664127195L459.3538110226208,492.48635077469453L400.3594245478626,394.58818299999996L394.8066065106567,394.58818299999996Z" style="opacity: 0;"/><path data-target="point-0-20" d="M400.3594245478626,394.58818299999996L459.3538110226208,492.48635077469453L420.51248082978606,384.31090299999994L413.68444225502327,384.31090299999994Z" style="opacity: 0;"/><path data-target="point-0-21" d="M420.51248082978606,384.31090299999994L459.3538110226208,492.48635077469453L467.2921313079971,508.99582664127195L440.1665399198393,377.85250299999996L430.0831870334021,377.85250299999996Z" style="opacity: 0;"/><path data-target="point-0-22" d="M440.1665399198393,377.85250299999996L467.2921313079971,508.99582664127195L487.7815908857557,561.6L492.018668462465,561.6L458.56115463940756,374.771726L445.2091746244588,374.771726Z" style="opacity: 0;"/><path data-target="point-0-23" d="M458.56115463940756,374.771726L492.018668462465,561.6L530.6366663930472,561.6L475.0236472903125,371.0812115L464.4464990485062,371.0812115Z" style="opacity: 0;"/><path data-target="point-0-24" d="M475.0236472903125,371.0812115L530.6366663930472,561.6L537.7266620122381,561.6L493.7720899262527,366.0268115L482.78531029031245,366.0268115Z" style="opacity: 0;"/><path data-target="point-0-25" d="M493.7720899262527,366.0268115L537.7266620122381,561.6L570.1928940690647,561.6L510.8207318527438,361.8789945L500.338422867625,361.8789945Z" style="opacity: 0;"/><path data-target="point-0-26" d="M510.8207318527438,361.8789945L570.1928940690647,561.6L582.41129182425,561.6L529.2167540030686,356.744366L518.6458271773571,356.744366Z" style="opacity: 0;"/><path data-target="point-0-27" d="M529.2167540030686,356.744366L582.41129182425,561.6L609.2934267047045,561.6L546.6301317782517,351.8504225L536.7539262190015,351.8504225Z" style="opacity: 0;"/><path data-target="point-0-28" d="M546.6301317782517,351.8504225L609.2934267047045,561.6L688.5999041602427,561.6L562.5187354131061,347.18481049999997L553.7586258431658,347.18481049999997Z" style="opacity: 0;"/><path data-target="point-0-29" d="M562.5187354131061,347.18481049999997L688.5999041602427,561.6L719.578147694456,561.6L580.6120935285529,337.1722045L574.1515710352253,337.1722045Z" style="opacity: 0;"/><path data-target="point-0-30" d="M580.6120935285529,337.1722045L719.578147694456,561.6L751.9786249365088,561.6L598.805253497462,326.68456499999996L591.8556003831285,326.68456499999996Z" style="opacity: 0;"/><path data-target="point-0-31" d="M598.805253497462,326.68456499999996L751.9786249365088,561.6L785.95451922299,561.6L617.117017887472,315.69910749999997L609.4757563370649,315.69910749999997Z" style="opacity: 0;"/><path data-target="point-0-32" d="M617.117017887472,315.69910749999997L785.95451922299,561.6L821.6788237652917,561.6L635.5687473221883,304.1917635L626.9988487297818,304.1917635Z" style="opacity: 0;"/><path data-target="point-0-33" d="M635.5687473221883,304.1917635L821.6788237652917,561.6L859.3398468157427,561.6L654.1850821778515,292.13734L644.4097009911266,292.13734Z" style="opacity: 0;"/><path data-target="point-0-34" d="M654.1850821778515,292.13734L859.3398468157427,561.6L899.1522769821034,561.6L672.9943140888889,279.50960349999997L661.6912201552902,279.5096035Z" style="opacity: 0;"/><path data-target="point-0-35" d="M672.9943140888889,279.50960349999997L899.1522769821034,561.6L936,561.6L936,555.2686268297498L692.0286283785538,266.2806345L678.824229187448,266.2806345Z" style="opacity: 0;"/><path data-target="point-0-36" d="M692.0286283785538,266.2806345L936,555.2686268297498L936,505.152801683122L711.3250060358364,252.4216295L695.7870830344592,252.4216295Z" style="opacity: 0;"/><path data-target="point-0-37" d="M711.3250060358364,252.4216295L936,505.152801683122L936,456.97008120519536L730.9253387977435,237.901863L712.5554322777228,237.901863Z" style="opacity: 0;"/><path data-target="point-0-38" d="M729.1020125250068,222.6896435L730.9253387977435,237.901863L936,456.97008120519536L936,410.48519509031905L750.8779465432109,222.6896435Z" style="opacity: 0;"/><path data-target="point-0-39" d="M745.3958396857578,206.7511145L750.8779465432109,222.6896435L936,410.48519509031905L936,365.47779959889135L771.2371303891412,206.7511145Z" style="opacity: 0;"/><path data-target="point-0-40" d="M761.4027408319977,190.0512965L771.2371303891412,206.7511145L936,365.47779959889135L936,321.7319229286153L792.0651024630956,190.0512965Z" style="opacity: 0;"/><path data-target="point-0-41" d="M777.084031638121,172.55336499999999L792.0651024630956,190.0512965L936,321.7319229286153L936,314.03715691395723L808.8113135491419,172.55336499999999Z" style="opacity: 0;"/><path data-target="point-0-42" d="M622.0846557150653,7.105427357601002e-15L668.3836275674839,46.133084540194346L792.3961067984487,154.21832849999998L825.2010905075906,154.21832849999998L812.1335621800503,135.0056715L648.4997572273088,0Z" style="opacity: 0;"/><path data-target="point-0-43" d="M648.4997572273088,0L812.1335621800503,135.0056715L841.2558164281251,135.0056715L832.422551305625,114.8728735L685.8086041236752,1.4210854715202004e-14Z" style="opacity: 0;"/><path data-target="point-0-44" d="M685.8086041236752,1.4210854715202004e-14L832.422551305625,114.8728735L856.9276150833962,114.8728735L853.2753925434976,93.77508549999999L727.2426352676941,0Z" style="opacity: 0;"/><path data-target="point-0-45" d="M727.2426352676941,0L853.2753925434976,93.77508549999999L872.1624134029519,93.77508549999999L874.7829812571855,71.665295L773.3582965855715,0Z" style="opacity: 0;"/><path data-target="point-0-46" d="M773.3582965855715,0L874.7829812571855,71.665295L936,71.665295L936,0Z" style="opacity: 0;"/><path data-target="point-1-0" d="M0,518.7820115L66.44414864312773,518.7820115L67.29371831124179,514.7786054999999L0,205.50193943668893Z" style="opacity: 0;"/><path data-target="point-1-1" d="M0,205.50193943668893L67.29371831124179,514.7786054999999L84.48966274879737,514.7786054999999L85.13361247251476,512.7809139999999L47.20009061355403,184.3738909874608L29.589893132885663,61.83663126045104L20.12613268413716,16.12203629737553L16.46906272092758,0L0,0Z" style="opacity: 0;"/><path data-target="point-1-2" d="M47.20009061355403,184.3738909874608L85.13361247251476,512.7809139999999L102.29150480109784,512.7809139999999L103.07309478027987,509.3712Z" style="opacity: 0;"/><path data-target="point-1-3" d="M29.589893132885663,61.83663126045104L47.20009061355403,184.3738909874608L103.07309478027987,509.3712L120.34714078177332,509.3712L121.1081134879107,506.723657L75.41677464628398,255.35171720914502L57.46170293952021,173.67193290010573Z" style="opacity: 0;"/><path data-target="point-1-4" d="M75.41677464628398,255.35171720914502L121.1081134879107,506.723657L138.15067098296427,506.72365699999995L138.8786128915357,501.444617Z" style="opacity: 0;"/><path data-target="point-1-5" d="M57.46170293952021,173.67193290010573L75.41677464628398,255.35171720914502L138.8786128915357,501.444617L156.17397296765378,501.444617L156.83091097250838,496.2778975Z" style="opacity: 0;"/><path data-target="point-1-6" d="M20.12613268413716,16.12203629737553L29.589893132885663,61.83663126045104L57.46170293952021,173.67193290010573L156.83091097250838,496.2778975L173.98847995941819,496.2778975L174.92559045871428,491.071063Z" style="opacity: 0;"/><path data-target="point-1-7" d="M16.46906272092758,0L20.12613268413716,16.12203629737553L174.92559045871428,491.071063L191.75679549125,491.071063L193.08090086715669,486.44989699999996L111.95659562897416,212.7328156191877L89.43822370306006,158.3571992333587L37.03467796202713,42.00579404847707L16.96849920606078,0Z" style="opacity: 0;"/><path data-target="point-1-8" d="M111.95659562897416,212.7328156191877L193.08090086715669,486.44989699999996L209.50784843272905,486.44989699999996L211.22365397283073,481.523863L160.02479518454015,319.0825090122255L159.24524744553446,317.03643142632376Z" style="opacity: 0;"/><path data-target="point-1-9" d="M160.02479518454015,319.0825090122255L211.22365397283073,481.523863L227.21164686184784,481.523863L229.22823539106795,473.9663315Z" style="opacity: 0;"/><path data-target="point-1-10" d="M159.24524744553446,317.03643142632376L160.02479518454015,319.0825090122255L229.22823539106795,473.9663315L245.00335966577606,473.96633149999997L247.53881471754153,464.651794Z" style="opacity: 0;"/><path data-target="point-1-11" d="M89.43822370306006,158.3571992333587L111.95659562897416,212.7328156191877L159.24524744553446,317.03643142632376L247.53881471754153,464.651794L262.3038132298502,464.651794L266.2787157238393,455.34528Z" style="opacity: 0;"/><path data-target="point-1-12" d="M37.03467796202713,42.00579404847707L89.43822370306006,158.3571992333587L266.2787157238393,455.34528L279.61504927210024,455.34528L285.08872963224997,445.838194Z" style="opacity: 0;"/><path data-target="point-1-13" d="M16.96849920606078,0L37.03467796202713,42.00579404847707L285.08872963224997,445.838194L301.5633053957322,445.838194L306.55125775445265,442.0995425L138.5873300109952,142.92307816929429L52.140561400079775,0Z" style="opacity: 0;"/><path data-target="point-1-14" d="M138.5873300109952,142.92307816929429L306.55125775445265,442.0995425L309.76873063832136,442.0995425L322.7997900232648,427.08075399999996Z" style="opacity: 0;"/><path data-target="point-1-15" d="M52.140561400079775,0L138.5873300109952,142.92307816929429L322.7997900232648,427.08075399999996L330.91077816786424,427.08075399999996L340.5728972367771,417.052183L217.81232855325376,200.4643090367425L91.80516786831302,0Z" style="opacity: 0;"/><path data-target="point-1-16" d="M217.81232855325376,200.4643090367425L340.5728972367771,417.052183L348.92390758759643,417.052183L359.8919145779025,406.2694625Z" style="opacity: 0;"/><path data-target="point-1-17" d="M91.80516786831302,0L217.81232855325376,200.4643090367425L359.8919145779025,406.2694625L368.43382600803494,406.26946250000003L376.1197005103688,401.0546055L280.35036176895454,126.10327344533869L226.03877732440833,-1.4210854715202004e-14Z" style="opacity: 0;"/><path data-target="point-1-18" d="M280.35036176895454,126.10327344533869L376.1197005103688,401.0546055L385.10820975263937,401.0546055L394.8066065106567,394.58818299999996L327.43069129576355,225.87508350750772Z" style="opacity: 0;"/><path data-target="point-1-19" d="M327.43069129576355,225.87508350750772L394.8066065106567,394.58818299999996L400.3594245478626,394.58818299999996L413.68444225502327,384.31090299999994Z" style="opacity: 0;"/><path data-target="point-1-20" d="M226.03877732440833,-1.4210854715202004e-14L280.35036176895454,126.10327344533869L327.43069129576355,225.87508350750772L413.68444225502327,384.31090299999994L420.51248082978606,384.31090299999994L430.0831870334021,377.85250299999996L293.396962855394,0Z" style="opacity: 0;"/><path data-target="point-1-21" d="M293.396962855394,0L430.0831870334021,377.85250299999996L440.1665399198393,377.85250299999996L445.2091746244588,374.771726L416.4730723499489,165.01522445286082L391.9131989100437,32.188635758603596L385.0247488293711,0Z" style="opacity: 0;"/><path data-target="point-1-22" d="M416.4730723499489,165.01522445286082L445.2091746244588,374.771726L458.56115463940756,374.771726L464.4464990485062,371.0812115Z" style="opacity: 0;"/><path data-target="point-1-23" d="M391.9131989100437,32.188635758603596L416.4730723499489,165.01522445286082L464.4464990485062,371.0812115L475.0236472903125,371.0812115L482.78531029031245,366.0268115Z" style="opacity: 0;"/><path data-target="point-1-24" d="M385.0247488293711,0L391.9131989100437,32.188635758603596L482.78531029031245,366.0268115L493.7720899262527,366.0268115L500.338422867625,361.8789945L414.1466009276065,0Z" style="opacity: 0;"/><path data-target="point-1-25" d="M414.1466009276065,0L500.338422867625,361.8789945L510.8207318527438,361.8789945L518.6458271773571,356.744366L420.2608273826437,7.105427357601002e-15Z" style="opacity: 0;"/><path data-target="point-1-26" d="M420.2608273826437,7.105427357601002e-15L518.6458271773571,356.744366L529.2167540030686,356.744366L536.7539262190015,351.8504225L451.2803560933881,53.545252515764844L433.9362069262467,9.891363834527397L429.65668584272254,0Z" style="opacity: 0;"/><path data-target="point-1-27" d="M451.2803560933881,53.545252515764844L536.7539262190015,351.8504225L546.6301317782517,351.8504225L553.7586258431658,347.18481049999997L535.2113300817018,263.6244022797512L488.3943995453918,139.0147793504297Z" style="opacity: 0;"/><path data-target="point-1-28" d="M535.2113300817018,263.6244022797512L553.7586258431658,347.18481049999997L562.5187354131061,347.18481049999997L574.1515710352253,337.1722045Z" style="opacity: 0;"/><path data-target="point-1-29" d="M488.3943995453918,139.0147793504297L535.2113300817018,263.6244022797512L574.1515710352253,337.1722045L580.6120935285529,337.1722045L591.8556003831285,326.68456499999996Z" style="opacity: 0;"/><path data-target="point-1-30" d="M433.9362069262467,9.891363834527397L451.2803560933881,53.545252515764844L488.3943995453918,139.0147793504297L591.8556003831285,326.68456499999996L598.805253497462,326.68456499999996L609.4757563370649,315.69910749999997Z" style="opacity: 0;"/><path data-target="point-1-31" d="M429.65668584272254,0L433.9362069262467,9.891363834527397L609.4757563370649,315.69910749999997L617.117017887472,315.69910749999997L626.9988487297818,304.1917635L445.1852989343811,0Z" style="opacity: 0;"/><path data-target="point-1-32" d="M445.1852989343811,0L626.9988487297818,304.1917635L635.5687473221883,304.1917635L644.4097009911266,292.13734L462.5996250682039,0Z" style="opacity: 0;"/><path data-target="point-1-33" d="M462.5996250682039,0L644.4097009911266,292.13734L654.1850821778515,292.13734L661.6912201552902,279.5096035L480.56957419975254,0Z" style="opacity: 0;"/><path data-target="point-1-34" d="M480.56957419975254,0L661.6912201552902,279.5096035L672.9943140888889,279.50960349999997L678.824229187448,266.2806345L499.15780518327995,0Z" style="opacity: 0;"/><path data-target="point-1-35" d="M499.15780518327995,0L678.824229187448,266.2806345L692.0286283785538,266.2806345L695.7870830344592,252.4216295L518.4514788437166,0Z" style="opacity: 0;"/><path data-target="point-1-36" d="M518.4514788437166,0L695.7870830344592,252.4216295L711.3250060358364,252.4216295L712.5554322777228,237.901863L538.5250817688373,0Z" style="opacity: 0;"/><path data-target="point-1-37" d="M538.5250817688373,0L712.5554322777228,237.901863L730.9253387977435,237.901863L729.1020125250068,222.6896435L559.4859967311135,0Z" style="opacity: 0;"/><path data-target="point-1-38" d="M559.4859967311135,0L729.1020125250068,222.6896435L750.8779465432109,222.6896435L745.3958396857578,206.7511145L581.4236190543634,0Z" style="opacity: 0;"/><path data-target="point-1-39" d="M581.4236190543634,0L745.3958396857578,206.7511145L771.2371303891412,206.7511145L761.4027408319977,190.0512965L604.4602467575309,0Z" style="opacity: 0;"/><path data-target="point-1-40" d="M604.4602467575309,0L761.4027408319977,190.0512965L792.0651024630956,190.0512965L777.084031638121,172.55336499999999L668.3836275674839,46.133084540194346L622.0846557150653,7.105427357601002e-15Z" style="opacity: 0;"/><path data-target="point-1-41" d="M668.3836275674839,46.133084540194346L777.084031638121,172.55336499999999L808.8113135491419,172.55336499999999L792.3961067984487,154.21832849999998Z" style="opacity: 0;"/><path data-target="point-1-42" d="M792.3961067984487,154.21832849999998L808.8113135491419,172.55336499999999L936,314.03715691395723L936,273.0734247825442L825.2010905075906,154.21832849999998Z" style="opacity: 0;"/><path data-target="point-1-43" d="M812.1335621800503,135.0056715L825.2010905075906,154.21832849999998L936,273.0734247825442L936,232.6147524066439L841.2558164281251,135.0056715Z" style="opacity: 0;"/><path data-target="point-1-44" d="M832.422551305625,114.8728735L841.2558164281251,135.0056715L936,232.6147524066439L936,193.1101497136532L856.9276150833962,114.8728735Z" style="opacity: 0;"/><path data-target="point-1-45" d="M853.2753925434976,93.77508549999999L856.9276150833962,114.8728735L936,193.1101497136532L936,154.43671424440322L872.1624134029519,93.77508549999999Z" style="opacity: 0;"/><path data-target="point-1-46" d="M872.1624134029519,93.77508549999999L936,154.43671424440322L936,71.665295L874.7829812571855,71.665295Z" style="opacity: 0;"/></g><g class="series"><path data-target="point-0-0" d="M76.25908055247017,561.6L66.44414864312773,518.7820115L0,518.7820115L0,561.6Z" style="opacity: 0;"/><path data-target="point-0-1" d="M66.44414864312773,518.7820115L76.25908055247017,561.6L89.52057455740375,561.6L84.48966274879737,514.7786054999999L67.29371831124179,514.7786054999999Z" style="opacity: 0;"/><path data-target="point-0-2" d="M84.48966274879737,514.7786054999999L89.52057455740375,561.6L112.47663452726897,561.6L102.29150480109784,512.7809139999999L85.13361247251476,512.7809139999999Z" style="opacity: 0;"/><path data-target="point-0-3" d="M102.29150480109784,512.7809139999999L112.47663452726897,561.6L126.28643553695187,561.6L120.34714078177332,509.3712L103.07309478027987,509.3712Z" style="opacity: 0;"/><path data-target="point-0-4" d="M120.34714078177332,509.3712L126.28643553695187,561.6L156.331258540191,561.6L138.15067098296427,506.72365699999995L121.1081134879107,506.723657Z" style="opacity: 0;"/><path data-target="point-0-5" d="M138.15067098296427,506.72365699999995L156.331258540191,561.6L172.33305830930885,561.6L156.17397296765378,501.444617L138.8786128915357,501.444617Z" style="opacity: 0;"/><path data-target="point-0-6" d="M156.17397296765378,501.444617L172.33305830930885,561.6L190.65811551039332,561.6L173.98847995941819,496.2778975L156.83091097250838,496.2778975Z" style="opacity: 0;"/><path data-target="point-0-7" d="M173.98847995941819,496.2778975L190.65811551039332,561.6L207.22908104562495,561.6L191.75679549125,491.071063L174.92559045871428,491.071063Z" style="opacity: 0;"/><path data-target="point-0-8" d="M191.75679549125,491.071063L207.22908104562495,561.6L227.1378319461014,561.6L209.50784843272905,486.44989699999996L193.08090086715669,486.44989699999996Z" style="opacity: 0;"/><path data-target="point-0-9" d="M209.50784843272905,486.44989699999996L227.1378319461014,561.6L258.97511119814175,561.6L227.21164686184784,481.523863L211.22365397283073,481.523863Z" style="opacity: 0;"/><path data-target="point-0-10" d="M227.21164686184784,481.523863L258.97511119814175,561.6L283.68803961826796,561.6L245.00335966577606,473.96633149999997L229.22823539106795,473.9663315Z" style="opacity: 0;"/><path data-target="point-0-11" d="M245.00335966577606,473.96633149999997L283.68803961826796,561.6L305.273876596221,561.6L262.3038132298502,464.651794L247.53881471754153,464.651794Z" style="opacity: 0;"/><path data-target="point-0-12" d="M262.3038132298502,464.651794L305.273876596221,561.6L305.98279195457684,561.6L295.17304378497556,490.16553825893317L279.61504927210024,455.34528L266.2787157238393,455.34528Z" style="opacity: 0;"/><path data-target="point-0-13" d="M279.61504927210024,455.34528L295.17304378497556,490.16553825893317L301.5633053957322,445.838194L285.08872963224997,445.838194Z" style="opacity: 0;"/><path data-target="point-0-14" d="M295.17304378497556,490.16553825893317L305.98279195457684,561.6L416.41414163812544,561.6L409.4259061457999,549.5884183325221L373.41555217984995,504.01709524695264L309.76873063832136,442.0995425L306.55125775445265,442.0995425L301.5633053957322,445.838194Z" style="opacity: 0;"/><path data-target="point-0-15" d="M309.76873063832136,442.0995425L373.41555217984995,504.01709524695264L330.91077816786424,427.08075399999996L322.7997900232648,427.08075399999996Z" style="opacity: 0;"/><path data-target="point-0-16" d="M330.91077816786424,427.08075399999996L373.41555217984995,504.01709524695264L409.4259061457999,549.5884183325221L389.3825801627972,495.90839744265645L348.92390758759643,417.052183L340.5728972367771,417.052183Z" style="opacity: 0;"/><path data-target="point-0-17" d="M348.92390758759643,417.052183L389.3825801627972,495.90839744265645L368.43382600803494,406.26946250000003L359.8919145779025,406.2694625Z" style="opacity: 0;"/><path data-target="point-0-18" d="M368.43382600803494,406.26946250000003L389.3825801627972,495.90839744265645L409.4259061457999,549.5884183325221L416.41414163812544,561.6L436.85952492436286,561.6L385.10820975263937,401.0546055L376.1197005103688,401.0546055Z" style="opacity: 0;"/><path data-target="point-0-19" d="M385.10820975263937,401.0546055L436.85952492436286,561.6L487.7815908857557,561.6L467.2921313079971,508.99582664127195L459.3538110226208,492.48635077469453L400.3594245478626,394.58818299999996L394.8066065106567,394.58818299999996Z" style="opacity: 0;"/><path data-target="point-0-20" d="M400.3594245478626,394.58818299999996L459.3538110226208,492.48635077469453L420.51248082978606,384.31090299999994L413.68444225502327,384.31090299999994Z" style="opacity: 0;"/><path data-target="point-0-21" d="M420.51248082978606,384.31090299999994L459.3538110226208,492.48635077469453L467.2921313079971,508.99582664127195L440.1665399198393,377.85250299999996L430.0831870334021,377.85250299999996Z" style="opacity: 0;"/><path data-target="point-0-22" d="M440.1665399198393,377.85250299999996L467.2921313079971,508.99582664127195L487.7815908857557,561.6L492.018668462465,561.6L458.56115463940756,374.771726L445.2091746244588,374.771726Z" style="opacity: 0;"/><path data-target="point-0-23" d="M458.56115463940756,374.771726L492.018668462465,561.6L530.6366663930472,561.6L475.0236472903125,371.0812115L464.4464990485062,371.0812115Z" style="opacity: 0;"/><path data-target="point-0-24" d="M475.0236472903125,371.0812115L530.6366663930472,561.6L537.7266620122381,561.6L493.7720899262527,366.0268115L482.78531029031245,366.0268115Z" style="opacity: 0;"/><path data-target="point-0-25" d="M493.7720899262527,366.0268115L537.7266620122381,561.6L570.1928940690647,561.6L510.8207318527438,361.8789945L500.338422867625,361.8789945Z" style="opacity: 0;"/><path data-target="point-0-26" d="M510.8207318527438,361.8789945L570.1928940690647,561.6L582.41129182425,561.6L529.2167540030686,356.744366L518.6458271773571,356.744366Z" style="opacity: 0;"/><path data-target="point-0-27" d="M529.2167540030686,356.744366L582.41129182425,561.6L609.2934267047045,561.6L546.6301317782517,351.8504225L536.7539262190015,351.8504225Z" style="opacity: 0;"/><path data-target="point-0-28" d="M546.6301317782517,351.8504225L609.2934267047045,561.6L688.5999041602427,561.6L562.5187354131061,347.18481049999997L553.7586258431658,347.18481049999997Z" style="opacity: 0;"/><path data-target="point-0-29" d="M562.5187354131061,347.18481049999997L688.5999041602427,561.6L719.578147694456,561.6L580.6120935285529,337.1722045L574.1515710352253,337.1722045Z" style="opacity: 0;"/><path data-target="point-0-30" d="M580.6120935285529,337.1722045L719.578147694456,561.6L751.9786249365088,561.6L598.805253497462,326.68456499999996L591.8556003831285,326.68456499999996Z" style="opacity: 0;"/><path data-target="point-0-31" d="M598.805253497462,326.68456499999996L751.9786249365088,561.6L785.95451922299,561.6L617.117017887472,315.69910749999997L609.4757563370649,315.69910749999997Z" style="opacity: 0;"/><path data-target="point-0-32" d="M617.117017887472,315.69910749999997L785.95451922299,561.6L821.6788237652917,561.6L635.5687473221883,304.1917635L626.9988487297818,304.1917635Z" style="opacity: 0;"/><path data-target="point-0-33" d="M635.5687473221883,304.1917635L821.6788237652917,561.6L859.3398468157427,561.6L654.1850821778515,292.13734L644.4097009911266,292.13734Z" style="opacity: 0;"/><path data-target="point-0-34" d="M654.1850821778515,292.13734L859.3398468157427,561.6L899.1522769821034,561.6L672.9943140888889,279.50960349999997L661.6912201552902,279.5096035Z" style="opacity: 0;"/><path data-target="point-0-35" d="M672.9943140888889,279.50960349999997L899.1522769821034,561.6L936,561.6L936,555.2686268297498L692.0286283785538,266.2806345L678.824229187448,266.2806345Z" style="opacity: 0;"/><path data-target="point-0-36" d="M692.0286283785538,266.2806345L936,555.2686268297498L936,505.152801683122L711.3250060358364,252.4216295L695.7870830344592,252.4216295Z" style="opacity: 0;"/><path data-target="point-0-37" d="M711.3250060358364,252.4216295L936,505.152801683122L936,456.97008120519536L730.9253387977435,237.901863L712.5554322777228,237.901863Z" style="opacity: 0;"/><path data-target="point-0-38" d="M729.1020125250068,222.6896435L730.9253387977435,237.901863L936,456.97008120519536L936,410.48519509031905L750.8779465432109,222.6896435Z" style="opacity: 0;"/><path data-target="point-0-39" d="M745.3958396857578,206.7511145L750.8779465432109,222.6896435L936,410.48519509031905L936,365.47779959889135L771.2371303891412,206.7511145Z" style="opacity: 0;"/><path data-target="point-0-40" d="M761.4027408319977,190.0512965L771.2371303891412,206.7511145L936,365.47779959889135L936,321.7319229286153L792.0651024630956,190.0512965Z" style="opacity: 0;"/><path data-target="point-0-41" d="M777.084031638121,172.55336499999999L792.0651024630956,190.0512965L936,321.7319229286153L936,314.03715691395723L808.8113135491419,172.55336499999999Z" style="opacity: 0;"/><path data-target="point-0-42" d="M622.0846557150653,7.105427357601002e-15L668.3836275674839,46.133084540194346L792.3961067984487,154.21832849999998L825.2010905075906,154.21832849999998L812.1335621800503,135.0056715L648.4997572273088,0Z" style="opacity: 0;"/><path data-target="point-0-43" d="M648.4997572273088,0L812.1335621800503,135.0056715L841.2558164281251,135.0056715L832.422551305625,114.8728735L685.8086041236752,1.4210854715202004e-14Z" style="opacity: 0;"/><path data-target="point-0-44" d="M685.8086041236752,1.4210854715202004e-14L832.422551305625,114.8728735L856.9276150833962,114.8728735L853.2753925434976,93.77508549999999L727.2426352676941,0Z" style="opacity: 0;"/><path data-target="point-0-45" d="M727.2426352676941,0L853.2753925434976,93.77508549999999L872.1624134029519,93.77508549999999L874.7829812571855,71.665295L773.3582965855715,0Z" style="opacity: 0;"/><path data-target="point-0-46" d="M773.3582965855715,0L874.7829812571855,71.665295L936,71.665295L936,0Z" style="opacity: 0;"/><path data-target="point-1-0" d="M0,518.7820115L66.44414864312773,518.7820115L67.29371831124179,514.7786054999999L0,205.50193943668893Z" style="opacity: 0;"/><path data-target="point-1-1" d="M0,205.50193943668893L67.29371831124179,514.7786054999999L84.48966274879737,514.7786054999999L85.13361247251476,512.7809139999999L47.20009061355403,184.3738909874608L29.589893132885663,61.83663126045104L20.12613268413716,16.12203629737553L16.46906272092758,0L0,0Z" style="opacity: 0;"/><path data-target="point-1-2" d="M47.20009061355403,184.3738909874608L85.13361247251476,512.7809139999999L102.29150480109784,512.7809139999999L103.07309478027987,509.3712Z" style="opacity: 0;"/><path data-target="point-1-3" d="M29.589893132885663,61.83663126045104L47.20009061355403,184.3738909874608L103.07309478027987,509.3712L120.34714078177332,509.3712L121.1081134879107,506.723657L75.41677464628398,255.35171720914502L57.46170293952021,173.67193290010573Z" style="opacity: 0;"/><path data-target="point-1-4" d="M75.41677464628398,255.35171720914502L121.1081134879107,506.723657L138.15067098296427,506.72365699999995L138.8786128915357,501.444617Z" style="opacity: 0;"/><path data-target="point-1-5" d="M57.46170293952021,173.67193290010573L75.41677464628398,255.35171720914502L138.8786128915357,501.444617L156.17397296765378,501.444617L156.83091097250838,496.2778975Z" style="opacity: 0;"/><path data-target="point-1-6" d="M20.12613268413716,16.12203629737553L29.589893132885663,61.83663126045104L57.46170293952021,173.67193290010573L156.83091097250838,496.2778975L173.98847995941819,496.2778975L174.92559045871428,491.071063Z" style="opacity: 0;"/><path data-target="point-1-7" d="M16.46906272092758,0L20.12613268413716,16.12203629737553L174.92559045871428,491.071063L191.75679549125,491.071063L193.08090086715669,486.44989699999996L111.95659562897416,212.7328156191877L89.43822370306006,158.3571992333587L37.03467796202713,42.00579404847707L16.96849920606078,0Z" style="opacity: 0;"/><path data-target="point-1-8" d="M111.95659562897416,212.7328156191877L193.08090086715669,486.44989699999996L209.50784843272905,486.44989699999996L211.22365397283073,481.523863L160.02479518454015,319.0825090122255L159.24524744553446,317.03643142632376Z" style="opacity: 0;"/><path data-target="point-1-9" d="M160.02479518454015,319.0825090122255L211.22365397283073,481.523863L227.21164686184784,481.523863L229.22823539106795,473.9663315Z" style="opacity: 0;"/><path data-target="point-1-10" d="M159.24524744553446,317.03643142632376L160.02479518454015,319.0825090122255L229.22823539106795,473.9663315L245.00335966577606,473.96633149999997L247.53881471754153,464.651794Z" style="opacity: 0;"/><path data-target="point-1-11" d="M89.43822370306006,158.3571992333587L111.95659562897416,212.7328156191877L159.24524744553446,317.03643142632376L247.53881471754153,464.651794L262.3038132298502,464.651794L266.2787157238393,455.34528Z" style="opacity: 0;"/><path data-target="point-1-12" d="M37.03467796202713,42.00579404847707L89.43822370306006,158.3571992333587L266.2787157238393,455.34528L279.61504927210024,455.34528L285.08872963224997,445.838194Z" style="opacity: 0;"/><path data-target="point-1-13" d="M16.96849920606078,0L37.03467796202713,42.00579404847707L285.08872963224997,445.838194L301.5633053957322,445.838194L306.55125775445265,442.0995425L138.5873300109952,142.92307816929429L52.140561400079775,0Z" style="opacity: 0;"/><path data-target="point-1-14" d="M138.5873300109952,142.92307816929429L306.55125775445265,442.0995425L309.76873063832136,442.0995425L322.7997900232648,427.08075399999996Z" style="opacity: 0;"/><path data-target="point-1-15" d="M52.140561400079775,0L138.5873300109952,142.92307816929429L322.7997900232648,427.08075399999996L330.91077816786424,427.08075399999996L340.5728972367771,417.052183L217.81232855325376,200.4643090367425L91.80516786831302,0Z" style="opacity: 0;"/><path data-target="point-1-16" d="M217.81232855325376,200.4643090367425L340.5728972367771,417.052183L348.92390758759643,417.052183L359.8919145779025,406.2694625Z" style="opacity: 0;"/><path data-target="point-1-17" d="M91.80516786831302,0L217.81232855325376,200.4643090367425L359.8919145779025,406.2694625L368.43382600803494,406.26946250000003L376.1197005103688,401.0546055L280.35036176895454,126.10327344533869L226.03877732440833,-1.4210854715202004e-14Z" style="opacity: 0;"/><path data-target="point-1-18" d="M280.35036176895454,126.10327344533869L376.1197005103688,401.0546055L385.10820975263937,401.0546055L394.8066065106567,394.58818299999996L327.43069129576355,225.87508350750772Z" style="opacity: 0;"/><path data-target="point-1-19" d="M327.43069129576355,225.87508350750772L394.8066065106567,394.58818299999996L400.3594245478626,394.58818299999996L413.68444225502327,384.31090299999994Z" style="opacity: 0;"/><path data-target="point-1-20" d="M226.03877732440833,-1.4210854715202004e-14L280.35036176895454,126.10327344533869L327.43069129576355,225.87508350750772L413.68444225502327,384.31090299999994L420.51248082978606,384.31090299999994L430.0831870334021,377.85250299999996L293.396962855394,0Z" style="opacity: 0;"/><path data-target="point-1-21" d="M293.396962855394,0L430.0831870334021,377.85250299999996L440.1665399198393,377.85250299999996L445.2091746244588,374.771726L416.4730723499489,165.01522445286082L391.9131989100437,32.188635758603596L385.0247488293711,0Z" style="opacity: 0;"/><path data-target="point-1-22" d="M416.4730723499489,165.01522445286082L445.2091746244588,374.771726L458.56115463940756,374.771726L464.4464990485062,371.0812115Z" style="opacity: 0;"/><path data-target="point-1-23" d="M391.9131989100437,32.188635758603596L416.4730723499489,165.01522445286082L464.4464990485062,371.0812115L475.0236472903125,371.0812115L482.78531029031245,366.0268115Z" style="opacity: 0;"/><path data-target="point-1-24" d="M385.0247488293711,0L391.9131989100437,32.188635758603596L482.78531029031245,366.0268115L493.7720899262527,366.0268115L500.338422867625,361.8789945L414.1466009276065,0Z" style="opacity: 0;"/><path data-target="point-1-25" d="M414.1466009276065,0L500.338422867625,361.8789945L510.8207318527438,361.8789945L518.6458271773571,356.744366L420.2608273826437,7.105427357601002e-15Z" style="opacity: 0;"/><path data-target="point-1-26" d="M420.2608273826437,7.105427357601002e-15L518.6458271773571,356.744366L529.2167540030686,356.744366L536.7539262190015,351.8504225L451.2803560933881,53.545252515764844L433.9362069262467,9.891363834527397L429.65668584272254,0Z" style="opacity: 0;"/><path data-target="point-1-27" d="M451.2803560933881,53.545252515764844L536.7539262190015,351.8504225L546.6301317782517,351.8504225L553.7586258431658,347.18481049999997L535.2113300817018,263.6244022797512L488.3943995453918,139.0147793504297Z" style="opacity: 0;"/><path data-target="point-1-28" d="M535.2113300817018,263.6244022797512L553.7586258431658,347.18481049999997L562.5187354131061,347.18481049999997L574.1515710352253,337.1722045Z" style="opacity: 0;"/><path data-target="point-1-29" d="M488.3943995453918,139.0147793504297L535.2113300817018,263.6244022797512L574.1515710352253,337.1722045L580.6120935285529,337.1722045L591.8556003831285,326.68456499999996Z" style="opacity: 0;"/><path data-target="point-1-30" d="M433.9362069262467,9.891363834527397L451.2803560933881,53.545252515764844L488.3943995453918,139.0147793504297L591.8556003831285,326.68456499999996L598.805253497462,326.68456499999996L609.4757563370649,315.69910749999997Z" style="opacity: 0;"/><path data-target="point-1-31" d="M429.65668584272254,0L433.9362069262467,9.891363834527397L609.4757563370649,315.69910749999997L617.117017887472,315.69910749999997L626.9988487297818,304.1917635L445.1852989343811,0Z" style="opacity: 0;"/><path data-target="point-1-32" d="M445.1852989343811,0L626.9988487297818,304.1917635L635.5687473221883,304.1917635L644.4097009911266,292.13734L462.5996250682039,0Z" style="opacity: 0;"/><path data-target="point-1-33" d="M462.5996250682039,0L644.4097009911266,292.13734L654.1850821778515,292.13734L661.6912201552902,279.5096035L480.56957419975254,0Z" style="opacity: 0;"/><path data-target="point-1-34" d="M480.56957419975254,0L661.6912201552902,279.5096035L672.9943140888889,279.50960349999997L678.824229187448,266.2806345L499.15780518327995,0Z" style="opacity: 0;"/><path data-target="point-1-35" d="M499.15780518327995,0L678.824229187448,266.2806345L692.0286283785538,266.2806345L695.7870830344592,252.4216295L518.4514788437166,0Z" style="opacity: 0;"/><path data-target="point-1-36" d="M518.4514788437166,0L695.7870830344592,252.4216295L711.3250060358364,252.4216295L712.5554322777228,237.901863L538.5250817688373,0Z" style="opacity: 0;"/><path data-target="point-1-37" d="M538.5250817688373,0L712.5554322777228,237.901863L730.9253387977435,237.901863L729.1020125250068,222.6896435L559.4859967311135,0Z" style="opacity: 0;"/><path data-target="point-1-38" d="M559.4859967311135,0L729.1020125250068,222.6896435L750.8779465432109,222.6896435L745.3958396857578,206.7511145L581.4236190543634,0Z" style="opacity: 0;"/><path data-target="point-1-39" d="M581.4236190543634,0L745.3958396857578,206.7511145L771.2371303891412,206.7511145L761.4027408319977,190.0512965L604.4602467575309,0Z" style="opacity: 0;"/><path data-target="point-1-40" d="M604.4602467575309,0L761.4027408319977,190.0512965L792.0651024630956,190.0512965L777.084031638121,172.55336499999999L668.3836275674839,46.133084540194346L622.0846557150653,7.105427357601002e-15Z" style="opacity: 0;"/><path data-target="point-1-41" d="M668.3836275674839,46.133084540194346L777.084031638121,172.55336499999999L808.8113135491419,172.55336499999999L792.3961067984487,154.21832849999998Z" style="opacity: 0;"/><path data-target="point-1-42" d="M792.3961067984487,154.21832849999998L808.8113135491419,172.55336499999999L936,314.03715691395723L936,273.0734247825442L825.2010905075906,154.21832849999998Z" style="opacity: 0;"/><path data-target="point-1-43" d="M812.1335621800503,135.0056715L825.2010905075906,154.21832849999998L936,273.0734247825442L936,232.6147524066439L841.2558164281251,135.0056715Z" style="opacity: 0;"/><path data-target="point-1-44" d="M832.422551305625,114.8728735L841.2558164281251,135.0056715L936,232.6147524066439L936,193.1101497136532L856.9276150833962,114.8728735Z" style="opacity: 0;"/><path data-target="point-1-45" d="M853.2753925434976,93.77508549999999L856.9276150833962,114.8728735L936,193.1101497136532L936,154.43671424440322L872.1624134029519,93.77508549999999Z" style="opacity: 0;"/><path data-target="point-1-46" d="M872.1624134029519,93.77508549999999L936,154.43671424440322L936,71.665295L874.7829812571855,71.665295Z" style="opacity: 0;"/></g></g><g class="axes"><g class="y axis" fill="none" font-size="10" font-family="sans-serif" text-anchor="end" style="font-family: &quot;Source Sans Pro&quot;;"><path class="domain" stroke="#eeeeee" d="M0.5,562.1V0.5" stroke-dasharray="0" style="visibility: hidden;"/><g class="tick" opacity="1" transform="translate(0,562.1)" style="visibility: visible;"><line stroke="#eeeeee" x2="936" stroke-dasharray="0"/><text fill="rgb(0, 0, 0)" x="3" dy="-0.33em" opacity="1" text-anchor="start" font-size="18">$0</text></g><g class="tick" opacity="1" transform="translate(0,481.8714285714286)" style="visibility: visible;"><line stroke="#eeeeee" x2="936" stroke-dasharray="0"/><text fill="rgb(0, 0, 0)" x="3" dy="-0.33em" opacity="1" text-anchor="start" font-size="18">$5000</text></g><g class="tick" opacity="1" transform="translate(0,401.64285714285717)" style="visibility: visible;"><line stroke="#eeeeee" x2="936" stroke-dasharray="0"/><text fill="rgb(0, 0, 0)" x="3" dy="-0.33em" opacity="1" text-anchor="start" font-size="18">$10,000</text></g><g class="tick" opacity="1" transform="translate(0,321.4142857142857)" style="visibility: visible;"><line stroke="#eeeeee" x2="936" stroke-dasharray="0"/><text fill="rgb(0, 0, 0)" x="3" dy="-0.33em" opacity="1" text-anchor="start" font-size="18">$15,000</text></g><g class="tick" opacity="1" transform="translate(0,241.1857142857143)" style="visibility: visible;"><line stroke="#eeeeee" x2="936" stroke-dasharray="0"/><text fill="rgb(0, 0, 0)" x="3" dy="-0.33em" opacity="1" text-anchor="start" font-size="18">$20,000</text></g><g class="tick" opacity="1" transform="translate(0,160.95714285714286)" style="visibility: visible;"><line stroke="#eeeeee" x2="936" stroke-dasharray="0"/><text fill="rgb(0, 0, 0)" x="3" dy="-0.33em" opacity="1" text-anchor="start" font-size="18">$25,000</text></g><g class="tick" opacity="1" transform="translate(0,80.72857142857146)" style="visibility: visible;"><line stroke="#eeeeee" x2="936" stroke-dasharray="0"/><text fill="rgb(0, 0, 0)" x="3" dy="-0.33em" opacity="1" text-anchor="start" font-size="18">$30,000</text></g><g class="tick" opacity="1" transform="translate(0,0.5)" style="visibility: visible;"><line stroke="#eeeeee" x2="936" stroke-dasharray="0"/><text fill="rgb(0, 0, 0)" x="3" dy="-0.33em" opacity="1" text-anchor="start" font-size="18">$35,000</text></g></g><g class="x axis" transform="translate(0,561.6)" fill="none" font-size="10" font-family="sans-serif" text-anchor="middle" style="font-family: &quot;Source Sans Pro&quot;;"><path class="domain" stroke="#eeeeee" d="M40.5,0.5H936.5" stroke-dasharray="0"/><g class="tick" opacity="1" transform="translate(40.5,0)"><line stroke="#eeeeee" y2="6" stroke-dasharray="0"/><text fill="rgb(0, 0, 0)" y="9" dy="-9" opacity="1" dominant-baseline="central" font-size="18" transform="translate(0, 15) rotate(-45)" dx="5" style="text-anchor: end; visibility: visible;">1990</text></g><g class="tick" opacity="1" transform="translate(130.10000000000002,0)"><line stroke="#eeeeee" y2="6" stroke-dasharray="0"/><text fill="rgb(0, 0, 0)" y="9" dy="-9" opacity="1" dominant-baseline="central" font-size="18" transform="translate(0, 15) rotate(-45)" dx="5" style="text-anchor: end; visibility: visible;">1995</text></g><g class="tick" opacity="1" transform="translate(219.70000000000002,0)"><line stroke="#eeeeee" y2="6" stroke-dasharray="0"/><text fill="rgb(0, 0, 0)" y="9" dy="-9" opacity="1" dominant-baseline="central" font-size="18" transform="translate(0, 15) rotate(-45)" dx="5" style="text-anchor: end; visibility: visible;">2000</text></g><g class="tick" opacity="1" transform="translate(309.3,0)"><line stroke="#eeeeee" y2="6" stroke-dasharray="0"/><text fill="rgb(0, 0, 0)" y="9" dy="-9" opacity="1" dominant-baseline="central" font-size="18" transform="translate(0, 15) rotate(-45)" dx="5" style="text-anchor: end; visibility: visible;">2005</text></g><g class="tick" opacity="1" transform="translate(398.90000000000003,0)"><line stroke="#eeeeee" y2="6" stroke-dasharray="0"/><text fill="rgb(0, 0, 0)" y="9" dy="-9" opacity="1" dominant-baseline="central" font-size="18" transform="translate(0, 15) rotate(-45)" dx="5" style="text-anchor: end; visibility: visible;">2010</text></g><g class="tick" opacity="1" transform="translate(488.5,0)"><line stroke="#eeeeee" y2="6" stroke-dasharray="0"/><text fill="rgb(0, 0, 0)" y="9" dy="-9" opacity="1" dominant-baseline="central" font-size="18" transform="translate(0, 15) rotate(-45)" dx="5" style="text-anchor: end; visibility: visible;">2015</text></g><g class="tick" opacity="1" transform="translate(578.1,0)"><line stroke="#eeeeee" y2="6" stroke-dasharray="0"/><text fill="rgb(0, 0, 0)" y="9" dy="-9" opacity="1" dominant-baseline="central" font-size="18" transform="translate(0, 15) rotate(-45)" dx="5" style="text-anchor: end; visibility: visible;">2020</text></g><g class="tick" opacity="1" transform="translate(667.6999999999999,0)"><line stroke="#eeeeee" y2="6" stroke-dasharray="0"/><text fill="rgb(0, 0, 0)" y="9" dy="-9" opacity="1" dominant-baseline="central" font-size="18" transform="translate(0, 15) rotate(-45)" dx="5" style="text-anchor: end; visibility: visible;">2025</text></g><g class="tick" opacity="1" transform="translate(757.3000000000001,0)"><line stroke="#eeeeee" y2="6" stroke-dasharray="0"/><text fill="rgb(0, 0, 0)" y="9" dy="-9" opacity="1" dominant-baseline="central" font-size="18" transform="translate(0, 15) rotate(-45)" dx="5" style="text-anchor: end; visibility: visible;">2030</text></g><g class="tick" opacity="1" transform="translate(846.9,0)"><line stroke="#eeeeee" y2="6" stroke-dasharray="0"/><text fill="rgb(0, 0, 0)" y="9" dy="-9" opacity="1" dominant-baseline="central" font-size="18" transform="translate(0, 15) rotate(-45)" dx="5" style="text-anchor: end; visibility: visible;">2035</text></g><g class="tick" opacity="1" transform="translate(936.5,0)"><line stroke="#eeeeee" y2="6" stroke-dasharray="0"/><text fill="rgb(0, 0, 0)" y="9" dy="-9" opacity="1" dominant-baseline="central" font-size="18" transform="translate(0, 15) rotate(-45)" dx="5" style="text-anchor: end; visibility: visible;">2040</text></g></g></g></g></g></g><g class="annotations below"><g class="axis-highlights" transform="translate(15, 20)" style="opacity: 1;"><g class="line x" transform="translate(559.68, 0)"><line width="0" stroke-dasharray="2 2" stroke="#333333" stroke-width="2" y2="561.6"/><text transform="translate(0, 6) rotate(-90)" fill="#333333" text-anchor="end" dy="-0.5em" font-size="12">Current</text></g></g></g><g id="areas"><g class="series" pointer-events="none"><path class="area" transform="translate(15,20)" fill-opacity="0" fill="#11A579" clip-path="url(#clip-0-0)" d="M57.92,522.73728C63.89333333333334,521.1861942857144,69.86666666666667,519.6351085714286,75.84,518.6295771428572C81.81333333333333,517.6240457142858,87.78666666666666,517.6481142857143,93.75999999999999,516.7040914285715C99.73333333333333,515.7600685714286,105.70666666666666,513.9281828571429,111.68,512.9654400000001C117.65333333333335,512.0026971428572,123.62666666666668,512.2567542857144,129.60000000000002,510.9276342857143C135.57333333333335,509.5985142857143,141.54666666666665,506.78249142857146,147.51999999999998,504.99072C153.4933333333333,503.19894857142856,159.46666666666667,501.74146285714284,165.44,500.1770057142857C171.41333333333333,498.6125485714286,177.38666666666668,497.0213485714286,183.36,495.60397714285716C189.33333333333334,494.18660571428575,195.30666666666667,493.02864000000005,201.28,491.67277714285717C207.25333333333333,490.3169142857143,213.2266666666667,489.3541714285714,219.20000000000002,487.4688C225.17333333333335,485.58342857142856,231.14666666666668,482.86368,237.12,480.3605485714286C243.09333333333333,477.8574171428572,249.06666666666666,475.0922057142857,255.04,472.45001142857143C261.0133333333333,469.8078171428571,266.9866666666667,467.16562285714286,272.96000000000004,464.5073828571429C278.93333333333334,461.8491428571429,284.9066666666667,456.50057142857145,290.88,456.50057142857145C296.85333333333335,456.50057142857145,302.82666666666665,459.0839314285714,308.8,459.0839314285714C314.77333333333337,459.0839314285714,320.74666666666667,445.3835657142857,326.72,440.6634514285714C332.6933333333334,435.94333714285716,338.6666666666667,433.9456457142857,344.64000000000004,430.76324571428574C350.61333333333334,427.5808457142858,356.5866666666667,423.79940571428574,362.56,421.56905142857147C368.53333333333336,419.3386971428572,374.50666666666666,419.0418514285714,380.48,417.38112C386.4533333333334,415.7203885714286,392.4266666666667,414.3672,398.40000000000003,411.6046628571429C404.37333333333333,408.84212571428577,410.3466666666667,403.67807999999997,416.32,400.80589714285713C422.29333333333335,397.93371428571425,428.26666666666665,396.0617142857143,434.24,394.37156571428574C440.21333333333337,392.6814171428572,446.18666666666667,391.81762285714285,452.16,390.6650057142857C458.1333333333333,389.5123885714286,464.1066666666667,388.86253714285715,470.08,387.45586285714285C476.05333333333334,386.04918857142854,482.02666666666664,383.76802285714285,488,382.22496C493.97333333333336,380.68189714285717,499.94666666666666,379.7565942857143,505.92,378.19748571428573C511.8933333333334,376.63837714285717,517.8666666666667,374.5337142857143,523.84,372.8703085714286C529.8133333333334,371.2069028571429,535.7866666666666,369.8848697142858,541.76,368.2170514285715C547.7333333333333,366.5492331428572,553.7066666666666,365.5119044571429,559.68,362.8633988571429C565.6533333333333,360.2148932571429,571.6266666666667,355.9315968,577.6,352.3260178285714C583.5733333333334,348.7204388571429,589.5466666666666,345.0266886857143,595.52,341.2299250285715C601.4933333333333,337.4331613714286,607.4666666666667,333.54351977142863,613.44,329.5454358857143C619.4133333333334,325.54735200000005,625.3866666666667,321.4514962285714,631.36,317.2414217142857C637.3333333333334,313.03134719999997,643.3066666666667,308.71828594285716,649.2800000000001,304.2849888C655.2533333333333,299.8516916571429,661.2266666666667,295.31000571428564,667.1999999999999,290.6416388571428C673.1733333333333,285.97327199999995,679.1466666666666,281.1906864,685.12,276.27478765714284C691.0933333333334,271.3588889142857,697.0666666666666,266.3227810285714,703.04,261.1462464C709.0133333333333,255.96971177142856,714.9866666666667,250.6665764571429,720.96,245.2155798857143C726.9333333333334,239.76458331428574,732.9066666666666,234.18030034285712,738.88,228.44026697142857C744.8533333333334,222.7002336,750.8266666666667,216.81977348571434,756.8000000000001,210.77537965714288C762.7733333333333,204.73098582857148,768.7466666666667,198.53875748571426,774.7199999999999,192.173904C780.6933333333333,185.80905051428567,786.6666666666666,179.2886070857143,792.64,172.58625874285713C798.6133333333333,165.8839104,804.5866666666666,159.01754811428566,810.56,151.95981394285712C816.5333333333333,144.90207977142853,822.5066666666667,137.67177394285713,828.48,130.2398537142857C834.4533333333334,122.8079334857143,840.4266666666666,115.19426880000005,846.4,107.36829257142864C852.3733333333333,99.54231634285719,858.3466666666667,91.5249414857143,864.32,83.28399634285711C870.2933333333334,75.04305119999998,876.2666666666667,66.48283645714284,882.24,57.9226217142857L882.24,57.9226217142857C876.2666666666667,66.48283645714284,870.2933333333334,75.04305119999998,864.32,83.28399634285711C858.3466666666667,91.5249414857143,852.3733333333333,99.54231634285719,846.4,107.36829257142864C840.4266666666666,115.19426880000005,834.4533333333334,122.8079334857143,828.48,130.2398537142857C822.5066666666667,137.67177394285713,816.5333333333333,144.90207977142853,810.56,151.95981394285712C804.5866666666666,159.01754811428566,798.6133333333333,165.8839104,792.64,172.58625874285713C786.6666666666666,179.2886070857143,780.6933333333333,185.80905051428567,774.7199999999999,192.173904C768.7466666666667,198.53875748571426,762.7733333333333,204.73098582857148,756.8000000000001,210.77537965714288C750.8266666666667,216.81977348571434,744.8533333333334,222.7002336,738.88,228.44026697142857C732.9066666666666,234.18030034285712,726.9333333333334,239.76458331428574,720.96,245.2155798857143C714.9866666666667,250.6665764571429,709.0133333333333,255.96971177142856,703.04,261.1462464C697.0666666666666,266.3227810285714,691.0933333333334,271.3588889142857,685.12,276.27478765714284C679.1466666666666,281.1906864,673.1733333333333,285.97327199999995,667.1999999999999,290.6416388571428C661.2266666666667,295.31000571428564,655.2533333333333,299.8516916571429,649.2800000000001,304.2849888C643.3066666666667,308.71828594285716,637.3333333333334,313.03134719999997,631.36,317.2414217142857C625.3866666666667,321.4514962285714,619.4133333333334,325.54735200000005,613.44,329.5454358857143C607.4666666666667,333.54351977142863,601.4933333333333,337.4331613714286,595.52,341.2299250285715C589.5466666666666,345.0266886857143,583.5733333333334,348.7204388571429,577.6,352.3260178285714C571.6266666666667,355.9315968,565.6533333333333,360.2148932571429,559.68,362.8633988571429C553.7066666666666,365.5119044571429,547.7333333333333,366.5492331428572,541.76,368.2170514285715C535.7866666666666,369.8848697142858,529.8133333333334,371.2069028571429,523.84,372.8703085714286C517.8666666666667,374.5337142857143,511.8933333333334,376.63837714285717,505.92,378.19748571428573C499.94666666666666,379.7565942857143,493.97333333333336,380.68189714285717,488,382.22496C482.02666666666664,383.76802285714285,476.05333333333334,386.04918857142854,470.08,387.45586285714285C464.1066666666667,388.86253714285715,458.1333333333333,389.5123885714286,452.16,390.6650057142857C446.18666666666667,391.81762285714285,440.21333333333337,392.6814171428572,434.24,394.37156571428574C428.26666666666665,396.0617142857143,422.29333333333335,397.93371428571425,416.32,400.80589714285713C410.3466666666667,403.67807999999997,404.37333333333333,408.84212571428577,398.40000000000003,411.6046628571429C392.4266666666667,414.3672,386.4533333333334,415.7203885714286,380.48,417.38112C374.50666666666666,419.0418514285714,368.53333333333336,419.3386971428572,362.56,421.56905142857147C356.5866666666667,423.79940571428574,350.61333333333334,427.5808457142858,344.64000000000004,430.76324571428574C338.6666666666667,433.9456457142857,332.6933333333334,435.94333714285716,326.72,440.6634514285714C320.74666666666667,445.3835657142857,314.77333333333337,459.0839314285714,308.8,459.0839314285714C302.82666666666665,459.0839314285714,296.85333333333335,456.50057142857145,290.88,456.50057142857145C284.9066666666667,456.50057142857145,278.93333333333334,461.8491428571429,272.96000000000004,464.5073828571429C266.9866666666667,467.16562285714286,261.0133333333333,469.8078171428571,255.04,472.45001142857143C249.06666666666666,475.0922057142857,243.09333333333333,477.8574171428572,237.12,480.3605485714286C231.14666666666668,482.86368,225.17333333333335,485.58342857142856,219.20000000000002,487.4688C213.2266666666667,489.3541714285714,207.25333333333333,490.3169142857143,201.28,491.67277714285717C195.30666666666667,493.02864000000005,189.33333333333334,494.18660571428575,183.36,495.60397714285716C177.38666666666668,497.0213485714286,171.41333333333333,498.6125485714286,165.44,500.1770057142857C159.46666666666667,501.74146285714284,153.4933333333333,503.19894857142856,147.51999999999998,504.99072C141.54666666666665,506.78249142857146,135.57333333333335,509.5985142857143,129.60000000000002,510.9276342857143C123.62666666666668,512.2567542857144,117.65333333333335,512.0026971428572,111.68,512.9654400000001C105.70666666666666,513.9281828571429,99.73333333333333,515.7600685714286,93.75999999999999,516.7040914285715C87.78666666666666,517.6481142857143,81.81333333333333,517.6240457142858,75.84,518.6295771428572C69.86666666666667,519.6351085714286,63.89333333333334,521.1861942857144,57.92,522.73728Z"/></g><g class="series" pointer-events="none"><path class="area" transform="translate(15,20)" fill-opacity="0" fill="#802392" clip-path="url(#clip-0-1)" d="M57.92,514.8267428571429C63.89333333333334,513.3746057142857,69.86666666666667,511.92246857142857,75.84,510.9276342857143C81.81333333333333,509.93280000000004,87.78666666666666,509.7161828571429,93.75999999999999,508.85773714285716C99.73333333333333,507.99929142857144,105.70666666666666,506.8333028571429,111.68,505.77696000000003C117.65333333333335,504.7206171428572,123.62666666666668,503.83275428571426,129.60000000000002,502.51968C135.57333333333335,501.20660571428573,141.54666666666665,499.5886628571429,147.51999999999998,497.8985142857143C153.4933333333333,496.2083657142858,159.46666666666667,494.27218285714287,165.44,492.3787885714286C171.41333333333333,490.4853942857143,177.38666666666668,488.39677714285716,183.36,486.53814857142856C189.33333333333334,484.67952,195.30666666666667,483.0535542857143,201.28,481.22701714285716C207.25333333333333,479.40048,213.2266666666667,477.85474285714287,219.20000000000002,475.57892571428573C225.17333333333335,473.3031085714286,231.14666666666668,470.69300571428573,237.12,467.5721142857143C243.09333333333333,464.45122285714285,249.06666666666666,460.4184,255.04,456.85357714285715C261.0133333333333,453.2887542857143,266.9866666666667,449.79613714285716,272.96000000000004,446.1831771428572C278.93333333333334,442.5702171428572,284.9066666666667,438.6871542857143,290.88,435.17581714285717C296.85333333333335,431.66448,302.82666666666665,428.7281142857143,308.8,425.1151542857143C314.77333333333337,421.5021942857143,320.74666666666667,417.12706285714285,326.72,413.49805714285714C332.6933333333334,409.8690514285714,338.6666666666667,407.0958171428572,344.64000000000004,403.34112000000005C350.61333333333334,399.5864228571429,356.5866666666667,394.0720457142857,362.56,390.9698742857143C368.53333333333336,387.8677028571429,374.50666666666666,386.96112000000005,380.48,384.7280914285715C386.4533333333334,382.4950628571429,392.4266666666667,380.39040000000006,398.40000000000003,377.5717028571429C404.37333333333333,374.75300571428573,410.3466666666667,370.5222857142858,416.32,367.8159085714286C422.29333333333335,365.1095314285715,428.26666666666665,362.82301714285717,434.24,361.33344C440.21333333333337,359.8438628571428,446.18666666666667,359.9829257142857,452.16,358.8784457142857C458.1333333333333,357.77396571428574,464.1066666666667,356.21485714285717,470.08,354.70656C476.05333333333334,353.1982628571429,482.02666666666664,351.3530057142857,488,349.82866285714283C493.97333333333336,348.30431999999996,499.94666666666666,347.09554285714285,505.92,345.56050285714286C511.8933333333334,344.0254628571429,517.8666666666667,342.29787428571433,523.84,340.6184228571429C529.8133333333334,338.93897142857145,535.7866666666666,337.0024944,541.76,335.4837942857143C547.7333333333333,333.9650941714286,553.7066666666666,333.750456,559.68,331.5062221714286C565.6533333333333,329.26198834285714,571.6266666666667,325.24622742857144,577.6,322.01839131428574C583.5733333333334,318.79055520000003,589.5466666666666,315.50014080000005,595.52,312.13920548571434C601.4933333333333,308.77827017142863,607.4666666666667,305.35229622857145,613.44,301.8527794285714C619.4133333333334,298.35326262857143,625.3866666666667,294.7859526857143,631.36,291.1421046857143C637.3333333333334,287.4982566857143,643.3066666666667,283.7837808,649.2800000000001,279.9896914285714C655.2533333333333,276.1956020571429,661.2266666666667,272.32810354285715,667.1999999999999,268.3775684571429C673.1733333333333,264.4270333714286,679.1466666666666,260.39990674285724,685.12,256.2864809142858C691.0933333333334,252.17305508571437,697.0666666666666,247.98006925714282,703.04,243.69701348571425C709.0133333333333,239.41395771428566,714.9866666666667,235.04781188571428,720.96,230.5881462857143C726.9333333333334,226.12848068571432,732.9066666666666,221.5825693714286,738.88,216.93901988571434C744.8533333333334,212.29547040000006,750.8266666666667,207.56190445714293,756.8000000000001,202.7268493714286C762.7733333333333,197.89179428571435,768.7466666666667,192.96308571428574,774.7199999999999,187.92868937142862C780.6933333333333,182.89429302857144,786.6666666666666,177.76244571428575,792.64,172.52047131428571C798.6133333333333,167.2784969142857,804.5866666666666,161.93500662857136,810.56,156.47684297142854C816.5333333333333,151.01867931428566,822.5066666666667,145.4547209142858,828.48,139.77148937142863C834.4533333333334,134.0882578285715,840.4266666666666,128.29500617142855,846.4,122.3774537142857C852.3733333333333,116.45990125714282,858.3466666666667,110.42775565714282,864.32,104.26617462857138C870.2933333333334,98.10459359999997,876.2666666666667,91.75628057142855,882.24,85.40796754285714L882.24,85.40796754285714C876.2666666666667,91.75628057142855,870.2933333333334,98.10459359999997,864.32,104.26617462857138C858.3466666666667,110.42775565714282,852.3733333333333,116.45990125714282,846.4,122.3774537142857C840.4266666666666,128.29500617142855,834.4533333333334,134.0882578285715,828.48,139.77148937142863C822.5066666666667,145.4547209142858,816.5333333333333,151.01867931428566,810.56,156.47684297142854C804.5866666666666,161.93500662857136,798.6133333333333,167.2784969142857,792.64,172.52047131428571C786.6666666666666,177.76244571428575,780.6933333333333,182.89429302857144,774.7199999999999,187.92868937142862C768.7466666666667,192.96308571428574,762.7733333333333,197.89179428571435,756.8000000000001,202.7268493714286C750.8266666666667,207.56190445714293,744.8533333333334,212.29547040000006,738.88,216.93901988571434C732.9066666666666,221.5825693714286,726.9333333333334,226.12848068571432,720.96,230.5881462857143C714.9866666666667,235.04781188571428,709.0133333333333,239.41395771428566,703.04,243.69701348571425C697.0666666666666,247.98006925714282,691.0933333333334,252.17305508571437,685.12,256.2864809142858C679.1466666666666,260.39990674285724,673.1733333333333,264.4270333714286,667.1999999999999,268.3775684571429C661.2266666666667,272.32810354285715,655.2533333333333,276.1956020571429,649.2800000000001,279.9896914285714C643.3066666666667,283.7837808,637.3333333333334,287.4982566857143,631.36,291.1421046857143C625.3866666666667,294.7859526857143,619.4133333333334,298.35326262857143,613.44,301.8527794285714C607.4666666666667,305.35229622857145,601.4933333333333,308.77827017142863,595.52,312.13920548571434C589.5466666666666,315.50014080000005,583.5733333333334,318.79055520000003,577.6,322.01839131428574C571.6266666666667,325.24622742857144,565.6533333333333,329.26198834285714,559.68,331.5062221714286C553.7066666666666,333.750456,547.7333333333333,333.9650941714286,541.76,335.4837942857143C535.7866666666666,337.0024944,529.8133333333334,338.93897142857145,523.84,340.6184228571429C517.8666666666667,342.29787428571433,511.8933333333334,344.0254628571429,505.92,345.56050285714286C499.94666666666666,347.09554285714285,493.97333333333336,348.30431999999996,488,349.82866285714283C482.02666666666664,351.3530057142857,476.05333333333334,353.1982628571429,470.08,354.70656C464.1066666666667,356.21485714285717,458.1333333333333,357.77396571428574,452.16,358.8784457142857C446.18666666666667,359.9829257142857,440.21333333333337,359.8438628571428,434.24,361.33344C428.26666666666665,362.82301714285717,422.29333333333335,365.1095314285715,416.32,367.8159085714286C410.3466666666667,370.5222857142858,404.37333333333333,374.75300571428573,398.40000000000003,377.5717028571429C392.4266666666667,380.39040000000006,386.4533333333334,382.4950628571429,380.48,384.7280914285715C374.50666666666666,386.96112000000005,368.53333333333336,387.8677028571429,362.56,390.9698742857143C356.5866666666667,394.0720457142857,350.61333333333334,399.5864228571429,344.64000000000004,403.34112000000005C338.6666666666667,407.0958171428572,332.6933333333334,409.8690514285714,326.72,413.49805714285714C320.74666666666667,417.12706285714285,314.77333333333337,421.5021942857143,308.8,425.1151542857143C302.82666666666665,428.7281142857143,296.85333333333335,431.66448,290.88,435.17581714285717C284.9066666666667,438.6871542857143,278.93333333333334,442.5702171428572,272.96000000000004,446.1831771428572C266.9866666666667,449.79613714285716,261.0133333333333,453.2887542857143,255.04,456.85357714285715C249.06666666666666,460.4184,243.09333333333333,464.45122285714285,237.12,467.5721142857143C231.14666666666668,470.69300571428573,225.17333333333335,473.3031085714286,219.20000000000002,475.57892571428573C213.2266666666667,477.85474285714287,207.25333333333333,479.40048,201.28,481.22701714285716C195.30666666666667,483.0535542857143,189.33333333333334,484.67952,183.36,486.53814857142856C177.38666666666668,488.39677714285716,171.41333333333333,490.4853942857143,165.44,492.3787885714286C159.46666666666667,494.27218285714287,153.4933333333333,496.2083657142858,147.51999999999998,497.8985142857143C141.54666666666665,499.5886628571429,135.57333333333335,501.20660571428573,129.60000000000002,502.51968C123.62666666666668,503.83275428571426,117.65333333333335,504.7206171428572,111.68,505.77696000000003C105.70666666666666,506.8333028571429,99.73333333333333,507.99929142857144,93.75999999999999,508.85773714285716C87.78666666666666,509.7161828571429,81.81333333333333,509.93280000000004,75.84,510.9276342857143C69.86666666666667,511.92246857142857,63.89333333333334,513.3746057142857,57.92,514.8267428571429Z"/></g></g><g id="lines"><g class="series"><clipPath id="clip-0-0"><rect width="936" y="-20" height="599.6"/></clipPath><path class="line" opacity="1" fill="none" stroke="#11A579" stroke-width="2" transform="translate(15,20)" clip-path="url(#clip-0-0)" d="M57.92,522.73728C63.89333333333334,521.1861942857144,69.86666666666667,519.6351085714286,75.84,518.6295771428572C81.81333333333333,517.6240457142858,87.78666666666666,517.6481142857143,93.75999999999999,516.7040914285715C99.73333333333333,515.7600685714286,105.70666666666666,513.9281828571429,111.68,512.9654400000001C117.65333333333335,512.0026971428572,123.62666666666668,512.2567542857144,129.60000000000002,510.9276342857143C135.57333333333335,509.5985142857143,141.54666666666665,506.78249142857146,147.51999999999998,504.99072C153.4933333333333,503.19894857142856,159.46666666666667,501.74146285714284,165.44,500.1770057142857C171.41333333333333,498.6125485714286,177.38666666666668,497.0213485714286,183.36,495.60397714285716C189.33333333333334,494.18660571428575,195.30666666666667,493.02864000000005,201.28,491.67277714285717C207.25333333333333,490.3169142857143,213.2266666666667,489.3541714285714,219.20000000000002,487.4688C225.17333333333335,485.58342857142856,231.14666666666668,482.86368,237.12,480.3605485714286C243.09333333333333,477.8574171428572,249.06666666666666,475.0922057142857,255.04,472.45001142857143C261.0133333333333,469.8078171428571,266.9866666666667,467.16562285714286,272.96000000000004,464.5073828571429C278.93333333333334,461.8491428571429,284.9066666666667,456.50057142857145,290.88,456.50057142857145C296.85333333333335,456.50057142857145,302.82666666666665,459.0839314285714,308.8,459.0839314285714C314.77333333333337,459.0839314285714,320.74666666666667,445.3835657142857,326.72,440.6634514285714C332.6933333333334,435.94333714285716,338.6666666666667,433.9456457142857,344.64000000000004,430.76324571428574C350.61333333333334,427.5808457142858,356.5866666666667,423.79940571428574,362.56,421.56905142857147C368.53333333333336,419.3386971428572,374.50666666666666,419.0418514285714,380.48,417.38112C386.4533333333334,415.7203885714286,392.4266666666667,414.3672,398.40000000000003,411.6046628571429C404.37333333333333,408.84212571428577,410.3466666666667,403.67807999999997,416.32,400.80589714285713C422.29333333333335,397.93371428571425,428.26666666666665,396.0617142857143,434.24,394.37156571428574C440.21333333333337,392.6814171428572,446.18666666666667,391.81762285714285,452.16,390.6650057142857C458.1333333333333,389.5123885714286,464.1066666666667,388.86253714285715,470.08,387.45586285714285C476.05333333333334,386.04918857142854,482.02666666666664,383.76802285714285,488,382.22496C493.97333333333336,380.68189714285717,499.94666666666666,379.7565942857143,505.92,378.19748571428573C511.8933333333334,376.63837714285717,517.8666666666667,374.5337142857143,523.84,372.8703085714286C529.8133333333334,371.2069028571429,535.7866666666666,369.8848697142858,541.76,368.2170514285715C547.7333333333333,366.5492331428572,553.7066666666666,365.5119044571429,559.68,362.8633988571429C565.6533333333333,360.2148932571429,571.6266666666667,355.9315968,577.6,352.3260178285714C583.5733333333334,348.7204388571429,589.5466666666666,345.0266886857143,595.52,341.2299250285715C601.4933333333333,337.4331613714286,607.4666666666667,333.54351977142863,613.44,329.5454358857143C619.4133333333334,325.54735200000005,625.3866666666667,321.4514962285714,631.36,317.2414217142857C637.3333333333334,313.03134719999997,643.3066666666667,308.71828594285716,649.2800000000001,304.2849888C655.2533333333333,299.8516916571429,661.2266666666667,295.31000571428564,667.1999999999999,290.6416388571428C673.1733333333333,285.97327199999995,679.1466666666666,281.1906864,685.12,276.27478765714284C691.0933333333334,271.3588889142857,697.0666666666666,266.3227810285714,703.04,261.1462464C709.0133333333333,255.96971177142856,714.9866666666667,250.6665764571429,720.96,245.2155798857143C726.9333333333334,239.76458331428574,732.9066666666666,234.18030034285712,738.88,228.44026697142857C744.8533333333334,222.7002336,750.8266666666667,216.81977348571434,756.8000000000001,210.77537965714288C762.7733333333333,204.73098582857148,768.7466666666667,198.53875748571426,774.7199999999999,192.173904C780.6933333333333,185.80905051428567,786.6666666666666,179.2886070857143,792.64,172.58625874285713C798.6133333333333,165.8839104,804.5866666666666,159.01754811428566,810.56,151.95981394285712C816.5333333333333,144.90207977142853,822.5066666666667,137.67177394285713,828.48,130.2398537142857C834.4533333333334,122.8079334857143,840.4266666666666,115.19426880000005,846.4,107.36829257142864C852.3733333333333,99.54231634285719,858.3466666666667,91.5249414857143,864.32,83.28399634285711C870.2933333333334,75.04305119999998,876.2666666666667,66.48283645714284,882.24,57.9226217142857"/><text class="label" font-size="11" alignment-baseline="middle" opacity="1" x="5" fill="#11A579" transform="translate(897.24,77.9226217142857)"/></g><g class="series"><clipPath id="clip-0-1"><rect width="936" y="-20" height="599.6"/></clipPath><path class="line" opacity="1" fill="none" stroke="#802392" stroke-width="2" transform="translate(15,20)" clip-path="url(#clip-0-1)" d="M57.92,514.8267428571429C63.89333333333334,513.3746057142857,69.86666666666667,511.92246857142857,75.84,510.9276342857143C81.81333333333333,509.93280000000004,87.78666666666666,509.7161828571429,93.75999999999999,508.85773714285716C99.73333333333333,507.99929142857144,105.70666666666666,506.8333028571429,111.68,505.77696000000003C117.65333333333335,504.7206171428572,123.62666666666668,503.83275428571426,129.60000000000002,502.51968C135.57333333333335,501.20660571428573,141.54666666666665,499.5886628571429,147.51999999999998,497.8985142857143C153.4933333333333,496.2083657142858,159.46666666666667,494.27218285714287,165.44,492.3787885714286C171.41333333333333,490.4853942857143,177.38666666666668,488.39677714285716,183.36,486.53814857142856C189.33333333333334,484.67952,195.30666666666667,483.0535542857143,201.28,481.22701714285716C207.25333333333333,479.40048,213.2266666666667,477.85474285714287,219.20000000000002,475.57892571428573C225.17333333333335,473.3031085714286,231.14666666666668,470.69300571428573,237.12,467.5721142857143C243.09333333333333,464.45122285714285,249.06666666666666,460.4184,255.04,456.85357714285715C261.0133333333333,453.2887542857143,266.9866666666667,449.79613714285716,272.96000000000004,446.1831771428572C278.93333333333334,442.5702171428572,284.9066666666667,438.6871542857143,290.88,435.17581714285717C296.85333333333335,431.66448,302.82666666666665,428.7281142857143,308.8,425.1151542857143C314.77333333333337,421.5021942857143,320.74666666666667,417.12706285714285,326.72,413.49805714285714C332.6933333333334,409.8690514285714,338.6666666666667,407.0958171428572,344.64000000000004,403.34112000000005C350.61333333333334,399.5864228571429,356.5866666666667,394.0720457142857,362.56,390.9698742857143C368.53333333333336,387.8677028571429,374.50666666666666,386.96112000000005,380.48,384.7280914285715C386.4533333333334,382.4950628571429,392.4266666666667,380.39040000000006,398.40000000000003,377.5717028571429C404.37333333333333,374.75300571428573,410.3466666666667,370.5222857142858,416.32,367.8159085714286C422.29333333333335,365.1095314285715,428.26666666666665,362.82301714285717,434.24,361.33344C440.21333333333337,359.8438628571428,446.18666666666667,359.9829257142857,452.16,358.8784457142857C458.1333333333333,357.77396571428574,464.1066666666667,356.21485714285717,470.08,354.70656C476.05333333333334,353.1982628571429,482.02666666666664,351.3530057142857,488,349.82866285714283C493.97333333333336,348.30431999999996,499.94666666666666,347.09554285714285,505.92,345.56050285714286C511.8933333333334,344.0254628571429,517.8666666666667,342.29787428571433,523.84,340.6184228571429C529.8133333333334,338.93897142857145,535.7866666666666,337.0024944,541.76,335.4837942857143C547.7333333333333,333.9650941714286,553.7066666666666,333.750456,559.68,331.5062221714286C565.6533333333333,329.26198834285714,571.6266666666667,325.24622742857144,577.6,322.01839131428574C583.5733333333334,318.79055520000003,589.5466666666666,315.50014080000005,595.52,312.13920548571434C601.4933333333333,308.77827017142863,607.4666666666667,305.35229622857145,613.44,301.8527794285714C619.4133333333334,298.35326262857143,625.3866666666667,294.7859526857143,631.36,291.1421046857143C637.3333333333334,287.4982566857143,643.3066666666667,283.7837808,649.2800000000001,279.9896914285714C655.2533333333333,276.1956020571429,661.2266666666667,272.32810354285715,667.1999999999999,268.3775684571429C673.1733333333333,264.4270333714286,679.1466666666666,260.39990674285724,685.12,256.2864809142858C691.0933333333334,252.17305508571437,697.0666666666666,247.98006925714282,703.04,243.69701348571425C709.0133333333333,239.41395771428566,714.9866666666667,235.04781188571428,720.96,230.5881462857143C726.9333333333334,226.12848068571432,732.9066666666666,221.5825693714286,738.88,216.93901988571434C744.8533333333334,212.29547040000006,750.8266666666667,207.56190445714293,756.8000000000001,202.7268493714286C762.7733333333333,197.89179428571435,768.7466666666667,192.96308571428574,774.7199999999999,187.92868937142862C780.6933333333333,182.89429302857144,786.6666666666666,177.76244571428575,792.64,172.52047131428571C798.6133333333333,167.2784969142857,804.5866666666666,161.93500662857136,810.56,156.47684297142854C816.5333333333333,151.01867931428566,822.5066666666667,145.4547209142858,828.48,139.77148937142863C834.4533333333334,134.0882578285715,840.4266666666666,128.29500617142855,846.4,122.3774537142857C852.3733333333333,116.45990125714282,858.3466666666667,110.42775565714282,864.32,104.26617462857138C870.2933333333334,98.10459359999997,876.2666666666667,91.75628057142855,882.24,85.40796754285714"/><text class="label" font-size="11" alignment-baseline="middle" opacity="1" x="5" fill="#802392" transform="translate(897.24,105.40796754285714)"/></g></g><g id="data-points"><g class="series" transform="translate(15,20)"><path class="data-point" fill="#11A579" data-type="point" transform="translate(0, 0)" d="M54.92,522.73728A3,3,0,1,1,60.92,522.73728A3,3,0,1,1,54.92,522.73728Z" id="point-0-0" opacity="1"/><path class="data-point" fill="#11A579" data-type="point" transform="translate(0, 0)" d="M72.84,518.6295771428572A3,3,0,1,1,78.84,518.6295771428572A3,3,0,1,1,72.84,518.6295771428572Z" id="point-0-1" opacity="1"/><path class="data-point" fill="#11A579" data-type="point" transform="translate(0, 0)" d="M90.75999999999999,516.7040914285715A3,3,0,1,1,96.75999999999999,516.7040914285715A3,3,0,1,1,90.75999999999999,516.7040914285715Z" id="point-0-2" opacity="1"/><path class="data-point" fill="#11A579" data-type="point" transform="translate(0, 0)" d="M108.68,512.9654400000001A3,3,0,1,1,114.68,512.9654400000001A3,3,0,1,1,108.68,512.9654400000001Z" id="point-0-3" opacity="1"/><path class="data-point" fill="#11A579" data-type="point" transform="translate(0, 0)" d="M126.60000000000002,510.9276342857143A3,3,0,1,1,132.60000000000002,510.9276342857143A3,3,0,1,1,126.60000000000002,510.9276342857143Z" id="point-0-4" opacity="1"/><path class="data-point" fill="#11A579" data-type="point" transform="translate(0, 0)" d="M144.51999999999998,504.99072A3,3,0,1,1,150.51999999999998,504.99072A3,3,0,1,1,144.51999999999998,504.99072Z" id="point-0-5" opacity="1"/><path class="data-point" fill="#11A579" data-type="point" transform="translate(0, 0)" d="M162.44,500.1770057142857A3,3,0,1,1,168.44,500.1770057142857A3,3,0,1,1,162.44,500.1770057142857Z" id="point-0-6" opacity="1"/><path class="data-point" fill="#11A579" data-type="point" transform="translate(0, 0)" d="M180.36,495.60397714285716A3,3,0,1,1,186.36,495.60397714285716A3,3,0,1,1,180.36,495.60397714285716Z" id="point-0-7" opacity="1"/><path class="data-point" fill="#11A579" data-type="point" transform="translate(0, 0)" d="M198.28,491.67277714285717A3,3,0,1,1,204.28,491.67277714285717A3,3,0,1,1,198.28,491.67277714285717Z" id="point-0-8" opacity="1"/><path class="data-point" fill="#11A579" data-type="point" transform="translate(0, 0)" d="M216.20000000000002,487.4688A3,3,0,1,1,222.20000000000002,487.4688A3,3,0,1,1,216.20000000000002,487.4688Z" id="point-0-9" opacity="1"/><path class="data-point" fill="#11A579" data-type="point" transform="translate(0, 0)" d="M234.12,480.3605485714286A3,3,0,1,1,240.12,480.3605485714286A3,3,0,1,1,234.12,480.3605485714286Z" id="point-0-10" opacity="1"/><path class="data-point" fill="#11A579" data-type="point" transform="translate(0, 0)" d="M252.04,472.45001142857143A3,3,0,1,1,258.03999999999996,472.45001142857143A3,3,0,1,1,252.04,472.45001142857143Z" id="point-0-11" opacity="1"/><path class="data-point" fill="#11A579" data-type="point" transform="translate(0, 0)" d="M269.96000000000004,464.5073828571429A3,3,0,1,1,275.96000000000004,464.5073828571429A3,3,0,1,1,269.96000000000004,464.5073828571429Z" id="point-0-12" opacity="1"/><path class="data-point" fill="#11A579" data-type="point" transform="translate(0, 0)" d="M287.88,456.50057142857145A3,3,0,1,1,293.88,456.50057142857145A3,3,0,1,1,287.88,456.50057142857145Z" id="point-0-13" opacity="1"/><path class="data-point" fill="#11A579" data-type="point" transform="translate(0, 0)" d="M305.8,459.0839314285714A3,3,0,1,1,311.8,459.0839314285714A3,3,0,1,1,305.8,459.0839314285714Z" id="point-0-14" opacity="1"/><path class="data-point" fill="#11A579" data-type="point" transform="translate(0, 0)" d="M323.72,440.6634514285714A3,3,0,1,1,329.72,440.6634514285714A3,3,0,1,1,323.72,440.6634514285714Z" id="point-0-15" opacity="1"/><path class="data-point" fill="#11A579" data-type="point" transform="translate(0, 0)" d="M341.64000000000004,430.76324571428574A3,3,0,1,1,347.64000000000004,430.76324571428574A3,3,0,1,1,341.64000000000004,430.76324571428574Z" id="point-0-16" opacity="1"/><path class="data-point" fill="#11A579" data-type="point" transform="translate(0, 0)" d="M359.56,421.56905142857147A3,3,0,1,1,365.56,421.56905142857147A3,3,0,1,1,359.56,421.56905142857147Z" id="point-0-17" opacity="1"/><path class="data-point" fill="#11A579" data-type="point" transform="translate(0, 0)" d="M377.48,417.38112A3,3,0,1,1,383.48,417.38112A3,3,0,1,1,377.48,417.38112Z" id="point-0-18" opacity="1"/><path class="data-point" fill="#11A579" data-type="point" transform="translate(0, 0)" d="M395.40000000000003,411.6046628571429A3,3,0,1,1,401.40000000000003,411.6046628571429A3,3,0,1,1,395.40000000000003,411.6046628571429Z" id="point-0-19" opacity="1"/><path class="data-point" fill="#11A579" data-type="point" transform="translate(0, 0)" d="M413.32,400.80589714285713A3,3,0,1,1,419.32,400.80589714285713A3,3,0,1,1,413.32,400.80589714285713Z" id="point-0-20" opacity="1"/><path class="data-point" fill="#11A579" data-type="point" transform="translate(0, 0)" d="M431.24,394.37156571428574A3,3,0,1,1,437.24,394.37156571428574A3,3,0,1,1,431.24,394.37156571428574Z" id="point-0-21" opacity="1"/><path class="data-point" fill="#11A579" data-type="point" transform="translate(0, 0)" d="M449.16,390.6650057142857A3,3,0,1,1,455.16,390.6650057142857A3,3,0,1,1,449.16,390.6650057142857Z" id="point-0-22" opacity="1"/><path class="data-point" fill="#11A579" data-type="point" transform="translate(0, 0)" d="M467.08,387.45586285714285A3,3,0,1,1,473.08,387.45586285714285A3,3,0,1,1,467.08,387.45586285714285Z" id="point-0-23" opacity="1"/><path class="data-point" fill="#11A579" data-type="point" transform="translate(0, 0)" d="M485,382.22496A3,3,0,1,1,491,382.22496A3,3,0,1,1,485,382.22496Z" id="point-0-24" opacity="1"/><path class="data-point" fill="#11A579" data-type="point" transform="translate(0, 0)" d="M502.92,378.19748571428573A3,3,0,1,1,508.92,378.19748571428573A3,3,0,1,1,502.92,378.19748571428573Z" id="point-0-25" opacity="1"/><path class="data-point" fill="#11A579" data-type="point" transform="translate(0, 0)" d="M520.84,372.8703085714286A3,3,0,1,1,526.84,372.8703085714286A3,3,0,1,1,520.84,372.8703085714286Z" id="point-0-26" opacity="1"/><path class="data-point" fill="#11A579" data-type="point" transform="translate(0, 0)" d="M538.76,368.2170514285715A3,3,0,1,1,544.76,368.2170514285715A3,3,0,1,1,538.76,368.2170514285715Z" id="point-0-27" opacity="1"/><path class="data-point" fill="#11A579" data-type="point" transform="translate(0, 0)" d="M556.68,362.8633988571429A3,3,0,1,1,562.68,362.8633988571429A3,3,0,1,1,556.68,362.8633988571429Z" id="point-0-28" opacity="1"/><path class="data-point" fill="#11A579" data-type="point" transform="translate(0, 0)" d="M574.6,352.3260178285714A3,3,0,1,1,580.6,352.3260178285714A3,3,0,1,1,574.6,352.3260178285714Z" id="point-0-29" opacity="1"/><path class="data-point" fill="#11A579" data-type="point" transform="translate(0, 0)" d="M592.52,341.2299250285715A3,3,0,1,1,598.52,341.2299250285715A3,3,0,1,1,592.52,341.2299250285715Z" id="point-0-30" opacity="1"/><path class="data-point" fill="#11A579" data-type="point" transform="translate(0, 0)" d="M610.44,329.5454358857143A3,3,0,1,1,616.44,329.5454358857143A3,3,0,1,1,610.44,329.5454358857143Z" id="point-0-31" opacity="1"/><path class="data-point" fill="#11A579" data-type="point" transform="translate(0, 0)" d="M628.36,317.2414217142857A3,3,0,1,1,634.36,317.2414217142857A3,3,0,1,1,628.36,317.2414217142857Z" id="point-0-32" opacity="1"/><path class="data-point" fill="#11A579" data-type="point" transform="translate(0, 0)" d="M646.2800000000001,304.2849888A3,3,0,1,1,652.2800000000001,304.2849888A3,3,0,1,1,646.2800000000001,304.2849888Z" id="point-0-33" opacity="1"/><path class="data-point" fill="#11A579" data-type="point" transform="translate(0, 0)" d="M664.1999999999999,290.6416388571428A3,3,0,1,1,670.1999999999999,290.6416388571428A3,3,0,1,1,664.1999999999999,290.6416388571428Z" id="point-0-34" opacity="1"/><path class="data-point" fill="#11A579" data-type="point" transform="translate(0, 0)" d="M682.12,276.27478765714284A3,3,0,1,1,688.12,276.27478765714284A3,3,0,1,1,682.12,276.27478765714284Z" id="point-0-35" opacity="1"/><path class="data-point" fill="#11A579" data-type="point" transform="translate(0, 0)" d="M700.04,261.1462464A3,3,0,1,1,706.04,261.1462464A3,3,0,1,1,700.04,261.1462464Z" id="point-0-36" opacity="1"/><path class="data-point" fill="#11A579" data-type="point" transform="translate(0, 0)" d="M717.96,245.2155798857143A3,3,0,1,1,723.96,245.2155798857143A3,3,0,1,1,717.96,245.2155798857143Z" id="point-0-37" opacity="1"/><path class="data-point" fill="#11A579" data-type="point" transform="translate(0, 0)" d="M735.88,228.44026697142857A3,3,0,1,1,741.88,228.44026697142857A3,3,0,1,1,735.88,228.44026697142857Z" id="point-0-38" opacity="1"/><path class="data-point" fill="#11A579" data-type="point" transform="translate(0, 0)" d="M753.8000000000001,210.77537965714288A3,3,0,1,1,759.8000000000001,210.77537965714288A3,3,0,1,1,753.8000000000001,210.77537965714288Z" id="point-0-39" opacity="1"/><path class="data-point" fill="#11A579" data-type="point" transform="translate(0, 0)" d="M771.7199999999999,192.173904A3,3,0,1,1,777.7199999999999,192.173904A3,3,0,1,1,771.7199999999999,192.173904Z" id="point-0-40" opacity="1"/><path class="data-point" fill="#11A579" data-type="point" transform="translate(0, 0)" d="M789.64,172.58625874285713A3,3,0,1,1,795.64,172.58625874285713A3,3,0,1,1,789.64,172.58625874285713Z" id="point-0-41" opacity="1"/><path class="data-point" fill="#11A579" data-type="point" transform="translate(0, 0)" d="M807.56,151.95981394285712A3,3,0,1,1,813.56,151.95981394285712A3,3,0,1,1,807.56,151.95981394285712Z" id="point-0-42" opacity="1"/><path class="data-point" fill="#11A579" data-type="point" transform="translate(0, 0)" d="M825.48,130.2398537142857A3,3,0,1,1,831.48,130.2398537142857A3,3,0,1,1,825.48,130.2398537142857Z" id="point-0-43" opacity="1"/><path class="data-point" fill="#11A579" data-type="point" transform="translate(0, 0)" d="M843.4,107.36829257142864A3,3,0,1,1,849.4,107.36829257142864A3,3,0,1,1,843.4,107.36829257142864Z" id="point-0-44" opacity="1"/><path class="data-point" fill="#11A579" data-type="point" transform="translate(0, 0)" d="M861.32,83.28399634285711A3,3,0,1,1,867.32,83.28399634285711A3,3,0,1,1,861.32,83.28399634285711Z" id="point-0-45" opacity="1"/><path class="data-point" fill="#11A579" data-type="point" transform="translate(0, 0)" d="M879.24,57.9226217142857A3,3,0,1,1,885.24,57.9226217142857A3,3,0,1,1,879.24,57.9226217142857Z" id="point-0-46" opacity="1"/></g><g class="series" transform="translate(15,20)"><path class="data-point" fill="#802392" data-type="point" transform="translate(0, 0)" d="M54.92,514.8267428571429A3,3,0,1,1,60.92,514.8267428571429A3,3,0,1,1,54.92,514.8267428571429Z" id="point-1-0" opacity="1"/><path class="data-point" fill="#802392" data-type="point" transform="translate(0, 0)" d="M72.84,510.9276342857143A3,3,0,1,1,78.84,510.9276342857143A3,3,0,1,1,72.84,510.9276342857143Z" id="point-1-1" opacity="1"/><path class="data-point" fill="#802392" data-type="point" transform="translate(0, 0)" d="M90.75999999999999,508.85773714285716A3,3,0,1,1,96.75999999999999,508.85773714285716A3,3,0,1,1,90.75999999999999,508.85773714285716Z" id="point-1-2" opacity="1"/><path class="data-point" fill="#802392" data-type="point" transform="translate(0, 0)" d="M108.68,505.77696000000003A3,3,0,1,1,114.68,505.77696000000003A3,3,0,1,1,108.68,505.77696000000003Z" id="point-1-3" opacity="1"/><path class="data-point" fill="#802392" data-type="point" transform="translate(0, 0)" d="M126.60000000000002,502.51968A3,3,0,1,1,132.60000000000002,502.51968A3,3,0,1,1,126.60000000000002,502.51968Z" id="point-1-4" opacity="1"/><path class="data-point" fill="#802392" data-type="point" transform="translate(0, 0)" d="M144.51999999999998,497.8985142857143A3,3,0,1,1,150.51999999999998,497.8985142857143A3,3,0,1,1,144.51999999999998,497.8985142857143Z" id="point-1-5" opacity="1"/><path class="data-point" fill="#802392" data-type="point" transform="translate(0, 0)" d="M162.44,492.3787885714286A3,3,0,1,1,168.44,492.3787885714286A3,3,0,1,1,162.44,492.3787885714286Z" id="point-1-6" opacity="1"/><path class="data-point" fill="#802392" data-type="point" transform="translate(0, 0)" d="M180.36,486.53814857142856A3,3,0,1,1,186.36,486.53814857142856A3,3,0,1,1,180.36,486.53814857142856Z" id="point-1-7" opacity="1"/><path class="data-point" fill="#802392" data-type="point" transform="translate(0, 0)" d="M198.28,481.22701714285716A3,3,0,1,1,204.28,481.22701714285716A3,3,0,1,1,198.28,481.22701714285716Z" id="point-1-8" opacity="1"/><path class="data-point" fill="#802392" data-type="point" transform="translate(0, 0)" d="M216.20000000000002,475.57892571428573A3,3,0,1,1,222.20000000000002,475.57892571428573A3,3,0,1,1,216.20000000000002,475.57892571428573Z" id="point-1-9" opacity="1"/><path class="data-point" fill="#802392" data-type="point" transform="translate(0, 0)" d="M234.12,467.5721142857143A3,3,0,1,1,240.12,467.5721142857143A3,3,0,1,1,234.12,467.5721142857143Z" id="point-1-10" opacity="1"/><path class="data-point" fill="#802392" data-type="point" transform="translate(0, 0)" d="M252.04,456.85357714285715A3,3,0,1,1,258.03999999999996,456.85357714285715A3,3,0,1,1,252.04,456.85357714285715Z" id="point-1-11" opacity="1"/><path class="data-point" fill="#802392" data-type="point" transform="translate(0, 0)" d="M269.96000000000004,446.1831771428572A3,3,0,1,1,275.96000000000004,446.1831771428572A3,3,0,1,1,269.96000000000004,446.1831771428572Z" id="point-1-12" opacity="1"/><path class="data-point" fill="#802392" data-type="point" transform="translate(0, 0)" d="M287.88,435.17581714285717A3,3,0,1,1,293.88,435.17581714285717A3,3,0,1,1,287.88,435.17581714285717Z" id="point-1-13" opacity="1"/><path class="data-point" fill="#802392" data-type="point" transform="translate(0, 0)" d="M305.8,425.1151542857143A3,3,0,1,1,311.8,425.1151542857143A3,3,0,1,1,305.8,425.1151542857143Z" id="point-1-14" opacity="1"/><path class="data-point" fill="#802392" data-type="point" transform="translate(0, 0)" d="M323.72,413.49805714285714A3,3,0,1,1,329.72,413.49805714285714A3,3,0,1,1,323.72,413.49805714285714Z" id="point-1-15" opacity="1"/><path class="data-point" fill="#802392" data-type="point" transform="translate(0, 0)" d="M341.64000000000004,403.34112000000005A3,3,0,1,1,347.64000000000004,403.34112000000005A3,3,0,1,1,341.64000000000004,403.34112000000005Z" id="point-1-16" opacity="1"/><path class="data-point" fill="#802392" data-type="point" transform="translate(0, 0)" d="M359.56,390.9698742857143A3,3,0,1,1,365.56,390.9698742857143A3,3,0,1,1,359.56,390.9698742857143Z" id="point-1-17" opacity="1"/><path class="data-point" fill="#802392" data-type="point" transform="translate(0, 0)" d="M377.48,384.7280914285715A3,3,0,1,1,383.48,384.7280914285715A3,3,0,1,1,377.48,384.7280914285715Z" id="point-1-18" opacity="1"/><path class="data-point" fill="#802392" data-type="point" transform="translate(0, 0)" d="M395.40000000000003,377.5717028571429A3,3,0,1,1,401.40000000000003,377.5717028571429A3,3,0,1,1,395.40000000000003,377.5717028571429Z" id="point-1-19" opacity="1"/><path class="data-point" fill="#802392" data-type="point" transform="translate(0, 0)" d="M413.32,367.8159085714286A3,3,0,1,1,419.32,367.8159085714286A3,3,0,1,1,413.32,367.8159085714286Z" id="point-1-20" opacity="1"/><path class="data-point" fill="#802392" data-type="point" transform="translate(0, 0)" d="M431.24,361.33344A3,3,0,1,1,437.24,361.33344A3,3,0,1,1,431.24,361.33344Z" id="point-1-21" opacity="1"/><path class="data-point" fill="#802392" data-type="point" transform="translate(0, 0)" d="M449.16,358.8784457142857A3,3,0,1,1,455.16,358.8784457142857A3,3,0,1,1,449.16,358.8784457142857Z" id="point-1-22" opacity="1"/><path class="data-point" fill="#802392" data-type="point" transform="translate(0, 0)" d="M467.08,354.70656A3,3,0,1,1,473.08,354.70656A3,3,0,1,1,467.08,354.70656Z" id="point-1-23" opacity="1"/><path class="data-point" fill="#802392" data-type="point" transform="translate(0, 0)" d="M485,349.82866285714283A3,3,0,1,1,491,349.82866285714283A3,3,0,1,1,485,349.82866285714283Z" id="point-1-24" opacity="1"/><path class="data-point" fill="#802392" data-type="point" transform="translate(0, 0)" d="M502.92,345.56050285714286A3,3,0,1,1,508.92,345.56050285714286A3,3,0,1,1,502.92,345.56050285714286Z" id="point-1-25" opacity="1"/><path class="data-point" fill="#802392" data-type="point" transform="translate(0, 0)" d="M520.84,340.6184228571429A3,3,0,1,1,526.84,340.6184228571429A3,3,0,1,1,520.84,340.6184228571429Z" id="point-1-26" opacity="1"/><path class="data-point" fill="#802392" data-type="point" transform="translate(0, 0)" d="M538.76,335.4837942857143A3,3,0,1,1,544.76,335.4837942857143A3,3,0,1,1,538.76,335.4837942857143Z" id="point-1-27" opacity="1"/><path class="data-point" fill="#802392" data-type="point" transform="translate(0, 0)" d="M556.68,331.5062221714286A3,3,0,1,1,562.68,331.5062221714286A3,3,0,1,1,556.68,331.5062221714286Z" id="point-1-28" opacity="1"/><path class="data-point" fill="#802392" data-type="point" transform="translate(0, 0)" d="M574.6,322.01839131428574A3,3,0,1,1,580.6,322.01839131428574A3,3,0,1,1,574.6,322.01839131428574Z" id="point-1-29" opacity="1"/><path class="data-point" fill="#802392" data-type="point" transform="translate(0, 0)" d="M592.52,312.13920548571434A3,3,0,1,1,598.52,312.13920548571434A3,3,0,1,1,592.52,312.13920548571434Z" id="point-1-30" opacity="1"/><path class="data-point" fill="#802392" data-type="point" transform="translate(0, 0)" d="M610.44,301.8527794285714A3,3,0,1,1,616.44,301.8527794285714A3,3,0,1,1,610.44,301.8527794285714Z" id="point-1-31" opacity="1"/><path class="data-point" fill="#802392" data-type="point" transform="translate(0, 0)" d="M628.36,291.1421046857143A3,3,0,1,1,634.36,291.1421046857143A3,3,0,1,1,628.36,291.1421046857143Z" id="point-1-32" opacity="1"/><path class="data-point" fill="#802392" data-type="point" transform="translate(0, 0)" d="M646.2800000000001,279.9896914285714A3,3,0,1,1,652.2800000000001,279.9896914285714A3,3,0,1,1,646.2800000000001,279.9896914285714Z" id="point-1-33" opacity="1"/><path class="data-point" fill="#802392" data-type="point" transform="translate(0, 0)" d="M664.1999999999999,268.3775684571429A3,3,0,1,1,670.1999999999999,268.3775684571429A3,3,0,1,1,664.1999999999999,268.3775684571429Z" id="point-1-34" opacity="1"/><path class="data-point" fill="#802392" data-type="point" transform="translate(0, 0)" d="M682.12,256.2864809142858A3,3,0,1,1,688.12,256.2864809142858A3,3,0,1,1,682.12,256.2864809142858Z" id="point-1-35" opacity="1"/><path class="data-point" fill="#802392" data-type="point" transform="translate(0, 0)" d="M700.04,243.69701348571425A3,3,0,1,1,706.04,243.69701348571425A3,3,0,1,1,700.04,243.69701348571425Z" id="point-1-36" opacity="1"/><path class="data-point" fill="#802392" data-type="point" transform="translate(0, 0)" d="M717.96,230.5881462857143A3,3,0,1,1,723.96,230.5881462857143A3,3,0,1,1,717.96,230.5881462857143Z" id="point-1-37" opacity="1"/><path class="data-point" fill="#802392" data-type="point" transform="translate(0, 0)" d="M735.88,216.93901988571434A3,3,0,1,1,741.88,216.93901988571434A3,3,0,1,1,735.88,216.93901988571434Z" id="point-1-38" opacity="1"/><path class="data-point" fill="#802392" data-type="point" transform="translate(0, 0)" d="M753.8000000000001,202.7268493714286A3,3,0,1,1,759.8000000000001,202.7268493714286A3,3,0,1,1,753.8000000000001,202.7268493714286Z" id="point-1-39" opacity="1"/><path class="data-point" fill="#802392" data-type="point" transform="translate(0, 0)" d="M771.7199999999999,187.92868937142862A3,3,0,1,1,777.7199999999999,187.92868937142862A3,3,0,1,1,771.7199999999999,187.92868937142862Z" id="point-1-40" opacity="1"/><path class="data-point" fill="#802392" data-type="point" transform="translate(0, 0)" d="M789.64,172.52047131428571A3,3,0,1,1,795.64,172.52047131428571A3,3,0,1,1,789.64,172.52047131428571Z" id="point-1-41" opacity="1"/><path class="data-point" fill="#802392" data-type="point" transform="translate(0, 0)" d="M807.56,156.47684297142854A3,3,0,1,1,813.56,156.47684297142854A3,3,0,1,1,807.56,156.47684297142854Z" id="point-1-42" opacity="1"/><path class="data-point" fill="#802392" data-type="point" transform="translate(0, 0)" d="M825.48,139.77148937142863A3,3,0,1,1,831.48,139.77148937142863A3,3,0,1,1,825.48,139.77148937142863Z" id="point-1-43" opacity="1"/><path class="data-point" fill="#802392" data-type="point" transform="translate(0, 0)" d="M843.4,122.3774537142857A3,3,0,1,1,849.4,122.3774537142857A3,3,0,1,1,843.4,122.3774537142857Z" id="point-1-44" opacity="1"/><path class="data-point" fill="#802392" data-type="point" transform="translate(0, 0)" d="M861.32,104.26617462857138A3,3,0,1,1,867.32,104.26617462857138A3,3,0,1,1,861.32,104.26617462857138Z" id="point-1-45" opacity="1"/><path class="data-point" fill="#802392" data-type="point" transform="translate(0, 0)" d="M879.24,85.40796754285714A3,3,0,1,1,885.24,85.40796754285714A3,3,0,1,1,879.24,85.40796754285714Z" id="point-1-46" opacity="1"/></g></g><g id="data-labels"/><g class="annotations above"><g class="axis-highlights" transform="translate(15, 20)" style="opacity: 1;"/></g></svg>