<svg xmlns="http://www.w3.org/2000/svg" id="graphic" width="961" height="634.6"><g id="facets"><g class="facet" transform="translate(15,20)" opacity="1"><text class="facet-title" y="0" font-size="16" font-weight="bold" dominant-baseline="middle" x="0" clip-path="url(#facet-clip-0)" fill="black"/><g class="plot"><clipPath class="facet-clip" id="facet-clip-0"><rect width="951" height="581.6" transform="translate(-7.5,-10)"/></clipPath><g class="bg"><rect fill="none" width="936" height="561.6" style="fill: none;"/></g><g class="interaction"><g class="series"><path data-target="point-0-0" d="M0,516.65328L65.68671031428572,516.65328L68.0389150857143,513.66432L0,99.69438901347559Z" style="opacity: 0;"/><path data-target="point-0-1" d="M0,99.69438901347559L68.0389150857143,513.66432L84.10654133428571,513.66432L86.22992252,511.19951999999995L0,45.72085592442738Z" style="opacity: 0;"/><path data-target="point-0-2" d="M0,45.72085592442738L86.22992252,511.19951999999995L101.62613156571427,511.19951999999995L103.80247397142855,508.81584L36.4752351428575,0L0,0Z" style="opacity: 0;"/><path data-target="point-0-3" d="M36.4752351428575,0L103.80247397142855,508.81584L119.49493036000003,508.81584L122.00505838857141,506.03904L36.71940732571496,0Z" style="opacity: 0;"/><path data-target="point-0-4" d="M36.71940732571496,0L122.00505838857141,506.03904L136.99303972571428,506.03904L139.88756356571426,502.71936L88.78693648695705,202.00108379041563L79.40301528431037,155.5378134678503L43.584878811428105,0Z" style="opacity: 0;"/><path data-target="point-0-5" d="M88.78693648695705,202.00108379041563L139.88756356571426,502.71936L154.75784557714286,502.71936L158.16210432,498.47616Z" style="opacity: 0;"/><path data-target="point-0-6" d="M79.40301528431037,155.5378134678503L88.78693648695705,202.00108379041563L158.16210432,498.47616L172.62201183999997,498.47616L176.41244813714286,493.63391999999993Z" style="opacity: 0;"/><path data-target="point-0-7" d="M43.584878811428105,0L79.40301528431037,155.5378134678503L176.41244813714286,493.63391999999993L190.58669012857143,493.63392L193.71293179999998,489.90864L142.3368614007664,212.5749266438088L96.70682878523388,57.68119890726132L76.84904604000012,0Z" style="opacity: 0;"/><path data-target="point-0-8" d="M142.3368614007664,212.5749266438088L193.71293179999998,489.90864L208.52827529142857,489.90864L211.45571357142856,486.15216L188.20523896103913,352.61097249417367L186.6802698979352,346.52847480657977Z" style="opacity: 0;"/><path data-target="point-0-9" d="M188.20523896103913,352.61097249417367L211.45571357142856,486.15216L226.27339505714284,486.15216L229.93696257142855,480.1056Z" style="opacity: 0;"/><path data-target="point-0-10" d="M186.6802698979352,346.52847480657977L188.20523896103913,352.61097249417367L229.93696257142855,480.1056L244.12922623999998,480.1056L248.14174591999998,471.53184Z" style="opacity: 0;"/><path data-target="point-0-11" d="M96.70682878523388,57.68119890726132L142.3368614007664,212.5749266438088L186.6802698979352,346.52847480657977L248.14174591999998,471.53184L261.93950129999996,471.53184L265.84050560571427,463.67567999999994L114.22373436279054,97.16703847346406Z" style="opacity: 0;"/><path data-target="point-0-12" d="M114.22373436279054,97.16703847346406L265.84050560571427,463.67567999999994L280.06869964,463.67567999999994L283.75510822857143,455.15184Z" style="opacity: 0;"/><path data-target="point-0-13" d="M76.84904604000012,0L96.70682878523388,57.68119890726132L114.22373436279054,97.16703847346406L283.75510822857143,455.15184L298.0035098342857,455.15184L301.72042533714284,447.23328L172.41104756621328,158.01987816390817L81.56513743142867,0Z" style="opacity: 0;"/><path data-target="point-0-14" d="M172.41104756621328,158.01987816390817L301.72042533714284,447.23328L315.89739209142857,447.23328L319.5197013942857,438.44736L231.58300919999954,253.8449172469628Z" style="opacity: 0;"/><path data-target="point-0-15" d="M231.58300919999954,253.8449172469628L319.5197013942857,438.44736L333.91121171714286,438.44736L338.03838437714285,429.23087999999996L254.67759005587328,287.40913732193764Z" style="opacity: 0;"/><path data-target="point-0-16" d="M254.67759005587328,287.40913732193764L338.03838437714285,429.23087999999996L351.20100926857145,429.23087999999996L357.1222535771428,417.35616Z" style="opacity: 0;"/><path data-target="point-0-17" d="M81.56513743142867,0L172.41104756621328,158.01987816390817L231.58300919999954,253.8449172469628L254.67759005587328,287.40913732193764L357.1222535771428,417.35616L369.05358551142854,417.35616L373.8913085314286,412.59504L318.3491598177939,199.3521819194079L302.0676717187905,146.69779675284582L244.3957905685712,0Z" style="opacity: 0;"/><path data-target="point-0-18" d="M318.3491598177939,199.3521819194079L373.8913085314286,412.59504L386.75173245142855,412.59504L392.53813793714284,406.60464Z" style="opacity: 0;"/><path data-target="point-0-19" d="M302.0676717187905,146.69779675284582L318.3491598177939,199.3521819194079L392.53813793714284,406.60464L403.9436427885714,406.60464L410.75388117714283,399.04175999999995L323.543891300179,191.71626190567198Z" style="opacity: 0;"/><path data-target="point-0-20" d="M323.543891300179,191.71626190567198L410.75388117714283,399.04175999999995L422.6587868228571,399.04176L430.2499239942857,391.74096Z" style="opacity: 0;"/><path data-target="point-0-21" d="M244.3957905685712,0L302.0676717187905,146.69779675284582L323.543891300179,191.71626190567198L430.2499239942857,391.74096L441.7997326342857,391.74096L447.5746915085714,387.80352L318.47766972571435,0Z" style="opacity: 0;"/><path data-target="point-0-22" d="M318.47766972571435,0L447.5746915085714,387.80352L458.49414559999997,387.80352L465.4627592,383.49791999999997L350.61882851428584,0Z" style="opacity: 0;"/><path data-target="point-0-23" d="M350.61882851428584,0L465.4627592,383.49791999999997L475.803312,383.49791999999997L483.93762,378.73056L362.6085798857148,0Z" style="opacity: 0;"/><path data-target="point-0-24" d="M362.6085798857148,0L483.93762,378.73056L493.90364175999997,378.73055999999997L500.65980208,375.06143999999995L453.89426992876383,166.5194906076447L408.0865422000002,0Z" style="opacity: 0;"/><path data-target="point-0-25" d="M453.89426992876383,166.5194906076447L500.65980208,375.06143999999995L511.32232016,375.06143999999995L520.2858252114285,370.2192Z" style="opacity: 0;"/><path data-target="point-0-26" d="M408.0865422000002,0L453.89426992876383,166.5194906076447L520.2858252114285,370.2192L528.8978962285714,370.2192L538.1653926857143,365.47679999999997L452.61593158836865,86.2944094725346L433.4000335316939,41.602228984123315L413.86969487586776,0Z" style="opacity: 0;"/><path data-target="point-0-27" d="M452.61593158836865,86.2944094725346L538.1653926857143,365.47679999999997L547.4902588684021,365.47679999999997L555.2285305646519,361.770677L534.674728268613,276.4824057549867L486.8411643208307,158.9380737095382Z" style="opacity: 0;"/><path data-target="point-0-28" d="M534.674728268613,276.4824057549867L555.2285305646519,361.770677L561.5662192234142,361.770677L578.4809655301691,352.94787849999994Z" style="opacity: 0;"/><path data-target="point-0-29" d="M486.8411643208307,158.9380737095382L534.674728268613,276.4824057549867L578.4809655301691,352.94787849999994L578.6408015387492,352.9478785L595.9799970457291,344.5359728115903L597.2043602128456,343.0195541871284Z" style="opacity: 0;"/><path data-target="point-0-30" d="M433.4000335316939,41.602228984123315L452.61593158836865,86.2944094725346L486.8411643208307,158.9380737095382L597.2043602128456,343.0195541871284L613.2680567007355,335.7651706178145L616.0035350780198,332.6379631762426Z" style="opacity: 0;"/><path data-target="point-0-31" d="M413.86969487586776,0L433.4000335316939,41.602228984123315L616.0035350780198,332.6379631762426L630.4676632731573,326.5526638826834L634.9253857451115,321.8426023617063L423.6013419184849,0Z" style="opacity: 0;"/><path data-target="point-0-32" d="M423.6013419184849,0L634.9253857451115,321.8426023617063L647.5698502178936,316.8829344142631L653.9839068779642,310.61142749655863L440.54660581107834,0Z" style="opacity: 0;"/><path data-target="point-0-33" d="M440.54660581107834,0L653.9839068779642,310.61142749655863L664.5640939162226,306.7396050207254L673.1943136819979,298.92175675814025L458.2342237423941,0Z" style="opacity: 0;"/><path data-target="point-0-34" d="M458.2342237423941,0L673.1943136819979,298.92175675814025L681.439559742648,296.1047405626479L692.5738288850588,286.75027623365685L476.77285176034223,0Z" style="opacity: 0;"/><path data-target="point-0-35" d="M476.77285176034223,0L692.5738288850588,286.75027623365685L698.1831725033431,284.9599267657152L712.1410347755658,274.07294703029515L496.28934882361784,0Z" style="opacity: 0;"/><path data-target="point-0-36" d="M496.28934882361784,0L712.1410347755658,274.07294703029515L714.7819535294711,273.28501498067675L731.3523153768851,261.2744548966209L731.7716928377264,260.6872151664558L516.9090568397423,0Z" style="opacity: 0;"/><path data-target="point-0-37" d="M516.9090568397423,0L731.7716928377264,260.6872151664558L748.3032688722424,249.5423348224473L751.0151836755874,246.0421656430804L538.7920903614747,0Z" style="opacity: 0;"/><path data-target="point-0-38" d="M538.7920903614747,0L751.0151836755874,246.0421656430804L765.1052644527454,237.19975969439506L770.4568226089709,230.824238098884L562.0973473899907,0Z" style="opacity: 0;"/><path data-target="point-0-39" d="M562.0973473899907,0L770.4568226089709,230.824238098884L781.7423548116197,224.22615186280024L790.1189256207513,215.0025876360443L587.013803719771,0Z" style="opacity: 0;"/><path data-target="point-0-40" d="M587.013803719771,0L790.1189256207513,215.0025876360443L798.1971791471124,210.59928066421577L810.0268346520787,198.54508344807044L613.7435364651794,0Z" style="opacity: 0;"/><path data-target="point-0-41" d="M613.7435364651794,0L810.0268346520787,198.54508344807044L814.4506698149124,196.29532788442586L830.2086840091845,181.41887131001636L642.5139244865333,0Z" style="opacity: 0;"/><path data-target="point-0-42" d="M642.5139244865333,0L830.2086840091845,181.41887131001636L830.4809126046893,181.289619295284L847.1769830957561,166.67082698196697L849.7533486160672,162.71902894959234L673.5736150041946,0Z" style="opacity: 0;"/><path data-target="point-0-43" d="M673.5736150041946,0L849.7533486160672,162.71902894959234L871.5234179254411,145.02225205837894L707.2012695228851,0Z" style="opacity: 0;"/><path data-target="point-0-44" d="M707.2012695228851,0L871.5234179254411,145.02225205837894L901.1165654667753,132.75209349413078L743.6997997251186,0Z" style="opacity: 0;"/><path data-target="point-0-45" d="M743.6997997251186,0L901.1165654667753,132.75209349413078L936,126.947273803878L936,122.96302538764208L783.4087660359434,0Z" style="opacity: 0;"/><path data-target="point-0-46" d="M783.4087660359434,0L936,122.96302538764208L936,0Z" style="opacity: 0;"/><path data-target="point-1-0" d="M73.29314005428576,561.6L65.68671031428572,516.65328L0,516.65328L0,561.6Z" style="opacity: 0;"/><path data-target="point-1-1" d="M65.68671031428572,516.65328L73.29314005428576,561.6L88.41304858571425,561.6L84.10654133428571,513.66432L68.0389150857143,513.66432Z" style="opacity: 0;"/><path data-target="point-1-2" d="M84.10654133428571,513.66432L88.41304858571425,561.6L108.36539574857146,561.6L101.62613156571427,511.19951999999995L86.22992252,511.19951999999995Z" style="opacity: 0;"/><path data-target="point-1-3" d="M101.62613156571427,511.19951999999995L108.36539574857146,561.6L126.95729097999981,561.6L119.49493036000003,508.81584L103.80247397142855,508.81584Z" style="opacity: 0;"/><path data-target="point-1-4" d="M119.49493036000003,508.81584L126.95729097999981,561.6L148.13698084571433,561.6L136.99303972571428,506.03904L122.00505838857141,506.03904Z" style="opacity: 0;"/><path data-target="point-1-5" d="M136.99303972571428,506.03904L148.13698084571433,561.6L168.8639646171428,561.6L154.75784557714286,502.71936L139.88756356571426,502.71936Z" style="opacity: 0;"/><path data-target="point-1-6" d="M154.75784557714286,502.71936L168.8639646171428,561.6L188.6239052800001,561.6L172.62201183999997,498.47616L158.16210432,498.47616Z" style="opacity: 0;"/><path data-target="point-1-7" d="M172.62201183999997,498.47616L188.6239052800001,561.6L206.25408524857139,561.6L190.58669012857143,493.63392L176.41244813714286,493.63391999999993Z" style="opacity: 0;"/><path data-target="point-1-8" d="M190.58669012857143,493.63392L206.25408524857139,561.6L226.1029001142858,561.6L208.52827529142857,489.90864L193.71293179999998,489.90864Z" style="opacity: 0;"/><path data-target="point-1-9" d="M208.52827529142857,489.90864L226.1029001142858,561.6L252.4928667399999,561.6L226.27339505714284,486.15216L211.45571357142856,486.15216Z" style="opacity: 0;"/><path data-target="point-1-10" d="M226.27339505714284,486.15216L252.4928667399999,561.6L282.0415853257142,561.6L244.12922623999998,480.1056L229.93696257142855,480.1056Z" style="opacity: 0;"/><path data-target="point-1-11" d="M244.12922623999998,480.1056L282.0415853257142,561.6L303.6523179000002,561.6L261.93950129999996,471.53184L248.14174591999998,471.53184Z" style="opacity: 0;"/><path data-target="point-1-12" d="M261.93950129999996,471.53184L303.6523179000002,561.6L326.8520435199997,561.6L280.06869964,463.67567999999994L265.84050560571427,463.67567999999994Z" style="opacity: 0;"/><path data-target="point-1-13" d="M280.06869964,463.67567999999994L326.8520435199997,561.6L344.48523941428584,561.6L298.0035098342857,455.15184L283.75510822857143,455.15184Z" style="opacity: 0;"/><path data-target="point-1-14" d="M298.0035098342857,455.15184L344.48523941428584,561.6L373.56272612571456,561.6L315.89739209142857,447.23328L301.72042533714284,447.23328Z" style="opacity: 0;"/><path data-target="point-1-15" d="M315.89739209142857,447.23328L373.56272612571456,561.6L388.2017335685713,561.6L333.91121171714286,438.44736L319.5197013942857,438.44736Z" style="opacity: 0;"/><path data-target="point-1-16" d="M333.91121171714286,438.44736L388.2017335685713,561.6L415.2034613714285,561.6L393.726231016006,508.42913793529357L351.20100926857145,429.23087999999996L338.03838437714285,429.23087999999996Z" style="opacity: 0;"/><path data-target="point-1-17" d="M351.20100926857145,429.23087999999996L393.726231016006,508.42913793529357L369.05358551142854,417.35616L357.1222535771428,417.35616Z" style="opacity: 0;"/><path data-target="point-1-18" d="M369.05358551142854,417.35616L393.726231016006,508.42913793529357L415.2034613714285,561.6L433.0337373485714,561.6L386.75173245142855,412.59504L373.8913085314286,412.59504Z" style="opacity: 0;"/><path data-target="point-1-19" d="M386.75173245142855,412.59504L433.0337373485714,561.6L465.95587847142855,561.6L459.56123381330985,537.9552260908124L403.9436427885714,406.60464L392.53813793714284,406.60464Z" style="opacity: 0;"/><path data-target="point-1-20" d="M403.9436427885714,406.60464L459.56123381330985,537.9552260908124L454.71944155906607,512.991789527018L422.6587868228571,399.04176L410.75388117714283,399.04175999999995Z" style="opacity: 0;"/><path data-target="point-1-21" d="M422.6587868228571,399.04176L454.71944155906607,512.991789527018L441.7997326342857,391.74096L430.2499239942857,391.74096Z" style="opacity: 0;"/><path data-target="point-1-22" d="M441.7997326342857,391.74096L454.71944155906607,512.991789527018L459.56123381330985,537.9552260908124L465.95587847142855,561.6L489.9637225142862,561.6L458.49414559999997,387.80352L447.5746915085714,387.80352Z" style="opacity: 0;"/><path data-target="point-1-23" d="M458.49414559999997,387.80352L489.9637225142862,561.6L513.5100666514281,561.6L475.803312,383.49791999999997L465.4627592,383.49791999999997Z" style="opacity: 0;"/><path data-target="point-1-24" d="M475.803312,383.49791999999997L513.5100666514281,561.6L527.7802055200001,561.6L493.90364175999997,378.73055999999997L483.93762,378.73056Z" style="opacity: 0;"/><path data-target="point-1-25" d="M493.90364175999997,378.73055999999997L527.7802055200001,561.6L551.3348412799999,561.6L511.32232016,375.06143999999995L500.65980208,375.06143999999995Z" style="opacity: 0;"/><path data-target="point-1-26" d="M511.32232016,375.06143999999995L551.3348412799999,561.6L571.548474514286,561.6L528.8978962285714,370.2192L520.2858252114285,370.2192Z" style="opacity: 0;"/><path data-target="point-1-27" d="M528.8978962285714,370.2192L571.548474514286,561.6L581.3485106415269,561.6L547.4902588684021,365.47679999999997L538.1653926857143,365.47679999999997Z" style="opacity: 0;"/><path data-target="point-1-28" d="M547.4902588684021,365.47679999999997L581.3485106415269,561.6L643.8555775967375,561.6L561.5662192234142,361.770677L555.2285305646519,361.770677Z" style="opacity: 0;"/><path data-target="point-1-29" d="M561.5662192234142,361.770677L643.8555775967375,561.6L668.107512830883,561.6L578.6408015387492,352.9478785L578.4809655301691,352.94787849999994Z" style="opacity: 0;"/><path data-target="point-1-30" d="M578.6408015387492,352.9478785L668.107512830883,561.6L692.8902911851453,561.6L595.9799970457291,344.5359728115903Z" style="opacity: 0;"/><path data-target="point-1-31" d="M595.9799970457291,344.5359728115903L692.8902911851453,561.6L718.2525819261278,561.6L613.2680567007355,335.7651706178145L597.2043602128456,343.0195541871284Z" style="opacity: 0;"/><path data-target="point-1-32" d="M613.2680567007355,335.7651706178145L718.2525819261278,561.6L744.2413163517225,561.6L630.4676632731573,326.5526638826834L616.0035350780198,332.6379631762426Z" style="opacity: 0;"/><path data-target="point-1-33" d="M630.4676632731573,326.5526638826834L744.2413163517225,561.6L770.9068552466043,561.6L647.5698502178936,316.8829344142631L634.9253857451115,321.8426023617063Z" style="opacity: 0;"/><path data-target="point-1-34" d="M647.5698502178936,316.8829344142631L770.9068552466043,561.6L798.3114585588448,561.6L664.5640939162226,306.7396050207254L653.9839068779642,310.61142749655863Z" style="opacity: 0;"/><path data-target="point-1-35" d="M664.5640939162226,306.7396050207254L798.3114585588448,561.6L826.5109104859932,561.6L681.439559742648,296.1047405626479L673.1943136819979,298.92175675814025Z" style="opacity: 0;"/><path data-target="point-1-36" d="M681.439559742648,296.1047405626479L826.5109104859932,561.6L855.5806605458154,561.6L698.1831725033431,284.9599267657152L692.5738288850588,286.75027623365685Z" style="opacity: 0;"/><path data-target="point-1-37" d="M698.1831725033431,284.9599267657152L855.5806605458154,561.6L885.5826305869662,561.6L714.7819535294711,273.28501498067675L712.1410347755658,274.07294703029515Z" style="opacity: 0;"/><path data-target="point-1-38" d="M714.7819535294711,273.28501498067675L885.5826305869662,561.6L916.607440745147,561.6L731.3523153768851,261.2744548966209Z" style="opacity: 0;"/><path data-target="point-1-39" d="M731.3523153768851,261.2744548966209L916.607440745147,561.6L936,561.6L936,541.7768210817881L748.3032688722424,249.5423348224473L731.7716928377264,260.6872151664558Z" style="opacity: 0;"/><path data-target="point-1-40" d="M748.3032688722424,249.5423348224473L936,541.7768210817881L936,492.7396858258451L765.1052644527454,237.19975969439506L751.0151836755874,246.0421656430804Z" style="opacity: 0;"/><path data-target="point-1-41" d="M765.1052644527454,237.19975969439506L936,492.7396858258451L936,445.7531004594669L781.7423548116197,224.22615186280024L770.4568226089709,230.824238098884Z" style="opacity: 0;"/><path data-target="point-1-42" d="M781.7423548116197,224.22615186280024L936,445.7531004594669L936,400.65673287993104L798.1971791471124,210.59928066421577L790.1189256207513,215.0025876360443Z" style="opacity: 0;"/><path data-target="point-1-43" d="M798.1971791471124,210.59928066421577L936,400.65673287993104L936,357.29859966489215L814.4506698149124,196.29532788442586L810.0268346520787,198.54508344807044Z" style="opacity: 0;"/><path data-target="point-1-44" d="M814.4506698149124,196.29532788442586L936,357.29859966489215L936,315.5241938450472L830.4809126046893,181.289619295284L830.2086840091845,181.41887131001636Z" style="opacity: 0;"/><path data-target="point-1-45" d="M830.4809126046893,181.289619295284L936,315.5241938450472L936,275.1902751170477L847.1769830957561,166.67082698196697Z" style="opacity: 0;"/><path data-target="point-1-46" d="M847.1769830957561,166.67082698196697L936,275.1902751170477L936,126.947273803878L901.1165654667753,132.75209349413078L871.5234179254411,145.02225205837894L849.7533486160672,162.71902894959234Z" style="opacity: 0;"/></g><g class="series"><path data-target="point-0-0" d="M0,516.65328L65.68671031428572,516.65328L68.0389150857143,513.66432L0,99.69438901347559Z" style="opacity: 0;"/><path data-target="point-0-1" d="M0,99.69438901347559L68.0389150857143,513.66432L84.10654133428571,513.66432L86.22992252,511.19951999999995L0,45.72085592442738Z" style="opacity: 0;"/><path data-target="point-0-2" d="M0,45.72085592442738L86.22992252,511.19951999999995L101.62613156571427,511.19951999999995L103.80247397142855,508.81584L36.4752351428575,0L0,0Z" style="opacity: 0;"/><path data-target="point-0-3" d="M36.4752351428575,0L103.80247397142855,508.81584L119.49493036000003,508.81584L122.00505838857141,506.03904L36.71940732571496,0Z" style="opacity: 0;"/><path data-target="point-0-4" d="M36.71940732571496,0L122.00505838857141,506.03904L136.99303972571428,506.03904L139.88756356571426,502.71936L88.78693648695705,202.00108379041563L79.40301528431037,155.5378134678503L43.584878811428105,0Z" style="opacity: 0;"/><path data-target="point-0-5" d="M88.78693648695705,202.00108379041563L139.88756356571426,502.71936L154.75784557714286,502.71936L158.16210432,498.47616Z" style="opacity: 0;"/><path data-target="point-0-6" d="M79.40301528431037,155.5378134678503L88.78693648695705,202.00108379041563L158.16210432,498.47616L172.62201183999997,498.47616L176.41244813714286,493.63391999999993Z" style="opacity: 0;"/><path data-target="point-0-7" d="M43.584878811428105,0L79.40301528431037,155.5378134678503L176.41244813714286,493.63391999999993L190.58669012857143,493.63392L193.71293179999998,489.90864L142.3368614007664,212.5749266438088L96.70682878523388,57.68119890726132L76.84904604000012,0Z" style="opacity: 0;"/><path data-target="point-0-8" d="M142.3368614007664,212.5749266438088L193.71293179999998,489.90864L208.52827529142857,489.90864L211.45571357142856,486.15216L188.20523896103913,352.61097249417367L186.6802698979352,346.52847480657977Z" style="opacity: 0;"/><path data-target="point-0-9" d="M188.20523896103913,352.61097249417367L211.45571357142856,486.15216L226.27339505714284,486.15216L229.93696257142855,480.1056Z" style="opacity: 0;"/><path data-target="point-0-10" d="M186.6802698979352,346.52847480657977L188.20523896103913,352.61097249417367L229.93696257142855,480.1056L244.12922623999998,480.1056L248.14174591999998,471.53184Z" style="opacity: 0;"/><path data-target="point-0-11" d="M96.70682878523388,57.68119890726132L142.3368614007664,212.5749266438088L186.6802698979352,346.52847480657977L248.14174591999998,471.53184L261.93950129999996,471.53184L265.84050560571427,463.67567999999994L114.22373436279054,97.16703847346406Z" style="opacity: 0;"/><path data-target="point-0-12" d="M114.22373436279054,97.16703847346406L265.84050560571427,463.67567999999994L280.06869964,463.67567999999994L283.75510822857143,455.15184Z" style="opacity: 0;"/><path data-target="point-0-13" d="M76.84904604000012,0L96.70682878523388,57.68119890726132L114.22373436279054,97.16703847346406L283.75510822857143,455.15184L298.0035098342857,455.15184L301.72042533714284,447.23328L172.41104756621328,158.01987816390817L81.56513743142867,0Z" style="opacity: 0;"/><path data-target="point-0-14" d="M172.41104756621328,158.01987816390817L301.72042533714284,447.23328L315.89739209142857,447.23328L319.5197013942857,438.44736L231.58300919999954,253.8449172469628Z" style="opacity: 0;"/><path data-target="point-0-15" d="M231.58300919999954,253.8449172469628L319.5197013942857,438.44736L333.91121171714286,438.44736L338.03838437714285,429.23087999999996L254.67759005587328,287.40913732193764Z" style="opacity: 0;"/><path data-target="point-0-16" d="M254.67759005587328,287.40913732193764L338.03838437714285,429.23087999999996L351.20100926857145,429.23087999999996L357.1222535771428,417.35616Z" style="opacity: 0;"/><path data-target="point-0-17" d="M81.56513743142867,0L172.41104756621328,158.01987816390817L231.58300919999954,253.8449172469628L254.67759005587328,287.40913732193764L357.1222535771428,417.35616L369.05358551142854,417.35616L373.8913085314286,412.59504L318.3491598177939,199.3521819194079L302.0676717187905,146.69779675284582L244.3957905685712,0Z" style="opacity: 0;"/><path data-target="point-0-18" d="M318.3491598177939,199.3521819194079L373.8913085314286,412.59504L386.75173245142855,412.59504L392.53813793714284,406.60464Z" style="opacity: 0;"/><path data-target="point-0-19" d="M302.0676717187905,146.69779675284582L318.3491598177939,199.3521819194079L392.53813793714284,406.60464L403.9436427885714,406.60464L410.75388117714283,399.04175999999995L323.543891300179,191.71626190567198Z" style="opacity: 0;"/><path data-target="point-0-20" d="M323.543891300179,191.71626190567198L410.75388117714283,399.04175999999995L422.6587868228571,399.04176L430.2499239942857,391.74096Z" style="opacity: 0;"/><path data-target="point-0-21" d="M244.3957905685712,0L302.0676717187905,146.69779675284582L323.543891300179,191.71626190567198L430.2499239942857,391.74096L441.7997326342857,391.74096L447.5746915085714,387.80352L318.47766972571435,0Z" style="opacity: 0;"/><path data-target="point-0-22" d="M318.47766972571435,0L447.5746915085714,387.80352L458.49414559999997,387.80352L465.4627592,383.49791999999997L350.61882851428584,0Z" style="opacity: 0;"/><path data-target="point-0-23" d="M350.61882851428584,0L465.4627592,383.49791999999997L475.803312,383.49791999999997L483.93762,378.73056L362.6085798857148,0Z" style="opacity: 0;"/><path data-target="point-0-24" d="M362.6085798857148,0L483.93762,378.73056L493.90364175999997,378.73055999999997L500.65980208,375.06143999999995L453.89426992876383,166.5194906076447L408.0865422000002,0Z" style="opacity: 0;"/><path data-target="point-0-25" d="M453.89426992876383,166.5194906076447L500.65980208,375.06143999999995L511.32232016,375.06143999999995L520.2858252114285,370.2192Z" style="opacity: 0;"/><path data-target="point-0-26" d="M408.0865422000002,0L453.89426992876383,166.5194906076447L520.2858252114285,370.2192L528.8978962285714,370.2192L538.1653926857143,365.47679999999997L452.61593158836865,86.2944094725346L433.4000335316939,41.602228984123315L413.86969487586776,0Z" style="opacity: 0;"/><path data-target="point-0-27" d="M452.61593158836865,86.2944094725346L538.1653926857143,365.47679999999997L547.4902588684021,365.47679999999997L555.2285305646519,361.770677L534.674728268613,276.4824057549867L486.8411643208307,158.9380737095382Z" style="opacity: 0;"/><path data-target="point-0-28" d="M534.674728268613,276.4824057549867L555.2285305646519,361.770677L561.5662192234142,361.770677L578.4809655301691,352.94787849999994Z" style="opacity: 0;"/><path data-target="point-0-29" d="M486.8411643208307,158.9380737095382L534.674728268613,276.4824057549867L578.4809655301691,352.94787849999994L578.6408015387492,352.9478785L595.9799970457291,344.5359728115903L597.2043602128456,343.0195541871284Z" style="opacity: 0;"/><path data-target="point-0-30" d="M433.4000335316939,41.602228984123315L452.61593158836865,86.2944094725346L486.8411643208307,158.9380737095382L597.2043602128456,343.0195541871284L613.2680567007355,335.7651706178145L616.0035350780198,332.6379631762426Z" style="opacity: 0;"/><path data-target="point-0-31" d="M413.86969487586776,0L433.4000335316939,41.602228984123315L616.0035350780198,332.6379631762426L630.4676632731573,326.5526638826834L634.9253857451115,321.8426023617063L423.6013419184849,0Z" style="opacity: 0;"/><path data-target="point-0-32" d="M423.6013419184849,0L634.9253857451115,321.8426023617063L647.5698502178936,316.8829344142631L653.9839068779642,310.61142749655863L440.54660581107834,0Z" style="opacity: 0;"/><path data-target="point-0-33" d="M440.54660581107834,0L653.9839068779642,310.61142749655863L664.5640939162226,306.7396050207254L673.1943136819979,298.92175675814025L458.2342237423941,0Z" style="opacity: 0;"/><path data-target="point-0-34" d="M458.2342237423941,0L673.1943136819979,298.92175675814025L681.439559742648,296.1047405626479L692.5738288850588,286.75027623365685L476.77285176034223,0Z" style="opacity: 0;"/><path data-target="point-0-35" d="M476.77285176034223,0L692.5738288850588,286.75027623365685L698.1831725033431,284.9599267657152L712.1410347755658,274.07294703029515L496.28934882361784,0Z" style="opacity: 0;"/><path data-target="point-0-36" d="M496.28934882361784,0L712.1410347755658,274.07294703029515L714.7819535294711,273.28501498067675L731.3523153768851,261.2744548966209L731.7716928377264,260.6872151664558L516.9090568397423,0Z" style="opacity: 0;"/><path data-target="point-0-37" d="M516.9090568397423,0L731.7716928377264,260.6872151664558L748.3032688722424,249.5423348224473L751.0151836755874,246.0421656430804L538.7920903614747,0Z" style="opacity: 0;"/><path data-target="point-0-38" d="M538.7920903614747,0L751.0151836755874,246.0421656430804L765.1052644527454,237.19975969439506L770.4568226089709,230.824238098884L562.0973473899907,0Z" style="opacity: 0;"/><path data-target="point-0-39" d="M562.0973473899907,0L770.4568226089709,230.824238098884L781.7423548116197,224.22615186280024L790.1189256207513,215.0025876360443L587.013803719771,0Z" style="opacity: 0;"/><path data-target="point-0-40" d="M587.013803719771,0L790.1189256207513,215.0025876360443L798.1971791471124,210.59928066421577L810.0268346520787,198.54508344807044L613.7435364651794,0Z" style="opacity: 0;"/><path data-target="point-0-41" d="M613.7435364651794,0L810.0268346520787,198.54508344807044L814.4506698149124,196.29532788442586L830.2086840091845,181.41887131001636L642.5139244865333,0Z" style="opacity: 0;"/><path data-target="point-0-42" d="M642.5139244865333,0L830.2086840091845,181.41887131001636L830.4809126046893,181.289619295284L847.1769830957561,166.67082698196697L849.7533486160672,162.71902894959234L673.5736150041946,0Z" style="opacity: 0;"/><path data-target="point-0-43" d="M673.5736150041946,0L849.7533486160672,162.71902894959234L871.5234179254411,145.02225205837894L707.2012695228851,0Z" style="opacity: 0;"/><path data-target="point-0-44" d="M707.2012695228851,0L871.5234179254411,145.02225205837894L901.1165654667753,132.75209349413078L743.6997997251186,0Z" style="opacity: 0;"/><path data-target="point-0-45" d="M743.6997997251186,0L901.1165654667753,132.75209349413078L936,126.947273803878L936,122.96302538764208L783.4087660359434,0Z" style="opacity: 0;"/><path data-target="point-0-46" d="M783.4087660359434,0L936,122.96302538764208L936,0Z" style="opacity: 0;"/><path data-target="point-1-0" d="M73.29314005428576,561.6L65.68671031428572,516.65328L0,516.65328L0,561.6Z" style="opacity: 0;"/><path data-target="point-1-1" d="M65.68671031428572,516.65328L73.29314005428576,561.6L88.41304858571425,561.6L84.10654133428571,513.66432L68.0389150857143,513.66432Z" style="opacity: 0;"/><path data-target="point-1-2" d="M84.10654133428571,513.66432L88.41304858571425,561.6L108.36539574857146,561.6L101.62613156571427,511.19951999999995L86.22992252,511.19951999999995Z" style="opacity: 0;"/><path data-target="point-1-3" d="M101.62613156571427,511.19951999999995L108.36539574857146,561.6L126.95729097999981,561.6L119.49493036000003,508.81584L103.80247397142855,508.81584Z" style="opacity: 0;"/><path data-target="point-1-4" d="M119.49493036000003,508.81584L126.95729097999981,561.6L148.13698084571433,561.6L136.99303972571428,506.03904L122.00505838857141,506.03904Z" style="opacity: 0;"/><path data-target="point-1-5" d="M136.99303972571428,506.03904L148.13698084571433,561.6L168.8639646171428,561.6L154.75784557714286,502.71936L139.88756356571426,502.71936Z" style="opacity: 0;"/><path data-target="point-1-6" d="M154.75784557714286,502.71936L168.8639646171428,561.6L188.6239052800001,561.6L172.62201183999997,498.47616L158.16210432,498.47616Z" style="opacity: 0;"/><path data-target="point-1-7" d="M172.62201183999997,498.47616L188.6239052800001,561.6L206.25408524857139,561.6L190.58669012857143,493.63392L176.41244813714286,493.63391999999993Z" style="opacity: 0;"/><path data-target="point-1-8" d="M190.58669012857143,493.63392L206.25408524857139,561.6L226.1029001142858,561.6L208.52827529142857,489.90864L193.71293179999998,489.90864Z" style="opacity: 0;"/><path data-target="point-1-9" d="M208.52827529142857,489.90864L226.1029001142858,561.6L252.4928667399999,561.6L226.27339505714284,486.15216L211.45571357142856,486.15216Z" style="opacity: 0;"/><path data-target="point-1-10" d="M226.27339505714284,486.15216L252.4928667399999,561.6L282.0415853257142,561.6L244.12922623999998,480.1056L229.93696257142855,480.1056Z" style="opacity: 0;"/><path data-target="point-1-11" d="M244.12922623999998,480.1056L282.0415853257142,561.6L303.6523179000002,561.6L261.93950129999996,471.53184L248.14174591999998,471.53184Z" style="opacity: 0;"/><path data-target="point-1-12" d="M261.93950129999996,471.53184L303.6523179000002,561.6L326.8520435199997,561.6L280.06869964,463.67567999999994L265.84050560571427,463.67567999999994Z" style="opacity: 0;"/><path data-target="point-1-13" d="M280.06869964,463.67567999999994L326.8520435199997,561.6L344.48523941428584,561.6L298.0035098342857,455.15184L283.75510822857143,455.15184Z" style="opacity: 0;"/><path data-target="point-1-14" d="M298.0035098342857,455.15184L344.48523941428584,561.6L373.56272612571456,561.6L315.89739209142857,447.23328L301.72042533714284,447.23328Z" style="opacity: 0;"/><path data-target="point-1-15" d="M315.89739209142857,447.23328L373.56272612571456,561.6L388.2017335685713,561.6L333.91121171714286,438.44736L319.5197013942857,438.44736Z" style="opacity: 0;"/><path data-target="point-1-16" d="M333.91121171714286,438.44736L388.2017335685713,561.6L415.2034613714285,561.6L393.726231016006,508.42913793529357L351.20100926857145,429.23087999999996L338.03838437714285,429.23087999999996Z" style="opacity: 0;"/><path data-target="point-1-17" d="M351.20100926857145,429.23087999999996L393.726231016006,508.42913793529357L369.05358551142854,417.35616L357.1222535771428,417.35616Z" style="opacity: 0;"/><path data-target="point-1-18" d="M369.05358551142854,417.35616L393.726231016006,508.42913793529357L415.2034613714285,561.6L433.0337373485714,561.6L386.75173245142855,412.59504L373.8913085314286,412.59504Z" style="opacity: 0;"/><path data-target="point-1-19" d="M386.75173245142855,412.59504L433.0337373485714,561.6L465.95587847142855,561.6L459.56123381330985,537.9552260908124L403.9436427885714,406.60464L392.53813793714284,406.60464Z" style="opacity: 0;"/><path data-target="point-1-20" d="M403.9436427885714,406.60464L459.56123381330985,537.9552260908124L454.71944155906607,512.991789527018L422.6587868228571,399.04176L410.75388117714283,399.04175999999995Z" style="opacity: 0;"/><path data-target="point-1-21" d="M422.6587868228571,399.04176L454.71944155906607,512.991789527018L441.7997326342857,391.74096L430.2499239942857,391.74096Z" style="opacity: 0;"/><path data-target="point-1-22" d="M441.7997326342857,391.74096L454.71944155906607,512.991789527018L459.56123381330985,537.9552260908124L465.95587847142855,561.6L489.9637225142862,561.6L458.49414559999997,387.80352L447.5746915085714,387.80352Z" style="opacity: 0;"/><path data-target="point-1-23" d="M458.49414559999997,387.80352L489.9637225142862,561.6L513.5100666514281,561.6L475.803312,383.49791999999997L465.4627592,383.49791999999997Z" style="opacity: 0;"/><path data-target="point-1-24" d="M475.803312,383.49791999999997L513.5100666514281,561.6L527.7802055200001,561.6L493.90364175999997,378.73055999999997L483.93762,378.73056Z" style="opacity: 0;"/><path data-target="point-1-25" d="M493.90364175999997,378.73055999999997L527.7802055200001,561.6L551.3348412799999,561.6L511.32232016,375.06143999999995L500.65980208,375.06143999999995Z" style="opacity: 0;"/><path data-target="point-1-26" d="M511.32232016,375.06143999999995L551.3348412799999,561.6L571.548474514286,561.6L528.8978962285714,370.2192L520.2858252114285,370.2192Z" style="opacity: 0;"/><path data-target="point-1-27" d="M528.8978962285714,370.2192L571.548474514286,561.6L581.3485106415269,561.6L547.4902588684021,365.47679999999997L538.1653926857143,365.47679999999997Z" style="opacity: 0;"/><path data-target="point-1-28" d="M547.4902588684021,365.47679999999997L581.3485106415269,561.6L643.8555775967375,561.6L561.5662192234142,361.770677L555.2285305646519,361.770677Z" style="opacity: 0;"/><path data-target="point-1-29" d="M561.5662192234142,361.770677L643.8555775967375,561.6L668.107512830883,561.6L578.6408015387492,352.9478785L578.4809655301691,352.94787849999994Z" style="opacity: 0;"/><path data-target="point-1-30" d="M578.6408015387492,352.9478785L668.107512830883,561.6L692.8902911851453,561.6L595.9799970457291,344.5359728115903Z" style="opacity: 0;"/><path data-target="point-1-31" d="M595.9799970457291,344.5359728115903L692.8902911851453,561.6L718.2525819261278,561.6L613.2680567007355,335.7651706178145L597.2043602128456,343.0195541871284Z" style="opacity: 0;"/><path data-target="point-1-32" d="M613.2680567007355,335.7651706178145L718.2525819261278,561.6L744.2413163517225,561.6L630.4676632731573,326.5526638826834L616.0035350780198,332.6379631762426Z" style="opacity: 0;"/><path data-target="point-1-33" d="M630.4676632731573,326.5526638826834L744.2413163517225,561.6L770.9068552466043,561.6L647.5698502178936,316.8829344142631L634.9253857451115,321.8426023617063Z" style="opacity: 0;"/><path data-target="point-1-34" d="M647.5698502178936,316.8829344142631L770.9068552466043,561.6L798.3114585588448,561.6L664.5640939162226,306.7396050207254L653.9839068779642,310.61142749655863Z" style="opacity: 0;"/><path data-target="point-1-35" d="M664.5640939162226,306.7396050207254L798.3114585588448,561.6L826.5109104859932,561.6L681.439559742648,296.1047405626479L673.1943136819979,298.92175675814025Z" style="opacity: 0;"/><path data-target="point-1-36" d="M681.439559742648,296.1047405626479L826.5109104859932,561.6L855.5806605458154,561.6L698.1831725033431,284.9599267657152L692.5738288850588,286.75027623365685Z" style="opacity: 0;"/><path data-target="point-1-37" d="M698.1831725033431,284.9599267657152L855.5806605458154,561.6L885.5826305869662,561.6L714.7819535294711,273.28501498067675L712.1410347755658,274.07294703029515Z" style="opacity: 0;"/><path data-target="point-1-38" d="M714.7819535294711,273.28501498067675L885.5826305869662,561.6L916.607440745147,561.6L731.3523153768851,261.2744548966209Z" style="opacity: 0;"/><path data-target="point-1-39" d="M731.3523153768851,261.2744548966209L916.607440745147,561.6L936,561.6L936,541.7768210817881L748.3032688722424,249.5423348224473L731.7716928377264,260.6872151664558Z" style="opacity: 0;"/><path data-target="point-1-40" d="M748.3032688722424,249.5423348224473L936,541.7768210817881L936,492.7396858258451L765.1052644527454,237.19975969439506L751.0151836755874,246.0421656430804Z" style="opacity: 0;"/><path data-target="point-1-41" d="M765.1052644527454,237.19975969439506L936,492.7396858258451L936,445.7531004594669L781.7423548116197,224.22615186280024L770.4568226089709,230.824238098884Z" style="opacity: 0;"/><path data-target="point-1-42" d="M781.7423548116197,224.22615186280024L936,445.7531004594669L936,400.65673287993104L798.1971791471124,210.59928066421577L790.1189256207513,215.0025876360443Z" style="opacity: 0;"/><path data-target="point-1-43" d="M798.1971791471124,210.59928066421577L936,400.65673287993104L936,357.29859966489215L814.4506698149124,196.29532788442586L810.0268346520787,198.54508344807044Z" style="opacity: 0;"/><path data-target="point-1-44" d="M814.4506698149124,196.29532788442586L936,357.29859966489215L936,315.5241938450472L830.4809126046893,181.289619295284L830.2086840091845,181.41887131001636Z" style="opacity: 0;"/><path data-target="point-1-45" d="M830.4809126046893,181.289619295284L936,315.5241938450472L936,275.1902751170477L847.1769830957561,166.67082698196697Z" style="opacity: 0;"/><path data-target="point-1-46" d="M847.1769830957561,166.67082698196697L936,275.1902751170477L936,126.947273803878L901.1165654667753,132.75209349413078L871.5234179254411,145.02225205837894L849.7533486160672,162.71902894959234Z" style="opacity: 0;"/></g></g><g class="axes"><g class="y axis" fill="none" font-size="10" font-family="sans-serif" text-anchor="end" style="font-family: &quot;Source Sans Pro&quot;;"><path class="domain" stroke="#eeeeee" d="M0.5,562.1V0.5" stroke-dasharray="0" style="visibility: hidden;"/><g class="tick" opacity="1" transform="translate(0,562.1)" style="visibility: visible;"><line stroke="#eeeeee" x2="936" stroke-dasharray="0"/><text fill="rgb(0, 0, 0)" x="3" dy="-0.33em" opacity="1" text-anchor="start" font-size="18">$0</text></g><g class="tick" opacity="1" transform="translate(0,499.70000000000005)" style="visibility: visible;"><line stroke="#eeeeee" x2="936" stroke-dasharray="0"/><text fill="rgb(0, 0, 0)" x="3" dy="-0.33em" opacity="1" text-anchor="start" font-size="18">$5000</text></g><g class="tick" opacity="1" transform="translate(0,437.3)" style="visibility: visible;"><line stroke="#eeeeee" x2="936" stroke-dasharray="0"/><text fill="rgb(0, 0, 0)" x="3" dy="-0.33em" opacity="1" text-anchor="start" font-size="18">$10,000</text></g><g class="tick" opacity="1" transform="translate(0,374.90000000000003)" style="visibility: visible;"><line stroke="#eeeeee" x2="936" stroke-dasharray="0"/><text fill="rgb(0, 0, 0)" x="3" dy="-0.33em" opacity="1" text-anchor="start" font-size="18">$15,000</text></g><g class="tick" opacity="1" transform="translate(0,312.5)" style="visibility: visible;"><line stroke="#eeeeee" x2="936" stroke-dasharray="0"/><text fill="rgb(0, 0, 0)" x="3" dy="-0.33em" opacity="1" text-anchor="start" font-size="18">$20,000</text></g><g class="tick" opacity="1" transform="translate(0,250.10000000000002)" style="visibility: visible;"><line stroke="#eeeeee" x2="936" stroke-dasharray="0"/><text fill="rgb(0, 0, 0)" x="3" dy="-0.33em" opacity="1" text-anchor="start" font-size="18">$25,000</text></g><g class="tick" opacity="1" transform="translate(0,187.70000000000005)" style="visibility: visible;"><line stroke="#eeeeee" x2="936" stroke-dasharray="0"/><text fill="rgb(0, 0, 0)" x="3" dy="-0.33em" opacity="1" text-anchor="start" font-size="18">$30,000</text></g><g class="tick" opacity="1" transform="translate(0,125.30000000000001)" style="visibility: visible;"><line stroke="#eeeeee" x2="936" stroke-dasharray="0"/><text fill="rgb(0, 0, 0)" x="3" dy="-0.33em" opacity="1" text-anchor="start" font-size="18">$35,000</text></g><g class="tick" opacity="1" transform="translate(0,62.900000000000034)" style="visibility: visible;"><line stroke="#eeeeee" x2="936" stroke-dasharray="0"/><text fill="rgb(0, 0, 0)" x="3" dy="-0.33em" opacity="1" text-anchor="start" font-size="18">$40,000</text></g><g class="tick" opacity="1" transform="translate(0,0.5)" style="visibility: visible;"><line stroke="#eeeeee" x2="936" stroke-dasharray="0"/><text fill="rgb(0, 0, 0)" x="3" dy="-0.33em" opacity="1" text-anchor="start" font-size="18">$45,000</text></g></g><g class="x axis" transform="translate(0,561.6)" fill="none" font-size="10" font-family="sans-serif" text-anchor="middle" style="font-family: &quot;Source Sans Pro&quot;;"><path class="domain" stroke="#eeeeee" d="M40.5,0.5H936.5" stroke-dasharray="0"/><g class="tick" opacity="1" transform="translate(40.5,0)"><line stroke="#eeeeee" y2="6" stroke-dasharray="0"/><text fill="rgb(0, 0, 0)" y="9" dy="-9" opacity="1" dominant-baseline="central" font-size="18" transform="translate(0, 15) rotate(-45)" dx="5" style="text-anchor: end; visibility: visible;">1990</text></g><g class="tick" opacity="1" transform="translate(130.10000000000002,0)"><line stroke="#eeeeee" y2="6" stroke-dasharray="0"/><text fill="rgb(0, 0, 0)" y="9" dy="-9" opacity="1" dominant-baseline="central" font-size="18" transform="translate(0, 15) rotate(-45)" dx="5" style="text-anchor: end; visibility: visible;">1995</text></g><g class="tick" opacity="1" transform="translate(219.70000000000002,0)"><line stroke="#eeeeee" y2="6" stroke-dasharray="0"/><text fill="rgb(0, 0, 0)" y="9" dy="-9" opacity="1" dominant-baseline="central" font-size="18" transform="translate(0, 15) rotate(-45)" dx="5" style="text-anchor: end; visibility: visible;">2000</text></g><g class="tick" opacity="1" transform="translate(309.3,0)"><line stroke="#eeeeee" y2="6" stroke-dasharray="0"/><text fill="rgb(0, 0, 0)" y="9" dy="-9" opacity="1" dominant-baseline="central" font-size="18" transform="translate(0, 15) rotate(-45)" dx="5" style="text-anchor: end; visibility: visible;">2005</text></g><g class="tick" opacity="1" transform="translate(398.90000000000003,0)"><line stroke="#eeeeee" y2="6" stroke-dasharray="0"/><text fill="rgb(0, 0, 0)" y="9" dy="-9" opacity="1" dominant-baseline="central" font-size="18" transform="translate(0, 15) rotate(-45)" dx="5" style="text-anchor: end; visibility: visible;">2010</text></g><g class="tick" opacity="1" transform="translate(488.5,0)"><line stroke="#eeeeee" y2="6" stroke-dasharray="0"/><text fill="rgb(0, 0, 0)" y="9" dy="-9" opacity="1" dominant-baseline="central" font-size="18" transform="translate(0, 15) rotate(-45)" dx="5" style="text-anchor: end; visibility: visible;">2015</text></g><g class="tick" opacity="1" transform="translate(578.1,0)"><line stroke="#eeeeee" y2="6" stroke-dasharray="0"/><text fill="rgb(0, 0, 0)" y="9" dy="-9" opacity="1" dominant-baseline="central" font-size="18" transform="translate(0, 15) rotate(-45)" dx="5" style="text-anchor: end; visibility: visible;">2020</text></g><g class="tick" opacity="1" transform="translate(667.6999999999999,0)"><line stroke="#eeeeee" y2="6" stroke-dasharray="0"/><text fill="rgb(0, 0, 0)" y="9" dy="-9" opacity="1" dominant-baseline="central" font-size="18" transform="translate(0, 15) rotate(-45)" dx="5" style="text-anchor: end; visibility: visible;">2025</text></g><g class="tick" opacity="1" transform="translate(757.3000000000001,0)"><line stroke="#eeeeee" y2="6" stroke-dasharray="0"/><text fill="rgb(0, 0, 0)" y="9" dy="-9" opacity="1" dominant-baseline="central" font-size="18" transform="translate(0, 15) rotate(-45)" dx="5" style="text-anchor: end; visibility: visible;">2030</text></g><g class="tick" opacity="1" transform="translate(846.9,0)"><line stroke="#eeeeee" y2="6" stroke-dasharray="0"/><text fill="rgb(0, 0, 0)" y="9" dy="-9" opacity="1" dominant-baseline="central" font-size="18" transform="translate(0, 15) rotate(-45)" dx="5" style="text-anchor: end; visibility: visible;">2035</text></g><g class="tick" opacity="1" transform="translate(936.5,0)"><line stroke="#eeeeee" y2="6" stroke-dasharray="0"/><text fill="rgb(0, 0, 0)" y="9" dy="-9" opacity="1" dominant-baseline="central" font-size="18" transform="translate(0, 15) rotate(-45)" dx="5" style="text-anchor: end; visibility: visible;">2040</text></g></g></g></g></g></g><g class="annotations below"><g class="axis-highlights" transform="translate(15, 20)" style="opacity: 1;"><g class="line x" transform="translate(559.68, 0)"><line width="0" stroke-dasharray="2 2" stroke="#333333" stroke-width="2" y2="561.6"/><text transform="translate(0, 6) rotate(-90)" fill="#333333" text-anchor="end" dy="-0.5em" font-size="12">Current</text></g></g></g><g id="areas"><g class="series" pointer-events="none"><path class="area" transform="translate(15,20)" fill-opacity="0" fill="#11A579" clip-path="url(#clip-0-0)" d="M57.92,508.08576C63.89333333333334,507.1352,69.86666666666667,506.18464,75.84,505.14048C81.81333333333333,504.09632000000005,87.78666666666666,502.76928000000004,93.75999999999999,501.8208C99.73333333333333,500.87232,105.70666666666666,500.34816,111.68,499.44960000000003C117.65333333333335,498.55104000000006,123.62666666666668,497.44032,129.60000000000002,496.42944C135.57333333333335,495.41856,141.54666666666665,494.59072,147.51999999999998,493.38432C153.4933333333333,492.17792000000003,159.46666666666667,490.74688000000003,165.44,489.19104000000004C171.41333333333333,487.63520000000005,177.38666666666668,485.45952,183.36,484.04928C189.33333333333334,482.63904,195.30666666666667,481.80288,201.28,480.7296C207.25333333333333,479.65632,213.2266666666667,479.1072,219.20000000000002,477.6096C225.17333333333335,476.112,231.14666666666668,474.19008,237.12,471.744C243.09333333333333,469.29792000000003,249.06666666666666,465.63712000000004,255.04,462.93312000000003C261.0133333333333,460.22912,266.9866666666667,458.16992000000005,272.96000000000004,455.52000000000004C278.93333333333334,452.87008000000003,284.9066666666667,449.78336,290.88,447.03360000000004C296.85333333333335,444.28384,302.82666666666665,441.77952,308.8,439.02144C314.77333333333337,436.26336,320.74666666666667,433.66336000000007,326.72,430.48512000000005C332.6933333333334,427.30688000000004,338.6666666666667,424.06208000000004,344.64000000000004,419.952C350.61333333333334,415.84192,356.5866666666667,408.93632,362.56,405.82464000000004C368.53333333333336,402.71296,374.50666666666666,403.00416,380.48,401.15712C386.4533333333334,399.31008,392.4266666666667,397.06784000000005,398.40000000000003,394.74240000000003C404.37333333333333,392.41696,410.3466666666667,390.05408,416.32,387.20448C422.29333333333335,384.35488,428.26666666666665,380.23232,434.24,377.64480000000003C440.21333333333337,375.05728000000005,446.18666666666667,373.568,452.16,371.67936C458.1333333333333,369.79071999999996,464.1066666666667,368.16416,470.08,366.31296C476.05333333333334,364.46175999999997,482.02666666666664,362.19872,488,360.57216C493.97333333333336,358.9456,499.94666666666666,358.1968,505.92,356.5536C511.8933333333334,354.91040000000004,517.8666666666667,352.6016,523.84,350.71296C529.8133333333334,348.82432,535.7866666666666,346.85672320000003,541.76,345.22176C547.7333333333333,343.5867968,553.7066666666666,343.33397279999997,559.68,340.9031808C565.6533333333333,338.4723888,571.6266666666667,334.1386464,577.6,330.63700800000004C583.5733333333334,327.13536960000005,589.5466666666666,323.5578736,595.52,319.89335040000003C601.4933333333333,316.2288272,607.4666666666667,312.48484800000006,613.44,308.64986880000004C619.4133333333334,304.8148896000001,625.3866666666667,300.8968352,631.36,296.8834752C637.3333333333334,292.8701152,643.3066666666667,288.7697696,649.2800000000001,284.5697088C655.2533333333333,280.36964800000004,661.2266666666667,276.07856639999994,667.1999999999999,271.6831104C673.1733333333333,267.28765439999995,679.1466666666666,262.79687199999995,685.12,258.19697279999997C691.0933333333334,253.5970736,697.0666666666666,248.897584,703.04,244.08371520000003C709.0133333333333,239.2698464,714.9866666666667,234.35156160000003,720.96,229.31376C726.9333333333334,224.27595840000004,732.9066666666666,219.12904000000003,738.88,213.85690560000006C744.8533333333334,208.58477120000003,750.8266666666667,203.19834080000004,756.8000000000001,197.6809536C762.7733333333333,192.16356640000004,768.7466666666667,186.52662080000002,774.7199999999999,180.75258240000005C780.6933333333333,174.978544,786.6666666666666,169.079352,792.64,163.03672319999998C798.6133333333333,156.9940944,804.5866666666666,150.8205296,810.56,144.4968096C816.5333333333333,138.17308959999997,822.5066666666667,131.71227679999996,828.48,125.09440319999993C834.4533333333334,118.47652959999995,840.4266666666666,111.71528159999994,846.4,104.78956799999997C852.3733333333333,97.86385439999997,858.3466666666667,90.78800640000003,864.32,83.54012160000002C870.2933333333334,76.29223680000005,876.2666666666667,68.79724800000004,882.24,61.30225920000004L882.24,61.30225920000004C876.2666666666667,68.79724800000004,870.2933333333334,76.29223680000005,864.32,83.54012160000002C858.3466666666667,90.78800640000003,852.3733333333333,97.86385439999997,846.4,104.78956799999997C840.4266666666666,111.71528159999994,834.4533333333334,118.47652959999995,828.48,125.09440319999993C822.5066666666667,131.71227679999996,816.5333333333333,138.17308959999997,810.56,144.4968096C804.5866666666666,150.8205296,798.6133333333333,156.9940944,792.64,163.03672319999998C786.6666666666666,169.079352,780.6933333333333,174.978544,774.7199999999999,180.75258240000005C768.7466666666667,186.52662080000002,762.7733333333333,192.16356640000004,756.8000000000001,197.6809536C750.8266666666667,203.19834080000004,744.8533333333334,208.58477120000003,738.88,213.85690560000006C732.9066666666666,219.12904000000003,726.9333333333334,224.27595840000004,720.96,229.31376C714.9866666666667,234.35156160000003,709.0133333333333,239.2698464,703.04,244.08371520000003C697.0666666666666,248.897584,691.0933333333334,253.5970736,685.12,258.19697279999997C679.1466666666666,262.79687199999995,673.1733333333333,267.28765439999995,667.1999999999999,271.6831104C661.2266666666667,276.07856639999994,655.2533333333333,280.36964800000004,649.2800000000001,284.5697088C643.3066666666667,288.7697696,637.3333333333334,292.8701152,631.36,296.8834752C625.3866666666667,300.8968352,619.4133333333334,304.8148896000001,613.44,308.64986880000004C607.4666666666667,312.48484800000006,601.4933333333333,316.2288272,595.52,319.89335040000003C589.5466666666666,323.5578736,583.5733333333334,327.13536960000005,577.6,330.63700800000004C571.6266666666667,334.1386464,565.6533333333333,338.4723888,559.68,340.9031808C553.7066666666666,343.33397279999997,547.7333333333333,343.5867968,541.76,345.22176C535.7866666666666,346.85672320000003,529.8133333333334,348.82432,523.84,350.71296C517.8666666666667,352.6016,511.8933333333334,354.91040000000004,505.92,356.5536C499.94666666666666,358.1968,493.97333333333336,358.9456,488,360.57216C482.02666666666664,362.19872,476.05333333333334,364.46175999999997,470.08,366.31296C464.1066666666667,368.16416,458.1333333333333,369.79071999999996,452.16,371.67936C446.18666666666667,373.568,440.21333333333337,375.05728000000005,434.24,377.64480000000003C428.26666666666665,380.23232,422.29333333333335,384.35488,416.32,387.20448C410.3466666666667,390.05408,404.37333333333333,392.41696,398.40000000000003,394.74240000000003C392.4266666666667,397.06784000000005,386.4533333333334,399.31008,380.48,401.15712C374.50666666666666,403.00416,368.53333333333336,402.71296,362.56,405.82464000000004C356.5866666666667,408.93632,350.61333333333334,415.84192,344.64000000000004,419.952C338.6666666666667,424.06208000000004,332.6933333333334,427.30688000000004,326.72,430.48512000000005C320.74666666666667,433.66336000000007,314.77333333333337,436.26336,308.8,439.02144C302.82666666666665,441.77952,296.85333333333335,444.28384,290.88,447.03360000000004C284.9066666666667,449.78336,278.93333333333334,452.87008000000003,272.96000000000004,455.52000000000004C266.9866666666667,458.16992000000005,261.0133333333333,460.22912,255.04,462.93312000000003C249.06666666666666,465.63712000000004,243.09333333333333,469.29792000000003,237.12,471.744C231.14666666666668,474.19008,225.17333333333335,476.112,219.20000000000002,477.6096C213.2266666666667,479.1072,207.25333333333333,479.65632,201.28,480.7296C195.30666666666667,481.80288,189.33333333333334,482.63904,183.36,484.04928C177.38666666666668,485.45952,171.41333333333333,487.63520000000005,165.44,489.19104000000004C159.46666666666667,490.74688000000003,153.4933333333333,492.17792000000003,147.51999999999998,493.38432C141.54666666666665,494.59072,135.57333333333335,495.41856,129.60000000000002,496.42944C123.62666666666668,497.44032,117.65333333333335,498.55104000000006,111.68,499.44960000000003C105.70666666666666,500.34816,99.73333333333333,500.87232,93.75999999999999,501.8208C87.78666666666666,502.76928000000004,81.81333333333333,504.09632000000005,75.84,505.14048C69.86666666666667,506.18464,63.89333333333334,507.1352,57.92,508.08576Z"/></g><g class="series" pointer-events="none"><path class="area" transform="translate(15,20)" fill-opacity="0" fill="#802392" clip-path="url(#clip-0-1)" d="M57.92,525.2208C63.89333333333334,524.09136,69.86666666666667,522.9619200000001,75.84,522.18816C81.81333333333333,521.4144,87.78666666666666,521.2459200000001,93.75999999999999,520.57824C99.73333333333333,519.91056,105.70666666666666,519.00368,111.68,518.18208C117.65333333333335,517.36048,123.62666666666668,516.66992,129.60000000000002,515.64864C135.57333333333335,514.62736,141.54666666666665,513.36896,147.51999999999998,512.0544C153.4933333333333,510.73983999999996,159.46666666666667,509.23392,165.44,507.76128C171.41333333333333,506.28864,177.38666666666668,504.66416000000004,183.36,503.21856C189.33333333333334,501.77296,195.30666666666667,500.50832,201.28,499.08768000000003C207.25333333333333,497.66704000000004,213.2266666666667,496.4648,219.20000000000002,494.69472C225.17333333333335,492.92464,231.14666666666668,490.89456000000007,237.12,488.46720000000005C243.09333333333333,486.03984,249.06666666666666,482.9032,255.04,480.13056C261.0133333333333,477.35792,266.9866666666667,474.64144000000005,272.96000000000004,471.83136C278.93333333333334,469.02128000000005,284.9066666666667,466.00112,290.88,463.27008C296.85333333333335,460.53904,302.82666666666665,458.25520000000006,308.8,455.44512000000003C314.77333333333337,452.63504,320.74666666666667,449.23216,326.72,446.4096C332.6933333333334,443.58704,338.6666666666667,441.43008000000003,344.64000000000004,438.50976C350.61333333333334,435.58944,356.5866666666667,431.30048000000005,362.56,428.88768000000005C368.53333333333336,426.47488000000004,374.50666666666666,425.76976,380.48,424.03296C386.4533333333334,422.29616,392.4266666666667,420.6592,398.40000000000003,418.46688C404.37333333333333,416.27456,410.3466666666667,412.98400000000004,416.32,410.87904000000003C422.29333333333335,408.77408,428.26666666666665,406.99568000000005,434.24,405.83712C440.21333333333337,404.67856,446.18666666666667,404.78672,452.16,403.92768C458.1333333333333,403.06864,464.1066666666667,401.85600000000005,470.08,400.68288000000007C476.05333333333334,399.5097600000001,482.02666666666664,398.07456,488,396.88896C493.97333333333336,395.70336,499.94666666666666,394.7632,505.92,393.56928C511.8933333333334,392.37536,517.8666666666667,391.03168000000005,523.84,389.72544000000005C529.8133333333334,388.41920000000005,535.7866666666666,386.91305120000004,541.76,385.73184000000003C547.7333333333333,384.5506288,553.7066666666666,384.383688,559.68,382.6381728C565.6533333333333,380.8926576,571.6266666666667,377.769288,577.6,375.25874880000003C583.5733333333334,372.74820960000005,589.5466666666666,370.1889984,595.52,367.5749376C601.4933333333333,364.9608768,607.4666666666667,362.2962304,613.44,359.574384C619.4133333333334,356.8525376,625.3866666666667,354.07796319999994,631.36,351.2438592C637.3333333333334,348.40975519999995,643.3066666666667,345.5207184,649.2800000000001,342.56976000000003C655.2533333333333,339.61880160000004,661.2266666666667,336.6107472,667.1999999999999,333.53810880000003C673.1733333333333,330.4654704,679.1466666666666,327.3332608,685.12,324.1339296C691.0933333333334,320.93459839999997,697.0666666666666,317.6733872,703.04,314.3421216C709.0133333333333,311.010856,714.9866666666667,307.61496480000005,720.96,304.146336C726.9333333333334,300.67770720000004,732.9066666666666,297.1419984,738.88,293.5303488C744.8533333333334,289.9186992,750.8266666666667,286.23703680000006,756.8000000000001,282.47643840000006C762.7733333333333,278.71584000000007,768.7466666666667,274.8824,774.7199999999999,270.96675840000006C780.6933333333333,267.05111680000005,786.6666666666666,263.05968000000007,792.64,258.98258880000003C798.6133333333333,254.90549760000002,804.5866666666666,250.7494496,810.56,246.5042112C816.5333333333333,242.25897279999998,822.5066666666667,237.9314496,828.48,233.5111584C834.4533333333334,229.09086720000002,840.4266666666666,224.58500479999998,846.4,219.982464C852.3733333333333,215.37992319999998,858.3466666666667,210.68825440000003,864.32,205.89591360000003C870.2933333333334,201.10357280000005,876.2666666666667,196.16599600000004,882.24,191.22841920000002L882.24,191.22841920000002C876.2666666666667,196.16599600000004,870.2933333333334,201.10357280000005,864.32,205.89591360000003C858.3466666666667,210.68825440000003,852.3733333333333,215.37992319999998,846.4,219.982464C840.4266666666666,224.58500479999998,834.4533333333334,229.09086720000002,828.48,233.5111584C822.5066666666667,237.9314496,816.5333333333333,242.25897279999998,810.56,246.5042112C804.5866666666666,250.7494496,798.6133333333333,254.90549760000002,792.64,258.98258880000003C786.6666666666666,263.05968000000007,780.6933333333333,267.05111680000005,774.7199999999999,270.96675840000006C768.7466666666667,274.8824,762.7733333333333,278.71584000000007,756.8000000000001,282.47643840000006C750.8266666666667,286.23703680000006,744.8533333333334,289.9186992,738.88,293.5303488C732.9066666666666,297.1419984,726.9333333333334,300.67770720000004,720.96,304.146336C714.9866666666667,307.61496480000005,709.0133333333333,311.010856,703.04,314.3421216C697.0666666666666,317.6733872,691.0933333333334,320.93459839999997,685.12,324.1339296C679.1466666666666,327.3332608,673.1733333333333,330.4654704,667.1999999999999,333.53810880000003C661.2266666666667,336.6107472,655.2533333333333,339.61880160000004,649.2800000000001,342.56976000000003C643.3066666666667,345.5207184,637.3333333333334,348.40975519999995,631.36,351.2438592C625.3866666666667,354.07796319999994,619.4133333333334,356.8525376,613.44,359.574384C607.4666666666667,362.2962304,601.4933333333333,364.9608768,595.52,367.5749376C589.5466666666666,370.1889984,583.5733333333334,372.74820960000005,577.6,375.25874880000003C571.6266666666667,377.769288,565.6533333333333,380.8926576,559.68,382.6381728C553.7066666666666,384.383688,547.7333333333333,384.5506288,541.76,385.73184000000003C535.7866666666666,386.91305120000004,529.8133333333334,388.41920000000005,523.84,389.72544000000005C517.8666666666667,391.03168000000005,511.8933333333334,392.37536,505.92,393.56928C499.94666666666666,394.7632,493.97333333333336,395.70336,488,396.88896C482.02666666666664,398.07456,476.05333333333334,399.5097600000001,470.08,400.68288000000007C464.1066666666667,401.85600000000005,458.1333333333333,403.06864,452.16,403.92768C446.18666666666667,404.78672,440.21333333333337,404.67856,434.24,405.83712C428.26666666666665,406.99568000000005,422.29333333333335,408.77408,416.32,410.87904000000003C410.3466666666667,412.98400000000004,404.37333333333333,416.27456,398.40000000000003,418.46688C392.4266666666667,420.6592,386.4533333333334,422.29616,380.48,424.03296C374.50666666666666,425.76976,368.53333333333336,426.47488000000004,362.56,428.88768000000005C356.5866666666667,431.30048000000005,350.61333333333334,435.58944,344.64000000000004,438.50976C338.6666666666667,441.43008000000003,332.6933333333334,443.58704,326.72,446.4096C320.74666666666667,449.23216,314.77333333333337,452.63504,308.8,455.44512000000003C302.82666666666665,458.25520000000006,296.85333333333335,460.53904,290.88,463.27008C284.9066666666667,466.00112,278.93333333333334,469.02128000000005,272.96000000000004,471.83136C266.9866666666667,474.64144000000005,261.0133333333333,477.35792,255.04,480.13056C249.06666666666666,482.9032,243.09333333333333,486.03984,237.12,488.46720000000005C231.14666666666668,490.89456000000007,225.17333333333335,492.92464,219.20000000000002,494.69472C213.2266666666667,496.4648,207.25333333333333,497.66704000000004,201.28,499.08768000000003C195.30666666666667,500.50832,189.33333333333334,501.77296,183.36,503.21856C177.38666666666668,504.66416000000004,171.41333333333333,506.28864,165.44,507.76128C159.46666666666667,509.23392,153.4933333333333,510.73983999999996,147.51999999999998,512.0544C141.54666666666665,513.36896,135.57333333333335,514.62736,129.60000000000002,515.64864C123.62666666666668,516.66992,117.65333333333335,517.36048,111.68,518.18208C105.70666666666666,519.00368,99.73333333333333,519.91056,93.75999999999999,520.57824C87.78666666666666,521.2459200000001,81.81333333333333,521.4144,75.84,522.18816C69.86666666666667,522.9619200000001,63.89333333333334,524.09136,57.92,525.2208Z"/></g></g><g id="lines"><g class="series"><clipPath id="clip-0-0"><rect width="936" y="-20" height="599.6"/></clipPath><path class="line" opacity="1" fill="none" stroke="#11A579" stroke-width="2" transform="translate(15,20)" clip-path="url(#clip-0-0)" d="M57.92,508.08576C63.89333333333334,507.1352,69.86666666666667,506.18464,75.84,505.14048C81.81333333333333,504.09632000000005,87.78666666666666,502.76928000000004,93.75999999999999,501.8208C99.73333333333333,500.87232,105.70666666666666,500.34816,111.68,499.44960000000003C117.65333333333335,498.55104000000006,123.62666666666668,497.44032,129.60000000000002,496.42944C135.57333333333335,495.41856,141.54666666666665,494.59072,147.51999999999998,493.38432C153.4933333333333,492.17792000000003,159.46666666666667,490.74688000000003,165.44,489.19104000000004C171.41333333333333,487.63520000000005,177.38666666666668,485.45952,183.36,484.04928C189.33333333333334,482.63904,195.30666666666667,481.80288,201.28,480.7296C207.25333333333333,479.65632,213.2266666666667,479.1072,219.20000000000002,477.6096C225.17333333333335,476.112,231.14666666666668,474.19008,237.12,471.744C243.09333333333333,469.29792000000003,249.06666666666666,465.63712000000004,255.04,462.93312000000003C261.0133333333333,460.22912,266.9866666666667,458.16992000000005,272.96000000000004,455.52000000000004C278.93333333333334,452.87008000000003,284.9066666666667,449.78336,290.88,447.03360000000004C296.85333333333335,444.28384,302.82666666666665,441.77952,308.8,439.02144C314.77333333333337,436.26336,320.74666666666667,433.66336000000007,326.72,430.48512000000005C332.6933333333334,427.30688000000004,338.6666666666667,424.06208000000004,344.64000000000004,419.952C350.61333333333334,415.84192,356.5866666666667,408.93632,362.56,405.82464000000004C368.53333333333336,402.71296,374.50666666666666,403.00416,380.48,401.15712C386.4533333333334,399.31008,392.4266666666667,397.06784000000005,398.40000000000003,394.74240000000003C404.37333333333333,392.41696,410.3466666666667,390.05408,416.32,387.20448C422.29333333333335,384.35488,428.26666666666665,380.23232,434.24,377.64480000000003C440.21333333333337,375.05728000000005,446.18666666666667,373.568,452.16,371.67936C458.1333333333333,369.79071999999996,464.1066666666667,368.16416,470.08,366.31296C476.05333333333334,364.46175999999997,482.02666666666664,362.19872,488,360.57216C493.97333333333336,358.9456,499.94666666666666,358.1968,505.92,356.5536C511.8933333333334,354.91040000000004,517.8666666666667,352.6016,523.84,350.71296C529.8133333333334,348.82432,535.7866666666666,346.85672320000003,541.76,345.22176C547.7333333333333,343.5867968,553.7066666666666,343.33397279999997,559.68,340.9031808C565.6533333333333,338.4723888,571.6266666666667,334.1386464,577.6,330.63700800000004C583.5733333333334,327.13536960000005,589.5466666666666,323.5578736,595.52,319.89335040000003C601.4933333333333,316.2288272,607.4666666666667,312.48484800000006,613.44,308.64986880000004C619.4133333333334,304.8148896000001,625.3866666666667,300.8968352,631.36,296.8834752C637.3333333333334,292.8701152,643.3066666666667,288.7697696,649.2800000000001,284.5697088C655.2533333333333,280.36964800000004,661.2266666666667,276.07856639999994,667.1999999999999,271.6831104C673.1733333333333,267.28765439999995,679.1466666666666,262.79687199999995,685.12,258.19697279999997C691.0933333333334,253.5970736,697.0666666666666,248.897584,703.04,244.08371520000003C709.0133333333333,239.2698464,714.9866666666667,234.35156160000003,720.96,229.31376C726.9333333333334,224.27595840000004,732.9066666666666,219.12904000000003,738.88,213.85690560000006C744.8533333333334,208.58477120000003,750.8266666666667,203.19834080000004,756.8000000000001,197.6809536C762.7733333333333,192.16356640000004,768.7466666666667,186.52662080000002,774.7199999999999,180.75258240000005C780.6933333333333,174.978544,786.6666666666666,169.079352,792.64,163.03672319999998C798.6133333333333,156.9940944,804.5866666666666,150.8205296,810.56,144.4968096C816.5333333333333,138.17308959999997,822.5066666666667,131.71227679999996,828.48,125.09440319999993C834.4533333333334,118.47652959999995,840.4266666666666,111.71528159999994,846.4,104.78956799999997C852.3733333333333,97.86385439999997,858.3466666666667,90.78800640000003,864.32,83.54012160000002C870.2933333333334,76.29223680000005,876.2666666666667,68.79724800000004,882.24,61.30225920000004"/><text class="label" font-size="11" alignment-baseline="middle" opacity="1" x="5" fill="#11A579" transform="translate(897.24,81.30225920000004)"/></g><g class="series"><clipPath id="clip-0-1"><rect width="936" y="-20" height="599.6"/></clipPath><path class="line" opacity="1" fill="none" stroke="#802392" stroke-width="2" transform="translate(15,20)" clip-path="url(#clip-0-1)" d="M57.92,525.2208C63.89333333333334,524.09136,69.86666666666667,522.9619200000001,75.84,522.18816C81.81333333333333,521.4144,87.78666666666666,521.2459200000001,93.75999999999999,520.57824C99.73333333333333,519.91056,105.70666666666666,519.00368,111.68,518.18208C117.65333333333335,517.36048,123.62666666666668,516.66992,129.60000000000002,515.64864C135.57333333333335,514.62736,141.54666666666665,513.36896,147.51999999999998,512.0544C153.4933333333333,510.73983999999996,159.46666666666667,509.23392,165.44,507.76128C171.41333333333333,506.28864,177.38666666666668,504.66416000000004,183.36,503.21856C189.33333333333334,501.77296,195.30666666666667,500.50832,201.28,499.08768000000003C207.25333333333333,497.66704000000004,213.2266666666667,496.4648,219.20000000000002,494.69472C225.17333333333335,492.92464,231.14666666666668,490.89456000000007,237.12,488.46720000000005C243.09333333333333,486.03984,249.06666666666666,482.9032,255.04,480.13056C261.0133333333333,477.35792,266.9866666666667,474.64144000000005,272.96000000000004,471.83136C278.93333333333334,469.02128000000005,284.9066666666667,466.00112,290.88,463.27008C296.85333333333335,460.53904,302.82666666666665,458.25520000000006,308.8,455.44512000000003C314.77333333333337,452.63504,320.74666666666667,449.23216,326.72,446.4096C332.6933333333334,443.58704,338.6666666666667,441.43008000000003,344.64000000000004,438.50976C350.61333333333334,435.58944,356.5866666666667,431.30048000000005,362.56,428.88768000000005C368.53333333333336,426.47488000000004,374.50666666666666,425.76976,380.48,424.03296C386.4533333333334,422.29616,392.4266666666667,420.6592,398.40000000000003,418.46688C404.37333333333333,416.27456,410.3466666666667,412.98400000000004,416.32,410.87904000000003C422.29333333333335,408.77408,428.26666666666665,406.99568000000005,434.24,405.83712C440.21333333333337,404.67856,446.18666666666667,404.78672,452.16,403.92768C458.1333333333333,403.06864,464.1066666666667,401.85600000000005,470.08,400.68288000000007C476.05333333333334,399.5097600000001,482.02666666666664,398.07456,488,396.88896C493.97333333333336,395.70336,499.94666666666666,394.7632,505.92,393.56928C511.8933333333334,392.37536,517.8666666666667,391.03168000000005,523.84,389.72544000000005C529.8133333333334,388.41920000000005,535.7866666666666,386.91305120000004,541.76,385.73184000000003C547.7333333333333,384.5506288,553.7066666666666,384.383688,559.68,382.6381728C565.6533333333333,380.8926576,571.6266666666667,377.769288,577.6,375.25874880000003C583.5733333333334,372.74820960000005,589.5466666666666,370.1889984,595.52,367.5749376C601.4933333333333,364.9608768,607.4666666666667,362.2962304,613.44,359.574384C619.4133333333334,356.8525376,625.3866666666667,354.07796319999994,631.36,351.2438592C637.3333333333334,348.40975519999995,643.3066666666667,345.5207184,649.2800000000001,342.56976000000003C655.2533333333333,339.61880160000004,661.2266666666667,336.6107472,667.1999999999999,333.53810880000003C673.1733333333333,330.4654704,679.1466666666666,327.3332608,685.12,324.1339296C691.0933333333334,320.93459839999997,697.0666666666666,317.6733872,703.04,314.3421216C709.0133333333333,311.010856,714.9866666666667,307.61496480000005,720.96,304.146336C726.9333333333334,300.67770720000004,732.9066666666666,297.1419984,738.88,293.5303488C744.8533333333334,289.9186992,750.8266666666667,286.23703680000006,756.8000000000001,282.47643840000006C762.7733333333333,278.71584000000007,768.7466666666667,274.8824,774.7199999999999,270.96675840000006C780.6933333333333,267.05111680000005,786.6666666666666,263.05968000000007,792.64,258.98258880000003C798.6133333333333,254.90549760000002,804.5866666666666,250.7494496,810.56,246.5042112C816.5333333333333,242.25897279999998,822.5066666666667,237.9314496,828.48,233.5111584C834.4533333333334,229.09086720000002,840.4266666666666,224.58500479999998,846.4,219.982464C852.3733333333333,215.37992319999998,858.3466666666667,210.68825440000003,864.32,205.89591360000003C870.2933333333334,201.10357280000005,876.2666666666667,196.16599600000004,882.24,191.22841920000002"/><text class="label" font-size="11" alignment-baseline="middle" opacity="1" x="5" fill="#802392" transform="translate(897.24,211.22841920000002)"/></g></g><g id="data-points"><g class="series" transform="translate(15,20)"><path class="data-point" fill="#11A579" data-type="point" transform="translate(0, 0)" d="M54.92,508.08576A3,3,0,1,1,60.92,508.08576A3,3,0,1,1,54.92,508.08576Z" id="point-0-0" opacity="1"/><path class="data-point" fill="#11A579" data-type="point" transform="translate(0, 0)" d="M72.84,505.14048A3,3,0,1,1,78.84,505.14048A3,3,0,1,1,72.84,505.14048Z" id="point-0-1" opacity="1"/><path class="data-point" fill="#11A579" data-type="point" transform="translate(0, 0)" d="M90.75999999999999,501.8208A3,3,0,1,1,96.75999999999999,501.8208A3,3,0,1,1,90.75999999999999,501.8208Z" id="point-0-2" opacity="1"/><path class="data-point" fill="#11A579" data-type="point" transform="translate(0, 0)" d="M108.68,499.44960000000003A3,3,0,1,1,114.68,499.44960000000003A3,3,0,1,1,108.68,499.44960000000003Z" id="point-0-3" opacity="1"/><path class="data-point" fill="#11A579" data-type="point" transform="translate(0, 0)" d="M126.60000000000002,496.42944A3,3,0,1,1,132.60000000000002,496.42944A3,3,0,1,1,126.60000000000002,496.42944Z" id="point-0-4" opacity="1"/><path class="data-point" fill="#11A579" data-type="point" transform="translate(0, 0)" d="M144.51999999999998,493.38432A3,3,0,1,1,150.51999999999998,493.38432A3,3,0,1,1,144.51999999999998,493.38432Z" id="point-0-5" opacity="1"/><path class="data-point" fill="#11A579" data-type="point" transform="translate(0, 0)" d="M162.44,489.19104000000004A3,3,0,1,1,168.44,489.19104000000004A3,3,0,1,1,162.44,489.19104000000004Z" id="point-0-6" opacity="1"/><path class="data-point" fill="#11A579" data-type="point" transform="translate(0, 0)" d="M180.36,484.04928A3,3,0,1,1,186.36,484.04928A3,3,0,1,1,180.36,484.04928Z" id="point-0-7" opacity="1"/><path class="data-point" fill="#11A579" data-type="point" transform="translate(0, 0)" d="M198.28,480.7296A3,3,0,1,1,204.28,480.7296A3,3,0,1,1,198.28,480.7296Z" id="point-0-8" opacity="1"/><path class="data-point" fill="#11A579" data-type="point" transform="translate(0, 0)" d="M216.20000000000002,477.6096A3,3,0,1,1,222.20000000000002,477.6096A3,3,0,1,1,216.20000000000002,477.6096Z" id="point-0-9" opacity="1"/><path class="data-point" fill="#11A579" data-type="point" transform="translate(0, 0)" d="M234.12,471.744A3,3,0,1,1,240.12,471.744A3,3,0,1,1,234.12,471.744Z" id="point-0-10" opacity="1"/><path class="data-point" fill="#11A579" data-type="point" transform="translate(0, 0)" d="M252.04,462.93312000000003A3,3,0,1,1,258.03999999999996,462.93312000000003A3,3,0,1,1,252.04,462.93312000000003Z" id="point-0-11" opacity="1"/><path class="data-point" fill="#11A579" data-type="point" transform="translate(0, 0)" d="M269.96000000000004,455.52000000000004A3,3,0,1,1,275.96000000000004,455.52000000000004A3,3,0,1,1,269.96000000000004,455.52000000000004Z" id="point-0-12" opacity="1"/><path class="data-point" fill="#11A579" data-type="point" transform="translate(0, 0)" d="M287.88,447.03360000000004A3,3,0,1,1,293.88,447.03360000000004A3,3,0,1,1,287.88,447.03360000000004Z" id="point-0-13" opacity="1"/><path class="data-point" fill="#11A579" data-type="point" transform="translate(0, 0)" d="M305.8,439.02144A3,3,0,1,1,311.8,439.02144A3,3,0,1,1,305.8,439.02144Z" id="point-0-14" opacity="1"/><path class="data-point" fill="#11A579" data-type="point" transform="translate(0, 0)" d="M323.72,430.48512000000005A3,3,0,1,1,329.72,430.48512000000005A3,3,0,1,1,323.72,430.48512000000005Z" id="point-0-15" opacity="1"/><path class="data-point" fill="#11A579" data-type="point" transform="translate(0, 0)" d="M341.64000000000004,419.952A3,3,0,1,1,347.64000000000004,419.952A3,3,0,1,1,341.64000000000004,419.952Z" id="point-0-16" opacity="1"/><path class="data-point" fill="#11A579" data-type="point" transform="translate(0, 0)" d="M359.56,405.82464000000004A3,3,0,1,1,365.56,405.82464000000004A3,3,0,1,1,359.56,405.82464000000004Z" id="point-0-17" opacity="1"/><path class="data-point" fill="#11A579" data-type="point" transform="translate(0, 0)" d="M377.48,401.15712A3,3,0,1,1,383.48,401.15712A3,3,0,1,1,377.48,401.15712Z" id="point-0-18" opacity="1"/><path class="data-point" fill="#11A579" data-type="point" transform="translate(0, 0)" d="M395.40000000000003,394.74240000000003A3,3,0,1,1,401.40000000000003,394.74240000000003A3,3,0,1,1,395.40000000000003,394.74240000000003Z" id="point-0-19" opacity="1"/><path class="data-point" fill="#11A579" data-type="point" transform="translate(0, 0)" d="M413.32,387.20448A3,3,0,1,1,419.32,387.20448A3,3,0,1,1,413.32,387.20448Z" id="point-0-20" opacity="1"/><path class="data-point" fill="#11A579" data-type="point" transform="translate(0, 0)" d="M431.24,377.64480000000003A3,3,0,1,1,437.24,377.64480000000003A3,3,0,1,1,431.24,377.64480000000003Z" id="point-0-21" opacity="1"/><path class="data-point" fill="#11A579" data-type="point" transform="translate(0, 0)" d="M449.16,371.67936A3,3,0,1,1,455.16,371.67936A3,3,0,1,1,449.16,371.67936Z" id="point-0-22" opacity="1"/><path class="data-point" fill="#11A579" data-type="point" transform="translate(0, 0)" d="M467.08,366.31296A3,3,0,1,1,473.08,366.31296A3,3,0,1,1,467.08,366.31296Z" id="point-0-23" opacity="1"/><path class="data-point" fill="#11A579" data-type="point" transform="translate(0, 0)" d="M485,360.57216A3,3,0,1,1,491,360.57216A3,3,0,1,1,485,360.57216Z" id="point-0-24" opacity="1"/><path class="data-point" fill="#11A579" data-type="point" transform="translate(0, 0)" d="M502.92,356.5536A3,3,0,1,1,508.92,356.5536A3,3,0,1,1,502.92,356.5536Z" id="point-0-25" opacity="1"/><path class="data-point" fill="#11A579" data-type="point" transform="translate(0, 0)" d="M520.84,350.71296A3,3,0,1,1,526.84,350.71296A3,3,0,1,1,520.84,350.71296Z" id="point-0-26" opacity="1"/><path class="data-point" fill="#11A579" data-type="point" transform="translate(0, 0)" d="M538.76,345.22176A3,3,0,1,1,544.76,345.22176A3,3,0,1,1,538.76,345.22176Z" id="point-0-27" opacity="1"/><path class="data-point" fill="#11A579" data-type="point" transform="translate(0, 0)" d="M556.68,340.9031808A3,3,0,1,1,562.68,340.9031808A3,3,0,1,1,556.68,340.9031808Z" id="point-0-28" opacity="1"/><path class="data-point" fill="#11A579" data-type="point" transform="translate(0, 0)" d="M574.6,330.63700800000004A3,3,0,1,1,580.6,330.63700800000004A3,3,0,1,1,574.6,330.63700800000004Z" id="point-0-29" opacity="1"/><path class="data-point" fill="#11A579" data-type="point" transform="translate(0, 0)" d="M592.52,319.89335040000003A3,3,0,1,1,598.52,319.89335040000003A3,3,0,1,1,592.52,319.89335040000003Z" id="point-0-30" opacity="1"/><path class="data-point" fill="#11A579" data-type="point" transform="translate(0, 0)" d="M610.44,308.64986880000004A3,3,0,1,1,616.44,308.64986880000004A3,3,0,1,1,610.44,308.64986880000004Z" id="point-0-31" opacity="1"/><path class="data-point" fill="#11A579" data-type="point" transform="translate(0, 0)" d="M628.36,296.8834752A3,3,0,1,1,634.36,296.8834752A3,3,0,1,1,628.36,296.8834752Z" id="point-0-32" opacity="1"/><path class="data-point" fill="#11A579" data-type="point" transform="translate(0, 0)" d="M646.2800000000001,284.5697088A3,3,0,1,1,652.2800000000001,284.5697088A3,3,0,1,1,646.2800000000001,284.5697088Z" id="point-0-33" opacity="1"/><path class="data-point" fill="#11A579" data-type="point" transform="translate(0, 0)" d="M664.1999999999999,271.6831104A3,3,0,1,1,670.1999999999999,271.6831104A3,3,0,1,1,664.1999999999999,271.6831104Z" id="point-0-34" opacity="1"/><path class="data-point" fill="#11A579" data-type="point" transform="translate(0, 0)" d="M682.12,258.19697279999997A3,3,0,1,1,688.12,258.19697279999997A3,3,0,1,1,682.12,258.19697279999997Z" id="point-0-35" opacity="1"/><path class="data-point" fill="#11A579" data-type="point" transform="translate(0, 0)" d="M700.04,244.08371520000003A3,3,0,1,1,706.04,244.08371520000003A3,3,0,1,1,700.04,244.08371520000003Z" id="point-0-36" opacity="1"/><path class="data-point" fill="#11A579" data-type="point" transform="translate(0, 0)" d="M717.96,229.31376A3,3,0,1,1,723.96,229.31376A3,3,0,1,1,717.96,229.31376Z" id="point-0-37" opacity="1"/><path class="data-point" fill="#11A579" data-type="point" transform="translate(0, 0)" d="M735.88,213.85690560000006A3,3,0,1,1,741.88,213.85690560000006A3,3,0,1,1,735.88,213.85690560000006Z" id="point-0-38" opacity="1"/><path class="data-point" fill="#11A579" data-type="point" transform="translate(0, 0)" d="M753.8000000000001,197.6809536A3,3,0,1,1,759.8000000000001,197.6809536A3,3,0,1,1,753.8000000000001,197.6809536Z" id="point-0-39" opacity="1"/><path class="data-point" fill="#11A579" data-type="point" transform="translate(0, 0)" d="M771.7199999999999,180.75258240000005A3,3,0,1,1,777.7199999999999,180.75258240000005A3,3,0,1,1,771.7199999999999,180.75258240000005Z" id="point-0-40" opacity="1"/><path class="data-point" fill="#11A579" data-type="point" transform="translate(0, 0)" d="M789.64,163.03672319999998A3,3,0,1,1,795.64,163.03672319999998A3,3,0,1,1,789.64,163.03672319999998Z" id="point-0-41" opacity="1"/><path class="data-point" fill="#11A579" data-type="point" transform="translate(0, 0)" d="M807.56,144.4968096A3,3,0,1,1,813.56,144.4968096A3,3,0,1,1,807.56,144.4968096Z" id="point-0-42" opacity="1"/><path class="data-point" fill="#11A579" data-type="point" transform="translate(0, 0)" d="M825.48,125.09440319999993A3,3,0,1,1,831.48,125.09440319999993A3,3,0,1,1,825.48,125.09440319999993Z" id="point-0-43" opacity="1"/><path class="data-point" fill="#11A579" data-type="point" transform="translate(0, 0)" d="M843.4,104.78956799999997A3,3,0,1,1,849.4,104.78956799999997A3,3,0,1,1,843.4,104.78956799999997Z" id="point-0-44" opacity="1"/><path class="data-point" fill="#11A579" data-type="point" transform="translate(0, 0)" d="M861.32,83.54012160000002A3,3,0,1,1,867.32,83.54012160000002A3,3,0,1,1,861.32,83.54012160000002Z" id="point-0-45" opacity="1"/><path class="data-point" fill="#11A579" data-type="point" transform="translate(0, 0)" d="M879.24,61.30225920000004A3,3,0,1,1,885.24,61.30225920000004A3,3,0,1,1,879.24,61.30225920000004Z" id="point-0-46" opacity="1"/></g><g class="series" transform="translate(15,20)"><path class="data-point" fill="#802392" data-type="point" transform="translate(0, 0)" d="M54.92,525.2208A3,3,0,1,1,60.92,525.2208A3,3,0,1,1,54.92,525.2208Z" id="point-1-0" opacity="1"/><path class="data-point" fill="#802392" data-type="point" transform="translate(0, 0)" d="M72.84,522.18816A3,3,0,1,1,78.84,522.18816A3,3,0,1,1,72.84,522.18816Z" id="point-1-1" opacity="1"/><path class="data-point" fill="#802392" data-type="point" transform="translate(0, 0)" d="M90.75999999999999,520.57824A3,3,0,1,1,96.75999999999999,520.57824A3,3,0,1,1,90.75999999999999,520.57824Z" id="point-1-2" opacity="1"/><path class="data-point" fill="#802392" data-type="point" transform="translate(0, 0)" d="M108.68,518.18208A3,3,0,1,1,114.68,518.18208A3,3,0,1,1,108.68,518.18208Z" id="point-1-3" opacity="1"/><path class="data-point" fill="#802392" data-type="point" transform="translate(0, 0)" d="M126.60000000000002,515.64864A3,3,0,1,1,132.60000000000002,515.64864A3,3,0,1,1,126.60000000000002,515.64864Z" id="point-1-4" opacity="1"/><path class="data-point" fill="#802392" data-type="point" transform="translate(0, 0)" d="M144.51999999999998,512.0544A3,3,0,1,1,150.51999999999998,512.0544A3,3,0,1,1,144.51999999999998,512.0544Z" id="point-1-5" opacity="1"/><path class="data-point" fill="#802392" data-type="point" transform="translate(0, 0)" d="M162.44,507.76128A3,3,0,1,1,168.44,507.76128A3,3,0,1,1,162.44,507.76128Z" id="point-1-6" opacity="1"/><path class="data-point" fill="#802392" data-type="point" transform="translate(0, 0)" d="M180.36,503.21856A3,3,0,1,1,186.36,503.21856A3,3,0,1,1,180.36,503.21856Z" id="point-1-7" opacity="1"/><path class="data-point" fill="#802392" data-type="point" transform="translate(0, 0)" d="M198.28,499.08768000000003A3,3,0,1,1,204.28,499.08768000000003A3,3,0,1,1,198.28,499.08768000000003Z" id="point-1-8" opacity="1"/><path class="data-point" fill="#802392" data-type="point" transform="translate(0, 0)" d="M216.20000000000002,494.69472A3,3,0,1,1,222.20000000000002,494.69472A3,3,0,1,1,216.20000000000002,494.69472Z" id="point-1-9" opacity="1"/><path class="data-point" fill="#802392" data-type="point" transform="translate(0, 0)" d="M234.12,488.46720000000005A3,3,0,1,1,240.12,488.46720000000005A3,3,0,1,1,234.12,488.46720000000005Z" id="point-1-10" opacity="1"/><path class="data-point" fill="#802392" data-type="point" transform="translate(0, 0)" d="M252.04,480.13056A3,3,0,1,1,258.03999999999996,480.13056A3,3,0,1,1,252.04,480.13056Z" id="point-1-11" opacity="1"/><path class="data-point" fill="#802392" data-type="point" transform="translate(0, 0)" d="M269.96000000000004,471.83136A3,3,0,1,1,275.96000000000004,471.83136A3,3,0,1,1,269.96000000000004,471.83136Z" id="point-1-12" opacity="1"/><path class="data-point" fill="#802392" data-type="point" transform="translate(0, 0)" d="M287.88,463.27008A3,3,0,1,1,293.88,463.27008A3,3,0,1,1,287.88,463.27008Z" id="point-1-13" opacity="1"/><path class="data-point" fill="#802392" data-type="point" transform="translate(0, 0)" d="M305.8,455.44512000000003A3,3,0,1,1,311.8,455.44512000000003A3,3,0,1,1,305.8,455.44512000000003Z" id="point-1-14" opacity="1"/><path class="data-point" fill="#802392" data-type="point" transform="translate(0, 0)" d="M323.72,446.4096A3,3,0,1,1,329.72,446.4096A3,3,0,1,1,323.72,446.4096Z" id="point-1-15" opacity="1"/><path class="data-point" fill="#802392" data-type="point" transform="translate(0, 0)" d="M341.64000000000004,438.50976A3,3,0,1,1,347.64000000000004,438.50976A3,3,0,1,1,341.64000000000004,438.50976Z" id="point-1-16" opacity="1"/><path class="data-point" fill="#802392" data-type="point" transform="translate(0, 0)" d="M359.56,428.88768000000005A3,3,0,1,1,365.56,428.88768000000005A3,3,0,1,1,359.56,428.88768000000005Z" id="point-1-17" opacity="1"/><path class="data-point" fill="#802392" data-type="point" transform="translate(0, 0)" d="M377.48,424.03296A3,3,0,1,1,383.48,424.03296A3,3,0,1,1,377.48,424.03296Z" id="point-1-18" opacity="1"/><path class="data-point" fill="#802392" data-type="point" transform="translate(0, 0)" d="M395.40000000000003,418.46688A3,3,0,1,1,401.40000000000003,418.46688A3,3,0,1,1,395.40000000000003,418.46688Z" id="point-1-19" opacity="1"/><path class="data-point" fill="#802392" data-type="point" transform="translate(0, 0)" d="M413.32,410.87904000000003A3,3,0,1,1,419.32,410.87904000000003A3,3,0,1,1,413.32,410.87904000000003Z" id="point-1-20" opacity="1"/><path class="data-point" fill="#802392" data-type="point" transform="translate(0, 0)" d="M431.24,405.83712A3,3,0,1,1,437.24,405.83712A3,3,0,1,1,431.24,405.83712Z" id="point-1-21" opacity="1"/><path class="data-point" fill="#802392" data-type="point" transform="translate(0, 0)" d="M449.16,403.92768A3,3,0,1,1,455.16,403.92768A3,3,0,1,1,449.16,403.92768Z" id="point-1-22" opacity="1"/><path class="data-point" fill="#802392" data-type="point" transform="translate(0, 0)" d="M467.08,400.68288000000007A3,3,0,1,1,473.08,400.68288000000007A3,3,0,1,1,467.08,400.68288000000007Z" id="point-1-23" opacity="1"/><path class="data-point" fill="#802392" data-type="point" transform="translate(0, 0)" d="M485,396.88896A3,3,0,1,1,491,396.88896A3,3,0,1,1,485,396.88896Z" id="point-1-24" opacity="1"/><path class="data-point" fill="#802392" data-type="point" transform="translate(0, 0)" d="M502.92,393.56928A3,3,0,1,1,508.92,393.56928A3,3,0,1,1,502.92,393.56928Z" id="point-1-25" opacity="1"/><path class="data-point" fill="#802392" data-type="point" transform="translate(0, 0)" d="M520.84,389.72544000000005A3,3,0,1,1,526.84,389.72544000000005A3,3,0,1,1,520.84,389.72544000000005Z" id="point-1-26" opacity="1"/><path class="data-point" fill="#802392" data-type="point" transform="translate(0, 0)" d="M538.76,385.73184000000003A3,3,0,1,1,544.76,385.73184000000003A3,3,0,1,1,538.76,385.73184000000003Z" id="point-1-27" opacity="1"/><path class="data-point" fill="#802392" data-type="point" transform="translate(0, 0)" d="M556.68,382.6381728A3,3,0,1,1,562.68,382.6381728A3,3,0,1,1,556.68,382.6381728Z" id="point-1-28" opacity="1"/><path class="data-point" fill="#802392" data-type="point" transform="translate(0, 0)" d="M574.6,375.25874880000003A3,3,0,1,1,580.6,375.25874880000003A3,3,0,1,1,574.6,375.25874880000003Z" id="point-1-29" opacity="1"/><path class="data-point" fill="#802392" data-type="point" transform="translate(0, 0)" d="M592.52,367.5749376A3,3,0,1,1,598.52,367.5749376A3,3,0,1,1,592.52,367.5749376Z" id="point-1-30" opacity="1"/><path class="data-point" fill="#802392" data-type="point" transform="translate(0, 0)" d="M610.44,359.574384A3,3,0,1,1,616.44,359.574384A3,3,0,1,1,610.44,359.574384Z" id="point-1-31" opacity="1"/><path class="data-point" fill="#802392" data-type="point" transform="translate(0, 0)" d="M628.36,351.2438592A3,3,0,1,1,634.36,351.2438592A3,3,0,1,1,628.36,351.2438592Z" id="point-1-32" opacity="1"/><path class="data-point" fill="#802392" data-type="point" transform="translate(0, 0)" d="M646.2800000000001,342.56976000000003A3,3,0,1,1,652.2800000000001,342.56976000000003A3,3,0,1,1,646.2800000000001,342.56976000000003Z" id="point-1-33" opacity="1"/><path class="data-point" fill="#802392" data-type="point" transform="translate(0, 0)" d="M664.1999999999999,333.53810880000003A3,3,0,1,1,670.1999999999999,333.53810880000003A3,3,0,1,1,664.1999999999999,333.53810880000003Z" id="point-1-34" opacity="1"/><path class="data-point" fill="#802392" data-type="point" transform="translate(0, 0)" d="M682.12,324.1339296A3,3,0,1,1,688.12,324.1339296A3,3,0,1,1,682.12,324.1339296Z" id="point-1-35" opacity="1"/><path class="data-point" fill="#802392" data-type="point" transform="translate(0, 0)" d="M700.04,314.3421216A3,3,0,1,1,706.04,314.3421216A3,3,0,1,1,700.04,314.3421216Z" id="point-1-36" opacity="1"/><path class="data-point" fill="#802392" data-type="point" transform="translate(0, 0)" d="M717.96,304.146336A3,3,0,1,1,723.96,304.146336A3,3,0,1,1,717.96,304.146336Z" id="point-1-37" opacity="1"/><path class="data-point" fill="#802392" data-type="point" transform="translate(0, 0)" d="M735.88,293.5303488A3,3,0,1,1,741.88,293.5303488A3,3,0,1,1,735.88,293.5303488Z" id="point-1-38" opacity="1"/><path class="data-point" fill="#802392" data-type="point" transform="translate(0, 0)" d="M753.8000000000001,282.47643840000006A3,3,0,1,1,759.8000000000001,282.47643840000006A3,3,0,1,1,753.8000000000001,282.47643840000006Z" id="point-1-39" opacity="1"/><path class="data-point" fill="#802392" data-type="point" transform="translate(0, 0)" d="M771.7199999999999,270.96675840000006A3,3,0,1,1,777.7199999999999,270.96675840000006A3,3,0,1,1,771.7199999999999,270.96675840000006Z" id="point-1-40" opacity="1"/><path class="data-point" fill="#802392" data-type="point" transform="translate(0, 0)" d="M789.64,258.98258880000003A3,3,0,1,1,795.64,258.98258880000003A3,3,0,1,1,789.64,258.98258880000003Z" id="point-1-41" opacity="1"/><path class="data-point" fill="#802392" data-type="point" transform="translate(0, 0)" d="M807.56,246.5042112A3,3,0,1,1,813.56,246.5042112A3,3,0,1,1,807.56,246.5042112Z" id="point-1-42" opacity="1"/><path class="data-point" fill="#802392" data-type="point" transform="translate(0, 0)" d="M825.48,233.5111584A3,3,0,1,1,831.48,233.5111584A3,3,0,1,1,825.48,233.5111584Z" id="point-1-43" opacity="1"/><path class="data-point" fill="#802392" data-type="point" transform="translate(0, 0)" d="M843.4,219.982464A3,3,0,1,1,849.4,219.982464A3,3,0,1,1,843.4,219.982464Z" id="point-1-44" opacity="1"/><path class="data-point" fill="#802392" data-type="point" transform="translate(0, 0)" d="M861.32,205.89591360000003A3,3,0,1,1,867.32,205.89591360000003A3,3,0,1,1,861.32,205.89591360000003Z" id="point-1-45" opacity="1"/><path class="data-point" fill="#802392" data-type="point" transform="translate(0, 0)" d="M879.24,191.22841920000002A3,3,0,1,1,885.24,191.22841920000002A3,3,0,1,1,879.24,191.22841920000002Z" id="point-1-46" opacity="1"/></g></g><g id="data-labels"/><g class="annotations above"><g class="axis-highlights" transform="translate(15, 20)" style="opacity: 1;"/></g></svg>