<svg xmlns="http://www.w3.org/2000/svg" id="graphic" width="961" height="634.6"><g id="facets"><g class="facet" transform="translate(15,20)" opacity="1"><text class="facet-title" y="0" font-size="16" font-weight="bold" dominant-baseline="middle" x="0" clip-path="url(#facet-clip-0)" fill="black"/><g class="plot"><clipPath class="facet-clip" id="facet-clip-0"><rect width="951" height="581.6" transform="translate(-7.5,-10)"/></clipPath><g class="bg"><rect fill="none" width="936" height="561.6" style="fill: none;"/></g><g class="interaction"><g class="series"><path data-target="point-0-0" d="M0,486.00583199999994L63.87197014437143,486.00583199999994L73.00833454257139,480.52180799999996L0,302.6889320562831Z" style="opacity: 0;"/><path data-target="point-0-1" d="M0,302.6889320562831L73.00833454257139,480.52180799999996L81.12199254628571,480.52180799999996L90.99947432,475.19784L0,231.19053496899647Z" style="opacity: 0;"/><path data-target="point-0-2" d="M0,231.19053496899647L90.99947432,475.19784L99.43425661022144,475.19784L108.24419203885715,470.89879199999996L0,111.11277857549982Z" style="opacity: 0;"/><path data-target="point-0-3" d="M0,111.11277857549982L108.24419203885715,470.89879199999996L117.01393584789997,470.89879199999996L127.07823785800002,466.245936L0,83.70648967155944Z" style="opacity: 0;"/><path data-target="point-0-4" d="M0,83.70648967155944L127.07823785800002,466.245936L133.9944032618857,466.245936L145.19159302742852,461.315088L0,15.844497953097743Z" style="opacity: 0;"/><path data-target="point-0-5" d="M0,15.844497953097743L145.19159302742852,461.315088L151.63800357839997,461.315088L162.59900646685713,456.687504L30.926212902857316,0L0,0Z" style="opacity: 0;"/><path data-target="point-0-6" d="M30.926212902857316,0L162.59900646685713,456.687504L168.8258587557143,456.687504L180.45884917857148,451.83528L53.01709475714172,0Z" style="opacity: 0;"/><path data-target="point-0-7" d="M53.01709475714172,0L180.45884917857148,451.83528L187.22786594807852,451.83528L197.8863003806428,447.48007199999995L84.29428317500091,-2.842170943040401e-14Z" style="opacity: 0;"/><path data-target="point-0-8" d="M84.29428317500091,-2.842170943040401e-14L197.8863003806428,447.48007199999995L204.84684630475715,447.48007199999995L215.75729278285712,443.03781599999996L104.68138320000021,0Z" style="opacity: 0;"/><path data-target="point-0-9" d="M104.68138320000021,0L215.75729278285712,443.03781599999996L221.96017367714282,443.03781599999996L233.12258028035717,438.42707999999993L186.045669286133,232.6504718216813L170.24508929111488,176.63068836356098L117.82007997759746,15.265336916232627L113.81767941333217,3.862486305790185L112.36026676799989,0Z" style="opacity: 0;"/><path data-target="point-0-10" d="M186.045669286133,232.6504718216813L233.12258028035717,438.42707999999993L238.97682346481432,438.42707999999993L253.00834903614285,432.342144Z" style="opacity: 0;"/><path data-target="point-0-11" d="M170.24508929111488,176.63068836356098L186.045669286133,232.6504718216813L253.00834903614285,432.342144L255.43086708591423,432.342144L272.1226947304286,424.783008Z" style="opacity: 0;"/><path data-target="point-0-12" d="M117.82007997759746,15.265336916232627L170.24508929111488,176.63068836356098L272.1226947304286,424.783008L273.5025530371214,424.783008L290.34359557278566,417.09189599999996Z" style="opacity: 0;"/><path data-target="point-0-13" d="M113.81767941333217,3.862486305790185L117.82007997759746,15.265336916232627L290.34359557278566,417.09189599999996L291.5006897513429,417.09189599999996L309.06260040801095,409.0910385593726L309.27472943171335,408.849898931289Z" style="opacity: 0;"/><path data-target="point-0-14" d="M112.36026676799989,0L113.81767941333217,3.862486305790185L309.27472943171335,408.849898931289L325.96863692466866,401.40395137615485L327.17760074588324,400.0117960764437L132.8682992678572,0Z" style="opacity: 0;"/><path data-target="point-0-15" d="M132.8682992678572,0L327.17760074588324,400.0117960764437L335.68,396.186336L335.67999999999995,328.3236127281962L298.3876431611111,143.83438081249338L293.5937093000007,124.22299238220734L258.1668646599999,0Z" style="opacity: 0;"/><path data-target="point-0-16" d="M335.67999999999995,328.3236127281962L335.68,396.186336L346.16110953988573,396.186336L359.92992657885713,388.307088Z" style="opacity: 0;"/><path data-target="point-0-17" d="M298.3876431611111,143.83438081249338L335.67999999999995,328.3236127281962L359.92992657885713,388.307088L365.41954408371424,388.307088L376.72770627,381.90484799999996Z" style="opacity: 0;"/><path data-target="point-0-18" d="M293.5937093000007,124.22299238220734L298.3876431611111,143.83438081249338L376.72770627,381.90484799999996L382.42813124594284,381.90484799999996L395.3133436728571,373.896432Z" style="opacity: 0;"/><path data-target="point-0-19" d="M258.1668646599999,0L293.5937093000007,124.22299238220734L395.3133436728571,373.896432L401.1452839562857,373.896432L408.9535169342857,368.94312L402.8761307350682,315.0758159233645L276.7325739943748,0Z" style="opacity: 0;"/><path data-target="point-0-20" d="M402.8761307350682,315.0758159233645L408.9535169342857,368.94312L420.51614733267854,368.94312L433.11270157660715,359.03087999999997Z" style="opacity: 0;"/><path data-target="point-0-21" d="M276.7325739943748,0L402.8761307350682,315.0758159233645L433.11270157660715,359.03087999999997L438.1051203257928,359.03087999999997L447.59213765017853,353.11723199999994L411.81001086805554,236.013040324997L331.10498611532597,39.80709220819898L308.0153620975895,0Z" style="opacity: 0;"/><path data-target="point-0-22" d="M411.81001086805554,236.013040324997L447.59213765017853,353.11723199999994L456.60847794079996,353.11723199999994L468.50493194214283,345.65356799999995Z" style="opacity: 0;"/><path data-target="point-0-23" d="M331.10498611532597,39.80709220819898L411.81001086805554,236.013040324997L468.50493194214283,345.65356799999995L478.69915211340003,345.65356799999995L488.5873044112295,340.9288092464754L488.6117285887626,340.8994276451403L347.11157984168995,63.89915393685513Z" style="opacity: 0;"/><path data-target="point-0-24" d="M347.11157984168995,63.89915393685513L488.6117285887626,340.8994276451403L508.3723286317857,331.80732L370.61483189337446,96.74417520815919Z" style="opacity: 0;"/><path data-target="point-0-25" d="M370.61483189337446,96.74417520815919L508.3723286317857,331.80732L508.5453425027429,331.80732L528.6146118395523,323.69396713288575L528.6859851840903,323.63228967713394L453.1432701064439,202.50265161937438Z" style="opacity: 0;"/><path data-target="point-0-26" d="M453.1432701064439,202.50265161937438L528.6859851840903,323.63228967713394L541.9282231930536,319.1251499787366L547.7717471785496,314.6399945L543.812371297231,299.2633576134111Z" style="opacity: 0;"/><path data-target="point-0-27" d="M308.0153620975895,0L331.10498611532597,39.80709220819898L347.11157984168995,63.89915393685513L370.61483189337446,96.74417520815919L453.1432701064439,202.50265161937438L543.812371297231,299.2633576134111L558.8740802333273,263.577068609252L556.311624490355,217.3299231870015L542.0475939977606,152.7087374798582L518.137538930516,75.12490689622828L490.74567983649,0Z" style="opacity: 0;"/><path data-target="point-0-28" d="M543.812371297231,299.2633576134111L547.7717471785496,314.6399945L556.6698845319546,314.6399945L575.2809553385541,307.50538805478953L579.9065444090298,303.0468996226753L558.8740802333273,263.577068609252Z" style="opacity: 0;"/><path data-target="point-0-29" d="M556.311624490355,217.3299231870015L558.8740802333273,263.577068609252L579.9065444090298,303.0468996226753L592.905811598958,298.0621985906708L598.0573721515525,293.04085299004936Z" style="opacity: 0;"/><path data-target="point-0-30" d="M542.0475939977606,152.7087374798582L556.311624490355,217.3299231870015L598.0573721515525,293.04085299004936L610.5454634428665,288.2437335447096L616.1917824246632,282.66432588943456Z" style="opacity: 0;"/><path data-target="point-0-31" d="M518.137538930516,75.12490689622828L542.0475939977606,152.7087374798582L616.1917824246632,282.66432588943456L628.2033418450442,278.0347374560952L634.3066751061608,271.9037490580258Z" style="opacity: 0;"/><path data-target="point-0-32" d="M490.74567983649,0L518.137538930516,75.12490689622828L634.3066751061608,271.9037490580258L645.8835822808576,267.4188918087768L652.3985745794374,260.7453940701723L493.1206937055805,0Z" style="opacity: 0;"/><path data-target="point-0-33" d="M493.1206937055805,0L652.3985745794374,260.7453940701723L663.590583221788,256.3792343629938L670.464016997845,249.17501010738613L512.9665278162419,0Z" style="opacity: 0;"/><path data-target="point-0-34" d="M512.9665278162419,0L670.464016997845,249.17501010738613L681.328972719194,244.897878374093L688.499018888372,237.1781973799162L533.3776086342492,-2.842170943040401e-14Z" style="opacity: 0;"/><path data-target="point-0-35" d="M533.3776086342492,-2.842170943040401e-14L688.499018888372,237.1781973799162L699.1038514152503,232.95590753594104L706.4995787486822,224.74016394649962L554.4073876522043,0Z" style="opacity: 0;"/><path data-target="point-0-36" d="M554.4073876522043,0L706.4995787486822,224.74016394649962L716.9206773342836,220.533232971936L724.4614500020833,211.84606261935406L576.115984574009,0Z" style="opacity: 0;"/><path data-target="point-0-37" d="M576.115984574009,0L724.4614500020833,211.84606261935406L734.7849878070347,207.60871778441532L742.3803816484217,198.48079116102858L598.566417139471,-2.842170943040401e-14Z" style="opacity: 0;"/><path data-target="point-0-38" d="M598.566417139471,-2.842170943040401e-14L742.3803816484217,198.48079116102858L752.702605805601,194.1596700600421L760.2521524720544,184.62930175664386L621.8277655934558,0Z" style="opacity: 0;"/><path data-target="point-0-39" d="M621.8277655934558,0L760.2521524720544,184.62930175664386L770.6792667310739,180.1619220585332L778.0727753717495,170.27672108641696L645.9746131959363,0Z" style="opacity: 0;"/><path data-target="point-0-40" d="M645.9746131959363,0L778.0727753717495,170.27672108641696L788.7203992033243,165.58956433783322L795.8386828925507,155.4085849752504L671.087918917652,0Z" style="opacity: 0;"/><path data-target="point-0-41" d="M671.087918917652,0L795.8386828925507,155.4085849752504L806.830966044781,150.41453772007975L813.5473806262578,140.01094639456912L697.2524290305466,0Z" style="opacity: 0;"/><path data-target="point-0-42" d="M697.2524290305466,0L813.5473806262578,140.01094639456912L825.0146292550173,134.60641889929195L831.1975259983187,124.07110603887438L724.5632361146538,0Z" style="opacity: 0;"/><path data-target="point-0-43" d="M724.5632361146538,0L831.1975259983187,124.07110603887438L843.2734465755348,118.13176336495685L848.7901796908208,107.57787591017745L753.1195717815746,1.4210854715202004e-14Z" style="opacity: 0;"/><path data-target="point-0-44" d="M753.1195717815746,1.4210854715202004e-14L848.7901796908208,107.57787591017745L861.6065224896415,100.95360714948697L866.329637008874,90.5226503903581L783.0304314423325,0Z" style="opacity: 0;"/><path data-target="point-0-45" d="M783.0304314423325,0L866.329637008874,90.5226503903581L888.8566286966438,78.184492L814.4120255542612,0Z" style="opacity: 0;"/><path data-target="point-0-46" d="M814.4120255542612,0L888.8566286966438,78.184492L936,78.184492L936,0Z" style="opacity: 0;"/><path data-target="point-1-0" d="M79.10507242867857,561.6L63.87197014437143,486.00583199999994L0,486.00583199999994L0,561.6Z" style="opacity: 0;"/><path data-target="point-1-1" d="M63.87197014437143,486.00583199999994L79.10507242867857,561.6L99.06097687374293,561.6L81.12199254628571,480.52180799999996L73.00833454257139,480.52180799999996Z" style="opacity: 0;"/><path data-target="point-1-2" d="M81.12199254628571,480.52180799999996L99.06097687374293,561.6L114.8956917078642,561.6L99.43425661022144,475.19784L90.99947432,475.19784Z" style="opacity: 0;"/><path data-target="point-1-3" d="M99.43425661022144,475.19784L114.8956917078642,561.6L133.98372694859287,561.6L117.01393584789997,470.89879199999996L108.24419203885715,470.89879199999996Z" style="opacity: 0;"/><path data-target="point-1-4" d="M117.01393584789997,470.89879199999996L133.98372694859287,561.6L155.39083357279998,561.6L133.9944032618857,466.245936L127.07823785800002,466.245936Z" style="opacity: 0;"/><path data-target="point-1-5" d="M133.9944032618857,466.245936L155.39083357279998,561.6L174.5180062512001,561.6L151.63800357839997,461.315088L145.19159302742852,461.315088Z" style="opacity: 0;"/><path data-target="point-1-6" d="M151.63800357839997,461.315088L174.5180062512001,561.6L196.049527405257,561.6L168.8258587557143,456.687504L162.59900646685713,456.687504Z" style="opacity: 0;"/><path data-target="point-1-7" d="M168.8258587557143,456.687504L196.049527405257,561.6L212.7178800458645,561.6L187.22786594807852,451.83528L180.45884917857148,451.83528Z" style="opacity: 0;"/><path data-target="point-1-8" d="M187.22786594807852,451.83528L212.7178800458645,561.6L232.81458387377137,561.6L204.84684630475715,447.48007199999995L197.8863003806428,447.48007199999995Z" style="opacity: 0;"/><path data-target="point-1-9" d="M204.84684630475715,447.48007199999995L232.81458387377137,561.6L255.84693960982872,561.6L221.96017367714282,443.03781599999996L215.75729278285712,443.03781599999996Z" style="opacity: 0;"/><path data-target="point-1-10" d="M221.96017367714282,443.03781599999996L255.84693960982872,561.6L281.32268357842105,561.6L238.97682346481432,438.42707999999993L233.12258028035717,438.42707999999993Z" style="opacity: 0;"/><path data-target="point-1-11" d="M238.97682346481432,438.42707999999993L281.32268357842105,561.6L311.41359860751453,561.6L255.43086708591423,432.342144L253.00834903614285,432.342144Z" style="opacity: 0;"/><path data-target="point-1-12" d="M255.43086708591423,432.342144L311.41359860751453,561.6L332.20180676823577,561.6L273.5025530371214,424.783008L272.1226947304286,424.783008Z" style="opacity: 0;"/><path data-target="point-1-13" d="M273.5025530371214,424.783008L332.20180676823577,561.6L352.7750934244783,561.6L291.5006897513429,417.09189599999996L290.34359557278566,417.09189599999996Z" style="opacity: 0;"/><path data-target="point-1-14" d="M291.5006897513429,417.09189599999996L352.7750934244783,561.6L375.49795504842876,561.6L309.06260040801095,409.0910385593726Z" style="opacity: 0;"/><path data-target="point-1-15" d="M309.06260040801095,409.0910385593726L375.49795504842876,561.6L406.89796430320007,561.6L325.96863692466866,401.40395137615485L309.27472943171335,408.849898931289Z" style="opacity: 0;"/><path data-target="point-1-16" d="M325.96863692466866,401.40395137615485L406.89796430320007,561.6L424.74973206937113,561.6L346.16110953988573,396.186336L335.68,396.186336L327.17760074588324,400.0117960764437Z" style="opacity: 0;"/><path data-target="point-1-17" d="M346.16110953988573,396.186336L424.74973206937113,561.6L432.2193198852861,561.6L365.41954408371424,388.307088L359.92992657885713,388.307088Z" style="opacity: 0;"/><path data-target="point-1-18" d="M365.41954408371424,388.307088L432.2193198852861,561.6L469.8292861051426,561.6L382.42813124594284,381.90484799999996L376.72770627,381.90484799999996Z" style="opacity: 0;"/><path data-target="point-1-19" d="M382.42813124594284,381.90484799999996L469.8292861051426,561.6L483.7355242461713,561.6L401.1452839562857,373.896432L395.3133436728571,373.896432Z" style="opacity: 0;"/><path data-target="point-1-20" d="M401.1452839562857,373.896432L483.7355242461713,561.6L501.11982957803605,561.6L420.51614733267854,368.94312L408.9535169342857,368.94312Z" style="opacity: 0;"/><path data-target="point-1-21" d="M420.51614733267854,368.94312L501.11982957803605,561.6L504.99925026652136,561.6L495.9872296576841,522.3333112289965L438.1051203257928,359.03087999999997L433.11270157660715,359.03087999999997Z" style="opacity: 0;"/><path data-target="point-1-22" d="M438.1051203257928,359.03087999999997L495.9872296576841,522.3333112289965L480.1917940571384,427.77160400486986L456.60847794079996,353.11723199999994L447.59213765017853,353.11723199999994Z" style="opacity: 0;"/><path data-target="point-1-23" d="M456.60847794079996,353.11723199999994L480.1917940571384,427.77160400486986L478.69915211340003,345.65356799999995L468.50493194214283,345.65356799999995Z" style="opacity: 0;"/><path data-target="point-1-24" d="M478.69915211340003,345.65356799999995L480.1917940571384,427.77160400486986L495.9872296576841,522.3333112289965L504.99925026652136,561.6L574.7510105220501,561.6L556.5691998997333,499.2841741196863L555.7930931412153,497.11658899050843L488.5873044112295,340.9288092464754Z" style="opacity: 0;"/><path data-target="point-1-25" d="M488.5873044112295,340.9288092464754L555.7930931412153,497.11658899050843L508.5453425027429,331.80732L508.3723286317857,331.80732L488.6117285887626,340.8994276451403Z" style="opacity: 0;"/><path data-target="point-1-26" d="M508.5453425027429,331.80732L555.7930931412153,497.11658899050843L556.5691998997333,499.2841741196863L528.6146118395523,323.69396713288575Z" style="opacity: 0;"/><path data-target="point-1-27" d="M528.6146118395523,323.69396713288575L556.5691998997333,499.2841741196863L574.7510105220501,561.6L622.5124528649387,561.6L541.9282231930536,319.1251499787366L528.6859851840903,323.63228967713394Z" style="opacity: 0;"/><path data-target="point-1-28" d="M541.9282231930536,319.1251499787366L622.5124528649387,561.6L683.1480671924758,561.6L556.6698845319546,314.6399945L547.7717471785496,314.6399945Z" style="opacity: 0;"/><path data-target="point-1-29" d="M556.6698845319546,314.6399945L683.1480671924758,561.6L710.8670171616258,561.6L575.2809553385541,307.50538805478953Z" style="opacity: 0;"/><path data-target="point-1-30" d="M575.2809553385541,307.50538805478953L710.8670171616258,561.6L739.4244759754469,561.6L592.905811598958,298.0621985906708L579.9065444090298,303.0468996226753Z" style="opacity: 0;"/><path data-target="point-1-31" d="M592.905811598958,298.0621985906708L739.4244759754469,561.6L768.8905892659598,561.6L610.5454634428665,288.2437335447096L598.0573721515525,293.04085299004936Z" style="opacity: 0;"/><path data-target="point-1-32" d="M610.5454634428665,288.2437335447096L768.8905892659598,561.6L799.3467033404885,561.6L628.2033418450442,278.0347374560952L616.1917824246632,282.66432588943456Z" style="opacity: 0;"/><path data-target="point-1-33" d="M628.2033418450442,278.0347374560952L799.3467033404885,561.6L830.8750546651538,561.6L645.8835822808576,267.4188918087768L634.3066751061608,271.9037490580258Z" style="opacity: 0;"/><path data-target="point-1-34" d="M645.8835822808576,267.4188918087768L830.8750546651538,561.6L863.5667663760491,561.6L663.590583221788,256.3792343629938L652.3985745794374,260.7453940701723Z" style="opacity: 0;"/><path data-target="point-1-35" d="M663.590583221788,256.3792343629938L863.5667663760491,561.6L897.5230604269186,561.6L681.328972719194,244.897878374093L670.464016997845,249.17501010738613Z" style="opacity: 0;"/><path data-target="point-1-36" d="M681.328972719194,244.897878374093L897.5230604269186,561.6L932.8524023286512,561.6L699.1038514152503,232.95590753594104L688.499018888372,237.1781973799162Z" style="opacity: 0;"/><path data-target="point-1-37" d="M699.1038514152503,232.95590753594104L932.8524023286512,561.6L936,561.6L936,516.1648879324948L716.9206773342836,220.533232971936L706.4995787486822,224.74016394649962Z" style="opacity: 0;"/><path data-target="point-1-38" d="M716.9206773342836,220.533232971936L936,516.1648879324948L936,468.2120429552242L734.7849878070347,207.60871778441532L724.4614500020833,211.84606261935406Z" style="opacity: 0;"/><path data-target="point-1-39" d="M734.7849878070347,207.60871778441532L936,468.2120429552242L936,422.00828324732316L752.702605805601,194.1596700600421L742.3803816484217,198.48079116102858Z" style="opacity: 0;"/><path data-target="point-1-40" d="M752.702605805601,194.1596700600421L936,422.00828324732316L936,377.3992549265718L770.6792667310739,180.1619220585332L760.2521524720544,184.62930175664386Z" style="opacity: 0;"/><path data-target="point-1-41" d="M770.6792667310739,180.1619220585332L936,377.3992549265718L936,334.23484732999657L788.7203992033243,165.58956433783322L778.0727753717495,170.27672108641696Z" style="opacity: 0;"/><path data-target="point-1-42" d="M788.7203992033243,165.58956433783322L936,334.23484732999657L936,292.3733822958734L806.830966044781,150.41453772007975L795.8386828925507,155.4085849752504Z" style="opacity: 0;"/><path data-target="point-1-43" d="M806.830966044781,150.41453772007975L936,292.3733822958734L936,251.67484676924846L825.0146292550173,134.60641889929195L813.5473806262578,140.01094639456912Z" style="opacity: 0;"/><path data-target="point-1-44" d="M825.0146292550173,134.60641889929195L936,251.67484676924846L936,212.00666032528537L843.2734465755348,118.13176336495685L831.1975259983187,124.07110603887438Z" style="opacity: 0;"/><path data-target="point-1-45" d="M843.2734465755348,118.13176336495685L936,212.00666032528537L936,173.23922083631533L861.6065224896415,100.95360714948697L848.7901796908208,107.57787591017745Z" style="opacity: 0;"/><path data-target="point-1-46" d="M861.6065224896415,100.95360714948697L936,173.23922083631533L936,78.184492L888.8566286966438,78.184492L866.329637008874,90.5226503903581Z" style="opacity: 0;"/></g><g class="series"><path data-target="point-0-0" d="M0,486.00583199999994L63.87197014437143,486.00583199999994L73.00833454257139,480.52180799999996L0,302.6889320562831Z" style="opacity: 0;"/><path data-target="point-0-1" d="M0,302.6889320562831L73.00833454257139,480.52180799999996L81.12199254628571,480.52180799999996L90.99947432,475.19784L0,231.19053496899647Z" style="opacity: 0;"/><path data-target="point-0-2" d="M0,231.19053496899647L90.99947432,475.19784L99.43425661022144,475.19784L108.24419203885715,470.89879199999996L0,111.11277857549982Z" style="opacity: 0;"/><path data-target="point-0-3" d="M0,111.11277857549982L108.24419203885715,470.89879199999996L117.01393584789997,470.89879199999996L127.07823785800002,466.245936L0,83.70648967155944Z" style="opacity: 0;"/><path data-target="point-0-4" d="M0,83.70648967155944L127.07823785800002,466.245936L133.9944032618857,466.245936L145.19159302742852,461.315088L0,15.844497953097743Z" style="opacity: 0;"/><path data-target="point-0-5" d="M0,15.844497953097743L145.19159302742852,461.315088L151.63800357839997,461.315088L162.59900646685713,456.687504L30.926212902857316,0L0,0Z" style="opacity: 0;"/><path data-target="point-0-6" d="M30.926212902857316,0L162.59900646685713,456.687504L168.8258587557143,456.687504L180.45884917857148,451.83528L53.01709475714172,0Z" style="opacity: 0;"/><path data-target="point-0-7" d="M53.01709475714172,0L180.45884917857148,451.83528L187.22786594807852,451.83528L197.8863003806428,447.48007199999995L84.29428317500091,-2.842170943040401e-14Z" style="opacity: 0;"/><path data-target="point-0-8" d="M84.29428317500091,-2.842170943040401e-14L197.8863003806428,447.48007199999995L204.84684630475715,447.48007199999995L215.75729278285712,443.03781599999996L104.68138320000021,0Z" style="opacity: 0;"/><path data-target="point-0-9" d="M104.68138320000021,0L215.75729278285712,443.03781599999996L221.96017367714282,443.03781599999996L233.12258028035717,438.42707999999993L186.045669286133,232.6504718216813L170.24508929111488,176.63068836356098L117.82007997759746,15.265336916232627L113.81767941333217,3.862486305790185L112.36026676799989,0Z" style="opacity: 0;"/><path data-target="point-0-10" d="M186.045669286133,232.6504718216813L233.12258028035717,438.42707999999993L238.97682346481432,438.42707999999993L253.00834903614285,432.342144Z" style="opacity: 0;"/><path data-target="point-0-11" d="M170.24508929111488,176.63068836356098L186.045669286133,232.6504718216813L253.00834903614285,432.342144L255.43086708591423,432.342144L272.1226947304286,424.783008Z" style="opacity: 0;"/><path data-target="point-0-12" d="M117.82007997759746,15.265336916232627L170.24508929111488,176.63068836356098L272.1226947304286,424.783008L273.5025530371214,424.783008L290.34359557278566,417.09189599999996Z" style="opacity: 0;"/><path data-target="point-0-13" d="M113.81767941333217,3.862486305790185L117.82007997759746,15.265336916232627L290.34359557278566,417.09189599999996L291.5006897513429,417.09189599999996L309.06260040801095,409.0910385593726L309.27472943171335,408.849898931289Z" style="opacity: 0;"/><path data-target="point-0-14" d="M112.36026676799989,0L113.81767941333217,3.862486305790185L309.27472943171335,408.849898931289L325.96863692466866,401.40395137615485L327.17760074588324,400.0117960764437L132.8682992678572,0Z" style="opacity: 0;"/><path data-target="point-0-15" d="M132.8682992678572,0L327.17760074588324,400.0117960764437L335.68,396.186336L335.67999999999995,328.3236127281962L298.3876431611111,143.83438081249338L293.5937093000007,124.22299238220734L258.1668646599999,0Z" style="opacity: 0;"/><path data-target="point-0-16" d="M335.67999999999995,328.3236127281962L335.68,396.186336L346.16110953988573,396.186336L359.92992657885713,388.307088Z" style="opacity: 0;"/><path data-target="point-0-17" d="M298.3876431611111,143.83438081249338L335.67999999999995,328.3236127281962L359.92992657885713,388.307088L365.41954408371424,388.307088L376.72770627,381.90484799999996Z" style="opacity: 0;"/><path data-target="point-0-18" d="M293.5937093000007,124.22299238220734L298.3876431611111,143.83438081249338L376.72770627,381.90484799999996L382.42813124594284,381.90484799999996L395.3133436728571,373.896432Z" style="opacity: 0;"/><path data-target="point-0-19" d="M258.1668646599999,0L293.5937093000007,124.22299238220734L395.3133436728571,373.896432L401.1452839562857,373.896432L408.9535169342857,368.94312L402.8761307350682,315.0758159233645L276.7325739943748,0Z" style="opacity: 0;"/><path data-target="point-0-20" d="M402.8761307350682,315.0758159233645L408.9535169342857,368.94312L420.51614733267854,368.94312L433.11270157660715,359.03087999999997Z" style="opacity: 0;"/><path data-target="point-0-21" d="M276.7325739943748,0L402.8761307350682,315.0758159233645L433.11270157660715,359.03087999999997L438.1051203257928,359.03087999999997L447.59213765017853,353.11723199999994L411.81001086805554,236.013040324997L331.10498611532597,39.80709220819898L308.0153620975895,0Z" style="opacity: 0;"/><path data-target="point-0-22" d="M411.81001086805554,236.013040324997L447.59213765017853,353.11723199999994L456.60847794079996,353.11723199999994L468.50493194214283,345.65356799999995Z" style="opacity: 0;"/><path data-target="point-0-23" d="M331.10498611532597,39.80709220819898L411.81001086805554,236.013040324997L468.50493194214283,345.65356799999995L478.69915211340003,345.65356799999995L488.5873044112295,340.9288092464754L488.6117285887626,340.8994276451403L347.11157984168995,63.89915393685513Z" style="opacity: 0;"/><path data-target="point-0-24" d="M347.11157984168995,63.89915393685513L488.6117285887626,340.8994276451403L508.3723286317857,331.80732L370.61483189337446,96.74417520815919Z" style="opacity: 0;"/><path data-target="point-0-25" d="M370.61483189337446,96.74417520815919L508.3723286317857,331.80732L508.5453425027429,331.80732L528.6146118395523,323.69396713288575L528.6859851840903,323.63228967713394L453.1432701064439,202.50265161937438Z" style="opacity: 0;"/><path data-target="point-0-26" d="M453.1432701064439,202.50265161937438L528.6859851840903,323.63228967713394L541.9282231930536,319.1251499787366L547.7717471785496,314.6399945L543.812371297231,299.2633576134111Z" style="opacity: 0;"/><path data-target="point-0-27" d="M308.0153620975895,0L331.10498611532597,39.80709220819898L347.11157984168995,63.89915393685513L370.61483189337446,96.74417520815919L453.1432701064439,202.50265161937438L543.812371297231,299.2633576134111L558.8740802333273,263.577068609252L556.311624490355,217.3299231870015L542.0475939977606,152.7087374798582L518.137538930516,75.12490689622828L490.74567983649,0Z" style="opacity: 0;"/><path data-target="point-0-28" d="M543.812371297231,299.2633576134111L547.7717471785496,314.6399945L556.6698845319546,314.6399945L575.2809553385541,307.50538805478953L579.9065444090298,303.0468996226753L558.8740802333273,263.577068609252Z" style="opacity: 0;"/><path data-target="point-0-29" d="M556.311624490355,217.3299231870015L558.8740802333273,263.577068609252L579.9065444090298,303.0468996226753L592.905811598958,298.0621985906708L598.0573721515525,293.04085299004936Z" style="opacity: 0;"/><path data-target="point-0-30" d="M542.0475939977606,152.7087374798582L556.311624490355,217.3299231870015L598.0573721515525,293.04085299004936L610.5454634428665,288.2437335447096L616.1917824246632,282.66432588943456Z" style="opacity: 0;"/><path data-target="point-0-31" d="M518.137538930516,75.12490689622828L542.0475939977606,152.7087374798582L616.1917824246632,282.66432588943456L628.2033418450442,278.0347374560952L634.3066751061608,271.9037490580258Z" style="opacity: 0;"/><path data-target="point-0-32" d="M490.74567983649,0L518.137538930516,75.12490689622828L634.3066751061608,271.9037490580258L645.8835822808576,267.4188918087768L652.3985745794374,260.7453940701723L493.1206937055805,0Z" style="opacity: 0;"/><path data-target="point-0-33" d="M493.1206937055805,0L652.3985745794374,260.7453940701723L663.590583221788,256.3792343629938L670.464016997845,249.17501010738613L512.9665278162419,0Z" style="opacity: 0;"/><path data-target="point-0-34" d="M512.9665278162419,0L670.464016997845,249.17501010738613L681.328972719194,244.897878374093L688.499018888372,237.1781973799162L533.3776086342492,-2.842170943040401e-14Z" style="opacity: 0;"/><path data-target="point-0-35" d="M533.3776086342492,-2.842170943040401e-14L688.499018888372,237.1781973799162L699.1038514152503,232.95590753594104L706.4995787486822,224.74016394649962L554.4073876522043,0Z" style="opacity: 0;"/><path data-target="point-0-36" d="M554.4073876522043,0L706.4995787486822,224.74016394649962L716.9206773342836,220.533232971936L724.4614500020833,211.84606261935406L576.115984574009,0Z" style="opacity: 0;"/><path data-target="point-0-37" d="M576.115984574009,0L724.4614500020833,211.84606261935406L734.7849878070347,207.60871778441532L742.3803816484217,198.48079116102858L598.566417139471,-2.842170943040401e-14Z" style="opacity: 0;"/><path data-target="point-0-38" d="M598.566417139471,-2.842170943040401e-14L742.3803816484217,198.48079116102858L752.702605805601,194.1596700600421L760.2521524720544,184.62930175664386L621.8277655934558,0Z" style="opacity: 0;"/><path data-target="point-0-39" d="M621.8277655934558,0L760.2521524720544,184.62930175664386L770.6792667310739,180.1619220585332L778.0727753717495,170.27672108641696L645.9746131959363,0Z" style="opacity: 0;"/><path data-target="point-0-40" d="M645.9746131959363,0L778.0727753717495,170.27672108641696L788.7203992033243,165.58956433783322L795.8386828925507,155.4085849752504L671.087918917652,0Z" style="opacity: 0;"/><path data-target="point-0-41" d="M671.087918917652,0L795.8386828925507,155.4085849752504L806.830966044781,150.41453772007975L813.5473806262578,140.01094639456912L697.2524290305466,0Z" style="opacity: 0;"/><path data-target="point-0-42" d="M697.2524290305466,0L813.5473806262578,140.01094639456912L825.0146292550173,134.60641889929195L831.1975259983187,124.07110603887438L724.5632361146538,0Z" style="opacity: 0;"/><path data-target="point-0-43" d="M724.5632361146538,0L831.1975259983187,124.07110603887438L843.2734465755348,118.13176336495685L848.7901796908208,107.57787591017745L753.1195717815746,1.4210854715202004e-14Z" style="opacity: 0;"/><path data-target="point-0-44" d="M753.1195717815746,1.4210854715202004e-14L848.7901796908208,107.57787591017745L861.6065224896415,100.95360714948697L866.329637008874,90.5226503903581L783.0304314423325,0Z" style="opacity: 0;"/><path data-target="point-0-45" d="M783.0304314423325,0L866.329637008874,90.5226503903581L888.8566286966438,78.184492L814.4120255542612,0Z" style="opacity: 0;"/><path data-target="point-0-46" d="M814.4120255542612,0L888.8566286966438,78.184492L936,78.184492L936,0Z" style="opacity: 0;"/><path data-target="point-1-0" d="M79.10507242867857,561.6L63.87197014437143,486.00583199999994L0,486.00583199999994L0,561.6Z" style="opacity: 0;"/><path data-target="point-1-1" d="M63.87197014437143,486.00583199999994L79.10507242867857,561.6L99.06097687374293,561.6L81.12199254628571,480.52180799999996L73.00833454257139,480.52180799999996Z" style="opacity: 0;"/><path data-target="point-1-2" d="M81.12199254628571,480.52180799999996L99.06097687374293,561.6L114.8956917078642,561.6L99.43425661022144,475.19784L90.99947432,475.19784Z" style="opacity: 0;"/><path data-target="point-1-3" d="M99.43425661022144,475.19784L114.8956917078642,561.6L133.98372694859287,561.6L117.01393584789997,470.89879199999996L108.24419203885715,470.89879199999996Z" style="opacity: 0;"/><path data-target="point-1-4" d="M117.01393584789997,470.89879199999996L133.98372694859287,561.6L155.39083357279998,561.6L133.9944032618857,466.245936L127.07823785800002,466.245936Z" style="opacity: 0;"/><path data-target="point-1-5" d="M133.9944032618857,466.245936L155.39083357279998,561.6L174.5180062512001,561.6L151.63800357839997,461.315088L145.19159302742852,461.315088Z" style="opacity: 0;"/><path data-target="point-1-6" d="M151.63800357839997,461.315088L174.5180062512001,561.6L196.049527405257,561.6L168.8258587557143,456.687504L162.59900646685713,456.687504Z" style="opacity: 0;"/><path data-target="point-1-7" d="M168.8258587557143,456.687504L196.049527405257,561.6L212.7178800458645,561.6L187.22786594807852,451.83528L180.45884917857148,451.83528Z" style="opacity: 0;"/><path data-target="point-1-8" d="M187.22786594807852,451.83528L212.7178800458645,561.6L232.81458387377137,561.6L204.84684630475715,447.48007199999995L197.8863003806428,447.48007199999995Z" style="opacity: 0;"/><path data-target="point-1-9" d="M204.84684630475715,447.48007199999995L232.81458387377137,561.6L255.84693960982872,561.6L221.96017367714282,443.03781599999996L215.75729278285712,443.03781599999996Z" style="opacity: 0;"/><path data-target="point-1-10" d="M221.96017367714282,443.03781599999996L255.84693960982872,561.6L281.32268357842105,561.6L238.97682346481432,438.42707999999993L233.12258028035717,438.42707999999993Z" style="opacity: 0;"/><path data-target="point-1-11" d="M238.97682346481432,438.42707999999993L281.32268357842105,561.6L311.41359860751453,561.6L255.43086708591423,432.342144L253.00834903614285,432.342144Z" style="opacity: 0;"/><path data-target="point-1-12" d="M255.43086708591423,432.342144L311.41359860751453,561.6L332.20180676823577,561.6L273.5025530371214,424.783008L272.1226947304286,424.783008Z" style="opacity: 0;"/><path data-target="point-1-13" d="M273.5025530371214,424.783008L332.20180676823577,561.6L352.7750934244783,561.6L291.5006897513429,417.09189599999996L290.34359557278566,417.09189599999996Z" style="opacity: 0;"/><path data-target="point-1-14" d="M291.5006897513429,417.09189599999996L352.7750934244783,561.6L375.49795504842876,561.6L309.06260040801095,409.0910385593726Z" style="opacity: 0;"/><path data-target="point-1-15" d="M309.06260040801095,409.0910385593726L375.49795504842876,561.6L406.89796430320007,561.6L325.96863692466866,401.40395137615485L309.27472943171335,408.849898931289Z" style="opacity: 0;"/><path data-target="point-1-16" d="M325.96863692466866,401.40395137615485L406.89796430320007,561.6L424.74973206937113,561.6L346.16110953988573,396.186336L335.68,396.186336L327.17760074588324,400.0117960764437Z" style="opacity: 0;"/><path data-target="point-1-17" d="M346.16110953988573,396.186336L424.74973206937113,561.6L432.2193198852861,561.6L365.41954408371424,388.307088L359.92992657885713,388.307088Z" style="opacity: 0;"/><path data-target="point-1-18" d="M365.41954408371424,388.307088L432.2193198852861,561.6L469.8292861051426,561.6L382.42813124594284,381.90484799999996L376.72770627,381.90484799999996Z" style="opacity: 0;"/><path data-target="point-1-19" d="M382.42813124594284,381.90484799999996L469.8292861051426,561.6L483.7355242461713,561.6L401.1452839562857,373.896432L395.3133436728571,373.896432Z" style="opacity: 0;"/><path data-target="point-1-20" d="M401.1452839562857,373.896432L483.7355242461713,561.6L501.11982957803605,561.6L420.51614733267854,368.94312L408.9535169342857,368.94312Z" style="opacity: 0;"/><path data-target="point-1-21" d="M420.51614733267854,368.94312L501.11982957803605,561.6L504.99925026652136,561.6L495.9872296576841,522.3333112289965L438.1051203257928,359.03087999999997L433.11270157660715,359.03087999999997Z" style="opacity: 0;"/><path data-target="point-1-22" d="M438.1051203257928,359.03087999999997L495.9872296576841,522.3333112289965L480.1917940571384,427.77160400486986L456.60847794079996,353.11723199999994L447.59213765017853,353.11723199999994Z" style="opacity: 0;"/><path data-target="point-1-23" d="M456.60847794079996,353.11723199999994L480.1917940571384,427.77160400486986L478.69915211340003,345.65356799999995L468.50493194214283,345.65356799999995Z" style="opacity: 0;"/><path data-target="point-1-24" d="M478.69915211340003,345.65356799999995L480.1917940571384,427.77160400486986L495.9872296576841,522.3333112289965L504.99925026652136,561.6L574.7510105220501,561.6L556.5691998997333,499.2841741196863L555.7930931412153,497.11658899050843L488.5873044112295,340.9288092464754Z" style="opacity: 0;"/><path data-target="point-1-25" d="M488.5873044112295,340.9288092464754L555.7930931412153,497.11658899050843L508.5453425027429,331.80732L508.3723286317857,331.80732L488.6117285887626,340.8994276451403Z" style="opacity: 0;"/><path data-target="point-1-26" d="M508.5453425027429,331.80732L555.7930931412153,497.11658899050843L556.5691998997333,499.2841741196863L528.6146118395523,323.69396713288575Z" style="opacity: 0;"/><path data-target="point-1-27" d="M528.6146118395523,323.69396713288575L556.5691998997333,499.2841741196863L574.7510105220501,561.6L622.5124528649387,561.6L541.9282231930536,319.1251499787366L528.6859851840903,323.63228967713394Z" style="opacity: 0;"/><path data-target="point-1-28" d="M541.9282231930536,319.1251499787366L622.5124528649387,561.6L683.1480671924758,561.6L556.6698845319546,314.6399945L547.7717471785496,314.6399945Z" style="opacity: 0;"/><path data-target="point-1-29" d="M556.6698845319546,314.6399945L683.1480671924758,561.6L710.8670171616258,561.6L575.2809553385541,307.50538805478953Z" style="opacity: 0;"/><path data-target="point-1-30" d="M575.2809553385541,307.50538805478953L710.8670171616258,561.6L739.4244759754469,561.6L592.905811598958,298.0621985906708L579.9065444090298,303.0468996226753Z" style="opacity: 0;"/><path data-target="point-1-31" d="M592.905811598958,298.0621985906708L739.4244759754469,561.6L768.8905892659598,561.6L610.5454634428665,288.2437335447096L598.0573721515525,293.04085299004936Z" style="opacity: 0;"/><path data-target="point-1-32" d="M610.5454634428665,288.2437335447096L768.8905892659598,561.6L799.3467033404885,561.6L628.2033418450442,278.0347374560952L616.1917824246632,282.66432588943456Z" style="opacity: 0;"/><path data-target="point-1-33" d="M628.2033418450442,278.0347374560952L799.3467033404885,561.6L830.8750546651538,561.6L645.8835822808576,267.4188918087768L634.3066751061608,271.9037490580258Z" style="opacity: 0;"/><path data-target="point-1-34" d="M645.8835822808576,267.4188918087768L830.8750546651538,561.6L863.5667663760491,561.6L663.590583221788,256.3792343629938L652.3985745794374,260.7453940701723Z" style="opacity: 0;"/><path data-target="point-1-35" d="M663.590583221788,256.3792343629938L863.5667663760491,561.6L897.5230604269186,561.6L681.328972719194,244.897878374093L670.464016997845,249.17501010738613Z" style="opacity: 0;"/><path data-target="point-1-36" d="M681.328972719194,244.897878374093L897.5230604269186,561.6L932.8524023286512,561.6L699.1038514152503,232.95590753594104L688.499018888372,237.1781973799162Z" style="opacity: 0;"/><path data-target="point-1-37" d="M699.1038514152503,232.95590753594104L932.8524023286512,561.6L936,561.6L936,516.1648879324948L716.9206773342836,220.533232971936L706.4995787486822,224.74016394649962Z" style="opacity: 0;"/><path data-target="point-1-38" d="M716.9206773342836,220.533232971936L936,516.1648879324948L936,468.2120429552242L734.7849878070347,207.60871778441532L724.4614500020833,211.84606261935406Z" style="opacity: 0;"/><path data-target="point-1-39" d="M734.7849878070347,207.60871778441532L936,468.2120429552242L936,422.00828324732316L752.702605805601,194.1596700600421L742.3803816484217,198.48079116102858Z" style="opacity: 0;"/><path data-target="point-1-40" d="M752.702605805601,194.1596700600421L936,422.00828324732316L936,377.3992549265718L770.6792667310739,180.1619220585332L760.2521524720544,184.62930175664386Z" style="opacity: 0;"/><path data-target="point-1-41" d="M770.6792667310739,180.1619220585332L936,377.3992549265718L936,334.23484732999657L788.7203992033243,165.58956433783322L778.0727753717495,170.27672108641696Z" style="opacity: 0;"/><path data-target="point-1-42" d="M788.7203992033243,165.58956433783322L936,334.23484732999657L936,292.3733822958734L806.830966044781,150.41453772007975L795.8386828925507,155.4085849752504Z" style="opacity: 0;"/><path data-target="point-1-43" d="M806.830966044781,150.41453772007975L936,292.3733822958734L936,251.67484676924846L825.0146292550173,134.60641889929195L813.5473806262578,140.01094639456912Z" style="opacity: 0;"/><path data-target="point-1-44" d="M825.0146292550173,134.60641889929195L936,251.67484676924846L936,212.00666032528537L843.2734465755348,118.13176336495685L831.1975259983187,124.07110603887438Z" style="opacity: 0;"/><path data-target="point-1-45" d="M843.2734465755348,118.13176336495685L936,212.00666032528537L936,173.23922083631533L861.6065224896415,100.95360714948697L848.7901796908208,107.57787591017745Z" style="opacity: 0;"/><path data-target="point-1-46" d="M861.6065224896415,100.95360714948697L936,173.23922083631533L936,78.184492L888.8566286966438,78.184492L866.329637008874,90.5226503903581Z" style="opacity: 0;"/></g></g><g class="axes"><g class="y axis" fill="none" font-size="10" font-family="sans-serif" text-anchor="end" style="font-family: &quot;Source Sans Pro&quot;;"><path class="domain" stroke="#eeeeee" d="M0.5,562.1V0.5" stroke-dasharray="0" style="visibility: hidden;"/><g class="tick" opacity="1" transform="translate(0,562.1)" style="visibility: visible;"><line stroke="#eeeeee" x2="936" stroke-dasharray="0"/><text fill="rgb(0, 0, 0)" x="3" dy="-0.33em" opacity="1" text-anchor="start" font-size="18">$0</text></g><g class="tick" opacity="1" transform="translate(0, 505.94000244140625)" style="visibility: visible;"><line stroke="#eeeeee" x2="936" stroke-dasharray="0"/><text fill="rgb(0, 0, 0)" x="3" dy="-0.33em" opacity="1" text-anchor="start" font-size="18">$10,000</text></g><g class="tick" opacity="1" transform="translate(0, 449.7799987792969)" style="visibility: visible;"><line stroke="#eeeeee" x2="936" stroke-dasharray="0"/><text fill="rgb(0, 0, 0)" x="3" dy="-0.33em" opacity="1" text-anchor="start" font-size="18">$20,000</text></g><g class="tick" opacity="1" transform="translate(0, 393.6199951171875)" style="visibility: visible;"><line stroke="#eeeeee" x2="936" stroke-dasharray="0"/><text fill="rgb(0, 0, 0)" x="3" dy="-0.33em" opacity="1" text-anchor="start" font-size="18">$30,000</text></g><g class="tick" opacity="1" transform="translate(0, 337.4599914550781)" style="visibility: visible;"><line stroke="#eeeeee" x2="936" stroke-dasharray="0"/><text fill="rgb(0, 0, 0)" x="3" dy="-0.33em" opacity="1" text-anchor="start" font-size="18">$40,000</text></g><g class="tick" opacity="1" transform="translate(0, 281.29998779296875)" style="visibility: visible;"><line stroke="#eeeeee" x2="936" stroke-dasharray="0"/><text fill="rgb(0, 0, 0)" x="3" dy="-0.33em" opacity="1" text-anchor="start" font-size="18">$50,000</text></g><g class="tick" opacity="1" transform="translate(0, 225.13999938964844)" style="visibility: visible;"><line stroke="#eeeeee" x2="936" stroke-dasharray="0"/><text fill="rgb(0, 0, 0)" x="3" dy="-0.33em" opacity="1" text-anchor="start" font-size="18">$60,000</text></g><g class="tick" opacity="1" transform="translate(0, 168.97999572753906)" style="visibility: visible;"><line stroke="#eeeeee" x2="936" stroke-dasharray="0"/><text fill="rgb(0, 0, 0)" x="3" dy="-0.33em" opacity="1" text-anchor="start" font-size="18">$70,000</text></g><g class="tick" opacity="1" transform="translate(0, 112.81999969482422)" style="visibility: visible;"><line stroke="#eeeeee" x2="936" stroke-dasharray="0"/><text fill="rgb(0, 0, 0)" x="3" dy="-0.33em" opacity="1" text-anchor="start" font-size="18">$80,000</text></g><g class="tick" opacity="1" transform="translate(0, 56.65999984741211)" style="visibility: visible;"><line stroke="#eeeeee" x2="936" stroke-dasharray="0"/><text fill="rgb(0, 0, 0)" x="3" dy="-0.33em" opacity="1" text-anchor="start" font-size="18">$90,000</text></g><g class="tick" opacity="1" transform="translate(0, 0.5)" style="visibility: visible;"><line stroke="#eeeeee" x2="936" stroke-dasharray="0"/><text fill="rgb(0, 0, 0)" x="3" dy="-0.33em" opacity="1" text-anchor="start" font-size="18">$100,000</text></g></g><g class="x axis" transform="translate(0,561.6)" fill="none" font-size="10" font-family="sans-serif" text-anchor="middle" style="font-family: &quot;Source Sans Pro&quot;;"><path class="domain" stroke="#eeeeee" d="M40.5,0.5H936.5" stroke-dasharray="0"/><g class="tick" opacity="1" transform="translate(40.5,0)"><line stroke="#eeeeee" y2="6" stroke-dasharray="0"/><text fill="rgb(0, 0, 0)" y="9" dy="-9" opacity="1" dominant-baseline="central" font-size="18" transform="translate(0, 15) rotate(-45)" dx="5" style="text-anchor: end; visibility: visible;">1990</text></g><g class="tick" opacity="1" transform="translate(130.10000000000002,0)"><line stroke="#eeeeee" y2="6" stroke-dasharray="0"/><text fill="rgb(0, 0, 0)" y="9" dy="-9" opacity="1" dominant-baseline="central" font-size="18" transform="translate(0, 15) rotate(-45)" dx="5" style="text-anchor: end; visibility: visible;">1995</text></g><g class="tick" opacity="1" transform="translate(219.70000000000002,0)"><line stroke="#eeeeee" y2="6" stroke-dasharray="0"/><text fill="rgb(0, 0, 0)" y="9" dy="-9" opacity="1" dominant-baseline="central" font-size="18" transform="translate(0, 15) rotate(-45)" dx="5" style="text-anchor: end; visibility: visible;">2000</text></g><g class="tick" opacity="1" transform="translate(309.3,0)"><line stroke="#eeeeee" y2="6" stroke-dasharray="0"/><text fill="rgb(0, 0, 0)" y="9" dy="-9" opacity="1" dominant-baseline="central" font-size="18" transform="translate(0, 15) rotate(-45)" dx="5" style="text-anchor: end; visibility: visible;">2005</text></g><g class="tick" opacity="1" transform="translate(398.90000000000003,0)"><line stroke="#eeeeee" y2="6" stroke-dasharray="0"/><text fill="rgb(0, 0, 0)" y="9" dy="-9" opacity="1" dominant-baseline="central" font-size="18" transform="translate(0, 15) rotate(-45)" dx="5" style="text-anchor: end; visibility: visible;">2010</text></g><g class="tick" opacity="1" transform="translate(488.5,0)"><line stroke="#eeeeee" y2="6" stroke-dasharray="0"/><text fill="rgb(0, 0, 0)" y="9" dy="-9" opacity="1" dominant-baseline="central" font-size="18" transform="translate(0, 15) rotate(-45)" dx="5" style="text-anchor: end; visibility: visible;">2015</text></g><g class="tick" opacity="1" transform="translate(578.1,0)"><line stroke="#eeeeee" y2="6" stroke-dasharray="0"/><text fill="rgb(0, 0, 0)" y="9" dy="-9" opacity="1" dominant-baseline="central" font-size="18" transform="translate(0, 15) rotate(-45)" dx="5" style="text-anchor: end; visibility: visible;">2020</text></g><g class="tick" opacity="1" transform="translate(667.6999999999999,0)"><line stroke="#eeeeee" y2="6" stroke-dasharray="0"/><text fill="rgb(0, 0, 0)" y="9" dy="-9" opacity="1" dominant-baseline="central" font-size="18" transform="translate(0, 15) rotate(-45)" dx="5" style="text-anchor: end; visibility: visible;">2025</text></g><g class="tick" opacity="1" transform="translate(757.3000000000001,0)"><line stroke="#eeeeee" y2="6" stroke-dasharray="0"/><text fill="rgb(0, 0, 0)" y="9" dy="-9" opacity="1" dominant-baseline="central" font-size="18" transform="translate(0, 15) rotate(-45)" dx="5" style="text-anchor: end; visibility: visible;">2030</text></g><g class="tick" opacity="1" transform="translate(846.9,0)"><line stroke="#eeeeee" y2="6" stroke-dasharray="0"/><text fill="rgb(0, 0, 0)" y="9" dy="-9" opacity="1" dominant-baseline="central" font-size="18" transform="translate(0, 15) rotate(-45)" dx="5" style="text-anchor: end; visibility: visible;">2035</text></g><g class="tick" opacity="1" transform="translate(936.5,0)"><line stroke="#eeeeee" y2="6" stroke-dasharray="0"/><text fill="rgb(0, 0, 0)" y="9" dy="-9" opacity="1" dominant-baseline="central" font-size="18" transform="translate(0, 15) rotate(-45)" dx="5" style="text-anchor: end; visibility: visible;">2040</text></g></g></g></g></g></g><g class="annotations below"><g class="axis-highlights" transform="translate(15, 20)" style="opacity: 1;"><g class="line x" transform="translate(559.68, 0)"><line width="0" stroke-dasharray="2 2" stroke="#333333" stroke-width="2" y2="561.6"/><text transform="translate(0, 6) rotate(-90)" fill="#333333" text-anchor="end" dy="-0.5em" font-size="12">Current</text></g></g></g><g id="areas"><g class="series" pointer-events="none"><path class="area" transform="translate(15,20)" fill-opacity="0" fill="rgb(17, 165, 121)" clip-path="url(#clip-0-0)" d="M57.92,469.27296C63.89333333333334,466.76448000000005,69.86666666666667,464.2560000000001,75.84,461.91600000000005C81.81333333333333,459.5760000000001,87.78666666666666,457.24536,93.75999999999999,455.23296C99.73333333333333,453.22056,105.70666666666666,451.73232,111.68,449.8416C117.65333333333335,447.95088000000004,123.62666666666668,445.85424,129.60000000000002,443.88864C135.57333333333335,441.92304,141.54666666666665,439.88256,147.51999999999998,438.048C153.4933333333333,436.21344,159.46666666666667,434.5848000000001,165.44,432.88128000000006C171.41333333333333,431.17776000000003,177.38666666666668,429.42744000000005,183.36,427.82688C189.33333333333334,426.22632,195.30666666666667,424.78488,201.28,423.27792C207.25333333333333,421.77096,213.2266666666667,420.2172,219.20000000000002,418.78512C225.17333333333335,417.35304,231.14666666666668,416.37024,237.12,414.68544C243.09333333333333,413.00064000000003,249.06666666666666,410.90400000000005,255.04,408.67632000000003C261.0133333333333,406.44864,266.9866666666667,403.82784000000004,272.96000000000004,401.31936C278.93333333333334,398.81088,284.9066666666667,396.3492,290.88,393.62544C296.85333333333335,390.90168,302.82666666666665,387.86904000000004,308.8,384.9768C314.77333333333337,382.08456,320.74666666666667,376.27200000000005,326.72,376.27200000000005C332.6933333333334,376.27200000000005,338.6666666666667,376.27200000000005,344.64000000000004,376.27200000000005C350.61333333333334,376.27200000000005,356.5866666666667,371.21760000000006,362.56,369.02736000000004C368.53333333333336,366.83712,374.50666666666666,365.3301600000001,380.48,363.13056000000006C386.4533333333334,360.93096,392.4266666666667,357.17760000000004,398.40000000000003,355.82976C404.37333333333333,354.48192,410.3466666666667,355.15584,416.32,353.808C422.29333333333335,352.46016,428.26666666666665,344.44800000000004,434.24,341.48088C440.21333333333337,338.51376,446.18666666666667,338.46227999999996,452.16,336.00527999999997C458.1333333333333,333.54828,464.1066666666667,329.80896,470.08,326.73888C476.05333333333334,323.6688,482.02666666666664,320.8608,488,317.5848C493.97333333333336,314.30879999999996,499.94666666666666,310.69584000000003,505.92,307.08288000000005C511.8933333333334,303.46992000000006,517.8666666666667,300.56832,523.84,295.90704C529.8133333333334,291.24576,535.7866666666666,279.1152,541.76,279.1152C547.7333333333333,279.1152,553.7066666666666,286.67849184,559.68,286.67849184C565.6533333333333,286.67849184,571.6266666666667,280.36769904,577.6,277.1293824C583.5733333333334,273.89106576,589.5466666666666,270.59938776,595.52,267.24859200000003C601.4933333333333,263.89779624,607.4666666666667,260.4917952,613.44,257.02460784C619.4133333333334,253.55742048,625.3866666666667,250.03308095999998,631.36,246.44546784C637.3333333333334,242.85785471999998,643.3066666666667,239.21115192000005,649.2800000000001,235.49892912C655.2533333333333,231.78670632000004,661.2266666666667,228.01329719999998,667.1999999999999,224.17213104C673.1733333333333,220.33096487999998,679.1466666666666,216.42651576000003,685.12,212.45193216C691.0933333333334,208.47734856000002,697.0666666666666,204.43726368000003,703.04,200.32462944000002C709.0133333333333,196.21199520000002,714.9866666666667,192.03160392,720.96,187.77612671999998C726.9333333333334,183.52064951999998,732.9066666666666,179.19505655999998,738.88,174.79176624000002C744.8533333333334,170.38847592000002,750.8266666666667,165.9126268800001,756.8000000000001,161.35638480000006C762.7733333333333,156.80014272000008,768.7466666666667,152.16880535999996,774.7199999999999,147.45431376C780.6933333333333,142.73982215999996,786.6666666666666,137.94768000000005,792.64,133.06943520000004C798.6133333333333,128.19119040000007,804.5866666666666,123.23253384000002,810.56,118.18484496000002C816.5333333333333,113.13715608,822.5066666666667,108.00631296000002,828.48,102.78330191999999C834.4533333333334,97.56029088,840.4266666666666,92.25120527999995,846.4,86.84677871999997C852.3733333333333,81.44235215999997,858.3466666666667,75.94888392000006,864.32,70.35674256000004C870.2933333333334,64.76460120000006,876.2666666666667,59.02926588000002,882.24,53.29393055999998L882.24,53.29393055999998C876.2666666666667,59.02926588000002,870.2933333333334,64.76460120000006,864.32,70.35674256000004C858.3466666666667,75.94888392000006,852.3733333333333,81.44235215999997,846.4,86.84677871999997C840.4266666666666,92.25120527999995,834.4533333333334,97.56029088,828.48,102.78330191999999C822.5066666666667,108.00631296000002,816.5333333333333,113.13715608,810.56,118.18484496000002C804.5866666666666,123.23253384000002,798.6133333333333,128.19119040000007,792.64,133.06943520000004C786.6666666666666,137.94768000000005,780.6933333333333,142.73982215999996,774.7199999999999,147.45431376C768.7466666666667,152.16880535999996,762.7733333333333,156.80014272000008,756.8000000000001,161.35638480000006C750.8266666666667,165.9126268800001,744.8533333333334,170.38847592000002,738.88,174.79176624000002C732.9066666666666,179.19505655999998,726.9333333333334,183.52064951999998,720.96,187.77612671999998C714.9866666666667,192.03160392,709.0133333333333,196.21199520000002,703.04,200.32462944000002C697.0666666666666,204.43726368000003,691.0933333333334,208.47734856000002,685.12,212.45193216C679.1466666666666,216.42651576000003,673.1733333333333,220.33096487999998,667.1999999999999,224.17213104C661.2266666666667,228.01329719999998,655.2533333333333,231.78670632000004,649.2800000000001,235.49892912C643.3066666666667,239.21115192000005,637.3333333333334,242.85785471999998,631.36,246.44546784C625.3866666666667,250.03308095999998,619.4133333333334,253.55742048,613.44,257.02460784C607.4666666666667,260.4917952,601.4933333333333,263.89779624,595.52,267.24859200000003C589.5466666666666,270.59938776,583.5733333333334,273.89106576,577.6,277.1293824C571.6266666666667,280.36769904,565.6533333333333,286.67849184,559.68,286.67849184C553.7066666666666,286.67849184,547.7333333333333,279.1152,541.76,279.1152C535.7866666666666,279.1152,529.8133333333334,291.24576,523.84,295.90704C517.8666666666667,300.56832,511.8933333333334,303.46992000000006,505.92,307.08288000000005C499.94666666666666,310.69584000000003,493.97333333333336,314.30879999999996,488,317.5848C482.02666666666664,320.8608,476.05333333333334,323.6688,470.08,326.73888C464.1066666666667,329.80896,458.1333333333333,333.54828,452.16,336.00527999999997C446.18666666666667,338.46227999999996,440.21333333333337,338.51376,434.24,341.48088C428.26666666666665,344.44800000000004,422.29333333333335,352.46016,416.32,353.808C410.3466666666667,355.15584,404.37333333333333,354.48192,398.40000000000003,355.82976C392.4266666666667,357.17760000000004,386.4533333333334,360.93096,380.48,363.13056000000006C374.50666666666666,365.3301600000001,368.53333333333336,366.83712,362.56,369.02736000000004C356.5866666666667,371.21760000000006,350.61333333333334,376.27200000000005,344.64000000000004,376.27200000000005C338.6666666666667,376.27200000000005,332.6933333333334,376.27200000000005,326.72,376.27200000000005C320.74666666666667,376.27200000000005,314.77333333333337,382.08456,308.8,384.9768C302.82666666666665,387.86904000000004,296.85333333333335,390.90168,290.88,393.62544C284.9066666666667,396.3492,278.93333333333334,398.81088,272.96000000000004,401.31936C266.9866666666667,403.82784000000004,261.0133333333333,406.44864,255.04,408.67632000000003C249.06666666666666,410.90400000000005,243.09333333333333,413.00064000000003,237.12,414.68544C231.14666666666668,416.37024,225.17333333333335,417.35304,219.20000000000002,418.78512C213.2266666666667,420.2172,207.25333333333333,421.77096,201.28,423.27792C195.30666666666667,424.78488,189.33333333333334,426.22632,183.36,427.82688C177.38666666666668,429.42744000000005,171.41333333333333,431.17776000000003,165.44,432.88128000000006C159.46666666666667,434.5848000000001,153.4933333333333,436.21344,147.51999999999998,438.048C141.54666666666665,439.88256,135.57333333333335,441.92304,129.60000000000002,443.88864C123.62666666666668,445.85424,117.65333333333335,447.95088000000004,111.68,449.8416C105.70666666666666,451.73232,99.73333333333333,453.22056,93.75999999999999,455.23296C87.78666666666666,457.24536,81.81333333333333,459.5760000000001,75.84,461.91600000000005C69.86666666666667,464.2560000000001,63.89333333333334,466.76448000000005,57.92,469.27296Z"/></g><g class="series" pointer-events="none"><path class="area" transform="translate(15,20)" fill-opacity="0" fill="rgb(128, 35, 146)" clip-path="url(#clip-0-1)" d="M57.92,502.73870400000004C63.89333333333334,501.56449200000003,69.86666666666667,500.39028,75.84,499.127616C81.81333333333333,497.864952,87.78666666666666,496.357992,93.75999999999999,495.16272000000004C99.73333333333333,493.96744800000005,105.70666666666666,493.0492320000001,111.68,491.95598400000006C117.65333333333335,490.86273600000004,123.62666666666668,489.83220000000006,129.60000000000002,488.60323200000005C135.57333333333335,487.37426400000004,141.54666666666665,485.93376,147.51999999999998,484.582176C153.4933333333333,483.230592,159.46666666666667,481.950144,165.44,480.49372800000003C171.41333333333333,479.03731200000004,177.38666666666668,477.312264,183.36,475.84368C189.33333333333334,474.375096,195.30666666666667,473.107752,201.28,471.682224C207.25333333333333,470.25669600000003,213.2266666666667,468.876096,219.20000000000002,467.29051200000004C225.17333333333335,465.70492800000005,231.14666666666668,464.049144,237.12,462.16872C243.09333333333333,460.288296,249.06666666666666,458.328312,255.04,456.007968C261.0133333333333,453.687624,266.9866666666667,450.821592,272.96000000000004,448.24665600000003C278.93333333333334,445.67172000000005,284.9066666666667,443.10614400000003,290.88,440.558352C296.85333333333335,438.01056,302.82666666666665,435.52735200000006,308.8,432.95990400000005C314.77333333333337,430.39245600000004,320.74666666666667,427.96353600000003,326.72,425.15366400000005C332.6933333333334,422.34379200000006,338.6666666666667,419.02848000000006,344.64000000000004,416.10067200000003C350.61333333333334,413.172864,356.5866666666667,410.157072,362.56,407.586816C368.53333333333336,405.01655999999997,374.50666666666666,403.28308799999996,380.48,400.67913599999997C386.4533333333334,398.075184,392.4266666666667,394.72992000000005,398.40000000000003,391.96310400000004C404.37333333333333,389.19628800000004,410.3466666666667,386.6419440000001,416.32,384.07824000000005C422.29333333333335,381.514536,428.26666666666665,378.889056,434.24,376.58088C440.21333333333337,374.272704,446.18666666666667,372.231288,452.16,370.22918400000003C458.1333333333333,368.22708000000006,464.1066666666667,364.785408,470.08,364.568256C476.05333333333334,364.351104,482.02666666666664,364.45968,488,364.242528C493.97333333333336,364.025376,499.94666666666666,358.67052,505.92,356.53176C511.8933333333334,354.39300000000003,517.8666666666667,352.73908800000004,523.84,351.40996800000005C529.8133333333334,350.08084800000006,535.7866666666666,350.02511856,541.76,348.55704000000003C547.7333333333333,347.08896144000005,553.7066666666666,345.12367968,559.68,342.60149664000005C565.6533333333333,340.07931360000003,571.6266666666667,336.54723336000006,577.6,333.42394176000005C583.5733333333334,330.3006501600001,589.5466666666666,327.11593824000005,595.52,323.86174704000007C601.4933333333333,320.60755584000003,607.4666666666667,317.2893516000001,613.44,313.89879456000006C619.4133333333334,310.5082375200001,625.3866666666667,307.05104664000004,631.36,303.51840480000004C637.3333333333334,299.98576296000005,643.3066666666667,296.38364184000005,649.2800000000001,292.70294352C655.2533333333333,289.02224520000004,661.2266666666667,285.26915664,667.1999999999999,281.43421488C673.1733333333333,277.59927311999996,679.1466666666666,273.68893656,685.12,269.69329296C691.0933333333334,265.69764936,697.0666666666666,261.62344728,703.04,257.46035328C709.0133333333333,253.29725928,714.9866666666667,249.05228400000001,720.96,244.71472896C726.9333333333334,240.37717392000002,732.9066666666666,235.95434928000003,738.88,231.43502304000003C744.8533333333334,226.91569680000003,750.8266666666667,222.30749736000004,756.8000000000001,217.59877152C762.7733333333333,212.89004568000004,768.7466666666667,208.08872135999994,774.7199999999999,203.18266799999998C780.6933333333333,198.27661463999996,786.6666666666666,193.27410648000006,792.64,188.16245136000003C798.6133333333333,183.05079624000007,804.5866666666666,177.83860536,810.56,172.51273728C816.5333333333333,167.1868692,822.5066666666667,161.75630016,828.48,156.20724287999997C834.4533333333334,150.6581856,840.4266666666666,145.00000007999998,846.4,139.2183936C852.3733333333333,133.43678712,858.3466666666667,127.54149408000002,864.32,121.517604C870.2933333333334,115.49371392000003,876.2666666666667,109.28438352000005,882.24,103.07505312000006L882.24,103.07505312000006C876.2666666666667,109.28438352000005,870.2933333333334,115.49371392000003,864.32,121.517604C858.3466666666667,127.54149408000002,852.3733333333333,133.43678712,846.4,139.2183936C840.4266666666666,145.00000007999998,834.4533333333334,150.6581856,828.48,156.20724287999997C822.5066666666667,161.75630016,816.5333333333333,167.1868692,810.56,172.51273728C804.5866666666666,177.83860536,798.6133333333333,183.05079624000007,792.64,188.16245136000003C786.6666666666666,193.27410648000006,780.6933333333333,198.27661463999996,774.7199999999999,203.18266799999998C768.7466666666667,208.08872135999994,762.7733333333333,212.89004568000004,756.8000000000001,217.59877152C750.8266666666667,222.30749736000004,744.8533333333334,226.91569680000003,738.88,231.43502304000003C732.9066666666666,235.95434928000003,726.9333333333334,240.37717392000002,720.96,244.71472896C714.9866666666667,249.05228400000001,709.0133333333333,253.29725928,703.04,257.46035328C697.0666666666666,261.62344728,691.0933333333334,265.69764936,685.12,269.69329296C679.1466666666666,273.68893656,673.1733333333333,277.59927311999996,667.1999999999999,281.43421488C661.2266666666667,285.26915664,655.2533333333333,289.02224520000004,649.2800000000001,292.70294352C643.3066666666667,296.38364184000005,637.3333333333334,299.98576296000005,631.36,303.51840480000004C625.3866666666667,307.05104664000004,619.4133333333334,310.5082375200001,613.44,313.89879456000006C607.4666666666667,317.2893516000001,601.4933333333333,320.60755584000003,595.52,323.86174704000007C589.5466666666666,327.11593824000005,583.5733333333334,330.3006501600001,577.6,333.42394176000005C571.6266666666667,336.54723336000006,565.6533333333333,340.07931360000003,559.68,342.60149664000005C553.7066666666666,345.12367968,547.7333333333333,347.08896144000005,541.76,348.55704000000003C535.7866666666666,350.02511856,529.8133333333334,350.08084800000006,523.84,351.40996800000005C517.8666666666667,352.73908800000004,511.8933333333334,354.39300000000003,505.92,356.53176C499.94666666666666,358.67052,493.97333333333336,364.025376,488,364.242528C482.02666666666664,364.45968,476.05333333333334,364.351104,470.08,364.568256C464.1066666666667,364.785408,458.1333333333333,368.22708000000006,452.16,370.22918400000003C446.18666666666667,372.231288,440.21333333333337,374.272704,434.24,376.58088C428.26666666666665,378.889056,422.29333333333335,381.514536,416.32,384.07824000000005C410.3466666666667,386.6419440000001,404.37333333333333,389.19628800000004,398.40000000000003,391.96310400000004C392.4266666666667,394.72992000000005,386.4533333333334,398.075184,380.48,400.67913599999997C374.50666666666666,403.28308799999996,368.53333333333336,405.01655999999997,362.56,407.586816C356.5866666666667,410.157072,350.61333333333334,413.172864,344.64000000000004,416.10067200000003C338.6666666666667,419.02848000000006,332.6933333333334,422.34379200000006,326.72,425.15366400000005C320.74666666666667,427.96353600000003,314.77333333333337,430.39245600000004,308.8,432.95990400000005C302.82666666666665,435.52735200000006,296.85333333333335,438.01056,290.88,440.558352C284.9066666666667,443.10614400000003,278.93333333333334,445.67172000000005,272.96000000000004,448.24665600000003C266.9866666666667,450.821592,261.0133333333333,453.687624,255.04,456.007968C249.06666666666666,458.328312,243.09333333333333,460.288296,237.12,462.16872C231.14666666666668,464.049144,225.17333333333335,465.70492800000005,219.20000000000002,467.29051200000004C213.2266666666667,468.876096,207.25333333333333,470.25669600000003,201.28,471.682224C195.30666666666667,473.107752,189.33333333333334,474.375096,183.36,475.84368C177.38666666666668,477.312264,171.41333333333333,479.03731200000004,165.44,480.49372800000003C159.46666666666667,481.950144,153.4933333333333,483.230592,147.51999999999998,484.582176C141.54666666666665,485.93376,135.57333333333335,487.37426400000004,129.60000000000002,488.60323200000005C123.62666666666668,489.83220000000006,117.65333333333335,490.86273600000004,111.68,491.95598400000006C105.70666666666666,493.0492320000001,99.73333333333333,493.96744800000005,93.75999999999999,495.16272000000004C87.78666666666666,496.357992,81.81333333333333,497.864952,75.84,499.127616C69.86666666666667,500.39028,63.89333333333334,501.56449200000003,57.92,502.73870400000004Z"/></g></g><g id="lines"><g class="series"><clipPath id="clip-0-0"><rect width="936" y="-20" height="599.6"/></clipPath><path class="line" opacity="1" fill="none" stroke="rgb(17, 165, 121)" stroke-width="2" transform="translate(15,20)" clip-path="url(#clip-0-0)" d="M57.92,469.27296C63.89333333333334,466.76448000000005,69.86666666666667,464.2560000000001,75.84,461.91600000000005C81.81333333333333,459.5760000000001,87.78666666666666,457.24536,93.75999999999999,455.23296C99.73333333333333,453.22056,105.70666666666666,451.73232,111.68,449.8416C117.65333333333335,447.95088000000004,123.62666666666668,445.85424,129.60000000000002,443.88864C135.57333333333335,441.92304,141.54666666666665,439.88256,147.51999999999998,438.048C153.4933333333333,436.21344,159.46666666666667,434.5848000000001,165.44,432.88128000000006C171.41333333333333,431.17776000000003,177.38666666666668,429.42744000000005,183.36,427.82688C189.33333333333334,426.22632,195.30666666666667,424.78488,201.28,423.27792C207.25333333333333,421.77096,213.2266666666667,420.2172,219.20000000000002,418.78512C225.17333333333335,417.35304,231.14666666666668,416.37024,237.12,414.68544C243.09333333333333,413.00064000000003,249.06666666666666,410.90400000000005,255.04,408.67632000000003C261.0133333333333,406.44864,266.9866666666667,403.82784000000004,272.96000000000004,401.31936C278.93333333333334,398.81088,284.9066666666667,396.3492,290.88,393.62544C296.85333333333335,390.90168,302.82666666666665,387.86904000000004,308.8,384.9768C314.77333333333337,382.08456,320.74666666666667,376.27200000000005,326.72,376.27200000000005C332.6933333333334,376.27200000000005,338.6666666666667,376.27200000000005,344.64000000000004,376.27200000000005C350.61333333333334,376.27200000000005,356.5866666666667,371.21760000000006,362.56,369.02736000000004C368.53333333333336,366.83712,374.50666666666666,365.3301600000001,380.48,363.13056000000006C386.4533333333334,360.93096,392.4266666666667,357.17760000000004,398.40000000000003,355.82976C404.37333333333333,354.48192,410.3466666666667,355.15584,416.32,353.808C422.29333333333335,352.46016,428.26666666666665,344.44800000000004,434.24,341.48088C440.21333333333337,338.51376,446.18666666666667,338.46227999999996,452.16,336.00527999999997C458.1333333333333,333.54828,464.1066666666667,329.80896,470.08,326.73888C476.05333333333334,323.6688,482.02666666666664,320.8608,488,317.5848C493.97333333333336,314.30879999999996,499.94666666666666,310.69584000000003,505.92,307.08288000000005C511.8933333333334,303.46992000000006,517.8666666666667,300.56832,523.84,295.90704C529.8133333333334,291.24576,535.7866666666666,279.1152,541.76,279.1152C547.7333333333333,279.1152,553.7066666666666,286.67849184,559.68,286.67849184C565.6533333333333,286.67849184,571.6266666666667,280.36769904,577.6,277.1293824C583.5733333333334,273.89106576,589.5466666666666,270.59938776,595.52,267.24859200000003C601.4933333333333,263.89779624,607.4666666666667,260.4917952,613.44,257.02460784C619.4133333333334,253.55742048,625.3866666666667,250.03308095999998,631.36,246.44546784C637.3333333333334,242.85785471999998,643.3066666666667,239.21115192000005,649.2800000000001,235.49892912C655.2533333333333,231.78670632000004,661.2266666666667,228.01329719999998,667.1999999999999,224.17213104C673.1733333333333,220.33096487999998,679.1466666666666,216.42651576000003,685.12,212.45193216C691.0933333333334,208.47734856000002,697.0666666666666,204.43726368000003,703.04,200.32462944000002C709.0133333333333,196.21199520000002,714.9866666666667,192.03160392,720.96,187.77612671999998C726.9333333333334,183.52064951999998,732.9066666666666,179.19505655999998,738.88,174.79176624000002C744.8533333333334,170.38847592000002,750.8266666666667,165.9126268800001,756.8000000000001,161.35638480000006C762.7733333333333,156.80014272000008,768.7466666666667,152.16880535999996,774.7199999999999,147.45431376C780.6933333333333,142.73982215999996,786.6666666666666,137.94768000000005,792.64,133.06943520000004C798.6133333333333,128.19119040000007,804.5866666666666,123.23253384000002,810.56,118.18484496000002C816.5333333333333,113.13715608,822.5066666666667,108.00631296000002,828.48,102.78330191999999C834.4533333333334,97.56029088,840.4266666666666,92.25120527999995,846.4,86.84677871999997C852.3733333333333,81.44235215999997,858.3466666666667,75.94888392000006,864.32,70.35674256000004C870.2933333333334,64.76460120000006,876.2666666666667,59.02926588000002,882.24,53.29393055999998"/><text class="label" font-size="11" alignment-baseline="middle" opacity="1" x="5" fill="rgb(17, 165, 121)" transform="translate(897.239990234375, 73.29393005371094)"/></g><g class="series"><clipPath id="clip-0-1"><rect width="936" y="-20" height="599.6"/></clipPath><path class="line" opacity="1" fill="none" stroke="rgb(128, 35, 146)" stroke-width="2" transform="translate(15,20)" clip-path="url(#clip-0-1)" d="M57.92,502.73870400000004C63.89333333333334,501.56449200000003,69.86666666666667,500.39028,75.84,499.127616C81.81333333333333,497.864952,87.78666666666666,496.357992,93.75999999999999,495.16272000000004C99.73333333333333,493.96744800000005,105.70666666666666,493.0492320000001,111.68,491.95598400000006C117.65333333333335,490.86273600000004,123.62666666666668,489.83220000000006,129.60000000000002,488.60323200000005C135.57333333333335,487.37426400000004,141.54666666666665,485.93376,147.51999999999998,484.582176C153.4933333333333,483.230592,159.46666666666667,481.950144,165.44,480.49372800000003C171.41333333333333,479.03731200000004,177.38666666666668,477.312264,183.36,475.84368C189.33333333333334,474.375096,195.30666666666667,473.107752,201.28,471.682224C207.25333333333333,470.25669600000003,213.2266666666667,468.876096,219.20000000000002,467.29051200000004C225.17333333333335,465.70492800000005,231.14666666666668,464.049144,237.12,462.16872C243.09333333333333,460.288296,249.06666666666666,458.328312,255.04,456.007968C261.0133333333333,453.687624,266.9866666666667,450.821592,272.96000000000004,448.24665600000003C278.93333333333334,445.67172000000005,284.9066666666667,443.10614400000003,290.88,440.558352C296.85333333333335,438.01056,302.82666666666665,435.52735200000006,308.8,432.95990400000005C314.77333333333337,430.39245600000004,320.74666666666667,427.96353600000003,326.72,425.15366400000005C332.6933333333334,422.34379200000006,338.6666666666667,419.02848000000006,344.64000000000004,416.10067200000003C350.61333333333334,413.172864,356.5866666666667,410.157072,362.56,407.586816C368.53333333333336,405.01655999999997,374.50666666666666,403.28308799999996,380.48,400.67913599999997C386.4533333333334,398.075184,392.4266666666667,394.72992000000005,398.40000000000003,391.96310400000004C404.37333333333333,389.19628800000004,410.3466666666667,386.6419440000001,416.32,384.07824000000005C422.29333333333335,381.514536,428.26666666666665,378.889056,434.24,376.58088C440.21333333333337,374.272704,446.18666666666667,372.231288,452.16,370.22918400000003C458.1333333333333,368.22708000000006,464.1066666666667,364.785408,470.08,364.568256C476.05333333333334,364.351104,482.02666666666664,364.45968,488,364.242528C493.97333333333336,364.025376,499.94666666666666,358.67052,505.92,356.53176C511.8933333333334,354.39300000000003,517.8666666666667,352.73908800000004,523.84,351.40996800000005C529.8133333333334,350.08084800000006,535.7866666666666,350.02511856,541.76,348.55704000000003C547.7333333333333,347.08896144000005,553.7066666666666,345.12367968,559.68,342.60149664000005C565.6533333333333,340.07931360000003,571.6266666666667,336.54723336000006,577.6,333.42394176000005C583.5733333333334,330.3006501600001,589.5466666666666,327.11593824000005,595.52,323.86174704000007C601.4933333333333,320.60755584000003,607.4666666666667,317.2893516000001,613.44,313.89879456000006C619.4133333333334,310.5082375200001,625.3866666666667,307.05104664000004,631.36,303.51840480000004C637.3333333333334,299.98576296000005,643.3066666666667,296.38364184000005,649.2800000000001,292.70294352C655.2533333333333,289.02224520000004,661.2266666666667,285.26915664,667.1999999999999,281.43421488C673.1733333333333,277.59927311999996,679.1466666666666,273.68893656,685.12,269.69329296C691.0933333333334,265.69764936,697.0666666666666,261.62344728,703.04,257.46035328C709.0133333333333,253.29725928,714.9866666666667,249.05228400000001,720.96,244.71472896C726.9333333333334,240.37717392000002,732.9066666666666,235.95434928000003,738.88,231.43502304000003C744.8533333333334,226.91569680000003,750.8266666666667,222.30749736000004,756.8000000000001,217.59877152C762.7733333333333,212.89004568000004,768.7466666666667,208.08872135999994,774.7199999999999,203.18266799999998C780.6933333333333,198.27661463999996,786.6666666666666,193.27410648000006,792.64,188.16245136000003C798.6133333333333,183.05079624000007,804.5866666666666,177.83860536,810.56,172.51273728C816.5333333333333,167.1868692,822.5066666666667,161.75630016,828.48,156.20724287999997C834.4533333333334,150.6581856,840.4266666666666,145.00000007999998,846.4,139.2183936C852.3733333333333,133.43678712,858.3466666666667,127.54149408000002,864.32,121.517604C870.2933333333334,115.49371392000003,876.2666666666667,109.28438352000005,882.24,103.07505312000006"/><text class="label" font-size="11" alignment-baseline="middle" opacity="1" x="5" fill="rgb(128, 35, 146)" transform="translate(897.239990234375, 123.0750503540039)"/></g></g><g id="data-points"><g class="series" transform="translate(15,20)"><path class="data-point" fill="rgb(17, 165, 121)" data-type="point" transform="translate(0, 0)" d="M54.92,469.27296A3,3,0,1,1,60.92,469.27296A3,3,0,1,1,54.92,469.27296Z" id="point-0-0" opacity="1"/><path class="data-point" fill="rgb(17, 165, 121)" data-type="point" transform="translate(0, 0)" d="M72.84,461.91600000000005A3,3,0,1,1,78.84,461.91600000000005A3,3,0,1,1,72.84,461.91600000000005Z" id="point-0-1" opacity="1"/><path class="data-point" fill="rgb(17, 165, 121)" data-type="point" transform="translate(0, 0)" d="M90.75999999999999,455.23296A3,3,0,1,1,96.75999999999999,455.23296A3,3,0,1,1,90.75999999999999,455.23296Z" id="point-0-2" opacity="1"/><path class="data-point" fill="rgb(17, 165, 121)" data-type="point" transform="translate(0, 0)" d="M108.68,449.8416A3,3,0,1,1,114.68,449.8416A3,3,0,1,1,108.68,449.8416Z" id="point-0-3" opacity="1"/><path class="data-point" fill="rgb(17, 165, 121)" data-type="point" transform="translate(0, 0)" d="M126.60000000000002,443.88864A3,3,0,1,1,132.60000000000002,443.88864A3,3,0,1,1,126.60000000000002,443.88864Z" id="point-0-4" opacity="1"/><path class="data-point" fill="rgb(17, 165, 121)" data-type="point" transform="translate(0, 0)" d="M144.51999999999998,438.048A3,3,0,1,1,150.51999999999998,438.048A3,3,0,1,1,144.51999999999998,438.048Z" id="point-0-5" opacity="1"/><path class="data-point" fill="rgb(17, 165, 121)" data-type="point" transform="translate(0, 0)" d="M162.44,432.88128000000006A3,3,0,1,1,168.44,432.88128000000006A3,3,0,1,1,162.44,432.88128000000006Z" id="point-0-6" opacity="1"/><path class="data-point" fill="rgb(17, 165, 121)" data-type="point" transform="translate(0, 0)" d="M180.36,427.82688A3,3,0,1,1,186.36,427.82688A3,3,0,1,1,180.36,427.82688Z" id="point-0-7" opacity="1"/><path class="data-point" fill="rgb(17, 165, 121)" data-type="point" transform="translate(0, 0)" d="M198.28,423.27792A3,3,0,1,1,204.28,423.27792A3,3,0,1,1,198.28,423.27792Z" id="point-0-8" opacity="1"/><path class="data-point" fill="rgb(17, 165, 121)" data-type="point" transform="translate(0, 0)" d="M216.20000000000002,418.78512A3,3,0,1,1,222.20000000000002,418.78512A3,3,0,1,1,216.20000000000002,418.78512Z" id="point-0-9" opacity="1"/><path class="data-point" fill="rgb(17, 165, 121)" data-type="point" transform="translate(0, 0)" d="M234.12,414.68544A3,3,0,1,1,240.12,414.68544A3,3,0,1,1,234.12,414.68544Z" id="point-0-10" opacity="1"/><path class="data-point" fill="rgb(17, 165, 121)" data-type="point" transform="translate(0, 0)" d="M252.04,408.67632000000003A3,3,0,1,1,258.03999999999996,408.67632000000003A3,3,0,1,1,252.04,408.67632000000003Z" id="point-0-11" opacity="1"/><path class="data-point" fill="rgb(17, 165, 121)" data-type="point" transform="translate(0, 0)" d="M269.96000000000004,401.31936A3,3,0,1,1,275.96000000000004,401.31936A3,3,0,1,1,269.96000000000004,401.31936Z" id="point-0-12" opacity="1"/><path class="data-point" fill="rgb(17, 165, 121)" data-type="point" transform="translate(0, 0)" d="M287.88,393.62544A3,3,0,1,1,293.88,393.62544A3,3,0,1,1,287.88,393.62544Z" id="point-0-13" opacity="1"/><path class="data-point" fill="rgb(17, 165, 121)" data-type="point" transform="translate(0, 0)" d="M305.8,384.9768A3,3,0,1,1,311.8,384.9768A3,3,0,1,1,305.8,384.9768Z" id="point-0-14" opacity="1"/><path class="data-point" fill="rgb(17, 165, 121)" data-type="point" transform="translate(0, 0)" d="M323.72,376.27200000000005A3,3,0,1,1,329.72,376.27200000000005A3,3,0,1,1,323.72,376.27200000000005Z" id="point-0-15" opacity="1"/><path class="data-point" fill="rgb(17, 165, 121)" data-type="point" transform="translate(0, 0)" d="M341.64000000000004,376.27200000000005A3,3,0,1,1,347.64000000000004,376.27200000000005A3,3,0,1,1,341.64000000000004,376.27200000000005Z" id="point-0-16" opacity="1"/><path class="data-point" fill="rgb(17, 165, 121)" data-type="point" transform="translate(0, 0)" d="M359.56,369.02736000000004A3,3,0,1,1,365.56,369.02736000000004A3,3,0,1,1,359.56,369.02736000000004Z" id="point-0-17" opacity="1"/><path class="data-point" fill="rgb(17, 165, 121)" data-type="point" transform="translate(0, 0)" d="M377.48,363.13056000000006A3,3,0,1,1,383.48,363.13056000000006A3,3,0,1,1,377.48,363.13056000000006Z" id="point-0-18" opacity="1"/><path class="data-point" fill="rgb(17, 165, 121)" data-type="point" transform="translate(0, 0)" d="M395.40000000000003,355.82976A3,3,0,1,1,401.40000000000003,355.82976A3,3,0,1,1,395.40000000000003,355.82976Z" id="point-0-19" opacity="1"/><path class="data-point" fill="rgb(17, 165, 121)" data-type="point" transform="translate(0, 0)" d="M413.32,353.808A3,3,0,1,1,419.32,353.808A3,3,0,1,1,413.32,353.808Z" id="point-0-20" opacity="1"/><path class="data-point" fill="rgb(17, 165, 121)" data-type="point" transform="translate(0, 0)" d="M431.24,341.48088A3,3,0,1,1,437.24,341.48088A3,3,0,1,1,431.24,341.48088Z" id="point-0-21" opacity="1"/><path class="data-point" fill="rgb(17, 165, 121)" data-type="point" transform="translate(0, 0)" d="M449.16,336.00527999999997A3,3,0,1,1,455.16,336.00527999999997A3,3,0,1,1,449.16,336.00527999999997Z" id="point-0-22" opacity="1"/><path class="data-point" fill="rgb(17, 165, 121)" data-type="point" transform="translate(0, 0)" d="M467.08,326.73888A3,3,0,1,1,473.08,326.73888A3,3,0,1,1,467.08,326.73888Z" id="point-0-23" opacity="1"/><path class="data-point" fill="rgb(17, 165, 121)" data-type="point" transform="translate(0, 0)" d="M485,317.5848A3,3,0,1,1,491,317.5848A3,3,0,1,1,485,317.5848Z" id="point-0-24" opacity="1"/><path class="data-point" fill="rgb(17, 165, 121)" data-type="point" transform="translate(0, 0)" d="M502.92,307.08288000000005A3,3,0,1,1,508.92,307.08288000000005A3,3,0,1,1,502.92,307.08288000000005Z" id="point-0-25" opacity="1"/><path class="data-point" fill="rgb(17, 165, 121)" data-type="point" transform="translate(0, 0)" d="M520.84,295.90704A3,3,0,1,1,526.84,295.90704A3,3,0,1,1,520.84,295.90704Z" id="point-0-26" opacity="1"/><path class="data-point" fill="rgb(17, 165, 121)" data-type="point" transform="translate(0, 0)" d="M538.76,279.1152A3,3,0,1,1,544.76,279.1152A3,3,0,1,1,538.76,279.1152Z" id="point-0-27" opacity="1"/><path class="data-point" fill="rgb(17, 165, 121)" data-type="point" transform="translate(0, 0)" d="M556.68,286.67849184A3,3,0,1,1,562.68,286.67849184A3,3,0,1,1,556.68,286.67849184Z" id="point-0-28" opacity="1"/><path class="data-point" fill="rgb(17, 165, 121)" data-type="point" transform="translate(0, 0)" d="M574.6,277.1293824A3,3,0,1,1,580.6,277.1293824A3,3,0,1,1,574.6,277.1293824Z" id="point-0-29" opacity="1"/><path class="data-point" fill="rgb(17, 165, 121)" data-type="point" transform="translate(0, 0)" d="M592.52,267.24859200000003A3,3,0,1,1,598.52,267.24859200000003A3,3,0,1,1,592.52,267.24859200000003Z" id="point-0-30" opacity="1"/><path class="data-point" fill="rgb(17, 165, 121)" data-type="point" transform="translate(0, 0)" d="M610.44,257.02460784A3,3,0,1,1,616.44,257.02460784A3,3,0,1,1,610.44,257.02460784Z" id="point-0-31" opacity="1"/><path class="data-point" fill="rgb(17, 165, 121)" data-type="point" transform="translate(0, 0)" d="M628.36,246.44546784A3,3,0,1,1,634.36,246.44546784A3,3,0,1,1,628.36,246.44546784Z" id="point-0-32" opacity="1"/><path class="data-point" fill="rgb(17, 165, 121)" data-type="point" transform="translate(0, 0)" d="M646.2800000000001,235.49892912A3,3,0,1,1,652.2800000000001,235.49892912A3,3,0,1,1,646.2800000000001,235.49892912Z" id="point-0-33" opacity="1"/><path class="data-point" fill="rgb(17, 165, 121)" data-type="point" transform="translate(0, 0)" d="M664.1999999999999,224.17213104A3,3,0,1,1,670.1999999999999,224.17213104A3,3,0,1,1,664.1999999999999,224.17213104Z" id="point-0-34" opacity="1"/><path class="data-point" fill="rgb(17, 165, 121)" data-type="point" transform="translate(0, 0)" d="M682.12,212.45193216A3,3,0,1,1,688.12,212.45193216A3,3,0,1,1,682.12,212.45193216Z" id="point-0-35" opacity="1"/><path class="data-point" fill="rgb(17, 165, 121)" data-type="point" transform="translate(0, 0)" d="M700.04,200.32462944000002A3,3,0,1,1,706.04,200.32462944000002A3,3,0,1,1,700.04,200.32462944000002Z" id="point-0-36" opacity="1"/><path class="data-point" fill="rgb(17, 165, 121)" data-type="point" transform="translate(0, 0)" d="M717.96,187.77612671999998A3,3,0,1,1,723.96,187.77612671999998A3,3,0,1,1,717.96,187.77612671999998Z" id="point-0-37" opacity="1"/><path class="data-point" fill="rgb(17, 165, 121)" data-type="point" transform="translate(0, 0)" d="M735.88,174.79176624000002A3,3,0,1,1,741.88,174.79176624000002A3,3,0,1,1,735.88,174.79176624000002Z" id="point-0-38" opacity="1"/><path class="data-point" fill="rgb(17, 165, 121)" data-type="point" transform="translate(0, 0)" d="M753.8000000000001,161.35638480000006A3,3,0,1,1,759.8000000000001,161.35638480000006A3,3,0,1,1,753.8000000000001,161.35638480000006Z" id="point-0-39" opacity="1"/><path class="data-point" fill="rgb(17, 165, 121)" data-type="point" transform="translate(0, 0)" d="M771.7199999999999,147.45431376A3,3,0,1,1,777.7199999999999,147.45431376A3,3,0,1,1,771.7199999999999,147.45431376Z" id="point-0-40" opacity="1"/><path class="data-point" fill="rgb(17, 165, 121)" data-type="point" transform="translate(0, 0)" d="M789.64,133.06943520000004A3,3,0,1,1,795.64,133.06943520000004A3,3,0,1,1,789.64,133.06943520000004Z" id="point-0-41" opacity="1"/><path class="data-point" fill="rgb(17, 165, 121)" data-type="point" transform="translate(0, 0)" d="M807.56,118.18484496000002A3,3,0,1,1,813.56,118.18484496000002A3,3,0,1,1,807.56,118.18484496000002Z" id="point-0-42" opacity="1"/><path class="data-point" fill="rgb(17, 165, 121)" data-type="point" transform="translate(0, 0)" d="M825.48,102.78330191999999A3,3,0,1,1,831.48,102.78330191999999A3,3,0,1,1,825.48,102.78330191999999Z" id="point-0-43" opacity="1"/><path class="data-point" fill="rgb(17, 165, 121)" data-type="point" transform="translate(0, 0)" d="M843.4,86.84677871999997A3,3,0,1,1,849.4,86.84677871999997A3,3,0,1,1,843.4,86.84677871999997Z" id="point-0-44" opacity="1"/><path class="data-point" fill="rgb(17, 165, 121)" data-type="point" transform="translate(0, 0)" d="M861.32,70.35674256000004A3,3,0,1,1,867.32,70.35674256000004A3,3,0,1,1,861.32,70.35674256000004Z" id="point-0-45" opacity="1"/><path class="data-point" fill="rgb(17, 165, 121)" data-type="point" transform="translate(0, 0)" d="M879.24,53.29393055999998A3,3,0,1,1,885.24,53.29393055999998A3,3,0,1,1,879.24,53.29393055999998Z" id="point-0-46" opacity="1"/></g><g class="series" transform="translate(15,20)"><path class="data-point" fill="rgb(128, 35, 146)" data-type="point" transform="translate(0, 0)" d="M54.92,502.73870400000004A3,3,0,1,1,60.92,502.73870400000004A3,3,0,1,1,54.92,502.73870400000004Z" id="point-1-0" opacity="1"/><path class="data-point" fill="rgb(128, 35, 146)" data-type="point" transform="translate(0, 0)" d="M72.84,499.127616A3,3,0,1,1,78.84,499.127616A3,3,0,1,1,72.84,499.127616Z" id="point-1-1" opacity="1"/><path class="data-point" fill="rgb(128, 35, 146)" data-type="point" transform="translate(0, 0)" d="M90.75999999999999,495.16272000000004A3,3,0,1,1,96.75999999999999,495.16272000000004A3,3,0,1,1,90.75999999999999,495.16272000000004Z" id="point-1-2" opacity="1"/><path class="data-point" fill="rgb(128, 35, 146)" data-type="point" transform="translate(0, 0)" d="M108.68,491.95598400000006A3,3,0,1,1,114.68,491.95598400000006A3,3,0,1,1,108.68,491.95598400000006Z" id="point-1-3" opacity="1"/><path class="data-point" fill="rgb(128, 35, 146)" data-type="point" transform="translate(0, 0)" d="M126.60000000000002,488.60323200000005A3,3,0,1,1,132.60000000000002,488.60323200000005A3,3,0,1,1,126.60000000000002,488.60323200000005Z" id="point-1-4" opacity="1"/><path class="data-point" fill="rgb(128, 35, 146)" data-type="point" transform="translate(0, 0)" d="M144.51999999999998,484.582176A3,3,0,1,1,150.51999999999998,484.582176A3,3,0,1,1,144.51999999999998,484.582176Z" id="point-1-5" opacity="1"/><path class="data-point" fill="rgb(128, 35, 146)" data-type="point" transform="translate(0, 0)" d="M162.44,480.49372800000003A3,3,0,1,1,168.44,480.49372800000003A3,3,0,1,1,162.44,480.49372800000003Z" id="point-1-6" opacity="1"/><path class="data-point" fill="rgb(128, 35, 146)" data-type="point" transform="translate(0, 0)" d="M180.36,475.84368A3,3,0,1,1,186.36,475.84368A3,3,0,1,1,180.36,475.84368Z" id="point-1-7" opacity="1"/><path class="data-point" fill="rgb(128, 35, 146)" data-type="point" transform="translate(0, 0)" d="M198.28,471.682224A3,3,0,1,1,204.28,471.682224A3,3,0,1,1,198.28,471.682224Z" id="point-1-8" opacity="1"/><path class="data-point" fill="rgb(128, 35, 146)" data-type="point" transform="translate(0, 0)" d="M216.20000000000002,467.29051200000004A3,3,0,1,1,222.20000000000002,467.29051200000004A3,3,0,1,1,216.20000000000002,467.29051200000004Z" id="point-1-9" opacity="1"/><path class="data-point" fill="rgb(128, 35, 146)" data-type="point" transform="translate(0, 0)" d="M234.12,462.16872A3,3,0,1,1,240.12,462.16872A3,3,0,1,1,234.12,462.16872Z" id="point-1-10" opacity="1"/><path class="data-point" fill="rgb(128, 35, 146)" data-type="point" transform="translate(0, 0)" d="M252.04,456.007968A3,3,0,1,1,258.03999999999996,456.007968A3,3,0,1,1,252.04,456.007968Z" id="point-1-11" opacity="1"/><path class="data-point" fill="rgb(128, 35, 146)" data-type="point" transform="translate(0, 0)" d="M269.96000000000004,448.24665600000003A3,3,0,1,1,275.96000000000004,448.24665600000003A3,3,0,1,1,269.96000000000004,448.24665600000003Z" id="point-1-12" opacity="1"/><path class="data-point" fill="rgb(128, 35, 146)" data-type="point" transform="translate(0, 0)" d="M287.88,440.558352A3,3,0,1,1,293.88,440.558352A3,3,0,1,1,287.88,440.558352Z" id="point-1-13" opacity="1"/><path class="data-point" fill="rgb(128, 35, 146)" data-type="point" transform="translate(0, 0)" d="M305.8,432.95990400000005A3,3,0,1,1,311.8,432.95990400000005A3,3,0,1,1,305.8,432.95990400000005Z" id="point-1-14" opacity="1"/><path class="data-point" fill="rgb(128, 35, 146)" data-type="point" transform="translate(0, 0)" d="M323.72,425.15366400000005A3,3,0,1,1,329.72,425.15366400000005A3,3,0,1,1,323.72,425.15366400000005Z" id="point-1-15" opacity="1"/><path class="data-point" fill="rgb(128, 35, 146)" data-type="point" transform="translate(0, 0)" d="M341.64000000000004,416.10067200000003A3,3,0,1,1,347.64000000000004,416.10067200000003A3,3,0,1,1,341.64000000000004,416.10067200000003Z" id="point-1-16" opacity="1"/><path class="data-point" fill="rgb(128, 35, 146)" data-type="point" transform="translate(0, 0)" d="M359.56,407.586816A3,3,0,1,1,365.56,407.586816A3,3,0,1,1,359.56,407.586816Z" id="point-1-17" opacity="1"/><path class="data-point" fill="rgb(128, 35, 146)" data-type="point" transform="translate(0, 0)" d="M377.48,400.67913599999997A3,3,0,1,1,383.48,400.67913599999997A3,3,0,1,1,377.48,400.67913599999997Z" id="point-1-18" opacity="1"/><path class="data-point" fill="rgb(128, 35, 146)" data-type="point" transform="translate(0, 0)" d="M395.40000000000003,391.96310400000004A3,3,0,1,1,401.40000000000003,391.96310400000004A3,3,0,1,1,395.40000000000003,391.96310400000004Z" id="point-1-19" opacity="1"/><path class="data-point" fill="rgb(128, 35, 146)" data-type="point" transform="translate(0, 0)" d="M413.32,384.07824000000005A3,3,0,1,1,419.32,384.07824000000005A3,3,0,1,1,413.32,384.07824000000005Z" id="point-1-20" opacity="1"/><path class="data-point" fill="rgb(128, 35, 146)" data-type="point" transform="translate(0, 0)" d="M431.24,376.58088A3,3,0,1,1,437.24,376.58088A3,3,0,1,1,431.24,376.58088Z" id="point-1-21" opacity="1"/><path class="data-point" fill="rgb(128, 35, 146)" data-type="point" transform="translate(0, 0)" d="M449.16,370.22918400000003A3,3,0,1,1,455.16,370.22918400000003A3,3,0,1,1,449.16,370.22918400000003Z" id="point-1-22" opacity="1"/><path class="data-point" fill="rgb(128, 35, 146)" data-type="point" transform="translate(0, 0)" d="M467.08,364.568256A3,3,0,1,1,473.08,364.568256A3,3,0,1,1,467.08,364.568256Z" id="point-1-23" opacity="1"/><path class="data-point" fill="rgb(128, 35, 146)" data-type="point" transform="translate(0, 0)" d="M485,364.242528A3,3,0,1,1,491,364.242528A3,3,0,1,1,485,364.242528Z" id="point-1-24" opacity="1"/><path class="data-point" fill="rgb(128, 35, 146)" data-type="point" transform="translate(0, 0)" d="M502.92,356.53176A3,3,0,1,1,508.92,356.53176A3,3,0,1,1,502.92,356.53176Z" id="point-1-25" opacity="1"/><path class="data-point" fill="rgb(128, 35, 146)" data-type="point" transform="translate(0, 0)" d="M520.84,351.40996800000005A3,3,0,1,1,526.84,351.40996800000005A3,3,0,1,1,520.84,351.40996800000005Z" id="point-1-26" opacity="1"/><path class="data-point" fill="rgb(128, 35, 146)" data-type="point" transform="translate(0, 0)" d="M538.76,348.55704000000003A3,3,0,1,1,544.76,348.55704000000003A3,3,0,1,1,538.76,348.55704000000003Z" id="point-1-27" opacity="1"/><path class="data-point" fill="rgb(128, 35, 146)" data-type="point" transform="translate(0, 0)" d="M556.68,342.60149664000005A3,3,0,1,1,562.68,342.60149664000005A3,3,0,1,1,556.68,342.60149664000005Z" id="point-1-28" opacity="1"/><path class="data-point" fill="rgb(128, 35, 146)" data-type="point" transform="translate(0, 0)" d="M574.6,333.42394176000005A3,3,0,1,1,580.6,333.42394176000005A3,3,0,1,1,574.6,333.42394176000005Z" id="point-1-29" opacity="1"/><path class="data-point" fill="rgb(128, 35, 146)" data-type="point" transform="translate(0, 0)" d="M592.52,323.86174704000007A3,3,0,1,1,598.52,323.86174704000007A3,3,0,1,1,592.52,323.86174704000007Z" id="point-1-30" opacity="1"/><path class="data-point" fill="rgb(128, 35, 146)" data-type="point" transform="translate(0, 0)" d="M610.44,313.89879456000006A3,3,0,1,1,616.44,313.89879456000006A3,3,0,1,1,610.44,313.89879456000006Z" id="point-1-31" opacity="1"/><path class="data-point" fill="rgb(128, 35, 146)" data-type="point" transform="translate(0, 0)" d="M628.36,303.51840480000004A3,3,0,1,1,634.36,303.51840480000004A3,3,0,1,1,628.36,303.51840480000004Z" id="point-1-32" opacity="1"/><path class="data-point" fill="rgb(128, 35, 146)" data-type="point" transform="translate(0, 0)" d="M646.2800000000001,292.70294352A3,3,0,1,1,652.2800000000001,292.70294352A3,3,0,1,1,646.2800000000001,292.70294352Z" id="point-1-33" opacity="1"/><path class="data-point" fill="rgb(128, 35, 146)" data-type="point" transform="translate(0, 0)" d="M664.1999999999999,281.43421488A3,3,0,1,1,670.1999999999999,281.43421488A3,3,0,1,1,664.1999999999999,281.43421488Z" id="point-1-34" opacity="1"/><path class="data-point" fill="rgb(128, 35, 146)" data-type="point" transform="translate(0, 0)" d="M682.12,269.69329296A3,3,0,1,1,688.12,269.69329296A3,3,0,1,1,682.12,269.69329296Z" id="point-1-35" opacity="1"/><path class="data-point" fill="rgb(128, 35, 146)" data-type="point" transform="translate(0, 0)" d="M700.04,257.46035328A3,3,0,1,1,706.04,257.46035328A3,3,0,1,1,700.04,257.46035328Z" id="point-1-36" opacity="1"/><path class="data-point" fill="rgb(128, 35, 146)" data-type="point" transform="translate(0, 0)" d="M717.96,244.71472896A3,3,0,1,1,723.96,244.71472896A3,3,0,1,1,717.96,244.71472896Z" id="point-1-37" opacity="1"/><path class="data-point" fill="rgb(128, 35, 146)" data-type="point" transform="translate(0, 0)" d="M735.88,231.43502304000003A3,3,0,1,1,741.88,231.43502304000003A3,3,0,1,1,735.88,231.43502304000003Z" id="point-1-38" opacity="1"/><path class="data-point" fill="rgb(128, 35, 146)" data-type="point" transform="translate(0, 0)" d="M753.8000000000001,217.59877152A3,3,0,1,1,759.8000000000001,217.59877152A3,3,0,1,1,753.8000000000001,217.59877152Z" id="point-1-39" opacity="1"/><path class="data-point" fill="rgb(128, 35, 146)" data-type="point" transform="translate(0, 0)" d="M771.7199999999999,203.18266799999998A3,3,0,1,1,777.7199999999999,203.18266799999998A3,3,0,1,1,771.7199999999999,203.18266799999998Z" id="point-1-40" opacity="1"/><path class="data-point" fill="rgb(128, 35, 146)" data-type="point" transform="translate(0, 0)" d="M789.64,188.16245136000003A3,3,0,1,1,795.64,188.16245136000003A3,3,0,1,1,789.64,188.16245136000003Z" id="point-1-41" opacity="1"/><path class="data-point" fill="rgb(128, 35, 146)" data-type="point" transform="translate(0, 0)" d="M807.56,172.51273728A3,3,0,1,1,813.56,172.51273728A3,3,0,1,1,807.56,172.51273728Z" id="point-1-42" opacity="1"/><path class="data-point" fill="rgb(128, 35, 146)" data-type="point" transform="translate(0, 0)" d="M825.48,156.20724287999997A3,3,0,1,1,831.48,156.20724287999997A3,3,0,1,1,825.48,156.20724287999997Z" id="point-1-43" opacity="1"/><path class="data-point" fill="rgb(128, 35, 146)" data-type="point" transform="translate(0, 0)" d="M843.4,139.2183936A3,3,0,1,1,849.4,139.2183936A3,3,0,1,1,843.4,139.2183936Z" id="point-1-44" opacity="1"/><path class="data-point" fill="rgb(128, 35, 146)" data-type="point" transform="translate(0, 0)" d="M861.32,121.517604A3,3,0,1,1,867.32,121.517604A3,3,0,1,1,861.32,121.517604Z" id="point-1-45" opacity="1"/><path class="data-point" fill="rgb(128, 35, 146)" data-type="point" transform="translate(0, 0)" d="M879.24,103.07505312000006A3,3,0,1,1,885.24,103.07505312000006A3,3,0,1,1,879.24,103.07505312000006Z" id="point-1-46" opacity="1"/></g></g><g id="data-labels"/><g class="annotations above"><g class="axis-highlights" transform="translate(15, 20)" style="opacity: 1;"/></g></svg>