<svg xmlns="http://www.w3.org/2000/svg" id="graphic" width="961" height="634.6"><g id="facets"><g class="facet" transform="translate(15,20)" opacity="1"><text class="facet-title" y="0" font-size="16" font-weight="bold" dominant-baseline="middle" x="0" clip-path="url(#facet-clip-0)" fill="black"/><g class="plot"><clipPath class="facet-clip" id="facet-clip-0"><rect width="951" height="581.6" transform="translate(-7.5,-10)"/></clipPath><g class="bg"><rect fill="none" width="936" height="561.6" style="fill: none;"/></g><g class="interaction"><g class="series"><path data-target="point-0-0" d="M0,506.17008L65.49295229714289,506.17008L68.78570870285714,502.70376L0,195.49000338158373Z" style="opacity: 0;"/><path data-target="point-0-1" d="M0,195.49000338158373L68.78570870285714,502.70376L83.33988563,502.70376L87.03125702428571,499.0596L0,145.0427195351204Z" style="opacity: 0;"/><path data-target="point-0-2" d="M0,145.0427195351204L87.03125702428571,499.0596L101.28934305428571,499.0596L104.70760368857142,495.99575999999996L6.088589586428554,0L0,0Z" style="opacity: 0;"/><path data-target="point-0-3" d="M6.088589586428554,0L104.70760368857142,495.99575999999996L119.07416961142857,495.99575999999996L122.8089112342857,492.7884L25.614856854769783,25.24838838183257L19.843007641071104,0Z" style="opacity: 0;"/><path data-target="point-0-4" d="M25.614856854769783,25.24838838183257L122.8089112342857,492.7884L136.5802989928571,492.7884L141.20946901142858,488.88527999999997Z" style="opacity: 0;"/><path data-target="point-0-5" d="M19.843007641071104,0L25.614856854769783,25.24838838183257L141.20946901142858,488.88527999999997L154.29659906785713,488.88527999999997L159.29330243999996,484.85112L36.383543520000785,0Z" style="opacity: 0;"/><path data-target="point-0-6" d="M36.383543520000785,0L159.29330243999996,484.85112L171.89504989,484.85112L177.68700267999998,480.29904L39.20649732571425,0Z" style="opacity: 0;"/><path data-target="point-0-7" d="M39.20649732571425,0L177.68700267999998,480.29904L189.9047041485714,480.29904L195.47094053857143,476.21495999999996L72.59472510071365,0Z" style="opacity: 0;"/><path data-target="point-0-8" d="M72.59472510071365,0L195.47094053857143,476.21495999999996L207.5967192857143,476.21495999999996L213.68507586428572,471.90312L118.27555564022735,121.52387332498807L74.12902480982152,0Z" style="opacity: 0;"/><path data-target="point-0-9" d="M118.27555564022735,121.52387332498807L213.68507586428572,471.90312L224.87713878571427,471.90312L232.22237371428568,466.75824L140.59013238939124,178.2176690264231Z" style="opacity: 0;"/><path data-target="point-0-10" d="M140.59013238939124,178.2176690264231L232.22237371428568,466.75824L242.00378953142854,466.75824L250.96166253714284,460.47767999999996L162.77697480153833,229.62231627170345Z" style="opacity: 0;"/><path data-target="point-0-11" d="M162.77697480153833,229.62231627170345L250.96166253714284,460.47767999999996L259.19385076714286,460.47767999999996L270.1844490128571,452.81496Z" style="opacity: 0;"/><path data-target="point-0-12" d="M74.12902480982152,0L118.27555564022735,121.52387332498807L140.59013238939124,178.2176690264231L162.77697480153833,229.62231627170345L270.1844490128571,452.81496L276.7836807785714,452.81496L288.51626736785715,445.21776L76.27857608071358,0Z" style="opacity: 0;"/><path data-target="point-0-13" d="M76.27857608071358,0L288.51626736785715,445.21776L294.4815387285714,445.21776L306.85160357857137,437.77031999999997L100.60315290500128,0Z" style="opacity: 0;"/><path data-target="point-0-14" d="M100.60315290500128,0L306.85160357857137,437.77031999999997L311.6470770985714,437.77032L325.30614816428573,429.9204L172.63979733409852,114.50569251095942L112.79114792428545,-1.4210854715202004e-14Z" style="opacity: 0;"/><path data-target="point-0-15" d="M172.63979733409852,114.50569251095942L325.30614816428573,429.9204L329.08380325,429.9204L344.8306619285714,421.26552Z" style="opacity: 0;"/><path data-target="point-0-16" d="M112.79114792428545,-1.4210854715202004e-14L172.63979733409852,114.50569251095942L344.8306619285714,421.26552L346.47992522000004,421.26552L362.96169416,412.93824L144.97454682285766,0Z" style="opacity: 0;"/><path data-target="point-0-17" d="M144.97454682285766,0L362.96169416,412.93824L365.04631545428566,412.93824L379.8665744142857,406.12415999999996L285.14942470913735,184.9792617932756L195.551746378571,2.842170943040401e-14Z" style="opacity: 0;"/><path data-target="point-0-18" d="M285.14942470913735,184.9792617932756L379.8665744142857,406.12415999999996L381.9989605407142,406.12415999999996L399.73817916148204,398.17295084364457L400.1360477257156,397.74858802009237Z" style="opacity: 0;"/><path data-target="point-0-19" d="M195.551746378571,2.842170943040401e-14L285.14942470913735,184.9792617932756L400.1360477257156,397.74858802009237L417.7049652036846,390.4753680235205L417.8984556952099,390.28983713827733L227.08854210285702,0Z" style="opacity: 0;"/><path data-target="point-0-20" d="M227.08854210285702,0L417.8984556952099,390.28983713827733L436.0041255642857,383.25767999999994L257.84063351785676,0Z" style="opacity: 0;"/><path data-target="point-0-21" d="M257.84063351785676,0L436.0041255642857,383.25767999999994L436.64361651142855,383.25767999999994L452.99560069428566,377.36712L304.3769730507147,0Z" style="opacity: 0;"/><path data-target="point-0-22" d="M304.3769730507147,0L452.99560069428566,377.36712L454.7965381057143,377.36712L470.33105431999996,372.06311999999997L339.7368992000002,0Z" style="opacity: 0;"/><path data-target="point-0-23" d="M339.7368992000002,0L470.33105431999996,372.06311999999997L472.15746413571424,372.06312L479.5875817285714,369.60768L478.155463627195,298.6982072528031L403.7356053746427,0Z" style="opacity: 0;"/><path data-target="point-0-24" d="M478.155463627195,298.6982072528031L479.5875817285714,369.60768L490.87144569142856,369.60767999999996L507.01347711375377,363.8505261178608L508.6710101185621,362.5251482024941Z" style="opacity: 0;"/><path data-target="point-0-25" d="M403.7356053746427,0L478.155463627195,298.6982072528031L508.6710101185621,362.5251482024941L523.3574803657142,357.59567999999996L409.79530941714336,0Z" style="opacity: 0;"/><path data-target="point-0-26" d="M409.79530941714336,0L523.3574803657142,357.59567999999996L527.028314535,357.59567999999996L537.69485178,354.14184L514.6605151070792,223.9255212352544L511.71205275404725,213.12845989970634L475.22633557023846,114.97865841873895L430.54685500534686,10.348936882303917L425.7328573610347,0Z" style="opacity: 0;"/><path data-target="point-0-27" d="M514.6605151070792,223.9255212352544L537.69485178,354.14184L544.7595812499999,354.14184L557.2842713407188,350.03117248304613L560.3551829731837,347.6696707350617Z" style="opacity: 0;"/><path data-target="point-0-28" d="M511.71205275404725,213.12845989970634L514.6605151070792,223.9255212352544L560.3551829731837,347.6696707350617L575.0938005992676,342.7073065485793L582.2128011364949,337.0215878162638Z" style="opacity: 0;"/><path data-target="point-0-29" d="M475.22633557023846,114.97865841873895L511.71205275404725,213.12845989970634L582.2128011364949,337.0215878162638L592.2909103732794,333.74224918321596L600.9568766597582,327.0410958354833Z" style="opacity: 0;"/><path data-target="point-0-30" d="M430.54685500534686,10.348936882303917L475.22633557023846,114.97865841873895L600.9568766597582,327.0410958354833L609.4465674240282,324.3707976121888L619.7610099319185,316.6482669499944Z" style="opacity: 0;"/><path data-target="point-0-31" d="M425.7328573610347,0L430.54685500534686,10.348936882303917L619.7610099319185,316.6482669499944L626.5306388530839,314.59000483472727L638.6255360779764,305.81915319345546L441.7925812090334,0Z" style="opacity: 0;"/><path data-target="point-0-32" d="M441.7925812090334,0L638.6255360779764,305.81915319345546L643.5553907725455,304.36987832263776L657.554446288319,294.5340639587663L460.0394592241476,0Z" style="opacity: 0;"/><path data-target="point-0-33" d="M460.0394592241476,0L657.554446288319,294.5340639587663L660.5308869977773,293.6877987436986L676.5553547892804,282.77834080264654L478.9764553860887,0Z" style="opacity: 0;"/><path data-target="point-0-34" d="M478.9764553860887,0L676.5553547892804,282.77834080264654L677.424791247481,282.5392498883514L694.4972505849619,271.2735773940436L695.3745989912666,270.1762171862005L498.69070022788316,0Z" style="opacity: 0;"/><path data-target="point-0-35" d="M498.69070022788316,0L695.3745989912666,270.1762171862005L711.6705218795455,259.75185740819063L714.0756027832352,256.82549051049904L519.275832974656,0Z" style="opacity: 0;"/><path data-target="point-0-36" d="M519.275832974656,0L714.0756027832352,256.82549051049904L728.8046429161845,247.68861887237261L732.8211347567177,242.93270871141516L540.8364445283207,2.842170943040401e-14Z" style="opacity: 0;"/><path data-target="point-0-37" d="M540.8364445283207,2.842170943040401e-14L732.8211347567177,242.93270871141516L745.8923772234056,235.06760729508758L751.6127518468653,228.47315720216244L563.4892291684205,0Z" style="opacity: 0;"/><path data-target="point-0-38" d="M563.4892291684205,0L751.6127518468653,228.47315720216244L762.9378538603128,221.86141259058516L770.454198424581,213.42308921757984L587.3579942451416,0Z" style="opacity: 0;"/><path data-target="point-0-39" d="M587.3579942451416,0L770.454198424581,213.42308921757984L779.9232853414064,208.05834953408063L789.3444099332868,197.75249891372005L612.5822242143923,-2.842170943040401e-14Z" style="opacity: 0;"/><path data-target="point-0-40" d="M612.5822242143923,-2.842170943040401e-14L789.3444099332868,197.75249891372005L796.8604024923783,193.6186474114534L808.2857117689191,181.43440680899377L639.3134795307399,0Z" style="opacity: 0;"/><path data-target="point-0-41" d="M639.3134795307399,0L808.2857117689191,181.43440680899377L813.7523375419871,178.51455106855838L827.2830420281529,164.44307090991947L667.7166349982883,0Z" style="opacity: 0;"/><path data-target="point-0-42" d="M667.7166349982883,0L827.2830420281529,164.44307090991947L830.576243472301,162.7345590623563L846.3338042514409,146.7441320382999L697.9747006314415,0Z" style="opacity: 0;"/><path data-target="point-0-43" d="M697.9747006314415,0L846.3338042514409,146.7441320382999L847.3494351734836,146.2321331362497L865.4417427003411,128.3082081485295L730.2849479008147,0Z" style="opacity: 0;"/><path data-target="point-0-44" d="M730.2849479008147,0L865.4417427003411,128.3082081485295L891.6122577224914,115.48442415807754L764.8658853205015,1.4210854715202004e-14Z" style="opacity: 0;"/><path data-target="point-0-45" d="M764.8658853205015,1.4210854715202004e-14L891.6122577224914,115.48442415807754L926.3441171664294,108.77823850000001L801.954969188197,0Z" style="opacity: 0;"/><path data-target="point-0-46" d="M801.954969188197,0L926.3441171664294,108.77823850000001L936,108.7782385L936,0Z" style="opacity: 0;"/><path data-target="point-1-0" d="M74.52604961714273,561.6L65.49295229714289,506.17008L0,506.17008L0,561.6Z" style="opacity: 0;"/><path data-target="point-1-1" d="M65.49295229714289,506.17008L74.52604961714273,561.6L92.81481824000001,561.6L83.33988563,502.70376L68.78570870285714,502.70376Z" style="opacity: 0;"/><path data-target="point-1-2" d="M83.33988563,502.70376L92.81481824000001,561.6L110.23987940785713,561.6L101.28934305428571,499.0596L87.03125702428571,499.0596Z" style="opacity: 0;"/><path data-target="point-1-3" d="M101.28934305428571,499.0596L110.23987940785713,561.6L128.92007738071425,561.6L119.07416961142857,495.99575999999996L104.70760368857142,495.99575999999996Z" style="opacity: 0;"/><path data-target="point-1-4" d="M119.07416961142857,495.99575999999996L128.92007738071425,561.6L149.39953143928585,561.6L136.5802989928571,492.7884L122.8089112342857,492.7884Z" style="opacity: 0;"/><path data-target="point-1-5" d="M136.5802989928571,492.7884L149.39953143928585,561.6L168.60257098928568,561.6L154.29659906785713,488.88527999999997L141.20946901142858,488.88527999999997Z" style="opacity: 0;"/><path data-target="point-1-6" d="M154.29659906785713,488.88527999999997L168.60257098928568,561.6L188.75856049642852,561.6L171.89504989,484.85112L159.29330243999996,484.85112Z" style="opacity: 0;"/><path data-target="point-1-7" d="M171.89504989,484.85112L188.75856049642852,561.6L205.9848725942858,561.6L189.9047041485714,480.29904L177.68700267999998,480.29904Z" style="opacity: 0;"/><path data-target="point-1-8" d="M189.9047041485714,480.29904L205.9848725942858,561.6L225.43609371428565,561.6L207.5967192857143,476.21495999999996L195.47094053857143,476.21495999999996Z" style="opacity: 0;"/><path data-target="point-1-9" d="M207.5967192857143,476.21495999999996L225.43609371428565,561.6L247.8964014807143,561.6L224.87713878571427,471.90312L213.68507586428572,471.90312Z" style="opacity: 0;"/><path data-target="point-1-10" d="M224.87713878571427,471.90312L247.8964014807143,561.6L272.25492376571435,561.6L242.00378953142854,466.75824L232.22237371428568,466.75824Z" style="opacity: 0;"/><path data-target="point-1-11" d="M242.00378953142854,466.75824L272.25492376571435,561.6L297.0117926914285,561.6L259.19385076714286,460.47767999999996L250.96166253714284,460.47767999999996Z" style="opacity: 0;"/><path data-target="point-1-12" d="M259.19385076714286,460.47767999999996L297.0117926914285,561.6L317.16429910857136,561.6L276.7836807785714,452.81496L270.1844490128571,452.81496Z" style="opacity: 0;"/><path data-target="point-1-13" d="M276.7836807785714,452.81496L317.16429910857136,561.6L336.3853798914285,561.6L294.4815387285714,445.21776L288.51626736785715,445.21776Z" style="opacity: 0;"/><path data-target="point-1-14" d="M294.4815387285714,445.21776L336.3853798914285,561.6L360.1993678800003,561.6L311.6470770985714,437.77032L306.85160357857137,437.77031999999997Z" style="opacity: 0;"/><path data-target="point-1-15" d="M311.6470770985714,437.77032L360.1993678800003,561.6L382.36466139999993,561.6L329.08380325,429.9204L325.30614816428573,429.9204Z" style="opacity: 0;"/><path data-target="point-1-16" d="M329.08380325,429.9204L382.36466139999993,561.6L402.82296595357116,561.6L346.47992522000004,421.26552L344.8306619285714,421.26552Z" style="opacity: 0;"/><path data-target="point-1-17" d="M346.47992522000004,421.26552L402.82296595357116,561.6L414.4312211914288,561.6L365.04631545428566,412.93824L362.96169416,412.93824Z" style="opacity: 0;"/><path data-target="point-1-18" d="M365.04631545428566,412.93824L414.4312211914288,561.6L439.8734538035716,561.6L381.9989605407142,406.12415999999996L379.8665744142857,406.12415999999996Z" style="opacity: 0;"/><path data-target="point-1-19" d="M381.9989605407142,406.12415999999996L439.8734538035716,561.6L457.89778027999984,561.6L399.73817916148204,398.17295084364457Z" style="opacity: 0;"/><path data-target="point-1-20" d="M399.73817916148204,398.17295084364457L457.89778027999984,561.6L474.13484049642886,561.6L417.7049652036846,390.4753680235205L400.1360477257156,397.74858802009237Z" style="opacity: 0;"/><path data-target="point-1-21" d="M417.7049652036846,390.4753680235205L474.13484049642886,561.6L483.6543335949999,561.6L436.64361651142855,383.25767999999994L436.0041255642857,383.25767999999994L417.8984556952099,390.28983713827733Z" style="opacity: 0;"/><path data-target="point-1-22" d="M436.64361651142855,383.25767999999994L483.6543335949999,561.6L499.1900824399995,561.6L454.7965381057143,377.36712L452.99560069428566,377.36712Z" style="opacity: 0;"/><path data-target="point-1-23" d="M454.7965381057143,377.36712L499.1900824399995,561.6L520.2710626650002,561.6L472.15746413571424,372.06312L470.33105431999996,372.06311999999997Z" style="opacity: 0;"/><path data-target="point-1-24" d="M472.15746413571424,372.06312L520.2710626650002,561.6L537.4021558171427,561.6L490.87144569142856,369.60767999999996L479.5875817285714,369.60768Z" style="opacity: 0;"/><path data-target="point-1-25" d="M490.87144569142856,369.60767999999996L537.4021558171427,561.6L566.8521147864287,561.6L507.01347711375377,363.8505261178608Z" style="opacity: 0;"/><path data-target="point-1-26" d="M507.01347711375377,363.8505261178608L566.8521147864287,561.6L569.5796084592856,561.6L527.028314535,357.59567999999996L523.3574803657142,357.59567999999996L508.6710101185621,362.5251482024941Z" style="opacity: 0;"/><path data-target="point-1-27" d="M527.028314535,357.59567999999996L569.5796084592856,561.6L590.0539954150001,561.6L544.7595812499999,354.14184L537.69485178,354.14184Z" style="opacity: 0;"/><path data-target="point-1-28" d="M544.7595812499999,354.14184L590.0539954150001,561.6L651.6571914649999,561.6L557.2842713407188,350.03117248304613Z" style="opacity: 0;"/><path data-target="point-1-29" d="M557.2842713407188,350.03117248304613L651.6571914649999,561.6L677.0782517571428,561.6L575.0938005992676,342.7073065485793L560.3551829731837,347.6696707350617Z" style="opacity: 0;"/><path data-target="point-1-30" d="M575.0938005992676,342.7073065485793L677.0782517571428,561.6L703.2128772485717,561.6L592.2909103732794,333.74224918321596L582.2128011364949,337.0215878162638Z" style="opacity: 0;"/><path data-target="point-1-31" d="M592.2909103732794,333.74224918321596L703.2128772485717,561.6L729.9695928264279,561.6L609.4465674240282,324.3707976121888L600.9568766597582,327.0410958354833Z" style="opacity: 0;"/><path data-target="point-1-32" d="M609.4465674240282,324.3707976121888L729.9695928264279,561.6L757.6995626250005,561.6L626.5306388530839,314.59000483472727L619.7610099319185,316.6482669499944Z" style="opacity: 0;"/><path data-target="point-1-33" d="M626.5306388530839,314.59000483472727L757.6995626250005,561.6L786.3318884885715,561.6L643.5553907725455,304.36987832263776L638.6255360779764,305.81915319345546Z" style="opacity: 0;"/><path data-target="point-1-34" d="M643.5553907725455,304.36987832263776L786.3318884885715,561.6L815.7668710400001,561.6L660.5308869977773,293.6877987436986L657.554446288319,294.5340639587663Z" style="opacity: 0;"/><path data-target="point-1-35" d="M660.5308869977773,293.6877987436986L815.7668710400001,561.6L846.408533509286,561.6L677.424791247481,282.5392498883514L676.5553547892804,282.77834080264654Z" style="opacity: 0;"/><path data-target="point-1-36" d="M677.424791247481,282.5392498883514L846.408533509286,561.6L878.0872376800004,561.6L694.4972505849619,271.2735773940436Z" style="opacity: 0;"/><path data-target="point-1-37" d="M694.4972505849619,271.2735773940436L878.0872376800004,561.6L911.1651934057128,561.6L711.6705218795455,259.75185740819063L695.3745989912666,270.1762171862005Z" style="opacity: 0;"/><path data-target="point-1-38" d="M711.6705218795455,259.75185740819063L911.1651934057128,561.6L936,561.6L936,547.750426201171L728.8046429161845,247.68861887237261L714.0756027832352,256.82549051049904Z" style="opacity: 0;"/><path data-target="point-1-39" d="M728.8046429161845,247.68861887237261L936,547.750426201171L936,498.55703595287537L745.8923772234056,235.06760729508758L732.8211347567177,242.93270871141516Z" style="opacity: 0;"/><path data-target="point-1-40" d="M745.8923772234056,235.06760729508758L936,498.55703595287537L936,451.52822580027555L762.9378538603128,221.86141259058516L751.6127518468653,228.47315720216244Z" style="opacity: 0;"/><path data-target="point-1-41" d="M762.9378538603128,221.86141259058516L936,451.52822580027555L936,406.2105638413926L779.9232853414064,208.05834953408063L770.454198424581,213.42308921757984Z" style="opacity: 0;"/><path data-target="point-1-42" d="M779.9232853414064,208.05834953408063L936,406.2105638413926L936,362.6458820078967L796.8604024923783,193.6186474114534L789.3444099332868,197.75249891372005Z" style="opacity: 0;"/><path data-target="point-1-43" d="M796.8604024923783,193.6186474114534L936,362.6458820078967L936,320.7058066926294L813.7523375419871,178.51455106855838L808.2857117689191,181.43440680899377Z" style="opacity: 0;"/><path data-target="point-1-44" d="M813.7523375419871,178.51455106855838L936,320.7058066926294L936,280.0361488963726L830.576243472301,162.7345590623563L827.2830420281529,164.44307090991947Z" style="opacity: 0;"/><path data-target="point-1-45" d="M830.576243472301,162.7345590623563L936,280.0361488963726L936,240.6282167293198L847.3494351734836,146.2321331362497L846.3338042514409,146.7441320382999Z" style="opacity: 0;"/><path data-target="point-1-46" d="M847.3494351734836,146.2321331362497L936,240.6282167293198L936,108.7782385L926.3441171664294,108.77823850000001L891.6122577224914,115.48442415807754L865.4417427003411,128.3082081485295Z" style="opacity: 0;"/></g><g class="series"><path data-target="point-0-0" d="M0,506.17008L65.49295229714289,506.17008L68.78570870285714,502.70376L0,195.49000338158373Z" style="opacity: 0;"/><path data-target="point-0-1" d="M0,195.49000338158373L68.78570870285714,502.70376L83.33988563,502.70376L87.03125702428571,499.0596L0,145.0427195351204Z" style="opacity: 0;"/><path data-target="point-0-2" d="M0,145.0427195351204L87.03125702428571,499.0596L101.28934305428571,499.0596L104.70760368857142,495.99575999999996L6.088589586428554,0L0,0Z" style="opacity: 0;"/><path data-target="point-0-3" d="M6.088589586428554,0L104.70760368857142,495.99575999999996L119.07416961142857,495.99575999999996L122.8089112342857,492.7884L25.614856854769783,25.24838838183257L19.843007641071104,0Z" style="opacity: 0;"/><path data-target="point-0-4" d="M25.614856854769783,25.24838838183257L122.8089112342857,492.7884L136.5802989928571,492.7884L141.20946901142858,488.88527999999997Z" style="opacity: 0;"/><path data-target="point-0-5" d="M19.843007641071104,0L25.614856854769783,25.24838838183257L141.20946901142858,488.88527999999997L154.29659906785713,488.88527999999997L159.29330243999996,484.85112L36.383543520000785,0Z" style="opacity: 0;"/><path data-target="point-0-6" d="M36.383543520000785,0L159.29330243999996,484.85112L171.89504989,484.85112L177.68700267999998,480.29904L39.20649732571425,0Z" style="opacity: 0;"/><path data-target="point-0-7" d="M39.20649732571425,0L177.68700267999998,480.29904L189.9047041485714,480.29904L195.47094053857143,476.21495999999996L72.59472510071365,0Z" style="opacity: 0;"/><path data-target="point-0-8" d="M72.59472510071365,0L195.47094053857143,476.21495999999996L207.5967192857143,476.21495999999996L213.68507586428572,471.90312L118.27555564022735,121.52387332498807L74.12902480982152,0Z" style="opacity: 0;"/><path data-target="point-0-9" d="M118.27555564022735,121.52387332498807L213.68507586428572,471.90312L224.87713878571427,471.90312L232.22237371428568,466.75824L140.59013238939124,178.2176690264231Z" style="opacity: 0;"/><path data-target="point-0-10" d="M140.59013238939124,178.2176690264231L232.22237371428568,466.75824L242.00378953142854,466.75824L250.96166253714284,460.47767999999996L162.77697480153833,229.62231627170345Z" style="opacity: 0;"/><path data-target="point-0-11" d="M162.77697480153833,229.62231627170345L250.96166253714284,460.47767999999996L259.19385076714286,460.47767999999996L270.1844490128571,452.81496Z" style="opacity: 0;"/><path data-target="point-0-12" d="M74.12902480982152,0L118.27555564022735,121.52387332498807L140.59013238939124,178.2176690264231L162.77697480153833,229.62231627170345L270.1844490128571,452.81496L276.7836807785714,452.81496L288.51626736785715,445.21776L76.27857608071358,0Z" style="opacity: 0;"/><path data-target="point-0-13" d="M76.27857608071358,0L288.51626736785715,445.21776L294.4815387285714,445.21776L306.85160357857137,437.77031999999997L100.60315290500128,0Z" style="opacity: 0;"/><path data-target="point-0-14" d="M100.60315290500128,0L306.85160357857137,437.77031999999997L311.6470770985714,437.77032L325.30614816428573,429.9204L172.63979733409852,114.50569251095942L112.79114792428545,-1.4210854715202004e-14Z" style="opacity: 0;"/><path data-target="point-0-15" d="M172.63979733409852,114.50569251095942L325.30614816428573,429.9204L329.08380325,429.9204L344.8306619285714,421.26552Z" style="opacity: 0;"/><path data-target="point-0-16" d="M112.79114792428545,-1.4210854715202004e-14L172.63979733409852,114.50569251095942L344.8306619285714,421.26552L346.47992522000004,421.26552L362.96169416,412.93824L144.97454682285766,0Z" style="opacity: 0;"/><path data-target="point-0-17" d="M144.97454682285766,0L362.96169416,412.93824L365.04631545428566,412.93824L379.8665744142857,406.12415999999996L285.14942470913735,184.9792617932756L195.551746378571,2.842170943040401e-14Z" style="opacity: 0;"/><path data-target="point-0-18" d="M285.14942470913735,184.9792617932756L379.8665744142857,406.12415999999996L381.9989605407142,406.12415999999996L399.73817916148204,398.17295084364457L400.1360477257156,397.74858802009237Z" style="opacity: 0;"/><path data-target="point-0-19" d="M195.551746378571,2.842170943040401e-14L285.14942470913735,184.9792617932756L400.1360477257156,397.74858802009237L417.7049652036846,390.4753680235205L417.8984556952099,390.28983713827733L227.08854210285702,0Z" style="opacity: 0;"/><path data-target="point-0-20" d="M227.08854210285702,0L417.8984556952099,390.28983713827733L436.0041255642857,383.25767999999994L257.84063351785676,0Z" style="opacity: 0;"/><path data-target="point-0-21" d="M257.84063351785676,0L436.0041255642857,383.25767999999994L436.64361651142855,383.25767999999994L452.99560069428566,377.36712L304.3769730507147,0Z" style="opacity: 0;"/><path data-target="point-0-22" d="M304.3769730507147,0L452.99560069428566,377.36712L454.7965381057143,377.36712L470.33105431999996,372.06311999999997L339.7368992000002,0Z" style="opacity: 0;"/><path data-target="point-0-23" d="M339.7368992000002,0L470.33105431999996,372.06311999999997L472.15746413571424,372.06312L479.5875817285714,369.60768L478.155463627195,298.6982072528031L403.7356053746427,0Z" style="opacity: 0;"/><path data-target="point-0-24" d="M478.155463627195,298.6982072528031L479.5875817285714,369.60768L490.87144569142856,369.60767999999996L507.01347711375377,363.8505261178608L508.6710101185621,362.5251482024941Z" style="opacity: 0;"/><path data-target="point-0-25" d="M403.7356053746427,0L478.155463627195,298.6982072528031L508.6710101185621,362.5251482024941L523.3574803657142,357.59567999999996L409.79530941714336,0Z" style="opacity: 0;"/><path data-target="point-0-26" d="M409.79530941714336,0L523.3574803657142,357.59567999999996L527.028314535,357.59567999999996L537.69485178,354.14184L514.6605151070792,223.9255212352544L511.71205275404725,213.12845989970634L475.22633557023846,114.97865841873895L430.54685500534686,10.348936882303917L425.7328573610347,0Z" style="opacity: 0;"/><path data-target="point-0-27" d="M514.6605151070792,223.9255212352544L537.69485178,354.14184L544.7595812499999,354.14184L557.2842713407188,350.03117248304613L560.3551829731837,347.6696707350617Z" style="opacity: 0;"/><path data-target="point-0-28" d="M511.71205275404725,213.12845989970634L514.6605151070792,223.9255212352544L560.3551829731837,347.6696707350617L575.0938005992676,342.7073065485793L582.2128011364949,337.0215878162638Z" style="opacity: 0;"/><path data-target="point-0-29" d="M475.22633557023846,114.97865841873895L511.71205275404725,213.12845989970634L582.2128011364949,337.0215878162638L592.2909103732794,333.74224918321596L600.9568766597582,327.0410958354833Z" style="opacity: 0;"/><path data-target="point-0-30" d="M430.54685500534686,10.348936882303917L475.22633557023846,114.97865841873895L600.9568766597582,327.0410958354833L609.4465674240282,324.3707976121888L619.7610099319185,316.6482669499944Z" style="opacity: 0;"/><path data-target="point-0-31" d="M425.7328573610347,0L430.54685500534686,10.348936882303917L619.7610099319185,316.6482669499944L626.5306388530839,314.59000483472727L638.6255360779764,305.81915319345546L441.7925812090334,0Z" style="opacity: 0;"/><path data-target="point-0-32" d="M441.7925812090334,0L638.6255360779764,305.81915319345546L643.5553907725455,304.36987832263776L657.554446288319,294.5340639587663L460.0394592241476,0Z" style="opacity: 0;"/><path data-target="point-0-33" d="M460.0394592241476,0L657.554446288319,294.5340639587663L660.5308869977773,293.6877987436986L676.5553547892804,282.77834080264654L478.9764553860887,0Z" style="opacity: 0;"/><path data-target="point-0-34" d="M478.9764553860887,0L676.5553547892804,282.77834080264654L677.424791247481,282.5392498883514L694.4972505849619,271.2735773940436L695.3745989912666,270.1762171862005L498.69070022788316,0Z" style="opacity: 0;"/><path data-target="point-0-35" d="M498.69070022788316,0L695.3745989912666,270.1762171862005L711.6705218795455,259.75185740819063L714.0756027832352,256.82549051049904L519.275832974656,0Z" style="opacity: 0;"/><path data-target="point-0-36" d="M519.275832974656,0L714.0756027832352,256.82549051049904L728.8046429161845,247.68861887237261L732.8211347567177,242.93270871141516L540.8364445283207,2.842170943040401e-14Z" style="opacity: 0;"/><path data-target="point-0-37" d="M540.8364445283207,2.842170943040401e-14L732.8211347567177,242.93270871141516L745.8923772234056,235.06760729508758L751.6127518468653,228.47315720216244L563.4892291684205,0Z" style="opacity: 0;"/><path data-target="point-0-38" d="M563.4892291684205,0L751.6127518468653,228.47315720216244L762.9378538603128,221.86141259058516L770.454198424581,213.42308921757984L587.3579942451416,0Z" style="opacity: 0;"/><path data-target="point-0-39" d="M587.3579942451416,0L770.454198424581,213.42308921757984L779.9232853414064,208.05834953408063L789.3444099332868,197.75249891372005L612.5822242143923,-2.842170943040401e-14Z" style="opacity: 0;"/><path data-target="point-0-40" d="M612.5822242143923,-2.842170943040401e-14L789.3444099332868,197.75249891372005L796.8604024923783,193.6186474114534L808.2857117689191,181.43440680899377L639.3134795307399,0Z" style="opacity: 0;"/><path data-target="point-0-41" d="M639.3134795307399,0L808.2857117689191,181.43440680899377L813.7523375419871,178.51455106855838L827.2830420281529,164.44307090991947L667.7166349982883,0Z" style="opacity: 0;"/><path data-target="point-0-42" d="M667.7166349982883,0L827.2830420281529,164.44307090991947L830.576243472301,162.7345590623563L846.3338042514409,146.7441320382999L697.9747006314415,0Z" style="opacity: 0;"/><path data-target="point-0-43" d="M697.9747006314415,0L846.3338042514409,146.7441320382999L847.3494351734836,146.2321331362497L865.4417427003411,128.3082081485295L730.2849479008147,0Z" style="opacity: 0;"/><path data-target="point-0-44" d="M730.2849479008147,0L865.4417427003411,128.3082081485295L891.6122577224914,115.48442415807754L764.8658853205015,1.4210854715202004e-14Z" style="opacity: 0;"/><path data-target="point-0-45" d="M764.8658853205015,1.4210854715202004e-14L891.6122577224914,115.48442415807754L926.3441171664294,108.77823850000001L801.954969188197,0Z" style="opacity: 0;"/><path data-target="point-0-46" d="M801.954969188197,0L926.3441171664294,108.77823850000001L936,108.7782385L936,0Z" style="opacity: 0;"/><path data-target="point-1-0" d="M74.52604961714273,561.6L65.49295229714289,506.17008L0,506.17008L0,561.6Z" style="opacity: 0;"/><path data-target="point-1-1" d="M65.49295229714289,506.17008L74.52604961714273,561.6L92.81481824000001,561.6L83.33988563,502.70376L68.78570870285714,502.70376Z" style="opacity: 0;"/><path data-target="point-1-2" d="M83.33988563,502.70376L92.81481824000001,561.6L110.23987940785713,561.6L101.28934305428571,499.0596L87.03125702428571,499.0596Z" style="opacity: 0;"/><path data-target="point-1-3" d="M101.28934305428571,499.0596L110.23987940785713,561.6L128.92007738071425,561.6L119.07416961142857,495.99575999999996L104.70760368857142,495.99575999999996Z" style="opacity: 0;"/><path data-target="point-1-4" d="M119.07416961142857,495.99575999999996L128.92007738071425,561.6L149.39953143928585,561.6L136.5802989928571,492.7884L122.8089112342857,492.7884Z" style="opacity: 0;"/><path data-target="point-1-5" d="M136.5802989928571,492.7884L149.39953143928585,561.6L168.60257098928568,561.6L154.29659906785713,488.88527999999997L141.20946901142858,488.88527999999997Z" style="opacity: 0;"/><path data-target="point-1-6" d="M154.29659906785713,488.88527999999997L168.60257098928568,561.6L188.75856049642852,561.6L171.89504989,484.85112L159.29330243999996,484.85112Z" style="opacity: 0;"/><path data-target="point-1-7" d="M171.89504989,484.85112L188.75856049642852,561.6L205.9848725942858,561.6L189.9047041485714,480.29904L177.68700267999998,480.29904Z" style="opacity: 0;"/><path data-target="point-1-8" d="M189.9047041485714,480.29904L205.9848725942858,561.6L225.43609371428565,561.6L207.5967192857143,476.21495999999996L195.47094053857143,476.21495999999996Z" style="opacity: 0;"/><path data-target="point-1-9" d="M207.5967192857143,476.21495999999996L225.43609371428565,561.6L247.8964014807143,561.6L224.87713878571427,471.90312L213.68507586428572,471.90312Z" style="opacity: 0;"/><path data-target="point-1-10" d="M224.87713878571427,471.90312L247.8964014807143,561.6L272.25492376571435,561.6L242.00378953142854,466.75824L232.22237371428568,466.75824Z" style="opacity: 0;"/><path data-target="point-1-11" d="M242.00378953142854,466.75824L272.25492376571435,561.6L297.0117926914285,561.6L259.19385076714286,460.47767999999996L250.96166253714284,460.47767999999996Z" style="opacity: 0;"/><path data-target="point-1-12" d="M259.19385076714286,460.47767999999996L297.0117926914285,561.6L317.16429910857136,561.6L276.7836807785714,452.81496L270.1844490128571,452.81496Z" style="opacity: 0;"/><path data-target="point-1-13" d="M276.7836807785714,452.81496L317.16429910857136,561.6L336.3853798914285,561.6L294.4815387285714,445.21776L288.51626736785715,445.21776Z" style="opacity: 0;"/><path data-target="point-1-14" d="M294.4815387285714,445.21776L336.3853798914285,561.6L360.1993678800003,561.6L311.6470770985714,437.77032L306.85160357857137,437.77031999999997Z" style="opacity: 0;"/><path data-target="point-1-15" d="M311.6470770985714,437.77032L360.1993678800003,561.6L382.36466139999993,561.6L329.08380325,429.9204L325.30614816428573,429.9204Z" style="opacity: 0;"/><path data-target="point-1-16" d="M329.08380325,429.9204L382.36466139999993,561.6L402.82296595357116,561.6L346.47992522000004,421.26552L344.8306619285714,421.26552Z" style="opacity: 0;"/><path data-target="point-1-17" d="M346.47992522000004,421.26552L402.82296595357116,561.6L414.4312211914288,561.6L365.04631545428566,412.93824L362.96169416,412.93824Z" style="opacity: 0;"/><path data-target="point-1-18" d="M365.04631545428566,412.93824L414.4312211914288,561.6L439.8734538035716,561.6L381.9989605407142,406.12415999999996L379.8665744142857,406.12415999999996Z" style="opacity: 0;"/><path data-target="point-1-19" d="M381.9989605407142,406.12415999999996L439.8734538035716,561.6L457.89778027999984,561.6L399.73817916148204,398.17295084364457Z" style="opacity: 0;"/><path data-target="point-1-20" d="M399.73817916148204,398.17295084364457L457.89778027999984,561.6L474.13484049642886,561.6L417.7049652036846,390.4753680235205L400.1360477257156,397.74858802009237Z" style="opacity: 0;"/><path data-target="point-1-21" d="M417.7049652036846,390.4753680235205L474.13484049642886,561.6L483.6543335949999,561.6L436.64361651142855,383.25767999999994L436.0041255642857,383.25767999999994L417.8984556952099,390.28983713827733Z" style="opacity: 0;"/><path data-target="point-1-22" d="M436.64361651142855,383.25767999999994L483.6543335949999,561.6L499.1900824399995,561.6L454.7965381057143,377.36712L452.99560069428566,377.36712Z" style="opacity: 0;"/><path data-target="point-1-23" d="M454.7965381057143,377.36712L499.1900824399995,561.6L520.2710626650002,561.6L472.15746413571424,372.06312L470.33105431999996,372.06311999999997Z" style="opacity: 0;"/><path data-target="point-1-24" d="M472.15746413571424,372.06312L520.2710626650002,561.6L537.4021558171427,561.6L490.87144569142856,369.60767999999996L479.5875817285714,369.60768Z" style="opacity: 0;"/><path data-target="point-1-25" d="M490.87144569142856,369.60767999999996L537.4021558171427,561.6L566.8521147864287,561.6L507.01347711375377,363.8505261178608Z" style="opacity: 0;"/><path data-target="point-1-26" d="M507.01347711375377,363.8505261178608L566.8521147864287,561.6L569.5796084592856,561.6L527.028314535,357.59567999999996L523.3574803657142,357.59567999999996L508.6710101185621,362.5251482024941Z" style="opacity: 0;"/><path data-target="point-1-27" d="M527.028314535,357.59567999999996L569.5796084592856,561.6L590.0539954150001,561.6L544.7595812499999,354.14184L537.69485178,354.14184Z" style="opacity: 0;"/><path data-target="point-1-28" d="M544.7595812499999,354.14184L590.0539954150001,561.6L651.6571914649999,561.6L557.2842713407188,350.03117248304613Z" style="opacity: 0;"/><path data-target="point-1-29" d="M557.2842713407188,350.03117248304613L651.6571914649999,561.6L677.0782517571428,561.6L575.0938005992676,342.7073065485793L560.3551829731837,347.6696707350617Z" style="opacity: 0;"/><path data-target="point-1-30" d="M575.0938005992676,342.7073065485793L677.0782517571428,561.6L703.2128772485717,561.6L592.2909103732794,333.74224918321596L582.2128011364949,337.0215878162638Z" style="opacity: 0;"/><path data-target="point-1-31" d="M592.2909103732794,333.74224918321596L703.2128772485717,561.6L729.9695928264279,561.6L609.4465674240282,324.3707976121888L600.9568766597582,327.0410958354833Z" style="opacity: 0;"/><path data-target="point-1-32" d="M609.4465674240282,324.3707976121888L729.9695928264279,561.6L757.6995626250005,561.6L626.5306388530839,314.59000483472727L619.7610099319185,316.6482669499944Z" style="opacity: 0;"/><path data-target="point-1-33" d="M626.5306388530839,314.59000483472727L757.6995626250005,561.6L786.3318884885715,561.6L643.5553907725455,304.36987832263776L638.6255360779764,305.81915319345546Z" style="opacity: 0;"/><path data-target="point-1-34" d="M643.5553907725455,304.36987832263776L786.3318884885715,561.6L815.7668710400001,561.6L660.5308869977773,293.6877987436986L657.554446288319,294.5340639587663Z" style="opacity: 0;"/><path data-target="point-1-35" d="M660.5308869977773,293.6877987436986L815.7668710400001,561.6L846.408533509286,561.6L677.424791247481,282.5392498883514L676.5553547892804,282.77834080264654Z" style="opacity: 0;"/><path data-target="point-1-36" d="M677.424791247481,282.5392498883514L846.408533509286,561.6L878.0872376800004,561.6L694.4972505849619,271.2735773940436Z" style="opacity: 0;"/><path data-target="point-1-37" d="M694.4972505849619,271.2735773940436L878.0872376800004,561.6L911.1651934057128,561.6L711.6705218795455,259.75185740819063L695.3745989912666,270.1762171862005Z" style="opacity: 0;"/><path data-target="point-1-38" d="M711.6705218795455,259.75185740819063L911.1651934057128,561.6L936,561.6L936,547.750426201171L728.8046429161845,247.68861887237261L714.0756027832352,256.82549051049904Z" style="opacity: 0;"/><path data-target="point-1-39" d="M728.8046429161845,247.68861887237261L936,547.750426201171L936,498.55703595287537L745.8923772234056,235.06760729508758L732.8211347567177,242.93270871141516Z" style="opacity: 0;"/><path data-target="point-1-40" d="M745.8923772234056,235.06760729508758L936,498.55703595287537L936,451.52822580027555L762.9378538603128,221.86141259058516L751.6127518468653,228.47315720216244Z" style="opacity: 0;"/><path data-target="point-1-41" d="M762.9378538603128,221.86141259058516L936,451.52822580027555L936,406.2105638413926L779.9232853414064,208.05834953408063L770.454198424581,213.42308921757984Z" style="opacity: 0;"/><path data-target="point-1-42" d="M779.9232853414064,208.05834953408063L936,406.2105638413926L936,362.6458820078967L796.8604024923783,193.6186474114534L789.3444099332868,197.75249891372005Z" style="opacity: 0;"/><path data-target="point-1-43" d="M796.8604024923783,193.6186474114534L936,362.6458820078967L936,320.7058066926294L813.7523375419871,178.51455106855838L808.2857117689191,181.43440680899377Z" style="opacity: 0;"/><path data-target="point-1-44" d="M813.7523375419871,178.51455106855838L936,320.7058066926294L936,280.0361488963726L830.576243472301,162.7345590623563L827.2830420281529,164.44307090991947Z" style="opacity: 0;"/><path data-target="point-1-45" d="M830.576243472301,162.7345590623563L936,280.0361488963726L936,240.6282167293198L847.3494351734836,146.2321331362497L846.3338042514409,146.7441320382999Z" style="opacity: 0;"/><path data-target="point-1-46" d="M847.3494351734836,146.2321331362497L936,240.6282167293198L936,108.7782385L926.3441171664294,108.77823850000001L891.6122577224914,115.48442415807754L865.4417427003411,128.3082081485295Z" style="opacity: 0;"/></g></g><g class="axes"><g class="y axis" fill="none" font-size="10" font-family="sans-serif" text-anchor="end" style="font-family: &quot;Source Sans Pro&quot;;"><path class="domain" stroke="#eeeeee" d="M0.5,562.1V0.5" stroke-dasharray="0" style="visibility: hidden;"/><g class="tick" opacity="1" transform="translate(0,562.1)" style="visibility: visible;"><line stroke="#eeeeee" x2="936" stroke-dasharray="0"/><text fill="rgb(0, 0, 0)" x="3" dy="-0.33em" opacity="1" text-anchor="start" font-size="18">$0</text></g><g class="tick" opacity="1" transform="translate(0, 499.70001220703125)" style="visibility: visible;"><line stroke="#eeeeee" x2="936" stroke-dasharray="0"/><text fill="rgb(0, 0, 0)" x="3" dy="-0.33em" opacity="1" text-anchor="start" font-size="18">$10,000</text></g><g class="tick" opacity="1" transform="translate(0, 437.29998779296875)" style="visibility: visible;"><line stroke="#eeeeee" x2="936" stroke-dasharray="0"/><text fill="rgb(0, 0, 0)" x="3" dy="-0.33em" opacity="1" text-anchor="start" font-size="18">$20,000</text></g><g class="tick" opacity="1" transform="translate(0, 374.8999938964844)" style="visibility: visible;"><line stroke="#eeeeee" x2="936" stroke-dasharray="0"/><text fill="rgb(0, 0, 0)" x="3" dy="-0.33em" opacity="1" text-anchor="start" font-size="18">$30,000</text></g><g class="tick" opacity="1" transform="translate(0, 312.5)" style="visibility: visible;"><line stroke="#eeeeee" x2="936" stroke-dasharray="0"/><text fill="rgb(0, 0, 0)" x="3" dy="-0.33em" opacity="1" text-anchor="start" font-size="18">$40,000</text></g><g class="tick" opacity="1" transform="translate(0, 250.10000610351562)" style="visibility: visible;"><line stroke="#eeeeee" x2="936" stroke-dasharray="0"/><text fill="rgb(0, 0, 0)" x="3" dy="-0.33em" opacity="1" text-anchor="start" font-size="18">$50,000</text></g><g class="tick" opacity="1" transform="translate(0, 187.6999969482422)" style="visibility: visible;"><line stroke="#eeeeee" x2="936" stroke-dasharray="0"/><text fill="rgb(0, 0, 0)" x="3" dy="-0.33em" opacity="1" text-anchor="start" font-size="18">$60,000</text></g><g class="tick" opacity="1" transform="translate(0, 125.30000305175781)" style="visibility: visible;"><line stroke="#eeeeee" x2="936" stroke-dasharray="0"/><text fill="rgb(0, 0, 0)" x="3" dy="-0.33em" opacity="1" text-anchor="start" font-size="18">$70,000</text></g><g class="tick" opacity="1" transform="translate(0, 62.900001525878906)" style="visibility: visible;"><line stroke="#eeeeee" x2="936" stroke-dasharray="0"/><text fill="rgb(0, 0, 0)" x="3" dy="-0.33em" opacity="1" text-anchor="start" font-size="18">$80,000</text></g><g class="tick" opacity="1" transform="translate(0, 0.5)" style="visibility: visible;"><line stroke="#eeeeee" x2="936" stroke-dasharray="0"/><text fill="rgb(0, 0, 0)" x="3" dy="-0.33em" opacity="1" text-anchor="start" font-size="18">$90,000</text></g></g><g class="x axis" transform="translate(0,561.6)" fill="none" font-size="10" font-family="sans-serif" text-anchor="middle" style="font-family: &quot;Source Sans Pro&quot;;"><path class="domain" stroke="#eeeeee" d="M40.5,0.5H936.5" stroke-dasharray="0"/><g class="tick" opacity="1" transform="translate(40.5,0)"><line stroke="#eeeeee" y2="6" stroke-dasharray="0"/><text fill="rgb(0, 0, 0)" y="9" dy="-9" opacity="1" dominant-baseline="central" font-size="18" transform="translate(0, 15) rotate(-45)" dx="5" style="text-anchor: end; visibility: visible;">1990</text></g><g class="tick" opacity="1" transform="translate(130.10000000000002,0)"><line stroke="#eeeeee" y2="6" stroke-dasharray="0"/><text fill="rgb(0, 0, 0)" y="9" dy="-9" opacity="1" dominant-baseline="central" font-size="18" transform="translate(0, 15) rotate(-45)" dx="5" style="text-anchor: end; visibility: visible;">1995</text></g><g class="tick" opacity="1" transform="translate(219.70000000000002,0)"><line stroke="#eeeeee" y2="6" stroke-dasharray="0"/><text fill="rgb(0, 0, 0)" y="9" dy="-9" opacity="1" dominant-baseline="central" font-size="18" transform="translate(0, 15) rotate(-45)" dx="5" style="text-anchor: end; visibility: visible;">2000</text></g><g class="tick" opacity="1" transform="translate(309.3,0)"><line stroke="#eeeeee" y2="6" stroke-dasharray="0"/><text fill="rgb(0, 0, 0)" y="9" dy="-9" opacity="1" dominant-baseline="central" font-size="18" transform="translate(0, 15) rotate(-45)" dx="5" style="text-anchor: end; visibility: visible;">2005</text></g><g class="tick" opacity="1" transform="translate(398.90000000000003,0)"><line stroke="#eeeeee" y2="6" stroke-dasharray="0"/><text fill="rgb(0, 0, 0)" y="9" dy="-9" opacity="1" dominant-baseline="central" font-size="18" transform="translate(0, 15) rotate(-45)" dx="5" style="text-anchor: end; visibility: visible;">2010</text></g><g class="tick" opacity="1" transform="translate(488.5,0)"><line stroke="#eeeeee" y2="6" stroke-dasharray="0"/><text fill="rgb(0, 0, 0)" y="9" dy="-9" opacity="1" dominant-baseline="central" font-size="18" transform="translate(0, 15) rotate(-45)" dx="5" style="text-anchor: end; visibility: visible;">2015</text></g><g class="tick" opacity="1" transform="translate(578.1,0)"><line stroke="#eeeeee" y2="6" stroke-dasharray="0"/><text fill="rgb(0, 0, 0)" y="9" dy="-9" opacity="1" dominant-baseline="central" font-size="18" transform="translate(0, 15) rotate(-45)" dx="5" style="text-anchor: end; visibility: visible;">2020</text></g><g class="tick" opacity="1" transform="translate(667.6999999999999,0)"><line stroke="#eeeeee" y2="6" stroke-dasharray="0"/><text fill="rgb(0, 0, 0)" y="9" dy="-9" opacity="1" dominant-baseline="central" font-size="18" transform="translate(0, 15) rotate(-45)" dx="5" style="text-anchor: end; visibility: visible;">2025</text></g><g class="tick" opacity="1" transform="translate(757.3000000000001,0)"><line stroke="#eeeeee" y2="6" stroke-dasharray="0"/><text fill="rgb(0, 0, 0)" y="9" dy="-9" opacity="1" dominant-baseline="central" font-size="18" transform="translate(0, 15) rotate(-45)" dx="5" style="text-anchor: end; visibility: visible;">2030</text></g><g class="tick" opacity="1" transform="translate(846.9,0)"><line stroke="#eeeeee" y2="6" stroke-dasharray="0"/><text fill="rgb(0, 0, 0)" y="9" dy="-9" opacity="1" dominant-baseline="central" font-size="18" transform="translate(0, 15) rotate(-45)" dx="5" style="text-anchor: end; visibility: visible;">2035</text></g><g class="tick" opacity="1" transform="translate(936.5,0)"><line stroke="#eeeeee" y2="6" stroke-dasharray="0"/><text fill="rgb(0, 0, 0)" y="9" dy="-9" opacity="1" dominant-baseline="central" font-size="18" transform="translate(0, 15) rotate(-45)" dx="5" style="text-anchor: end; visibility: visible;">2040</text></g></g></g></g></g></g><g class="annotations below"><g class="axis-highlights" transform="translate(15, 20)" style="opacity: 1;"><g class="line x" transform="translate(559.68, 0)"><line width="0" stroke-dasharray="2 2" stroke="#333333" stroke-width="2" y2="561.6"/><text transform="translate(0, 6) rotate(-90)" fill="#333333" text-anchor="end" dy="-0.5em" font-size="12">Current</text></g></g></g><g id="areas"><g class="series" pointer-events="none"><path class="area" transform="translate(15,20)" fill-opacity="0" fill="rgb(128, 35, 146)" clip-path="url(#clip-0-0)" d="M57.92,496.19856000000004C63.89333333333334,494.89388,69.86666666666667,493.5892,75.84,492.18624C81.81333333333333,490.78328,87.78666666666666,489.10888,93.75999999999999,487.7808C99.73333333333333,486.45272,105.70666666666666,485.43248,111.68,484.21776C117.65333333333335,483.00304,123.62666666666668,481.858,129.60000000000002,480.49248C135.57333333333335,479.12696,141.54666666666665,477.5264,147.51999999999998,476.02464000000003C153.4933333333333,474.52288000000004,159.46666666666667,473.10016,165.44,471.48192C171.41333333333333,469.86368,177.38666666666668,467.94696,183.36,466.3152C189.33333333333334,464.68344,195.30666666666667,463.27528,201.28,461.69136000000003C207.25333333333333,460.10744000000005,213.2266666666667,458.57344,219.20000000000002,456.81168C225.17333333333335,455.04992000000004,231.14666666666668,453.21016000000003,237.12,451.12080000000003C243.09333333333333,449.03144000000003,249.06666666666666,446.85368000000005,255.04,444.27552000000003C261.0133333333333,441.69736,266.9866666666667,438.51288,272.96000000000004,435.65184C278.93333333333334,432.7908,284.9066666666667,429.94016,290.88,427.10928C296.85333333333335,424.27840000000003,302.82666666666665,421.51928,308.8,418.66656C314.77333333333337,415.81384,320.74666666666667,413.11504,326.72,409.99296000000004C332.6933333333334,406.87088000000006,338.6666666666667,403.1872,344.64000000000004,399.93408C350.61333333333334,396.68095999999997,356.5866666666667,393.33008,362.56,390.47424C368.53333333333336,387.6184,374.50666666666666,385.69232,380.48,382.79904C386.4533333333334,379.90576,392.4266666666667,376.18879999999996,398.40000000000003,373.11456C404.37333333333333,370.04032,410.3466666666667,367.20216000000005,416.32,364.35360000000003C422.29333333333335,361.50504,428.26666666666665,358.58783999999997,434.24,356.0232C440.21333333333337,353.45856,446.18666666666667,351.19032,452.16,348.96576C458.1333333333333,346.7412,464.1066666666667,342.91712,470.08,342.67584C476.05333333333334,342.43456,482.02666666666664,342.5552,488,342.31392C493.97333333333336,342.07264,499.94666666666666,336.1228,505.92,333.7464C511.8933333333334,331.37,517.8666666666667,329.53232,523.84,328.05552C529.8133333333334,326.57872000000003,535.7866666666666,326.5167984,541.76,324.8856C547.7333333333333,323.2544016,553.7066666666666,321.0707552,559.68,318.2683296C565.6533333333333,315.465904,571.6266666666667,311.5413704,577.6,308.0710464C583.5733333333334,304.6007224,589.5466666666666,301.06215360000004,595.52,297.44638560000004C601.4933333333333,293.83061760000004,607.4666666666667,290.1437240000001,613.44,286.37643840000004C619.4133333333334,282.60915280000006,625.3866666666667,278.76782959999997,631.36,274.842672C637.3333333333334,270.91751439999996,643.3066666666667,266.91515760000004,649.2800000000001,262.8254928C655.2533333333333,258.735828,661.2266666666667,254.56572959999997,667.1999999999999,250.3046832C673.1733333333333,246.04363679999997,679.1466666666666,241.69881840000002,685.12,237.25921440000002C691.0933333333334,232.81961040000004,697.0666666666666,228.29271920000002,703.04,223.66705920000004C709.0133333333333,219.04139920000003,714.9866666666667,214.32476000000003,720.96,209.5052544C726.9333333333334,204.68574880000003,732.9066666666666,199.7714992,738.88,194.75002560000001C744.8533333333334,189.728552,750.8266666666667,184.60833040000006,756.8000000000001,179.37641280000003C762.7733333333333,174.14449520000005,768.7466666666667,168.80969039999997,774.7199999999999,163.35852C780.6933333333333,157.90734959999997,786.6666666666666,152.34900720000007,792.64,146.66939040000005C798.6133333333333,140.98977360000006,804.5866666666666,135.19845039999998,810.56,129.2808192C816.5333333333333,123.36318799999997,822.5066666666667,117.32922239999996,828.48,111.16360319999995C834.4533333333334,104.99798399999999,840.4266666666666,98.71111120000002,846.4,92.28710400000006C852.3733333333333,85.86309680000005,858.3466666666667,79.31277120000006,864.32,72.61956000000004C870.2933333333334,65.92634880000006,876.2666666666667,59.02709280000006,882.24,52.12783680000007L882.24,52.12783680000007C876.2666666666667,59.02709280000006,870.2933333333334,65.92634880000006,864.32,72.61956000000004C858.3466666666667,79.31277120000006,852.3733333333333,85.86309680000005,846.4,92.28710400000006C840.4266666666666,98.71111120000002,834.4533333333334,104.99798399999999,828.48,111.16360319999995C822.5066666666667,117.32922239999996,816.5333333333333,123.36318799999997,810.56,129.2808192C804.5866666666666,135.19845039999998,798.6133333333333,140.98977360000006,792.64,146.66939040000005C786.6666666666666,152.34900720000007,780.6933333333333,157.90734959999997,774.7199999999999,163.35852C768.7466666666667,168.80969039999997,762.7733333333333,174.14449520000005,756.8000000000001,179.37641280000003C750.8266666666667,184.60833040000006,744.8533333333334,189.728552,738.88,194.75002560000001C732.9066666666666,199.7714992,726.9333333333334,204.68574880000003,720.96,209.5052544C714.9866666666667,214.32476000000003,709.0133333333333,219.04139920000003,703.04,223.66705920000004C697.0666666666666,228.29271920000002,691.0933333333334,232.81961040000004,685.12,237.25921440000002C679.1466666666666,241.69881840000002,673.1733333333333,246.04363679999997,667.1999999999999,250.3046832C661.2266666666667,254.56572959999997,655.2533333333333,258.735828,649.2800000000001,262.8254928C643.3066666666667,266.91515760000004,637.3333333333334,270.91751439999996,631.36,274.842672C625.3866666666667,278.76782959999997,619.4133333333334,282.60915280000006,613.44,286.37643840000004C607.4666666666667,290.1437240000001,601.4933333333333,293.83061760000004,595.52,297.44638560000004C589.5466666666666,301.06215360000004,583.5733333333334,304.6007224,577.6,308.0710464C571.6266666666667,311.5413704,565.6533333333333,315.465904,559.68,318.2683296C553.7066666666666,321.0707552,547.7333333333333,323.2544016,541.76,324.8856C535.7866666666666,326.5167984,529.8133333333334,326.57872000000003,523.84,328.05552C517.8666666666667,329.53232,511.8933333333334,331.37,505.92,333.7464C499.94666666666666,336.1228,493.97333333333336,342.07264,488,342.31392C482.02666666666664,342.5552,476.05333333333334,342.43456,470.08,342.67584C464.1066666666667,342.91712,458.1333333333333,346.7412,452.16,348.96576C446.18666666666667,351.19032,440.21333333333337,353.45856,434.24,356.0232C428.26666666666665,358.58783999999997,422.29333333333335,361.50504,416.32,364.35360000000003C410.3466666666667,367.20216000000005,404.37333333333333,370.04032,398.40000000000003,373.11456C392.4266666666667,376.18879999999996,386.4533333333334,379.90576,380.48,382.79904C374.50666666666666,385.69232,368.53333333333336,387.6184,362.56,390.47424C356.5866666666667,393.33008,350.61333333333334,396.68095999999997,344.64000000000004,399.93408C338.6666666666667,403.1872,332.6933333333334,406.87088000000006,326.72,409.99296000000004C320.74666666666667,413.11504,314.77333333333337,415.81384,308.8,418.66656C302.82666666666665,421.51928,296.85333333333335,424.27840000000003,290.88,427.10928C284.9066666666667,429.94016,278.93333333333334,432.7908,272.96000000000004,435.65184C266.9866666666667,438.51288,261.0133333333333,441.69736,255.04,444.27552000000003C249.06666666666666,446.85368000000005,243.09333333333333,449.03144000000003,237.12,451.12080000000003C231.14666666666668,453.21016000000003,225.17333333333335,455.04992000000004,219.20000000000002,456.81168C213.2266666666667,458.57344,207.25333333333333,460.10744000000005,201.28,461.69136000000003C195.30666666666667,463.27528,189.33333333333334,464.68344,183.36,466.3152C177.38666666666668,467.94696,171.41333333333333,469.86368,165.44,471.48192C159.46666666666667,473.10016,153.4933333333333,474.52288000000004,147.51999999999998,476.02464000000003C141.54666666666665,477.5264,135.57333333333335,479.12696,129.60000000000002,480.49248C123.62666666666668,481.858,117.65333333333335,483.00304,111.68,484.21776C105.70666666666666,485.43248,99.73333333333333,486.45272,93.75999999999999,487.7808C87.78666666666666,489.10888,81.81333333333333,490.78328,75.84,492.18624C69.86666666666667,493.5892,63.89333333333334,494.89388,57.92,496.19856000000004Z"/></g><g class="series" pointer-events="none"><path class="area" transform="translate(15,20)" fill-opacity="0" fill="rgb(204, 80, 62)" clip-path="url(#clip-0-1)" d="M57.92,516.1416C63.89333333333334,515.16504,69.86666666666667,514.18848,75.84,513.22128C81.81333333333333,512.2540799999999,87.78666666666666,511.24632,93.75999999999999,510.33840000000004C99.73333333333333,509.43048000000005,105.70666666666666,508.64944,111.68,507.77376000000004C117.65333333333335,506.89808000000005,123.62666666666668,506.08896000000004,129.60000000000002,505.08432000000005C135.57333333333335,504.07968000000005,141.54666666666665,502.88992,147.51999999999998,501.74592C153.4933333333333,500.60192,159.46666666666667,499.46416,165.44,498.22032C171.41333333333333,496.97648000000004,177.38666666666668,495.52984000000004,183.36,494.28288000000003C189.33333333333334,493.03592000000003,195.30666666666667,491.95328,201.28,490.73856C207.25333333333333,489.52384,213.2266666666667,488.38504000000006,219.20000000000002,486.99456000000004C225.17333333333335,485.60408000000007,231.14666666666668,484.1148,237.12,482.39568C243.09333333333333,480.67656000000005,249.06666666666666,478.74944,255.04,476.67984C261.0133333333333,474.61024000000003,266.9866666666667,472.20368,272.96000000000004,469.97808000000003C278.93333333333334,467.75248000000005,284.9066666666667,465.51023999999995,290.88,463.32624C296.85333333333335,461.14223999999996,302.82666666666665,459.12048000000004,308.8,456.87408000000005C314.77333333333337,454.62768000000005,320.74666666666667,452.22736000000003,326.72,449.84784C332.6933333333334,447.46832,338.6666666666667,445.00456,344.64000000000004,442.59696C350.61333333333334,440.18936,356.5866666666667,437.59352,362.56,435.40224C368.53333333333336,433.21096,374.50666666666666,431.55320000000006,380.48,429.44928000000004C386.4533333333334,427.34536,392.4266666666667,424.95336000000003,398.40000000000003,422.77872C404.37333333333333,420.60408,410.3466666666667,418.44919999999996,416.32,416.40144C422.29333333333335,414.35368,428.26666666666665,412.26432,434.24,410.49216C440.21333333333337,408.72,446.18666666666667,407.27544,452.16,405.76848C458.1333333333333,404.26152,464.1066666666667,402.92824,470.08,401.4504C476.05333333333334,399.97256,482.02666666666664,398.38343999999995,488,396.90144C493.97333333333336,395.41944,499.94666666666666,394.186,505.92,392.5584C511.8933333333334,390.93080000000003,517.8666666666667,388.66256000000004,523.84,387.13584000000003C529.8133333333334,385.60912,535.7866666666666,384.67312000000004,541.76,383.39808000000005C547.7333333333333,382.12304000000006,553.7066666666666,381.46991999999995,559.68,379.4856C565.6533333333333,377.50127999999995,571.6266666666667,374.21592,577.6,371.49216C583.5733333333334,368.76840000000004,589.5466666666666,365.98848000000004,595.52,363.14304000000004C601.4933333333333,360.29760000000005,607.4666666666667,357.3908,613.44,354.41952000000003C619.4133333333334,351.44824000000006,625.3866666666667,348.41872000000006,631.36,345.31536000000006C637.3333333333334,342.21200000000005,643.3066666666667,339.04312,649.2800000000001,335.79936C655.2533333333333,332.55559999999997,661.2266666666667,329.24111999999997,667.1999999999999,325.8528C673.1733333333333,322.46448,679.1466666666666,319.00856,685.12,315.46943999999996C691.0933333333334,311.93032,697.0666666666666,308.31528,703.04,304.61808C709.0133333333333,300.92088,714.9866666666667,297.14880000000005,720.96,293.28624C726.9333333333334,289.42368000000005,732.9066666666666,285.47896,738.88,281.44272C744.8533333333334,277.40648,750.8266666666667,273.28600000000006,756.8000000000001,269.0688C762.7733333333333,264.8516,768.7466666666667,260.54495999999995,774.7199999999999,256.13952C780.6933333333333,251.73407999999998,786.6666666666666,247.23920000000004,792.64,242.63616000000002C798.6133333333333,238.03312000000003,804.5866666666666,233.33231999999998,810.56,228.52128C816.5333333333333,223.71023999999997,822.5066666666667,218.79624000000004,828.48,213.76992C834.4533333333334,208.74360000000004,840.4266666666666,203.61535999999998,846.4,198.36336C852.3733333333333,193.11136,858.3466666666667,187.74704000000003,864.32,182.25792C870.2933333333334,176.76880000000003,876.2666666666667,171.09872,882.24,165.42863999999997L882.24,165.42863999999997C876.2666666666667,171.09872,870.2933333333334,176.76880000000003,864.32,182.25792C858.3466666666667,187.74704000000003,852.3733333333333,193.11136,846.4,198.36336C840.4266666666666,203.61535999999998,834.4533333333334,208.74360000000004,828.48,213.76992C822.5066666666667,218.79624000000004,816.5333333333333,223.71023999999997,810.56,228.52128C804.5866666666666,233.33231999999998,798.6133333333333,238.03312000000003,792.64,242.63616000000002C786.6666666666666,247.23920000000004,780.6933333333333,251.73407999999998,774.7199999999999,256.13952C768.7466666666667,260.54495999999995,762.7733333333333,264.8516,756.8000000000001,269.0688C750.8266666666667,273.28600000000006,744.8533333333334,277.40648,738.88,281.44272C732.9066666666666,285.47896,726.9333333333334,289.42368000000005,720.96,293.28624C714.9866666666667,297.14880000000005,709.0133333333333,300.92088,703.04,304.61808C697.0666666666666,308.31528,691.0933333333334,311.93032,685.12,315.46943999999996C679.1466666666666,319.00856,673.1733333333333,322.46448,667.1999999999999,325.8528C661.2266666666667,329.24111999999997,655.2533333333333,332.55559999999997,649.2800000000001,335.79936C643.3066666666667,339.04312,637.3333333333334,342.21200000000005,631.36,345.31536000000006C625.3866666666667,348.41872000000006,619.4133333333334,351.44824000000006,613.44,354.41952000000003C607.4666666666667,357.3908,601.4933333333333,360.29760000000005,595.52,363.14304000000004C589.5466666666666,365.98848000000004,583.5733333333334,368.76840000000004,577.6,371.49216C571.6266666666667,374.21592,565.6533333333333,377.50127999999995,559.68,379.4856C553.7066666666666,381.46991999999995,547.7333333333333,382.12304000000006,541.76,383.39808000000005C535.7866666666666,384.67312000000004,529.8133333333334,385.60912,523.84,387.13584000000003C517.8666666666667,388.66256000000004,511.8933333333334,390.93080000000003,505.92,392.5584C499.94666666666666,394.186,493.97333333333336,395.41944,488,396.90144C482.02666666666664,398.38343999999995,476.05333333333334,399.97256,470.08,401.4504C464.1066666666667,402.92824,458.1333333333333,404.26152,452.16,405.76848C446.18666666666667,407.27544,440.21333333333337,408.72,434.24,410.49216C428.26666666666665,412.26432,422.29333333333335,414.35368,416.32,416.40144C410.3466666666667,418.44919999999996,404.37333333333333,420.60408,398.40000000000003,422.77872C392.4266666666667,424.95336000000003,386.4533333333334,427.34536,380.48,429.44928000000004C374.50666666666666,431.55320000000006,368.53333333333336,433.21096,362.56,435.40224C356.5866666666667,437.59352,350.61333333333334,440.18936,344.64000000000004,442.59696C338.6666666666667,445.00456,332.6933333333334,447.46832,326.72,449.84784C320.74666666666667,452.22736000000003,314.77333333333337,454.62768000000005,308.8,456.87408000000005C302.82666666666665,459.12048000000004,296.85333333333335,461.14223999999996,290.88,463.32624C284.9066666666667,465.51023999999995,278.93333333333334,467.75248000000005,272.96000000000004,469.97808000000003C266.9866666666667,472.20368,261.0133333333333,474.61024000000003,255.04,476.67984C249.06666666666666,478.74944,243.09333333333333,480.67656000000005,237.12,482.39568C231.14666666666668,484.1148,225.17333333333335,485.60408000000007,219.20000000000002,486.99456000000004C213.2266666666667,488.38504000000006,207.25333333333333,489.52384,201.28,490.73856C195.30666666666667,491.95328,189.33333333333334,493.03592000000003,183.36,494.28288000000003C177.38666666666668,495.52984000000004,171.41333333333333,496.97648000000004,165.44,498.22032C159.46666666666667,499.46416,153.4933333333333,500.60192,147.51999999999998,501.74592C141.54666666666665,502.88992,135.57333333333335,504.07968000000005,129.60000000000002,505.08432000000005C123.62666666666668,506.08896000000004,117.65333333333335,506.89808000000005,111.68,507.77376000000004C105.70666666666666,508.64944,99.73333333333333,509.43048000000005,93.75999999999999,510.33840000000004C87.78666666666666,511.24632,81.81333333333333,512.2540799999999,75.84,513.22128C69.86666666666667,514.18848,63.89333333333334,515.16504,57.92,516.1416Z"/></g></g><g id="lines"><g class="series"><clipPath id="clip-0-0"><rect width="936" y="-20" height="599.6"/></clipPath><path class="line" opacity="1" fill="none" stroke="rgb(128, 35, 146)" stroke-width="2" transform="translate(15,20)" clip-path="url(#clip-0-0)" d="M57.92,496.19856000000004C63.89333333333334,494.89388,69.86666666666667,493.5892,75.84,492.18624C81.81333333333333,490.78328,87.78666666666666,489.10888,93.75999999999999,487.7808C99.73333333333333,486.45272,105.70666666666666,485.43248,111.68,484.21776C117.65333333333335,483.00304,123.62666666666668,481.858,129.60000000000002,480.49248C135.57333333333335,479.12696,141.54666666666665,477.5264,147.51999999999998,476.02464000000003C153.4933333333333,474.52288000000004,159.46666666666667,473.10016,165.44,471.48192C171.41333333333333,469.86368,177.38666666666668,467.94696,183.36,466.3152C189.33333333333334,464.68344,195.30666666666667,463.27528,201.28,461.69136000000003C207.25333333333333,460.10744000000005,213.2266666666667,458.57344,219.20000000000002,456.81168C225.17333333333335,455.04992000000004,231.14666666666668,453.21016000000003,237.12,451.12080000000003C243.09333333333333,449.03144000000003,249.06666666666666,446.85368000000005,255.04,444.27552000000003C261.0133333333333,441.69736,266.9866666666667,438.51288,272.96000000000004,435.65184C278.93333333333334,432.7908,284.9066666666667,429.94016,290.88,427.10928C296.85333333333335,424.27840000000003,302.82666666666665,421.51928,308.8,418.66656C314.77333333333337,415.81384,320.74666666666667,413.11504,326.72,409.99296000000004C332.6933333333334,406.87088000000006,338.6666666666667,403.1872,344.64000000000004,399.93408C350.61333333333334,396.68095999999997,356.5866666666667,393.33008,362.56,390.47424C368.53333333333336,387.6184,374.50666666666666,385.69232,380.48,382.79904C386.4533333333334,379.90576,392.4266666666667,376.18879999999996,398.40000000000003,373.11456C404.37333333333333,370.04032,410.3466666666667,367.20216000000005,416.32,364.35360000000003C422.29333333333335,361.50504,428.26666666666665,358.58783999999997,434.24,356.0232C440.21333333333337,353.45856,446.18666666666667,351.19032,452.16,348.96576C458.1333333333333,346.7412,464.1066666666667,342.91712,470.08,342.67584C476.05333333333334,342.43456,482.02666666666664,342.5552,488,342.31392C493.97333333333336,342.07264,499.94666666666666,336.1228,505.92,333.7464C511.8933333333334,331.37,517.8666666666667,329.53232,523.84,328.05552C529.8133333333334,326.57872000000003,535.7866666666666,326.5167984,541.76,324.8856C547.7333333333333,323.2544016,553.7066666666666,321.0707552,559.68,318.2683296C565.6533333333333,315.465904,571.6266666666667,311.5413704,577.6,308.0710464C583.5733333333334,304.6007224,589.5466666666666,301.06215360000004,595.52,297.44638560000004C601.4933333333333,293.83061760000004,607.4666666666667,290.1437240000001,613.44,286.37643840000004C619.4133333333334,282.60915280000006,625.3866666666667,278.76782959999997,631.36,274.842672C637.3333333333334,270.91751439999996,643.3066666666667,266.91515760000004,649.2800000000001,262.8254928C655.2533333333333,258.735828,661.2266666666667,254.56572959999997,667.1999999999999,250.3046832C673.1733333333333,246.04363679999997,679.1466666666666,241.69881840000002,685.12,237.25921440000002C691.0933333333334,232.81961040000004,697.0666666666666,228.29271920000002,703.04,223.66705920000004C709.0133333333333,219.04139920000003,714.9866666666667,214.32476000000003,720.96,209.5052544C726.9333333333334,204.68574880000003,732.9066666666666,199.7714992,738.88,194.75002560000001C744.8533333333334,189.728552,750.8266666666667,184.60833040000006,756.8000000000001,179.37641280000003C762.7733333333333,174.14449520000005,768.7466666666667,168.80969039999997,774.7199999999999,163.35852C780.6933333333333,157.90734959999997,786.6666666666666,152.34900720000007,792.64,146.66939040000005C798.6133333333333,140.98977360000006,804.5866666666666,135.19845039999998,810.56,129.2808192C816.5333333333333,123.36318799999997,822.5066666666667,117.32922239999996,828.48,111.16360319999995C834.4533333333334,104.99798399999999,840.4266666666666,98.71111120000002,846.4,92.28710400000006C852.3733333333333,85.86309680000005,858.3466666666667,79.31277120000006,864.32,72.61956000000004C870.2933333333334,65.92634880000006,876.2666666666667,59.02709280000006,882.24,52.12783680000007"/><text class="label" font-size="11" alignment-baseline="middle" opacity="1" x="5" fill="rgb(128, 35, 146)" transform="translate(897.239990234375, 72.12783813476562)"/></g><g class="series"><clipPath id="clip-0-1"><rect width="936" y="-20" height="599.6"/></clipPath><path class="line" opacity="1" fill="none" stroke="rgb(204, 80, 62)" stroke-width="2" transform="translate(15,20)" clip-path="url(#clip-0-1)" d="M57.92,516.1416C63.89333333333334,515.16504,69.86666666666667,514.18848,75.84,513.22128C81.81333333333333,512.2540799999999,87.78666666666666,511.24632,93.75999999999999,510.33840000000004C99.73333333333333,509.43048000000005,105.70666666666666,508.64944,111.68,507.77376000000004C117.65333333333335,506.89808000000005,123.62666666666668,506.08896000000004,129.60000000000002,505.08432000000005C135.57333333333335,504.07968000000005,141.54666666666665,502.88992,147.51999999999998,501.74592C153.4933333333333,500.60192,159.46666666666667,499.46416,165.44,498.22032C171.41333333333333,496.97648000000004,177.38666666666668,495.52984000000004,183.36,494.28288000000003C189.33333333333334,493.03592000000003,195.30666666666667,491.95328,201.28,490.73856C207.25333333333333,489.52384,213.2266666666667,488.38504000000006,219.20000000000002,486.99456000000004C225.17333333333335,485.60408000000007,231.14666666666668,484.1148,237.12,482.39568C243.09333333333333,480.67656000000005,249.06666666666666,478.74944,255.04,476.67984C261.0133333333333,474.61024000000003,266.9866666666667,472.20368,272.96000000000004,469.97808000000003C278.93333333333334,467.75248000000005,284.9066666666667,465.51023999999995,290.88,463.32624C296.85333333333335,461.14223999999996,302.82666666666665,459.12048000000004,308.8,456.87408000000005C314.77333333333337,454.62768000000005,320.74666666666667,452.22736000000003,326.72,449.84784C332.6933333333334,447.46832,338.6666666666667,445.00456,344.64000000000004,442.59696C350.61333333333334,440.18936,356.5866666666667,437.59352,362.56,435.40224C368.53333333333336,433.21096,374.50666666666666,431.55320000000006,380.48,429.44928000000004C386.4533333333334,427.34536,392.4266666666667,424.95336000000003,398.40000000000003,422.77872C404.37333333333333,420.60408,410.3466666666667,418.44919999999996,416.32,416.40144C422.29333333333335,414.35368,428.26666666666665,412.26432,434.24,410.49216C440.21333333333337,408.72,446.18666666666667,407.27544,452.16,405.76848C458.1333333333333,404.26152,464.1066666666667,402.92824,470.08,401.4504C476.05333333333334,399.97256,482.02666666666664,398.38343999999995,488,396.90144C493.97333333333336,395.41944,499.94666666666666,394.186,505.92,392.5584C511.8933333333334,390.93080000000003,517.8666666666667,388.66256000000004,523.84,387.13584000000003C529.8133333333334,385.60912,535.7866666666666,384.67312000000004,541.76,383.39808000000005C547.7333333333333,382.12304000000006,553.7066666666666,381.46991999999995,559.68,379.4856C565.6533333333333,377.50127999999995,571.6266666666667,374.21592,577.6,371.49216C583.5733333333334,368.76840000000004,589.5466666666666,365.98848000000004,595.52,363.14304000000004C601.4933333333333,360.29760000000005,607.4666666666667,357.3908,613.44,354.41952000000003C619.4133333333334,351.44824000000006,625.3866666666667,348.41872000000006,631.36,345.31536000000006C637.3333333333334,342.21200000000005,643.3066666666667,339.04312,649.2800000000001,335.79936C655.2533333333333,332.55559999999997,661.2266666666667,329.24111999999997,667.1999999999999,325.8528C673.1733333333333,322.46448,679.1466666666666,319.00856,685.12,315.46943999999996C691.0933333333334,311.93032,697.0666666666666,308.31528,703.04,304.61808C709.0133333333333,300.92088,714.9866666666667,297.14880000000005,720.96,293.28624C726.9333333333334,289.42368000000005,732.9066666666666,285.47896,738.88,281.44272C744.8533333333334,277.40648,750.8266666666667,273.28600000000006,756.8000000000001,269.0688C762.7733333333333,264.8516,768.7466666666667,260.54495999999995,774.7199999999999,256.13952C780.6933333333333,251.73407999999998,786.6666666666666,247.23920000000004,792.64,242.63616000000002C798.6133333333333,238.03312000000003,804.5866666666666,233.33231999999998,810.56,228.52128C816.5333333333333,223.71023999999997,822.5066666666667,218.79624000000004,828.48,213.76992C834.4533333333334,208.74360000000004,840.4266666666666,203.61535999999998,846.4,198.36336C852.3733333333333,193.11136,858.3466666666667,187.74704000000003,864.32,182.25792C870.2933333333334,176.76880000000003,876.2666666666667,171.09872,882.24,165.42863999999997"/><text class="label" font-size="11" alignment-baseline="middle" opacity="1" x="5" fill="rgb(204, 80, 62)" transform="translate(897.239990234375, 185.4286346435547)"/></g></g><g id="data-points"><g class="series" transform="translate(15,20)"><path class="data-point" fill="rgb(128, 35, 146)" data-type="point" transform="translate(0, 0)" d="M54.92,496.19856000000004A3,3,0,1,1,60.92,496.19856000000004A3,3,0,1,1,54.92,496.19856000000004Z" id="point-0-0" opacity="1"/><path class="data-point" fill="rgb(128, 35, 146)" data-type="point" transform="translate(0, 0)" d="M72.84,492.18624A3,3,0,1,1,78.84,492.18624A3,3,0,1,1,72.84,492.18624Z" id="point-0-1" opacity="1"/><path class="data-point" fill="rgb(128, 35, 146)" data-type="point" transform="translate(0, 0)" d="M90.75999999999999,487.7808A3,3,0,1,1,96.75999999999999,487.7808A3,3,0,1,1,90.75999999999999,487.7808Z" id="point-0-2" opacity="1"/><path class="data-point" fill="rgb(128, 35, 146)" data-type="point" transform="translate(0, 0)" d="M108.68,484.21776A3,3,0,1,1,114.68,484.21776A3,3,0,1,1,108.68,484.21776Z" id="point-0-3" opacity="1"/><path class="data-point" fill="rgb(128, 35, 146)" data-type="point" transform="translate(0, 0)" d="M126.60000000000002,480.49248A3,3,0,1,1,132.60000000000002,480.49248A3,3,0,1,1,126.60000000000002,480.49248Z" id="point-0-4" opacity="1"/><path class="data-point" fill="rgb(128, 35, 146)" data-type="point" transform="translate(0, 0)" d="M144.51999999999998,476.02464000000003A3,3,0,1,1,150.51999999999998,476.02464000000003A3,3,0,1,1,144.51999999999998,476.02464000000003Z" id="point-0-5" opacity="1"/><path class="data-point" fill="rgb(128, 35, 146)" data-type="point" transform="translate(0, 0)" d="M162.44,471.48192A3,3,0,1,1,168.44,471.48192A3,3,0,1,1,162.44,471.48192Z" id="point-0-6" opacity="1"/><path class="data-point" fill="rgb(128, 35, 146)" data-type="point" transform="translate(0, 0)" d="M180.36,466.3152A3,3,0,1,1,186.36,466.3152A3,3,0,1,1,180.36,466.3152Z" id="point-0-7" opacity="1"/><path class="data-point" fill="rgb(128, 35, 146)" data-type="point" transform="translate(0, 0)" d="M198.28,461.69136000000003A3,3,0,1,1,204.28,461.69136000000003A3,3,0,1,1,198.28,461.69136000000003Z" id="point-0-8" opacity="1"/><path class="data-point" fill="rgb(128, 35, 146)" data-type="point" transform="translate(0, 0)" d="M216.20000000000002,456.81168A3,3,0,1,1,222.20000000000002,456.81168A3,3,0,1,1,216.20000000000002,456.81168Z" id="point-0-9" opacity="1"/><path class="data-point" fill="rgb(128, 35, 146)" data-type="point" transform="translate(0, 0)" d="M234.12,451.12080000000003A3,3,0,1,1,240.12,451.12080000000003A3,3,0,1,1,234.12,451.12080000000003Z" id="point-0-10" opacity="1"/><path class="data-point" fill="rgb(128, 35, 146)" data-type="point" transform="translate(0, 0)" d="M252.04,444.27552000000003A3,3,0,1,1,258.03999999999996,444.27552000000003A3,3,0,1,1,252.04,444.27552000000003Z" id="point-0-11" opacity="1"/><path class="data-point" fill="rgb(128, 35, 146)" data-type="point" transform="translate(0, 0)" d="M269.96000000000004,435.65184A3,3,0,1,1,275.96000000000004,435.65184A3,3,0,1,1,269.96000000000004,435.65184Z" id="point-0-12" opacity="1"/><path class="data-point" fill="rgb(128, 35, 146)" data-type="point" transform="translate(0, 0)" d="M287.88,427.10928A3,3,0,1,1,293.88,427.10928A3,3,0,1,1,287.88,427.10928Z" id="point-0-13" opacity="1"/><path class="data-point" fill="rgb(128, 35, 146)" data-type="point" transform="translate(0, 0)" d="M305.8,418.66656A3,3,0,1,1,311.8,418.66656A3,3,0,1,1,305.8,418.66656Z" id="point-0-14" opacity="1"/><path class="data-point" fill="rgb(128, 35, 146)" data-type="point" transform="translate(0, 0)" d="M323.72,409.99296000000004A3,3,0,1,1,329.72,409.99296000000004A3,3,0,1,1,323.72,409.99296000000004Z" id="point-0-15" opacity="1"/><path class="data-point" fill="rgb(128, 35, 146)" data-type="point" transform="translate(0, 0)" d="M341.64000000000004,399.93408A3,3,0,1,1,347.64000000000004,399.93408A3,3,0,1,1,341.64000000000004,399.93408Z" id="point-0-16" opacity="1"/><path class="data-point" fill="rgb(128, 35, 146)" data-type="point" transform="translate(0, 0)" d="M359.56,390.47424A3,3,0,1,1,365.56,390.47424A3,3,0,1,1,359.56,390.47424Z" id="point-0-17" opacity="1"/><path class="data-point" fill="rgb(128, 35, 146)" data-type="point" transform="translate(0, 0)" d="M377.48,382.79904A3,3,0,1,1,383.48,382.79904A3,3,0,1,1,377.48,382.79904Z" id="point-0-18" opacity="1"/><path class="data-point" fill="rgb(128, 35, 146)" data-type="point" transform="translate(0, 0)" d="M395.40000000000003,373.11456A3,3,0,1,1,401.40000000000003,373.11456A3,3,0,1,1,395.40000000000003,373.11456Z" id="point-0-19" opacity="1"/><path class="data-point" fill="rgb(128, 35, 146)" data-type="point" transform="translate(0, 0)" d="M413.32,364.35360000000003A3,3,0,1,1,419.32,364.35360000000003A3,3,0,1,1,413.32,364.35360000000003Z" id="point-0-20" opacity="1"/><path class="data-point" fill="rgb(128, 35, 146)" data-type="point" transform="translate(0, 0)" d="M431.24,356.0232A3,3,0,1,1,437.24,356.0232A3,3,0,1,1,431.24,356.0232Z" id="point-0-21" opacity="1"/><path class="data-point" fill="rgb(128, 35, 146)" data-type="point" transform="translate(0, 0)" d="M449.16,348.96576A3,3,0,1,1,455.16,348.96576A3,3,0,1,1,449.16,348.96576Z" id="point-0-22" opacity="1"/><path class="data-point" fill="rgb(128, 35, 146)" data-type="point" transform="translate(0, 0)" d="M467.08,342.67584A3,3,0,1,1,473.08,342.67584A3,3,0,1,1,467.08,342.67584Z" id="point-0-23" opacity="1"/><path class="data-point" fill="rgb(128, 35, 146)" data-type="point" transform="translate(0, 0)" d="M485,342.31392A3,3,0,1,1,491,342.31392A3,3,0,1,1,485,342.31392Z" id="point-0-24" opacity="1"/><path class="data-point" fill="rgb(128, 35, 146)" data-type="point" transform="translate(0, 0)" d="M502.92,333.7464A3,3,0,1,1,508.92,333.7464A3,3,0,1,1,502.92,333.7464Z" id="point-0-25" opacity="1"/><path class="data-point" fill="rgb(128, 35, 146)" data-type="point" transform="translate(0, 0)" d="M520.84,328.05552A3,3,0,1,1,526.84,328.05552A3,3,0,1,1,520.84,328.05552Z" id="point-0-26" opacity="1"/><path class="data-point" fill="rgb(128, 35, 146)" data-type="point" transform="translate(0, 0)" d="M538.76,324.8856A3,3,0,1,1,544.76,324.8856A3,3,0,1,1,538.76,324.8856Z" id="point-0-27" opacity="1"/><path class="data-point" fill="rgb(128, 35, 146)" data-type="point" transform="translate(0, 0)" d="M556.68,318.2683296A3,3,0,1,1,562.68,318.2683296A3,3,0,1,1,556.68,318.2683296Z" id="point-0-28" opacity="1"/><path class="data-point" fill="rgb(128, 35, 146)" data-type="point" transform="translate(0, 0)" d="M574.6,308.0710464A3,3,0,1,1,580.6,308.0710464A3,3,0,1,1,574.6,308.0710464Z" id="point-0-29" opacity="1"/><path class="data-point" fill="rgb(128, 35, 146)" data-type="point" transform="translate(0, 0)" d="M592.52,297.44638560000004A3,3,0,1,1,598.52,297.44638560000004A3,3,0,1,1,592.52,297.44638560000004Z" id="point-0-30" opacity="1"/><path class="data-point" fill="rgb(128, 35, 146)" data-type="point" transform="translate(0, 0)" d="M610.44,286.37643840000004A3,3,0,1,1,616.44,286.37643840000004A3,3,0,1,1,610.44,286.37643840000004Z" id="point-0-31" opacity="1"/><path class="data-point" fill="rgb(128, 35, 146)" data-type="point" transform="translate(0, 0)" d="M628.36,274.842672A3,3,0,1,1,634.36,274.842672A3,3,0,1,1,628.36,274.842672Z" id="point-0-32" opacity="1"/><path class="data-point" fill="rgb(128, 35, 146)" data-type="point" transform="translate(0, 0)" d="M646.2800000000001,262.8254928A3,3,0,1,1,652.2800000000001,262.8254928A3,3,0,1,1,646.2800000000001,262.8254928Z" id="point-0-33" opacity="1"/><path class="data-point" fill="rgb(128, 35, 146)" data-type="point" transform="translate(0, 0)" d="M664.1999999999999,250.3046832A3,3,0,1,1,670.1999999999999,250.3046832A3,3,0,1,1,664.1999999999999,250.3046832Z" id="point-0-34" opacity="1"/><path class="data-point" fill="rgb(128, 35, 146)" data-type="point" transform="translate(0, 0)" d="M682.12,237.25921440000002A3,3,0,1,1,688.12,237.25921440000002A3,3,0,1,1,682.12,237.25921440000002Z" id="point-0-35" opacity="1"/><path class="data-point" fill="rgb(128, 35, 146)" data-type="point" transform="translate(0, 0)" d="M700.04,223.66705920000004A3,3,0,1,1,706.04,223.66705920000004A3,3,0,1,1,700.04,223.66705920000004Z" id="point-0-36" opacity="1"/><path class="data-point" fill="rgb(128, 35, 146)" data-type="point" transform="translate(0, 0)" d="M717.96,209.5052544A3,3,0,1,1,723.96,209.5052544A3,3,0,1,1,717.96,209.5052544Z" id="point-0-37" opacity="1"/><path class="data-point" fill="rgb(128, 35, 146)" data-type="point" transform="translate(0, 0)" d="M735.88,194.75002560000001A3,3,0,1,1,741.88,194.75002560000001A3,3,0,1,1,735.88,194.75002560000001Z" id="point-0-38" opacity="1"/><path class="data-point" fill="rgb(128, 35, 146)" data-type="point" transform="translate(0, 0)" d="M753.8000000000001,179.37641280000003A3,3,0,1,1,759.8000000000001,179.37641280000003A3,3,0,1,1,753.8000000000001,179.37641280000003Z" id="point-0-39" opacity="1"/><path class="data-point" fill="rgb(128, 35, 146)" data-type="point" transform="translate(0, 0)" d="M771.7199999999999,163.35852A3,3,0,1,1,777.7199999999999,163.35852A3,3,0,1,1,771.7199999999999,163.35852Z" id="point-0-40" opacity="1"/><path class="data-point" fill="rgb(128, 35, 146)" data-type="point" transform="translate(0, 0)" d="M789.64,146.66939040000005A3,3,0,1,1,795.64,146.66939040000005A3,3,0,1,1,789.64,146.66939040000005Z" id="point-0-41" opacity="1"/><path class="data-point" fill="rgb(128, 35, 146)" data-type="point" transform="translate(0, 0)" d="M807.56,129.2808192A3,3,0,1,1,813.56,129.2808192A3,3,0,1,1,807.56,129.2808192Z" id="point-0-42" opacity="1"/><path class="data-point" fill="rgb(128, 35, 146)" data-type="point" transform="translate(0, 0)" d="M825.48,111.16360319999995A3,3,0,1,1,831.48,111.16360319999995A3,3,0,1,1,825.48,111.16360319999995Z" id="point-0-43" opacity="1"/><path class="data-point" fill="rgb(128, 35, 146)" data-type="point" transform="translate(0, 0)" d="M843.4,92.28710400000006A3,3,0,1,1,849.4,92.28710400000006A3,3,0,1,1,843.4,92.28710400000006Z" id="point-0-44" opacity="1"/><path class="data-point" fill="rgb(128, 35, 146)" data-type="point" transform="translate(0, 0)" d="M861.32,72.61956000000004A3,3,0,1,1,867.32,72.61956000000004A3,3,0,1,1,861.32,72.61956000000004Z" id="point-0-45" opacity="1"/><path class="data-point" fill="rgb(128, 35, 146)" data-type="point" transform="translate(0, 0)" d="M879.24,52.12783680000007A3,3,0,1,1,885.24,52.12783680000007A3,3,0,1,1,879.24,52.12783680000007Z" id="point-0-46" opacity="1"/></g><g class="series" transform="translate(15,20)"><path class="data-point" fill="rgb(204, 80, 62)" data-type="point" transform="translate(0, 0)" d="M54.92,516.1416A3,3,0,1,1,60.92,516.1416A3,3,0,1,1,54.92,516.1416Z" id="point-1-0" opacity="1"/><path class="data-point" fill="rgb(204, 80, 62)" data-type="point" transform="translate(0, 0)" d="M72.84,513.22128A3,3,0,1,1,78.84,513.22128A3,3,0,1,1,72.84,513.22128Z" id="point-1-1" opacity="1"/><path class="data-point" fill="rgb(204, 80, 62)" data-type="point" transform="translate(0, 0)" d="M90.75999999999999,510.33840000000004A3,3,0,1,1,96.75999999999999,510.33840000000004A3,3,0,1,1,90.75999999999999,510.33840000000004Z" id="point-1-2" opacity="1"/><path class="data-point" fill="rgb(204, 80, 62)" data-type="point" transform="translate(0, 0)" d="M108.68,507.77376000000004A3,3,0,1,1,114.68,507.77376000000004A3,3,0,1,1,108.68,507.77376000000004Z" id="point-1-3" opacity="1"/><path class="data-point" fill="rgb(204, 80, 62)" data-type="point" transform="translate(0, 0)" d="M126.60000000000002,505.08432000000005A3,3,0,1,1,132.60000000000002,505.08432000000005A3,3,0,1,1,126.60000000000002,505.08432000000005Z" id="point-1-4" opacity="1"/><path class="data-point" fill="rgb(204, 80, 62)" data-type="point" transform="translate(0, 0)" d="M144.51999999999998,501.74592A3,3,0,1,1,150.51999999999998,501.74592A3,3,0,1,1,144.51999999999998,501.74592Z" id="point-1-5" opacity="1"/><path class="data-point" fill="rgb(204, 80, 62)" data-type="point" transform="translate(0, 0)" d="M162.44,498.22032A3,3,0,1,1,168.44,498.22032A3,3,0,1,1,162.44,498.22032Z" id="point-1-6" opacity="1"/><path class="data-point" fill="rgb(204, 80, 62)" data-type="point" transform="translate(0, 0)" d="M180.36,494.28288000000003A3,3,0,1,1,186.36,494.28288000000003A3,3,0,1,1,180.36,494.28288000000003Z" id="point-1-7" opacity="1"/><path class="data-point" fill="rgb(204, 80, 62)" data-type="point" transform="translate(0, 0)" d="M198.28,490.73856A3,3,0,1,1,204.28,490.73856A3,3,0,1,1,198.28,490.73856Z" id="point-1-8" opacity="1"/><path class="data-point" fill="rgb(204, 80, 62)" data-type="point" transform="translate(0, 0)" d="M216.20000000000002,486.99456000000004A3,3,0,1,1,222.20000000000002,486.99456000000004A3,3,0,1,1,216.20000000000002,486.99456000000004Z" id="point-1-9" opacity="1"/><path class="data-point" fill="rgb(204, 80, 62)" data-type="point" transform="translate(0, 0)" d="M234.12,482.39568A3,3,0,1,1,240.12,482.39568A3,3,0,1,1,234.12,482.39568Z" id="point-1-10" opacity="1"/><path class="data-point" fill="rgb(204, 80, 62)" data-type="point" transform="translate(0, 0)" d="M252.04,476.67984A3,3,0,1,1,258.03999999999996,476.67984A3,3,0,1,1,252.04,476.67984Z" id="point-1-11" opacity="1"/><path class="data-point" fill="rgb(204, 80, 62)" data-type="point" transform="translate(0, 0)" d="M269.96000000000004,469.97808000000003A3,3,0,1,1,275.96000000000004,469.97808000000003A3,3,0,1,1,269.96000000000004,469.97808000000003Z" id="point-1-12" opacity="1"/><path class="data-point" fill="rgb(204, 80, 62)" data-type="point" transform="translate(0, 0)" d="M287.88,463.32624A3,3,0,1,1,293.88,463.32624A3,3,0,1,1,287.88,463.32624Z" id="point-1-13" opacity="1"/><path class="data-point" fill="rgb(204, 80, 62)" data-type="point" transform="translate(0, 0)" d="M305.8,456.87408000000005A3,3,0,1,1,311.8,456.87408000000005A3,3,0,1,1,305.8,456.87408000000005Z" id="point-1-14" opacity="1"/><path class="data-point" fill="rgb(204, 80, 62)" data-type="point" transform="translate(0, 0)" d="M323.72,449.84784A3,3,0,1,1,329.72,449.84784A3,3,0,1,1,323.72,449.84784Z" id="point-1-15" opacity="1"/><path class="data-point" fill="rgb(204, 80, 62)" data-type="point" transform="translate(0, 0)" d="M341.64000000000004,442.59696A3,3,0,1,1,347.64000000000004,442.59696A3,3,0,1,1,341.64000000000004,442.59696Z" id="point-1-16" opacity="1"/><path class="data-point" fill="rgb(204, 80, 62)" data-type="point" transform="translate(0, 0)" d="M359.56,435.40224A3,3,0,1,1,365.56,435.40224A3,3,0,1,1,359.56,435.40224Z" id="point-1-17" opacity="1"/><path class="data-point" fill="rgb(204, 80, 62)" data-type="point" transform="translate(0, 0)" d="M377.48,429.44928000000004A3,3,0,1,1,383.48,429.44928000000004A3,3,0,1,1,377.48,429.44928000000004Z" id="point-1-18" opacity="1"/><path class="data-point" fill="rgb(204, 80, 62)" data-type="point" transform="translate(0, 0)" d="M395.40000000000003,422.77872A3,3,0,1,1,401.40000000000003,422.77872A3,3,0,1,1,395.40000000000003,422.77872Z" id="point-1-19" opacity="1"/><path class="data-point" fill="rgb(204, 80, 62)" data-type="point" transform="translate(0, 0)" d="M413.32,416.40144A3,3,0,1,1,419.32,416.40144A3,3,0,1,1,413.32,416.40144Z" id="point-1-20" opacity="1"/><path class="data-point" fill="rgb(204, 80, 62)" data-type="point" transform="translate(0, 0)" d="M431.24,410.49216A3,3,0,1,1,437.24,410.49216A3,3,0,1,1,431.24,410.49216Z" id="point-1-21" opacity="1"/><path class="data-point" fill="rgb(204, 80, 62)" data-type="point" transform="translate(0, 0)" d="M449.16,405.76848A3,3,0,1,1,455.16,405.76848A3,3,0,1,1,449.16,405.76848Z" id="point-1-22" opacity="1"/><path class="data-point" fill="rgb(204, 80, 62)" data-type="point" transform="translate(0, 0)" d="M467.08,401.4504A3,3,0,1,1,473.08,401.4504A3,3,0,1,1,467.08,401.4504Z" id="point-1-23" opacity="1"/><path class="data-point" fill="rgb(204, 80, 62)" data-type="point" transform="translate(0, 0)" d="M485,396.90144A3,3,0,1,1,491,396.90144A3,3,0,1,1,485,396.90144Z" id="point-1-24" opacity="1"/><path class="data-point" fill="rgb(204, 80, 62)" data-type="point" transform="translate(0, 0)" d="M502.92,392.5584A3,3,0,1,1,508.92,392.5584A3,3,0,1,1,502.92,392.5584Z" id="point-1-25" opacity="1"/><path class="data-point" fill="rgb(204, 80, 62)" data-type="point" transform="translate(0, 0)" d="M520.84,387.13584000000003A3,3,0,1,1,526.84,387.13584000000003A3,3,0,1,1,520.84,387.13584000000003Z" id="point-1-26" opacity="1"/><path class="data-point" fill="rgb(204, 80, 62)" data-type="point" transform="translate(0, 0)" d="M538.76,383.39808000000005A3,3,0,1,1,544.76,383.39808000000005A3,3,0,1,1,538.76,383.39808000000005Z" id="point-1-27" opacity="1"/><path class="data-point" fill="rgb(204, 80, 62)" data-type="point" transform="translate(0, 0)" d="M556.68,379.4856A3,3,0,1,1,562.68,379.4856A3,3,0,1,1,556.68,379.4856Z" id="point-1-28" opacity="1"/><path class="data-point" fill="rgb(204, 80, 62)" data-type="point" transform="translate(0, 0)" d="M574.6,371.49216A3,3,0,1,1,580.6,371.49216A3,3,0,1,1,574.6,371.49216Z" id="point-1-29" opacity="1"/><path class="data-point" fill="rgb(204, 80, 62)" data-type="point" transform="translate(0, 0)" d="M592.52,363.14304000000004A3,3,0,1,1,598.52,363.14304000000004A3,3,0,1,1,592.52,363.14304000000004Z" id="point-1-30" opacity="1"/><path class="data-point" fill="rgb(204, 80, 62)" data-type="point" transform="translate(0, 0)" d="M610.44,354.41952000000003A3,3,0,1,1,616.44,354.41952000000003A3,3,0,1,1,610.44,354.41952000000003Z" id="point-1-31" opacity="1"/><path class="data-point" fill="rgb(204, 80, 62)" data-type="point" transform="translate(0, 0)" d="M628.36,345.31536000000006A3,3,0,1,1,634.36,345.31536000000006A3,3,0,1,1,628.36,345.31536000000006Z" id="point-1-32" opacity="1"/><path class="data-point" fill="rgb(204, 80, 62)" data-type="point" transform="translate(0, 0)" d="M646.2800000000001,335.79936A3,3,0,1,1,652.2800000000001,335.79936A3,3,0,1,1,646.2800000000001,335.79936Z" id="point-1-33" opacity="1"/><path class="data-point" fill="rgb(204, 80, 62)" data-type="point" transform="translate(0, 0)" d="M664.1999999999999,325.8528A3,3,0,1,1,670.1999999999999,325.8528A3,3,0,1,1,664.1999999999999,325.8528Z" id="point-1-34" opacity="1"/><path class="data-point" fill="rgb(204, 80, 62)" data-type="point" transform="translate(0, 0)" d="M682.12,315.46943999999996A3,3,0,1,1,688.12,315.46943999999996A3,3,0,1,1,682.12,315.46943999999996Z" id="point-1-35" opacity="1"/><path class="data-point" fill="rgb(204, 80, 62)" data-type="point" transform="translate(0, 0)" d="M700.04,304.61808A3,3,0,1,1,706.04,304.61808A3,3,0,1,1,700.04,304.61808Z" id="point-1-36" opacity="1"/><path class="data-point" fill="rgb(204, 80, 62)" data-type="point" transform="translate(0, 0)" d="M717.96,293.28624A3,3,0,1,1,723.96,293.28624A3,3,0,1,1,717.96,293.28624Z" id="point-1-37" opacity="1"/><path class="data-point" fill="rgb(204, 80, 62)" data-type="point" transform="translate(0, 0)" d="M735.88,281.44272A3,3,0,1,1,741.88,281.44272A3,3,0,1,1,735.88,281.44272Z" id="point-1-38" opacity="1"/><path class="data-point" fill="rgb(204, 80, 62)" data-type="point" transform="translate(0, 0)" d="M753.8000000000001,269.0688A3,3,0,1,1,759.8000000000001,269.0688A3,3,0,1,1,753.8000000000001,269.0688Z" id="point-1-39" opacity="1"/><path class="data-point" fill="rgb(204, 80, 62)" data-type="point" transform="translate(0, 0)" d="M771.7199999999999,256.13952A3,3,0,1,1,777.7199999999999,256.13952A3,3,0,1,1,771.7199999999999,256.13952Z" id="point-1-40" opacity="1"/><path class="data-point" fill="rgb(204, 80, 62)" data-type="point" transform="translate(0, 0)" d="M789.64,242.63616000000002A3,3,0,1,1,795.64,242.63616000000002A3,3,0,1,1,789.64,242.63616000000002Z" id="point-1-41" opacity="1"/><path class="data-point" fill="rgb(204, 80, 62)" data-type="point" transform="translate(0, 0)" d="M807.56,228.52128A3,3,0,1,1,813.56,228.52128A3,3,0,1,1,807.56,228.52128Z" id="point-1-42" opacity="1"/><path class="data-point" fill="rgb(204, 80, 62)" data-type="point" transform="translate(0, 0)" d="M825.48,213.76992A3,3,0,1,1,831.48,213.76992A3,3,0,1,1,825.48,213.76992Z" id="point-1-43" opacity="1"/><path class="data-point" fill="rgb(204, 80, 62)" data-type="point" transform="translate(0, 0)" d="M843.4,198.36336A3,3,0,1,1,849.4,198.36336A3,3,0,1,1,843.4,198.36336Z" id="point-1-44" opacity="1"/><path class="data-point" fill="rgb(204, 80, 62)" data-type="point" transform="translate(0, 0)" d="M861.32,182.25792A3,3,0,1,1,867.32,182.25792A3,3,0,1,1,861.32,182.25792Z" id="point-1-45" opacity="1"/><path class="data-point" fill="rgb(204, 80, 62)" data-type="point" transform="translate(0, 0)" d="M879.24,165.42863999999997A3,3,0,1,1,885.24,165.42863999999997A3,3,0,1,1,879.24,165.42863999999997Z" id="point-1-46" opacity="1"/></g></g><g id="data-labels"/><g class="annotations above"><g class="axis-highlights" transform="translate(15, 20)" style="opacity: 1;"/></g></svg>