<svg xmlns="http://www.w3.org/2000/svg" id="graphic" width="961" height="634.6"><g id="facets"><g class="facet" transform="translate(15,20)" opacity="1"><text class="facet-title" y="0" font-size="16" font-weight="bold" dominant-baseline="middle" x="0" clip-path="url(#facet-clip-0)" fill="black"/><g class="plot"><clipPath class="facet-clip" id="facet-clip-0"><rect width="951" height="581.6" transform="translate(-7.5,-10)"/></clipPath><g class="bg"><rect fill="none" width="936" height="561.6" style="fill: none;"/></g><g class="interaction"><g class="series"><path data-target="point-0-0" d="M74.51822733142862,561.6L67.02197448571428,507.23712L0,507.23712L0,561.6Z" style="opacity: 0;"/><path data-target="point-0-1" d="M66.61863787857143,503.72712L67.02197448571428,507.23712L74.51822733142862,561.6L97.08539838500002,561.6L84.93364375142858,503.72712Z" style="opacity: 0;"/><path data-target="point-0-2" d="M84.71422863714285,500.63831999999996L84.93364375142858,503.72712L97.08539838500002,561.6L110.88972231214278,561.6L102.80195799857142,500.63831999999996Z" style="opacity: 0;"/><path data-target="point-0-3" d="M102.5960949942857,497.65248L102.80195799857142,500.63831999999996L110.88972231214278,561.6L131.93178232000008,561.6L120.70899256,497.65248Z" style="opacity: 0;"/><path data-target="point-0-4" d="M120.55663399,494.17992L120.70899256,497.65248L131.93178232000008,561.6L154.91405274285705,561.6L138.71517459285712,494.17992Z" style="opacity: 0;"/><path data-target="point-0-5" d="M138.36569442285713,489.33144L138.71517459285712,494.17992L154.91405274285705,561.6L191.88009622500005,561.6L157.52994629999998,489.33144Z" style="opacity: 0;"/><path data-target="point-0-6" d="M155.68619444571428,481.8528L157.52994629999998,489.33144L191.88009622500005,561.6L209.85698379785714,561.6L175.61766588357142,481.8528Z" style="opacity: 0;"/><path data-target="point-0-7" d="M173.32158058,474.5988L175.61766588357142,481.8528L209.85698379785714,561.6L226.38322848500007,561.6L193.39190736714286,474.5988Z" style="opacity: 0;"/><path data-target="point-0-8" d="M191.3425858442857,468.10295999999994L193.39190736714286,474.5988L226.38322848500007,561.6L248.76398469214286,561.6L211.55132797714285,468.10295999999994Z" style="opacity: 0;"/><path data-target="point-0-9" d="M112.54148388055177,272.94110828413324L158.07455760453345,371.8905200265384L208.34700685714287,459.38879999999995L229.62862436499998,459.38879999999995L226.338199435,448.92432Z" style="opacity: 0;"/><path data-target="point-0-10" d="M14.38238238351596,68.84231526627076L27.686794339936426,106.7968272153052L54.08471705882377,161.0238794972351L112.54148388055177,272.94110828413324L226.338199435,448.92432L248.366063,448.92431999999997L244.03691675,437.08392Z" style="opacity: 0;"/><path data-target="point-0-11" d="M0.6005271968650163,32.36764837027624L14.38238238351596,68.84231526627076L244.03691675,437.08392L266.71795095,437.08392L261.40057623428567,424.90655999999996Z" style="opacity: 0;"/><path data-target="point-0-12" d="M0,30.880815533248786L0.6005271968650163,32.36764837027624L261.40057623428567,424.90655999999996L285.05916147999994,424.90655999999996L278.8540551142857,412.21439999999996L0,13.800646041586049Z" style="opacity: 0;"/><path data-target="point-0-13" d="M0,13.800646041586049L278.8540551142857,412.21439999999996L302.4455544821428,412.21439999999996L296.8853760178572,399.69072L0.0186624050007822,0L0,0Z" style="opacity: 0;"/><path data-target="point-0-14" d="M0.0186624050007822,0L296.8853760178572,399.69072L320.8606758342857,399.69072L314.7449781942857,386.32464L30.630800091428114,-5.684341886080802e-14Z" style="opacity: 0;"/><path data-target="point-0-15" d="M30.630800091428114,-5.684341886080802e-14L314.7449781942857,386.32464L337.9515037707143,386.32464L333.997005895,376.00991999999997L296.2238084954678,298.9119281142348L98.09724285749977,0Z" style="opacity: 0;"/><path data-target="point-0-16" d="M296.2238084954678,298.9119281142348L333.997005895,376.00991999999997L358.64340893642856,376.00991999999997L348.3668908571429,361.30535999999995Z" style="opacity: 0;"/><path data-target="point-0-17" d="M98.09724285749977,0L296.2238084954678,298.9119281142348L348.3668908571429,361.30535999999995L372.50132529857143,361.30536L369.87773067,351.57096L130.78750468499987,0Z" style="opacity: 0;"/><path data-target="point-0-18" d="M130.78750468499987,0L369.87773067,351.57096L389.6711289871428,351.57095999999996L389.20265229571424,343.10952L357.7028086043997,277.27175466153034L163.34768679000035,0Z" style="opacity: 0;"/><path data-target="point-0-19" d="M357.7028086043997,277.27175466153034L389.20265229571424,343.10952L408.56682223999996,343.10952L405.60534398,329.1444Z" style="opacity: 0;"/><path data-target="point-0-20" d="M163.34768679000035,0L357.7028086043997,277.27175466153034L405.60534398,329.1444L424.18577956285714,329.1444L426.32546804142856,321.75L296.58552607714205,0Z" style="opacity: 0;"/><path data-target="point-0-21" d="M296.58552607714205,0L426.32546804142856,321.75L442.4370338071428,321.75L444.41176983571427,318.04344000000003L363.6770105264292,0Z" style="opacity: 0;"/><path data-target="point-0-22" d="M363.6770105264292,0L444.41176983571427,318.04344000000003L459.86667427142856,318.04344000000003L461.12,315.60984L461.12,252.92623911836665L420.03416489821404,0Z" style="opacity: 0;"/><path data-target="point-0-23" d="M461.12,252.92623911836665L461.12,315.60984L478.47820344,315.60984L479.614732665,309.85344Z" style="opacity: 0;"/><path data-target="point-0-24" d="M420.03416489821404,0L461.12,252.92623911836665L479.614732665,309.85344L496.35138706,309.85344L497.3535391942857,305.75376L449.4648866202274,39.229754419869096L438.9649166539549,11.271552003162242L434.25981214219405,0Z" style="opacity: 0;"/><path data-target="point-0-25" d="M449.4648866202274,39.229754419869096L497.3535391942857,305.75376L514.58486516,305.75376L515.0812283,300.90528L466.89678423892053,81.26109054778439Z" style="opacity: 0;"/><path data-target="point-0-26" d="M466.89678423892053,81.26109054778439L515.0812283,300.90528L532.8375469714285,300.90528L532.76550372,295.15824L467.41697423785416,82.38321523111011Z" style="opacity: 0;"/><path data-target="point-0-27" d="M467.41697423785416,82.38321523111011L532.76550372,295.15824L550.6373230784587,295.15824L550.8115286149796,290.26932450000004L530.8686796777433,220.70481278763657L474.7191095047209,96.54215191416887Z" style="opacity: 0;"/><path data-target="point-0-28" d="M530.8686796777433,220.70481278763657L550.8115286149796,290.26932450000004L570.2748184237531,290.26932450000004L567.0049881002489,279.1995335Z" style="opacity: 0;"/><path data-target="point-0-29" d="M474.7191095047209,96.54215191416887L530.8686796777433,220.70481278763657L567.0049881002489,279.1995335L588.408661332359,279.1995335L584.7126298431683,267.6778415Z" style="opacity: 0;"/><path data-target="point-0-30" d="M438.9649166539549,11.271552003162242L449.4648866202274,39.229754419869096L466.89678423892053,81.26109054778439L467.41697423785416,82.38321523111011L474.7191095047209,96.54215191416887L584.7126298431683,267.6778415L606.5666513479863,267.6778415L602.3965383996376,255.686184Z" style="opacity: 0;"/><path data-target="point-0-31" d="M434.25981214219405,0L438.9649166539549,11.271552003162242L602.3965383996376,255.686184L624.7516774777445,255.686184L620.0538888435092,243.2051855L450.8660029321286,0Z" style="opacity: 0;"/><path data-target="point-0-32" d="M450.8660029321286,0L620.0538888435092,243.2051855L642.9664989275491,243.2051855L637.6819923090227,230.21490949999998L471.0664823807841,0Z" style="opacity: 0;"/><path data-target="point-0-33" d="M471.0664823807841,0L637.6819923090227,230.21490949999998L661.214100608137,230.21490949999998L655.2778173285986,216.69457649999998L492.11370594525795,2.842170943040401e-14Z" style="opacity: 0;"/><path data-target="point-0-34" d="M492.11370594525795,2.842170943040401e-14L655.2778173285986,216.69457649999998L679.4980753792082,216.69457649999998L672.8381380910355,202.6225655L514.1123832520115,0Z" style="opacity: 0;"/><path data-target="point-0-35" d="M514.1123832520115,0L672.8381380910355,202.6225655L697.8220286299152,202.6225655L690.3591473159116,187.976412L537.1605219357139,0Z" style="opacity: 0;"/><path data-target="point-0-36" d="M537.1605219357139,0L690.3591473159116,187.976412L716.1904583841396,187.976412L707.836829214728,172.732529L561.3796168213931,0Z" style="opacity: 0;"/><path data-target="point-0-37" d="M561.3796168213931,0L707.836829214728,172.732529L734.6074579574054,172.732529L725.2667622338273,156.8666735L586.8903101866094,0Z" style="opacity: 0;"/><path data-target="point-0-38" d="M586.8903101866094,0L725.2667622338273,156.8666735L753.0785013063222,156.8666735L742.6442000460836,140.3533875L613.8378000861245,0Z" style="opacity: 0;"/><path data-target="point-0-39" d="M613.8378000861245,0L742.6442000460836,140.3533875L771.6089240871953,140.3533875L759.9635242480978,123.16627449999999L642.3664960220765,0Z" style="opacity: 0;"/><path data-target="point-0-40" d="M642.3664960220765,0L759.9635242480978,123.16627449999999L790.204682380096,123.16627449999999L777.2191196586567,105.27791049999999L672.6434163466222,0Z" style="opacity: 0;"/><path data-target="point-0-41" d="M672.6434163466222,0L777.2191196586567,105.27791049999999L808.8727045245113,105.27791049999999L794.4044684384288,86.65965349999999L704.8483514258998,0Z" style="opacity: 0;"/><path data-target="point-0-42" d="M704.8483514258998,0L794.4044684384288,86.65965349999999L827.6204933079773,86.65965349999999L811.5120962083602,67.28145849999999L739.1739742929674,0Z" style="opacity: 0;"/><path data-target="point-0-43" d="M739.1739742929674,0L811.5120962083602,67.28145849999999L846.4555026859176,67.28145849999999L828.534942657798,47.1127175L775.8369494007834,0Z" style="opacity: 0;"/><path data-target="point-0-44" d="M775.8369494007834,0L828.534942657798,47.1127175L865.3871571596203,47.1127175L845.4638760378168,26.120952L815.0666312092922,0Z" style="opacity: 0;"/><path data-target="point-0-45" d="M815.0666312092922,0L845.4638760378168,26.120952L884.4251294882143,26.120952L862.2896316620687,4.2724655L857.1169605422447,0Z" style="opacity: 0;"/><path data-target="point-0-46" d="M857.1169605422447,0L862.2896316620687,4.2724655L936,4.2724655L936,0Z" style="opacity: 0;"/><path data-target="point-1-0" d="M0,507.23712L67.02197448571428,507.23712L66.61863787857143,503.72712L0,241.29219184411164Z" style="opacity: 0;"/><path data-target="point-1-1" d="M0,241.29219184411164L66.61863787857143,503.72712L84.93364375142858,503.72712L84.71422863714285,500.63831999999996L46.872712269928634,219.82934675890004L28.45299295924464,109.96921081638038L27.686794339936426,106.7968272153052L14.38238238351596,68.84231526627076L0.6005271968650163,32.36764837027624L0,30.880815533248786Z" style="opacity: 0;"/><path data-target="point-1-2" d="M46.872712269928634,219.82934675890004L84.71422863714285,500.63831999999996L102.80195799857142,500.63831999999996L102.5960949942857,497.65248Z" style="opacity: 0;"/><path data-target="point-1-3" d="M28.45299295924464,109.96921081638038L46.872712269928634,219.82934675890004L102.5960949942857,497.65248L120.70899256,497.65248L120.55663399,494.17992L74.54068886776518,277.187546891908L55.604576052356094,203.3509797839368Z" style="opacity: 0;"/><path data-target="point-1-4" d="M74.54068886776518,277.187546891908L120.55663399,494.17992L138.71517459285712,494.17992L138.36569442285713,489.33144Z" style="opacity: 0;"/><path data-target="point-1-5" d="M55.604576052356094,203.3509797839368L74.54068886776518,277.187546891908L138.36569442285713,489.33144L157.52994629999998,489.33144L155.68619444571428,481.8528Z" style="opacity: 0;"/><path data-target="point-1-6" d="M27.686794339936426,106.7968272153052L28.45299295924464,109.96921081638038L55.604576052356094,203.3509797839368L155.68619444571428,481.8528L175.61766588357142,481.8528L173.32158058,474.5988L54.08471705882377,161.0238794972351Z" style="opacity: 0;"/><path data-target="point-1-7" d="M54.08471705882377,161.0238794972351L173.32158058,474.5988L193.39190736714286,474.5988L191.3425858442857,468.10295999999994L158.07455760453345,371.8905200265384L112.54148388055177,272.94110828413324Z" style="opacity: 0;"/><path data-target="point-1-8" d="M158.07455760453345,371.8905200265384L191.3425858442857,468.10295999999994L211.55132797714285,468.10295999999994L208.34700685714287,459.38879999999995Z" style="opacity: 0;"/><path data-target="point-1-9" d="M208.34700685714287,459.38879999999995L211.55132797714285,468.10295999999994L248.76398469214286,561.6L282.90895016499996,561.6L229.62862436499998,459.38879999999995Z" style="opacity: 0;"/><path data-target="point-1-10" d="M226.338199435,448.92432L229.62862436499998,459.38879999999995L282.90895016499996,561.6L326.9935669828574,561.6L248.366063,448.92431999999997Z" style="opacity: 0;"/><path data-target="point-1-11" d="M244.03691675,437.08392L248.366063,448.92431999999997L326.9935669828574,561.6L353.21771527500016,561.6L266.71795095,437.08392Z" style="opacity: 0;"/><path data-target="point-1-12" d="M261.40057623428567,424.90655999999996L266.71795095,437.08392L353.21771527500016,561.6L383.0170979199996,561.6L285.05916147999994,424.90655999999996Z" style="opacity: 0;"/><path data-target="point-1-13" d="M278.8540551142857,412.21439999999996L285.05916147999994,424.90655999999996L383.0170979199996,561.6L400.29178868214274,561.6L302.4455544821428,412.21439999999996Z" style="opacity: 0;"/><path data-target="point-1-14" d="M296.8853760178572,399.69072L302.4455544821428,412.21439999999996L400.29178868214274,561.6L443.3161337828577,561.6L320.8606758342857,399.69072Z" style="opacity: 0;"/><path data-target="point-1-15" d="M314.7449781942857,386.32464L320.8606758342857,399.69072L443.3161337828577,561.6L453.8539005292857,561.6L337.9515037707143,386.32464Z" style="opacity: 0;"/><path data-target="point-1-16" d="M333.997005895,376.00991999999997L337.9515037707143,386.32464L453.8539005292857,561.6L481.0077880857143,561.6L398.67354858182523,425.710892654943L358.64340893642856,376.00991999999997Z" style="opacity: 0;"/><path data-target="point-1-17" d="M348.3668908571429,361.30535999999995L358.64340893642856,376.00991999999997L398.67354858182523,425.710892654943L372.50132529857143,361.30536Z" style="opacity: 0;"/><path data-target="point-1-18" d="M369.87773067,351.57096L372.50132529857143,361.30536L398.67354858182523,425.710892654943L481.0077880857143,561.6L487.525909034286,561.6L389.6711289871428,351.57095999999996Z" style="opacity: 0;"/><path data-target="point-1-19" d="M389.20265229571424,343.10952L389.6711289871428,351.57095999999996L487.525909034286,561.6L516.8007265607141,561.6L462.8133830602211,428.5179603377302L408.56682223999996,343.10952Z" style="opacity: 0;"/><path data-target="point-1-20" d="M405.60534398,329.1444L408.56682223999996,343.10952L462.8133830602211,428.5179603377302L455.4645602409672,403.25846101270037L424.18577956285714,329.1444Z" style="opacity: 0;"/><path data-target="point-1-21" d="M424.18577956285714,329.1444L455.4645602409672,403.25846101270037L442.4370338071428,321.75L426.32546804142856,321.75Z" style="opacity: 0;"/><path data-target="point-1-22" d="M442.4370338071428,321.75L455.4645602409672,403.25846101270037L462.8133830602211,428.5179603377302L516.8007265607141,561.6L526.0183756571431,561.6L459.86667427142856,318.04344000000003L444.41176983571427,318.04344000000003Z" style="opacity: 0;"/><path data-target="point-1-23" d="M459.86667427142856,318.04344000000003L526.0183756571431,561.6L556.5976499657141,561.6L478.47820344,315.60984L461.12,315.60984Z" style="opacity: 0;"/><path data-target="point-1-24" d="M478.47820344,315.60984L556.5976499657141,561.6L566.3054624199999,561.6L496.35138706,309.85344L479.614732665,309.85344Z" style="opacity: 0;"/><path data-target="point-1-25" d="M496.35138706,309.85344L566.3054624199999,561.6L596.9033928799997,561.6L514.58486516,305.75376L497.3535391942857,305.75376Z" style="opacity: 0;"/><path data-target="point-1-26" d="M514.58486516,305.75376L596.9033928799997,561.6L619.8091120453055,561.6L618.4312787490038,556.9549049756507L532.8375469714285,300.90528L515.0812283,300.90528Z" style="opacity: 0;"/><path data-target="point-1-27" d="M532.76550372,295.15824L532.8375469714285,300.90528L618.4312787490038,556.9549049756507L550.6373230784587,295.15824Z" style="opacity: 0;"/><path data-target="point-1-28" d="M550.6373230784587,295.15824L618.4312787490038,556.9549049756507L619.8091120453055,561.6L737.8750499015076,561.6L570.2748184237531,290.26932450000004L550.8115286149796,290.26932450000004Z" style="opacity: 0;"/><path data-target="point-1-29" d="M567.0049881002489,279.1995335L570.2748184237531,290.26932450000004L737.8750499015076,561.6L770.0419123115432,561.6L588.408661332359,279.1995335Z" style="opacity: 0;"/><path data-target="point-1-30" d="M584.7126298431683,267.6778415L588.408661332359,279.1995335L770.0419123115432,561.6L803.4031389256406,561.6L606.5666513479863,267.6778415Z" style="opacity: 0;"/><path data-target="point-1-31" d="M602.3965383996376,255.686184L606.5666513479863,267.6778415L803.4031389256406,561.6L838.0683005298191,561.6L624.7516774777445,255.686184Z" style="opacity: 0;"/><path data-target="point-1-32" d="M620.0538888435092,243.2051855L624.7516774777445,255.686184L838.0683005298191,561.6L874.1429705953434,561.6L642.9664989275491,243.2051855Z" style="opacity: 0;"/><path data-target="point-1-33" d="M637.6819923090227,230.21490949999998L642.9664989275491,243.2051855L874.1429705953434,561.6L911.7404338498599,561.6L661.214100608137,230.21490949999998Z" style="opacity: 0;"/><path data-target="point-1-34" d="M655.2778173285986,216.69457649999998L661.214100608137,230.21490949999998L911.7404338498599,561.6L936,561.6L936,542.543636177269L679.4980753792082,216.69457649999998Z" style="opacity: 0;"/><path data-target="point-1-35" d="M672.8381380910355,202.6225655L679.4980753792082,216.69457649999998L936,542.543636177269L936,493.21576660252094L697.8220286299152,202.6225655Z" style="opacity: 0;"/><path data-target="point-1-36" d="M690.3591473159116,187.976412L697.8220286299152,202.6225655L936,493.21576660252094L936,445.5329648289668L716.1904583841396,187.976412Z" style="opacity: 0;"/><path data-target="point-1-37" d="M707.836829214728,172.732529L716.1904583841396,187.976412L936,445.5329648289668L936,399.3689683051781L734.6074579574054,172.732529Z" style="opacity: 0;"/><path data-target="point-1-38" d="M725.2667622338273,156.8666735L734.6074579574054,172.732529L936,399.3689683051781L936,354.5616222611594L753.0785013063222,156.8666735Z" style="opacity: 0;"/><path data-target="point-1-39" d="M742.6442000460836,140.3533875L753.0785013063222,156.8666735L936,354.5616222611594L936,310.9858800545252L771.6089240871953,140.3533875Z" style="opacity: 0;"/><path data-target="point-1-40" d="M759.9635242480978,123.16627449999999L771.6089240871953,140.3533875L936,310.9858800545252L936,268.5053393802373L790.204682380096,123.16627449999999Z" style="opacity: 0;"/><path data-target="point-1-41" d="M777.2191196586567,105.27791049999999L790.204682380096,123.16627449999999L936,268.5053393802373L936,226.98824051410304L808.8727045245113,105.27791049999999Z" style="opacity: 0;"/><path data-target="point-1-42" d="M794.4044684384288,86.65965349999999L808.8727045245113,105.27791049999999L936,226.98824051410304L936,186.31089583422659L827.6204933079773,86.65965349999999Z" style="opacity: 0;"/><path data-target="point-1-43" d="M811.5120962083602,67.28145849999999L827.6204933079773,86.65965349999999L936,186.31089583422659L936,146.3547384877097L846.4555026859176,67.28145849999999Z" style="opacity: 0;"/><path data-target="point-1-44" d="M828.534942657798,47.1127175L846.4555026859176,67.28145849999999L936,146.3547384877097L936,106.99878299337422L865.3871571596203,47.1127175Z" style="opacity: 0;"/><path data-target="point-1-45" d="M845.4638760378168,26.120952L865.3871571596203,47.1127175L936,106.99878299337422L936,68.1286587275979L884.4251294882143,26.120952Z" style="opacity: 0;"/><path data-target="point-1-46" d="M862.2896316620687,4.2724655L884.4251294882143,26.120952L936,68.1286587275979L936,4.2724655Z" style="opacity: 0;"/></g><g class="series"><path data-target="point-0-0" d="M74.51822733142862,561.6L67.02197448571428,507.23712L0,507.23712L0,561.6Z" style="opacity: 0;"/><path data-target="point-0-1" d="M66.61863787857143,503.72712L67.02197448571428,507.23712L74.51822733142862,561.6L97.08539838500002,561.6L84.93364375142858,503.72712Z" style="opacity: 0;"/><path data-target="point-0-2" d="M84.71422863714285,500.63831999999996L84.93364375142858,503.72712L97.08539838500002,561.6L110.88972231214278,561.6L102.80195799857142,500.63831999999996Z" style="opacity: 0;"/><path data-target="point-0-3" d="M102.5960949942857,497.65248L102.80195799857142,500.63831999999996L110.88972231214278,561.6L131.93178232000008,561.6L120.70899256,497.65248Z" style="opacity: 0;"/><path data-target="point-0-4" d="M120.55663399,494.17992L120.70899256,497.65248L131.93178232000008,561.6L154.91405274285705,561.6L138.71517459285712,494.17992Z" style="opacity: 0;"/><path data-target="point-0-5" d="M138.36569442285713,489.33144L138.71517459285712,494.17992L154.91405274285705,561.6L191.88009622500005,561.6L157.52994629999998,489.33144Z" style="opacity: 0;"/><path data-target="point-0-6" d="M155.68619444571428,481.8528L157.52994629999998,489.33144L191.88009622500005,561.6L209.85698379785714,561.6L175.61766588357142,481.8528Z" style="opacity: 0;"/><path data-target="point-0-7" d="M173.32158058,474.5988L175.61766588357142,481.8528L209.85698379785714,561.6L226.38322848500007,561.6L193.39190736714286,474.5988Z" style="opacity: 0;"/><path data-target="point-0-8" d="M191.3425858442857,468.10295999999994L193.39190736714286,474.5988L226.38322848500007,561.6L248.76398469214286,561.6L211.55132797714285,468.10295999999994Z" style="opacity: 0;"/><path data-target="point-0-9" d="M112.54148388055177,272.94110828413324L158.07455760453345,371.8905200265384L208.34700685714287,459.38879999999995L229.62862436499998,459.38879999999995L226.338199435,448.92432Z" style="opacity: 0;"/><path data-target="point-0-10" d="M14.38238238351596,68.84231526627076L27.686794339936426,106.7968272153052L54.08471705882377,161.0238794972351L112.54148388055177,272.94110828413324L226.338199435,448.92432L248.366063,448.92431999999997L244.03691675,437.08392Z" style="opacity: 0;"/><path data-target="point-0-11" d="M0.6005271968650163,32.36764837027624L14.38238238351596,68.84231526627076L244.03691675,437.08392L266.71795095,437.08392L261.40057623428567,424.90655999999996Z" style="opacity: 0;"/><path data-target="point-0-12" d="M0,30.880815533248786L0.6005271968650163,32.36764837027624L261.40057623428567,424.90655999999996L285.05916147999994,424.90655999999996L278.8540551142857,412.21439999999996L0,13.800646041586049Z" style="opacity: 0;"/><path data-target="point-0-13" d="M0,13.800646041586049L278.8540551142857,412.21439999999996L302.4455544821428,412.21439999999996L296.8853760178572,399.69072L0.0186624050007822,0L0,0Z" style="opacity: 0;"/><path data-target="point-0-14" d="M0.0186624050007822,0L296.8853760178572,399.69072L320.8606758342857,399.69072L314.7449781942857,386.32464L30.630800091428114,-5.684341886080802e-14Z" style="opacity: 0;"/><path data-target="point-0-15" d="M30.630800091428114,-5.684341886080802e-14L314.7449781942857,386.32464L337.9515037707143,386.32464L333.997005895,376.00991999999997L296.2238084954678,298.9119281142348L98.09724285749977,0Z" style="opacity: 0;"/><path data-target="point-0-16" d="M296.2238084954678,298.9119281142348L333.997005895,376.00991999999997L358.64340893642856,376.00991999999997L348.3668908571429,361.30535999999995Z" style="opacity: 0;"/><path data-target="point-0-17" d="M98.09724285749977,0L296.2238084954678,298.9119281142348L348.3668908571429,361.30535999999995L372.50132529857143,361.30536L369.87773067,351.57096L130.78750468499987,0Z" style="opacity: 0;"/><path data-target="point-0-18" d="M130.78750468499987,0L369.87773067,351.57096L389.6711289871428,351.57095999999996L389.20265229571424,343.10952L357.7028086043997,277.27175466153034L163.34768679000035,0Z" style="opacity: 0;"/><path data-target="point-0-19" d="M357.7028086043997,277.27175466153034L389.20265229571424,343.10952L408.56682223999996,343.10952L405.60534398,329.1444Z" style="opacity: 0;"/><path data-target="point-0-20" d="M163.34768679000035,0L357.7028086043997,277.27175466153034L405.60534398,329.1444L424.18577956285714,329.1444L426.32546804142856,321.75L296.58552607714205,0Z" style="opacity: 0;"/><path data-target="point-0-21" d="M296.58552607714205,0L426.32546804142856,321.75L442.4370338071428,321.75L444.41176983571427,318.04344000000003L363.6770105264292,0Z" style="opacity: 0;"/><path data-target="point-0-22" d="M363.6770105264292,0L444.41176983571427,318.04344000000003L459.86667427142856,318.04344000000003L461.12,315.60984L461.12,252.92623911836665L420.03416489821404,0Z" style="opacity: 0;"/><path data-target="point-0-23" d="M461.12,252.92623911836665L461.12,315.60984L478.47820344,315.60984L479.614732665,309.85344Z" style="opacity: 0;"/><path data-target="point-0-24" d="M420.03416489821404,0L461.12,252.92623911836665L479.614732665,309.85344L496.35138706,309.85344L497.3535391942857,305.75376L449.4648866202274,39.229754419869096L438.9649166539549,11.271552003162242L434.25981214219405,0Z" style="opacity: 0;"/><path data-target="point-0-25" d="M449.4648866202274,39.229754419869096L497.3535391942857,305.75376L514.58486516,305.75376L515.0812283,300.90528L466.89678423892053,81.26109054778439Z" style="opacity: 0;"/><path data-target="point-0-26" d="M466.89678423892053,81.26109054778439L515.0812283,300.90528L532.8375469714285,300.90528L532.76550372,295.15824L467.41697423785416,82.38321523111011Z" style="opacity: 0;"/><path data-target="point-0-27" d="M467.41697423785416,82.38321523111011L532.76550372,295.15824L550.6373230784587,295.15824L550.8115286149796,290.26932450000004L530.8686796777433,220.70481278763657L474.7191095047209,96.54215191416887Z" style="opacity: 0;"/><path data-target="point-0-28" d="M530.8686796777433,220.70481278763657L550.8115286149796,290.26932450000004L570.2748184237531,290.26932450000004L567.0049881002489,279.1995335Z" style="opacity: 0;"/><path data-target="point-0-29" d="M474.7191095047209,96.54215191416887L530.8686796777433,220.70481278763657L567.0049881002489,279.1995335L588.408661332359,279.1995335L584.7126298431683,267.6778415Z" style="opacity: 0;"/><path data-target="point-0-30" d="M438.9649166539549,11.271552003162242L449.4648866202274,39.229754419869096L466.89678423892053,81.26109054778439L467.41697423785416,82.38321523111011L474.7191095047209,96.54215191416887L584.7126298431683,267.6778415L606.5666513479863,267.6778415L602.3965383996376,255.686184Z" style="opacity: 0;"/><path data-target="point-0-31" d="M434.25981214219405,0L438.9649166539549,11.271552003162242L602.3965383996376,255.686184L624.7516774777445,255.686184L620.0538888435092,243.2051855L450.8660029321286,0Z" style="opacity: 0;"/><path data-target="point-0-32" d="M450.8660029321286,0L620.0538888435092,243.2051855L642.9664989275491,243.2051855L637.6819923090227,230.21490949999998L471.0664823807841,0Z" style="opacity: 0;"/><path data-target="point-0-33" d="M471.0664823807841,0L637.6819923090227,230.21490949999998L661.214100608137,230.21490949999998L655.2778173285986,216.69457649999998L492.11370594525795,2.842170943040401e-14Z" style="opacity: 0;"/><path data-target="point-0-34" d="M492.11370594525795,2.842170943040401e-14L655.2778173285986,216.69457649999998L679.4980753792082,216.69457649999998L672.8381380910355,202.6225655L514.1123832520115,0Z" style="opacity: 0;"/><path data-target="point-0-35" d="M514.1123832520115,0L672.8381380910355,202.6225655L697.8220286299152,202.6225655L690.3591473159116,187.976412L537.1605219357139,0Z" style="opacity: 0;"/><path data-target="point-0-36" d="M537.1605219357139,0L690.3591473159116,187.976412L716.1904583841396,187.976412L707.836829214728,172.732529L561.3796168213931,0Z" style="opacity: 0;"/><path data-target="point-0-37" d="M561.3796168213931,0L707.836829214728,172.732529L734.6074579574054,172.732529L725.2667622338273,156.8666735L586.8903101866094,0Z" style="opacity: 0;"/><path data-target="point-0-38" d="M586.8903101866094,0L725.2667622338273,156.8666735L753.0785013063222,156.8666735L742.6442000460836,140.3533875L613.8378000861245,0Z" style="opacity: 0;"/><path data-target="point-0-39" d="M613.8378000861245,0L742.6442000460836,140.3533875L771.6089240871953,140.3533875L759.9635242480978,123.16627449999999L642.3664960220765,0Z" style="opacity: 0;"/><path data-target="point-0-40" d="M642.3664960220765,0L759.9635242480978,123.16627449999999L790.204682380096,123.16627449999999L777.2191196586567,105.27791049999999L672.6434163466222,0Z" style="opacity: 0;"/><path data-target="point-0-41" d="M672.6434163466222,0L777.2191196586567,105.27791049999999L808.8727045245113,105.27791049999999L794.4044684384288,86.65965349999999L704.8483514258998,0Z" style="opacity: 0;"/><path data-target="point-0-42" d="M704.8483514258998,0L794.4044684384288,86.65965349999999L827.6204933079773,86.65965349999999L811.5120962083602,67.28145849999999L739.1739742929674,0Z" style="opacity: 0;"/><path data-target="point-0-43" d="M739.1739742929674,0L811.5120962083602,67.28145849999999L846.4555026859176,67.28145849999999L828.534942657798,47.1127175L775.8369494007834,0Z" style="opacity: 0;"/><path data-target="point-0-44" d="M775.8369494007834,0L828.534942657798,47.1127175L865.3871571596203,47.1127175L845.4638760378168,26.120952L815.0666312092922,0Z" style="opacity: 0;"/><path data-target="point-0-45" d="M815.0666312092922,0L845.4638760378168,26.120952L884.4251294882143,26.120952L862.2896316620687,4.2724655L857.1169605422447,0Z" style="opacity: 0;"/><path data-target="point-0-46" d="M857.1169605422447,0L862.2896316620687,4.2724655L936,4.2724655L936,0Z" style="opacity: 0;"/><path data-target="point-1-0" d="M0,507.23712L67.02197448571428,507.23712L66.61863787857143,503.72712L0,241.29219184411164Z" style="opacity: 0;"/><path data-target="point-1-1" d="M0,241.29219184411164L66.61863787857143,503.72712L84.93364375142858,503.72712L84.71422863714285,500.63831999999996L46.872712269928634,219.82934675890004L28.45299295924464,109.96921081638038L27.686794339936426,106.7968272153052L14.38238238351596,68.84231526627076L0.6005271968650163,32.36764837027624L0,30.880815533248786Z" style="opacity: 0;"/><path data-target="point-1-2" d="M46.872712269928634,219.82934675890004L84.71422863714285,500.63831999999996L102.80195799857142,500.63831999999996L102.5960949942857,497.65248Z" style="opacity: 0;"/><path data-target="point-1-3" d="M28.45299295924464,109.96921081638038L46.872712269928634,219.82934675890004L102.5960949942857,497.65248L120.70899256,497.65248L120.55663399,494.17992L74.54068886776518,277.187546891908L55.604576052356094,203.3509797839368Z" style="opacity: 0;"/><path data-target="point-1-4" d="M74.54068886776518,277.187546891908L120.55663399,494.17992L138.71517459285712,494.17992L138.36569442285713,489.33144Z" style="opacity: 0;"/><path data-target="point-1-5" d="M55.604576052356094,203.3509797839368L74.54068886776518,277.187546891908L138.36569442285713,489.33144L157.52994629999998,489.33144L155.68619444571428,481.8528Z" style="opacity: 0;"/><path data-target="point-1-6" d="M27.686794339936426,106.7968272153052L28.45299295924464,109.96921081638038L55.604576052356094,203.3509797839368L155.68619444571428,481.8528L175.61766588357142,481.8528L173.32158058,474.5988L54.08471705882377,161.0238794972351Z" style="opacity: 0;"/><path data-target="point-1-7" d="M54.08471705882377,161.0238794972351L173.32158058,474.5988L193.39190736714286,474.5988L191.3425858442857,468.10295999999994L158.07455760453345,371.8905200265384L112.54148388055177,272.94110828413324Z" style="opacity: 0;"/><path data-target="point-1-8" d="M158.07455760453345,371.8905200265384L191.3425858442857,468.10295999999994L211.55132797714285,468.10295999999994L208.34700685714287,459.38879999999995Z" style="opacity: 0;"/><path data-target="point-1-9" d="M208.34700685714287,459.38879999999995L211.55132797714285,468.10295999999994L248.76398469214286,561.6L282.90895016499996,561.6L229.62862436499998,459.38879999999995Z" style="opacity: 0;"/><path data-target="point-1-10" d="M226.338199435,448.92432L229.62862436499998,459.38879999999995L282.90895016499996,561.6L326.9935669828574,561.6L248.366063,448.92431999999997Z" style="opacity: 0;"/><path data-target="point-1-11" d="M244.03691675,437.08392L248.366063,448.92431999999997L326.9935669828574,561.6L353.21771527500016,561.6L266.71795095,437.08392Z" style="opacity: 0;"/><path data-target="point-1-12" d="M261.40057623428567,424.90655999999996L266.71795095,437.08392L353.21771527500016,561.6L383.0170979199996,561.6L285.05916147999994,424.90655999999996Z" style="opacity: 0;"/><path data-target="point-1-13" d="M278.8540551142857,412.21439999999996L285.05916147999994,424.90655999999996L383.0170979199996,561.6L400.29178868214274,561.6L302.4455544821428,412.21439999999996Z" style="opacity: 0;"/><path data-target="point-1-14" d="M296.8853760178572,399.69072L302.4455544821428,412.21439999999996L400.29178868214274,561.6L443.3161337828577,561.6L320.8606758342857,399.69072Z" style="opacity: 0;"/><path data-target="point-1-15" d="M314.7449781942857,386.32464L320.8606758342857,399.69072L443.3161337828577,561.6L453.8539005292857,561.6L337.9515037707143,386.32464Z" style="opacity: 0;"/><path data-target="point-1-16" d="M333.997005895,376.00991999999997L337.9515037707143,386.32464L453.8539005292857,561.6L481.0077880857143,561.6L398.67354858182523,425.710892654943L358.64340893642856,376.00991999999997Z" style="opacity: 0;"/><path data-target="point-1-17" d="M348.3668908571429,361.30535999999995L358.64340893642856,376.00991999999997L398.67354858182523,425.710892654943L372.50132529857143,361.30536Z" style="opacity: 0;"/><path data-target="point-1-18" d="M369.87773067,351.57096L372.50132529857143,361.30536L398.67354858182523,425.710892654943L481.0077880857143,561.6L487.525909034286,561.6L389.6711289871428,351.57095999999996Z" style="opacity: 0;"/><path data-target="point-1-19" d="M389.20265229571424,343.10952L389.6711289871428,351.57095999999996L487.525909034286,561.6L516.8007265607141,561.6L462.8133830602211,428.5179603377302L408.56682223999996,343.10952Z" style="opacity: 0;"/><path data-target="point-1-20" d="M405.60534398,329.1444L408.56682223999996,343.10952L462.8133830602211,428.5179603377302L455.4645602409672,403.25846101270037L424.18577956285714,329.1444Z" style="opacity: 0;"/><path data-target="point-1-21" d="M424.18577956285714,329.1444L455.4645602409672,403.25846101270037L442.4370338071428,321.75L426.32546804142856,321.75Z" style="opacity: 0;"/><path data-target="point-1-22" d="M442.4370338071428,321.75L455.4645602409672,403.25846101270037L462.8133830602211,428.5179603377302L516.8007265607141,561.6L526.0183756571431,561.6L459.86667427142856,318.04344000000003L444.41176983571427,318.04344000000003Z" style="opacity: 0;"/><path data-target="point-1-23" d="M459.86667427142856,318.04344000000003L526.0183756571431,561.6L556.5976499657141,561.6L478.47820344,315.60984L461.12,315.60984Z" style="opacity: 0;"/><path data-target="point-1-24" d="M478.47820344,315.60984L556.5976499657141,561.6L566.3054624199999,561.6L496.35138706,309.85344L479.614732665,309.85344Z" style="opacity: 0;"/><path data-target="point-1-25" d="M496.35138706,309.85344L566.3054624199999,561.6L596.9033928799997,561.6L514.58486516,305.75376L497.3535391942857,305.75376Z" style="opacity: 0;"/><path data-target="point-1-26" d="M514.58486516,305.75376L596.9033928799997,561.6L619.8091120453055,561.6L618.4312787490038,556.9549049756507L532.8375469714285,300.90528L515.0812283,300.90528Z" style="opacity: 0;"/><path data-target="point-1-27" d="M532.76550372,295.15824L532.8375469714285,300.90528L618.4312787490038,556.9549049756507L550.6373230784587,295.15824Z" style="opacity: 0;"/><path data-target="point-1-28" d="M550.6373230784587,295.15824L618.4312787490038,556.9549049756507L619.8091120453055,561.6L737.8750499015076,561.6L570.2748184237531,290.26932450000004L550.8115286149796,290.26932450000004Z" style="opacity: 0;"/><path data-target="point-1-29" d="M567.0049881002489,279.1995335L570.2748184237531,290.26932450000004L737.8750499015076,561.6L770.0419123115432,561.6L588.408661332359,279.1995335Z" style="opacity: 0;"/><path data-target="point-1-30" d="M584.7126298431683,267.6778415L588.408661332359,279.1995335L770.0419123115432,561.6L803.4031389256406,561.6L606.5666513479863,267.6778415Z" style="opacity: 0;"/><path data-target="point-1-31" d="M602.3965383996376,255.686184L606.5666513479863,267.6778415L803.4031389256406,561.6L838.0683005298191,561.6L624.7516774777445,255.686184Z" style="opacity: 0;"/><path data-target="point-1-32" d="M620.0538888435092,243.2051855L624.7516774777445,255.686184L838.0683005298191,561.6L874.1429705953434,561.6L642.9664989275491,243.2051855Z" style="opacity: 0;"/><path data-target="point-1-33" d="M637.6819923090227,230.21490949999998L642.9664989275491,243.2051855L874.1429705953434,561.6L911.7404338498599,561.6L661.214100608137,230.21490949999998Z" style="opacity: 0;"/><path data-target="point-1-34" d="M655.2778173285986,216.69457649999998L661.214100608137,230.21490949999998L911.7404338498599,561.6L936,561.6L936,542.543636177269L679.4980753792082,216.69457649999998Z" style="opacity: 0;"/><path data-target="point-1-35" d="M672.8381380910355,202.6225655L679.4980753792082,216.69457649999998L936,542.543636177269L936,493.21576660252094L697.8220286299152,202.6225655Z" style="opacity: 0;"/><path data-target="point-1-36" d="M690.3591473159116,187.976412L697.8220286299152,202.6225655L936,493.21576660252094L936,445.5329648289668L716.1904583841396,187.976412Z" style="opacity: 0;"/><path data-target="point-1-37" d="M707.836829214728,172.732529L716.1904583841396,187.976412L936,445.5329648289668L936,399.3689683051781L734.6074579574054,172.732529Z" style="opacity: 0;"/><path data-target="point-1-38" d="M725.2667622338273,156.8666735L734.6074579574054,172.732529L936,399.3689683051781L936,354.5616222611594L753.0785013063222,156.8666735Z" style="opacity: 0;"/><path data-target="point-1-39" d="M742.6442000460836,140.3533875L753.0785013063222,156.8666735L936,354.5616222611594L936,310.9858800545252L771.6089240871953,140.3533875Z" style="opacity: 0;"/><path data-target="point-1-40" d="M759.9635242480978,123.16627449999999L771.6089240871953,140.3533875L936,310.9858800545252L936,268.5053393802373L790.204682380096,123.16627449999999Z" style="opacity: 0;"/><path data-target="point-1-41" d="M777.2191196586567,105.27791049999999L790.204682380096,123.16627449999999L936,268.5053393802373L936,226.98824051410304L808.8727045245113,105.27791049999999Z" style="opacity: 0;"/><path data-target="point-1-42" d="M794.4044684384288,86.65965349999999L808.8727045245113,105.27791049999999L936,226.98824051410304L936,186.31089583422659L827.6204933079773,86.65965349999999Z" style="opacity: 0;"/><path data-target="point-1-43" d="M811.5120962083602,67.28145849999999L827.6204933079773,86.65965349999999L936,186.31089583422659L936,146.3547384877097L846.4555026859176,67.28145849999999Z" style="opacity: 0;"/><path data-target="point-1-44" d="M828.534942657798,47.1127175L846.4555026859176,67.28145849999999L936,146.3547384877097L936,106.99878299337422L865.3871571596203,47.1127175Z" style="opacity: 0;"/><path data-target="point-1-45" d="M845.4638760378168,26.120952L865.3871571596203,47.1127175L936,106.99878299337422L936,68.1286587275979L884.4251294882143,26.120952Z" style="opacity: 0;"/><path data-target="point-1-46" d="M862.2896316620687,4.2724655L884.4251294882143,26.120952L936,68.1286587275979L936,4.2724655Z" style="opacity: 0;"/></g></g><g class="axes"><g class="y axis" fill="none" font-size="10" font-family="sans-serif" text-anchor="end" style="font-family: &quot;Source Sans Pro&quot;;"><path class="domain" stroke="#eeeeee" d="M0.5,562.1V0.5" stroke-dasharray="0" style="visibility: hidden;"/><g class="tick" opacity="1" transform="translate(0,562.1)" style="visibility: visible;"><line stroke="#eeeeee" x2="936" stroke-dasharray="0"/><text fill="rgb(0, 0, 0)" x="3" dy="-0.33em" opacity="1" text-anchor="start" font-size="18">$0</text></g><g class="tick" opacity="1" transform="translate(0, 524.6599731445312)" style="visibility: visible;"><line stroke="#eeeeee" x2="936" stroke-dasharray="0"/><text fill="rgb(0, 0, 0)" x="3" dy="-0.33em" opacity="1" text-anchor="start" font-size="18">$2000</text></g><g class="tick" opacity="1" transform="translate(0, 487.2200012207031)" style="visibility: visible;"><line stroke="#eeeeee" x2="936" stroke-dasharray="0"/><text fill="rgb(0, 0, 0)" x="3" dy="-0.33em" opacity="1" text-anchor="start" font-size="18">$4000</text></g><g class="tick" opacity="1" transform="translate(0, 449.7799987792969)" style="visibility: visible;"><line stroke="#eeeeee" x2="936" stroke-dasharray="0"/><text fill="rgb(0, 0, 0)" x="3" dy="-0.33em" opacity="1" text-anchor="start" font-size="18">$6000</text></g><g class="tick" opacity="1" transform="translate(0, 412.3399963378906)" style="visibility: visible;"><line stroke="#eeeeee" x2="936" stroke-dasharray="0"/><text fill="rgb(0, 0, 0)" x="3" dy="-0.33em" opacity="1" text-anchor="start" font-size="18">$8000</text></g><g class="tick" opacity="1" transform="translate(0, 374.8999938964844)" style="visibility: visible;"><line stroke="#eeeeee" x2="936" stroke-dasharray="0"/><text fill="rgb(0, 0, 0)" x="3" dy="-0.33em" opacity="1" text-anchor="start" font-size="18">$10,000</text></g><g class="tick" opacity="1" transform="translate(0, 337.4599914550781)" style="visibility: visible;"><line stroke="#eeeeee" x2="936" stroke-dasharray="0"/><text fill="rgb(0, 0, 0)" x="3" dy="-0.33em" opacity="1" text-anchor="start" font-size="18">$12,000</text></g><g class="tick" opacity="1" transform="translate(0, 300.0199890136719)" style="visibility: visible;"><line stroke="#eeeeee" x2="936" stroke-dasharray="0"/><text fill="rgb(0, 0, 0)" x="3" dy="-0.33em" opacity="1" text-anchor="start" font-size="18">$14,000</text></g><g class="tick" opacity="1" transform="translate(0, 262.5799865722656)" style="visibility: visible;"><line stroke="#eeeeee" x2="936" stroke-dasharray="0"/><text fill="rgb(0, 0, 0)" x="3" dy="-0.33em" opacity="1" text-anchor="start" font-size="18">$16,000</text></g><g class="tick" opacity="1" transform="translate(0, 225.13999938964844)" style="visibility: visible;"><line stroke="#eeeeee" x2="936" stroke-dasharray="0"/><text fill="rgb(0, 0, 0)" x="3" dy="-0.33em" opacity="1" text-anchor="start" font-size="18">$18,000</text></g><g class="tick" opacity="1" transform="translate(0, 187.6999969482422)" style="visibility: visible;"><line stroke="#eeeeee" x2="936" stroke-dasharray="0"/><text fill="rgb(0, 0, 0)" x="3" dy="-0.33em" opacity="1" text-anchor="start" font-size="18">$20,000</text></g><g class="tick" opacity="1" transform="translate(0, 150.25999450683594)" style="visibility: visible;"><line stroke="#eeeeee" x2="936" stroke-dasharray="0"/><text fill="rgb(0, 0, 0)" x="3" dy="-0.33em" opacity="1" text-anchor="start" font-size="18">$22,000</text></g><g class="tick" opacity="1" transform="translate(0, 112.81999969482422)" style="visibility: visible;"><line stroke="#eeeeee" x2="936" stroke-dasharray="0"/><text fill="rgb(0, 0, 0)" x="3" dy="-0.33em" opacity="1" text-anchor="start" font-size="18">$24,000</text></g><g class="tick" opacity="1" transform="translate(0, 75.37999725341797)" style="visibility: visible;"><line stroke="#eeeeee" x2="936" stroke-dasharray="0"/><text fill="rgb(0, 0, 0)" x="3" dy="-0.33em" opacity="1" text-anchor="start" font-size="18">$26,000</text></g><g class="tick" opacity="1" transform="translate(0, 37.939998626708984)" style="visibility: visible;"><line stroke="#eeeeee" x2="936" stroke-dasharray="0"/><text fill="rgb(0, 0, 0)" x="3" dy="-0.33em" opacity="1" text-anchor="start" font-size="18">$28,000</text></g><g class="tick" opacity="1" transform="translate(0, 0.5)" style="visibility: visible;"><line stroke="#eeeeee" x2="936" stroke-dasharray="0"/><text fill="rgb(0, 0, 0)" x="3" dy="-0.33em" opacity="1" text-anchor="start" font-size="18">$30,000</text></g></g><g class="x axis" transform="translate(0,561.6)" fill="none" font-size="10" font-family="sans-serif" text-anchor="middle" style="font-family: &quot;Source Sans Pro&quot;;"><path class="domain" stroke="#eeeeee" d="M40.5,0.5H936.5" stroke-dasharray="0"/><g class="tick" opacity="1" transform="translate(40.5,0)"><line stroke="#eeeeee" y2="6" stroke-dasharray="0"/><text fill="rgb(0, 0, 0)" y="9" dy="-9" opacity="1" dominant-baseline="central" font-size="18" transform="translate(0, 15) rotate(-45)" dx="5" style="text-anchor: end; visibility: visible;">1990</text></g><g class="tick" opacity="1" transform="translate(130.10000000000002,0)"><line stroke="#eeeeee" y2="6" stroke-dasharray="0"/><text fill="rgb(0, 0, 0)" y="9" dy="-9" opacity="1" dominant-baseline="central" font-size="18" transform="translate(0, 15) rotate(-45)" dx="5" style="text-anchor: end; visibility: visible;">1995</text></g><g class="tick" opacity="1" transform="translate(219.70000000000002,0)"><line stroke="#eeeeee" y2="6" stroke-dasharray="0"/><text fill="rgb(0, 0, 0)" y="9" dy="-9" opacity="1" dominant-baseline="central" font-size="18" transform="translate(0, 15) rotate(-45)" dx="5" style="text-anchor: end; visibility: visible;">2000</text></g><g class="tick" opacity="1" transform="translate(309.3,0)"><line stroke="#eeeeee" y2="6" stroke-dasharray="0"/><text fill="rgb(0, 0, 0)" y="9" dy="-9" opacity="1" dominant-baseline="central" font-size="18" transform="translate(0, 15) rotate(-45)" dx="5" style="text-anchor: end; visibility: visible;">2005</text></g><g class="tick" opacity="1" transform="translate(398.90000000000003,0)"><line stroke="#eeeeee" y2="6" stroke-dasharray="0"/><text fill="rgb(0, 0, 0)" y="9" dy="-9" opacity="1" dominant-baseline="central" font-size="18" transform="translate(0, 15) rotate(-45)" dx="5" style="text-anchor: end; visibility: visible;">2010</text></g><g class="tick" opacity="1" transform="translate(488.5,0)"><line stroke="#eeeeee" y2="6" stroke-dasharray="0"/><text fill="rgb(0, 0, 0)" y="9" dy="-9" opacity="1" dominant-baseline="central" font-size="18" transform="translate(0, 15) rotate(-45)" dx="5" style="text-anchor: end; visibility: visible;">2015</text></g><g class="tick" opacity="1" transform="translate(578.1,0)"><line stroke="#eeeeee" y2="6" stroke-dasharray="0"/><text fill="rgb(0, 0, 0)" y="9" dy="-9" opacity="1" dominant-baseline="central" font-size="18" transform="translate(0, 15) rotate(-45)" dx="5" style="text-anchor: end; visibility: visible;">2020</text></g><g class="tick" opacity="1" transform="translate(667.6999999999999,0)"><line stroke="#eeeeee" y2="6" stroke-dasharray="0"/><text fill="rgb(0, 0, 0)" y="9" dy="-9" opacity="1" dominant-baseline="central" font-size="18" transform="translate(0, 15) rotate(-45)" dx="5" style="text-anchor: end; visibility: visible;">2025</text></g><g class="tick" opacity="1" transform="translate(757.3000000000001,0)"><line stroke="#eeeeee" y2="6" stroke-dasharray="0"/><text fill="rgb(0, 0, 0)" y="9" dy="-9" opacity="1" dominant-baseline="central" font-size="18" transform="translate(0, 15) rotate(-45)" dx="5" style="text-anchor: end; visibility: visible;">2030</text></g><g class="tick" opacity="1" transform="translate(846.9,0)"><line stroke="#eeeeee" y2="6" stroke-dasharray="0"/><text fill="rgb(0, 0, 0)" y="9" dy="-9" opacity="1" dominant-baseline="central" font-size="18" transform="translate(0, 15) rotate(-45)" dx="5" style="text-anchor: end; visibility: visible;">2035</text></g><g class="tick" opacity="1" transform="translate(936.5,0)"><line stroke="#eeeeee" y2="6" stroke-dasharray="0"/><text fill="rgb(0, 0, 0)" y="9" dy="-9" opacity="1" dominant-baseline="central" font-size="18" transform="translate(0, 15) rotate(-45)" dx="5" style="text-anchor: end; visibility: visible;">2040</text></g></g></g></g></g></g><g class="annotations below"><g class="axis-highlights" transform="translate(15, 20)" style="opacity: 1;"><g class="line x" transform="translate(559.68, 0)"><line width="0" stroke-dasharray="2 2" stroke="#333333" stroke-width="2" y2="561.6"/><text transform="translate(0, 6) rotate(-90)" fill="#333333" text-anchor="end" dy="-0.5em" font-size="12">Current</text></g></g></g><g id="areas"><g class="series" pointer-events="none"><path class="area" transform="translate(15,20)" fill-opacity="0" fill="#11A579" clip-path="url(#clip-0-0)" d="M57.92,507.44304C63.89333333333334,506.72700000000003,69.86666666666667,506.01096,75.84,504.97200000000004C81.81333333333333,503.93304000000006,87.78666666666666,502.23264000000006,93.75999999999999,501.20928000000004C99.73333333333333,500.18592,105.70666666666666,499.75224000000003,111.68,498.83184C117.65333333333335,497.91143999999997,123.62666666666668,496.92864000000003,129.60000000000002,495.68688000000003C135.57333333333335,494.44512000000003,141.54666666666665,493.51848,147.51999999999998,491.38128C153.4933333333333,489.24408,159.46666666666667,485.5656000000001,165.44,482.86368000000004C171.41333333333333,480.16176,177.38666666666668,477.58464,183.36,475.16976C189.33333333333334,472.75488,195.30666666666667,471.31344,201.28,468.37440000000004C207.25333333333333,465.43536000000006,213.2266666666667,461.27328,219.20000000000002,457.53552C225.17333333333335,453.79776000000004,231.14666666666668,449.74176000000006,237.12,445.94784000000004C243.09333333333333,442.15392,249.06666666666666,438.6189600000001,255.04,434.77200000000005C261.0133333333333,430.92504,266.9866666666667,426.9408,272.96000000000004,422.86608C278.93333333333334,418.79136,284.9066666666667,414.6324,290.88,410.32368C296.85333333333335,406.01496000000003,302.82666666666665,401.42856000000006,308.8,397.01376000000005C314.77333333333337,392.59896000000003,320.74666666666667,387.49464,326.72,383.83488C332.6933333333334,380.17512,338.6666666666667,379.01448,344.64000000000004,375.0552C350.61333333333334,371.09592000000004,356.5866666666667,364.60632000000004,362.56,360.0792C368.53333333333336,355.55208,374.50666666666666,351.35256,380.48,347.89248C386.4533333333334,344.4324,392.4266666666667,343.50576,398.40000000000003,339.31872C404.37333333333333,335.13168,410.3466666666667,326.73264,416.32,322.77024C422.29333333333335,318.80784,428.26666666666665,317.5068,434.24,315.54432C440.21333333333337,313.58184000000006,446.18666666666667,310.99536,452.16,310.99536C458.1333333333333,310.99536,464.1066666666667,310.99536,470.08,310.99536C476.05333333333334,310.99536,482.02666666666664,306.6804,488,305.17344C493.97333333333336,303.66648000000004,499.94666666666666,303.14544,505.92,301.9536C511.8933333333334,300.76176,517.8666666666667,299.59488,523.84,298.0224C529.8133333333334,296.44992,535.7866666666666,294.29222159999995,541.76,292.51872C547.7333333333333,290.7452184,553.7066666666666,290.08268639999994,559.68,287.3813904C565.6533333333333,284.6800944,571.6266666666667,280.0756296,577.6,276.310944C583.5733333333334,272.5462584,589.5466666666666,268.7099688,595.52,264.7932768C601.4933333333333,260.8765848,607.4666666666667,256.88557439999994,613.44,252.81079199999994C619.4133333333334,248.73600959999993,625.3866666666667,244.58385119999997,631.36,240.34458239999998C637.3333333333334,236.1053136,643.3066666666667,231.7856112,649.2800000000001,227.3751792C655.2533333333333,222.96474720000003,661.2266666666667,218.4704808,667.1999999999999,213.8819904C673.1733333333333,209.29349999999997,679.1466666666666,204.6179616,685.12,199.84423679999998C691.0933333333334,195.07051199999998,697.0666666666666,190.20608879999995,703.04,185.23964159999997C709.0133333333333,180.27319439999997,714.9866666666667,175.21252320000002,720.96,170.0455536C726.9333333333334,164.87858400000002,732.9066666666666,159.61339679999998,738.88,154.237824C744.8533333333334,148.86225119999997,750.8266666666667,143.3846856,756.8000000000001,137.79211679999997C762.7733333333333,132.19954800000002,768.7466666666667,126.50077439999994,774.7199999999999,120.68241119999999C780.6933333333333,114.86404799999995,786.6666666666666,108.93517440000004,792.64,102.88193760000001C798.6133333333333,96.82870080000004,804.5866666666666,90.66061679999999,810.56,84.3629904C816.5333333333333,78.06536399999997,822.5066666666667,71.6480544,828.48,65.0961792C834.4533333333334,58.54430400000002,840.4266666666666,51.86809680000002,846.4,45.05173920000004C852.3733333333333,38.235381600000025,858.3466666666667,31.289606400000068,864.32,24.19803360000003C870.2933333333334,17.10646080000004,876.2666666666667,9.8043816,882.24,2.5023023999999623L882.24,2.5023023999999623C876.2666666666667,9.8043816,870.2933333333334,17.10646080000004,864.32,24.19803360000003C858.3466666666667,31.289606400000068,852.3733333333333,38.235381600000025,846.4,45.05173920000004C840.4266666666666,51.86809680000002,834.4533333333334,58.54430400000002,828.48,65.0961792C822.5066666666667,71.6480544,816.5333333333333,78.06536399999997,810.56,84.3629904C804.5866666666666,90.66061679999999,798.6133333333333,96.82870080000004,792.64,102.88193760000001C786.6666666666666,108.93517440000004,780.6933333333333,114.86404799999995,774.7199999999999,120.68241119999999C768.7466666666667,126.50077439999994,762.7733333333333,132.19954800000002,756.8000000000001,137.79211679999997C750.8266666666667,143.3846856,744.8533333333334,148.86225119999997,738.88,154.237824C732.9066666666666,159.61339679999998,726.9333333333334,164.87858400000002,720.96,170.0455536C714.9866666666667,175.21252320000002,709.0133333333333,180.27319439999997,703.04,185.23964159999997C697.0666666666666,190.20608879999995,691.0933333333334,195.07051199999998,685.12,199.84423679999998C679.1466666666666,204.6179616,673.1733333333333,209.29349999999997,667.1999999999999,213.8819904C661.2266666666667,218.4704808,655.2533333333333,222.96474720000003,649.2800000000001,227.3751792C643.3066666666667,231.7856112,637.3333333333334,236.1053136,631.36,240.34458239999998C625.3866666666667,244.58385119999997,619.4133333333334,248.73600959999993,613.44,252.81079199999994C607.4666666666667,256.88557439999994,601.4933333333333,260.8765848,595.52,264.7932768C589.5466666666666,268.7099688,583.5733333333334,272.5462584,577.6,276.310944C571.6266666666667,280.0756296,565.6533333333333,284.6800944,559.68,287.3813904C553.7066666666666,290.08268639999994,547.7333333333333,290.7452184,541.76,292.51872C535.7866666666666,294.29222159999995,529.8133333333334,296.44992,523.84,298.0224C517.8666666666667,299.59488,511.8933333333334,300.76176,505.92,301.9536C499.94666666666666,303.14544,493.97333333333336,303.66648000000004,488,305.17344C482.02666666666664,306.6804,476.05333333333334,310.99536,470.08,310.99536C464.1066666666667,310.99536,458.1333333333333,310.99536,452.16,310.99536C446.18666666666667,310.99536,440.21333333333337,313.58184000000006,434.24,315.54432C428.26666666666665,317.5068,422.29333333333335,318.80784,416.32,322.77024C410.3466666666667,326.73264,404.37333333333333,335.13168,398.40000000000003,339.31872C392.4266666666667,343.50576,386.4533333333334,344.4324,380.48,347.89248C374.50666666666666,351.35256,368.53333333333336,355.55208,362.56,360.0792C356.5866666666667,364.60632000000004,350.61333333333334,371.09592000000004,344.64000000000004,375.0552C338.6666666666667,379.01448,332.6933333333334,380.17512,326.72,383.83488C320.74666666666667,387.49464,314.77333333333337,392.59896000000003,308.8,397.01376000000005C302.82666666666665,401.42856000000006,296.85333333333335,406.01496000000003,290.88,410.32368C284.9066666666667,414.6324,278.93333333333334,418.79136,272.96000000000004,422.86608C266.9866666666667,426.9408,261.0133333333333,430.92504,255.04,434.77200000000005C249.06666666666666,438.6189600000001,243.09333333333333,442.15392,237.12,445.94784000000004C231.14666666666668,449.74176000000006,225.17333333333335,453.79776000000004,219.20000000000002,457.53552C213.2266666666667,461.27328,207.25333333333333,465.43536000000006,201.28,468.37440000000004C195.30666666666667,471.31344,189.33333333333334,472.75488,183.36,475.16976C177.38666666666668,477.58464,171.41333333333333,480.16176,165.44,482.86368000000004C159.46666666666667,485.5656000000001,153.4933333333333,489.24408,147.51999999999998,491.38128C141.54666666666665,493.51848,135.57333333333335,494.44512000000003,129.60000000000002,495.68688000000003C123.62666666666668,496.92864000000003,117.65333333333335,497.91143999999997,111.68,498.83184C105.70666666666666,499.75224000000003,99.73333333333333,500.18592,93.75999999999999,501.20928000000004C87.78666666666666,502.23264000000006,81.81333333333333,503.93304000000006,75.84,504.97200000000004C69.86666666666667,506.01096,63.89333333333334,506.72700000000003,57.92,507.44304Z"/></g><g class="series" pointer-events="none"><path class="area" transform="translate(15,20)" fill-opacity="0" fill="#802392" clip-path="url(#clip-0-1)" d="M57.92,507.0312C63.89333333333334,505.33704000000006,69.86666666666667,503.64288000000005,75.84,502.48224000000005C81.81333333333333,501.32160000000005,87.78666666666666,501.06888000000004,93.75999999999999,500.06736C99.73333333333333,499.06584,105.70666666666666,497.70552,111.68,496.47312C117.65333333333335,495.24072,123.62666666666668,494.20488,129.60000000000002,492.67296C135.57333333333335,491.14104,141.54666666666665,489.25344,147.51999999999998,487.2816C153.4933333333333,485.30976000000004,159.46666666666667,483.05088,165.44,480.84192C171.41333333333333,478.63296,177.38666666666668,476.19624000000005,183.36,474.02784C189.33333333333334,471.85944,195.30666666666667,469.96248,201.28,467.83152C207.25333333333333,465.70056,213.2266666666667,463.8972,219.20000000000002,461.24208C225.17333333333335,458.58696,231.14666666666668,455.54184,237.12,451.9008C243.09333333333333,448.25976,249.06666666666666,443.5548,255.04,439.39584C261.0133333333333,435.23688000000004,266.9866666666667,431.16216000000003,272.96000000000004,426.94704C278.93333333333334,422.73192000000006,284.9066666666667,418.20168000000007,290.88,414.10512000000006C296.85333333333335,410.00856000000005,302.82666666666665,406.5828,308.8,402.36768C314.77333333333337,398.15256,320.74666666666667,393.04824,326.72,388.81440000000003C332.6933333333334,384.58056000000005,338.6666666666667,381.34512000000007,344.64000000000004,376.96464000000003C350.61333333333334,372.58416000000005,356.5866666666667,366.15072,362.56,362.53152C368.53333333333336,358.91232,374.50666666666666,357.85464,380.48,355.24944000000005C386.4533333333334,352.6442400000001,392.4266666666667,350.1888,398.40000000000003,346.90032C404.37333333333333,343.61184000000003,410.3466666666667,338.676,416.32,335.51856C422.29333333333335,332.36111999999997,428.26666666666665,329.69352000000003,434.24,327.95568000000003C440.21333333333337,326.21784,446.18666666666667,326.38008,452.16,325.09152C458.1333333333333,323.80296,464.1066666666667,321.98400000000004,470.08,320.22432000000003C476.05333333333334,318.46464000000003,482.02666666666664,316.31184,488,314.53344000000004C493.97333333333336,312.75504000000006,499.94666666666666,311.3448000000001,505.92,309.55392000000006C511.8933333333334,307.76304000000005,517.8666666666667,305.74752,523.84,303.78816C529.8133333333334,301.8288,535.7866666666666,299.5695768,541.76,297.79776C547.7333333333333,296.0259432,553.7066666666666,295.77553200000006,559.68,293.15725920000006C565.6533333333333,290.53898640000006,571.6266666666667,285.853932,577.6,282.0881232C583.5733333333334,278.3223144,589.5466666666666,274.4834976,595.52,270.56240640000004C601.4933333333333,266.6413152,607.4666666666667,262.64434559999995,613.44,258.56157599999995C619.4133333333334,254.47880639999994,625.3866666666667,250.3169448,631.36,246.0657888C637.3333333333334,241.8146328,643.3066666666667,237.48107760000002,649.2800000000001,233.05464C655.2533333333333,228.62820240000005,661.2266666666667,224.1161208,667.1999999999999,219.50716320000004C673.1733333333333,214.8982056,679.1466666666666,210.19989120000005,685.12,205.40089440000003C691.0933333333334,200.60189760000003,697.0666666666666,195.71008079999993,703.04,190.71318239999994C709.0133333333333,185.71628399999992,714.9866666666667,180.6224472,720.96,175.41950400000002C726.9333333333334,170.21656080000005,732.9066666666666,164.9129976,738.88,159.49552320000004C744.8533333333334,154.07804880000003,750.8266666666667,148.5555552000001,756.8000000000001,142.91465760000006C762.7733333333333,137.2737600000001,768.7466666666667,131.52360000000002,774.7199999999999,125.65013760000005C780.6933333333333,119.77667520000001,786.6666666666666,113.78952000000007,792.64,107.67388320000003C798.6133333333333,101.55824640000004,804.5866666666666,95.32417439999996,810.56,88.95631679999997C816.5333333333333,82.58845919999995,822.5066666666667,76.09717440000001,828.48,69.46673759999999C834.4533333333334,62.836300800000004,840.4266666666666,56.077507199999914,846.4,49.17369599999995C852.3733333333333,42.26988479999994,858.3466666666667,35.232381600000075,864.32,28.04387040000006C870.2933333333334,20.855359200000088,876.2666666666667,13.448994000000038,882.24,6.042628799999989L882.24,6.042628799999989C876.2666666666667,13.448994000000038,870.2933333333334,20.855359200000088,864.32,28.04387040000006C858.3466666666667,35.232381600000075,852.3733333333333,42.26988479999994,846.4,49.17369599999995C840.4266666666666,56.077507199999914,834.4533333333334,62.836300800000004,828.48,69.46673759999999C822.5066666666667,76.09717440000001,816.5333333333333,82.58845919999995,810.56,88.95631679999997C804.5866666666666,95.32417439999996,798.6133333333333,101.55824640000004,792.64,107.67388320000003C786.6666666666666,113.78952000000007,780.6933333333333,119.77667520000001,774.7199999999999,125.65013760000005C768.7466666666667,131.52360000000002,762.7733333333333,137.2737600000001,756.8000000000001,142.91465760000006C750.8266666666667,148.5555552000001,744.8533333333334,154.07804880000003,738.88,159.49552320000004C732.9066666666666,164.9129976,726.9333333333334,170.21656080000005,720.96,175.41950400000002C714.9866666666667,180.6224472,709.0133333333333,185.71628399999992,703.04,190.71318239999994C697.0666666666666,195.71008079999993,691.0933333333334,200.60189760000003,685.12,205.40089440000003C679.1466666666666,210.19989120000005,673.1733333333333,214.8982056,667.1999999999999,219.50716320000004C661.2266666666667,224.1161208,655.2533333333333,228.62820240000005,649.2800000000001,233.05464C643.3066666666667,237.48107760000002,637.3333333333334,241.8146328,631.36,246.0657888C625.3866666666667,250.3169448,619.4133333333334,254.47880639999994,613.44,258.56157599999995C607.4666666666667,262.64434559999995,601.4933333333333,266.6413152,595.52,270.56240640000004C589.5466666666666,274.4834976,583.5733333333334,278.3223144,577.6,282.0881232C571.6266666666667,285.853932,565.6533333333333,290.53898640000006,559.68,293.15725920000006C553.7066666666666,295.77553200000006,547.7333333333333,296.0259432,541.76,297.79776C535.7866666666666,299.5695768,529.8133333333334,301.8288,523.84,303.78816C517.8666666666667,305.74752,511.8933333333334,307.76304000000005,505.92,309.55392000000006C499.94666666666666,311.3448000000001,493.97333333333336,312.75504000000006,488,314.53344000000004C482.02666666666664,316.31184,476.05333333333334,318.46464000000003,470.08,320.22432000000003C464.1066666666667,321.98400000000004,458.1333333333333,323.80296,452.16,325.09152C446.18666666666667,326.38008,440.21333333333337,326.21784,434.24,327.95568000000003C428.26666666666665,329.69352000000003,422.29333333333335,332.36111999999997,416.32,335.51856C410.3466666666667,338.676,404.37333333333333,343.61184000000003,398.40000000000003,346.90032C392.4266666666667,350.1888,386.4533333333334,352.6442400000001,380.48,355.24944000000005C374.50666666666666,357.85464,368.53333333333336,358.91232,362.56,362.53152C356.5866666666667,366.15072,350.61333333333334,372.58416000000005,344.64000000000004,376.96464000000003C338.6666666666667,381.34512000000007,332.6933333333334,384.58056000000005,326.72,388.81440000000003C320.74666666666667,393.04824,314.77333333333337,398.15256,308.8,402.36768C302.82666666666665,406.5828,296.85333333333335,410.00856000000005,290.88,414.10512000000006C284.9066666666667,418.20168000000007,278.93333333333334,422.73192000000006,272.96000000000004,426.94704C266.9866666666667,431.16216000000003,261.0133333333333,435.23688000000004,255.04,439.39584C249.06666666666666,443.5548,243.09333333333333,448.25976,237.12,451.9008C231.14666666666668,455.54184,225.17333333333335,458.58696,219.20000000000002,461.24208C213.2266666666667,463.8972,207.25333333333333,465.70056,201.28,467.83152C195.30666666666667,469.96248,189.33333333333334,471.85944,183.36,474.02784C177.38666666666668,476.19624000000005,171.41333333333333,478.63296,165.44,480.84192C159.46666666666667,483.05088,153.4933333333333,485.30976000000004,147.51999999999998,487.2816C141.54666666666665,489.25344,135.57333333333335,491.14104,129.60000000000002,492.67296C123.62666666666668,494.20488,117.65333333333335,495.24072,111.68,496.47312C105.70666666666666,497.70552,99.73333333333333,499.06584,93.75999999999999,500.06736C87.78666666666666,501.06888000000004,81.81333333333333,501.32160000000005,75.84,502.48224000000005C69.86666666666667,503.64288000000005,63.89333333333334,505.33704000000006,57.92,507.0312Z"/></g></g><g id="lines"><g class="series"><clipPath id="clip-0-0"><rect width="936" y="-20" height="599.6"/></clipPath><path class="line" opacity="1" fill="none" stroke="#11A579" stroke-width="2" transform="translate(15,20)" clip-path="url(#clip-0-0)" d="M57.92,507.44304C63.89333333333334,506.72700000000003,69.86666666666667,506.01096,75.84,504.97200000000004C81.81333333333333,503.93304000000006,87.78666666666666,502.23264000000006,93.75999999999999,501.20928000000004C99.73333333333333,500.18592,105.70666666666666,499.75224000000003,111.68,498.83184C117.65333333333335,497.91143999999997,123.62666666666668,496.92864000000003,129.60000000000002,495.68688000000003C135.57333333333335,494.44512000000003,141.54666666666665,493.51848,147.51999999999998,491.38128C153.4933333333333,489.24408,159.46666666666667,485.5656000000001,165.44,482.86368000000004C171.41333333333333,480.16176,177.38666666666668,477.58464,183.36,475.16976C189.33333333333334,472.75488,195.30666666666667,471.31344,201.28,468.37440000000004C207.25333333333333,465.43536000000006,213.2266666666667,461.27328,219.20000000000002,457.53552C225.17333333333335,453.79776000000004,231.14666666666668,449.74176000000006,237.12,445.94784000000004C243.09333333333333,442.15392,249.06666666666666,438.6189600000001,255.04,434.77200000000005C261.0133333333333,430.92504,266.9866666666667,426.9408,272.96000000000004,422.86608C278.93333333333334,418.79136,284.9066666666667,414.6324,290.88,410.32368C296.85333333333335,406.01496000000003,302.82666666666665,401.42856000000006,308.8,397.01376000000005C314.77333333333337,392.59896000000003,320.74666666666667,387.49464,326.72,383.83488C332.6933333333334,380.17512,338.6666666666667,379.01448,344.64000000000004,375.0552C350.61333333333334,371.09592000000004,356.5866666666667,364.60632000000004,362.56,360.0792C368.53333333333336,355.55208,374.50666666666666,351.35256,380.48,347.89248C386.4533333333334,344.4324,392.4266666666667,343.50576,398.40000000000003,339.31872C404.37333333333333,335.13168,410.3466666666667,326.73264,416.32,322.77024C422.29333333333335,318.80784,428.26666666666665,317.5068,434.24,315.54432C440.21333333333337,313.58184000000006,446.18666666666667,310.99536,452.16,310.99536C458.1333333333333,310.99536,464.1066666666667,310.99536,470.08,310.99536C476.05333333333334,310.99536,482.02666666666664,306.6804,488,305.17344C493.97333333333336,303.66648000000004,499.94666666666666,303.14544,505.92,301.9536C511.8933333333334,300.76176,517.8666666666667,299.59488,523.84,298.0224C529.8133333333334,296.44992,535.7866666666666,294.29222159999995,541.76,292.51872C547.7333333333333,290.7452184,553.7066666666666,290.08268639999994,559.68,287.3813904C565.6533333333333,284.6800944,571.6266666666667,280.0756296,577.6,276.310944C583.5733333333334,272.5462584,589.5466666666666,268.7099688,595.52,264.7932768C601.4933333333333,260.8765848,607.4666666666667,256.88557439999994,613.44,252.81079199999994C619.4133333333334,248.73600959999993,625.3866666666667,244.58385119999997,631.36,240.34458239999998C637.3333333333334,236.1053136,643.3066666666667,231.7856112,649.2800000000001,227.3751792C655.2533333333333,222.96474720000003,661.2266666666667,218.4704808,667.1999999999999,213.8819904C673.1733333333333,209.29349999999997,679.1466666666666,204.6179616,685.12,199.84423679999998C691.0933333333334,195.07051199999998,697.0666666666666,190.20608879999995,703.04,185.23964159999997C709.0133333333333,180.27319439999997,714.9866666666667,175.21252320000002,720.96,170.0455536C726.9333333333334,164.87858400000002,732.9066666666666,159.61339679999998,738.88,154.237824C744.8533333333334,148.86225119999997,750.8266666666667,143.3846856,756.8000000000001,137.79211679999997C762.7733333333333,132.19954800000002,768.7466666666667,126.50077439999994,774.7199999999999,120.68241119999999C780.6933333333333,114.86404799999995,786.6666666666666,108.93517440000004,792.64,102.88193760000001C798.6133333333333,96.82870080000004,804.5866666666666,90.66061679999999,810.56,84.3629904C816.5333333333333,78.06536399999997,822.5066666666667,71.6480544,828.48,65.0961792C834.4533333333334,58.54430400000002,840.4266666666666,51.86809680000002,846.4,45.05173920000004C852.3733333333333,38.235381600000025,858.3466666666667,31.289606400000068,864.32,24.19803360000003C870.2933333333334,17.10646080000004,876.2666666666667,9.8043816,882.24,2.5023023999999623"/><text class="label" font-size="11" alignment-baseline="middle" opacity="1" x="5" fill="#11A579" transform="translate(897.239990234375, 22.502302169799805)"/></g><g class="series"><clipPath id="clip-0-1"><rect width="936" y="-20" height="599.6"/></clipPath><path class="line" opacity="1" fill="none" stroke="#802392" stroke-width="2" transform="translate(15,20)" clip-path="url(#clip-0-1)" d="M57.92,507.0312C63.89333333333334,505.33704000000006,69.86666666666667,503.64288000000005,75.84,502.48224000000005C81.81333333333333,501.32160000000005,87.78666666666666,501.06888000000004,93.75999999999999,500.06736C99.73333333333333,499.06584,105.70666666666666,497.70552,111.68,496.47312C117.65333333333335,495.24072,123.62666666666668,494.20488,129.60000000000002,492.67296C135.57333333333335,491.14104,141.54666666666665,489.25344,147.51999999999998,487.2816C153.4933333333333,485.30976000000004,159.46666666666667,483.05088,165.44,480.84192C171.41333333333333,478.63296,177.38666666666668,476.19624000000005,183.36,474.02784C189.33333333333334,471.85944,195.30666666666667,469.96248,201.28,467.83152C207.25333333333333,465.70056,213.2266666666667,463.8972,219.20000000000002,461.24208C225.17333333333335,458.58696,231.14666666666668,455.54184,237.12,451.9008C243.09333333333333,448.25976,249.06666666666666,443.5548,255.04,439.39584C261.0133333333333,435.23688000000004,266.9866666666667,431.16216000000003,272.96000000000004,426.94704C278.93333333333334,422.73192000000006,284.9066666666667,418.20168000000007,290.88,414.10512000000006C296.85333333333335,410.00856000000005,302.82666666666665,406.5828,308.8,402.36768C314.77333333333337,398.15256,320.74666666666667,393.04824,326.72,388.81440000000003C332.6933333333334,384.58056000000005,338.6666666666667,381.34512000000007,344.64000000000004,376.96464000000003C350.61333333333334,372.58416000000005,356.5866666666667,366.15072,362.56,362.53152C368.53333333333336,358.91232,374.50666666666666,357.85464,380.48,355.24944000000005C386.4533333333334,352.6442400000001,392.4266666666667,350.1888,398.40000000000003,346.90032C404.37333333333333,343.61184000000003,410.3466666666667,338.676,416.32,335.51856C422.29333333333335,332.36111999999997,428.26666666666665,329.69352000000003,434.24,327.95568000000003C440.21333333333337,326.21784,446.18666666666667,326.38008,452.16,325.09152C458.1333333333333,323.80296,464.1066666666667,321.98400000000004,470.08,320.22432000000003C476.05333333333334,318.46464000000003,482.02666666666664,316.31184,488,314.53344000000004C493.97333333333336,312.75504000000006,499.94666666666666,311.3448000000001,505.92,309.55392000000006C511.8933333333334,307.76304000000005,517.8666666666667,305.74752,523.84,303.78816C529.8133333333334,301.8288,535.7866666666666,299.5695768,541.76,297.79776C547.7333333333333,296.0259432,553.7066666666666,295.77553200000006,559.68,293.15725920000006C565.6533333333333,290.53898640000006,571.6266666666667,285.853932,577.6,282.0881232C583.5733333333334,278.3223144,589.5466666666666,274.4834976,595.52,270.56240640000004C601.4933333333333,266.6413152,607.4666666666667,262.64434559999995,613.44,258.56157599999995C619.4133333333334,254.47880639999994,625.3866666666667,250.3169448,631.36,246.0657888C637.3333333333334,241.8146328,643.3066666666667,237.48107760000002,649.2800000000001,233.05464C655.2533333333333,228.62820240000005,661.2266666666667,224.1161208,667.1999999999999,219.50716320000004C673.1733333333333,214.8982056,679.1466666666666,210.19989120000005,685.12,205.40089440000003C691.0933333333334,200.60189760000003,697.0666666666666,195.71008079999993,703.04,190.71318239999994C709.0133333333333,185.71628399999992,714.9866666666667,180.6224472,720.96,175.41950400000002C726.9333333333334,170.21656080000005,732.9066666666666,164.9129976,738.88,159.49552320000004C744.8533333333334,154.07804880000003,750.8266666666667,148.5555552000001,756.8000000000001,142.91465760000006C762.7733333333333,137.2737600000001,768.7466666666667,131.52360000000002,774.7199999999999,125.65013760000005C780.6933333333333,119.77667520000001,786.6666666666666,113.78952000000007,792.64,107.67388320000003C798.6133333333333,101.55824640000004,804.5866666666666,95.32417439999996,810.56,88.95631679999997C816.5333333333333,82.58845919999995,822.5066666666667,76.09717440000001,828.48,69.46673759999999C834.4533333333334,62.836300800000004,840.4266666666666,56.077507199999914,846.4,49.17369599999995C852.3733333333333,42.26988479999994,858.3466666666667,35.232381600000075,864.32,28.04387040000006C870.2933333333334,20.855359200000088,876.2666666666667,13.448994000000038,882.24,6.042628799999989"/><text class="label" font-size="11" alignment-baseline="middle" opacity="1" x="5" fill="#802392" transform="translate(897.239990234375, 26.04262924194336)"/></g></g><g id="data-points"><g class="series" transform="translate(15,20)"><path class="data-point" fill="#11A579" data-type="point" transform="translate(0, 0)" d="M54.92,507.44304A3,3,0,1,1,60.92,507.44304A3,3,0,1,1,54.92,507.44304Z" id="point-0-0" opacity="1"/><path class="data-point" fill="#11A579" data-type="point" transform="translate(0, 0)" d="M72.84,504.97200000000004A3,3,0,1,1,78.84,504.97200000000004A3,3,0,1,1,72.84,504.97200000000004Z" id="point-0-1" opacity="1"/><path class="data-point" fill="#11A579" data-type="point" transform="translate(0, 0)" d="M90.75999999999999,501.20928000000004A3,3,0,1,1,96.75999999999999,501.20928000000004A3,3,0,1,1,90.75999999999999,501.20928000000004Z" id="point-0-2" opacity="1"/><path class="data-point" fill="#11A579" data-type="point" transform="translate(0, 0)" d="M108.68,498.83184A3,3,0,1,1,114.68,498.83184A3,3,0,1,1,108.68,498.83184Z" id="point-0-3" opacity="1"/><path class="data-point" fill="#11A579" data-type="point" transform="translate(0, 0)" d="M126.60000000000002,495.68688000000003A3,3,0,1,1,132.60000000000002,495.68688000000003A3,3,0,1,1,126.60000000000002,495.68688000000003Z" id="point-0-4" opacity="1"/><path class="data-point" fill="#11A579" data-type="point" transform="translate(0, 0)" d="M144.51999999999998,491.38128A3,3,0,1,1,150.51999999999998,491.38128A3,3,0,1,1,144.51999999999998,491.38128Z" id="point-0-5" opacity="1"/><path class="data-point" fill="#11A579" data-type="point" transform="translate(0, 0)" d="M162.44,482.86368000000004A3,3,0,1,1,168.44,482.86368000000004A3,3,0,1,1,162.44,482.86368000000004Z" id="point-0-6" opacity="1"/><path class="data-point" fill="#11A579" data-type="point" transform="translate(0, 0)" d="M180.36,475.16976A3,3,0,1,1,186.36,475.16976A3,3,0,1,1,180.36,475.16976Z" id="point-0-7" opacity="1"/><path class="data-point" fill="#11A579" data-type="point" transform="translate(0, 0)" d="M198.28,468.37440000000004A3,3,0,1,1,204.28,468.37440000000004A3,3,0,1,1,198.28,468.37440000000004Z" id="point-0-8" opacity="1"/><path class="data-point" fill="#11A579" data-type="point" transform="translate(0, 0)" d="M216.20000000000002,457.53552A3,3,0,1,1,222.20000000000002,457.53552A3,3,0,1,1,216.20000000000002,457.53552Z" id="point-0-9" opacity="1"/><path class="data-point" fill="#11A579" data-type="point" transform="translate(0, 0)" d="M234.12,445.94784000000004A3,3,0,1,1,240.12,445.94784000000004A3,3,0,1,1,234.12,445.94784000000004Z" id="point-0-10" opacity="1"/><path class="data-point" fill="#11A579" data-type="point" transform="translate(0, 0)" d="M252.04,434.77200000000005A3,3,0,1,1,258.03999999999996,434.77200000000005A3,3,0,1,1,252.04,434.77200000000005Z" id="point-0-11" opacity="1"/><path class="data-point" fill="#11A579" data-type="point" transform="translate(0, 0)" d="M269.96000000000004,422.86608A3,3,0,1,1,275.96000000000004,422.86608A3,3,0,1,1,269.96000000000004,422.86608Z" id="point-0-12" opacity="1"/><path class="data-point" fill="#11A579" data-type="point" transform="translate(0, 0)" d="M287.88,410.32368A3,3,0,1,1,293.88,410.32368A3,3,0,1,1,287.88,410.32368Z" id="point-0-13" opacity="1"/><path class="data-point" fill="#11A579" data-type="point" transform="translate(0, 0)" d="M305.8,397.01376000000005A3,3,0,1,1,311.8,397.01376000000005A3,3,0,1,1,305.8,397.01376000000005Z" id="point-0-14" opacity="1"/><path class="data-point" fill="#11A579" data-type="point" transform="translate(0, 0)" d="M323.72,383.83488A3,3,0,1,1,329.72,383.83488A3,3,0,1,1,323.72,383.83488Z" id="point-0-15" opacity="1"/><path class="data-point" fill="#11A579" data-type="point" transform="translate(0, 0)" d="M341.64000000000004,375.0552A3,3,0,1,1,347.64000000000004,375.0552A3,3,0,1,1,341.64000000000004,375.0552Z" id="point-0-16" opacity="1"/><path class="data-point" fill="#11A579" data-type="point" transform="translate(0, 0)" d="M359.56,360.0792A3,3,0,1,1,365.56,360.0792A3,3,0,1,1,359.56,360.0792Z" id="point-0-17" opacity="1"/><path class="data-point" fill="#11A579" data-type="point" transform="translate(0, 0)" d="M377.48,347.89248A3,3,0,1,1,383.48,347.89248A3,3,0,1,1,377.48,347.89248Z" id="point-0-18" opacity="1"/><path class="data-point" fill="#11A579" data-type="point" transform="translate(0, 0)" d="M395.40000000000003,339.31872A3,3,0,1,1,401.40000000000003,339.31872A3,3,0,1,1,395.40000000000003,339.31872Z" id="point-0-19" opacity="1"/><path class="data-point" fill="#11A579" data-type="point" transform="translate(0, 0)" d="M413.32,322.77024A3,3,0,1,1,419.32,322.77024A3,3,0,1,1,413.32,322.77024Z" id="point-0-20" opacity="1"/><path class="data-point" fill="#11A579" data-type="point" transform="translate(0, 0)" d="M431.24,315.54432A3,3,0,1,1,437.24,315.54432A3,3,0,1,1,431.24,315.54432Z" id="point-0-21" opacity="1"/><path class="data-point" fill="#11A579" data-type="point" transform="translate(0, 0)" d="M449.16,310.99536A3,3,0,1,1,455.16,310.99536A3,3,0,1,1,449.16,310.99536Z" id="point-0-22" opacity="1"/><path class="data-point" fill="#11A579" data-type="point" transform="translate(0, 0)" d="M467.08,310.99536A3,3,0,1,1,473.08,310.99536A3,3,0,1,1,467.08,310.99536Z" id="point-0-23" opacity="1"/><path class="data-point" fill="#11A579" data-type="point" transform="translate(0, 0)" d="M485,305.17344A3,3,0,1,1,491,305.17344A3,3,0,1,1,485,305.17344Z" id="point-0-24" opacity="1"/><path class="data-point" fill="#11A579" data-type="point" transform="translate(0, 0)" d="M502.92,301.9536A3,3,0,1,1,508.92,301.9536A3,3,0,1,1,502.92,301.9536Z" id="point-0-25" opacity="1"/><path class="data-point" fill="#11A579" data-type="point" transform="translate(0, 0)" d="M520.84,298.0224A3,3,0,1,1,526.84,298.0224A3,3,0,1,1,520.84,298.0224Z" id="point-0-26" opacity="1"/><path class="data-point" fill="#11A579" data-type="point" transform="translate(0, 0)" d="M538.76,292.51872A3,3,0,1,1,544.76,292.51872A3,3,0,1,1,538.76,292.51872Z" id="point-0-27" opacity="1"/><path class="data-point" fill="#11A579" data-type="point" transform="translate(0, 0)" d="M556.68,287.3813904A3,3,0,1,1,562.68,287.3813904A3,3,0,1,1,556.68,287.3813904Z" id="point-0-28" opacity="1"/><path class="data-point" fill="#11A579" data-type="point" transform="translate(0, 0)" d="M574.6,276.310944A3,3,0,1,1,580.6,276.310944A3,3,0,1,1,574.6,276.310944Z" id="point-0-29" opacity="1"/><path class="data-point" fill="#11A579" data-type="point" transform="translate(0, 0)" d="M592.52,264.7932768A3,3,0,1,1,598.52,264.7932768A3,3,0,1,1,592.52,264.7932768Z" id="point-0-30" opacity="1"/><path class="data-point" fill="#11A579" data-type="point" transform="translate(0, 0)" d="M610.44,252.81079199999994A3,3,0,1,1,616.44,252.81079199999994A3,3,0,1,1,610.44,252.81079199999994Z" id="point-0-31" opacity="1"/><path class="data-point" fill="#11A579" data-type="point" transform="translate(0, 0)" d="M628.36,240.34458239999998A3,3,0,1,1,634.36,240.34458239999998A3,3,0,1,1,628.36,240.34458239999998Z" id="point-0-32" opacity="1"/><path class="data-point" fill="#11A579" data-type="point" transform="translate(0, 0)" d="M646.2800000000001,227.3751792A3,3,0,1,1,652.2800000000001,227.3751792A3,3,0,1,1,646.2800000000001,227.3751792Z" id="point-0-33" opacity="1"/><path class="data-point" fill="#11A579" data-type="point" transform="translate(0, 0)" d="M664.1999999999999,213.8819904A3,3,0,1,1,670.1999999999999,213.8819904A3,3,0,1,1,664.1999999999999,213.8819904Z" id="point-0-34" opacity="1"/><path class="data-point" fill="#11A579" data-type="point" transform="translate(0, 0)" d="M682.12,199.84423679999998A3,3,0,1,1,688.12,199.84423679999998A3,3,0,1,1,682.12,199.84423679999998Z" id="point-0-35" opacity="1"/><path class="data-point" fill="#11A579" data-type="point" transform="translate(0, 0)" d="M700.04,185.23964159999997A3,3,0,1,1,706.04,185.23964159999997A3,3,0,1,1,700.04,185.23964159999997Z" id="point-0-36" opacity="1"/><path class="data-point" fill="#11A579" data-type="point" transform="translate(0, 0)" d="M717.96,170.0455536A3,3,0,1,1,723.96,170.0455536A3,3,0,1,1,717.96,170.0455536Z" id="point-0-37" opacity="1"/><path class="data-point" fill="#11A579" data-type="point" transform="translate(0, 0)" d="M735.88,154.237824A3,3,0,1,1,741.88,154.237824A3,3,0,1,1,735.88,154.237824Z" id="point-0-38" opacity="1"/><path class="data-point" fill="#11A579" data-type="point" transform="translate(0, 0)" d="M753.8000000000001,137.79211679999997A3,3,0,1,1,759.8000000000001,137.79211679999997A3,3,0,1,1,753.8000000000001,137.79211679999997Z" id="point-0-39" opacity="1"/><path class="data-point" fill="#11A579" data-type="point" transform="translate(0, 0)" d="M771.7199999999999,120.68241119999999A3,3,0,1,1,777.7199999999999,120.68241119999999A3,3,0,1,1,771.7199999999999,120.68241119999999Z" id="point-0-40" opacity="1"/><path class="data-point" fill="#11A579" data-type="point" transform="translate(0, 0)" d="M789.64,102.88193760000001A3,3,0,1,1,795.64,102.88193760000001A3,3,0,1,1,789.64,102.88193760000001Z" id="point-0-41" opacity="1"/><path class="data-point" fill="#11A579" data-type="point" transform="translate(0, 0)" d="M807.56,84.3629904A3,3,0,1,1,813.56,84.3629904A3,3,0,1,1,807.56,84.3629904Z" id="point-0-42" opacity="1"/><path class="data-point" fill="#11A579" data-type="point" transform="translate(0, 0)" d="M825.48,65.0961792A3,3,0,1,1,831.48,65.0961792A3,3,0,1,1,825.48,65.0961792Z" id="point-0-43" opacity="1"/><path class="data-point" fill="#11A579" data-type="point" transform="translate(0, 0)" d="M843.4,45.05173920000004A3,3,0,1,1,849.4,45.05173920000004A3,3,0,1,1,843.4,45.05173920000004Z" id="point-0-44" opacity="1"/><path class="data-point" fill="#11A579" data-type="point" transform="translate(0, 0)" d="M861.32,24.19803360000003A3,3,0,1,1,867.32,24.19803360000003A3,3,0,1,1,861.32,24.19803360000003Z" id="point-0-45" opacity="1"/><path class="data-point" fill="#11A579" data-type="point" transform="translate(0, 0)" d="M879.24,2.5023023999999623A3,3,0,1,1,885.24,2.5023023999999623A3,3,0,1,1,879.24,2.5023023999999623Z" id="point-0-46" opacity="1"/></g><g class="series" transform="translate(15,20)"><path class="data-point" fill="#802392" data-type="point" transform="translate(0, 0)" d="M54.92,507.0312A3,3,0,1,1,60.92,507.0312A3,3,0,1,1,54.92,507.0312Z" id="point-1-0" opacity="1"/><path class="data-point" fill="#802392" data-type="point" transform="translate(0, 0)" d="M72.84,502.48224000000005A3,3,0,1,1,78.84,502.48224000000005A3,3,0,1,1,72.84,502.48224000000005Z" id="point-1-1" opacity="1"/><path class="data-point" fill="#802392" data-type="point" transform="translate(0, 0)" d="M90.75999999999999,500.06736A3,3,0,1,1,96.75999999999999,500.06736A3,3,0,1,1,90.75999999999999,500.06736Z" id="point-1-2" opacity="1"/><path class="data-point" fill="#802392" data-type="point" transform="translate(0, 0)" d="M108.68,496.47312A3,3,0,1,1,114.68,496.47312A3,3,0,1,1,108.68,496.47312Z" id="point-1-3" opacity="1"/><path class="data-point" fill="#802392" data-type="point" transform="translate(0, 0)" d="M126.60000000000002,492.67296A3,3,0,1,1,132.60000000000002,492.67296A3,3,0,1,1,126.60000000000002,492.67296Z" id="point-1-4" opacity="1"/><path class="data-point" fill="#802392" data-type="point" transform="translate(0, 0)" d="M144.51999999999998,487.2816A3,3,0,1,1,150.51999999999998,487.2816A3,3,0,1,1,144.51999999999998,487.2816Z" id="point-1-5" opacity="1"/><path class="data-point" fill="#802392" data-type="point" transform="translate(0, 0)" d="M162.44,480.84192A3,3,0,1,1,168.44,480.84192A3,3,0,1,1,162.44,480.84192Z" id="point-1-6" opacity="1"/><path class="data-point" fill="#802392" data-type="point" transform="translate(0, 0)" d="M180.36,474.02784A3,3,0,1,1,186.36,474.02784A3,3,0,1,1,180.36,474.02784Z" id="point-1-7" opacity="1"/><path class="data-point" fill="#802392" data-type="point" transform="translate(0, 0)" d="M198.28,467.83152A3,3,0,1,1,204.28,467.83152A3,3,0,1,1,198.28,467.83152Z" id="point-1-8" opacity="1"/><path class="data-point" fill="#802392" data-type="point" transform="translate(0, 0)" d="M216.20000000000002,461.24208A3,3,0,1,1,222.20000000000002,461.24208A3,3,0,1,1,216.20000000000002,461.24208Z" id="point-1-9" opacity="1"/><path class="data-point" fill="#802392" data-type="point" transform="translate(0, 0)" d="M234.12,451.9008A3,3,0,1,1,240.12,451.9008A3,3,0,1,1,234.12,451.9008Z" id="point-1-10" opacity="1"/><path class="data-point" fill="#802392" data-type="point" transform="translate(0, 0)" d="M252.04,439.39584A3,3,0,1,1,258.03999999999996,439.39584A3,3,0,1,1,252.04,439.39584Z" id="point-1-11" opacity="1"/><path class="data-point" fill="#802392" data-type="point" transform="translate(0, 0)" d="M269.96000000000004,426.94704A3,3,0,1,1,275.96000000000004,426.94704A3,3,0,1,1,269.96000000000004,426.94704Z" id="point-1-12" opacity="1"/><path class="data-point" fill="#802392" data-type="point" transform="translate(0, 0)" d="M287.88,414.10512000000006A3,3,0,1,1,293.88,414.10512000000006A3,3,0,1,1,287.88,414.10512000000006Z" id="point-1-13" opacity="1"/><path class="data-point" fill="#802392" data-type="point" transform="translate(0, 0)" d="M305.8,402.36768A3,3,0,1,1,311.8,402.36768A3,3,0,1,1,305.8,402.36768Z" id="point-1-14" opacity="1"/><path class="data-point" fill="#802392" data-type="point" transform="translate(0, 0)" d="M323.72,388.81440000000003A3,3,0,1,1,329.72,388.81440000000003A3,3,0,1,1,323.72,388.81440000000003Z" id="point-1-15" opacity="1"/><path class="data-point" fill="#802392" data-type="point" transform="translate(0, 0)" d="M341.64000000000004,376.96464000000003A3,3,0,1,1,347.64000000000004,376.96464000000003A3,3,0,1,1,341.64000000000004,376.96464000000003Z" id="point-1-16" opacity="1"/><path class="data-point" fill="#802392" data-type="point" transform="translate(0, 0)" d="M359.56,362.53152A3,3,0,1,1,365.56,362.53152A3,3,0,1,1,359.56,362.53152Z" id="point-1-17" opacity="1"/><path class="data-point" fill="#802392" data-type="point" transform="translate(0, 0)" d="M377.48,355.24944000000005A3,3,0,1,1,383.48,355.24944000000005A3,3,0,1,1,377.48,355.24944000000005Z" id="point-1-18" opacity="1"/><path class="data-point" fill="#802392" data-type="point" transform="translate(0, 0)" d="M395.40000000000003,346.90032A3,3,0,1,1,401.40000000000003,346.90032A3,3,0,1,1,395.40000000000003,346.90032Z" id="point-1-19" opacity="1"/><path class="data-point" fill="#802392" data-type="point" transform="translate(0, 0)" d="M413.32,335.51856A3,3,0,1,1,419.32,335.51856A3,3,0,1,1,413.32,335.51856Z" id="point-1-20" opacity="1"/><path class="data-point" fill="#802392" data-type="point" transform="translate(0, 0)" d="M431.24,327.95568000000003A3,3,0,1,1,437.24,327.95568000000003A3,3,0,1,1,431.24,327.95568000000003Z" id="point-1-21" opacity="1"/><path class="data-point" fill="#802392" data-type="point" transform="translate(0, 0)" d="M449.16,325.09152A3,3,0,1,1,455.16,325.09152A3,3,0,1,1,449.16,325.09152Z" id="point-1-22" opacity="1"/><path class="data-point" fill="#802392" data-type="point" transform="translate(0, 0)" d="M467.08,320.22432000000003A3,3,0,1,1,473.08,320.22432000000003A3,3,0,1,1,467.08,320.22432000000003Z" id="point-1-23" opacity="1"/><path class="data-point" fill="#802392" data-type="point" transform="translate(0, 0)" d="M485,314.53344000000004A3,3,0,1,1,491,314.53344000000004A3,3,0,1,1,485,314.53344000000004Z" id="point-1-24" opacity="1"/><path class="data-point" fill="#802392" data-type="point" transform="translate(0, 0)" d="M502.92,309.55392000000006A3,3,0,1,1,508.92,309.55392000000006A3,3,0,1,1,502.92,309.55392000000006Z" id="point-1-25" opacity="1"/><path class="data-point" fill="#802392" data-type="point" transform="translate(0, 0)" d="M520.84,303.78816A3,3,0,1,1,526.84,303.78816A3,3,0,1,1,520.84,303.78816Z" id="point-1-26" opacity="1"/><path class="data-point" fill="#802392" data-type="point" transform="translate(0, 0)" d="M538.76,297.79776A3,3,0,1,1,544.76,297.79776A3,3,0,1,1,538.76,297.79776Z" id="point-1-27" opacity="1"/><path class="data-point" fill="#802392" data-type="point" transform="translate(0, 0)" d="M556.68,293.15725920000006A3,3,0,1,1,562.68,293.15725920000006A3,3,0,1,1,556.68,293.15725920000006Z" id="point-1-28" opacity="1"/><path class="data-point" fill="#802392" data-type="point" transform="translate(0, 0)" d="M574.6,282.0881232A3,3,0,1,1,580.6,282.0881232A3,3,0,1,1,574.6,282.0881232Z" id="point-1-29" opacity="1"/><path class="data-point" fill="#802392" data-type="point" transform="translate(0, 0)" d="M592.52,270.56240640000004A3,3,0,1,1,598.52,270.56240640000004A3,3,0,1,1,592.52,270.56240640000004Z" id="point-1-30" opacity="1"/><path class="data-point" fill="#802392" data-type="point" transform="translate(0, 0)" d="M610.44,258.56157599999995A3,3,0,1,1,616.44,258.56157599999995A3,3,0,1,1,610.44,258.56157599999995Z" id="point-1-31" opacity="1"/><path class="data-point" fill="#802392" data-type="point" transform="translate(0, 0)" d="M628.36,246.0657888A3,3,0,1,1,634.36,246.0657888A3,3,0,1,1,628.36,246.0657888Z" id="point-1-32" opacity="1"/><path class="data-point" fill="#802392" data-type="point" transform="translate(0, 0)" d="M646.2800000000001,233.05464A3,3,0,1,1,652.2800000000001,233.05464A3,3,0,1,1,646.2800000000001,233.05464Z" id="point-1-33" opacity="1"/><path class="data-point" fill="#802392" data-type="point" transform="translate(0, 0)" d="M664.1999999999999,219.50716320000004A3,3,0,1,1,670.1999999999999,219.50716320000004A3,3,0,1,1,664.1999999999999,219.50716320000004Z" id="point-1-34" opacity="1"/><path class="data-point" fill="#802392" data-type="point" transform="translate(0, 0)" d="M682.12,205.40089440000003A3,3,0,1,1,688.12,205.40089440000003A3,3,0,1,1,682.12,205.40089440000003Z" id="point-1-35" opacity="1"/><path class="data-point" fill="#802392" data-type="point" transform="translate(0, 0)" d="M700.04,190.71318239999994A3,3,0,1,1,706.04,190.71318239999994A3,3,0,1,1,700.04,190.71318239999994Z" id="point-1-36" opacity="1"/><path class="data-point" fill="#802392" data-type="point" transform="translate(0, 0)" d="M717.96,175.41950400000002A3,3,0,1,1,723.96,175.41950400000002A3,3,0,1,1,717.96,175.41950400000002Z" id="point-1-37" opacity="1"/><path class="data-point" fill="#802392" data-type="point" transform="translate(0, 0)" d="M735.88,159.49552320000004A3,3,0,1,1,741.88,159.49552320000004A3,3,0,1,1,735.88,159.49552320000004Z" id="point-1-38" opacity="1"/><path class="data-point" fill="#802392" data-type="point" transform="translate(0, 0)" d="M753.8000000000001,142.91465760000006A3,3,0,1,1,759.8000000000001,142.91465760000006A3,3,0,1,1,753.8000000000001,142.91465760000006Z" id="point-1-39" opacity="1"/><path class="data-point" fill="#802392" data-type="point" transform="translate(0, 0)" d="M771.7199999999999,125.65013760000005A3,3,0,1,1,777.7199999999999,125.65013760000005A3,3,0,1,1,771.7199999999999,125.65013760000005Z" id="point-1-40" opacity="1"/><path class="data-point" fill="#802392" data-type="point" transform="translate(0, 0)" d="M789.64,107.67388320000003A3,3,0,1,1,795.64,107.67388320000003A3,3,0,1,1,789.64,107.67388320000003Z" id="point-1-41" opacity="1"/><path class="data-point" fill="#802392" data-type="point" transform="translate(0, 0)" d="M807.56,88.95631679999997A3,3,0,1,1,813.56,88.95631679999997A3,3,0,1,1,807.56,88.95631679999997Z" id="point-1-42" opacity="1"/><path class="data-point" fill="#802392" data-type="point" transform="translate(0, 0)" d="M825.48,69.46673759999999A3,3,0,1,1,831.48,69.46673759999999A3,3,0,1,1,825.48,69.46673759999999Z" id="point-1-43" opacity="1"/><path class="data-point" fill="#802392" data-type="point" transform="translate(0, 0)" d="M843.4,49.17369599999995A3,3,0,1,1,849.4,49.17369599999995A3,3,0,1,1,843.4,49.17369599999995Z" id="point-1-44" opacity="1"/><path class="data-point" fill="#802392" data-type="point" transform="translate(0, 0)" d="M861.32,28.04387040000006A3,3,0,1,1,867.32,28.04387040000006A3,3,0,1,1,861.32,28.04387040000006Z" id="point-1-45" opacity="1"/><path class="data-point" fill="#802392" data-type="point" transform="translate(0, 0)" d="M879.24,6.042628799999989A3,3,0,1,1,885.24,6.042628799999989A3,3,0,1,1,879.24,6.042628799999989Z" id="point-1-46" opacity="1"/></g></g><g id="data-labels"/><g class="annotations above"><g class="axis-highlights" transform="translate(15, 20)" style="opacity: 1;"/></g></svg>