<svg xmlns="http://www.w3.org/2000/svg" id="graphic" width="883" height="598.18"><g id="facets"><g class="facet" transform="translate(50,10)" opacity="1"><text class="facet-title" y="0" font-size="16" font-weight="bold" dominant-baseline="middle" x="0" clip-path="url(#facet-clip-0)" fill="black"/><g class="plot"><clipPath class="facet-clip" id="facet-clip-0"><rect width="838" height="563.18" transform="translate(-7.5,-10)"/></clipPath><g class="bg"><rect fill="none" width="823" height="543.18" style="fill: none;"/></g><g class="interaction"><g class="series"><path data-target="point-0-0" d="M0,490.118721L24.7442947914,490.118721L24.605560200000006,486.06215399999996L0,404.04361999999975Z" style="opacity: 0;"/><path data-target="point-0-1" d="M0,404.04361999999975L24.605560200000006,486.06215399999996L41.055871844,486.06215399999996L41.2633271,482.22038999999995L0,320.4034209803938Z" style="opacity: 0;"/><path data-target="point-0-2" d="M0,320.4034209803938L41.2633271,482.22038999999995L57.4158706777,482.22038999999995L57.783390462999996,479.55140099999994L0,101.88218228757842Z" style="opacity: 0;"/><path data-target="point-0-3" d="M0,101.88218228757842L57.783390462999996,479.55140099999994L73.9055023812,479.55140099999994L74.227058028,476.670078L0,42.59371526315857Z" style="opacity: 0;"/><path data-target="point-0-4" d="M0,42.59371526315857L74.227058028,476.670078L90.4101428888,476.670078L90.63043891999999,473.42087399999997L19.483133381816543,78.15806545453864L1.9757267199998694,0L0,0Z" style="opacity: 0;"/><path data-target="point-0-5" d="M19.483133381816543,78.15806545453864L90.63043891999999,473.42087399999997L106.93715549919999,473.42087399999997L107.042263792,469.845762L43.71075462400721,176.64433066669585Z" style="opacity: 0;"/><path data-target="point-0-6" d="M43.71075462400721,176.64433066669585L107.042263792,469.845762L123.45613299600001,469.845762L123.44318555999999,465.52995Z" style="opacity: 0;"/><path data-target="point-0-7" d="M1.9757267199998694,0L19.483133381816543,78.15806545453864L43.71075462400721,176.64433066669585L123.44318555999999,465.52995L139.8172428797,465.52994999999993L139.990114112,462.120261L70.9821938893436,102.7040098403267L40.97208221400019,0Z" style="opacity: 0;"/><path data-target="point-0-8" d="M70.9821938893436,102.7040098403267L139.990114112,462.120261L156.3543608602,462.120261L156.38487918159998,458.352567L94.4428507164439,180.83451832098643L81.3844188307674,135.49274094016528Z" style="opacity: 0;"/><path data-target="point-0-9" d="M94.4428507164439,180.83451832098643L156.38487918159998,458.352567L172.9252480944,458.352567L172.7390338923,453.95034L132.0181210776963,298.11064304399616Z" style="opacity: 0;"/><path data-target="point-0-10" d="M132.0181210776963,298.11064304399616L172.7390338923,453.95034L189.5882050793,453.95034L188.9461263215,448.118562Z" style="opacity: 0;"/><path data-target="point-0-11" d="M81.3844188307674,135.49274094016528L94.4428507164439,180.83451832098643L132.0181210776963,298.11064304399616L188.9461263215,448.118562L206.24544534159998,448.118562L205.26602662,441.373254Z" style="opacity: 0;"/><path data-target="point-0-12" d="M40.97208221400019,0L70.9821938893436,102.7040098403267L81.3844188307674,135.49274094016528L205.26602662,441.373254L222.7200512049,441.373254L221.744284875,434.90694299999996L58.65418124999974,0Z" style="opacity: 0;"/><path data-target="point-0-13" d="M58.65418124999974,0L221.744284875,434.90694299999996L239.2773132626,434.90694299999996L238.14482888599997,428.67765599999996L91.29264447198457,10.295364222180183L87.44732593500028,0Z" style="opacity: 0;"/><path data-target="point-0-14" d="M91.29264447198457,10.295364222180183L238.14482888599997,428.67765599999996L255.980427298,428.67765599999996L254.322399976,421.986666Z" style="opacity: 0;"/><path data-target="point-0-15" d="M87.44732593500028,0L91.29264447198457,10.295364222180183L254.322399976,421.986666L272.9249013912,421.986666L270.397532256,414.451278L91.35458015999941,0Z" style="opacity: 0;"/><path data-target="point-0-16" d="M91.35458015999941,0L270.397532256,414.451278L289.39074403279994,414.451278L286.72340629999997,407.004774L103.5712580000002,0Z" style="opacity: 0;"/><path data-target="point-0-17" d="M103.5712580000002,0L286.72340629999997,407.004774L305.351820364,407.004774L303.599738956,400.684134L143.72676949000018,0Z" style="opacity: 0;"/><path data-target="point-0-18" d="M143.72676949000018,0L303.599738956,400.684134L322.2874030944,400.684134L319.773132498,393.370956L153.37721810999972,-5.684341886080802e-14Z" style="opacity: 0;"/><path data-target="point-0-19" d="M153.37721810999972,-5.684341886080802e-14L319.773132498,393.370956L338.615534792,393.370956L336.19717892,386.29974L166.99789280000013,0Z" style="opacity: 0;"/><path data-target="point-0-20" d="M166.99789280000013,0L336.19717892,386.29974L354.8936670175,386.29974L352.76980235499997,379.324815L266.8210830638918,187.04580092593207L173.1111367999998,0Z" style="opacity: 0;"/><path data-target="point-0-21" d="M266.8210830638918,187.04580092593207L352.76980235499997,379.324815L370.8995519952,379.324815L369.45108648,371.964726Z" style="opacity: 0;"/><path data-target="point-0-22" d="M173.1111367999998,0L266.8210830638918,187.04580092593207L369.45108648,371.964726L386.6711276384,371.964726L387.024921512,365.624334L215.91273319999965,0Z" style="opacity: 0;"/><path data-target="point-0-23" d="M215.91273319999965,0L387.024921512,365.624334L403.1974825072,365.624334L405.18296144799996,361.703562L239.16102649000047,0Z" style="opacity: 0;"/><path data-target="point-0-24" d="M239.16102649000047,0L405.18296144799996,361.703562L417.85366987049997,361.703562L421.72522359,354.708885L266.36273196000013,0Z" style="opacity: 0;"/><path data-target="point-0-25" d="M266.36273196000013,0L421.72522359,354.708885L434.57348446879996,354.708885L438.831017699,348.778347L282.9270965899998,0Z" style="opacity: 0;"/><path data-target="point-0-26" d="M282.9270965899998,0L438.831017699,348.778347L451.38006985,348.778347L456.52478687499996,343.697145L296.70561444999987,0Z" style="opacity: 0;"/><path data-target="point-0-27" d="M296.70561444999987,0L456.52478687499996,343.697145L466.07447080341586,343.697145L470.38050484976816,339.98300399999994L463.6144867466919,289.16989875276164L432.97118932388406,208.54895077691108L387.66822286387355,112.66762662539207L337.7760068887534,17.927447308778085L327.6335391970015,0Z" style="opacity: 0;"/><path data-target="point-0-28" d="M463.6144867466919,289.16989875276164L470.38050484976816,339.98300399999994L482.33303686419595,339.98300399999994L489.71002406501776,330.787781Z" style="opacity: 0;"/><path data-target="point-0-29" d="M432.97118932388406,208.54895077691108L463.6144867466919,289.16989875276164L489.71002406501776,330.787781L498.16877096624347,330.787781L506.9985478954386,321.1744085Z" style="opacity: 0;"/><path data-target="point-0-30" d="M387.66822286387355,112.66762662539207L432.97118932388406,208.54895077691108L506.9985478954386,321.1744085L513.9190887490693,321.1744085L524.4076586914738,311.1237265Z" style="opacity: 0;"/><path data-target="point-0-31" d="M337.7760068887534,17.927447308778085L387.66822286387355,112.66762662539207L524.4076586914738,311.1237265L529.5737311772339,311.1237265L541.9527965376234,300.61586Z" style="opacity: 0;"/><path data-target="point-0-32" d="M327.6335391970015,0L337.7760068887534,17.927447308778085L541.9527965376234,300.61586L545.1212273353076,300.61586L559.6513382064296,289.629798L340.36364419184633,0Z" style="opacity: 0;"/><path data-target="point-0-33" d="M340.36364419184633,0L559.6513382064296,289.629798L560.5489393062417,289.629798L576.3433259903143,278.9417673200136L576.975776711375,277.4546592226024L356.7672281817877,0Z" style="opacity: 0;"/><path data-target="point-0-34" d="M356.7672281817877,0L576.975776711375,277.4546592226024L592.295729157524,268.1373815785038L594.1464634548037,264.40147913022423L374.1694606230109,0Z" style="opacity: 0;"/><path data-target="point-0-35" d="M374.1694606230109,0L594.1464634548037,264.40147913022423L608.1152026725392,256.7379859832277L611.48336131783,250.8388088741348L392.71779919628807,0Z" style="opacity: 0;"/><path data-target="point-0-36" d="M392.71779919628807,0L611.48336131783,250.8388088741348L623.7896805651785,244.72855540576919L629.0049861725256,236.73365478103474L412.5754994676902,0Z" style="opacity: 0;"/><path data-target="point-0-37" d="M412.5754994676902,0L629.0049861725256,236.73365478103474L639.304956308929,232.09170769614315L646.7325677195288,222.05286200376366L433.926210831126,0Z" style="opacity: 0;"/><path data-target="point-0-38" d="M433.926210831126,0L646.7325677195288,222.05286200376366L654.6448181765107,218.80765327541692L664.6903860248217,206.7629110382402L456.97367742673214,0Z" style="opacity: 0;"/><path data-target="point-0-39" d="M456.97367742673214,0L664.6903860248217,206.7629110382402L669.79074263987,204.85456272922542L682.9060886817173,190.82965224929455L481.9435789881489,0Z" style="opacity: 0;"/><path data-target="point-0-40" d="M481.9435789881489,0L682.9060886817173,190.82965224929455L684.7216705954747,190.20859905976974L700.0253360873331,175.54572307356682L700.7912831602582,173.65664599880225L509.0863204789896,0Z" style="opacity: 0;"/><path data-target="point-0-41" d="M509.0863204789896,0L700.7912831602582,173.65664599880225L715.7126924270277,160.79510308005706L718.3286653015662,155.24019511699967L538.6830044359099,0Z" style="opacity: 0;"/><path data-target="point-0-42" d="M538.6830044359099,0L718.3286653015662,155.24019511699967L731.1811311469268,145.2382801906668L736.1327712608075,136.09367308736356L571.0422988902708,0Z" style="opacity: 0;"/><path data-target="point-0-43" d="M571.0422988902708,0L736.1327712608075,136.09367308736356L746.4077837987096,128.85140156763953L754.2358889339538,116.17315857984681L606.5085900916002,0Z" style="opacity: 0;"/><path data-target="point-0-44" d="M606.5085900916002,0L754.2358889339538,116.17315857984681L779.1006505582632,100.25433703898027L645.4626242649875,-1.4210854715202004e-14Z" style="opacity: 0;"/><path data-target="point-0-45" d="M645.4626242649875,-1.4210854715202004e-14L779.1006505582632,100.25433703898027L816.644794771016,91.83057849999999L688.3273555072865,0Z" style="opacity: 0;"/><path data-target="point-0-46" d="M688.3273555072865,0L816.644794771016,91.83057849999999L823,91.83057849999999L823,0Z" style="opacity: 0;"/><path data-target="point-1-0" d="M34.97981551050004,543.18L24.7442947914,490.118721L0,490.118721L0,543.18Z" style="opacity: 0;"/><path data-target="point-1-1" d="M24.605560200000006,486.06215399999996L24.7442947914,490.118721L34.97981551050004,543.18L53.15343162680014,543.18L41.055871844,486.06215399999996Z" style="opacity: 0;"/><path data-target="point-1-2" d="M41.055871844,486.06215399999996L53.15343162680014,543.18L67.85825187069993,543.18L57.4158706777,482.22038999999995L41.2633271,482.22038999999995Z" style="opacity: 0;"/><path data-target="point-1-3" d="M57.4158706777,482.22038999999995L67.85825187069993,543.18L85.30138446210006,543.18L73.9055023812,479.55140099999994L57.783390462999996,479.55140099999994Z" style="opacity: 0;"/><path data-target="point-1-4" d="M73.9055023812,479.55140099999994L85.30138446210006,543.18L104.69647413439986,543.18L90.4101428888,476.670078L74.227058028,476.670078Z" style="opacity: 0;"/><path data-target="point-1-5" d="M90.4101428888,476.670078L104.69647413439986,543.18L122.17254861760011,543.18L106.93715549919999,473.42087399999997L90.63043891999999,473.42087399999997Z" style="opacity: 0;"/><path data-target="point-1-6" d="M106.93715549919999,473.42087399999997L122.17254861760011,543.18L141.67235771519998,543.18L123.45613299600001,469.845762L107.042263792,469.845762Z" style="opacity: 0;"/><path data-target="point-1-7" d="M123.44318555999999,465.52995L123.45613299600001,469.845762L141.67235771519998,543.18L157.07884899469983,543.18L139.8172428797,465.52994999999993Z" style="opacity: 0;"/><path data-target="point-1-8" d="M139.8172428797,465.52994999999993L157.07884899469983,543.18L175.37097562959994,543.18L156.3543608602,462.120261L139.990114112,462.120261Z" style="opacity: 0;"/><path data-target="point-1-9" d="M156.3543608602,462.120261L175.37097562959994,543.18L196.1340337632001,543.18L172.9252480944,458.352567L156.38487918159998,458.352567Z" style="opacity: 0;"/><path data-target="point-1-10" d="M172.7390338923,453.95034L172.9252480944,458.352567L196.1340337632001,543.18L218.95368618530009,543.18L189.5882050793,453.95034Z" style="opacity: 0;"/><path data-target="point-1-11" d="M188.9461263215,448.118562L189.5882050793,453.95034L218.95368618530009,543.18L245.65791753640002,543.18L206.24544534159998,448.118562Z" style="opacity: 0;"/><path data-target="point-1-12" d="M205.26602662,441.373254L206.24544534159998,448.118562L245.65791753640002,543.18L264.53208178709974,543.18L222.7200512049,441.373254Z" style="opacity: 0;"/><path data-target="point-1-13" d="M221.744284875,434.90694299999996L222.7200512049,441.373254L264.53208178709974,543.18L283.2253470989003,543.18L239.2773132626,434.90694299999996Z" style="opacity: 0;"/><path data-target="point-1-14" d="M238.14482888599997,428.67765599999996L239.2773132626,434.90694299999996L283.2253470989003,543.18L303.7279047459997,543.18L255.980427298,428.67765599999996Z" style="opacity: 0;"/><path data-target="point-1-15" d="M254.322399976,421.986666L255.980427298,428.67765599999996L303.7279047459997,543.18L331.5339977136001,543.18L272.9249013912,421.986666Z" style="opacity: 0;"/><path data-target="point-1-16" d="M270.397532256,414.451278L272.9249013912,421.986666L331.5339977136001,543.18L347.93656679839984,543.18L289.39074403279994,414.451278Z" style="opacity: 0;"/><path data-target="point-1-17" d="M286.72340629999997,407.004774L289.39074403279994,414.451278L347.93656679839984,543.18L355.60047875800024,543.18L305.351820364,407.004774Z" style="opacity: 0;"/><path data-target="point-1-18" d="M303.599738956,400.684134L305.351820364,407.004774L355.60047875800024,543.18L388.63347830399994,543.18L322.2874030944,400.684134Z" style="opacity: 0;"/><path data-target="point-1-19" d="M319.773132498,393.370956L322.2874030944,400.684134L388.63347830399994,543.18L401.71510412480006,543.18L338.615534792,393.370956Z" style="opacity: 0;"/><path data-target="point-1-20" d="M336.19717892,386.29974L338.615534792,393.370956L401.71510412480006,543.18L417.72421114749955,543.18L354.8936670175,386.29974Z" style="opacity: 0;"/><path data-target="point-1-21" d="M352.76980235499997,379.324815L354.8936670175,386.29974L417.72421114749955,543.18L423.74306461910004,543.18L418.68674692045437,520.1653541254179L370.8995519952,379.324815Z" style="opacity: 0;"/><path data-target="point-1-22" d="M369.45108648,371.964726L370.8995519952,379.324815L418.68674692045437,520.1653541254179L404.32351828168083,430.33903368280687L386.6711276384,371.964726Z" style="opacity: 0;"/><path data-target="point-1-23" d="M386.6711276384,371.964726L404.32351828168083,430.33903368280687L403.1974825072,365.624334L387.024921512,365.624334Z" style="opacity: 0;"/><path data-target="point-1-24" d="M403.1974825072,365.624334L404.32351828168083,430.33903368280687L418.68674692045437,520.1653541254179L423.74306461910004,543.18L486.58329266089993,543.18L474.3099154929694,499.2366517438935L473.35014588700994,496.43644866304896L417.85366987049997,361.703562L405.18296144799996,361.703562Z" style="opacity: 0;"/><path data-target="point-1-25" d="M417.85366987049997,361.703562L473.35014588700994,496.43644866304896L434.57348446879996,354.708885L421.72522359,354.708885Z" style="opacity: 0;"/><path data-target="point-1-26" d="M434.57348446879996,354.708885L473.35014588700994,496.43644866304896L474.3099154929694,499.2366517438935L451.38006985,348.778347L438.831017699,348.778347Z" style="opacity: 0;"/><path data-target="point-1-27" d="M451.38006985,348.778347L474.3099154929694,499.2366517438935L486.58329266089993,543.18L529.5375415101662,543.18L466.07447080341586,343.697145L456.52478687499996,343.697145Z" style="opacity: 0;"/><path data-target="point-1-28" d="M466.07447080341586,343.697145L529.5375415101662,543.18L581.9511789163631,543.18L482.33303686419595,339.98300399999994L470.38050484976816,339.98300399999994Z" style="opacity: 0;"/><path data-target="point-1-29" d="M482.33303686419595,339.98300399999994L581.9511789163631,543.18L606.658935791572,543.18L498.16877096624347,330.787781L489.71002406501776,330.787781Z" style="opacity: 0;"/><path data-target="point-1-30" d="M498.16877096624347,330.787781L606.658935791572,543.18L632.0724607074317,543.18L513.9190887490693,321.1744085L506.9985478954386,321.1744085Z" style="opacity: 0;"/><path data-target="point-1-31" d="M513.9190887490693,321.1744085L632.0724607074317,543.18L658.2507957945938,543.18L529.5737311772339,311.1237265L524.4076586914738,311.1237265Z" style="opacity: 0;"/><path data-target="point-1-32" d="M529.5737311772339,311.1237265L658.2507957945938,543.18L685.2624086984131,543.18L545.1212273353076,300.61586L541.9527965376234,300.61586Z" style="opacity: 0;"/><path data-target="point-1-33" d="M545.1212273353076,300.61586L685.2624086984131,543.18L713.176533396496,543.18L560.5489393062417,289.629798L559.6513382064296,289.629798Z" style="opacity: 0;"/><path data-target="point-1-34" d="M560.5489393062417,289.629798L713.176533396496,543.18L742.069837202066,543.18L576.3433259903143,278.9417673200136Z" style="opacity: 0;"/><path data-target="point-1-35" d="M576.3433259903143,278.9417673200136L742.069837202066,543.18L772.0275583193375,543.18L592.295729157524,268.1373815785038L576.975776711375,277.4546592226024Z" style="opacity: 0;"/><path data-target="point-1-36" d="M592.295729157524,268.1373815785038L772.0275583193375,543.18L803.1409707444963,543.18L608.1152026725392,256.7379859832277L594.1464634548037,264.40147913022423Z" style="opacity: 0;"/><path data-target="point-1-37" d="M608.1152026725392,256.7379859832277L803.1409707444963,543.18L823,543.18L823,525.549334204433L623.7896805651785,244.72855540576919L611.48336131783,250.8388088741348Z" style="opacity: 0;"/><path data-target="point-1-38" d="M623.7896805651785,244.72855540576919L823,525.549334204433L823,480.6251368568701L639.304956308929,232.09170769614315L629.0049861725256,236.73365478103474Z" style="opacity: 0;"/><path data-target="point-1-39" d="M639.304956308929,232.09170769614315L823,480.6251368568701L823,437.4249075532197L654.6448181765107,218.80765327541692L646.7325677195288,222.05286200376366Z" style="opacity: 0;"/><path data-target="point-1-40" d="M654.6448181765107,218.80765327541692L823,437.4249075532197L823,395.8023685730994L669.79074263987,204.85456272922542L664.6903860248217,206.7629110382402Z" style="opacity: 0;"/><path data-target="point-1-41" d="M669.79074263987,204.85456272922542L823,395.8023685730994L823,355.6154749894582L684.7216705954747,190.20859905976974L682.9060886817173,190.82965224929455Z" style="opacity: 0;"/><path data-target="point-1-42" d="M684.7216705954747,190.20859905976974L823,355.6154749894582L823,316.73038660385896L700.0253360873331,175.54572307356682Z" style="opacity: 0;"/><path data-target="point-1-43" d="M700.0253360873331,175.54572307356682L823,316.73038660385896L823,279.0149053775851L715.7126924270277,160.79510308005706L700.7912831602582,173.65664599880225Z" style="opacity: 0;"/><path data-target="point-1-44" d="M715.7126924270277,160.79510308005706L823,279.0149053775851L823,242.3440696195446L731.1811311469268,145.2382801906668L718.3286653015662,155.24019511699967Z" style="opacity: 0;"/><path data-target="point-1-45" d="M731.1811311469268,145.2382801906668L823,242.3440696195446L823,206.59587014359462L746.4077837987096,128.85140156763953L736.1327712608075,136.09367308736356Z" style="opacity: 0;"/><path data-target="point-1-46" d="M746.4077837987096,128.85140156763953L823,206.59587014359462L823,91.83057849999999L816.644794771016,91.83057849999999L779.1006505582632,100.25433703898027L754.2358889339538,116.17315857984681Z" style="opacity: 0;"/></g><g class="series"><path data-target="point-0-0" d="M0,490.118721L24.7442947914,490.118721L24.605560200000006,486.06215399999996L0,404.04361999999975Z" style="opacity: 0;"/><path data-target="point-0-1" d="M0,404.04361999999975L24.605560200000006,486.06215399999996L41.055871844,486.06215399999996L41.2633271,482.22038999999995L0,320.4034209803938Z" style="opacity: 0;"/><path data-target="point-0-2" d="M0,320.4034209803938L41.2633271,482.22038999999995L57.4158706777,482.22038999999995L57.783390462999996,479.55140099999994L0,101.88218228757842Z" style="opacity: 0;"/><path data-target="point-0-3" d="M0,101.88218228757842L57.783390462999996,479.55140099999994L73.9055023812,479.55140099999994L74.227058028,476.670078L0,42.59371526315857Z" style="opacity: 0;"/><path data-target="point-0-4" d="M0,42.59371526315857L74.227058028,476.670078L90.4101428888,476.670078L90.63043891999999,473.42087399999997L19.483133381816543,78.15806545453864L1.9757267199998694,0L0,0Z" style="opacity: 0;"/><path data-target="point-0-5" d="M19.483133381816543,78.15806545453864L90.63043891999999,473.42087399999997L106.93715549919999,473.42087399999997L107.042263792,469.845762L43.71075462400721,176.64433066669585Z" style="opacity: 0;"/><path data-target="point-0-6" d="M43.71075462400721,176.64433066669585L107.042263792,469.845762L123.45613299600001,469.845762L123.44318555999999,465.52995Z" style="opacity: 0;"/><path data-target="point-0-7" d="M1.9757267199998694,0L19.483133381816543,78.15806545453864L43.71075462400721,176.64433066669585L123.44318555999999,465.52995L139.8172428797,465.52994999999993L139.990114112,462.120261L70.9821938893436,102.7040098403267L40.97208221400019,0Z" style="opacity: 0;"/><path data-target="point-0-8" d="M70.9821938893436,102.7040098403267L139.990114112,462.120261L156.3543608602,462.120261L156.38487918159998,458.352567L94.4428507164439,180.83451832098643L81.3844188307674,135.49274094016528Z" style="opacity: 0;"/><path data-target="point-0-9" d="M94.4428507164439,180.83451832098643L156.38487918159998,458.352567L172.9252480944,458.352567L172.7390338923,453.95034L132.0181210776963,298.11064304399616Z" style="opacity: 0;"/><path data-target="point-0-10" d="M132.0181210776963,298.11064304399616L172.7390338923,453.95034L189.5882050793,453.95034L188.9461263215,448.118562Z" style="opacity: 0;"/><path data-target="point-0-11" d="M81.3844188307674,135.49274094016528L94.4428507164439,180.83451832098643L132.0181210776963,298.11064304399616L188.9461263215,448.118562L206.24544534159998,448.118562L205.26602662,441.373254Z" style="opacity: 0;"/><path data-target="point-0-12" d="M40.97208221400019,0L70.9821938893436,102.7040098403267L81.3844188307674,135.49274094016528L205.26602662,441.373254L222.7200512049,441.373254L221.744284875,434.90694299999996L58.65418124999974,0Z" style="opacity: 0;"/><path data-target="point-0-13" d="M58.65418124999974,0L221.744284875,434.90694299999996L239.2773132626,434.90694299999996L238.14482888599997,428.67765599999996L91.29264447198457,10.295364222180183L87.44732593500028,0Z" style="opacity: 0;"/><path data-target="point-0-14" d="M91.29264447198457,10.295364222180183L238.14482888599997,428.67765599999996L255.980427298,428.67765599999996L254.322399976,421.986666Z" style="opacity: 0;"/><path data-target="point-0-15" d="M87.44732593500028,0L91.29264447198457,10.295364222180183L254.322399976,421.986666L272.9249013912,421.986666L270.397532256,414.451278L91.35458015999941,0Z" style="opacity: 0;"/><path data-target="point-0-16" d="M91.35458015999941,0L270.397532256,414.451278L289.39074403279994,414.451278L286.72340629999997,407.004774L103.5712580000002,0Z" style="opacity: 0;"/><path data-target="point-0-17" d="M103.5712580000002,0L286.72340629999997,407.004774L305.351820364,407.004774L303.599738956,400.684134L143.72676949000018,0Z" style="opacity: 0;"/><path data-target="point-0-18" d="M143.72676949000018,0L303.599738956,400.684134L322.2874030944,400.684134L319.773132498,393.370956L153.37721810999972,-5.684341886080802e-14Z" style="opacity: 0;"/><path data-target="point-0-19" d="M153.37721810999972,-5.684341886080802e-14L319.773132498,393.370956L338.615534792,393.370956L336.19717892,386.29974L166.99789280000013,0Z" style="opacity: 0;"/><path data-target="point-0-20" d="M166.99789280000013,0L336.19717892,386.29974L354.8936670175,386.29974L352.76980235499997,379.324815L266.8210830638918,187.04580092593207L173.1111367999998,0Z" style="opacity: 0;"/><path data-target="point-0-21" d="M266.8210830638918,187.04580092593207L352.76980235499997,379.324815L370.8995519952,379.324815L369.45108648,371.964726Z" style="opacity: 0;"/><path data-target="point-0-22" d="M173.1111367999998,0L266.8210830638918,187.04580092593207L369.45108648,371.964726L386.6711276384,371.964726L387.024921512,365.624334L215.91273319999965,0Z" style="opacity: 0;"/><path data-target="point-0-23" d="M215.91273319999965,0L387.024921512,365.624334L403.1974825072,365.624334L405.18296144799996,361.703562L239.16102649000047,0Z" style="opacity: 0;"/><path data-target="point-0-24" d="M239.16102649000047,0L405.18296144799996,361.703562L417.85366987049997,361.703562L421.72522359,354.708885L266.36273196000013,0Z" style="opacity: 0;"/><path data-target="point-0-25" d="M266.36273196000013,0L421.72522359,354.708885L434.57348446879996,354.708885L438.831017699,348.778347L282.9270965899998,0Z" style="opacity: 0;"/><path data-target="point-0-26" d="M282.9270965899998,0L438.831017699,348.778347L451.38006985,348.778347L456.52478687499996,343.697145L296.70561444999987,0Z" style="opacity: 0;"/><path data-target="point-0-27" d="M296.70561444999987,0L456.52478687499996,343.697145L466.07447080341586,343.697145L470.38050484976816,339.98300399999994L463.6144867466919,289.16989875276164L432.97118932388406,208.54895077691108L387.66822286387355,112.66762662539207L337.7760068887534,17.927447308778085L327.6335391970015,0Z" style="opacity: 0;"/><path data-target="point-0-28" d="M463.6144867466919,289.16989875276164L470.38050484976816,339.98300399999994L482.33303686419595,339.98300399999994L489.71002406501776,330.787781Z" style="opacity: 0;"/><path data-target="point-0-29" d="M432.97118932388406,208.54895077691108L463.6144867466919,289.16989875276164L489.71002406501776,330.787781L498.16877096624347,330.787781L506.9985478954386,321.1744085Z" style="opacity: 0;"/><path data-target="point-0-30" d="M387.66822286387355,112.66762662539207L432.97118932388406,208.54895077691108L506.9985478954386,321.1744085L513.9190887490693,321.1744085L524.4076586914738,311.1237265Z" style="opacity: 0;"/><path data-target="point-0-31" d="M337.7760068887534,17.927447308778085L387.66822286387355,112.66762662539207L524.4076586914738,311.1237265L529.5737311772339,311.1237265L541.9527965376234,300.61586Z" style="opacity: 0;"/><path data-target="point-0-32" d="M327.6335391970015,0L337.7760068887534,17.927447308778085L541.9527965376234,300.61586L545.1212273353076,300.61586L559.6513382064296,289.629798L340.36364419184633,0Z" style="opacity: 0;"/><path data-target="point-0-33" d="M340.36364419184633,0L559.6513382064296,289.629798L560.5489393062417,289.629798L576.3433259903143,278.9417673200136L576.975776711375,277.4546592226024L356.7672281817877,0Z" style="opacity: 0;"/><path data-target="point-0-34" d="M356.7672281817877,0L576.975776711375,277.4546592226024L592.295729157524,268.1373815785038L594.1464634548037,264.40147913022423L374.1694606230109,0Z" style="opacity: 0;"/><path data-target="point-0-35" d="M374.1694606230109,0L594.1464634548037,264.40147913022423L608.1152026725392,256.7379859832277L611.48336131783,250.8388088741348L392.71779919628807,0Z" style="opacity: 0;"/><path data-target="point-0-36" d="M392.71779919628807,0L611.48336131783,250.8388088741348L623.7896805651785,244.72855540576919L629.0049861725256,236.73365478103474L412.5754994676902,0Z" style="opacity: 0;"/><path data-target="point-0-37" d="M412.5754994676902,0L629.0049861725256,236.73365478103474L639.304956308929,232.09170769614315L646.7325677195288,222.05286200376366L433.926210831126,0Z" style="opacity: 0;"/><path data-target="point-0-38" d="M433.926210831126,0L646.7325677195288,222.05286200376366L654.6448181765107,218.80765327541692L664.6903860248217,206.7629110382402L456.97367742673214,0Z" style="opacity: 0;"/><path data-target="point-0-39" d="M456.97367742673214,0L664.6903860248217,206.7629110382402L669.79074263987,204.85456272922542L682.9060886817173,190.82965224929455L481.9435789881489,0Z" style="opacity: 0;"/><path data-target="point-0-40" d="M481.9435789881489,0L682.9060886817173,190.82965224929455L684.7216705954747,190.20859905976974L700.0253360873331,175.54572307356682L700.7912831602582,173.65664599880225L509.0863204789896,0Z" style="opacity: 0;"/><path data-target="point-0-41" d="M509.0863204789896,0L700.7912831602582,173.65664599880225L715.7126924270277,160.79510308005706L718.3286653015662,155.24019511699967L538.6830044359099,0Z" style="opacity: 0;"/><path data-target="point-0-42" d="M538.6830044359099,0L718.3286653015662,155.24019511699967L731.1811311469268,145.2382801906668L736.1327712608075,136.09367308736356L571.0422988902708,0Z" style="opacity: 0;"/><path data-target="point-0-43" d="M571.0422988902708,0L736.1327712608075,136.09367308736356L746.4077837987096,128.85140156763953L754.2358889339538,116.17315857984681L606.5085900916002,0Z" style="opacity: 0;"/><path data-target="point-0-44" d="M606.5085900916002,0L754.2358889339538,116.17315857984681L779.1006505582632,100.25433703898027L645.4626242649875,-1.4210854715202004e-14Z" style="opacity: 0;"/><path data-target="point-0-45" d="M645.4626242649875,-1.4210854715202004e-14L779.1006505582632,100.25433703898027L816.644794771016,91.83057849999999L688.3273555072865,0Z" style="opacity: 0;"/><path data-target="point-0-46" d="M688.3273555072865,0L816.644794771016,91.83057849999999L823,91.83057849999999L823,0Z" style="opacity: 0;"/><path data-target="point-1-0" d="M34.97981551050004,543.18L24.7442947914,490.118721L0,490.118721L0,543.18Z" style="opacity: 0;"/><path data-target="point-1-1" d="M24.605560200000006,486.06215399999996L24.7442947914,490.118721L34.97981551050004,543.18L53.15343162680014,543.18L41.055871844,486.06215399999996Z" style="opacity: 0;"/><path data-target="point-1-2" d="M41.055871844,486.06215399999996L53.15343162680014,543.18L67.85825187069993,543.18L57.4158706777,482.22038999999995L41.2633271,482.22038999999995Z" style="opacity: 0;"/><path data-target="point-1-3" d="M57.4158706777,482.22038999999995L67.85825187069993,543.18L85.30138446210006,543.18L73.9055023812,479.55140099999994L57.783390462999996,479.55140099999994Z" style="opacity: 0;"/><path data-target="point-1-4" d="M73.9055023812,479.55140099999994L85.30138446210006,543.18L104.69647413439986,543.18L90.4101428888,476.670078L74.227058028,476.670078Z" style="opacity: 0;"/><path data-target="point-1-5" d="M90.4101428888,476.670078L104.69647413439986,543.18L122.17254861760011,543.18L106.93715549919999,473.42087399999997L90.63043891999999,473.42087399999997Z" style="opacity: 0;"/><path data-target="point-1-6" d="M106.93715549919999,473.42087399999997L122.17254861760011,543.18L141.67235771519998,543.18L123.45613299600001,469.845762L107.042263792,469.845762Z" style="opacity: 0;"/><path data-target="point-1-7" d="M123.44318555999999,465.52995L123.45613299600001,469.845762L141.67235771519998,543.18L157.07884899469983,543.18L139.8172428797,465.52994999999993Z" style="opacity: 0;"/><path data-target="point-1-8" d="M139.8172428797,465.52994999999993L157.07884899469983,543.18L175.37097562959994,543.18L156.3543608602,462.120261L139.990114112,462.120261Z" style="opacity: 0;"/><path data-target="point-1-9" d="M156.3543608602,462.120261L175.37097562959994,543.18L196.1340337632001,543.18L172.9252480944,458.352567L156.38487918159998,458.352567Z" style="opacity: 0;"/><path data-target="point-1-10" d="M172.7390338923,453.95034L172.9252480944,458.352567L196.1340337632001,543.18L218.95368618530009,543.18L189.5882050793,453.95034Z" style="opacity: 0;"/><path data-target="point-1-11" d="M188.9461263215,448.118562L189.5882050793,453.95034L218.95368618530009,543.18L245.65791753640002,543.18L206.24544534159998,448.118562Z" style="opacity: 0;"/><path data-target="point-1-12" d="M205.26602662,441.373254L206.24544534159998,448.118562L245.65791753640002,543.18L264.53208178709974,543.18L222.7200512049,441.373254Z" style="opacity: 0;"/><path data-target="point-1-13" d="M221.744284875,434.90694299999996L222.7200512049,441.373254L264.53208178709974,543.18L283.2253470989003,543.18L239.2773132626,434.90694299999996Z" style="opacity: 0;"/><path data-target="point-1-14" d="M238.14482888599997,428.67765599999996L239.2773132626,434.90694299999996L283.2253470989003,543.18L303.7279047459997,543.18L255.980427298,428.67765599999996Z" style="opacity: 0;"/><path data-target="point-1-15" d="M254.322399976,421.986666L255.980427298,428.67765599999996L303.7279047459997,543.18L331.5339977136001,543.18L272.9249013912,421.986666Z" style="opacity: 0;"/><path data-target="point-1-16" d="M270.397532256,414.451278L272.9249013912,421.986666L331.5339977136001,543.18L347.93656679839984,543.18L289.39074403279994,414.451278Z" style="opacity: 0;"/><path data-target="point-1-17" d="M286.72340629999997,407.004774L289.39074403279994,414.451278L347.93656679839984,543.18L355.60047875800024,543.18L305.351820364,407.004774Z" style="opacity: 0;"/><path data-target="point-1-18" d="M303.599738956,400.684134L305.351820364,407.004774L355.60047875800024,543.18L388.63347830399994,543.18L322.2874030944,400.684134Z" style="opacity: 0;"/><path data-target="point-1-19" d="M319.773132498,393.370956L322.2874030944,400.684134L388.63347830399994,543.18L401.71510412480006,543.18L338.615534792,393.370956Z" style="opacity: 0;"/><path data-target="point-1-20" d="M336.19717892,386.29974L338.615534792,393.370956L401.71510412480006,543.18L417.72421114749955,543.18L354.8936670175,386.29974Z" style="opacity: 0;"/><path data-target="point-1-21" d="M352.76980235499997,379.324815L354.8936670175,386.29974L417.72421114749955,543.18L423.74306461910004,543.18L418.68674692045437,520.1653541254179L370.8995519952,379.324815Z" style="opacity: 0;"/><path data-target="point-1-22" d="M369.45108648,371.964726L370.8995519952,379.324815L418.68674692045437,520.1653541254179L404.32351828168083,430.33903368280687L386.6711276384,371.964726Z" style="opacity: 0;"/><path data-target="point-1-23" d="M386.6711276384,371.964726L404.32351828168083,430.33903368280687L403.1974825072,365.624334L387.024921512,365.624334Z" style="opacity: 0;"/><path data-target="point-1-24" d="M403.1974825072,365.624334L404.32351828168083,430.33903368280687L418.68674692045437,520.1653541254179L423.74306461910004,543.18L486.58329266089993,543.18L474.3099154929694,499.2366517438935L473.35014588700994,496.43644866304896L417.85366987049997,361.703562L405.18296144799996,361.703562Z" style="opacity: 0;"/><path data-target="point-1-25" d="M417.85366987049997,361.703562L473.35014588700994,496.43644866304896L434.57348446879996,354.708885L421.72522359,354.708885Z" style="opacity: 0;"/><path data-target="point-1-26" d="M434.57348446879996,354.708885L473.35014588700994,496.43644866304896L474.3099154929694,499.2366517438935L451.38006985,348.778347L438.831017699,348.778347Z" style="opacity: 0;"/><path data-target="point-1-27" d="M451.38006985,348.778347L474.3099154929694,499.2366517438935L486.58329266089993,543.18L529.5375415101662,543.18L466.07447080341586,343.697145L456.52478687499996,343.697145Z" style="opacity: 0;"/><path data-target="point-1-28" d="M466.07447080341586,343.697145L529.5375415101662,543.18L581.9511789163631,543.18L482.33303686419595,339.98300399999994L470.38050484976816,339.98300399999994Z" style="opacity: 0;"/><path data-target="point-1-29" d="M482.33303686419595,339.98300399999994L581.9511789163631,543.18L606.658935791572,543.18L498.16877096624347,330.787781L489.71002406501776,330.787781Z" style="opacity: 0;"/><path data-target="point-1-30" d="M498.16877096624347,330.787781L606.658935791572,543.18L632.0724607074317,543.18L513.9190887490693,321.1744085L506.9985478954386,321.1744085Z" style="opacity: 0;"/><path data-target="point-1-31" d="M513.9190887490693,321.1744085L632.0724607074317,543.18L658.2507957945938,543.18L529.5737311772339,311.1237265L524.4076586914738,311.1237265Z" style="opacity: 0;"/><path data-target="point-1-32" d="M529.5737311772339,311.1237265L658.2507957945938,543.18L685.2624086984131,543.18L545.1212273353076,300.61586L541.9527965376234,300.61586Z" style="opacity: 0;"/><path data-target="point-1-33" d="M545.1212273353076,300.61586L685.2624086984131,543.18L713.176533396496,543.18L560.5489393062417,289.629798L559.6513382064296,289.629798Z" style="opacity: 0;"/><path data-target="point-1-34" d="M560.5489393062417,289.629798L713.176533396496,543.18L742.069837202066,543.18L576.3433259903143,278.9417673200136Z" style="opacity: 0;"/><path data-target="point-1-35" d="M576.3433259903143,278.9417673200136L742.069837202066,543.18L772.0275583193375,543.18L592.295729157524,268.1373815785038L576.975776711375,277.4546592226024Z" style="opacity: 0;"/><path data-target="point-1-36" d="M592.295729157524,268.1373815785038L772.0275583193375,543.18L803.1409707444963,543.18L608.1152026725392,256.7379859832277L594.1464634548037,264.40147913022423Z" style="opacity: 0;"/><path data-target="point-1-37" d="M608.1152026725392,256.7379859832277L803.1409707444963,543.18L823,543.18L823,525.549334204433L623.7896805651785,244.72855540576919L611.48336131783,250.8388088741348Z" style="opacity: 0;"/><path data-target="point-1-38" d="M623.7896805651785,244.72855540576919L823,525.549334204433L823,480.6251368568701L639.304956308929,232.09170769614315L629.0049861725256,236.73365478103474Z" style="opacity: 0;"/><path data-target="point-1-39" d="M639.304956308929,232.09170769614315L823,480.6251368568701L823,437.4249075532197L654.6448181765107,218.80765327541692L646.7325677195288,222.05286200376366Z" style="opacity: 0;"/><path data-target="point-1-40" d="M654.6448181765107,218.80765327541692L823,437.4249075532197L823,395.8023685730994L669.79074263987,204.85456272922542L664.6903860248217,206.7629110382402Z" style="opacity: 0;"/><path data-target="point-1-41" d="M669.79074263987,204.85456272922542L823,395.8023685730994L823,355.6154749894582L684.7216705954747,190.20859905976974L682.9060886817173,190.82965224929455Z" style="opacity: 0;"/><path data-target="point-1-42" d="M684.7216705954747,190.20859905976974L823,355.6154749894582L823,316.73038660385896L700.0253360873331,175.54572307356682Z" style="opacity: 0;"/><path data-target="point-1-43" d="M700.0253360873331,175.54572307356682L823,316.73038660385896L823,279.0149053775851L715.7126924270277,160.79510308005706L700.7912831602582,173.65664599880225Z" style="opacity: 0;"/><path data-target="point-1-44" d="M715.7126924270277,160.79510308005706L823,279.0149053775851L823,242.3440696195446L731.1811311469268,145.2382801906668L718.3286653015662,155.24019511699967Z" style="opacity: 0;"/><path data-target="point-1-45" d="M731.1811311469268,145.2382801906668L823,242.3440696195446L823,206.59587014359462L746.4077837987096,128.85140156763953L736.1327712608075,136.09367308736356Z" style="opacity: 0;"/><path data-target="point-1-46" d="M746.4077837987096,128.85140156763953L823,206.59587014359462L823,91.83057849999999L816.644794771016,91.83057849999999L779.1006505582632,100.25433703898027L754.2358889339538,116.17315857984681Z" style="opacity: 0;"/></g></g><g class="axes"><g class="y axis" fill="none" font-size="10" font-family="sans-serif" text-anchor="end" style="font-family: &quot;Source Sans Pro&quot;;"><path class="domain" stroke="#eeeeee" d="M0.5,543.68V0.5" stroke-dasharray="0" style="visibility: hidden;"/><g class="tick" opacity="1" transform="translate(0,543.68)" style="visibility: visible;"><line stroke="#eeeeee" x2="823" stroke-dasharray="0"/><text fill="rgb(0, 0, 0)" x="-3" dy="0.33em" opacity="1" text-anchor="end" font-size="14">$0</text></g><g class="tick" opacity="1" transform="translate(0, 494.29998779296875)" style="visibility: visible;"><line stroke="#eeeeee" x2="823" stroke-dasharray="0"/><text fill="rgb(0, 0, 0)" x="-3" dy="0.33em" opacity="1" text-anchor="end" font-size="14">$10,000</text></g><g class="tick" opacity="1" transform="translate(0, 444.9200134277344)" style="visibility: visible;"><line stroke="#eeeeee" x2="823" stroke-dasharray="0"/><text fill="rgb(0, 0, 0)" x="-3" dy="0.33em" opacity="1" text-anchor="end" font-size="14">$20,000</text></g><g class="tick" opacity="1" transform="translate(0, 395.5400085449219)" style="visibility: visible;"><line stroke="#eeeeee" x2="823" stroke-dasharray="0"/><text fill="rgb(0, 0, 0)" x="-3" dy="0.33em" opacity="1" text-anchor="end" font-size="14">$30,000</text></g><g class="tick" opacity="1" transform="translate(0, 346.1600036621094)" style="visibility: visible;"><line stroke="#eeeeee" x2="823" stroke-dasharray="0"/><text fill="rgb(0, 0, 0)" x="-3" dy="0.33em" opacity="1" text-anchor="end" font-size="14">$40,000</text></g><g class="tick" opacity="1" transform="translate(0, 296.7799987792969)" style="visibility: visible;"><line stroke="#eeeeee" x2="823" stroke-dasharray="0"/><text fill="rgb(0, 0, 0)" x="-3" dy="0.33em" opacity="1" text-anchor="end" font-size="14">$50,000</text></g><g class="tick" opacity="1" transform="translate(0, 247.39999389648438)" style="visibility: visible;"><line stroke="#eeeeee" x2="823" stroke-dasharray="0"/><text fill="rgb(0, 0, 0)" x="-3" dy="0.33em" opacity="1" text-anchor="end" font-size="14">$60,000</text></g><g class="tick" opacity="1" transform="translate(0, 198.02000427246094)" style="visibility: visible;"><line stroke="#eeeeee" x2="823" stroke-dasharray="0"/><text fill="rgb(0, 0, 0)" x="-3" dy="0.33em" opacity="1" text-anchor="end" font-size="14">$70,000</text></g><g class="tick" opacity="1" transform="translate(0, 148.63999938964844)" style="visibility: visible;"><line stroke="#eeeeee" x2="823" stroke-dasharray="0"/><text fill="rgb(0, 0, 0)" x="-3" dy="0.33em" opacity="1" text-anchor="end" font-size="14">$80,000</text></g><g class="tick" opacity="1" transform="translate(0, 99.26000213623047)" style="visibility: visible;"><line stroke="#eeeeee" x2="823" stroke-dasharray="0"/><text fill="rgb(0, 0, 0)" x="-3" dy="0.33em" opacity="1" text-anchor="end" font-size="14">$90,000</text></g><g class="tick" opacity="1" transform="translate(0, 49.880001068115234)" style="visibility: visible;"><line stroke="#eeeeee" x2="823" stroke-dasharray="0"/><text fill="rgb(0, 0, 0)" x="-3" dy="0.33em" opacity="1" text-anchor="end" font-size="14">$100,000</text></g><g class="tick" opacity="1" transform="translate(0, 0.5)" style="visibility: visible;"><line stroke="#eeeeee" x2="823" stroke-dasharray="0"/><text fill="rgb(0, 0, 0)" x="-3" dy="0.33em" opacity="1" text-anchor="end" font-size="14">$110,000</text></g></g><g class="x axis" transform="translate(0,543.18)" fill="none" font-size="10" font-family="sans-serif" text-anchor="middle" style="font-family: &quot;Source Sans Pro&quot;;"><path class="domain" stroke="#eeeeee" d="M0.5,0.5H823.5" stroke-dasharray="0"/><g class="tick" opacity="1" transform="translate(0.5,0)"><line stroke="#eeeeee" y2="6" stroke-dasharray="0"/><text fill="rgb(0, 0, 0)" y="9" dy="-9" opacity="1" dominant-baseline="central" font-size="16" transform="translate(0, 15) rotate(-45)" dx="5" style="text-anchor: end; visibility: visible;">1990</text></g><g class="tick" opacity="1" transform="translate(82.80000000000001,0)"><line stroke="#eeeeee" y2="6" stroke-dasharray="0"/><text fill="rgb(0, 0, 0)" y="9" dy="-9" opacity="1" dominant-baseline="central" font-size="16" transform="translate(0, 15) rotate(-45)" dx="5" style="text-anchor: end; visibility: visible;">1995</text></g><g class="tick" opacity="1" transform="translate(165.10000000000002,0)"><line stroke="#eeeeee" y2="6" stroke-dasharray="0"/><text fill="rgb(0, 0, 0)" y="9" dy="-9" opacity="1" dominant-baseline="central" font-size="16" transform="translate(0, 15) rotate(-45)" dx="5" style="text-anchor: end; visibility: visible;">2000</text></g><g class="tick" opacity="1" transform="translate(247.39999999999998,0)"><line stroke="#eeeeee" y2="6" stroke-dasharray="0"/><text fill="rgb(0, 0, 0)" y="9" dy="-9" opacity="1" dominant-baseline="central" font-size="16" transform="translate(0, 15) rotate(-45)" dx="5" style="text-anchor: end; visibility: visible;">2005</text></g><g class="tick" opacity="1" transform="translate(329.70000000000005,0)"><line stroke="#eeeeee" y2="6" stroke-dasharray="0"/><text fill="rgb(0, 0, 0)" y="9" dy="-9" opacity="1" dominant-baseline="central" font-size="16" transform="translate(0, 15) rotate(-45)" dx="5" style="text-anchor: end; visibility: visible;">2010</text></g><g class="tick" opacity="1" transform="translate(412,0)"><line stroke="#eeeeee" y2="6" stroke-dasharray="0"/><text fill="rgb(0, 0, 0)" y="9" dy="-9" opacity="1" dominant-baseline="central" font-size="16" transform="translate(0, 15) rotate(-45)" dx="5" style="text-anchor: end; visibility: visible;">2015</text></g><g class="tick" opacity="1" transform="translate(494.29999999999995,0)"><line stroke="#eeeeee" y2="6" stroke-dasharray="0"/><text fill="rgb(0, 0, 0)" y="9" dy="-9" opacity="1" dominant-baseline="central" font-size="16" transform="translate(0, 15) rotate(-45)" dx="5" style="text-anchor: end; visibility: visible;">2020</text></g><g class="tick" opacity="1" transform="translate(576.5999999999999,0)"><line stroke="#eeeeee" y2="6" stroke-dasharray="0"/><text fill="rgb(0, 0, 0)" y="9" dy="-9" opacity="1" dominant-baseline="central" font-size="16" transform="translate(0, 15) rotate(-45)" dx="5" style="text-anchor: end; visibility: visible;">2025</text></g><g class="tick" opacity="1" transform="translate(658.9000000000001,0)"><line stroke="#eeeeee" y2="6" stroke-dasharray="0"/><text fill="rgb(0, 0, 0)" y="9" dy="-9" opacity="1" dominant-baseline="central" font-size="16" transform="translate(0, 15) rotate(-45)" dx="5" style="text-anchor: end; visibility: visible;">2030</text></g><g class="tick" opacity="1" transform="translate(741.2,0)"><line stroke="#eeeeee" y2="6" stroke-dasharray="0"/><text fill="rgb(0, 0, 0)" y="9" dy="-9" opacity="1" dominant-baseline="central" font-size="16" transform="translate(0, 15) rotate(-45)" dx="5" style="text-anchor: end; visibility: visible;">2035</text></g><g class="tick" opacity="1" transform="translate(823.5,0)"><line stroke="#eeeeee" y2="6" stroke-dasharray="0"/><text fill="rgb(0, 0, 0)" y="9" dy="-9" opacity="1" dominant-baseline="central" font-size="16" transform="translate(0, 15) rotate(-45)" dx="5" style="text-anchor: end; visibility: visible;">2040</text></g></g></g></g></g></g><g class="annotations below"><g class="axis-highlights" transform="translate(50, 10)" style="opacity: 1;"><g class="line x" transform="translate(477.34, 0)"><line width="0" stroke-dasharray="2 2" stroke="#333333" stroke-width="2" y2="543.18"/><text transform="translate(0, 6) rotate(-90)" fill="#333333" text-anchor="end" dy="-0.5em" font-size="12">Current</text></g></g></g><g id="areas"><g class="series" pointer-events="none"><path class="area" transform="translate(50,10)" fill-opacity="0" fill="rgb(17, 165, 121)" clip-path="url(#clip-0-0)" d="M16.46,488.8126199999999C21.94666666666667,487.10489499999994,27.433333333333334,485.39716999999996,32.92,483.87461999999994C38.406666666666666,482.35206999999997,43.89333333333333,480.79659999999996,49.379999999999995,479.67731999999995C54.86666666666667,478.55803999999995,60.35333333333333,478.04778,65.84,477.15894C71.32666666666667,476.27009999999996,76.81333333333335,475.30719,82.30000000000001,474.34427999999997C87.78666666666668,473.38136999999995,93.27333333333333,472.46783999999997,98.75999999999999,471.38147999999995C104.24666666666667,470.29511999999994,109.73333333333333,469.17583999999994,115.22000000000001,467.82611999999995C120.70666666666668,466.47639999999996,126.19333333333334,464.56703999999996,131.68,463.28315999999995C137.16666666666666,461.99927999999994,142.65333333333334,461.2618719999999,148.14,460.12283999999994C153.62666666666667,458.98380799999995,159.11333333333334,457.77811299999996,164.60000000000002,456.448968C170.08666666666667,455.119823,175.57333333333335,453.905898,181.06,452.14797C186.54666666666665,450.390042,192.03333333333333,448.053545,197.51999999999998,445.90139999999997C203.00666666666666,443.74925499999995,208.49333333333334,441.37489999999997,213.98000000000002,439.2351C219.4666666666667,437.0953,224.95333333333335,435.05426,230.44000000000003,433.0626C235.92666666666668,431.07093999999995,241.41333333333333,429.33440999999993,246.89999999999998,427.28513999999996C252.38666666666666,425.2358699999999,257.87333333333333,423.03845999999993,263.36,420.76697999999993C268.8466666666667,418.49549999999994,274.3333333333333,416.07588,279.82,413.65626C285.3066666666667,411.23663999999997,290.7933333333333,408.57834999999994,296.28,406.24925999999994C301.76666666666665,403.9201699999999,307.25333333333333,401.93673999999993,312.74,399.6817199999999C318.2266666666667,397.4266999999999,323.71333333333337,395.0811499999999,329.20000000000005,392.7191399999999C334.68666666666667,390.3571299999999,340.17333333333335,387.9375099999999,345.65999999999997,385.50965999999994C351.14666666666665,383.08180999999996,356.6333333333333,380.90085999999997,362.12,378.15203999999994C367.6066666666667,375.4032199999999,373.09333333333336,371.8231699999999,378.58000000000004,369.0167399999999C384.06666666666666,366.21030999999994,389.55333333333334,363.85652999999996,395.03999999999996,361.31345999999996C400.52666666666664,358.77038999999996,406.0133333333333,356.21908999999994,411.5,353.75831999999997C416.9866666666667,351.29755,422.47333333333336,348.97669,427.96000000000004,346.54884C433.4466666666667,344.12099,438.93333333333334,341.6931399999999,444.42,339.19121999999993C449.9066666666667,336.68929999999995,455.3933333333334,332.99847420000003,460.88000000000005,331.53732C466.3666666666667,330.0761658,471.85333333333335,330.8067429,477.34,329.3455887C482.82666666666665,327.8844345,488.3133333333333,322.54802843,493.79999999999995,319.02472428C499.28666666666663,315.50142013,504.7733333333333,311.8991244399999,510.26,308.20576379999994C515.7466666666667,304.51240315999996,521.2333333333333,300.73618287999994,526.72,296.86456043999993C532.2066666666667,292.9929379999999,537.6933333333334,289.0345137499999,543.1800000000001,284.97602915999994C548.6666666666667,280.91754456999996,554.1533333333333,276.76802795,559.64,272.5136529C565.1266666666667,268.25927785000005,570.6133333333332,263.90949241,576.0999999999999,259.44977886C581.5866666666666,254.99006530999995,587.0733333333333,250.43033256999993,592.56,245.75537159999993C598.0466666666666,241.08041062999993,603.5333333333333,236.30061591999996,609.02,231.40001303999998C614.5066666666667,226.49941016,619.9933333333333,221.48889563,625.48,216.35175432C630.9666666666667,211.21461301,636.4533333333334,205.96225170000002,641.94,200.57716518C647.4266666666667,195.19207866,652.9133333333334,189.68622512,658.4000000000001,184.04123519999996C663.8866666666668,178.39624528,669.3733333333333,172.62467796,674.86,166.70722566C680.3466666666667,160.78977336,685.8333333333333,154.73958761999995,691.3199999999999,148.53652139999997C696.8066666666666,142.33345517999993,702.2933333333333,135.99128549999992,707.78,129.48882833999994C713.2666666666667,122.98637117999995,718.7533333333333,116.33807842000004,724.24,109.52177844000005C729.7266666666667,102.70547846000005,735.2133333333334,95.73632268999997,740.7,88.59102845999996C746.1866666666667,81.44573422999996,751.6733333333334,74.14018544000001,757.1600000000001,66.65001305999999C762.6466666666668,59.15984068000002,768.1333333333333,51.404917430000026,773.62,43.64999418000002L773.62,43.64999418000002C768.1333333333333,51.404917430000026,762.6466666666668,59.15984068000002,757.1600000000001,66.65001305999999C751.6733333333334,74.14018544000001,746.1866666666667,81.44573422999996,740.7,88.59102845999996C735.2133333333334,95.73632268999997,729.7266666666667,102.70547846000005,724.24,109.52177844000005C718.7533333333333,116.33807842000004,713.2666666666667,122.98637117999995,707.78,129.48882833999994C702.2933333333333,135.99128549999992,696.8066666666666,142.33345517999993,691.3199999999999,148.53652139999997C685.8333333333333,154.73958761999995,680.3466666666667,160.78977336,674.86,166.70722566C669.3733333333333,172.62467796,663.8866666666668,178.39624528,658.4000000000001,184.04123519999996C652.9133333333334,189.68622512,647.4266666666667,195.19207866,641.94,200.57716518C636.4533333333334,205.96225170000002,630.9666666666667,211.21461301,625.48,216.35175432C619.9933333333333,221.48889563,614.5066666666667,226.49941016,609.02,231.40001303999998C603.5333333333333,236.30061591999996,598.0466666666666,241.08041062999993,592.56,245.75537159999993C587.0733333333333,250.43033256999993,581.5866666666666,254.99006530999995,576.0999999999999,259.44977886C570.6133333333332,263.90949241,565.1266666666667,268.25927785000005,559.64,272.5136529C554.1533333333333,276.76802795,548.6666666666667,280.91754456999996,543.1800000000001,284.97602915999994C537.6933333333334,289.0345137499999,532.2066666666667,292.9929379999999,526.72,296.86456043999993C521.2333333333333,300.73618287999994,515.7466666666667,304.51240315999996,510.26,308.20576379999994C504.7733333333333,311.8991244399999,499.28666666666663,315.50142013,493.79999999999995,319.02472428C488.3133333333333,322.54802843,482.82666666666665,327.8844345,477.34,329.3455887C471.85333333333335,330.8067429,466.3666666666667,330.0761658,460.88000000000005,331.53732C455.3933333333334,332.99847420000003,449.9066666666667,336.68929999999995,444.42,339.19121999999993C438.93333333333334,341.6931399999999,433.4466666666667,344.12099,427.96000000000004,346.54884C422.47333333333336,348.97669,416.9866666666667,351.29755,411.5,353.75831999999997C406.0133333333333,356.21908999999994,400.52666666666664,358.77038999999996,395.03999999999996,361.31345999999996C389.55333333333334,363.85652999999996,384.06666666666666,366.21030999999994,378.58000000000004,369.0167399999999C373.09333333333336,371.8231699999999,367.6066666666667,375.4032199999999,362.12,378.15203999999994C356.6333333333333,380.90085999999997,351.14666666666665,383.08180999999996,345.65999999999997,385.50965999999994C340.17333333333335,387.9375099999999,334.68666666666667,390.3571299999999,329.20000000000005,392.7191399999999C323.71333333333337,395.0811499999999,318.2266666666667,397.4266999999999,312.74,399.6817199999999C307.25333333333333,401.93673999999993,301.76666666666665,403.9201699999999,296.28,406.24925999999994C290.7933333333333,408.57834999999994,285.3066666666667,411.23663999999997,279.82,413.65626C274.3333333333333,416.07588,268.8466666666667,418.49549999999994,263.36,420.76697999999993C257.87333333333333,423.03845999999993,252.38666666666666,425.2358699999999,246.89999999999998,427.28513999999996C241.41333333333333,429.33440999999993,235.92666666666668,431.07093999999995,230.44000000000003,433.0626C224.95333333333335,435.05426,219.4666666666667,437.0953,213.98000000000002,439.2351C208.49333333333334,441.37489999999997,203.00666666666666,443.74925499999995,197.51999999999998,445.90139999999997C192.03333333333333,448.053545,186.54666666666665,450.390042,181.06,452.14797C175.57333333333335,453.905898,170.08666666666667,455.119823,164.60000000000002,456.448968C159.11333333333334,457.77811299999996,153.62666666666667,458.98380799999995,148.14,460.12283999999994C142.65333333333334,461.2618719999999,137.16666666666666,461.99927999999994,131.68,463.28315999999995C126.19333333333334,464.56703999999996,120.70666666666668,466.47639999999996,115.22000000000001,467.82611999999995C109.73333333333333,469.17583999999994,104.24666666666667,470.29511999999994,98.75999999999999,471.38147999999995C93.27333333333333,472.46783999999997,87.78666666666668,473.38136999999995,82.30000000000001,474.34427999999997C76.81333333333335,475.30719,71.32666666666667,476.27009999999996,65.84,477.15894C60.35333333333333,478.04778,54.86666666666667,478.55803999999995,49.379999999999995,479.67731999999995C43.89333333333333,480.79659999999996,38.406666666666666,482.35206999999997,32.92,483.87461999999994C27.433333333333334,485.39716999999996,21.94666666666667,487.10489499999994,16.46,488.8126199999999Z"/></g><g class="series" pointer-events="none"><path class="area" transform="translate(50,10)" fill-opacity="0" fill="rgb(204, 80, 62)" clip-path="url(#clip-0-1)" d="M16.46,491.42482199999995C21.94666666666667,490.3923684999999,27.433333333333334,489.35991499999994,32.92,488.24968799999994C38.406666666666666,487.1394609999999,43.89333333333333,485.81443099999996,49.379999999999995,484.76345999999995C54.86666666666667,483.71248899999995,60.35333333333333,482.90512599999994,65.84,481.94386199999997C71.32666666666667,480.982598,76.81333333333335,480.07647499999996,82.30000000000001,478.99587599999995C87.78666666666668,477.91527699999995,93.27333333333333,476.6486799999999,98.75999999999999,475.4602679999999C104.24666666666667,474.2718559999999,109.73333333333333,473.145992,115.22000000000001,471.86540399999996C120.70666666666668,470.584816,126.19333333333334,469.068027,131.68,467.77673999999996C137.16666666666666,466.48545299999995,142.65333333333334,465.3711109999999,148.14,464.11768199999995C153.62666666666667,462.86425299999996,159.11333333333334,461.65032799999994,164.60000000000002,460.25616599999995C170.08666666666667,458.86200399999996,175.57333333333335,457.406117,181.06,455.75271C186.54666666666665,454.09930299999996,192.03333333333333,452.37594099999995,197.51999999999998,450.33572399999997C203.00666666666666,448.295507,208.49333333333334,445.77548099999996,213.98000000000002,443.51140799999996C219.4666666666667,441.24733499999996,224.95333333333335,438.99149199999994,230.44000000000003,436.75128599999994C235.92666666666668,434.51107999999994,241.41333333333333,432.327661,246.89999999999998,430.07017199999996C252.38666666666666,427.81268299999994,257.87333333333333,425.6769979999999,263.36,423.2063519999999C268.8466666666667,420.73570599999994,274.3333333333333,417.82063999999997,279.82,415.246296C285.3066666666667,412.671952,290.7933333333333,410.02024599999993,296.28,407.76028799999995C301.76666666666665,405.50032999999996,307.25333333333333,403.97613399999994,312.74,401.68654799999996C318.2266666666667,399.396962,323.71333333333337,396.45555999999993,329.20000000000005,394.0227719999999C334.68666666666667,391.5899839999999,340.17333333333335,389.3440169999999,345.65999999999997,387.0898199999999C351.14666666666665,384.83562299999994,356.6333333333333,382.52710799999994,362.12,380.49758999999995C367.6066666666667,378.46807199999995,373.09333333333336,376.67310899999995,378.58000000000004,374.91271199999994C384.06666666666666,373.15231499999993,389.55333333333334,370.126144,395.03999999999996,369.935208C400.52666666666664,369.74427199999997,406.0133333333333,369.83973999999995,411.5,369.6488039999999C416.9866666666667,369.4578679999999,422.47333333333336,364.749485,427.96000000000004,362.86893C433.4466666666667,360.98837499999996,438.93333333333334,359.53413399999994,444.42,358.36547399999995C449.9066666666667,357.19681399999996,455.3933333333334,357.14781257999994,460.88000000000005,355.85696999999993C466.3666666666667,354.56612741999993,471.85333333333335,352.83810723999994,477.34,350.62041851999993C482.82666666666665,348.4027297999999,488.3133333333333,345.29706523,493.79999999999995,342.55083768C499.28666666666663,339.80461012999996,504.7733333333333,337.00437731999995,510.26,334.14305321999996C515.7466666666667,331.28172911999997,521.2333333333333,328.36412004999994,526.72,325.38289308C532.2066666666667,322.40166611,537.6933333333334,319.36184977,543.1800000000001,316.2556914C548.6666666666667,313.14953303,554.1533333333333,309.98228337,559.64,306.74594286C565.1266666666667,303.50960235,570.6133333333332,300.20961101999995,576.0999999999999,296.83764834C581.5866666666666,293.46568565999996,587.0733333333333,290.02743033,592.56,286.51416678C598.0466666666666,283.00090322999995,603.5333333333333,279.41856528999995,609.02,275.75806703999996C614.5066666666667,272.09756878999997,619.9933333333333,268.3650745,625.48,264.55117728C630.9666666666667,260.73728006,636.4533333333334,256.8484075399999,641.94,252.87468371999995C647.4266666666667,248.90095989999995,652.9133333333334,244.84909223,658.4000000000001,240.70883435999997C663.8866666666668,236.56857649,669.3733333333333,232.34689922999996,674.86,228.03313649999996C680.3466666666667,223.71937376999995,685.8333333333333,219.32080088999996,691.3199999999999,214.82625797999998C696.8066666666666,210.33171506999997,702.2933333333333,205.74877372999998,707.78,201.06587903999997C713.2666666666667,196.38298434999996,718.7533333333333,191.6080288799999,724.24,186.7288898399999C729.7266666666667,181.84975079999992,735.2133333333334,176.87465819,740.7,171.7910448C746.1866666666667,166.70743141000003,751.6733333333334,161.52385643999997,757.1600000000001,156.22720949999996C762.6466666666668,150.93056255999997,768.1333333333333,145.47086286,773.62,140.01116316000002L773.62,140.01116316000002C768.1333333333333,145.47086286,762.6466666666668,150.93056255999997,757.1600000000001,156.22720949999996C751.6733333333334,161.52385643999997,746.1866666666667,166.70743141000003,740.7,171.7910448C735.2133333333334,176.87465819,729.7266666666667,181.84975079999992,724.24,186.7288898399999C718.7533333333333,191.6080288799999,713.2666666666667,196.38298434999996,707.78,201.06587903999997C702.2933333333333,205.74877372999998,696.8066666666666,210.33171506999997,691.3199999999999,214.82625797999998C685.8333333333333,219.32080088999996,680.3466666666667,223.71937376999995,674.86,228.03313649999996C669.3733333333333,232.34689922999996,663.8866666666668,236.56857649,658.4000000000001,240.70883435999997C652.9133333333334,244.84909223,647.4266666666667,248.90095989999995,641.94,252.87468371999995C636.4533333333334,256.8484075399999,630.9666666666667,260.73728006,625.48,264.55117728C619.9933333333333,268.3650745,614.5066666666667,272.09756878999997,609.02,275.75806703999996C603.5333333333333,279.41856528999995,598.0466666666666,283.00090322999995,592.56,286.51416678C587.0733333333333,290.02743033,581.5866666666666,293.46568565999996,576.0999999999999,296.83764834C570.6133333333332,300.20961101999995,565.1266666666667,303.50960235,559.64,306.74594286C554.1533333333333,309.98228337,548.6666666666667,313.14953303,543.1800000000001,316.2556914C537.6933333333334,319.36184977,532.2066666666667,322.40166611,526.72,325.38289308C521.2333333333333,328.36412004999994,515.7466666666667,331.28172911999997,510.26,334.14305321999996C504.7733333333333,337.00437731999995,499.28666666666663,339.80461012999996,493.79999999999995,342.55083768C488.3133333333333,345.29706523,482.82666666666665,348.4027297999999,477.34,350.62041851999993C471.85333333333335,352.83810723999994,466.3666666666667,354.56612741999993,460.88000000000005,355.85696999999993C455.3933333333334,357.14781257999994,449.9066666666667,357.19681399999996,444.42,358.36547399999995C438.93333333333334,359.53413399999994,433.4466666666667,360.98837499999996,427.96000000000004,362.86893C422.47333333333336,364.749485,416.9866666666667,369.4578679999999,411.5,369.6488039999999C406.0133333333333,369.83973999999995,400.52666666666664,369.74427199999997,395.03999999999996,369.935208C389.55333333333334,370.126144,384.06666666666666,373.15231499999993,378.58000000000004,374.91271199999994C373.09333333333336,376.67310899999995,367.6066666666667,378.46807199999995,362.12,380.49758999999995C356.6333333333333,382.52710799999994,351.14666666666665,384.83562299999994,345.65999999999997,387.0898199999999C340.17333333333335,389.3440169999999,334.68666666666667,391.5899839999999,329.20000000000005,394.0227719999999C323.71333333333337,396.45555999999993,318.2266666666667,399.396962,312.74,401.68654799999996C307.25333333333333,403.97613399999994,301.76666666666665,405.50032999999996,296.28,407.76028799999995C290.7933333333333,410.02024599999993,285.3066666666667,412.671952,279.82,415.246296C274.3333333333333,417.82063999999997,268.8466666666667,420.73570599999994,263.36,423.2063519999999C257.87333333333333,425.6769979999999,252.38666666666666,427.81268299999994,246.89999999999998,430.07017199999996C241.41333333333333,432.327661,235.92666666666668,434.51107999999994,230.44000000000003,436.75128599999994C224.95333333333335,438.99149199999994,219.4666666666667,441.24733499999996,213.98000000000002,443.51140799999996C208.49333333333334,445.77548099999996,203.00666666666666,448.295507,197.51999999999998,450.33572399999997C192.03333333333333,452.37594099999995,186.54666666666665,454.09930299999996,181.06,455.75271C175.57333333333335,457.406117,170.08666666666667,458.86200399999996,164.60000000000002,460.25616599999995C159.11333333333334,461.65032799999994,153.62666666666667,462.86425299999996,148.14,464.11768199999995C142.65333333333334,465.3711109999999,137.16666666666666,466.48545299999995,131.68,467.77673999999996C126.19333333333334,469.068027,120.70666666666668,470.584816,115.22000000000001,471.86540399999996C109.73333333333333,473.145992,104.24666666666667,474.2718559999999,98.75999999999999,475.4602679999999C93.27333333333333,476.6486799999999,87.78666666666668,477.91527699999995,82.30000000000001,478.99587599999995C76.81333333333335,480.07647499999996,71.32666666666667,480.982598,65.84,481.94386199999997C60.35333333333333,482.90512599999994,54.86666666666667,483.71248899999995,49.379999999999995,484.76345999999995C43.89333333333333,485.81443099999996,38.406666666666666,487.1394609999999,32.92,488.24968799999994C27.433333333333334,489.35991499999994,21.94666666666667,490.3923684999999,16.46,491.42482199999995Z"/></g></g><g id="lines"><g class="series"><clipPath id="clip-0-0"><rect width="823" y="-10" height="563.18"/></clipPath><path class="line" opacity="1" fill="none" stroke="rgb(17, 165, 121)" stroke-width="2" transform="translate(50,10)" clip-path="url(#clip-0-0)" d="M16.46,488.8126199999999C21.94666666666667,487.10489499999994,27.433333333333334,485.39716999999996,32.92,483.87461999999994C38.406666666666666,482.35206999999997,43.89333333333333,480.79659999999996,49.379999999999995,479.67731999999995C54.86666666666667,478.55803999999995,60.35333333333333,478.04778,65.84,477.15894C71.32666666666667,476.27009999999996,76.81333333333335,475.30719,82.30000000000001,474.34427999999997C87.78666666666668,473.38136999999995,93.27333333333333,472.46783999999997,98.75999999999999,471.38147999999995C104.24666666666667,470.29511999999994,109.73333333333333,469.17583999999994,115.22000000000001,467.82611999999995C120.70666666666668,466.47639999999996,126.19333333333334,464.56703999999996,131.68,463.28315999999995C137.16666666666666,461.99927999999994,142.65333333333334,461.2618719999999,148.14,460.12283999999994C153.62666666666667,458.98380799999995,159.11333333333334,457.77811299999996,164.60000000000002,456.448968C170.08666666666667,455.119823,175.57333333333335,453.905898,181.06,452.14797C186.54666666666665,450.390042,192.03333333333333,448.053545,197.51999999999998,445.90139999999997C203.00666666666666,443.74925499999995,208.49333333333334,441.37489999999997,213.98000000000002,439.2351C219.4666666666667,437.0953,224.95333333333335,435.05426,230.44000000000003,433.0626C235.92666666666668,431.07093999999995,241.41333333333333,429.33440999999993,246.89999999999998,427.28513999999996C252.38666666666666,425.2358699999999,257.87333333333333,423.03845999999993,263.36,420.76697999999993C268.8466666666667,418.49549999999994,274.3333333333333,416.07588,279.82,413.65626C285.3066666666667,411.23663999999997,290.7933333333333,408.57834999999994,296.28,406.24925999999994C301.76666666666665,403.9201699999999,307.25333333333333,401.93673999999993,312.74,399.6817199999999C318.2266666666667,397.4266999999999,323.71333333333337,395.0811499999999,329.20000000000005,392.7191399999999C334.68666666666667,390.3571299999999,340.17333333333335,387.9375099999999,345.65999999999997,385.50965999999994C351.14666666666665,383.08180999999996,356.6333333333333,380.90085999999997,362.12,378.15203999999994C367.6066666666667,375.4032199999999,373.09333333333336,371.8231699999999,378.58000000000004,369.0167399999999C384.06666666666666,366.21030999999994,389.55333333333334,363.85652999999996,395.03999999999996,361.31345999999996C400.52666666666664,358.77038999999996,406.0133333333333,356.21908999999994,411.5,353.75831999999997C416.9866666666667,351.29755,422.47333333333336,348.97669,427.96000000000004,346.54884C433.4466666666667,344.12099,438.93333333333334,341.6931399999999,444.42,339.19121999999993C449.9066666666667,336.68929999999995,455.3933333333334,332.99847420000003,460.88000000000005,331.53732C466.3666666666667,330.0761658,471.85333333333335,330.8067429,477.34,329.3455887C482.82666666666665,327.8844345,488.3133333333333,322.54802843,493.79999999999995,319.02472428C499.28666666666663,315.50142013,504.7733333333333,311.8991244399999,510.26,308.20576379999994C515.7466666666667,304.51240315999996,521.2333333333333,300.73618287999994,526.72,296.86456043999993C532.2066666666667,292.9929379999999,537.6933333333334,289.0345137499999,543.1800000000001,284.97602915999994C548.6666666666667,280.91754456999996,554.1533333333333,276.76802795,559.64,272.5136529C565.1266666666667,268.25927785000005,570.6133333333332,263.90949241,576.0999999999999,259.44977886C581.5866666666666,254.99006530999995,587.0733333333333,250.43033256999993,592.56,245.75537159999993C598.0466666666666,241.08041062999993,603.5333333333333,236.30061591999996,609.02,231.40001303999998C614.5066666666667,226.49941016,619.9933333333333,221.48889563,625.48,216.35175432C630.9666666666667,211.21461301,636.4533333333334,205.96225170000002,641.94,200.57716518C647.4266666666667,195.19207866,652.9133333333334,189.68622512,658.4000000000001,184.04123519999996C663.8866666666668,178.39624528,669.3733333333333,172.62467796,674.86,166.70722566C680.3466666666667,160.78977336,685.8333333333333,154.73958761999995,691.3199999999999,148.53652139999997C696.8066666666666,142.33345517999993,702.2933333333333,135.99128549999992,707.78,129.48882833999994C713.2666666666667,122.98637117999995,718.7533333333333,116.33807842000004,724.24,109.52177844000005C729.7266666666667,102.70547846000005,735.2133333333334,95.73632268999997,740.7,88.59102845999996C746.1866666666667,81.44573422999996,751.6733333333334,74.14018544000001,757.1600000000001,66.65001305999999C762.6466666666668,59.15984068000002,768.1333333333333,51.404917430000026,773.62,43.64999418000002"/><text class="label" font-size="11" alignment-baseline="middle" opacity="1" x="5" fill="rgb(17, 165, 121)" transform="translate(823.6199951171875, 53.649993896484375)"/></g><g class="series"><clipPath id="clip-0-1"><rect width="823" y="-10" height="563.18"/></clipPath><path class="line" opacity="1" fill="none" stroke="rgb(204, 80, 62)" stroke-width="2" transform="translate(50,10)" clip-path="url(#clip-0-1)" d="M16.46,491.42482199999995C21.94666666666667,490.3923684999999,27.433333333333334,489.35991499999994,32.92,488.24968799999994C38.406666666666666,487.1394609999999,43.89333333333333,485.81443099999996,49.379999999999995,484.76345999999995C54.86666666666667,483.71248899999995,60.35333333333333,482.90512599999994,65.84,481.94386199999997C71.32666666666667,480.982598,76.81333333333335,480.07647499999996,82.30000000000001,478.99587599999995C87.78666666666668,477.91527699999995,93.27333333333333,476.6486799999999,98.75999999999999,475.4602679999999C104.24666666666667,474.2718559999999,109.73333333333333,473.145992,115.22000000000001,471.86540399999996C120.70666666666668,470.584816,126.19333333333334,469.068027,131.68,467.77673999999996C137.16666666666666,466.48545299999995,142.65333333333334,465.3711109999999,148.14,464.11768199999995C153.62666666666667,462.86425299999996,159.11333333333334,461.65032799999994,164.60000000000002,460.25616599999995C170.08666666666667,458.86200399999996,175.57333333333335,457.406117,181.06,455.75271C186.54666666666665,454.09930299999996,192.03333333333333,452.37594099999995,197.51999999999998,450.33572399999997C203.00666666666666,448.295507,208.49333333333334,445.77548099999996,213.98000000000002,443.51140799999996C219.4666666666667,441.24733499999996,224.95333333333335,438.99149199999994,230.44000000000003,436.75128599999994C235.92666666666668,434.51107999999994,241.41333333333333,432.327661,246.89999999999998,430.07017199999996C252.38666666666666,427.81268299999994,257.87333333333333,425.6769979999999,263.36,423.2063519999999C268.8466666666667,420.73570599999994,274.3333333333333,417.82063999999997,279.82,415.246296C285.3066666666667,412.671952,290.7933333333333,410.02024599999993,296.28,407.76028799999995C301.76666666666665,405.50032999999996,307.25333333333333,403.97613399999994,312.74,401.68654799999996C318.2266666666667,399.396962,323.71333333333337,396.45555999999993,329.20000000000005,394.0227719999999C334.68666666666667,391.5899839999999,340.17333333333335,389.3440169999999,345.65999999999997,387.0898199999999C351.14666666666665,384.83562299999994,356.6333333333333,382.52710799999994,362.12,380.49758999999995C367.6066666666667,378.46807199999995,373.09333333333336,376.67310899999995,378.58000000000004,374.91271199999994C384.06666666666666,373.15231499999993,389.55333333333334,370.126144,395.03999999999996,369.935208C400.52666666666664,369.74427199999997,406.0133333333333,369.83973999999995,411.5,369.6488039999999C416.9866666666667,369.4578679999999,422.47333333333336,364.749485,427.96000000000004,362.86893C433.4466666666667,360.98837499999996,438.93333333333334,359.53413399999994,444.42,358.36547399999995C449.9066666666667,357.19681399999996,455.3933333333334,357.14781257999994,460.88000000000005,355.85696999999993C466.3666666666667,354.56612741999993,471.85333333333335,352.83810723999994,477.34,350.62041851999993C482.82666666666665,348.4027297999999,488.3133333333333,345.29706523,493.79999999999995,342.55083768C499.28666666666663,339.80461012999996,504.7733333333333,337.00437731999995,510.26,334.14305321999996C515.7466666666667,331.28172911999997,521.2333333333333,328.36412004999994,526.72,325.38289308C532.2066666666667,322.40166611,537.6933333333334,319.36184977,543.1800000000001,316.2556914C548.6666666666667,313.14953303,554.1533333333333,309.98228337,559.64,306.74594286C565.1266666666667,303.50960235,570.6133333333332,300.20961101999995,576.0999999999999,296.83764834C581.5866666666666,293.46568565999996,587.0733333333333,290.02743033,592.56,286.51416678C598.0466666666666,283.00090322999995,603.5333333333333,279.41856528999995,609.02,275.75806703999996C614.5066666666667,272.09756878999997,619.9933333333333,268.3650745,625.48,264.55117728C630.9666666666667,260.73728006,636.4533333333334,256.8484075399999,641.94,252.87468371999995C647.4266666666667,248.90095989999995,652.9133333333334,244.84909223,658.4000000000001,240.70883435999997C663.8866666666668,236.56857649,669.3733333333333,232.34689922999996,674.86,228.03313649999996C680.3466666666667,223.71937376999995,685.8333333333333,219.32080088999996,691.3199999999999,214.82625797999998C696.8066666666666,210.33171506999997,702.2933333333333,205.74877372999998,707.78,201.06587903999997C713.2666666666667,196.38298434999996,718.7533333333333,191.6080288799999,724.24,186.7288898399999C729.7266666666667,181.84975079999992,735.2133333333334,176.87465819,740.7,171.7910448C746.1866666666667,166.70743141000003,751.6733333333334,161.52385643999997,757.1600000000001,156.22720949999996C762.6466666666668,150.93056255999997,768.1333333333333,145.47086286,773.62,140.01116316000002"/><text class="label" font-size="11" alignment-baseline="middle" opacity="1" x="5" fill="rgb(204, 80, 62)" transform="translate(823.6199951171875, 150.01116943359375)"/></g></g><g id="data-points"><g class="series" transform="translate(50,10)"><path class="data-point" fill="rgb(17, 165, 121)" data-type="point" transform="translate(0, 0)" d="M13.46,488.8126199999999A3,3,0,1,1,19.46,488.8126199999999A3,3,0,1,1,13.46,488.8126199999999Z" id="point-0-0" opacity="1"/><path class="data-point" fill="rgb(17, 165, 121)" data-type="point" transform="translate(0, 0)" d="M29.92,483.87461999999994A3,3,0,1,1,35.92,483.87461999999994A3,3,0,1,1,29.92,483.87461999999994Z" id="point-0-1" opacity="1"/><path class="data-point" fill="rgb(17, 165, 121)" data-type="point" transform="translate(0, 0)" d="M46.379999999999995,479.67731999999995A3,3,0,1,1,52.379999999999995,479.67731999999995A3,3,0,1,1,46.379999999999995,479.67731999999995Z" id="point-0-2" opacity="1"/><path class="data-point" fill="rgb(17, 165, 121)" data-type="point" transform="translate(0, 0)" d="M62.84,477.15894A3,3,0,1,1,68.84,477.15894A3,3,0,1,1,62.84,477.15894Z" id="point-0-3" opacity="1"/><path class="data-point" fill="rgb(17, 165, 121)" data-type="point" transform="translate(0, 0)" d="M79.30000000000001,474.34427999999997A3,3,0,1,1,85.30000000000001,474.34427999999997A3,3,0,1,1,79.30000000000001,474.34427999999997Z" id="point-0-4" opacity="1"/><path class="data-point" fill="rgb(17, 165, 121)" data-type="point" transform="translate(0, 0)" d="M95.75999999999999,471.38147999999995A3,3,0,1,1,101.75999999999999,471.38147999999995A3,3,0,1,1,95.75999999999999,471.38147999999995Z" id="point-0-5" opacity="1"/><path class="data-point" fill="rgb(17, 165, 121)" data-type="point" transform="translate(0, 0)" d="M112.22000000000001,467.82611999999995A3,3,0,1,1,118.22000000000001,467.82611999999995A3,3,0,1,1,112.22000000000001,467.82611999999995Z" id="point-0-6" opacity="1"/><path class="data-point" fill="rgb(17, 165, 121)" data-type="point" transform="translate(0, 0)" d="M128.68,463.28315999999995A3,3,0,1,1,134.68,463.28315999999995A3,3,0,1,1,128.68,463.28315999999995Z" id="point-0-7" opacity="1"/><path class="data-point" fill="rgb(17, 165, 121)" data-type="point" transform="translate(0, 0)" d="M145.14,460.12283999999994A3,3,0,1,1,151.14,460.12283999999994A3,3,0,1,1,145.14,460.12283999999994Z" id="point-0-8" opacity="1"/><path class="data-point" fill="rgb(17, 165, 121)" data-type="point" transform="translate(0, 0)" d="M161.60000000000002,456.448968A3,3,0,1,1,167.60000000000002,456.448968A3,3,0,1,1,161.60000000000002,456.448968Z" id="point-0-9" opacity="1"/><path class="data-point" fill="rgb(17, 165, 121)" data-type="point" transform="translate(0, 0)" d="M178.06,452.14797A3,3,0,1,1,184.06,452.14797A3,3,0,1,1,178.06,452.14797Z" id="point-0-10" opacity="1"/><path class="data-point" fill="rgb(17, 165, 121)" data-type="point" transform="translate(0, 0)" d="M194.51999999999998,445.90139999999997A3,3,0,1,1,200.51999999999998,445.90139999999997A3,3,0,1,1,194.51999999999998,445.90139999999997Z" id="point-0-11" opacity="1"/><path class="data-point" fill="rgb(17, 165, 121)" data-type="point" transform="translate(0, 0)" d="M210.98000000000002,439.2351A3,3,0,1,1,216.98000000000002,439.2351A3,3,0,1,1,210.98000000000002,439.2351Z" id="point-0-12" opacity="1"/><path class="data-point" fill="rgb(17, 165, 121)" data-type="point" transform="translate(0, 0)" d="M227.44000000000003,433.0626A3,3,0,1,1,233.44000000000003,433.0626A3,3,0,1,1,227.44000000000003,433.0626Z" id="point-0-13" opacity="1"/><path class="data-point" fill="rgb(17, 165, 121)" data-type="point" transform="translate(0, 0)" d="M243.89999999999998,427.28513999999996A3,3,0,1,1,249.89999999999998,427.28513999999996A3,3,0,1,1,243.89999999999998,427.28513999999996Z" id="point-0-14" opacity="1"/><path class="data-point" fill="rgb(17, 165, 121)" data-type="point" transform="translate(0, 0)" d="M260.36,420.76697999999993A3,3,0,1,1,266.36,420.76697999999993A3,3,0,1,1,260.36,420.76697999999993Z" id="point-0-15" opacity="1"/><path class="data-point" fill="rgb(17, 165, 121)" data-type="point" transform="translate(0, 0)" d="M276.82,413.65626A3,3,0,1,1,282.82,413.65626A3,3,0,1,1,276.82,413.65626Z" id="point-0-16" opacity="1"/><path class="data-point" fill="rgb(17, 165, 121)" data-type="point" transform="translate(0, 0)" d="M293.28,406.24925999999994A3,3,0,1,1,299.28,406.24925999999994A3,3,0,1,1,293.28,406.24925999999994Z" id="point-0-17" opacity="1"/><path class="data-point" fill="rgb(17, 165, 121)" data-type="point" transform="translate(0, 0)" d="M309.74,399.6817199999999A3,3,0,1,1,315.74,399.6817199999999A3,3,0,1,1,309.74,399.6817199999999Z" id="point-0-18" opacity="1"/><path class="data-point" fill="rgb(17, 165, 121)" data-type="point" transform="translate(0, 0)" d="M326.20000000000005,392.7191399999999A3,3,0,1,1,332.20000000000005,392.7191399999999A3,3,0,1,1,326.20000000000005,392.7191399999999Z" id="point-0-19" opacity="1"/><path class="data-point" fill="rgb(17, 165, 121)" data-type="point" transform="translate(0, 0)" d="M342.65999999999997,385.50965999999994A3,3,0,1,1,348.65999999999997,385.50965999999994A3,3,0,1,1,342.65999999999997,385.50965999999994Z" id="point-0-20" opacity="1"/><path class="data-point" fill="rgb(17, 165, 121)" data-type="point" transform="translate(0, 0)" d="M359.12,378.15203999999994A3,3,0,1,1,365.12,378.15203999999994A3,3,0,1,1,359.12,378.15203999999994Z" id="point-0-21" opacity="1"/><path class="data-point" fill="rgb(17, 165, 121)" data-type="point" transform="translate(0, 0)" d="M375.58000000000004,369.0167399999999A3,3,0,1,1,381.58000000000004,369.0167399999999A3,3,0,1,1,375.58000000000004,369.0167399999999Z" id="point-0-22" opacity="1"/><path class="data-point" fill="rgb(17, 165, 121)" data-type="point" transform="translate(0, 0)" d="M392.03999999999996,361.31345999999996A3,3,0,1,1,398.03999999999996,361.31345999999996A3,3,0,1,1,392.03999999999996,361.31345999999996Z" id="point-0-23" opacity="1"/><path class="data-point" fill="rgb(17, 165, 121)" data-type="point" transform="translate(0, 0)" d="M408.5,353.75831999999997A3,3,0,1,1,414.5,353.75831999999997A3,3,0,1,1,408.5,353.75831999999997Z" id="point-0-24" opacity="1"/><path class="data-point" fill="rgb(17, 165, 121)" data-type="point" transform="translate(0, 0)" d="M424.96000000000004,346.54884A3,3,0,1,1,430.96000000000004,346.54884A3,3,0,1,1,424.96000000000004,346.54884Z" id="point-0-25" opacity="1"/><path class="data-point" fill="rgb(17, 165, 121)" data-type="point" transform="translate(0, 0)" d="M441.42,339.19121999999993A3,3,0,1,1,447.42,339.19121999999993A3,3,0,1,1,441.42,339.19121999999993Z" id="point-0-26" opacity="1"/><path class="data-point" fill="rgb(17, 165, 121)" data-type="point" transform="translate(0, 0)" d="M457.88000000000005,331.53732A3,3,0,1,1,463.88000000000005,331.53732A3,3,0,1,1,457.88000000000005,331.53732Z" id="point-0-27" opacity="1"/><path class="data-point" fill="rgb(17, 165, 121)" data-type="point" transform="translate(0, 0)" d="M474.34,329.3455887A3,3,0,1,1,480.34,329.3455887A3,3,0,1,1,474.34,329.3455887Z" id="point-0-28" opacity="1"/><path class="data-point" fill="rgb(17, 165, 121)" data-type="point" transform="translate(0, 0)" d="M490.79999999999995,319.02472428A3,3,0,1,1,496.79999999999995,319.02472428A3,3,0,1,1,490.79999999999995,319.02472428Z" id="point-0-29" opacity="1"/><path class="data-point" fill="rgb(17, 165, 121)" data-type="point" transform="translate(0, 0)" d="M507.26,308.20576379999994A3,3,0,1,1,513.26,308.20576379999994A3,3,0,1,1,507.26,308.20576379999994Z" id="point-0-30" opacity="1"/><path class="data-point" fill="rgb(17, 165, 121)" data-type="point" transform="translate(0, 0)" d="M523.72,296.86456043999993A3,3,0,1,1,529.72,296.86456043999993A3,3,0,1,1,523.72,296.86456043999993Z" id="point-0-31" opacity="1"/><path class="data-point" fill="rgb(17, 165, 121)" data-type="point" transform="translate(0, 0)" d="M540.1800000000001,284.97602915999994A3,3,0,1,1,546.1800000000001,284.97602915999994A3,3,0,1,1,540.1800000000001,284.97602915999994Z" id="point-0-32" opacity="1"/><path class="data-point" fill="rgb(17, 165, 121)" data-type="point" transform="translate(0, 0)" d="M556.64,272.5136529A3,3,0,1,1,562.64,272.5136529A3,3,0,1,1,556.64,272.5136529Z" id="point-0-33" opacity="1"/><path class="data-point" fill="rgb(17, 165, 121)" data-type="point" transform="translate(0, 0)" d="M573.0999999999999,259.44977886A3,3,0,1,1,579.0999999999999,259.44977886A3,3,0,1,1,573.0999999999999,259.44977886Z" id="point-0-34" opacity="1"/><path class="data-point" fill="rgb(17, 165, 121)" data-type="point" transform="translate(0, 0)" d="M589.56,245.75537159999993A3,3,0,1,1,595.56,245.75537159999993A3,3,0,1,1,589.56,245.75537159999993Z" id="point-0-35" opacity="1"/><path class="data-point" fill="rgb(17, 165, 121)" data-type="point" transform="translate(0, 0)" d="M606.02,231.40001303999998A3,3,0,1,1,612.02,231.40001303999998A3,3,0,1,1,606.02,231.40001303999998Z" id="point-0-36" opacity="1"/><path class="data-point" fill="rgb(17, 165, 121)" data-type="point" transform="translate(0, 0)" d="M622.48,216.35175432A3,3,0,1,1,628.48,216.35175432A3,3,0,1,1,622.48,216.35175432Z" id="point-0-37" opacity="1"/><path class="data-point" fill="rgb(17, 165, 121)" data-type="point" transform="translate(0, 0)" d="M638.94,200.57716518A3,3,0,1,1,644.94,200.57716518A3,3,0,1,1,638.94,200.57716518Z" id="point-0-38" opacity="1"/><path class="data-point" fill="rgb(17, 165, 121)" data-type="point" transform="translate(0, 0)" d="M655.4000000000001,184.04123519999996A3,3,0,1,1,661.4000000000001,184.04123519999996A3,3,0,1,1,655.4000000000001,184.04123519999996Z" id="point-0-39" opacity="1"/><path class="data-point" fill="rgb(17, 165, 121)" data-type="point" transform="translate(0, 0)" d="M671.86,166.70722566A3,3,0,1,1,677.86,166.70722566A3,3,0,1,1,671.86,166.70722566Z" id="point-0-40" opacity="1"/><path class="data-point" fill="rgb(17, 165, 121)" data-type="point" transform="translate(0, 0)" d="M688.3199999999999,148.53652139999997A3,3,0,1,1,694.3199999999999,148.53652139999997A3,3,0,1,1,688.3199999999999,148.53652139999997Z" id="point-0-41" opacity="1"/><path class="data-point" fill="rgb(17, 165, 121)" data-type="point" transform="translate(0, 0)" d="M704.78,129.48882833999994A3,3,0,1,1,710.78,129.48882833999994A3,3,0,1,1,704.78,129.48882833999994Z" id="point-0-42" opacity="1"/><path class="data-point" fill="rgb(17, 165, 121)" data-type="point" transform="translate(0, 0)" d="M721.24,109.52177844000005A3,3,0,1,1,727.24,109.52177844000005A3,3,0,1,1,721.24,109.52177844000005Z" id="point-0-43" opacity="1"/><path class="data-point" fill="rgb(17, 165, 121)" data-type="point" transform="translate(0, 0)" d="M737.7,88.59102845999996A3,3,0,1,1,743.7,88.59102845999996A3,3,0,1,1,737.7,88.59102845999996Z" id="point-0-44" opacity="1"/><path class="data-point" fill="rgb(17, 165, 121)" data-type="point" transform="translate(0, 0)" d="M754.1600000000001,66.65001305999999A3,3,0,1,1,760.1600000000001,66.65001305999999A3,3,0,1,1,754.1600000000001,66.65001305999999Z" id="point-0-45" opacity="1"/><path class="data-point" fill="#11A579" data-type="point" transform="translate(0, 0)" d="M770.62,43.64999418000002A3,3,0,1,1,776.62,43.64999418000002A3,3,0,1,1,770.62,43.64999418000002Z" id="point-0-46" opacity="1"/></g><g class="series" transform="translate(50,10)"><path class="data-point" fill="rgb(204, 80, 62)" data-type="point" transform="translate(0, 0)" d="M13.46,491.42482199999995A3,3,0,1,1,19.46,491.42482199999995A3,3,0,1,1,13.46,491.42482199999995Z" id="point-1-0" opacity="1"/><path class="data-point" fill="rgb(204, 80, 62)" data-type="point" transform="translate(0, 0)" d="M29.92,488.24968799999994A3,3,0,1,1,35.92,488.24968799999994A3,3,0,1,1,29.92,488.24968799999994Z" id="point-1-1" opacity="1"/><path class="data-point" fill="rgb(204, 80, 62)" data-type="point" transform="translate(0, 0)" d="M46.379999999999995,484.76345999999995A3,3,0,1,1,52.379999999999995,484.76345999999995A3,3,0,1,1,46.379999999999995,484.76345999999995Z" id="point-1-2" opacity="1"/><path class="data-point" fill="rgb(204, 80, 62)" data-type="point" transform="translate(0, 0)" d="M62.84,481.94386199999997A3,3,0,1,1,68.84,481.94386199999997A3,3,0,1,1,62.84,481.94386199999997Z" id="point-1-3" opacity="1"/><path class="data-point" fill="rgb(204, 80, 62)" data-type="point" transform="translate(0, 0)" d="M79.30000000000001,478.99587599999995A3,3,0,1,1,85.30000000000001,478.99587599999995A3,3,0,1,1,79.30000000000001,478.99587599999995Z" id="point-1-4" opacity="1"/><path class="data-point" fill="rgb(204, 80, 62)" data-type="point" transform="translate(0, 0)" d="M95.75999999999999,475.4602679999999A3,3,0,1,1,101.75999999999999,475.4602679999999A3,3,0,1,1,95.75999999999999,475.4602679999999Z" id="point-1-5" opacity="1"/><path class="data-point" fill="rgb(204, 80, 62)" data-type="point" transform="translate(0, 0)" d="M112.22000000000001,471.86540399999996A3,3,0,1,1,118.22000000000001,471.86540399999996A3,3,0,1,1,112.22000000000001,471.86540399999996Z" id="point-1-6" opacity="1"/><path class="data-point" fill="rgb(204, 80, 62)" data-type="point" transform="translate(0, 0)" d="M128.68,467.77673999999996A3,3,0,1,1,134.68,467.77673999999996A3,3,0,1,1,128.68,467.77673999999996Z" id="point-1-7" opacity="1"/><path class="data-point" fill="rgb(204, 80, 62)" data-type="point" transform="translate(0, 0)" d="M145.14,464.11768199999995A3,3,0,1,1,151.14,464.11768199999995A3,3,0,1,1,145.14,464.11768199999995Z" id="point-1-8" opacity="1"/><path class="data-point" fill="rgb(204, 80, 62)" data-type="point" transform="translate(0, 0)" d="M161.60000000000002,460.25616599999995A3,3,0,1,1,167.60000000000002,460.25616599999995A3,3,0,1,1,161.60000000000002,460.25616599999995Z" id="point-1-9" opacity="1"/><path class="data-point" fill="rgb(204, 80, 62)" data-type="point" transform="translate(0, 0)" d="M178.06,455.75271A3,3,0,1,1,184.06,455.75271A3,3,0,1,1,178.06,455.75271Z" id="point-1-10" opacity="1"/><path class="data-point" fill="rgb(204, 80, 62)" data-type="point" transform="translate(0, 0)" d="M194.51999999999998,450.33572399999997A3,3,0,1,1,200.51999999999998,450.33572399999997A3,3,0,1,1,194.51999999999998,450.33572399999997Z" id="point-1-11" opacity="1"/><path class="data-point" fill="rgb(204, 80, 62)" data-type="point" transform="translate(0, 0)" d="M210.98000000000002,443.51140799999996A3,3,0,1,1,216.98000000000002,443.51140799999996A3,3,0,1,1,210.98000000000002,443.51140799999996Z" id="point-1-12" opacity="1"/><path class="data-point" fill="rgb(204, 80, 62)" data-type="point" transform="translate(0, 0)" d="M227.44000000000003,436.75128599999994A3,3,0,1,1,233.44000000000003,436.75128599999994A3,3,0,1,1,227.44000000000003,436.75128599999994Z" id="point-1-13" opacity="1"/><path class="data-point" fill="rgb(204, 80, 62)" data-type="point" transform="translate(0, 0)" d="M243.89999999999998,430.07017199999996A3,3,0,1,1,249.89999999999998,430.07017199999996A3,3,0,1,1,243.89999999999998,430.07017199999996Z" id="point-1-14" opacity="1"/><path class="data-point" fill="rgb(204, 80, 62)" data-type="point" transform="translate(0, 0)" d="M260.36,423.2063519999999A3,3,0,1,1,266.36,423.2063519999999A3,3,0,1,1,260.36,423.2063519999999Z" id="point-1-15" opacity="1"/><path class="data-point" fill="rgb(204, 80, 62)" data-type="point" transform="translate(0, 0)" d="M276.82,415.246296A3,3,0,1,1,282.82,415.246296A3,3,0,1,1,276.82,415.246296Z" id="point-1-16" opacity="1"/><path class="data-point" fill="rgb(204, 80, 62)" data-type="point" transform="translate(0, 0)" d="M293.28,407.76028799999995A3,3,0,1,1,299.28,407.76028799999995A3,3,0,1,1,293.28,407.76028799999995Z" id="point-1-17" opacity="1"/><path class="data-point" fill="rgb(204, 80, 62)" data-type="point" transform="translate(0, 0)" d="M309.74,401.68654799999996A3,3,0,1,1,315.74,401.68654799999996A3,3,0,1,1,309.74,401.68654799999996Z" id="point-1-18" opacity="1"/><path class="data-point" fill="rgb(204, 80, 62)" data-type="point" transform="translate(0, 0)" d="M326.20000000000005,394.0227719999999A3,3,0,1,1,332.20000000000005,394.0227719999999A3,3,0,1,1,326.20000000000005,394.0227719999999Z" id="point-1-19" opacity="1"/><path class="data-point" fill="rgb(204, 80, 62)" data-type="point" transform="translate(0, 0)" d="M342.65999999999997,387.0898199999999A3,3,0,1,1,348.65999999999997,387.0898199999999A3,3,0,1,1,342.65999999999997,387.0898199999999Z" id="point-1-20" opacity="1"/><path class="data-point" fill="rgb(204, 80, 62)" data-type="point" transform="translate(0, 0)" d="M359.12,380.49758999999995A3,3,0,1,1,365.12,380.49758999999995A3,3,0,1,1,359.12,380.49758999999995Z" id="point-1-21" opacity="1"/><path class="data-point" fill="rgb(204, 80, 62)" data-type="point" transform="translate(0, 0)" d="M375.58000000000004,374.91271199999994A3,3,0,1,1,381.58000000000004,374.91271199999994A3,3,0,1,1,375.58000000000004,374.91271199999994Z" id="point-1-22" opacity="1"/><path class="data-point" fill="rgb(204, 80, 62)" data-type="point" transform="translate(0, 0)" d="M392.03999999999996,369.935208A3,3,0,1,1,398.03999999999996,369.935208A3,3,0,1,1,392.03999999999996,369.935208Z" id="point-1-23" opacity="1"/><path class="data-point" fill="rgb(204, 80, 62)" data-type="point" transform="translate(0, 0)" d="M408.5,369.6488039999999A3,3,0,1,1,414.5,369.6488039999999A3,3,0,1,1,408.5,369.6488039999999Z" id="point-1-24" opacity="1"/><path class="data-point" fill="rgb(204, 80, 62)" data-type="point" transform="translate(0, 0)" d="M424.96000000000004,362.86893A3,3,0,1,1,430.96000000000004,362.86893A3,3,0,1,1,424.96000000000004,362.86893Z" id="point-1-25" opacity="1"/><path class="data-point" fill="rgb(204, 80, 62)" data-type="point" transform="translate(0, 0)" d="M441.42,358.36547399999995A3,3,0,1,1,447.42,358.36547399999995A3,3,0,1,1,441.42,358.36547399999995Z" id="point-1-26" opacity="1"/><path class="data-point" fill="rgb(204, 80, 62)" data-type="point" transform="translate(0, 0)" d="M457.88000000000005,355.85696999999993A3,3,0,1,1,463.88000000000005,355.85696999999993A3,3,0,1,1,457.88000000000005,355.85696999999993Z" id="point-1-27" opacity="1"/><path class="data-point" fill="rgb(204, 80, 62)" data-type="point" transform="translate(0, 0)" d="M474.34,350.62041851999993A3,3,0,1,1,480.34,350.62041851999993A3,3,0,1,1,474.34,350.62041851999993Z" id="point-1-28" opacity="1"/><path class="data-point" fill="rgb(204, 80, 62)" data-type="point" transform="translate(0, 0)" d="M490.79999999999995,342.55083768A3,3,0,1,1,496.79999999999995,342.55083768A3,3,0,1,1,490.79999999999995,342.55083768Z" id="point-1-29" opacity="1"/><path class="data-point" fill="rgb(204, 80, 62)" data-type="point" transform="translate(0, 0)" d="M507.26,334.14305321999996A3,3,0,1,1,513.26,334.14305321999996A3,3,0,1,1,507.26,334.14305321999996Z" id="point-1-30" opacity="1"/><path class="data-point" fill="rgb(204, 80, 62)" data-type="point" transform="translate(0, 0)" d="M523.72,325.38289308A3,3,0,1,1,529.72,325.38289308A3,3,0,1,1,523.72,325.38289308Z" id="point-1-31" opacity="1"/><path class="data-point" fill="rgb(204, 80, 62)" data-type="point" transform="translate(0, 0)" d="M540.1800000000001,316.2556914A3,3,0,1,1,546.1800000000001,316.2556914A3,3,0,1,1,540.1800000000001,316.2556914Z" id="point-1-32" opacity="1"/><path class="data-point" fill="rgb(204, 80, 62)" data-type="point" transform="translate(0, 0)" d="M556.64,306.74594286A3,3,0,1,1,562.64,306.74594286A3,3,0,1,1,556.64,306.74594286Z" id="point-1-33" opacity="1"/><path class="data-point" fill="rgb(204, 80, 62)" data-type="point" transform="translate(0, 0)" d="M573.0999999999999,296.83764834A3,3,0,1,1,579.0999999999999,296.83764834A3,3,0,1,1,573.0999999999999,296.83764834Z" id="point-1-34" opacity="1"/><path class="data-point" fill="rgb(204, 80, 62)" data-type="point" transform="translate(0, 0)" d="M589.56,286.51416678A3,3,0,1,1,595.56,286.51416678A3,3,0,1,1,589.56,286.51416678Z" id="point-1-35" opacity="1"/><path class="data-point" fill="rgb(204, 80, 62)" data-type="point" transform="translate(0, 0)" d="M606.02,275.75806703999996A3,3,0,1,1,612.02,275.75806703999996A3,3,0,1,1,606.02,275.75806703999996Z" id="point-1-36" opacity="1"/><path class="data-point" fill="rgb(204, 80, 62)" data-type="point" transform="translate(0, 0)" d="M622.48,264.55117728A3,3,0,1,1,628.48,264.55117728A3,3,0,1,1,622.48,264.55117728Z" id="point-1-37" opacity="1"/><path class="data-point" fill="rgb(204, 80, 62)" data-type="point" transform="translate(0, 0)" d="M638.94,252.87468371999995A3,3,0,1,1,644.94,252.87468371999995A3,3,0,1,1,638.94,252.87468371999995Z" id="point-1-38" opacity="1"/><path class="data-point" fill="rgb(204, 80, 62)" data-type="point" transform="translate(0, 0)" d="M655.4000000000001,240.70883435999997A3,3,0,1,1,661.4000000000001,240.70883435999997A3,3,0,1,1,655.4000000000001,240.70883435999997Z" id="point-1-39" opacity="1"/><path class="data-point" fill="rgb(204, 80, 62)" data-type="point" transform="translate(0, 0)" d="M671.86,228.03313649999996A3,3,0,1,1,677.86,228.03313649999996A3,3,0,1,1,671.86,228.03313649999996Z" id="point-1-40" opacity="1"/><path class="data-point" fill="rgb(204, 80, 62)" data-type="point" transform="translate(0, 0)" d="M688.3199999999999,214.82625797999998A3,3,0,1,1,694.3199999999999,214.82625797999998A3,3,0,1,1,688.3199999999999,214.82625797999998Z" id="point-1-41" opacity="1"/><path class="data-point" fill="rgb(204, 80, 62)" data-type="point" transform="translate(0, 0)" d="M704.78,201.06587903999997A3,3,0,1,1,710.78,201.06587903999997A3,3,0,1,1,704.78,201.06587903999997Z" id="point-1-42" opacity="1"/><path class="data-point" fill="rgb(204, 80, 62)" data-type="point" transform="translate(0, 0)" d="M721.24,186.7288898399999A3,3,0,1,1,727.24,186.7288898399999A3,3,0,1,1,721.24,186.7288898399999Z" id="point-1-43" opacity="1"/><path class="data-point" fill="rgb(204, 80, 62)" data-type="point" transform="translate(0, 0)" d="M737.7,171.7910448A3,3,0,1,1,743.7,171.7910448A3,3,0,1,1,737.7,171.7910448Z" id="point-1-44" opacity="1"/><path class="data-point" fill="rgb(204, 80, 62)" data-type="point" transform="translate(0, 0)" d="M754.1600000000001,156.22720949999996A3,3,0,1,1,760.1600000000001,156.22720949999996A3,3,0,1,1,754.1600000000001,156.22720949999996Z" id="point-1-45" opacity="1"/><path class="data-point" fill="rgb(204, 80, 62)" data-type="point" transform="translate(0, 0)" d="M770.62,140.01116316000002A3,3,0,1,1,776.62,140.01116316000002A3,3,0,1,1,770.62,140.01116316000002Z" id="point-1-46" opacity="1"/></g></g><g id="data-labels"/><g class="annotations above"><g class="axis-highlights" transform="translate(50, 10)" style="opacity: 1;"/></g></svg>