<svg xmlns="http://www.w3.org/2000/svg" id="graphic" width="961" height="634.6"><g id="facets"><g class="facet" transform="translate(15,20)" opacity="1"><text class="facet-title" y="0" font-size="16" font-weight="bold" dominant-baseline="middle" x="0" clip-path="url(#facet-clip-0)" fill="black"/><g class="plot"><clipPath class="facet-clip" id="facet-clip-0"><rect width="951" height="581.6" transform="translate(-7.5,-10)"/></clipPath><g class="bg"><rect fill="none" width="936" height="561.6" style="fill: none;"/></g><g class="interaction"><g class="series"><path data-target="point-0-0" d="M0,506.739338L66.93331089879874,506.739338L66.79709036153643,502.5452075L0,268.0892983333066Z" style="opacity: 0;"/><path data-target="point-0-1" d="M0,268.0892983333066L66.79709036153643,502.5452075L84.70757741102449,502.54520749999995L84.91127364315156,498.57316399999996L0,147.9423683099282Z" style="opacity: 0;"/><path data-target="point-0-2" d="M0,147.9423683099282L84.91127364315156,498.57316399999996L102.52938829306235,498.573164L102.89024862026076,495.81366549999996L30.84835701407033,0L0,0Z" style="opacity: 0;"/><path data-target="point-0-3" d="M30.84835701407033,0L102.89024862026076,495.81366549999996L120.4784830796338,495.81366549999996L120.79421214860382,492.83463299999994L40.76059044073633,0Z" style="opacity: 0;"/><path data-target="point-0-4" d="M40.76059044073633,0L120.79421214860382,492.83463299999994L138.44231473775133,492.83463299999994L138.65861892891002,489.4752435L61.60763250057636,38.73067166596928L53.36856175673113,0Z" style="opacity: 0;"/><path data-target="point-0-5" d="M61.60763250057636,38.73067166596928L138.65861892891002,489.4752435L156.42811308868542,489.4752435L156.53131672041343,485.7788945L88.01773248589959,151.77785762345462Z" style="opacity: 0;"/><path data-target="point-0-6" d="M88.01773248589959,151.77785762345462L156.53131672041343,485.7788945L174.4060219201557,485.7788945L174.3933089758637,481.316727Z" style="opacity: 0;"/><path data-target="point-0-7" d="M53.36856175673113,0L61.60763250057636,38.73067166596928L88.01773248589959,151.77785762345462L174.3933089758637,481.316727L192.22892360081684,481.316727L192.39866245136105,477.791411L117.90299620951973,69.23244400888643L98.691330659755,0Z" style="opacity: 0;"/><path data-target="point-0-8" d="M117.90299620951973,69.23244400888643L192.39866245136105,477.791411L210.2246442711257,477.791411L210.2546095473709,473.89594900000003L143.3787115016836,158.39534915708424L129.71533383563468,108.43903314386102Z" style="opacity: 0;"/><path data-target="point-0-9" d="M143.3787115016836,158.39534915708424L210.2546095473709,473.89594900000003L228.25352221096747,473.89594900000003L228.07068219356808,469.344436L184.20072445655933,292.5564926560045Z" style="opacity: 0;"/><path data-target="point-0-10" d="M184.20072445655933,292.5564926560045L228.07068219356808,469.344436L246.37280148821938,469.344436L245.74235740685268,463.3148945Z" style="opacity: 0;"/><path data-target="point-0-11" d="M129.71533383563468,108.43903314386102L143.3787115016836,158.39534915708424L184.20072445655933,292.5564926560045L245.74235740685268,463.3148945L264.48646800498216,463.3148945L263.52479618673215,456.34084349999995Z" style="opacity: 0;"/><path data-target="point-0-12" d="M98.691330659755,0L117.90299620951973,69.23244400888643L129.71533383563468,108.43903314386102L263.52479618673215,456.34084349999995L282.42080920725857,456.3408435L281.4627235093752,449.655251L121.32779188960293,0Z" style="opacity: 0;"/><path data-target="point-0-13" d="M121.32779188960293,0L281.4627235093752,449.655251L300.43630894525893,449.655251L299.32434479882556,443.21471999999994L151.58490112789679,0Z" style="opacity: 0;"/><path data-target="point-0-14" d="M151.58490112789679,0L299.32434479882556,443.21471999999994L318.59501781617445,443.21471999999994L316.9670334610714,436.296829L152.88826169785722,0Z" style="opacity: 0;"/><path data-target="point-0-15" d="M152.88826169785722,0L316.9670334610714,436.296829L336.9907130266968,436.296829L334.5091395521543,428.5059055L158.71040719279603,0Z" style="opacity: 0;"/><path data-target="point-0-16" d="M158.71040719279603,0L334.5091395521543,428.5059055L354.9164497855895,428.5059055L352.2974440973219,420.80688L172.46398015244677,-5.684341886080802e-14Z" style="opacity: 0;"/><path data-target="point-0-17" d="M172.46398015244677,-5.684341886080802e-14L352.2974440973219,420.80688L372.34656682875,420.80688L370.62623281724996,414.27189799999996L213.6501495314185,0Z" style="opacity: 0;"/><path data-target="point-0-18" d="M213.6501495314185,0L370.62623281724996,414.27189799999996L390.7335318998023,414.27189799999996L388.26481951908363,406.71072L224.88397132335172,0Z" style="opacity: 0;"/><path data-target="point-0-19" d="M224.88397132335172,0L388.26481951908363,406.71072L408.52405301887956,406.71072L406.14951742622344,399.399709L240.01608815744734,0Z" style="opacity: 0;"/><path data-target="point-0-20" d="M240.01608815744734,0L406.14951742622344,399.399709L426.26548068337473,399.399709L424.18010027983894,392.18825449999997L332.5115676996082,176.24600667927433L248.6559503021628,2.842170943040401e-14Z" style="opacity: 0;"/><path data-target="point-0-21" d="M332.5115676996082,176.24600667927433L424.18010027983894,392.18825449999997L443.73959416018084,392.1882545L442.3173746934933,384.5785745Z" style="opacity: 0;"/><path data-target="point-0-22" d="M248.6559503021628,2.842170943040401e-14L332.5115676996082,176.24600667927433L442.3173746934933,384.5785745L460.9836439236811,384.5785745L461.3310272660166,378.023171L293.3193672415722,0Z" style="opacity: 0;"/><path data-target="point-0-23" d="M293.3193672415722,0L461.3310272660166,378.023171L478.96879636219813,378.023171L480.9182987134323,373.96943999999996L317.90466504731603,0Z" style="opacity: 0;"/><path data-target="point-0-24" d="M317.90466504731603,0L480.9182987134323,373.96943999999996L495.1176688308536,373.96943999999996L498.91907041009296,366.73756349999996L346.37171573505304,0Z" style="opacity: 0;"/><path data-target="point-0-25" d="M346.37171573505304,0L498.91907041009296,366.73756349999996L513.2927756309313,366.7375635L517.473162831329,360.605913L364.3942020533191,0Z" style="opacity: 0;"/><path data-target="point-0-26" d="M364.3942020533191,0L517.473162831329,360.605913L531.5530807509476,360.605913L536.6045765340568,355.3524L379.68129380291805,0Z" style="opacity: 0;"/><path data-target="point-0-27" d="M379.68129380291805,0L536.6045765340568,355.3524L547.739473601492,355.3524L551.9674836180537,351.5123065L544.8500128763504,295.2272563108946L512.4987992535433,205.60252767648598L464.83867730722193,99.38715499925135L415.1332282559625,0Z" style="opacity: 0;"/><path data-target="point-0-28" d="M544.8500128763504,295.2272563108946L551.9674836180537,351.5123065L565.4616903808483,351.5123065L572.705007166206,342.00526149999996Z" style="opacity: 0;"/><path data-target="point-0-29" d="M512.4987992535433,205.60252767648598L544.8500128763504,295.2272563108946L572.705007166206,342.00526149999996L582.7687359829838,342.00526149999996L591.438518657566,332.0658855Z" style="opacity: 0;"/><path data-target="point-0-30" d="M464.83867730722193,99.38715499925135L512.4987992535433,205.60252767648598L591.438518657566,332.0658855L599.9919130617949,332.0658855L610.2904316253906,321.67437099999995Z" style="opacity: 0;"/><path data-target="point-0-31" d="M415.1332282559625,0L464.83867730722193,99.38715499925135L610.2904316253906,321.67437099999995L617.1211483982362,321.67437099999995L629.2759071625517,310.81016800000003L416.08496897708534,0Z" style="opacity: 0;"/><path data-target="point-0-32" d="M416.08496897708534,0L629.2759071625517,310.81016800000003L634.1451784116474,310.810168L648.4120064121894,299.4515525L433.0977676955798,0Z" style="opacity: 0;"/><path data-target="point-0-33" d="M433.0977676955798,0L648.4120064121894,299.4515525L651.0515963876287,299.4515525L667.7177565520931,287.57595949999995L450.9623839818338,0Z" style="opacity: 0;"/><path data-target="point-0-34" d="M450.9623839818338,0L667.7177565520931,287.57595949999995L667.8265838621564,287.57595949999995L685.239599408134,276.42453206527733L686.349616515356,274.06510816930023L469.8075322626827,0Z" style="opacity: 0;"/><path data-target="point-0-35" d="M469.8075322626827,0L686.349616515356,274.06510816930023L702.5525695088513,264.70483382474686L705.1109020028694,259.9865863913802L489.7780419049911,0Z" style="opacity: 0;"/><path data-target="point-0-36" d="M489.7780419049911,0L705.1109020028694,259.9865863913802L719.7214537094598,252.3478326886963L724.0550385256629,245.3525468996453L511.0341657824275,-2.842170943040401e-14Z" style="opacity: 0;"/><path data-target="point-0-37" d="M511.0341657824275,-2.842170943040401e-14L724.0550385256629,245.3525468996453L736.7324952586115,239.3363616031063L743.2027115719966,230.1280872692129L533.7562688947885,0Z" style="opacity: 0;"/><path data-target="point-0-38" d="M533.7562688947885,0L743.2027115719966,230.1280872692129L753.5699433901349,225.6506421595912L762.577625828528,214.2780116970017L558.1443614889082,0Z" style="opacity: 0;"/><path data-target="point-0-39" d="M558.1443614889082,0L762.577625828528,214.2780116970017L770.2157517414834,211.2686890365804L782.2068086770369,197.7665472916238L584.4200653596569,0Z" style="opacity: 0;"/><path data-target="point-0-40" d="M584.4200653596569,0L782.2068086770369,197.7665472916238L786.6493682742436,196.16635910612862L802.1209487410958,180.5570667023087L612.8292424982095,2.842170943040401e-14Z" style="opacity: 0;"/><path data-target="point-0-41" d="M612.8292424982095,2.842170943040401e-14L802.1209487410958,180.5570667023087L802.8476945168248,180.31727447754108L819.8287624081066,164.90477501572263L821.2880872073758,161.64174962643088L643.6478905126032,0Z" style="opacity: 0;"/><path data-target="point-0-42" d="M643.6478905126032,0L821.2880872073758,161.64174962643088L836.8147271167257,148.9184711320121L840.493777071642,141.7640171131761L677.1790899460198,0Z" style="opacity: 0;"/><path data-target="point-0-43" d="M677.1790899460198,0L840.493777071642,141.7640171131761L853.5608889305639,132.0656886493413L859.9950566849025,121.09283345659271L713.7609926657299,0Z" style="opacity: 0;"/><path data-target="point-0-44" d="M713.7609926657299,0L859.9950566849025,121.09283345659271L885.3887581987863,103.9738696759014L753.767435884432,0Z" style="opacity: 0;"/><path data-target="point-0-45" d="M753.767435884432,0L885.3887581987863,103.9738696759014L923.6060655725238,94.944683L797.6137188796836,-1.4210854715202004e-14Z" style="opacity: 0;"/><path data-target="point-0-46" d="M797.6137188796836,-1.4210854715202004e-14L923.6060655725238,94.944683L936,94.944683L936,0Z" style="opacity: 0;"/><path data-target="point-1-0" d="M76.98336476253945,561.6L66.93331089879874,506.739338L0,506.739338L0,561.6Z" style="opacity: 0;"/><path data-target="point-1-1" d="M66.79709036153643,502.5452075L66.93331089879874,506.739338L76.98336476253945,561.6L96.58593153387142,561.6L84.70757741102449,502.54520749999995Z" style="opacity: 0;"/><path data-target="point-1-2" d="M84.70757741102449,502.54520749999995L96.58593153387142,561.6L112.78255669204354,561.6L102.52938829306235,498.573164L84.91127364315156,498.57316399999996Z" style="opacity: 0;"/><path data-target="point-1-3" d="M102.52938829306235,498.573164L112.78255669204354,561.6L131.66787219555357,561.6L120.4784830796338,495.81366549999996L102.89024862026076,495.81366549999996Z" style="opacity: 0;"/><path data-target="point-1-4" d="M120.4784830796338,495.81366549999996L131.66787219555357,561.6L152.46978190631737,561.6L138.44231473775133,492.83463299999994L120.79421214860382,492.83463299999994Z" style="opacity: 0;"/><path data-target="point-1-5" d="M138.44231473775133,492.83463299999994L152.46978190631737,561.6L171.38744363228258,561.6L156.42811308868542,489.4752435L138.65861892891002,489.4752435Z" style="opacity: 0;"/><path data-target="point-1-6" d="M156.42811308868542,489.4752435L171.38744363228258,561.6L192.2921699345439,561.6L174.4060219201557,485.7788945L156.53131672041343,485.7788945Z" style="opacity: 0;"/><path data-target="point-1-7" d="M174.3933089758637,481.316727L174.4060219201557,485.7788945L192.2921699345439,561.6L209.17775295258946,561.6L192.22892360081684,481.316727Z" style="opacity: 0;"/><path data-target="point-1-8" d="M192.22892360081684,481.316727L209.17775295258946,561.6L228.89667877346295,561.6L210.2246442711257,477.791411L192.39866245136105,477.791411Z" style="opacity: 0;"/><path data-target="point-1-9" d="M210.2246442711257,477.791411L228.89667877346295,561.6L251.04177051816205,561.6L228.25352221096747,473.89594900000003L210.2546095473709,473.89594900000003Z" style="opacity: 0;"/><path data-target="point-1-10" d="M228.07068219356808,469.344436L228.25352221096747,473.89594900000003L251.04177051816205,561.6L275.20618145195886,561.6L246.37280148821938,469.344436Z" style="opacity: 0;"/><path data-target="point-1-11" d="M245.74235740685268,463.3148945L246.37280148821938,469.344436L275.20618145195886,561.6L303.18479679937207,561.6L264.48646800498216,463.3148945Z" style="opacity: 0;"/><path data-target="point-1-12" d="M263.52479618673215,456.34084349999995L264.48646800498216,463.3148945L303.18479679937207,561.6L323.47521070775696,561.6L282.42080920725857,456.3408435Z" style="opacity: 0;"/><path data-target="point-1-13" d="M281.4627235093752,449.655251L282.42080920725857,456.3408435L323.47521070775696,561.6L343.5880111646966,561.6L300.43630894525893,449.655251Z" style="opacity: 0;"/><path data-target="point-1-14" d="M299.32434479882556,443.21471999999994L300.43630894525893,449.655251L343.5880111646966,561.6L365.47731955238896,561.6L318.59501781617445,443.21471999999994Z" style="opacity: 0;"/><path data-target="point-1-15" d="M316.9670334610714,436.296829L318.59501781617445,443.21471999999994L365.47731955238896,561.6L394.5378165369998,561.6L336.9907130266968,436.296829Z" style="opacity: 0;"/><path data-target="point-1-16" d="M334.5091395521543,428.5059055L336.9907130266968,436.296829L394.5378165369998,561.6L412.4014305949433,561.6L354.9164497855895,428.5059055Z" style="opacity: 0;"/><path data-target="point-1-17" d="M352.2974440973219,420.80688L354.9164497855895,428.5059055L412.4014305949433,561.6L421.6847344400896,561.6L372.34656682875,420.80688Z" style="opacity: 0;"/><path data-target="point-1-18" d="M370.62623281724996,414.27189799999996L372.34656682875,420.80688L421.6847344400896,561.6L455.8774228224488,561.6L390.7335318998023,414.27189799999996Z" style="opacity: 0;"/><path data-target="point-1-19" d="M388.26481951908363,406.71072L390.7335318998023,414.27189799999996L455.8774228224488,561.6L470.48026633462973,561.6L408.52405301887956,406.71072Z" style="opacity: 0;"/><path data-target="point-1-20" d="M406.14951742622344,399.399709L408.52405301887956,406.71072L470.48026633462973,561.6L487.9575467432273,561.6L426.26548068337473,399.399709Z" style="opacity: 0;"/><path data-target="point-1-21" d="M424.18010027983894,392.18825449999997L426.26548068337473,399.399709L487.9575467432273,561.6L497.3838444090538,561.6L495.6489837033626,553.2850549112413L443.73959416018084,392.1882545Z" style="opacity: 0;"/><path data-target="point-1-22" d="M442.3173746934933,384.5785745L443.73959416018084,392.1882545L495.6489837033626,553.2850549112413L480.18177729349054,451.42867723151414L460.9836439236811,384.5785745Z" style="opacity: 0;"/><path data-target="point-1-23" d="M460.9836439236811,384.5785745L480.18177729349054,451.42867723151414L478.96879636219813,378.023171L461.3310272660166,378.023171Z" style="opacity: 0;"/><path data-target="point-1-24" d="M478.96879636219813,378.023171L480.18177729349054,451.42867723151414L495.6489837033626,553.2850549112413L497.3838444090538,561.6L564.3601721165668,561.6L556.1790106088102,530.7561279171541L554.8451624230319,526.6582991328269L495.1176688308536,373.96943999999996L480.9182987134323,373.96943999999996Z" style="opacity: 0;"/><path data-target="point-1-25" d="M495.1176688308536,373.96943999999996L554.8451624230319,526.6582991328269L513.2927756309313,366.7375635L498.91907041009296,366.73756349999996Z" style="opacity: 0;"/><path data-target="point-1-26" d="M513.2927756309313,366.7375635L554.8451624230319,526.6582991328269L556.1790106088102,530.7561279171541L531.5530807509476,360.605913L517.473162831329,360.605913Z" style="opacity: 0;"/><path data-target="point-1-27" d="M531.5530807509476,360.605913L556.1790106088102,530.7561279171541L564.3601721165668,561.6L610.0526167284787,561.6L547.739473601492,355.3524L536.6045765340568,355.3524Z" style="opacity: 0;"/><path data-target="point-1-28" d="M547.739473601492,355.3524L610.0526167284787,561.6L663.274757184849,561.6L565.4616903808483,351.5123065L551.9674836180537,351.5123065Z" style="opacity: 0;"/><path data-target="point-1-29" d="M565.4616903808483,351.5123065L663.274757184849,561.6L689.2930775164853,561.6L582.7687359829838,342.00526149999996L572.705007166206,342.00526149999996Z" style="opacity: 0;"/><path data-target="point-1-30" d="M582.7687359829838,342.00526149999996L689.2930775164853,561.6L716.0043593976613,561.6L599.9919130617949,332.0658855L591.438518657566,332.0658855Z" style="opacity: 0;"/><path data-target="point-1-31" d="M599.9919130617949,332.0658855L716.0043593976613,561.6L743.4666005101562,561.6L617.1211483982362,321.67437099999995L610.2904316253906,321.67437099999995Z" style="opacity: 0;"/><path data-target="point-1-32" d="M617.1211483982362,321.67437099999995L743.4666005101562,561.6L771.7470375748184,561.6L634.1451784116474,310.810168L629.2759071625517,310.81016800000003Z" style="opacity: 0;"/><path data-target="point-1-33" d="M634.1451784116474,310.810168L771.7470375748184,561.6L800.9135839114773,561.6L651.0515963876287,299.4515525L648.4120064121894,299.4515525Z" style="opacity: 0;"/><path data-target="point-1-34" d="M651.0515963876287,299.4515525L800.9135839114773,561.6L831.0416330732842,561.6L667.8265838621564,287.57595949999995L667.7177565520931,287.57595949999995Z" style="opacity: 0;"/><path data-target="point-1-35" d="M667.8265838621564,287.57595949999995L831.0416330732842,561.6L862.2147524931642,561.6L685.239599408134,276.42453206527733Z" style="opacity: 0;"/><path data-target="point-1-36" d="M685.239599408134,276.42453206527733L862.2147524931642,561.6L894.522647896474,561.6L702.5525695088513,264.70483382474686L686.349616515356,274.06510816930023Z" style="opacity: 0;"/><path data-target="point-1-37" d="M702.5525695088513,264.70483382474686L894.522647896474,561.6L928.0604280274841,561.6L719.7214537094598,252.3478326886963L705.1109020028694,259.9865863913802Z" style="opacity: 0;"/><path data-target="point-1-38" d="M719.7214537094598,252.3478326886963L928.0604280274841,561.6L936,561.6L936,523.2254541892581L736.7324952586115,239.3363616031063L724.0550385256629,245.3525468996453Z" style="opacity: 0;"/><path data-target="point-1-39" d="M736.7324952586115,239.3363616031063L936,523.2254541892581L936,475.0981749486644L753.5699433901349,225.6506421595912L743.2027115719966,230.1280872692129Z" style="opacity: 0;"/><path data-target="point-1-40" d="M753.5699433901349,225.6506421595912L936,475.0981749486644L936,428.83805147662275L770.2157517414834,211.2686890365804L762.577625828528,214.2780116970017Z" style="opacity: 0;"/><path data-target="point-1-41" d="M770.2157517414834,211.2686890365804L936,428.83805147662275L936,384.2848003168024L786.6493682742436,196.16635910612862L782.2068086770369,197.7665472916238Z" style="opacity: 0;"/><path data-target="point-1-42" d="M786.6493682742436,196.16635910612862L936,384.2848003168024L936,341.28744398024014L802.8476945168248,180.31727447754108L802.1209487410958,180.5570667023087Z" style="opacity: 0;"/><path data-target="point-1-43" d="M802.8476945168248,180.31727447754108L936,341.28744398024014L936,299.6971505379406L819.8287624081066,164.90477501572263Z" style="opacity: 0;"/><path data-target="point-1-44" d="M819.8287624081066,164.90477501572263L936,299.6971505379406L936,259.3734425605223L836.8147271167257,148.9184711320121L821.2880872073758,161.64174962643088Z" style="opacity: 0;"/><path data-target="point-1-45" d="M836.8147271167257,148.9184711320121L936,259.3734425605223L936,220.1792963889955L853.5608889305639,132.0656886493413L840.493777071642,141.7640171131761Z" style="opacity: 0;"/><path data-target="point-1-46" d="M853.5608889305639,132.0656886493413L936,220.1792963889955L936,94.944683L923.6060655725238,94.944683L885.3887581987863,103.9738696759014L859.9950566849025,121.09283345659271Z" style="opacity: 0;"/></g><g class="series"><path data-target="point-0-0" d="M0,506.739338L66.93331089879874,506.739338L66.79709036153643,502.5452075L0,268.0892983333066Z" style="opacity: 0;"/><path data-target="point-0-1" d="M0,268.0892983333066L66.79709036153643,502.5452075L84.70757741102449,502.54520749999995L84.91127364315156,498.57316399999996L0,147.9423683099282Z" style="opacity: 0;"/><path data-target="point-0-2" d="M0,147.9423683099282L84.91127364315156,498.57316399999996L102.52938829306235,498.573164L102.89024862026076,495.81366549999996L30.84835701407033,0L0,0Z" style="opacity: 0;"/><path data-target="point-0-3" d="M30.84835701407033,0L102.89024862026076,495.81366549999996L120.4784830796338,495.81366549999996L120.79421214860382,492.83463299999994L40.76059044073633,0Z" style="opacity: 0;"/><path data-target="point-0-4" d="M40.76059044073633,0L120.79421214860382,492.83463299999994L138.44231473775133,492.83463299999994L138.65861892891002,489.4752435L61.60763250057636,38.73067166596928L53.36856175673113,0Z" style="opacity: 0;"/><path data-target="point-0-5" d="M61.60763250057636,38.73067166596928L138.65861892891002,489.4752435L156.42811308868542,489.4752435L156.53131672041343,485.7788945L88.01773248589959,151.77785762345462Z" style="opacity: 0;"/><path data-target="point-0-6" d="M88.01773248589959,151.77785762345462L156.53131672041343,485.7788945L174.4060219201557,485.7788945L174.3933089758637,481.316727Z" style="opacity: 0;"/><path data-target="point-0-7" d="M53.36856175673113,0L61.60763250057636,38.73067166596928L88.01773248589959,151.77785762345462L174.3933089758637,481.316727L192.22892360081684,481.316727L192.39866245136105,477.791411L117.90299620951973,69.23244400888643L98.691330659755,0Z" style="opacity: 0;"/><path data-target="point-0-8" d="M117.90299620951973,69.23244400888643L192.39866245136105,477.791411L210.2246442711257,477.791411L210.2546095473709,473.89594900000003L143.3787115016836,158.39534915708424L129.71533383563468,108.43903314386102Z" style="opacity: 0;"/><path data-target="point-0-9" d="M143.3787115016836,158.39534915708424L210.2546095473709,473.89594900000003L228.25352221096747,473.89594900000003L228.07068219356808,469.344436L184.20072445655933,292.5564926560045Z" style="opacity: 0;"/><path data-target="point-0-10" d="M184.20072445655933,292.5564926560045L228.07068219356808,469.344436L246.37280148821938,469.344436L245.74235740685268,463.3148945Z" style="opacity: 0;"/><path data-target="point-0-11" d="M129.71533383563468,108.43903314386102L143.3787115016836,158.39534915708424L184.20072445655933,292.5564926560045L245.74235740685268,463.3148945L264.48646800498216,463.3148945L263.52479618673215,456.34084349999995Z" style="opacity: 0;"/><path data-target="point-0-12" d="M98.691330659755,0L117.90299620951973,69.23244400888643L129.71533383563468,108.43903314386102L263.52479618673215,456.34084349999995L282.42080920725857,456.3408435L281.4627235093752,449.655251L121.32779188960293,0Z" style="opacity: 0;"/><path data-target="point-0-13" d="M121.32779188960293,0L281.4627235093752,449.655251L300.43630894525893,449.655251L299.32434479882556,443.21471999999994L151.58490112789679,0Z" style="opacity: 0;"/><path data-target="point-0-14" d="M151.58490112789679,0L299.32434479882556,443.21471999999994L318.59501781617445,443.21471999999994L316.9670334610714,436.296829L152.88826169785722,0Z" style="opacity: 0;"/><path data-target="point-0-15" d="M152.88826169785722,0L316.9670334610714,436.296829L336.9907130266968,436.296829L334.5091395521543,428.5059055L158.71040719279603,0Z" style="opacity: 0;"/><path data-target="point-0-16" d="M158.71040719279603,0L334.5091395521543,428.5059055L354.9164497855895,428.5059055L352.2974440973219,420.80688L172.46398015244677,-5.684341886080802e-14Z" style="opacity: 0;"/><path data-target="point-0-17" d="M172.46398015244677,-5.684341886080802e-14L352.2974440973219,420.80688L372.34656682875,420.80688L370.62623281724996,414.27189799999996L213.6501495314185,0Z" style="opacity: 0;"/><path data-target="point-0-18" d="M213.6501495314185,0L370.62623281724996,414.27189799999996L390.7335318998023,414.27189799999996L388.26481951908363,406.71072L224.88397132335172,0Z" style="opacity: 0;"/><path data-target="point-0-19" d="M224.88397132335172,0L388.26481951908363,406.71072L408.52405301887956,406.71072L406.14951742622344,399.399709L240.01608815744734,0Z" style="opacity: 0;"/><path data-target="point-0-20" d="M240.01608815744734,0L406.14951742622344,399.399709L426.26548068337473,399.399709L424.18010027983894,392.18825449999997L332.5115676996082,176.24600667927433L248.6559503021628,2.842170943040401e-14Z" style="opacity: 0;"/><path data-target="point-0-21" d="M332.5115676996082,176.24600667927433L424.18010027983894,392.18825449999997L443.73959416018084,392.1882545L442.3173746934933,384.5785745Z" style="opacity: 0;"/><path data-target="point-0-22" d="M248.6559503021628,2.842170943040401e-14L332.5115676996082,176.24600667927433L442.3173746934933,384.5785745L460.9836439236811,384.5785745L461.3310272660166,378.023171L293.3193672415722,0Z" style="opacity: 0;"/><path data-target="point-0-23" d="M293.3193672415722,0L461.3310272660166,378.023171L478.96879636219813,378.023171L480.9182987134323,373.96943999999996L317.90466504731603,0Z" style="opacity: 0;"/><path data-target="point-0-24" d="M317.90466504731603,0L480.9182987134323,373.96943999999996L495.1176688308536,373.96943999999996L498.91907041009296,366.73756349999996L346.37171573505304,0Z" style="opacity: 0;"/><path data-target="point-0-25" d="M346.37171573505304,0L498.91907041009296,366.73756349999996L513.2927756309313,366.7375635L517.473162831329,360.605913L364.3942020533191,0Z" style="opacity: 0;"/><path data-target="point-0-26" d="M364.3942020533191,0L517.473162831329,360.605913L531.5530807509476,360.605913L536.6045765340568,355.3524L379.68129380291805,0Z" style="opacity: 0;"/><path data-target="point-0-27" d="M379.68129380291805,0L536.6045765340568,355.3524L547.739473601492,355.3524L551.9674836180537,351.5123065L544.8500128763504,295.2272563108946L512.4987992535433,205.60252767648598L464.83867730722193,99.38715499925135L415.1332282559625,0Z" style="opacity: 0;"/><path data-target="point-0-28" d="M544.8500128763504,295.2272563108946L551.9674836180537,351.5123065L565.4616903808483,351.5123065L572.705007166206,342.00526149999996Z" style="opacity: 0;"/><path data-target="point-0-29" d="M512.4987992535433,205.60252767648598L544.8500128763504,295.2272563108946L572.705007166206,342.00526149999996L582.7687359829838,342.00526149999996L591.438518657566,332.0658855Z" style="opacity: 0;"/><path data-target="point-0-30" d="M464.83867730722193,99.38715499925135L512.4987992535433,205.60252767648598L591.438518657566,332.0658855L599.9919130617949,332.0658855L610.2904316253906,321.67437099999995Z" style="opacity: 0;"/><path data-target="point-0-31" d="M415.1332282559625,0L464.83867730722193,99.38715499925135L610.2904316253906,321.67437099999995L617.1211483982362,321.67437099999995L629.2759071625517,310.81016800000003L416.08496897708534,0Z" style="opacity: 0;"/><path data-target="point-0-32" d="M416.08496897708534,0L629.2759071625517,310.81016800000003L634.1451784116474,310.810168L648.4120064121894,299.4515525L433.0977676955798,0Z" style="opacity: 0;"/><path data-target="point-0-33" d="M433.0977676955798,0L648.4120064121894,299.4515525L651.0515963876287,299.4515525L667.7177565520931,287.57595949999995L450.9623839818338,0Z" style="opacity: 0;"/><path data-target="point-0-34" d="M450.9623839818338,0L667.7177565520931,287.57595949999995L667.8265838621564,287.57595949999995L685.239599408134,276.42453206527733L686.349616515356,274.06510816930023L469.8075322626827,0Z" style="opacity: 0;"/><path data-target="point-0-35" d="M469.8075322626827,0L686.349616515356,274.06510816930023L702.5525695088513,264.70483382474686L705.1109020028694,259.9865863913802L489.7780419049911,0Z" style="opacity: 0;"/><path data-target="point-0-36" d="M489.7780419049911,0L705.1109020028694,259.9865863913802L719.7214537094598,252.3478326886963L724.0550385256629,245.3525468996453L511.0341657824275,-2.842170943040401e-14Z" style="opacity: 0;"/><path data-target="point-0-37" d="M511.0341657824275,-2.842170943040401e-14L724.0550385256629,245.3525468996453L736.7324952586115,239.3363616031063L743.2027115719966,230.1280872692129L533.7562688947885,0Z" style="opacity: 0;"/><path data-target="point-0-38" d="M533.7562688947885,0L743.2027115719966,230.1280872692129L753.5699433901349,225.6506421595912L762.577625828528,214.2780116970017L558.1443614889082,0Z" style="opacity: 0;"/><path data-target="point-0-39" d="M558.1443614889082,0L762.577625828528,214.2780116970017L770.2157517414834,211.2686890365804L782.2068086770369,197.7665472916238L584.4200653596569,0Z" style="opacity: 0;"/><path data-target="point-0-40" d="M584.4200653596569,0L782.2068086770369,197.7665472916238L786.6493682742436,196.16635910612862L802.1209487410958,180.5570667023087L612.8292424982095,2.842170943040401e-14Z" style="opacity: 0;"/><path data-target="point-0-41" d="M612.8292424982095,2.842170943040401e-14L802.1209487410958,180.5570667023087L802.8476945168248,180.31727447754108L819.8287624081066,164.90477501572263L821.2880872073758,161.64174962643088L643.6478905126032,0Z" style="opacity: 0;"/><path data-target="point-0-42" d="M643.6478905126032,0L821.2880872073758,161.64174962643088L836.8147271167257,148.9184711320121L840.493777071642,141.7640171131761L677.1790899460198,0Z" style="opacity: 0;"/><path data-target="point-0-43" d="M677.1790899460198,0L840.493777071642,141.7640171131761L853.5608889305639,132.0656886493413L859.9950566849025,121.09283345659271L713.7609926657299,0Z" style="opacity: 0;"/><path data-target="point-0-44" d="M713.7609926657299,0L859.9950566849025,121.09283345659271L885.3887581987863,103.9738696759014L753.767435884432,0Z" style="opacity: 0;"/><path data-target="point-0-45" d="M753.767435884432,0L885.3887581987863,103.9738696759014L923.6060655725238,94.944683L797.6137188796836,-1.4210854715202004e-14Z" style="opacity: 0;"/><path data-target="point-0-46" d="M797.6137188796836,-1.4210854715202004e-14L923.6060655725238,94.944683L936,94.944683L936,0Z" style="opacity: 0;"/><path data-target="point-1-0" d="M76.98336476253945,561.6L66.93331089879874,506.739338L0,506.739338L0,561.6Z" style="opacity: 0;"/><path data-target="point-1-1" d="M66.79709036153643,502.5452075L66.93331089879874,506.739338L76.98336476253945,561.6L96.58593153387142,561.6L84.70757741102449,502.54520749999995Z" style="opacity: 0;"/><path data-target="point-1-2" d="M84.70757741102449,502.54520749999995L96.58593153387142,561.6L112.78255669204354,561.6L102.52938829306235,498.573164L84.91127364315156,498.57316399999996Z" style="opacity: 0;"/><path data-target="point-1-3" d="M102.52938829306235,498.573164L112.78255669204354,561.6L131.66787219555357,561.6L120.4784830796338,495.81366549999996L102.89024862026076,495.81366549999996Z" style="opacity: 0;"/><path data-target="point-1-4" d="M120.4784830796338,495.81366549999996L131.66787219555357,561.6L152.46978190631737,561.6L138.44231473775133,492.83463299999994L120.79421214860382,492.83463299999994Z" style="opacity: 0;"/><path data-target="point-1-5" d="M138.44231473775133,492.83463299999994L152.46978190631737,561.6L171.38744363228258,561.6L156.42811308868542,489.4752435L138.65861892891002,489.4752435Z" style="opacity: 0;"/><path data-target="point-1-6" d="M156.42811308868542,489.4752435L171.38744363228258,561.6L192.2921699345439,561.6L174.4060219201557,485.7788945L156.53131672041343,485.7788945Z" style="opacity: 0;"/><path data-target="point-1-7" d="M174.3933089758637,481.316727L174.4060219201557,485.7788945L192.2921699345439,561.6L209.17775295258946,561.6L192.22892360081684,481.316727Z" style="opacity: 0;"/><path data-target="point-1-8" d="M192.22892360081684,481.316727L209.17775295258946,561.6L228.89667877346295,561.6L210.2246442711257,477.791411L192.39866245136105,477.791411Z" style="opacity: 0;"/><path data-target="point-1-9" d="M210.2246442711257,477.791411L228.89667877346295,561.6L251.04177051816205,561.6L228.25352221096747,473.89594900000003L210.2546095473709,473.89594900000003Z" style="opacity: 0;"/><path data-target="point-1-10" d="M228.07068219356808,469.344436L228.25352221096747,473.89594900000003L251.04177051816205,561.6L275.20618145195886,561.6L246.37280148821938,469.344436Z" style="opacity: 0;"/><path data-target="point-1-11" d="M245.74235740685268,463.3148945L246.37280148821938,469.344436L275.20618145195886,561.6L303.18479679937207,561.6L264.48646800498216,463.3148945Z" style="opacity: 0;"/><path data-target="point-1-12" d="M263.52479618673215,456.34084349999995L264.48646800498216,463.3148945L303.18479679937207,561.6L323.47521070775696,561.6L282.42080920725857,456.3408435Z" style="opacity: 0;"/><path data-target="point-1-13" d="M281.4627235093752,449.655251L282.42080920725857,456.3408435L323.47521070775696,561.6L343.5880111646966,561.6L300.43630894525893,449.655251Z" style="opacity: 0;"/><path data-target="point-1-14" d="M299.32434479882556,443.21471999999994L300.43630894525893,449.655251L343.5880111646966,561.6L365.47731955238896,561.6L318.59501781617445,443.21471999999994Z" style="opacity: 0;"/><path data-target="point-1-15" d="M316.9670334610714,436.296829L318.59501781617445,443.21471999999994L365.47731955238896,561.6L394.5378165369998,561.6L336.9907130266968,436.296829Z" style="opacity: 0;"/><path data-target="point-1-16" d="M334.5091395521543,428.5059055L336.9907130266968,436.296829L394.5378165369998,561.6L412.4014305949433,561.6L354.9164497855895,428.5059055Z" style="opacity: 0;"/><path data-target="point-1-17" d="M352.2974440973219,420.80688L354.9164497855895,428.5059055L412.4014305949433,561.6L421.6847344400896,561.6L372.34656682875,420.80688Z" style="opacity: 0;"/><path data-target="point-1-18" d="M370.62623281724996,414.27189799999996L372.34656682875,420.80688L421.6847344400896,561.6L455.8774228224488,561.6L390.7335318998023,414.27189799999996Z" style="opacity: 0;"/><path data-target="point-1-19" d="M388.26481951908363,406.71072L390.7335318998023,414.27189799999996L455.8774228224488,561.6L470.48026633462973,561.6L408.52405301887956,406.71072Z" style="opacity: 0;"/><path data-target="point-1-20" d="M406.14951742622344,399.399709L408.52405301887956,406.71072L470.48026633462973,561.6L487.9575467432273,561.6L426.26548068337473,399.399709Z" style="opacity: 0;"/><path data-target="point-1-21" d="M424.18010027983894,392.18825449999997L426.26548068337473,399.399709L487.9575467432273,561.6L497.3838444090538,561.6L495.6489837033626,553.2850549112413L443.73959416018084,392.1882545Z" style="opacity: 0;"/><path data-target="point-1-22" d="M442.3173746934933,384.5785745L443.73959416018084,392.1882545L495.6489837033626,553.2850549112413L480.18177729349054,451.42867723151414L460.9836439236811,384.5785745Z" style="opacity: 0;"/><path data-target="point-1-23" d="M460.9836439236811,384.5785745L480.18177729349054,451.42867723151414L478.96879636219813,378.023171L461.3310272660166,378.023171Z" style="opacity: 0;"/><path data-target="point-1-24" d="M478.96879636219813,378.023171L480.18177729349054,451.42867723151414L495.6489837033626,553.2850549112413L497.3838444090538,561.6L564.3601721165668,561.6L556.1790106088102,530.7561279171541L554.8451624230319,526.6582991328269L495.1176688308536,373.96943999999996L480.9182987134323,373.96943999999996Z" style="opacity: 0;"/><path data-target="point-1-25" d="M495.1176688308536,373.96943999999996L554.8451624230319,526.6582991328269L513.2927756309313,366.7375635L498.91907041009296,366.73756349999996Z" style="opacity: 0;"/><path data-target="point-1-26" d="M513.2927756309313,366.7375635L554.8451624230319,526.6582991328269L556.1790106088102,530.7561279171541L531.5530807509476,360.605913L517.473162831329,360.605913Z" style="opacity: 0;"/><path data-target="point-1-27" d="M531.5530807509476,360.605913L556.1790106088102,530.7561279171541L564.3601721165668,561.6L610.0526167284787,561.6L547.739473601492,355.3524L536.6045765340568,355.3524Z" style="opacity: 0;"/><path data-target="point-1-28" d="M547.739473601492,355.3524L610.0526167284787,561.6L663.274757184849,561.6L565.4616903808483,351.5123065L551.9674836180537,351.5123065Z" style="opacity: 0;"/><path data-target="point-1-29" d="M565.4616903808483,351.5123065L663.274757184849,561.6L689.2930775164853,561.6L582.7687359829838,342.00526149999996L572.705007166206,342.00526149999996Z" style="opacity: 0;"/><path data-target="point-1-30" d="M582.7687359829838,342.00526149999996L689.2930775164853,561.6L716.0043593976613,561.6L599.9919130617949,332.0658855L591.438518657566,332.0658855Z" style="opacity: 0;"/><path data-target="point-1-31" d="M599.9919130617949,332.0658855L716.0043593976613,561.6L743.4666005101562,561.6L617.1211483982362,321.67437099999995L610.2904316253906,321.67437099999995Z" style="opacity: 0;"/><path data-target="point-1-32" d="M617.1211483982362,321.67437099999995L743.4666005101562,561.6L771.7470375748184,561.6L634.1451784116474,310.810168L629.2759071625517,310.81016800000003Z" style="opacity: 0;"/><path data-target="point-1-33" d="M634.1451784116474,310.810168L771.7470375748184,561.6L800.9135839114773,561.6L651.0515963876287,299.4515525L648.4120064121894,299.4515525Z" style="opacity: 0;"/><path data-target="point-1-34" d="M651.0515963876287,299.4515525L800.9135839114773,561.6L831.0416330732842,561.6L667.8265838621564,287.57595949999995L667.7177565520931,287.57595949999995Z" style="opacity: 0;"/><path data-target="point-1-35" d="M667.8265838621564,287.57595949999995L831.0416330732842,561.6L862.2147524931642,561.6L685.239599408134,276.42453206527733Z" style="opacity: 0;"/><path data-target="point-1-36" d="M685.239599408134,276.42453206527733L862.2147524931642,561.6L894.522647896474,561.6L702.5525695088513,264.70483382474686L686.349616515356,274.06510816930023Z" style="opacity: 0;"/><path data-target="point-1-37" d="M702.5525695088513,264.70483382474686L894.522647896474,561.6L928.0604280274841,561.6L719.7214537094598,252.3478326886963L705.1109020028694,259.9865863913802Z" style="opacity: 0;"/><path data-target="point-1-38" d="M719.7214537094598,252.3478326886963L928.0604280274841,561.6L936,561.6L936,523.2254541892581L736.7324952586115,239.3363616031063L724.0550385256629,245.3525468996453Z" style="opacity: 0;"/><path data-target="point-1-39" d="M736.7324952586115,239.3363616031063L936,523.2254541892581L936,475.0981749486644L753.5699433901349,225.6506421595912L743.2027115719966,230.1280872692129Z" style="opacity: 0;"/><path data-target="point-1-40" d="M753.5699433901349,225.6506421595912L936,475.0981749486644L936,428.83805147662275L770.2157517414834,211.2686890365804L762.577625828528,214.2780116970017Z" style="opacity: 0;"/><path data-target="point-1-41" d="M770.2157517414834,211.2686890365804L936,428.83805147662275L936,384.2848003168024L786.6493682742436,196.16635910612862L782.2068086770369,197.7665472916238Z" style="opacity: 0;"/><path data-target="point-1-42" d="M786.6493682742436,196.16635910612862L936,384.2848003168024L936,341.28744398024014L802.8476945168248,180.31727447754108L802.1209487410958,180.5570667023087Z" style="opacity: 0;"/><path data-target="point-1-43" d="M802.8476945168248,180.31727447754108L936,341.28744398024014L936,299.6971505379406L819.8287624081066,164.90477501572263Z" style="opacity: 0;"/><path data-target="point-1-44" d="M819.8287624081066,164.90477501572263L936,299.6971505379406L936,259.3734425605223L836.8147271167257,148.9184711320121L821.2880872073758,161.64174962643088Z" style="opacity: 0;"/><path data-target="point-1-45" d="M836.8147271167257,148.9184711320121L936,259.3734425605223L936,220.1792963889955L853.5608889305639,132.0656886493413L840.493777071642,141.7640171131761Z" style="opacity: 0;"/><path data-target="point-1-46" d="M853.5608889305639,132.0656886493413L936,220.1792963889955L936,94.944683L923.6060655725238,94.944683L885.3887581987863,103.9738696759014L859.9950566849025,121.09283345659271Z" style="opacity: 0;"/></g></g><g class="axes"><g class="y axis" fill="none" font-size="10" font-family="sans-serif" text-anchor="end" style="font-family: &quot;Source Sans Pro&quot;;"><path class="domain" stroke="#eeeeee" d="M0.5,562.1V0.5" stroke-dasharray="0" style="visibility: hidden;"/><g class="tick" opacity="1" transform="translate(0,562.1)" style="visibility: visible;"><line stroke="#eeeeee" x2="936" stroke-dasharray="0"/><text fill="rgb(0, 0, 0)" x="3" dy="-0.33em" opacity="1" text-anchor="start" font-size="18">$0</text></g><g class="tick" opacity="1" transform="translate(0, 511.0454406738281)" style="visibility: visible;"><line stroke="#eeeeee" x2="936" stroke-dasharray="0"/><text fill="rgb(0, 0, 0)" x="3" dy="-0.33em" opacity="1" text-anchor="start" font-size="18">$10,000</text></g><g class="tick" opacity="1" transform="translate(0, 459.99090576171875)" style="visibility: visible;"><line stroke="#eeeeee" x2="936" stroke-dasharray="0"/><text fill="rgb(0, 0, 0)" x="3" dy="-0.33em" opacity="1" text-anchor="start" font-size="18">$20,000</text></g><g class="tick" opacity="1" transform="translate(0, 408.9363708496094)" style="visibility: visible;"><line stroke="#eeeeee" x2="936" stroke-dasharray="0"/><text fill="rgb(0, 0, 0)" x="3" dy="-0.33em" opacity="1" text-anchor="start" font-size="18">$30,000</text></g><g class="tick" opacity="1" transform="translate(0, 357.8818054199219)" style="visibility: visible;"><line stroke="#eeeeee" x2="936" stroke-dasharray="0"/><text fill="rgb(0, 0, 0)" x="3" dy="-0.33em" opacity="1" text-anchor="start" font-size="18">$40,000</text></g><g class="tick" opacity="1" transform="translate(0, 306.8272705078125)" style="visibility: visible;"><line stroke="#eeeeee" x2="936" stroke-dasharray="0"/><text fill="rgb(0, 0, 0)" x="3" dy="-0.33em" opacity="1" text-anchor="start" font-size="18">$50,000</text></g><g class="tick" opacity="1" transform="translate(0, 255.77272033691406)" style="visibility: visible;"><line stroke="#eeeeee" x2="936" stroke-dasharray="0"/><text fill="rgb(0, 0, 0)" x="3" dy="-0.33em" opacity="1" text-anchor="start" font-size="18">$60,000</text></g><g class="tick" opacity="1" transform="translate(0, 204.7181854248047)" style="visibility: visible;"><line stroke="#eeeeee" x2="936" stroke-dasharray="0"/><text fill="rgb(0, 0, 0)" x="3" dy="-0.33em" opacity="1" text-anchor="start" font-size="18">$70,000</text></g><g class="tick" opacity="1" transform="translate(0, 153.66363525390625)" style="visibility: visible;"><line stroke="#eeeeee" x2="936" stroke-dasharray="0"/><text fill="rgb(0, 0, 0)" x="3" dy="-0.33em" opacity="1" text-anchor="start" font-size="18">$80,000</text></g><g class="tick" opacity="1" transform="translate(0, 102.60909271240234)" style="visibility: visible;"><line stroke="#eeeeee" x2="936" stroke-dasharray="0"/><text fill="rgb(0, 0, 0)" x="3" dy="-0.33em" opacity="1" text-anchor="start" font-size="18">$90,000</text></g><g class="tick" opacity="1" transform="translate(0, 51.55454635620117)" style="visibility: visible;"><line stroke="#eeeeee" x2="936" stroke-dasharray="0"/><text fill="rgb(0, 0, 0)" x="3" dy="-0.33em" opacity="1" text-anchor="start" font-size="18">$100,000</text></g><g class="tick" opacity="1" transform="translate(0, 0.5)" style="visibility: visible;"><line stroke="#eeeeee" x2="936" stroke-dasharray="0"/><text fill="rgb(0, 0, 0)" x="3" dy="-0.33em" opacity="1" text-anchor="start" font-size="18">$110,000</text></g></g><g class="x axis" transform="translate(0,561.6)" fill="none" font-size="10" font-family="sans-serif" text-anchor="middle" style="font-family: &quot;Source Sans Pro&quot;;"><path class="domain" stroke="#eeeeee" d="M40.5,0.5H936.5" stroke-dasharray="0"/><g class="tick" opacity="1" transform="translate(40.5,0)"><line stroke="#eeeeee" y2="6" stroke-dasharray="0"/><text fill="rgb(0, 0, 0)" y="9" dy="-9" opacity="1" dominant-baseline="central" font-size="18" transform="translate(0, 15) rotate(-45)" dx="5" style="text-anchor: end; visibility: visible;">1990</text></g><g class="tick" opacity="1" transform="translate(130.10000000000002,0)"><line stroke="#eeeeee" y2="6" stroke-dasharray="0"/><text fill="rgb(0, 0, 0)" y="9" dy="-9" opacity="1" dominant-baseline="central" font-size="18" transform="translate(0, 15) rotate(-45)" dx="5" style="text-anchor: end; visibility: visible;">1995</text></g><g class="tick" opacity="1" transform="translate(219.70000000000002,0)"><line stroke="#eeeeee" y2="6" stroke-dasharray="0"/><text fill="rgb(0, 0, 0)" y="9" dy="-9" opacity="1" dominant-baseline="central" font-size="18" transform="translate(0, 15) rotate(-45)" dx="5" style="text-anchor: end; visibility: visible;">2000</text></g><g class="tick" opacity="1" transform="translate(309.3,0)"><line stroke="#eeeeee" y2="6" stroke-dasharray="0"/><text fill="rgb(0, 0, 0)" y="9" dy="-9" opacity="1" dominant-baseline="central" font-size="18" transform="translate(0, 15) rotate(-45)" dx="5" style="text-anchor: end; visibility: visible;">2005</text></g><g class="tick" opacity="1" transform="translate(398.90000000000003,0)"><line stroke="#eeeeee" y2="6" stroke-dasharray="0"/><text fill="rgb(0, 0, 0)" y="9" dy="-9" opacity="1" dominant-baseline="central" font-size="18" transform="translate(0, 15) rotate(-45)" dx="5" style="text-anchor: end; visibility: visible;">2010</text></g><g class="tick" opacity="1" transform="translate(488.5,0)"><line stroke="#eeeeee" y2="6" stroke-dasharray="0"/><text fill="rgb(0, 0, 0)" y="9" dy="-9" opacity="1" dominant-baseline="central" font-size="18" transform="translate(0, 15) rotate(-45)" dx="5" style="text-anchor: end; visibility: visible;">2015</text></g><g class="tick" opacity="1" transform="translate(578.1,0)"><line stroke="#eeeeee" y2="6" stroke-dasharray="0"/><text fill="rgb(0, 0, 0)" y="9" dy="-9" opacity="1" dominant-baseline="central" font-size="18" transform="translate(0, 15) rotate(-45)" dx="5" style="text-anchor: end; visibility: visible;">2020</text></g><g class="tick" opacity="1" transform="translate(667.6999999999999,0)"><line stroke="#eeeeee" y2="6" stroke-dasharray="0"/><text fill="rgb(0, 0, 0)" y="9" dy="-9" opacity="1" dominant-baseline="central" font-size="18" transform="translate(0, 15) rotate(-45)" dx="5" style="text-anchor: end; visibility: visible;">2025</text></g><g class="tick" opacity="1" transform="translate(757.3000000000001,0)"><line stroke="#eeeeee" y2="6" stroke-dasharray="0"/><text fill="rgb(0, 0, 0)" y="9" dy="-9" opacity="1" dominant-baseline="central" font-size="18" transform="translate(0, 15) rotate(-45)" dx="5" style="text-anchor: end; visibility: visible;">2030</text></g><g class="tick" opacity="1" transform="translate(846.9,0)"><line stroke="#eeeeee" y2="6" stroke-dasharray="0"/><text fill="rgb(0, 0, 0)" y="9" dy="-9" opacity="1" dominant-baseline="central" font-size="18" transform="translate(0, 15) rotate(-45)" dx="5" style="text-anchor: end; visibility: visible;">2035</text></g><g class="tick" opacity="1" transform="translate(936.5,0)"><line stroke="#eeeeee" y2="6" stroke-dasharray="0"/><text fill="rgb(0, 0, 0)" y="9" dy="-9" opacity="1" dominant-baseline="central" font-size="18" transform="translate(0, 15) rotate(-45)" dx="5" style="text-anchor: end; visibility: visible;">2040</text></g></g></g></g></g></g><g class="annotations below"><g class="axis-highlights" transform="translate(15, 20)" style="opacity: 1;"><g class="line x" transform="translate(559.68, 0)"><line width="0" stroke-dasharray="2 2" stroke="#333333" stroke-width="2" y2="561.6"/><text transform="translate(0, 6) rotate(-90)" fill="#333333" text-anchor="end" dy="-0.5em" font-size="12">Current</text></g></g></g><g id="areas"><g class="series" pointer-events="none"><path class="area" transform="translate(15,20)" fill-opacity="0" fill="rgb(17, 165, 121)" clip-path="url(#clip-0-0)" d="M57.92,505.3889454545455C63.89333333333334,503.6233090909091,69.86666666666667,501.85767272727276,75.84,500.2834909090909C81.81333333333333,498.7093090909091,87.78666666666666,497.1010909090909,93.75999999999999,495.94385454545454C99.73333333333333,494.7866181818182,105.70666666666666,494.25905454545455,111.68,493.34007272727274C117.65333333333335,492.42109090909094,123.62666666666668,491.42552727272727,129.60000000000002,490.42996363636365C135.57333333333335,489.43440000000004,141.54666666666665,488.48989090909095,147.51999999999998,487.36669090909095C153.4933333333333,486.24349090909095,159.46666666666667,485.0862545454546,165.44,483.69076363636367C171.41333333333333,482.29527272727273,177.38666666666668,480.3211636363637,183.36,478.9937454545455C189.33333333333334,477.6663272727273,195.30666666666667,476.90391272727277,201.28,475.7262545454546C207.25333333333333,474.5485963636364,213.2266666666667,473.3020145454546,219.20000000000002,471.9277963636364C225.17333333333335,470.5535781818182,231.14666666666668,469.2984872727273,237.12,467.48094545454546C243.09333333333333,465.6634036363636,249.06666666666666,463.24767272727274,255.04,461.0225454545455C261.0133333333333,458.7974181818182,266.9866666666667,456.3425454545455,272.96000000000004,454.1301818181818C278.93333333333334,451.9178181818182,284.9066666666667,449.8075636363636,290.88,447.74836363636365C296.85333333333335,445.6891636363636,302.82666666666665,443.8937454545454,308.8,441.7749818181818C314.77333333333337,439.6562181818182,320.74666666666667,437.3842909090909,326.72,435.0357818181818C332.6933333333334,432.6872727272727,338.6666666666667,430.18559999999997,344.64000000000004,427.68392727272726C350.61333333333334,425.18225454545455,356.5866666666667,422.4338181818182,362.56,420.0257454545455C368.53333333333336,417.61767272727275,374.50666666666666,415.56698181818183,380.48,413.2354909090909C386.4533333333334,410.904,392.4266666666667,408.47890909090904,398.40000000000003,406.03679999999997C404.37333333333333,403.5946909090909,410.3466666666667,401.0930181818182,416.32,398.5828363636364C422.29333333333335,396.07265454545455,428.26666666666665,393.8177454545455,434.24,390.9757090909091C440.21333333333337,388.1336727272727,446.18666666666667,384.4322181818182,452.16,381.53061818181817C458.1333333333333,378.6290181818182,464.1066666666667,376.1954181818182,470.08,373.5661090909091C476.05333333333334,370.9368,482.02666666666664,368.29898181818186,488,365.7547636363637C493.97333333333336,363.2105454545455,499.94666666666666,360.8109818181818,505.92,358.3008C511.8933333333334,355.79061818181816,517.8666666666667,353.2804363636364,523.84,350.69367272727277C529.8133333333334,348.10690909090914,535.7866666666666,344.29092218181825,541.76,342.7802181818182C547.7333333333333,341.2695141818182,553.7066666666666,342.0248661818182,559.68,340.51416218181816C565.6533333333333,339.00345818181813,571.6266666666667,333.4860870545455,577.6,329.8433026909091C583.5733333333334,326.2005183272728,589.5466666666666,322.4760637090909,595.52,318.657456C601.4933333333333,314.8388482909091,607.4666666666667,310.9345710545454,613.44,306.9316564363636C619.4133333333334,302.9287418181818,625.3866666666667,298.8360818181818,631.36,294.6399682909091C637.3333333333334,290.4438547636364,643.3066666666667,286.15362218181826,649.2800000000001,281.75497527272734C655.2533333333333,277.35632836363646,661.2266666666667,272.8590355636364,667.1999999999999,268.24808683636365C673.1733333333333,263.63713810909087,679.1466666666666,258.92277839999997,685.12,254.08928290909085C691.0933333333334,249.25578741818177,697.0666666666666,244.31390312727268,703.04,239.24711389090908C709.0133333333333,234.18032465454544,714.9866666666667,228.99989650909095,720.96,223.68854749090912C726.9333333333334,218.37719847272731,732.9066666666666,212.94672218181822,738.88,207.37901978181822C744.8533333333334,201.81131738181818,750.8266666666667,196.11875258181817,756.8000000000001,190.28233309090905C762.7733333333333,184.4459136,768.7466666666667,178.47862429090912,774.7199999999999,172.3605028363637C780.6933333333333,166.24238138181823,786.6666666666666,159.98702530909097,792.64,153.57360436363638C798.6133333333333,147.16018341818184,804.5866666666666,140.60294181818176,810.56,133.87997716363634C816.5333333333333,127.15701250909088,822.5066666666667,120.28326676363643,828.48,113.23581643636368C834.4533333333334,106.18836610909096,840.4266666666666,98.98287643636357,846.4,91.59527519999995C852.3733333333333,84.20767396363627,858.3466666666667,76.65438370909088,864.32,68.91020901818177C870.2933333333334,61.16603432727271,876.2666666666667,53.148130690909085,882.24,45.13022705454546L882.24,45.13022705454546C876.2666666666667,53.148130690909085,870.2933333333334,61.16603432727271,864.32,68.91020901818177C858.3466666666667,76.65438370909088,852.3733333333333,84.20767396363627,846.4,91.59527519999995C840.4266666666666,98.98287643636357,834.4533333333334,106.18836610909096,828.48,113.23581643636368C822.5066666666667,120.28326676363643,816.5333333333333,127.15701250909088,810.56,133.87997716363634C804.5866666666666,140.60294181818176,798.6133333333333,147.16018341818184,792.64,153.57360436363638C786.6666666666666,159.98702530909097,780.6933333333333,166.24238138181823,774.7199999999999,172.3605028363637C768.7466666666667,178.47862429090912,762.7733333333333,184.4459136,756.8000000000001,190.28233309090905C750.8266666666667,196.11875258181817,744.8533333333334,201.81131738181818,738.88,207.37901978181822C732.9066666666666,212.94672218181822,726.9333333333334,218.37719847272731,720.96,223.68854749090912C714.9866666666667,228.99989650909095,709.0133333333333,234.18032465454544,703.04,239.24711389090908C697.0666666666666,244.31390312727268,691.0933333333334,249.25578741818177,685.12,254.08928290909085C679.1466666666666,258.92277839999997,673.1733333333333,263.63713810909087,667.1999999999999,268.24808683636365C661.2266666666667,272.8590355636364,655.2533333333333,277.35632836363646,649.2800000000001,281.75497527272734C643.3066666666667,286.15362218181826,637.3333333333334,290.4438547636364,631.36,294.6399682909091C625.3866666666667,298.8360818181818,619.4133333333334,302.9287418181818,613.44,306.9316564363636C607.4666666666667,310.9345710545454,601.4933333333333,314.8388482909091,595.52,318.657456C589.5466666666666,322.4760637090909,583.5733333333334,326.2005183272728,577.6,329.8433026909091C571.6266666666667,333.4860870545455,565.6533333333333,339.00345818181813,559.68,340.51416218181816C553.7066666666666,342.0248661818182,547.7333333333333,341.2695141818182,541.76,342.7802181818182C535.7866666666666,344.29092218181825,529.8133333333334,348.10690909090914,523.84,350.69367272727277C517.8666666666667,353.2804363636364,511.8933333333334,355.79061818181816,505.92,358.3008C499.94666666666666,360.8109818181818,493.97333333333336,363.2105454545455,488,365.7547636363637C482.02666666666664,368.29898181818186,476.05333333333334,370.9368,470.08,373.5661090909091C464.1066666666667,376.1954181818182,458.1333333333333,378.6290181818182,452.16,381.53061818181817C446.18666666666667,384.4322181818182,440.21333333333337,388.1336727272727,434.24,390.9757090909091C428.26666666666665,393.8177454545455,422.29333333333335,396.07265454545455,416.32,398.5828363636364C410.3466666666667,401.0930181818182,404.37333333333333,403.5946909090909,398.40000000000003,406.03679999999997C392.4266666666667,408.47890909090904,386.4533333333334,410.904,380.48,413.2354909090909C374.50666666666666,415.56698181818183,368.53333333333336,417.61767272727275,362.56,420.0257454545455C356.5866666666667,422.4338181818182,350.61333333333334,425.18225454545455,344.64000000000004,427.68392727272726C338.6666666666667,430.18559999999997,332.6933333333334,432.6872727272727,326.72,435.0357818181818C320.74666666666667,437.3842909090909,314.77333333333337,439.6562181818182,308.8,441.7749818181818C302.82666666666665,443.8937454545454,296.85333333333335,445.6891636363636,290.88,447.74836363636365C284.9066666666667,449.8075636363636,278.93333333333334,451.9178181818182,272.96000000000004,454.1301818181818C266.9866666666667,456.3425454545455,261.0133333333333,458.7974181818182,255.04,461.0225454545455C249.06666666666666,463.24767272727274,243.09333333333333,465.6634036363636,237.12,467.48094545454546C231.14666666666668,469.2984872727273,225.17333333333335,470.5535781818182,219.20000000000002,471.9277963636364C213.2266666666667,473.3020145454546,207.25333333333333,474.5485963636364,201.28,475.7262545454546C195.30666666666667,476.90391272727277,189.33333333333334,477.6663272727273,183.36,478.9937454545455C177.38666666666668,480.3211636363637,171.41333333333333,482.29527272727273,165.44,483.69076363636367C159.46666666666667,485.0862545454546,153.4933333333333,486.24349090909095,147.51999999999998,487.36669090909095C141.54666666666665,488.48989090909095,135.57333333333335,489.43440000000004,129.60000000000002,490.42996363636365C123.62666666666668,491.42552727272727,117.65333333333335,492.42109090909094,111.68,493.34007272727274C105.70666666666666,494.25905454545455,99.73333333333333,494.7866181818182,93.75999999999999,495.94385454545454C87.78666666666666,497.1010909090909,81.81333333333333,498.7093090909091,75.84,500.2834909090909C69.86666666666667,501.85767272727276,63.89333333333334,503.6233090909091,57.92,505.3889454545455Z"/></g><g class="series" pointer-events="none"><path class="area" transform="translate(15,20)" fill-opacity="0" fill="rgb(128, 35, 146)" clip-path="url(#clip-0-1)" d="M57.92,508.0897309090909C63.89333333333334,507.02226545454545,69.86666666666667,505.95480000000003,75.84,504.80692363636365C81.81333333333333,503.65904727272726,87.78666666666666,502.2890836363636,93.75999999999999,501.2024727272727C99.73333333333333,500.1158618181818,105.70666666666666,499.28112,111.68,498.2872581818182C117.65333333333335,497.29339636363636,123.62666666666668,496.3565454545455,129.60000000000002,495.23930181818184C135.57333333333335,494.1220581818182,141.54666666666665,492.81250909090915,147.51999999999998,491.5837963636364C153.4933333333333,490.35508363636364,159.46666666666667,489.19104,165.44,487.86702545454546C171.41333333333333,486.5430109090909,177.38666666666668,484.97478545454544,183.36,483.6397090909091C189.33333333333334,482.30463272727275,195.30666666666667,481.1525018181818,201.28,479.85656727272726C207.25333333333333,478.5606327272727,213.2266666666667,477.30554181818184,219.20000000000002,475.86410181818184C225.17333333333335,474.42266181818184,231.14666666666668,472.91740363636364,237.12,471.20792727272726C243.09333333333333,469.4984509090909,249.06666666666666,467.7166472727273,255.04,465.60724363636365C261.0133333333333,463.49784,266.9866666666667,460.8923563636364,272.96000000000004,458.55150545454546C278.93333333333334,456.2106545454546,284.9066666666667,453.87831272727277,290.88,451.5621381818182C296.85333333333335,449.2459636363637,302.82666666666665,446.9885018181818,308.8,444.6544581818182C314.77333333333337,442.3204145454546,320.74666666666667,440.1123054545455,326.72,437.5578763636364C332.6933333333334,435.0034472727273,338.6666666666667,431.9895272727273,344.64000000000004,429.32788363636365C350.61333333333334,426.66624,356.5866666666667,423.924610909091,362.56,421.5880145454546C368.53333333333336,419.2514181818182,374.50666666666666,417.6755345454546,380.48,415.30830545454546C386.4533333333334,412.94107636363634,392.4266666666667,409.89992727272727,398.40000000000003,407.38464C404.37333333333333,404.8693527272727,410.3466666666667,402.5472218181818,416.32,400.2165818181818C422.29333333333335,397.8859418181818,428.26666666666665,395.4991418181818,434.24,393.4008C440.21333333333337,391.3024581818182,446.18666666666667,389.4466254545455,452.16,387.62653090909095C458.1333333333333,385.8064363636364,464.1066666666667,382.6776436363637,470.08,382.4802327272728C476.05333333333334,382.28282181818184,482.02666666666664,382.3815272727273,488,382.18411636363635C493.97333333333336,381.9867054545454,499.94666666666666,377.11865454545455,505.92,375.1743272727273C511.8933333333334,373.23,517.8666666666667,371.7264436363637,523.84,370.51815272727276C529.8133333333334,369.30986181818184,535.7866666666666,369.2591986909091,541.76,367.9245818181818C547.7333333333333,366.58996494545454,553.7066666666666,364.8033451636363,559.68,362.5104514909091C565.6533333333333,360.2175578181818,571.6266666666667,357.0065757818182,577.6,354.1672197818182C583.5733333333334,351.32786378181817,589.5466666666666,348.4326711272727,595.52,345.47431549090913C601.4933333333333,342.5159598545455,607.4666666666667,339.4994105454546,613.44,336.4170859636364C619.4133333333334,333.3347613818182,625.3866666666667,330.19186058181816,631.36,326.980368C637.3333333333334,323.7688754181818,643.3066666666667,320.4942198545455,649.2800000000001,317.1481304727273C655.2533333333333,313.80204109090914,661.2266666666667,310.3901424,667.1999999999999,306.9038317090909C673.1733333333333,303.4175210181818,679.1466666666666,299.8626696,685.12,296.2302663272727C691.0933333333334,292.5978630545454,697.0666666666666,288.89404298181813,703.04,285.10941207272725C709.0133333333333,281.3247811636363,714.9866666666667,277.4657127272727,720.96,273.5224808727273C726.9333333333334,269.5792490181818,732.9066666666666,265.5584993454545,738.88,261.4500209454545C744.8533333333334,257.3415425454545,750.8266666666667,253.1522703272728,756.8000000000001,248.8716104727273C762.7733333333333,244.59095061818186,768.7466666666667,240.2261103272727,774.7199999999999,235.7660618181818C780.6933333333333,231.30601330909087,786.6666666666666,226.75827861818186,792.64,222.11131941818184C798.6133333333333,217.46436021818187,804.5866666666666,212.72600487272726,810.56,207.88430661818182C816.5333333333333,203.04260836363636,822.5066666666667,198.1057274181818,828.48,193.06112989090906C834.4533333333334,188.01653236363634,840.4266666666666,182.87272734545456,846.4,177.61672145454548C852.3733333333333,172.36071556363638,858.3466666666667,167.00135825454544,864.32,161.52509454545452C870.2933333333334,156.04883083636363,876.2666666666667,150.40398501818183,882.24,144.75913920000005L882.24,144.75913920000005C876.2666666666667,150.40398501818183,870.2933333333334,156.04883083636363,864.32,161.52509454545452C858.3466666666667,167.00135825454544,852.3733333333333,172.36071556363638,846.4,177.61672145454548C840.4266666666666,182.87272734545456,834.4533333333334,188.01653236363634,828.48,193.06112989090906C822.5066666666667,198.1057274181818,816.5333333333333,203.04260836363636,810.56,207.88430661818182C804.5866666666666,212.72600487272726,798.6133333333333,217.46436021818187,792.64,222.11131941818184C786.6666666666666,226.75827861818186,780.6933333333333,231.30601330909087,774.7199999999999,235.7660618181818C768.7466666666667,240.2261103272727,762.7733333333333,244.59095061818186,756.8000000000001,248.8716104727273C750.8266666666667,253.1522703272728,744.8533333333334,257.3415425454545,738.88,261.4500209454545C732.9066666666666,265.5584993454545,726.9333333333334,269.5792490181818,720.96,273.5224808727273C714.9866666666667,277.4657127272727,709.0133333333333,281.3247811636363,703.04,285.10941207272725C697.0666666666666,288.89404298181813,691.0933333333334,292.5978630545454,685.12,296.2302663272727C679.1466666666666,299.8626696,673.1733333333333,303.4175210181818,667.1999999999999,306.9038317090909C661.2266666666667,310.3901424,655.2533333333333,313.80204109090914,649.2800000000001,317.1481304727273C643.3066666666667,320.4942198545455,637.3333333333334,323.7688754181818,631.36,326.980368C625.3866666666667,330.19186058181816,619.4133333333334,333.3347613818182,613.44,336.4170859636364C607.4666666666667,339.4994105454546,601.4933333333333,342.5159598545455,595.52,345.47431549090913C589.5466666666666,348.4326711272727,583.5733333333334,351.32786378181817,577.6,354.1672197818182C571.6266666666667,357.0065757818182,565.6533333333333,360.2175578181818,559.68,362.5104514909091C553.7066666666666,364.8033451636363,547.7333333333333,366.58996494545454,541.76,367.9245818181818C535.7866666666666,369.2591986909091,529.8133333333334,369.30986181818184,523.84,370.51815272727276C517.8666666666667,371.7264436363637,511.8933333333334,373.23,505.92,375.1743272727273C499.94666666666666,377.11865454545455,493.97333333333336,381.9867054545454,488,382.18411636363635C482.02666666666664,382.3815272727273,476.05333333333334,382.28282181818184,470.08,382.4802327272728C464.1066666666667,382.6776436363637,458.1333333333333,385.8064363636364,452.16,387.62653090909095C446.18666666666667,389.4466254545455,440.21333333333337,391.3024581818182,434.24,393.4008C428.26666666666665,395.4991418181818,422.29333333333335,397.8859418181818,416.32,400.2165818181818C410.3466666666667,402.5472218181818,404.37333333333333,404.8693527272727,398.40000000000003,407.38464C392.4266666666667,409.89992727272727,386.4533333333334,412.94107636363634,380.48,415.30830545454546C374.50666666666666,417.6755345454546,368.53333333333336,419.2514181818182,362.56,421.5880145454546C356.5866666666667,423.924610909091,350.61333333333334,426.66624,344.64000000000004,429.32788363636365C338.6666666666667,431.9895272727273,332.6933333333334,435.0034472727273,326.72,437.5578763636364C320.74666666666667,440.1123054545455,314.77333333333337,442.3204145454546,308.8,444.6544581818182C302.82666666666665,446.9885018181818,296.85333333333335,449.2459636363637,290.88,451.5621381818182C284.9066666666667,453.87831272727277,278.93333333333334,456.2106545454546,272.96000000000004,458.55150545454546C266.9866666666667,460.8923563636364,261.0133333333333,463.49784,255.04,465.60724363636365C249.06666666666666,467.7166472727273,243.09333333333333,469.4984509090909,237.12,471.20792727272726C231.14666666666668,472.91740363636364,225.17333333333335,474.42266181818184,219.20000000000002,475.86410181818184C213.2266666666667,477.30554181818184,207.25333333333333,478.5606327272727,201.28,479.85656727272726C195.30666666666667,481.1525018181818,189.33333333333334,482.30463272727275,183.36,483.6397090909091C177.38666666666668,484.97478545454544,171.41333333333333,486.5430109090909,165.44,487.86702545454546C159.46666666666667,489.19104,153.4933333333333,490.35508363636364,147.51999999999998,491.5837963636364C141.54666666666665,492.81250909090915,135.57333333333335,494.1220581818182,129.60000000000002,495.23930181818184C123.62666666666668,496.3565454545455,117.65333333333335,497.29339636363636,111.68,498.2872581818182C105.70666666666666,499.28112,99.73333333333333,500.1158618181818,93.75999999999999,501.2024727272727C87.78666666666666,502.2890836363636,81.81333333333333,503.65904727272726,75.84,504.80692363636365C69.86666666666667,505.95480000000003,63.89333333333334,507.02226545454545,57.92,508.0897309090909Z"/></g></g><g id="lines"><g class="series"><clipPath id="clip-0-0"><rect width="936" y="-20" height="599.6"/></clipPath><path class="line" opacity="1" fill="none" stroke="rgb(17, 165, 121)" stroke-width="2" transform="translate(15,20)" clip-path="url(#clip-0-0)" d="M57.92,505.3889454545455C63.89333333333334,503.6233090909091,69.86666666666667,501.85767272727276,75.84,500.2834909090909C81.81333333333333,498.7093090909091,87.78666666666666,497.1010909090909,93.75999999999999,495.94385454545454C99.73333333333333,494.7866181818182,105.70666666666666,494.25905454545455,111.68,493.34007272727274C117.65333333333335,492.42109090909094,123.62666666666668,491.42552727272727,129.60000000000002,490.42996363636365C135.57333333333335,489.43440000000004,141.54666666666665,488.48989090909095,147.51999999999998,487.36669090909095C153.4933333333333,486.24349090909095,159.46666666666667,485.0862545454546,165.44,483.69076363636367C171.41333333333333,482.29527272727273,177.38666666666668,480.3211636363637,183.36,478.9937454545455C189.33333333333334,477.6663272727273,195.30666666666667,476.90391272727277,201.28,475.7262545454546C207.25333333333333,474.5485963636364,213.2266666666667,473.3020145454546,219.20000000000002,471.9277963636364C225.17333333333335,470.5535781818182,231.14666666666668,469.2984872727273,237.12,467.48094545454546C243.09333333333333,465.6634036363636,249.06666666666666,463.24767272727274,255.04,461.0225454545455C261.0133333333333,458.7974181818182,266.9866666666667,456.3425454545455,272.96000000000004,454.1301818181818C278.93333333333334,451.9178181818182,284.9066666666667,449.8075636363636,290.88,447.74836363636365C296.85333333333335,445.6891636363636,302.82666666666665,443.8937454545454,308.8,441.7749818181818C314.77333333333337,439.6562181818182,320.74666666666667,437.3842909090909,326.72,435.0357818181818C332.6933333333334,432.6872727272727,338.6666666666667,430.18559999999997,344.64000000000004,427.68392727272726C350.61333333333334,425.18225454545455,356.5866666666667,422.4338181818182,362.56,420.0257454545455C368.53333333333336,417.61767272727275,374.50666666666666,415.56698181818183,380.48,413.2354909090909C386.4533333333334,410.904,392.4266666666667,408.47890909090904,398.40000000000003,406.03679999999997C404.37333333333333,403.5946909090909,410.3466666666667,401.0930181818182,416.32,398.5828363636364C422.29333333333335,396.07265454545455,428.26666666666665,393.8177454545455,434.24,390.9757090909091C440.21333333333337,388.1336727272727,446.18666666666667,384.4322181818182,452.16,381.53061818181817C458.1333333333333,378.6290181818182,464.1066666666667,376.1954181818182,470.08,373.5661090909091C476.05333333333334,370.9368,482.02666666666664,368.29898181818186,488,365.7547636363637C493.97333333333336,363.2105454545455,499.94666666666666,360.8109818181818,505.92,358.3008C511.8933333333334,355.79061818181816,517.8666666666667,353.2804363636364,523.84,350.69367272727277C529.8133333333334,348.10690909090914,535.7866666666666,344.29092218181825,541.76,342.7802181818182C547.7333333333333,341.2695141818182,553.7066666666666,342.0248661818182,559.68,340.51416218181816C565.6533333333333,339.00345818181813,571.6266666666667,333.4860870545455,577.6,329.8433026909091C583.5733333333334,326.2005183272728,589.5466666666666,322.4760637090909,595.52,318.657456C601.4933333333333,314.8388482909091,607.4666666666667,310.9345710545454,613.44,306.9316564363636C619.4133333333334,302.9287418181818,625.3866666666667,298.8360818181818,631.36,294.6399682909091C637.3333333333334,290.4438547636364,643.3066666666667,286.15362218181826,649.2800000000001,281.75497527272734C655.2533333333333,277.35632836363646,661.2266666666667,272.8590355636364,667.1999999999999,268.24808683636365C673.1733333333333,263.63713810909087,679.1466666666666,258.92277839999997,685.12,254.08928290909085C691.0933333333334,249.25578741818177,697.0666666666666,244.31390312727268,703.04,239.24711389090908C709.0133333333333,234.18032465454544,714.9866666666667,228.99989650909095,720.96,223.68854749090912C726.9333333333334,218.37719847272731,732.9066666666666,212.94672218181822,738.88,207.37901978181822C744.8533333333334,201.81131738181818,750.8266666666667,196.11875258181817,756.8000000000001,190.28233309090905C762.7733333333333,184.4459136,768.7466666666667,178.47862429090912,774.7199999999999,172.3605028363637C780.6933333333333,166.24238138181823,786.6666666666666,159.98702530909097,792.64,153.57360436363638C798.6133333333333,147.16018341818184,804.5866666666666,140.60294181818176,810.56,133.87997716363634C816.5333333333333,127.15701250909088,822.5066666666667,120.28326676363643,828.48,113.23581643636368C834.4533333333334,106.18836610909096,840.4266666666666,98.98287643636357,846.4,91.59527519999995C852.3733333333333,84.20767396363627,858.3466666666667,76.65438370909088,864.32,68.91020901818177C870.2933333333334,61.16603432727271,876.2666666666667,53.148130690909085,882.24,45.13022705454546"/><text class="label" font-size="11" alignment-baseline="middle" opacity="1" x="5" fill="rgb(17, 165, 121)" transform="translate(897.239990234375, 65.1302261352539)"/></g><g class="series"><clipPath id="clip-0-1"><rect width="936" y="-20" height="599.6"/></clipPath><path class="line" opacity="1" fill="none" stroke="rgb(128, 35, 146)" stroke-width="2" transform="translate(15,20)" clip-path="url(#clip-0-1)" d="M57.92,508.0897309090909C63.89333333333334,507.02226545454545,69.86666666666667,505.95480000000003,75.84,504.80692363636365C81.81333333333333,503.65904727272726,87.78666666666666,502.2890836363636,93.75999999999999,501.2024727272727C99.73333333333333,500.1158618181818,105.70666666666666,499.28112,111.68,498.2872581818182C117.65333333333335,497.29339636363636,123.62666666666668,496.3565454545455,129.60000000000002,495.23930181818184C135.57333333333335,494.1220581818182,141.54666666666665,492.81250909090915,147.51999999999998,491.5837963636364C153.4933333333333,490.35508363636364,159.46666666666667,489.19104,165.44,487.86702545454546C171.41333333333333,486.5430109090909,177.38666666666668,484.97478545454544,183.36,483.6397090909091C189.33333333333334,482.30463272727275,195.30666666666667,481.1525018181818,201.28,479.85656727272726C207.25333333333333,478.5606327272727,213.2266666666667,477.30554181818184,219.20000000000002,475.86410181818184C225.17333333333335,474.42266181818184,231.14666666666668,472.91740363636364,237.12,471.20792727272726C243.09333333333333,469.4984509090909,249.06666666666666,467.7166472727273,255.04,465.60724363636365C261.0133333333333,463.49784,266.9866666666667,460.8923563636364,272.96000000000004,458.55150545454546C278.93333333333334,456.2106545454546,284.9066666666667,453.87831272727277,290.88,451.5621381818182C296.85333333333335,449.2459636363637,302.82666666666665,446.9885018181818,308.8,444.6544581818182C314.77333333333337,442.3204145454546,320.74666666666667,440.1123054545455,326.72,437.5578763636364C332.6933333333334,435.0034472727273,338.6666666666667,431.9895272727273,344.64000000000004,429.32788363636365C350.61333333333334,426.66624,356.5866666666667,423.924610909091,362.56,421.5880145454546C368.53333333333336,419.2514181818182,374.50666666666666,417.6755345454546,380.48,415.30830545454546C386.4533333333334,412.94107636363634,392.4266666666667,409.89992727272727,398.40000000000003,407.38464C404.37333333333333,404.8693527272727,410.3466666666667,402.5472218181818,416.32,400.2165818181818C422.29333333333335,397.8859418181818,428.26666666666665,395.4991418181818,434.24,393.4008C440.21333333333337,391.3024581818182,446.18666666666667,389.4466254545455,452.16,387.62653090909095C458.1333333333333,385.8064363636364,464.1066666666667,382.6776436363637,470.08,382.4802327272728C476.05333333333334,382.28282181818184,482.02666666666664,382.3815272727273,488,382.18411636363635C493.97333333333336,381.9867054545454,499.94666666666666,377.11865454545455,505.92,375.1743272727273C511.8933333333334,373.23,517.8666666666667,371.7264436363637,523.84,370.51815272727276C529.8133333333334,369.30986181818184,535.7866666666666,369.2591986909091,541.76,367.9245818181818C547.7333333333333,366.58996494545454,553.7066666666666,364.8033451636363,559.68,362.5104514909091C565.6533333333333,360.2175578181818,571.6266666666667,357.0065757818182,577.6,354.1672197818182C583.5733333333334,351.32786378181817,589.5466666666666,348.4326711272727,595.52,345.47431549090913C601.4933333333333,342.5159598545455,607.4666666666667,339.4994105454546,613.44,336.4170859636364C619.4133333333334,333.3347613818182,625.3866666666667,330.19186058181816,631.36,326.980368C637.3333333333334,323.7688754181818,643.3066666666667,320.4942198545455,649.2800000000001,317.1481304727273C655.2533333333333,313.80204109090914,661.2266666666667,310.3901424,667.1999999999999,306.9038317090909C673.1733333333333,303.4175210181818,679.1466666666666,299.8626696,685.12,296.2302663272727C691.0933333333334,292.5978630545454,697.0666666666666,288.89404298181813,703.04,285.10941207272725C709.0133333333333,281.3247811636363,714.9866666666667,277.4657127272727,720.96,273.5224808727273C726.9333333333334,269.5792490181818,732.9066666666666,265.5584993454545,738.88,261.4500209454545C744.8533333333334,257.3415425454545,750.8266666666667,253.1522703272728,756.8000000000001,248.8716104727273C762.7733333333333,244.59095061818186,768.7466666666667,240.2261103272727,774.7199999999999,235.7660618181818C780.6933333333333,231.30601330909087,786.6666666666666,226.75827861818186,792.64,222.11131941818184C798.6133333333333,217.46436021818187,804.5866666666666,212.72600487272726,810.56,207.88430661818182C816.5333333333333,203.04260836363636,822.5066666666667,198.1057274181818,828.48,193.06112989090906C834.4533333333334,188.01653236363634,840.4266666666666,182.87272734545456,846.4,177.61672145454548C852.3733333333333,172.36071556363638,858.3466666666667,167.00135825454544,864.32,161.52509454545452C870.2933333333334,156.04883083636363,876.2666666666667,150.40398501818183,882.24,144.75913920000005"/><text class="label" font-size="11" alignment-baseline="middle" opacity="1" x="5" fill="rgb(128, 35, 146)" transform="translate(897.239990234375, 164.75914001464844)"/></g></g><g id="data-points"><g class="series" transform="translate(15,20)"><path class="data-point" fill="rgb(17, 165, 121)" data-type="point" transform="translate(0, 0)" d="M54.92,505.3889454545455A3,3,0,1,1,60.92,505.3889454545455A3,3,0,1,1,54.92,505.3889454545455Z" id="point-0-0" opacity="1"/><path class="data-point" fill="rgb(17, 165, 121)" data-type="point" transform="translate(0, 0)" d="M72.84,500.2834909090909A3,3,0,1,1,78.84,500.2834909090909A3,3,0,1,1,72.84,500.2834909090909Z" id="point-0-1" opacity="1"/><path class="data-point" fill="rgb(17, 165, 121)" data-type="point" transform="translate(0, 0)" d="M90.75999999999999,495.94385454545454A3,3,0,1,1,96.75999999999999,495.94385454545454A3,3,0,1,1,90.75999999999999,495.94385454545454Z" id="point-0-2" opacity="1"/><path class="data-point" fill="rgb(17, 165, 121)" data-type="point" transform="translate(0, 0)" d="M108.68,493.34007272727274A3,3,0,1,1,114.68,493.34007272727274A3,3,0,1,1,108.68,493.34007272727274Z" id="point-0-3" opacity="1"/><path class="data-point" fill="rgb(17, 165, 121)" data-type="point" transform="translate(0, 0)" d="M126.60000000000002,490.42996363636365A3,3,0,1,1,132.60000000000002,490.42996363636365A3,3,0,1,1,126.60000000000002,490.42996363636365Z" id="point-0-4" opacity="1"/><path class="data-point" fill="rgb(17, 165, 121)" data-type="point" transform="translate(0, 0)" d="M144.51999999999998,487.36669090909095A3,3,0,1,1,150.51999999999998,487.36669090909095A3,3,0,1,1,144.51999999999998,487.36669090909095Z" id="point-0-5" opacity="1"/><path class="data-point" fill="rgb(17, 165, 121)" data-type="point" transform="translate(0, 0)" d="M162.44,483.69076363636367A3,3,0,1,1,168.44,483.69076363636367A3,3,0,1,1,162.44,483.69076363636367Z" id="point-0-6" opacity="1"/><path class="data-point" fill="rgb(17, 165, 121)" data-type="point" transform="translate(0, 0)" d="M180.36,478.9937454545455A3,3,0,1,1,186.36,478.9937454545455A3,3,0,1,1,180.36,478.9937454545455Z" id="point-0-7" opacity="1"/><path class="data-point" fill="rgb(17, 165, 121)" data-type="point" transform="translate(0, 0)" d="M198.28,475.7262545454546A3,3,0,1,1,204.28,475.7262545454546A3,3,0,1,1,198.28,475.7262545454546Z" id="point-0-8" opacity="1"/><path class="data-point" fill="rgb(17, 165, 121)" data-type="point" transform="translate(0, 0)" d="M216.20000000000002,471.9277963636364A3,3,0,1,1,222.20000000000002,471.9277963636364A3,3,0,1,1,216.20000000000002,471.9277963636364Z" id="point-0-9" opacity="1"/><path class="data-point" fill="rgb(17, 165, 121)" data-type="point" transform="translate(0, 0)" d="M234.12,467.48094545454546A3,3,0,1,1,240.12,467.48094545454546A3,3,0,1,1,234.12,467.48094545454546Z" id="point-0-10" opacity="1"/><path class="data-point" fill="rgb(17, 165, 121)" data-type="point" transform="translate(0, 0)" d="M252.04,461.0225454545455A3,3,0,1,1,258.03999999999996,461.0225454545455A3,3,0,1,1,252.04,461.0225454545455Z" id="point-0-11" opacity="1"/><path class="data-point" fill="rgb(17, 165, 121)" data-type="point" transform="translate(0, 0)" d="M269.96000000000004,454.1301818181818A3,3,0,1,1,275.96000000000004,454.1301818181818A3,3,0,1,1,269.96000000000004,454.1301818181818Z" id="point-0-12" opacity="1"/><path class="data-point" fill="rgb(17, 165, 121)" data-type="point" transform="translate(0, 0)" d="M287.88,447.74836363636365A3,3,0,1,1,293.88,447.74836363636365A3,3,0,1,1,287.88,447.74836363636365Z" id="point-0-13" opacity="1"/><path class="data-point" fill="rgb(17, 165, 121)" data-type="point" transform="translate(0, 0)" d="M305.8,441.7749818181818A3,3,0,1,1,311.8,441.7749818181818A3,3,0,1,1,305.8,441.7749818181818Z" id="point-0-14" opacity="1"/><path class="data-point" fill="rgb(17, 165, 121)" data-type="point" transform="translate(0, 0)" d="M323.72,435.0357818181818A3,3,0,1,1,329.72,435.0357818181818A3,3,0,1,1,323.72,435.0357818181818Z" id="point-0-15" opacity="1"/><path class="data-point" fill="rgb(17, 165, 121)" data-type="point" transform="translate(0, 0)" d="M341.64000000000004,427.68392727272726A3,3,0,1,1,347.64000000000004,427.68392727272726A3,3,0,1,1,341.64000000000004,427.68392727272726Z" id="point-0-16" opacity="1"/><path class="data-point" fill="rgb(17, 165, 121)" data-type="point" transform="translate(0, 0)" d="M359.56,420.0257454545455A3,3,0,1,1,365.56,420.0257454545455A3,3,0,1,1,359.56,420.0257454545455Z" id="point-0-17" opacity="1"/><path class="data-point" fill="rgb(17, 165, 121)" data-type="point" transform="translate(0, 0)" d="M377.48,413.2354909090909A3,3,0,1,1,383.48,413.2354909090909A3,3,0,1,1,377.48,413.2354909090909Z" id="point-0-18" opacity="1"/><path class="data-point" fill="rgb(17, 165, 121)" data-type="point" transform="translate(0, 0)" d="M395.40000000000003,406.03679999999997A3,3,0,1,1,401.40000000000003,406.03679999999997A3,3,0,1,1,395.40000000000003,406.03679999999997Z" id="point-0-19" opacity="1"/><path class="data-point" fill="rgb(17, 165, 121)" data-type="point" transform="translate(0, 0)" d="M413.32,398.5828363636364A3,3,0,1,1,419.32,398.5828363636364A3,3,0,1,1,413.32,398.5828363636364Z" id="point-0-20" opacity="1"/><path class="data-point" fill="rgb(17, 165, 121)" data-type="point" transform="translate(0, 0)" d="M431.24,390.9757090909091A3,3,0,1,1,437.24,390.9757090909091A3,3,0,1,1,431.24,390.9757090909091Z" id="point-0-21" opacity="1"/><path class="data-point" fill="rgb(17, 165, 121)" data-type="point" transform="translate(0, 0)" d="M449.16,381.53061818181817A3,3,0,1,1,455.16,381.53061818181817A3,3,0,1,1,449.16,381.53061818181817Z" id="point-0-22" opacity="1"/><path class="data-point" fill="rgb(17, 165, 121)" data-type="point" transform="translate(0, 0)" d="M467.08,373.5661090909091A3,3,0,1,1,473.08,373.5661090909091A3,3,0,1,1,467.08,373.5661090909091Z" id="point-0-23" opacity="1"/><path class="data-point" fill="rgb(17, 165, 121)" data-type="point" transform="translate(0, 0)" d="M485,365.7547636363637A3,3,0,1,1,491,365.7547636363637A3,3,0,1,1,485,365.7547636363637Z" id="point-0-24" opacity="1"/><path class="data-point" fill="rgb(17, 165, 121)" data-type="point" transform="translate(0, 0)" d="M502.92,358.3008A3,3,0,1,1,508.92,358.3008A3,3,0,1,1,502.92,358.3008Z" id="point-0-25" opacity="1"/><path class="data-point" fill="rgb(17, 165, 121)" data-type="point" transform="translate(0, 0)" d="M520.84,350.69367272727277A3,3,0,1,1,526.84,350.69367272727277A3,3,0,1,1,520.84,350.69367272727277Z" id="point-0-26" opacity="1"/><path class="data-point" fill="rgb(17, 165, 121)" data-type="point" transform="translate(0, 0)" d="M538.76,342.7802181818182A3,3,0,1,1,544.76,342.7802181818182A3,3,0,1,1,538.76,342.7802181818182Z" id="point-0-27" opacity="1"/><path class="data-point" fill="rgb(17, 165, 121)" data-type="point" transform="translate(0, 0)" d="M556.68,340.51416218181816A3,3,0,1,1,562.68,340.51416218181816A3,3,0,1,1,556.68,340.51416218181816Z" id="point-0-28" opacity="1"/><path class="data-point" fill="rgb(17, 165, 121)" data-type="point" transform="translate(0, 0)" d="M574.6,329.8433026909091A3,3,0,1,1,580.6,329.8433026909091A3,3,0,1,1,574.6,329.8433026909091Z" id="point-0-29" opacity="1"/><path class="data-point" fill="rgb(17, 165, 121)" data-type="point" transform="translate(0, 0)" d="M592.52,318.657456A3,3,0,1,1,598.52,318.657456A3,3,0,1,1,592.52,318.657456Z" id="point-0-30" opacity="1"/><path class="data-point" fill="rgb(17, 165, 121)" data-type="point" transform="translate(0, 0)" d="M610.44,306.9316564363636A3,3,0,1,1,616.44,306.9316564363636A3,3,0,1,1,610.44,306.9316564363636Z" id="point-0-31" opacity="1"/><path class="data-point" fill="rgb(17, 165, 121)" data-type="point" transform="translate(0, 0)" d="M628.36,294.6399682909091A3,3,0,1,1,634.36,294.6399682909091A3,3,0,1,1,628.36,294.6399682909091Z" id="point-0-32" opacity="1"/><path class="data-point" fill="rgb(17, 165, 121)" data-type="point" transform="translate(0, 0)" d="M646.2800000000001,281.75497527272734A3,3,0,1,1,652.2800000000001,281.75497527272734A3,3,0,1,1,646.2800000000001,281.75497527272734Z" id="point-0-33" opacity="1"/><path class="data-point" fill="rgb(17, 165, 121)" data-type="point" transform="translate(0, 0)" d="M664.1999999999999,268.24808683636365A3,3,0,1,1,670.1999999999999,268.24808683636365A3,3,0,1,1,664.1999999999999,268.24808683636365Z" id="point-0-34" opacity="1"/><path class="data-point" fill="rgb(17, 165, 121)" data-type="point" transform="translate(0, 0)" d="M682.12,254.08928290909085A3,3,0,1,1,688.12,254.08928290909085A3,3,0,1,1,682.12,254.08928290909085Z" id="point-0-35" opacity="1"/><path class="data-point" fill="rgb(17, 165, 121)" data-type="point" transform="translate(0, 0)" d="M700.04,239.24711389090908A3,3,0,1,1,706.04,239.24711389090908A3,3,0,1,1,700.04,239.24711389090908Z" id="point-0-36" opacity="1"/><path class="data-point" fill="rgb(17, 165, 121)" data-type="point" transform="translate(0, 0)" d="M717.96,223.68854749090912A3,3,0,1,1,723.96,223.68854749090912A3,3,0,1,1,717.96,223.68854749090912Z" id="point-0-37" opacity="1"/><path class="data-point" fill="rgb(17, 165, 121)" data-type="point" transform="translate(0, 0)" d="M735.88,207.37901978181822A3,3,0,1,1,741.88,207.37901978181822A3,3,0,1,1,735.88,207.37901978181822Z" id="point-0-38" opacity="1"/><path class="data-point" fill="rgb(17, 165, 121)" data-type="point" transform="translate(0, 0)" d="M753.8000000000001,190.28233309090905A3,3,0,1,1,759.8000000000001,190.28233309090905A3,3,0,1,1,753.8000000000001,190.28233309090905Z" id="point-0-39" opacity="1"/><path class="data-point" fill="rgb(17, 165, 121)" data-type="point" transform="translate(0, 0)" d="M771.7199999999999,172.3605028363637A3,3,0,1,1,777.7199999999999,172.3605028363637A3,3,0,1,1,771.7199999999999,172.3605028363637Z" id="point-0-40" opacity="1"/><path class="data-point" fill="rgb(17, 165, 121)" data-type="point" transform="translate(0, 0)" d="M789.64,153.57360436363638A3,3,0,1,1,795.64,153.57360436363638A3,3,0,1,1,789.64,153.57360436363638Z" id="point-0-41" opacity="1"/><path class="data-point" fill="rgb(17, 165, 121)" data-type="point" transform="translate(0, 0)" d="M807.56,133.87997716363634A3,3,0,1,1,813.56,133.87997716363634A3,3,0,1,1,807.56,133.87997716363634Z" id="point-0-42" opacity="1"/><path class="data-point" fill="rgb(17, 165, 121)" data-type="point" transform="translate(0, 0)" d="M825.48,113.23581643636368A3,3,0,1,1,831.48,113.23581643636368A3,3,0,1,1,825.48,113.23581643636368Z" id="point-0-43" opacity="1"/><path class="data-point" fill="rgb(17, 165, 121)" data-type="point" transform="translate(0, 0)" d="M843.4,91.59527519999995A3,3,0,1,1,849.4,91.59527519999995A3,3,0,1,1,843.4,91.59527519999995Z" id="point-0-44" opacity="1"/><path class="data-point" fill="rgb(17, 165, 121)" data-type="point" transform="translate(0, 0)" d="M861.32,68.91020901818177A3,3,0,1,1,867.32,68.91020901818177A3,3,0,1,1,861.32,68.91020901818177Z" id="point-0-45" opacity="1"/><path class="data-point" fill="rgb(17, 165, 121)" data-type="point" transform="translate(0, 0)" d="M879.24,45.13022705454546A3,3,0,1,1,885.24,45.13022705454546A3,3,0,1,1,879.24,45.13022705454546Z" id="point-0-46" opacity="1"/></g><g class="series" transform="translate(15,20)"><path class="data-point" fill="rgb(128, 35, 146)" data-type="point" transform="translate(0, 0)" d="M54.92,508.0897309090909A3,3,0,1,1,60.92,508.0897309090909A3,3,0,1,1,54.92,508.0897309090909Z" id="point-1-0" opacity="1"/><path class="data-point" fill="rgb(128, 35, 146)" data-type="point" transform="translate(0, 0)" d="M72.84,504.80692363636365A3,3,0,1,1,78.84,504.80692363636365A3,3,0,1,1,72.84,504.80692363636365Z" id="point-1-1" opacity="1"/><path class="data-point" fill="rgb(128, 35, 146)" data-type="point" transform="translate(0, 0)" d="M90.75999999999999,501.2024727272727A3,3,0,1,1,96.75999999999999,501.2024727272727A3,3,0,1,1,90.75999999999999,501.2024727272727Z" id="point-1-2" opacity="1"/><path class="data-point" fill="rgb(128, 35, 146)" data-type="point" transform="translate(0, 0)" d="M108.68,498.2872581818182A3,3,0,1,1,114.68,498.2872581818182A3,3,0,1,1,108.68,498.2872581818182Z" id="point-1-3" opacity="1"/><path class="data-point" fill="rgb(128, 35, 146)" data-type="point" transform="translate(0, 0)" d="M126.60000000000002,495.23930181818184A3,3,0,1,1,132.60000000000002,495.23930181818184A3,3,0,1,1,126.60000000000002,495.23930181818184Z" id="point-1-4" opacity="1"/><path class="data-point" fill="rgb(128, 35, 146)" data-type="point" transform="translate(0, 0)" d="M144.51999999999998,491.5837963636364A3,3,0,1,1,150.51999999999998,491.5837963636364A3,3,0,1,1,144.51999999999998,491.5837963636364Z" id="point-1-5" opacity="1"/><path class="data-point" fill="rgb(128, 35, 146)" data-type="point" transform="translate(0, 0)" d="M162.44,487.86702545454546A3,3,0,1,1,168.44,487.86702545454546A3,3,0,1,1,162.44,487.86702545454546Z" id="point-1-6" opacity="1"/><path class="data-point" fill="rgb(128, 35, 146)" data-type="point" transform="translate(0, 0)" d="M180.36,483.6397090909091A3,3,0,1,1,186.36,483.6397090909091A3,3,0,1,1,180.36,483.6397090909091Z" id="point-1-7" opacity="1"/><path class="data-point" fill="rgb(128, 35, 146)" data-type="point" transform="translate(0, 0)" d="M198.28,479.85656727272726A3,3,0,1,1,204.28,479.85656727272726A3,3,0,1,1,198.28,479.85656727272726Z" id="point-1-8" opacity="1"/><path class="data-point" fill="rgb(128, 35, 146)" data-type="point" transform="translate(0, 0)" d="M216.20000000000002,475.86410181818184A3,3,0,1,1,222.20000000000002,475.86410181818184A3,3,0,1,1,216.20000000000002,475.86410181818184Z" id="point-1-9" opacity="1"/><path class="data-point" fill="rgb(128, 35, 146)" data-type="point" transform="translate(0, 0)" d="M234.12,471.20792727272726A3,3,0,1,1,240.12,471.20792727272726A3,3,0,1,1,234.12,471.20792727272726Z" id="point-1-10" opacity="1"/><path class="data-point" fill="rgb(128, 35, 146)" data-type="point" transform="translate(0, 0)" d="M252.04,465.60724363636365A3,3,0,1,1,258.03999999999996,465.60724363636365A3,3,0,1,1,252.04,465.60724363636365Z" id="point-1-11" opacity="1"/><path class="data-point" fill="rgb(128, 35, 146)" data-type="point" transform="translate(0, 0)" d="M269.96000000000004,458.55150545454546A3,3,0,1,1,275.96000000000004,458.55150545454546A3,3,0,1,1,269.96000000000004,458.55150545454546Z" id="point-1-12" opacity="1"/><path class="data-point" fill="rgb(128, 35, 146)" data-type="point" transform="translate(0, 0)" d="M287.88,451.5621381818182A3,3,0,1,1,293.88,451.5621381818182A3,3,0,1,1,287.88,451.5621381818182Z" id="point-1-13" opacity="1"/><path class="data-point" fill="rgb(128, 35, 146)" data-type="point" transform="translate(0, 0)" d="M305.8,444.6544581818182A3,3,0,1,1,311.8,444.6544581818182A3,3,0,1,1,305.8,444.6544581818182Z" id="point-1-14" opacity="1"/><path class="data-point" fill="rgb(128, 35, 146)" data-type="point" transform="translate(0, 0)" d="M323.72,437.5578763636364A3,3,0,1,1,329.72,437.5578763636364A3,3,0,1,1,323.72,437.5578763636364Z" id="point-1-15" opacity="1"/><path class="data-point" fill="rgb(128, 35, 146)" data-type="point" transform="translate(0, 0)" d="M341.64000000000004,429.32788363636365A3,3,0,1,1,347.64000000000004,429.32788363636365A3,3,0,1,1,341.64000000000004,429.32788363636365Z" id="point-1-16" opacity="1"/><path class="data-point" fill="rgb(128, 35, 146)" data-type="point" transform="translate(0, 0)" d="M359.56,421.5880145454546A3,3,0,1,1,365.56,421.5880145454546A3,3,0,1,1,359.56,421.5880145454546Z" id="point-1-17" opacity="1"/><path class="data-point" fill="rgb(128, 35, 146)" data-type="point" transform="translate(0, 0)" d="M377.48,415.30830545454546A3,3,0,1,1,383.48,415.30830545454546A3,3,0,1,1,377.48,415.30830545454546Z" id="point-1-18" opacity="1"/><path class="data-point" fill="rgb(128, 35, 146)" data-type="point" transform="translate(0, 0)" d="M395.40000000000003,407.38464A3,3,0,1,1,401.40000000000003,407.38464A3,3,0,1,1,395.40000000000003,407.38464Z" id="point-1-19" opacity="1"/><path class="data-point" fill="rgb(128, 35, 146)" data-type="point" transform="translate(0, 0)" d="M413.32,400.2165818181818A3,3,0,1,1,419.32,400.2165818181818A3,3,0,1,1,413.32,400.2165818181818Z" id="point-1-20" opacity="1"/><path class="data-point" fill="rgb(128, 35, 146)" data-type="point" transform="translate(0, 0)" d="M431.24,393.4008A3,3,0,1,1,437.24,393.4008A3,3,0,1,1,431.24,393.4008Z" id="point-1-21" opacity="1"/><path class="data-point" fill="rgb(128, 35, 146)" data-type="point" transform="translate(0, 0)" d="M449.16,387.62653090909095A3,3,0,1,1,455.16,387.62653090909095A3,3,0,1,1,449.16,387.62653090909095Z" id="point-1-22" opacity="1"/><path class="data-point" fill="rgb(128, 35, 146)" data-type="point" transform="translate(0, 0)" d="M467.08,382.4802327272728A3,3,0,1,1,473.08,382.4802327272728A3,3,0,1,1,467.08,382.4802327272728Z" id="point-1-23" opacity="1"/><path class="data-point" fill="rgb(128, 35, 146)" data-type="point" transform="translate(0, 0)" d="M485,382.18411636363635A3,3,0,1,1,491,382.18411636363635A3,3,0,1,1,485,382.18411636363635Z" id="point-1-24" opacity="1"/><path class="data-point" fill="rgb(128, 35, 146)" data-type="point" transform="translate(0, 0)" d="M502.92,375.1743272727273A3,3,0,1,1,508.92,375.1743272727273A3,3,0,1,1,502.92,375.1743272727273Z" id="point-1-25" opacity="1"/><path class="data-point" fill="rgb(128, 35, 146)" data-type="point" transform="translate(0, 0)" d="M520.84,370.51815272727276A3,3,0,1,1,526.84,370.51815272727276A3,3,0,1,1,520.84,370.51815272727276Z" id="point-1-26" opacity="1"/><path class="data-point" fill="rgb(128, 35, 146)" data-type="point" transform="translate(0, 0)" d="M538.76,367.9245818181818A3,3,0,1,1,544.76,367.9245818181818A3,3,0,1,1,538.76,367.9245818181818Z" id="point-1-27" opacity="1"/><path class="data-point" fill="rgb(128, 35, 146)" data-type="point" transform="translate(0, 0)" d="M556.68,362.5104514909091A3,3,0,1,1,562.68,362.5104514909091A3,3,0,1,1,556.68,362.5104514909091Z" id="point-1-28" opacity="1"/><path class="data-point" fill="rgb(128, 35, 146)" data-type="point" transform="translate(0, 0)" d="M574.6,354.1672197818182A3,3,0,1,1,580.6,354.1672197818182A3,3,0,1,1,574.6,354.1672197818182Z" id="point-1-29" opacity="1"/><path class="data-point" fill="rgb(128, 35, 146)" data-type="point" transform="translate(0, 0)" d="M592.52,345.47431549090913A3,3,0,1,1,598.52,345.47431549090913A3,3,0,1,1,592.52,345.47431549090913Z" id="point-1-30" opacity="1"/><path class="data-point" fill="rgb(128, 35, 146)" data-type="point" transform="translate(0, 0)" d="M610.44,336.4170859636364A3,3,0,1,1,616.44,336.4170859636364A3,3,0,1,1,610.44,336.4170859636364Z" id="point-1-31" opacity="1"/><path class="data-point" fill="rgb(128, 35, 146)" data-type="point" transform="translate(0, 0)" d="M628.36,326.980368A3,3,0,1,1,634.36,326.980368A3,3,0,1,1,628.36,326.980368Z" id="point-1-32" opacity="1"/><path class="data-point" fill="rgb(128, 35, 146)" data-type="point" transform="translate(0, 0)" d="M646.2800000000001,317.1481304727273A3,3,0,1,1,652.2800000000001,317.1481304727273A3,3,0,1,1,646.2800000000001,317.1481304727273Z" id="point-1-33" opacity="1"/><path class="data-point" fill="rgb(128, 35, 146)" data-type="point" transform="translate(0, 0)" d="M664.1999999999999,306.9038317090909A3,3,0,1,1,670.1999999999999,306.9038317090909A3,3,0,1,1,664.1999999999999,306.9038317090909Z" id="point-1-34" opacity="1"/><path class="data-point" fill="rgb(128, 35, 146)" data-type="point" transform="translate(0, 0)" d="M682.12,296.2302663272727A3,3,0,1,1,688.12,296.2302663272727A3,3,0,1,1,682.12,296.2302663272727Z" id="point-1-35" opacity="1"/><path class="data-point" fill="rgb(128, 35, 146)" data-type="point" transform="translate(0, 0)" d="M700.04,285.10941207272725A3,3,0,1,1,706.04,285.10941207272725A3,3,0,1,1,700.04,285.10941207272725Z" id="point-1-36" opacity="1"/><path class="data-point" fill="rgb(128, 35, 146)" data-type="point" transform="translate(0, 0)" d="M717.96,273.5224808727273A3,3,0,1,1,723.96,273.5224808727273A3,3,0,1,1,717.96,273.5224808727273Z" id="point-1-37" opacity="1"/><path class="data-point" fill="rgb(128, 35, 146)" data-type="point" transform="translate(0, 0)" d="M735.88,261.4500209454545A3,3,0,1,1,741.88,261.4500209454545A3,3,0,1,1,735.88,261.4500209454545Z" id="point-1-38" opacity="1"/><path class="data-point" fill="rgb(128, 35, 146)" data-type="point" transform="translate(0, 0)" d="M753.8000000000001,248.8716104727273A3,3,0,1,1,759.8000000000001,248.8716104727273A3,3,0,1,1,753.8000000000001,248.8716104727273Z" id="point-1-39" opacity="1"/><path class="data-point" fill="rgb(128, 35, 146)" data-type="point" transform="translate(0, 0)" d="M771.7199999999999,235.7660618181818A3,3,0,1,1,777.7199999999999,235.7660618181818A3,3,0,1,1,771.7199999999999,235.7660618181818Z" id="point-1-40" opacity="1"/><path class="data-point" fill="rgb(128, 35, 146)" data-type="point" transform="translate(0, 0)" d="M789.64,222.11131941818184A3,3,0,1,1,795.64,222.11131941818184A3,3,0,1,1,789.64,222.11131941818184Z" id="point-1-41" opacity="1"/><path class="data-point" fill="rgb(128, 35, 146)" data-type="point" transform="translate(0, 0)" d="M807.56,207.88430661818182A3,3,0,1,1,813.56,207.88430661818182A3,3,0,1,1,807.56,207.88430661818182Z" id="point-1-42" opacity="1"/><path class="data-point" fill="rgb(128, 35, 146)" data-type="point" transform="translate(0, 0)" d="M825.48,193.06112989090906A3,3,0,1,1,831.48,193.06112989090906A3,3,0,1,1,825.48,193.06112989090906Z" id="point-1-43" opacity="1"/><path class="data-point" fill="rgb(128, 35, 146)" data-type="point" transform="translate(0, 0)" d="M843.4,177.61672145454548A3,3,0,1,1,849.4,177.61672145454548A3,3,0,1,1,843.4,177.61672145454548Z" id="point-1-44" opacity="1"/><path class="data-point" fill="rgb(128, 35, 146)" data-type="point" transform="translate(0, 0)" d="M861.32,161.52509454545452A3,3,0,1,1,867.32,161.52509454545452A3,3,0,1,1,861.32,161.52509454545452Z" id="point-1-45" opacity="1"/><path class="data-point" fill="rgb(128, 35, 146)" data-type="point" transform="translate(0, 0)" d="M879.24,144.75913920000005A3,3,0,1,1,885.24,144.75913920000005A3,3,0,1,1,879.24,144.75913920000005Z" id="point-1-46" opacity="1"/></g></g><g id="data-labels"/><g class="annotations above"><g class="axis-highlights" transform="translate(15, 20)" style="opacity: 1;"/></g></svg>