<svg xmlns="http://www.w3.org/2000/svg" id="graphic" width="961" height="634.6"><g id="facets"><g class="facet" transform="translate(15,20)" opacity="1"><text class="facet-title" y="0" font-size="16" font-weight="bold" dominant-baseline="middle" x="0" clip-path="url(#facet-clip-0)" fill="black"/><g class="plot"><clipPath class="facet-clip" id="facet-clip-0"><rect width="951" height="581.6" transform="translate(-7.5,-10)"/></clipPath><g class="bg"><rect fill="none" width="936" height="561.6" style="fill: none;"/></g><g class="interaction"><g class="series"><path data-target="point-0-0" d="M77.40023116857148,561.6L66.79463930714286,509.26824L0,509.26824L0,561.6Z" style="opacity: 0;"/><path data-target="point-0-1" d="M66.79463930714286,509.26824L77.40023116857148,561.6L83.29175575785708,561.6L84.883160675,505.17792L66.98692086785714,505.17792Z" style="opacity: 0;"/><path data-target="point-0-2" d="M117.35135076000003,561.6L102.24690815999999,504.22319999999996L85.197323225,504.22319999999996L84.883160675,505.17792L83.29175575785708,561.6Z" style="opacity: 0;"/><path data-target="point-0-3" d="M102.24690815999999,504.22319999999996L117.35135076000003,561.6L139.54474366857139,561.6L120.38941307714285,500.06736L103.08045092571427,500.06736Z" style="opacity: 0;"/><path data-target="point-0-4" d="M120.38941307714285,500.06736L139.54474366857139,561.6L163.49403438500005,561.6L138.79736726,495.378L120.81070183,495.378Z" style="opacity: 0;"/><path data-target="point-0-5" d="M138.36851044571426,489.34079999999994L138.79736726,495.378L163.49403438500005,561.6L194.84421450642864,561.6L157.7810514492857,489.34079999999994Z" style="opacity: 0;"/><path data-target="point-0-6" d="M155.56846904571427,481.5252L157.7810514492857,489.34079999999994L194.84421450642864,561.6L200.96075692214276,561.6L175.1130404542857,481.5251999999999Z" style="opacity: 0;"/><path data-target="point-0-7" d="M173.56004296,475.22592L175.1130404542857,481.5251999999999L200.96075692214276,561.6L226.58063364285715,561.6L193.19550932857143,475.22592Z" style="opacity: 0;"/><path data-target="point-0-8" d="M191.53677408714285,468.66455999999994L193.19550932857143,475.22592L226.58063364285715,561.6L253.10621371500022,561.6L211.65119901,468.66455999999994Z" style="opacity: 0;"/><path data-target="point-0-9" d="M209.07666966857144,461.37312L211.65119901,468.66455999999994L253.10621371500022,561.6L275.1566054628572,561.6L229.92564633142857,461.37312Z" style="opacity: 0;"/><path data-target="point-0-10" d="M226.12051500142854,452.65896L229.92564633142857,461.37312L275.1566054628572,561.6L336.2117298049999,561.6L250.97217482,452.65896Z" style="opacity: 0;"/><path data-target="point-0-11" d="M7.155945254902463,36.80858599631421L17.84210837710387,66.03569880917291L18.393901074809065,67.16243049259413L121.95984510433316,267.4453577360839L165.9150551486585,343.9949919349682L181.36391215989966,366.799385838836L240.86777635999997,438.17904L267.478717125,438.17904L260.86130785714283,426.33863999999994L119.06825044897633,200.1160982661738Z" style="opacity: 0;"/><path data-target="point-0-12" d="M119.06825044897633,200.1160982661738L260.86130785714283,426.33863999999994L286.08542580999995,426.33863999999994L277.59670090857145,413.25336Z" style="opacity: 0;"/><path data-target="point-0-13" d="M0,19.725953505978612L7.155945254902463,36.80858599631421L119.06825044897633,200.1160982661738L277.59670090857145,413.25336L303.1260640057143,413.25336L296.50152668000004,401.42232L95.89355158605028,99.9545261140982L24.890139999999718,0L0,0Z" style="opacity: 0;"/><path data-target="point-0-14" d="M95.89355158605028,99.9545261140982L296.50152668000004,401.42232L322.17032202,401.42231999999996L313.35576958499996,387.87839999999994Z" style="opacity: 0;"/><path data-target="point-0-15" d="M24.890139999999718,0L95.89355158605028,99.9545261140982L313.35576958499996,387.87839999999994L338.9789414435714,387.87839999999994L331.83384078142853,375.04584L112.2487259058783,90.22045299815096L37.88693414142929,0Z" style="opacity: 0;"/><path data-target="point-0-16" d="M112.2487259058783,90.22045299815096L331.83384078142853,375.04584L357.86691996714285,375.04584L348.9512156,359.96688Z" style="opacity: 0;"/><path data-target="point-0-17" d="M37.88693414142929,0L112.2487259058783,90.22045299815096L348.9512156,359.96688L371.9574124392857,359.96688L371.15342813571425,353.27448L311.83065826364236,179.07936108457872L239.99425170285704,0Z" style="opacity: 0;"/><path data-target="point-0-18" d="M311.83065826364236,179.07936108457872L371.15342813571425,353.27448L390.4648172071428,353.27448L388.4243739785714,344.9628Z" style="opacity: 0;"/><path data-target="point-0-19" d="M239.99425170285704,0L311.83065826364236,179.07936108457872L388.4243739785714,344.9628L409.20459275,344.9628L406.015124195,336.06143999999995L265.23838686928525,0Z" style="opacity: 0;"/><path data-target="point-0-20" d="M406.015124195,336.06143999999995L409.20459275,344.9628L449.76407241006194,415.55583375177844L443.19999999999993,380.7438864104929L426.3495313478571,336.06143999999995Z" style="opacity: 0;"/><path data-target="point-0-21" d="M424.08307295142856,328.90103999999997L426.3495313478571,336.06143999999995L443.19999999999993,380.7438864104929L443.19999999999993,328.90103999999997Z" style="opacity: 0;"/><path data-target="point-0-22" d="M443.19999999999993,328.90103999999997L443.19999999999993,380.7438864104929L449.76407241006194,415.55583375177844L496.092672255,561.6L518.800126845714,561.6L461.07846366285713,327.46896L443.3510972264285,327.46896Z" style="opacity: 0;"/><path data-target="point-0-23" d="M461.07846366285713,327.46896L518.800126845714,561.6L540.8266704,561.6L478.9672527428571,322.8264L461.1657603714285,322.8264Z" style="opacity: 0;"/><path data-target="point-0-24" d="M478.9672527428571,322.8264L540.8266704,561.6L558.9239233942858,561.6L496.74527825714284,317.65968L479.12917405714285,317.65968Z" style="opacity: 0;"/><path data-target="point-0-25" d="M496.74527825714284,317.65968L558.9239233942858,561.6L596.3336566999999,561.6L514.75104962,312.88608L497.19408189999996,312.88608Z" style="opacity: 0;"/><path data-target="point-0-26" d="M514.75104962,312.88608L596.3336566999999,561.6L605.720569660714,561.6L532.5983316964285,307.06415999999996L515.0064863599999,307.06416Z" style="opacity: 0;"/><path data-target="point-0-27" d="M532.5983316964285,307.06415999999996L605.720569660714,561.6L614.4646540503735,561.6L550.353058068266,301.49496L533.0346685714286,301.49496Z" style="opacity: 0;"/><path data-target="point-0-28" d="M550.353058068266,301.49496L614.4646540503735,561.6L715.9110187129133,561.6L569.2803490291699,296.96621749999997L551.1055106564011,296.96621749999997Z" style="opacity: 0;"/><path data-target="point-0-29" d="M567.9261401772687,286.46701199999995L569.2803490291699,296.96621749999997L715.9110187129133,561.6L745.2537651028717,561.6L587.0055458896768,286.46701199999995Z" style="opacity: 0;"/><path data-target="point-0-30" d="M586.0617741908638,275.550631L587.0055458896768,286.46701199999995L745.2537651028717,561.6L775.4891189567328,561.6L604.6958886721054,275.550631Z" style="opacity: 0;"/><path data-target="point-0-31" d="M604.2378561323384,264.20041449999997L604.6958886721054,275.550631L775.4891189567328,561.6L806.677594916885,561.6L622.3470913695194,264.20041449999997Z" style="opacity: 0;"/><path data-target="point-0-32" d="M622.3470913695194,264.20041449999997L806.677594916885,561.6L838.8927868310416,561.6L639.9542730671451,252.3990455L622.4595244344688,252.3990455Z" style="opacity: 0;"/><path data-target="point-0-33" d="M639.9542730671451,252.3990455L838.8927868310416,561.6L872.2170566540293,561.6L657.5121523022019,240.128647L640.7327209795727,240.128647Z" style="opacity: 0;"/><path data-target="point-0-34" d="M657.5121523022019,240.128647L872.2170566540293,561.6L906.7426064603893,561.6L675.0150633552653,227.37068649999998L659.0638748450025,227.37068649999998Z" style="opacity: 0;"/><path data-target="point-0-35" d="M675.0150633552653,227.37068649999998L906.7426064603893,561.6L936,561.6L936,552.4982917809537L692.4563794774587,214.1054135L677.4599375576208,214.1054135Z" style="opacity: 0;"/><path data-target="point-0-36" d="M692.4563794774587,214.1054135L936,552.4982917809537L936,503.0416073542293L709.8291153320231,200.3129855L695.9290349981652,200.3129855Z" style="opacity: 0;"/><path data-target="point-0-37" d="M709.8291153320231,200.3129855L936,503.0416073542293L936,455.2956346038803L727.1252161554687,185.9720615L714.4798617800024,185.9720615Z" style="opacity: 0;"/><path data-target="point-0-38" d="M727.1252161554687,185.9720615L936,455.2956346038803L936,409.13374387729635L744.3361880212715,171.06111349999998L733.1222130542187,171.06111349999998Z" style="opacity: 0;"/><path data-target="point-0-39" d="M744.3361880212715,171.06111349999998L936,409.13374387729635L936,364.415294833389L761.452213468012,155.5573035L751.8669785828262,155.5573035Z" style="opacity: 0;"/><path data-target="point-0-40" d="M761.452213468012,155.5573035L936,364.415294833389L936,321.0287582412413L778.4629046662013,139.43695L770.7260081526249,139.43695Z" style="opacity: 0;"/><path data-target="point-0-41" d="M778.4629046662013,139.43695L936,321.0287582412413L936,278.84983550706534L795.3565779112681,122.6757165L789.7125844057493,122.6757165Z" style="opacity: 0;"/><path data-target="point-0-42" d="M795.3565779112681,122.6757165L936,278.84983550706534L936,237.76074601477563L812.1203022768236,105.2479585L808.8414194499113,105.2479585Z" style="opacity: 0;"/><path data-target="point-0-43" d="M812.1203022768236,105.2479585L936,237.76074601477563L936,197.6562683492481L828.7399866629977,87.126905L828.1286704855509,87.126905Z" style="opacity: 0;"/><path data-target="point-0-44" d="M828.7399866629977,87.126905L936,197.6562683492481L936,158.420198385473L846.4002416938808,69.4768834358609Z" style="opacity: 0;"/><path data-target="point-0-45" d="M846.3925875986343,67.22590062138741L846.4002416938808,69.4768834358609L936,158.420198385473L936,119.95311232271888L864.2616103607364,51.35112367995262Z" style="opacity: 0;"/><path data-target="point-0-46" d="M864.2616103607364,51.35112367995262L936,119.95311232271888L936,28.324108999999996L887.1300507001472,28.324108999999996L864.4622824703398,46.32834026793442Z" style="opacity: 0;"/><path data-target="point-1-0" d="M0,509.26824L66.79463930714286,509.26824L66.98692086785714,505.17792L0,241.2921918441117Z" style="opacity: 0;"/><path data-target="point-1-1" d="M0,241.2921918441117L66.98692086785714,505.17792L84.883160675,505.17792L85.197323225,504.22319999999996L46.872712269928634,219.82934675890004L28.45299295924464,109.96921081638038L17.84210837710387,66.03569880917291L7.155945254902463,36.80858599631421L0,19.725953505978612Z" style="opacity: 0;"/><path data-target="point-1-2" d="M46.872712269928634,219.82934675890004L85.197323225,504.22319999999996L102.24690815999999,504.22319999999996L103.08045092571427,500.06736Z" style="opacity: 0;"/><path data-target="point-1-3" d="M28.45299295924464,109.96921081638038L46.872712269928634,219.82934675890004L103.08045092571427,500.06736L120.38941307714285,500.06736L120.81070183,495.378L74.54068886776518,277.187546891908L55.604576052356094,203.3509797839368Z" style="opacity: 0;"/><path data-target="point-1-4" d="M74.54068886776518,277.187546891908L120.81070183,495.378L138.79736726,495.378L138.36851044571426,489.34079999999994Z" style="opacity: 0;"/><path data-target="point-1-5" d="M55.604576052356094,203.3509797839368L74.54068886776518,277.187546891908L138.36851044571426,489.34079999999994L157.7810514492857,489.34079999999994L155.56846904571427,481.5252Z" style="opacity: 0;"/><path data-target="point-1-6" d="M17.84210837710387,66.03569880917291L28.45299295924464,109.96921081638038L55.604576052356094,203.3509797839368L155.56846904571427,481.5252L175.1130404542857,481.5251999999999L173.56004296,475.22592L18.393901074809065,67.16243049259413Z" style="opacity: 0;"/><path data-target="point-1-7" d="M18.393901074809065,67.16243049259413L173.56004296,475.22592L193.19550932857143,475.22592L191.53677408714285,468.66455999999994L121.95984510433316,267.4453577360839Z" style="opacity: 0;"/><path data-target="point-1-8" d="M121.95984510433316,267.4453577360839L191.53677408714285,468.66455999999994L211.65119901,468.66455999999994L209.07666966857144,461.37312L165.9150551486585,343.9949919349682Z" style="opacity: 0;"/><path data-target="point-1-9" d="M165.9150551486585,343.9949919349682L209.07666966857144,461.37312L229.92564633142857,461.37312L226.12051500142854,452.65896L181.36391215989966,366.799385838836Z" style="opacity: 0;"/><path data-target="point-1-10" d="M181.36391215989966,366.799385838836L226.12051500142854,452.65896L250.97217482,452.65896L240.86777635999997,438.17904Z" style="opacity: 0;"/><path data-target="point-1-11" d="M240.86777635999997,438.17904L250.97217482,452.65896L336.2117298049999,561.6L353.2177152750001,561.6L267.478717125,438.17904Z" style="opacity: 0;"/><path data-target="point-1-12" d="M260.86130785714283,426.33863999999994L267.478717125,438.17904L353.2177152750001,561.6L383.0170979199996,561.6L286.08542580999995,426.33863999999994Z" style="opacity: 0;"/><path data-target="point-1-13" d="M277.59670090857145,413.25336L286.08542580999995,426.33863999999994L383.0170979199996,561.6L400.29178868214274,561.6L303.1260640057143,413.25336Z" style="opacity: 0;"/><path data-target="point-1-14" d="M296.50152668000004,401.42232L303.1260640057143,413.25336L400.29178868214274,561.6L443.3161337828577,561.6L322.17032202,401.42231999999996Z" style="opacity: 0;"/><path data-target="point-1-15" d="M313.35576958499996,387.87839999999994L322.17032202,401.42231999999996L443.3161337828577,561.6L453.8539005292857,561.6L338.9789414435714,387.87839999999994Z" style="opacity: 0;"/><path data-target="point-1-16" d="M331.83384078142853,375.04584L338.9789414435714,387.87839999999994L453.8539005292857,561.6L481.0077880857143,561.6L398.67354858182523,425.710892654943L357.86691996714285,375.04584Z" style="opacity: 0;"/><path data-target="point-1-17" d="M348.9512156,359.96688L357.86691996714285,375.04584L398.67354858182523,425.710892654943L371.9574124392857,359.96688Z" style="opacity: 0;"/><path data-target="point-1-18" d="M371.15342813571425,353.27448L371.9574124392857,359.96688L398.67354858182523,425.710892654943L481.0077880857143,561.6L487.525909034286,561.6L390.4648172071428,353.27448Z" style="opacity: 0;"/><path data-target="point-1-19" d="M388.4243739785714,344.9628L390.4648172071428,353.27448L487.525909034286,561.6L496.092672255,561.6L449.76407241006194,415.55583375177844L409.20459275,344.9628Z" style="opacity: 0;"/><path data-target="point-1-20" d="M265.23838686928525,0L406.015124195,336.06143999999995L426.3495313478571,336.06143999999995L424.08307295142856,328.90103999999997L285.2750876057138,-5.684341886080802e-14Z" style="opacity: 0;"/><path data-target="point-1-21" d="M285.2750876057138,-5.684341886080802e-14L424.08307295142856,328.90103999999997L443.19999999999993,328.90103999999997L443.3510972264285,327.46896L416.07474968317854,156.8108445403031L390.7156391495383,39.2544868586445L380.9149854350001,0Z" style="opacity: 0;"/><path data-target="point-1-22" d="M416.07474968317854,156.8108445403031L443.3510972264285,327.46896L461.07846366285713,327.46896L461.1657603714285,322.8264Z" style="opacity: 0;"/><path data-target="point-1-23" d="M390.7156391495383,39.2544868586445L416.07474968317854,156.8108445403031L461.1657603714285,322.8264L478.9672527428571,322.8264L479.12917405714285,317.65968Z" style="opacity: 0;"/><path data-target="point-1-24" d="M380.9149854350001,0L390.7156391495383,39.2544868586445L479.12917405714285,317.65968L496.74527825714284,317.65968L497.19408189999996,312.88608L410.2508624200001,0Z" style="opacity: 0;"/><path data-target="point-1-25" d="M410.2508624200001,0L497.19408189999996,312.88608L514.75104962,312.88608L515.0064863599999,307.06416L416.2085928800004,0Z" style="opacity: 0;"/><path data-target="point-1-26" d="M416.2085928800004,0L515.0064863599999,307.06416L532.5983316964285,307.06415999999996L533.0346685714286,301.49496L446.9488887881305,43.97339654569106L426.5659471562725,0Z" style="opacity: 0;"/><path data-target="point-1-27" d="M446.9488887881305,43.97339654569106L533.0346685714286,301.49496L550.353058068266,301.49496L551.1055106564011,296.96621749999997L534.2821362333265,232.00019989511236L483.42224933641836,115.96834337384522Z" style="opacity: 0;"/><path data-target="point-1-28" d="M534.2821362333265,232.00019989511236L551.1055106564011,296.96621749999997L569.2803490291699,296.96621749999997L567.9261401772687,286.46701199999995Z" style="opacity: 0;"/><path data-target="point-1-29" d="M483.42224933641836,115.96834337384522L534.2821362333265,232.00019989511236L567.9261401772687,286.46701199999995L587.0055458896768,286.46701199999995L586.0617741908638,275.550631Z" style="opacity: 0;"/><path data-target="point-1-30" d="M426.5659471562725,0L446.9488887881305,43.97339654569106L483.42224933641836,115.96834337384522L586.0617741908638,275.550631L604.6958886721054,275.550631L604.2378561323384,264.20041449999997L427.30569874706805,0Z" style="opacity: 0;"/><path data-target="point-1-31" d="M427.30569874706805,0L604.2378561323384,264.20041449999997L622.3470913695194,264.20041449999997L622.4595244344688,252.3990455L446.4592615119633,0Z" style="opacity: 0;"/><path data-target="point-1-32" d="M446.4592615119633,0L622.4595244344688,252.3990455L639.9542730671451,252.3990455L640.7327209795727,240.128647L466.38285461319913,-2.842170943040401e-14Z" style="opacity: 0;"/><path data-target="point-1-33" d="M466.38285461319913,-2.842170943040401e-14L640.7327209795727,240.128647L657.5121523022019,240.128647L659.0638748450025,227.37068649999998L487.1721814391451,0Z" style="opacity: 0;"/><path data-target="point-1-34" d="M487.1721814391451,0L659.0638748450025,227.37068649999998L675.0150633552653,227.37068649999998L677.4599375576208,214.1054135L508.9203975360126,0Z" style="opacity: 0;"/><path data-target="point-1-35" d="M508.9203975360126,0L677.4599375576208,214.1054135L692.4563794774587,214.1054135L695.9290349981652,200.3129855L531.7471465559674,0Z" style="opacity: 0;"/><path data-target="point-1-36" d="M531.7471465559674,0L695.9290349981652,200.3129855L709.8291153320231,200.3129855L714.4798617800024,185.9720615L555.7635210669888,0Z" style="opacity: 0;"/><path data-target="point-1-37" d="M555.7635210669888,0L714.4798617800024,185.9720615L727.1252161554687,185.9720615L733.1222130542187,171.06111349999998L581.1147397722526,0Z" style="opacity: 0;"/><path data-target="point-1-38" d="M581.1147397722526,0L733.1222130542187,171.06111349999998L744.3361880212715,171.06111349999998L751.8669785828262,155.5573035L607.9342414680086,0Z" style="opacity: 0;"/><path data-target="point-1-39" d="M607.9342414680086,0L751.8669785828262,155.5573035L761.452213468012,155.5573035L770.7260081526249,139.43695L636.3894003393433,0Z" style="opacity: 0;"/><path data-target="point-1-40" d="M636.3894003393433,0L770.7260081526249,139.43695L778.4629046662013,139.43695L789.7125844057493,122.6757165L666.6517606271947,1.4210854715202004e-14Z" style="opacity: 0;"/><path data-target="point-1-41" d="M666.6517606271947,1.4210854715202004e-14L789.7125844057493,122.6757165L795.3565779112681,122.6757165L808.8414194499113,105.2479585L698.9091867719529,-1.4210854715202004e-14Z" style="opacity: 0;"/><path data-target="point-1-42" d="M698.9091867719529,-1.4210854715202004e-14L808.8414194499113,105.2479585L812.1203022768236,105.2479585L828.1286704855509,87.126905L733.3704842119466,0Z" style="opacity: 0;"/><path data-target="point-1-43" d="M733.3704842119466,0L828.1286704855509,87.126905L828.7399866629977,87.126905L846.4002416938808,69.4768834358609L846.3925875986343,67.22590062138741L770.2643496076944,0Z" style="opacity: 0;"/><path data-target="point-1-44" d="M770.2643496076944,0L846.3925875986343,67.22590062138741L864.2616103607364,51.35112367995262L864.4622824703398,46.32834026793442L809.835621268875,0Z" style="opacity: 0;"/><path data-target="point-1-45" d="M809.835621268875,0L864.4622824703398,46.32834026793442L887.1300507001472,28.324108999999996L852.3551875182685,-3.552713678800501e-15Z" style="opacity: 0;"/><path data-target="point-1-46" d="M852.3551875182685,-3.552713678800501e-15L887.1300507001472,28.324108999999996L936,28.324108999999996L936,0Z" style="opacity: 0;"/></g><g class="series"><path data-target="point-0-0" d="M77.40023116857148,561.6L66.79463930714286,509.26824L0,509.26824L0,561.6Z" style="opacity: 0;"/><path data-target="point-0-1" d="M66.79463930714286,509.26824L77.40023116857148,561.6L83.29175575785708,561.6L84.883160675,505.17792L66.98692086785714,505.17792Z" style="opacity: 0;"/><path data-target="point-0-2" d="M117.35135076000003,561.6L102.24690815999999,504.22319999999996L85.197323225,504.22319999999996L84.883160675,505.17792L83.29175575785708,561.6Z" style="opacity: 0;"/><path data-target="point-0-3" d="M102.24690815999999,504.22319999999996L117.35135076000003,561.6L139.54474366857139,561.6L120.38941307714285,500.06736L103.08045092571427,500.06736Z" style="opacity: 0;"/><path data-target="point-0-4" d="M120.38941307714285,500.06736L139.54474366857139,561.6L163.49403438500005,561.6L138.79736726,495.378L120.81070183,495.378Z" style="opacity: 0;"/><path data-target="point-0-5" d="M138.36851044571426,489.34079999999994L138.79736726,495.378L163.49403438500005,561.6L194.84421450642864,561.6L157.7810514492857,489.34079999999994Z" style="opacity: 0;"/><path data-target="point-0-6" d="M155.56846904571427,481.5252L157.7810514492857,489.34079999999994L194.84421450642864,561.6L200.96075692214276,561.6L175.1130404542857,481.5251999999999Z" style="opacity: 0;"/><path data-target="point-0-7" d="M173.56004296,475.22592L175.1130404542857,481.5251999999999L200.96075692214276,561.6L226.58063364285715,561.6L193.19550932857143,475.22592Z" style="opacity: 0;"/><path data-target="point-0-8" d="M191.53677408714285,468.66455999999994L193.19550932857143,475.22592L226.58063364285715,561.6L253.10621371500022,561.6L211.65119901,468.66455999999994Z" style="opacity: 0;"/><path data-target="point-0-9" d="M209.07666966857144,461.37312L211.65119901,468.66455999999994L253.10621371500022,561.6L275.1566054628572,561.6L229.92564633142857,461.37312Z" style="opacity: 0;"/><path data-target="point-0-10" d="M226.12051500142854,452.65896L229.92564633142857,461.37312L275.1566054628572,561.6L336.2117298049999,561.6L250.97217482,452.65896Z" style="opacity: 0;"/><path data-target="point-0-11" d="M7.155945254902463,36.80858599631421L17.84210837710387,66.03569880917291L18.393901074809065,67.16243049259413L121.95984510433316,267.4453577360839L165.9150551486585,343.9949919349682L181.36391215989966,366.799385838836L240.86777635999997,438.17904L267.478717125,438.17904L260.86130785714283,426.33863999999994L119.06825044897633,200.1160982661738Z" style="opacity: 0;"/><path data-target="point-0-12" d="M119.06825044897633,200.1160982661738L260.86130785714283,426.33863999999994L286.08542580999995,426.33863999999994L277.59670090857145,413.25336Z" style="opacity: 0;"/><path data-target="point-0-13" d="M0,19.725953505978612L7.155945254902463,36.80858599631421L119.06825044897633,200.1160982661738L277.59670090857145,413.25336L303.1260640057143,413.25336L296.50152668000004,401.42232L95.89355158605028,99.9545261140982L24.890139999999718,0L0,0Z" style="opacity: 0;"/><path data-target="point-0-14" d="M95.89355158605028,99.9545261140982L296.50152668000004,401.42232L322.17032202,401.42231999999996L313.35576958499996,387.87839999999994Z" style="opacity: 0;"/><path data-target="point-0-15" d="M24.890139999999718,0L95.89355158605028,99.9545261140982L313.35576958499996,387.87839999999994L338.9789414435714,387.87839999999994L331.83384078142853,375.04584L112.2487259058783,90.22045299815096L37.88693414142929,0Z" style="opacity: 0;"/><path data-target="point-0-16" d="M112.2487259058783,90.22045299815096L331.83384078142853,375.04584L357.86691996714285,375.04584L348.9512156,359.96688Z" style="opacity: 0;"/><path data-target="point-0-17" d="M37.88693414142929,0L112.2487259058783,90.22045299815096L348.9512156,359.96688L371.9574124392857,359.96688L371.15342813571425,353.27448L311.83065826364236,179.07936108457872L239.99425170285704,0Z" style="opacity: 0;"/><path data-target="point-0-18" d="M311.83065826364236,179.07936108457872L371.15342813571425,353.27448L390.4648172071428,353.27448L388.4243739785714,344.9628Z" style="opacity: 0;"/><path data-target="point-0-19" d="M239.99425170285704,0L311.83065826364236,179.07936108457872L388.4243739785714,344.9628L409.20459275,344.9628L406.015124195,336.06143999999995L265.23838686928525,0Z" style="opacity: 0;"/><path data-target="point-0-20" d="M406.015124195,336.06143999999995L409.20459275,344.9628L449.76407241006194,415.55583375177844L443.19999999999993,380.7438864104929L426.3495313478571,336.06143999999995Z" style="opacity: 0;"/><path data-target="point-0-21" d="M424.08307295142856,328.90103999999997L426.3495313478571,336.06143999999995L443.19999999999993,380.7438864104929L443.19999999999993,328.90103999999997Z" style="opacity: 0;"/><path data-target="point-0-22" d="M443.19999999999993,328.90103999999997L443.19999999999993,380.7438864104929L449.76407241006194,415.55583375177844L496.092672255,561.6L518.800126845714,561.6L461.07846366285713,327.46896L443.3510972264285,327.46896Z" style="opacity: 0;"/><path data-target="point-0-23" d="M461.07846366285713,327.46896L518.800126845714,561.6L540.8266704,561.6L478.9672527428571,322.8264L461.1657603714285,322.8264Z" style="opacity: 0;"/><path data-target="point-0-24" d="M478.9672527428571,322.8264L540.8266704,561.6L558.9239233942858,561.6L496.74527825714284,317.65968L479.12917405714285,317.65968Z" style="opacity: 0;"/><path data-target="point-0-25" d="M496.74527825714284,317.65968L558.9239233942858,561.6L596.3336566999999,561.6L514.75104962,312.88608L497.19408189999996,312.88608Z" style="opacity: 0;"/><path data-target="point-0-26" d="M514.75104962,312.88608L596.3336566999999,561.6L605.720569660714,561.6L532.5983316964285,307.06415999999996L515.0064863599999,307.06416Z" style="opacity: 0;"/><path data-target="point-0-27" d="M532.5983316964285,307.06415999999996L605.720569660714,561.6L614.4646540503735,561.6L550.353058068266,301.49496L533.0346685714286,301.49496Z" style="opacity: 0;"/><path data-target="point-0-28" d="M550.353058068266,301.49496L614.4646540503735,561.6L715.9110187129133,561.6L569.2803490291699,296.96621749999997L551.1055106564011,296.96621749999997Z" style="opacity: 0;"/><path data-target="point-0-29" d="M567.9261401772687,286.46701199999995L569.2803490291699,296.96621749999997L715.9110187129133,561.6L745.2537651028717,561.6L587.0055458896768,286.46701199999995Z" style="opacity: 0;"/><path data-target="point-0-30" d="M586.0617741908638,275.550631L587.0055458896768,286.46701199999995L745.2537651028717,561.6L775.4891189567328,561.6L604.6958886721054,275.550631Z" style="opacity: 0;"/><path data-target="point-0-31" d="M604.2378561323384,264.20041449999997L604.6958886721054,275.550631L775.4891189567328,561.6L806.677594916885,561.6L622.3470913695194,264.20041449999997Z" style="opacity: 0;"/><path data-target="point-0-32" d="M622.3470913695194,264.20041449999997L806.677594916885,561.6L838.8927868310416,561.6L639.9542730671451,252.3990455L622.4595244344688,252.3990455Z" style="opacity: 0;"/><path data-target="point-0-33" d="M639.9542730671451,252.3990455L838.8927868310416,561.6L872.2170566540293,561.6L657.5121523022019,240.128647L640.7327209795727,240.128647Z" style="opacity: 0;"/><path data-target="point-0-34" d="M657.5121523022019,240.128647L872.2170566540293,561.6L906.7426064603893,561.6L675.0150633552653,227.37068649999998L659.0638748450025,227.37068649999998Z" style="opacity: 0;"/><path data-target="point-0-35" d="M675.0150633552653,227.37068649999998L906.7426064603893,561.6L936,561.6L936,552.4982917809537L692.4563794774587,214.1054135L677.4599375576208,214.1054135Z" style="opacity: 0;"/><path data-target="point-0-36" d="M692.4563794774587,214.1054135L936,552.4982917809537L936,503.0416073542293L709.8291153320231,200.3129855L695.9290349981652,200.3129855Z" style="opacity: 0;"/><path data-target="point-0-37" d="M709.8291153320231,200.3129855L936,503.0416073542293L936,455.2956346038803L727.1252161554687,185.9720615L714.4798617800024,185.9720615Z" style="opacity: 0;"/><path data-target="point-0-38" d="M727.1252161554687,185.9720615L936,455.2956346038803L936,409.13374387729635L744.3361880212715,171.06111349999998L733.1222130542187,171.06111349999998Z" style="opacity: 0;"/><path data-target="point-0-39" d="M744.3361880212715,171.06111349999998L936,409.13374387729635L936,364.415294833389L761.452213468012,155.5573035L751.8669785828262,155.5573035Z" style="opacity: 0;"/><path data-target="point-0-40" d="M761.452213468012,155.5573035L936,364.415294833389L936,321.0287582412413L778.4629046662013,139.43695L770.7260081526249,139.43695Z" style="opacity: 0;"/><path data-target="point-0-41" d="M778.4629046662013,139.43695L936,321.0287582412413L936,278.84983550706534L795.3565779112681,122.6757165L789.7125844057493,122.6757165Z" style="opacity: 0;"/><path data-target="point-0-42" d="M795.3565779112681,122.6757165L936,278.84983550706534L936,237.76074601477563L812.1203022768236,105.2479585L808.8414194499113,105.2479585Z" style="opacity: 0;"/><path data-target="point-0-43" d="M812.1203022768236,105.2479585L936,237.76074601477563L936,197.6562683492481L828.7399866629977,87.126905L828.1286704855509,87.126905Z" style="opacity: 0;"/><path data-target="point-0-44" d="M828.7399866629977,87.126905L936,197.6562683492481L936,158.420198385473L846.4002416938808,69.4768834358609Z" style="opacity: 0;"/><path data-target="point-0-45" d="M846.3925875986343,67.22590062138741L846.4002416938808,69.4768834358609L936,158.420198385473L936,119.95311232271888L864.2616103607364,51.35112367995262Z" style="opacity: 0;"/><path data-target="point-0-46" d="M864.2616103607364,51.35112367995262L936,119.95311232271888L936,28.324108999999996L887.1300507001472,28.324108999999996L864.4622824703398,46.32834026793442Z" style="opacity: 0;"/><path data-target="point-1-0" d="M0,509.26824L66.79463930714286,509.26824L66.98692086785714,505.17792L0,241.2921918441117Z" style="opacity: 0;"/><path data-target="point-1-1" d="M0,241.2921918441117L66.98692086785714,505.17792L84.883160675,505.17792L85.197323225,504.22319999999996L46.872712269928634,219.82934675890004L28.45299295924464,109.96921081638038L17.84210837710387,66.03569880917291L7.155945254902463,36.80858599631421L0,19.725953505978612Z" style="opacity: 0;"/><path data-target="point-1-2" d="M46.872712269928634,219.82934675890004L85.197323225,504.22319999999996L102.24690815999999,504.22319999999996L103.08045092571427,500.06736Z" style="opacity: 0;"/><path data-target="point-1-3" d="M28.45299295924464,109.96921081638038L46.872712269928634,219.82934675890004L103.08045092571427,500.06736L120.38941307714285,500.06736L120.81070183,495.378L74.54068886776518,277.187546891908L55.604576052356094,203.3509797839368Z" style="opacity: 0;"/><path data-target="point-1-4" d="M74.54068886776518,277.187546891908L120.81070183,495.378L138.79736726,495.378L138.36851044571426,489.34079999999994Z" style="opacity: 0;"/><path data-target="point-1-5" d="M55.604576052356094,203.3509797839368L74.54068886776518,277.187546891908L138.36851044571426,489.34079999999994L157.7810514492857,489.34079999999994L155.56846904571427,481.5252Z" style="opacity: 0;"/><path data-target="point-1-6" d="M17.84210837710387,66.03569880917291L28.45299295924464,109.96921081638038L55.604576052356094,203.3509797839368L155.56846904571427,481.5252L175.1130404542857,481.5251999999999L173.56004296,475.22592L18.393901074809065,67.16243049259413Z" style="opacity: 0;"/><path data-target="point-1-7" d="M18.393901074809065,67.16243049259413L173.56004296,475.22592L193.19550932857143,475.22592L191.53677408714285,468.66455999999994L121.95984510433316,267.4453577360839Z" style="opacity: 0;"/><path data-target="point-1-8" d="M121.95984510433316,267.4453577360839L191.53677408714285,468.66455999999994L211.65119901,468.66455999999994L209.07666966857144,461.37312L165.9150551486585,343.9949919349682Z" style="opacity: 0;"/><path data-target="point-1-9" d="M165.9150551486585,343.9949919349682L209.07666966857144,461.37312L229.92564633142857,461.37312L226.12051500142854,452.65896L181.36391215989966,366.799385838836Z" style="opacity: 0;"/><path data-target="point-1-10" d="M181.36391215989966,366.799385838836L226.12051500142854,452.65896L250.97217482,452.65896L240.86777635999997,438.17904Z" style="opacity: 0;"/><path data-target="point-1-11" d="M240.86777635999997,438.17904L250.97217482,452.65896L336.2117298049999,561.6L353.2177152750001,561.6L267.478717125,438.17904Z" style="opacity: 0;"/><path data-target="point-1-12" d="M260.86130785714283,426.33863999999994L267.478717125,438.17904L353.2177152750001,561.6L383.0170979199996,561.6L286.08542580999995,426.33863999999994Z" style="opacity: 0;"/><path data-target="point-1-13" d="M277.59670090857145,413.25336L286.08542580999995,426.33863999999994L383.0170979199996,561.6L400.29178868214274,561.6L303.1260640057143,413.25336Z" style="opacity: 0;"/><path data-target="point-1-14" d="M296.50152668000004,401.42232L303.1260640057143,413.25336L400.29178868214274,561.6L443.3161337828577,561.6L322.17032202,401.42231999999996Z" style="opacity: 0;"/><path data-target="point-1-15" d="M313.35576958499996,387.87839999999994L322.17032202,401.42231999999996L443.3161337828577,561.6L453.8539005292857,561.6L338.9789414435714,387.87839999999994Z" style="opacity: 0;"/><path data-target="point-1-16" d="M331.83384078142853,375.04584L338.9789414435714,387.87839999999994L453.8539005292857,561.6L481.0077880857143,561.6L398.67354858182523,425.710892654943L357.86691996714285,375.04584Z" style="opacity: 0;"/><path data-target="point-1-17" d="M348.9512156,359.96688L357.86691996714285,375.04584L398.67354858182523,425.710892654943L371.9574124392857,359.96688Z" style="opacity: 0;"/><path data-target="point-1-18" d="M371.15342813571425,353.27448L371.9574124392857,359.96688L398.67354858182523,425.710892654943L481.0077880857143,561.6L487.525909034286,561.6L390.4648172071428,353.27448Z" style="opacity: 0;"/><path data-target="point-1-19" d="M388.4243739785714,344.9628L390.4648172071428,353.27448L487.525909034286,561.6L496.092672255,561.6L449.76407241006194,415.55583375177844L409.20459275,344.9628Z" style="opacity: 0;"/><path data-target="point-1-20" d="M265.23838686928525,0L406.015124195,336.06143999999995L426.3495313478571,336.06143999999995L424.08307295142856,328.90103999999997L285.2750876057138,-5.684341886080802e-14Z" style="opacity: 0;"/><path data-target="point-1-21" d="M285.2750876057138,-5.684341886080802e-14L424.08307295142856,328.90103999999997L443.19999999999993,328.90103999999997L443.3510972264285,327.46896L416.07474968317854,156.8108445403031L390.7156391495383,39.2544868586445L380.9149854350001,0Z" style="opacity: 0;"/><path data-target="point-1-22" d="M416.07474968317854,156.8108445403031L443.3510972264285,327.46896L461.07846366285713,327.46896L461.1657603714285,322.8264Z" style="opacity: 0;"/><path data-target="point-1-23" d="M390.7156391495383,39.2544868586445L416.07474968317854,156.8108445403031L461.1657603714285,322.8264L478.9672527428571,322.8264L479.12917405714285,317.65968Z" style="opacity: 0;"/><path data-target="point-1-24" d="M380.9149854350001,0L390.7156391495383,39.2544868586445L479.12917405714285,317.65968L496.74527825714284,317.65968L497.19408189999996,312.88608L410.2508624200001,0Z" style="opacity: 0;"/><path data-target="point-1-25" d="M410.2508624200001,0L497.19408189999996,312.88608L514.75104962,312.88608L515.0064863599999,307.06416L416.2085928800004,0Z" style="opacity: 0;"/><path data-target="point-1-26" d="M416.2085928800004,0L515.0064863599999,307.06416L532.5983316964285,307.06415999999996L533.0346685714286,301.49496L446.9488887881305,43.97339654569106L426.5659471562725,0Z" style="opacity: 0;"/><path data-target="point-1-27" d="M446.9488887881305,43.97339654569106L533.0346685714286,301.49496L550.353058068266,301.49496L551.1055106564011,296.96621749999997L534.2821362333265,232.00019989511236L483.42224933641836,115.96834337384522Z" style="opacity: 0;"/><path data-target="point-1-28" d="M534.2821362333265,232.00019989511236L551.1055106564011,296.96621749999997L569.2803490291699,296.96621749999997L567.9261401772687,286.46701199999995Z" style="opacity: 0;"/><path data-target="point-1-29" d="M483.42224933641836,115.96834337384522L534.2821362333265,232.00019989511236L567.9261401772687,286.46701199999995L587.0055458896768,286.46701199999995L586.0617741908638,275.550631Z" style="opacity: 0;"/><path data-target="point-1-30" d="M426.5659471562725,0L446.9488887881305,43.97339654569106L483.42224933641836,115.96834337384522L586.0617741908638,275.550631L604.6958886721054,275.550631L604.2378561323384,264.20041449999997L427.30569874706805,0Z" style="opacity: 0;"/><path data-target="point-1-31" d="M427.30569874706805,0L604.2378561323384,264.20041449999997L622.3470913695194,264.20041449999997L622.4595244344688,252.3990455L446.4592615119633,0Z" style="opacity: 0;"/><path data-target="point-1-32" d="M446.4592615119633,0L622.4595244344688,252.3990455L639.9542730671451,252.3990455L640.7327209795727,240.128647L466.38285461319913,-2.842170943040401e-14Z" style="opacity: 0;"/><path data-target="point-1-33" d="M466.38285461319913,-2.842170943040401e-14L640.7327209795727,240.128647L657.5121523022019,240.128647L659.0638748450025,227.37068649999998L487.1721814391451,0Z" style="opacity: 0;"/><path data-target="point-1-34" d="M487.1721814391451,0L659.0638748450025,227.37068649999998L675.0150633552653,227.37068649999998L677.4599375576208,214.1054135L508.9203975360126,0Z" style="opacity: 0;"/><path data-target="point-1-35" d="M508.9203975360126,0L677.4599375576208,214.1054135L692.4563794774587,214.1054135L695.9290349981652,200.3129855L531.7471465559674,0Z" style="opacity: 0;"/><path data-target="point-1-36" d="M531.7471465559674,0L695.9290349981652,200.3129855L709.8291153320231,200.3129855L714.4798617800024,185.9720615L555.7635210669888,0Z" style="opacity: 0;"/><path data-target="point-1-37" d="M555.7635210669888,0L714.4798617800024,185.9720615L727.1252161554687,185.9720615L733.1222130542187,171.06111349999998L581.1147397722526,0Z" style="opacity: 0;"/><path data-target="point-1-38" d="M581.1147397722526,0L733.1222130542187,171.06111349999998L744.3361880212715,171.06111349999998L751.8669785828262,155.5573035L607.9342414680086,0Z" style="opacity: 0;"/><path data-target="point-1-39" d="M607.9342414680086,0L751.8669785828262,155.5573035L761.452213468012,155.5573035L770.7260081526249,139.43695L636.3894003393433,0Z" style="opacity: 0;"/><path data-target="point-1-40" d="M636.3894003393433,0L770.7260081526249,139.43695L778.4629046662013,139.43695L789.7125844057493,122.6757165L666.6517606271947,1.4210854715202004e-14Z" style="opacity: 0;"/><path data-target="point-1-41" d="M666.6517606271947,1.4210854715202004e-14L789.7125844057493,122.6757165L795.3565779112681,122.6757165L808.8414194499113,105.2479585L698.9091867719529,-1.4210854715202004e-14Z" style="opacity: 0;"/><path data-target="point-1-42" d="M698.9091867719529,-1.4210854715202004e-14L808.8414194499113,105.2479585L812.1203022768236,105.2479585L828.1286704855509,87.126905L733.3704842119466,0Z" style="opacity: 0;"/><path data-target="point-1-43" d="M733.3704842119466,0L828.1286704855509,87.126905L828.7399866629977,87.126905L846.4002416938808,69.4768834358609L846.3925875986343,67.22590062138741L770.2643496076944,0Z" style="opacity: 0;"/><path data-target="point-1-44" d="M770.2643496076944,0L846.3925875986343,67.22590062138741L864.2616103607364,51.35112367995262L864.4622824703398,46.32834026793442L809.835621268875,0Z" style="opacity: 0;"/><path data-target="point-1-45" d="M809.835621268875,0L864.4622824703398,46.32834026793442L887.1300507001472,28.324108999999996L852.3551875182685,-3.552713678800501e-15Z" style="opacity: 0;"/><path data-target="point-1-46" d="M852.3551875182685,-3.552713678800501e-15L887.1300507001472,28.324108999999996L936,28.324108999999996L936,0Z" style="opacity: 0;"/></g></g><g class="axes"><g class="y axis" fill="none" font-size="10" font-family="sans-serif" text-anchor="end" style="font-family: &quot;Source Sans Pro&quot;;"><path class="domain" stroke="#eeeeee" d="M0.5,562.1V0.5" stroke-dasharray="0" style="visibility: hidden;"/><g class="tick" opacity="1" transform="translate(0,562.1)" style="visibility: visible;"><line stroke="#eeeeee" x2="936" stroke-dasharray="0"/><text fill="rgb(0, 0, 0)" x="3" dy="-0.33em" opacity="1" text-anchor="start" font-size="18">$0</text></g><g class="tick" opacity="1" transform="translate(0, 524.6599731445312)" style="visibility: visible;"><line stroke="#eeeeee" x2="936" stroke-dasharray="0"/><text fill="rgb(0, 0, 0)" x="3" dy="-0.33em" opacity="1" text-anchor="start" font-size="18">$2000</text></g><g class="tick" opacity="1" transform="translate(0, 487.2200012207031)" style="visibility: visible;"><line stroke="#eeeeee" x2="936" stroke-dasharray="0"/><text fill="rgb(0, 0, 0)" x="3" dy="-0.33em" opacity="1" text-anchor="start" font-size="18">$4000</text></g><g class="tick" opacity="1" transform="translate(0, 449.7799987792969)" style="visibility: visible;"><line stroke="#eeeeee" x2="936" stroke-dasharray="0"/><text fill="rgb(0, 0, 0)" x="3" dy="-0.33em" opacity="1" text-anchor="start" font-size="18">$6000</text></g><g class="tick" opacity="1" transform="translate(0, 412.3399963378906)" style="visibility: visible;"><line stroke="#eeeeee" x2="936" stroke-dasharray="0"/><text fill="rgb(0, 0, 0)" x="3" dy="-0.33em" opacity="1" text-anchor="start" font-size="18">$8000</text></g><g class="tick" opacity="1" transform="translate(0, 374.8999938964844)" style="visibility: visible;"><line stroke="#eeeeee" x2="936" stroke-dasharray="0"/><text fill="rgb(0, 0, 0)" x="3" dy="-0.33em" opacity="1" text-anchor="start" font-size="18">$10,000</text></g><g class="tick" opacity="1" transform="translate(0, 337.4599914550781)" style="visibility: visible;"><line stroke="#eeeeee" x2="936" stroke-dasharray="0"/><text fill="rgb(0, 0, 0)" x="3" dy="-0.33em" opacity="1" text-anchor="start" font-size="18">$12,000</text></g><g class="tick" opacity="1" transform="translate(0, 300.0199890136719)" style="visibility: visible;"><line stroke="#eeeeee" x2="936" stroke-dasharray="0"/><text fill="rgb(0, 0, 0)" x="3" dy="-0.33em" opacity="1" text-anchor="start" font-size="18">$14,000</text></g><g class="tick" opacity="1" transform="translate(0, 262.5799865722656)" style="visibility: visible;"><line stroke="#eeeeee" x2="936" stroke-dasharray="0"/><text fill="rgb(0, 0, 0)" x="3" dy="-0.33em" opacity="1" text-anchor="start" font-size="18">$16,000</text></g><g class="tick" opacity="1" transform="translate(0, 225.13999938964844)" style="visibility: visible;"><line stroke="#eeeeee" x2="936" stroke-dasharray="0"/><text fill="rgb(0, 0, 0)" x="3" dy="-0.33em" opacity="1" text-anchor="start" font-size="18">$18,000</text></g><g class="tick" opacity="1" transform="translate(0, 187.6999969482422)" style="visibility: visible;"><line stroke="#eeeeee" x2="936" stroke-dasharray="0"/><text fill="rgb(0, 0, 0)" x="3" dy="-0.33em" opacity="1" text-anchor="start" font-size="18">$20,000</text></g><g class="tick" opacity="1" transform="translate(0, 150.25999450683594)" style="visibility: visible;"><line stroke="#eeeeee" x2="936" stroke-dasharray="0"/><text fill="rgb(0, 0, 0)" x="3" dy="-0.33em" opacity="1" text-anchor="start" font-size="18">$22,000</text></g><g class="tick" opacity="1" transform="translate(0, 112.81999969482422)" style="visibility: visible;"><line stroke="#eeeeee" x2="936" stroke-dasharray="0"/><text fill="rgb(0, 0, 0)" x="3" dy="-0.33em" opacity="1" text-anchor="start" font-size="18">$24,000</text></g><g class="tick" opacity="1" transform="translate(0, 75.37999725341797)" style="visibility: visible;"><line stroke="#eeeeee" x2="936" stroke-dasharray="0"/><text fill="rgb(0, 0, 0)" x="3" dy="-0.33em" opacity="1" text-anchor="start" font-size="18">$26,000</text></g><g class="tick" opacity="1" transform="translate(0, 37.939998626708984)" style="visibility: visible;"><line stroke="#eeeeee" x2="936" stroke-dasharray="0"/><text fill="rgb(0, 0, 0)" x="3" dy="-0.33em" opacity="1" text-anchor="start" font-size="18">$28,000</text></g><g class="tick" opacity="1" transform="translate(0, 0.5)" style="visibility: visible;"><line stroke="#eeeeee" x2="936" stroke-dasharray="0"/><text fill="rgb(0, 0, 0)" x="3" dy="-0.33em" opacity="1" text-anchor="start" font-size="18">$30,000</text></g></g><g class="x axis" transform="translate(0,561.6)" fill="none" font-size="10" font-family="sans-serif" text-anchor="middle" style="font-family: &quot;Source Sans Pro&quot;;"><path class="domain" stroke="#eeeeee" d="M40.5,0.5H936.5" stroke-dasharray="0"/><g class="tick" opacity="1" transform="translate(40.5,0)"><line stroke="#eeeeee" y2="6" stroke-dasharray="0"/><text fill="rgb(0, 0, 0)" y="9" dy="-9" opacity="1" dominant-baseline="central" font-size="18" transform="translate(0, 15) rotate(-45)" dx="5" style="text-anchor: end; visibility: visible;">1990</text></g><g class="tick" opacity="1" transform="translate(130.10000000000002,0)"><line stroke="#eeeeee" y2="6" stroke-dasharray="0"/><text fill="rgb(0, 0, 0)" y="9" dy="-9" opacity="1" dominant-baseline="central" font-size="18" transform="translate(0, 15) rotate(-45)" dx="5" style="text-anchor: end; visibility: visible;">1995</text></g><g class="tick" opacity="1" transform="translate(219.70000000000002,0)"><line stroke="#eeeeee" y2="6" stroke-dasharray="0"/><text fill="rgb(0, 0, 0)" y="9" dy="-9" opacity="1" dominant-baseline="central" font-size="18" transform="translate(0, 15) rotate(-45)" dx="5" style="text-anchor: end; visibility: visible;">2000</text></g><g class="tick" opacity="1" transform="translate(309.3,0)"><line stroke="#eeeeee" y2="6" stroke-dasharray="0"/><text fill="rgb(0, 0, 0)" y="9" dy="-9" opacity="1" dominant-baseline="central" font-size="18" transform="translate(0, 15) rotate(-45)" dx="5" style="text-anchor: end; visibility: visible;">2005</text></g><g class="tick" opacity="1" transform="translate(398.90000000000003,0)"><line stroke="#eeeeee" y2="6" stroke-dasharray="0"/><text fill="rgb(0, 0, 0)" y="9" dy="-9" opacity="1" dominant-baseline="central" font-size="18" transform="translate(0, 15) rotate(-45)" dx="5" style="text-anchor: end; visibility: visible;">2010</text></g><g class="tick" opacity="1" transform="translate(488.5,0)"><line stroke="#eeeeee" y2="6" stroke-dasharray="0"/><text fill="rgb(0, 0, 0)" y="9" dy="-9" opacity="1" dominant-baseline="central" font-size="18" transform="translate(0, 15) rotate(-45)" dx="5" style="text-anchor: end; visibility: visible;">2015</text></g><g class="tick" opacity="1" transform="translate(578.1,0)"><line stroke="#eeeeee" y2="6" stroke-dasharray="0"/><text fill="rgb(0, 0, 0)" y="9" dy="-9" opacity="1" dominant-baseline="central" font-size="18" transform="translate(0, 15) rotate(-45)" dx="5" style="text-anchor: end; visibility: visible;">2020</text></g><g class="tick" opacity="1" transform="translate(667.6999999999999,0)"><line stroke="#eeeeee" y2="6" stroke-dasharray="0"/><text fill="rgb(0, 0, 0)" y="9" dy="-9" opacity="1" dominant-baseline="central" font-size="18" transform="translate(0, 15) rotate(-45)" dx="5" style="text-anchor: end; visibility: visible;">2025</text></g><g class="tick" opacity="1" transform="translate(757.3000000000001,0)"><line stroke="#eeeeee" y2="6" stroke-dasharray="0"/><text fill="rgb(0, 0, 0)" y="9" dy="-9" opacity="1" dominant-baseline="central" font-size="18" transform="translate(0, 15) rotate(-45)" dx="5" style="text-anchor: end; visibility: visible;">2030</text></g><g class="tick" opacity="1" transform="translate(846.9,0)"><line stroke="#eeeeee" y2="6" stroke-dasharray="0"/><text fill="rgb(0, 0, 0)" y="9" dy="-9" opacity="1" dominant-baseline="central" font-size="18" transform="translate(0, 15) rotate(-45)" dx="5" style="text-anchor: end; visibility: visible;">2035</text></g><g class="tick" opacity="1" transform="translate(936.5,0)"><line stroke="#eeeeee" y2="6" stroke-dasharray="0"/><text fill="rgb(0, 0, 0)" y="9" dy="-9" opacity="1" dominant-baseline="central" font-size="18" transform="translate(0, 15) rotate(-45)" dx="5" style="text-anchor: end; visibility: visible;">2040</text></g></g></g></g></g></g><g class="annotations below"><g class="axis-highlights" transform="translate(15, 20)" style="opacity: 1;"><g class="line x" transform="translate(559.68, 0)"><line width="0" stroke-dasharray="2 2" stroke="#333333" stroke-width="2" y2="561.6"/><text transform="translate(0, 6) rotate(-90)" fill="#333333" text-anchor="end" dy="-0.5em" font-size="12">Current</text></g></g></g><g id="areas"><g class="series" pointer-events="none"><path class="area" transform="translate(15,20)" fill-opacity="0" fill="#11A579" clip-path="url(#clip-0-0)" d="M57.92,511.50528C63.89333333333334,509.68944,69.86666666666667,507.8736,75.84,507.8736C81.81333333333333,507.8736,87.78666666666666,508.37904000000003,93.75999999999999,508.37904000000003C99.73333333333333,508.37904000000003,105.70666666666666,505.37760000000003,111.68,503.6616C117.65333333333335,501.9456,123.62666666666668,500.12664000000007,129.60000000000002,498.08304000000004C135.57333333333335,496.03944000000007,141.54666666666665,494.04576000000003,147.51999999999998,491.40000000000003C153.4933333333333,488.75424000000004,159.46666666666667,484.70448,165.44,482.20848C171.41333333333333,479.71248,177.38666666666668,478.54248,183.36,476.42400000000004C189.33333333333334,474.30552000000006,195.30666666666667,471.98424000000006,201.28,469.49760000000003C207.25333333333333,467.01096,213.2266666666667,464.18424000000005,219.20000000000002,461.50416C225.17333333333335,458.82408000000004,231.14666666666668,457.50744000000003,237.12,453.41712C243.09333333333333,449.3268,249.06666666666666,441.57672,255.04,436.96224C261.0133333333333,432.34776,266.9866666666667,429.82367999999997,272.96000000000004,425.73024C278.93333333333334,421.6368,284.9066666666667,416.61048,290.88,412.40160000000003C296.85333333333335,408.19272,302.82666666666665,404.72016,308.8,400.47696C314.77333333333337,396.23376,320.74666666666667,391.50072,326.72,386.9424C332.6933333333334,382.38408000000004,338.6666666666667,378.0504,344.64000000000004,373.12704C350.61333333333334,368.20368,356.5866666666667,361.04016,362.56,357.40224C368.53333333333336,353.76432,374.50666666666666,353.69568000000004,380.48,351.29952000000003C386.4533333333334,348.90336,392.4266666666667,345.47448,398.40000000000003,343.02528C404.37333333333333,340.57608,410.3466666666667,338.80080000000004,416.32,336.60432000000003C422.29333333333335,334.40784,428.26666666666665,329.8464,434.24,329.8464C440.21333333333337,329.8464,446.18666666666667,329.8464,452.16,329.8464C458.1333333333333,329.8464,464.1066666666667,326.93856000000005,470.08,325.42848000000004C476.05333333333334,323.9184,482.02666666666664,322.32096,488,320.78592000000003C493.97333333333336,319.25088000000005,499.94666666666666,317.95920000000007,505.92,316.21824000000004C511.8933333333334,314.47728,517.8666666666667,312.17784,523.84,310.34015999999997C529.8133333333334,308.50248,535.7866666666666,306.786324,541.76,305.19216C547.7333333333333,303.597996,553.7066666666666,303.1662192,559.68,300.775176C565.6533333333333,298.3841328,571.6266666666667,294.2186208,577.6,290.8459008C583.5733333333334,287.4731808,589.5466666666666,284.039964,595.52,280.538856C601.4933333333333,277.037748,607.4666666666667,273.4736784,613.44,269.8392528C619.4133333333334,266.2048272,625.3866666666667,262.5050688,631.36,258.73230240000004C637.3333333333334,254.959536,643.3066666666667,251.1190032,649.2800000000001,247.20265439999997C655.2533333333333,243.2863056,661.2266666666667,239.2996632,667.1999999999999,235.23420960000004C673.1733333333333,231.16875600000003,679.1466666666666,227.03016960000002,685.12,222.8099328C691.0933333333334,218.58969600000003,697.0666666666666,214.29367440000001,703.04,209.91278880000004C709.0133333333333,205.53190320000004,714.9866666666667,201.07230000000004,720.96,196.52461920000002C726.9333333333334,191.97693840000002,732.9066666666666,187.3474824,738.88,182.62670400000002C744.8533333333334,177.9059256,750.8266666666667,173.10043920000004,756.8000000000001,168.19994880000002C762.7733333333333,163.29945840000005,768.7466666666667,158.31082799999996,774.7199999999999,153.2237616C780.6933333333333,148.13669519999996,786.6666666666666,142.95824399999998,792.64,137.67755039999997C798.6133333333333,132.3968568,804.5866666666666,127.02134639999998,810.56,121.53960000000001C816.5333333333333,116.05785359999999,822.5066666666667,110.47748399999998,828.48,104.78707199999997C834.4533333333334,99.09666,840.4266666666666,93.30416160000004,846.4,87.39712800000007C852.3733333333333,81.49009440000005,858.3466666666667,75.47679360000002,864.32,69.34487039999999C870.2933333333334,63.21294719999999,876.2666666666667,56.909267999999976,882.24,50.605588799999964L882.24,50.605588799999964C876.2666666666667,56.909267999999976,870.2933333333334,63.21294719999999,864.32,69.34487039999999C858.3466666666667,75.47679360000002,852.3733333333333,81.49009440000005,846.4,87.39712800000007C840.4266666666666,93.30416160000004,834.4533333333334,99.09666,828.48,104.78707199999997C822.5066666666667,110.47748399999998,816.5333333333333,116.05785359999999,810.56,121.53960000000001C804.5866666666666,127.02134639999998,798.6133333333333,132.3968568,792.64,137.67755039999997C786.6666666666666,142.95824399999998,780.6933333333333,148.13669519999996,774.7199999999999,153.2237616C768.7466666666667,158.31082799999996,762.7733333333333,163.29945840000005,756.8000000000001,168.19994880000002C750.8266666666667,173.10043920000004,744.8533333333334,177.9059256,738.88,182.62670400000002C732.9066666666666,187.3474824,726.9333333333334,191.97693840000002,720.96,196.52461920000002C714.9866666666667,201.07230000000004,709.0133333333333,205.53190320000004,703.04,209.91278880000004C697.0666666666666,214.29367440000001,691.0933333333334,218.58969600000003,685.12,222.8099328C679.1466666666666,227.03016960000002,673.1733333333333,231.16875600000003,667.1999999999999,235.23420960000004C661.2266666666667,239.2996632,655.2533333333333,243.2863056,649.2800000000001,247.20265439999997C643.3066666666667,251.1190032,637.3333333333334,254.959536,631.36,258.73230240000004C625.3866666666667,262.5050688,619.4133333333334,266.2048272,613.44,269.8392528C607.4666666666667,273.4736784,601.4933333333333,277.037748,595.52,280.538856C589.5466666666666,284.039964,583.5733333333334,287.4731808,577.6,290.8459008C571.6266666666667,294.2186208,565.6533333333333,298.3841328,559.68,300.775176C553.7066666666666,303.1662192,547.7333333333333,303.597996,541.76,305.19216C535.7866666666666,306.786324,529.8133333333334,308.50248,523.84,310.34015999999997C517.8666666666667,312.17784,511.8933333333334,314.47728,505.92,316.21824000000004C499.94666666666666,317.95920000000007,493.97333333333336,319.25088000000005,488,320.78592000000003C482.02666666666664,322.32096,476.05333333333334,323.9184,470.08,325.42848000000004C464.1066666666667,326.93856000000005,458.1333333333333,329.8464,452.16,329.8464C446.18666666666667,329.8464,440.21333333333337,329.8464,434.24,329.8464C428.26666666666665,329.8464,422.29333333333335,334.40784,416.32,336.60432000000003C410.3466666666667,338.80080000000004,404.37333333333333,340.57608,398.40000000000003,343.02528C392.4266666666667,345.47448,386.4533333333334,348.90336,380.48,351.29952000000003C374.50666666666666,353.69568000000004,368.53333333333336,353.76432,362.56,357.40224C356.5866666666667,361.04016,350.61333333333334,368.20368,344.64000000000004,373.12704C338.6666666666667,378.0504,332.6933333333334,382.38408000000004,326.72,386.9424C320.74666666666667,391.50072,314.77333333333337,396.23376,308.8,400.47696C302.82666666666665,404.72016,296.85333333333335,408.19272,290.88,412.40160000000003C284.9066666666667,416.61048,278.93333333333334,421.6368,272.96000000000004,425.73024C266.9866666666667,429.82367999999997,261.0133333333333,432.34776,255.04,436.96224C249.06666666666666,441.57672,243.09333333333333,449.3268,237.12,453.41712C231.14666666666668,457.50744000000003,225.17333333333335,458.82408000000004,219.20000000000002,461.50416C213.2266666666667,464.18424000000005,207.25333333333333,467.01096,201.28,469.49760000000003C195.30666666666667,471.98424000000006,189.33333333333334,474.30552000000006,183.36,476.42400000000004C177.38666666666668,478.54248,171.41333333333333,479.71248,165.44,482.20848C159.46666666666667,484.70448,153.4933333333333,488.75424000000004,147.51999999999998,491.40000000000003C141.54666666666665,494.04576000000003,135.57333333333335,496.03944000000007,129.60000000000002,498.08304000000004C123.62666666666668,500.12664000000007,117.65333333333335,501.9456,111.68,503.6616C105.70666666666666,505.37760000000003,99.73333333333333,508.37904000000003,93.75999999999999,508.37904000000003C87.78666666666666,508.37904000000003,81.81333333333333,507.8736,75.84,507.8736C69.86666666666667,507.8736,63.89333333333334,509.68944,57.92,511.50528Z"/></g><g class="series" pointer-events="none"><path class="area" transform="translate(15,20)" fill-opacity="0" fill="#802392" clip-path="url(#clip-0-1)" d="M57.92,507.0312C63.89333333333334,505.33704000000006,69.86666666666667,503.64288000000005,75.84,502.48224000000005C81.81333333333333,501.32160000000005,87.78666666666666,501.06888000000004,93.75999999999999,500.06736C99.73333333333333,499.06584,105.70666666666666,497.70552,111.68,496.47312C117.65333333333335,495.24072,123.62666666666668,494.20488,129.60000000000002,492.67296C135.57333333333335,491.14104,141.54666666666665,489.25344,147.51999999999998,487.2816C153.4933333333333,485.30976000000004,159.46666666666667,483.05088,165.44,480.84192C171.41333333333333,478.63296,177.38666666666668,476.19624000000005,183.36,474.02784C189.33333333333334,471.85944,195.30666666666667,469.96248,201.28,467.83152C207.25333333333333,465.70056,213.2266666666667,463.8972,219.20000000000002,461.24208C225.17333333333335,458.58696,231.14666666666668,455.54184,237.12,451.9008C243.09333333333333,448.25976,249.06666666666666,443.5548,255.04,439.39584C261.0133333333333,435.23688000000004,266.9866666666667,431.16216000000003,272.96000000000004,426.94704C278.93333333333334,422.73192000000006,284.9066666666667,418.20168000000007,290.88,414.10512000000006C296.85333333333335,410.00856000000005,302.82666666666665,406.5828,308.8,402.36768C314.77333333333337,398.15256,320.74666666666667,393.04824,326.72,388.81440000000003C332.6933333333334,384.58056000000005,338.6666666666667,381.34512000000007,344.64000000000004,376.96464000000003C350.61333333333334,372.58416000000005,356.5866666666667,366.15072,362.56,362.53152C368.53333333333336,358.91232,374.50666666666666,357.85464,380.48,355.24944000000005C386.4533333333334,352.6442400000001,392.4266666666667,350.1888,398.40000000000003,346.90032C404.37333333333333,343.61184000000003,410.3466666666667,338.676,416.32,335.51856C422.29333333333335,332.36111999999997,428.26666666666665,329.69352000000003,434.24,327.95568000000003C440.21333333333337,326.21784,446.18666666666667,326.38008,452.16,325.09152C458.1333333333333,323.80296,464.1066666666667,321.98400000000004,470.08,320.22432000000003C476.05333333333334,318.46464000000003,482.02666666666664,316.31184,488,314.53344000000004C493.97333333333336,312.75504000000006,499.94666666666666,311.3448000000001,505.92,309.55392000000006C511.8933333333334,307.76304000000005,517.8666666666667,305.74752,523.84,303.78816C529.8133333333334,301.8288,535.7866666666666,299.5695768,541.76,297.79776C547.7333333333333,296.0259432,553.7066666666666,295.77553200000006,559.68,293.15725920000006C565.6533333333333,290.53898640000006,571.6266666666667,285.853932,577.6,282.0881232C583.5733333333334,278.3223144,589.5466666666666,274.4834976,595.52,270.56240640000004C601.4933333333333,266.6413152,607.4666666666667,262.64434559999995,613.44,258.56157599999995C619.4133333333334,254.47880639999994,625.3866666666667,250.3169448,631.36,246.0657888C637.3333333333334,241.8146328,643.3066666666667,237.48107760000002,649.2800000000001,233.05464C655.2533333333333,228.62820240000005,661.2266666666667,224.1161208,667.1999999999999,219.50716320000004C673.1733333333333,214.8982056,679.1466666666666,210.19989120000005,685.12,205.40089440000003C691.0933333333334,200.60189760000003,697.0666666666666,195.71008079999993,703.04,190.71318239999994C709.0133333333333,185.71628399999992,714.9866666666667,180.6224472,720.96,175.41950400000002C726.9333333333334,170.21656080000005,732.9066666666666,164.9129976,738.88,159.49552320000004C744.8533333333334,154.07804880000003,750.8266666666667,148.5555552000001,756.8000000000001,142.91465760000006C762.7733333333333,137.2737600000001,768.7466666666667,131.52360000000002,774.7199999999999,125.65013760000005C780.6933333333333,119.77667520000001,786.6666666666666,113.78952000000007,792.64,107.67388320000003C798.6133333333333,101.55824640000004,804.5866666666666,95.32417439999996,810.56,88.95631679999997C816.5333333333333,82.58845919999995,822.5066666666667,76.09717440000001,828.48,69.46673759999999C834.4533333333334,62.836300800000004,840.4266666666666,56.077507199999914,846.4,49.17369599999995C852.3733333333333,42.26988479999994,858.3466666666667,35.232381600000075,864.32,28.04387040000006C870.2933333333334,20.855359200000088,876.2666666666667,13.448994000000038,882.24,6.042628799999989L882.24,6.042628799999989C876.2666666666667,13.448994000000038,870.2933333333334,20.855359200000088,864.32,28.04387040000006C858.3466666666667,35.232381600000075,852.3733333333333,42.26988479999994,846.4,49.17369599999995C840.4266666666666,56.077507199999914,834.4533333333334,62.836300800000004,828.48,69.46673759999999C822.5066666666667,76.09717440000001,816.5333333333333,82.58845919999995,810.56,88.95631679999997C804.5866666666666,95.32417439999996,798.6133333333333,101.55824640000004,792.64,107.67388320000003C786.6666666666666,113.78952000000007,780.6933333333333,119.77667520000001,774.7199999999999,125.65013760000005C768.7466666666667,131.52360000000002,762.7733333333333,137.2737600000001,756.8000000000001,142.91465760000006C750.8266666666667,148.5555552000001,744.8533333333334,154.07804880000003,738.88,159.49552320000004C732.9066666666666,164.9129976,726.9333333333334,170.21656080000005,720.96,175.41950400000002C714.9866666666667,180.6224472,709.0133333333333,185.71628399999992,703.04,190.71318239999994C697.0666666666666,195.71008079999993,691.0933333333334,200.60189760000003,685.12,205.40089440000003C679.1466666666666,210.19989120000005,673.1733333333333,214.8982056,667.1999999999999,219.50716320000004C661.2266666666667,224.1161208,655.2533333333333,228.62820240000005,649.2800000000001,233.05464C643.3066666666667,237.48107760000002,637.3333333333334,241.8146328,631.36,246.0657888C625.3866666666667,250.3169448,619.4133333333334,254.47880639999994,613.44,258.56157599999995C607.4666666666667,262.64434559999995,601.4933333333333,266.6413152,595.52,270.56240640000004C589.5466666666666,274.4834976,583.5733333333334,278.3223144,577.6,282.0881232C571.6266666666667,285.853932,565.6533333333333,290.53898640000006,559.68,293.15725920000006C553.7066666666666,295.77553200000006,547.7333333333333,296.0259432,541.76,297.79776C535.7866666666666,299.5695768,529.8133333333334,301.8288,523.84,303.78816C517.8666666666667,305.74752,511.8933333333334,307.76304000000005,505.92,309.55392000000006C499.94666666666666,311.3448000000001,493.97333333333336,312.75504000000006,488,314.53344000000004C482.02666666666664,316.31184,476.05333333333334,318.46464000000003,470.08,320.22432000000003C464.1066666666667,321.98400000000004,458.1333333333333,323.80296,452.16,325.09152C446.18666666666667,326.38008,440.21333333333337,326.21784,434.24,327.95568000000003C428.26666666666665,329.69352000000003,422.29333333333335,332.36111999999997,416.32,335.51856C410.3466666666667,338.676,404.37333333333333,343.61184000000003,398.40000000000003,346.90032C392.4266666666667,350.1888,386.4533333333334,352.6442400000001,380.48,355.24944000000005C374.50666666666666,357.85464,368.53333333333336,358.91232,362.56,362.53152C356.5866666666667,366.15072,350.61333333333334,372.58416000000005,344.64000000000004,376.96464000000003C338.6666666666667,381.34512000000007,332.6933333333334,384.58056000000005,326.72,388.81440000000003C320.74666666666667,393.04824,314.77333333333337,398.15256,308.8,402.36768C302.82666666666665,406.5828,296.85333333333335,410.00856000000005,290.88,414.10512000000006C284.9066666666667,418.20168000000007,278.93333333333334,422.73192000000006,272.96000000000004,426.94704C266.9866666666667,431.16216000000003,261.0133333333333,435.23688000000004,255.04,439.39584C249.06666666666666,443.5548,243.09333333333333,448.25976,237.12,451.9008C231.14666666666668,455.54184,225.17333333333335,458.58696,219.20000000000002,461.24208C213.2266666666667,463.8972,207.25333333333333,465.70056,201.28,467.83152C195.30666666666667,469.96248,189.33333333333334,471.85944,183.36,474.02784C177.38666666666668,476.19624000000005,171.41333333333333,478.63296,165.44,480.84192C159.46666666666667,483.05088,153.4933333333333,485.30976000000004,147.51999999999998,487.2816C141.54666666666665,489.25344,135.57333333333335,491.14104,129.60000000000002,492.67296C123.62666666666668,494.20488,117.65333333333335,495.24072,111.68,496.47312C105.70666666666666,497.70552,99.73333333333333,499.06584,93.75999999999999,500.06736C87.78666666666666,501.06888000000004,81.81333333333333,501.32160000000005,75.84,502.48224000000005C69.86666666666667,503.64288000000005,63.89333333333334,505.33704000000006,57.92,507.0312Z"/></g></g><g id="lines"><g class="series"><clipPath id="clip-0-0"><rect width="936" y="-20" height="599.6"/></clipPath><path class="line" opacity="1" fill="none" stroke="#11A579" stroke-width="2" transform="translate(15,20)" clip-path="url(#clip-0-0)" d="M57.92,511.50528C63.89333333333334,509.68944,69.86666666666667,507.8736,75.84,507.8736C81.81333333333333,507.8736,87.78666666666666,508.37904000000003,93.75999999999999,508.37904000000003C99.73333333333333,508.37904000000003,105.70666666666666,505.37760000000003,111.68,503.6616C117.65333333333335,501.9456,123.62666666666668,500.12664000000007,129.60000000000002,498.08304000000004C135.57333333333335,496.03944000000007,141.54666666666665,494.04576000000003,147.51999999999998,491.40000000000003C153.4933333333333,488.75424000000004,159.46666666666667,484.70448,165.44,482.20848C171.41333333333333,479.71248,177.38666666666668,478.54248,183.36,476.42400000000004C189.33333333333334,474.30552000000006,195.30666666666667,471.98424000000006,201.28,469.49760000000003C207.25333333333333,467.01096,213.2266666666667,464.18424000000005,219.20000000000002,461.50416C225.17333333333335,458.82408000000004,231.14666666666668,457.50744000000003,237.12,453.41712C243.09333333333333,449.3268,249.06666666666666,441.57672,255.04,436.96224C261.0133333333333,432.34776,266.9866666666667,429.82367999999997,272.96000000000004,425.73024C278.93333333333334,421.6368,284.9066666666667,416.61048,290.88,412.40160000000003C296.85333333333335,408.19272,302.82666666666665,404.72016,308.8,400.47696C314.77333333333337,396.23376,320.74666666666667,391.50072,326.72,386.9424C332.6933333333334,382.38408000000004,338.6666666666667,378.0504,344.64000000000004,373.12704C350.61333333333334,368.20368,356.5866666666667,361.04016,362.56,357.40224C368.53333333333336,353.76432,374.50666666666666,353.69568000000004,380.48,351.29952000000003C386.4533333333334,348.90336,392.4266666666667,345.47448,398.40000000000003,343.02528C404.37333333333333,340.57608,410.3466666666667,338.80080000000004,416.32,336.60432000000003C422.29333333333335,334.40784,428.26666666666665,329.8464,434.24,329.8464C440.21333333333337,329.8464,446.18666666666667,329.8464,452.16,329.8464C458.1333333333333,329.8464,464.1066666666667,326.93856000000005,470.08,325.42848000000004C476.05333333333334,323.9184,482.02666666666664,322.32096,488,320.78592000000003C493.97333333333336,319.25088000000005,499.94666666666666,317.95920000000007,505.92,316.21824000000004C511.8933333333334,314.47728,517.8666666666667,312.17784,523.84,310.34015999999997C529.8133333333334,308.50248,535.7866666666666,306.786324,541.76,305.19216C547.7333333333333,303.597996,553.7066666666666,303.1662192,559.68,300.775176C565.6533333333333,298.3841328,571.6266666666667,294.2186208,577.6,290.8459008C583.5733333333334,287.4731808,589.5466666666666,284.039964,595.52,280.538856C601.4933333333333,277.037748,607.4666666666667,273.4736784,613.44,269.8392528C619.4133333333334,266.2048272,625.3866666666667,262.5050688,631.36,258.73230240000004C637.3333333333334,254.959536,643.3066666666667,251.1190032,649.2800000000001,247.20265439999997C655.2533333333333,243.2863056,661.2266666666667,239.2996632,667.1999999999999,235.23420960000004C673.1733333333333,231.16875600000003,679.1466666666666,227.03016960000002,685.12,222.8099328C691.0933333333334,218.58969600000003,697.0666666666666,214.29367440000001,703.04,209.91278880000004C709.0133333333333,205.53190320000004,714.9866666666667,201.07230000000004,720.96,196.52461920000002C726.9333333333334,191.97693840000002,732.9066666666666,187.3474824,738.88,182.62670400000002C744.8533333333334,177.9059256,750.8266666666667,173.10043920000004,756.8000000000001,168.19994880000002C762.7733333333333,163.29945840000005,768.7466666666667,158.31082799999996,774.7199999999999,153.2237616C780.6933333333333,148.13669519999996,786.6666666666666,142.95824399999998,792.64,137.67755039999997C798.6133333333333,132.3968568,804.5866666666666,127.02134639999998,810.56,121.53960000000001C816.5333333333333,116.05785359999999,822.5066666666667,110.47748399999998,828.48,104.78707199999997C834.4533333333334,99.09666,840.4266666666666,93.30416160000004,846.4,87.39712800000007C852.3733333333333,81.49009440000005,858.3466666666667,75.47679360000002,864.32,69.34487039999999C870.2933333333334,63.21294719999999,876.2666666666667,56.909267999999976,882.24,50.605588799999964"/><text class="label" font-size="11" alignment-baseline="middle" opacity="1" x="5" fill="#11A579" transform="translate(897.239990234375, 70.6055908203125)"/></g><g class="series"><clipPath id="clip-0-1"><rect width="936" y="-20" height="599.6"/></clipPath><path class="line" opacity="1" fill="none" stroke="#802392" stroke-width="2" transform="translate(15,20)" clip-path="url(#clip-0-1)" d="M57.92,507.0312C63.89333333333334,505.33704000000006,69.86666666666667,503.64288000000005,75.84,502.48224000000005C81.81333333333333,501.32160000000005,87.78666666666666,501.06888000000004,93.75999999999999,500.06736C99.73333333333333,499.06584,105.70666666666666,497.70552,111.68,496.47312C117.65333333333335,495.24072,123.62666666666668,494.20488,129.60000000000002,492.67296C135.57333333333335,491.14104,141.54666666666665,489.25344,147.51999999999998,487.2816C153.4933333333333,485.30976000000004,159.46666666666667,483.05088,165.44,480.84192C171.41333333333333,478.63296,177.38666666666668,476.19624000000005,183.36,474.02784C189.33333333333334,471.85944,195.30666666666667,469.96248,201.28,467.83152C207.25333333333333,465.70056,213.2266666666667,463.8972,219.20000000000002,461.24208C225.17333333333335,458.58696,231.14666666666668,455.54184,237.12,451.9008C243.09333333333333,448.25976,249.06666666666666,443.5548,255.04,439.39584C261.0133333333333,435.23688000000004,266.9866666666667,431.16216000000003,272.96000000000004,426.94704C278.93333333333334,422.73192000000006,284.9066666666667,418.20168000000007,290.88,414.10512000000006C296.85333333333335,410.00856000000005,302.82666666666665,406.5828,308.8,402.36768C314.77333333333337,398.15256,320.74666666666667,393.04824,326.72,388.81440000000003C332.6933333333334,384.58056000000005,338.6666666666667,381.34512000000007,344.64000000000004,376.96464000000003C350.61333333333334,372.58416000000005,356.5866666666667,366.15072,362.56,362.53152C368.53333333333336,358.91232,374.50666666666666,357.85464,380.48,355.24944000000005C386.4533333333334,352.6442400000001,392.4266666666667,350.1888,398.40000000000003,346.90032C404.37333333333333,343.61184000000003,410.3466666666667,338.676,416.32,335.51856C422.29333333333335,332.36111999999997,428.26666666666665,329.69352000000003,434.24,327.95568000000003C440.21333333333337,326.21784,446.18666666666667,326.38008,452.16,325.09152C458.1333333333333,323.80296,464.1066666666667,321.98400000000004,470.08,320.22432000000003C476.05333333333334,318.46464000000003,482.02666666666664,316.31184,488,314.53344000000004C493.97333333333336,312.75504000000006,499.94666666666666,311.3448000000001,505.92,309.55392000000006C511.8933333333334,307.76304000000005,517.8666666666667,305.74752,523.84,303.78816C529.8133333333334,301.8288,535.7866666666666,299.5695768,541.76,297.79776C547.7333333333333,296.0259432,553.7066666666666,295.77553200000006,559.68,293.15725920000006C565.6533333333333,290.53898640000006,571.6266666666667,285.853932,577.6,282.0881232C583.5733333333334,278.3223144,589.5466666666666,274.4834976,595.52,270.56240640000004C601.4933333333333,266.6413152,607.4666666666667,262.64434559999995,613.44,258.56157599999995C619.4133333333334,254.47880639999994,625.3866666666667,250.3169448,631.36,246.0657888C637.3333333333334,241.8146328,643.3066666666667,237.48107760000002,649.2800000000001,233.05464C655.2533333333333,228.62820240000005,661.2266666666667,224.1161208,667.1999999999999,219.50716320000004C673.1733333333333,214.8982056,679.1466666666666,210.19989120000005,685.12,205.40089440000003C691.0933333333334,200.60189760000003,697.0666666666666,195.71008079999993,703.04,190.71318239999994C709.0133333333333,185.71628399999992,714.9866666666667,180.6224472,720.96,175.41950400000002C726.9333333333334,170.21656080000005,732.9066666666666,164.9129976,738.88,159.49552320000004C744.8533333333334,154.07804880000003,750.8266666666667,148.5555552000001,756.8000000000001,142.91465760000006C762.7733333333333,137.2737600000001,768.7466666666667,131.52360000000002,774.7199999999999,125.65013760000005C780.6933333333333,119.77667520000001,786.6666666666666,113.78952000000007,792.64,107.67388320000003C798.6133333333333,101.55824640000004,804.5866666666666,95.32417439999996,810.56,88.95631679999997C816.5333333333333,82.58845919999995,822.5066666666667,76.09717440000001,828.48,69.46673759999999C834.4533333333334,62.836300800000004,840.4266666666666,56.077507199999914,846.4,49.17369599999995C852.3733333333333,42.26988479999994,858.3466666666667,35.232381600000075,864.32,28.04387040000006C870.2933333333334,20.855359200000088,876.2666666666667,13.448994000000038,882.24,6.042628799999989"/><text class="label" font-size="11" alignment-baseline="middle" opacity="1" x="5" fill="#802392" transform="translate(897.239990234375, 26.04262924194336)"/></g></g><g id="data-points"><g class="series" transform="translate(15,20)"><path class="data-point" fill="#11A579" data-type="point" transform="translate(0, 0)" d="M54.92,511.50528A3,3,0,1,1,60.92,511.50528A3,3,0,1,1,54.92,511.50528Z" id="point-0-0" opacity="1"/><path class="data-point" fill="#11A579" data-type="point" transform="translate(0, 0)" d="M72.84,507.8736A3,3,0,1,1,78.84,507.8736A3,3,0,1,1,72.84,507.8736Z" id="point-0-1" opacity="1"/><path class="data-point" fill="#11A579" data-type="point" transform="translate(0, 0)" d="M90.75999999999999,508.37904000000003A3,3,0,1,1,96.75999999999999,508.37904000000003A3,3,0,1,1,90.75999999999999,508.37904000000003Z" id="point-0-2" opacity="1"/><path class="data-point" fill="#11A579" data-type="point" transform="translate(0, 0)" d="M108.68,503.6616A3,3,0,1,1,114.68,503.6616A3,3,0,1,1,108.68,503.6616Z" id="point-0-3" opacity="1"/><path class="data-point" fill="#11A579" data-type="point" transform="translate(0, 0)" d="M126.60000000000002,498.08304000000004A3,3,0,1,1,132.60000000000002,498.08304000000004A3,3,0,1,1,126.60000000000002,498.08304000000004Z" id="point-0-4" opacity="1"/><path class="data-point" fill="#11A579" data-type="point" transform="translate(0, 0)" d="M144.51999999999998,491.40000000000003A3,3,0,1,1,150.51999999999998,491.40000000000003A3,3,0,1,1,144.51999999999998,491.40000000000003Z" id="point-0-5" opacity="1"/><path class="data-point" fill="#11A579" data-type="point" transform="translate(0, 0)" d="M162.44,482.20848A3,3,0,1,1,168.44,482.20848A3,3,0,1,1,162.44,482.20848Z" id="point-0-6" opacity="1"/><path class="data-point" fill="#11A579" data-type="point" transform="translate(0, 0)" d="M180.36,476.42400000000004A3,3,0,1,1,186.36,476.42400000000004A3,3,0,1,1,180.36,476.42400000000004Z" id="point-0-7" opacity="1"/><path class="data-point" fill="#11A579" data-type="point" transform="translate(0, 0)" d="M198.28,469.49760000000003A3,3,0,1,1,204.28,469.49760000000003A3,3,0,1,1,198.28,469.49760000000003Z" id="point-0-8" opacity="1"/><path class="data-point" fill="#11A579" data-type="point" transform="translate(0, 0)" d="M216.20000000000002,461.50416A3,3,0,1,1,222.20000000000002,461.50416A3,3,0,1,1,216.20000000000002,461.50416Z" id="point-0-9" opacity="1"/><path class="data-point" fill="#11A579" data-type="point" transform="translate(0, 0)" d="M234.12,453.41712A3,3,0,1,1,240.12,453.41712A3,3,0,1,1,234.12,453.41712Z" id="point-0-10" opacity="1"/><path class="data-point" fill="#11A579" data-type="point" transform="translate(0, 0)" d="M252.04,436.96224A3,3,0,1,1,258.03999999999996,436.96224A3,3,0,1,1,252.04,436.96224Z" id="point-0-11" opacity="1"/><path class="data-point" fill="#11A579" data-type="point" transform="translate(0, 0)" d="M269.96000000000004,425.73024A3,3,0,1,1,275.96000000000004,425.73024A3,3,0,1,1,269.96000000000004,425.73024Z" id="point-0-12" opacity="1"/><path class="data-point" fill="#11A579" data-type="point" transform="translate(0, 0)" d="M287.88,412.40160000000003A3,3,0,1,1,293.88,412.40160000000003A3,3,0,1,1,287.88,412.40160000000003Z" id="point-0-13" opacity="1"/><path class="data-point" fill="#11A579" data-type="point" transform="translate(0, 0)" d="M305.8,400.47696A3,3,0,1,1,311.8,400.47696A3,3,0,1,1,305.8,400.47696Z" id="point-0-14" opacity="1"/><path class="data-point" fill="#11A579" data-type="point" transform="translate(0, 0)" d="M323.72,386.9424A3,3,0,1,1,329.72,386.9424A3,3,0,1,1,323.72,386.9424Z" id="point-0-15" opacity="1"/><path class="data-point" fill="#11A579" data-type="point" transform="translate(0, 0)" d="M341.64000000000004,373.12704A3,3,0,1,1,347.64000000000004,373.12704A3,3,0,1,1,341.64000000000004,373.12704Z" id="point-0-16" opacity="1"/><path class="data-point" fill="#11A579" data-type="point" transform="translate(0, 0)" d="M359.56,357.40224A3,3,0,1,1,365.56,357.40224A3,3,0,1,1,359.56,357.40224Z" id="point-0-17" opacity="1"/><path class="data-point" fill="#11A579" data-type="point" transform="translate(0, 0)" d="M377.48,351.29952000000003A3,3,0,1,1,383.48,351.29952000000003A3,3,0,1,1,377.48,351.29952000000003Z" id="point-0-18" opacity="1"/><path class="data-point" fill="#11A579" data-type="point" transform="translate(0, 0)" d="M395.40000000000003,343.02528A3,3,0,1,1,401.40000000000003,343.02528A3,3,0,1,1,395.40000000000003,343.02528Z" id="point-0-19" opacity="1"/><path class="data-point" fill="#11A579" data-type="point" transform="translate(0, 0)" d="M413.32,336.60432000000003A3,3,0,1,1,419.32,336.60432000000003A3,3,0,1,1,413.32,336.60432000000003Z" id="point-0-20" opacity="1"/><path class="data-point" fill="#11A579" data-type="point" transform="translate(0, 0)" d="M431.24,329.8464A3,3,0,1,1,437.24,329.8464A3,3,0,1,1,431.24,329.8464Z" id="point-0-21" opacity="1"/><path class="data-point" fill="#11A579" data-type="point" transform="translate(0, 0)" d="M449.16,329.8464A3,3,0,1,1,455.16,329.8464A3,3,0,1,1,449.16,329.8464Z" id="point-0-22" opacity="1"/><path class="data-point" fill="#11A579" data-type="point" transform="translate(0, 0)" d="M467.08,325.42848000000004A3,3,0,1,1,473.08,325.42848000000004A3,3,0,1,1,467.08,325.42848000000004Z" id="point-0-23" opacity="1"/><path class="data-point" fill="#11A579" data-type="point" transform="translate(0, 0)" d="M485,320.78592000000003A3,3,0,1,1,491,320.78592000000003A3,3,0,1,1,485,320.78592000000003Z" id="point-0-24" opacity="1"/><path class="data-point" fill="#11A579" data-type="point" transform="translate(0, 0)" d="M502.92,316.21824000000004A3,3,0,1,1,508.92,316.21824000000004A3,3,0,1,1,502.92,316.21824000000004Z" id="point-0-25" opacity="1"/><path class="data-point" fill="#11A579" data-type="point" transform="translate(0, 0)" d="M520.84,310.34015999999997A3,3,0,1,1,526.84,310.34015999999997A3,3,0,1,1,520.84,310.34015999999997Z" id="point-0-26" opacity="1"/><path class="data-point" fill="#11A579" data-type="point" transform="translate(0, 0)" d="M538.76,305.19216A3,3,0,1,1,544.76,305.19216A3,3,0,1,1,538.76,305.19216Z" id="point-0-27" opacity="1"/><path class="data-point" fill="#11A579" data-type="point" transform="translate(0, 0)" d="M556.68,300.775176A3,3,0,1,1,562.68,300.775176A3,3,0,1,1,556.68,300.775176Z" id="point-0-28" opacity="1"/><path class="data-point" fill="#11A579" data-type="point" transform="translate(0, 0)" d="M574.6,290.8459008A3,3,0,1,1,580.6,290.8459008A3,3,0,1,1,574.6,290.8459008Z" id="point-0-29" opacity="1"/><path class="data-point" fill="#11A579" data-type="point" transform="translate(0, 0)" d="M592.52,280.538856A3,3,0,1,1,598.52,280.538856A3,3,0,1,1,592.52,280.538856Z" id="point-0-30" opacity="1"/><path class="data-point" fill="#11A579" data-type="point" transform="translate(0, 0)" d="M610.44,269.8392528A3,3,0,1,1,616.44,269.8392528A3,3,0,1,1,610.44,269.8392528Z" id="point-0-31" opacity="1"/><path class="data-point" fill="#11A579" data-type="point" transform="translate(0, 0)" d="M628.36,258.73230240000004A3,3,0,1,1,634.36,258.73230240000004A3,3,0,1,1,628.36,258.73230240000004Z" id="point-0-32" opacity="1"/><path class="data-point" fill="#11A579" data-type="point" transform="translate(0, 0)" d="M646.2800000000001,247.20265439999997A3,3,0,1,1,652.2800000000001,247.20265439999997A3,3,0,1,1,646.2800000000001,247.20265439999997Z" id="point-0-33" opacity="1"/><path class="data-point" fill="#11A579" data-type="point" transform="translate(0, 0)" d="M664.1999999999999,235.23420960000004A3,3,0,1,1,670.1999999999999,235.23420960000004A3,3,0,1,1,664.1999999999999,235.23420960000004Z" id="point-0-34" opacity="1"/><path class="data-point" fill="#11A579" data-type="point" transform="translate(0, 0)" d="M682.12,222.8099328A3,3,0,1,1,688.12,222.8099328A3,3,0,1,1,682.12,222.8099328Z" id="point-0-35" opacity="1"/><path class="data-point" fill="#11A579" data-type="point" transform="translate(0, 0)" d="M700.04,209.91278880000004A3,3,0,1,1,706.04,209.91278880000004A3,3,0,1,1,700.04,209.91278880000004Z" id="point-0-36" opacity="1"/><path class="data-point" fill="#11A579" data-type="point" transform="translate(0, 0)" d="M717.96,196.52461920000002A3,3,0,1,1,723.96,196.52461920000002A3,3,0,1,1,717.96,196.52461920000002Z" id="point-0-37" opacity="1"/><path class="data-point" fill="#11A579" data-type="point" transform="translate(0, 0)" d="M735.88,182.62670400000002A3,3,0,1,1,741.88,182.62670400000002A3,3,0,1,1,735.88,182.62670400000002Z" id="point-0-38" opacity="1"/><path class="data-point" fill="#11A579" data-type="point" transform="translate(0, 0)" d="M753.8000000000001,168.19994880000002A3,3,0,1,1,759.8000000000001,168.19994880000002A3,3,0,1,1,753.8000000000001,168.19994880000002Z" id="point-0-39" opacity="1"/><path class="data-point" fill="#11A579" data-type="point" transform="translate(0, 0)" d="M771.7199999999999,153.2237616A3,3,0,1,1,777.7199999999999,153.2237616A3,3,0,1,1,771.7199999999999,153.2237616Z" id="point-0-40" opacity="1"/><path class="data-point" fill="#11A579" data-type="point" transform="translate(0, 0)" d="M789.64,137.67755039999997A3,3,0,1,1,795.64,137.67755039999997A3,3,0,1,1,789.64,137.67755039999997Z" id="point-0-41" opacity="1"/><path class="data-point" fill="#11A579" data-type="point" transform="translate(0, 0)" d="M807.56,121.53960000000001A3,3,0,1,1,813.56,121.53960000000001A3,3,0,1,1,807.56,121.53960000000001Z" id="point-0-42" opacity="1"/><path class="data-point" fill="#11A579" data-type="point" transform="translate(0, 0)" d="M825.48,104.78707199999997A3,3,0,1,1,831.48,104.78707199999997A3,3,0,1,1,825.48,104.78707199999997Z" id="point-0-43" opacity="1"/><path class="data-point" fill="#11A579" data-type="point" transform="translate(0, 0)" d="M843.4,87.39712800000007A3,3,0,1,1,849.4,87.39712800000007A3,3,0,1,1,843.4,87.39712800000007Z" id="point-0-44" opacity="1"/><path class="data-point" fill="#11A579" data-type="point" transform="translate(0, 0)" d="M861.32,69.34487039999999A3,3,0,1,1,867.32,69.34487039999999A3,3,0,1,1,861.32,69.34487039999999Z" id="point-0-45" opacity="1"/><path class="data-point" fill="#11A579" data-type="point" transform="translate(0, 0)" d="M879.24,50.605588799999964A3,3,0,1,1,885.24,50.605588799999964A3,3,0,1,1,879.24,50.605588799999964Z" id="point-0-46" opacity="1"/></g><g class="series" transform="translate(15,20)"><path class="data-point" fill="#802392" data-type="point" transform="translate(0, 0)" d="M54.92,507.0312A3,3,0,1,1,60.92,507.0312A3,3,0,1,1,54.92,507.0312Z" id="point-1-0" opacity="1"/><path class="data-point" fill="#802392" data-type="point" transform="translate(0, 0)" d="M72.84,502.48224000000005A3,3,0,1,1,78.84,502.48224000000005A3,3,0,1,1,72.84,502.48224000000005Z" id="point-1-1" opacity="1"/><path class="data-point" fill="#802392" data-type="point" transform="translate(0, 0)" d="M90.75999999999999,500.06736A3,3,0,1,1,96.75999999999999,500.06736A3,3,0,1,1,90.75999999999999,500.06736Z" id="point-1-2" opacity="1"/><path class="data-point" fill="#802392" data-type="point" transform="translate(0, 0)" d="M108.68,496.47312A3,3,0,1,1,114.68,496.47312A3,3,0,1,1,108.68,496.47312Z" id="point-1-3" opacity="1"/><path class="data-point" fill="#802392" data-type="point" transform="translate(0, 0)" d="M126.60000000000002,492.67296A3,3,0,1,1,132.60000000000002,492.67296A3,3,0,1,1,126.60000000000002,492.67296Z" id="point-1-4" opacity="1"/><path class="data-point" fill="#802392" data-type="point" transform="translate(0, 0)" d="M144.51999999999998,487.2816A3,3,0,1,1,150.51999999999998,487.2816A3,3,0,1,1,144.51999999999998,487.2816Z" id="point-1-5" opacity="1"/><path class="data-point" fill="#802392" data-type="point" transform="translate(0, 0)" d="M162.44,480.84192A3,3,0,1,1,168.44,480.84192A3,3,0,1,1,162.44,480.84192Z" id="point-1-6" opacity="1"/><path class="data-point" fill="#802392" data-type="point" transform="translate(0, 0)" d="M180.36,474.02784A3,3,0,1,1,186.36,474.02784A3,3,0,1,1,180.36,474.02784Z" id="point-1-7" opacity="1"/><path class="data-point" fill="#802392" data-type="point" transform="translate(0, 0)" d="M198.28,467.83152A3,3,0,1,1,204.28,467.83152A3,3,0,1,1,198.28,467.83152Z" id="point-1-8" opacity="1"/><path class="data-point" fill="#802392" data-type="point" transform="translate(0, 0)" d="M216.20000000000002,461.24208A3,3,0,1,1,222.20000000000002,461.24208A3,3,0,1,1,216.20000000000002,461.24208Z" id="point-1-9" opacity="1"/><path class="data-point" fill="#802392" data-type="point" transform="translate(0, 0)" d="M234.12,451.9008A3,3,0,1,1,240.12,451.9008A3,3,0,1,1,234.12,451.9008Z" id="point-1-10" opacity="1"/><path class="data-point" fill="#802392" data-type="point" transform="translate(0, 0)" d="M252.04,439.39584A3,3,0,1,1,258.03999999999996,439.39584A3,3,0,1,1,252.04,439.39584Z" id="point-1-11" opacity="1"/><path class="data-point" fill="#802392" data-type="point" transform="translate(0, 0)" d="M269.96000000000004,426.94704A3,3,0,1,1,275.96000000000004,426.94704A3,3,0,1,1,269.96000000000004,426.94704Z" id="point-1-12" opacity="1"/><path class="data-point" fill="#802392" data-type="point" transform="translate(0, 0)" d="M287.88,414.10512000000006A3,3,0,1,1,293.88,414.10512000000006A3,3,0,1,1,287.88,414.10512000000006Z" id="point-1-13" opacity="1"/><path class="data-point" fill="#802392" data-type="point" transform="translate(0, 0)" d="M305.8,402.36768A3,3,0,1,1,311.8,402.36768A3,3,0,1,1,305.8,402.36768Z" id="point-1-14" opacity="1"/><path class="data-point" fill="#802392" data-type="point" transform="translate(0, 0)" d="M323.72,388.81440000000003A3,3,0,1,1,329.72,388.81440000000003A3,3,0,1,1,323.72,388.81440000000003Z" id="point-1-15" opacity="1"/><path class="data-point" fill="#802392" data-type="point" transform="translate(0, 0)" d="M341.64000000000004,376.96464000000003A3,3,0,1,1,347.64000000000004,376.96464000000003A3,3,0,1,1,341.64000000000004,376.96464000000003Z" id="point-1-16" opacity="1"/><path class="data-point" fill="#802392" data-type="point" transform="translate(0, 0)" d="M359.56,362.53152A3,3,0,1,1,365.56,362.53152A3,3,0,1,1,359.56,362.53152Z" id="point-1-17" opacity="1"/><path class="data-point" fill="#802392" data-type="point" transform="translate(0, 0)" d="M377.48,355.24944000000005A3,3,0,1,1,383.48,355.24944000000005A3,3,0,1,1,377.48,355.24944000000005Z" id="point-1-18" opacity="1"/><path class="data-point" fill="#802392" data-type="point" transform="translate(0, 0)" d="M395.40000000000003,346.90032A3,3,0,1,1,401.40000000000003,346.90032A3,3,0,1,1,395.40000000000003,346.90032Z" id="point-1-19" opacity="1"/><path class="data-point" fill="#802392" data-type="point" transform="translate(0, 0)" d="M413.32,335.51856A3,3,0,1,1,419.32,335.51856A3,3,0,1,1,413.32,335.51856Z" id="point-1-20" opacity="1"/><path class="data-point" fill="#802392" data-type="point" transform="translate(0, 0)" d="M431.24,327.95568000000003A3,3,0,1,1,437.24,327.95568000000003A3,3,0,1,1,431.24,327.95568000000003Z" id="point-1-21" opacity="1"/><path class="data-point" fill="#802392" data-type="point" transform="translate(0, 0)" d="M449.16,325.09152A3,3,0,1,1,455.16,325.09152A3,3,0,1,1,449.16,325.09152Z" id="point-1-22" opacity="1"/><path class="data-point" fill="#802392" data-type="point" transform="translate(0, 0)" d="M467.08,320.22432000000003A3,3,0,1,1,473.08,320.22432000000003A3,3,0,1,1,467.08,320.22432000000003Z" id="point-1-23" opacity="1"/><path class="data-point" fill="#802392" data-type="point" transform="translate(0, 0)" d="M485,314.53344000000004A3,3,0,1,1,491,314.53344000000004A3,3,0,1,1,485,314.53344000000004Z" id="point-1-24" opacity="1"/><path class="data-point" fill="#802392" data-type="point" transform="translate(0, 0)" d="M502.92,309.55392000000006A3,3,0,1,1,508.92,309.55392000000006A3,3,0,1,1,502.92,309.55392000000006Z" id="point-1-25" opacity="1"/><path class="data-point" fill="#802392" data-type="point" transform="translate(0, 0)" d="M520.84,303.78816A3,3,0,1,1,526.84,303.78816A3,3,0,1,1,520.84,303.78816Z" id="point-1-26" opacity="1"/><path class="data-point" fill="#802392" data-type="point" transform="translate(0, 0)" d="M538.76,297.79776A3,3,0,1,1,544.76,297.79776A3,3,0,1,1,538.76,297.79776Z" id="point-1-27" opacity="1"/><path class="data-point" fill="#802392" data-type="point" transform="translate(0, 0)" d="M556.68,293.15725920000006A3,3,0,1,1,562.68,293.15725920000006A3,3,0,1,1,556.68,293.15725920000006Z" id="point-1-28" opacity="1"/><path class="data-point" fill="#802392" data-type="point" transform="translate(0, 0)" d="M574.6,282.0881232A3,3,0,1,1,580.6,282.0881232A3,3,0,1,1,574.6,282.0881232Z" id="point-1-29" opacity="1"/><path class="data-point" fill="#802392" data-type="point" transform="translate(0, 0)" d="M592.52,270.56240640000004A3,3,0,1,1,598.52,270.56240640000004A3,3,0,1,1,592.52,270.56240640000004Z" id="point-1-30" opacity="1"/><path class="data-point" fill="#802392" data-type="point" transform="translate(0, 0)" d="M610.44,258.56157599999995A3,3,0,1,1,616.44,258.56157599999995A3,3,0,1,1,610.44,258.56157599999995Z" id="point-1-31" opacity="1"/><path class="data-point" fill="#802392" data-type="point" transform="translate(0, 0)" d="M628.36,246.0657888A3,3,0,1,1,634.36,246.0657888A3,3,0,1,1,628.36,246.0657888Z" id="point-1-32" opacity="1"/><path class="data-point" fill="#802392" data-type="point" transform="translate(0, 0)" d="M646.2800000000001,233.05464A3,3,0,1,1,652.2800000000001,233.05464A3,3,0,1,1,646.2800000000001,233.05464Z" id="point-1-33" opacity="1"/><path class="data-point" fill="#802392" data-type="point" transform="translate(0, 0)" d="M664.1999999999999,219.50716320000004A3,3,0,1,1,670.1999999999999,219.50716320000004A3,3,0,1,1,664.1999999999999,219.50716320000004Z" id="point-1-34" opacity="1"/><path class="data-point" fill="#802392" data-type="point" transform="translate(0, 0)" d="M682.12,205.40089440000003A3,3,0,1,1,688.12,205.40089440000003A3,3,0,1,1,682.12,205.40089440000003Z" id="point-1-35" opacity="1"/><path class="data-point" fill="#802392" data-type="point" transform="translate(0, 0)" d="M700.04,190.71318239999994A3,3,0,1,1,706.04,190.71318239999994A3,3,0,1,1,700.04,190.71318239999994Z" id="point-1-36" opacity="1"/><path class="data-point" fill="#802392" data-type="point" transform="translate(0, 0)" d="M717.96,175.41950400000002A3,3,0,1,1,723.96,175.41950400000002A3,3,0,1,1,717.96,175.41950400000002Z" id="point-1-37" opacity="1"/><path class="data-point" fill="#802392" data-type="point" transform="translate(0, 0)" d="M735.88,159.49552320000004A3,3,0,1,1,741.88,159.49552320000004A3,3,0,1,1,735.88,159.49552320000004Z" id="point-1-38" opacity="1"/><path class="data-point" fill="#802392" data-type="point" transform="translate(0, 0)" d="M753.8000000000001,142.91465760000006A3,3,0,1,1,759.8000000000001,142.91465760000006A3,3,0,1,1,753.8000000000001,142.91465760000006Z" id="point-1-39" opacity="1"/><path class="data-point" fill="#802392" data-type="point" transform="translate(0, 0)" d="M771.7199999999999,125.65013760000005A3,3,0,1,1,777.7199999999999,125.65013760000005A3,3,0,1,1,771.7199999999999,125.65013760000005Z" id="point-1-40" opacity="1"/><path class="data-point" fill="#802392" data-type="point" transform="translate(0, 0)" d="M789.64,107.67388320000003A3,3,0,1,1,795.64,107.67388320000003A3,3,0,1,1,789.64,107.67388320000003Z" id="point-1-41" opacity="1"/><path class="data-point" fill="#802392" data-type="point" transform="translate(0, 0)" d="M807.56,88.95631679999997A3,3,0,1,1,813.56,88.95631679999997A3,3,0,1,1,807.56,88.95631679999997Z" id="point-1-42" opacity="1"/><path class="data-point" fill="#802392" data-type="point" transform="translate(0, 0)" d="M825.48,69.46673759999999A3,3,0,1,1,831.48,69.46673759999999A3,3,0,1,1,825.48,69.46673759999999Z" id="point-1-43" opacity="1"/><path class="data-point" fill="#802392" data-type="point" transform="translate(0, 0)" d="M843.4,49.17369599999995A3,3,0,1,1,849.4,49.17369599999995A3,3,0,1,1,843.4,49.17369599999995Z" id="point-1-44" opacity="1"/><path class="data-point" fill="#802392" data-type="point" transform="translate(0, 0)" d="M861.32,28.04387040000006A3,3,0,1,1,867.32,28.04387040000006A3,3,0,1,1,861.32,28.04387040000006Z" id="point-1-45" opacity="1"/><path class="data-point" fill="#802392" data-type="point" transform="translate(0, 0)" d="M879.24,6.042628799999989A3,3,0,1,1,885.24,6.042628799999989A3,3,0,1,1,879.24,6.042628799999989Z" id="point-1-46" opacity="1"/></g></g><g id="data-labels"/><g class="annotations above"><g class="axis-highlights" transform="translate(15, 20)" style="opacity: 1;"/></g></svg>