<svg xmlns="http://www.w3.org/2000/svg" id="graphic" width="961" height="634.6"><g id="facets"><g class="facet" transform="translate(15,20)" opacity="1"><text class="facet-title" y="0" font-size="16" font-weight="bold" dominant-baseline="middle" x="0" clip-path="url(#facet-clip-0)" fill="black"/><g class="plot"><clipPath class="facet-clip" id="facet-clip-0"><rect width="951" height="581.6" transform="translate(-7.5,-10)"/></clipPath><g class="bg"><rect fill="none" width="936" height="561.6" style="fill: none;"/></g><g class="interaction"><g class="series"><path data-target="point-0-0" d="M0,507.245143L65.6545558427757,507.245143L67.9188537355175,503.64288L0,135.42735411008601Z" style="opacity: 0;"/><path data-target="point-0-1" d="M0,135.42735411008601L67.9188537355175,503.64288L84.07809968442893,503.64288L85.75693764383891,501.236023L52.04782239139864,281.0801797627382L1.922292652456406,26.622711882442957L0,17.77586864299863Z" style="opacity: 0;"/><path data-target="point-0-2" d="M52.04782239139864,281.0801797627382L85.75693764383891,501.236023L101.67450849721463,501.236023L104.18477751635038,497.5374855Z" style="opacity: 0;"/><path data-target="point-0-3" d="M1.922292652456406,26.622711882442957L52.04782239139864,281.0801797627382L104.18477751635038,497.5374855L119.43836277900893,497.5374855L122.34478554755539,493.598263Z" style="opacity: 0;"/><path data-target="point-0-4" d="M0,17.77586864299863L1.922292652456406,26.622711882442957L122.34478554755539,493.598263L136.8552142124752,493.598263L140.2174305242857,489.04128L17.60779532428596,-5.684341886080802e-14L0,0Z" style="opacity: 0;"/><path data-target="point-0-5" d="M17.60779532428596,-5.684341886080802e-14L140.2174305242857,489.04128L154.6018853848863,489.04128L157.89404577983035,484.20349749999997L115.98322361587253,303.48385160936834L28.482325971500046,0Z" style="opacity: 0;"/><path data-target="point-0-6" d="M115.98322361587253,303.48385160936834L157.89404577983035,484.20349749999997L172.68725464610714,484.20349749999997L176.2115575858482,478.1943775Z" style="opacity: 0;"/><path data-target="point-0-7" d="M28.482325971500046,0L115.98322361587253,303.48385160936834L176.2115575858482,478.1943775L190.63412889209675,478.1943775L193.75630109159073,473.2763655L118.28022215302398,174.36727892309887L77.00781106092023,70.03634910286172L47.26183699214009,0Z" style="opacity: 0;"/><path data-target="point-0-8" d="M118.28022215302398,174.36727892309887L193.75630109159073,473.2763655L208.62417761109677,473.2763655L211.76860485999654,467.78070849999995L142.43147563668037,235.23915901164452L122.35531170514403,183.81428925356545Z" style="opacity: 0;"/><path data-target="point-0-9" d="M142.43147563668037,235.23915901164452L211.76860485999654,467.78070849999995L226.4644451866106,467.78070849999995L229.25412547283926,461.1939425L206.27790735243494,381.5043466408Z" style="opacity: 0;"/><path data-target="point-0-10" d="M206.27790735243494,381.5043466408L229.25412547283926,461.1939425L245.47056085352057,461.1939425L246.67575411927749,450.5957485Z" style="opacity: 0;"/><path data-target="point-0-11" d="M122.35531170514403,183.81428925356545L142.43147563668037,235.23915901164452L206.27790735243494,381.5043466408L246.67575411927749,450.5957485L263.4506241547768,450.5957485L264.5113738997022,440.2944Z" style="opacity: 0;"/><path data-target="point-0-12" d="M77.00781106092023,70.03634910286172L118.28022215302398,174.36727892309887L122.35531170514403,183.81428925356545L264.5113738997022,440.2944L281.68345416774997,440.2944L282.139649701375,429.68016Z" style="opacity: 0;"/><path data-target="point-0-13" d="M47.26183699214009,0L77.00781106092023,70.03634910286172L282.139649701375,429.68016L299.57875652674073,429.68016L300.12040966452753,419.25044549999996L47.476020359268034,0Z" style="opacity: 0;"/><path data-target="point-0-14" d="M47.476020359268034,0L300.12040966452753,419.25044549999996L317.72359284779463,419.25044549999996L317.7962562942857,407.65741699999995L54.61699563712426,0Z" style="opacity: 0;"/><path data-target="point-0-15" d="M54.61699563712426,0L317.7962562942857,407.65741699999995L335.2480062550951,407.657417L336.1768269363571,396.7383085L176.06644617650554,151.11642260936648L69.0355413558752,0Z" style="opacity: 0;"/><path data-target="point-0-16" d="M176.06644617650554,151.11642260936648L336.1768269363571,396.7383085L353.31198986819913,396.7383085L353.9190151061964,383.7011655Z" style="opacity: 0;"/><path data-target="point-0-17" d="M69.0355413558752,0L176.06644617650554,151.11642260936648L353.9190151061964,383.7011655L370.07525816753844,383.7011655L372.80504023066345,377.8043655L347.4068884638923,295.82491991299037L212.3160286049161,0Z" style="opacity: 0;"/><path data-target="point-0-18" d="M347.4068884638923,295.82491991299037L372.80504023066345,377.8043655L388.10395527454114,377.8043655L391.4590452492771,368.818766Z" style="opacity: 0;"/><path data-target="point-0-19" d="M212.3160286049161,0L347.4068884638923,295.82491991299037L391.4590452492771,368.818766L405.25039665280354,368.818766L408.0365999320089,362.3764115L377.0923162462825,185.15153845352316L371.2946383853478,159.90826733490425L326.47830596862116,0Z" style="opacity: 0;"/><path data-target="point-0-20" d="M377.0923162462825,185.15153845352316L408.0365999320089,362.3764115L424.48478952280425,362.3764115L425.90593294047045,356.5839085Z" style="opacity: 0;"/><path data-target="point-0-21" d="M371.2946383853478,159.90826733490425L377.0923162462825,185.15153845352316L425.90593294047045,356.5839085L442.71749031443676,356.5839085L444.5434584403935,351.9386745Z" style="opacity: 0;"/><path data-target="point-0-22" d="M326.47830596862116,0L371.2946383853478,159.90826733490425L444.5434584403935,351.9386745L459.98999893049375,351.9386745L462.4846934284759,347.3335545L364.82903474268903,0Z" style="opacity: 0;"/><path data-target="point-0-23" d="M364.82903474268903,0L462.4846934284759,347.3335545L477.69692958492584,347.3335545L480.4449226192336,342.343337L382.9661343330004,0Z" style="opacity: 0;"/><path data-target="point-0-24" d="M382.9661343330004,0L480.4449226192336,342.343337L495.6854478723571,342.34333699999996L498.11476335118203,338.27574849999996L425.1171031872747,0Z" style="opacity: 0;"/><path data-target="point-0-25" d="M425.1171031872747,0L498.11476335118203,338.27574849999996L513.55244630825,338.27574849999996L516.026523642875,333.6706285L440.3419785742726,15.906756567046841L434.4604294141153,0Z" style="opacity: 0;"/><path data-target="point-0-26" d="M440.3419785742726,15.906756567046841L516.026523642875,333.6706285L531.5448582789107,333.6706285L540.18537115415,315.99699561909586L512.1514441648659,207.39235659354534L476.2281592689949,105.03288540132823Z" style="opacity: 0;"/><path data-target="point-0-28" d="M512.1514441648659,207.39235659354534L540.18537115415,315.99699561909586L548.720972972895,324.48886949999996L567.4363177430164,324.48886949999996L569.8599266747977,314.93701649999997Z" style="opacity: 0;"/><path data-target="point-0-29" d="M476.2281592689949,105.03288540132823L512.1514441648659,207.39235659354534L569.8599266747977,314.93701649999997L585.3792490061462,314.93701649999997L587.7545205453633,305.0002265Z" style="opacity: 0;"/><path data-target="point-0-30" d="M434.4604294141153,0L440.3419785742726,15.906756567046841L476.2281592689949,105.03288540132823L587.7545205453633,305.0002265L603.3343920686884,305.0002265L605.6369376871327,294.6629355L434.8219521183861,0Z" style="opacity: 0;"/><path data-target="point-0-31" d="M434.8219521183861,0L605.6369376871327,294.6629355L621.3035267258716,294.6629355L623.5053436044416,283.9089375L452.4419386454368,0Z" style="opacity: 0;"/><path data-target="point-0-32" d="M452.4419386454368,0L623.5053436044416,283.9089375L639.2887996943277,283.90893750000004L641.3576986051689,272.721384L470.5614727587896,0Z" style="opacity: 0;"/><path data-target="point-0-33" d="M470.5614727587896,0L641.3576986051689,272.721384L657.2924679351453,272.721384L659.1918265950258,261.082946L489.2438311931089,0Z" style="opacity: 0;"/><path data-target="point-0-34" d="M489.2438311931089,0L659.1918265950258,261.082946L675.3172144635419,261.082946L677.0050784180015,248.97541149999998L508.55790166194214,0Z" style="opacity: 0;"/><path data-target="point-0-35" d="M508.55790166194214,0L677.0050784180015,248.97541149999998L693.3659864255293,248.97541149999998L694.7947051590179,236.37984649999999L528.5682024132096,-2.842170943040401e-14Z" style="opacity: 0;"/><path data-target="point-0-36" d="M528.5682024132096,-2.842170943040401e-14L694.7947051590179,236.37984649999999L711.4420443385317,236.37984649999999L712.5574980642314,223.276355L549.3599758629375,2.842170943040401e-14Z" style="opacity: 0;"/><path data-target="point-0-37" d="M549.3599758629375,2.842170943040401e-14L712.5574980642314,223.276355L729.5488930601156,223.276355L730.290147165978,209.644879L571.0229091918125,0Z" style="opacity: 0;"/><path data-target="point-0-38" d="M571.0229091918125,0L730.290147165978,209.644879L747.6908550823945,209.644879L747.9884949402895,195.4636765L593.6438096180068,2.842170943040401e-14Z" style="opacity: 0;"/><path data-target="point-0-39" d="M593.6438096180068,2.842170943040401e-14L747.9884949402895,195.4636765L765.8722310786941,195.4636765L765.6484564828088,180.7108455L617.3334385356577,0Z" style="opacity: 0;"/><path data-target="point-0-40" d="M617.3334385356577,0L765.6484564828088,180.7108455L784.0981074123816,180.7108455L783.2651886102312,165.3633605L642.2010880605612,0Z" style="opacity: 0;"/><path data-target="point-0-41" d="M642.2010880605612,0L783.2651886102312,165.3633605L802.3741619020255,165.36336049999997L800.8333019560871,149.39707249999998L668.3688869837247,0Z" style="opacity: 0;"/><path data-target="point-0-42" d="M668.3688869837247,0L800.8333019560871,149.39707249999998L820.7066268801004,149.39707249999998L818.3469136627932,132.7870305L695.972920570759,0Z" style="opacity: 0;"/><path data-target="point-0-43" d="M695.972920570759,0L818.3469136627932,132.7870305L839.1022941509802,132.78703050000001L835.7995726089165,115.50740099999999L725.157250520589,1.4210854715202004e-14Z" style="opacity: 0;"/><path data-target="point-0-44" d="M725.157250520589,1.4210854715202004e-14L835.7995726089165,115.50740099999999L857.5689155625074,115.50740099999999L853.1840010532793,97.5310665L756.0807759114022,0Z" style="opacity: 0;"/><path data-target="point-0-45" d="M756.0807759114022,0L853.1840010532793,97.5310665L876.1150399200314,97.5310665L870.4921914348304,78.829947L788.9171322983182,0Z" style="opacity: 0;"/><path data-target="point-0-46" d="M788.9171322983182,0L870.4921914348304,78.829947L936,78.829947L936,0Z" style="opacity: 0;"/><path data-target="point-1-0" d="M77.48131433174967,561.6L65.6545558427757,507.245143L0,507.245143L0,561.6Z" style="opacity: 0;"/><path data-target="point-1-1" d="M65.6545558427757,507.245143L77.48131433174967,561.6L90.77259013178599,561.6L84.07809968442893,503.64288L67.9188537355175,503.64288Z" style="opacity: 0;"/><path data-target="point-1-2" d="M84.07809968442893,503.64288L90.77259013178599,561.6L112.05218438840492,561.6L101.67450849721463,501.236023L85.75693764383891,501.236023Z" style="opacity: 0;"/><path data-target="point-1-3" d="M101.67450849721463,501.236023L112.05218438840492,561.6L131.08286876285706,561.6L119.43836277900893,497.5374855L104.18477751635038,497.5374855Z" style="opacity: 0;"/><path data-target="point-1-4" d="M119.43836277900893,497.5374855L131.08286876285706,561.6L154.39133669938053,561.6L136.8552142124752,493.598263L122.34478554755539,493.598263Z" style="opacity: 0;"/><path data-target="point-1-5" d="M136.8552142124752,493.598263L154.39133669938053,561.6L176.95144904292198,561.6L154.6018853848863,489.04128L140.2174305242857,489.04128Z" style="opacity: 0;"/><path data-target="point-1-6" d="M154.6018853848863,489.04128L176.95144904292198,561.6L197.91298613950005,561.6L172.68725464610714,484.20349749999997L157.89404577983035,484.20349749999997Z" style="opacity: 0;"/><path data-target="point-1-7" d="M172.68725464610714,484.20349749999997L197.91298613950005,561.6L215.35389845904257,561.6L190.63412889209675,478.1943775L176.2115575858482,478.1943775Z" style="opacity: 0;"/><path data-target="point-1-8" d="M190.63412889209675,478.1943775L215.35389845904257,561.6L236.4623430746426,561.6L208.62417761109677,473.2763655L193.75630109159073,473.2763655Z" style="opacity: 0;"/><path data-target="point-1-9" d="M208.62417761109677,473.2763655L236.4623430746426,561.6L268.3837213592499,561.6L226.4644451866106,467.78070849999995L211.76860485999654,467.78070849999995Z" style="opacity: 0;"/><path data-target="point-1-10" d="M226.4644451866106,467.78070849999995L268.3837213592499,561.6L305.5267016089826,561.6L245.47056085352057,461.1939425L229.25412547283926,461.1939425Z" style="opacity: 0;"/><path data-target="point-1-11" d="M245.47056085352057,461.1939425L305.5267016089826,561.6L329.5477092666963,561.6L263.4506241547768,450.5957485L246.67575411927749,450.5957485Z" style="opacity: 0;"/><path data-target="point-1-12" d="M263.4506241547768,450.5957485L329.5477092666963,561.6L356.19541896774996,561.6L281.68345416774997,440.2944L264.5113738997022,440.2944Z" style="opacity: 0;"/><path data-target="point-1-13" d="M281.68345416774997,440.2944L356.19541896774996,561.6L373.6413153020713,561.6L299.57875652674073,429.68016L282.139649701375,429.68016Z" style="opacity: 0;"/><path data-target="point-1-14" d="M299.57875652674073,429.68016L373.6413153020713,561.6L410.0053217838042,561.6L317.72359284779463,419.25044549999996L300.12040966452753,419.25044549999996Z" style="opacity: 0;"/><path data-target="point-1-15" d="M317.72359284779463,419.25044549999996L410.0053217838042,561.6L422.5016400245296,561.6L335.2480062550951,407.657417L317.7962562942857,407.65741699999995Z" style="opacity: 0;"/><path data-target="point-1-16" d="M335.2480062550951,407.657417L422.5016400245296,561.6L449.582866831053,561.6L396.31095232133373,459.0231751302629L353.31198986819913,396.7383085L336.1768269363571,396.7383085Z" style="opacity: 0;"/><path data-target="point-1-17" d="M353.31198986819913,396.7383085L396.31095232133373,459.0231751302629L370.07525816753844,383.7011655L353.9190151061964,383.7011655Z" style="opacity: 0;"/><path data-target="point-1-18" d="M370.07525816753844,383.7011655L396.31095232133373,459.0231751302629L449.582866831053,561.6L461.5031111444181,561.6L388.10395527454114,377.8043655L372.80504023066345,377.8043655Z" style="opacity: 0;"/><path data-target="point-1-19" d="M388.10395527454114,377.8043655L461.5031111444181,561.6L492.51971688480927,561.6L461.2603179671422,471.7009906505975L405.25039665280354,368.818766L391.4590452492771,368.818766Z" style="opacity: 0;"/><path data-target="point-1-20" d="M405.25039665280354,368.818766L461.2603179671422,471.7009906505975L455.1087246369979,447.032569091552L424.48478952280425,362.3764115L408.0365999320089,362.3764115Z" style="opacity: 0;"/><path data-target="point-1-21" d="M424.48478952280425,362.3764115L455.1087246369979,447.032569091552L442.71749031443676,356.5839085L425.90593294047045,356.5839085Z" style="opacity: 0;"/><path data-target="point-1-22" d="M442.71749031443676,356.5839085L455.1087246369979,447.032569091552L461.2603179671422,471.7009906505975L492.51971688480927,561.6L508.80044249047694,561.6L459.98999893049375,351.9386745L444.5434584403935,351.9386745Z" style="opacity: 0;"/><path data-target="point-1-23" d="M459.98999893049375,351.9386745L508.80044249047694,561.6L536.0211288988268,561.6L477.69692958492584,347.3335545L462.4846934284759,347.3335545Z" style="opacity: 0;"/><path data-target="point-1-24" d="M477.69692958492584,347.3335545L536.0211288988268,561.6L547.9076866418932,561.6L495.6854478723571,342.34333699999996L480.4449226192336,342.343337Z" style="opacity: 0;"/><path data-target="point-1-25" d="M495.6854478723571,342.34333699999996L547.9076866418932,561.6L575.1420845254994,561.6L513.55244630825,338.27574849999996L498.11476335118203,338.27574849999996Z" style="opacity: 0;"/><path data-target="point-1-26" d="M513.55244630825,338.27574849999996L575.1420845254994,561.6L596.8536060945179,561.6L531.5448582789107,333.6706285L516.026523642875,333.6706285Z" style="opacity: 0;"/><path data-target="point-1-27" d="M531.5448582789107,333.6706285L596.8536060945179,561.6L601.3508052030932,561.6L548.720972972895,324.48886949999996L540.18537115415,315.99699561909586Z" style="opacity: 0;"/><path data-target="point-1-28" d="M548.720972972895,324.48886949999996L601.3508052030932,561.6L692.9759569396084,561.6L567.4363177430164,324.48886949999996Z" style="opacity: 0;"/><path data-target="point-1-29" d="M567.4363177430164,324.48886949999996L692.9759569396084,561.6L721.3630376954006,561.6L585.3792490061462,314.93701649999997L569.8599266747977,314.93701649999997Z" style="opacity: 0;"/><path data-target="point-1-30" d="M585.3792490061462,314.93701649999997L721.3630376954006,561.6L750.6276164952799,561.6L603.3343920686884,305.0002265L587.7545205453633,305.0002265Z" style="opacity: 0;"/><path data-target="point-1-31" d="M603.3343920686884,305.0002265L750.6276164952799,561.6L780.8501716129507,561.6L621.3035267258716,294.6629355L605.6369376871327,294.6629355Z" style="opacity: 0;"/><path data-target="point-1-32" d="M621.3035267258716,294.6629355L780.8501716129507,561.6L812.1083138182053,561.6L639.2887996943277,283.90893750000004L623.5053436044416,283.9089375Z" style="opacity: 0;"/><path data-target="point-1-33" d="M639.2887996943277,283.90893750000004L812.1083138182053,561.6L844.4852146461819,561.6L657.2924679351453,272.721384L641.3576986051689,272.721384Z" style="opacity: 0;"/><path data-target="point-1-34" d="M657.2924679351453,272.721384L844.4852146461819,561.6L878.0838352725646,561.6L675.3172144635419,261.082946L659.1918265950258,261.082946Z" style="opacity: 0;"/><path data-target="point-1-35" d="M675.3172144635419,261.082946L878.0838352725646,561.6L912.9964134865739,561.6L693.3659864255293,248.97541149999998L677.0050784180015,248.97541149999998Z" style="opacity: 0;"/><path data-target="point-1-36" d="M693.3659864255293,248.97541149999998L912.9964134865739,561.6L936,561.6L936,543.3536349634498L711.4420443385317,236.37984649999999L694.7947051590179,236.37984649999999Z" style="opacity: 0;"/><path data-target="point-1-37" d="M711.4420443385317,236.37984649999999L936,543.3536349634498L936,494.32695826666657L729.5488930601156,223.276355L712.5574980642314,223.276355Z" style="opacity: 0;"/><path data-target="point-1-38" d="M729.5488930601156,223.276355L936,494.32695826666657L936,447.08220486129744L747.6908550823945,209.644879L730.290147165978,209.644879Z" style="opacity: 0;"/><path data-target="point-1-39" d="M747.6908550823945,209.644879L936,447.08220486129744L936,401.48183139694635L765.8722310786941,195.4636765L747.9884949402895,195.4636765Z" style="opacity: 0;"/><path data-target="point-1-40" d="M765.6484564828088,180.7108455L765.8722310786941,195.4636765L936,401.48183139694635L936,357.3751369300753L784.0981074123816,180.7108455Z" style="opacity: 0;"/><path data-target="point-1-41" d="M783.2651886102312,165.3633605L784.0981074123816,180.7108455L936,357.3751369300753L936,314.6173209331202L802.3741619020255,165.36336049999997Z" style="opacity: 0;"/><path data-target="point-1-42" d="M800.8333019560871,149.39707249999998L802.3741619020255,165.36336049999997L936,314.6173209331202L936,273.0734247825442L820.7066268801004,149.39707249999998Z" style="opacity: 0;"/><path data-target="point-1-43" d="M818.3469136627932,132.7870305L820.7066268801004,149.39707249999998L936,273.0734247825442L936,232.6147524066439L839.1022941509802,132.78703050000001Z" style="opacity: 0;"/><path data-target="point-1-44" d="M835.7995726089165,115.50740099999999L839.1022941509802,132.78703050000001L936,232.6147524066439L936,193.1101497136532L857.5689155625074,115.50740099999999Z" style="opacity: 0;"/><path data-target="point-1-45" d="M853.1840010532793,97.5310665L857.5689155625074,115.50740099999999L936,193.1101497136532L936,154.43671424440322L876.1150399200314,97.5310665Z" style="opacity: 0;"/><path data-target="point-1-46" d="M870.4921914348304,78.829947L876.1150399200314,97.5310665L936,154.43671424440322L936,78.829947Z" style="opacity: 0;"/></g><g class="series"><path data-target="point-0-0" d="M0,507.245143L65.6545558427757,507.245143L67.9188537355175,503.64288L0,135.42735411008601Z" style="opacity: 0;"/><path data-target="point-0-1" d="M0,135.42735411008601L67.9188537355175,503.64288L84.07809968442893,503.64288L85.75693764383891,501.236023L52.04782239139864,281.0801797627382L1.922292652456406,26.622711882442957L0,17.77586864299863Z" style="opacity: 0;"/><path data-target="point-0-2" d="M52.04782239139864,281.0801797627382L85.75693764383891,501.236023L101.67450849721463,501.236023L104.18477751635038,497.5374855Z" style="opacity: 0;"/><path data-target="point-0-3" d="M1.922292652456406,26.622711882442957L52.04782239139864,281.0801797627382L104.18477751635038,497.5374855L119.43836277900893,497.5374855L122.34478554755539,493.598263Z" style="opacity: 0;"/><path data-target="point-0-4" d="M0,17.77586864299863L1.922292652456406,26.622711882442957L122.34478554755539,493.598263L136.8552142124752,493.598263L140.2174305242857,489.04128L17.60779532428596,-5.684341886080802e-14L0,0Z" style="opacity: 0;"/><path data-target="point-0-5" d="M17.60779532428596,-5.684341886080802e-14L140.2174305242857,489.04128L154.6018853848863,489.04128L157.89404577983035,484.20349749999997L115.98322361587253,303.48385160936834L28.482325971500046,0Z" style="opacity: 0;"/><path data-target="point-0-6" d="M115.98322361587253,303.48385160936834L157.89404577983035,484.20349749999997L172.68725464610714,484.20349749999997L176.2115575858482,478.1943775Z" style="opacity: 0;"/><path data-target="point-0-7" d="M28.482325971500046,0L115.98322361587253,303.48385160936834L176.2115575858482,478.1943775L190.63412889209675,478.1943775L193.75630109159073,473.2763655L118.28022215302398,174.36727892309887L77.00781106092023,70.03634910286172L47.26183699214009,0Z" style="opacity: 0;"/><path data-target="point-0-8" d="M118.28022215302398,174.36727892309887L193.75630109159073,473.2763655L208.62417761109677,473.2763655L211.76860485999654,467.78070849999995L142.43147563668037,235.23915901164452L122.35531170514403,183.81428925356545Z" style="opacity: 0;"/><path data-target="point-0-9" d="M142.43147563668037,235.23915901164452L211.76860485999654,467.78070849999995L226.4644451866106,467.78070849999995L229.25412547283926,461.1939425L206.27790735243494,381.5043466408Z" style="opacity: 0;"/><path data-target="point-0-10" d="M206.27790735243494,381.5043466408L229.25412547283926,461.1939425L245.47056085352057,461.1939425L246.67575411927749,450.5957485Z" style="opacity: 0;"/><path data-target="point-0-11" d="M122.35531170514403,183.81428925356545L142.43147563668037,235.23915901164452L206.27790735243494,381.5043466408L246.67575411927749,450.5957485L263.4506241547768,450.5957485L264.5113738997022,440.2944Z" style="opacity: 0;"/><path data-target="point-0-12" d="M77.00781106092023,70.03634910286172L118.28022215302398,174.36727892309887L122.35531170514403,183.81428925356545L264.5113738997022,440.2944L281.68345416774997,440.2944L282.139649701375,429.68016Z" style="opacity: 0;"/><path data-target="point-0-13" d="M47.26183699214009,0L77.00781106092023,70.03634910286172L282.139649701375,429.68016L299.57875652674073,429.68016L300.12040966452753,419.25044549999996L47.476020359268034,0Z" style="opacity: 0;"/><path data-target="point-0-14" d="M47.476020359268034,0L300.12040966452753,419.25044549999996L317.72359284779463,419.25044549999996L317.7962562942857,407.65741699999995L54.61699563712426,0Z" style="opacity: 0;"/><path data-target="point-0-15" d="M54.61699563712426,0L317.7962562942857,407.65741699999995L335.2480062550951,407.657417L336.1768269363571,396.7383085L176.06644617650554,151.11642260936648L69.0355413558752,0Z" style="opacity: 0;"/><path data-target="point-0-16" d="M176.06644617650554,151.11642260936648L336.1768269363571,396.7383085L353.31198986819913,396.7383085L353.9190151061964,383.7011655Z" style="opacity: 0;"/><path data-target="point-0-17" d="M69.0355413558752,0L176.06644617650554,151.11642260936648L353.9190151061964,383.7011655L370.07525816753844,383.7011655L372.80504023066345,377.8043655L347.4068884638923,295.82491991299037L212.3160286049161,0Z" style="opacity: 0;"/><path data-target="point-0-18" d="M347.4068884638923,295.82491991299037L372.80504023066345,377.8043655L388.10395527454114,377.8043655L391.4590452492771,368.818766Z" style="opacity: 0;"/><path data-target="point-0-19" d="M212.3160286049161,0L347.4068884638923,295.82491991299037L391.4590452492771,368.818766L405.25039665280354,368.818766L408.0365999320089,362.3764115L377.0923162462825,185.15153845352316L371.2946383853478,159.90826733490425L326.47830596862116,0Z" style="opacity: 0;"/><path data-target="point-0-20" d="M377.0923162462825,185.15153845352316L408.0365999320089,362.3764115L424.48478952280425,362.3764115L425.90593294047045,356.5839085Z" style="opacity: 0;"/><path data-target="point-0-21" d="M371.2946383853478,159.90826733490425L377.0923162462825,185.15153845352316L425.90593294047045,356.5839085L442.71749031443676,356.5839085L444.5434584403935,351.9386745Z" style="opacity: 0;"/><path data-target="point-0-22" d="M326.47830596862116,0L371.2946383853478,159.90826733490425L444.5434584403935,351.9386745L459.98999893049375,351.9386745L462.4846934284759,347.3335545L364.82903474268903,0Z" style="opacity: 0;"/><path data-target="point-0-23" d="M364.82903474268903,0L462.4846934284759,347.3335545L477.69692958492584,347.3335545L480.4449226192336,342.343337L382.9661343330004,0Z" style="opacity: 0;"/><path data-target="point-0-24" d="M382.9661343330004,0L480.4449226192336,342.343337L495.6854478723571,342.34333699999996L498.11476335118203,338.27574849999996L425.1171031872747,0Z" style="opacity: 0;"/><path data-target="point-0-25" d="M425.1171031872747,0L498.11476335118203,338.27574849999996L513.55244630825,338.27574849999996L516.026523642875,333.6706285L440.3419785742726,15.906756567046841L434.4604294141153,0Z" style="opacity: 0;"/><path data-target="point-0-26" d="M440.3419785742726,15.906756567046841L516.026523642875,333.6706285L531.5448582789107,333.6706285L540.18537115415,315.99699561909586L512.1514441648659,207.39235659354534L476.2281592689949,105.03288540132823Z" style="opacity: 0;"/><path data-target="point-0-28" d="M512.1514441648659,207.39235659354534L540.18537115415,315.99699561909586L548.720972972895,324.48886949999996L567.4363177430164,324.48886949999996L569.8599266747977,314.93701649999997Z" style="opacity: 0;"/><path data-target="point-0-29" d="M476.2281592689949,105.03288540132823L512.1514441648659,207.39235659354534L569.8599266747977,314.93701649999997L585.3792490061462,314.93701649999997L587.7545205453633,305.0002265Z" style="opacity: 0;"/><path data-target="point-0-30" d="M434.4604294141153,0L440.3419785742726,15.906756567046841L476.2281592689949,105.03288540132823L587.7545205453633,305.0002265L603.3343920686884,305.0002265L605.6369376871327,294.6629355L434.8219521183861,0Z" style="opacity: 0;"/><path data-target="point-0-31" d="M434.8219521183861,0L605.6369376871327,294.6629355L621.3035267258716,294.6629355L623.5053436044416,283.9089375L452.4419386454368,0Z" style="opacity: 0;"/><path data-target="point-0-32" d="M452.4419386454368,0L623.5053436044416,283.9089375L639.2887996943277,283.90893750000004L641.3576986051689,272.721384L470.5614727587896,0Z" style="opacity: 0;"/><path data-target="point-0-33" d="M470.5614727587896,0L641.3576986051689,272.721384L657.2924679351453,272.721384L659.1918265950258,261.082946L489.2438311931089,0Z" style="opacity: 0;"/><path data-target="point-0-34" d="M489.2438311931089,0L659.1918265950258,261.082946L675.3172144635419,261.082946L677.0050784180015,248.97541149999998L508.55790166194214,0Z" style="opacity: 0;"/><path data-target="point-0-35" d="M508.55790166194214,0L677.0050784180015,248.97541149999998L693.3659864255293,248.97541149999998L694.7947051590179,236.37984649999999L528.5682024132096,-2.842170943040401e-14Z" style="opacity: 0;"/><path data-target="point-0-36" d="M528.5682024132096,-2.842170943040401e-14L694.7947051590179,236.37984649999999L711.4420443385317,236.37984649999999L712.5574980642314,223.276355L549.3599758629375,2.842170943040401e-14Z" style="opacity: 0;"/><path data-target="point-0-37" d="M549.3599758629375,2.842170943040401e-14L712.5574980642314,223.276355L729.5488930601156,223.276355L730.290147165978,209.644879L571.0229091918125,0Z" style="opacity: 0;"/><path data-target="point-0-38" d="M571.0229091918125,0L730.290147165978,209.644879L747.6908550823945,209.644879L747.9884949402895,195.4636765L593.6438096180068,2.842170943040401e-14Z" style="opacity: 0;"/><path data-target="point-0-39" d="M593.6438096180068,2.842170943040401e-14L747.9884949402895,195.4636765L765.8722310786941,195.4636765L765.6484564828088,180.7108455L617.3334385356577,0Z" style="opacity: 0;"/><path data-target="point-0-40" d="M617.3334385356577,0L765.6484564828088,180.7108455L784.0981074123816,180.7108455L783.2651886102312,165.3633605L642.2010880605612,0Z" style="opacity: 0;"/><path data-target="point-0-41" d="M642.2010880605612,0L783.2651886102312,165.3633605L802.3741619020255,165.36336049999997L800.8333019560871,149.39707249999998L668.3688869837247,0Z" style="opacity: 0;"/><path data-target="point-0-42" d="M668.3688869837247,0L800.8333019560871,149.39707249999998L820.7066268801004,149.39707249999998L818.3469136627932,132.7870305L695.972920570759,0Z" style="opacity: 0;"/><path data-target="point-0-43" d="M695.972920570759,0L818.3469136627932,132.7870305L839.1022941509802,132.78703050000001L835.7995726089165,115.50740099999999L725.157250520589,1.4210854715202004e-14Z" style="opacity: 0;"/><path data-target="point-0-44" d="M725.157250520589,1.4210854715202004e-14L835.7995726089165,115.50740099999999L857.5689155625074,115.50740099999999L853.1840010532793,97.5310665L756.0807759114022,0Z" style="opacity: 0;"/><path data-target="point-0-45" d="M756.0807759114022,0L853.1840010532793,97.5310665L876.1150399200314,97.5310665L870.4921914348304,78.829947L788.9171322983182,0Z" style="opacity: 0;"/><path data-target="point-0-46" d="M788.9171322983182,0L870.4921914348304,78.829947L936,78.829947L936,0Z" style="opacity: 0;"/><path data-target="point-1-0" d="M77.48131433174967,561.6L65.6545558427757,507.245143L0,507.245143L0,561.6Z" style="opacity: 0;"/><path data-target="point-1-1" d="M65.6545558427757,507.245143L77.48131433174967,561.6L90.77259013178599,561.6L84.07809968442893,503.64288L67.9188537355175,503.64288Z" style="opacity: 0;"/><path data-target="point-1-2" d="M84.07809968442893,503.64288L90.77259013178599,561.6L112.05218438840492,561.6L101.67450849721463,501.236023L85.75693764383891,501.236023Z" style="opacity: 0;"/><path data-target="point-1-3" d="M101.67450849721463,501.236023L112.05218438840492,561.6L131.08286876285706,561.6L119.43836277900893,497.5374855L104.18477751635038,497.5374855Z" style="opacity: 0;"/><path data-target="point-1-4" d="M119.43836277900893,497.5374855L131.08286876285706,561.6L154.39133669938053,561.6L136.8552142124752,493.598263L122.34478554755539,493.598263Z" style="opacity: 0;"/><path data-target="point-1-5" d="M136.8552142124752,493.598263L154.39133669938053,561.6L176.95144904292198,561.6L154.6018853848863,489.04128L140.2174305242857,489.04128Z" style="opacity: 0;"/><path data-target="point-1-6" d="M154.6018853848863,489.04128L176.95144904292198,561.6L197.91298613950005,561.6L172.68725464610714,484.20349749999997L157.89404577983035,484.20349749999997Z" style="opacity: 0;"/><path data-target="point-1-7" d="M172.68725464610714,484.20349749999997L197.91298613950005,561.6L215.35389845904257,561.6L190.63412889209675,478.1943775L176.2115575858482,478.1943775Z" style="opacity: 0;"/><path data-target="point-1-8" d="M190.63412889209675,478.1943775L215.35389845904257,561.6L236.4623430746426,561.6L208.62417761109677,473.2763655L193.75630109159073,473.2763655Z" style="opacity: 0;"/><path data-target="point-1-9" d="M208.62417761109677,473.2763655L236.4623430746426,561.6L268.3837213592499,561.6L226.4644451866106,467.78070849999995L211.76860485999654,467.78070849999995Z" style="opacity: 0;"/><path data-target="point-1-10" d="M226.4644451866106,467.78070849999995L268.3837213592499,561.6L305.5267016089826,561.6L245.47056085352057,461.1939425L229.25412547283926,461.1939425Z" style="opacity: 0;"/><path data-target="point-1-11" d="M245.47056085352057,461.1939425L305.5267016089826,561.6L329.5477092666963,561.6L263.4506241547768,450.5957485L246.67575411927749,450.5957485Z" style="opacity: 0;"/><path data-target="point-1-12" d="M263.4506241547768,450.5957485L329.5477092666963,561.6L356.19541896774996,561.6L281.68345416774997,440.2944L264.5113738997022,440.2944Z" style="opacity: 0;"/><path data-target="point-1-13" d="M281.68345416774997,440.2944L356.19541896774996,561.6L373.6413153020713,561.6L299.57875652674073,429.68016L282.139649701375,429.68016Z" style="opacity: 0;"/><path data-target="point-1-14" d="M299.57875652674073,429.68016L373.6413153020713,561.6L410.0053217838042,561.6L317.72359284779463,419.25044549999996L300.12040966452753,419.25044549999996Z" style="opacity: 0;"/><path data-target="point-1-15" d="M317.72359284779463,419.25044549999996L410.0053217838042,561.6L422.5016400245296,561.6L335.2480062550951,407.657417L317.7962562942857,407.65741699999995Z" style="opacity: 0;"/><path data-target="point-1-16" d="M335.2480062550951,407.657417L422.5016400245296,561.6L449.582866831053,561.6L396.31095232133373,459.0231751302629L353.31198986819913,396.7383085L336.1768269363571,396.7383085Z" style="opacity: 0;"/><path data-target="point-1-17" d="M353.31198986819913,396.7383085L396.31095232133373,459.0231751302629L370.07525816753844,383.7011655L353.9190151061964,383.7011655Z" style="opacity: 0;"/><path data-target="point-1-18" d="M370.07525816753844,383.7011655L396.31095232133373,459.0231751302629L449.582866831053,561.6L461.5031111444181,561.6L388.10395527454114,377.8043655L372.80504023066345,377.8043655Z" style="opacity: 0;"/><path data-target="point-1-19" d="M388.10395527454114,377.8043655L461.5031111444181,561.6L492.51971688480927,561.6L461.2603179671422,471.7009906505975L405.25039665280354,368.818766L391.4590452492771,368.818766Z" style="opacity: 0;"/><path data-target="point-1-20" d="M405.25039665280354,368.818766L461.2603179671422,471.7009906505975L455.1087246369979,447.032569091552L424.48478952280425,362.3764115L408.0365999320089,362.3764115Z" style="opacity: 0;"/><path data-target="point-1-21" d="M424.48478952280425,362.3764115L455.1087246369979,447.032569091552L442.71749031443676,356.5839085L425.90593294047045,356.5839085Z" style="opacity: 0;"/><path data-target="point-1-22" d="M442.71749031443676,356.5839085L455.1087246369979,447.032569091552L461.2603179671422,471.7009906505975L492.51971688480927,561.6L508.80044249047694,561.6L459.98999893049375,351.9386745L444.5434584403935,351.9386745Z" style="opacity: 0;"/><path data-target="point-1-23" d="M459.98999893049375,351.9386745L508.80044249047694,561.6L536.0211288988268,561.6L477.69692958492584,347.3335545L462.4846934284759,347.3335545Z" style="opacity: 0;"/><path data-target="point-1-24" d="M477.69692958492584,347.3335545L536.0211288988268,561.6L547.9076866418932,561.6L495.6854478723571,342.34333699999996L480.4449226192336,342.343337Z" style="opacity: 0;"/><path data-target="point-1-25" d="M495.6854478723571,342.34333699999996L547.9076866418932,561.6L575.1420845254994,561.6L513.55244630825,338.27574849999996L498.11476335118203,338.27574849999996Z" style="opacity: 0;"/><path data-target="point-1-26" d="M513.55244630825,338.27574849999996L575.1420845254994,561.6L596.8536060945179,561.6L531.5448582789107,333.6706285L516.026523642875,333.6706285Z" style="opacity: 0;"/><path data-target="point-1-27" d="M531.5448582789107,333.6706285L596.8536060945179,561.6L601.3508052030932,561.6L548.720972972895,324.48886949999996L540.18537115415,315.99699561909586Z" style="opacity: 0;"/><path data-target="point-1-28" d="M548.720972972895,324.48886949999996L601.3508052030932,561.6L692.9759569396084,561.6L567.4363177430164,324.48886949999996Z" style="opacity: 0;"/><path data-target="point-1-29" d="M567.4363177430164,324.48886949999996L692.9759569396084,561.6L721.3630376954006,561.6L585.3792490061462,314.93701649999997L569.8599266747977,314.93701649999997Z" style="opacity: 0;"/><path data-target="point-1-30" d="M585.3792490061462,314.93701649999997L721.3630376954006,561.6L750.6276164952799,561.6L603.3343920686884,305.0002265L587.7545205453633,305.0002265Z" style="opacity: 0;"/><path data-target="point-1-31" d="M603.3343920686884,305.0002265L750.6276164952799,561.6L780.8501716129507,561.6L621.3035267258716,294.6629355L605.6369376871327,294.6629355Z" style="opacity: 0;"/><path data-target="point-1-32" d="M621.3035267258716,294.6629355L780.8501716129507,561.6L812.1083138182053,561.6L639.2887996943277,283.90893750000004L623.5053436044416,283.9089375Z" style="opacity: 0;"/><path data-target="point-1-33" d="M639.2887996943277,283.90893750000004L812.1083138182053,561.6L844.4852146461819,561.6L657.2924679351453,272.721384L641.3576986051689,272.721384Z" style="opacity: 0;"/><path data-target="point-1-34" d="M657.2924679351453,272.721384L844.4852146461819,561.6L878.0838352725646,561.6L675.3172144635419,261.082946L659.1918265950258,261.082946Z" style="opacity: 0;"/><path data-target="point-1-35" d="M675.3172144635419,261.082946L878.0838352725646,561.6L912.9964134865739,561.6L693.3659864255293,248.97541149999998L677.0050784180015,248.97541149999998Z" style="opacity: 0;"/><path data-target="point-1-36" d="M693.3659864255293,248.97541149999998L912.9964134865739,561.6L936,561.6L936,543.3536349634498L711.4420443385317,236.37984649999999L694.7947051590179,236.37984649999999Z" style="opacity: 0;"/><path data-target="point-1-37" d="M711.4420443385317,236.37984649999999L936,543.3536349634498L936,494.32695826666657L729.5488930601156,223.276355L712.5574980642314,223.276355Z" style="opacity: 0;"/><path data-target="point-1-38" d="M729.5488930601156,223.276355L936,494.32695826666657L936,447.08220486129744L747.6908550823945,209.644879L730.290147165978,209.644879Z" style="opacity: 0;"/><path data-target="point-1-39" d="M747.6908550823945,209.644879L936,447.08220486129744L936,401.48183139694635L765.8722310786941,195.4636765L747.9884949402895,195.4636765Z" style="opacity: 0;"/><path data-target="point-1-40" d="M765.6484564828088,180.7108455L765.8722310786941,195.4636765L936,401.48183139694635L936,357.3751369300753L784.0981074123816,180.7108455Z" style="opacity: 0;"/><path data-target="point-1-41" d="M783.2651886102312,165.3633605L784.0981074123816,180.7108455L936,357.3751369300753L936,314.6173209331202L802.3741619020255,165.36336049999997Z" style="opacity: 0;"/><path data-target="point-1-42" d="M800.8333019560871,149.39707249999998L802.3741619020255,165.36336049999997L936,314.6173209331202L936,273.0734247825442L820.7066268801004,149.39707249999998Z" style="opacity: 0;"/><path data-target="point-1-43" d="M818.3469136627932,132.7870305L820.7066268801004,149.39707249999998L936,273.0734247825442L936,232.6147524066439L839.1022941509802,132.78703050000001Z" style="opacity: 0;"/><path data-target="point-1-44" d="M835.7995726089165,115.50740099999999L839.1022941509802,132.78703050000001L936,232.6147524066439L936,193.1101497136532L857.5689155625074,115.50740099999999Z" style="opacity: 0;"/><path data-target="point-1-45" d="M853.1840010532793,97.5310665L857.5689155625074,115.50740099999999L936,193.1101497136532L936,154.43671424440322L876.1150399200314,97.5310665Z" style="opacity: 0;"/><path data-target="point-1-46" d="M870.4921914348304,78.829947L876.1150399200314,97.5310665L936,154.43671424440322L936,78.829947Z" style="opacity: 0;"/></g></g><g class="axes"><g class="y axis" fill="none" font-size="10" font-family="sans-serif" text-anchor="end" style="font-family: &quot;Source Sans Pro&quot;;"><path class="domain" stroke="#eeeeee" d="M0.5,562.1V0.5" stroke-dasharray="0" style="visibility: hidden;"/><g class="tick" opacity="1" transform="translate(0,562.1)" style="visibility: visible;"><line stroke="#eeeeee" x2="936" stroke-dasharray="0"/><text fill="rgb(0, 0, 0)" x="3" dy="-0.33em" opacity="1" text-anchor="start" font-size="18">$0</text></g><g class="tick" opacity="1" transform="translate(0, 481.8714294433594)" style="visibility: visible;"><line stroke="#eeeeee" x2="936" stroke-dasharray="0"/><text fill="rgb(0, 0, 0)" x="3" dy="-0.33em" opacity="1" text-anchor="start" font-size="18">$5000</text></g><g class="tick" opacity="1" transform="translate(0, 401.6428527832031)" style="visibility: visible;"><line stroke="#eeeeee" x2="936" stroke-dasharray="0"/><text fill="rgb(0, 0, 0)" x="3" dy="-0.33em" opacity="1" text-anchor="start" font-size="18">$10,000</text></g><g class="tick" opacity="1" transform="translate(0, 321.4142761230469)" style="visibility: visible;"><line stroke="#eeeeee" x2="936" stroke-dasharray="0"/><text fill="rgb(0, 0, 0)" x="3" dy="-0.33em" opacity="1" text-anchor="start" font-size="18">$15,000</text></g><g class="tick" opacity="1" transform="translate(0, 241.1857147216797)" style="visibility: visible;"><line stroke="#eeeeee" x2="936" stroke-dasharray="0"/><text fill="rgb(0, 0, 0)" x="3" dy="-0.33em" opacity="1" text-anchor="start" font-size="18">$20,000</text></g><g class="tick" opacity="1" transform="translate(0, 160.95713806152344)" style="visibility: visible;"><line stroke="#eeeeee" x2="936" stroke-dasharray="0"/><text fill="rgb(0, 0, 0)" x="3" dy="-0.33em" opacity="1" text-anchor="start" font-size="18">$25,000</text></g><g class="tick" opacity="1" transform="translate(0, 80.72856903076172)" style="visibility: visible;"><line stroke="#eeeeee" x2="936" stroke-dasharray="0"/><text fill="rgb(0, 0, 0)" x="3" dy="-0.33em" opacity="1" text-anchor="start" font-size="18">$30,000</text></g><g class="tick" opacity="1" transform="translate(0, 0.5)" style="visibility: visible;"><line stroke="#eeeeee" x2="936" stroke-dasharray="0"/><text fill="rgb(0, 0, 0)" x="3" dy="-0.33em" opacity="1" text-anchor="start" font-size="18">$35,000</text></g></g><g class="x axis" transform="translate(0,561.6)" fill="none" font-size="10" font-family="sans-serif" text-anchor="middle" style="font-family: &quot;Source Sans Pro&quot;;"><path class="domain" stroke="#eeeeee" d="M40.5,0.5H936.5" stroke-dasharray="0"/><g class="tick" opacity="1" transform="translate(40.5,0)"><line stroke="#eeeeee" y2="6" stroke-dasharray="0"/><text fill="rgb(0, 0, 0)" y="9" dy="-9" opacity="1" dominant-baseline="central" font-size="18" transform="translate(0, 15) rotate(-45)" dx="5" style="text-anchor: end; visibility: visible;">1990</text></g><g class="tick" opacity="1" transform="translate(130.10000000000002,0)"><line stroke="#eeeeee" y2="6" stroke-dasharray="0"/><text fill="rgb(0, 0, 0)" y="9" dy="-9" opacity="1" dominant-baseline="central" font-size="18" transform="translate(0, 15) rotate(-45)" dx="5" style="text-anchor: end; visibility: visible;">1995</text></g><g class="tick" opacity="1" transform="translate(219.70000000000002,0)"><line stroke="#eeeeee" y2="6" stroke-dasharray="0"/><text fill="rgb(0, 0, 0)" y="9" dy="-9" opacity="1" dominant-baseline="central" font-size="18" transform="translate(0, 15) rotate(-45)" dx="5" style="text-anchor: end; visibility: visible;">2000</text></g><g class="tick" opacity="1" transform="translate(309.3,0)"><line stroke="#eeeeee" y2="6" stroke-dasharray="0"/><text fill="rgb(0, 0, 0)" y="9" dy="-9" opacity="1" dominant-baseline="central" font-size="18" transform="translate(0, 15) rotate(-45)" dx="5" style="text-anchor: end; visibility: visible;">2005</text></g><g class="tick" opacity="1" transform="translate(398.90000000000003,0)"><line stroke="#eeeeee" y2="6" stroke-dasharray="0"/><text fill="rgb(0, 0, 0)" y="9" dy="-9" opacity="1" dominant-baseline="central" font-size="18" transform="translate(0, 15) rotate(-45)" dx="5" style="text-anchor: end; visibility: visible;">2010</text></g><g class="tick" opacity="1" transform="translate(488.5,0)"><line stroke="#eeeeee" y2="6" stroke-dasharray="0"/><text fill="rgb(0, 0, 0)" y="9" dy="-9" opacity="1" dominant-baseline="central" font-size="18" transform="translate(0, 15) rotate(-45)" dx="5" style="text-anchor: end; visibility: visible;">2015</text></g><g class="tick" opacity="1" transform="translate(578.1,0)"><line stroke="#eeeeee" y2="6" stroke-dasharray="0"/><text fill="rgb(0, 0, 0)" y="9" dy="-9" opacity="1" dominant-baseline="central" font-size="18" transform="translate(0, 15) rotate(-45)" dx="5" style="text-anchor: end; visibility: visible;">2020</text></g><g class="tick" opacity="1" transform="translate(667.6999999999999,0)"><line stroke="#eeeeee" y2="6" stroke-dasharray="0"/><text fill="rgb(0, 0, 0)" y="9" dy="-9" opacity="1" dominant-baseline="central" font-size="18" transform="translate(0, 15) rotate(-45)" dx="5" style="text-anchor: end; visibility: visible;">2025</text></g><g class="tick" opacity="1" transform="translate(757.3000000000001,0)"><line stroke="#eeeeee" y2="6" stroke-dasharray="0"/><text fill="rgb(0, 0, 0)" y="9" dy="-9" opacity="1" dominant-baseline="central" font-size="18" transform="translate(0, 15) rotate(-45)" dx="5" style="text-anchor: end; visibility: visible;">2030</text></g><g class="tick" opacity="1" transform="translate(846.9,0)"><line stroke="#eeeeee" y2="6" stroke-dasharray="0"/><text fill="rgb(0, 0, 0)" y="9" dy="-9" opacity="1" dominant-baseline="central" font-size="18" transform="translate(0, 15) rotate(-45)" dx="5" style="text-anchor: end; visibility: visible;">2035</text></g><g class="tick" opacity="1" transform="translate(936.5,0)"><line stroke="#eeeeee" y2="6" stroke-dasharray="0"/><text fill="rgb(0, 0, 0)" y="9" dy="-9" opacity="1" dominant-baseline="central" font-size="18" transform="translate(0, 15) rotate(-45)" dx="5" style="text-anchor: end; visibility: visible;">2040</text></g></g></g></g></g></g><g class="annotations below"><g class="axis-highlights" transform="translate(15, 20)" style="opacity: 1;"><g class="line x" transform="translate(559.68, 0)"><line width="0" stroke-dasharray="2 2" stroke="#333333" stroke-width="2" y2="561.6"/><text transform="translate(0, 6) rotate(-90)" fill="#333333" text-anchor="end" dy="-0.5em" font-size="12">Current</text></g></g></g><g id="areas"><g class="series" pointer-events="none"><path class="area" transform="translate(15,20)" fill-opacity="0" fill="#11A579" clip-path="url(#clip-0-0)" d="M57.92,499.6635428571429C63.89333333333334,498.51493714285715,69.86666666666667,497.36633142857147,75.84,496.35812571428573C81.81333333333333,495.34992,87.78666666666666,494.7909942857143,93.75999999999999,493.6143085714286C99.73333333333333,492.43762285714286,105.70666666666666,490.7875885714286,111.68,489.29801142857144C117.65333333333335,487.80843428571427,123.62666666666668,486.19584000000003,129.60000000000002,484.6768457142857C135.57333333333335,483.15785142857146,141.54666666666665,481.62548571428573,147.51999999999998,480.18404571428573C153.4933333333333,478.74260571428573,159.46666666666667,477.7504457142857,165.44,476.0282057142857C171.41333333333333,474.3059657142857,177.38666666666668,471.6343542857143,183.36,469.85060571428573C189.33333333333334,468.06685714285715,195.30666666666667,466.9704,201.28,465.3257142857143C207.25333333333333,463.68102857142856,213.2266666666667,461.7341485714286,219.20000000000002,459.98249142857145C225.17333333333335,458.2308342857143,231.14666666666668,457.4232,237.12,454.81577142857145C243.09333333333333,452.2083428571429,249.06666666666666,447.73961142857144,255.04,444.33792C261.0133333333333,440.93622857142856,266.9866666666667,437.76452571428575,272.96000000000004,434.4056228571429C278.93333333333334,431.04672000000005,284.9066666666667,427.68781714285717,290.88,424.1845028571429C296.85333333333335,420.6811885714286,302.82666666666665,417.1136914285714,308.8,413.3857371428571C314.77333333333337,409.6577828571428,320.74666666666667,405.6918171428572,326.72,401.8167771428572C332.6933333333334,397.94173714285716,338.6666666666667,394.3662171428572,344.64000000000004,390.13549714285716C350.61333333333334,385.90477714285714,356.5866666666667,379.64160000000004,362.56,376.4324571428572C368.53333333333336,373.2233142857143,374.50666666666666,373.6084114285714,380.48,370.88063999999997C386.4533333333334,368.15286857142854,392.4266666666667,362.15177142857146,398.40000000000003,360.0658285714286C404.37333333333333,357.97988571428573,410.3466666666667,358.30882285714284,416.32,356.9369142857143C422.29333333333335,355.56500571428575,428.26666666666665,353.8240457142858,434.24,351.8343771428572C440.21333333333337,349.8447085714286,446.18666666666667,346.9778742857143,452.16,344.99890285714287C458.1333333333333,343.01993142857145,464.1066666666667,341.65069714285715,470.08,339.9605485714286C476.05333333333334,338.27040000000005,482.02666666666664,336.3529371428572,488,334.85801142857144C493.97333333333336,333.3630857142857,499.94666666666666,332.3468571428572,505.92,330.9909942857143C511.8933333333334,329.6351314285714,517.8666666666667,328.18527634285715,523.84,326.72283428571427C535.7866666666666,323.79795017142857,547.7333333333333,322.77316388571427,559.68,317.47151725714286C565.6533333333333,314.82069394285713,571.6266666666667,311.1240198857143,577.6,307.8556416C583.5733333333334,304.58726331428574,589.5466666666666,301.25833919999997,595.52,297.86124754285714C601.4933333333333,294.46415588571426,607.4666666666667,291.0040045714286,613.44,287.4730916571429C619.4133333333334,283.9421787428572,625.3866666666667,280.34577257142865,631.36,276.6757700571429C637.3333333333334,273.0057675428572,643.3066666666667,269.26765097142857,649.2800000000001,265.45307657142854C655.2533333333333,261.63850217142857,661.2266666666667,257.7531126857143,667.1999999999999,253.78832365714294C673.1733333333333,249.8235346285715,679.1466666666666,245.78528297142867,685.12,241.66434240000007C691.0933333333334,237.5434018285715,697.0666666666666,233.34597668571428,703.04,229.06268022857142C709.0133333333333,224.77938377142854,714.9866666666667,220.41655405714292,720.96,215.9645636571429C726.9333333333334,211.5125732571429,732.9066666666666,206.97808114285712,738.88,202.35073782857143C744.8533333333334,197.7233945142857,750.8266666666667,193.01012640000005,756.8000000000001,188.2005037714286C762.7733333333333,183.3908811428572,768.7466666666667,178.4920443428571,774.7199999999999,173.49300205714286C780.6933333333333,168.49395977142856,786.6666666666666,163.4022000000001,792.64,158.20625005714294C798.6133333333333,153.01030011428583,804.5866666666666,147.71791542857144,810.56,142.31730240000002C816.5333333333333,136.91668937142856,822.5066666666667,131.4158976,828.48,125.80257188571426C834.4533333333334,120.18924617142856,840.4266666666666,114.47178377142855,846.4,108.63734811428571C852.3733333333333,102.80291245714285,858.3466666666667,96.86019497142861,864.32,90.79595794285717C870.2933333333334,84.73172091428576,876.2666666666667,78.49182342857146,882.24,72.25192594285716L882.24,72.25192594285716C876.2666666666667,78.49182342857146,870.2933333333334,84.73172091428576,864.32,90.79595794285717C858.3466666666667,96.86019497142861,852.3733333333333,102.80291245714285,846.4,108.63734811428571C840.4266666666666,114.47178377142855,834.4533333333334,120.18924617142856,828.48,125.80257188571426C822.5066666666667,131.4158976,816.5333333333333,136.91668937142856,810.56,142.31730240000002C804.5866666666666,147.71791542857144,798.6133333333333,153.01030011428583,792.64,158.20625005714294C786.6666666666666,163.4022000000001,780.6933333333333,168.49395977142856,774.7199999999999,173.49300205714286C768.7466666666667,178.4920443428571,762.7733333333333,183.3908811428572,756.8000000000001,188.2005037714286C750.8266666666667,193.01012640000005,744.8533333333334,197.7233945142857,738.88,202.35073782857143C732.9066666666666,206.97808114285712,726.9333333333334,211.5125732571429,720.96,215.9645636571429C714.9866666666667,220.41655405714292,709.0133333333333,224.77938377142854,703.04,229.06268022857142C697.0666666666666,233.34597668571428,691.0933333333334,237.5434018285715,685.12,241.66434240000007C679.1466666666666,245.78528297142867,673.1733333333333,249.8235346285715,667.1999999999999,253.78832365714294C661.2266666666667,257.7531126857143,655.2533333333333,261.63850217142857,649.2800000000001,265.45307657142854C643.3066666666667,269.26765097142857,637.3333333333334,273.0057675428572,631.36,276.6757700571429C625.3866666666667,280.34577257142865,619.4133333333334,283.9421787428572,613.44,287.4730916571429C607.4666666666667,291.0040045714286,601.4933333333333,294.46415588571426,595.52,297.86124754285714C589.5466666666666,301.25833919999997,583.5733333333334,304.58726331428574,577.6,307.8556416C571.6266666666667,311.1240198857143,565.6533333333333,314.82069394285713,559.68,317.47151725714286C547.7333333333333,322.77316388571427,535.7866666666666,323.79795017142857,523.84,326.72283428571427C517.8666666666667,328.18527634285715,511.8933333333334,329.6351314285714,505.92,330.9909942857143C499.94666666666666,332.3468571428572,493.97333333333336,333.3630857142857,488,334.85801142857144C482.02666666666664,336.3529371428572,476.05333333333334,338.27040000000005,470.08,339.9605485714286C464.1066666666667,341.65069714285715,458.1333333333333,343.01993142857145,452.16,344.99890285714287C446.18666666666667,346.9778742857143,440.21333333333337,349.8447085714286,434.24,351.8343771428572C428.26666666666665,353.8240457142858,422.29333333333335,355.56500571428575,416.32,356.9369142857143C410.3466666666667,358.30882285714284,404.37333333333333,357.97988571428573,398.40000000000003,360.0658285714286C392.4266666666667,362.15177142857146,386.4533333333334,368.15286857142854,380.48,370.88063999999997C374.50666666666666,373.6084114285714,368.53333333333336,373.2233142857143,362.56,376.4324571428572C356.5866666666667,379.64160000000004,350.61333333333334,385.90477714285714,344.64000000000004,390.13549714285716C338.6666666666667,394.3662171428572,332.6933333333334,397.94173714285716,326.72,401.8167771428572C320.74666666666667,405.6918171428572,314.77333333333337,409.6577828571428,308.8,413.3857371428571C302.82666666666665,417.1136914285714,296.85333333333335,420.6811885714286,290.88,424.1845028571429C284.9066666666667,427.68781714285717,278.93333333333334,431.04672000000005,272.96000000000004,434.4056228571429C266.9866666666667,437.76452571428575,261.0133333333333,440.93622857142856,255.04,444.33792C249.06666666666666,447.73961142857144,243.09333333333333,452.2083428571429,237.12,454.81577142857145C231.14666666666668,457.4232,225.17333333333335,458.2308342857143,219.20000000000002,459.98249142857145C213.2266666666667,461.7341485714286,207.25333333333333,463.68102857142856,201.28,465.3257142857143C195.30666666666667,466.9704,189.33333333333334,468.06685714285715,183.36,469.85060571428573C177.38666666666668,471.6343542857143,171.41333333333333,474.3059657142857,165.44,476.0282057142857C159.46666666666667,477.7504457142857,153.4933333333333,478.74260571428573,147.51999999999998,480.18404571428573C141.54666666666665,481.62548571428573,135.57333333333335,483.15785142857146,129.60000000000002,484.6768457142857C123.62666666666668,486.19584000000003,117.65333333333335,487.80843428571427,111.68,489.29801142857144C105.70666666666666,490.7875885714286,99.73333333333333,492.43762285714286,93.75999999999999,493.6143085714286C87.78666666666666,494.7909942857143,81.81333333333333,495.34992,75.84,496.35812571428573C69.86666666666667,497.36633142857147,63.89333333333334,498.51493714285715,57.92,499.6635428571429Z"/></g><g class="series" pointer-events="none"><path class="area" transform="translate(15,20)" fill-opacity="0" fill="#802392" clip-path="url(#clip-0-1)" d="M57.92,514.8267428571429C63.89333333333334,513.3746057142857,69.86666666666667,511.92246857142857,75.84,510.9276342857143C81.81333333333333,509.93280000000004,87.78666666666666,509.7161828571429,93.75999999999999,508.85773714285716C99.73333333333333,507.99929142857144,105.70666666666666,506.8333028571429,111.68,505.77696000000003C117.65333333333335,504.7206171428572,123.62666666666668,503.83275428571426,129.60000000000002,502.51968C135.57333333333335,501.20660571428573,141.54666666666665,499.5886628571429,147.51999999999998,497.8985142857143C153.4933333333333,496.2083657142858,159.46666666666667,494.27218285714287,165.44,492.3787885714286C171.41333333333333,490.4853942857143,177.38666666666668,488.39677714285716,183.36,486.53814857142856C189.33333333333334,484.67952,195.30666666666667,483.0535542857143,201.28,481.22701714285716C207.25333333333333,479.40048,213.2266666666667,477.85474285714287,219.20000000000002,475.57892571428573C225.17333333333335,473.3031085714286,231.14666666666668,470.69300571428573,237.12,467.5721142857143C243.09333333333333,464.45122285714285,249.06666666666666,460.4184,255.04,456.85357714285715C261.0133333333333,453.2887542857143,266.9866666666667,449.79613714285716,272.96000000000004,446.1831771428572C278.93333333333334,442.5702171428572,284.9066666666667,438.6871542857143,290.88,435.17581714285717C296.85333333333335,431.66448,302.82666666666665,428.7281142857143,308.8,425.1151542857143C314.77333333333337,421.5021942857143,320.74666666666667,417.12706285714285,326.72,413.49805714285714C332.6933333333334,409.8690514285714,338.6666666666667,407.0958171428572,344.64000000000004,403.34112000000005C350.61333333333334,399.5864228571429,356.5866666666667,394.0720457142857,362.56,390.9698742857143C368.53333333333336,387.8677028571429,374.50666666666666,386.96112000000005,380.48,384.7280914285715C386.4533333333334,382.4950628571429,392.4266666666667,380.39040000000006,398.40000000000003,377.5717028571429C404.37333333333333,374.75300571428573,410.3466666666667,370.5222857142858,416.32,367.8159085714286C422.29333333333335,365.1095314285715,428.26666666666665,362.82301714285717,434.24,361.33344C440.21333333333337,359.8438628571428,446.18666666666667,359.9829257142857,452.16,358.8784457142857C458.1333333333333,357.77396571428574,464.1066666666667,356.21485714285717,470.08,354.70656C476.05333333333334,353.1982628571429,482.02666666666664,351.3530057142857,488,349.82866285714283C493.97333333333336,348.30431999999996,499.94666666666666,347.09554285714285,505.92,345.56050285714286C511.8933333333334,344.0254628571429,517.8666666666667,342.29787428571433,523.84,340.6184228571429C529.8133333333334,338.93897142857145,535.7866666666666,337.0024944,541.76,335.4837942857143C547.7333333333333,333.9650941714286,553.7066666666666,333.750456,559.68,331.5062221714286C565.6533333333333,329.26198834285714,571.6266666666667,325.24622742857144,577.6,322.01839131428574C583.5733333333334,318.79055520000003,589.5466666666666,315.50014080000005,595.52,312.13920548571434C601.4933333333333,308.77827017142863,607.4666666666667,305.35229622857145,613.44,301.8527794285714C619.4133333333334,298.35326262857143,625.3866666666667,294.7859526857143,631.36,291.1421046857143C637.3333333333334,287.4982566857143,643.3066666666667,283.7837808,649.2800000000001,279.9896914285714C655.2533333333333,276.1956020571429,661.2266666666667,272.32810354285715,667.1999999999999,268.3775684571429C673.1733333333333,264.4270333714286,679.1466666666666,260.39990674285724,685.12,256.2864809142858C691.0933333333334,252.17305508571437,697.0666666666666,247.98006925714282,703.04,243.69701348571425C709.0133333333333,239.41395771428566,714.9866666666667,235.04781188571428,720.96,230.5881462857143C726.9333333333334,226.12848068571432,732.9066666666666,221.5825693714286,738.88,216.93901988571434C744.8533333333334,212.29547040000006,750.8266666666667,207.56190445714293,756.8000000000001,202.7268493714286C762.7733333333333,197.89179428571435,768.7466666666667,192.96308571428574,774.7199999999999,187.92868937142862C780.6933333333333,182.89429302857144,786.6666666666666,177.76244571428575,792.64,172.52047131428571C798.6133333333333,167.2784969142857,804.5866666666666,161.93500662857136,810.56,156.47684297142854C816.5333333333333,151.01867931428566,822.5066666666667,145.4547209142858,828.48,139.77148937142863C834.4533333333334,134.0882578285715,840.4266666666666,128.29500617142855,846.4,122.3774537142857C852.3733333333333,116.45990125714282,858.3466666666667,110.42775565714282,864.32,104.26617462857138C870.2933333333334,98.10459359999997,876.2666666666667,91.75628057142855,882.24,85.40796754285714L882.24,85.40796754285714C876.2666666666667,91.75628057142855,870.2933333333334,98.10459359999997,864.32,104.26617462857138C858.3466666666667,110.42775565714282,852.3733333333333,116.45990125714282,846.4,122.3774537142857C840.4266666666666,128.29500617142855,834.4533333333334,134.0882578285715,828.48,139.77148937142863C822.5066666666667,145.4547209142858,816.5333333333333,151.01867931428566,810.56,156.47684297142854C804.5866666666666,161.93500662857136,798.6133333333333,167.2784969142857,792.64,172.52047131428571C786.6666666666666,177.76244571428575,780.6933333333333,182.89429302857144,774.7199999999999,187.92868937142862C768.7466666666667,192.96308571428574,762.7733333333333,197.89179428571435,756.8000000000001,202.7268493714286C750.8266666666667,207.56190445714293,744.8533333333334,212.29547040000006,738.88,216.93901988571434C732.9066666666666,221.5825693714286,726.9333333333334,226.12848068571432,720.96,230.5881462857143C714.9866666666667,235.04781188571428,709.0133333333333,239.41395771428566,703.04,243.69701348571425C697.0666666666666,247.98006925714282,691.0933333333334,252.17305508571437,685.12,256.2864809142858C679.1466666666666,260.39990674285724,673.1733333333333,264.4270333714286,667.1999999999999,268.3775684571429C661.2266666666667,272.32810354285715,655.2533333333333,276.1956020571429,649.2800000000001,279.9896914285714C643.3066666666667,283.7837808,637.3333333333334,287.4982566857143,631.36,291.1421046857143C625.3866666666667,294.7859526857143,619.4133333333334,298.35326262857143,613.44,301.8527794285714C607.4666666666667,305.35229622857145,601.4933333333333,308.77827017142863,595.52,312.13920548571434C589.5466666666666,315.50014080000005,583.5733333333334,318.79055520000003,577.6,322.01839131428574C571.6266666666667,325.24622742857144,565.6533333333333,329.26198834285714,559.68,331.5062221714286C553.7066666666666,333.750456,547.7333333333333,333.9650941714286,541.76,335.4837942857143C535.7866666666666,337.0024944,529.8133333333334,338.93897142857145,523.84,340.6184228571429C517.8666666666667,342.29787428571433,511.8933333333334,344.0254628571429,505.92,345.56050285714286C499.94666666666666,347.09554285714285,493.97333333333336,348.30431999999996,488,349.82866285714283C482.02666666666664,351.3530057142857,476.05333333333334,353.1982628571429,470.08,354.70656C464.1066666666667,356.21485714285717,458.1333333333333,357.77396571428574,452.16,358.8784457142857C446.18666666666667,359.9829257142857,440.21333333333337,359.8438628571428,434.24,361.33344C428.26666666666665,362.82301714285717,422.29333333333335,365.1095314285715,416.32,367.8159085714286C410.3466666666667,370.5222857142858,404.37333333333333,374.75300571428573,398.40000000000003,377.5717028571429C392.4266666666667,380.39040000000006,386.4533333333334,382.4950628571429,380.48,384.7280914285715C374.50666666666666,386.96112000000005,368.53333333333336,387.8677028571429,362.56,390.9698742857143C356.5866666666667,394.0720457142857,350.61333333333334,399.5864228571429,344.64000000000004,403.34112000000005C338.6666666666667,407.0958171428572,332.6933333333334,409.8690514285714,326.72,413.49805714285714C320.74666666666667,417.12706285714285,314.77333333333337,421.5021942857143,308.8,425.1151542857143C302.82666666666665,428.7281142857143,296.85333333333335,431.66448,290.88,435.17581714285717C284.9066666666667,438.6871542857143,278.93333333333334,442.5702171428572,272.96000000000004,446.1831771428572C266.9866666666667,449.79613714285716,261.0133333333333,453.2887542857143,255.04,456.85357714285715C249.06666666666666,460.4184,243.09333333333333,464.45122285714285,237.12,467.5721142857143C231.14666666666668,470.69300571428573,225.17333333333335,473.3031085714286,219.20000000000002,475.57892571428573C213.2266666666667,477.85474285714287,207.25333333333333,479.40048,201.28,481.22701714285716C195.30666666666667,483.0535542857143,189.33333333333334,484.67952,183.36,486.53814857142856C177.38666666666668,488.39677714285716,171.41333333333333,490.4853942857143,165.44,492.3787885714286C159.46666666666667,494.27218285714287,153.4933333333333,496.2083657142858,147.51999999999998,497.8985142857143C141.54666666666665,499.5886628571429,135.57333333333335,501.20660571428573,129.60000000000002,502.51968C123.62666666666668,503.83275428571426,117.65333333333335,504.7206171428572,111.68,505.77696000000003C105.70666666666666,506.8333028571429,99.73333333333333,507.99929142857144,93.75999999999999,508.85773714285716C87.78666666666666,509.7161828571429,81.81333333333333,509.93280000000004,75.84,510.9276342857143C69.86666666666667,511.92246857142857,63.89333333333334,513.3746057142857,57.92,514.8267428571429Z"/></g></g><g id="lines"><g class="series"><clipPath id="clip-0-0"><rect width="936" y="-20" height="599.6"/></clipPath><path class="line" opacity="1" fill="none" stroke="#11A579" stroke-width="2" transform="translate(15,20)" clip-path="url(#clip-0-0)" d="M57.92,499.6635428571429C63.89333333333334,498.51493714285715,69.86666666666667,497.36633142857147,75.84,496.35812571428573C81.81333333333333,495.34992,87.78666666666666,494.7909942857143,93.75999999999999,493.6143085714286C99.73333333333333,492.43762285714286,105.70666666666666,490.7875885714286,111.68,489.29801142857144C117.65333333333335,487.80843428571427,123.62666666666668,486.19584000000003,129.60000000000002,484.6768457142857C135.57333333333335,483.15785142857146,141.54666666666665,481.62548571428573,147.51999999999998,480.18404571428573C153.4933333333333,478.74260571428573,159.46666666666667,477.7504457142857,165.44,476.0282057142857C171.41333333333333,474.3059657142857,177.38666666666668,471.6343542857143,183.36,469.85060571428573C189.33333333333334,468.06685714285715,195.30666666666667,466.9704,201.28,465.3257142857143C207.25333333333333,463.68102857142856,213.2266666666667,461.7341485714286,219.20000000000002,459.98249142857145C225.17333333333335,458.2308342857143,231.14666666666668,457.4232,237.12,454.81577142857145C243.09333333333333,452.2083428571429,249.06666666666666,447.73961142857144,255.04,444.33792C261.0133333333333,440.93622857142856,266.9866666666667,437.76452571428575,272.96000000000004,434.4056228571429C278.93333333333334,431.04672000000005,284.9066666666667,427.68781714285717,290.88,424.1845028571429C296.85333333333335,420.6811885714286,302.82666666666665,417.1136914285714,308.8,413.3857371428571C314.77333333333337,409.6577828571428,320.74666666666667,405.6918171428572,326.72,401.8167771428572C332.6933333333334,397.94173714285716,338.6666666666667,394.3662171428572,344.64000000000004,390.13549714285716C350.61333333333334,385.90477714285714,356.5866666666667,379.64160000000004,362.56,376.4324571428572C368.53333333333336,373.2233142857143,374.50666666666666,373.6084114285714,380.48,370.88063999999997C386.4533333333334,368.15286857142854,392.4266666666667,362.15177142857146,398.40000000000003,360.0658285714286C404.37333333333333,357.97988571428573,410.3466666666667,358.30882285714284,416.32,356.9369142857143C422.29333333333335,355.56500571428575,428.26666666666665,353.8240457142858,434.24,351.8343771428572C440.21333333333337,349.8447085714286,446.18666666666667,346.9778742857143,452.16,344.99890285714287C458.1333333333333,343.01993142857145,464.1066666666667,341.65069714285715,470.08,339.9605485714286C476.05333333333334,338.27040000000005,482.02666666666664,336.3529371428572,488,334.85801142857144C493.97333333333336,333.3630857142857,499.94666666666666,332.3468571428572,505.92,330.9909942857143C511.8933333333334,329.6351314285714,517.8666666666667,328.18527634285715,523.84,326.72283428571427C535.7866666666666,323.79795017142857,547.7333333333333,322.77316388571427,559.68,317.47151725714286C565.6533333333333,314.82069394285713,571.6266666666667,311.1240198857143,577.6,307.8556416C583.5733333333334,304.58726331428574,589.5466666666666,301.25833919999997,595.52,297.86124754285714C601.4933333333333,294.46415588571426,607.4666666666667,291.0040045714286,613.44,287.4730916571429C619.4133333333334,283.9421787428572,625.3866666666667,280.34577257142865,631.36,276.6757700571429C637.3333333333334,273.0057675428572,643.3066666666667,269.26765097142857,649.2800000000001,265.45307657142854C655.2533333333333,261.63850217142857,661.2266666666667,257.7531126857143,667.1999999999999,253.78832365714294C673.1733333333333,249.8235346285715,679.1466666666666,245.78528297142867,685.12,241.66434240000007C691.0933333333334,237.5434018285715,697.0666666666666,233.34597668571428,703.04,229.06268022857142C709.0133333333333,224.77938377142854,714.9866666666667,220.41655405714292,720.96,215.9645636571429C726.9333333333334,211.5125732571429,732.9066666666666,206.97808114285712,738.88,202.35073782857143C744.8533333333334,197.7233945142857,750.8266666666667,193.01012640000005,756.8000000000001,188.2005037714286C762.7733333333333,183.3908811428572,768.7466666666667,178.4920443428571,774.7199999999999,173.49300205714286C780.6933333333333,168.49395977142856,786.6666666666666,163.4022000000001,792.64,158.20625005714294C798.6133333333333,153.01030011428583,804.5866666666666,147.71791542857144,810.56,142.31730240000002C816.5333333333333,136.91668937142856,822.5066666666667,131.4158976,828.48,125.80257188571426C834.4533333333334,120.18924617142856,840.4266666666666,114.47178377142855,846.4,108.63734811428571C852.3733333333333,102.80291245714285,858.3466666666667,96.86019497142861,864.32,90.79595794285717C870.2933333333334,84.73172091428576,876.2666666666667,78.49182342857146,882.24,72.25192594285716"/><text class="label" font-size="11" alignment-baseline="middle" opacity="1" x="5" fill="#11A579" transform="translate(897.239990234375, 92.25192260742188)"/></g><g class="series"><clipPath id="clip-0-1"><rect width="936" y="-20" height="599.6"/></clipPath><path class="line" opacity="1" fill="none" stroke="#802392" stroke-width="2" transform="translate(15,20)" clip-path="url(#clip-0-1)" d="M57.92,514.8267428571429C63.89333333333334,513.3746057142857,69.86666666666667,511.92246857142857,75.84,510.9276342857143C81.81333333333333,509.93280000000004,87.78666666666666,509.7161828571429,93.75999999999999,508.85773714285716C99.73333333333333,507.99929142857144,105.70666666666666,506.8333028571429,111.68,505.77696000000003C117.65333333333335,504.7206171428572,123.62666666666668,503.83275428571426,129.60000000000002,502.51968C135.57333333333335,501.20660571428573,141.54666666666665,499.5886628571429,147.51999999999998,497.8985142857143C153.4933333333333,496.2083657142858,159.46666666666667,494.27218285714287,165.44,492.3787885714286C171.41333333333333,490.4853942857143,177.38666666666668,488.39677714285716,183.36,486.53814857142856C189.33333333333334,484.67952,195.30666666666667,483.0535542857143,201.28,481.22701714285716C207.25333333333333,479.40048,213.2266666666667,477.85474285714287,219.20000000000002,475.57892571428573C225.17333333333335,473.3031085714286,231.14666666666668,470.69300571428573,237.12,467.5721142857143C243.09333333333333,464.45122285714285,249.06666666666666,460.4184,255.04,456.85357714285715C261.0133333333333,453.2887542857143,266.9866666666667,449.79613714285716,272.96000000000004,446.1831771428572C278.93333333333334,442.5702171428572,284.9066666666667,438.6871542857143,290.88,435.17581714285717C296.85333333333335,431.66448,302.82666666666665,428.7281142857143,308.8,425.1151542857143C314.77333333333337,421.5021942857143,320.74666666666667,417.12706285714285,326.72,413.49805714285714C332.6933333333334,409.8690514285714,338.6666666666667,407.0958171428572,344.64000000000004,403.34112000000005C350.61333333333334,399.5864228571429,356.5866666666667,394.0720457142857,362.56,390.9698742857143C368.53333333333336,387.8677028571429,374.50666666666666,386.96112000000005,380.48,384.7280914285715C386.4533333333334,382.4950628571429,392.4266666666667,380.39040000000006,398.40000000000003,377.5717028571429C404.37333333333333,374.75300571428573,410.3466666666667,370.5222857142858,416.32,367.8159085714286C422.29333333333335,365.1095314285715,428.26666666666665,362.82301714285717,434.24,361.33344C440.21333333333337,359.8438628571428,446.18666666666667,359.9829257142857,452.16,358.8784457142857C458.1333333333333,357.77396571428574,464.1066666666667,356.21485714285717,470.08,354.70656C476.05333333333334,353.1982628571429,482.02666666666664,351.3530057142857,488,349.82866285714283C493.97333333333336,348.30431999999996,499.94666666666666,347.09554285714285,505.92,345.56050285714286C511.8933333333334,344.0254628571429,517.8666666666667,342.29787428571433,523.84,340.6184228571429C529.8133333333334,338.93897142857145,535.7866666666666,337.0024944,541.76,335.4837942857143C547.7333333333333,333.9650941714286,553.7066666666666,333.750456,559.68,331.5062221714286C565.6533333333333,329.26198834285714,571.6266666666667,325.24622742857144,577.6,322.01839131428574C583.5733333333334,318.79055520000003,589.5466666666666,315.50014080000005,595.52,312.13920548571434C601.4933333333333,308.77827017142863,607.4666666666667,305.35229622857145,613.44,301.8527794285714C619.4133333333334,298.35326262857143,625.3866666666667,294.7859526857143,631.36,291.1421046857143C637.3333333333334,287.4982566857143,643.3066666666667,283.7837808,649.2800000000001,279.9896914285714C655.2533333333333,276.1956020571429,661.2266666666667,272.32810354285715,667.1999999999999,268.3775684571429C673.1733333333333,264.4270333714286,679.1466666666666,260.39990674285724,685.12,256.2864809142858C691.0933333333334,252.17305508571437,697.0666666666666,247.98006925714282,703.04,243.69701348571425C709.0133333333333,239.41395771428566,714.9866666666667,235.04781188571428,720.96,230.5881462857143C726.9333333333334,226.12848068571432,732.9066666666666,221.5825693714286,738.88,216.93901988571434C744.8533333333334,212.29547040000006,750.8266666666667,207.56190445714293,756.8000000000001,202.7268493714286C762.7733333333333,197.89179428571435,768.7466666666667,192.96308571428574,774.7199999999999,187.92868937142862C780.6933333333333,182.89429302857144,786.6666666666666,177.76244571428575,792.64,172.52047131428571C798.6133333333333,167.2784969142857,804.5866666666666,161.93500662857136,810.56,156.47684297142854C816.5333333333333,151.01867931428566,822.5066666666667,145.4547209142858,828.48,139.77148937142863C834.4533333333334,134.0882578285715,840.4266666666666,128.29500617142855,846.4,122.3774537142857C852.3733333333333,116.45990125714282,858.3466666666667,110.42775565714282,864.32,104.26617462857138C870.2933333333334,98.10459359999997,876.2666666666667,91.75628057142855,882.24,85.40796754285714"/><text class="label" font-size="11" alignment-baseline="middle" opacity="1" x="5" fill="#802392" transform="translate(897.239990234375, 105.40796661376953)"/></g></g><g id="data-points"><g class="series" transform="translate(15,20)"><path class="data-point" fill="#11A579" data-type="point" transform="translate(0, 0)" d="M54.92,499.6635428571429A3,3,0,1,1,60.92,499.6635428571429A3,3,0,1,1,54.92,499.6635428571429Z" id="point-0-0" opacity="1"/><path class="data-point" fill="#11A579" data-type="point" transform="translate(0, 0)" d="M72.84,496.35812571428573A3,3,0,1,1,78.84,496.35812571428573A3,3,0,1,1,72.84,496.35812571428573Z" id="point-0-1" opacity="1"/><path class="data-point" fill="#11A579" data-type="point" transform="translate(0, 0)" d="M90.75999999999999,493.6143085714286A3,3,0,1,1,96.75999999999999,493.6143085714286A3,3,0,1,1,90.75999999999999,493.6143085714286Z" id="point-0-2" opacity="1"/><path class="data-point" fill="#11A579" data-type="point" transform="translate(0, 0)" d="M108.68,489.29801142857144A3,3,0,1,1,114.68,489.29801142857144A3,3,0,1,1,108.68,489.29801142857144Z" id="point-0-3" opacity="1"/><path class="data-point" fill="#11A579" data-type="point" transform="translate(0, 0)" d="M126.60000000000002,484.6768457142857A3,3,0,1,1,132.60000000000002,484.6768457142857A3,3,0,1,1,126.60000000000002,484.6768457142857Z" id="point-0-4" opacity="1"/><path class="data-point" fill="#11A579" data-type="point" transform="translate(0, 0)" d="M144.51999999999998,480.18404571428573A3,3,0,1,1,150.51999999999998,480.18404571428573A3,3,0,1,1,144.51999999999998,480.18404571428573Z" id="point-0-5" opacity="1"/><path class="data-point" fill="#11A579" data-type="point" transform="translate(0, 0)" d="M162.44,476.0282057142857A3,3,0,1,1,168.44,476.0282057142857A3,3,0,1,1,162.44,476.0282057142857Z" id="point-0-6" opacity="1"/><path class="data-point" fill="#11A579" data-type="point" transform="translate(0, 0)" d="M180.36,469.85060571428573A3,3,0,1,1,186.36,469.85060571428573A3,3,0,1,1,180.36,469.85060571428573Z" id="point-0-7" opacity="1"/><path class="data-point" fill="#11A579" data-type="point" transform="translate(0, 0)" d="M198.28,465.3257142857143A3,3,0,1,1,204.28,465.3257142857143A3,3,0,1,1,198.28,465.3257142857143Z" id="point-0-8" opacity="1"/><path class="data-point" fill="#11A579" data-type="point" transform="translate(0, 0)" d="M216.20000000000002,459.98249142857145A3,3,0,1,1,222.20000000000002,459.98249142857145A3,3,0,1,1,216.20000000000002,459.98249142857145Z" id="point-0-9" opacity="1"/><path class="data-point" fill="#11A579" data-type="point" transform="translate(0, 0)" d="M234.12,454.81577142857145A3,3,0,1,1,240.12,454.81577142857145A3,3,0,1,1,234.12,454.81577142857145Z" id="point-0-10" opacity="1"/><path class="data-point" fill="#11A579" data-type="point" transform="translate(0, 0)" d="M252.04,444.33792A3,3,0,1,1,258.03999999999996,444.33792A3,3,0,1,1,252.04,444.33792Z" id="point-0-11" opacity="1"/><path class="data-point" fill="#11A579" data-type="point" transform="translate(0, 0)" d="M269.96000000000004,434.4056228571429A3,3,0,1,1,275.96000000000004,434.4056228571429A3,3,0,1,1,269.96000000000004,434.4056228571429Z" id="point-0-12" opacity="1"/><path class="data-point" fill="#11A579" data-type="point" transform="translate(0, 0)" d="M287.88,424.1845028571429A3,3,0,1,1,293.88,424.1845028571429A3,3,0,1,1,287.88,424.1845028571429Z" id="point-0-13" opacity="1"/><path class="data-point" fill="#11A579" data-type="point" transform="translate(0, 0)" d="M305.8,413.3857371428571A3,3,0,1,1,311.8,413.3857371428571A3,3,0,1,1,305.8,413.3857371428571Z" id="point-0-14" opacity="1"/><path class="data-point" fill="#11A579" data-type="point" transform="translate(0, 0)" d="M323.72,401.8167771428572A3,3,0,1,1,329.72,401.8167771428572A3,3,0,1,1,323.72,401.8167771428572Z" id="point-0-15" opacity="1"/><path class="data-point" fill="#11A579" data-type="point" transform="translate(0, 0)" d="M341.64000000000004,390.13549714285716A3,3,0,1,1,347.64000000000004,390.13549714285716A3,3,0,1,1,341.64000000000004,390.13549714285716Z" id="point-0-16" opacity="1"/><path class="data-point" fill="#11A579" data-type="point" transform="translate(0, 0)" d="M359.56,376.4324571428572A3,3,0,1,1,365.56,376.4324571428572A3,3,0,1,1,359.56,376.4324571428572Z" id="point-0-17" opacity="1"/><path class="data-point" fill="#11A579" data-type="point" transform="translate(0, 0)" d="M377.48,370.88063999999997A3,3,0,1,1,383.48,370.88063999999997A3,3,0,1,1,377.48,370.88063999999997Z" id="point-0-18" opacity="1"/><path class="data-point" fill="#11A579" data-type="point" transform="translate(0, 0)" d="M395.40000000000003,360.0658285714286A3,3,0,1,1,401.40000000000003,360.0658285714286A3,3,0,1,1,395.40000000000003,360.0658285714286Z" id="point-0-19" opacity="1"/><path class="data-point" fill="#11A579" data-type="point" transform="translate(0, 0)" d="M413.32,356.9369142857143A3,3,0,1,1,419.32,356.9369142857143A3,3,0,1,1,413.32,356.9369142857143Z" id="point-0-20" opacity="1"/><path class="data-point" fill="#11A579" data-type="point" transform="translate(0, 0)" d="M431.24,351.8343771428572A3,3,0,1,1,437.24,351.8343771428572A3,3,0,1,1,431.24,351.8343771428572Z" id="point-0-21" opacity="1"/><path class="data-point" fill="#11A579" data-type="point" transform="translate(0, 0)" d="M449.16,344.99890285714287A3,3,0,1,1,455.16,344.99890285714287A3,3,0,1,1,449.16,344.99890285714287Z" id="point-0-22" opacity="1"/><path class="data-point" fill="#11A579" data-type="point" transform="translate(0, 0)" d="M467.08,339.9605485714286A3,3,0,1,1,473.08,339.9605485714286A3,3,0,1,1,467.08,339.9605485714286Z" id="point-0-23" opacity="1"/><path class="data-point" fill="#11A579" data-type="point" transform="translate(0, 0)" d="M485,334.85801142857144A3,3,0,1,1,491,334.85801142857144A3,3,0,1,1,485,334.85801142857144Z" id="point-0-24" opacity="1"/><path class="data-point" fill="#11A579" data-type="point" transform="translate(0, 0)" d="M502.92,330.9909942857143A3,3,0,1,1,508.92,330.9909942857143A3,3,0,1,1,502.92,330.9909942857143Z" id="point-0-25" opacity="1"/><path class="data-point" fill="#11A579" data-type="point" transform="translate(0, 0)" d="M520.84,326.72283428571427A3,3,0,1,1,526.84,326.72283428571427A3,3,0,1,1,520.84,326.72283428571427Z" id="point-0-26" opacity="1"/><path class="data-point" fill="#11A579" data-type="point" transform="translate(0, 0)" d="M556.68,317.47151725714286A3,3,0,1,1,562.68,317.47151725714286A3,3,0,1,1,556.68,317.47151725714286Z" id="point-0-28" opacity="1"/><path class="data-point" fill="#11A579" data-type="point" transform="translate(0, 0)" d="M574.6,307.8556416A3,3,0,1,1,580.6,307.8556416A3,3,0,1,1,574.6,307.8556416Z" id="point-0-29" opacity="1"/><path class="data-point" fill="#11A579" data-type="point" transform="translate(0, 0)" d="M592.52,297.86124754285714A3,3,0,1,1,598.52,297.86124754285714A3,3,0,1,1,592.52,297.86124754285714Z" id="point-0-30" opacity="1"/><path class="data-point" fill="#11A579" data-type="point" transform="translate(0, 0)" d="M610.44,287.4730916571429A3,3,0,1,1,616.44,287.4730916571429A3,3,0,1,1,610.44,287.4730916571429Z" id="point-0-31" opacity="1"/><path class="data-point" fill="#11A579" data-type="point" transform="translate(0, 0)" d="M628.36,276.6757700571429A3,3,0,1,1,634.36,276.6757700571429A3,3,0,1,1,628.36,276.6757700571429Z" id="point-0-32" opacity="1"/><path class="data-point" fill="#11A579" data-type="point" transform="translate(0, 0)" d="M646.2800000000001,265.45307657142854A3,3,0,1,1,652.2800000000001,265.45307657142854A3,3,0,1,1,646.2800000000001,265.45307657142854Z" id="point-0-33" opacity="1"/><path class="data-point" fill="#11A579" data-type="point" transform="translate(0, 0)" d="M664.1999999999999,253.78832365714294A3,3,0,1,1,670.1999999999999,253.78832365714294A3,3,0,1,1,664.1999999999999,253.78832365714294Z" id="point-0-34" opacity="1"/><path class="data-point" fill="#11A579" data-type="point" transform="translate(0, 0)" d="M682.12,241.66434240000007A3,3,0,1,1,688.12,241.66434240000007A3,3,0,1,1,682.12,241.66434240000007Z" id="point-0-35" opacity="1"/><path class="data-point" fill="#11A579" data-type="point" transform="translate(0, 0)" d="M700.04,229.06268022857142A3,3,0,1,1,706.04,229.06268022857142A3,3,0,1,1,700.04,229.06268022857142Z" id="point-0-36" opacity="1"/><path class="data-point" fill="#11A579" data-type="point" transform="translate(0, 0)" d="M717.96,215.9645636571429A3,3,0,1,1,723.96,215.9645636571429A3,3,0,1,1,717.96,215.9645636571429Z" id="point-0-37" opacity="1"/><path class="data-point" fill="#11A579" data-type="point" transform="translate(0, 0)" d="M735.88,202.35073782857143A3,3,0,1,1,741.88,202.35073782857143A3,3,0,1,1,735.88,202.35073782857143Z" id="point-0-38" opacity="1"/><path class="data-point" fill="#11A579" data-type="point" transform="translate(0, 0)" d="M753.8000000000001,188.2005037714286A3,3,0,1,1,759.8000000000001,188.2005037714286A3,3,0,1,1,753.8000000000001,188.2005037714286Z" id="point-0-39" opacity="1"/><path class="data-point" fill="#11A579" data-type="point" transform="translate(0, 0)" d="M771.7199999999999,173.49300205714286A3,3,0,1,1,777.7199999999999,173.49300205714286A3,3,0,1,1,771.7199999999999,173.49300205714286Z" id="point-0-40" opacity="1"/><path class="data-point" fill="#11A579" data-type="point" transform="translate(0, 0)" d="M789.64,158.20625005714294A3,3,0,1,1,795.64,158.20625005714294A3,3,0,1,1,789.64,158.20625005714294Z" id="point-0-41" opacity="1"/><path class="data-point" fill="#11A579" data-type="point" transform="translate(0, 0)" d="M807.56,142.31730240000002A3,3,0,1,1,813.56,142.31730240000002A3,3,0,1,1,807.56,142.31730240000002Z" id="point-0-42" opacity="1"/><path class="data-point" fill="#11A579" data-type="point" transform="translate(0, 0)" d="M825.48,125.80257188571426A3,3,0,1,1,831.48,125.80257188571426A3,3,0,1,1,825.48,125.80257188571426Z" id="point-0-43" opacity="1"/><path class="data-point" fill="#11A579" data-type="point" transform="translate(0, 0)" d="M843.4,108.63734811428571A3,3,0,1,1,849.4,108.63734811428571A3,3,0,1,1,843.4,108.63734811428571Z" id="point-0-44" opacity="1"/><path class="data-point" fill="#11A579" data-type="point" transform="translate(0, 0)" d="M861.32,90.79595794285717A3,3,0,1,1,867.32,90.79595794285717A3,3,0,1,1,861.32,90.79595794285717Z" id="point-0-45" opacity="1"/><path class="data-point" fill="#11A579" data-type="point" transform="translate(0, 0)" d="M879.24,72.25192594285716A3,3,0,1,1,885.24,72.25192594285716A3,3,0,1,1,879.24,72.25192594285716Z" id="point-0-46" opacity="1"/></g><g class="series" transform="translate(15,20)"><path class="data-point" fill="#802392" data-type="point" transform="translate(0, 0)" d="M54.92,514.8267428571429A3,3,0,1,1,60.92,514.8267428571429A3,3,0,1,1,54.92,514.8267428571429Z" id="point-1-0" opacity="1"/><path class="data-point" fill="#802392" data-type="point" transform="translate(0, 0)" d="M72.84,510.9276342857143A3,3,0,1,1,78.84,510.9276342857143A3,3,0,1,1,72.84,510.9276342857143Z" id="point-1-1" opacity="1"/><path class="data-point" fill="#802392" data-type="point" transform="translate(0, 0)" d="M90.75999999999999,508.85773714285716A3,3,0,1,1,96.75999999999999,508.85773714285716A3,3,0,1,1,90.75999999999999,508.85773714285716Z" id="point-1-2" opacity="1"/><path class="data-point" fill="#802392" data-type="point" transform="translate(0, 0)" d="M108.68,505.77696000000003A3,3,0,1,1,114.68,505.77696000000003A3,3,0,1,1,108.68,505.77696000000003Z" id="point-1-3" opacity="1"/><path class="data-point" fill="#802392" data-type="point" transform="translate(0, 0)" d="M126.60000000000002,502.51968A3,3,0,1,1,132.60000000000002,502.51968A3,3,0,1,1,126.60000000000002,502.51968Z" id="point-1-4" opacity="1"/><path class="data-point" fill="#802392" data-type="point" transform="translate(0, 0)" d="M144.51999999999998,497.8985142857143A3,3,0,1,1,150.51999999999998,497.8985142857143A3,3,0,1,1,144.51999999999998,497.8985142857143Z" id="point-1-5" opacity="1"/><path class="data-point" fill="#802392" data-type="point" transform="translate(0, 0)" d="M162.44,492.3787885714286A3,3,0,1,1,168.44,492.3787885714286A3,3,0,1,1,162.44,492.3787885714286Z" id="point-1-6" opacity="1"/><path class="data-point" fill="#802392" data-type="point" transform="translate(0, 0)" d="M180.36,486.53814857142856A3,3,0,1,1,186.36,486.53814857142856A3,3,0,1,1,180.36,486.53814857142856Z" id="point-1-7" opacity="1"/><path class="data-point" fill="#802392" data-type="point" transform="translate(0, 0)" d="M198.28,481.22701714285716A3,3,0,1,1,204.28,481.22701714285716A3,3,0,1,1,198.28,481.22701714285716Z" id="point-1-8" opacity="1"/><path class="data-point" fill="#802392" data-type="point" transform="translate(0, 0)" d="M216.20000000000002,475.57892571428573A3,3,0,1,1,222.20000000000002,475.57892571428573A3,3,0,1,1,216.20000000000002,475.57892571428573Z" id="point-1-9" opacity="1"/><path class="data-point" fill="#802392" data-type="point" transform="translate(0, 0)" d="M234.12,467.5721142857143A3,3,0,1,1,240.12,467.5721142857143A3,3,0,1,1,234.12,467.5721142857143Z" id="point-1-10" opacity="1"/><path class="data-point" fill="#802392" data-type="point" transform="translate(0, 0)" d="M252.04,456.85357714285715A3,3,0,1,1,258.03999999999996,456.85357714285715A3,3,0,1,1,252.04,456.85357714285715Z" id="point-1-11" opacity="1"/><path class="data-point" fill="#802392" data-type="point" transform="translate(0, 0)" d="M269.96000000000004,446.1831771428572A3,3,0,1,1,275.96000000000004,446.1831771428572A3,3,0,1,1,269.96000000000004,446.1831771428572Z" id="point-1-12" opacity="1"/><path class="data-point" fill="#802392" data-type="point" transform="translate(0, 0)" d="M287.88,435.17581714285717A3,3,0,1,1,293.88,435.17581714285717A3,3,0,1,1,287.88,435.17581714285717Z" id="point-1-13" opacity="1"/><path class="data-point" fill="#802392" data-type="point" transform="translate(0, 0)" d="M305.8,425.1151542857143A3,3,0,1,1,311.8,425.1151542857143A3,3,0,1,1,305.8,425.1151542857143Z" id="point-1-14" opacity="1"/><path class="data-point" fill="#802392" data-type="point" transform="translate(0, 0)" d="M323.72,413.49805714285714A3,3,0,1,1,329.72,413.49805714285714A3,3,0,1,1,323.72,413.49805714285714Z" id="point-1-15" opacity="1"/><path class="data-point" fill="#802392" data-type="point" transform="translate(0, 0)" d="M341.64000000000004,403.34112000000005A3,3,0,1,1,347.64000000000004,403.34112000000005A3,3,0,1,1,341.64000000000004,403.34112000000005Z" id="point-1-16" opacity="1"/><path class="data-point" fill="#802392" data-type="point" transform="translate(0, 0)" d="M359.56,390.9698742857143A3,3,0,1,1,365.56,390.9698742857143A3,3,0,1,1,359.56,390.9698742857143Z" id="point-1-17" opacity="1"/><path class="data-point" fill="#802392" data-type="point" transform="translate(0, 0)" d="M377.48,384.7280914285715A3,3,0,1,1,383.48,384.7280914285715A3,3,0,1,1,377.48,384.7280914285715Z" id="point-1-18" opacity="1"/><path class="data-point" fill="#802392" data-type="point" transform="translate(0, 0)" d="M395.40000000000003,377.5717028571429A3,3,0,1,1,401.40000000000003,377.5717028571429A3,3,0,1,1,395.40000000000003,377.5717028571429Z" id="point-1-19" opacity="1"/><path class="data-point" fill="#802392" data-type="point" transform="translate(0, 0)" d="M413.32,367.8159085714286A3,3,0,1,1,419.32,367.8159085714286A3,3,0,1,1,413.32,367.8159085714286Z" id="point-1-20" opacity="1"/><path class="data-point" fill="#802392" data-type="point" transform="translate(0, 0)" d="M431.24,361.33344A3,3,0,1,1,437.24,361.33344A3,3,0,1,1,431.24,361.33344Z" id="point-1-21" opacity="1"/><path class="data-point" fill="#802392" data-type="point" transform="translate(0, 0)" d="M449.16,358.8784457142857A3,3,0,1,1,455.16,358.8784457142857A3,3,0,1,1,449.16,358.8784457142857Z" id="point-1-22" opacity="1"/><path class="data-point" fill="#802392" data-type="point" transform="translate(0, 0)" d="M467.08,354.70656A3,3,0,1,1,473.08,354.70656A3,3,0,1,1,467.08,354.70656Z" id="point-1-23" opacity="1"/><path class="data-point" fill="#802392" data-type="point" transform="translate(0, 0)" d="M485,349.82866285714283A3,3,0,1,1,491,349.82866285714283A3,3,0,1,1,485,349.82866285714283Z" id="point-1-24" opacity="1"/><path class="data-point" fill="#802392" data-type="point" transform="translate(0, 0)" d="M502.92,345.56050285714286A3,3,0,1,1,508.92,345.56050285714286A3,3,0,1,1,502.92,345.56050285714286Z" id="point-1-25" opacity="1"/><path class="data-point" fill="#802392" data-type="point" transform="translate(0, 0)" d="M520.84,340.6184228571429A3,3,0,1,1,526.84,340.6184228571429A3,3,0,1,1,520.84,340.6184228571429Z" id="point-1-26" opacity="1"/><path class="data-point" fill="#802392" data-type="point" transform="translate(0, 0)" d="M538.76,335.4837942857143A3,3,0,1,1,544.76,335.4837942857143A3,3,0,1,1,538.76,335.4837942857143Z" id="point-1-27" opacity="1"/><path class="data-point" fill="#802392" data-type="point" transform="translate(0, 0)" d="M556.68,331.5062221714286A3,3,0,1,1,562.68,331.5062221714286A3,3,0,1,1,556.68,331.5062221714286Z" id="point-1-28" opacity="1"/><path class="data-point" fill="#802392" data-type="point" transform="translate(0, 0)" d="M574.6,322.01839131428574A3,3,0,1,1,580.6,322.01839131428574A3,3,0,1,1,574.6,322.01839131428574Z" id="point-1-29" opacity="1"/><path class="data-point" fill="#802392" data-type="point" transform="translate(0, 0)" d="M592.52,312.13920548571434A3,3,0,1,1,598.52,312.13920548571434A3,3,0,1,1,592.52,312.13920548571434Z" id="point-1-30" opacity="1"/><path class="data-point" fill="#802392" data-type="point" transform="translate(0, 0)" d="M610.44,301.8527794285714A3,3,0,1,1,616.44,301.8527794285714A3,3,0,1,1,610.44,301.8527794285714Z" id="point-1-31" opacity="1"/><path class="data-point" fill="#802392" data-type="point" transform="translate(0, 0)" d="M628.36,291.1421046857143A3,3,0,1,1,634.36,291.1421046857143A3,3,0,1,1,628.36,291.1421046857143Z" id="point-1-32" opacity="1"/><path class="data-point" fill="#802392" data-type="point" transform="translate(0, 0)" d="M646.2800000000001,279.9896914285714A3,3,0,1,1,652.2800000000001,279.9896914285714A3,3,0,1,1,646.2800000000001,279.9896914285714Z" id="point-1-33" opacity="1"/><path class="data-point" fill="#802392" data-type="point" transform="translate(0, 0)" d="M664.1999999999999,268.3775684571429A3,3,0,1,1,670.1999999999999,268.3775684571429A3,3,0,1,1,664.1999999999999,268.3775684571429Z" id="point-1-34" opacity="1"/><path class="data-point" fill="#802392" data-type="point" transform="translate(0, 0)" d="M682.12,256.2864809142858A3,3,0,1,1,688.12,256.2864809142858A3,3,0,1,1,682.12,256.2864809142858Z" id="point-1-35" opacity="1"/><path class="data-point" fill="#802392" data-type="point" transform="translate(0, 0)" d="M700.04,243.69701348571425A3,3,0,1,1,706.04,243.69701348571425A3,3,0,1,1,700.04,243.69701348571425Z" id="point-1-36" opacity="1"/><path class="data-point" fill="#802392" data-type="point" transform="translate(0, 0)" d="M717.96,230.5881462857143A3,3,0,1,1,723.96,230.5881462857143A3,3,0,1,1,717.96,230.5881462857143Z" id="point-1-37" opacity="1"/><path class="data-point" fill="#802392" data-type="point" transform="translate(0, 0)" d="M735.88,216.93901988571434A3,3,0,1,1,741.88,216.93901988571434A3,3,0,1,1,735.88,216.93901988571434Z" id="point-1-38" opacity="1"/><path class="data-point" fill="#802392" data-type="point" transform="translate(0, 0)" d="M753.8000000000001,202.7268493714286A3,3,0,1,1,759.8000000000001,202.7268493714286A3,3,0,1,1,753.8000000000001,202.7268493714286Z" id="point-1-39" opacity="1"/><path class="data-point" fill="#802392" data-type="point" transform="translate(0, 0)" d="M771.7199999999999,187.92868937142862A3,3,0,1,1,777.7199999999999,187.92868937142862A3,3,0,1,1,771.7199999999999,187.92868937142862Z" id="point-1-40" opacity="1"/><path class="data-point" fill="#802392" data-type="point" transform="translate(0, 0)" d="M789.64,172.52047131428571A3,3,0,1,1,795.64,172.52047131428571A3,3,0,1,1,789.64,172.52047131428571Z" id="point-1-41" opacity="1"/><path class="data-point" fill="#802392" data-type="point" transform="translate(0, 0)" d="M807.56,156.47684297142854A3,3,0,1,1,813.56,156.47684297142854A3,3,0,1,1,807.56,156.47684297142854Z" id="point-1-42" opacity="1"/><path class="data-point" fill="#802392" data-type="point" transform="translate(0, 0)" d="M825.48,139.77148937142863A3,3,0,1,1,831.48,139.77148937142863A3,3,0,1,1,825.48,139.77148937142863Z" id="point-1-43" opacity="1"/><path class="data-point" fill="#802392" data-type="point" transform="translate(0, 0)" d="M843.4,122.3774537142857A3,3,0,1,1,849.4,122.3774537142857A3,3,0,1,1,843.4,122.3774537142857Z" id="point-1-44" opacity="1"/><path class="data-point" fill="#802392" data-type="point" transform="translate(0, 0)" d="M861.32,104.26617462857138A3,3,0,1,1,867.32,104.26617462857138A3,3,0,1,1,861.32,104.26617462857138Z" id="point-1-45" opacity="1"/><path class="data-point" fill="#802392" data-type="point" transform="translate(0, 0)" d="M879.24,85.40796754285714A3,3,0,1,1,885.24,85.40796754285714A3,3,0,1,1,879.24,85.40796754285714Z" id="point-1-46" opacity="1"/></g></g><g id="data-labels"/><g class="annotations above"><g class="axis-highlights" transform="translate(15, 20)" style="opacity: 1;"/></g></svg>