<svg xmlns="http://www.w3.org/2000/svg" id="graphic" width="883" height="598.18"><g id="facets"><g class="facet" transform="translate(50,10)" opacity="1"><text class="facet-title" y="0" font-size="16" font-weight="bold" dominant-baseline="middle" x="0" clip-path="url(#facet-clip-0)" fill="black"/><g class="plot"><clipPath class="facet-clip" id="facet-clip-0"><rect width="838" height="563.18" transform="translate(-7.5,-10)"/></clipPath><g class="bg"><rect fill="none" width="823" height="543.18" style="fill: none;"/></g><g class="interaction"><g class="series"><path data-target="point-0-0" d="M0,490.607936L23.441941330977556,490.607936L25.74802532098776,487.123824L0,354.55826282177804Z" style="opacity: 0;"/><path data-target="point-0-1" d="M0,354.55826282177804L25.74802532098776,487.123824L40.41477722061222,487.123824L42.12459718514489,484.7959095L10.91797558536161,291.2407307681805L0,238.60585783910346Z" style="opacity: 0;"/><path data-target="point-0-2" d="M10.91797558536161,291.2407307681805L42.12459718514489,484.7959095L56.54521475535512,484.7959095L59.101808534744904,481.2186815Z" style="opacity: 0;"/><path data-target="point-0-3" d="M0,238.60585783910346L10.91797558536161,291.2407307681805L59.101808534744904,481.2186815L72.8461875387,481.21868149999995L75.80624647248979,477.4086615L0,198.24007066154607Z" style="opacity: 0;"/><path data-target="point-0-4" d="M0,198.24007066154607L75.80624647248979,477.4086615L88.79375378019591,477.4086615L92.21801731999999,473.00114399999995L0,123.69047233333322Z" style="opacity: 0;"/><path data-target="point-0-5" d="M0,123.69047233333322L92.21801731999999,473.00114399999995L105.07722574337959,473.00114399999995L108.4301409286,468.32203599999997L69.42676970355402,308.60307111447275L0,79.9246465309611Z" style="opacity: 0;"/><path data-target="point-0-6" d="M69.42676970355402,308.60307111447275L108.4301409286,468.32203599999997L121.7056472184,468.32203599999997L125.29498851899999,462.51000999999997Z" style="opacity: 0;"/><path data-target="point-0-7" d="M0,79.9246465309611L69.42676970355402,308.60307111447275L125.29498851899999,462.51000999999997L138.19301748332245,462.51000999999997L141.3728065299347,457.7533055L70.82405095874071,192.41836797675728L31.04720421097585,96.92817872490122L2.1414206975473746,32.29504518301411L0,27.777163275520696Z" style="opacity: 0;"/><path data-target="point-0-8" d="M70.82405095874071,192.41836797675728L141.3728065299347,457.7533055L154.72435891376531,457.7533055L157.92681391386938,452.437901L93.09947326674208,245.96262597872263L73.60548420949931,198.54188629296684Z" style="opacity: 0;"/><path data-target="point-0-9" d="M93.09947326674208,245.96262597872263L157.92681391386938,452.437901L171.1031553021306,452.437901L173.94431674199998,446.06717599999996L152.28610219943175,374.7291834355458Z" style="opacity: 0;"/><path data-target="point-0-10" d="M152.28610219943175,374.7291834355458L173.94431674199998,446.06717599999996L188.66931429226327,446.06717599999996L189.89674812116735,435.816593Z" style="opacity: 0;"/><path data-target="point-0-11" d="M73.60548420949931,198.54188629296684L93.09947326674208,245.96262597872263L152.28610219943175,374.7291834355458L189.89674812116735,435.816593L205.19048589099998,435.81659299999995L206.2708108619102,425.85312Z" style="opacity: 0;"/><path data-target="point-0-12" d="M31.04720421097585,96.92817872490122L70.82405095874071,192.41836797675728L73.60548420949931,198.54188629296684L206.2708108619102,425.85312L221.96908899119998,425.85312L222.43370307959998,415.587018Z" style="opacity: 0;"/><path data-target="point-0-13" d="M2.1414206975473746,32.29504518301411L31.04720421097585,96.92817872490122L222.43370307959998,415.587018L238.40393533728775,415.587018L238.9555845948102,405.4993895Z" style="opacity: 0;"/><path data-target="point-0-14" d="M0,27.777163275520696L2.1414206975473746,32.29504518301411L238.9555845948102,405.4993895L255.09292097889997,405.4993895L255.1669253764,394.28660199999996L0,18.930724717856947Z" style="opacity: 0;"/><path data-target="point-0-15" d="M0,18.930724717856947L255.1669253764,394.28660199999996L271.1500341043102,394.28660199999996L272.0959955472,383.725631L119.3771662769816,161.23316411448354L1.4210854715202004e-14,1.1672399029236828Z" style="opacity: 0;"/><path data-target="point-0-16" d="M119.3771662769816,161.23316411448354L272.0959955472,383.725631L287.75667456946326,383.725631L288.37490262859995,371.1160955Z" style="opacity: 0;"/><path data-target="point-0-17" d="M1.4210854715202004e-14,1.1672399029236828L119.3771662769816,161.23316411448354L288.37490262859995,371.1160955L303.0385963994347,371.1160955L305.8187547419347,365.4127055L281.8408728488711,291.91245055945933L141.4726871751838,0L0,0Z" style="opacity: 0;"/><path data-target="point-0-18" d="M281.8408728488711,291.91245055945933L305.8187547419347,365.4127055L319.6092994818551,365.4127055L323.0263053378551,356.72182549999997Z" style="opacity: 0;"/><path data-target="point-0-19" d="M141.4726871751838,0L281.8408728488711,291.91245055945933L323.0263053378551,356.72182549999997L335.2814653799,356.72182549999997L338.1190857776,350.490775L309.4427080928952,194.5197713512245L303.8684623392664,171.47073149343692L253.2650013818775,2.842170943040401e-14Z" style="opacity: 0;"/><path data-target="point-0-20" d="M309.4427080928952,194.5197713512245L338.1190857776,350.490775L353.0801147293673,350.490775L354.5274840574367,344.888261Z" style="opacity: 0;"/><path data-target="point-0-21" d="M303.8684623392664,171.47073149343692L309.4427080928952,194.5197713512245L354.5274840574367,344.888261L369.8585858624326,344.888261L371.7182507629102,340.3953865Z" style="opacity: 0;"/><path data-target="point-0-22" d="M253.2650013818775,2.842170943040401e-14L303.8684623392664,171.47073149343692L371.7182507629102,340.3953865L385.65914584623465,340.3953865L388.1998779786347,335.9413105L288.74204467736797,0Z" style="opacity: 0;"/><path data-target="point-0-23" d="M288.74204467736797,0L388.1998779786347,335.9413105L401.9021441918653,335.9413105L404.7008491715347,331.11476849999997L305.42318690080003,0Z" style="opacity: 0;"/><path data-target="point-0-24" d="M305.42318690080003,0L404.7008491715347,331.11476849999997L418.4319270414,331.11476849999997L420.90607353054486,327.1805935L346.56130034962024,0Z" style="opacity: 0;"/><path data-target="point-0-25" d="M346.56130034962024,0L420.90607353054486,327.1805935L434.83794740359997,327.1805935L437.35768178779995,322.7265175L366.75963034989616,41.235084334515875L359.5177369872664,22.63490358606083L349.8709608730604,-3.552713678800501e-15Z" style="opacity: 0;"/><path data-target="point-0-26" d="M366.75963034989616,41.235084334515875L437.35768178779995,322.7265175L451.3716957442,322.72651749999994L459.58569489902095,306.77080818605094L433.21486318989787,209.7503311765941L399.32218819370314,118.03689321587282Z" style="opacity: 0;"/><path data-target="point-0-28" d="M433.21486318989787,209.7503311765941L459.58569489902095,306.77080818605094L467.0740819186853,313.845912L484.34410486032436,313.845912L486.812439432212,304.6073515Z" style="opacity: 0;"/><path data-target="point-0-29" d="M399.32218819370314,118.03689321587282L433.21486318989787,209.7503311765941L486.812439432212,304.6073515L500.8274591102259,304.6073515L503.2465646396033,294.99647949999996Z" style="opacity: 0;"/><path data-target="point-0-30" d="M359.5177369872664,22.63490358606083L366.75963034989616,41.235084334515875L399.32218819370314,118.03689321587282L503.2465646396033,294.99647949999996L517.323250511497,294.99647949999996L519.6682882884699,284.998243Z" style="opacity: 0;"/><path data-target="point-0-31" d="M349.8709608730604,-3.552713678800501e-15L359.5177369872664,22.63490358606083L519.6682882884699,284.998243L533.8332922098624,284.998243L536.075741704383,274.5969665L361.8554941942667,0Z" style="opacity: 0;"/><path data-target="point-0-32" d="M361.8554941942667,0L536.075741704383,274.5969665L550.3597695606001,274.5969665L552.4668487678719,263.77635599999996L378.51871351362615,0Z" style="opacity: 0;"/><path data-target="point-0-33" d="M378.51871351362615,0L552.4668487678719,263.77635599999996L566.9049817075758,263.77635599999996L568.8393920949206,252.51964900000002L395.7551374994051,0Z" style="opacity: 0;"/><path data-target="point-0-34" d="M395.7551374994051,0L568.8393920949206,252.51964900000002L583.4716616137938,252.51964900000002L585.1906734284682,240.80923099999998L413.63494404170706,-2.842170943040401e-14Z" style="opacity: 0;"/><path data-target="point-0-35" d="M413.63494404170706,-2.842170943040401e-14L585.1906734284682,240.80923099999998L600.0628099722192,240.80923099999998L601.5178944915656,228.62679L432.22379844042297,0Z" style="opacity: 0;"/><path data-target="point-0-36" d="M432.22379844042297,0L601.5178944915656,228.62679L616.6817476735038,228.62679L617.8177862567098,215.9530815L451.60857868924495,0Z" style="opacity: 0;"/><path data-target="point-0-37" d="M451.60857868924495,0L617.8177862567098,215.9530815L633.3320448180797,215.9530815L634.0869776736383,202.76870599999998L471.88058681163125,0Z" style="opacity: 0;"/><path data-target="point-0-38" d="M471.88058681163125,0L634.0869776736383,202.76870599999998L650.0181026878242,202.768706L650.3212353565985,189.05263499999998L493.1282305040128,0Z" style="opacity: 0;"/><path data-target="point-0-39" d="M493.1282305040128,0L650.3212353565985,189.05263499999998L666.744301912725,189.05263499999998L666.5163983393653,174.7836845L515.46434556595,0Z" style="opacity: 0;"/><path data-target="point-0-40" d="M515.46434556595,0L666.5163983393653,174.7836845L683.5158233590214,174.7836845L682.6675334892807,159.93958349999997L539.0001993278241,0Z" style="opacity: 0;"/><path data-target="point-0-41" d="M539.0001993278241,0L682.6675334892807,159.93958349999997L700.3384485146149,159.93958349999997L698.7691531533034,144.49697650000002L563.8602182233142,0Z" style="opacity: 0;"/><path data-target="point-0-42" d="M563.8602182233142,0L698.7691531533034,144.49697650000002L717.2185253602738,144.49697650000002L714.8152649388697,128.43172950000002L590.1829454935038,0Z" style="opacity: 0;"/><path data-target="point-0-43" d="M590.1829454935038,0L714.8152649388697,128.43172950000002L734.1629705343773,128.43172950000002L730.7992998404567,111.71885699999999L618.1151606944244,0Z" style="opacity: 0;"/><path data-target="point-0-44" d="M618.1151606944244,0L730.7992998404567,111.71885699999999L751.1796798591353,111.71885699999999L746.7138442299203,94.3321305L647.8186519461328,0Z" style="opacity: 0;"/><path data-target="point-0-45" d="M647.8186519461328,0L746.7138442299203,94.3321305L768.2773586781989,94.3321305L762.5507444057106,76.244392L679.4702829982518,0Z" style="opacity: 0;"/><path data-target="point-0-46" d="M679.4702829982518,0L762.5507444057106,76.244392L823,76.244392L823,0Z" style="opacity: 0;"/><path data-target="point-1-0" d="M35.48695176658765,543.18L23.441941330977556,490.607936L0,490.607936L0,543.18Z" style="opacity: 0;"/><path data-target="point-1-1" d="M23.441941330977556,490.607936L35.48695176658765,543.18L47.23281225981238,543.18L40.41477722061222,487.123824L25.74802532098776,487.123824Z" style="opacity: 0;"/><path data-target="point-1-2" d="M40.41477722061222,487.123824L47.23281225981238,543.18L67.11440223928966,543.18L56.54521475535512,484.7959095L42.12459718514489,484.7959095Z" style="opacity: 0;"/><path data-target="point-1-3" d="M56.54521475535512,484.7959095L67.11440223928966,543.18L84.70558389959997,543.18L72.8461875387,481.21868149999995L59.101808534744904,481.2186815Z" style="opacity: 0;"/><path data-target="point-1-4" d="M72.8461875387,481.21868149999995L84.70558389959997,543.18L106.65348924209806,543.18L88.79375378019591,477.4086615L75.80624647248979,477.4086615Z" style="opacity: 0;"/><path data-target="point-1-5" d="M88.79375378019591,477.4086615L106.65348924209806,543.18L127.83923884577958,543.18L105.07722574337959,473.00114399999995L92.21801731999999,473.00114399999995Z" style="opacity: 0;"/><path data-target="point-1-6" d="M105.07722574337959,473.00114399999995L127.83923884577958,543.18L147.39690046319993,543.18L121.7056472184,468.32203599999997L108.4301409286,468.32203599999997Z" style="opacity: 0;"/><path data-target="point-1-7" d="M121.7056472184,468.32203599999997L147.39690046319993,543.18L163.3689696340327,543.18L138.19301748332245,462.51000999999997L125.29498851899999,462.51000999999997Z" style="opacity: 0;"/><path data-target="point-1-8" d="M138.19301748332245,462.51000999999997L163.3689696340327,543.18L183.07625917838763,543.18L154.72435891376531,457.7533055L141.3728065299347,457.7533055Z" style="opacity: 0;"/><path data-target="point-1-9" d="M154.72435891376531,457.7533055L183.07625917838763,543.18L213.79601184060022,543.18L171.1031553021306,452.437901L157.92681391386938,452.437901Z" style="opacity: 0;"/><path data-target="point-1-10" d="M171.1031553021306,452.437901L213.79601184060022,543.18L249.83374971381204,543.18L188.66931429226327,446.06717599999996L173.94431674199998,446.06717599999996Z" style="opacity: 0;"/><path data-target="point-1-11" d="M188.66931429226327,446.06717599999996L249.83374971381204,543.18L272.50734208000006,543.18L205.19048589099998,435.81659299999995L189.89674812116735,435.816593Z" style="opacity: 0;"/><path data-target="point-1-12" d="M205.19048589099998,435.81659299999995L272.50734208000006,543.18L297.85611497519983,543.18L221.96908899119998,425.85312L206.2708108619102,425.85312Z" style="opacity: 0;"/><path data-target="point-1-13" d="M221.96908899119998,425.85312L297.85611497519983,543.18L313.83325524498787,543.18L238.40393533728775,415.587018L222.43370307959998,415.587018Z" style="opacity: 0;"/><path data-target="point-1-14" d="M238.40393533728775,415.587018L313.83325524498787,543.18L349.0776454126119,543.18L255.09292097889997,405.4993895L238.9555845948102,405.4993895Z" style="opacity: 0;"/><path data-target="point-1-15" d="M255.09292097889997,405.4993895L349.0776454126119,543.18L360.01386554328997,543.18L271.1500341043102,394.28660199999996L255.1669253764,394.28660199999996Z" style="opacity: 0;"/><path data-target="point-1-16" d="M271.1500341043102,394.28660199999996L360.01386554328997,543.18L384.90880422383884,543.18L327.93493994955696,438.99581685351586L287.75667456946326,383.725631L272.0959955472,383.725631Z" style="opacity: 0;"/><path data-target="point-1-17" d="M287.75667456946326,383.725631L327.93493994955696,438.99581685351586L303.0385963994347,371.1160955L288.37490262859995,371.1160955Z" style="opacity: 0;"/><path data-target="point-1-18" d="M303.0385963994347,371.1160955L327.93493994955696,438.99581685351586L384.90880422383884,543.18L394.3629848090329,543.18L319.6092994818551,365.4127055L305.8187547419347,365.4127055Z" style="opacity: 0;"/><path data-target="point-1-19" d="M319.6092994818551,365.4127055L394.3629848090329,543.18L422.37057763979584,543.18L387.3686517916807,447.5836397748177L335.2814653799,356.72182549999997L323.0263053378551,356.72182549999997Z" style="opacity: 0;"/><path data-target="point-1-20" d="M335.2814653799,356.72182549999997L387.3686517916807,447.5836397748177L381.38695597519023,424.8036662524446L353.0801147293673,350.490775L338.1190857776,350.490775Z" style="opacity: 0;"/><path data-target="point-1-21" d="M353.0801147293673,350.490775L381.38695597519023,424.8036662524446L369.8585858624326,344.888261L354.5274840574367,344.888261Z" style="opacity: 0;"/><path data-target="point-1-22" d="M369.8585858624326,344.888261L381.38695597519023,424.8036662524446L387.3686517916807,447.5836397748177L422.37057763979584,543.18L435.37034010430216,543.18L385.65914584623465,340.3953865L371.7182507629102,340.3953865Z" style="opacity: 0;"/><path data-target="point-1-23" d="M385.65914584623465,340.3953865L435.37034010430216,543.18L461.3026701107097,543.18L401.9021441918653,335.9413105L388.1998779786347,335.9413105Z" style="opacity: 0;"/><path data-target="point-1-24" d="M401.9021441918653,335.9413105L461.3026701107097,543.18L471.6178871016003,543.18L418.4319270414,331.11476849999997L404.7008491715347,331.11476849999997Z" style="opacity: 0;"/><path data-target="point-1-25" d="M418.4319270414,331.11476849999997L471.6178871016003,543.18L497.5641750512002,543.18L434.83794740359997,327.1805935L420.90607353054486,327.1805935Z" style="opacity: 0;"/><path data-target="point-1-26" d="M434.83794740359997,327.1805935L497.5641750512002,543.18L517.8856588365873,543.18L451.3716957442,322.72651749999994L437.35768178779995,322.7265175Z" style="opacity: 0;"/><path data-target="point-1-27" d="M451.3716957442,322.72651749999994L517.8856588365873,543.18L520.6751707372669,543.18L467.0740819186853,313.845912L459.58569489902095,306.77080818605094Z" style="opacity: 0;"/><path data-target="point-1-28" d="M467.0740819186853,313.845912L520.6751707372669,543.18L612.2004782890093,543.18L484.34410486032436,313.845912Z" style="opacity: 0;"/><path data-target="point-1-29" d="M484.34410486032436,313.845912L612.2004782890093,543.18L639.3207223133433,543.18L500.8274591102259,304.6073515L486.812439432212,304.6073515Z" style="opacity: 0;"/><path data-target="point-1-30" d="M500.8274591102259,304.6073515L639.3207223133433,543.18L667.3346583362421,543.18L517.323250511497,294.99647949999996L503.2465646396033,294.99647949999996Z" style="opacity: 0;"/><path data-target="point-1-31" d="M517.323250511497,294.99647949999996L667.3346583362421,543.18L696.3242630932241,543.18L533.8332922098624,284.998243L519.6682882884699,284.998243Z" style="opacity: 0;"/><path data-target="point-1-32" d="M533.8332922098624,284.998243L696.3242630932241,543.18L726.368513580094,543.18L550.3597695606001,274.5969665L536.075741704383,274.5969665Z" style="opacity: 0;"/><path data-target="point-1-33" d="M550.3597695606001,274.5969665L726.368513580094,543.18L757.5522219076491,543.18L566.9049817075758,263.77635599999996L552.4668487678719,263.77635599999996Z" style="opacity: 0;"/><path data-target="point-1-34" d="M566.9049817075758,263.77635599999996L757.5522219076491,543.18L789.9802079098681,543.18L583.4716616137938,252.51964900000002L568.8393920949206,252.51964900000002Z" style="opacity: 0;"/><path data-target="point-1-35" d="M583.4716616137938,252.51964900000002L789.9802079098681,543.18L823,543.18L823,542.171132145283L600.0628099722192,240.80923099999998L585.1906734284682,240.80923099999998Z" style="opacity: 0;"/><path data-target="point-1-36" d="M600.0628099722192,240.80923099999998L823,542.171132145283L823,496.4730771797898L616.6817476735038,228.62679L601.5178944915656,228.62679Z" style="opacity: 0;"/><path data-target="point-1-37" d="M616.6817476735038,228.62679L823,496.4730771797898L823,452.4373504058551L633.3320448180797,215.9530815L617.8177862567098,215.9530815Z" style="opacity: 0;"/><path data-target="point-1-38" d="M633.3320448180797,215.9530815L823,452.4373504058551L823,409.9036736745352L650.0181026878242,202.768706L634.0869776736383,202.76870599999998Z" style="opacity: 0;"/><path data-target="point-1-39" d="M650.0181026878242,202.768706L823,409.9036736745352L823,368.7498325013229L666.744301912725,189.05263499999998L650.3212353565985,189.05263499999998Z" style="opacity: 0;"/><path data-target="point-1-40" d="M666.5163983393653,174.7836845L666.744301912725,189.05263499999998L823,368.7498325013229L823,328.84218874439165L683.5158233590214,174.7836845Z" style="opacity: 0;"/><path data-target="point-1-41" d="M682.6675334892807,159.93958349999997L683.5158233590214,174.7836845L823,328.84218874439165L823,290.05208341699284L700.3384485146149,159.93958349999997Z" style="opacity: 0;"/><path data-target="point-1-42" d="M698.7691531533034,144.49697650000002L700.3384485146149,159.93958349999997L823,290.05208341699284L823,252.25934075255552L717.2185253602738,144.49697650000002Z" style="opacity: 0;"/><path data-target="point-1-43" d="M714.8152649388697,128.43172950000002L717.2185253602738,144.49697650000002L823,252.25934075255552L823,215.3491512702127L734.1629705343773,128.43172950000002Z" style="opacity: 0;"/><path data-target="point-1-44" d="M730.7992998404567,111.71885699999999L734.1629705343773,128.43172950000002L823,215.3491512702127L823,179.20449583867787L751.1796798591353,111.71885699999999Z" style="opacity: 0;"/><path data-target="point-1-45" d="M746.7138442299203,94.3321305L751.1796798591353,111.71885699999999L823,179.20449583867787L823,143.715396678817L768.2773586781989,94.3321305Z" style="opacity: 0;"/><path data-target="point-1-46" d="M762.5507444057106,76.244392L768.2773586781989,94.3321305L823,143.715396678817L823,76.244392Z" style="opacity: 0;"/></g><g class="series"><path data-target="point-0-0" d="M0,490.607936L23.441941330977556,490.607936L25.74802532098776,487.123824L0,354.55826282177804Z" style="opacity: 0;"/><path data-target="point-0-1" d="M0,354.55826282177804L25.74802532098776,487.123824L40.41477722061222,487.123824L42.12459718514489,484.7959095L10.91797558536161,291.2407307681805L0,238.60585783910346Z" style="opacity: 0;"/><path data-target="point-0-2" d="M10.91797558536161,291.2407307681805L42.12459718514489,484.7959095L56.54521475535512,484.7959095L59.101808534744904,481.2186815Z" style="opacity: 0;"/><path data-target="point-0-3" d="M0,238.60585783910346L10.91797558536161,291.2407307681805L59.101808534744904,481.2186815L72.8461875387,481.21868149999995L75.80624647248979,477.4086615L0,198.24007066154607Z" style="opacity: 0;"/><path data-target="point-0-4" d="M0,198.24007066154607L75.80624647248979,477.4086615L88.79375378019591,477.4086615L92.21801731999999,473.00114399999995L0,123.69047233333322Z" style="opacity: 0;"/><path data-target="point-0-5" d="M0,123.69047233333322L92.21801731999999,473.00114399999995L105.07722574337959,473.00114399999995L108.4301409286,468.32203599999997L69.42676970355402,308.60307111447275L0,79.9246465309611Z" style="opacity: 0;"/><path data-target="point-0-6" d="M69.42676970355402,308.60307111447275L108.4301409286,468.32203599999997L121.7056472184,468.32203599999997L125.29498851899999,462.51000999999997Z" style="opacity: 0;"/><path data-target="point-0-7" d="M0,79.9246465309611L69.42676970355402,308.60307111447275L125.29498851899999,462.51000999999997L138.19301748332245,462.51000999999997L141.3728065299347,457.7533055L70.82405095874071,192.41836797675728L31.04720421097585,96.92817872490122L2.1414206975473746,32.29504518301411L0,27.777163275520696Z" style="opacity: 0;"/><path data-target="point-0-8" d="M70.82405095874071,192.41836797675728L141.3728065299347,457.7533055L154.72435891376531,457.7533055L157.92681391386938,452.437901L93.09947326674208,245.96262597872263L73.60548420949931,198.54188629296684Z" style="opacity: 0;"/><path data-target="point-0-9" d="M93.09947326674208,245.96262597872263L157.92681391386938,452.437901L171.1031553021306,452.437901L173.94431674199998,446.06717599999996L152.28610219943175,374.7291834355458Z" style="opacity: 0;"/><path data-target="point-0-10" d="M152.28610219943175,374.7291834355458L173.94431674199998,446.06717599999996L188.66931429226327,446.06717599999996L189.89674812116735,435.816593Z" style="opacity: 0;"/><path data-target="point-0-11" d="M73.60548420949931,198.54188629296684L93.09947326674208,245.96262597872263L152.28610219943175,374.7291834355458L189.89674812116735,435.816593L205.19048589099998,435.81659299999995L206.2708108619102,425.85312Z" style="opacity: 0;"/><path data-target="point-0-12" d="M31.04720421097585,96.92817872490122L70.82405095874071,192.41836797675728L73.60548420949931,198.54188629296684L206.2708108619102,425.85312L221.96908899119998,425.85312L222.43370307959998,415.587018Z" style="opacity: 0;"/><path data-target="point-0-13" d="M2.1414206975473746,32.29504518301411L31.04720421097585,96.92817872490122L222.43370307959998,415.587018L238.40393533728775,415.587018L238.9555845948102,405.4993895Z" style="opacity: 0;"/><path data-target="point-0-14" d="M0,27.777163275520696L2.1414206975473746,32.29504518301411L238.9555845948102,405.4993895L255.09292097889997,405.4993895L255.1669253764,394.28660199999996L0,18.930724717856947Z" style="opacity: 0;"/><path data-target="point-0-15" d="M0,18.930724717856947L255.1669253764,394.28660199999996L271.1500341043102,394.28660199999996L272.0959955472,383.725631L119.3771662769816,161.23316411448354L1.4210854715202004e-14,1.1672399029236828Z" style="opacity: 0;"/><path data-target="point-0-16" d="M119.3771662769816,161.23316411448354L272.0959955472,383.725631L287.75667456946326,383.725631L288.37490262859995,371.1160955Z" style="opacity: 0;"/><path data-target="point-0-17" d="M1.4210854715202004e-14,1.1672399029236828L119.3771662769816,161.23316411448354L288.37490262859995,371.1160955L303.0385963994347,371.1160955L305.8187547419347,365.4127055L281.8408728488711,291.91245055945933L141.4726871751838,0L0,0Z" style="opacity: 0;"/><path data-target="point-0-18" d="M281.8408728488711,291.91245055945933L305.8187547419347,365.4127055L319.6092994818551,365.4127055L323.0263053378551,356.72182549999997Z" style="opacity: 0;"/><path data-target="point-0-19" d="M141.4726871751838,0L281.8408728488711,291.91245055945933L323.0263053378551,356.72182549999997L335.2814653799,356.72182549999997L338.1190857776,350.490775L309.4427080928952,194.5197713512245L303.8684623392664,171.47073149343692L253.2650013818775,2.842170943040401e-14Z" style="opacity: 0;"/><path data-target="point-0-20" d="M309.4427080928952,194.5197713512245L338.1190857776,350.490775L353.0801147293673,350.490775L354.5274840574367,344.888261Z" style="opacity: 0;"/><path data-target="point-0-21" d="M303.8684623392664,171.47073149343692L309.4427080928952,194.5197713512245L354.5274840574367,344.888261L369.8585858624326,344.888261L371.7182507629102,340.3953865Z" style="opacity: 0;"/><path data-target="point-0-22" d="M253.2650013818775,2.842170943040401e-14L303.8684623392664,171.47073149343692L371.7182507629102,340.3953865L385.65914584623465,340.3953865L388.1998779786347,335.9413105L288.74204467736797,0Z" style="opacity: 0;"/><path data-target="point-0-23" d="M288.74204467736797,0L388.1998779786347,335.9413105L401.9021441918653,335.9413105L404.7008491715347,331.11476849999997L305.42318690080003,0Z" style="opacity: 0;"/><path data-target="point-0-24" d="M305.42318690080003,0L404.7008491715347,331.11476849999997L418.4319270414,331.11476849999997L420.90607353054486,327.1805935L346.56130034962024,0Z" style="opacity: 0;"/><path data-target="point-0-25" d="M346.56130034962024,0L420.90607353054486,327.1805935L434.83794740359997,327.1805935L437.35768178779995,322.7265175L366.75963034989616,41.235084334515875L359.5177369872664,22.63490358606083L349.8709608730604,-3.552713678800501e-15Z" style="opacity: 0;"/><path data-target="point-0-26" d="M366.75963034989616,41.235084334515875L437.35768178779995,322.7265175L451.3716957442,322.72651749999994L459.58569489902095,306.77080818605094L433.21486318989787,209.7503311765941L399.32218819370314,118.03689321587282Z" style="opacity: 0;"/><path data-target="point-0-28" d="M433.21486318989787,209.7503311765941L459.58569489902095,306.77080818605094L467.0740819186853,313.845912L484.34410486032436,313.845912L486.812439432212,304.6073515Z" style="opacity: 0;"/><path data-target="point-0-29" d="M399.32218819370314,118.03689321587282L433.21486318989787,209.7503311765941L486.812439432212,304.6073515L500.8274591102259,304.6073515L503.2465646396033,294.99647949999996Z" style="opacity: 0;"/><path data-target="point-0-30" d="M359.5177369872664,22.63490358606083L366.75963034989616,41.235084334515875L399.32218819370314,118.03689321587282L503.2465646396033,294.99647949999996L517.323250511497,294.99647949999996L519.6682882884699,284.998243Z" style="opacity: 0;"/><path data-target="point-0-31" d="M349.8709608730604,-3.552713678800501e-15L359.5177369872664,22.63490358606083L519.6682882884699,284.998243L533.8332922098624,284.998243L536.075741704383,274.5969665L361.8554941942667,0Z" style="opacity: 0;"/><path data-target="point-0-32" d="M361.8554941942667,0L536.075741704383,274.5969665L550.3597695606001,274.5969665L552.4668487678719,263.77635599999996L378.51871351362615,0Z" style="opacity: 0;"/><path data-target="point-0-33" d="M378.51871351362615,0L552.4668487678719,263.77635599999996L566.9049817075758,263.77635599999996L568.8393920949206,252.51964900000002L395.7551374994051,0Z" style="opacity: 0;"/><path data-target="point-0-34" d="M395.7551374994051,0L568.8393920949206,252.51964900000002L583.4716616137938,252.51964900000002L585.1906734284682,240.80923099999998L413.63494404170706,-2.842170943040401e-14Z" style="opacity: 0;"/><path data-target="point-0-35" d="M413.63494404170706,-2.842170943040401e-14L585.1906734284682,240.80923099999998L600.0628099722192,240.80923099999998L601.5178944915656,228.62679L432.22379844042297,0Z" style="opacity: 0;"/><path data-target="point-0-36" d="M432.22379844042297,0L601.5178944915656,228.62679L616.6817476735038,228.62679L617.8177862567098,215.9530815L451.60857868924495,0Z" style="opacity: 0;"/><path data-target="point-0-37" d="M451.60857868924495,0L617.8177862567098,215.9530815L633.3320448180797,215.9530815L634.0869776736383,202.76870599999998L471.88058681163125,0Z" style="opacity: 0;"/><path data-target="point-0-38" d="M471.88058681163125,0L634.0869776736383,202.76870599999998L650.0181026878242,202.768706L650.3212353565985,189.05263499999998L493.1282305040128,0Z" style="opacity: 0;"/><path data-target="point-0-39" d="M493.1282305040128,0L650.3212353565985,189.05263499999998L666.744301912725,189.05263499999998L666.5163983393653,174.7836845L515.46434556595,0Z" style="opacity: 0;"/><path data-target="point-0-40" d="M515.46434556595,0L666.5163983393653,174.7836845L683.5158233590214,174.7836845L682.6675334892807,159.93958349999997L539.0001993278241,0Z" style="opacity: 0;"/><path data-target="point-0-41" d="M539.0001993278241,0L682.6675334892807,159.93958349999997L700.3384485146149,159.93958349999997L698.7691531533034,144.49697650000002L563.8602182233142,0Z" style="opacity: 0;"/><path data-target="point-0-42" d="M563.8602182233142,0L698.7691531533034,144.49697650000002L717.2185253602738,144.49697650000002L714.8152649388697,128.43172950000002L590.1829454935038,0Z" style="opacity: 0;"/><path data-target="point-0-43" d="M590.1829454935038,0L714.8152649388697,128.43172950000002L734.1629705343773,128.43172950000002L730.7992998404567,111.71885699999999L618.1151606944244,0Z" style="opacity: 0;"/><path data-target="point-0-44" d="M618.1151606944244,0L730.7992998404567,111.71885699999999L751.1796798591353,111.71885699999999L746.7138442299203,94.3321305L647.8186519461328,0Z" style="opacity: 0;"/><path data-target="point-0-45" d="M647.8186519461328,0L746.7138442299203,94.3321305L768.2773586781989,94.3321305L762.5507444057106,76.244392L679.4702829982518,0Z" style="opacity: 0;"/><path data-target="point-0-46" d="M679.4702829982518,0L762.5507444057106,76.244392L823,76.244392L823,0Z" style="opacity: 0;"/><path data-target="point-1-0" d="M35.48695176658765,543.18L23.441941330977556,490.607936L0,490.607936L0,543.18Z" style="opacity: 0;"/><path data-target="point-1-1" d="M23.441941330977556,490.607936L35.48695176658765,543.18L47.23281225981238,543.18L40.41477722061222,487.123824L25.74802532098776,487.123824Z" style="opacity: 0;"/><path data-target="point-1-2" d="M40.41477722061222,487.123824L47.23281225981238,543.18L67.11440223928966,543.18L56.54521475535512,484.7959095L42.12459718514489,484.7959095Z" style="opacity: 0;"/><path data-target="point-1-3" d="M56.54521475535512,484.7959095L67.11440223928966,543.18L84.70558389959997,543.18L72.8461875387,481.21868149999995L59.101808534744904,481.2186815Z" style="opacity: 0;"/><path data-target="point-1-4" d="M72.8461875387,481.21868149999995L84.70558389959997,543.18L106.65348924209806,543.18L88.79375378019591,477.4086615L75.80624647248979,477.4086615Z" style="opacity: 0;"/><path data-target="point-1-5" d="M88.79375378019591,477.4086615L106.65348924209806,543.18L127.83923884577958,543.18L105.07722574337959,473.00114399999995L92.21801731999999,473.00114399999995Z" style="opacity: 0;"/><path data-target="point-1-6" d="M105.07722574337959,473.00114399999995L127.83923884577958,543.18L147.39690046319993,543.18L121.7056472184,468.32203599999997L108.4301409286,468.32203599999997Z" style="opacity: 0;"/><path data-target="point-1-7" d="M121.7056472184,468.32203599999997L147.39690046319993,543.18L163.3689696340327,543.18L138.19301748332245,462.51000999999997L125.29498851899999,462.51000999999997Z" style="opacity: 0;"/><path data-target="point-1-8" d="M138.19301748332245,462.51000999999997L163.3689696340327,543.18L183.07625917838763,543.18L154.72435891376531,457.7533055L141.3728065299347,457.7533055Z" style="opacity: 0;"/><path data-target="point-1-9" d="M154.72435891376531,457.7533055L183.07625917838763,543.18L213.79601184060022,543.18L171.1031553021306,452.437901L157.92681391386938,452.437901Z" style="opacity: 0;"/><path data-target="point-1-10" d="M171.1031553021306,452.437901L213.79601184060022,543.18L249.83374971381204,543.18L188.66931429226327,446.06717599999996L173.94431674199998,446.06717599999996Z" style="opacity: 0;"/><path data-target="point-1-11" d="M188.66931429226327,446.06717599999996L249.83374971381204,543.18L272.50734208000006,543.18L205.19048589099998,435.81659299999995L189.89674812116735,435.816593Z" style="opacity: 0;"/><path data-target="point-1-12" d="M205.19048589099998,435.81659299999995L272.50734208000006,543.18L297.85611497519983,543.18L221.96908899119998,425.85312L206.2708108619102,425.85312Z" style="opacity: 0;"/><path data-target="point-1-13" d="M221.96908899119998,425.85312L297.85611497519983,543.18L313.83325524498787,543.18L238.40393533728775,415.587018L222.43370307959998,415.587018Z" style="opacity: 0;"/><path data-target="point-1-14" d="M238.40393533728775,415.587018L313.83325524498787,543.18L349.0776454126119,543.18L255.09292097889997,405.4993895L238.9555845948102,405.4993895Z" style="opacity: 0;"/><path data-target="point-1-15" d="M255.09292097889997,405.4993895L349.0776454126119,543.18L360.01386554328997,543.18L271.1500341043102,394.28660199999996L255.1669253764,394.28660199999996Z" style="opacity: 0;"/><path data-target="point-1-16" d="M271.1500341043102,394.28660199999996L360.01386554328997,543.18L384.90880422383884,543.18L327.93493994955696,438.99581685351586L287.75667456946326,383.725631L272.0959955472,383.725631Z" style="opacity: 0;"/><path data-target="point-1-17" d="M287.75667456946326,383.725631L327.93493994955696,438.99581685351586L303.0385963994347,371.1160955L288.37490262859995,371.1160955Z" style="opacity: 0;"/><path data-target="point-1-18" d="M303.0385963994347,371.1160955L327.93493994955696,438.99581685351586L384.90880422383884,543.18L394.3629848090329,543.18L319.6092994818551,365.4127055L305.8187547419347,365.4127055Z" style="opacity: 0;"/><path data-target="point-1-19" d="M319.6092994818551,365.4127055L394.3629848090329,543.18L422.37057763979584,543.18L387.3686517916807,447.5836397748177L335.2814653799,356.72182549999997L323.0263053378551,356.72182549999997Z" style="opacity: 0;"/><path data-target="point-1-20" d="M335.2814653799,356.72182549999997L387.3686517916807,447.5836397748177L381.38695597519023,424.8036662524446L353.0801147293673,350.490775L338.1190857776,350.490775Z" style="opacity: 0;"/><path data-target="point-1-21" d="M353.0801147293673,350.490775L381.38695597519023,424.8036662524446L369.8585858624326,344.888261L354.5274840574367,344.888261Z" style="opacity: 0;"/><path data-target="point-1-22" d="M369.8585858624326,344.888261L381.38695597519023,424.8036662524446L387.3686517916807,447.5836397748177L422.37057763979584,543.18L435.37034010430216,543.18L385.65914584623465,340.3953865L371.7182507629102,340.3953865Z" style="opacity: 0;"/><path data-target="point-1-23" d="M385.65914584623465,340.3953865L435.37034010430216,543.18L461.3026701107097,543.18L401.9021441918653,335.9413105L388.1998779786347,335.9413105Z" style="opacity: 0;"/><path data-target="point-1-24" d="M401.9021441918653,335.9413105L461.3026701107097,543.18L471.6178871016003,543.18L418.4319270414,331.11476849999997L404.7008491715347,331.11476849999997Z" style="opacity: 0;"/><path data-target="point-1-25" d="M418.4319270414,331.11476849999997L471.6178871016003,543.18L497.5641750512002,543.18L434.83794740359997,327.1805935L420.90607353054486,327.1805935Z" style="opacity: 0;"/><path data-target="point-1-26" d="M434.83794740359997,327.1805935L497.5641750512002,543.18L517.8856588365873,543.18L451.3716957442,322.72651749999994L437.35768178779995,322.7265175Z" style="opacity: 0;"/><path data-target="point-1-27" d="M451.3716957442,322.72651749999994L517.8856588365873,543.18L520.6751707372669,543.18L467.0740819186853,313.845912L459.58569489902095,306.77080818605094Z" style="opacity: 0;"/><path data-target="point-1-28" d="M467.0740819186853,313.845912L520.6751707372669,543.18L612.2004782890093,543.18L484.34410486032436,313.845912Z" style="opacity: 0;"/><path data-target="point-1-29" d="M484.34410486032436,313.845912L612.2004782890093,543.18L639.3207223133433,543.18L500.8274591102259,304.6073515L486.812439432212,304.6073515Z" style="opacity: 0;"/><path data-target="point-1-30" d="M500.8274591102259,304.6073515L639.3207223133433,543.18L667.3346583362421,543.18L517.323250511497,294.99647949999996L503.2465646396033,294.99647949999996Z" style="opacity: 0;"/><path data-target="point-1-31" d="M517.323250511497,294.99647949999996L667.3346583362421,543.18L696.3242630932241,543.18L533.8332922098624,284.998243L519.6682882884699,284.998243Z" style="opacity: 0;"/><path data-target="point-1-32" d="M533.8332922098624,284.998243L696.3242630932241,543.18L726.368513580094,543.18L550.3597695606001,274.5969665L536.075741704383,274.5969665Z" style="opacity: 0;"/><path data-target="point-1-33" d="M550.3597695606001,274.5969665L726.368513580094,543.18L757.5522219076491,543.18L566.9049817075758,263.77635599999996L552.4668487678719,263.77635599999996Z" style="opacity: 0;"/><path data-target="point-1-34" d="M566.9049817075758,263.77635599999996L757.5522219076491,543.18L789.9802079098681,543.18L583.4716616137938,252.51964900000002L568.8393920949206,252.51964900000002Z" style="opacity: 0;"/><path data-target="point-1-35" d="M583.4716616137938,252.51964900000002L789.9802079098681,543.18L823,543.18L823,542.171132145283L600.0628099722192,240.80923099999998L585.1906734284682,240.80923099999998Z" style="opacity: 0;"/><path data-target="point-1-36" d="M600.0628099722192,240.80923099999998L823,542.171132145283L823,496.4730771797898L616.6817476735038,228.62679L601.5178944915656,228.62679Z" style="opacity: 0;"/><path data-target="point-1-37" d="M616.6817476735038,228.62679L823,496.4730771797898L823,452.4373504058551L633.3320448180797,215.9530815L617.8177862567098,215.9530815Z" style="opacity: 0;"/><path data-target="point-1-38" d="M633.3320448180797,215.9530815L823,452.4373504058551L823,409.9036736745352L650.0181026878242,202.768706L634.0869776736383,202.76870599999998Z" style="opacity: 0;"/><path data-target="point-1-39" d="M650.0181026878242,202.768706L823,409.9036736745352L823,368.7498325013229L666.744301912725,189.05263499999998L650.3212353565985,189.05263499999998Z" style="opacity: 0;"/><path data-target="point-1-40" d="M666.5163983393653,174.7836845L666.744301912725,189.05263499999998L823,368.7498325013229L823,328.84218874439165L683.5158233590214,174.7836845Z" style="opacity: 0;"/><path data-target="point-1-41" d="M682.6675334892807,159.93958349999997L683.5158233590214,174.7836845L823,328.84218874439165L823,290.05208341699284L700.3384485146149,159.93958349999997Z" style="opacity: 0;"/><path data-target="point-1-42" d="M698.7691531533034,144.49697650000002L700.3384485146149,159.93958349999997L823,290.05208341699284L823,252.25934075255552L717.2185253602738,144.49697650000002Z" style="opacity: 0;"/><path data-target="point-1-43" d="M714.8152649388697,128.43172950000002L717.2185253602738,144.49697650000002L823,252.25934075255552L823,215.3491512702127L734.1629705343773,128.43172950000002Z" style="opacity: 0;"/><path data-target="point-1-44" d="M730.7992998404567,111.71885699999999L734.1629705343773,128.43172950000002L823,215.3491512702127L823,179.20449583867787L751.1796798591353,111.71885699999999Z" style="opacity: 0;"/><path data-target="point-1-45" d="M746.7138442299203,94.3321305L751.1796798591353,111.71885699999999L823,179.20449583867787L823,143.715396678817L768.2773586781989,94.3321305Z" style="opacity: 0;"/><path data-target="point-1-46" d="M762.5507444057106,76.244392L768.2773586781989,94.3321305L823,143.715396678817L823,76.244392Z" style="opacity: 0;"/></g></g><g class="axes"><g class="y axis" fill="none" font-size="10" font-family="sans-serif" text-anchor="end" style="font-family: &quot;Source Sans Pro&quot;;"><path class="domain" stroke="#eeeeee" d="M0.5,543.68V0.5" stroke-dasharray="0" style="visibility: hidden;"/><g class="tick" opacity="1" transform="translate(0,543.68)" style="visibility: visible;"><line stroke="#eeeeee" x2="823" stroke-dasharray="0"/><text fill="rgb(0, 0, 0)" x="-3" dy="0.33em" opacity="1" text-anchor="end" font-size="14">$0</text></g><g class="tick" opacity="1" transform="translate(0, 466.0828552246094)" style="visibility: visible;"><line stroke="#eeeeee" x2="823" stroke-dasharray="0"/><text fill="rgb(0, 0, 0)" x="-3" dy="0.33em" opacity="1" text-anchor="end" font-size="14">$5000</text></g><g class="tick" opacity="1" transform="translate(0, 388.4857177734375)" style="visibility: visible;"><line stroke="#eeeeee" x2="823" stroke-dasharray="0"/><text fill="rgb(0, 0, 0)" x="-3" dy="0.33em" opacity="1" text-anchor="end" font-size="14">$10,000</text></g><g class="tick" opacity="1" transform="translate(0, 310.8885803222656)" style="visibility: visible;"><line stroke="#eeeeee" x2="823" stroke-dasharray="0"/><text fill="rgb(0, 0, 0)" x="-3" dy="0.33em" opacity="1" text-anchor="end" font-size="14">$15,000</text></g><g class="tick" opacity="1" transform="translate(0, 233.2914276123047)" style="visibility: visible;"><line stroke="#eeeeee" x2="823" stroke-dasharray="0"/><text fill="rgb(0, 0, 0)" x="-3" dy="0.33em" opacity="1" text-anchor="end" font-size="14">$20,000</text></g><g class="tick" opacity="1" transform="translate(0, 155.6942901611328)" style="visibility: visible;"><line stroke="#eeeeee" x2="823" stroke-dasharray="0"/><text fill="rgb(0, 0, 0)" x="-3" dy="0.33em" opacity="1" text-anchor="end" font-size="14">$25,000</text></g><g class="tick" opacity="1" transform="translate(0, 78.0971450805664)" style="visibility: visible;"><line stroke="#eeeeee" x2="823" stroke-dasharray="0"/><text fill="rgb(0, 0, 0)" x="-3" dy="0.33em" opacity="1" text-anchor="end" font-size="14">$30,000</text></g><g class="tick" opacity="1" transform="translate(0, 0.5)" style="visibility: visible;"><line stroke="#eeeeee" x2="823" stroke-dasharray="0"/><text fill="rgb(0, 0, 0)" x="-3" dy="0.33em" opacity="1" text-anchor="end" font-size="14">$35,000</text></g></g><g class="x axis" transform="translate(0,543.18)" fill="none" font-size="10" font-family="sans-serif" text-anchor="middle" style="font-family: &quot;Source Sans Pro&quot;;"><path class="domain" stroke="#eeeeee" d="M0.5,0.5H823.5" stroke-dasharray="0"/><g class="tick" opacity="1" transform="translate(0.5,0)"><line stroke="#eeeeee" y2="6" stroke-dasharray="0"/><text fill="rgb(0, 0, 0)" y="9" dy="-9" opacity="1" dominant-baseline="central" font-size="16" transform="translate(0, 15) rotate(-45)" dx="5" style="text-anchor: end; visibility: visible;">1990</text></g><g class="tick" opacity="1" transform="translate(82.80000000000001,0)"><line stroke="#eeeeee" y2="6" stroke-dasharray="0"/><text fill="rgb(0, 0, 0)" y="9" dy="-9" opacity="1" dominant-baseline="central" font-size="16" transform="translate(0, 15) rotate(-45)" dx="5" style="text-anchor: end; visibility: visible;">1995</text></g><g class="tick" opacity="1" transform="translate(165.10000000000002,0)"><line stroke="#eeeeee" y2="6" stroke-dasharray="0"/><text fill="rgb(0, 0, 0)" y="9" dy="-9" opacity="1" dominant-baseline="central" font-size="16" transform="translate(0, 15) rotate(-45)" dx="5" style="text-anchor: end; visibility: visible;">2000</text></g><g class="tick" opacity="1" transform="translate(247.39999999999998,0)"><line stroke="#eeeeee" y2="6" stroke-dasharray="0"/><text fill="rgb(0, 0, 0)" y="9" dy="-9" opacity="1" dominant-baseline="central" font-size="16" transform="translate(0, 15) rotate(-45)" dx="5" style="text-anchor: end; visibility: visible;">2005</text></g><g class="tick" opacity="1" transform="translate(329.70000000000005,0)"><line stroke="#eeeeee" y2="6" stroke-dasharray="0"/><text fill="rgb(0, 0, 0)" y="9" dy="-9" opacity="1" dominant-baseline="central" font-size="16" transform="translate(0, 15) rotate(-45)" dx="5" style="text-anchor: end; visibility: visible;">2010</text></g><g class="tick" opacity="1" transform="translate(412,0)"><line stroke="#eeeeee" y2="6" stroke-dasharray="0"/><text fill="rgb(0, 0, 0)" y="9" dy="-9" opacity="1" dominant-baseline="central" font-size="16" transform="translate(0, 15) rotate(-45)" dx="5" style="text-anchor: end; visibility: visible;">2015</text></g><g class="tick" opacity="1" transform="translate(494.29999999999995,0)"><line stroke="#eeeeee" y2="6" stroke-dasharray="0"/><text fill="rgb(0, 0, 0)" y="9" dy="-9" opacity="1" dominant-baseline="central" font-size="16" transform="translate(0, 15) rotate(-45)" dx="5" style="text-anchor: end; visibility: visible;">2020</text></g><g class="tick" opacity="1" transform="translate(576.5999999999999,0)"><line stroke="#eeeeee" y2="6" stroke-dasharray="0"/><text fill="rgb(0, 0, 0)" y="9" dy="-9" opacity="1" dominant-baseline="central" font-size="16" transform="translate(0, 15) rotate(-45)" dx="5" style="text-anchor: end; visibility: visible;">2025</text></g><g class="tick" opacity="1" transform="translate(658.9000000000001,0)"><line stroke="#eeeeee" y2="6" stroke-dasharray="0"/><text fill="rgb(0, 0, 0)" y="9" dy="-9" opacity="1" dominant-baseline="central" font-size="16" transform="translate(0, 15) rotate(-45)" dx="5" style="text-anchor: end; visibility: visible;">2030</text></g><g class="tick" opacity="1" transform="translate(741.2,0)"><line stroke="#eeeeee" y2="6" stroke-dasharray="0"/><text fill="rgb(0, 0, 0)" y="9" dy="-9" opacity="1" dominant-baseline="central" font-size="16" transform="translate(0, 15) rotate(-45)" dx="5" style="text-anchor: end; visibility: visible;">2035</text></g><g class="tick" opacity="1" transform="translate(823.5,0)"><line stroke="#eeeeee" y2="6" stroke-dasharray="0"/><text fill="rgb(0, 0, 0)" y="9" dy="-9" opacity="1" dominant-baseline="central" font-size="16" transform="translate(0, 15) rotate(-45)" dx="5" style="text-anchor: end; visibility: visible;">2040</text></g></g></g></g></g></g><g class="annotations below"><g class="axis-highlights" transform="translate(50, 10)" style="opacity: 1;"><g class="line x" transform="translate(477.34, 0)"><line width="0" stroke-dasharray="2 2" stroke="#333333" stroke-width="2" y2="543.18"/><text transform="translate(0, 6) rotate(-90)" fill="#333333" text-anchor="end" dy="-0.5em" font-size="12">Current</text></g></g></g><g id="areas"><g class="series" pointer-events="none"><path class="area" transform="translate(50,10)" fill-opacity="0" fill="rgb(17, 165, 121)" clip-path="url(#clip-0-0)" d="M16.46,483.27500571428567C21.94666666666667,482.16407328571427,27.433333333333334,481.0531408571428,32.92,480.0780034285714C38.406666666666666,479.10286599999995,43.89333333333333,478.56227257142854,49.379999999999995,477.4241811428571C54.86666666666667,476.28608971428565,60.35333333333333,474.69017514285713,65.84,473.24945485714284C71.32666666666667,471.80873457142854,76.81333333333335,470.249032,82.30000000000001,468.7798594285714C87.78666666666668,467.3106868571428,93.27333333333333,465.82858142857134,98.75999999999999,464.43441942857135C104.24666666666667,463.04025742857135,109.73333333333333,462.0806394285714,115.22000000000001,460.4148874285714C120.70666666666668,458.7491354285714,126.19333333333334,456.1651505714285,131.68,454.43990742857136C137.16666666666666,452.7146642857142,142.65333333333334,451.65416999999997,148.14,450.0634285714285C153.62666666666667,448.47268714285707,159.11333333333334,446.5896631428571,164.60000000000002,444.8954588571428C170.08666666666667,443.2012545714285,175.57333333333335,442.4201099999999,181.06,439.8982028571428C186.54666666666665,437.3762957142857,192.03333333333333,433.0541348571428,197.51999999999998,429.76401599999997C203.00666666666666,426.47389714285714,208.49333333333334,423.4062234285714,213.98000000000002,420.1574897142857C219.4666666666667,416.908756,224.95333333333335,413.6600222857142,230.44000000000003,410.27161371428565C235.92666666666668,406.8832051428571,241.41333333333333,403.4327188571428,246.89999999999998,399.82703828571425C252.38666666666666,396.22135771428566,257.87333333333333,392.38547228571423,263.36,388.6375302857142C268.8466666666667,384.8895882857142,274.3333333333333,381.4313422857142,279.82,377.3393862857142C285.3066666666667,373.24743028571424,290.7933333333333,367.1896799999999,296.28,364.0857942857142C301.76666666666665,360.98190857142845,307.25333333333333,361.3543748571428,312.74,358.71607199999994C318.2266666666667,356.0777691428571,323.71333333333337,350.27350285714283,329.20000000000005,348.2559771428571C334.68666666666667,346.2384514285714,340.17333333333335,346.55659971428565,345.65999999999997,345.22968857142854C351.14666666666665,343.9027774285714,356.6333333333333,342.21891942857144,362.12,340.2945102857143C367.6066666666667,338.37010114285715,373.09333333333336,335.59729657142856,378.58000000000004,333.6832337142857C384.06666666666666,331.7691708571428,389.55333333333334,330.4448462857143,395.03999999999996,328.8101331428571C400.52666666666664,327.17542,406.0133333333333,325.32084828571425,411.5,323.8749548571428C416.9866666666667,322.4290614285714,422.47333333333336,321.44616428571425,427.96000000000004,320.1347725714285C433.4466666666667,318.8233808571428,438.93333333333334,317.42107977904755,444.42,316.0066045714285C455.3933333333333,313.17765415619044,466.3666666666667,312.18647998476195,477.34,307.05872283428573C482.82666666666665,304.4948442590476,488.3133333333333,300.91941795142856,493.79999999999995,297.75823968C499.28666666666663,294.5970614085714,504.7733333333333,291.37732315999995,510.26,288.09165320571424C515.7466666666667,284.80598325142853,521.2333333333333,281.4593219428572,526.72,278.0442199542857C532.2066666666667,274.6291179657143,537.6933333333334,271.15067084285715,543.1800000000001,267.6010412742857C548.6666666666667,264.05141170571426,554.1533333333333,260.4359021628571,559.64,256.7464425428571C565.1266666666667,253.05698292285712,570.6133333333332,249.2990308914286,576.0999999999999,245.46428355428577C581.5866666666666,241.6295362171429,587.0733333333333,237.72373576285716,592.56,233.73795852C598.0466666666666,229.75218127714285,603.5333333333333,225.69242809142855,609.02,221.54962009714285C614.5066666666667,217.40681210285715,619.9933333333333,213.18707947428572,625.48,208.88111055428573C630.9666666666667,204.57514163428573,636.4533333333334,200.18937698571423,641.94,195.7138065771428C647.4266666666667,191.23823616857138,652.9133333333334,186.67955922000002,658.4000000000001,182.02768810285716C663.8866666666668,177.37581698571432,669.3733333333333,172.63765784571427,674.86,167.8025798742857C680.3466666666667,162.96750190285712,685.8333333333333,158.04274750000002,691.3199999999999,153.01722027428576C696.8066666666666,147.99169304857145,702.2933333333333,142.87289405714287,707.78,137.64941652C713.2666666666667,132.4259389828571,718.7533333333333,127.10556847999995,724.24,121.67635505142852C729.7266666666667,116.24714162285709,735.2133333333334,110.71720710285715,740.7,105.07413594857144C746.1866666666667,99.43106479428573,751.6733333333334,93.68326336285716,757.1600000000001,87.81792812571427C762.6466666666668,81.95259288857143,768.1333333333333,75.91735870714287,773.62,69.88212452571429L773.62,69.88212452571429C768.1333333333333,75.91735870714287,762.6466666666668,81.95259288857143,757.1600000000001,87.81792812571427C751.6733333333334,93.68326336285716,746.1866666666667,99.43106479428573,740.7,105.07413594857144C735.2133333333334,110.71720710285715,729.7266666666667,116.24714162285709,724.24,121.67635505142852C718.7533333333333,127.10556847999995,713.2666666666667,132.4259389828571,707.78,137.64941652C702.2933333333333,142.87289405714287,696.8066666666666,147.99169304857145,691.3199999999999,153.01722027428576C685.8333333333333,158.04274750000002,680.3466666666667,162.96750190285712,674.86,167.8025798742857C669.3733333333333,172.63765784571427,663.8866666666668,177.37581698571432,658.4000000000001,182.02768810285716C652.9133333333334,186.67955922000002,647.4266666666667,191.23823616857138,641.94,195.7138065771428C636.4533333333334,200.18937698571423,630.9666666666667,204.57514163428573,625.48,208.88111055428573C619.9933333333333,213.18707947428572,614.5066666666667,217.40681210285715,609.02,221.54962009714285C603.5333333333333,225.69242809142855,598.0466666666666,229.75218127714285,592.56,233.73795852C587.0733333333333,237.72373576285716,581.5866666666666,241.6295362171429,576.0999999999999,245.46428355428577C570.6133333333332,249.2990308914286,565.1266666666667,253.05698292285712,559.64,256.7464425428571C554.1533333333333,260.4359021628571,548.6666666666667,264.05141170571426,543.1800000000001,267.6010412742857C537.6933333333334,271.15067084285715,532.2066666666667,274.6291179657143,526.72,278.0442199542857C521.2333333333333,281.4593219428572,515.7466666666667,284.80598325142853,510.26,288.09165320571424C504.7733333333333,291.37732315999995,499.28666666666663,294.5970614085714,493.79999999999995,297.75823968C488.3133333333333,300.91941795142856,482.82666666666665,304.4948442590476,477.34,307.05872283428573C466.3666666666667,312.18647998476195,455.3933333333333,313.17765415619044,444.42,316.0066045714285C438.93333333333334,317.42107977904755,433.4466666666667,318.8233808571428,427.96000000000004,320.1347725714285C422.47333333333336,321.44616428571425,416.9866666666667,322.4290614285714,411.5,323.8749548571428C406.0133333333333,325.32084828571425,400.52666666666664,327.17542,395.03999999999996,328.8101331428571C389.55333333333334,330.4448462857143,384.06666666666666,331.7691708571428,378.58000000000004,333.6832337142857C373.09333333333336,335.59729657142856,367.6066666666667,338.37010114285715,362.12,340.2945102857143C356.6333333333333,342.21891942857144,351.14666666666665,343.9027774285714,345.65999999999997,345.22968857142854C340.17333333333335,346.55659971428565,334.68666666666667,346.2384514285714,329.20000000000005,348.2559771428571C323.71333333333337,350.27350285714283,318.2266666666667,356.0777691428571,312.74,358.71607199999994C307.25333333333333,361.3543748571428,301.76666666666665,360.98190857142845,296.28,364.0857942857142C290.7933333333333,367.1896799999999,285.3066666666667,373.24743028571424,279.82,377.3393862857142C274.3333333333333,381.4313422857142,268.8466666666667,384.8895882857142,263.36,388.6375302857142C257.87333333333333,392.38547228571423,252.38666666666666,396.22135771428566,246.89999999999998,399.82703828571425C241.41333333333333,403.4327188571428,235.92666666666668,406.8832051428571,230.44000000000003,410.27161371428565C224.95333333333335,413.6600222857142,219.4666666666667,416.908756,213.98000000000002,420.1574897142857C208.49333333333334,423.4062234285714,203.00666666666666,426.47389714285714,197.51999999999998,429.76401599999997C192.03333333333333,433.0541348571428,186.54666666666665,437.3762957142857,181.06,439.8982028571428C175.57333333333335,442.4201099999999,170.08666666666667,443.2012545714285,164.60000000000002,444.8954588571428C159.11333333333334,446.5896631428571,153.62666666666667,448.47268714285707,148.14,450.0634285714285C142.65333333333334,451.65416999999997,137.16666666666666,452.7146642857142,131.68,454.43990742857136C126.19333333333334,456.1651505714285,120.70666666666668,458.7491354285714,115.22000000000001,460.4148874285714C109.73333333333333,462.0806394285714,104.24666666666667,463.04025742857135,98.75999999999999,464.43441942857135C93.27333333333333,465.82858142857134,87.78666666666668,467.3106868571428,82.30000000000001,468.7798594285714C76.81333333333335,470.249032,71.32666666666667,471.80873457142854,65.84,473.24945485714284C60.35333333333333,474.69017514285713,54.86666666666667,476.28608971428565,49.379999999999995,477.4241811428571C43.89333333333333,478.56227257142854,38.406666666666666,479.10286599999995,32.92,480.0780034285714C27.43333333333333,481.0531408571428,21.946666666666665,482.16407328571427,16.46,483.27500571428567Z"/></g><g class="series" pointer-events="none"><path class="area" transform="translate(50,10)" fill-opacity="0" fill="rgb(204, 80, 62)" clip-path="url(#clip-0-1)" d="M16.46,497.9408657142857C21.94666666666667,496.53635742857136,27.433333333333334,495.1318491428571,32.92,494.16964457142853C38.406666666666666,493.20743999999996,43.89333333333333,492.99792771428565,49.379999999999995,492.16763828571425C54.86666666666667,491.3373488571428,60.35333333333333,490.20960371428566,65.84,489.18790799999994C71.32666666666667,488.1662122857142,76.81333333333335,487.3074705714285,82.30000000000001,486.03746399999994C87.78666666666668,484.7674574285714,93.27333333333333,483.20258171428566,98.75999999999999,481.5678685714285C104.24666666666667,479.93315542857135,109.73333333333333,478.06047771428564,115.22000000000001,476.2291851428571C120.70666666666668,474.39789257142854,126.19333333333334,472.37778028571427,131.68,470.5801131428571C137.16666666666666,468.78244599999994,142.65333333333334,467.2098105714285,148.14,465.4431822857142C153.62666666666667,463.6765539999999,159.11333333333334,462.18151571428564,164.60000000000002,459.98034342857136C170.08666666666667,457.7791711428571,175.57333333333335,455.2546774285714,181.06,452.23614857142854C186.54666666666665,449.21761971428566,192.03333333333333,445.31706999999994,197.51999999999998,441.86917028571423C203.00666666666666,438.4212705714285,208.49333333333334,435.0432082857143,213.98000000000002,431.5487502857143C219.4666666666667,428.05429228571427,224.95333333333335,424.2985905714285,230.44000000000003,420.90242228571424C235.92666666666668,417.50625399999996,241.41333333333333,414.66619857142854,246.89999999999998,411.17174057142853C252.38666666666666,407.6772825714285,257.87333333333333,403.4456517142857,263.36,399.93567428571424C268.8466666666667,396.42569685714284,274.3333333333333,393.74342228571425,279.82,390.11187599999994C285.3066666666667,386.48032971428563,290.7933333333333,381.1468194285714,296.28,378.14639657142857C301.76666666666665,375.14597371428573,307.25333333333333,374.26912599999997,312.74,372.1093388571428C318.2266666666667,369.94955171428563,323.71333333333337,367.91391999999996,329.20000000000005,365.18767371428567C334.68666666666667,362.46142742857137,340.17333333333335,358.36947142857144,345.65999999999997,355.75186114285714C351.14666666666665,353.13425085714283,356.6333333333333,350.92273228571423,362.12,349.48201199999994C367.6066666666667,348.04129171428565,373.09333333333336,348.1757934285714,378.58000000000004,347.1075394285714C384.06666666666666,346.0392854285714,389.55333333333334,344.53131428571425,395.03999999999996,343.07248799999996C400.52666666666664,341.6136617142857,406.0133333333333,339.82892742857143,411.5,338.3545817142857C416.9866666666667,336.88023599999997,422.47333333333336,335.7111057142857,427.96000000000004,334.2264137142857C433.4466666666667,332.7417217142857,438.93333333333334,331.07079657142856,444.42,329.4464297142857C449.9066666666667,327.82206285714284,455.3933333333334,325.94910061999997,460.88000000000005,324.4802125714285C466.3666666666667,323.0113245228571,471.85333333333335,322.8037263,477.34,320.6331014228571C482.82666666666665,318.46247654571425,488.3133333333333,314.5784291571428,493.79999999999995,311.4564633085714C499.28666666666663,308.33449745999997,504.7733333333333,305.15200584,510.26,301.9013063314286C515.7466666666667,298.6506068228572,521.2333333333333,295.33700189714284,526.72,291.9522662571428C532.2066666666667,288.5675306171428,537.6933333333334,285.1172253914285,543.1800000000001,281.59289249142853C548.6666666666667,278.06855959142854,554.1533333333333,274.4759153399999,559.64,270.8062688571428C565.1266666666667,267.1366223742857,570.6133333333332,263.39597450571426,576.0999999999999,259.57501359428574C581.5866666666666,255.75405268285718,587.0733333333333,251.85901236571434,592.56,247.88050338857147C598.0466666666666,243.9019944114286,603.5333333333333,239.84653493428564,609.02,235.70395973142848C614.5066666666667,231.56138452857132,619.9933333333333,227.33844455142855,625.48,223.02505217142857C630.9666666666667,218.7116597914286,636.4533333333334,214.31485048285717,641.94,209.8236054514286C647.4266666666667,205.33236042000001,652.9133333333334,200.75405139428577,658.4000000000001,196.07758198285717C663.8866666666668,191.40111257142863,669.3733333333333,186.63406142857147,674.86,181.76478898285717C680.3466666666667,176.89551653714287,685.8333333333333,171.9319894285714,691.3199999999999,166.86194730857142C696.8066666666666,161.79190518857138,702.2933333333333,156.6236768171428,707.78,151.3445362628571C713.2666666666667,146.0653957085714,718.7533333333333,140.68393038857147,724.24,135.1871039828572C729.7266666666667,129.69027757714292,735.2133333333334,124.08703962285713,740.7,118.36357782857141C746.1866666666667,112.64011603428568,751.6733333333334,106.80581965428571,757.1600000000001,100.84633321714284C762.6466666666668,94.88684678000001,768.1333333333333,88.74675299285717,773.62,82.60665920571432L773.62,82.60665920571432C768.1333333333333,88.74675299285717,762.6466666666668,94.88684678000001,757.1600000000001,100.84633321714284C751.6733333333334,106.80581965428571,746.1866666666667,112.64011603428568,740.7,118.36357782857141C735.2133333333334,124.08703962285713,729.7266666666667,129.69027757714292,724.24,135.1871039828572C718.7533333333333,140.68393038857147,713.2666666666667,146.0653957085714,707.78,151.3445362628571C702.2933333333333,156.6236768171428,696.8066666666666,161.79190518857138,691.3199999999999,166.86194730857142C685.8333333333333,171.9319894285714,680.3466666666667,176.89551653714287,674.86,181.76478898285717C669.3733333333333,186.63406142857147,663.8866666666668,191.40111257142863,658.4000000000001,196.07758198285717C652.9133333333334,200.75405139428577,647.4266666666667,205.33236042000001,641.94,209.8236054514286C636.4533333333334,214.31485048285717,630.9666666666667,218.7116597914286,625.48,223.02505217142857C619.9933333333333,227.33844455142855,614.5066666666667,231.56138452857132,609.02,235.70395973142848C603.5333333333333,239.84653493428564,598.0466666666666,243.9019944114286,592.56,247.88050338857147C587.0733333333333,251.85901236571434,581.5866666666666,255.75405268285718,576.0999999999999,259.57501359428574C570.6133333333332,263.39597450571426,565.1266666666667,267.1366223742857,559.64,270.8062688571428C554.1533333333333,274.4759153399999,548.6666666666667,278.06855959142854,543.1800000000001,281.59289249142853C537.6933333333334,285.1172253914285,532.2066666666667,288.5675306171428,526.72,291.9522662571428C521.2333333333333,295.33700189714284,515.7466666666667,298.6506068228572,510.26,301.9013063314286C504.7733333333333,305.15200584,499.28666666666663,308.33449745999997,493.79999999999995,311.4564633085714C488.3133333333333,314.5784291571428,482.82666666666665,318.46247654571425,477.34,320.6331014228571C471.85333333333335,322.8037263,466.3666666666667,323.0113245228571,460.88000000000005,324.4802125714285C455.3933333333334,325.94910061999997,449.9066666666667,327.82206285714284,444.42,329.4464297142857C438.93333333333334,331.07079657142856,433.4466666666667,332.7417217142857,427.96000000000004,334.2264137142857C422.47333333333336,335.7111057142857,416.9866666666667,336.88023599999997,411.5,338.3545817142857C406.0133333333333,339.82892742857143,400.52666666666664,341.6136617142857,395.03999999999996,343.07248799999996C389.55333333333334,344.53131428571425,384.06666666666666,346.0392854285714,378.58000000000004,347.1075394285714C373.09333333333336,348.1757934285714,367.6066666666667,348.04129171428565,362.12,349.48201199999994C356.6333333333333,350.92273228571423,351.14666666666665,353.13425085714283,345.65999999999997,355.75186114285714C340.17333333333335,358.36947142857144,334.68666666666667,362.46142742857137,329.20000000000005,365.18767371428567C323.71333333333337,367.91391999999996,318.2266666666667,369.94955171428563,312.74,372.1093388571428C307.25333333333333,374.26912599999997,301.76666666666665,375.14597371428573,296.28,378.14639657142857C290.7933333333333,381.1468194285714,285.3066666666667,386.48032971428563,279.82,390.11187599999994C274.3333333333333,393.74342228571425,268.8466666666667,396.42569685714284,263.36,399.93567428571424C257.87333333333333,403.4456517142857,252.38666666666666,407.6772825714285,246.89999999999998,411.17174057142853C241.41333333333333,414.66619857142854,235.92666666666668,417.50625399999996,230.44000000000003,420.90242228571424C224.95333333333335,424.2985905714285,219.4666666666667,428.05429228571427,213.98000000000002,431.5487502857143C208.49333333333334,435.0432082857143,203.00666666666666,438.4212705714285,197.51999999999998,441.86917028571423C192.03333333333333,445.31706999999994,186.54666666666665,449.21761971428566,181.06,452.23614857142854C175.57333333333335,455.2546774285714,170.08666666666667,457.7791711428571,164.60000000000002,459.98034342857136C159.11333333333334,462.18151571428564,153.62666666666667,463.6765539999999,148.14,465.4431822857142C142.65333333333334,467.2098105714285,137.16666666666666,468.78244599999994,131.68,470.5801131428571C126.19333333333334,472.37778028571427,120.70666666666668,474.39789257142854,115.22000000000001,476.2291851428571C109.73333333333333,478.06047771428564,104.24666666666667,479.93315542857135,98.75999999999999,481.5678685714285C93.27333333333333,483.20258171428566,87.78666666666668,484.7674574285714,82.30000000000001,486.03746399999994C76.81333333333335,487.3074705714285,71.32666666666667,488.1662122857142,65.84,489.18790799999994C60.35333333333333,490.20960371428566,54.86666666666667,491.3373488571428,49.379999999999995,492.16763828571425C43.89333333333333,492.99792771428565,38.406666666666666,493.20743999999996,32.92,494.16964457142853C27.433333333333334,495.1318491428571,21.94666666666667,496.53635742857136,16.46,497.9408657142857Z"/></g></g><g id="lines"><g class="series"><clipPath id="clip-0-0"><rect width="823" y="-10" height="563.18"/></clipPath><path class="line" opacity="1" fill="none" stroke="rgb(17, 165, 121)" stroke-width="2" transform="translate(50,10)" clip-path="url(#clip-0-0)" d="M16.46,483.27500571428567C21.94666666666667,482.16407328571427,27.433333333333334,481.0531408571428,32.92,480.0780034285714C38.406666666666666,479.10286599999995,43.89333333333333,478.56227257142854,49.379999999999995,477.4241811428571C54.86666666666667,476.28608971428565,60.35333333333333,474.69017514285713,65.84,473.24945485714284C71.32666666666667,471.80873457142854,76.81333333333335,470.249032,82.30000000000001,468.7798594285714C87.78666666666668,467.3106868571428,93.27333333333333,465.82858142857134,98.75999999999999,464.43441942857135C104.24666666666667,463.04025742857135,109.73333333333333,462.0806394285714,115.22000000000001,460.4148874285714C120.70666666666668,458.7491354285714,126.19333333333334,456.1651505714285,131.68,454.43990742857136C137.16666666666666,452.7146642857142,142.65333333333334,451.65416999999997,148.14,450.0634285714285C153.62666666666667,448.47268714285707,159.11333333333334,446.5896631428571,164.60000000000002,444.8954588571428C170.08666666666667,443.2012545714285,175.57333333333335,442.4201099999999,181.06,439.8982028571428C186.54666666666665,437.3762957142857,192.03333333333333,433.0541348571428,197.51999999999998,429.76401599999997C203.00666666666666,426.47389714285714,208.49333333333334,423.4062234285714,213.98000000000002,420.1574897142857C219.4666666666667,416.908756,224.95333333333335,413.6600222857142,230.44000000000003,410.27161371428565C235.92666666666668,406.8832051428571,241.41333333333333,403.4327188571428,246.89999999999998,399.82703828571425C252.38666666666666,396.22135771428566,257.87333333333333,392.38547228571423,263.36,388.6375302857142C268.8466666666667,384.8895882857142,274.3333333333333,381.4313422857142,279.82,377.3393862857142C285.3066666666667,373.24743028571424,290.7933333333333,367.1896799999999,296.28,364.0857942857142C301.76666666666665,360.98190857142845,307.25333333333333,361.3543748571428,312.74,358.71607199999994C318.2266666666667,356.0777691428571,323.71333333333337,350.27350285714283,329.20000000000005,348.2559771428571C334.68666666666667,346.2384514285714,340.17333333333335,346.55659971428565,345.65999999999997,345.22968857142854C351.14666666666665,343.9027774285714,356.6333333333333,342.21891942857144,362.12,340.2945102857143C367.6066666666667,338.37010114285715,373.09333333333336,335.59729657142856,378.58000000000004,333.6832337142857C384.06666666666666,331.7691708571428,389.55333333333334,330.4448462857143,395.03999999999996,328.8101331428571C400.52666666666664,327.17542,406.0133333333333,325.32084828571425,411.5,323.8749548571428C416.9866666666667,322.4290614285714,422.47333333333336,321.44616428571425,427.96000000000004,320.1347725714285C433.4466666666667,318.8233808571428,438.93333333333334,317.42107977904755,444.42,316.0066045714285C455.3933333333333,313.17765415619044,466.3666666666667,312.18647998476195,477.34,307.05872283428573C482.82666666666665,304.4948442590476,488.3133333333333,300.91941795142856,493.79999999999995,297.75823968C499.28666666666663,294.5970614085714,504.7733333333333,291.37732315999995,510.26,288.09165320571424C515.7466666666667,284.80598325142853,521.2333333333333,281.4593219428572,526.72,278.0442199542857C532.2066666666667,274.6291179657143,537.6933333333334,271.15067084285715,543.1800000000001,267.6010412742857C548.6666666666667,264.05141170571426,554.1533333333333,260.4359021628571,559.64,256.7464425428571C565.1266666666667,253.05698292285712,570.6133333333332,249.2990308914286,576.0999999999999,245.46428355428577C581.5866666666666,241.6295362171429,587.0733333333333,237.72373576285716,592.56,233.73795852C598.0466666666666,229.75218127714285,603.5333333333333,225.69242809142855,609.02,221.54962009714285C614.5066666666667,217.40681210285715,619.9933333333333,213.18707947428572,625.48,208.88111055428573C630.9666666666667,204.57514163428573,636.4533333333334,200.18937698571423,641.94,195.7138065771428C647.4266666666667,191.23823616857138,652.9133333333334,186.67955922000002,658.4000000000001,182.02768810285716C663.8866666666668,177.37581698571432,669.3733333333333,172.63765784571427,674.86,167.8025798742857C680.3466666666667,162.96750190285712,685.8333333333333,158.04274750000002,691.3199999999999,153.01722027428576C696.8066666666666,147.99169304857145,702.2933333333333,142.87289405714287,707.78,137.64941652C713.2666666666667,132.4259389828571,718.7533333333333,127.10556847999995,724.24,121.67635505142852C729.7266666666667,116.24714162285709,735.2133333333334,110.71720710285715,740.7,105.07413594857144C746.1866666666667,99.43106479428573,751.6733333333334,93.68326336285716,757.1600000000001,87.81792812571427C762.6466666666668,81.95259288857143,768.1333333333333,75.91735870714287,773.62,69.88212452571429"/><text class="label" font-size="11" alignment-baseline="middle" opacity="1" x="5" fill="rgb(17, 165, 121)" transform="translate(823.6199951171875, 79.88212585449219)"/></g><g class="series"><clipPath id="clip-0-1"><rect width="823" y="-10" height="563.18"/></clipPath><path class="line" opacity="1" fill="none" stroke="rgb(204, 80, 62)" stroke-width="2" transform="translate(50,10)" clip-path="url(#clip-0-1)" d="M16.46,497.9408657142857C21.94666666666667,496.53635742857136,27.433333333333334,495.1318491428571,32.92,494.16964457142853C38.406666666666666,493.20743999999996,43.89333333333333,492.99792771428565,49.379999999999995,492.16763828571425C54.86666666666667,491.3373488571428,60.35333333333333,490.20960371428566,65.84,489.18790799999994C71.32666666666667,488.1662122857142,76.81333333333335,487.3074705714285,82.30000000000001,486.03746399999994C87.78666666666668,484.7674574285714,93.27333333333333,483.20258171428566,98.75999999999999,481.5678685714285C104.24666666666667,479.93315542857135,109.73333333333333,478.06047771428564,115.22000000000001,476.2291851428571C120.70666666666668,474.39789257142854,126.19333333333334,472.37778028571427,131.68,470.5801131428571C137.16666666666666,468.78244599999994,142.65333333333334,467.2098105714285,148.14,465.4431822857142C153.62666666666667,463.6765539999999,159.11333333333334,462.18151571428564,164.60000000000002,459.98034342857136C170.08666666666667,457.7791711428571,175.57333333333335,455.2546774285714,181.06,452.23614857142854C186.54666666666665,449.21761971428566,192.03333333333333,445.31706999999994,197.51999999999998,441.86917028571423C203.00666666666666,438.4212705714285,208.49333333333334,435.0432082857143,213.98000000000002,431.5487502857143C219.4666666666667,428.05429228571427,224.95333333333335,424.2985905714285,230.44000000000003,420.90242228571424C235.92666666666668,417.50625399999996,241.41333333333333,414.66619857142854,246.89999999999998,411.17174057142853C252.38666666666666,407.6772825714285,257.87333333333333,403.4456517142857,263.36,399.93567428571424C268.8466666666667,396.42569685714284,274.3333333333333,393.74342228571425,279.82,390.11187599999994C285.3066666666667,386.48032971428563,290.7933333333333,381.1468194285714,296.28,378.14639657142857C301.76666666666665,375.14597371428573,307.25333333333333,374.26912599999997,312.74,372.1093388571428C318.2266666666667,369.94955171428563,323.71333333333337,367.91391999999996,329.20000000000005,365.18767371428567C334.68666666666667,362.46142742857137,340.17333333333335,358.36947142857144,345.65999999999997,355.75186114285714C351.14666666666665,353.13425085714283,356.6333333333333,350.92273228571423,362.12,349.48201199999994C367.6066666666667,348.04129171428565,373.09333333333336,348.1757934285714,378.58000000000004,347.1075394285714C384.06666666666666,346.0392854285714,389.55333333333334,344.53131428571425,395.03999999999996,343.07248799999996C400.52666666666664,341.6136617142857,406.0133333333333,339.82892742857143,411.5,338.3545817142857C416.9866666666667,336.88023599999997,422.47333333333336,335.7111057142857,427.96000000000004,334.2264137142857C433.4466666666667,332.7417217142857,438.93333333333334,331.07079657142856,444.42,329.4464297142857C449.9066666666667,327.82206285714284,455.3933333333334,325.94910061999997,460.88000000000005,324.4802125714285C466.3666666666667,323.0113245228571,471.85333333333335,322.8037263,477.34,320.6331014228571C482.82666666666665,318.46247654571425,488.3133333333333,314.5784291571428,493.79999999999995,311.4564633085714C499.28666666666663,308.33449745999997,504.7733333333333,305.15200584,510.26,301.9013063314286C515.7466666666667,298.6506068228572,521.2333333333333,295.33700189714284,526.72,291.9522662571428C532.2066666666667,288.5675306171428,537.6933333333334,285.1172253914285,543.1800000000001,281.59289249142853C548.6666666666667,278.06855959142854,554.1533333333333,274.4759153399999,559.64,270.8062688571428C565.1266666666667,267.1366223742857,570.6133333333332,263.39597450571426,576.0999999999999,259.57501359428574C581.5866666666666,255.75405268285718,587.0733333333333,251.85901236571434,592.56,247.88050338857147C598.0466666666666,243.9019944114286,603.5333333333333,239.84653493428564,609.02,235.70395973142848C614.5066666666667,231.56138452857132,619.9933333333333,227.33844455142855,625.48,223.02505217142857C630.9666666666667,218.7116597914286,636.4533333333334,214.31485048285717,641.94,209.8236054514286C647.4266666666667,205.33236042000001,652.9133333333334,200.75405139428577,658.4000000000001,196.07758198285717C663.8866666666668,191.40111257142863,669.3733333333333,186.63406142857147,674.86,181.76478898285717C680.3466666666667,176.89551653714287,685.8333333333333,171.9319894285714,691.3199999999999,166.86194730857142C696.8066666666666,161.79190518857138,702.2933333333333,156.6236768171428,707.78,151.3445362628571C713.2666666666667,146.0653957085714,718.7533333333333,140.68393038857147,724.24,135.1871039828572C729.7266666666667,129.69027757714292,735.2133333333334,124.08703962285713,740.7,118.36357782857141C746.1866666666667,112.64011603428568,751.6733333333334,106.80581965428571,757.1600000000001,100.84633321714284C762.6466666666668,94.88684678000001,768.1333333333333,88.74675299285717,773.62,82.60665920571432"/><text class="label" font-size="11" alignment-baseline="middle" opacity="1" x="5" fill="rgb(204, 80, 62)" transform="translate(823.6199951171875, 92.60665893554688)"/></g></g><g id="data-points"><g class="series" transform="translate(50,10)"><path class="data-point" fill="rgb(17, 165, 121)" data-type="point" transform="translate(0, 0)" d="M13.46,483.27500571428567A3,3,0,1,1,19.46,483.27500571428567A3,3,0,1,1,13.46,483.27500571428567Z" id="point-0-0" opacity="1"/><path class="data-point" fill="rgb(17, 165, 121)" data-type="point" transform="translate(0, 0)" d="M29.92,480.0780034285714A3,3,0,1,1,35.92,480.0780034285714A3,3,0,1,1,29.92,480.0780034285714Z" id="point-0-1" opacity="1"/><path class="data-point" fill="rgb(17, 165, 121)" data-type="point" transform="translate(0, 0)" d="M46.379999999999995,477.4241811428571A3,3,0,1,1,52.379999999999995,477.4241811428571A3,3,0,1,1,46.379999999999995,477.4241811428571Z" id="point-0-2" opacity="1"/><path class="data-point" fill="rgb(17, 165, 121)" data-type="point" transform="translate(0, 0)" d="M62.84,473.24945485714284A3,3,0,1,1,68.84,473.24945485714284A3,3,0,1,1,62.84,473.24945485714284Z" id="point-0-3" opacity="1"/><path class="data-point" fill="rgb(17, 165, 121)" data-type="point" transform="translate(0, 0)" d="M79.30000000000001,468.7798594285714A3,3,0,1,1,85.30000000000001,468.7798594285714A3,3,0,1,1,79.30000000000001,468.7798594285714Z" id="point-0-4" opacity="1"/><path class="data-point" fill="rgb(17, 165, 121)" data-type="point" transform="translate(0, 0)" d="M95.75999999999999,464.43441942857135A3,3,0,1,1,101.75999999999999,464.43441942857135A3,3,0,1,1,95.75999999999999,464.43441942857135Z" id="point-0-5" opacity="1"/><path class="data-point" fill="rgb(17, 165, 121)" data-type="point" transform="translate(0, 0)" d="M112.22000000000001,460.4148874285714A3,3,0,1,1,118.22000000000001,460.4148874285714A3,3,0,1,1,112.22000000000001,460.4148874285714Z" id="point-0-6" opacity="1"/><path class="data-point" fill="rgb(17, 165, 121)" data-type="point" transform="translate(0, 0)" d="M128.68,454.43990742857136A3,3,0,1,1,134.68,454.43990742857136A3,3,0,1,1,128.68,454.43990742857136Z" id="point-0-7" opacity="1"/><path class="data-point" fill="rgb(17, 165, 121)" data-type="point" transform="translate(0, 0)" d="M145.14,450.0634285714285A3,3,0,1,1,151.14,450.0634285714285A3,3,0,1,1,145.14,450.0634285714285Z" id="point-0-8" opacity="1"/><path class="data-point" fill="rgb(17, 165, 121)" data-type="point" transform="translate(0, 0)" d="M161.60000000000002,444.8954588571428A3,3,0,1,1,167.60000000000002,444.8954588571428A3,3,0,1,1,161.60000000000002,444.8954588571428Z" id="point-0-9" opacity="1"/><path class="data-point" fill="rgb(17, 165, 121)" data-type="point" transform="translate(0, 0)" d="M178.06,439.8982028571428A3,3,0,1,1,184.06,439.8982028571428A3,3,0,1,1,178.06,439.8982028571428Z" id="point-0-10" opacity="1"/><path class="data-point" fill="rgb(17, 165, 121)" data-type="point" transform="translate(0, 0)" d="M194.51999999999998,429.76401599999997A3,3,0,1,1,200.51999999999998,429.76401599999997A3,3,0,1,1,194.51999999999998,429.76401599999997Z" id="point-0-11" opacity="1"/><path class="data-point" fill="rgb(17, 165, 121)" data-type="point" transform="translate(0, 0)" d="M210.98000000000002,420.1574897142857A3,3,0,1,1,216.98000000000002,420.1574897142857A3,3,0,1,1,210.98000000000002,420.1574897142857Z" id="point-0-12" opacity="1"/><path class="data-point" fill="rgb(17, 165, 121)" data-type="point" transform="translate(0, 0)" d="M227.44000000000003,410.27161371428565A3,3,0,1,1,233.44000000000003,410.27161371428565A3,3,0,1,1,227.44000000000003,410.27161371428565Z" id="point-0-13" opacity="1"/><path class="data-point" fill="rgb(17, 165, 121)" data-type="point" transform="translate(0, 0)" d="M243.89999999999998,399.82703828571425A3,3,0,1,1,249.89999999999998,399.82703828571425A3,3,0,1,1,243.89999999999998,399.82703828571425Z" id="point-0-14" opacity="1"/><path class="data-point" fill="rgb(17, 165, 121)" data-type="point" transform="translate(0, 0)" d="M260.36,388.6375302857142A3,3,0,1,1,266.36,388.6375302857142A3,3,0,1,1,260.36,388.6375302857142Z" id="point-0-15" opacity="1"/><path class="data-point" fill="rgb(17, 165, 121)" data-type="point" transform="translate(0, 0)" d="M276.82,377.3393862857142A3,3,0,1,1,282.82,377.3393862857142A3,3,0,1,1,276.82,377.3393862857142Z" id="point-0-16" opacity="1"/><path class="data-point" fill="rgb(17, 165, 121)" data-type="point" transform="translate(0, 0)" d="M293.28,364.0857942857142A3,3,0,1,1,299.28,364.0857942857142A3,3,0,1,1,293.28,364.0857942857142Z" id="point-0-17" opacity="1"/><path class="data-point" fill="rgb(17, 165, 121)" data-type="point" transform="translate(0, 0)" d="M309.74,358.71607199999994A3,3,0,1,1,315.74,358.71607199999994A3,3,0,1,1,309.74,358.71607199999994Z" id="point-0-18" opacity="1"/><path class="data-point" fill="rgb(17, 165, 121)" data-type="point" transform="translate(0, 0)" d="M326.20000000000005,348.2559771428571A3,3,0,1,1,332.20000000000005,348.2559771428571A3,3,0,1,1,326.20000000000005,348.2559771428571Z" id="point-0-19" opacity="1"/><path class="data-point" fill="rgb(17, 165, 121)" data-type="point" transform="translate(0, 0)" d="M342.65999999999997,345.22968857142854A3,3,0,1,1,348.65999999999997,345.22968857142854A3,3,0,1,1,342.65999999999997,345.22968857142854Z" id="point-0-20" opacity="1"/><path class="data-point" fill="rgb(17, 165, 121)" data-type="point" transform="translate(0, 0)" d="M359.12,340.2945102857143A3,3,0,1,1,365.12,340.2945102857143A3,3,0,1,1,359.12,340.2945102857143Z" id="point-0-21" opacity="1"/><path class="data-point" fill="rgb(17, 165, 121)" data-type="point" transform="translate(0, 0)" d="M375.58000000000004,333.6832337142857A3,3,0,1,1,381.58000000000004,333.6832337142857A3,3,0,1,1,375.58000000000004,333.6832337142857Z" id="point-0-22" opacity="1"/><path class="data-point" fill="rgb(17, 165, 121)" data-type="point" transform="translate(0, 0)" d="M392.03999999999996,328.8101331428571A3,3,0,1,1,398.03999999999996,328.8101331428571A3,3,0,1,1,392.03999999999996,328.8101331428571Z" id="point-0-23" opacity="1"/><path class="data-point" fill="rgb(17, 165, 121)" data-type="point" transform="translate(0, 0)" d="M408.5,323.8749548571428A3,3,0,1,1,414.5,323.8749548571428A3,3,0,1,1,408.5,323.8749548571428Z" id="point-0-24" opacity="1"/><path class="data-point" fill="rgb(17, 165, 121)" data-type="point" transform="translate(0, 0)" d="M424.96000000000004,320.1347725714285A3,3,0,1,1,430.96000000000004,320.1347725714285A3,3,0,1,1,424.96000000000004,320.1347725714285Z" id="point-0-25" opacity="1"/><path class="data-point" fill="rgb(17, 165, 121)" data-type="point" transform="translate(0, 0)" d="M441.42,316.0066045714285A3,3,0,1,1,447.42,316.0066045714285A3,3,0,1,1,441.42,316.0066045714285Z" id="point-0-26" opacity="1"/><path class="data-point" fill="rgb(17, 165, 121)" data-type="point" transform="translate(0, 0)" d="M474.34,307.05872283428573A3,3,0,1,1,480.34,307.05872283428573A3,3,0,1,1,474.34,307.05872283428573Z" id="point-0-28" opacity="1"/><path class="data-point" fill="rgb(17, 165, 121)" data-type="point" transform="translate(0, 0)" d="M490.79999999999995,297.75823968A3,3,0,1,1,496.79999999999995,297.75823968A3,3,0,1,1,490.79999999999995,297.75823968Z" id="point-0-29" opacity="1"/><path class="data-point" fill="rgb(17, 165, 121)" data-type="point" transform="translate(0, 0)" d="M507.26,288.09165320571424A3,3,0,1,1,513.26,288.09165320571424A3,3,0,1,1,507.26,288.09165320571424Z" id="point-0-30" opacity="1"/><path class="data-point" fill="rgb(17, 165, 121)" data-type="point" transform="translate(0, 0)" d="M523.72,278.0442199542857A3,3,0,1,1,529.72,278.0442199542857A3,3,0,1,1,523.72,278.0442199542857Z" id="point-0-31" opacity="1"/><path class="data-point" fill="rgb(17, 165, 121)" data-type="point" transform="translate(0, 0)" d="M540.1800000000001,267.6010412742857A3,3,0,1,1,546.1800000000001,267.6010412742857A3,3,0,1,1,540.1800000000001,267.6010412742857Z" id="point-0-32" opacity="1"/><path class="data-point" fill="rgb(17, 165, 121)" data-type="point" transform="translate(0, 0)" d="M556.64,256.7464425428571A3,3,0,1,1,562.64,256.7464425428571A3,3,0,1,1,556.64,256.7464425428571Z" id="point-0-33" opacity="1"/><path class="data-point" fill="rgb(17, 165, 121)" data-type="point" transform="translate(0, 0)" d="M573.0999999999999,245.46428355428577A3,3,0,1,1,579.0999999999999,245.46428355428577A3,3,0,1,1,573.0999999999999,245.46428355428577Z" id="point-0-34" opacity="1"/><path class="data-point" fill="rgb(17, 165, 121)" data-type="point" transform="translate(0, 0)" d="M589.56,233.73795852A3,3,0,1,1,595.56,233.73795852A3,3,0,1,1,589.56,233.73795852Z" id="point-0-35" opacity="1"/><path class="data-point" fill="rgb(17, 165, 121)" data-type="point" transform="translate(0, 0)" d="M606.02,221.54962009714285A3,3,0,1,1,612.02,221.54962009714285A3,3,0,1,1,606.02,221.54962009714285Z" id="point-0-36" opacity="1"/><path class="data-point" fill="rgb(17, 165, 121)" data-type="point" transform="translate(0, 0)" d="M622.48,208.88111055428573A3,3,0,1,1,628.48,208.88111055428573A3,3,0,1,1,622.48,208.88111055428573Z" id="point-0-37" opacity="1"/><path class="data-point" fill="rgb(17, 165, 121)" data-type="point" transform="translate(0, 0)" d="M638.94,195.7138065771428A3,3,0,1,1,644.94,195.7138065771428A3,3,0,1,1,638.94,195.7138065771428Z" id="point-0-38" opacity="1"/><path class="data-point" fill="rgb(17, 165, 121)" data-type="point" transform="translate(0, 0)" d="M655.4000000000001,182.02768810285716A3,3,0,1,1,661.4000000000001,182.02768810285716A3,3,0,1,1,655.4000000000001,182.02768810285716Z" id="point-0-39" opacity="1"/><path class="data-point" fill="rgb(17, 165, 121)" data-type="point" transform="translate(0, 0)" d="M671.86,167.8025798742857A3,3,0,1,1,677.86,167.8025798742857A3,3,0,1,1,671.86,167.8025798742857Z" id="point-0-40" opacity="1"/><path class="data-point" fill="rgb(17, 165, 121)" data-type="point" transform="translate(0, 0)" d="M688.3199999999999,153.01722027428576A3,3,0,1,1,694.3199999999999,153.01722027428576A3,3,0,1,1,688.3199999999999,153.01722027428576Z" id="point-0-41" opacity="1"/><path class="data-point" fill="rgb(17, 165, 121)" data-type="point" transform="translate(0, 0)" d="M704.78,137.64941652A3,3,0,1,1,710.78,137.64941652A3,3,0,1,1,704.78,137.64941652Z" id="point-0-42" opacity="1"/><path class="data-point" fill="rgb(17, 165, 121)" data-type="point" transform="translate(0, 0)" d="M721.24,121.67635505142852A3,3,0,1,1,727.24,121.67635505142852A3,3,0,1,1,721.24,121.67635505142852Z" id="point-0-43" opacity="1"/><path class="data-point" fill="rgb(17, 165, 121)" data-type="point" transform="translate(0, 0)" d="M737.7,105.07413594857144A3,3,0,1,1,743.7,105.07413594857144A3,3,0,1,1,737.7,105.07413594857144Z" id="point-0-44" opacity="1"/><path class="data-point" fill="rgb(17, 165, 121)" data-type="point" transform="translate(0, 0)" d="M754.1600000000001,87.81792812571427A3,3,0,1,1,760.1600000000001,87.81792812571427A3,3,0,1,1,754.1600000000001,87.81792812571427Z" id="point-0-45" opacity="1"/><path class="data-point" fill="rgb(17, 165, 121)" data-type="point" transform="translate(0, 0)" d="M770.62,69.88212452571429A3,3,0,1,1,776.62,69.88212452571429A3,3,0,1,1,770.62,69.88212452571429Z" id="point-0-46" opacity="1"/></g><g class="series" transform="translate(50,10)"><path class="data-point" fill="rgb(204, 80, 62)" data-type="point" transform="translate(0, 0)" d="M13.46,497.9408657142857A3,3,0,1,1,19.46,497.9408657142857A3,3,0,1,1,13.46,497.9408657142857Z" id="point-1-0" opacity="1"/><path class="data-point" fill="rgb(204, 80, 62)" data-type="point" transform="translate(0, 0)" d="M29.92,494.16964457142853A3,3,0,1,1,35.92,494.16964457142853A3,3,0,1,1,29.92,494.16964457142853Z" id="point-1-1" opacity="1"/><path class="data-point" fill="rgb(204, 80, 62)" data-type="point" transform="translate(0, 0)" d="M46.379999999999995,492.16763828571425A3,3,0,1,1,52.379999999999995,492.16763828571425A3,3,0,1,1,46.379999999999995,492.16763828571425Z" id="point-1-2" opacity="1"/><path class="data-point" fill="rgb(204, 80, 62)" data-type="point" transform="translate(0, 0)" d="M62.84,489.18790799999994A3,3,0,1,1,68.84,489.18790799999994A3,3,0,1,1,62.84,489.18790799999994Z" id="point-1-3" opacity="1"/><path class="data-point" fill="rgb(204, 80, 62)" data-type="point" transform="translate(0, 0)" d="M79.30000000000001,486.03746399999994A3,3,0,1,1,85.30000000000001,486.03746399999994A3,3,0,1,1,79.30000000000001,486.03746399999994Z" id="point-1-4" opacity="1"/><path class="data-point" fill="rgb(204, 80, 62)" data-type="point" transform="translate(0, 0)" d="M95.75999999999999,481.5678685714285A3,3,0,1,1,101.75999999999999,481.5678685714285A3,3,0,1,1,95.75999999999999,481.5678685714285Z" id="point-1-5" opacity="1"/><path class="data-point" fill="rgb(204, 80, 62)" data-type="point" transform="translate(0, 0)" d="M112.22000000000001,476.2291851428571A3,3,0,1,1,118.22000000000001,476.2291851428571A3,3,0,1,1,112.22000000000001,476.2291851428571Z" id="point-1-6" opacity="1"/><path class="data-point" fill="rgb(204, 80, 62)" data-type="point" transform="translate(0, 0)" d="M128.68,470.5801131428571A3,3,0,1,1,134.68,470.5801131428571A3,3,0,1,1,128.68,470.5801131428571Z" id="point-1-7" opacity="1"/><path class="data-point" fill="rgb(204, 80, 62)" data-type="point" transform="translate(0, 0)" d="M145.14,465.4431822857142A3,3,0,1,1,151.14,465.4431822857142A3,3,0,1,1,145.14,465.4431822857142Z" id="point-1-8" opacity="1"/><path class="data-point" fill="rgb(204, 80, 62)" data-type="point" transform="translate(0, 0)" d="M161.60000000000002,459.98034342857136A3,3,0,1,1,167.60000000000002,459.98034342857136A3,3,0,1,1,161.60000000000002,459.98034342857136Z" id="point-1-9" opacity="1"/><path class="data-point" fill="rgb(204, 80, 62)" data-type="point" transform="translate(0, 0)" d="M178.06,452.23614857142854A3,3,0,1,1,184.06,452.23614857142854A3,3,0,1,1,178.06,452.23614857142854Z" id="point-1-10" opacity="1"/><path class="data-point" fill="rgb(204, 80, 62)" data-type="point" transform="translate(0, 0)" d="M194.51999999999998,441.86917028571423A3,3,0,1,1,200.51999999999998,441.86917028571423A3,3,0,1,1,194.51999999999998,441.86917028571423Z" id="point-1-11" opacity="1"/><path class="data-point" fill="rgb(204, 80, 62)" data-type="point" transform="translate(0, 0)" d="M210.98000000000002,431.5487502857143A3,3,0,1,1,216.98000000000002,431.5487502857143A3,3,0,1,1,210.98000000000002,431.5487502857143Z" id="point-1-12" opacity="1"/><path class="data-point" fill="rgb(204, 80, 62)" data-type="point" transform="translate(0, 0)" d="M227.44000000000003,420.90242228571424A3,3,0,1,1,233.44000000000003,420.90242228571424A3,3,0,1,1,227.44000000000003,420.90242228571424Z" id="point-1-13" opacity="1"/><path class="data-point" fill="rgb(204, 80, 62)" data-type="point" transform="translate(0, 0)" d="M243.89999999999998,411.17174057142853A3,3,0,1,1,249.89999999999998,411.17174057142853A3,3,0,1,1,243.89999999999998,411.17174057142853Z" id="point-1-14" opacity="1"/><path class="data-point" fill="rgb(204, 80, 62)" data-type="point" transform="translate(0, 0)" d="M260.36,399.93567428571424A3,3,0,1,1,266.36,399.93567428571424A3,3,0,1,1,260.36,399.93567428571424Z" id="point-1-15" opacity="1"/><path class="data-point" fill="rgb(204, 80, 62)" data-type="point" transform="translate(0, 0)" d="M276.82,390.11187599999994A3,3,0,1,1,282.82,390.11187599999994A3,3,0,1,1,276.82,390.11187599999994Z" id="point-1-16" opacity="1"/><path class="data-point" fill="rgb(204, 80, 62)" data-type="point" transform="translate(0, 0)" d="M293.28,378.14639657142857A3,3,0,1,1,299.28,378.14639657142857A3,3,0,1,1,293.28,378.14639657142857Z" id="point-1-17" opacity="1"/><path class="data-point" fill="rgb(204, 80, 62)" data-type="point" transform="translate(0, 0)" d="M309.74,372.1093388571428A3,3,0,1,1,315.74,372.1093388571428A3,3,0,1,1,309.74,372.1093388571428Z" id="point-1-18" opacity="1"/><path class="data-point" fill="rgb(204, 80, 62)" data-type="point" transform="translate(0, 0)" d="M326.20000000000005,365.18767371428567A3,3,0,1,1,332.20000000000005,365.18767371428567A3,3,0,1,1,326.20000000000005,365.18767371428567Z" id="point-1-19" opacity="1"/><path class="data-point" fill="rgb(204, 80, 62)" data-type="point" transform="translate(0, 0)" d="M342.65999999999997,355.75186114285714A3,3,0,1,1,348.65999999999997,355.75186114285714A3,3,0,1,1,342.65999999999997,355.75186114285714Z" id="point-1-20" opacity="1"/><path class="data-point" fill="rgb(204, 80, 62)" data-type="point" transform="translate(0, 0)" d="M359.12,349.48201199999994A3,3,0,1,1,365.12,349.48201199999994A3,3,0,1,1,359.12,349.48201199999994Z" id="point-1-21" opacity="1"/><path class="data-point" fill="rgb(204, 80, 62)" data-type="point" transform="translate(0, 0)" d="M375.58000000000004,347.1075394285714A3,3,0,1,1,381.58000000000004,347.1075394285714A3,3,0,1,1,375.58000000000004,347.1075394285714Z" id="point-1-22" opacity="1"/><path class="data-point" fill="rgb(204, 80, 62)" data-type="point" transform="translate(0, 0)" d="M392.03999999999996,343.07248799999996A3,3,0,1,1,398.03999999999996,343.07248799999996A3,3,0,1,1,392.03999999999996,343.07248799999996Z" id="point-1-23" opacity="1"/><path class="data-point" fill="rgb(204, 80, 62)" data-type="point" transform="translate(0, 0)" d="M408.5,338.3545817142857A3,3,0,1,1,414.5,338.3545817142857A3,3,0,1,1,408.5,338.3545817142857Z" id="point-1-24" opacity="1"/><path class="data-point" fill="rgb(204, 80, 62)" data-type="point" transform="translate(0, 0)" d="M424.96000000000004,334.2264137142857A3,3,0,1,1,430.96000000000004,334.2264137142857A3,3,0,1,1,424.96000000000004,334.2264137142857Z" id="point-1-25" opacity="1"/><path class="data-point" fill="rgb(204, 80, 62)" data-type="point" transform="translate(0, 0)" d="M441.42,329.4464297142857A3,3,0,1,1,447.42,329.4464297142857A3,3,0,1,1,441.42,329.4464297142857Z" id="point-1-26" opacity="1"/><path class="data-point" fill="rgb(204, 80, 62)" data-type="point" transform="translate(0, 0)" d="M457.88000000000005,324.4802125714285A3,3,0,1,1,463.88000000000005,324.4802125714285A3,3,0,1,1,457.88000000000005,324.4802125714285Z" id="point-1-27" opacity="1"/><path class="data-point" fill="rgb(204, 80, 62)" data-type="point" transform="translate(0, 0)" d="M474.34,320.6331014228571A3,3,0,1,1,480.34,320.6331014228571A3,3,0,1,1,474.34,320.6331014228571Z" id="point-1-28" opacity="1"/><path class="data-point" fill="rgb(204, 80, 62)" data-type="point" transform="translate(0, 0)" d="M490.79999999999995,311.4564633085714A3,3,0,1,1,496.79999999999995,311.4564633085714A3,3,0,1,1,490.79999999999995,311.4564633085714Z" id="point-1-29" opacity="1"/><path class="data-point" fill="rgb(204, 80, 62)" data-type="point" transform="translate(0, 0)" d="M507.26,301.9013063314286A3,3,0,1,1,513.26,301.9013063314286A3,3,0,1,1,507.26,301.9013063314286Z" id="point-1-30" opacity="1"/><path class="data-point" fill="rgb(204, 80, 62)" data-type="point" transform="translate(0, 0)" d="M523.72,291.9522662571428A3,3,0,1,1,529.72,291.9522662571428A3,3,0,1,1,523.72,291.9522662571428Z" id="point-1-31" opacity="1"/><path class="data-point" fill="rgb(204, 80, 62)" data-type="point" transform="translate(0, 0)" d="M540.1800000000001,281.59289249142853A3,3,0,1,1,546.1800000000001,281.59289249142853A3,3,0,1,1,540.1800000000001,281.59289249142853Z" id="point-1-32" opacity="1"/><path class="data-point" fill="rgb(204, 80, 62)" data-type="point" transform="translate(0, 0)" d="M556.64,270.8062688571428A3,3,0,1,1,562.64,270.8062688571428A3,3,0,1,1,556.64,270.8062688571428Z" id="point-1-33" opacity="1"/><path class="data-point" fill="rgb(204, 80, 62)" data-type="point" transform="translate(0, 0)" d="M573.0999999999999,259.57501359428574A3,3,0,1,1,579.0999999999999,259.57501359428574A3,3,0,1,1,573.0999999999999,259.57501359428574Z" id="point-1-34" opacity="1"/><path class="data-point" fill="rgb(204, 80, 62)" data-type="point" transform="translate(0, 0)" d="M589.56,247.88050338857147A3,3,0,1,1,595.56,247.88050338857147A3,3,0,1,1,589.56,247.88050338857147Z" id="point-1-35" opacity="1"/><path class="data-point" fill="rgb(204, 80, 62)" data-type="point" transform="translate(0, 0)" d="M606.02,235.70395973142848A3,3,0,1,1,612.02,235.70395973142848A3,3,0,1,1,606.02,235.70395973142848Z" id="point-1-36" opacity="1"/><path class="data-point" fill="rgb(204, 80, 62)" data-type="point" transform="translate(0, 0)" d="M622.48,223.02505217142857A3,3,0,1,1,628.48,223.02505217142857A3,3,0,1,1,622.48,223.02505217142857Z" id="point-1-37" opacity="1"/><path class="data-point" fill="rgb(204, 80, 62)" data-type="point" transform="translate(0, 0)" d="M638.94,209.8236054514286A3,3,0,1,1,644.94,209.8236054514286A3,3,0,1,1,638.94,209.8236054514286Z" id="point-1-38" opacity="1"/><path class="data-point" fill="rgb(204, 80, 62)" data-type="point" transform="translate(0, 0)" d="M655.4000000000001,196.07758198285717A3,3,0,1,1,661.4000000000001,196.07758198285717A3,3,0,1,1,655.4000000000001,196.07758198285717Z" id="point-1-39" opacity="1"/><path class="data-point" fill="rgb(204, 80, 62)" data-type="point" transform="translate(0, 0)" d="M671.86,181.76478898285717A3,3,0,1,1,677.86,181.76478898285717A3,3,0,1,1,671.86,181.76478898285717Z" id="point-1-40" opacity="1"/><path class="data-point" fill="rgb(204, 80, 62)" data-type="point" transform="translate(0, 0)" d="M688.3199999999999,166.86194730857142A3,3,0,1,1,694.3199999999999,166.86194730857142A3,3,0,1,1,688.3199999999999,166.86194730857142Z" id="point-1-41" opacity="1"/><path class="data-point" fill="rgb(204, 80, 62)" data-type="point" transform="translate(0, 0)" d="M704.78,151.3445362628571A3,3,0,1,1,710.78,151.3445362628571A3,3,0,1,1,704.78,151.3445362628571Z" id="point-1-42" opacity="1"/><path class="data-point" fill="rgb(204, 80, 62)" data-type="point" transform="translate(0, 0)" d="M721.24,135.1871039828572A3,3,0,1,1,727.24,135.1871039828572A3,3,0,1,1,721.24,135.1871039828572Z" id="point-1-43" opacity="1"/><path class="data-point" fill="rgb(204, 80, 62)" data-type="point" transform="translate(0, 0)" d="M737.7,118.36357782857141A3,3,0,1,1,743.7,118.36357782857141A3,3,0,1,1,737.7,118.36357782857141Z" id="point-1-44" opacity="1"/><path class="data-point" fill="rgb(204, 80, 62)" data-type="point" transform="translate(0, 0)" d="M754.1600000000001,100.84633321714284A3,3,0,1,1,760.1600000000001,100.84633321714284A3,3,0,1,1,754.1600000000001,100.84633321714284Z" id="point-1-45" opacity="1"/><path class="data-point" fill="rgb(204, 80, 62)" data-type="point" transform="translate(0, 0)" d="M770.62,82.60665920571432A3,3,0,1,1,776.62,82.60665920571432A3,3,0,1,1,770.62,82.60665920571432Z" id="point-1-46" opacity="1"/></g></g><g id="data-labels"/><g class="annotations above"><g class="axis-highlights" transform="translate(50, 10)" style="opacity: 1;"/></g></svg>