<svg xmlns="http://www.w3.org/2000/svg" id="graphic" width="961" height="634.6"><g id="facets"><g class="facet" transform="translate(15,20)" opacity="1"><text class="facet-title" y="0" font-size="16" font-weight="bold" dominant-baseline="middle" x="0" clip-path="url(#facet-clip-0)" fill="black"/><g class="plot"><clipPath class="facet-clip" id="facet-clip-0"><rect width="951" height="581.6" transform="translate(-7.5,-10)"/></clipPath><g class="bg"><rect fill="none" width="936" height="561.6" style="fill: none;"/></g><g class="interaction"><g class="series"><path data-target="point-0-0" d="M76.48888599357153,561.6L67.09497694492858,502.82575199999997L0,502.82575199999997L0,561.6Z" style="opacity: 0;"/><path data-target="point-0-1" d="M66.60896044002143,499.588128L67.09497694492858,502.82575199999997L76.48888599357153,561.6L93.05693102000002,561.6L84.894618368,499.588128Z" style="opacity: 0;"/><path data-target="point-0-2" d="M84.64095102902857,496.42632L84.894618368,499.588128L93.05693102000002,561.6L111.28739754000003,561.6L102.70891191,496.42632Z" style="opacity: 0;"/><path data-target="point-0-3" d="M102.70891191,496.42632L111.28739754000003,561.6L130.16387730357138,561.6L120.58020351464285,493.643592L102.73507452235714,493.643592Z" style="opacity: 0;"/><path data-target="point-0-4" d="M120.58020351464285,493.643592L130.16387730357138,561.6L151.81290757142855,561.6L138.48185536571427,490.703616L120.71933000390713,490.70361599999995Z" style="opacity: 0;"/><path data-target="point-0-5" d="M138.48185536571427,490.703616L151.81290757142855,561.6L173.9371416964285,561.6L156.40475938928572,487.008288L138.65325259691429,487.008288Z" style="opacity: 0;"/><path data-target="point-0-6" d="M156.40475938928572,487.008288L173.9371416964285,561.6L214.7727882118608,561.6L209.4397595916055,547.4838064032588L175.61683867685713,482.858064L156.5530335528,482.858064Z" style="opacity: 0;"/><path data-target="point-0-7" d="M119.92824215291806,331.3274637662263L127.84268337756507,357.01826485367195L173.4979363581143,474.6924L192.5358402319357,474.6924L191.83064562799998,467.894232Z" style="opacity: 0;"/><path data-target="point-0-8" d="M8.980578167499923,-7.105427357601002e-15L23.221636617223268,49.30367525599337L60.68729614573533,169.8406214395804L80.47915860814271,227.75306641671716L119.92824215291806,331.3274637662263L191.83064562799998,467.894232L209.8498101129,467.894232L210.7040365665,463.086936L126.10754048703879,172.8315194972369L63.457657807857466,0Z" style="opacity: 0;"/><path data-target="point-0-9" d="M126.10754048703879,172.8315194972369L210.7040365665,463.086936L227.69049858914283,463.086936L228.73143263821427,457.40915999999993L154.9126195057562,245.20446631053423Z" style="opacity: 0;"/><path data-target="point-0-10" d="M154.9126195057562,245.20446631053423L228.73143263821427,457.40915999999993L245.50271003424285,457.40915999999993L246.83252930814285,450.31334400000003Z" style="opacity: 0;"/><path data-target="point-0-11" d="M63.457657807857466,0L126.10754048703879,172.8315194972369L154.9126195057562,245.20446631053423L246.83252930814285,450.31334400000003L263.21435426305715,450.313344L264.42636346071424,444.326688L214.01516825786393,229.85170745985766L112.87959607657126,0Z" style="opacity: 0;"/><path data-target="point-0-12" d="M214.01516825786393,229.85170745985766L264.42636346071424,444.326688L281.88747229597857,444.326688L281.9404337658571,438.06765599999994L240.17491373497703,283.10382364531387Z" style="opacity: 0;"/><path data-target="point-0-13" d="M240.17491373497703,283.10382364531387L281.9404337658571,438.06765599999994L300.39484274355715,438.06765599999994L299.42171500485716,431.404272L267.4343475425594,331.33765125877466Z" style="opacity: 0;"/><path data-target="point-0-14" d="M267.4343475425594,331.33765125877466L299.42171500485716,431.404272L318.7826035002857,431.404272L316.833035676,423.96307199999995L297.5380685420854,375.09959081249883Z" style="opacity: 0;"/><path data-target="point-0-15" d="M297.5380685420854,375.09959081249883L316.833035676,423.96307199999995L337.3652629589714,423.963072L332.40774623971424,410.64753599999995Z" style="opacity: 0;"/><path data-target="point-0-16" d="M112.87959607657126,0L214.01516825786393,229.85170745985766L240.17491373497703,283.10382364531387L267.4343475425594,331.33765125877466L297.5380685420854,375.09959081249883L332.40774623971424,410.64753599999995L353.0316773070286,410.64753599999995L354.2672918162857,401.39236800000003L130.35485996000097,0Z" style="opacity: 0;"/><path data-target="point-0-17" d="M130.35485996000097,0L354.2672918162857,401.39236800000003L370.4635690251428,401.39236800000003L372.241465056,395.579808L341.47679328413744,278.71495796443537L302.78667181033484,169.46216304055437L234.45408067428542,0Z" style="opacity: 0;"/><path data-target="point-0-18" d="M341.47679328413744,278.71495796443537L372.241465056,395.579808L389.0794364333714,395.57980799999996L389.76989707771423,387.23443199999997Z" style="opacity: 0;"/><path data-target="point-0-19" d="M302.78667181033484,169.46216304055437L341.47679328413744,278.71495796443537L389.76989707771423,387.23443199999997L407.014051592,387.23443199999997L407.75424319999996,378.7992Z" style="opacity: 0;"/><path data-target="point-0-20" d="M234.45408067428542,0L302.78667181033484,169.46216304055437L407.75424319999996,378.7992L424.63972880303567,378.7992L425.884300905,371.51243999999997L279.1833261599993,0Z" style="opacity: 0;"/><path data-target="point-0-21" d="M279.1833261599993,0L425.884300905,371.51243999999997L442.5291758350428,371.51243999999997L443.8346435512857,365.33203199999997L321.32772278500016,0Z" style="opacity: 0;"/><path data-target="point-0-22" d="M321.32772278500016,0L443.8346435512857,365.33203199999997L460.4671332608,365.33203199999997L461.8363398944,359.39591999999993L337.2652215734,5.684341886080802e-14Z" style="opacity: 0;"/><path data-target="point-0-23" d="M337.2652215734,5.684341886080802e-14L461.8363398944,359.39591999999993L478.9489439009143,359.39591999999993L480.8391429233143,356.015088L352.97695980934355,0Z" style="opacity: 0;"/><path data-target="point-0-24" d="M352.97695980934355,0L480.8391429233143,356.015088L495.0787550502786,356.015088L498.58502295001426,348.829416L368.930735209857,0Z" style="opacity: 0;"/><path data-target="point-0-25" d="M368.930735209857,0L498.58502295001426,348.829416L513.4105007123429,348.829416L517.0230197945,342.53387999999995L398.906096198222,59.15244687052797L371.9148346912001,0Z" style="opacity: 0;"/><path data-target="point-0-26" d="M398.906096198222,59.15244687052797L517.0230197945,342.53387999999995L531.6139932534,342.53387999999995L536.4934304589,336.66516Z" style="opacity: 0;"/><path data-target="point-0-27" d="M371.9148346912001,0L398.906096198222,59.15244687052797L536.4934304589,336.66516L547.7574801072312,336.66516L551.6365300317481,332.76613999999995L546.3994538763964,281.83069494695593L515.8395871379702,198.05811165263466L468.93944952597235,96.53269658909554L418.9109324085275,0Z" style="opacity: 0;"/><path data-target="point-0-28" d="M546.3994538763964,281.83069494695593L551.6365300317481,332.76613999999995L565.9530149596471,332.76613999999995L571.9284154972205,322.56147450000003Z" style="opacity: 0;"/><path data-target="point-0-29" d="M515.8395871379702,198.05811165263466L546.3994538763964,281.83069494695593L571.9284154972205,322.56147450000003L583.3149528009403,322.56147450000003L590.5510378616256,311.9001725Z" style="opacity: 0;"/><path data-target="point-0-30" d="M468.93944952597235,96.53269658909554L515.8395871379702,198.05811165263466L590.5510378616256,311.9001725L600.5992864781934,311.9001725L609.2764066244579,300.76179149999996Z" style="opacity: 0;"/><path data-target="point-0-31" d="M418.9109324085275,0L468.93944952597235,96.53269658909554L609.2764066244579,300.76179149999996L617.7967091805069,300.76179149999996L628.1176777178159,289.12493399999994L420.09414313826596,0Z" style="opacity: 0;"/><path data-target="point-0-32" d="M420.09414313826596,0L628.1176777178159,289.12493399999994L634.8967340438688,289.12493399999994L647.0894306717499,276.96716449999997L438.43550633085533,0Z" style="opacity: 0;"/><path data-target="point-0-33" d="M438.43550633085533,0L647.0894306717499,276.96716449999997L651.8878734290438,276.96716449999997L666.208063795404,264.265092L457.75398959349116,0Z" style="opacity: 0;"/><path data-target="point-0-34" d="M457.75398959349116,0L666.208063795404,264.265092L668.7572818500913,264.265092L685.4910860858279,250.99494674278273L685.4914125678027,250.9938177693697L478.1893576329882,0Z" style="opacity: 0;"/><path data-target="point-0-35" d="M478.1893576329882,0L685.4914125678027,250.9938177693697L703.043503503781,238.49495100893785L703.9299669878474,235.93677448266365L499.89301619944285,0Z" style="opacity: 0;"/><path data-target="point-0-36" d="M499.89301619944285,0L703.9299669878474,235.93677448266365L720.4683378995483,225.3205435742599L722.5182368410377,220.30109950735178L523.0373000458821,0Z" style="opacity: 0;"/><path data-target="point-0-37" d="M523.0373000458821,0L722.5182368410377,220.30109950735178L737.7544112941612,211.45456221794782L741.272059229264,204.05026023213532L547.8111307247154,0Z" style="opacity: 0;"/><path data-target="point-0-38" d="M547.8111307247154,0L741.272059229264,204.05026023213532L754.8886789990266,196.87707773316836L760.2098011201558,187.14744829915705L574.4238191768867,0Z" style="opacity: 0;"/><path data-target="point-0-39" d="M574.4238191768867,0L760.2098011201558,187.14744829915705L771.855990275561,181.5658222763003L779.3524615482761,169.55552725418383L603.1097570248658,0Z" style="opacity: 0;"/><path data-target="point-0-40" d="M603.1097570248658,0L779.3524615482761,169.55552725418383L788.6389868309739,165.49634156631672L798.7240643093139,151.23647821893545L634.1247882977844,2.842170943040401e-14Z" style="opacity: 0;"/><path data-target="point-0-41" d="M634.1247882977844,2.842170943040401e-14L798.7240643093139,151.23647821893545L805.2179841621564,148.64184470405513L818.3518506112051,132.15156897393763L667.7552558958478,0Z" style="opacity: 0;"/><path data-target="point-0-42" d="M667.7552558958478,0L818.3518506112051,132.15156897393763L821.5705954162032,130.9736191497887L837.8906471968465,112.68230235976476L838.0506121518177,112.07994274261085L704.316536766125,1.4210854715202004e-14Z" style="opacity: 0;"/><path data-target="point-0-43" d="M704.316536766125,1.4210854715202004e-14L838.0506121518177,112.07994274261085L855.2581024275685,94.78506313882656L856.7515341279654,90.12165456365712L744.1574767094089,0Z" style="opacity: 0;"/><path data-target="point-0-44" d="M744.1574767094089,0L856.7515341279654,90.12165456365712L879.1004148227088,69.89724943952298L787.6641914503313,0Z" style="opacity: 0;"/><path data-target="point-0-45" d="M787.6641914503313,0L879.1004148227088,69.89724943952298L916.4580378061643,59.278985999999996L835.2629193143266,0Z" style="opacity: 0;"/><path data-target="point-0-46" d="M835.2629193143266,0L916.4580378061643,59.278985999999996L936,59.278985999999996L936,0Z" style="opacity: 0;"/><path data-target="point-1-0" d="M0,502.82575199999997L67.09497694492858,502.82575199999997L66.60896044002143,499.588128L0,169.04160820176014Z" style="opacity: 0;"/><path data-target="point-1-1" d="M0,169.04160820176014L66.60896044002143,499.588128L84.894618368,499.588128L84.64095102902857,496.42632L0,113.8776119279126Z" style="opacity: 0;"/><path data-target="point-1-2" d="M0,113.8776119279126L84.64095102902857,496.42632L102.70891191,496.42632L102.73507452235714,493.643592L23.221636617223268,49.30367525599337L8.980578167499923,-7.105427357601002e-15L0,0Z" style="opacity: 0;"/><path data-target="point-1-3" d="M23.221636617223268,49.30367525599337L102.73507452235714,493.643592L120.58020351464285,493.643592L120.71933000390713,490.70361599999995L60.68729614573533,169.8406214395804Z" style="opacity: 0;"/><path data-target="point-1-4" d="M60.68729614573533,169.8406214395804L120.71933000390713,490.70361599999995L138.48185536571427,490.703616L138.65325259691429,487.008288L80.47915860814271,227.75306641671716Z" style="opacity: 0;"/><path data-target="point-1-5" d="M80.47915860814271,227.75306641671716L138.65325259691429,487.008288L156.40475938928572,487.008288L156.5530335528,482.858064L127.84268337756507,357.01826485367195L119.92824215291806,331.3274637662263Z" style="opacity: 0;"/><path data-target="point-1-6" d="M127.84268337756507,357.01826485367195L156.5530335528,482.858064L175.61683867685713,482.858064L173.4979363581143,474.6924Z" style="opacity: 0;"/><path data-target="point-1-7" d="M173.4979363581143,474.6924L175.61683867685713,482.858064L209.4397595916055,547.4838064032588L192.5358402319357,474.6924Z" style="opacity: 0;"/><path data-target="point-1-8" d="M191.83064562799998,467.894232L192.5358402319357,474.6924L209.4397595916055,547.4838064032588L214.7727882118608,561.6L232.81458387377137,561.6L209.8498101129,467.894232Z" style="opacity: 0;"/><path data-target="point-1-9" d="M209.8498101129,467.894232L232.81458387377137,561.6L255.84693960982872,561.6L227.69049858914283,463.086936L210.7040365665,463.086936Z" style="opacity: 0;"/><path data-target="point-1-10" d="M227.69049858914283,463.086936L255.84693960982872,561.6L281.32268357842105,561.6L245.50271003424285,457.40915999999993L228.73143263821427,457.40915999999993Z" style="opacity: 0;"/><path data-target="point-1-11" d="M245.50271003424285,457.40915999999993L281.32268357842105,561.6L311.4135986075146,561.6L263.21435426305715,450.313344L246.83252930814285,450.31334400000003Z" style="opacity: 0;"/><path data-target="point-1-12" d="M263.21435426305715,450.313344L311.4135986075146,561.6L332.20180676823577,561.6L281.88747229597857,444.326688L264.42636346071424,444.326688Z" style="opacity: 0;"/><path data-target="point-1-13" d="M281.88747229597857,444.326688L332.20180676823577,561.6L352.7750934244783,561.6L300.39484274355715,438.06765599999994L281.9404337658571,438.06765599999994Z" style="opacity: 0;"/><path data-target="point-1-14" d="M299.42171500485716,431.404272L300.39484274355715,438.06765599999994L352.7750934244783,561.6L375.4979550484287,561.6L318.7826035002857,431.404272Z" style="opacity: 0;"/><path data-target="point-1-15" d="M316.833035676,423.96307199999995L318.7826035002857,431.404272L375.4979550484287,561.6L406.89796430320007,561.6L337.3652629589714,423.963072Z" style="opacity: 0;"/><path data-target="point-1-16" d="M332.40774623971424,410.64753599999995L337.3652629589714,423.963072L406.89796430320007,561.6L424.7497320693712,561.6L353.0316773070286,410.64753599999995Z" style="opacity: 0;"/><path data-target="point-1-17" d="M353.0316773070286,410.64753599999995L424.7497320693712,561.6L432.21931988528604,561.6L370.4635690251428,401.39236800000003L354.2672918162857,401.39236800000003Z" style="opacity: 0;"/><path data-target="point-1-18" d="M370.4635690251428,401.39236800000003L432.21931988528604,561.6L469.82928610514267,561.6L389.0794364333714,395.57980799999996L372.241465056,395.579808Z" style="opacity: 0;"/><path data-target="point-1-19" d="M389.0794364333714,395.57980799999996L469.82928610514267,561.6L483.7355242461713,561.6L407.014051592,387.23443199999997L389.76989707771423,387.23443199999997Z" style="opacity: 0;"/><path data-target="point-1-20" d="M407.014051592,387.23443199999997L483.7355242461713,561.6L501.11982957803605,561.6L424.63972880303567,378.7992L407.75424319999996,378.7992Z" style="opacity: 0;"/><path data-target="point-1-21" d="M424.63972880303567,378.7992L501.11982957803605,561.6L504.99925026652136,561.6L495.9872296576841,522.3333112289965L442.5291758350428,371.51243999999997L425.884300905,371.51243999999997Z" style="opacity: 0;"/><path data-target="point-1-22" d="M442.5291758350428,371.51243999999997L495.9872296576841,522.3333112289965L480.1917940571384,427.77160400486986L460.4671332608,365.33203199999997L443.8346435512857,365.33203199999997Z" style="opacity: 0;"/><path data-target="point-1-23" d="M460.4671332608,365.33203199999997L480.1917940571384,427.77160400486986L478.9489439009143,359.39591999999993L461.8363398944,359.39591999999993Z" style="opacity: 0;"/><path data-target="point-1-24" d="M478.9489439009143,359.39591999999993L480.1917940571384,427.77160400486986L495.9872296576841,522.3333112289965L504.99925026652136,561.6L574.7510105220501,561.6L556.5691998997333,499.2841741196863L555.7930931412153,497.11658899050843L495.0787550502786,356.015088L480.8391429233143,356.015088Z" style="opacity: 0;"/><path data-target="point-1-25" d="M495.0787550502786,356.015088L555.7930931412153,497.11658899050843L513.4105007123429,348.829416L498.58502295001426,348.829416Z" style="opacity: 0;"/><path data-target="point-1-26" d="M513.4105007123429,348.829416L555.7930931412153,497.11658899050843L556.5691998997333,499.2841741196863L531.6139932534,342.53387999999995L517.0230197945,342.53387999999995Z" style="opacity: 0;"/><path data-target="point-1-27" d="M531.6139932534,342.53387999999995L556.5691998997333,499.2841741196863L574.7510105220501,561.6L622.5124528649387,561.6L547.7574801072312,336.66516L536.4934304589,336.66516Z" style="opacity: 0;"/><path data-target="point-1-28" d="M547.7574801072312,336.66516L622.5124528649387,561.6L683.1480671924758,561.6L565.9530149596471,332.76613999999995L551.6365300317481,332.76613999999995Z" style="opacity: 0;"/><path data-target="point-1-29" d="M565.9530149596471,332.76613999999995L683.1480671924758,561.6L710.8670171616258,561.6L583.3149528009403,322.56147450000003L571.9284154972205,322.56147450000003Z" style="opacity: 0;"/><path data-target="point-1-30" d="M583.3149528009403,322.56147450000003L710.8670171616258,561.6L739.4244759754469,561.6L600.5992864781934,311.9001725L590.5510378616256,311.9001725Z" style="opacity: 0;"/><path data-target="point-1-31" d="M600.5992864781934,311.9001725L739.4244759754469,561.6L768.8905892659598,561.6L617.7967091805069,300.76179149999996L609.2764066244579,300.76179149999996Z" style="opacity: 0;"/><path data-target="point-1-32" d="M617.7967091805069,300.76179149999996L768.8905892659598,561.6L799.3467033404885,561.6L634.8967340438688,289.12493399999994L628.1176777178159,289.12493399999994Z" style="opacity: 0;"/><path data-target="point-1-33" d="M634.8967340438688,289.12493399999994L799.3467033404885,561.6L830.8750546651538,561.6L651.8878734290438,276.96716449999997L647.0894306717499,276.96716449999997Z" style="opacity: 0;"/><path data-target="point-1-34" d="M651.8878734290438,276.96716449999997L830.8750546651538,561.6L863.5667663760491,561.6L668.7572818500913,264.265092L666.208063795404,264.265092Z" style="opacity: 0;"/><path data-target="point-1-35" d="M668.7572818500913,264.265092L863.5667663760491,561.6L897.5230604269186,561.6L685.4910860858279,250.99494674278273Z" style="opacity: 0;"/><path data-target="point-1-36" d="M685.4910860858279,250.99494674278273L897.5230604269186,561.6L932.8524023286512,561.6L703.043503503781,238.49495100893785L685.4914125678027,250.9938177693697Z" style="opacity: 0;"/><path data-target="point-1-37" d="M703.043503503781,238.49495100893785L932.8524023286512,561.6L936,561.6L936,516.1648879324948L720.4683378995483,225.3205435742599L703.9299669878474,235.93677448266365Z" style="opacity: 0;"/><path data-target="point-1-38" d="M720.4683378995483,225.3205435742599L936,516.1648879324948L936,468.2120429552243L737.7544112941612,211.45456221794782L722.5182368410377,220.30109950735178Z" style="opacity: 0;"/><path data-target="point-1-39" d="M737.7544112941612,211.45456221794782L936,468.2120429552243L936,422.0082832473232L754.8886789990266,196.87707773316836L741.272059229264,204.05026023213532Z" style="opacity: 0;"/><path data-target="point-1-40" d="M754.8886789990266,196.87707773316836L936,422.0082832473232L936,377.39925492657176L771.855990275561,181.5658222763003L760.2098011201558,187.14744829915705Z" style="opacity: 0;"/><path data-target="point-1-41" d="M771.855990275561,181.5658222763003L936,377.39925492657176L936,334.23484732999646L788.6389868309739,165.49634156631672L779.3524615482761,169.55552725418383Z" style="opacity: 0;"/><path data-target="point-1-42" d="M788.6389868309739,165.49634156631672L936,334.23484732999646L936,292.37338229587345L805.2179841621564,148.64184470405513L798.7240643093139,151.23647821893545Z" style="opacity: 0;"/><path data-target="point-1-43" d="M805.2179841621564,148.64184470405513L936,292.37338229587345L936,251.67484676924846L821.5705954162032,130.9736191497887L818.3518506112051,132.15156897393763Z" style="opacity: 0;"/><path data-target="point-1-44" d="M821.5705954162032,130.9736191497887L936,251.67484676924846L936,212.00666032528528L837.8906471968465,112.68230235976476Z" style="opacity: 0;"/><path data-target="point-1-45" d="M837.8906471968465,112.68230235976476L936,212.00666032528528L936,173.23922083631533L855.2581024275685,94.78506313882656L838.0506121518177,112.07994274261085Z" style="opacity: 0;"/><path data-target="point-1-46" d="M855.2581024275685,94.78506313882656L936,173.23922083631533L936,59.278985999999996L916.4580378061643,59.278985999999996L879.1004148227088,69.89724943952298L856.7515341279654,90.12165456365712Z" style="opacity: 0;"/></g><g class="series"><path data-target="point-0-0" d="M76.48888599357153,561.6L67.09497694492858,502.82575199999997L0,502.82575199999997L0,561.6Z" style="opacity: 0;"/><path data-target="point-0-1" d="M66.60896044002143,499.588128L67.09497694492858,502.82575199999997L76.48888599357153,561.6L93.05693102000002,561.6L84.894618368,499.588128Z" style="opacity: 0;"/><path data-target="point-0-2" d="M84.64095102902857,496.42632L84.894618368,499.588128L93.05693102000002,561.6L111.28739754000003,561.6L102.70891191,496.42632Z" style="opacity: 0;"/><path data-target="point-0-3" d="M102.70891191,496.42632L111.28739754000003,561.6L130.16387730357138,561.6L120.58020351464285,493.643592L102.73507452235714,493.643592Z" style="opacity: 0;"/><path data-target="point-0-4" d="M120.58020351464285,493.643592L130.16387730357138,561.6L151.81290757142855,561.6L138.48185536571427,490.703616L120.71933000390713,490.70361599999995Z" style="opacity: 0;"/><path data-target="point-0-5" d="M138.48185536571427,490.703616L151.81290757142855,561.6L173.9371416964285,561.6L156.40475938928572,487.008288L138.65325259691429,487.008288Z" style="opacity: 0;"/><path data-target="point-0-6" d="M156.40475938928572,487.008288L173.9371416964285,561.6L214.7727882118608,561.6L209.4397595916055,547.4838064032588L175.61683867685713,482.858064L156.5530335528,482.858064Z" style="opacity: 0;"/><path data-target="point-0-7" d="M119.92824215291806,331.3274637662263L127.84268337756507,357.01826485367195L173.4979363581143,474.6924L192.5358402319357,474.6924L191.83064562799998,467.894232Z" style="opacity: 0;"/><path data-target="point-0-8" d="M8.980578167499923,-7.105427357601002e-15L23.221636617223268,49.30367525599337L60.68729614573533,169.8406214395804L80.47915860814271,227.75306641671716L119.92824215291806,331.3274637662263L191.83064562799998,467.894232L209.8498101129,467.894232L210.7040365665,463.086936L126.10754048703879,172.8315194972369L63.457657807857466,0Z" style="opacity: 0;"/><path data-target="point-0-9" d="M126.10754048703879,172.8315194972369L210.7040365665,463.086936L227.69049858914283,463.086936L228.73143263821427,457.40915999999993L154.9126195057562,245.20446631053423Z" style="opacity: 0;"/><path data-target="point-0-10" d="M154.9126195057562,245.20446631053423L228.73143263821427,457.40915999999993L245.50271003424285,457.40915999999993L246.83252930814285,450.31334400000003Z" style="opacity: 0;"/><path data-target="point-0-11" d="M63.457657807857466,0L126.10754048703879,172.8315194972369L154.9126195057562,245.20446631053423L246.83252930814285,450.31334400000003L263.21435426305715,450.313344L264.42636346071424,444.326688L214.01516825786393,229.85170745985766L112.87959607657126,0Z" style="opacity: 0;"/><path data-target="point-0-12" d="M214.01516825786393,229.85170745985766L264.42636346071424,444.326688L281.88747229597857,444.326688L281.9404337658571,438.06765599999994L240.17491373497703,283.10382364531387Z" style="opacity: 0;"/><path data-target="point-0-13" d="M240.17491373497703,283.10382364531387L281.9404337658571,438.06765599999994L300.39484274355715,438.06765599999994L299.42171500485716,431.404272L267.4343475425594,331.33765125877466Z" style="opacity: 0;"/><path data-target="point-0-14" d="M267.4343475425594,331.33765125877466L299.42171500485716,431.404272L318.7826035002857,431.404272L316.833035676,423.96307199999995L297.5380685420854,375.09959081249883Z" style="opacity: 0;"/><path data-target="point-0-15" d="M297.5380685420854,375.09959081249883L316.833035676,423.96307199999995L337.3652629589714,423.963072L332.40774623971424,410.64753599999995Z" style="opacity: 0;"/><path data-target="point-0-16" d="M112.87959607657126,0L214.01516825786393,229.85170745985766L240.17491373497703,283.10382364531387L267.4343475425594,331.33765125877466L297.5380685420854,375.09959081249883L332.40774623971424,410.64753599999995L353.0316773070286,410.64753599999995L354.2672918162857,401.39236800000003L130.35485996000097,0Z" style="opacity: 0;"/><path data-target="point-0-17" d="M130.35485996000097,0L354.2672918162857,401.39236800000003L370.4635690251428,401.39236800000003L372.241465056,395.579808L341.47679328413744,278.71495796443537L302.78667181033484,169.46216304055437L234.45408067428542,0Z" style="opacity: 0;"/><path data-target="point-0-18" d="M341.47679328413744,278.71495796443537L372.241465056,395.579808L389.0794364333714,395.57980799999996L389.76989707771423,387.23443199999997Z" style="opacity: 0;"/><path data-target="point-0-19" d="M302.78667181033484,169.46216304055437L341.47679328413744,278.71495796443537L389.76989707771423,387.23443199999997L407.014051592,387.23443199999997L407.75424319999996,378.7992Z" style="opacity: 0;"/><path data-target="point-0-20" d="M234.45408067428542,0L302.78667181033484,169.46216304055437L407.75424319999996,378.7992L424.63972880303567,378.7992L425.884300905,371.51243999999997L279.1833261599993,0Z" style="opacity: 0;"/><path data-target="point-0-21" d="M279.1833261599993,0L425.884300905,371.51243999999997L442.5291758350428,371.51243999999997L443.8346435512857,365.33203199999997L321.32772278500016,0Z" style="opacity: 0;"/><path data-target="point-0-22" d="M321.32772278500016,0L443.8346435512857,365.33203199999997L460.4671332608,365.33203199999997L461.8363398944,359.39591999999993L337.2652215734,5.684341886080802e-14Z" style="opacity: 0;"/><path data-target="point-0-23" d="M337.2652215734,5.684341886080802e-14L461.8363398944,359.39591999999993L478.9489439009143,359.39591999999993L480.8391429233143,356.015088L352.97695980934355,0Z" style="opacity: 0;"/><path data-target="point-0-24" d="M352.97695980934355,0L480.8391429233143,356.015088L495.0787550502786,356.015088L498.58502295001426,348.829416L368.930735209857,0Z" style="opacity: 0;"/><path data-target="point-0-25" d="M368.930735209857,0L498.58502295001426,348.829416L513.4105007123429,348.829416L517.0230197945,342.53387999999995L398.906096198222,59.15244687052797L371.9148346912001,0Z" style="opacity: 0;"/><path data-target="point-0-26" d="M398.906096198222,59.15244687052797L517.0230197945,342.53387999999995L531.6139932534,342.53387999999995L536.4934304589,336.66516Z" style="opacity: 0;"/><path data-target="point-0-27" d="M371.9148346912001,0L398.906096198222,59.15244687052797L536.4934304589,336.66516L547.7574801072312,336.66516L551.6365300317481,332.76613999999995L546.3994538763964,281.83069494695593L515.8395871379702,198.05811165263466L468.93944952597235,96.53269658909554L418.9109324085275,0Z" style="opacity: 0;"/><path data-target="point-0-28" d="M546.3994538763964,281.83069494695593L551.6365300317481,332.76613999999995L565.9530149596471,332.76613999999995L571.9284154972205,322.56147450000003Z" style="opacity: 0;"/><path data-target="point-0-29" d="M515.8395871379702,198.05811165263466L546.3994538763964,281.83069494695593L571.9284154972205,322.56147450000003L583.3149528009403,322.56147450000003L590.5510378616256,311.9001725Z" style="opacity: 0;"/><path data-target="point-0-30" d="M468.93944952597235,96.53269658909554L515.8395871379702,198.05811165263466L590.5510378616256,311.9001725L600.5992864781934,311.9001725L609.2764066244579,300.76179149999996Z" style="opacity: 0;"/><path data-target="point-0-31" d="M418.9109324085275,0L468.93944952597235,96.53269658909554L609.2764066244579,300.76179149999996L617.7967091805069,300.76179149999996L628.1176777178159,289.12493399999994L420.09414313826596,0Z" style="opacity: 0;"/><path data-target="point-0-32" d="M420.09414313826596,0L628.1176777178159,289.12493399999994L634.8967340438688,289.12493399999994L647.0894306717499,276.96716449999997L438.43550633085533,0Z" style="opacity: 0;"/><path data-target="point-0-33" d="M438.43550633085533,0L647.0894306717499,276.96716449999997L651.8878734290438,276.96716449999997L666.208063795404,264.265092L457.75398959349116,0Z" style="opacity: 0;"/><path data-target="point-0-34" d="M457.75398959349116,0L666.208063795404,264.265092L668.7572818500913,264.265092L685.4910860858279,250.99494674278273L685.4914125678027,250.9938177693697L478.1893576329882,0Z" style="opacity: 0;"/><path data-target="point-0-35" d="M478.1893576329882,0L685.4914125678027,250.9938177693697L703.043503503781,238.49495100893785L703.9299669878474,235.93677448266365L499.89301619944285,0Z" style="opacity: 0;"/><path data-target="point-0-36" d="M499.89301619944285,0L703.9299669878474,235.93677448266365L720.4683378995483,225.3205435742599L722.5182368410377,220.30109950735178L523.0373000458821,0Z" style="opacity: 0;"/><path data-target="point-0-37" d="M523.0373000458821,0L722.5182368410377,220.30109950735178L737.7544112941612,211.45456221794782L741.272059229264,204.05026023213532L547.8111307247154,0Z" style="opacity: 0;"/><path data-target="point-0-38" d="M547.8111307247154,0L741.272059229264,204.05026023213532L754.8886789990266,196.87707773316836L760.2098011201558,187.14744829915705L574.4238191768867,0Z" style="opacity: 0;"/><path data-target="point-0-39" d="M574.4238191768867,0L760.2098011201558,187.14744829915705L771.855990275561,181.5658222763003L779.3524615482761,169.55552725418383L603.1097570248658,0Z" style="opacity: 0;"/><path data-target="point-0-40" d="M603.1097570248658,0L779.3524615482761,169.55552725418383L788.6389868309739,165.49634156631672L798.7240643093139,151.23647821893545L634.1247882977844,2.842170943040401e-14Z" style="opacity: 0;"/><path data-target="point-0-41" d="M634.1247882977844,2.842170943040401e-14L798.7240643093139,151.23647821893545L805.2179841621564,148.64184470405513L818.3518506112051,132.15156897393763L667.7552558958478,0Z" style="opacity: 0;"/><path data-target="point-0-42" d="M667.7552558958478,0L818.3518506112051,132.15156897393763L821.5705954162032,130.9736191497887L837.8906471968465,112.68230235976476L838.0506121518177,112.07994274261085L704.316536766125,1.4210854715202004e-14Z" style="opacity: 0;"/><path data-target="point-0-43" d="M704.316536766125,1.4210854715202004e-14L838.0506121518177,112.07994274261085L855.2581024275685,94.78506313882656L856.7515341279654,90.12165456365712L744.1574767094089,0Z" style="opacity: 0;"/><path data-target="point-0-44" d="M744.1574767094089,0L856.7515341279654,90.12165456365712L879.1004148227088,69.89724943952298L787.6641914503313,0Z" style="opacity: 0;"/><path data-target="point-0-45" d="M787.6641914503313,0L879.1004148227088,69.89724943952298L916.4580378061643,59.278985999999996L835.2629193143266,0Z" style="opacity: 0;"/><path data-target="point-0-46" d="M835.2629193143266,0L916.4580378061643,59.278985999999996L936,59.278985999999996L936,0Z" style="opacity: 0;"/><path data-target="point-1-0" d="M0,502.82575199999997L67.09497694492858,502.82575199999997L66.60896044002143,499.588128L0,169.04160820176014Z" style="opacity: 0;"/><path data-target="point-1-1" d="M0,169.04160820176014L66.60896044002143,499.588128L84.894618368,499.588128L84.64095102902857,496.42632L0,113.8776119279126Z" style="opacity: 0;"/><path data-target="point-1-2" d="M0,113.8776119279126L84.64095102902857,496.42632L102.70891191,496.42632L102.73507452235714,493.643592L23.221636617223268,49.30367525599337L8.980578167499923,-7.105427357601002e-15L0,0Z" style="opacity: 0;"/><path data-target="point-1-3" d="M23.221636617223268,49.30367525599337L102.73507452235714,493.643592L120.58020351464285,493.643592L120.71933000390713,490.70361599999995L60.68729614573533,169.8406214395804Z" style="opacity: 0;"/><path data-target="point-1-4" d="M60.68729614573533,169.8406214395804L120.71933000390713,490.70361599999995L138.48185536571427,490.703616L138.65325259691429,487.008288L80.47915860814271,227.75306641671716Z" style="opacity: 0;"/><path data-target="point-1-5" d="M80.47915860814271,227.75306641671716L138.65325259691429,487.008288L156.40475938928572,487.008288L156.5530335528,482.858064L127.84268337756507,357.01826485367195L119.92824215291806,331.3274637662263Z" style="opacity: 0;"/><path data-target="point-1-6" d="M127.84268337756507,357.01826485367195L156.5530335528,482.858064L175.61683867685713,482.858064L173.4979363581143,474.6924Z" style="opacity: 0;"/><path data-target="point-1-7" d="M173.4979363581143,474.6924L175.61683867685713,482.858064L209.4397595916055,547.4838064032588L192.5358402319357,474.6924Z" style="opacity: 0;"/><path data-target="point-1-8" d="M191.83064562799998,467.894232L192.5358402319357,474.6924L209.4397595916055,547.4838064032588L214.7727882118608,561.6L232.81458387377137,561.6L209.8498101129,467.894232Z" style="opacity: 0;"/><path data-target="point-1-9" d="M209.8498101129,467.894232L232.81458387377137,561.6L255.84693960982872,561.6L227.69049858914283,463.086936L210.7040365665,463.086936Z" style="opacity: 0;"/><path data-target="point-1-10" d="M227.69049858914283,463.086936L255.84693960982872,561.6L281.32268357842105,561.6L245.50271003424285,457.40915999999993L228.73143263821427,457.40915999999993Z" style="opacity: 0;"/><path data-target="point-1-11" d="M245.50271003424285,457.40915999999993L281.32268357842105,561.6L311.4135986075146,561.6L263.21435426305715,450.313344L246.83252930814285,450.31334400000003Z" style="opacity: 0;"/><path data-target="point-1-12" d="M263.21435426305715,450.313344L311.4135986075146,561.6L332.20180676823577,561.6L281.88747229597857,444.326688L264.42636346071424,444.326688Z" style="opacity: 0;"/><path data-target="point-1-13" d="M281.88747229597857,444.326688L332.20180676823577,561.6L352.7750934244783,561.6L300.39484274355715,438.06765599999994L281.9404337658571,438.06765599999994Z" style="opacity: 0;"/><path data-target="point-1-14" d="M299.42171500485716,431.404272L300.39484274355715,438.06765599999994L352.7750934244783,561.6L375.4979550484287,561.6L318.7826035002857,431.404272Z" style="opacity: 0;"/><path data-target="point-1-15" d="M316.833035676,423.96307199999995L318.7826035002857,431.404272L375.4979550484287,561.6L406.89796430320007,561.6L337.3652629589714,423.963072Z" style="opacity: 0;"/><path data-target="point-1-16" d="M332.40774623971424,410.64753599999995L337.3652629589714,423.963072L406.89796430320007,561.6L424.7497320693712,561.6L353.0316773070286,410.64753599999995Z" style="opacity: 0;"/><path data-target="point-1-17" d="M353.0316773070286,410.64753599999995L424.7497320693712,561.6L432.21931988528604,561.6L370.4635690251428,401.39236800000003L354.2672918162857,401.39236800000003Z" style="opacity: 0;"/><path data-target="point-1-18" d="M370.4635690251428,401.39236800000003L432.21931988528604,561.6L469.82928610514267,561.6L389.0794364333714,395.57980799999996L372.241465056,395.579808Z" style="opacity: 0;"/><path data-target="point-1-19" d="M389.0794364333714,395.57980799999996L469.82928610514267,561.6L483.7355242461713,561.6L407.014051592,387.23443199999997L389.76989707771423,387.23443199999997Z" style="opacity: 0;"/><path data-target="point-1-20" d="M407.014051592,387.23443199999997L483.7355242461713,561.6L501.11982957803605,561.6L424.63972880303567,378.7992L407.75424319999996,378.7992Z" style="opacity: 0;"/><path data-target="point-1-21" d="M424.63972880303567,378.7992L501.11982957803605,561.6L504.99925026652136,561.6L495.9872296576841,522.3333112289965L442.5291758350428,371.51243999999997L425.884300905,371.51243999999997Z" style="opacity: 0;"/><path data-target="point-1-22" d="M442.5291758350428,371.51243999999997L495.9872296576841,522.3333112289965L480.1917940571384,427.77160400486986L460.4671332608,365.33203199999997L443.8346435512857,365.33203199999997Z" style="opacity: 0;"/><path data-target="point-1-23" d="M460.4671332608,365.33203199999997L480.1917940571384,427.77160400486986L478.9489439009143,359.39591999999993L461.8363398944,359.39591999999993Z" style="opacity: 0;"/><path data-target="point-1-24" d="M478.9489439009143,359.39591999999993L480.1917940571384,427.77160400486986L495.9872296576841,522.3333112289965L504.99925026652136,561.6L574.7510105220501,561.6L556.5691998997333,499.2841741196863L555.7930931412153,497.11658899050843L495.0787550502786,356.015088L480.8391429233143,356.015088Z" style="opacity: 0;"/><path data-target="point-1-25" d="M495.0787550502786,356.015088L555.7930931412153,497.11658899050843L513.4105007123429,348.829416L498.58502295001426,348.829416Z" style="opacity: 0;"/><path data-target="point-1-26" d="M513.4105007123429,348.829416L555.7930931412153,497.11658899050843L556.5691998997333,499.2841741196863L531.6139932534,342.53387999999995L517.0230197945,342.53387999999995Z" style="opacity: 0;"/><path data-target="point-1-27" d="M531.6139932534,342.53387999999995L556.5691998997333,499.2841741196863L574.7510105220501,561.6L622.5124528649387,561.6L547.7574801072312,336.66516L536.4934304589,336.66516Z" style="opacity: 0;"/><path data-target="point-1-28" d="M547.7574801072312,336.66516L622.5124528649387,561.6L683.1480671924758,561.6L565.9530149596471,332.76613999999995L551.6365300317481,332.76613999999995Z" style="opacity: 0;"/><path data-target="point-1-29" d="M565.9530149596471,332.76613999999995L683.1480671924758,561.6L710.8670171616258,561.6L583.3149528009403,322.56147450000003L571.9284154972205,322.56147450000003Z" style="opacity: 0;"/><path data-target="point-1-30" d="M583.3149528009403,322.56147450000003L710.8670171616258,561.6L739.4244759754469,561.6L600.5992864781934,311.9001725L590.5510378616256,311.9001725Z" style="opacity: 0;"/><path data-target="point-1-31" d="M600.5992864781934,311.9001725L739.4244759754469,561.6L768.8905892659598,561.6L617.7967091805069,300.76179149999996L609.2764066244579,300.76179149999996Z" style="opacity: 0;"/><path data-target="point-1-32" d="M617.7967091805069,300.76179149999996L768.8905892659598,561.6L799.3467033404885,561.6L634.8967340438688,289.12493399999994L628.1176777178159,289.12493399999994Z" style="opacity: 0;"/><path data-target="point-1-33" d="M634.8967340438688,289.12493399999994L799.3467033404885,561.6L830.8750546651538,561.6L651.8878734290438,276.96716449999997L647.0894306717499,276.96716449999997Z" style="opacity: 0;"/><path data-target="point-1-34" d="M651.8878734290438,276.96716449999997L830.8750546651538,561.6L863.5667663760491,561.6L668.7572818500913,264.265092L666.208063795404,264.265092Z" style="opacity: 0;"/><path data-target="point-1-35" d="M668.7572818500913,264.265092L863.5667663760491,561.6L897.5230604269186,561.6L685.4910860858279,250.99494674278273Z" style="opacity: 0;"/><path data-target="point-1-36" d="M685.4910860858279,250.99494674278273L897.5230604269186,561.6L932.8524023286512,561.6L703.043503503781,238.49495100893785L685.4914125678027,250.9938177693697Z" style="opacity: 0;"/><path data-target="point-1-37" d="M703.043503503781,238.49495100893785L932.8524023286512,561.6L936,561.6L936,516.1648879324948L720.4683378995483,225.3205435742599L703.9299669878474,235.93677448266365Z" style="opacity: 0;"/><path data-target="point-1-38" d="M720.4683378995483,225.3205435742599L936,516.1648879324948L936,468.2120429552243L737.7544112941612,211.45456221794782L722.5182368410377,220.30109950735178Z" style="opacity: 0;"/><path data-target="point-1-39" d="M737.7544112941612,211.45456221794782L936,468.2120429552243L936,422.0082832473232L754.8886789990266,196.87707773316836L741.272059229264,204.05026023213532Z" style="opacity: 0;"/><path data-target="point-1-40" d="M754.8886789990266,196.87707773316836L936,422.0082832473232L936,377.39925492657176L771.855990275561,181.5658222763003L760.2098011201558,187.14744829915705Z" style="opacity: 0;"/><path data-target="point-1-41" d="M771.855990275561,181.5658222763003L936,377.39925492657176L936,334.23484732999646L788.6389868309739,165.49634156631672L779.3524615482761,169.55552725418383Z" style="opacity: 0;"/><path data-target="point-1-42" d="M788.6389868309739,165.49634156631672L936,334.23484732999646L936,292.37338229587345L805.2179841621564,148.64184470405513L798.7240643093139,151.23647821893545Z" style="opacity: 0;"/><path data-target="point-1-43" d="M805.2179841621564,148.64184470405513L936,292.37338229587345L936,251.67484676924846L821.5705954162032,130.9736191497887L818.3518506112051,132.15156897393763Z" style="opacity: 0;"/><path data-target="point-1-44" d="M821.5705954162032,130.9736191497887L936,251.67484676924846L936,212.00666032528528L837.8906471968465,112.68230235976476Z" style="opacity: 0;"/><path data-target="point-1-45" d="M837.8906471968465,112.68230235976476L936,212.00666032528528L936,173.23922083631533L855.2581024275685,94.78506313882656L838.0506121518177,112.07994274261085Z" style="opacity: 0;"/><path data-target="point-1-46" d="M855.2581024275685,94.78506313882656L936,173.23922083631533L936,59.278985999999996L916.4580378061643,59.278985999999996L879.1004148227088,69.89724943952298L856.7515341279654,90.12165456365712Z" style="opacity: 0;"/></g></g><g class="axes"><g class="y axis" fill="none" font-size="10" font-family="sans-serif" text-anchor="end" style="font-family: &quot;Source Sans Pro&quot;;"><path class="domain" stroke="#eeeeee" d="M0.5,562.1V0.5" stroke-dasharray="0" style="visibility: hidden;"/><g class="tick" opacity="1" transform="translate(0,562.1)" style="visibility: visible;"><line stroke="#eeeeee" x2="936" stroke-dasharray="0"/><text fill="rgb(0, 0, 0)" x="3" dy="-0.33em" opacity="1" text-anchor="start" font-size="18">$0</text></g><g class="tick" opacity="1" transform="translate(0, 505.94000244140625)" style="visibility: visible;"><line stroke="#eeeeee" x2="936" stroke-dasharray="0"/><text fill="rgb(0, 0, 0)" x="3" dy="-0.33em" opacity="1" text-anchor="start" font-size="18">$10,000</text></g><g class="tick" opacity="1" transform="translate(0, 449.7799987792969)" style="visibility: visible;"><line stroke="#eeeeee" x2="936" stroke-dasharray="0"/><text fill="rgb(0, 0, 0)" x="3" dy="-0.33em" opacity="1" text-anchor="start" font-size="18">$20,000</text></g><g class="tick" opacity="1" transform="translate(0, 393.6199951171875)" style="visibility: visible;"><line stroke="#eeeeee" x2="936" stroke-dasharray="0"/><text fill="rgb(0, 0, 0)" x="3" dy="-0.33em" opacity="1" text-anchor="start" font-size="18">$30,000</text></g><g class="tick" opacity="1" transform="translate(0, 337.4599914550781)" style="visibility: visible;"><line stroke="#eeeeee" x2="936" stroke-dasharray="0"/><text fill="rgb(0, 0, 0)" x="3" dy="-0.33em" opacity="1" text-anchor="start" font-size="18">$40,000</text></g><g class="tick" opacity="1" transform="translate(0, 281.29998779296875)" style="visibility: visible;"><line stroke="#eeeeee" x2="936" stroke-dasharray="0"/><text fill="rgb(0, 0, 0)" x="3" dy="-0.33em" opacity="1" text-anchor="start" font-size="18">$50,000</text></g><g class="tick" opacity="1" transform="translate(0, 225.13999938964844)" style="visibility: visible;"><line stroke="#eeeeee" x2="936" stroke-dasharray="0"/><text fill="rgb(0, 0, 0)" x="3" dy="-0.33em" opacity="1" text-anchor="start" font-size="18">$60,000</text></g><g class="tick" opacity="1" transform="translate(0, 168.97999572753906)" style="visibility: visible;"><line stroke="#eeeeee" x2="936" stroke-dasharray="0"/><text fill="rgb(0, 0, 0)" x="3" dy="-0.33em" opacity="1" text-anchor="start" font-size="18">$70,000</text></g><g class="tick" opacity="1" transform="translate(0, 112.81999969482422)" style="visibility: visible;"><line stroke="#eeeeee" x2="936" stroke-dasharray="0"/><text fill="rgb(0, 0, 0)" x="3" dy="-0.33em" opacity="1" text-anchor="start" font-size="18">$80,000</text></g><g class="tick" opacity="1" transform="translate(0, 56.65999984741211)" style="visibility: visible;"><line stroke="#eeeeee" x2="936" stroke-dasharray="0"/><text fill="rgb(0, 0, 0)" x="3" dy="-0.33em" opacity="1" text-anchor="start" font-size="18">$90,000</text></g><g class="tick" opacity="1" transform="translate(0, 0.5)" style="visibility: visible;"><line stroke="#eeeeee" x2="936" stroke-dasharray="0"/><text fill="rgb(0, 0, 0)" x="3" dy="-0.33em" opacity="1" text-anchor="start" font-size="18">$100,000</text></g></g><g class="x axis" transform="translate(0,561.6)" fill="none" font-size="10" font-family="sans-serif" text-anchor="middle" style="font-family: &quot;Source Sans Pro&quot;;"><path class="domain" stroke="#eeeeee" d="M40.5,0.5H936.5" stroke-dasharray="0"/><g class="tick" opacity="1" transform="translate(40.5,0)"><line stroke="#eeeeee" y2="6" stroke-dasharray="0"/><text fill="rgb(0, 0, 0)" y="9" dy="-9" opacity="1" dominant-baseline="central" font-size="18" transform="translate(0, 15) rotate(-45)" dx="5" style="text-anchor: end; visibility: visible;">1990</text></g><g class="tick" opacity="1" transform="translate(130.10000000000002,0)"><line stroke="#eeeeee" y2="6" stroke-dasharray="0"/><text fill="rgb(0, 0, 0)" y="9" dy="-9" opacity="1" dominant-baseline="central" font-size="18" transform="translate(0, 15) rotate(-45)" dx="5" style="text-anchor: end; visibility: visible;">1995</text></g><g class="tick" opacity="1" transform="translate(219.70000000000002,0)"><line stroke="#eeeeee" y2="6" stroke-dasharray="0"/><text fill="rgb(0, 0, 0)" y="9" dy="-9" opacity="1" dominant-baseline="central" font-size="18" transform="translate(0, 15) rotate(-45)" dx="5" style="text-anchor: end; visibility: visible;">2000</text></g><g class="tick" opacity="1" transform="translate(309.3,0)"><line stroke="#eeeeee" y2="6" stroke-dasharray="0"/><text fill="rgb(0, 0, 0)" y="9" dy="-9" opacity="1" dominant-baseline="central" font-size="18" transform="translate(0, 15) rotate(-45)" dx="5" style="text-anchor: end; visibility: visible;">2005</text></g><g class="tick" opacity="1" transform="translate(398.90000000000003,0)"><line stroke="#eeeeee" y2="6" stroke-dasharray="0"/><text fill="rgb(0, 0, 0)" y="9" dy="-9" opacity="1" dominant-baseline="central" font-size="18" transform="translate(0, 15) rotate(-45)" dx="5" style="text-anchor: end; visibility: visible;">2010</text></g><g class="tick" opacity="1" transform="translate(488.5,0)"><line stroke="#eeeeee" y2="6" stroke-dasharray="0"/><text fill="rgb(0, 0, 0)" y="9" dy="-9" opacity="1" dominant-baseline="central" font-size="18" transform="translate(0, 15) rotate(-45)" dx="5" style="text-anchor: end; visibility: visible;">2015</text></g><g class="tick" opacity="1" transform="translate(578.1,0)"><line stroke="#eeeeee" y2="6" stroke-dasharray="0"/><text fill="rgb(0, 0, 0)" y="9" dy="-9" opacity="1" dominant-baseline="central" font-size="18" transform="translate(0, 15) rotate(-45)" dx="5" style="text-anchor: end; visibility: visible;">2020</text></g><g class="tick" opacity="1" transform="translate(667.6999999999999,0)"><line stroke="#eeeeee" y2="6" stroke-dasharray="0"/><text fill="rgb(0, 0, 0)" y="9" dy="-9" opacity="1" dominant-baseline="central" font-size="18" transform="translate(0, 15) rotate(-45)" dx="5" style="text-anchor: end; visibility: visible;">2025</text></g><g class="tick" opacity="1" transform="translate(757.3000000000001,0)"><line stroke="#eeeeee" y2="6" stroke-dasharray="0"/><text fill="rgb(0, 0, 0)" y="9" dy="-9" opacity="1" dominant-baseline="central" font-size="18" transform="translate(0, 15) rotate(-45)" dx="5" style="text-anchor: end; visibility: visible;">2030</text></g><g class="tick" opacity="1" transform="translate(846.9,0)"><line stroke="#eeeeee" y2="6" stroke-dasharray="0"/><text fill="rgb(0, 0, 0)" y="9" dy="-9" opacity="1" dominant-baseline="central" font-size="18" transform="translate(0, 15) rotate(-45)" dx="5" style="text-anchor: end; visibility: visible;">2035</text></g><g class="tick" opacity="1" transform="translate(936.5,0)"><line stroke="#eeeeee" y2="6" stroke-dasharray="0"/><text fill="rgb(0, 0, 0)" y="9" dy="-9" opacity="1" dominant-baseline="central" font-size="18" transform="translate(0, 15) rotate(-45)" dx="5" style="text-anchor: end; visibility: visible;">2040</text></g></g></g></g></g></g><g class="annotations below"><g class="axis-highlights" transform="translate(15, 20)" style="opacity: 1;"><g class="line x" transform="translate(559.68, 0)"><line width="0" stroke-dasharray="2 2" stroke="#333333" stroke-width="2" y2="561.6"/><text transform="translate(0, 6) rotate(-90)" fill="#333333" text-anchor="end" dy="-0.5em" font-size="12">Current</text></g></g></g><g id="areas"><g class="series" pointer-events="none"><path class="area" transform="translate(15,20)" fill-opacity="0" fill="rgb(17, 165, 121)" clip-path="url(#clip-0-0)" d="M57.92,502.9128C63.89333333333334,501.91596000000004,69.86666666666667,500.91912,75.84,500.04864000000003C81.81333333333333,499.17816000000005,87.78666666666666,498.47616000000005,93.75999999999999,497.68992000000003C99.73333333333333,496.90368,105.70666666666666,496.14552000000003,111.68,495.3312C117.65333333333335,494.51688,123.62666666666668,493.7868,129.60000000000002,492.80400000000003C135.57333333333335,491.82120000000003,141.54666666666665,490.69800000000004,147.51999999999998,489.43440000000004C153.4933333333333,488.17080000000004,159.46666666666667,487.87128,165.44,485.2224C171.41333333333333,482.57352,177.38666666666668,477.06048000000004,183.36,473.54112000000003C189.33333333333334,470.02176000000003,195.30666666666667,466.5492,201.28,464.10624C207.25333333333333,461.66328,213.2266666666667,460.79280000000006,219.20000000000002,458.88336000000004C225.17333333333335,456.97392,231.14666666666668,455.02704000000006,237.12,452.6496C243.09333333333333,450.27216,249.06666666666666,446.6592,255.04,444.61872C261.0133333333333,442.57824,266.9866666666667,441.91368,272.96000000000004,440.40672C278.93333333333334,438.89976,284.9066666666667,437.33664000000005,290.88,435.57696000000004C296.85333333333335,433.81728000000004,302.82666666666665,431.9827200000001,308.8,429.84864000000005C314.77333333333337,427.71456,320.74666666666667,426.88151999999997,326.72,422.77248C332.6933333333334,418.66344,338.6666666666667,409.79015999999996,344.64000000000004,405.1944C350.61333333333334,400.59864,356.5866666666667,397.65024,362.56,395.19792C368.53333333333336,392.7456,374.50666666666666,392.59584,380.48,390.48048C386.4533333333334,388.36512,392.4266666666667,385.33248000000003,398.40000000000003,382.50576C404.37333333333333,379.67904000000004,410.3466666666667,376.19712000000004,416.32,373.52016000000003C422.29333333333335,370.8432,428.26666666666665,368.62488,434.24,366.444C440.21333333333337,364.26312,446.18666666666667,362.47161600000004,452.16,360.43488C458.1333333333333,358.398144,464.1066666666667,356.331456,470.08,354.223584C476.05333333333334,352.11571200000003,482.02666666666664,349.9704,488,347.787648C493.97333333333336,345.604896,499.94666666666666,343.482048,505.92,341.127072C511.8933333333334,338.772096,517.8666666666667,336.383424,523.84,333.657792C529.8133333333334,330.93215999999995,535.7866666666666,326.00161152,541.76,324.77328C547.7333333333333,323.54494848,553.7066666666666,324.15911424,559.68,322.93078272C565.6533333333333,321.70245120000004,571.6266666666667,315.53103816000004,577.6,311.69900736C583.5733333333334,307.86697656,589.5466666666666,303.95096784,595.52,299.93859792C601.4933333333333,295.926228,607.4666666666667,291.82597704,613.44,287.62478784C619.4133333333334,283.42359864,625.3866666666667,279.13036320000003,631.36,274.73146272C637.3333333333334,270.33256224,643.3066666666667,265.8373005600001,649.2800000000001,261.23138496C655.2533333333333,256.62546936,661.2266666666667,251.91863424,667.1999999999999,247.09596912C673.1733333333333,242.27330399999997,679.1466666666666,237.34501128000002,685.12,232.29539424C691.0933333333334,227.24577720000002,697.0666666666666,222.08552495999996,703.04,216.79826687999997C709.0133333333333,211.51100879999996,714.9866666666667,206.10792072000004,720.96,200.57184576000003C726.9333333333334,195.03577080000005,732.9066666666666,189.37842768000002,738.88,183.58181712000004C744.8533333333334,177.78520656,750.8266666666667,171.86158080000004,756.8000000000001,165.7921824C762.7733333333333,159.72278400000002,768.7466666666667,153.52044551999992,774.7199999999999,147.16542671999997C780.6933333333333,140.81040791999993,786.6666666666666,134.31615912000007,792.64,127.66206960000005C798.6133333333333,121.00798008000008,804.5866666666666,114.20811791999999,810.56,107.2408896C816.5333333333333,100.27366127999997,822.5066666666667,93.15380880000001,828.48,85.85869967999997C834.4533333333334,78.56359056,840.4266666666666,71.10865943999994,846.4,63.470234879999964C852.3733333333333,55.831810319999946,858.3466666666667,48.02603832000003,864.32,40.028152320000004C870.2933333333334,32.030266320000024,876.2666666666667,23.756592599999983,882.24,15.482918879999943L882.24,15.482918879999943C876.2666666666667,23.756592599999983,870.2933333333334,32.030266320000024,864.32,40.028152320000004C858.3466666666667,48.02603832000003,852.3733333333333,55.831810319999946,846.4,63.470234879999964C840.4266666666666,71.10865943999994,834.4533333333334,78.56359056,828.48,85.85869967999997C822.5066666666667,93.15380880000001,816.5333333333333,100.27366127999997,810.56,107.2408896C804.5866666666666,114.20811791999999,798.6133333333333,121.00798008000008,792.64,127.66206960000005C786.6666666666666,134.31615912000007,780.6933333333333,140.81040791999993,774.7199999999999,147.16542671999997C768.7466666666667,153.52044551999992,762.7733333333333,159.72278400000002,756.8000000000001,165.7921824C750.8266666666667,171.86158080000004,744.8533333333334,177.78520656,738.88,183.58181712000004C732.9066666666666,189.37842768000002,726.9333333333334,195.03577080000005,720.96,200.57184576000003C714.9866666666667,206.10792072000004,709.0133333333333,211.51100879999996,703.04,216.79826687999997C697.0666666666666,222.08552495999996,691.0933333333334,227.24577720000002,685.12,232.29539424C679.1466666666666,237.34501128000002,673.1733333333333,242.27330399999997,667.1999999999999,247.09596912C661.2266666666667,251.91863424,655.2533333333333,256.62546936,649.2800000000001,261.23138496C643.3066666666667,265.8373005600001,637.3333333333334,270.33256224,631.36,274.73146272C625.3866666666667,279.13036320000003,619.4133333333334,283.42359864,613.44,287.62478784C607.4666666666667,291.82597704,601.4933333333333,295.926228,595.52,299.93859792C589.5466666666666,303.95096784,583.5733333333334,307.86697656,577.6,311.69900736C571.6266666666667,315.53103816000004,565.6533333333333,321.70245120000004,559.68,322.93078272C553.7066666666666,324.15911424,547.7333333333333,323.54494848,541.76,324.77328C535.7866666666666,326.00161152,529.8133333333334,330.93215999999995,523.84,333.657792C517.8666666666667,336.383424,511.8933333333334,338.772096,505.92,341.127072C499.94666666666666,343.482048,493.97333333333336,345.604896,488,347.787648C482.02666666666664,349.9704,476.05333333333334,352.11571200000003,470.08,354.223584C464.1066666666667,356.331456,458.1333333333333,358.398144,452.16,360.43488C446.18666666666667,362.47161600000004,440.21333333333337,364.26312,434.24,366.444C428.26666666666665,368.62488,422.29333333333335,370.8432,416.32,373.52016000000003C410.3466666666667,376.19712000000004,404.37333333333333,379.67904000000004,398.40000000000003,382.50576C392.4266666666667,385.33248000000003,386.4533333333334,388.36512,380.48,390.48048C374.50666666666666,392.59584,368.53333333333336,392.7456,362.56,395.19792C356.5866666666667,397.65024,350.61333333333334,400.59864,344.64000000000004,405.1944C338.6666666666667,409.79015999999996,332.6933333333334,418.66344,326.72,422.77248C320.74666666666667,426.88151999999997,314.77333333333337,427.71456,308.8,429.84864000000005C302.82666666666665,431.9827200000001,296.85333333333335,433.81728000000004,290.88,435.57696000000004C284.9066666666667,437.33664000000005,278.93333333333334,438.89976,272.96000000000004,440.40672C266.9866666666667,441.91368,261.0133333333333,442.57824,255.04,444.61872C249.06666666666666,446.6592,243.09333333333333,450.27216,237.12,452.6496C231.14666666666668,455.02704000000006,225.17333333333335,456.97392,219.20000000000002,458.88336000000004C213.2266666666667,460.79280000000006,207.25333333333333,461.66328,201.28,464.10624C195.30666666666667,466.5492,189.33333333333334,470.02176000000003,183.36,473.54112000000003C177.38666666666668,477.06048000000004,171.41333333333333,482.57352,165.44,485.2224C159.46666666666667,487.87128,153.4933333333333,488.17080000000004,147.51999999999998,489.43440000000004C141.54666666666665,490.69800000000004,135.57333333333335,491.82120000000003,129.60000000000002,492.80400000000003C123.62666666666668,493.7868,117.65333333333335,494.51688,111.68,495.3312C105.70666666666666,496.14552000000003,99.73333333333333,496.90368,93.75999999999999,497.68992000000003C87.78666666666666,498.47616000000005,81.81333333333333,499.17816000000005,75.84,500.04864000000003C69.86666666666667,500.91912,63.89333333333334,501.91596000000004,57.92,502.9128Z"/></g><g class="series" pointer-events="none"><path class="area" transform="translate(15,20)" fill-opacity="0" fill="rgb(128, 35, 146)" clip-path="url(#clip-0-1)" d="M57.92,502.73870400000004C63.89333333333334,501.56449200000003,69.86666666666667,500.39028,75.84,499.127616C81.81333333333333,497.864952,87.78666666666666,496.357992,93.75999999999999,495.16272000000004C99.73333333333333,493.96744800000005,105.70666666666666,493.0492320000001,111.68,491.95598400000006C117.65333333333335,490.86273600000004,123.62666666666668,489.83220000000006,129.60000000000002,488.60323200000005C135.57333333333335,487.37426400000004,141.54666666666665,485.93376,147.51999999999998,484.582176C153.4933333333333,483.230592,159.46666666666667,481.950144,165.44,480.49372800000003C171.41333333333333,479.03731200000004,177.38666666666668,477.312264,183.36,475.84368C189.33333333333334,474.375096,195.30666666666667,473.107752,201.28,471.682224C207.25333333333333,470.25669600000003,213.2266666666667,468.876096,219.20000000000002,467.29051200000004C225.17333333333335,465.70492800000005,231.14666666666668,464.049144,237.12,462.16872C243.09333333333333,460.288296,249.06666666666666,458.328312,255.04,456.007968C261.0133333333333,453.687624,266.9866666666667,450.821592,272.96000000000004,448.24665600000003C278.93333333333334,445.67172000000005,284.9066666666667,443.10614400000003,290.88,440.558352C296.85333333333335,438.01056,302.82666666666665,435.52735200000006,308.8,432.95990400000005C314.77333333333337,430.39245600000004,320.74666666666667,427.96353600000003,326.72,425.15366400000005C332.6933333333334,422.34379200000006,338.6666666666667,419.02848000000006,344.64000000000004,416.10067200000003C350.61333333333334,413.172864,356.5866666666667,410.157072,362.56,407.586816C368.53333333333336,405.01655999999997,374.50666666666666,403.28308799999996,380.48,400.67913599999997C386.4533333333334,398.075184,392.4266666666667,394.72992000000005,398.40000000000003,391.96310400000004C404.37333333333333,389.19628800000004,410.3466666666667,386.6419440000001,416.32,384.07824000000005C422.29333333333335,381.514536,428.26666666666665,378.889056,434.24,376.58088C440.21333333333337,374.272704,446.18666666666667,372.231288,452.16,370.22918400000003C458.1333333333333,368.22708000000006,464.1066666666667,364.785408,470.08,364.568256C476.05333333333334,364.351104,482.02666666666664,364.45968,488,364.242528C493.97333333333336,364.025376,499.94666666666666,358.67052,505.92,356.53176C511.8933333333334,354.39300000000003,517.8666666666667,352.73908800000004,523.84,351.40996800000005C529.8133333333334,350.08084800000006,535.7866666666666,350.02511856,541.76,348.55704000000003C547.7333333333333,347.08896144000005,553.7066666666666,345.12367968,559.68,342.60149664000005C565.6533333333333,340.07931360000003,571.6266666666667,336.54723336000006,577.6,333.42394176000005C583.5733333333334,330.3006501600001,589.5466666666666,327.11593824000005,595.52,323.86174704000007C601.4933333333333,320.60755584000003,607.4666666666667,317.2893516000001,613.44,313.89879456000006C619.4133333333334,310.5082375200001,625.3866666666667,307.05104664000004,631.36,303.51840480000004C637.3333333333334,299.98576296000005,643.3066666666667,296.38364184000005,649.2800000000001,292.70294352C655.2533333333333,289.02224520000004,661.2266666666667,285.26915664,667.1999999999999,281.43421488C673.1733333333333,277.59927311999996,679.1466666666666,273.68893656,685.12,269.69329296C691.0933333333334,265.69764936,697.0666666666666,261.62344728,703.04,257.46035328C709.0133333333333,253.29725928,714.9866666666667,249.05228400000001,720.96,244.71472896C726.9333333333334,240.37717392000002,732.9066666666666,235.95434928000003,738.88,231.43502304000003C744.8533333333334,226.91569680000003,750.8266666666667,222.30749736000004,756.8000000000001,217.59877152C762.7733333333333,212.89004568000004,768.7466666666667,208.08872135999994,774.7199999999999,203.18266799999998C780.6933333333333,198.27661463999996,786.6666666666666,193.27410648000006,792.64,188.16245136000003C798.6133333333333,183.05079624000007,804.5866666666666,177.83860536,810.56,172.51273728C816.5333333333333,167.1868692,822.5066666666667,161.75630016,828.48,156.20724287999997C834.4533333333334,150.6581856,840.4266666666666,145.00000007999998,846.4,139.2183936C852.3733333333333,133.43678712,858.3466666666667,127.54149408000002,864.32,121.517604C870.2933333333334,115.49371392000003,876.2666666666667,109.28438352000005,882.24,103.07505312000006L882.24,103.07505312000006C876.2666666666667,109.28438352000005,870.2933333333334,115.49371392000003,864.32,121.517604C858.3466666666667,127.54149408000002,852.3733333333333,133.43678712,846.4,139.2183936C840.4266666666666,145.00000007999998,834.4533333333334,150.6581856,828.48,156.20724287999997C822.5066666666667,161.75630016,816.5333333333333,167.1868692,810.56,172.51273728C804.5866666666666,177.83860536,798.6133333333333,183.05079624000007,792.64,188.16245136000003C786.6666666666666,193.27410648000006,780.6933333333333,198.27661463999996,774.7199999999999,203.18266799999998C768.7466666666667,208.08872135999994,762.7733333333333,212.89004568000004,756.8000000000001,217.59877152C750.8266666666667,222.30749736000004,744.8533333333334,226.91569680000003,738.88,231.43502304000003C732.9066666666666,235.95434928000003,726.9333333333334,240.37717392000002,720.96,244.71472896C714.9866666666667,249.05228400000001,709.0133333333333,253.29725928,703.04,257.46035328C697.0666666666666,261.62344728,691.0933333333334,265.69764936,685.12,269.69329296C679.1466666666666,273.68893656,673.1733333333333,277.59927311999996,667.1999999999999,281.43421488C661.2266666666667,285.26915664,655.2533333333333,289.02224520000004,649.2800000000001,292.70294352C643.3066666666667,296.38364184000005,637.3333333333334,299.98576296000005,631.36,303.51840480000004C625.3866666666667,307.05104664000004,619.4133333333334,310.5082375200001,613.44,313.89879456000006C607.4666666666667,317.2893516000001,601.4933333333333,320.60755584000003,595.52,323.86174704000007C589.5466666666666,327.11593824000005,583.5733333333334,330.3006501600001,577.6,333.42394176000005C571.6266666666667,336.54723336000006,565.6533333333333,340.07931360000003,559.68,342.60149664000005C553.7066666666666,345.12367968,547.7333333333333,347.08896144000005,541.76,348.55704000000003C535.7866666666666,350.02511856,529.8133333333334,350.08084800000006,523.84,351.40996800000005C517.8666666666667,352.73908800000004,511.8933333333334,354.39300000000003,505.92,356.53176C499.94666666666666,358.67052,493.97333333333336,364.025376,488,364.242528C482.02666666666664,364.45968,476.05333333333334,364.351104,470.08,364.568256C464.1066666666667,364.785408,458.1333333333333,368.22708000000006,452.16,370.22918400000003C446.18666666666667,372.231288,440.21333333333337,374.272704,434.24,376.58088C428.26666666666665,378.889056,422.29333333333335,381.514536,416.32,384.07824000000005C410.3466666666667,386.6419440000001,404.37333333333333,389.19628800000004,398.40000000000003,391.96310400000004C392.4266666666667,394.72992000000005,386.4533333333334,398.075184,380.48,400.67913599999997C374.50666666666666,403.28308799999996,368.53333333333336,405.01655999999997,362.56,407.586816C356.5866666666667,410.157072,350.61333333333334,413.172864,344.64000000000004,416.10067200000003C338.6666666666667,419.02848000000006,332.6933333333334,422.34379200000006,326.72,425.15366400000005C320.74666666666667,427.96353600000003,314.77333333333337,430.39245600000004,308.8,432.95990400000005C302.82666666666665,435.52735200000006,296.85333333333335,438.01056,290.88,440.558352C284.9066666666667,443.10614400000003,278.93333333333334,445.67172000000005,272.96000000000004,448.24665600000003C266.9866666666667,450.821592,261.0133333333333,453.687624,255.04,456.007968C249.06666666666666,458.328312,243.09333333333333,460.288296,237.12,462.16872C231.14666666666668,464.049144,225.17333333333335,465.70492800000005,219.20000000000002,467.29051200000004C213.2266666666667,468.876096,207.25333333333333,470.25669600000003,201.28,471.682224C195.30666666666667,473.107752,189.33333333333334,474.375096,183.36,475.84368C177.38666666666668,477.312264,171.41333333333333,479.03731200000004,165.44,480.49372800000003C159.46666666666667,481.950144,153.4933333333333,483.230592,147.51999999999998,484.582176C141.54666666666665,485.93376,135.57333333333335,487.37426400000004,129.60000000000002,488.60323200000005C123.62666666666668,489.83220000000006,117.65333333333335,490.86273600000004,111.68,491.95598400000006C105.70666666666666,493.0492320000001,99.73333333333333,493.96744800000005,93.75999999999999,495.16272000000004C87.78666666666666,496.357992,81.81333333333333,497.864952,75.84,499.127616C69.86666666666667,500.39028,63.89333333333334,501.56449200000003,57.92,502.73870400000004Z"/></g></g><g id="lines"><g class="series"><clipPath id="clip-0-0"><rect width="936" y="-20" height="599.6"/></clipPath><path class="line" opacity="1" fill="none" stroke="rgb(17, 165, 121)" stroke-width="2" transform="translate(15,20)" clip-path="url(#clip-0-0)" d="M57.92,502.9128C63.89333333333334,501.91596000000004,69.86666666666667,500.91912,75.84,500.04864000000003C81.81333333333333,499.17816000000005,87.78666666666666,498.47616000000005,93.75999999999999,497.68992000000003C99.73333333333333,496.90368,105.70666666666666,496.14552000000003,111.68,495.3312C117.65333333333335,494.51688,123.62666666666668,493.7868,129.60000000000002,492.80400000000003C135.57333333333335,491.82120000000003,141.54666666666665,490.69800000000004,147.51999999999998,489.43440000000004C153.4933333333333,488.17080000000004,159.46666666666667,487.87128,165.44,485.2224C171.41333333333333,482.57352,177.38666666666668,477.06048000000004,183.36,473.54112000000003C189.33333333333334,470.02176000000003,195.30666666666667,466.5492,201.28,464.10624C207.25333333333333,461.66328,213.2266666666667,460.79280000000006,219.20000000000002,458.88336000000004C225.17333333333335,456.97392,231.14666666666668,455.02704000000006,237.12,452.6496C243.09333333333333,450.27216,249.06666666666666,446.6592,255.04,444.61872C261.0133333333333,442.57824,266.9866666666667,441.91368,272.96000000000004,440.40672C278.93333333333334,438.89976,284.9066666666667,437.33664000000005,290.88,435.57696000000004C296.85333333333335,433.81728000000004,302.82666666666665,431.9827200000001,308.8,429.84864000000005C314.77333333333337,427.71456,320.74666666666667,426.88151999999997,326.72,422.77248C332.6933333333334,418.66344,338.6666666666667,409.79015999999996,344.64000000000004,405.1944C350.61333333333334,400.59864,356.5866666666667,397.65024,362.56,395.19792C368.53333333333336,392.7456,374.50666666666666,392.59584,380.48,390.48048C386.4533333333334,388.36512,392.4266666666667,385.33248000000003,398.40000000000003,382.50576C404.37333333333333,379.67904000000004,410.3466666666667,376.19712000000004,416.32,373.52016000000003C422.29333333333335,370.8432,428.26666666666665,368.62488,434.24,366.444C440.21333333333337,364.26312,446.18666666666667,362.47161600000004,452.16,360.43488C458.1333333333333,358.398144,464.1066666666667,356.331456,470.08,354.223584C476.05333333333334,352.11571200000003,482.02666666666664,349.9704,488,347.787648C493.97333333333336,345.604896,499.94666666666666,343.482048,505.92,341.127072C511.8933333333334,338.772096,517.8666666666667,336.383424,523.84,333.657792C529.8133333333334,330.93215999999995,535.7866666666666,326.00161152,541.76,324.77328C547.7333333333333,323.54494848,553.7066666666666,324.15911424,559.68,322.93078272C565.6533333333333,321.70245120000004,571.6266666666667,315.53103816000004,577.6,311.69900736C583.5733333333334,307.86697656,589.5466666666666,303.95096784,595.52,299.93859792C601.4933333333333,295.926228,607.4666666666667,291.82597704,613.44,287.62478784C619.4133333333334,283.42359864,625.3866666666667,279.13036320000003,631.36,274.73146272C637.3333333333334,270.33256224,643.3066666666667,265.8373005600001,649.2800000000001,261.23138496C655.2533333333333,256.62546936,661.2266666666667,251.91863424,667.1999999999999,247.09596912C673.1733333333333,242.27330399999997,679.1466666666666,237.34501128000002,685.12,232.29539424C691.0933333333334,227.24577720000002,697.0666666666666,222.08552495999996,703.04,216.79826687999997C709.0133333333333,211.51100879999996,714.9866666666667,206.10792072000004,720.96,200.57184576000003C726.9333333333334,195.03577080000005,732.9066666666666,189.37842768000002,738.88,183.58181712000004C744.8533333333334,177.78520656,750.8266666666667,171.86158080000004,756.8000000000001,165.7921824C762.7733333333333,159.72278400000002,768.7466666666667,153.52044551999992,774.7199999999999,147.16542671999997C780.6933333333333,140.81040791999993,786.6666666666666,134.31615912000007,792.64,127.66206960000005C798.6133333333333,121.00798008000008,804.5866666666666,114.20811791999999,810.56,107.2408896C816.5333333333333,100.27366127999997,822.5066666666667,93.15380880000001,828.48,85.85869967999997C834.4533333333334,78.56359056,840.4266666666666,71.10865943999994,846.4,63.470234879999964C852.3733333333333,55.831810319999946,858.3466666666667,48.02603832000003,864.32,40.028152320000004C870.2933333333334,32.030266320000024,876.2666666666667,23.756592599999983,882.24,15.482918879999943"/><text class="label" font-size="11" alignment-baseline="middle" opacity="1" x="5" fill="rgb(17, 165, 121)" transform="translate(897.239990234375, 35.48291778564453)"/></g><g class="series"><clipPath id="clip-0-1"><rect width="936" y="-20" height="599.6"/></clipPath><path class="line" opacity="1" fill="none" stroke="rgb(128, 35, 146)" stroke-width="2" transform="translate(15,20)" clip-path="url(#clip-0-1)" d="M57.92,502.73870400000004C63.89333333333334,501.56449200000003,69.86666666666667,500.39028,75.84,499.127616C81.81333333333333,497.864952,87.78666666666666,496.357992,93.75999999999999,495.16272000000004C99.73333333333333,493.96744800000005,105.70666666666666,493.0492320000001,111.68,491.95598400000006C117.65333333333335,490.86273600000004,123.62666666666668,489.83220000000006,129.60000000000002,488.60323200000005C135.57333333333335,487.37426400000004,141.54666666666665,485.93376,147.51999999999998,484.582176C153.4933333333333,483.230592,159.46666666666667,481.950144,165.44,480.49372800000003C171.41333333333333,479.03731200000004,177.38666666666668,477.312264,183.36,475.84368C189.33333333333334,474.375096,195.30666666666667,473.107752,201.28,471.682224C207.25333333333333,470.25669600000003,213.2266666666667,468.876096,219.20000000000002,467.29051200000004C225.17333333333335,465.70492800000005,231.14666666666668,464.049144,237.12,462.16872C243.09333333333333,460.288296,249.06666666666666,458.328312,255.04,456.007968C261.0133333333333,453.687624,266.9866666666667,450.821592,272.96000000000004,448.24665600000003C278.93333333333334,445.67172000000005,284.9066666666667,443.10614400000003,290.88,440.558352C296.85333333333335,438.01056,302.82666666666665,435.52735200000006,308.8,432.95990400000005C314.77333333333337,430.39245600000004,320.74666666666667,427.96353600000003,326.72,425.15366400000005C332.6933333333334,422.34379200000006,338.6666666666667,419.02848000000006,344.64000000000004,416.10067200000003C350.61333333333334,413.172864,356.5866666666667,410.157072,362.56,407.586816C368.53333333333336,405.01655999999997,374.50666666666666,403.28308799999996,380.48,400.67913599999997C386.4533333333334,398.075184,392.4266666666667,394.72992000000005,398.40000000000003,391.96310400000004C404.37333333333333,389.19628800000004,410.3466666666667,386.6419440000001,416.32,384.07824000000005C422.29333333333335,381.514536,428.26666666666665,378.889056,434.24,376.58088C440.21333333333337,374.272704,446.18666666666667,372.231288,452.16,370.22918400000003C458.1333333333333,368.22708000000006,464.1066666666667,364.785408,470.08,364.568256C476.05333333333334,364.351104,482.02666666666664,364.45968,488,364.242528C493.97333333333336,364.025376,499.94666666666666,358.67052,505.92,356.53176C511.8933333333334,354.39300000000003,517.8666666666667,352.73908800000004,523.84,351.40996800000005C529.8133333333334,350.08084800000006,535.7866666666666,350.02511856,541.76,348.55704000000003C547.7333333333333,347.08896144000005,553.7066666666666,345.12367968,559.68,342.60149664000005C565.6533333333333,340.07931360000003,571.6266666666667,336.54723336000006,577.6,333.42394176000005C583.5733333333334,330.3006501600001,589.5466666666666,327.11593824000005,595.52,323.86174704000007C601.4933333333333,320.60755584000003,607.4666666666667,317.2893516000001,613.44,313.89879456000006C619.4133333333334,310.5082375200001,625.3866666666667,307.05104664000004,631.36,303.51840480000004C637.3333333333334,299.98576296000005,643.3066666666667,296.38364184000005,649.2800000000001,292.70294352C655.2533333333333,289.02224520000004,661.2266666666667,285.26915664,667.1999999999999,281.43421488C673.1733333333333,277.59927311999996,679.1466666666666,273.68893656,685.12,269.69329296C691.0933333333334,265.69764936,697.0666666666666,261.62344728,703.04,257.46035328C709.0133333333333,253.29725928,714.9866666666667,249.05228400000001,720.96,244.71472896C726.9333333333334,240.37717392000002,732.9066666666666,235.95434928000003,738.88,231.43502304000003C744.8533333333334,226.91569680000003,750.8266666666667,222.30749736000004,756.8000000000001,217.59877152C762.7733333333333,212.89004568000004,768.7466666666667,208.08872135999994,774.7199999999999,203.18266799999998C780.6933333333333,198.27661463999996,786.6666666666666,193.27410648000006,792.64,188.16245136000003C798.6133333333333,183.05079624000007,804.5866666666666,177.83860536,810.56,172.51273728C816.5333333333333,167.1868692,822.5066666666667,161.75630016,828.48,156.20724287999997C834.4533333333334,150.6581856,840.4266666666666,145.00000007999998,846.4,139.2183936C852.3733333333333,133.43678712,858.3466666666667,127.54149408000002,864.32,121.517604C870.2933333333334,115.49371392000003,876.2666666666667,109.28438352000005,882.24,103.07505312000006"/><text class="label" font-size="11" alignment-baseline="middle" opacity="1" x="5" fill="rgb(128, 35, 146)" transform="translate(897.239990234375, 123.0750503540039)"/></g></g><g id="data-points"><g class="series" transform="translate(15,20)"><path class="data-point" fill="rgb(17, 165, 121)" data-type="point" transform="translate(0, 0)" d="M54.92,502.9128A3,3,0,1,1,60.92,502.9128A3,3,0,1,1,54.92,502.9128Z" id="point-0-0" opacity="1"/><path class="data-point" fill="rgb(17, 165, 121)" data-type="point" transform="translate(0, 0)" d="M72.84,500.04864000000003A3,3,0,1,1,78.84,500.04864000000003A3,3,0,1,1,72.84,500.04864000000003Z" id="point-0-1" opacity="1"/><path class="data-point" fill="rgb(17, 165, 121)" data-type="point" transform="translate(0, 0)" d="M90.75999999999999,497.68992000000003A3,3,0,1,1,96.75999999999999,497.68992000000003A3,3,0,1,1,90.75999999999999,497.68992000000003Z" id="point-0-2" opacity="1"/><path class="data-point" fill="rgb(17, 165, 121)" data-type="point" transform="translate(0, 0)" d="M108.68,495.3312A3,3,0,1,1,114.68,495.3312A3,3,0,1,1,108.68,495.3312Z" id="point-0-3" opacity="1"/><path class="data-point" fill="rgb(17, 165, 121)" data-type="point" transform="translate(0, 0)" d="M126.60000000000002,492.80400000000003A3,3,0,1,1,132.60000000000002,492.80400000000003A3,3,0,1,1,126.60000000000002,492.80400000000003Z" id="point-0-4" opacity="1"/><path class="data-point" fill="rgb(17, 165, 121)" data-type="point" transform="translate(0, 0)" d="M144.51999999999998,489.43440000000004A3,3,0,1,1,150.51999999999998,489.43440000000004A3,3,0,1,1,144.51999999999998,489.43440000000004Z" id="point-0-5" opacity="1"/><path class="data-point" fill="rgb(17, 165, 121)" data-type="point" transform="translate(0, 0)" d="M162.44,485.2224A3,3,0,1,1,168.44,485.2224A3,3,0,1,1,162.44,485.2224Z" id="point-0-6" opacity="1"/><path class="data-point" fill="rgb(17, 165, 121)" data-type="point" transform="translate(0, 0)" d="M180.36,473.54112000000003A3,3,0,1,1,186.36,473.54112000000003A3,3,0,1,1,180.36,473.54112000000003Z" id="point-0-7" opacity="1"/><path class="data-point" fill="rgb(17, 165, 121)" data-type="point" transform="translate(0, 0)" d="M198.28,464.10624A3,3,0,1,1,204.28,464.10624A3,3,0,1,1,198.28,464.10624Z" id="point-0-8" opacity="1"/><path class="data-point" fill="rgb(17, 165, 121)" data-type="point" transform="translate(0, 0)" d="M216.20000000000002,458.88336000000004A3,3,0,1,1,222.20000000000002,458.88336000000004A3,3,0,1,1,216.20000000000002,458.88336000000004Z" id="point-0-9" opacity="1"/><path class="data-point" fill="rgb(17, 165, 121)" data-type="point" transform="translate(0, 0)" d="M234.12,452.6496A3,3,0,1,1,240.12,452.6496A3,3,0,1,1,234.12,452.6496Z" id="point-0-10" opacity="1"/><path class="data-point" fill="rgb(17, 165, 121)" data-type="point" transform="translate(0, 0)" d="M252.04,444.61872A3,3,0,1,1,258.03999999999996,444.61872A3,3,0,1,1,252.04,444.61872Z" id="point-0-11" opacity="1"/><path class="data-point" fill="rgb(17, 165, 121)" data-type="point" transform="translate(0, 0)" d="M269.96000000000004,440.40672A3,3,0,1,1,275.96000000000004,440.40672A3,3,0,1,1,269.96000000000004,440.40672Z" id="point-0-12" opacity="1"/><path class="data-point" fill="rgb(17, 165, 121)" data-type="point" transform="translate(0, 0)" d="M287.88,435.57696000000004A3,3,0,1,1,293.88,435.57696000000004A3,3,0,1,1,287.88,435.57696000000004Z" id="point-0-13" opacity="1"/><path class="data-point" fill="rgb(17, 165, 121)" data-type="point" transform="translate(0, 0)" d="M305.8,429.84864000000005A3,3,0,1,1,311.8,429.84864000000005A3,3,0,1,1,305.8,429.84864000000005Z" id="point-0-14" opacity="1"/><path class="data-point" fill="rgb(17, 165, 121)" data-type="point" transform="translate(0, 0)" d="M323.72,422.77248A3,3,0,1,1,329.72,422.77248A3,3,0,1,1,323.72,422.77248Z" id="point-0-15" opacity="1"/><path class="data-point" fill="rgb(17, 165, 121)" data-type="point" transform="translate(0, 0)" d="M341.64000000000004,405.1944A3,3,0,1,1,347.64000000000004,405.1944A3,3,0,1,1,341.64000000000004,405.1944Z" id="point-0-16" opacity="1"/><path class="data-point" fill="rgb(17, 165, 121)" data-type="point" transform="translate(0, 0)" d="M359.56,395.19792A3,3,0,1,1,365.56,395.19792A3,3,0,1,1,359.56,395.19792Z" id="point-0-17" opacity="1"/><path class="data-point" fill="rgb(17, 165, 121)" data-type="point" transform="translate(0, 0)" d="M377.48,390.48048A3,3,0,1,1,383.48,390.48048A3,3,0,1,1,377.48,390.48048Z" id="point-0-18" opacity="1"/><path class="data-point" fill="rgb(17, 165, 121)" data-type="point" transform="translate(0, 0)" d="M395.40000000000003,382.50576A3,3,0,1,1,401.40000000000003,382.50576A3,3,0,1,1,395.40000000000003,382.50576Z" id="point-0-19" opacity="1"/><path class="data-point" fill="rgb(17, 165, 121)" data-type="point" transform="translate(0, 0)" d="M413.32,373.52016000000003A3,3,0,1,1,419.32,373.52016000000003A3,3,0,1,1,413.32,373.52016000000003Z" id="point-0-20" opacity="1"/><path class="data-point" fill="rgb(17, 165, 121)" data-type="point" transform="translate(0, 0)" d="M431.24,366.444A3,3,0,1,1,437.24,366.444A3,3,0,1,1,431.24,366.444Z" id="point-0-21" opacity="1"/><path class="data-point" fill="rgb(17, 165, 121)" data-type="point" transform="translate(0, 0)" d="M449.16,360.43488A3,3,0,1,1,455.16,360.43488A3,3,0,1,1,449.16,360.43488Z" id="point-0-22" opacity="1"/><path class="data-point" fill="rgb(17, 165, 121)" data-type="point" transform="translate(0, 0)" d="M467.08,354.223584A3,3,0,1,1,473.08,354.223584A3,3,0,1,1,467.08,354.223584Z" id="point-0-23" opacity="1"/><path class="data-point" fill="rgb(17, 165, 121)" data-type="point" transform="translate(0, 0)" d="M485,347.787648A3,3,0,1,1,491,347.787648A3,3,0,1,1,485,347.787648Z" id="point-0-24" opacity="1"/><path class="data-point" fill="rgb(17, 165, 121)" data-type="point" transform="translate(0, 0)" d="M502.92,341.127072A3,3,0,1,1,508.92,341.127072A3,3,0,1,1,502.92,341.127072Z" id="point-0-25" opacity="1"/><path class="data-point" fill="rgb(17, 165, 121)" data-type="point" transform="translate(0, 0)" d="M520.84,333.657792A3,3,0,1,1,526.84,333.657792A3,3,0,1,1,520.84,333.657792Z" id="point-0-26" opacity="1"/><path class="data-point" fill="rgb(17, 165, 121)" data-type="point" transform="translate(0, 0)" d="M538.76,324.77328A3,3,0,1,1,544.76,324.77328A3,3,0,1,1,538.76,324.77328Z" id="point-0-27" opacity="1"/><path class="data-point" fill="rgb(17, 165, 121)" data-type="point" transform="translate(0, 0)" d="M556.68,322.93078272A3,3,0,1,1,562.68,322.93078272A3,3,0,1,1,556.68,322.93078272Z" id="point-0-28" opacity="1"/><path class="data-point" fill="rgb(17, 165, 121)" data-type="point" transform="translate(0, 0)" d="M574.6,311.69900736A3,3,0,1,1,580.6,311.69900736A3,3,0,1,1,574.6,311.69900736Z" id="point-0-29" opacity="1"/><path class="data-point" fill="rgb(17, 165, 121)" data-type="point" transform="translate(0, 0)" d="M592.52,299.93859792A3,3,0,1,1,598.52,299.93859792A3,3,0,1,1,592.52,299.93859792Z" id="point-0-30" opacity="1"/><path class="data-point" fill="rgb(17, 165, 121)" data-type="point" transform="translate(0, 0)" d="M610.44,287.62478784A3,3,0,1,1,616.44,287.62478784A3,3,0,1,1,610.44,287.62478784Z" id="point-0-31" opacity="1"/><path class="data-point" fill="rgb(17, 165, 121)" data-type="point" transform="translate(0, 0)" d="M628.36,274.73146272A3,3,0,1,1,634.36,274.73146272A3,3,0,1,1,628.36,274.73146272Z" id="point-0-32" opacity="1"/><path class="data-point" fill="rgb(17, 165, 121)" data-type="point" transform="translate(0, 0)" d="M646.2800000000001,261.23138496A3,3,0,1,1,652.2800000000001,261.23138496A3,3,0,1,1,646.2800000000001,261.23138496Z" id="point-0-33" opacity="1"/><path class="data-point" fill="rgb(17, 165, 121)" data-type="point" transform="translate(0, 0)" d="M664.1999999999999,247.09596912A3,3,0,1,1,670.1999999999999,247.09596912A3,3,0,1,1,664.1999999999999,247.09596912Z" id="point-0-34" opacity="1"/><path class="data-point" fill="rgb(17, 165, 121)" data-type="point" transform="translate(0, 0)" d="M682.12,232.29539424A3,3,0,1,1,688.12,232.29539424A3,3,0,1,1,682.12,232.29539424Z" id="point-0-35" opacity="1"/><path class="data-point" fill="rgb(17, 165, 121)" data-type="point" transform="translate(0, 0)" d="M700.04,216.79826687999997A3,3,0,1,1,706.04,216.79826687999997A3,3,0,1,1,700.04,216.79826687999997Z" id="point-0-36" opacity="1"/><path class="data-point" fill="rgb(17, 165, 121)" data-type="point" transform="translate(0, 0)" d="M717.96,200.57184576000003A3,3,0,1,1,723.96,200.57184576000003A3,3,0,1,1,717.96,200.57184576000003Z" id="point-0-37" opacity="1"/><path class="data-point" fill="rgb(17, 165, 121)" data-type="point" transform="translate(0, 0)" d="M735.88,183.58181712000004A3,3,0,1,1,741.88,183.58181712000004A3,3,0,1,1,735.88,183.58181712000004Z" id="point-0-38" opacity="1"/><path class="data-point" fill="rgb(17, 165, 121)" data-type="point" transform="translate(0, 0)" d="M753.8000000000001,165.7921824A3,3,0,1,1,759.8000000000001,165.7921824A3,3,0,1,1,753.8000000000001,165.7921824Z" id="point-0-39" opacity="1"/><path class="data-point" fill="rgb(17, 165, 121)" data-type="point" transform="translate(0, 0)" d="M771.7199999999999,147.16542671999997A3,3,0,1,1,777.7199999999999,147.16542671999997A3,3,0,1,1,771.7199999999999,147.16542671999997Z" id="point-0-40" opacity="1"/><path class="data-point" fill="rgb(17, 165, 121)" data-type="point" transform="translate(0, 0)" d="M789.64,127.66206960000005A3,3,0,1,1,795.64,127.66206960000005A3,3,0,1,1,789.64,127.66206960000005Z" id="point-0-41" opacity="1"/><path class="data-point" fill="rgb(17, 165, 121)" data-type="point" transform="translate(0, 0)" d="M807.56,107.2408896A3,3,0,1,1,813.56,107.2408896A3,3,0,1,1,807.56,107.2408896Z" id="point-0-42" opacity="1"/><path class="data-point" fill="rgb(17, 165, 121)" data-type="point" transform="translate(0, 0)" d="M825.48,85.85869967999997A3,3,0,1,1,831.48,85.85869967999997A3,3,0,1,1,825.48,85.85869967999997Z" id="point-0-43" opacity="1"/><path class="data-point" fill="rgb(17, 165, 121)" data-type="point" transform="translate(0, 0)" d="M843.4,63.470234879999964A3,3,0,1,1,849.4,63.470234879999964A3,3,0,1,1,843.4,63.470234879999964Z" id="point-0-44" opacity="1"/><path class="data-point" fill="rgb(17, 165, 121)" data-type="point" transform="translate(0, 0)" d="M861.32,40.028152320000004A3,3,0,1,1,867.32,40.028152320000004A3,3,0,1,1,861.32,40.028152320000004Z" id="point-0-45" opacity="1"/><path class="data-point" fill="rgb(17, 165, 121)" data-type="point" transform="translate(0, 0)" d="M879.24,15.482918879999943A3,3,0,1,1,885.24,15.482918879999943A3,3,0,1,1,879.24,15.482918879999943Z" id="point-0-46" opacity="1"/></g><g class="series" transform="translate(15,20)"><path class="data-point" fill="rgb(128, 35, 146)" data-type="point" transform="translate(0, 0)" d="M54.92,502.73870400000004A3,3,0,1,1,60.92,502.73870400000004A3,3,0,1,1,54.92,502.73870400000004Z" id="point-1-0" opacity="1"/><path class="data-point" fill="rgb(128, 35, 146)" data-type="point" transform="translate(0, 0)" d="M72.84,499.127616A3,3,0,1,1,78.84,499.127616A3,3,0,1,1,72.84,499.127616Z" id="point-1-1" opacity="1"/><path class="data-point" fill="rgb(128, 35, 146)" data-type="point" transform="translate(0, 0)" d="M90.75999999999999,495.16272000000004A3,3,0,1,1,96.75999999999999,495.16272000000004A3,3,0,1,1,90.75999999999999,495.16272000000004Z" id="point-1-2" opacity="1"/><path class="data-point" fill="rgb(128, 35, 146)" data-type="point" transform="translate(0, 0)" d="M108.68,491.95598400000006A3,3,0,1,1,114.68,491.95598400000006A3,3,0,1,1,108.68,491.95598400000006Z" id="point-1-3" opacity="1"/><path class="data-point" fill="rgb(128, 35, 146)" data-type="point" transform="translate(0, 0)" d="M126.60000000000002,488.60323200000005A3,3,0,1,1,132.60000000000002,488.60323200000005A3,3,0,1,1,126.60000000000002,488.60323200000005Z" id="point-1-4" opacity="1"/><path class="data-point" fill="rgb(128, 35, 146)" data-type="point" transform="translate(0, 0)" d="M144.51999999999998,484.582176A3,3,0,1,1,150.51999999999998,484.582176A3,3,0,1,1,144.51999999999998,484.582176Z" id="point-1-5" opacity="1"/><path class="data-point" fill="rgb(128, 35, 146)" data-type="point" transform="translate(0, 0)" d="M162.44,480.49372800000003A3,3,0,1,1,168.44,480.49372800000003A3,3,0,1,1,162.44,480.49372800000003Z" id="point-1-6" opacity="1"/><path class="data-point" fill="rgb(128, 35, 146)" data-type="point" transform="translate(0, 0)" d="M180.36,475.84368A3,3,0,1,1,186.36,475.84368A3,3,0,1,1,180.36,475.84368Z" id="point-1-7" opacity="1"/><path class="data-point" fill="rgb(128, 35, 146)" data-type="point" transform="translate(0, 0)" d="M198.28,471.682224A3,3,0,1,1,204.28,471.682224A3,3,0,1,1,198.28,471.682224Z" id="point-1-8" opacity="1"/><path class="data-point" fill="rgb(128, 35, 146)" data-type="point" transform="translate(0, 0)" d="M216.20000000000002,467.29051200000004A3,3,0,1,1,222.20000000000002,467.29051200000004A3,3,0,1,1,216.20000000000002,467.29051200000004Z" id="point-1-9" opacity="1"/><path class="data-point" fill="rgb(128, 35, 146)" data-type="point" transform="translate(0, 0)" d="M234.12,462.16872A3,3,0,1,1,240.12,462.16872A3,3,0,1,1,234.12,462.16872Z" id="point-1-10" opacity="1"/><path class="data-point" fill="rgb(128, 35, 146)" data-type="point" transform="translate(0, 0)" d="M252.04,456.007968A3,3,0,1,1,258.03999999999996,456.007968A3,3,0,1,1,252.04,456.007968Z" id="point-1-11" opacity="1"/><path class="data-point" fill="rgb(128, 35, 146)" data-type="point" transform="translate(0, 0)" d="M269.96000000000004,448.24665600000003A3,3,0,1,1,275.96000000000004,448.24665600000003A3,3,0,1,1,269.96000000000004,448.24665600000003Z" id="point-1-12" opacity="1"/><path class="data-point" fill="rgb(128, 35, 146)" data-type="point" transform="translate(0, 0)" d="M287.88,440.558352A3,3,0,1,1,293.88,440.558352A3,3,0,1,1,287.88,440.558352Z" id="point-1-13" opacity="1"/><path class="data-point" fill="rgb(128, 35, 146)" data-type="point" transform="translate(0, 0)" d="M305.8,432.95990400000005A3,3,0,1,1,311.8,432.95990400000005A3,3,0,1,1,305.8,432.95990400000005Z" id="point-1-14" opacity="1"/><path class="data-point" fill="rgb(128, 35, 146)" data-type="point" transform="translate(0, 0)" d="M323.72,425.15366400000005A3,3,0,1,1,329.72,425.15366400000005A3,3,0,1,1,323.72,425.15366400000005Z" id="point-1-15" opacity="1"/><path class="data-point" fill="rgb(128, 35, 146)" data-type="point" transform="translate(0, 0)" d="M341.64000000000004,416.10067200000003A3,3,0,1,1,347.64000000000004,416.10067200000003A3,3,0,1,1,341.64000000000004,416.10067200000003Z" id="point-1-16" opacity="1"/><path class="data-point" fill="rgb(128, 35, 146)" data-type="point" transform="translate(0, 0)" d="M359.56,407.586816A3,3,0,1,1,365.56,407.586816A3,3,0,1,1,359.56,407.586816Z" id="point-1-17" opacity="1"/><path class="data-point" fill="rgb(128, 35, 146)" data-type="point" transform="translate(0, 0)" d="M377.48,400.67913599999997A3,3,0,1,1,383.48,400.67913599999997A3,3,0,1,1,377.48,400.67913599999997Z" id="point-1-18" opacity="1"/><path class="data-point" fill="rgb(128, 35, 146)" data-type="point" transform="translate(0, 0)" d="M395.40000000000003,391.96310400000004A3,3,0,1,1,401.40000000000003,391.96310400000004A3,3,0,1,1,395.40000000000003,391.96310400000004Z" id="point-1-19" opacity="1"/><path class="data-point" fill="rgb(128, 35, 146)" data-type="point" transform="translate(0, 0)" d="M413.32,384.07824000000005A3,3,0,1,1,419.32,384.07824000000005A3,3,0,1,1,413.32,384.07824000000005Z" id="point-1-20" opacity="1"/><path class="data-point" fill="rgb(128, 35, 146)" data-type="point" transform="translate(0, 0)" d="M431.24,376.58088A3,3,0,1,1,437.24,376.58088A3,3,0,1,1,431.24,376.58088Z" id="point-1-21" opacity="1"/><path class="data-point" fill="rgb(128, 35, 146)" data-type="point" transform="translate(0, 0)" d="M449.16,370.22918400000003A3,3,0,1,1,455.16,370.22918400000003A3,3,0,1,1,449.16,370.22918400000003Z" id="point-1-22" opacity="1"/><path class="data-point" fill="rgb(128, 35, 146)" data-type="point" transform="translate(0, 0)" d="M467.08,364.568256A3,3,0,1,1,473.08,364.568256A3,3,0,1,1,467.08,364.568256Z" id="point-1-23" opacity="1"/><path class="data-point" fill="rgb(128, 35, 146)" data-type="point" transform="translate(0, 0)" d="M485,364.242528A3,3,0,1,1,491,364.242528A3,3,0,1,1,485,364.242528Z" id="point-1-24" opacity="1"/><path class="data-point" fill="rgb(128, 35, 146)" data-type="point" transform="translate(0, 0)" d="M502.92,356.53176A3,3,0,1,1,508.92,356.53176A3,3,0,1,1,502.92,356.53176Z" id="point-1-25" opacity="1"/><path class="data-point" fill="rgb(128, 35, 146)" data-type="point" transform="translate(0, 0)" d="M520.84,351.40996800000005A3,3,0,1,1,526.84,351.40996800000005A3,3,0,1,1,520.84,351.40996800000005Z" id="point-1-26" opacity="1"/><path class="data-point" fill="rgb(128, 35, 146)" data-type="point" transform="translate(0, 0)" d="M538.76,348.55704000000003A3,3,0,1,1,544.76,348.55704000000003A3,3,0,1,1,538.76,348.55704000000003Z" id="point-1-27" opacity="1"/><path class="data-point" fill="rgb(128, 35, 146)" data-type="point" transform="translate(0, 0)" d="M556.68,342.60149664000005A3,3,0,1,1,562.68,342.60149664000005A3,3,0,1,1,556.68,342.60149664000005Z" id="point-1-28" opacity="1"/><path class="data-point" fill="rgb(128, 35, 146)" data-type="point" transform="translate(0, 0)" d="M574.6,333.42394176000005A3,3,0,1,1,580.6,333.42394176000005A3,3,0,1,1,574.6,333.42394176000005Z" id="point-1-29" opacity="1"/><path class="data-point" fill="rgb(128, 35, 146)" data-type="point" transform="translate(0, 0)" d="M592.52,323.86174704000007A3,3,0,1,1,598.52,323.86174704000007A3,3,0,1,1,592.52,323.86174704000007Z" id="point-1-30" opacity="1"/><path class="data-point" fill="rgb(128, 35, 146)" data-type="point" transform="translate(0, 0)" d="M610.44,313.89879456000006A3,3,0,1,1,616.44,313.89879456000006A3,3,0,1,1,610.44,313.89879456000006Z" id="point-1-31" opacity="1"/><path class="data-point" fill="rgb(128, 35, 146)" data-type="point" transform="translate(0, 0)" d="M628.36,303.51840480000004A3,3,0,1,1,634.36,303.51840480000004A3,3,0,1,1,628.36,303.51840480000004Z" id="point-1-32" opacity="1"/><path class="data-point" fill="rgb(128, 35, 146)" data-type="point" transform="translate(0, 0)" d="M646.2800000000001,292.70294352A3,3,0,1,1,652.2800000000001,292.70294352A3,3,0,1,1,646.2800000000001,292.70294352Z" id="point-1-33" opacity="1"/><path class="data-point" fill="rgb(128, 35, 146)" data-type="point" transform="translate(0, 0)" d="M664.1999999999999,281.43421488A3,3,0,1,1,670.1999999999999,281.43421488A3,3,0,1,1,664.1999999999999,281.43421488Z" id="point-1-34" opacity="1"/><path class="data-point" fill="rgb(128, 35, 146)" data-type="point" transform="translate(0, 0)" d="M682.12,269.69329296A3,3,0,1,1,688.12,269.69329296A3,3,0,1,1,682.12,269.69329296Z" id="point-1-35" opacity="1"/><path class="data-point" fill="rgb(128, 35, 146)" data-type="point" transform="translate(0, 0)" d="M700.04,257.46035328A3,3,0,1,1,706.04,257.46035328A3,3,0,1,1,700.04,257.46035328Z" id="point-1-36" opacity="1"/><path class="data-point" fill="rgb(128, 35, 146)" data-type="point" transform="translate(0, 0)" d="M717.96,244.71472896A3,3,0,1,1,723.96,244.71472896A3,3,0,1,1,717.96,244.71472896Z" id="point-1-37" opacity="1"/><path class="data-point" fill="rgb(128, 35, 146)" data-type="point" transform="translate(0, 0)" d="M735.88,231.43502304000003A3,3,0,1,1,741.88,231.43502304000003A3,3,0,1,1,735.88,231.43502304000003Z" id="point-1-38" opacity="1"/><path class="data-point" fill="rgb(128, 35, 146)" data-type="point" transform="translate(0, 0)" d="M753.8000000000001,217.59877152A3,3,0,1,1,759.8000000000001,217.59877152A3,3,0,1,1,753.8000000000001,217.59877152Z" id="point-1-39" opacity="1"/><path class="data-point" fill="rgb(128, 35, 146)" data-type="point" transform="translate(0, 0)" d="M771.7199999999999,203.18266799999998A3,3,0,1,1,777.7199999999999,203.18266799999998A3,3,0,1,1,771.7199999999999,203.18266799999998Z" id="point-1-40" opacity="1"/><path class="data-point" fill="rgb(128, 35, 146)" data-type="point" transform="translate(0, 0)" d="M789.64,188.16245136000003A3,3,0,1,1,795.64,188.16245136000003A3,3,0,1,1,789.64,188.16245136000003Z" id="point-1-41" opacity="1"/><path class="data-point" fill="rgb(128, 35, 146)" data-type="point" transform="translate(0, 0)" d="M807.56,172.51273728A3,3,0,1,1,813.56,172.51273728A3,3,0,1,1,807.56,172.51273728Z" id="point-1-42" opacity="1"/><path class="data-point" fill="rgb(128, 35, 146)" data-type="point" transform="translate(0, 0)" d="M825.48,156.20724287999997A3,3,0,1,1,831.48,156.20724287999997A3,3,0,1,1,825.48,156.20724287999997Z" id="point-1-43" opacity="1"/><path class="data-point" fill="rgb(128, 35, 146)" data-type="point" transform="translate(0, 0)" d="M843.4,139.2183936A3,3,0,1,1,849.4,139.2183936A3,3,0,1,1,843.4,139.2183936Z" id="point-1-44" opacity="1"/><path class="data-point" fill="rgb(128, 35, 146)" data-type="point" transform="translate(0, 0)" d="M861.32,121.517604A3,3,0,1,1,867.32,121.517604A3,3,0,1,1,861.32,121.517604Z" id="point-1-45" opacity="1"/><path class="data-point" fill="rgb(128, 35, 146)" data-type="point" transform="translate(0, 0)" d="M879.24,103.07505312000006A3,3,0,1,1,885.24,103.07505312000006A3,3,0,1,1,879.24,103.07505312000006Z" id="point-1-46" opacity="1"/></g></g><g id="data-labels"/><g class="annotations above"><g class="axis-highlights" transform="translate(15, 20)" style="opacity: 1;"/></g></svg>