<svg xmlns="http://www.w3.org/2000/svg" id="graphic" width="883" height="598.18"><g id="facets"><g class="facet" transform="translate(50,10)" opacity="1"><text class="facet-title" y="0" font-size="16" font-weight="bold" dominant-baseline="middle" x="0" clip-path="url(#facet-clip-0)" fill="black"/><g class="plot"><clipPath class="facet-clip" id="facet-clip-0"><rect width="838" height="563.18" transform="translate(-7.5,-10)"/></clipPath><g class="bg"><rect fill="none" width="823" height="543.18" style="fill: none;"/></g><g class="interaction"><g class="series"><path data-target="point-0-0" d="M34.4762106177,543.18L24.9089441628,486.33349699999997L0,486.33349699999997L0,543.18Z" style="opacity: 0;"/><path data-target="point-0-1" d="M24.413958665573997,483.2020645L24.9089441628,486.33349699999997L34.4762106177,543.18L49.55930635160006,543.18L41.2463644913,483.2020645Z" style="opacity: 0;"/><path data-target="point-0-2" d="M40.98801587046201,480.143961L41.2463644913,483.2020645L49.55930635160006,543.18L66.33550229320005,543.18L57.5987072878,480.143961Z" style="opacity: 0;"/><path data-target="point-0-3" d="M57.5987072878,480.143961L66.33550229320005,543.18L83.7696331574999,543.18L74.0091000015,477.452504L57.625352712099996,477.452504Z" style="opacity: 0;"/><path data-target="point-0-4" d="M74.0091000015,477.452504L83.7696331574999,543.18L104.02747981999993,543.18L90.45041330599999,474.608957L74.15079398306099,474.608957Z" style="opacity: 0;"/><path data-target="point-0-5" d="M90.45041330599999,474.608957L104.02747981999993,543.18L124.7692998625002,543.18L106.91337090625,471.0348325L90.62497345972399,471.0348325Z" style="opacity: 0;"/><path data-target="point-0-6" d="M106.91337090625,471.0348325L124.7692998625002,543.18L163.6724876633065,543.18L155.91737383843304,523.6857282746018L124.6892943915,467.02073199999995L107.06438131828598,467.02073199999995Z" style="opacity: 0;"/><path data-target="point-0-7" d="M72.65657211928787,332.13817215167387L80.3803264109965,355.9482592291251L122.53128960154801,459.12289499999997L140.129823433313,459.12289499999997L139.4116149128,452.54770099999996Z" style="opacity: 0;"/><path data-target="point-0-8" d="M0,135.45945670561423L18.42658216821104,191.7592431515223L36.51272721020653,242.01738088834168L72.65657211928787,332.13817215167387L139.4116149128,452.54770099999996L155.972609462203,452.54770099999996L156.84260006694998,447.8980805L78.03207664412386,191.1026310935914L5.088202355700034,0L0,0Z" style="opacity: 0;"/><path data-target="point-0-9" d="M78.03207664412386,191.1026310935914L156.84260006694998,447.8980805L172.35183426195,447.8980805L173.41197798945,442.4065305L104.44238539914197,254.11935444128414Z" style="opacity: 0;"/><path data-target="point-0-10" d="M104.44238539914197,254.11935444128414L173.41197798945,442.4065305L188.702056623452,442.4065305L190.0564165652,435.543451Z" style="opacity: 0;"/><path data-target="point-0-11" d="M5.088202355700034,0L78.03207664412386,191.1026310935914L104.44238539914197,254.11935444128414L190.0564165652,435.543451L204.949855791664,435.543451L206.18423169624998,429.75315249999994L158.9498462835323,238.90715083245337L48.259385159839965,2.842170943040401e-14Z" style="opacity: 0;"/><path data-target="point-0-12" d="M158.9498462835323,238.90715083245337L206.18423169624998,429.75315249999994L222.176871932676,429.75315249999994L222.2308109121,423.6994115L182.9595618278816,285.3229171933819Z" style="opacity: 0;"/><path data-target="point-0-13" d="M182.9595618278816,285.3229171933819L222.2308109121,423.6994115L239.23508203178898,423.6994115L238.2439958423,417.2545805L207.9980458902952,327.39733168239815Z" style="opacity: 0;"/><path data-target="point-0-14" d="M207.9980458902952,327.39733168239815L238.2439958423,417.2545805L256.17147490975,417.2545805L254.1859292185,410.0574455L235.7414561215755,365.6984433428943Z" style="opacity: 0;"/><path data-target="point-0-15" d="M235.7414561215755,365.6984433428943L254.1859292185,410.0574455L273.306362970828,410.0574455L268.2573595119,397.17864799999995Z" style="opacity: 0;"/><path data-target="point-0-16" d="M48.259385159839965,2.842170943040401e-14L158.9498462835323,238.90715083245337L182.9595618278816,285.3229171933819L207.9980458902952,327.39733168239815L235.7414561215755,365.6984433428943L268.2573595119,397.17864799999995L287.471189283362,397.17864799999995L288.7296062339,388.2270414999999L60.68504205679926,0Z" style="opacity: 0;"/><path data-target="point-0-17" d="M60.68504205679926,0L288.7296062339,388.2270414999999L303.43407336085,388.2270414999999L305.2447791682,382.6051285L276.5057963227314,278.9291442089868L240.07085050349218,181.22212940813048L163.12393435680002,0Z" style="opacity: 0;"/><path data-target="point-0-18" d="M276.5057963227314,278.9291442089868L305.2447791682,382.6051285L320.602782542976,382.6051285L321.3059850285,374.5334735Z" style="opacity: 0;"/><path data-target="point-0-19" d="M240.07085050349218,181.22212940813048L276.5057963227314,278.9291442089868L321.3059850285,374.5334735L337.0776673886,374.5334735L337.83151865599996,366.37491Z" style="opacity: 0;"/><path data-target="point-0-20" d="M163.12393435680002,0L240.07085050349218,181.22212940813048L337.83151865599996,366.37491L353.237913088975,366.37491L354.50545281489997,359.32714949999996L205.0972240528005,0Z" style="opacity: 0;"/><path data-target="point-0-21" d="M205.0972240528005,0L354.50545281489997,359.32714949999996L369.666796304463,359.32714949999996L370.99635537615,353.3494535L246.22866334529976,0Z" style="opacity: 0;"/><path data-target="point-0-22" d="M246.22866334529976,0L370.99635537615,353.3494535L386.145085120976,353.3494535L387.539559458738,347.60804099999996L260.66957243088814,0Z" style="opacity: 0;"/><path data-target="point-0-23" d="M260.66957243088814,0L387.539559458738,347.60804099999996L403.177263355714,347.60804099999996L405.10234474766196,344.33809699999995L274.88055904026385,0Z" style="opacity: 0;"/><path data-target="point-0-24" d="M274.88055904026385,0L405.10234474766196,344.33809699999995L417.814038129177,344.33809699999995L421.38501137544597,337.3881095L289.3380694773009,0Z" style="opacity: 0;"/><path data-target="point-0-25" d="M289.3380694773009,0L421.38501137544597,337.3881095L434.693382229154,337.3881095L438.37256740624997,331.2990615L327.52683284040984,78.74555371727183L289.6911682335239,0Z" style="opacity: 0;"/><path data-target="point-0-26" d="M327.52683284040984,78.74555371727183L438.37256740624997,331.2990615L451.44210661679796,331.2990615L456.41158995704797,325.62283049999996Z" style="opacity: 0;"/><path data-target="point-0-27" d="M289.6911682335239,0L327.52683284040984,78.74555371727183L456.41158995704797,325.62283049999996L466.09280882267734,325.62283049999996L470.04344402300393,321.8516945L465.0611169247827,275.8325515188397L436.05224837226564,200.31352263596722L391.37609390751226,108.46935381397509L340.6081352389895,15.439644151828531L331.5281071527824,0Z" style="opacity: 0;"/><path data-target="point-0-28" d="M465.0611169247827,275.8325515188397L470.04344402300393,321.8516945L482.83342881838735,321.8516945L488.91910046050833,311.98173349999996Z" style="opacity: 0;"/><path data-target="point-0-29" d="M436.05224837226564,200.31352263596722L465.0611169247827,275.8325515188397L488.91910046050833,311.98173349999996L498.72506822943785,311.9817335L506.0946897000976,301.67011349999996Z" style="opacity: 0;"/><path data-target="point-0-30" d="M391.37609390751226,108.46935381397509L436.05224837226564,200.31352263596722L506.0946897000976,301.67011349999996L514.5376704856143,301.67011349999996L523.3749202330218,290.8970615Z" style="opacity: 0;"/><path data-target="point-0-31" d="M340.6081352389895,15.439644151828531L391.37609390751226,108.46935381397509L523.3749202330218,290.8970615L530.2617594657739,290.8970615L540.773193115407,279.6418835Z" style="opacity: 0;"/><path data-target="point-0-32" d="M331.5281071527824,0L340.6081352389895,15.439644151828531L540.773193115407,279.6418835L545.8866516145065,279.6418835L558.3043550246019,267.882878L345.7998823373614,0Z" style="opacity: 0;"/><path data-target="point-0-33" d="M345.7998823373614,0L558.3043550246019,267.882878L561.4006501400348,267.882878L575.9851078604643,255.597423L363.68418019293875,-2.842170943040401e-14Z" style="opacity: 0;"/><path data-target="point-0-34" d="M363.68418019293875,-2.842170943040401e-14L575.9851078604643,255.597423L576.7906705998025,255.597423L592.6715067230771,243.6374683607292L593.1704605814941,241.9989170420979L382.7059578282774,2.842170943040401e-14Z" style="opacity: 0;"/><path data-target="point-0-35" d="M382.7059578282774,2.842170943040401e-14L593.1704605814941,241.9989170420979L608.7302554420536,231.47637192709348L610.1825236747427,227.49629316911515L403.0194373185164,0Z" style="opacity: 0;"/><path data-target="point-0-36" d="M403.0194373185164,0L610.1825236747427,227.49629316911515L624.6611520744909,218.66996232057534L627.3452924838441,212.42825285544797L424.8001414880976,0Z" style="opacity: 0;"/><path data-target="point-0-37" d="M424.8001414880976,0L627.3452924838441,212.42825285544797L640.4525823144911,205.2007972122496L644.675084667668,196.7601292452031L448.24044640419044,0Z" style="opacity: 0;"/><path data-target="point-0-38" d="M448.24044640419044,0L644.675084667668,196.7601292452031L656.0910590794855,191.04888531173913L662.1907683701212,180.45690021166882L473.55356830207177,0Z" style="opacity: 0;"/><path data-target="point-0-39" d="M473.55356830207177,0L662.1907683701212,180.45690021166882L671.5609786914889,176.19207339429272L679.9138769717939,163.48313872817536L500.9781649752569,0Z" style="opacity: 0;"/><path data-target="point-0-40" d="M500.9781649752569,0L679.9138769717939,163.48313872817536L686.8445152085571,160.60617720538056L697.8689954554392,145.8025070329395L530.7748579689859,0Z" style="opacity: 0;"/><path data-target="point-0-41" d="M530.7748579689859,0L697.8689954554392,145.8025070329395L701.9214886807085,144.26482498107165L716.0839793947232,127.37791807370297L563.2352524435491,0Z" style="opacity: 0;"/><path data-target="point-0-42" d="M563.2352524435491,0L716.0839793947232,127.37791807370297L716.7689886862923,127.13984413461681L732.5495385991073,110.34326930852681L733.417871734001,107.23804821556965L598.6805479991274,0Z" style="opacity: 0;"/><path data-target="point-0-43" d="M598.6805479991274,0L733.417871734001,107.23804821556965L748.4012480070105,92.93644069462519L750.7125692323007,86.08229121588357L637.4660173637468,0Z" style="opacity: 0;"/><path data-target="point-0-44" d="M637.4660173637468,0L750.7125692323007,86.08229121588357L772.6231719642949,67.25232869538337L679.9849196264565,0Z" style="opacity: 0;"/><path data-target="point-0-45" d="M679.9849196264565,0L772.6231719642949,67.25232869538337L809.3648562348643,57.33468549999999L726.6713423830284,0Z" style="opacity: 0;"/><path data-target="point-0-46" d="M726.6713423830284,0L809.3648562348643,57.33468549999999L823,57.3346855L823,0Z" style="opacity: 0;"/><path data-target="point-1-0" d="M0,486.33349699999997L24.9089441628,486.33349699999997L24.413958665573997,483.2020645L0,368.1449861192349Z" style="opacity: 0;"/><path data-target="point-1-1" d="M0,368.1449861192349L24.413958665573997,483.2020645L41.2463644913,483.2020645L40.98801587046201,480.143961L0,304.21463774133576Z" style="opacity: 0;"/><path data-target="point-1-2" d="M0,304.21463774133576L40.98801587046201,480.143961L57.5987072878,480.143961L57.625352712099996,477.452504L0,171.63416829866438Z" style="opacity: 0;"/><path data-target="point-1-3" d="M0,171.63416829866438L57.625352712099996,477.452504L74.0091000015,477.452504L74.15079398306099,474.608957L18.42658216821104,191.7592431515223L0,135.45945670561423Z" style="opacity: 0;"/><path data-target="point-1-4" d="M18.42658216821104,191.7592431515223L74.15079398306099,474.608957L90.45041330599999,474.608957L90.62497345972399,471.0348325L36.51272721020653,242.01738088834168Z" style="opacity: 0;"/><path data-target="point-1-5" d="M36.51272721020653,242.01738088834168L90.62497345972399,471.0348325L106.91337090625,471.0348325L107.06438131828598,467.02073199999995L80.3803264109965,355.9482592291251L72.65657211928787,332.13817215167387Z" style="opacity: 0;"/><path data-target="point-1-6" d="M80.3803264109965,355.9482592291251L107.06438131828598,467.02073199999995L124.6892943915,467.02073199999995L122.53128960154801,459.12289499999997Z" style="opacity: 0;"/><path data-target="point-1-7" d="M122.53128960154801,459.12289499999997L124.6892943915,467.02073199999995L155.91737383843304,523.6857282746018L140.129823433313,459.12289499999997Z" style="opacity: 0;"/><path data-target="point-1-8" d="M139.4116149128,452.54770099999996L140.129823433313,459.12289499999997L155.91737383843304,523.6857282746018L163.6724876633065,543.18L179.36117723841386,543.18L155.972609462203,452.54770099999996Z" style="opacity: 0;"/><path data-target="point-1-9" d="M155.972609462203,452.54770099999996L179.36117723841386,543.18L201.02788307014794,543.18L172.35183426195,447.8980805L156.84260006694998,447.8980805Z" style="opacity: 0;"/><path data-target="point-1-10" d="M172.35183426195,447.8980805L201.02788307014794,543.18L225.18306276607706,543.18L188.702056623452,442.4065305L173.41197798945,442.4065305Z" style="opacity: 0;"/><path data-target="point-1-11" d="M188.702056623452,442.4065305L225.18306276607706,543.18L254.03857640503605,543.18L204.949855791664,435.543451L190.0564165652,435.543451Z" style="opacity: 0;"/><path data-target="point-1-12" d="M204.949855791664,435.543451L254.03857640503605,543.18L273.41971744953884,543.18L222.176871932676,429.75315249999994L206.18423169624998,429.75315249999994Z" style="opacity: 0;"/><path data-target="point-1-13" d="M222.176871932676,429.75315249999994L273.41971744953884,543.18L292.5819743464609,543.18L239.23508203178898,423.6994115L222.2308109121,423.6994115Z" style="opacity: 0;"/><path data-target="point-1-14" d="M238.2439958423,417.2545805L239.23508203178898,423.6994115L292.5819743464609,543.18L313.93346483439996,543.18L256.17147490975,417.2545805Z" style="opacity: 0;"/><path data-target="point-1-15" d="M254.1859292185,410.0574455L256.17147490975,417.2545805L313.93346483439996,543.18L344.12223221006394,543.18L273.306362970828,410.0574455Z" style="opacity: 0;"/><path data-target="point-1-16" d="M268.2573595119,397.17864799999995L273.306362970828,410.0574455L344.12223221006394,543.18L360.5127474359364,543.18L287.471189283362,397.17864799999995Z" style="opacity: 0;"/><path data-target="point-1-17" d="M287.471189283362,397.17864799999995L360.5127474359364,543.18L366.32947921599964,543.18L303.43407336085,388.2270414999999L288.7296062339,388.2270414999999Z" style="opacity: 0;"/><path data-target="point-1-18" d="M303.43407336085,388.2270414999999L366.32947921599964,543.18L402.84281263260027,543.18L320.602782542976,382.6051285L305.2447791682,382.6051285Z" style="opacity: 0;"/><path data-target="point-1-19" d="M320.602782542976,382.6051285L402.84281263260027,543.18L415.21497399741185,543.18L337.0776673886,374.5334735L321.3059850285,374.5334735Z" style="opacity: 0;"/><path data-target="point-1-20" d="M337.0776673886,374.5334735L415.21497399741185,543.18L431.12939548847504,543.18L353.237913088975,366.37491L337.83151865599996,366.37491Z" style="opacity: 0;"/><path data-target="point-1-21" d="M353.237913088975,366.37491L431.12939548847504,543.18L431.49900973535887,543.18L419.03124008193214,491.58994233655676L369.666796304463,359.32714949999996L354.50545281489997,359.32714949999996Z" style="opacity: 0;"/><path data-target="point-1-22" d="M369.666796304463,359.32714949999996L419.03124008193214,491.58994233655676L404.33372482424596,408.0291102822833L386.145085120976,353.3494535L370.99635537615,353.3494535Z" style="opacity: 0;"/><path data-target="point-1-23" d="M386.145085120976,353.3494535L404.33372482424596,408.0291102822833L403.177263355714,347.60804099999996L387.539559458738,347.60804099999996Z" style="opacity: 0;"/><path data-target="point-1-24" d="M403.177263355714,347.60804099999996L404.33372482424596,408.0291102822833L419.03124008193214,491.58994233655676L431.49900973535887,543.18L497.165882573441,543.18L474.7073032761964,470.0797822823652L474.31557196104905,469.0407760754894L417.814038129177,344.33809699999995L405.10234474766196,344.33809699999995Z" style="opacity: 0;"/><path data-target="point-1-25" d="M417.814038129177,344.33809699999995L474.31557196104905,469.0407760754894L434.693382229154,337.3881095L421.38501137544597,337.3881095Z" style="opacity: 0;"/><path data-target="point-1-26" d="M434.693382229154,337.3881095L474.31557196104905,469.0407760754894L474.7073032761964,470.0797822823652L451.44210661679796,331.2990615L438.37256740624997,331.2990615Z" style="opacity: 0;"/><path data-target="point-1-27" d="M451.44210661679796,331.2990615L474.7073032761964,470.0797822823652L497.165882573441,543.18L542.2273368089521,543.18L466.09280882267734,325.62283049999996L456.41158995704797,325.62283049999996Z" style="opacity: 0;"/><path data-target="point-1-28" d="M466.09280882267734,325.62283049999996L542.2273368089521,543.18L602.1912256333736,543.18L482.83342881838735,321.8516945L470.04344402300393,321.8516945Z" style="opacity: 0;"/><path data-target="point-1-29" d="M482.83342881838735,321.8516945L602.1912256333736,543.18L628.6309918028138,543.18L498.72506822943785,311.9817335L488.91910046050833,311.98173349999996Z" style="opacity: 0;"/><path data-target="point-1-30" d="M498.72506822943785,311.9817335L628.6309918028138,543.18L655.9247916012825,543.18L514.5376704856143,301.67011349999996L506.0946897000976,301.67011349999996Z" style="opacity: 0;"/><path data-target="point-1-31" d="M514.5376704856143,301.67011349999996L655.9247916012825,543.18L684.1439448963857,543.18L530.2617594657739,290.8970615L523.3749202330218,290.8970615Z" style="opacity: 0;"/><path data-target="point-1-32" d="M530.2617594657739,290.8970615L684.1439448963857,543.18L713.3714329137986,543.18L545.8866516145065,279.6418835L540.773193115407,279.6418835Z" style="opacity: 0;"/><path data-target="point-1-33" d="M545.8866516145065,279.6418835L713.3714329137986,543.18L743.6908973770404,543.18L561.4006501400348,267.882878L558.3043550246019,267.882878Z" style="opacity: 0;"/><path data-target="point-1-34" d="M561.4006501400348,267.882878L743.6908973770404,543.18L775.1952183138931,543.18L576.7906705998025,255.597423L575.9851078604643,255.597423Z" style="opacity: 0;"/><path data-target="point-1-35" d="M576.7906705998025,255.597423L775.1952183138931,543.18L807.9874281981156,543.18L592.6715067230771,243.6374683607292Z" style="opacity: 0;"/><path data-target="point-1-36" d="M592.6715067230771,243.6374683607292L807.9874281981156,543.18L823,543.18L823,517.5730982529846L608.7302554420536,231.47637192709348L593.1704605814941,241.9989170420979Z" style="opacity: 0;"/><path data-target="point-1-37" d="M608.7302554420536,231.47637192709348L823,517.5730982529846L823,472.84475910179003L624.6611520744909,218.66996232057534L610.1825236747427,227.49629316911515Z" style="opacity: 0;"/><path data-target="point-1-38" d="M624.6611520744909,218.66996232057534L823,472.84475910179003L823,429.72874893638925L640.4525823144911,205.2007972122496L627.3452924838441,212.42825285544797Z" style="opacity: 0;"/><path data-target="point-1-39" d="M640.4525823144911,205.2007972122496L823,429.72874893638925L823,388.0845564005884L656.0910590794855,191.04888531173913L644.675084667668,196.7601292452031Z" style="opacity: 0;"/><path data-target="point-1-40" d="M656.0910590794855,191.04888531173913L823,388.0845564005884L823,347.77527533865685L671.5609786914889,176.19207339429272L662.1907683701212,180.45690021166882Z" style="opacity: 0;"/><path data-target="point-1-41" d="M671.5609786914889,176.19207339429272L823,347.77527533865685L823,308.66758960351643L686.8445152085571,160.60617720538056L679.9138769717939,163.48313872817536Z" style="opacity: 0;"/><path data-target="point-1-42" d="M686.8445152085571,160.60617720538056L823,308.66758960351643L823,270.63548784090005L701.9214886807085,144.26482498107165L697.8689954554392,145.8025070329395Z" style="opacity: 0;"/><path data-target="point-1-43" d="M701.9214886807085,144.26482498107165L823,270.63548784090005L823,233.55426840193647L716.7689886862923,127.13984413461681L716.0839793947232,127.37791807370297Z" style="opacity: 0;"/><path data-target="point-1-44" d="M716.7689886862923,127.13984413461681L823,233.55426840193647L823,197.30562619535726L732.5495385991073,110.34326930852681Z" style="opacity: 0;"/><path data-target="point-1-45" d="M732.5495385991073,110.34326930852681L823,197.30562619535726L823,161.77372525662327L748.4012480070105,92.93644069462519L733.417871734001,107.23804821556965Z" style="opacity: 0;"/><path data-target="point-1-46" d="M748.4012480070105,92.93644069462519L823,161.77372525662327L823,57.3346855L809.3648562348643,57.33468549999999L772.6231719642949,67.25232869538337L750.7125692323007,86.08229121588357Z" style="opacity: 0;"/></g><g class="series"><path data-target="point-0-0" d="M34.4762106177,543.18L24.9089441628,486.33349699999997L0,486.33349699999997L0,543.18Z" style="opacity: 0;"/><path data-target="point-0-1" d="M24.413958665573997,483.2020645L24.9089441628,486.33349699999997L34.4762106177,543.18L49.55930635160006,543.18L41.2463644913,483.2020645Z" style="opacity: 0;"/><path data-target="point-0-2" d="M40.98801587046201,480.143961L41.2463644913,483.2020645L49.55930635160006,543.18L66.33550229320005,543.18L57.5987072878,480.143961Z" style="opacity: 0;"/><path data-target="point-0-3" d="M57.5987072878,480.143961L66.33550229320005,543.18L83.7696331574999,543.18L74.0091000015,477.452504L57.625352712099996,477.452504Z" style="opacity: 0;"/><path data-target="point-0-4" d="M74.0091000015,477.452504L83.7696331574999,543.18L104.02747981999993,543.18L90.45041330599999,474.608957L74.15079398306099,474.608957Z" style="opacity: 0;"/><path data-target="point-0-5" d="M90.45041330599999,474.608957L104.02747981999993,543.18L124.7692998625002,543.18L106.91337090625,471.0348325L90.62497345972399,471.0348325Z" style="opacity: 0;"/><path data-target="point-0-6" d="M106.91337090625,471.0348325L124.7692998625002,543.18L163.6724876633065,543.18L155.91737383843304,523.6857282746018L124.6892943915,467.02073199999995L107.06438131828598,467.02073199999995Z" style="opacity: 0;"/><path data-target="point-0-7" d="M72.65657211928787,332.13817215167387L80.3803264109965,355.9482592291251L122.53128960154801,459.12289499999997L140.129823433313,459.12289499999997L139.4116149128,452.54770099999996Z" style="opacity: 0;"/><path data-target="point-0-8" d="M0,135.45945670561423L18.42658216821104,191.7592431515223L36.51272721020653,242.01738088834168L72.65657211928787,332.13817215167387L139.4116149128,452.54770099999996L155.972609462203,452.54770099999996L156.84260006694998,447.8980805L78.03207664412386,191.1026310935914L5.088202355700034,0L0,0Z" style="opacity: 0;"/><path data-target="point-0-9" d="M78.03207664412386,191.1026310935914L156.84260006694998,447.8980805L172.35183426195,447.8980805L173.41197798945,442.4065305L104.44238539914197,254.11935444128414Z" style="opacity: 0;"/><path data-target="point-0-10" d="M104.44238539914197,254.11935444128414L173.41197798945,442.4065305L188.702056623452,442.4065305L190.0564165652,435.543451Z" style="opacity: 0;"/><path data-target="point-0-11" d="M5.088202355700034,0L78.03207664412386,191.1026310935914L104.44238539914197,254.11935444128414L190.0564165652,435.543451L204.949855791664,435.543451L206.18423169624998,429.75315249999994L158.9498462835323,238.90715083245337L48.259385159839965,2.842170943040401e-14Z" style="opacity: 0;"/><path data-target="point-0-12" d="M158.9498462835323,238.90715083245337L206.18423169624998,429.75315249999994L222.176871932676,429.75315249999994L222.2308109121,423.6994115L182.9595618278816,285.3229171933819Z" style="opacity: 0;"/><path data-target="point-0-13" d="M182.9595618278816,285.3229171933819L222.2308109121,423.6994115L239.23508203178898,423.6994115L238.2439958423,417.2545805L207.9980458902952,327.39733168239815Z" style="opacity: 0;"/><path data-target="point-0-14" d="M207.9980458902952,327.39733168239815L238.2439958423,417.2545805L256.17147490975,417.2545805L254.1859292185,410.0574455L235.7414561215755,365.6984433428943Z" style="opacity: 0;"/><path data-target="point-0-15" d="M235.7414561215755,365.6984433428943L254.1859292185,410.0574455L273.306362970828,410.0574455L268.2573595119,397.17864799999995Z" style="opacity: 0;"/><path data-target="point-0-16" d="M48.259385159839965,2.842170943040401e-14L158.9498462835323,238.90715083245337L182.9595618278816,285.3229171933819L207.9980458902952,327.39733168239815L235.7414561215755,365.6984433428943L268.2573595119,397.17864799999995L287.471189283362,397.17864799999995L288.7296062339,388.2270414999999L60.68504205679926,0Z" style="opacity: 0;"/><path data-target="point-0-17" d="M60.68504205679926,0L288.7296062339,388.2270414999999L303.43407336085,388.2270414999999L305.2447791682,382.6051285L276.5057963227314,278.9291442089868L240.07085050349218,181.22212940813048L163.12393435680002,0Z" style="opacity: 0;"/><path data-target="point-0-18" d="M276.5057963227314,278.9291442089868L305.2447791682,382.6051285L320.602782542976,382.6051285L321.3059850285,374.5334735Z" style="opacity: 0;"/><path data-target="point-0-19" d="M240.07085050349218,181.22212940813048L276.5057963227314,278.9291442089868L321.3059850285,374.5334735L337.0776673886,374.5334735L337.83151865599996,366.37491Z" style="opacity: 0;"/><path data-target="point-0-20" d="M163.12393435680002,0L240.07085050349218,181.22212940813048L337.83151865599996,366.37491L353.237913088975,366.37491L354.50545281489997,359.32714949999996L205.0972240528005,0Z" style="opacity: 0;"/><path data-target="point-0-21" d="M205.0972240528005,0L354.50545281489997,359.32714949999996L369.666796304463,359.32714949999996L370.99635537615,353.3494535L246.22866334529976,0Z" style="opacity: 0;"/><path data-target="point-0-22" d="M246.22866334529976,0L370.99635537615,353.3494535L386.145085120976,353.3494535L387.539559458738,347.60804099999996L260.66957243088814,0Z" style="opacity: 0;"/><path data-target="point-0-23" d="M260.66957243088814,0L387.539559458738,347.60804099999996L403.177263355714,347.60804099999996L405.10234474766196,344.33809699999995L274.88055904026385,0Z" style="opacity: 0;"/><path data-target="point-0-24" d="M274.88055904026385,0L405.10234474766196,344.33809699999995L417.814038129177,344.33809699999995L421.38501137544597,337.3881095L289.3380694773009,0Z" style="opacity: 0;"/><path data-target="point-0-25" d="M289.3380694773009,0L421.38501137544597,337.3881095L434.693382229154,337.3881095L438.37256740624997,331.2990615L327.52683284040984,78.74555371727183L289.6911682335239,0Z" style="opacity: 0;"/><path data-target="point-0-26" d="M327.52683284040984,78.74555371727183L438.37256740624997,331.2990615L451.44210661679796,331.2990615L456.41158995704797,325.62283049999996Z" style="opacity: 0;"/><path data-target="point-0-27" d="M289.6911682335239,0L327.52683284040984,78.74555371727183L456.41158995704797,325.62283049999996L466.09280882267734,325.62283049999996L470.04344402300393,321.8516945L465.0611169247827,275.8325515188397L436.05224837226564,200.31352263596722L391.37609390751226,108.46935381397509L340.6081352389895,15.439644151828531L331.5281071527824,0Z" style="opacity: 0;"/><path data-target="point-0-28" d="M465.0611169247827,275.8325515188397L470.04344402300393,321.8516945L482.83342881838735,321.8516945L488.91910046050833,311.98173349999996Z" style="opacity: 0;"/><path data-target="point-0-29" d="M436.05224837226564,200.31352263596722L465.0611169247827,275.8325515188397L488.91910046050833,311.98173349999996L498.72506822943785,311.9817335L506.0946897000976,301.67011349999996Z" style="opacity: 0;"/><path data-target="point-0-30" d="M391.37609390751226,108.46935381397509L436.05224837226564,200.31352263596722L506.0946897000976,301.67011349999996L514.5376704856143,301.67011349999996L523.3749202330218,290.8970615Z" style="opacity: 0;"/><path data-target="point-0-31" d="M340.6081352389895,15.439644151828531L391.37609390751226,108.46935381397509L523.3749202330218,290.8970615L530.2617594657739,290.8970615L540.773193115407,279.6418835Z" style="opacity: 0;"/><path data-target="point-0-32" d="M331.5281071527824,0L340.6081352389895,15.439644151828531L540.773193115407,279.6418835L545.8866516145065,279.6418835L558.3043550246019,267.882878L345.7998823373614,0Z" style="opacity: 0;"/><path data-target="point-0-33" d="M345.7998823373614,0L558.3043550246019,267.882878L561.4006501400348,267.882878L575.9851078604643,255.597423L363.68418019293875,-2.842170943040401e-14Z" style="opacity: 0;"/><path data-target="point-0-34" d="M363.68418019293875,-2.842170943040401e-14L575.9851078604643,255.597423L576.7906705998025,255.597423L592.6715067230771,243.6374683607292L593.1704605814941,241.9989170420979L382.7059578282774,2.842170943040401e-14Z" style="opacity: 0;"/><path data-target="point-0-35" d="M382.7059578282774,2.842170943040401e-14L593.1704605814941,241.9989170420979L608.7302554420536,231.47637192709348L610.1825236747427,227.49629316911515L403.0194373185164,0Z" style="opacity: 0;"/><path data-target="point-0-36" d="M403.0194373185164,0L610.1825236747427,227.49629316911515L624.6611520744909,218.66996232057534L627.3452924838441,212.42825285544797L424.8001414880976,0Z" style="opacity: 0;"/><path data-target="point-0-37" d="M424.8001414880976,0L627.3452924838441,212.42825285544797L640.4525823144911,205.2007972122496L644.675084667668,196.7601292452031L448.24044640419044,0Z" style="opacity: 0;"/><path data-target="point-0-38" d="M448.24044640419044,0L644.675084667668,196.7601292452031L656.0910590794855,191.04888531173913L662.1907683701212,180.45690021166882L473.55356830207177,0Z" style="opacity: 0;"/><path data-target="point-0-39" d="M473.55356830207177,0L662.1907683701212,180.45690021166882L671.5609786914889,176.19207339429272L679.9138769717939,163.48313872817536L500.9781649752569,0Z" style="opacity: 0;"/><path data-target="point-0-40" d="M500.9781649752569,0L679.9138769717939,163.48313872817536L686.8445152085571,160.60617720538056L697.8689954554392,145.8025070329395L530.7748579689859,0Z" style="opacity: 0;"/><path data-target="point-0-41" d="M530.7748579689859,0L697.8689954554392,145.8025070329395L701.9214886807085,144.26482498107165L716.0839793947232,127.37791807370297L563.2352524435491,0Z" style="opacity: 0;"/><path data-target="point-0-42" d="M563.2352524435491,0L716.0839793947232,127.37791807370297L716.7689886862923,127.13984413461681L732.5495385991073,110.34326930852681L733.417871734001,107.23804821556965L598.6805479991274,0Z" style="opacity: 0;"/><path data-target="point-0-43" d="M598.6805479991274,0L733.417871734001,107.23804821556965L748.4012480070105,92.93644069462519L750.7125692323007,86.08229121588357L637.4660173637468,0Z" style="opacity: 0;"/><path data-target="point-0-44" d="M637.4660173637468,0L750.7125692323007,86.08229121588357L772.6231719642949,67.25232869538337L679.9849196264565,0Z" style="opacity: 0;"/><path data-target="point-0-45" d="M679.9849196264565,0L772.6231719642949,67.25232869538337L809.3648562348643,57.33468549999999L726.6713423830284,0Z" style="opacity: 0;"/><path data-target="point-0-46" d="M726.6713423830284,0L809.3648562348643,57.33468549999999L823,57.3346855L823,0Z" style="opacity: 0;"/><path data-target="point-1-0" d="M0,486.33349699999997L24.9089441628,486.33349699999997L24.413958665573997,483.2020645L0,368.1449861192349Z" style="opacity: 0;"/><path data-target="point-1-1" d="M0,368.1449861192349L24.413958665573997,483.2020645L41.2463644913,483.2020645L40.98801587046201,480.143961L0,304.21463774133576Z" style="opacity: 0;"/><path data-target="point-1-2" d="M0,304.21463774133576L40.98801587046201,480.143961L57.5987072878,480.143961L57.625352712099996,477.452504L0,171.63416829866438Z" style="opacity: 0;"/><path data-target="point-1-3" d="M0,171.63416829866438L57.625352712099996,477.452504L74.0091000015,477.452504L74.15079398306099,474.608957L18.42658216821104,191.7592431515223L0,135.45945670561423Z" style="opacity: 0;"/><path data-target="point-1-4" d="M18.42658216821104,191.7592431515223L74.15079398306099,474.608957L90.45041330599999,474.608957L90.62497345972399,471.0348325L36.51272721020653,242.01738088834168Z" style="opacity: 0;"/><path data-target="point-1-5" d="M36.51272721020653,242.01738088834168L90.62497345972399,471.0348325L106.91337090625,471.0348325L107.06438131828598,467.02073199999995L80.3803264109965,355.9482592291251L72.65657211928787,332.13817215167387Z" style="opacity: 0;"/><path data-target="point-1-6" d="M80.3803264109965,355.9482592291251L107.06438131828598,467.02073199999995L124.6892943915,467.02073199999995L122.53128960154801,459.12289499999997Z" style="opacity: 0;"/><path data-target="point-1-7" d="M122.53128960154801,459.12289499999997L124.6892943915,467.02073199999995L155.91737383843304,523.6857282746018L140.129823433313,459.12289499999997Z" style="opacity: 0;"/><path data-target="point-1-8" d="M139.4116149128,452.54770099999996L140.129823433313,459.12289499999997L155.91737383843304,523.6857282746018L163.6724876633065,543.18L179.36117723841386,543.18L155.972609462203,452.54770099999996Z" style="opacity: 0;"/><path data-target="point-1-9" d="M155.972609462203,452.54770099999996L179.36117723841386,543.18L201.02788307014794,543.18L172.35183426195,447.8980805L156.84260006694998,447.8980805Z" style="opacity: 0;"/><path data-target="point-1-10" d="M172.35183426195,447.8980805L201.02788307014794,543.18L225.18306276607706,543.18L188.702056623452,442.4065305L173.41197798945,442.4065305Z" style="opacity: 0;"/><path data-target="point-1-11" d="M188.702056623452,442.4065305L225.18306276607706,543.18L254.03857640503605,543.18L204.949855791664,435.543451L190.0564165652,435.543451Z" style="opacity: 0;"/><path data-target="point-1-12" d="M204.949855791664,435.543451L254.03857640503605,543.18L273.41971744953884,543.18L222.176871932676,429.75315249999994L206.18423169624998,429.75315249999994Z" style="opacity: 0;"/><path data-target="point-1-13" d="M222.176871932676,429.75315249999994L273.41971744953884,543.18L292.5819743464609,543.18L239.23508203178898,423.6994115L222.2308109121,423.6994115Z" style="opacity: 0;"/><path data-target="point-1-14" d="M238.2439958423,417.2545805L239.23508203178898,423.6994115L292.5819743464609,543.18L313.93346483439996,543.18L256.17147490975,417.2545805Z" style="opacity: 0;"/><path data-target="point-1-15" d="M254.1859292185,410.0574455L256.17147490975,417.2545805L313.93346483439996,543.18L344.12223221006394,543.18L273.306362970828,410.0574455Z" style="opacity: 0;"/><path data-target="point-1-16" d="M268.2573595119,397.17864799999995L273.306362970828,410.0574455L344.12223221006394,543.18L360.5127474359364,543.18L287.471189283362,397.17864799999995Z" style="opacity: 0;"/><path data-target="point-1-17" d="M287.471189283362,397.17864799999995L360.5127474359364,543.18L366.32947921599964,543.18L303.43407336085,388.2270414999999L288.7296062339,388.2270414999999Z" style="opacity: 0;"/><path data-target="point-1-18" d="M303.43407336085,388.2270414999999L366.32947921599964,543.18L402.84281263260027,543.18L320.602782542976,382.6051285L305.2447791682,382.6051285Z" style="opacity: 0;"/><path data-target="point-1-19" d="M320.602782542976,382.6051285L402.84281263260027,543.18L415.21497399741185,543.18L337.0776673886,374.5334735L321.3059850285,374.5334735Z" style="opacity: 0;"/><path data-target="point-1-20" d="M337.0776673886,374.5334735L415.21497399741185,543.18L431.12939548847504,543.18L353.237913088975,366.37491L337.83151865599996,366.37491Z" style="opacity: 0;"/><path data-target="point-1-21" d="M353.237913088975,366.37491L431.12939548847504,543.18L431.49900973535887,543.18L419.03124008193214,491.58994233655676L369.666796304463,359.32714949999996L354.50545281489997,359.32714949999996Z" style="opacity: 0;"/><path data-target="point-1-22" d="M369.666796304463,359.32714949999996L419.03124008193214,491.58994233655676L404.33372482424596,408.0291102822833L386.145085120976,353.3494535L370.99635537615,353.3494535Z" style="opacity: 0;"/><path data-target="point-1-23" d="M386.145085120976,353.3494535L404.33372482424596,408.0291102822833L403.177263355714,347.60804099999996L387.539559458738,347.60804099999996Z" style="opacity: 0;"/><path data-target="point-1-24" d="M403.177263355714,347.60804099999996L404.33372482424596,408.0291102822833L419.03124008193214,491.58994233655676L431.49900973535887,543.18L497.165882573441,543.18L474.7073032761964,470.0797822823652L474.31557196104905,469.0407760754894L417.814038129177,344.33809699999995L405.10234474766196,344.33809699999995Z" style="opacity: 0;"/><path data-target="point-1-25" d="M417.814038129177,344.33809699999995L474.31557196104905,469.0407760754894L434.693382229154,337.3881095L421.38501137544597,337.3881095Z" style="opacity: 0;"/><path data-target="point-1-26" d="M434.693382229154,337.3881095L474.31557196104905,469.0407760754894L474.7073032761964,470.0797822823652L451.44210661679796,331.2990615L438.37256740624997,331.2990615Z" style="opacity: 0;"/><path data-target="point-1-27" d="M451.44210661679796,331.2990615L474.7073032761964,470.0797822823652L497.165882573441,543.18L542.2273368089521,543.18L466.09280882267734,325.62283049999996L456.41158995704797,325.62283049999996Z" style="opacity: 0;"/><path data-target="point-1-28" d="M466.09280882267734,325.62283049999996L542.2273368089521,543.18L602.1912256333736,543.18L482.83342881838735,321.8516945L470.04344402300393,321.8516945Z" style="opacity: 0;"/><path data-target="point-1-29" d="M482.83342881838735,321.8516945L602.1912256333736,543.18L628.6309918028138,543.18L498.72506822943785,311.9817335L488.91910046050833,311.98173349999996Z" style="opacity: 0;"/><path data-target="point-1-30" d="M498.72506822943785,311.9817335L628.6309918028138,543.18L655.9247916012825,543.18L514.5376704856143,301.67011349999996L506.0946897000976,301.67011349999996Z" style="opacity: 0;"/><path data-target="point-1-31" d="M514.5376704856143,301.67011349999996L655.9247916012825,543.18L684.1439448963857,543.18L530.2617594657739,290.8970615L523.3749202330218,290.8970615Z" style="opacity: 0;"/><path data-target="point-1-32" d="M530.2617594657739,290.8970615L684.1439448963857,543.18L713.3714329137986,543.18L545.8866516145065,279.6418835L540.773193115407,279.6418835Z" style="opacity: 0;"/><path data-target="point-1-33" d="M545.8866516145065,279.6418835L713.3714329137986,543.18L743.6908973770404,543.18L561.4006501400348,267.882878L558.3043550246019,267.882878Z" style="opacity: 0;"/><path data-target="point-1-34" d="M561.4006501400348,267.882878L743.6908973770404,543.18L775.1952183138931,543.18L576.7906705998025,255.597423L575.9851078604643,255.597423Z" style="opacity: 0;"/><path data-target="point-1-35" d="M576.7906705998025,255.597423L775.1952183138931,543.18L807.9874281981156,543.18L592.6715067230771,243.6374683607292Z" style="opacity: 0;"/><path data-target="point-1-36" d="M592.6715067230771,243.6374683607292L807.9874281981156,543.18L823,543.18L823,517.5730982529846L608.7302554420536,231.47637192709348L593.1704605814941,241.9989170420979Z" style="opacity: 0;"/><path data-target="point-1-37" d="M608.7302554420536,231.47637192709348L823,517.5730982529846L823,472.84475910179003L624.6611520744909,218.66996232057534L610.1825236747427,227.49629316911515Z" style="opacity: 0;"/><path data-target="point-1-38" d="M624.6611520744909,218.66996232057534L823,472.84475910179003L823,429.72874893638925L640.4525823144911,205.2007972122496L627.3452924838441,212.42825285544797Z" style="opacity: 0;"/><path data-target="point-1-39" d="M640.4525823144911,205.2007972122496L823,429.72874893638925L823,388.0845564005884L656.0910590794855,191.04888531173913L644.675084667668,196.7601292452031Z" style="opacity: 0;"/><path data-target="point-1-40" d="M656.0910590794855,191.04888531173913L823,388.0845564005884L823,347.77527533865685L671.5609786914889,176.19207339429272L662.1907683701212,180.45690021166882Z" style="opacity: 0;"/><path data-target="point-1-41" d="M671.5609786914889,176.19207339429272L823,347.77527533865685L823,308.66758960351643L686.8445152085571,160.60617720538056L679.9138769717939,163.48313872817536Z" style="opacity: 0;"/><path data-target="point-1-42" d="M686.8445152085571,160.60617720538056L823,308.66758960351643L823,270.63548784090005L701.9214886807085,144.26482498107165L697.8689954554392,145.8025070329395Z" style="opacity: 0;"/><path data-target="point-1-43" d="M701.9214886807085,144.26482498107165L823,270.63548784090005L823,233.55426840193647L716.7689886862923,127.13984413461681L716.0839793947232,127.37791807370297Z" style="opacity: 0;"/><path data-target="point-1-44" d="M716.7689886862923,127.13984413461681L823,233.55426840193647L823,197.30562619535726L732.5495385991073,110.34326930852681Z" style="opacity: 0;"/><path data-target="point-1-45" d="M732.5495385991073,110.34326930852681L823,197.30562619535726L823,161.77372525662327L748.4012480070105,92.93644069462519L733.417871734001,107.23804821556965Z" style="opacity: 0;"/><path data-target="point-1-46" d="M748.4012480070105,92.93644069462519L823,161.77372525662327L823,57.3346855L809.3648562348643,57.33468549999999L772.6231719642949,67.25232869538337L750.7125692323007,86.08229121588357Z" style="opacity: 0;"/></g></g><g class="axes"><g class="y axis" fill="none" font-size="10" font-family="sans-serif" text-anchor="end" style="font-family: &quot;Source Sans Pro&quot;;"><path class="domain" stroke="#eeeeee" d="M0.5,543.68V0.5" stroke-dasharray="0" style="visibility: hidden;"/><g class="tick" opacity="1" transform="translate(0,543.68)" style="visibility: visible;"><line stroke="#eeeeee" x2="823" stroke-dasharray="0"/><text fill="rgb(0, 0, 0)" x="-3" dy="0.33em" opacity="1" text-anchor="end" font-size="14">$0</text></g><g class="tick" opacity="1" transform="translate(0, 489.36199951171875)" style="visibility: visible;"><line stroke="#eeeeee" x2="823" stroke-dasharray="0"/><text fill="rgb(0, 0, 0)" x="-3" dy="0.33em" opacity="1" text-anchor="end" font-size="14">$10,000</text></g><g class="tick" opacity="1" transform="translate(0, 435.04400634765625)" style="visibility: visible;"><line stroke="#eeeeee" x2="823" stroke-dasharray="0"/><text fill="rgb(0, 0, 0)" x="-3" dy="0.33em" opacity="1" text-anchor="end" font-size="14">$20,000</text></g><g class="tick" opacity="1" transform="translate(0, 380.72601318359375)" style="visibility: visible;"><line stroke="#eeeeee" x2="823" stroke-dasharray="0"/><text fill="rgb(0, 0, 0)" x="-3" dy="0.33em" opacity="1" text-anchor="end" font-size="14">$30,000</text></g><g class="tick" opacity="1" transform="translate(0, 326.4079895019531)" style="visibility: visible;"><line stroke="#eeeeee" x2="823" stroke-dasharray="0"/><text fill="rgb(0, 0, 0)" x="-3" dy="0.33em" opacity="1" text-anchor="end" font-size="14">$40,000</text></g><g class="tick" opacity="1" transform="translate(0, 272.0899963378906)" style="visibility: visible;"><line stroke="#eeeeee" x2="823" stroke-dasharray="0"/><text fill="rgb(0, 0, 0)" x="-3" dy="0.33em" opacity="1" text-anchor="end" font-size="14">$50,000</text></g><g class="tick" opacity="1" transform="translate(0, 217.77200317382812)" style="visibility: visible;"><line stroke="#eeeeee" x2="823" stroke-dasharray="0"/><text fill="rgb(0, 0, 0)" x="-3" dy="0.33em" opacity="1" text-anchor="end" font-size="14">$60,000</text></g><g class="tick" opacity="1" transform="translate(0, 163.45399475097656)" style="visibility: visible;"><line stroke="#eeeeee" x2="823" stroke-dasharray="0"/><text fill="rgb(0, 0, 0)" x="-3" dy="0.33em" opacity="1" text-anchor="end" font-size="14">$70,000</text></g><g class="tick" opacity="1" transform="translate(0, 109.13600158691406)" style="visibility: visible;"><line stroke="#eeeeee" x2="823" stroke-dasharray="0"/><text fill="rgb(0, 0, 0)" x="-3" dy="0.33em" opacity="1" text-anchor="end" font-size="14">$80,000</text></g><g class="tick" opacity="1" transform="translate(0, 54.81800079345703)" style="visibility: visible;"><line stroke="#eeeeee" x2="823" stroke-dasharray="0"/><text fill="rgb(0, 0, 0)" x="-3" dy="0.33em" opacity="1" text-anchor="end" font-size="14">$90,000</text></g><g class="tick" opacity="1" transform="translate(0, 0.5)" style="visibility: visible;"><line stroke="#eeeeee" x2="823" stroke-dasharray="0"/><text fill="rgb(0, 0, 0)" x="-3" dy="0.33em" opacity="1" text-anchor="end" font-size="14">$100,000</text></g></g><g class="x axis" transform="translate(0,543.18)" fill="none" font-size="10" font-family="sans-serif" text-anchor="middle" style="font-family: &quot;Source Sans Pro&quot;;"><path class="domain" stroke="#eeeeee" d="M0.5,0.5H823.5" stroke-dasharray="0"/><g class="tick" opacity="1" transform="translate(0.5,0)"><line stroke="#eeeeee" y2="6" stroke-dasharray="0"/><text fill="rgb(0, 0, 0)" y="9" dy="-9" opacity="1" dominant-baseline="central" font-size="16" transform="translate(0, 15) rotate(-45)" dx="5" style="text-anchor: end; visibility: visible;">1990</text></g><g class="tick" opacity="1" transform="translate(82.80000000000001,0)"><line stroke="#eeeeee" y2="6" stroke-dasharray="0"/><text fill="rgb(0, 0, 0)" y="9" dy="-9" opacity="1" dominant-baseline="central" font-size="16" transform="translate(0, 15) rotate(-45)" dx="5" style="text-anchor: end; visibility: visible;">1995</text></g><g class="tick" opacity="1" transform="translate(165.10000000000002,0)"><line stroke="#eeeeee" y2="6" stroke-dasharray="0"/><text fill="rgb(0, 0, 0)" y="9" dy="-9" opacity="1" dominant-baseline="central" font-size="16" transform="translate(0, 15) rotate(-45)" dx="5" style="text-anchor: end; visibility: visible;">2000</text></g><g class="tick" opacity="1" transform="translate(247.39999999999998,0)"><line stroke="#eeeeee" y2="6" stroke-dasharray="0"/><text fill="rgb(0, 0, 0)" y="9" dy="-9" opacity="1" dominant-baseline="central" font-size="16" transform="translate(0, 15) rotate(-45)" dx="5" style="text-anchor: end; visibility: visible;">2005</text></g><g class="tick" opacity="1" transform="translate(329.70000000000005,0)"><line stroke="#eeeeee" y2="6" stroke-dasharray="0"/><text fill="rgb(0, 0, 0)" y="9" dy="-9" opacity="1" dominant-baseline="central" font-size="16" transform="translate(0, 15) rotate(-45)" dx="5" style="text-anchor: end; visibility: visible;">2010</text></g><g class="tick" opacity="1" transform="translate(412,0)"><line stroke="#eeeeee" y2="6" stroke-dasharray="0"/><text fill="rgb(0, 0, 0)" y="9" dy="-9" opacity="1" dominant-baseline="central" font-size="16" transform="translate(0, 15) rotate(-45)" dx="5" style="text-anchor: end; visibility: visible;">2015</text></g><g class="tick" opacity="1" transform="translate(494.29999999999995,0)"><line stroke="#eeeeee" y2="6" stroke-dasharray="0"/><text fill="rgb(0, 0, 0)" y="9" dy="-9" opacity="1" dominant-baseline="central" font-size="16" transform="translate(0, 15) rotate(-45)" dx="5" style="text-anchor: end; visibility: visible;">2020</text></g><g class="tick" opacity="1" transform="translate(576.5999999999999,0)"><line stroke="#eeeeee" y2="6" stroke-dasharray="0"/><text fill="rgb(0, 0, 0)" y="9" dy="-9" opacity="1" dominant-baseline="central" font-size="16" transform="translate(0, 15) rotate(-45)" dx="5" style="text-anchor: end; visibility: visible;">2025</text></g><g class="tick" opacity="1" transform="translate(658.9000000000001,0)"><line stroke="#eeeeee" y2="6" stroke-dasharray="0"/><text fill="rgb(0, 0, 0)" y="9" dy="-9" opacity="1" dominant-baseline="central" font-size="16" transform="translate(0, 15) rotate(-45)" dx="5" style="text-anchor: end; visibility: visible;">2030</text></g><g class="tick" opacity="1" transform="translate(741.2,0)"><line stroke="#eeeeee" y2="6" stroke-dasharray="0"/><text fill="rgb(0, 0, 0)" y="9" dy="-9" opacity="1" dominant-baseline="central" font-size="16" transform="translate(0, 15) rotate(-45)" dx="5" style="text-anchor: end; visibility: visible;">2035</text></g><g class="tick" opacity="1" transform="translate(823.5,0)"><line stroke="#eeeeee" y2="6" stroke-dasharray="0"/><text fill="rgb(0, 0, 0)" y="9" dy="-9" opacity="1" dominant-baseline="central" font-size="16" transform="translate(0, 15) rotate(-45)" dx="5" style="text-anchor: end; visibility: visible;">2040</text></g></g></g></g></g></g><g class="annotations below"><g class="axis-highlights" transform="translate(50, 10)" style="opacity: 1;"><g class="line x" transform="translate(477.34, 0)"><line width="0" stroke-dasharray="2 2" stroke="#333333" stroke-width="2" y2="543.18"/><text transform="translate(0, 6) rotate(-90)" fill="#333333" text-anchor="end" dy="-0.5em" font-size="12">Current</text></g></g></g><g id="areas"><g class="series" pointer-events="none"><path class="area" transform="translate(50,10)" fill-opacity="0" fill="rgb(17, 165, 121)" clip-path="url(#clip-0-0)" d="M16.46,486.41768999999994C21.94666666666667,485.45354549999996,27.433333333333334,484.48940099999993,32.92,483.64747199999994C38.406666666666666,482.80554299999994,43.89333333333333,482.12656799999996,49.379999999999995,481.366116C54.86666666666667,480.605664,60.35333333333333,479.87237099999993,65.84,479.08475999999996C71.32666666666667,478.297149,76.81333333333335,477.59101499999997,82.30000000000001,476.64045C87.78666666666668,475.689885,93.27333333333333,474.60352499999993,98.75999999999999,473.38136999999995C104.24666666666667,472.15921499999996,109.73333333333333,471.86951899999997,115.22000000000001,469.30751999999995C120.70666666666668,466.74552099999994,126.19333333333334,461.413304,131.68,458.009376C137.16666666666666,454.60544799999997,142.65333333333334,451.246785,148.14,448.88395199999997C153.62666666666667,446.52111899999994,159.11333333333334,445.67918999999995,164.60000000000002,443.83237799999995C170.08666666666667,441.98556599999995,175.57333333333335,440.10254199999997,181.06,437.80307999999997C186.54666666666665,435.50361799999996,192.03333333333333,432.00915999999995,197.51999999999998,430.035606C203.00666666666666,428.062052,208.49333333333334,427.419289,213.98000000000002,425.961756C219.4666666666667,424.50422299999997,224.95333333333335,422.992372,230.44000000000003,421.29040799999996C235.92666666666668,419.588444,241.41333333333333,417.81405599999994,246.89999999999998,415.74997199999996C252.38666666666666,413.685888,257.87333333333333,412.88017099999996,263.36,408.90590399999996C268.8466666666667,404.93163699999997,274.3333333333333,396.34939299999996,279.82,391.90437C285.3066666666667,387.459347,290.7933333333333,384.607652,296.28,382.23576599999996C301.76666666666665,379.86387999999994,307.25333333333333,379.71903199999997,312.74,377.673054C318.2266666666667,375.627076,323.71333333333337,372.693904,329.20000000000005,369.95989799999995C334.68666666666667,367.22589199999993,340.17333333333335,363.85817599999996,345.65999999999997,361.26901799999996C351.14666666666665,358.67985999999996,356.6333333333333,356.534299,362.12,354.42494999999997C367.6066666666667,352.31560099999996,373.09333333333336,350.58285679999994,378.58000000000004,348.61292399999996C384.06666666666666,346.6429912,389.55333333333334,344.64408879999996,395.03999999999996,342.60535319999997C400.52666666666664,340.5666176,406.0133333333333,338.49166999999994,411.5,336.38051039999993C416.9866666666667,334.2693507999999,422.47333333333336,332.2161304,427.96000000000004,329.9383956C433.4466666666667,327.66066079999996,438.93333333333334,325.3503351999999,444.42,322.71410159999994C449.9066666666667,320.0778679999999,455.3933333333334,315.309037296,460.88000000000005,314.120994C466.3666666666667,312.932950704,471.85333333333335,313.526972352,477.34,312.338929056C482.82666666666665,311.15088576,488.3133333333333,305.1818897929999,493.79999999999995,301.47554632799995C499.28666666666663,297.769202863,504.7733333333333,293.98163588200003,510.26,290.100868266C515.7466666666667,286.22010065,521.2333333333333,282.25433441699994,526.72,278.1909406319999C532.2066666666667,274.1275468469999,537.6933333333334,269.97512586,543.1800000000001,265.720505556C548.6666666666667,261.465885252,554.1533333333333,257.11806431299993,559.64,252.66321880799995C565.1266666666667,248.20837330299995,570.6133333333332,243.65591835199996,576.0999999999999,238.99143252599998C581.5866666666666,234.32694669999998,587.0733333333333,229.560297769,592.56,224.676303852C598.0466666666666,219.792309935,603.5333333333333,214.80130955799993,609.02,209.68746902399994C614.5066666666667,204.57362848999995,619.9933333333333,199.34775708099997,625.48,193.993260648C630.9666666666667,188.638764215,636.4533333333334,183.16697711400005,641.94,177.56049042600006C647.4266666666667,171.95400373800007,652.9133333333334,166.22466784000002,658.4000000000001,160.35434052C663.8866666666668,154.4840132,669.3733333333333,148.48510612099997,674.86,142.338526506C680.3466666666667,136.19194689100001,685.8333333333333,129.91070390100003,691.3199999999999,123.47486283000006C696.8066666666666,117.03902175900004,702.2933333333333,110.46218926600002,707.78,103.72348008C713.2666666666667,96.98477089399998,718.7533333333333,90.09844348999994,724.24,83.04260771399993C729.7266666666667,75.98677193799992,735.2133333333334,68.77635618699993,740.7,61.388465423999946C746.1866666666667,54.000574660999966,751.6733333333334,46.45082531100007,757.1600000000001,38.71526313600003C762.6466666666668,30.979700961000056,768.1333333333333,22.97739666749999,773.62,14.975092373999928L773.62,14.975092373999928C768.1333333333333,22.97739666749999,762.6466666666668,30.979700961000056,757.1600000000001,38.71526313600003C751.6733333333334,46.45082531100007,746.1866666666667,54.000574660999966,740.7,61.388465423999946C735.2133333333334,68.77635618699993,729.7266666666667,75.98677193799992,724.24,83.04260771399993C718.7533333333333,90.09844348999994,713.2666666666667,96.98477089399998,707.78,103.72348008C702.2933333333333,110.46218926600002,696.8066666666666,117.03902175900004,691.3199999999999,123.47486283000006C685.8333333333333,129.91070390100003,680.3466666666667,136.19194689100001,674.86,142.338526506C669.3733333333333,148.48510612099997,663.8866666666668,154.4840132,658.4000000000001,160.35434052C652.9133333333334,166.22466784000002,647.4266666666667,171.95400373800007,641.94,177.56049042600006C636.4533333333334,183.16697711400005,630.9666666666667,188.638764215,625.48,193.993260648C619.9933333333333,199.34775708099997,614.5066666666667,204.57362848999995,609.02,209.68746902399994C603.5333333333333,214.80130955799993,598.0466666666666,219.792309935,592.56,224.676303852C587.0733333333333,229.560297769,581.5866666666666,234.32694669999998,576.0999999999999,238.99143252599998C570.6133333333332,243.65591835199996,565.1266666666667,248.20837330299995,559.64,252.66321880799995C554.1533333333333,257.11806431299993,548.6666666666667,261.465885252,543.1800000000001,265.720505556C537.6933333333334,269.97512586,532.2066666666667,274.1275468469999,526.72,278.1909406319999C521.2333333333333,282.25433441699994,515.7466666666667,286.22010065,510.26,290.100868266C504.7733333333333,293.98163588200003,499.28666666666663,297.769202863,493.79999999999995,301.47554632799995C488.3133333333333,305.1818897929999,482.82666666666665,311.15088576,477.34,312.338929056C471.85333333333335,313.526972352,466.3666666666667,312.932950704,460.88000000000005,314.120994C455.3933333333334,315.309037296,449.9066666666667,320.0778679999999,444.42,322.71410159999994C438.93333333333334,325.3503351999999,433.4466666666667,327.66066079999996,427.96000000000004,329.9383956C422.47333333333336,332.2161304,416.9866666666667,334.2693507999999,411.5,336.38051039999993C406.0133333333333,338.49166999999994,400.52666666666664,340.5666176,395.03999999999996,342.60535319999997C389.55333333333334,344.64408879999996,384.06666666666666,346.6429912,378.58000000000004,348.61292399999996C373.09333333333336,350.58285679999994,367.6066666666667,352.31560099999996,362.12,354.42494999999997C356.6333333333333,356.534299,351.14666666666665,358.67985999999996,345.65999999999997,361.26901799999996C340.17333333333335,363.85817599999996,334.68666666666667,367.22589199999993,329.20000000000005,369.95989799999995C323.71333333333337,372.693904,318.2266666666667,375.627076,312.74,377.673054C307.25333333333333,379.71903199999997,301.76666666666665,379.86387999999994,296.28,382.23576599999996C290.7933333333333,384.607652,285.3066666666667,387.459347,279.82,391.90437C274.3333333333333,396.34939299999996,268.8466666666667,404.93163699999997,263.36,408.90590399999996C257.87333333333333,412.88017099999996,252.38666666666666,413.685888,246.89999999999998,415.74997199999996C241.41333333333333,417.81405599999994,235.92666666666668,419.588444,230.44000000000003,421.29040799999996C224.95333333333335,422.992372,219.4666666666667,424.50422299999997,213.98000000000002,425.961756C208.49333333333334,427.419289,203.00666666666666,428.062052,197.51999999999998,430.035606C192.03333333333333,432.00915999999995,186.54666666666665,435.50361799999996,181.06,437.80307999999997C175.57333333333335,440.10254199999997,170.08666666666667,441.98556599999995,164.60000000000002,443.83237799999995C159.11333333333334,445.67918999999995,153.62666666666667,446.52111899999994,148.14,448.88395199999997C142.65333333333334,451.246785,137.16666666666666,454.60544799999997,131.68,458.009376C126.19333333333334,461.413304,120.70666666666668,466.74552099999994,115.22000000000001,469.30751999999995C109.73333333333333,471.86951899999997,104.24666666666667,472.15921499999996,98.75999999999999,473.38136999999995C93.27333333333333,474.60352499999993,87.78666666666668,475.689885,82.30000000000001,476.64045C76.81333333333335,477.59101499999997,71.32666666666667,478.297149,65.84,479.08475999999996C60.35333333333333,479.87237099999993,54.86666666666667,480.605664,49.379999999999995,481.366116C43.89333333333333,482.12656799999996,38.406666666666666,482.80554299999994,32.92,483.64747199999994C27.433333333333334,484.48940099999993,21.94666666666667,485.45354549999996,16.46,486.41768999999994Z"/></g><g class="series" pointer-events="none"><path class="area" transform="translate(50,10)" fill-opacity="0" fill="rgb(204, 80, 62)" clip-path="url(#clip-0-1)" d="M16.46,486.2493042C21.94666666666667,485.11360535,27.433333333333334,483.97790649999996,32.92,482.7566568C38.406666666666666,481.5354071,43.89333333333333,480.0778741,49.379999999999995,478.92180599999995C54.86666666666667,477.7657378999999,60.35333333333333,476.8776385999999,65.84,475.8202481999999C71.32666666666667,474.76285779999995,76.81333333333335,473.76612249999994,82.30000000000001,472.57746359999993C87.78666666666668,471.3888046999999,93.27333333333333,469.9955479999999,98.75999999999999,468.68829479999994C104.24666666666667,467.38104159999995,109.73333333333333,466.1425911999999,115.22000000000001,464.7339443999999C120.70666666666668,463.32529759999994,126.19333333333334,461.65682969999995,131.68,460.23641399999997C137.16666666666666,458.8159983,142.65333333333334,457.59022209999995,148.14,456.21145019999994C153.62666666666667,454.83267829999994,159.11333333333334,453.49736079999997,164.60000000000002,451.96378259999994C170.08666666666667,450.4302043999999,175.57333333333335,448.82872869999994,181.06,447.0099809999999C186.54666666666665,445.1912332999999,192.03333333333333,443.29553509999994,197.51999999999998,441.05129639999996C203.00666666666666,438.8070577,208.49333333333334,436.0350291,213.98000000000002,433.5445488C219.4666666666667,431.05406849999997,224.95333333333335,428.57264119999996,230.44000000000003,426.10841459999995C235.92666666666668,423.64418799999993,241.41333333333333,421.24242709999993,246.89999999999998,418.7591891999999C252.38666666666666,416.2759512999999,257.87333333333333,413.92669779999994,263.36,411.20898719999997C268.8466666666667,408.4912766,274.3333333333333,405.284704,279.82,402.45292559999996C285.3066666666667,399.62114719999994,290.7933333333333,396.7042706,296.28,394.21831679999997C301.76666666666665,391.73236299999996,307.25333333333333,390.0557473999999,312.74,387.53720279999993C318.2266666666667,385.01865819999995,323.71333333333337,381.783116,329.20000000000005,379.1070492C334.68666666666667,376.4309824,340.17333333333335,373.9604187,345.65999999999997,371.480802C351.14666666666665,369.0011853,356.6333333333333,366.46181879999995,362.12,364.22934899999996C367.6066666666667,361.99687919999997,373.09333333333336,360.0224199,378.58000000000004,358.0859832C384.06666666666666,356.1495465,389.55333333333334,352.82075839999993,395.03999999999996,352.61072879999995C400.52666666666664,352.40069919999996,406.0133333333333,352.50571399999995,411.5,352.29568439999997C416.9866666666667,352.0856548,422.47333333333336,346.9064335,427.96000000000004,344.83782299999996C433.4466666666667,342.7692125,438.93333333333334,341.16954739999994,444.42,339.88402139999994C449.9066666666667,338.59849539999993,455.3933333333334,338.5445938379999,460.88000000000005,337.12466699999993C466.3666666666667,335.70474016199995,471.85333333333335,333.80391796399994,477.34,331.36446037199994C482.82666666666665,328.92500277999994,488.3133333333333,325.50877175299996,493.79999999999995,322.48792144799995C499.28666666666663,319.46707114299994,504.7733333333333,316.386815052,510.26,313.239358542C515.7466666666667,310.091902032,521.2333333333333,306.882532055,526.72,303.603182388C532.2066666666667,300.323832721,537.6933333333334,296.980034747,543.1800000000001,293.56326054C548.6666666666667,290.146486333,554.1533333333333,286.66251170699996,559.64,283.102537146C565.1266666666667,279.542562585,570.6133333333332,275.912572122,576.0999999999999,272.203413174C581.5866666666666,268.49425422599995,587.0733333333333,264.712173363,592.56,260.847583458C598.0466666666666,256.982993553,603.5333333333333,253.04242181899997,609.02,249.01587374399998C614.5066666666667,244.98932566899998,619.9933333333333,240.88358194999995,625.48,236.68829500799995C630.9666666666667,232.49300806599996,636.4533333333334,228.215248294,641.94,223.844152092C647.4266666666667,219.47305589,652.9133333333334,215.01600145299997,658.4000000000001,210.46171779599996C663.8866666666668,205.90743413899997,669.3733333333333,201.26358915299997,674.86,196.51845014999998C680.3466666666667,191.773311147,685.8333333333333,186.93488097899998,691.3199999999999,181.990883778C696.8066666666666,177.046886577,702.2933333333333,172.00565110300005,707.78,166.85446694400002C713.2666666666667,161.703282785,718.7533333333333,156.45083176799992,724.24,151.08377882399992C729.7266666666667,145.71672587999993,735.2133333333334,140.244124009,740.7,134.65214928C746.1866666666667,129.06017455100002,751.6733333333334,123.35824208400003,757.1600000000001,117.53193045C762.6466666666668,111.70561881600003,768.1333333333333,105.69994914600002,773.62,99.69427947600002L773.62,99.69427947600002C768.1333333333333,105.69994914600002,762.6466666666668,111.70561881600003,757.1600000000001,117.53193045C751.6733333333334,123.35824208400003,746.1866666666667,129.06017455100002,740.7,134.65214928C735.2133333333334,140.244124009,729.7266666666667,145.71672587999993,724.24,151.08377882399992C718.7533333333333,156.45083176799992,713.2666666666667,161.703282785,707.78,166.85446694400002C702.2933333333333,172.00565110300005,696.8066666666666,177.046886577,691.3199999999999,181.990883778C685.8333333333333,186.93488097899998,680.3466666666667,191.773311147,674.86,196.51845014999998C669.3733333333333,201.26358915299997,663.8866666666668,205.90743413899997,658.4000000000001,210.46171779599996C652.9133333333334,215.01600145299997,647.4266666666667,219.47305589,641.94,223.844152092C636.4533333333334,228.215248294,630.9666666666667,232.49300806599996,625.48,236.68829500799995C619.9933333333333,240.88358194999995,614.5066666666667,244.98932566899998,609.02,249.01587374399998C603.5333333333333,253.04242181899997,598.0466666666666,256.982993553,592.56,260.847583458C587.0733333333333,264.712173363,581.5866666666666,268.49425422599995,576.0999999999999,272.203413174C570.6133333333332,275.912572122,565.1266666666667,279.542562585,559.64,283.102537146C554.1533333333333,286.66251170699996,548.6666666666667,290.146486333,543.1800000000001,293.56326054C537.6933333333334,296.980034747,532.2066666666667,300.323832721,526.72,303.603182388C521.2333333333333,306.882532055,515.7466666666667,310.091902032,510.26,313.239358542C504.7733333333333,316.386815052,499.28666666666663,319.46707114299994,493.79999999999995,322.48792144799995C488.3133333333333,325.50877175299996,482.82666666666665,328.92500277999994,477.34,331.36446037199994C471.85333333333335,333.80391796399994,466.3666666666667,335.70474016199995,460.88000000000005,337.12466699999993C455.3933333333334,338.5445938379999,449.9066666666667,338.59849539999993,444.42,339.88402139999994C438.93333333333334,341.16954739999994,433.4466666666667,342.7692125,427.96000000000004,344.83782299999996C422.47333333333336,346.9064335,416.9866666666667,352.0856548,411.5,352.29568439999997C406.0133333333333,352.50571399999995,400.52666666666664,352.40069919999996,395.03999999999996,352.61072879999995C389.55333333333334,352.82075839999993,384.06666666666666,356.1495465,378.58000000000004,358.0859832C373.09333333333336,360.0224199,367.6066666666667,361.99687919999997,362.12,364.22934899999996C356.6333333333333,366.46181879999995,351.14666666666665,369.0011853,345.65999999999997,371.480802C340.17333333333335,373.9604187,334.68666666666667,376.4309824,329.20000000000005,379.1070492C323.71333333333337,381.783116,318.2266666666667,385.01865819999995,312.74,387.53720279999993C307.25333333333333,390.0557473999999,301.76666666666665,391.73236299999996,296.28,394.21831679999997C290.7933333333333,396.7042706,285.3066666666667,399.62114719999994,279.82,402.45292559999996C274.3333333333333,405.284704,268.8466666666667,408.4912766,263.36,411.20898719999997C257.87333333333333,413.92669779999994,252.38666666666666,416.2759512999999,246.89999999999998,418.7591891999999C241.41333333333333,421.24242709999993,235.92666666666668,423.64418799999993,230.44000000000003,426.10841459999995C224.95333333333335,428.57264119999996,219.4666666666667,431.05406849999997,213.98000000000002,433.5445488C208.49333333333334,436.0350291,203.00666666666666,438.8070577,197.51999999999998,441.05129639999996C192.03333333333333,443.29553509999994,186.54666666666665,445.1912332999999,181.06,447.0099809999999C175.57333333333335,448.82872869999994,170.08666666666667,450.4302043999999,164.60000000000002,451.96378259999994C159.11333333333334,453.49736079999997,153.62666666666667,454.83267829999994,148.14,456.21145019999994C142.65333333333334,457.59022209999995,137.16666666666666,458.8159983,131.68,460.23641399999997C126.19333333333334,461.65682969999995,120.70666666666668,463.32529759999994,115.22000000000001,464.7339443999999C109.73333333333333,466.1425911999999,104.24666666666667,467.38104159999995,98.75999999999999,468.68829479999994C93.27333333333333,469.9955479999999,87.78666666666668,471.3888046999999,82.30000000000001,472.57746359999993C76.81333333333335,473.76612249999994,71.32666666666667,474.76285779999995,65.84,475.8202481999999C60.35333333333333,476.8776385999999,54.86666666666667,477.7657378999999,49.379999999999995,478.92180599999995C43.89333333333333,480.0778741,38.406666666666666,481.5354071,32.92,482.7566568C27.433333333333334,483.97790649999996,21.94666666666667,485.11360535,16.46,486.2493042Z"/></g></g><g id="lines"><g class="series"><clipPath id="clip-0-0"><rect width="823" y="-10" height="563.18"/></clipPath><path class="line" opacity="1" fill="none" stroke="rgb(17, 165, 121)" stroke-width="2" transform="translate(50,10)" clip-path="url(#clip-0-0)" d="M16.46,486.41768999999994C21.94666666666667,485.45354549999996,27.433333333333334,484.48940099999993,32.92,483.64747199999994C38.406666666666666,482.80554299999994,43.89333333333333,482.12656799999996,49.379999999999995,481.366116C54.86666666666667,480.605664,60.35333333333333,479.87237099999993,65.84,479.08475999999996C71.32666666666667,478.297149,76.81333333333335,477.59101499999997,82.30000000000001,476.64045C87.78666666666668,475.689885,93.27333333333333,474.60352499999993,98.75999999999999,473.38136999999995C104.24666666666667,472.15921499999996,109.73333333333333,471.86951899999997,115.22000000000001,469.30751999999995C120.70666666666668,466.74552099999994,126.19333333333334,461.413304,131.68,458.009376C137.16666666666666,454.60544799999997,142.65333333333334,451.246785,148.14,448.88395199999997C153.62666666666667,446.52111899999994,159.11333333333334,445.67918999999995,164.60000000000002,443.83237799999995C170.08666666666667,441.98556599999995,175.57333333333335,440.10254199999997,181.06,437.80307999999997C186.54666666666665,435.50361799999996,192.03333333333333,432.00915999999995,197.51999999999998,430.035606C203.00666666666666,428.062052,208.49333333333334,427.419289,213.98000000000002,425.961756C219.4666666666667,424.50422299999997,224.95333333333335,422.992372,230.44000000000003,421.29040799999996C235.92666666666668,419.588444,241.41333333333333,417.81405599999994,246.89999999999998,415.74997199999996C252.38666666666666,413.685888,257.87333333333333,412.88017099999996,263.36,408.90590399999996C268.8466666666667,404.93163699999997,274.3333333333333,396.34939299999996,279.82,391.90437C285.3066666666667,387.459347,290.7933333333333,384.607652,296.28,382.23576599999996C301.76666666666665,379.86387999999994,307.25333333333333,379.71903199999997,312.74,377.673054C318.2266666666667,375.627076,323.71333333333337,372.693904,329.20000000000005,369.95989799999995C334.68666666666667,367.22589199999993,340.17333333333335,363.85817599999996,345.65999999999997,361.26901799999996C351.14666666666665,358.67985999999996,356.6333333333333,356.534299,362.12,354.42494999999997C367.6066666666667,352.31560099999996,373.09333333333336,350.58285679999994,378.58000000000004,348.61292399999996C384.06666666666666,346.6429912,389.55333333333334,344.64408879999996,395.03999999999996,342.60535319999997C400.52666666666664,340.5666176,406.0133333333333,338.49166999999994,411.5,336.38051039999993C416.9866666666667,334.2693507999999,422.47333333333336,332.2161304,427.96000000000004,329.9383956C433.4466666666667,327.66066079999996,438.93333333333334,325.3503351999999,444.42,322.71410159999994C449.9066666666667,320.0778679999999,455.3933333333334,315.309037296,460.88000000000005,314.120994C466.3666666666667,312.932950704,471.85333333333335,313.526972352,477.34,312.338929056C482.82666666666665,311.15088576,488.3133333333333,305.1818897929999,493.79999999999995,301.47554632799995C499.28666666666663,297.769202863,504.7733333333333,293.98163588200003,510.26,290.100868266C515.7466666666667,286.22010065,521.2333333333333,282.25433441699994,526.72,278.1909406319999C532.2066666666667,274.1275468469999,537.6933333333334,269.97512586,543.1800000000001,265.720505556C548.6666666666667,261.465885252,554.1533333333333,257.11806431299993,559.64,252.66321880799995C565.1266666666667,248.20837330299995,570.6133333333332,243.65591835199996,576.0999999999999,238.99143252599998C581.5866666666666,234.32694669999998,587.0733333333333,229.560297769,592.56,224.676303852C598.0466666666666,219.792309935,603.5333333333333,214.80130955799993,609.02,209.68746902399994C614.5066666666667,204.57362848999995,619.9933333333333,199.34775708099997,625.48,193.993260648C630.9666666666667,188.638764215,636.4533333333334,183.16697711400005,641.94,177.56049042600006C647.4266666666667,171.95400373800007,652.9133333333334,166.22466784000002,658.4000000000001,160.35434052C663.8866666666668,154.4840132,669.3733333333333,148.48510612099997,674.86,142.338526506C680.3466666666667,136.19194689100001,685.8333333333333,129.91070390100003,691.3199999999999,123.47486283000006C696.8066666666666,117.03902175900004,702.2933333333333,110.46218926600002,707.78,103.72348008C713.2666666666667,96.98477089399998,718.7533333333333,90.09844348999994,724.24,83.04260771399993C729.7266666666667,75.98677193799992,735.2133333333334,68.77635618699993,740.7,61.388465423999946C746.1866666666667,54.000574660999966,751.6733333333334,46.45082531100007,757.1600000000001,38.71526313600003C762.6466666666668,30.979700961000056,768.1333333333333,22.97739666749999,773.62,14.975092373999928"/><text class="label" font-size="11" alignment-baseline="middle" opacity="1" x="5" fill="rgb(17, 165, 121)" transform="translate(823.6199951171875, 24.9750919342041)"/></g><g class="series"><clipPath id="clip-0-1"><rect width="823" y="-10" height="563.18"/></clipPath><path class="line" opacity="1" fill="none" stroke="rgb(204, 80, 62)" stroke-width="2" transform="translate(50,10)" clip-path="url(#clip-0-1)" d="M16.46,486.2493042C21.94666666666667,485.11360535,27.433333333333334,483.97790649999996,32.92,482.7566568C38.406666666666666,481.5354071,43.89333333333333,480.0778741,49.379999999999995,478.92180599999995C54.86666666666667,477.7657378999999,60.35333333333333,476.8776385999999,65.84,475.8202481999999C71.32666666666667,474.76285779999995,76.81333333333335,473.76612249999994,82.30000000000001,472.57746359999993C87.78666666666668,471.3888046999999,93.27333333333333,469.9955479999999,98.75999999999999,468.68829479999994C104.24666666666667,467.38104159999995,109.73333333333333,466.1425911999999,115.22000000000001,464.7339443999999C120.70666666666668,463.32529759999994,126.19333333333334,461.65682969999995,131.68,460.23641399999997C137.16666666666666,458.8159983,142.65333333333334,457.59022209999995,148.14,456.21145019999994C153.62666666666667,454.83267829999994,159.11333333333334,453.49736079999997,164.60000000000002,451.96378259999994C170.08666666666667,450.4302043999999,175.57333333333335,448.82872869999994,181.06,447.0099809999999C186.54666666666665,445.1912332999999,192.03333333333333,443.29553509999994,197.51999999999998,441.05129639999996C203.00666666666666,438.8070577,208.49333333333334,436.0350291,213.98000000000002,433.5445488C219.4666666666667,431.05406849999997,224.95333333333335,428.57264119999996,230.44000000000003,426.10841459999995C235.92666666666668,423.64418799999993,241.41333333333333,421.24242709999993,246.89999999999998,418.7591891999999C252.38666666666666,416.2759512999999,257.87333333333333,413.92669779999994,263.36,411.20898719999997C268.8466666666667,408.4912766,274.3333333333333,405.284704,279.82,402.45292559999996C285.3066666666667,399.62114719999994,290.7933333333333,396.7042706,296.28,394.21831679999997C301.76666666666665,391.73236299999996,307.25333333333333,390.0557473999999,312.74,387.53720279999993C318.2266666666667,385.01865819999995,323.71333333333337,381.783116,329.20000000000005,379.1070492C334.68666666666667,376.4309824,340.17333333333335,373.9604187,345.65999999999997,371.480802C351.14666666666665,369.0011853,356.6333333333333,366.46181879999995,362.12,364.22934899999996C367.6066666666667,361.99687919999997,373.09333333333336,360.0224199,378.58000000000004,358.0859832C384.06666666666666,356.1495465,389.55333333333334,352.82075839999993,395.03999999999996,352.61072879999995C400.52666666666664,352.40069919999996,406.0133333333333,352.50571399999995,411.5,352.29568439999997C416.9866666666667,352.0856548,422.47333333333336,346.9064335,427.96000000000004,344.83782299999996C433.4466666666667,342.7692125,438.93333333333334,341.16954739999994,444.42,339.88402139999994C449.9066666666667,338.59849539999993,455.3933333333334,338.5445938379999,460.88000000000005,337.12466699999993C466.3666666666667,335.70474016199995,471.85333333333335,333.80391796399994,477.34,331.36446037199994C482.82666666666665,328.92500277999994,488.3133333333333,325.50877175299996,493.79999999999995,322.48792144799995C499.28666666666663,319.46707114299994,504.7733333333333,316.386815052,510.26,313.239358542C515.7466666666667,310.091902032,521.2333333333333,306.882532055,526.72,303.603182388C532.2066666666667,300.323832721,537.6933333333334,296.980034747,543.1800000000001,293.56326054C548.6666666666667,290.146486333,554.1533333333333,286.66251170699996,559.64,283.102537146C565.1266666666667,279.542562585,570.6133333333332,275.912572122,576.0999999999999,272.203413174C581.5866666666666,268.49425422599995,587.0733333333333,264.712173363,592.56,260.847583458C598.0466666666666,256.982993553,603.5333333333333,253.04242181899997,609.02,249.01587374399998C614.5066666666667,244.98932566899998,619.9933333333333,240.88358194999995,625.48,236.68829500799995C630.9666666666667,232.49300806599996,636.4533333333334,228.215248294,641.94,223.844152092C647.4266666666667,219.47305589,652.9133333333334,215.01600145299997,658.4000000000001,210.46171779599996C663.8866666666668,205.90743413899997,669.3733333333333,201.26358915299997,674.86,196.51845014999998C680.3466666666667,191.773311147,685.8333333333333,186.93488097899998,691.3199999999999,181.990883778C696.8066666666666,177.046886577,702.2933333333333,172.00565110300005,707.78,166.85446694400002C713.2666666666667,161.703282785,718.7533333333333,156.45083176799992,724.24,151.08377882399992C729.7266666666667,145.71672587999993,735.2133333333334,140.244124009,740.7,134.65214928C746.1866666666667,129.06017455100002,751.6733333333334,123.35824208400003,757.1600000000001,117.53193045C762.6466666666668,111.70561881600003,768.1333333333333,105.69994914600002,773.62,99.69427947600002"/><text class="label" font-size="11" alignment-baseline="middle" opacity="1" x="5" fill="rgb(204, 80, 62)" transform="translate(823.6199951171875, 109.69428253173828)"/></g></g><g id="data-points"><g class="series" transform="translate(50,10)"><path class="data-point" fill="rgb(17, 165, 121)" data-type="point" transform="translate(0, 0)" d="M13.46,486.41768999999994A3,3,0,1,1,19.46,486.41768999999994A3,3,0,1,1,13.46,486.41768999999994Z" id="point-0-0" opacity="1"/><path class="data-point" fill="rgb(17, 165, 121)" data-type="point" transform="translate(0, 0)" d="M29.92,483.64747199999994A3,3,0,1,1,35.92,483.64747199999994A3,3,0,1,1,29.92,483.64747199999994Z" id="point-0-1" opacity="1"/><path class="data-point" fill="rgb(17, 165, 121)" data-type="point" transform="translate(0, 0)" d="M46.379999999999995,481.366116A3,3,0,1,1,52.379999999999995,481.366116A3,3,0,1,1,46.379999999999995,481.366116Z" id="point-0-2" opacity="1"/><path class="data-point" fill="rgb(17, 165, 121)" data-type="point" transform="translate(0, 0)" d="M62.84,479.08475999999996A3,3,0,1,1,68.84,479.08475999999996A3,3,0,1,1,62.84,479.08475999999996Z" id="point-0-3" opacity="1"/><path class="data-point" fill="rgb(17, 165, 121)" data-type="point" transform="translate(0, 0)" d="M79.30000000000001,476.64045A3,3,0,1,1,85.30000000000001,476.64045A3,3,0,1,1,79.30000000000001,476.64045Z" id="point-0-4" opacity="1"/><path class="data-point" fill="rgb(17, 165, 121)" data-type="point" transform="translate(0, 0)" d="M95.75999999999999,473.38136999999995A3,3,0,1,1,101.75999999999999,473.38136999999995A3,3,0,1,1,95.75999999999999,473.38136999999995Z" id="point-0-5" opacity="1"/><path class="data-point" fill="rgb(17, 165, 121)" data-type="point" transform="translate(0, 0)" d="M112.22000000000001,469.30751999999995A3,3,0,1,1,118.22000000000001,469.30751999999995A3,3,0,1,1,112.22000000000001,469.30751999999995Z" id="point-0-6" opacity="1"/><path class="data-point" fill="rgb(17, 165, 121)" data-type="point" transform="translate(0, 0)" d="M128.68,458.009376A3,3,0,1,1,134.68,458.009376A3,3,0,1,1,128.68,458.009376Z" id="point-0-7" opacity="1"/><path class="data-point" fill="rgb(17, 165, 121)" data-type="point" transform="translate(0, 0)" d="M145.14,448.88395199999997A3,3,0,1,1,151.14,448.88395199999997A3,3,0,1,1,145.14,448.88395199999997Z" id="point-0-8" opacity="1"/><path class="data-point" fill="rgb(17, 165, 121)" data-type="point" transform="translate(0, 0)" d="M161.60000000000002,443.83237799999995A3,3,0,1,1,167.60000000000002,443.83237799999995A3,3,0,1,1,161.60000000000002,443.83237799999995Z" id="point-0-9" opacity="1"/><path class="data-point" fill="rgb(17, 165, 121)" data-type="point" transform="translate(0, 0)" d="M178.06,437.80307999999997A3,3,0,1,1,184.06,437.80307999999997A3,3,0,1,1,178.06,437.80307999999997Z" id="point-0-10" opacity="1"/><path class="data-point" fill="rgb(17, 165, 121)" data-type="point" transform="translate(0, 0)" d="M194.51999999999998,430.035606A3,3,0,1,1,200.51999999999998,430.035606A3,3,0,1,1,194.51999999999998,430.035606Z" id="point-0-11" opacity="1"/><path class="data-point" fill="rgb(17, 165, 121)" data-type="point" transform="translate(0, 0)" d="M210.98000000000002,425.961756A3,3,0,1,1,216.98000000000002,425.961756A3,3,0,1,1,210.98000000000002,425.961756Z" id="point-0-12" opacity="1"/><path class="data-point" fill="rgb(17, 165, 121)" data-type="point" transform="translate(0, 0)" d="M227.44000000000003,421.29040799999996A3,3,0,1,1,233.44000000000003,421.29040799999996A3,3,0,1,1,227.44000000000003,421.29040799999996Z" id="point-0-13" opacity="1"/><path class="data-point" fill="rgb(17, 165, 121)" data-type="point" transform="translate(0, 0)" d="M243.89999999999998,415.74997199999996A3,3,0,1,1,249.89999999999998,415.74997199999996A3,3,0,1,1,243.89999999999998,415.74997199999996Z" id="point-0-14" opacity="1"/><path class="data-point" fill="rgb(17, 165, 121)" data-type="point" transform="translate(0, 0)" d="M260.36,408.90590399999996A3,3,0,1,1,266.36,408.90590399999996A3,3,0,1,1,260.36,408.90590399999996Z" id="point-0-15" opacity="1"/><path class="data-point" fill="rgb(17, 165, 121)" data-type="point" transform="translate(0, 0)" d="M276.82,391.90437A3,3,0,1,1,282.82,391.90437A3,3,0,1,1,276.82,391.90437Z" id="point-0-16" opacity="1"/><path class="data-point" fill="rgb(17, 165, 121)" data-type="point" transform="translate(0, 0)" d="M293.28,382.23576599999996A3,3,0,1,1,299.28,382.23576599999996A3,3,0,1,1,293.28,382.23576599999996Z" id="point-0-17" opacity="1"/><path class="data-point" fill="rgb(17, 165, 121)" data-type="point" transform="translate(0, 0)" d="M309.74,377.673054A3,3,0,1,1,315.74,377.673054A3,3,0,1,1,309.74,377.673054Z" id="point-0-18" opacity="1"/><path class="data-point" fill="rgb(17, 165, 121)" data-type="point" transform="translate(0, 0)" d="M326.20000000000005,369.95989799999995A3,3,0,1,1,332.20000000000005,369.95989799999995A3,3,0,1,1,326.20000000000005,369.95989799999995Z" id="point-0-19" opacity="1"/><path class="data-point" fill="rgb(17, 165, 121)" data-type="point" transform="translate(0, 0)" d="M342.65999999999997,361.26901799999996A3,3,0,1,1,348.65999999999997,361.26901799999996A3,3,0,1,1,342.65999999999997,361.26901799999996Z" id="point-0-20" opacity="1"/><path class="data-point" fill="rgb(17, 165, 121)" data-type="point" transform="translate(0, 0)" d="M359.12,354.42494999999997A3,3,0,1,1,365.12,354.42494999999997A3,3,0,1,1,359.12,354.42494999999997Z" id="point-0-21" opacity="1"/><path class="data-point" fill="rgb(17, 165, 121)" data-type="point" transform="translate(0, 0)" d="M375.58000000000004,348.61292399999996A3,3,0,1,1,381.58000000000004,348.61292399999996A3,3,0,1,1,375.58000000000004,348.61292399999996Z" id="point-0-22" opacity="1"/><path class="data-point" fill="rgb(17, 165, 121)" data-type="point" transform="translate(0, 0)" d="M392.03999999999996,342.60535319999997A3,3,0,1,1,398.03999999999996,342.60535319999997A3,3,0,1,1,392.03999999999996,342.60535319999997Z" id="point-0-23" opacity="1"/><path class="data-point" fill="rgb(17, 165, 121)" data-type="point" transform="translate(0, 0)" d="M408.5,336.38051039999993A3,3,0,1,1,414.5,336.38051039999993A3,3,0,1,1,408.5,336.38051039999993Z" id="point-0-24" opacity="1"/><path class="data-point" fill="rgb(17, 165, 121)" data-type="point" transform="translate(0, 0)" d="M424.96000000000004,329.9383956A3,3,0,1,1,430.96000000000004,329.9383956A3,3,0,1,1,424.96000000000004,329.9383956Z" id="point-0-25" opacity="1"/><path class="data-point" fill="rgb(17, 165, 121)" data-type="point" transform="translate(0, 0)" d="M441.42,322.71410159999994A3,3,0,1,1,447.42,322.71410159999994A3,3,0,1,1,441.42,322.71410159999994Z" id="point-0-26" opacity="1"/><path class="data-point" fill="rgb(17, 165, 121)" data-type="point" transform="translate(0, 0)" d="M457.88000000000005,314.120994A3,3,0,1,1,463.88000000000005,314.120994A3,3,0,1,1,457.88000000000005,314.120994Z" id="point-0-27" opacity="1"/><path class="data-point" fill="rgb(17, 165, 121)" data-type="point" transform="translate(0, 0)" d="M474.34,312.338929056A3,3,0,1,1,480.34,312.338929056A3,3,0,1,1,474.34,312.338929056Z" id="point-0-28" opacity="1"/><path class="data-point" fill="rgb(17, 165, 121)" data-type="point" transform="translate(0, 0)" d="M490.79999999999995,301.47554632799995A3,3,0,1,1,496.79999999999995,301.47554632799995A3,3,0,1,1,490.79999999999995,301.47554632799995Z" id="point-0-29" opacity="1"/><path class="data-point" fill="rgb(17, 165, 121)" data-type="point" transform="translate(0, 0)" d="M507.26,290.100868266A3,3,0,1,1,513.26,290.100868266A3,3,0,1,1,507.26,290.100868266Z" id="point-0-30" opacity="1"/><path class="data-point" fill="rgb(17, 165, 121)" data-type="point" transform="translate(0, 0)" d="M523.72,278.1909406319999A3,3,0,1,1,529.72,278.1909406319999A3,3,0,1,1,523.72,278.1909406319999Z" id="point-0-31" opacity="1"/><path class="data-point" fill="rgb(17, 165, 121)" data-type="point" transform="translate(0, 0)" d="M540.1800000000001,265.720505556A3,3,0,1,1,546.1800000000001,265.720505556A3,3,0,1,1,540.1800000000001,265.720505556Z" id="point-0-32" opacity="1"/><path class="data-point" fill="rgb(17, 165, 121)" data-type="point" transform="translate(0, 0)" d="M556.64,252.66321880799995A3,3,0,1,1,562.64,252.66321880799995A3,3,0,1,1,556.64,252.66321880799995Z" id="point-0-33" opacity="1"/><path class="data-point" fill="rgb(17, 165, 121)" data-type="point" transform="translate(0, 0)" d="M573.0999999999999,238.99143252599998A3,3,0,1,1,579.0999999999999,238.99143252599998A3,3,0,1,1,573.0999999999999,238.99143252599998Z" id="point-0-34" opacity="1"/><path class="data-point" fill="rgb(17, 165, 121)" data-type="point" transform="translate(0, 0)" d="M589.56,224.676303852A3,3,0,1,1,595.56,224.676303852A3,3,0,1,1,589.56,224.676303852Z" id="point-0-35" opacity="1"/><path class="data-point" fill="rgb(17, 165, 121)" data-type="point" transform="translate(0, 0)" d="M606.02,209.68746902399994A3,3,0,1,1,612.02,209.68746902399994A3,3,0,1,1,606.02,209.68746902399994Z" id="point-0-36" opacity="1"/><path class="data-point" fill="rgb(17, 165, 121)" data-type="point" transform="translate(0, 0)" d="M622.48,193.993260648A3,3,0,1,1,628.48,193.993260648A3,3,0,1,1,622.48,193.993260648Z" id="point-0-37" opacity="1"/><path class="data-point" fill="rgb(17, 165, 121)" data-type="point" transform="translate(0, 0)" d="M638.94,177.56049042600006A3,3,0,1,1,644.94,177.56049042600006A3,3,0,1,1,638.94,177.56049042600006Z" id="point-0-38" opacity="1"/><path class="data-point" fill="rgb(17, 165, 121)" data-type="point" transform="translate(0, 0)" d="M655.4000000000001,160.35434052A3,3,0,1,1,661.4000000000001,160.35434052A3,3,0,1,1,655.4000000000001,160.35434052Z" id="point-0-39" opacity="1"/><path class="data-point" fill="rgb(17, 165, 121)" data-type="point" transform="translate(0, 0)" d="M671.86,142.338526506A3,3,0,1,1,677.86,142.338526506A3,3,0,1,1,671.86,142.338526506Z" id="point-0-40" opacity="1"/><path class="data-point" fill="rgb(17, 165, 121)" data-type="point" transform="translate(0, 0)" d="M688.3199999999999,123.47486283000006A3,3,0,1,1,694.3199999999999,123.47486283000006A3,3,0,1,1,688.3199999999999,123.47486283000006Z" id="point-0-41" opacity="1"/><path class="data-point" fill="rgb(17, 165, 121)" data-type="point" transform="translate(0, 0)" d="M704.78,103.72348008A3,3,0,1,1,710.78,103.72348008A3,3,0,1,1,704.78,103.72348008Z" id="point-0-42" opacity="1"/><path class="data-point" fill="rgb(17, 165, 121)" data-type="point" transform="translate(0, 0)" d="M721.24,83.04260771399993A3,3,0,1,1,727.24,83.04260771399993A3,3,0,1,1,721.24,83.04260771399993Z" id="point-0-43" opacity="1"/><path class="data-point" fill="rgb(17, 165, 121)" data-type="point" transform="translate(0, 0)" d="M737.7,61.388465423999946A3,3,0,1,1,743.7,61.388465423999946A3,3,0,1,1,737.7,61.388465423999946Z" id="point-0-44" opacity="1"/><path class="data-point" fill="rgb(17, 165, 121)" data-type="point" transform="translate(0, 0)" d="M754.1600000000001,38.71526313600003A3,3,0,1,1,760.1600000000001,38.71526313600003A3,3,0,1,1,754.1600000000001,38.71526313600003Z" id="point-0-45" opacity="1"/><path class="data-point" fill="#11A579" data-type="point" transform="translate(0, 0)" d="M770.62,14.975092373999928A3,3,0,1,1,776.62,14.975092373999928A3,3,0,1,1,770.62,14.975092373999928Z" id="point-0-46" opacity="1"/></g><g class="series" transform="translate(50,10)"><path class="data-point" fill="rgb(204, 80, 62)" data-type="point" transform="translate(0, 0)" d="M13.46,486.2493042A3,3,0,1,1,19.46,486.2493042A3,3,0,1,1,13.46,486.2493042Z" id="point-1-0" opacity="1"/><path class="data-point" fill="rgb(204, 80, 62)" data-type="point" transform="translate(0, 0)" d="M29.92,482.7566568A3,3,0,1,1,35.92,482.7566568A3,3,0,1,1,29.92,482.7566568Z" id="point-1-1" opacity="1"/><path class="data-point" fill="rgb(204, 80, 62)" data-type="point" transform="translate(0, 0)" d="M46.379999999999995,478.92180599999995A3,3,0,1,1,52.379999999999995,478.92180599999995A3,3,0,1,1,46.379999999999995,478.92180599999995Z" id="point-1-2" opacity="1"/><path class="data-point" fill="rgb(204, 80, 62)" data-type="point" transform="translate(0, 0)" d="M62.84,475.8202481999999A3,3,0,1,1,68.84,475.8202481999999A3,3,0,1,1,62.84,475.8202481999999Z" id="point-1-3" opacity="1"/><path class="data-point" fill="rgb(204, 80, 62)" data-type="point" transform="translate(0, 0)" d="M79.30000000000001,472.57746359999993A3,3,0,1,1,85.30000000000001,472.57746359999993A3,3,0,1,1,79.30000000000001,472.57746359999993Z" id="point-1-4" opacity="1"/><path class="data-point" fill="rgb(204, 80, 62)" data-type="point" transform="translate(0, 0)" d="M95.75999999999999,468.68829479999994A3,3,0,1,1,101.75999999999999,468.68829479999994A3,3,0,1,1,95.75999999999999,468.68829479999994Z" id="point-1-5" opacity="1"/><path class="data-point" fill="rgb(204, 80, 62)" data-type="point" transform="translate(0, 0)" d="M112.22000000000001,464.7339443999999A3,3,0,1,1,118.22000000000001,464.7339443999999A3,3,0,1,1,112.22000000000001,464.7339443999999Z" id="point-1-6" opacity="1"/><path class="data-point" fill="rgb(204, 80, 62)" data-type="point" transform="translate(0, 0)" d="M128.68,460.23641399999997A3,3,0,1,1,134.68,460.23641399999997A3,3,0,1,1,128.68,460.23641399999997Z" id="point-1-7" opacity="1"/><path class="data-point" fill="rgb(204, 80, 62)" data-type="point" transform="translate(0, 0)" d="M145.14,456.21145019999994A3,3,0,1,1,151.14,456.21145019999994A3,3,0,1,1,145.14,456.21145019999994Z" id="point-1-8" opacity="1"/><path class="data-point" fill="rgb(204, 80, 62)" data-type="point" transform="translate(0, 0)" d="M161.60000000000002,451.96378259999994A3,3,0,1,1,167.60000000000002,451.96378259999994A3,3,0,1,1,161.60000000000002,451.96378259999994Z" id="point-1-9" opacity="1"/><path class="data-point" fill="rgb(204, 80, 62)" data-type="point" transform="translate(0, 0)" d="M178.06,447.0099809999999A3,3,0,1,1,184.06,447.0099809999999A3,3,0,1,1,178.06,447.0099809999999Z" id="point-1-10" opacity="1"/><path class="data-point" fill="rgb(204, 80, 62)" data-type="point" transform="translate(0, 0)" d="M194.51999999999998,441.05129639999996A3,3,0,1,1,200.51999999999998,441.05129639999996A3,3,0,1,1,194.51999999999998,441.05129639999996Z" id="point-1-11" opacity="1"/><path class="data-point" fill="rgb(204, 80, 62)" data-type="point" transform="translate(0, 0)" d="M210.98000000000002,433.5445488A3,3,0,1,1,216.98000000000002,433.5445488A3,3,0,1,1,210.98000000000002,433.5445488Z" id="point-1-12" opacity="1"/><path class="data-point" fill="rgb(204, 80, 62)" data-type="point" transform="translate(0, 0)" d="M227.44000000000003,426.10841459999995A3,3,0,1,1,233.44000000000003,426.10841459999995A3,3,0,1,1,227.44000000000003,426.10841459999995Z" id="point-1-13" opacity="1"/><path class="data-point" fill="rgb(204, 80, 62)" data-type="point" transform="translate(0, 0)" d="M243.89999999999998,418.7591891999999A3,3,0,1,1,249.89999999999998,418.7591891999999A3,3,0,1,1,243.89999999999998,418.7591891999999Z" id="point-1-14" opacity="1"/><path class="data-point" fill="rgb(204, 80, 62)" data-type="point" transform="translate(0, 0)" d="M260.36,411.20898719999997A3,3,0,1,1,266.36,411.20898719999997A3,3,0,1,1,260.36,411.20898719999997Z" id="point-1-15" opacity="1"/><path class="data-point" fill="rgb(204, 80, 62)" data-type="point" transform="translate(0, 0)" d="M276.82,402.45292559999996A3,3,0,1,1,282.82,402.45292559999996A3,3,0,1,1,276.82,402.45292559999996Z" id="point-1-16" opacity="1"/><path class="data-point" fill="rgb(204, 80, 62)" data-type="point" transform="translate(0, 0)" d="M293.28,394.21831679999997A3,3,0,1,1,299.28,394.21831679999997A3,3,0,1,1,293.28,394.21831679999997Z" id="point-1-17" opacity="1"/><path class="data-point" fill="rgb(204, 80, 62)" data-type="point" transform="translate(0, 0)" d="M309.74,387.53720279999993A3,3,0,1,1,315.74,387.53720279999993A3,3,0,1,1,309.74,387.53720279999993Z" id="point-1-18" opacity="1"/><path class="data-point" fill="rgb(204, 80, 62)" data-type="point" transform="translate(0, 0)" d="M326.20000000000005,379.1070492A3,3,0,1,1,332.20000000000005,379.1070492A3,3,0,1,1,326.20000000000005,379.1070492Z" id="point-1-19" opacity="1"/><path class="data-point" fill="rgb(204, 80, 62)" data-type="point" transform="translate(0, 0)" d="M342.65999999999997,371.480802A3,3,0,1,1,348.65999999999997,371.480802A3,3,0,1,1,342.65999999999997,371.480802Z" id="point-1-20" opacity="1"/><path class="data-point" fill="rgb(204, 80, 62)" data-type="point" transform="translate(0, 0)" d="M359.12,364.22934899999996A3,3,0,1,1,365.12,364.22934899999996A3,3,0,1,1,359.12,364.22934899999996Z" id="point-1-21" opacity="1"/><path class="data-point" fill="rgb(204, 80, 62)" data-type="point" transform="translate(0, 0)" d="M375.58000000000004,358.0859832A3,3,0,1,1,381.58000000000004,358.0859832A3,3,0,1,1,375.58000000000004,358.0859832Z" id="point-1-22" opacity="1"/><path class="data-point" fill="rgb(204, 80, 62)" data-type="point" transform="translate(0, 0)" d="M392.03999999999996,352.61072879999995A3,3,0,1,1,398.03999999999996,352.61072879999995A3,3,0,1,1,392.03999999999996,352.61072879999995Z" id="point-1-23" opacity="1"/><path class="data-point" fill="rgb(204, 80, 62)" data-type="point" transform="translate(0, 0)" d="M408.5,352.29568439999997A3,3,0,1,1,414.5,352.29568439999997A3,3,0,1,1,408.5,352.29568439999997Z" id="point-1-24" opacity="1"/><path class="data-point" fill="rgb(204, 80, 62)" data-type="point" transform="translate(0, 0)" d="M424.96000000000004,344.83782299999996A3,3,0,1,1,430.96000000000004,344.83782299999996A3,3,0,1,1,424.96000000000004,344.83782299999996Z" id="point-1-25" opacity="1"/><path class="data-point" fill="rgb(204, 80, 62)" data-type="point" transform="translate(0, 0)" d="M441.42,339.88402139999994A3,3,0,1,1,447.42,339.88402139999994A3,3,0,1,1,441.42,339.88402139999994Z" id="point-1-26" opacity="1"/><path class="data-point" fill="rgb(204, 80, 62)" data-type="point" transform="translate(0, 0)" d="M457.88000000000005,337.12466699999993A3,3,0,1,1,463.88000000000005,337.12466699999993A3,3,0,1,1,457.88000000000005,337.12466699999993Z" id="point-1-27" opacity="1"/><path class="data-point" fill="rgb(204, 80, 62)" data-type="point" transform="translate(0, 0)" d="M474.34,331.36446037199994A3,3,0,1,1,480.34,331.36446037199994A3,3,0,1,1,474.34,331.36446037199994Z" id="point-1-28" opacity="1"/><path class="data-point" fill="rgb(204, 80, 62)" data-type="point" transform="translate(0, 0)" d="M490.79999999999995,322.48792144799995A3,3,0,1,1,496.79999999999995,322.48792144799995A3,3,0,1,1,490.79999999999995,322.48792144799995Z" id="point-1-29" opacity="1"/><path class="data-point" fill="rgb(204, 80, 62)" data-type="point" transform="translate(0, 0)" d="M507.26,313.239358542A3,3,0,1,1,513.26,313.239358542A3,3,0,1,1,507.26,313.239358542Z" id="point-1-30" opacity="1"/><path class="data-point" fill="rgb(204, 80, 62)" data-type="point" transform="translate(0, 0)" d="M523.72,303.603182388A3,3,0,1,1,529.72,303.603182388A3,3,0,1,1,523.72,303.603182388Z" id="point-1-31" opacity="1"/><path class="data-point" fill="rgb(204, 80, 62)" data-type="point" transform="translate(0, 0)" d="M540.1800000000001,293.56326054A3,3,0,1,1,546.1800000000001,293.56326054A3,3,0,1,1,540.1800000000001,293.56326054Z" id="point-1-32" opacity="1"/><path class="data-point" fill="rgb(204, 80, 62)" data-type="point" transform="translate(0, 0)" d="M556.64,283.102537146A3,3,0,1,1,562.64,283.102537146A3,3,0,1,1,556.64,283.102537146Z" id="point-1-33" opacity="1"/><path class="data-point" fill="rgb(204, 80, 62)" data-type="point" transform="translate(0, 0)" d="M573.0999999999999,272.203413174A3,3,0,1,1,579.0999999999999,272.203413174A3,3,0,1,1,573.0999999999999,272.203413174Z" id="point-1-34" opacity="1"/><path class="data-point" fill="rgb(204, 80, 62)" data-type="point" transform="translate(0, 0)" d="M589.56,260.847583458A3,3,0,1,1,595.56,260.847583458A3,3,0,1,1,589.56,260.847583458Z" id="point-1-35" opacity="1"/><path class="data-point" fill="rgb(204, 80, 62)" data-type="point" transform="translate(0, 0)" d="M606.02,249.01587374399998A3,3,0,1,1,612.02,249.01587374399998A3,3,0,1,1,606.02,249.01587374399998Z" id="point-1-36" opacity="1"/><path class="data-point" fill="rgb(204, 80, 62)" data-type="point" transform="translate(0, 0)" d="M622.48,236.68829500799995A3,3,0,1,1,628.48,236.68829500799995A3,3,0,1,1,622.48,236.68829500799995Z" id="point-1-37" opacity="1"/><path class="data-point" fill="rgb(204, 80, 62)" data-type="point" transform="translate(0, 0)" d="M638.94,223.844152092A3,3,0,1,1,644.94,223.844152092A3,3,0,1,1,638.94,223.844152092Z" id="point-1-38" opacity="1"/><path class="data-point" fill="rgb(204, 80, 62)" data-type="point" transform="translate(0, 0)" d="M655.4000000000001,210.46171779599996A3,3,0,1,1,661.4000000000001,210.46171779599996A3,3,0,1,1,655.4000000000001,210.46171779599996Z" id="point-1-39" opacity="1"/><path class="data-point" fill="rgb(204, 80, 62)" data-type="point" transform="translate(0, 0)" d="M671.86,196.51845014999998A3,3,0,1,1,677.86,196.51845014999998A3,3,0,1,1,671.86,196.51845014999998Z" id="point-1-40" opacity="1"/><path class="data-point" fill="rgb(204, 80, 62)" data-type="point" transform="translate(0, 0)" d="M688.3199999999999,181.990883778A3,3,0,1,1,694.3199999999999,181.990883778A3,3,0,1,1,688.3199999999999,181.990883778Z" id="point-1-41" opacity="1"/><path class="data-point" fill="rgb(204, 80, 62)" data-type="point" transform="translate(0, 0)" d="M704.78,166.85446694400002A3,3,0,1,1,710.78,166.85446694400002A3,3,0,1,1,704.78,166.85446694400002Z" id="point-1-42" opacity="1"/><path class="data-point" fill="rgb(204, 80, 62)" data-type="point" transform="translate(0, 0)" d="M721.24,151.08377882399992A3,3,0,1,1,727.24,151.08377882399992A3,3,0,1,1,721.24,151.08377882399992Z" id="point-1-43" opacity="1"/><path class="data-point" fill="rgb(204, 80, 62)" data-type="point" transform="translate(0, 0)" d="M737.7,134.65214928A3,3,0,1,1,743.7,134.65214928A3,3,0,1,1,737.7,134.65214928Z" id="point-1-44" opacity="1"/><path class="data-point" fill="rgb(204, 80, 62)" data-type="point" transform="translate(0, 0)" d="M754.1600000000001,117.53193045A3,3,0,1,1,760.1600000000001,117.53193045A3,3,0,1,1,754.1600000000001,117.53193045Z" id="point-1-45" opacity="1"/><path class="data-point" fill="rgb(204, 80, 62)" data-type="point" transform="translate(0, 0)" d="M770.62,99.69427947600002A3,3,0,1,1,776.62,99.69427947600002A3,3,0,1,1,770.62,99.69427947600002Z" id="point-1-46" opacity="1"/></g></g><g id="data-labels"/><g class="annotations above"><g class="axis-highlights" transform="translate(50, 10)" style="opacity: 1;"/></g></svg>