<svg xmlns="http://www.w3.org/2000/svg" id="graphic" width="961" height="634.6"><g id="facets"><g class="facet" transform="translate(15,20)" opacity="1"><text class="facet-title" y="0" font-size="16" font-weight="bold" dominant-baseline="middle" x="0" clip-path="url(#facet-clip-0)" fill="black"/><g class="plot"><clipPath class="facet-clip" id="facet-clip-0"><rect width="951" height="581.6" transform="translate(-7.5,-10)"/></clipPath><g class="bg"><rect fill="none" width="936" height="561.6" style="fill: none;"/></g><g class="interaction"><g class="series"><path data-target="point-0-0" d="M75.78697600000011,561.6L66.6468307,499.10328L0,499.10328L0,561.6Z" style="opacity: 0;"/><path data-target="point-0-1" d="M66.6468307,499.10328L75.78697600000011,561.6L99.22486523214278,561.6L84.44332006785714,495.78671999999995L67.236971095,495.78671999999995Z" style="opacity: 0;"/><path data-target="point-0-2" d="M84.44332006785714,495.78671999999995L99.22486523214278,561.6L116.34150562500008,561.6L102.32019428571428,491.5716L85.19041245285715,491.5716Z" style="opacity: 0;"/><path data-target="point-0-3" d="M102.32019428571428,491.5716L116.34150562500008,561.6L136.13247142857128,561.6L120.24191084285714,487.99608L103.11702445714285,487.99608Z" style="opacity: 0;"/><path data-target="point-0-4" d="M120.24191084285714,487.99608L136.13247142857128,561.6L151.66232857142862,561.6L138.18626857142857,484.19903999999997L121.02332133357142,484.19904Z" style="opacity: 0;"/><path data-target="point-0-5" d="M138.18626857142857,484.19903999999997L151.66232857142862,561.6L176.30167199999994,561.6L155.94495565714286,480.40512L139.09518340571427,480.40512Z" style="opacity: 0;"/><path data-target="point-0-6" d="M155.94495565714286,480.40512L176.30167199999994,561.6L188.82777142857145,561.6L173.90458857142858,475.88736L157.02098927999998,475.88736Z" style="opacity: 0;"/><path data-target="point-0-7" d="M173.90458857142858,475.88736L188.82777142857145,561.6L207.29098571428574,561.6L191.6464142857143,471.744L175.22040132571428,471.744Z" style="opacity: 0;"/><path data-target="point-0-8" d="M191.6464142857143,471.744L207.29098571428574,561.6L228.28688228571448,561.6L209.35718987142855,467.87208L193.31825402857143,467.87208Z" style="opacity: 0;"/><path data-target="point-0-9" d="M209.35718987142855,467.87208L228.28688228571448,561.6L250.91415999999995,561.6L227.0321785,463.62263999999993L211.43027158714284,463.62263999999993Z" style="opacity: 0;"/><path data-target="point-0-10" d="M227.0321785,463.62263999999993L250.91415999999995,561.6L282.7410160892857,561.6L244.54112824999999,458.59319999999997L229.62939029714283,458.59319999999997Z" style="opacity: 0;"/><path data-target="point-0-11" d="M244.54112824999999,458.59319999999997L282.7410160892857,561.6L301.61147812499973,561.6L262.43874782142854,451.84775999999994L247.66511014999998,451.84776Z" style="opacity: 0;"/><path data-target="point-0-12" d="M262.43874782142854,451.84775999999994L301.61147812499973,561.6L314.3261750350002,561.6L280.1495136292857,444.33792L266.1050248885714,444.33792Z" style="opacity: 0;"/><path data-target="point-0-13" d="M280.1495136292857,444.33792L314.3261750350002,561.6L357.5743689649997,561.6L296.92409198642855,437.4552L284.8158134307143,437.4552Z" style="opacity: 0;"/><path data-target="point-0-14" d="M296.92409198642855,437.4552L357.5743689649997,561.6L384.6762863571432,561.6L314.8792694571428,428.85648000000003L302.6519911207143,428.85648000000003Z" style="opacity: 0;"/><path data-target="point-0-15" d="M314.8792694571428,428.85648000000003L384.6762863571432,561.6L402.00071599214243,561.6L333.02547149071427,419.80848L320.4117983142857,419.80848Z" style="opacity: 0;"/><path data-target="point-0-16" d="M333.02547149071427,419.80848L402.00071599214243,561.6L427.49374705535735,561.6L418.18047472490434,540.2970866441865L350.56922280714286,410.4204L338.74306367714286,410.4204Z" style="opacity: 0;"/><path data-target="point-0-17" d="M350.56922280714286,410.4204L418.18047472490434,540.2970866441865L368.90838216,401.02608L356.67334998285713,401.02608Z" style="opacity: 0;"/><path data-target="point-0-18" d="M368.90838216,401.02608L418.18047472490434,540.2970866441865L427.49374705535735,561.6L489.9432737560714,561.6L472.5915954903004,530.0916467526553L385.9288334264285,394.01856L374.68170269999996,394.01856Z" style="opacity: 0;"/><path data-target="point-0-19" d="M385.9288334264285,394.01856L472.5915954903004,530.0916467526553L404.48314800714286,383.46984L392.41940433142855,383.46984Z" style="opacity: 0;"/><path data-target="point-0-20" d="M404.48314800714286,383.46984L472.5915954903004,530.0916467526553L489.9432737560714,561.6L499.4744101404286,561.6L490.5539002847192,518.4867814583947L469.6451184519468,455.8085638771489L422.16058327285714,374.92728L410.38781124285714,374.92728Z" style="opacity: 0;"/><path data-target="point-0-21" d="M422.16058327285714,374.92728L469.6451184519468,455.8085638771489L461.12,414.59241665198977L440.81224728571425,365.50176L427.7500007892857,365.50176Z" style="opacity: 0;"/><path data-target="point-0-22" d="M440.81224728571425,365.50176L461.12,414.59241665198977L461.12,358.26648L445.4731888214285,358.26648Z" style="opacity: 0;"/><path data-target="point-0-23" d="M461.12,358.26648L461.12,414.59241665198977L469.6451184519468,455.8085638771489L490.5539002847192,518.4867814583947L488.7696269429778,412.8359148049259L476.85211972285714,355.12152L464.38455272,355.12152Z" style="opacity: 0;"/><path data-target="point-0-24" d="M476.85211972285714,355.12152L488.7696269429778,412.8359148049259L499.0885308571428,353.0904L479.2539916628571,353.0904Z" style="opacity: 0;"/><path data-target="point-0-25" d="M488.7696269429778,412.8359148049259L490.5539002847192,518.4867814583947L499.4744101404286,561.6L607.6713392307918,561.6L594.4435963623487,525.4738541283642L550.2453666838104,421.476927185932L508.19276053571434,350.35416L502.85208239285714,350.35416L499.0885308571428,353.0904Z" style="opacity: 0;"/><path data-target="point-0-26" d="M508.19276053571434,350.35416L550.2453666838104,421.476927185932L529.73742087,342.21096L518.4717328571428,342.21096Z" style="opacity: 0;"/><path data-target="point-0-27" d="M529.73742087,342.21096L550.2453666838104,421.476927185932L594.4435963623487,525.4738541283642L547.9381267846617,338.30784L534.8939302800001,338.30784Z" style="opacity: 0;"/><path data-target="point-0-28" d="M547.9381267846617,338.30784L594.4435963623487,525.4738541283642L607.6713392307918,561.6L684.6697708214236,561.6L563.4711897822554,332.772898L554.8542919398946,332.772898Z" style="opacity: 0;"/><path data-target="point-0-29" d="M563.4711897822554,332.772898L684.6697708214236,561.6L713.0957868179443,561.6L581.0832680991,322.92858L574.1932473911455,322.92857999999995Z" style="opacity: 0;"/><path data-target="point-0-30" d="M581.0832680991,322.92858L713.0957868179443,561.6L742.4701629367137,561.6L598.6816475209976,312.66034799999994L592.4306179377858,312.66034799999994Z" style="opacity: 0;"/><path data-target="point-0-31" d="M598.6816475209976,312.66034799999994L742.4701629367137,561.6L772.8836964894022,561.6L616.2661604984396,301.950043L610.681290354977,301.950043Z" style="opacity: 0;"/><path data-target="point-0-32" d="M616.2661604984396,301.950043L772.8836964894022,561.6L804.4261882524555,561.6L633.8370745553076,290.7786025L628.9450566020024,290.7786025Z" style="opacity: 0;"/><path data-target="point-0-33" d="M633.8370745553076,290.7786025L804.4261882524555,561.6L837.2041107423815,561.6L651.3944525562376,279.1261515L647.2218769784237,279.1261515Z" style="opacity: 0;"/><path data-target="point-0-34" d="M651.3944525562376,279.1261515L837.2041107423815,561.6L871.3254065813908,561.6L668.9387953839862,266.9719105L665.5113084389634,266.9719105Z" style="opacity: 0;"/><path data-target="point-0-35" d="M668.9387953839862,266.9719105L871.3254065813908,561.6L906.9150172491716,561.6L686.4705968128225,254.29435199999998L683.812859038769,254.29435199999998Z" style="opacity: 0;"/><path data-target="point-0-36" d="M686.4705968128225,254.29435199999998L906.9150172491716,561.6L936,561.6L936,550.7827482025516L703.9906736239401,241.070856L702.1258575692256,241.070856Z" style="opacity: 0;"/><path data-target="point-0-37" d="M703.9906736239401,241.070856L936,550.7827482025516L936,501.4737101000041L721.499966745147,227.2778975L720.4494615598496,227.2778975Z" style="opacity: 0;"/><path data-target="point-0-38" d="M721.499966745147,227.2778975L936,501.4737101000041L936,454.0375218782059L738.9997774538879,212.89098499999997L738.7824782096908,212.89098499999997Z" style="opacity: 0;"/><path data-target="point-0-39" d="M738.9997774538879,212.89098499999997L936,454.0375218782059L936,408.3006226083236L756.753242168978,198.19111072970233Z" style="opacity: 0;"/><path data-target="point-0-40" d="M756.753242168978,198.19111072970233L936,408.3006226083236L936,364.09703509155906L774.6100873081245,182.94167786866916L756.8617302853224,197.5792515292294Z" style="opacity: 0;"/><path data-target="point-0-41" d="M774.6100873081245,182.94167786866916L936,364.09703509155906L936,321.2666303916527L792.4842453918883,167.00584601259996L774.8381315789144,181.52361611931295Z" style="opacity: 0;"/><path data-target="point-0-42" d="M792.4842453918883,167.00584601259996L936,321.2666303916527L936,279.65458273485433L810.377632848237,150.35303083904924L792.7980862430751,164.80452559750313Z" style="opacity: 0;"/><path data-target="point-0-43" d="M810.377632848237,150.35303083904924L936,279.65458273485433L936,239.11205424957757L828.2921469798481,132.95107685940812L810.7399300144191,147.39436878907762Z" style="opacity: 0;"/><path data-target="point-0-44" d="M828.2921469798481,132.95107685940812L936,239.11205424957757L936,199.49515260531666L846.2296245067333,114.76624632728034L828.6620340433856,129.26472890437722Z" style="opacity: 0;"/><path data-target="point-0-45" d="M846.2296245067333,114.76624632728034L936,199.49515260531666L936,160.66436031787703L864.1917313421679,95.7630833057532L846.5629248064346,110.38600675626894Z" style="opacity: 0;"/><path data-target="point-0-46" d="M864.1917313421679,95.7630833057532L936,160.66436031787703L936,73.09573449999999L885.5407696265639,73.0957345L864.4413246316734,90.72774274490986Z" style="opacity: 0;"/><path data-target="point-1-0" d="M0,499.10328L66.6468307,499.10328L67.236971095,495.78671999999995L0,195.49000338158368Z" style="opacity: 0;"/><path data-target="point-1-1" d="M0,195.49000338158368L67.236971095,495.78671999999995L84.44332006785714,495.78671999999995L85.19041245285715,491.5716L0,145.04271953512034Z" style="opacity: 0;"/><path data-target="point-1-2" d="M0,145.04271953512034L85.19041245285715,491.5716L102.32019428571428,491.5716L103.11702445714285,487.99608L6.08858958642854,0L0,0Z" style="opacity: 0;"/><path data-target="point-1-3" d="M6.08858958642854,0L103.11702445714285,487.99608L120.24191084285714,487.99608L121.02332133357142,484.19904L25.614856854769783,25.24838838183257L19.843007641071104,0Z" style="opacity: 0;"/><path data-target="point-1-4" d="M25.614856854769783,25.24838838183257L121.02332133357142,484.19904L138.18626857142857,484.19903999999997L139.09518340571427,480.40512Z" style="opacity: 0;"/><path data-target="point-1-5" d="M19.843007641071104,0L25.614856854769783,25.24838838183257L139.09518340571427,480.40512L155.94495565714286,480.40512L157.02098927999998,475.88736L36.383543520000785,0Z" style="opacity: 0;"/><path data-target="point-1-6" d="M36.383543520000785,0L157.02098927999998,475.88736L173.90458857142858,475.88736L175.22040132571428,471.744L39.20649732571425,0Z" style="opacity: 0;"/><path data-target="point-1-7" d="M39.20649732571425,0L175.22040132571428,471.744L191.6464142857143,471.744L193.31825402857143,467.87208L72.59472510071365,0Z" style="opacity: 0;"/><path data-target="point-1-8" d="M72.59472510071365,0L193.31825402857143,467.87208L209.35718987142855,467.87208L211.43027158714284,463.62263999999993L118.27555564022735,121.52387332498807L74.12902480982152,0Z" style="opacity: 0;"/><path data-target="point-1-9" d="M118.27555564022735,121.52387332498807L211.43027158714284,463.62263999999993L227.0321785,463.62263999999993L229.62939029714283,458.59319999999997L140.59013238939124,178.2176690264231Z" style="opacity: 0;"/><path data-target="point-1-10" d="M140.59013238939124,178.2176690264231L229.62939029714283,458.59319999999997L244.54112824999999,458.59319999999997L247.66511014999998,451.84776L162.77697480153833,229.62231627170345Z" style="opacity: 0;"/><path data-target="point-1-11" d="M162.77697480153833,229.62231627170345L247.66511014999998,451.84776L262.43874782142854,451.84775999999994L266.1050248885714,444.33792Z" style="opacity: 0;"/><path data-target="point-1-12" d="M74.12902480982152,0L118.27555564022735,121.52387332498807L140.59013238939124,178.2176690264231L162.77697480153833,229.62231627170345L266.1050248885714,444.33792L280.1495136292857,444.33792L284.8158134307143,437.4552L76.27857608071355,0Z" style="opacity: 0;"/><path data-target="point-1-13" d="M76.27857608071355,0L284.8158134307143,437.4552L296.92409198642855,437.4552L302.6519911207143,428.85648000000003L100.60315290500128,-5.684341886080802e-14Z" style="opacity: 0;"/><path data-target="point-1-14" d="M100.60315290500128,-5.684341886080802e-14L302.6519911207143,428.85648000000003L314.8792694571428,428.85648000000003L320.4117983142857,419.80848L172.63979733409852,114.50569251095942L112.79114792428545,-1.4210854715202004e-14Z" style="opacity: 0;"/><path data-target="point-1-15" d="M172.63979733409852,114.50569251095942L320.4117983142857,419.80848L333.02547149071427,419.80848L338.74306367714286,410.4204Z" style="opacity: 0;"/><path data-target="point-1-16" d="M112.79114792428545,-1.4210854715202004e-14L172.63979733409852,114.50569251095942L338.74306367714286,410.4204L350.56922280714286,410.4204L356.67334998285713,401.02608L144.97454682285766,0Z" style="opacity: 0;"/><path data-target="point-1-17" d="M144.97454682285766,0L356.67334998285713,401.02608L368.90838216,401.02608L374.68170269999996,394.01856L285.14942470913735,184.9792617932756L195.551746378571,2.842170943040401e-14Z" style="opacity: 0;"/><path data-target="point-1-18" d="M285.14942470913735,184.9792617932756L374.68170269999996,394.01856L385.9288334264285,394.01856L392.41940433142855,383.46984Z" style="opacity: 0;"/><path data-target="point-1-19" d="M195.551746378571,2.842170943040401e-14L285.14942470913735,184.9792617932756L392.41940433142855,383.46984L404.48314800714286,383.46984L410.38781124285714,374.92728L227.08854210285702,0Z" style="opacity: 0;"/><path data-target="point-1-20" d="M227.08854210285702,0L410.38781124285714,374.92728L422.16058327285714,374.92728L427.7500007892857,365.50176L257.84063351785676,0Z" style="opacity: 0;"/><path data-target="point-1-21" d="M257.84063351785676,0L427.7500007892857,365.50176L440.81224728571425,365.50176L445.4731888214285,358.26648L304.3769730507147,0Z" style="opacity: 0;"/><path data-target="point-1-22" d="M304.3769730507147,0L445.4731888214285,358.26648L461.12,358.26648L464.38455272,355.12152L339.7368992000002,0Z" style="opacity: 0;"/><path data-target="point-1-23" d="M339.7368992000002,0L464.38455272,355.12152L476.85211972285714,355.12152L479.2539916628571,353.0904L478.155463627195,298.6982072528031L403.7356053746427,0Z" style="opacity: 0;"/><path data-target="point-1-24" d="M478.155463627195,298.6982072528031L479.2539916628571,353.0904L499.0885308571428,353.0904L502.85208239285714,350.35416Z" style="opacity: 0;"/><path data-target="point-1-25" d="M403.7356053746427,0L478.155463627195,298.6982072528031L502.85208239285714,350.35416L508.19276053571434,350.35416L518.4717328571428,342.21096L409.79530941714336,0Z" style="opacity: 0;"/><path data-target="point-1-26" d="M409.79530941714336,0L518.4717328571428,342.21096L529.73742087,342.21096L534.8939302800001,338.30784L514.6605151070792,223.9255212352544L511.71205275404725,213.12845989970634L475.22633557023846,114.97865841873895L430.54685500534686,10.348936882303917L425.7328573610347,0Z" style="opacity: 0;"/><path data-target="point-1-27" d="M514.6605151070792,223.9255212352544L534.8939302800001,338.30784L547.9381267846617,338.30784L554.8542919398946,332.772898Z" style="opacity: 0;"/><path data-target="point-1-28" d="M511.71205275404725,213.12845989970634L514.6605151070792,223.9255212352544L554.8542919398946,332.772898L563.4711897822554,332.772898L574.1932473911455,322.92857999999995Z" style="opacity: 0;"/><path data-target="point-1-29" d="M475.22633557023846,114.97865841873895L511.71205275404725,213.12845989970634L574.1932473911455,322.92857999999995L581.0832680991,322.92858L592.4306179377858,312.66034799999994Z" style="opacity: 0;"/><path data-target="point-1-30" d="M430.54685500534686,10.348936882303917L475.22633557023846,114.97865841873895L592.4306179377858,312.66034799999994L598.6816475209976,312.66034799999994L610.681290354977,301.950043Z" style="opacity: 0;"/><path data-target="point-1-31" d="M425.7328573610347,0L430.54685500534686,10.348936882303917L610.681290354977,301.950043L616.2661604984396,301.950043L628.9450566020024,290.7786025L441.7925812090334,0Z" style="opacity: 0;"/><path data-target="point-1-32" d="M441.7925812090334,0L628.9450566020024,290.7786025L633.8370745553076,290.7786025L647.2218769784237,279.1261515L460.03945922414766,0Z" style="opacity: 0;"/><path data-target="point-1-33" d="M460.03945922414766,0L647.2218769784237,279.1261515L651.3944525562376,279.1261515L665.5113084389634,266.9719105L478.9764553860887,0Z" style="opacity: 0;"/><path data-target="point-1-34" d="M478.9764553860887,0L665.5113084389634,266.9719105L668.9387953839862,266.9719105L683.812859038769,254.29435199999998L498.6907002278832,0Z" style="opacity: 0;"/><path data-target="point-1-35" d="M498.6907002278832,0L683.812859038769,254.29435199999998L686.4705968128225,254.29435199999998L702.1258575692256,241.070856L519.275832974656,0Z" style="opacity: 0;"/><path data-target="point-1-36" d="M519.275832974656,0L702.1258575692256,241.070856L703.9906736239401,241.070856L720.4494615598496,227.2778975L540.8364445283207,0Z" style="opacity: 0;"/><path data-target="point-1-37" d="M540.8364445283207,0L720.4494615598496,227.2778975L721.499966745147,227.2778975L738.7824782096908,212.89098499999997L563.4892291684205,0Z" style="opacity: 0;"/><path data-target="point-1-38" d="M563.4892291684205,0L738.7824782096908,212.89098499999997L738.9997774538879,212.89098499999997L756.753242168978,198.19111072970233L756.8617302853224,197.5792515292294L587.3579942451418,2.842170943040401e-14Z" style="opacity: 0;"/><path data-target="point-1-39" d="M587.3579942451418,2.842170943040401e-14L756.8617302853224,197.5792515292294L774.6100873081245,182.94167786866916L774.8381315789144,181.52361611931295L612.5822242143923,0Z" style="opacity: 0;"/><path data-target="point-1-40" d="M612.5822242143923,0L774.8381315789144,181.52361611931295L792.4842453918883,167.00584601259996L792.7980862430751,164.80452559750313L639.3134795307399,2.842170943040401e-14Z" style="opacity: 0;"/><path data-target="point-1-41" d="M639.3134795307399,2.842170943040401e-14L792.7980862430751,164.80452559750313L810.377632848237,150.35303083904924L810.7399300144191,147.39436878907762L667.7166349982883,0Z" style="opacity: 0;"/><path data-target="point-1-42" d="M667.7166349982883,0L810.7399300144191,147.39436878907762L828.2921469798481,132.95107685940812L828.6620340433856,129.26472890437722L697.9747006314415,0Z" style="opacity: 0;"/><path data-target="point-1-43" d="M697.9747006314415,0L828.6620340433856,129.26472890437722L846.2296245067333,114.76624632728034L846.5629248064346,110.38600675626894L730.2849479008147,1.4210854715202004e-14Z" style="opacity: 0;"/><path data-target="point-1-44" d="M730.2849479008147,1.4210854715202004e-14L846.5629248064346,110.38600675626894L864.1917313421679,95.7630833057532L864.4413246316734,90.72774274490986L764.8658853205015,0Z" style="opacity: 0;"/><path data-target="point-1-45" d="M764.8658853205015,0L864.4413246316734,90.72774274490986L885.5407696265639,73.0957345L801.954969188197,0Z" style="opacity: 0;"/><path data-target="point-1-46" d="M801.954969188197,0L885.5407696265639,73.0957345L936,73.09573449999999L936,0Z" style="opacity: 0;"/></g><g class="series"><path data-target="point-0-0" d="M75.78697600000011,561.6L66.6468307,499.10328L0,499.10328L0,561.6Z" style="opacity: 0;"/><path data-target="point-0-1" d="M66.6468307,499.10328L75.78697600000011,561.6L99.22486523214278,561.6L84.44332006785714,495.78671999999995L67.236971095,495.78671999999995Z" style="opacity: 0;"/><path data-target="point-0-2" d="M84.44332006785714,495.78671999999995L99.22486523214278,561.6L116.34150562500008,561.6L102.32019428571428,491.5716L85.19041245285715,491.5716Z" style="opacity: 0;"/><path data-target="point-0-3" d="M102.32019428571428,491.5716L116.34150562500008,561.6L136.13247142857128,561.6L120.24191084285714,487.99608L103.11702445714285,487.99608Z" style="opacity: 0;"/><path data-target="point-0-4" d="M120.24191084285714,487.99608L136.13247142857128,561.6L151.66232857142862,561.6L138.18626857142857,484.19903999999997L121.02332133357142,484.19904Z" style="opacity: 0;"/><path data-target="point-0-5" d="M138.18626857142857,484.19903999999997L151.66232857142862,561.6L176.30167199999994,561.6L155.94495565714286,480.40512L139.09518340571427,480.40512Z" style="opacity: 0;"/><path data-target="point-0-6" d="M155.94495565714286,480.40512L176.30167199999994,561.6L188.82777142857145,561.6L173.90458857142858,475.88736L157.02098927999998,475.88736Z" style="opacity: 0;"/><path data-target="point-0-7" d="M173.90458857142858,475.88736L188.82777142857145,561.6L207.29098571428574,561.6L191.6464142857143,471.744L175.22040132571428,471.744Z" style="opacity: 0;"/><path data-target="point-0-8" d="M191.6464142857143,471.744L207.29098571428574,561.6L228.28688228571448,561.6L209.35718987142855,467.87208L193.31825402857143,467.87208Z" style="opacity: 0;"/><path data-target="point-0-9" d="M209.35718987142855,467.87208L228.28688228571448,561.6L250.91415999999995,561.6L227.0321785,463.62263999999993L211.43027158714284,463.62263999999993Z" style="opacity: 0;"/><path data-target="point-0-10" d="M227.0321785,463.62263999999993L250.91415999999995,561.6L282.7410160892857,561.6L244.54112824999999,458.59319999999997L229.62939029714283,458.59319999999997Z" style="opacity: 0;"/><path data-target="point-0-11" d="M244.54112824999999,458.59319999999997L282.7410160892857,561.6L301.61147812499973,561.6L262.43874782142854,451.84775999999994L247.66511014999998,451.84776Z" style="opacity: 0;"/><path data-target="point-0-12" d="M262.43874782142854,451.84775999999994L301.61147812499973,561.6L314.3261750350002,561.6L280.1495136292857,444.33792L266.1050248885714,444.33792Z" style="opacity: 0;"/><path data-target="point-0-13" d="M280.1495136292857,444.33792L314.3261750350002,561.6L357.5743689649997,561.6L296.92409198642855,437.4552L284.8158134307143,437.4552Z" style="opacity: 0;"/><path data-target="point-0-14" d="M296.92409198642855,437.4552L357.5743689649997,561.6L384.6762863571432,561.6L314.8792694571428,428.85648000000003L302.6519911207143,428.85648000000003Z" style="opacity: 0;"/><path data-target="point-0-15" d="M314.8792694571428,428.85648000000003L384.6762863571432,561.6L402.00071599214243,561.6L333.02547149071427,419.80848L320.4117983142857,419.80848Z" style="opacity: 0;"/><path data-target="point-0-16" d="M333.02547149071427,419.80848L402.00071599214243,561.6L427.49374705535735,561.6L418.18047472490434,540.2970866441865L350.56922280714286,410.4204L338.74306367714286,410.4204Z" style="opacity: 0;"/><path data-target="point-0-17" d="M350.56922280714286,410.4204L418.18047472490434,540.2970866441865L368.90838216,401.02608L356.67334998285713,401.02608Z" style="opacity: 0;"/><path data-target="point-0-18" d="M368.90838216,401.02608L418.18047472490434,540.2970866441865L427.49374705535735,561.6L489.9432737560714,561.6L472.5915954903004,530.0916467526553L385.9288334264285,394.01856L374.68170269999996,394.01856Z" style="opacity: 0;"/><path data-target="point-0-19" d="M385.9288334264285,394.01856L472.5915954903004,530.0916467526553L404.48314800714286,383.46984L392.41940433142855,383.46984Z" style="opacity: 0;"/><path data-target="point-0-20" d="M404.48314800714286,383.46984L472.5915954903004,530.0916467526553L489.9432737560714,561.6L499.4744101404286,561.6L490.5539002847192,518.4867814583947L469.6451184519468,455.8085638771489L422.16058327285714,374.92728L410.38781124285714,374.92728Z" style="opacity: 0;"/><path data-target="point-0-21" d="M422.16058327285714,374.92728L469.6451184519468,455.8085638771489L461.12,414.59241665198977L440.81224728571425,365.50176L427.7500007892857,365.50176Z" style="opacity: 0;"/><path data-target="point-0-22" d="M440.81224728571425,365.50176L461.12,414.59241665198977L461.12,358.26648L445.4731888214285,358.26648Z" style="opacity: 0;"/><path data-target="point-0-23" d="M461.12,358.26648L461.12,414.59241665198977L469.6451184519468,455.8085638771489L490.5539002847192,518.4867814583947L488.7696269429778,412.8359148049259L476.85211972285714,355.12152L464.38455272,355.12152Z" style="opacity: 0;"/><path data-target="point-0-24" d="M476.85211972285714,355.12152L488.7696269429778,412.8359148049259L499.0885308571428,353.0904L479.2539916628571,353.0904Z" style="opacity: 0;"/><path data-target="point-0-25" d="M488.7696269429778,412.8359148049259L490.5539002847192,518.4867814583947L499.4744101404286,561.6L607.6713392307918,561.6L594.4435963623487,525.4738541283642L550.2453666838104,421.476927185932L508.19276053571434,350.35416L502.85208239285714,350.35416L499.0885308571428,353.0904Z" style="opacity: 0;"/><path data-target="point-0-26" d="M508.19276053571434,350.35416L550.2453666838104,421.476927185932L529.73742087,342.21096L518.4717328571428,342.21096Z" style="opacity: 0;"/><path data-target="point-0-27" d="M529.73742087,342.21096L550.2453666838104,421.476927185932L594.4435963623487,525.4738541283642L547.9381267846617,338.30784L534.8939302800001,338.30784Z" style="opacity: 0;"/><path data-target="point-0-28" d="M547.9381267846617,338.30784L594.4435963623487,525.4738541283642L607.6713392307918,561.6L684.6697708214236,561.6L563.4711897822554,332.772898L554.8542919398946,332.772898Z" style="opacity: 0;"/><path data-target="point-0-29" d="M563.4711897822554,332.772898L684.6697708214236,561.6L713.0957868179443,561.6L581.0832680991,322.92858L574.1932473911455,322.92857999999995Z" style="opacity: 0;"/><path data-target="point-0-30" d="M581.0832680991,322.92858L713.0957868179443,561.6L742.4701629367137,561.6L598.6816475209976,312.66034799999994L592.4306179377858,312.66034799999994Z" style="opacity: 0;"/><path data-target="point-0-31" d="M598.6816475209976,312.66034799999994L742.4701629367137,561.6L772.8836964894022,561.6L616.2661604984396,301.950043L610.681290354977,301.950043Z" style="opacity: 0;"/><path data-target="point-0-32" d="M616.2661604984396,301.950043L772.8836964894022,561.6L804.4261882524555,561.6L633.8370745553076,290.7786025L628.9450566020024,290.7786025Z" style="opacity: 0;"/><path data-target="point-0-33" d="M633.8370745553076,290.7786025L804.4261882524555,561.6L837.2041107423815,561.6L651.3944525562376,279.1261515L647.2218769784237,279.1261515Z" style="opacity: 0;"/><path data-target="point-0-34" d="M651.3944525562376,279.1261515L837.2041107423815,561.6L871.3254065813908,561.6L668.9387953839862,266.9719105L665.5113084389634,266.9719105Z" style="opacity: 0;"/><path data-target="point-0-35" d="M668.9387953839862,266.9719105L871.3254065813908,561.6L906.9150172491716,561.6L686.4705968128225,254.29435199999998L683.812859038769,254.29435199999998Z" style="opacity: 0;"/><path data-target="point-0-36" d="M686.4705968128225,254.29435199999998L906.9150172491716,561.6L936,561.6L936,550.7827482025516L703.9906736239401,241.070856L702.1258575692256,241.070856Z" style="opacity: 0;"/><path data-target="point-0-37" d="M703.9906736239401,241.070856L936,550.7827482025516L936,501.4737101000041L721.499966745147,227.2778975L720.4494615598496,227.2778975Z" style="opacity: 0;"/><path data-target="point-0-38" d="M721.499966745147,227.2778975L936,501.4737101000041L936,454.0375218782059L738.9997774538879,212.89098499999997L738.7824782096908,212.89098499999997Z" style="opacity: 0;"/><path data-target="point-0-39" d="M738.9997774538879,212.89098499999997L936,454.0375218782059L936,408.3006226083236L756.753242168978,198.19111072970233Z" style="opacity: 0;"/><path data-target="point-0-40" d="M756.753242168978,198.19111072970233L936,408.3006226083236L936,364.09703509155906L774.6100873081245,182.94167786866916L756.8617302853224,197.5792515292294Z" style="opacity: 0;"/><path data-target="point-0-41" d="M774.6100873081245,182.94167786866916L936,364.09703509155906L936,321.2666303916527L792.4842453918883,167.00584601259996L774.8381315789144,181.52361611931295Z" style="opacity: 0;"/><path data-target="point-0-42" d="M792.4842453918883,167.00584601259996L936,321.2666303916527L936,279.65458273485433L810.377632848237,150.35303083904924L792.7980862430751,164.80452559750313Z" style="opacity: 0;"/><path data-target="point-0-43" d="M810.377632848237,150.35303083904924L936,279.65458273485433L936,239.11205424957757L828.2921469798481,132.95107685940812L810.7399300144191,147.39436878907762Z" style="opacity: 0;"/><path data-target="point-0-44" d="M828.2921469798481,132.95107685940812L936,239.11205424957757L936,199.49515260531666L846.2296245067333,114.76624632728034L828.6620340433856,129.26472890437722Z" style="opacity: 0;"/><path data-target="point-0-45" d="M846.2296245067333,114.76624632728034L936,199.49515260531666L936,160.66436031787703L864.1917313421679,95.7630833057532L846.5629248064346,110.38600675626894Z" style="opacity: 0;"/><path data-target="point-0-46" d="M864.1917313421679,95.7630833057532L936,160.66436031787703L936,73.09573449999999L885.5407696265639,73.0957345L864.4413246316734,90.72774274490986Z" style="opacity: 0;"/><path data-target="point-1-0" d="M0,499.10328L66.6468307,499.10328L67.236971095,495.78671999999995L0,195.49000338158368Z" style="opacity: 0;"/><path data-target="point-1-1" d="M0,195.49000338158368L67.236971095,495.78671999999995L84.44332006785714,495.78671999999995L85.19041245285715,491.5716L0,145.04271953512034Z" style="opacity: 0;"/><path data-target="point-1-2" d="M0,145.04271953512034L85.19041245285715,491.5716L102.32019428571428,491.5716L103.11702445714285,487.99608L6.08858958642854,0L0,0Z" style="opacity: 0;"/><path data-target="point-1-3" d="M6.08858958642854,0L103.11702445714285,487.99608L120.24191084285714,487.99608L121.02332133357142,484.19904L25.614856854769783,25.24838838183257L19.843007641071104,0Z" style="opacity: 0;"/><path data-target="point-1-4" d="M25.614856854769783,25.24838838183257L121.02332133357142,484.19904L138.18626857142857,484.19903999999997L139.09518340571427,480.40512Z" style="opacity: 0;"/><path data-target="point-1-5" d="M19.843007641071104,0L25.614856854769783,25.24838838183257L139.09518340571427,480.40512L155.94495565714286,480.40512L157.02098927999998,475.88736L36.383543520000785,0Z" style="opacity: 0;"/><path data-target="point-1-6" d="M36.383543520000785,0L157.02098927999998,475.88736L173.90458857142858,475.88736L175.22040132571428,471.744L39.20649732571425,0Z" style="opacity: 0;"/><path data-target="point-1-7" d="M39.20649732571425,0L175.22040132571428,471.744L191.6464142857143,471.744L193.31825402857143,467.87208L72.59472510071365,0Z" style="opacity: 0;"/><path data-target="point-1-8" d="M72.59472510071365,0L193.31825402857143,467.87208L209.35718987142855,467.87208L211.43027158714284,463.62263999999993L118.27555564022735,121.52387332498807L74.12902480982152,0Z" style="opacity: 0;"/><path data-target="point-1-9" d="M118.27555564022735,121.52387332498807L211.43027158714284,463.62263999999993L227.0321785,463.62263999999993L229.62939029714283,458.59319999999997L140.59013238939124,178.2176690264231Z" style="opacity: 0;"/><path data-target="point-1-10" d="M140.59013238939124,178.2176690264231L229.62939029714283,458.59319999999997L244.54112824999999,458.59319999999997L247.66511014999998,451.84776L162.77697480153833,229.62231627170345Z" style="opacity: 0;"/><path data-target="point-1-11" d="M162.77697480153833,229.62231627170345L247.66511014999998,451.84776L262.43874782142854,451.84775999999994L266.1050248885714,444.33792Z" style="opacity: 0;"/><path data-target="point-1-12" d="M74.12902480982152,0L118.27555564022735,121.52387332498807L140.59013238939124,178.2176690264231L162.77697480153833,229.62231627170345L266.1050248885714,444.33792L280.1495136292857,444.33792L284.8158134307143,437.4552L76.27857608071355,0Z" style="opacity: 0;"/><path data-target="point-1-13" d="M76.27857608071355,0L284.8158134307143,437.4552L296.92409198642855,437.4552L302.6519911207143,428.85648000000003L100.60315290500128,-5.684341886080802e-14Z" style="opacity: 0;"/><path data-target="point-1-14" d="M100.60315290500128,-5.684341886080802e-14L302.6519911207143,428.85648000000003L314.8792694571428,428.85648000000003L320.4117983142857,419.80848L172.63979733409852,114.50569251095942L112.79114792428545,-1.4210854715202004e-14Z" style="opacity: 0;"/><path data-target="point-1-15" d="M172.63979733409852,114.50569251095942L320.4117983142857,419.80848L333.02547149071427,419.80848L338.74306367714286,410.4204Z" style="opacity: 0;"/><path data-target="point-1-16" d="M112.79114792428545,-1.4210854715202004e-14L172.63979733409852,114.50569251095942L338.74306367714286,410.4204L350.56922280714286,410.4204L356.67334998285713,401.02608L144.97454682285766,0Z" style="opacity: 0;"/><path data-target="point-1-17" d="M144.97454682285766,0L356.67334998285713,401.02608L368.90838216,401.02608L374.68170269999996,394.01856L285.14942470913735,184.9792617932756L195.551746378571,2.842170943040401e-14Z" style="opacity: 0;"/><path data-target="point-1-18" d="M285.14942470913735,184.9792617932756L374.68170269999996,394.01856L385.9288334264285,394.01856L392.41940433142855,383.46984Z" style="opacity: 0;"/><path data-target="point-1-19" d="M195.551746378571,2.842170943040401e-14L285.14942470913735,184.9792617932756L392.41940433142855,383.46984L404.48314800714286,383.46984L410.38781124285714,374.92728L227.08854210285702,0Z" style="opacity: 0;"/><path data-target="point-1-20" d="M227.08854210285702,0L410.38781124285714,374.92728L422.16058327285714,374.92728L427.7500007892857,365.50176L257.84063351785676,0Z" style="opacity: 0;"/><path data-target="point-1-21" d="M257.84063351785676,0L427.7500007892857,365.50176L440.81224728571425,365.50176L445.4731888214285,358.26648L304.3769730507147,0Z" style="opacity: 0;"/><path data-target="point-1-22" d="M304.3769730507147,0L445.4731888214285,358.26648L461.12,358.26648L464.38455272,355.12152L339.7368992000002,0Z" style="opacity: 0;"/><path data-target="point-1-23" d="M339.7368992000002,0L464.38455272,355.12152L476.85211972285714,355.12152L479.2539916628571,353.0904L478.155463627195,298.6982072528031L403.7356053746427,0Z" style="opacity: 0;"/><path data-target="point-1-24" d="M478.155463627195,298.6982072528031L479.2539916628571,353.0904L499.0885308571428,353.0904L502.85208239285714,350.35416Z" style="opacity: 0;"/><path data-target="point-1-25" d="M403.7356053746427,0L478.155463627195,298.6982072528031L502.85208239285714,350.35416L508.19276053571434,350.35416L518.4717328571428,342.21096L409.79530941714336,0Z" style="opacity: 0;"/><path data-target="point-1-26" d="M409.79530941714336,0L518.4717328571428,342.21096L529.73742087,342.21096L534.8939302800001,338.30784L514.6605151070792,223.9255212352544L511.71205275404725,213.12845989970634L475.22633557023846,114.97865841873895L430.54685500534686,10.348936882303917L425.7328573610347,0Z" style="opacity: 0;"/><path data-target="point-1-27" d="M514.6605151070792,223.9255212352544L534.8939302800001,338.30784L547.9381267846617,338.30784L554.8542919398946,332.772898Z" style="opacity: 0;"/><path data-target="point-1-28" d="M511.71205275404725,213.12845989970634L514.6605151070792,223.9255212352544L554.8542919398946,332.772898L563.4711897822554,332.772898L574.1932473911455,322.92857999999995Z" style="opacity: 0;"/><path data-target="point-1-29" d="M475.22633557023846,114.97865841873895L511.71205275404725,213.12845989970634L574.1932473911455,322.92857999999995L581.0832680991,322.92858L592.4306179377858,312.66034799999994Z" style="opacity: 0;"/><path data-target="point-1-30" d="M430.54685500534686,10.348936882303917L475.22633557023846,114.97865841873895L592.4306179377858,312.66034799999994L598.6816475209976,312.66034799999994L610.681290354977,301.950043Z" style="opacity: 0;"/><path data-target="point-1-31" d="M425.7328573610347,0L430.54685500534686,10.348936882303917L610.681290354977,301.950043L616.2661604984396,301.950043L628.9450566020024,290.7786025L441.7925812090334,0Z" style="opacity: 0;"/><path data-target="point-1-32" d="M441.7925812090334,0L628.9450566020024,290.7786025L633.8370745553076,290.7786025L647.2218769784237,279.1261515L460.03945922414766,0Z" style="opacity: 0;"/><path data-target="point-1-33" d="M460.03945922414766,0L647.2218769784237,279.1261515L651.3944525562376,279.1261515L665.5113084389634,266.9719105L478.9764553860887,0Z" style="opacity: 0;"/><path data-target="point-1-34" d="M478.9764553860887,0L665.5113084389634,266.9719105L668.9387953839862,266.9719105L683.812859038769,254.29435199999998L498.6907002278832,0Z" style="opacity: 0;"/><path data-target="point-1-35" d="M498.6907002278832,0L683.812859038769,254.29435199999998L686.4705968128225,254.29435199999998L702.1258575692256,241.070856L519.275832974656,0Z" style="opacity: 0;"/><path data-target="point-1-36" d="M519.275832974656,0L702.1258575692256,241.070856L703.9906736239401,241.070856L720.4494615598496,227.2778975L540.8364445283207,0Z" style="opacity: 0;"/><path data-target="point-1-37" d="M540.8364445283207,0L720.4494615598496,227.2778975L721.499966745147,227.2778975L738.7824782096908,212.89098499999997L563.4892291684205,0Z" style="opacity: 0;"/><path data-target="point-1-38" d="M563.4892291684205,0L738.7824782096908,212.89098499999997L738.9997774538879,212.89098499999997L756.753242168978,198.19111072970233L756.8617302853224,197.5792515292294L587.3579942451418,2.842170943040401e-14Z" style="opacity: 0;"/><path data-target="point-1-39" d="M587.3579942451418,2.842170943040401e-14L756.8617302853224,197.5792515292294L774.6100873081245,182.94167786866916L774.8381315789144,181.52361611931295L612.5822242143923,0Z" style="opacity: 0;"/><path data-target="point-1-40" d="M612.5822242143923,0L774.8381315789144,181.52361611931295L792.4842453918883,167.00584601259996L792.7980862430751,164.80452559750313L639.3134795307399,2.842170943040401e-14Z" style="opacity: 0;"/><path data-target="point-1-41" d="M639.3134795307399,2.842170943040401e-14L792.7980862430751,164.80452559750313L810.377632848237,150.35303083904924L810.7399300144191,147.39436878907762L667.7166349982883,0Z" style="opacity: 0;"/><path data-target="point-1-42" d="M667.7166349982883,0L810.7399300144191,147.39436878907762L828.2921469798481,132.95107685940812L828.6620340433856,129.26472890437722L697.9747006314415,0Z" style="opacity: 0;"/><path data-target="point-1-43" d="M697.9747006314415,0L828.6620340433856,129.26472890437722L846.2296245067333,114.76624632728034L846.5629248064346,110.38600675626894L730.2849479008147,1.4210854715202004e-14Z" style="opacity: 0;"/><path data-target="point-1-44" d="M730.2849479008147,1.4210854715202004e-14L846.5629248064346,110.38600675626894L864.1917313421679,95.7630833057532L864.4413246316734,90.72774274490986L764.8658853205015,0Z" style="opacity: 0;"/><path data-target="point-1-45" d="M764.8658853205015,0L864.4413246316734,90.72774274490986L885.5407696265639,73.0957345L801.954969188197,0Z" style="opacity: 0;"/><path data-target="point-1-46" d="M801.954969188197,0L885.5407696265639,73.0957345L936,73.09573449999999L936,0Z" style="opacity: 0;"/></g></g><g class="axes"><g class="y axis" fill="none" font-size="10" font-family="sans-serif" text-anchor="end" style="font-family: &quot;Source Sans Pro&quot;;"><path class="domain" stroke="#eeeeee" d="M0.5,562.1V0.5" stroke-dasharray="0" style="visibility: hidden;"/><g class="tick" opacity="1" transform="translate(0,562.1)" style="visibility: visible;"><line stroke="#eeeeee" x2="936" stroke-dasharray="0"/><text fill="rgb(0, 0, 0)" x="3" dy="-0.33em" opacity="1" text-anchor="start" font-size="18">$0</text></g><g class="tick" opacity="1" transform="translate(0, 499.70001220703125)" style="visibility: visible;"><line stroke="#eeeeee" x2="936" stroke-dasharray="0"/><text fill="rgb(0, 0, 0)" x="3" dy="-0.33em" opacity="1" text-anchor="start" font-size="18">$10,000</text></g><g class="tick" opacity="1" transform="translate(0, 437.29998779296875)" style="visibility: visible;"><line stroke="#eeeeee" x2="936" stroke-dasharray="0"/><text fill="rgb(0, 0, 0)" x="3" dy="-0.33em" opacity="1" text-anchor="start" font-size="18">$20,000</text></g><g class="tick" opacity="1" transform="translate(0, 374.8999938964844)" style="visibility: visible;"><line stroke="#eeeeee" x2="936" stroke-dasharray="0"/><text fill="rgb(0, 0, 0)" x="3" dy="-0.33em" opacity="1" text-anchor="start" font-size="18">$30,000</text></g><g class="tick" opacity="1" transform="translate(0, 312.5)" style="visibility: visible;"><line stroke="#eeeeee" x2="936" stroke-dasharray="0"/><text fill="rgb(0, 0, 0)" x="3" dy="-0.33em" opacity="1" text-anchor="start" font-size="18">$40,000</text></g><g class="tick" opacity="1" transform="translate(0, 250.10000610351562)" style="visibility: visible;"><line stroke="#eeeeee" x2="936" stroke-dasharray="0"/><text fill="rgb(0, 0, 0)" x="3" dy="-0.33em" opacity="1" text-anchor="start" font-size="18">$50,000</text></g><g class="tick" opacity="1" transform="translate(0, 187.6999969482422)" style="visibility: visible;"><line stroke="#eeeeee" x2="936" stroke-dasharray="0"/><text fill="rgb(0, 0, 0)" x="3" dy="-0.33em" opacity="1" text-anchor="start" font-size="18">$60,000</text></g><g class="tick" opacity="1" transform="translate(0, 125.30000305175781)" style="visibility: visible;"><line stroke="#eeeeee" x2="936" stroke-dasharray="0"/><text fill="rgb(0, 0, 0)" x="3" dy="-0.33em" opacity="1" text-anchor="start" font-size="18">$70,000</text></g><g class="tick" opacity="1" transform="translate(0, 62.900001525878906)" style="visibility: visible;"><line stroke="#eeeeee" x2="936" stroke-dasharray="0"/><text fill="rgb(0, 0, 0)" x="3" dy="-0.33em" opacity="1" text-anchor="start" font-size="18">$80,000</text></g><g class="tick" opacity="1" transform="translate(0, 0.5)" style="visibility: visible;"><line stroke="#eeeeee" x2="936" stroke-dasharray="0"/><text fill="rgb(0, 0, 0)" x="3" dy="-0.33em" opacity="1" text-anchor="start" font-size="18">$90,000</text></g></g><g class="x axis" transform="translate(0,561.6)" fill="none" font-size="10" font-family="sans-serif" text-anchor="middle" style="font-family: &quot;Source Sans Pro&quot;;"><path class="domain" stroke="#eeeeee" d="M40.5,0.5H936.5" stroke-dasharray="0"/><g class="tick" opacity="1" transform="translate(40.5,0)"><line stroke="#eeeeee" y2="6" stroke-dasharray="0"/><text fill="rgb(0, 0, 0)" y="9" dy="-9" opacity="1" dominant-baseline="central" font-size="18" transform="translate(0, 15) rotate(-45)" dx="5" style="text-anchor: end; visibility: visible;">1990</text></g><g class="tick" opacity="1" transform="translate(130.10000000000002,0)"><line stroke="#eeeeee" y2="6" stroke-dasharray="0"/><text fill="rgb(0, 0, 0)" y="9" dy="-9" opacity="1" dominant-baseline="central" font-size="18" transform="translate(0, 15) rotate(-45)" dx="5" style="text-anchor: end; visibility: visible;">1995</text></g><g class="tick" opacity="1" transform="translate(219.70000000000002,0)"><line stroke="#eeeeee" y2="6" stroke-dasharray="0"/><text fill="rgb(0, 0, 0)" y="9" dy="-9" opacity="1" dominant-baseline="central" font-size="18" transform="translate(0, 15) rotate(-45)" dx="5" style="text-anchor: end; visibility: visible;">2000</text></g><g class="tick" opacity="1" transform="translate(309.3,0)"><line stroke="#eeeeee" y2="6" stroke-dasharray="0"/><text fill="rgb(0, 0, 0)" y="9" dy="-9" opacity="1" dominant-baseline="central" font-size="18" transform="translate(0, 15) rotate(-45)" dx="5" style="text-anchor: end; visibility: visible;">2005</text></g><g class="tick" opacity="1" transform="translate(398.90000000000003,0)"><line stroke="#eeeeee" y2="6" stroke-dasharray="0"/><text fill="rgb(0, 0, 0)" y="9" dy="-9" opacity="1" dominant-baseline="central" font-size="18" transform="translate(0, 15) rotate(-45)" dx="5" style="text-anchor: end; visibility: visible;">2010</text></g><g class="tick" opacity="1" transform="translate(488.5,0)"><line stroke="#eeeeee" y2="6" stroke-dasharray="0"/><text fill="rgb(0, 0, 0)" y="9" dy="-9" opacity="1" dominant-baseline="central" font-size="18" transform="translate(0, 15) rotate(-45)" dx="5" style="text-anchor: end; visibility: visible;">2015</text></g><g class="tick" opacity="1" transform="translate(578.1,0)"><line stroke="#eeeeee" y2="6" stroke-dasharray="0"/><text fill="rgb(0, 0, 0)" y="9" dy="-9" opacity="1" dominant-baseline="central" font-size="18" transform="translate(0, 15) rotate(-45)" dx="5" style="text-anchor: end; visibility: visible;">2020</text></g><g class="tick" opacity="1" transform="translate(667.6999999999999,0)"><line stroke="#eeeeee" y2="6" stroke-dasharray="0"/><text fill="rgb(0, 0, 0)" y="9" dy="-9" opacity="1" dominant-baseline="central" font-size="18" transform="translate(0, 15) rotate(-45)" dx="5" style="text-anchor: end; visibility: visible;">2025</text></g><g class="tick" opacity="1" transform="translate(757.3000000000001,0)"><line stroke="#eeeeee" y2="6" stroke-dasharray="0"/><text fill="rgb(0, 0, 0)" y="9" dy="-9" opacity="1" dominant-baseline="central" font-size="18" transform="translate(0, 15) rotate(-45)" dx="5" style="text-anchor: end; visibility: visible;">2030</text></g><g class="tick" opacity="1" transform="translate(846.9,0)"><line stroke="#eeeeee" y2="6" stroke-dasharray="0"/><text fill="rgb(0, 0, 0)" y="9" dy="-9" opacity="1" dominant-baseline="central" font-size="18" transform="translate(0, 15) rotate(-45)" dx="5" style="text-anchor: end; visibility: visible;">2035</text></g><g class="tick" opacity="1" transform="translate(936.5,0)"><line stroke="#eeeeee" y2="6" stroke-dasharray="0"/><text fill="rgb(0, 0, 0)" y="9" dy="-9" opacity="1" dominant-baseline="central" font-size="18" transform="translate(0, 15) rotate(-45)" dx="5" style="text-anchor: end; visibility: visible;">2040</text></g></g></g></g></g></g><g class="annotations below"><g class="axis-highlights" transform="translate(15, 20)" style="opacity: 1;"><g class="line x" transform="translate(559.68, 0)"><line width="0" stroke-dasharray="2 2" stroke="#333333" stroke-width="2" y2="561.6"/><text transform="translate(0, 6) rotate(-90)" fill="#333333" text-anchor="end" dy="-0.5em" font-size="12">Current</text></g></g></g><g id="areas"><g class="series" pointer-events="none"><path class="area" transform="translate(15,20)" fill-opacity="0" fill="rgb(17, 165, 121)" clip-path="url(#clip-0-0)" d="M57.92,502.00800000000004C63.89333333333334,501.25140000000005,69.86666666666667,500.4948,75.84,499.3872C81.81333333333333,498.2796,87.78666666666666,496.63120000000004,93.75999999999999,495.36240000000004C99.73333333333333,494.09360000000004,105.70666666666666,493.0172,111.68,491.7744C117.65333333333335,490.5316,123.62666666666668,489.07040000000006,129.60000000000002,487.90560000000005C135.57333333333335,486.74080000000004,141.54666666666665,486.05440000000004,147.51999999999998,484.78560000000004C153.4933333333333,483.51680000000005,159.46666666666667,481.5616,165.44,480.2928C171.41333333333333,479.024,177.38666666666668,478.2128,183.36,477.1728C189.33333333333334,476.13280000000003,195.30666666666667,475.17600000000004,201.28,474.05280000000005C207.25333333333333,472.92960000000005,213.2266666666667,471.76480000000004,219.20000000000002,470.4336C225.17333333333335,469.1024,231.14666666666668,467.9012,237.12,466.0656C243.09333333333333,464.23,249.06666666666666,461.59360000000004,255.04,459.42C261.0133333333333,457.2464,266.9866666666667,454.96048,272.96000000000004,453.024C278.93333333333334,451.08752,284.9066666666667,450.13072,290.88,447.80112C296.85333333333335,445.47152,302.82666666666665,442.07592,308.8,439.0464C314.77333333333337,436.01688,320.74666666666667,432.64728,326.72,429.624C332.6933333333334,426.60072,338.6666666666667,423.91440000000006,344.64000000000004,420.90672000000006C350.61333333333334,417.89904000000007,356.5866666666667,414.18936,362.56,411.57792C368.53333333333336,408.96648,374.50666666666666,408.19687999999996,380.48,405.23807999999997C386.4533333333334,402.27927999999997,392.4266666666667,397.11464,398.40000000000003,393.82512C404.37333333333333,390.53560000000004,410.3466666666667,388.64176000000003,416.32,385.50096C422.29333333333335,382.36016,428.26666666666665,377.96928,434.24,374.98032C440.21333333333337,371.99136,446.18666666666667,367.56720000000007,452.16,367.56720000000007C458.1333333333333,367.56720000000007,464.1066666666667,367.56720000000007,470.08,367.56720000000007C476.05333333333334,367.56720000000007,482.02666666666664,363.86688000000004,488,363.86688000000004C493.97333333333336,363.86688000000004,499.94666666666666,366.96192,505.92,366.96192C511.8933333333334,366.96192,517.8666666666667,358.90504,523.84,356.3664C529.8133333333334,353.82776,535.7866666666666,353.24490240000006,541.76,351.73008000000004C547.7333333333333,350.21525760000003,553.7066666666666,349.60146000000003,559.68,347.2774656C565.6533333333333,344.9534712,571.6266666666667,341.01997280000006,577.6,337.7861136C583.5733333333334,334.55225440000004,589.5466666666666,331.251388,595.52,327.8743104C601.4933333333333,324.4972328,607.4666666666667,321.0502776,613.44,317.523648C619.4133333333334,313.9970184,625.3866666666667,310.39733920000003,631.36,306.71453280000003C637.3333333333334,303.0317264,643.3066666666667,299.27270880000003,649.2800000000001,295.4268096C655.2533333333333,291.58091040000005,661.2266666666667,287.6553576,667.1999999999999,283.6391376C673.1733333333333,279.6229176,679.1466666666666,275.52357040000004,685.12,271.32948960000004C691.0933333333334,267.13540880000005,697.0666666666666,262.8544776,703.04,258.4746528C709.0133333333333,254.09482799999998,714.9866666666667,249.6243256,720.96,245.05054079999996C726.9333333333334,240.47675599999997,732.9066666666666,235.8082792,738.88,231.031944C744.8533333333334,226.2556088,750.8266666666667,221.3803904,756.8000000000001,216.3925296C762.7733333333333,211.40466880000002,768.7466666666667,206.31353599999994,774.7199999999999,201.1047792C780.6933333333333,195.89602239999996,786.6666666666666,190.57941760000006,792.64,185.13998880000003C798.6133333333333,179.70056000000005,804.5866666666666,174.14851999999996,810.56,168.46820639999999C816.5333333333333,162.78789279999995,822.5066666666667,156.989976,828.48,151.0581072C834.4533333333334,145.1262384,840.4266666666666,139.07155599999996,846.4,132.8769936C852.3733333333333,126.68243119999998,858.3466666666667,120.35962640000004,864.32,113.89073280000002C870.2933333333334,107.42183920000005,876.2666666666667,100.74273560000005,882.24,94.06363200000004L882.24,94.06363200000004C876.2666666666667,100.74273560000005,870.2933333333334,107.42183920000005,864.32,113.89073280000002C858.3466666666667,120.35962640000004,852.3733333333333,126.68243119999998,846.4,132.8769936C840.4266666666666,139.07155599999996,834.4533333333334,145.1262384,828.48,151.0581072C822.5066666666667,156.989976,816.5333333333333,162.78789279999995,810.56,168.46820639999999C804.5866666666666,174.14851999999996,798.6133333333333,179.70056000000005,792.64,185.13998880000003C786.6666666666666,190.57941760000006,780.6933333333333,195.89602239999996,774.7199999999999,201.1047792C768.7466666666667,206.31353599999994,762.7733333333333,211.40466880000002,756.8000000000001,216.3925296C750.8266666666667,221.3803904,744.8533333333334,226.2556088,738.88,231.031944C732.9066666666666,235.8082792,726.9333333333334,240.47675599999997,720.96,245.05054079999996C714.9866666666667,249.6243256,709.0133333333333,254.09482799999998,703.04,258.4746528C697.0666666666666,262.8544776,691.0933333333334,267.13540880000005,685.12,271.32948960000004C679.1466666666666,275.52357040000004,673.1733333333333,279.6229176,667.1999999999999,283.6391376C661.2266666666667,287.6553576,655.2533333333333,291.58091040000005,649.2800000000001,295.4268096C643.3066666666667,299.27270880000003,637.3333333333334,303.0317264,631.36,306.71453280000003C625.3866666666667,310.39733920000003,619.4133333333334,313.9970184,613.44,317.523648C607.4666666666667,321.0502776,601.4933333333333,324.4972328,595.52,327.8743104C589.5466666666666,331.251388,583.5733333333334,334.55225440000004,577.6,337.7861136C571.6266666666667,341.01997280000006,565.6533333333333,344.9534712,559.68,347.2774656C553.7066666666666,349.60146000000003,547.7333333333333,350.21525760000003,541.76,351.73008000000004C535.7866666666666,353.24490240000006,529.8133333333334,353.82776,523.84,356.3664C517.8666666666667,358.90504,511.8933333333334,366.96192,505.92,366.96192C499.94666666666666,366.96192,493.97333333333336,363.86688000000004,488,363.86688000000004C482.02666666666664,363.86688000000004,476.05333333333334,367.56720000000007,470.08,367.56720000000007C464.1066666666667,367.56720000000007,458.1333333333333,367.56720000000007,452.16,367.56720000000007C446.18666666666667,367.56720000000007,440.21333333333337,371.99136,434.24,374.98032C428.26666666666665,377.96928,422.29333333333335,382.36016,416.32,385.50096C410.3466666666667,388.64176000000003,404.37333333333333,390.53560000000004,398.40000000000003,393.82512C392.4266666666667,397.11464,386.4533333333334,402.27927999999997,380.48,405.23807999999997C374.50666666666666,408.19687999999996,368.53333333333336,408.96648,362.56,411.57792C356.5866666666667,414.18936,350.61333333333334,417.89904000000007,344.64000000000004,420.90672000000006C338.6666666666667,423.91440000000006,332.6933333333334,426.60072,326.72,429.624C320.74666666666667,432.64728,314.77333333333337,436.01688,308.8,439.0464C302.82666666666665,442.07592,296.85333333333335,445.47152,290.88,447.80112C284.9066666666667,450.13072,278.93333333333334,451.08752,272.96000000000004,453.024C266.9866666666667,454.96048,261.0133333333333,457.2464,255.04,459.42C249.06666666666666,461.59360000000004,243.09333333333333,464.23,237.12,466.0656C231.14666666666668,467.9012,225.17333333333335,469.1024,219.20000000000002,470.4336C213.2266666666667,471.76480000000004,207.25333333333333,472.92960000000005,201.28,474.05280000000005C195.30666666666667,475.17600000000004,189.33333333333334,476.13280000000003,183.36,477.1728C177.38666666666668,478.2128,171.41333333333333,479.024,165.44,480.2928C159.46666666666667,481.5616,153.4933333333333,483.51680000000005,147.51999999999998,484.78560000000004C141.54666666666665,486.05440000000004,135.57333333333335,486.74080000000004,129.60000000000002,487.90560000000005C123.62666666666668,489.07040000000006,117.65333333333335,490.5316,111.68,491.7744C105.70666666666666,493.0172,99.73333333333333,494.09360000000004,93.75999999999999,495.36240000000004C87.78666666666666,496.63120000000004,81.81333333333333,498.2796,75.84,499.3872C69.86666666666667,500.4948,63.89333333333334,501.25140000000005,57.92,502.00800000000004Z"/></g><g class="series" pointer-events="none"><path class="area" transform="translate(15,20)" fill-opacity="0" fill="rgb(128, 35, 146)" clip-path="url(#clip-0-1)" d="M57.92,496.19856000000004C63.89333333333334,494.89388,69.86666666666667,493.5892,75.84,492.18624C81.81333333333333,490.78328,87.78666666666666,489.10888,93.75999999999999,487.7808C99.73333333333333,486.45272,105.70666666666666,485.43248,111.68,484.21776C117.65333333333335,483.00304,123.62666666666668,481.858,129.60000000000002,480.49248C135.57333333333335,479.12696,141.54666666666665,477.5264,147.51999999999998,476.02464000000003C153.4933333333333,474.52288000000004,159.46666666666667,473.10016,165.44,471.48192C171.41333333333333,469.86368,177.38666666666668,467.94696,183.36,466.3152C189.33333333333334,464.68344,195.30666666666667,463.27528,201.28,461.69136000000003C207.25333333333333,460.10744000000005,213.2266666666667,458.57344,219.20000000000002,456.81168C225.17333333333335,455.04992000000004,231.14666666666668,453.21016000000003,237.12,451.12080000000003C243.09333333333333,449.03144000000003,249.06666666666666,446.85368000000005,255.04,444.27552000000003C261.0133333333333,441.69736,266.9866666666667,438.51288,272.96000000000004,435.65184C278.93333333333334,432.7908,284.9066666666667,429.94016,290.88,427.10928C296.85333333333335,424.27840000000003,302.82666666666665,421.51928,308.8,418.66656C314.77333333333337,415.81384,320.74666666666667,413.11504,326.72,409.99296000000004C332.6933333333334,406.87088000000006,338.6666666666667,403.1872,344.64000000000004,399.93408C350.61333333333334,396.68095999999997,356.5866666666667,393.33008,362.56,390.47424C368.53333333333336,387.6184,374.50666666666666,385.69232,380.48,382.79904C386.4533333333334,379.90576,392.4266666666667,376.18879999999996,398.40000000000003,373.11456C404.37333333333333,370.04032,410.3466666666667,367.20216000000005,416.32,364.35360000000003C422.29333333333335,361.50504,428.26666666666665,358.58783999999997,434.24,356.0232C440.21333333333337,353.45856,446.18666666666667,351.19032,452.16,348.96576C458.1333333333333,346.7412,464.1066666666667,342.91712,470.08,342.67584C476.05333333333334,342.43456,482.02666666666664,342.5552,488,342.31392C493.97333333333336,342.07264,499.94666666666666,336.1228,505.92,333.7464C511.8933333333334,331.37,517.8666666666667,329.53232,523.84,328.05552C529.8133333333334,326.57872000000003,535.7866666666666,326.5167984,541.76,324.8856C547.7333333333333,323.2544016,553.7066666666666,321.0707552,559.68,318.2683296C565.6533333333333,315.465904,571.6266666666667,311.5413704,577.6,308.0710464C583.5733333333334,304.6007224,589.5466666666666,301.06215360000004,595.52,297.44638560000004C601.4933333333333,293.83061760000004,607.4666666666667,290.1437240000001,613.44,286.37643840000004C619.4133333333334,282.60915280000006,625.3866666666667,278.76782959999997,631.36,274.842672C637.3333333333334,270.91751439999996,643.3066666666667,266.91515760000004,649.2800000000001,262.8254928C655.2533333333333,258.735828,661.2266666666667,254.56572959999997,667.1999999999999,250.3046832C673.1733333333333,246.04363679999997,679.1466666666666,241.69881840000002,685.12,237.25921440000002C691.0933333333334,232.81961040000004,697.0666666666666,228.29271920000002,703.04,223.66705920000004C709.0133333333333,219.04139920000003,714.9866666666667,214.32476000000003,720.96,209.5052544C726.9333333333334,204.68574880000003,732.9066666666666,199.7714992,738.88,194.75002560000001C744.8533333333334,189.728552,750.8266666666667,184.60833040000006,756.8000000000001,179.37641280000003C762.7733333333333,174.14449520000005,768.7466666666667,168.80969039999997,774.7199999999999,163.35852C780.6933333333333,157.90734959999997,786.6666666666666,152.34900720000007,792.64,146.66939040000005C798.6133333333333,140.98977360000006,804.5866666666666,135.19845039999998,810.56,129.2808192C816.5333333333333,123.36318799999997,822.5066666666667,117.32922239999996,828.48,111.16360319999995C834.4533333333334,104.99798399999999,840.4266666666666,98.71111120000002,846.4,92.28710400000006C852.3733333333333,85.86309680000005,858.3466666666667,79.31277120000006,864.32,72.61956000000004C870.2933333333334,65.92634880000006,876.2666666666667,59.02709280000006,882.24,52.12783680000007L882.24,52.12783680000007C876.2666666666667,59.02709280000006,870.2933333333334,65.92634880000006,864.32,72.61956000000004C858.3466666666667,79.31277120000006,852.3733333333333,85.86309680000005,846.4,92.28710400000006C840.4266666666666,98.71111120000002,834.4533333333334,104.99798399999999,828.48,111.16360319999995C822.5066666666667,117.32922239999996,816.5333333333333,123.36318799999997,810.56,129.2808192C804.5866666666666,135.19845039999998,798.6133333333333,140.98977360000006,792.64,146.66939040000005C786.6666666666666,152.34900720000007,780.6933333333333,157.90734959999997,774.7199999999999,163.35852C768.7466666666667,168.80969039999997,762.7733333333333,174.14449520000005,756.8000000000001,179.37641280000003C750.8266666666667,184.60833040000006,744.8533333333334,189.728552,738.88,194.75002560000001C732.9066666666666,199.7714992,726.9333333333334,204.68574880000003,720.96,209.5052544C714.9866666666667,214.32476000000003,709.0133333333333,219.04139920000003,703.04,223.66705920000004C697.0666666666666,228.29271920000002,691.0933333333334,232.81961040000004,685.12,237.25921440000002C679.1466666666666,241.69881840000002,673.1733333333333,246.04363679999997,667.1999999999999,250.3046832C661.2266666666667,254.56572959999997,655.2533333333333,258.735828,649.2800000000001,262.8254928C643.3066666666667,266.91515760000004,637.3333333333334,270.91751439999996,631.36,274.842672C625.3866666666667,278.76782959999997,619.4133333333334,282.60915280000006,613.44,286.37643840000004C607.4666666666667,290.1437240000001,601.4933333333333,293.83061760000004,595.52,297.44638560000004C589.5466666666666,301.06215360000004,583.5733333333334,304.6007224,577.6,308.0710464C571.6266666666667,311.5413704,565.6533333333333,315.465904,559.68,318.2683296C553.7066666666666,321.0707552,547.7333333333333,323.2544016,541.76,324.8856C535.7866666666666,326.5167984,529.8133333333334,326.57872000000003,523.84,328.05552C517.8666666666667,329.53232,511.8933333333334,331.37,505.92,333.7464C499.94666666666666,336.1228,493.97333333333336,342.07264,488,342.31392C482.02666666666664,342.5552,476.05333333333334,342.43456,470.08,342.67584C464.1066666666667,342.91712,458.1333333333333,346.7412,452.16,348.96576C446.18666666666667,351.19032,440.21333333333337,353.45856,434.24,356.0232C428.26666666666665,358.58783999999997,422.29333333333335,361.50504,416.32,364.35360000000003C410.3466666666667,367.20216000000005,404.37333333333333,370.04032,398.40000000000003,373.11456C392.4266666666667,376.18879999999996,386.4533333333334,379.90576,380.48,382.79904C374.50666666666666,385.69232,368.53333333333336,387.6184,362.56,390.47424C356.5866666666667,393.33008,350.61333333333334,396.68095999999997,344.64000000000004,399.93408C338.6666666666667,403.1872,332.6933333333334,406.87088000000006,326.72,409.99296000000004C320.74666666666667,413.11504,314.77333333333337,415.81384,308.8,418.66656C302.82666666666665,421.51928,296.85333333333335,424.27840000000003,290.88,427.10928C284.9066666666667,429.94016,278.93333333333334,432.7908,272.96000000000004,435.65184C266.9866666666667,438.51288,261.0133333333333,441.69736,255.04,444.27552000000003C249.06666666666666,446.85368000000005,243.09333333333333,449.03144000000003,237.12,451.12080000000003C231.14666666666668,453.21016000000003,225.17333333333335,455.04992000000004,219.20000000000002,456.81168C213.2266666666667,458.57344,207.25333333333333,460.10744000000005,201.28,461.69136000000003C195.30666666666667,463.27528,189.33333333333334,464.68344,183.36,466.3152C177.38666666666668,467.94696,171.41333333333333,469.86368,165.44,471.48192C159.46666666666667,473.10016,153.4933333333333,474.52288000000004,147.51999999999998,476.02464000000003C141.54666666666665,477.5264,135.57333333333335,479.12696,129.60000000000002,480.49248C123.62666666666668,481.858,117.65333333333335,483.00304,111.68,484.21776C105.70666666666666,485.43248,99.73333333333333,486.45272,93.75999999999999,487.7808C87.78666666666666,489.10888,81.81333333333333,490.78328,75.84,492.18624C69.86666666666667,493.5892,63.89333333333334,494.89388,57.92,496.19856000000004Z"/></g></g><g id="lines"><g class="series"><clipPath id="clip-0-0"><rect width="936" y="-20" height="599.6"/></clipPath><path class="line" opacity="1" fill="none" stroke="rgb(17, 165, 121)" stroke-width="2" transform="translate(15,20)" clip-path="url(#clip-0-0)" d="M57.92,502.00800000000004C63.89333333333334,501.25140000000005,69.86666666666667,500.4948,75.84,499.3872C81.81333333333333,498.2796,87.78666666666666,496.63120000000004,93.75999999999999,495.36240000000004C99.73333333333333,494.09360000000004,105.70666666666666,493.0172,111.68,491.7744C117.65333333333335,490.5316,123.62666666666668,489.07040000000006,129.60000000000002,487.90560000000005C135.57333333333335,486.74080000000004,141.54666666666665,486.05440000000004,147.51999999999998,484.78560000000004C153.4933333333333,483.51680000000005,159.46666666666667,481.5616,165.44,480.2928C171.41333333333333,479.024,177.38666666666668,478.2128,183.36,477.1728C189.33333333333334,476.13280000000003,195.30666666666667,475.17600000000004,201.28,474.05280000000005C207.25333333333333,472.92960000000005,213.2266666666667,471.76480000000004,219.20000000000002,470.4336C225.17333333333335,469.1024,231.14666666666668,467.9012,237.12,466.0656C243.09333333333333,464.23,249.06666666666666,461.59360000000004,255.04,459.42C261.0133333333333,457.2464,266.9866666666667,454.96048,272.96000000000004,453.024C278.93333333333334,451.08752,284.9066666666667,450.13072,290.88,447.80112C296.85333333333335,445.47152,302.82666666666665,442.07592,308.8,439.0464C314.77333333333337,436.01688,320.74666666666667,432.64728,326.72,429.624C332.6933333333334,426.60072,338.6666666666667,423.91440000000006,344.64000000000004,420.90672000000006C350.61333333333334,417.89904000000007,356.5866666666667,414.18936,362.56,411.57792C368.53333333333336,408.96648,374.50666666666666,408.19687999999996,380.48,405.23807999999997C386.4533333333334,402.27927999999997,392.4266666666667,397.11464,398.40000000000003,393.82512C404.37333333333333,390.53560000000004,410.3466666666667,388.64176000000003,416.32,385.50096C422.29333333333335,382.36016,428.26666666666665,377.96928,434.24,374.98032C440.21333333333337,371.99136,446.18666666666667,367.56720000000007,452.16,367.56720000000007C458.1333333333333,367.56720000000007,464.1066666666667,367.56720000000007,470.08,367.56720000000007C476.05333333333334,367.56720000000007,482.02666666666664,363.86688000000004,488,363.86688000000004C493.97333333333336,363.86688000000004,499.94666666666666,366.96192,505.92,366.96192C511.8933333333334,366.96192,517.8666666666667,358.90504,523.84,356.3664C529.8133333333334,353.82776,535.7866666666666,353.24490240000006,541.76,351.73008000000004C547.7333333333333,350.21525760000003,553.7066666666666,349.60146000000003,559.68,347.2774656C565.6533333333333,344.9534712,571.6266666666667,341.01997280000006,577.6,337.7861136C583.5733333333334,334.55225440000004,589.5466666666666,331.251388,595.52,327.8743104C601.4933333333333,324.4972328,607.4666666666667,321.0502776,613.44,317.523648C619.4133333333334,313.9970184,625.3866666666667,310.39733920000003,631.36,306.71453280000003C637.3333333333334,303.0317264,643.3066666666667,299.27270880000003,649.2800000000001,295.4268096C655.2533333333333,291.58091040000005,661.2266666666667,287.6553576,667.1999999999999,283.6391376C673.1733333333333,279.6229176,679.1466666666666,275.52357040000004,685.12,271.32948960000004C691.0933333333334,267.13540880000005,697.0666666666666,262.8544776,703.04,258.4746528C709.0133333333333,254.09482799999998,714.9866666666667,249.6243256,720.96,245.05054079999996C726.9333333333334,240.47675599999997,732.9066666666666,235.8082792,738.88,231.031944C744.8533333333334,226.2556088,750.8266666666667,221.3803904,756.8000000000001,216.3925296C762.7733333333333,211.40466880000002,768.7466666666667,206.31353599999994,774.7199999999999,201.1047792C780.6933333333333,195.89602239999996,786.6666666666666,190.57941760000006,792.64,185.13998880000003C798.6133333333333,179.70056000000005,804.5866666666666,174.14851999999996,810.56,168.46820639999999C816.5333333333333,162.78789279999995,822.5066666666667,156.989976,828.48,151.0581072C834.4533333333334,145.1262384,840.4266666666666,139.07155599999996,846.4,132.8769936C852.3733333333333,126.68243119999998,858.3466666666667,120.35962640000004,864.32,113.89073280000002C870.2933333333334,107.42183920000005,876.2666666666667,100.74273560000005,882.24,94.06363200000004"/><text class="label" font-size="11" alignment-baseline="middle" opacity="1" x="5" fill="rgb(17, 165, 121)" transform="translate(897.239990234375, 114.06362915039062)"/></g><g class="series"><clipPath id="clip-0-1"><rect width="936" y="-20" height="599.6"/></clipPath><path class="line" opacity="1" fill="none" stroke="rgb(128, 35, 146)" stroke-width="2" transform="translate(15,20)" clip-path="url(#clip-0-1)" d="M57.92,496.19856000000004C63.89333333333334,494.89388,69.86666666666667,493.5892,75.84,492.18624C81.81333333333333,490.78328,87.78666666666666,489.10888,93.75999999999999,487.7808C99.73333333333333,486.45272,105.70666666666666,485.43248,111.68,484.21776C117.65333333333335,483.00304,123.62666666666668,481.858,129.60000000000002,480.49248C135.57333333333335,479.12696,141.54666666666665,477.5264,147.51999999999998,476.02464000000003C153.4933333333333,474.52288000000004,159.46666666666667,473.10016,165.44,471.48192C171.41333333333333,469.86368,177.38666666666668,467.94696,183.36,466.3152C189.33333333333334,464.68344,195.30666666666667,463.27528,201.28,461.69136000000003C207.25333333333333,460.10744000000005,213.2266666666667,458.57344,219.20000000000002,456.81168C225.17333333333335,455.04992000000004,231.14666666666668,453.21016000000003,237.12,451.12080000000003C243.09333333333333,449.03144000000003,249.06666666666666,446.85368000000005,255.04,444.27552000000003C261.0133333333333,441.69736,266.9866666666667,438.51288,272.96000000000004,435.65184C278.93333333333334,432.7908,284.9066666666667,429.94016,290.88,427.10928C296.85333333333335,424.27840000000003,302.82666666666665,421.51928,308.8,418.66656C314.77333333333337,415.81384,320.74666666666667,413.11504,326.72,409.99296000000004C332.6933333333334,406.87088000000006,338.6666666666667,403.1872,344.64000000000004,399.93408C350.61333333333334,396.68095999999997,356.5866666666667,393.33008,362.56,390.47424C368.53333333333336,387.6184,374.50666666666666,385.69232,380.48,382.79904C386.4533333333334,379.90576,392.4266666666667,376.18879999999996,398.40000000000003,373.11456C404.37333333333333,370.04032,410.3466666666667,367.20216000000005,416.32,364.35360000000003C422.29333333333335,361.50504,428.26666666666665,358.58783999999997,434.24,356.0232C440.21333333333337,353.45856,446.18666666666667,351.19032,452.16,348.96576C458.1333333333333,346.7412,464.1066666666667,342.91712,470.08,342.67584C476.05333333333334,342.43456,482.02666666666664,342.5552,488,342.31392C493.97333333333336,342.07264,499.94666666666666,336.1228,505.92,333.7464C511.8933333333334,331.37,517.8666666666667,329.53232,523.84,328.05552C529.8133333333334,326.57872000000003,535.7866666666666,326.5167984,541.76,324.8856C547.7333333333333,323.2544016,553.7066666666666,321.0707552,559.68,318.2683296C565.6533333333333,315.465904,571.6266666666667,311.5413704,577.6,308.0710464C583.5733333333334,304.6007224,589.5466666666666,301.06215360000004,595.52,297.44638560000004C601.4933333333333,293.83061760000004,607.4666666666667,290.1437240000001,613.44,286.37643840000004C619.4133333333334,282.60915280000006,625.3866666666667,278.76782959999997,631.36,274.842672C637.3333333333334,270.91751439999996,643.3066666666667,266.91515760000004,649.2800000000001,262.8254928C655.2533333333333,258.735828,661.2266666666667,254.56572959999997,667.1999999999999,250.3046832C673.1733333333333,246.04363679999997,679.1466666666666,241.69881840000002,685.12,237.25921440000002C691.0933333333334,232.81961040000004,697.0666666666666,228.29271920000002,703.04,223.66705920000004C709.0133333333333,219.04139920000003,714.9866666666667,214.32476000000003,720.96,209.5052544C726.9333333333334,204.68574880000003,732.9066666666666,199.7714992,738.88,194.75002560000001C744.8533333333334,189.728552,750.8266666666667,184.60833040000006,756.8000000000001,179.37641280000003C762.7733333333333,174.14449520000005,768.7466666666667,168.80969039999997,774.7199999999999,163.35852C780.6933333333333,157.90734959999997,786.6666666666666,152.34900720000007,792.64,146.66939040000005C798.6133333333333,140.98977360000006,804.5866666666666,135.19845039999998,810.56,129.2808192C816.5333333333333,123.36318799999997,822.5066666666667,117.32922239999996,828.48,111.16360319999995C834.4533333333334,104.99798399999999,840.4266666666666,98.71111120000002,846.4,92.28710400000006C852.3733333333333,85.86309680000005,858.3466666666667,79.31277120000006,864.32,72.61956000000004C870.2933333333334,65.92634880000006,876.2666666666667,59.02709280000006,882.24,52.12783680000007"/><text class="label" font-size="11" alignment-baseline="middle" opacity="1" x="5" fill="rgb(128, 35, 146)" transform="translate(897.239990234375, 72.12783813476562)"/></g></g><g id="data-points"><g class="series" transform="translate(15,20)"><path class="data-point" fill="rgb(17, 165, 121)" data-type="point" transform="translate(0, 0)" d="M54.92,502.00800000000004A3,3,0,1,1,60.92,502.00800000000004A3,3,0,1,1,54.92,502.00800000000004Z" id="point-0-0" opacity="1"/><path class="data-point" fill="rgb(17, 165, 121)" data-type="point" transform="translate(0, 0)" d="M72.84,499.3872A3,3,0,1,1,78.84,499.3872A3,3,0,1,1,72.84,499.3872Z" id="point-0-1" opacity="1"/><path class="data-point" fill="rgb(17, 165, 121)" data-type="point" transform="translate(0, 0)" d="M90.75999999999999,495.36240000000004A3,3,0,1,1,96.75999999999999,495.36240000000004A3,3,0,1,1,90.75999999999999,495.36240000000004Z" id="point-0-2" opacity="1"/><path class="data-point" fill="rgb(17, 165, 121)" data-type="point" transform="translate(0, 0)" d="M108.68,491.7744A3,3,0,1,1,114.68,491.7744A3,3,0,1,1,108.68,491.7744Z" id="point-0-3" opacity="1"/><path class="data-point" fill="rgb(17, 165, 121)" data-type="point" transform="translate(0, 0)" d="M126.60000000000002,487.90560000000005A3,3,0,1,1,132.60000000000002,487.90560000000005A3,3,0,1,1,126.60000000000002,487.90560000000005Z" id="point-0-4" opacity="1"/><path class="data-point" fill="rgb(17, 165, 121)" data-type="point" transform="translate(0, 0)" d="M144.51999999999998,484.78560000000004A3,3,0,1,1,150.51999999999998,484.78560000000004A3,3,0,1,1,144.51999999999998,484.78560000000004Z" id="point-0-5" opacity="1"/><path class="data-point" fill="rgb(17, 165, 121)" data-type="point" transform="translate(0, 0)" d="M162.44,480.2928A3,3,0,1,1,168.44,480.2928A3,3,0,1,1,162.44,480.2928Z" id="point-0-6" opacity="1"/><path class="data-point" fill="rgb(17, 165, 121)" data-type="point" transform="translate(0, 0)" d="M180.36,477.1728A3,3,0,1,1,186.36,477.1728A3,3,0,1,1,180.36,477.1728Z" id="point-0-7" opacity="1"/><path class="data-point" fill="rgb(17, 165, 121)" data-type="point" transform="translate(0, 0)" d="M198.28,474.05280000000005A3,3,0,1,1,204.28,474.05280000000005A3,3,0,1,1,198.28,474.05280000000005Z" id="point-0-8" opacity="1"/><path class="data-point" fill="rgb(17, 165, 121)" data-type="point" transform="translate(0, 0)" d="M216.20000000000002,470.4336A3,3,0,1,1,222.20000000000002,470.4336A3,3,0,1,1,216.20000000000002,470.4336Z" id="point-0-9" opacity="1"/><path class="data-point" fill="rgb(17, 165, 121)" data-type="point" transform="translate(0, 0)" d="M234.12,466.0656A3,3,0,1,1,240.12,466.0656A3,3,0,1,1,234.12,466.0656Z" id="point-0-10" opacity="1"/><path class="data-point" fill="rgb(17, 165, 121)" data-type="point" transform="translate(0, 0)" d="M252.04,459.42A3,3,0,1,1,258.03999999999996,459.42A3,3,0,1,1,252.04,459.42Z" id="point-0-11" opacity="1"/><path class="data-point" fill="rgb(17, 165, 121)" data-type="point" transform="translate(0, 0)" d="M269.96000000000004,453.024A3,3,0,1,1,275.96000000000004,453.024A3,3,0,1,1,269.96000000000004,453.024Z" id="point-0-12" opacity="1"/><path class="data-point" fill="rgb(17, 165, 121)" data-type="point" transform="translate(0, 0)" d="M287.88,447.80112A3,3,0,1,1,293.88,447.80112A3,3,0,1,1,287.88,447.80112Z" id="point-0-13" opacity="1"/><path class="data-point" fill="rgb(17, 165, 121)" data-type="point" transform="translate(0, 0)" d="M305.8,439.0464A3,3,0,1,1,311.8,439.0464A3,3,0,1,1,305.8,439.0464Z" id="point-0-14" opacity="1"/><path class="data-point" fill="rgb(17, 165, 121)" data-type="point" transform="translate(0, 0)" d="M323.72,429.624A3,3,0,1,1,329.72,429.624A3,3,0,1,1,323.72,429.624Z" id="point-0-15" opacity="1"/><path class="data-point" fill="rgb(17, 165, 121)" data-type="point" transform="translate(0, 0)" d="M341.64000000000004,420.90672000000006A3,3,0,1,1,347.64000000000004,420.90672000000006A3,3,0,1,1,341.64000000000004,420.90672000000006Z" id="point-0-16" opacity="1"/><path class="data-point" fill="rgb(17, 165, 121)" data-type="point" transform="translate(0, 0)" d="M359.56,411.57792A3,3,0,1,1,365.56,411.57792A3,3,0,1,1,359.56,411.57792Z" id="point-0-17" opacity="1"/><path class="data-point" fill="rgb(17, 165, 121)" data-type="point" transform="translate(0, 0)" d="M377.48,405.23807999999997A3,3,0,1,1,383.48,405.23807999999997A3,3,0,1,1,377.48,405.23807999999997Z" id="point-0-18" opacity="1"/><path class="data-point" fill="rgb(17, 165, 121)" data-type="point" transform="translate(0, 0)" d="M395.40000000000003,393.82512A3,3,0,1,1,401.40000000000003,393.82512A3,3,0,1,1,395.40000000000003,393.82512Z" id="point-0-19" opacity="1"/><path class="data-point" fill="rgb(17, 165, 121)" data-type="point" transform="translate(0, 0)" d="M413.32,385.50096A3,3,0,1,1,419.32,385.50096A3,3,0,1,1,413.32,385.50096Z" id="point-0-20" opacity="1"/><path class="data-point" fill="rgb(17, 165, 121)" data-type="point" transform="translate(0, 0)" d="M431.24,374.98032A3,3,0,1,1,437.24,374.98032A3,3,0,1,1,431.24,374.98032Z" id="point-0-21" opacity="1"/><path class="data-point" fill="rgb(17, 165, 121)" data-type="point" transform="translate(0, 0)" d="M449.16,367.56720000000007A3,3,0,1,1,455.16,367.56720000000007A3,3,0,1,1,449.16,367.56720000000007Z" id="point-0-22" opacity="1"/><path class="data-point" fill="rgb(17, 165, 121)" data-type="point" transform="translate(0, 0)" d="M467.08,367.56720000000007A3,3,0,1,1,473.08,367.56720000000007A3,3,0,1,1,467.08,367.56720000000007Z" id="point-0-23" opacity="1"/><path class="data-point" fill="rgb(17, 165, 121)" data-type="point" transform="translate(0, 0)" d="M485,363.86688000000004A3,3,0,1,1,491,363.86688000000004A3,3,0,1,1,485,363.86688000000004Z" id="point-0-24" opacity="1"/><path class="data-point" fill="rgb(17, 165, 121)" data-type="point" transform="translate(0, 0)" d="M502.92,366.96192A3,3,0,1,1,508.92,366.96192A3,3,0,1,1,502.92,366.96192Z" id="point-0-25" opacity="1"/><path class="data-point" fill="rgb(17, 165, 121)" data-type="point" transform="translate(0, 0)" d="M520.84,356.3664A3,3,0,1,1,526.84,356.3664A3,3,0,1,1,520.84,356.3664Z" id="point-0-26" opacity="1"/><path class="data-point" fill="rgb(17, 165, 121)" data-type="point" transform="translate(0, 0)" d="M538.76,351.73008000000004A3,3,0,1,1,544.76,351.73008000000004A3,3,0,1,1,538.76,351.73008000000004Z" id="point-0-27" opacity="1"/><path class="data-point" fill="rgb(17, 165, 121)" data-type="point" transform="translate(0, 0)" d="M556.68,347.2774656A3,3,0,1,1,562.68,347.2774656A3,3,0,1,1,556.68,347.2774656Z" id="point-0-28" opacity="1"/><path class="data-point" fill="rgb(17, 165, 121)" data-type="point" transform="translate(0, 0)" d="M574.6,337.7861136A3,3,0,1,1,580.6,337.7861136A3,3,0,1,1,574.6,337.7861136Z" id="point-0-29" opacity="1"/><path class="data-point" fill="rgb(17, 165, 121)" data-type="point" transform="translate(0, 0)" d="M592.52,327.8743104A3,3,0,1,1,598.52,327.8743104A3,3,0,1,1,592.52,327.8743104Z" id="point-0-30" opacity="1"/><path class="data-point" fill="rgb(17, 165, 121)" data-type="point" transform="translate(0, 0)" d="M610.44,317.523648A3,3,0,1,1,616.44,317.523648A3,3,0,1,1,610.44,317.523648Z" id="point-0-31" opacity="1"/><path class="data-point" fill="rgb(17, 165, 121)" data-type="point" transform="translate(0, 0)" d="M628.36,306.71453280000003A3,3,0,1,1,634.36,306.71453280000003A3,3,0,1,1,628.36,306.71453280000003Z" id="point-0-32" opacity="1"/><path class="data-point" fill="rgb(17, 165, 121)" data-type="point" transform="translate(0, 0)" d="M646.2800000000001,295.4268096A3,3,0,1,1,652.2800000000001,295.4268096A3,3,0,1,1,646.2800000000001,295.4268096Z" id="point-0-33" opacity="1"/><path class="data-point" fill="rgb(17, 165, 121)" data-type="point" transform="translate(0, 0)" d="M664.1999999999999,283.6391376A3,3,0,1,1,670.1999999999999,283.6391376A3,3,0,1,1,664.1999999999999,283.6391376Z" id="point-0-34" opacity="1"/><path class="data-point" fill="rgb(17, 165, 121)" data-type="point" transform="translate(0, 0)" d="M682.12,271.32948960000004A3,3,0,1,1,688.12,271.32948960000004A3,3,0,1,1,682.12,271.32948960000004Z" id="point-0-35" opacity="1"/><path class="data-point" fill="rgb(17, 165, 121)" data-type="point" transform="translate(0, 0)" d="M700.04,258.4746528A3,3,0,1,1,706.04,258.4746528A3,3,0,1,1,700.04,258.4746528Z" id="point-0-36" opacity="1"/><path class="data-point" fill="rgb(17, 165, 121)" data-type="point" transform="translate(0, 0)" d="M717.96,245.05054079999996A3,3,0,1,1,723.96,245.05054079999996A3,3,0,1,1,717.96,245.05054079999996Z" id="point-0-37" opacity="1"/><path class="data-point" fill="rgb(17, 165, 121)" data-type="point" transform="translate(0, 0)" d="M735.88,231.031944A3,3,0,1,1,741.88,231.031944A3,3,0,1,1,735.88,231.031944Z" id="point-0-38" opacity="1"/><path class="data-point" fill="rgb(17, 165, 121)" data-type="point" transform="translate(0, 0)" d="M753.8000000000001,216.3925296A3,3,0,1,1,759.8000000000001,216.3925296A3,3,0,1,1,753.8000000000001,216.3925296Z" id="point-0-39" opacity="1"/><path class="data-point" fill="rgb(17, 165, 121)" data-type="point" transform="translate(0, 0)" d="M771.7199999999999,201.1047792A3,3,0,1,1,777.7199999999999,201.1047792A3,3,0,1,1,771.7199999999999,201.1047792Z" id="point-0-40" opacity="1"/><path class="data-point" fill="rgb(17, 165, 121)" data-type="point" transform="translate(0, 0)" d="M789.64,185.13998880000003A3,3,0,1,1,795.64,185.13998880000003A3,3,0,1,1,789.64,185.13998880000003Z" id="point-0-41" opacity="1"/><path class="data-point" fill="rgb(17, 165, 121)" data-type="point" transform="translate(0, 0)" d="M807.56,168.46820639999999A3,3,0,1,1,813.56,168.46820639999999A3,3,0,1,1,807.56,168.46820639999999Z" id="point-0-42" opacity="1"/><path class="data-point" fill="rgb(17, 165, 121)" data-type="point" transform="translate(0, 0)" d="M825.48,151.0581072A3,3,0,1,1,831.48,151.0581072A3,3,0,1,1,825.48,151.0581072Z" id="point-0-43" opacity="1"/><path class="data-point" fill="rgb(17, 165, 121)" data-type="point" transform="translate(0, 0)" d="M843.4,132.8769936A3,3,0,1,1,849.4,132.8769936A3,3,0,1,1,843.4,132.8769936Z" id="point-0-44" opacity="1"/><path class="data-point" fill="rgb(17, 165, 121)" data-type="point" transform="translate(0, 0)" d="M861.32,113.89073280000002A3,3,0,1,1,867.32,113.89073280000002A3,3,0,1,1,861.32,113.89073280000002Z" id="point-0-45" opacity="1"/><path class="data-point" fill="rgb(17, 165, 121)" data-type="point" transform="translate(0, 0)" d="M879.24,94.06363200000004A3,3,0,1,1,885.24,94.06363200000004A3,3,0,1,1,879.24,94.06363200000004Z" id="point-0-46" opacity="1"/></g><g class="series" transform="translate(15,20)"><path class="data-point" fill="rgb(128, 35, 146)" data-type="point" transform="translate(0, 0)" d="M54.92,496.19856000000004A3,3,0,1,1,60.92,496.19856000000004A3,3,0,1,1,54.92,496.19856000000004Z" id="point-1-0" opacity="1"/><path class="data-point" fill="rgb(128, 35, 146)" data-type="point" transform="translate(0, 0)" d="M72.84,492.18624A3,3,0,1,1,78.84,492.18624A3,3,0,1,1,72.84,492.18624Z" id="point-1-1" opacity="1"/><path class="data-point" fill="rgb(128, 35, 146)" data-type="point" transform="translate(0, 0)" d="M90.75999999999999,487.7808A3,3,0,1,1,96.75999999999999,487.7808A3,3,0,1,1,90.75999999999999,487.7808Z" id="point-1-2" opacity="1"/><path class="data-point" fill="rgb(128, 35, 146)" data-type="point" transform="translate(0, 0)" d="M108.68,484.21776A3,3,0,1,1,114.68,484.21776A3,3,0,1,1,108.68,484.21776Z" id="point-1-3" opacity="1"/><path class="data-point" fill="rgb(128, 35, 146)" data-type="point" transform="translate(0, 0)" d="M126.60000000000002,480.49248A3,3,0,1,1,132.60000000000002,480.49248A3,3,0,1,1,126.60000000000002,480.49248Z" id="point-1-4" opacity="1"/><path class="data-point" fill="rgb(128, 35, 146)" data-type="point" transform="translate(0, 0)" d="M144.51999999999998,476.02464000000003A3,3,0,1,1,150.51999999999998,476.02464000000003A3,3,0,1,1,144.51999999999998,476.02464000000003Z" id="point-1-5" opacity="1"/><path class="data-point" fill="rgb(128, 35, 146)" data-type="point" transform="translate(0, 0)" d="M162.44,471.48192A3,3,0,1,1,168.44,471.48192A3,3,0,1,1,162.44,471.48192Z" id="point-1-6" opacity="1"/><path class="data-point" fill="rgb(128, 35, 146)" data-type="point" transform="translate(0, 0)" d="M180.36,466.3152A3,3,0,1,1,186.36,466.3152A3,3,0,1,1,180.36,466.3152Z" id="point-1-7" opacity="1"/><path class="data-point" fill="rgb(128, 35, 146)" data-type="point" transform="translate(0, 0)" d="M198.28,461.69136000000003A3,3,0,1,1,204.28,461.69136000000003A3,3,0,1,1,198.28,461.69136000000003Z" id="point-1-8" opacity="1"/><path class="data-point" fill="rgb(128, 35, 146)" data-type="point" transform="translate(0, 0)" d="M216.20000000000002,456.81168A3,3,0,1,1,222.20000000000002,456.81168A3,3,0,1,1,216.20000000000002,456.81168Z" id="point-1-9" opacity="1"/><path class="data-point" fill="rgb(128, 35, 146)" data-type="point" transform="translate(0, 0)" d="M234.12,451.12080000000003A3,3,0,1,1,240.12,451.12080000000003A3,3,0,1,1,234.12,451.12080000000003Z" id="point-1-10" opacity="1"/><path class="data-point" fill="rgb(128, 35, 146)" data-type="point" transform="translate(0, 0)" d="M252.04,444.27552000000003A3,3,0,1,1,258.03999999999996,444.27552000000003A3,3,0,1,1,252.04,444.27552000000003Z" id="point-1-11" opacity="1"/><path class="data-point" fill="rgb(128, 35, 146)" data-type="point" transform="translate(0, 0)" d="M269.96000000000004,435.65184A3,3,0,1,1,275.96000000000004,435.65184A3,3,0,1,1,269.96000000000004,435.65184Z" id="point-1-12" opacity="1"/><path class="data-point" fill="rgb(128, 35, 146)" data-type="point" transform="translate(0, 0)" d="M287.88,427.10928A3,3,0,1,1,293.88,427.10928A3,3,0,1,1,287.88,427.10928Z" id="point-1-13" opacity="1"/><path class="data-point" fill="rgb(128, 35, 146)" data-type="point" transform="translate(0, 0)" d="M305.8,418.66656A3,3,0,1,1,311.8,418.66656A3,3,0,1,1,305.8,418.66656Z" id="point-1-14" opacity="1"/><path class="data-point" fill="rgb(128, 35, 146)" data-type="point" transform="translate(0, 0)" d="M323.72,409.99296000000004A3,3,0,1,1,329.72,409.99296000000004A3,3,0,1,1,323.72,409.99296000000004Z" id="point-1-15" opacity="1"/><path class="data-point" fill="rgb(128, 35, 146)" data-type="point" transform="translate(0, 0)" d="M341.64000000000004,399.93408A3,3,0,1,1,347.64000000000004,399.93408A3,3,0,1,1,341.64000000000004,399.93408Z" id="point-1-16" opacity="1"/><path class="data-point" fill="rgb(128, 35, 146)" data-type="point" transform="translate(0, 0)" d="M359.56,390.47424A3,3,0,1,1,365.56,390.47424A3,3,0,1,1,359.56,390.47424Z" id="point-1-17" opacity="1"/><path class="data-point" fill="rgb(128, 35, 146)" data-type="point" transform="translate(0, 0)" d="M377.48,382.79904A3,3,0,1,1,383.48,382.79904A3,3,0,1,1,377.48,382.79904Z" id="point-1-18" opacity="1"/><path class="data-point" fill="rgb(128, 35, 146)" data-type="point" transform="translate(0, 0)" d="M395.40000000000003,373.11456A3,3,0,1,1,401.40000000000003,373.11456A3,3,0,1,1,395.40000000000003,373.11456Z" id="point-1-19" opacity="1"/><path class="data-point" fill="rgb(128, 35, 146)" data-type="point" transform="translate(0, 0)" d="M413.32,364.35360000000003A3,3,0,1,1,419.32,364.35360000000003A3,3,0,1,1,413.32,364.35360000000003Z" id="point-1-20" opacity="1"/><path class="data-point" fill="rgb(128, 35, 146)" data-type="point" transform="translate(0, 0)" d="M431.24,356.0232A3,3,0,1,1,437.24,356.0232A3,3,0,1,1,431.24,356.0232Z" id="point-1-21" opacity="1"/><path class="data-point" fill="rgb(128, 35, 146)" data-type="point" transform="translate(0, 0)" d="M449.16,348.96576A3,3,0,1,1,455.16,348.96576A3,3,0,1,1,449.16,348.96576Z" id="point-1-22" opacity="1"/><path class="data-point" fill="rgb(128, 35, 146)" data-type="point" transform="translate(0, 0)" d="M467.08,342.67584A3,3,0,1,1,473.08,342.67584A3,3,0,1,1,467.08,342.67584Z" id="point-1-23" opacity="1"/><path class="data-point" fill="rgb(128, 35, 146)" data-type="point" transform="translate(0, 0)" d="M485,342.31392A3,3,0,1,1,491,342.31392A3,3,0,1,1,485,342.31392Z" id="point-1-24" opacity="1"/><path class="data-point" fill="rgb(128, 35, 146)" data-type="point" transform="translate(0, 0)" d="M502.92,333.7464A3,3,0,1,1,508.92,333.7464A3,3,0,1,1,502.92,333.7464Z" id="point-1-25" opacity="1"/><path class="data-point" fill="rgb(128, 35, 146)" data-type="point" transform="translate(0, 0)" d="M520.84,328.05552A3,3,0,1,1,526.84,328.05552A3,3,0,1,1,520.84,328.05552Z" id="point-1-26" opacity="1"/><path class="data-point" fill="rgb(128, 35, 146)" data-type="point" transform="translate(0, 0)" d="M538.76,324.8856A3,3,0,1,1,544.76,324.8856A3,3,0,1,1,538.76,324.8856Z" id="point-1-27" opacity="1"/><path class="data-point" fill="rgb(128, 35, 146)" data-type="point" transform="translate(0, 0)" d="M556.68,318.2683296A3,3,0,1,1,562.68,318.2683296A3,3,0,1,1,556.68,318.2683296Z" id="point-1-28" opacity="1"/><path class="data-point" fill="rgb(128, 35, 146)" data-type="point" transform="translate(0, 0)" d="M574.6,308.0710464A3,3,0,1,1,580.6,308.0710464A3,3,0,1,1,574.6,308.0710464Z" id="point-1-29" opacity="1"/><path class="data-point" fill="rgb(128, 35, 146)" data-type="point" transform="translate(0, 0)" d="M592.52,297.44638560000004A3,3,0,1,1,598.52,297.44638560000004A3,3,0,1,1,592.52,297.44638560000004Z" id="point-1-30" opacity="1"/><path class="data-point" fill="rgb(128, 35, 146)" data-type="point" transform="translate(0, 0)" d="M610.44,286.37643840000004A3,3,0,1,1,616.44,286.37643840000004A3,3,0,1,1,610.44,286.37643840000004Z" id="point-1-31" opacity="1"/><path class="data-point" fill="rgb(128, 35, 146)" data-type="point" transform="translate(0, 0)" d="M628.36,274.842672A3,3,0,1,1,634.36,274.842672A3,3,0,1,1,628.36,274.842672Z" id="point-1-32" opacity="1"/><path class="data-point" fill="rgb(128, 35, 146)" data-type="point" transform="translate(0, 0)" d="M646.2800000000001,262.8254928A3,3,0,1,1,652.2800000000001,262.8254928A3,3,0,1,1,646.2800000000001,262.8254928Z" id="point-1-33" opacity="1"/><path class="data-point" fill="rgb(128, 35, 146)" data-type="point" transform="translate(0, 0)" d="M664.1999999999999,250.3046832A3,3,0,1,1,670.1999999999999,250.3046832A3,3,0,1,1,664.1999999999999,250.3046832Z" id="point-1-34" opacity="1"/><path class="data-point" fill="rgb(128, 35, 146)" data-type="point" transform="translate(0, 0)" d="M682.12,237.25921440000002A3,3,0,1,1,688.12,237.25921440000002A3,3,0,1,1,682.12,237.25921440000002Z" id="point-1-35" opacity="1"/><path class="data-point" fill="rgb(128, 35, 146)" data-type="point" transform="translate(0, 0)" d="M700.04,223.66705920000004A3,3,0,1,1,706.04,223.66705920000004A3,3,0,1,1,700.04,223.66705920000004Z" id="point-1-36" opacity="1"/><path class="data-point" fill="rgb(128, 35, 146)" data-type="point" transform="translate(0, 0)" d="M717.96,209.5052544A3,3,0,1,1,723.96,209.5052544A3,3,0,1,1,717.96,209.5052544Z" id="point-1-37" opacity="1"/><path class="data-point" fill="rgb(128, 35, 146)" data-type="point" transform="translate(0, 0)" d="M735.88,194.75002560000001A3,3,0,1,1,741.88,194.75002560000001A3,3,0,1,1,735.88,194.75002560000001Z" id="point-1-38" opacity="1"/><path class="data-point" fill="rgb(128, 35, 146)" data-type="point" transform="translate(0, 0)" d="M753.8000000000001,179.37641280000003A3,3,0,1,1,759.8000000000001,179.37641280000003A3,3,0,1,1,753.8000000000001,179.37641280000003Z" id="point-1-39" opacity="1"/><path class="data-point" fill="rgb(128, 35, 146)" data-type="point" transform="translate(0, 0)" d="M771.7199999999999,163.35852A3,3,0,1,1,777.7199999999999,163.35852A3,3,0,1,1,771.7199999999999,163.35852Z" id="point-1-40" opacity="1"/><path class="data-point" fill="rgb(128, 35, 146)" data-type="point" transform="translate(0, 0)" d="M789.64,146.66939040000005A3,3,0,1,1,795.64,146.66939040000005A3,3,0,1,1,789.64,146.66939040000005Z" id="point-1-41" opacity="1"/><path class="data-point" fill="rgb(128, 35, 146)" data-type="point" transform="translate(0, 0)" d="M807.56,129.2808192A3,3,0,1,1,813.56,129.2808192A3,3,0,1,1,807.56,129.2808192Z" id="point-1-42" opacity="1"/><path class="data-point" fill="rgb(128, 35, 146)" data-type="point" transform="translate(0, 0)" d="M825.48,111.16360319999995A3,3,0,1,1,831.48,111.16360319999995A3,3,0,1,1,825.48,111.16360319999995Z" id="point-1-43" opacity="1"/><path class="data-point" fill="rgb(128, 35, 146)" data-type="point" transform="translate(0, 0)" d="M843.4,92.28710400000006A3,3,0,1,1,849.4,92.28710400000006A3,3,0,1,1,843.4,92.28710400000006Z" id="point-1-44" opacity="1"/><path class="data-point" fill="rgb(128, 35, 146)" data-type="point" transform="translate(0, 0)" d="M861.32,72.61956000000004A3,3,0,1,1,867.32,72.61956000000004A3,3,0,1,1,861.32,72.61956000000004Z" id="point-1-45" opacity="1"/><path class="data-point" fill="rgb(128, 35, 146)" data-type="point" transform="translate(0, 0)" d="M879.24,52.12783680000007A3,3,0,1,1,885.24,52.12783680000007A3,3,0,1,1,879.24,52.12783680000007Z" id="point-1-46" opacity="1"/></g></g><g id="data-labels"/><g class="annotations above"><g class="axis-highlights" transform="translate(15, 20)" style="opacity: 1;"/></g></svg>