<svg xmlns="http://www.w3.org/2000/svg" id="graphic" width="961" height="634.6"><g id="facets"><g class="facet" transform="translate(15,20)" opacity="1"><text class="facet-title" y="0" font-size="16" font-weight="bold" dominant-baseline="middle" x="0" clip-path="url(#facet-clip-0)" fill="black"/><g class="plot"><clipPath class="facet-clip" id="facet-clip-0"><rect width="951" height="581.6" transform="translate(-7.5,-10)"/></clipPath><g class="bg"><rect fill="none" width="936" height="561.6" style="fill: none;"/></g><g class="interaction"><g class="series"><path data-target="point-0-0" d="M78.36089585499988,561.6L66.29725927000001,511.6082399999999L0,511.6082399999999L0,561.6Z" style="opacity: 0;"/><path data-target="point-0-1" d="M66.29725927000001,511.6082399999999L78.36089585499988,561.6L94.4140487021429,561.6L84.23642387,507.1716L67.49301297571428,507.1716Z" style="opacity: 0;"/><path data-target="point-0-2" d="M84.23642387,507.1716L94.4140487021429,561.6L109.05417407999994,561.6L102.34875432,504.28871999999996L85.20615263,504.28871999999996Z" style="opacity: 0;"/><path data-target="point-0-3" d="M102.34875432,504.28871999999996L109.05417407999994,561.6L129.87139226285714,561.6L120.06799535714285,501.44327999999996L103.35642116571427,501.44327999999996Z" style="opacity: 0;"/><path data-target="point-0-4" d="M120.06799535714285,501.44327999999996L129.87139226285714,561.6L162.22210139428574,561.6L137.8043672,498.08304L121.384339375,498.08304Z" style="opacity: 0;"/><path data-target="point-0-5" d="M137.8043672,498.08304L162.22210139428574,561.6L173.6291098628571,561.6L155.87400752571426,491.94288L139.15136479999998,491.94287999999995Z" style="opacity: 0;"/><path data-target="point-0-6" d="M155.87400752571426,491.94288L173.6291098628571,561.6L202.06727790357155,561.6L173.56589989642856,486.43919999999997L157.33435004571427,486.43919999999997Z" style="opacity: 0;"/><path data-target="point-0-7" d="M173.56589989642856,486.43919999999997L202.06727790357155,561.6L212.9577221792856,561.6L191.4659237342857,479.63447999999994L175.2363979,479.63447999999994Z" style="opacity: 0;"/><path data-target="point-0-8" d="M191.4659237342857,479.63447999999994L212.9577221792856,561.6L243.828894857143,561.6L209.12903987142857,474.18696L193.44629180857143,474.18696Z" style="opacity: 0;"/><path data-target="point-0-9" d="M209.12903987142857,474.18696L243.828894857143,561.6L269.1722048885714,561.6L227.22279239285712,467.33543999999995L211.26909990857143,467.33543999999995Z" style="opacity: 0;"/><path data-target="point-0-10" d="M227.22279239285712,467.33543999999995L269.1722048885714,561.6L294.78843446857144,561.6L244.9003993142857,458.67744L229.25780891071426,458.67744Z" style="opacity: 0;"/><path data-target="point-0-11" d="M244.9003993142857,458.67744L294.78843446857144,561.6L336.1427509028573,561.6L262.14517961142855,448.08191999999997L247.7782182285714,448.08191999999997Z" style="opacity: 0;"/><path data-target="point-0-12" d="M262.14517961142855,448.08191999999997L336.1427509028573,561.6L410.4502548121424,561.6L282.0157252214285,436.01687999999996L265.9766916,436.01687999999996Z" style="opacity: 0;"/><path data-target="point-0-13" d="M281.8529239,420.43248L282.0157252214285,436.01687999999996L410.4502548121424,561.6L455.13432985714286,561.6L445.31333515259746,550.2913062436095L367.5565586341562,470.03919050130605L305.8373953464286,420.43248Z" style="opacity: 0;"/><path data-target="point-0-14" d="M296.68268103928574,403.416L305.8373953464286,420.43248L367.5565586341562,470.03919050130605L321.3438584228572,403.416Z" style="opacity: 0;"/><path data-target="point-0-15" d="M313.8522989485714,390.42431999999997L321.3438584228572,403.416L367.5565586341562,470.03919050130605L445.31333515259746,550.2913062436095L338.5978396835714,390.42431999999997Z" style="opacity: 0;"/><path data-target="point-0-16" d="M332.78955787214284,378.5184L338.5978396835714,390.42431999999997L445.31333515259746,550.2913062436095L455.13432985714286,561.6L492.5931534375,561.6L489.25088582970574,554.287004208587L468.2964555029102,520.3271703745722L442.4963417052169,483.07597153297354L358.17439446285715,378.5184Z" style="opacity: 0;"/><path data-target="point-0-17" d="M349.03153091857143,364.07592L358.17439446285715,378.5184L442.4963417052169,483.07597153297354L373.62718688142854,364.07592Z" style="opacity: 0;"/><path data-target="point-0-18" d="M267.66979792333245,113.87382489438929L369.97574390999995,355.09032L391.3108365185714,355.09031999999996L387.3720125478571,346.30127999999996Z" style="opacity: 0;"/><path data-target="point-0-19" d="M216.1126448083393,4.07659247319549L267.66979792333245,113.87382489438929L387.3720125478571,346.30127999999996L409.4370124142857,346.30127999999996L405.07276365714284,336.5856Z" style="opacity: 0;"/><path data-target="point-0-20" d="M405.07276365714284,336.5856L409.4370124142857,346.30127999999996L451.9332853203291,428.6498485573353L443.19999999999993,382.07565357712565L426.14001142499995,336.58559999999994Z" style="opacity: 0;"/><path data-target="point-0-21" d="M424.3121877,329.44392L426.14001142499995,336.58559999999994L443.19999999999993,382.07565357712565L443.19999999999993,329.44392Z" style="opacity: 0;"/><path data-target="point-0-22" d="M443.19999999999993,329.44392L443.19999999999993,382.07565357712565L451.9332853203291,428.6498485573353L489.25088582970574,554.287004208587L492.5931534375,561.6L521.2350186092859,561.6L460.9630165035714,328.01184L443.4378659307142,328.01184Z" style="opacity: 0;"/><path data-target="point-0-23" d="M460.9630165035714,328.01184L521.2350186092859,561.6L541.3507537649997,561.6L478.85838608142853,323.26631999999995L461.28524578571427,323.26631999999995Z" style="opacity: 0;"/><path data-target="point-0-24" d="M478.85838608142853,323.26631999999995L541.3507537649997,561.6L561.7810914742861,561.6L496.65461796571424,318.07151999999996L479.2599626742857,318.07151999999996Z" style="opacity: 0;"/><path data-target="point-0-25" d="M496.65461796571424,318.07151999999996L561.7810914742861,561.6L599.5428765264284,561.6L514.6849610835715,313.18559999999997L497.27731101999996,313.18559999999997Z" style="opacity: 0;"/><path data-target="point-0-26" d="M514.6849610835715,313.18559999999997L599.5428765264284,561.6L613.5382568454365,561.6L580.5895112573703,444.1191189597014L532.6886302071429,307.24199999999996L515.06370638,307.24199999999996Z" style="opacity: 0;"/><path data-target="point-0-27" d="M532.6886302071429,307.24199999999996L580.5895112573703,444.1191189597014L550.4197562540875,301.1112L532.9063830857143,301.1112Z" style="opacity: 0;"/><path data-target="point-0-28" d="M550.4197562540875,301.1112L580.5895112573703,444.1191189597014L613.5382568454365,561.6L723.9288590058239,561.6L569.5056050004541,296.9006975L551.0885438246198,296.9006975Z" style="opacity: 0;"/><path data-target="point-0-29" d="M567.7234934524223,286.138944L569.5056050004541,296.9006975L723.9288590058239,561.6L754.5424939597759,561.6L587.4008875573654,286.138944Z" style="opacity: 0;"/><path data-target="point-0-30" d="M585.6686597692045,274.93942300000003L587.4008875573654,286.138944L754.5424939597759,561.6L786.1916970644927,561.6L605.2861736829184,274.93942300000003Z" style="opacity: 0;"/><path data-target="point-0-31" d="M603.6245038903138,263.2845385L605.2861736829184,274.93942300000003L786.1916970644927,561.6L818.9590901704964,561.6L623.1600033680629,263.2845385Z" style="opacity: 0;"/><path data-target="point-0-32" d="M621.5925674994493,251.155757L623.1600033680629,263.2845385L818.9590901704964,561.6L852.9465824959719,561.6L641.0208152259671,251.155757Z" style="opacity: 0;"/><path data-target="point-0-33" d="M639.574614362771,238.53360949999998L641.0208152259671,251.155757L852.9465824959719,561.6L888.2444500479663,561.6L658.8666818039218,238.53360949999998Z" style="opacity: 0;"/><path data-target="point-0-34" d="M657.5727202299611,225.3982535L658.8666818039218,238.53360949999998L888.2444500479663,561.6L924.9630428581868,561.6L676.6956698893638,225.3982535Z" style="opacity: 0;"/><path data-target="point-0-35" d="M675.5889794903683,211.72862849999999L676.6956698893638,225.3982535L924.9630428581868,561.6L936,561.6L936,526.1617288893761L694.505359855182,211.72862849999999Z" style="opacity: 0;"/><path data-target="point-0-36" d="M693.626065277641,197.50320699999997L694.505359855182,211.72862849999999L936,526.1617288893761L936,477.5578404400381L712.2933121190702,197.50320699999997Z" style="opacity: 0;"/><path data-target="point-0-37" d="M711.6866225525102,182.69915049999997L712.2933121190702,197.50320699999997L936,477.5578404400381L936,430.5867374749612L730.0564728735586,182.69915049999997Z" style="opacity: 0;"/><path data-target="point-0-38" d="M729.7740289893466,167.2932455L730.0564728735586,182.69915049999997L936,430.5867374749612L936,385.1046582873999L747.7920388635783,167.29324549999998Z" style="opacity: 0;"/><path data-target="point-0-39" d="M747.7920388635783,167.29324549999998L936,385.1046582873999L936,340.98427615609353L765.4961222387908,151.2605955L747.8913571937402,151.2605955Z" style="opacity: 0;"/><path data-target="point-0-40" d="M765.4961222387908,151.2605955L936,340.98427615609353L936,298.0875209676457L783.1650436446117,134.576021L766.0428828212031,134.576021Z" style="opacity: 0;"/><path data-target="point-0-41" d="M783.1650436446117,134.576021L936,298.0875209676457L936,256.292612868053L800.7944410909981,117.21293999999999L784.232658994365,117.21293999999999Z" style="opacity: 0;"/><path data-target="point-0-42" d="M800.7944410909981,117.21293999999999L936,256.292612868053L936,215.47305038676313L818.3795066865445,99.143741L802.465521350882,99.143741Z" style="opacity: 0;"/><path data-target="point-0-43" d="M818.3795066865445,99.143741L936,215.47305038676313L936,175.51376095190722L835.9147323013832,80.33950099999998L820.7467705713257,80.33950099999998Z" style="opacity: 0;"/><path data-target="point-0-44" d="M835.9147323013832,80.33950099999998L936,175.51376095190722L936,136.29706780963988L853.3944347991428,60.770642499999994L839.0824969636926,60.770642499999994Z" style="opacity: 0;"/><path data-target="point-0-45" d="M853.3944347991428,60.770642499999994L936,136.29706780963988L936,97.71192977690077L870.8119321729375,40.405903L857.4790196931428,40.405902999999995Z" style="opacity: 0;"/><path data-target="point-0-46" d="M870.8119321729375,40.405903L936,97.71192977690077L936,19.212897499999997L875.9437806101098,19.212897499999997Z" style="opacity: 0;"/><path data-target="point-1-0" d="M0,511.6082399999999L66.29725927000001,511.6082399999999L67.49301297571428,507.1716L0,241.2921918441117Z" style="opacity: 0;"/><path data-target="point-1-1" d="M0,241.2921918441117L67.49301297571428,507.1716L84.23642387,507.1716L85.20615263,504.28871999999996L46.872712269928634,219.82934675890004L28.45299295924464,109.96921081638038L17.627355306023503,65.14653103490696L10.109522989087822,36.73906748913117L0,12.140485598553138Z" style="opacity: 0;"/><path data-target="point-1-2" d="M46.872712269928634,219.82934675890004L85.20615263,504.28871999999996L102.34875432,504.28871999999996L103.35642116571427,501.44327999999996Z" style="opacity: 0;"/><path data-target="point-1-3" d="M28.45299295924464,109.96921081638038L46.872712269928634,219.82934675890004L103.35642116571427,501.44327999999996L120.06799535714285,501.44327999999996L121.384339375,498.08304L74.54068886776518,277.187546891908L55.604576052356094,203.3509797839368Z" style="opacity: 0;"/><path data-target="point-1-4" d="M74.54068886776518,277.187546891908L121.384339375,498.08304L137.8043672,498.08304L139.15136479999998,491.94287999999995Z" style="opacity: 0;"/><path data-target="point-1-5" d="M55.604576052356094,203.3509797839368L74.54068886776518,277.187546891908L139.15136479999998,491.94287999999995L155.87400752571426,491.94288L157.33435004571427,486.43919999999997Z" style="opacity: 0;"/><path data-target="point-1-6" d="M17.627355306023503,65.14653103490696L28.45299295924464,109.96921081638038L55.604576052356094,203.3509797839368L157.33435004571427,486.43919999999997L173.56589989642856,486.43919999999997L175.2363979,479.63447999999994Z" style="opacity: 0;"/><path data-target="point-1-7" d="M10.109522989087822,36.73906748913117L17.627355306023503,65.14653103490696L175.2363979,479.63447999999994L191.4659237342857,479.63447999999994L193.44629180857143,474.18696L107.36926201948631,225.2488202944323L79.52906172067946,167.62622970138324L21.377360744095228,56.957073537895155Z" style="opacity: 0;"/><path data-target="point-1-8" d="M107.36926201948631,225.2488202944323L193.44629180857143,474.18696L209.12903987142857,474.18696L211.26909990857143,467.33543999999995L157.38694316485973,320.8027682028036L154.62662284449564,314.5927613555394Z" style="opacity: 0;"/><path data-target="point-1-9" d="M157.38694316485973,320.8027682028036L211.26909990857143,467.33543999999995L227.22279239285712,467.33543999999995L229.25780891071426,458.67744Z" style="opacity: 0;"/><path data-target="point-1-10" d="M154.62662284449564,314.5927613555394L157.38694316485973,320.8027682028036L229.25780891071426,458.67744L244.9003993142857,458.67744L247.7782182285714,448.08191999999997Z" style="opacity: 0;"/><path data-target="point-1-11" d="M79.52906172067946,167.62622970138324L107.36926201948631,225.2488202944323L154.62662284449564,314.5927613555394L247.7782182285714,448.08191999999997L262.14517961142855,448.08191999999997L265.9766916,436.01687999999996Z" style="opacity: 0;"/><path data-target="point-1-12" d="M21.377360744095228,56.957073537895155L79.52906172067946,167.62622970138324L265.9766916,436.01687999999996L282.0157252214285,436.01687999999996L281.8529239,420.43248Z" style="opacity: 0;"/><path data-target="point-1-13" d="M0,12.140485598553138L10.109522989087822,36.73906748913117L21.377360744095228,56.957073537895155L281.8529239,420.43248L305.8373953464286,420.43248L296.68268103928574,403.416L122.1859703507294,137.00517655477398L25.507411232499507,0L0,0Z" style="opacity: 0;"/><path data-target="point-1-14" d="M122.1859703507294,137.00517655477398L296.68268103928574,403.416L321.3438584228572,403.416L313.8522989485714,390.42431999999997Z" style="opacity: 0;"/><path data-target="point-1-15" d="M25.507411232499507,0L122.1859703507294,137.00517655477398L313.8522989485714,390.42431999999997L338.5978396835714,390.42431999999997L332.78955787214284,378.5184L204.93167618888063,185.16315569428744L69.14425985142904,0Z" style="opacity: 0;"/><path data-target="point-1-16" d="M204.93167618888063,185.16315569428744L332.78955787214284,378.5184L358.17439446285715,378.5184L349.03153091857143,364.07592Z" style="opacity: 0;"/><path data-target="point-1-17" d="M69.14425985142904,0L204.93167618888063,185.16315569428744L349.03153091857143,364.07592L373.62718688142854,364.07592L369.97574390999995,355.09032L267.66979792333245,113.87382489438929L216.1126448083393,4.07659247319549L214.0642662849998,0Z" style="opacity: 0;"/><path data-target="point-1-18" d="M369.97574390999995,355.09032L373.62718688142854,364.07592L442.4963417052169,483.07597153297354L468.2964555029102,520.3271703745722L391.3108365185714,355.09031999999996Z" style="opacity: 0;"/><path data-target="point-1-19" d="M387.3720125478571,346.30127999999996L391.3108365185714,355.09031999999996L468.2964555029102,520.3271703745722L489.25088582970574,554.287004208587L451.9332853203291,428.6498485573353L409.4370124142857,346.30127999999996Z" style="opacity: 0;"/><path data-target="point-1-20" d="M214.0642662849998,0L216.1126448083393,4.07659247319549L405.07276365714284,336.5856L426.14001142499995,336.58559999999994L424.3121877,329.44392L285.2750876057138,0Z" style="opacity: 0;"/><path data-target="point-1-21" d="M285.2750876057138,0L424.3121877,329.44392L443.19999999999993,329.44392L443.4378659307142,328.01184L416.07474968317854,156.8108445403031L390.7156391495383,39.2544868586445L380.9149854350001,0Z" style="opacity: 0;"/><path data-target="point-1-22" d="M416.07474968317854,156.8108445403031L443.4378659307142,328.01184L460.9630165035714,328.01184L461.28524578571427,323.26631999999995Z" style="opacity: 0;"/><path data-target="point-1-23" d="M390.7156391495383,39.2544868586445L416.07474968317854,156.8108445403031L461.28524578571427,323.26631999999995L478.85838608142853,323.26631999999995L479.2599626742857,318.07151999999996Z" style="opacity: 0;"/><path data-target="point-1-24" d="M380.9149854350001,0L390.7156391495383,39.2544868586445L479.2599626742857,318.07151999999996L496.65461796571424,318.07151999999996L497.27731101999996,313.18559999999997L410.2508624200001,0Z" style="opacity: 0;"/><path data-target="point-1-25" d="M410.2508624200001,0L497.27731101999996,313.18559999999997L514.6849610835715,313.18559999999997L515.06370638,307.24199999999996L416.2085928800004,0Z" style="opacity: 0;"/><path data-target="point-1-26" d="M416.2085928800004,0L515.06370638,307.24199999999996L532.6886302071429,307.24199999999996L532.9063830857143,301.1112L446.9488887881305,43.97339654569106L426.5659471562725,0Z" style="opacity: 0;"/><path data-target="point-1-27" d="M446.9488887881305,43.97339654569106L532.9063830857143,301.1112L550.4197562540875,301.1112L551.0885438246198,296.9006975L534.2821362333265,232.00019989511236L483.42224933641836,115.96834337384522Z" style="opacity: 0;"/><path data-target="point-1-28" d="M534.2821362333265,232.00019989511236L551.0885438246198,296.9006975L569.5056050004541,296.9006975L567.7234934524223,286.138944Z" style="opacity: 0;"/><path data-target="point-1-29" d="M483.42224933641836,115.96834337384522L534.2821362333265,232.00019989511236L567.7234934524223,286.138944L587.4008875573654,286.138944L585.6686597692045,274.93942300000003Z" style="opacity: 0;"/><path data-target="point-1-30" d="M426.5659471562725,0L446.9488887881305,43.97339654569106L483.42224933641836,115.96834337384522L585.6686597692045,274.93942300000003L605.2861736829184,274.93942300000003L603.6245038903138,263.2845385L427.30569874706805,0Z" style="opacity: 0;"/><path data-target="point-1-31" d="M427.30569874706805,0L603.6245038903138,263.2845385L623.1600033680629,263.2845385L621.5925674994493,251.155757L446.4592615119633,0Z" style="opacity: 0;"/><path data-target="point-1-32" d="M446.4592615119633,0L621.5925674994493,251.155757L641.0208152259671,251.155757L639.574614362771,238.53360949999998L466.38285461319913,0Z" style="opacity: 0;"/><path data-target="point-1-33" d="M466.38285461319913,0L639.574614362771,238.53360949999998L658.8666818039218,238.53360949999998L657.5727202299611,225.3982535L487.17218143914505,2.842170943040401e-14Z" style="opacity: 0;"/><path data-target="point-1-34" d="M487.17218143914505,2.842170943040401e-14L657.5727202299611,225.3982535L676.6956698893638,225.3982535L675.5889794903683,211.72862849999999L508.9203975360126,0Z" style="opacity: 0;"/><path data-target="point-1-35" d="M508.9203975360126,0L675.5889794903683,211.72862849999999L694.505359855182,211.72862849999999L693.626065277641,197.50320699999997L531.7471465559674,0Z" style="opacity: 0;"/><path data-target="point-1-36" d="M531.7471465559674,0L693.626065277641,197.50320699999997L712.2933121190702,197.50320699999997L711.6866225525102,182.69915049999997L555.7635210669888,0Z" style="opacity: 0;"/><path data-target="point-1-37" d="M555.7635210669888,0L711.6866225525102,182.69915049999997L730.0564728735586,182.69915049999997L729.7740289893466,167.2932455L581.1147397722526,0Z" style="opacity: 0;"/><path data-target="point-1-38" d="M581.1147397722526,0L729.7740289893466,167.2932455L747.7920388635783,167.29324549999998L747.8913571937402,151.2605955L607.9342414680085,0Z" style="opacity: 0;"/><path data-target="point-1-39" d="M607.9342414680085,0L747.8913571937402,151.2605955L765.4961222387908,151.2605955L766.0428828212031,134.576021L636.3894003393433,0Z" style="opacity: 0;"/><path data-target="point-1-40" d="M636.3894003393433,0L766.0428828212031,134.576021L783.1650436446117,134.576021L784.232658994365,117.21293999999999L666.6517606271947,1.4210854715202004e-14Z" style="opacity: 0;"/><path data-target="point-1-41" d="M666.6517606271947,1.4210854715202004e-14L784.232658994365,117.21293999999999L800.7944410909981,117.21293999999999L802.465521350882,99.143741L698.9091867719529,0Z" style="opacity: 0;"/><path data-target="point-1-42" d="M698.9091867719529,0L802.465521350882,99.143741L818.3795066865445,99.143741L820.7467705713257,80.33950099999998L733.3704842119466,0Z" style="opacity: 0;"/><path data-target="point-1-43" d="M733.3704842119466,0L820.7467705713257,80.33950099999998L835.9147323013832,80.33950099999998L839.0824969636926,60.770642499999994L770.2643496076944,0Z" style="opacity: 0;"/><path data-target="point-1-44" d="M770.2643496076944,0L839.0824969636926,60.770642499999994L853.3944347991428,60.770642499999994L857.4790196931428,40.405902999999995L809.835621268875,0Z" style="opacity: 0;"/><path data-target="point-1-45" d="M809.835621268875,0L857.4790196931428,40.405902999999995L870.8119321729375,40.405903L875.9437806101098,19.212897499999997L852.3551875182685,0Z" style="opacity: 0;"/><path data-target="point-1-46" d="M852.3551875182685,0L875.9437806101098,19.212897499999997L936,19.212897499999997L936,0Z" style="opacity: 0;"/></g><g class="series"><path data-target="point-0-0" d="M78.36089585499988,561.6L66.29725927000001,511.6082399999999L0,511.6082399999999L0,561.6Z" style="opacity: 0;"/><path data-target="point-0-1" d="M66.29725927000001,511.6082399999999L78.36089585499988,561.6L94.4140487021429,561.6L84.23642387,507.1716L67.49301297571428,507.1716Z" style="opacity: 0;"/><path data-target="point-0-2" d="M84.23642387,507.1716L94.4140487021429,561.6L109.05417407999994,561.6L102.34875432,504.28871999999996L85.20615263,504.28871999999996Z" style="opacity: 0;"/><path data-target="point-0-3" d="M102.34875432,504.28871999999996L109.05417407999994,561.6L129.87139226285714,561.6L120.06799535714285,501.44327999999996L103.35642116571427,501.44327999999996Z" style="opacity: 0;"/><path data-target="point-0-4" d="M120.06799535714285,501.44327999999996L129.87139226285714,561.6L162.22210139428574,561.6L137.8043672,498.08304L121.384339375,498.08304Z" style="opacity: 0;"/><path data-target="point-0-5" d="M137.8043672,498.08304L162.22210139428574,561.6L173.6291098628571,561.6L155.87400752571426,491.94288L139.15136479999998,491.94287999999995Z" style="opacity: 0;"/><path data-target="point-0-6" d="M155.87400752571426,491.94288L173.6291098628571,561.6L202.06727790357155,561.6L173.56589989642856,486.43919999999997L157.33435004571427,486.43919999999997Z" style="opacity: 0;"/><path data-target="point-0-7" d="M173.56589989642856,486.43919999999997L202.06727790357155,561.6L212.9577221792856,561.6L191.4659237342857,479.63447999999994L175.2363979,479.63447999999994Z" style="opacity: 0;"/><path data-target="point-0-8" d="M191.4659237342857,479.63447999999994L212.9577221792856,561.6L243.828894857143,561.6L209.12903987142857,474.18696L193.44629180857143,474.18696Z" style="opacity: 0;"/><path data-target="point-0-9" d="M209.12903987142857,474.18696L243.828894857143,561.6L269.1722048885714,561.6L227.22279239285712,467.33543999999995L211.26909990857143,467.33543999999995Z" style="opacity: 0;"/><path data-target="point-0-10" d="M227.22279239285712,467.33543999999995L269.1722048885714,561.6L294.78843446857144,561.6L244.9003993142857,458.67744L229.25780891071426,458.67744Z" style="opacity: 0;"/><path data-target="point-0-11" d="M244.9003993142857,458.67744L294.78843446857144,561.6L336.1427509028573,561.6L262.14517961142855,448.08191999999997L247.7782182285714,448.08191999999997Z" style="opacity: 0;"/><path data-target="point-0-12" d="M262.14517961142855,448.08191999999997L336.1427509028573,561.6L410.4502548121424,561.6L282.0157252214285,436.01687999999996L265.9766916,436.01687999999996Z" style="opacity: 0;"/><path data-target="point-0-13" d="M281.8529239,420.43248L282.0157252214285,436.01687999999996L410.4502548121424,561.6L455.13432985714286,561.6L445.31333515259746,550.2913062436095L367.5565586341562,470.03919050130605L305.8373953464286,420.43248Z" style="opacity: 0;"/><path data-target="point-0-14" d="M296.68268103928574,403.416L305.8373953464286,420.43248L367.5565586341562,470.03919050130605L321.3438584228572,403.416Z" style="opacity: 0;"/><path data-target="point-0-15" d="M313.8522989485714,390.42431999999997L321.3438584228572,403.416L367.5565586341562,470.03919050130605L445.31333515259746,550.2913062436095L338.5978396835714,390.42431999999997Z" style="opacity: 0;"/><path data-target="point-0-16" d="M332.78955787214284,378.5184L338.5978396835714,390.42431999999997L445.31333515259746,550.2913062436095L455.13432985714286,561.6L492.5931534375,561.6L489.25088582970574,554.287004208587L468.2964555029102,520.3271703745722L442.4963417052169,483.07597153297354L358.17439446285715,378.5184Z" style="opacity: 0;"/><path data-target="point-0-17" d="M349.03153091857143,364.07592L358.17439446285715,378.5184L442.4963417052169,483.07597153297354L373.62718688142854,364.07592Z" style="opacity: 0;"/><path data-target="point-0-18" d="M267.66979792333245,113.87382489438929L369.97574390999995,355.09032L391.3108365185714,355.09031999999996L387.3720125478571,346.30127999999996Z" style="opacity: 0;"/><path data-target="point-0-19" d="M216.1126448083393,4.07659247319549L267.66979792333245,113.87382489438929L387.3720125478571,346.30127999999996L409.4370124142857,346.30127999999996L405.07276365714284,336.5856Z" style="opacity: 0;"/><path data-target="point-0-20" d="M405.07276365714284,336.5856L409.4370124142857,346.30127999999996L451.9332853203291,428.6498485573353L443.19999999999993,382.07565357712565L426.14001142499995,336.58559999999994Z" style="opacity: 0;"/><path data-target="point-0-21" d="M424.3121877,329.44392L426.14001142499995,336.58559999999994L443.19999999999993,382.07565357712565L443.19999999999993,329.44392Z" style="opacity: 0;"/><path data-target="point-0-22" d="M443.19999999999993,329.44392L443.19999999999993,382.07565357712565L451.9332853203291,428.6498485573353L489.25088582970574,554.287004208587L492.5931534375,561.6L521.2350186092859,561.6L460.9630165035714,328.01184L443.4378659307142,328.01184Z" style="opacity: 0;"/><path data-target="point-0-23" d="M460.9630165035714,328.01184L521.2350186092859,561.6L541.3507537649997,561.6L478.85838608142853,323.26631999999995L461.28524578571427,323.26631999999995Z" style="opacity: 0;"/><path data-target="point-0-24" d="M478.85838608142853,323.26631999999995L541.3507537649997,561.6L561.7810914742861,561.6L496.65461796571424,318.07151999999996L479.2599626742857,318.07151999999996Z" style="opacity: 0;"/><path data-target="point-0-25" d="M496.65461796571424,318.07151999999996L561.7810914742861,561.6L599.5428765264284,561.6L514.6849610835715,313.18559999999997L497.27731101999996,313.18559999999997Z" style="opacity: 0;"/><path data-target="point-0-26" d="M514.6849610835715,313.18559999999997L599.5428765264284,561.6L613.5382568454365,561.6L580.5895112573703,444.1191189597014L532.6886302071429,307.24199999999996L515.06370638,307.24199999999996Z" style="opacity: 0;"/><path data-target="point-0-27" d="M532.6886302071429,307.24199999999996L580.5895112573703,444.1191189597014L550.4197562540875,301.1112L532.9063830857143,301.1112Z" style="opacity: 0;"/><path data-target="point-0-28" d="M550.4197562540875,301.1112L580.5895112573703,444.1191189597014L613.5382568454365,561.6L723.9288590058239,561.6L569.5056050004541,296.9006975L551.0885438246198,296.9006975Z" style="opacity: 0;"/><path data-target="point-0-29" d="M567.7234934524223,286.138944L569.5056050004541,296.9006975L723.9288590058239,561.6L754.5424939597759,561.6L587.4008875573654,286.138944Z" style="opacity: 0;"/><path data-target="point-0-30" d="M585.6686597692045,274.93942300000003L587.4008875573654,286.138944L754.5424939597759,561.6L786.1916970644927,561.6L605.2861736829184,274.93942300000003Z" style="opacity: 0;"/><path data-target="point-0-31" d="M603.6245038903138,263.2845385L605.2861736829184,274.93942300000003L786.1916970644927,561.6L818.9590901704964,561.6L623.1600033680629,263.2845385Z" style="opacity: 0;"/><path data-target="point-0-32" d="M621.5925674994493,251.155757L623.1600033680629,263.2845385L818.9590901704964,561.6L852.9465824959719,561.6L641.0208152259671,251.155757Z" style="opacity: 0;"/><path data-target="point-0-33" d="M639.574614362771,238.53360949999998L641.0208152259671,251.155757L852.9465824959719,561.6L888.2444500479663,561.6L658.8666818039218,238.53360949999998Z" style="opacity: 0;"/><path data-target="point-0-34" d="M657.5727202299611,225.3982535L658.8666818039218,238.53360949999998L888.2444500479663,561.6L924.9630428581868,561.6L676.6956698893638,225.3982535Z" style="opacity: 0;"/><path data-target="point-0-35" d="M675.5889794903683,211.72862849999999L676.6956698893638,225.3982535L924.9630428581868,561.6L936,561.6L936,526.1617288893761L694.505359855182,211.72862849999999Z" style="opacity: 0;"/><path data-target="point-0-36" d="M693.626065277641,197.50320699999997L694.505359855182,211.72862849999999L936,526.1617288893761L936,477.5578404400381L712.2933121190702,197.50320699999997Z" style="opacity: 0;"/><path data-target="point-0-37" d="M711.6866225525102,182.69915049999997L712.2933121190702,197.50320699999997L936,477.5578404400381L936,430.5867374749612L730.0564728735586,182.69915049999997Z" style="opacity: 0;"/><path data-target="point-0-38" d="M729.7740289893466,167.2932455L730.0564728735586,182.69915049999997L936,430.5867374749612L936,385.1046582873999L747.7920388635783,167.29324549999998Z" style="opacity: 0;"/><path data-target="point-0-39" d="M747.7920388635783,167.29324549999998L936,385.1046582873999L936,340.98427615609353L765.4961222387908,151.2605955L747.8913571937402,151.2605955Z" style="opacity: 0;"/><path data-target="point-0-40" d="M765.4961222387908,151.2605955L936,340.98427615609353L936,298.0875209676457L783.1650436446117,134.576021L766.0428828212031,134.576021Z" style="opacity: 0;"/><path data-target="point-0-41" d="M783.1650436446117,134.576021L936,298.0875209676457L936,256.292612868053L800.7944410909981,117.21293999999999L784.232658994365,117.21293999999999Z" style="opacity: 0;"/><path data-target="point-0-42" d="M800.7944410909981,117.21293999999999L936,256.292612868053L936,215.47305038676313L818.3795066865445,99.143741L802.465521350882,99.143741Z" style="opacity: 0;"/><path data-target="point-0-43" d="M818.3795066865445,99.143741L936,215.47305038676313L936,175.51376095190722L835.9147323013832,80.33950099999998L820.7467705713257,80.33950099999998Z" style="opacity: 0;"/><path data-target="point-0-44" d="M835.9147323013832,80.33950099999998L936,175.51376095190722L936,136.29706780963988L853.3944347991428,60.770642499999994L839.0824969636926,60.770642499999994Z" style="opacity: 0;"/><path data-target="point-0-45" d="M853.3944347991428,60.770642499999994L936,136.29706780963988L936,97.71192977690077L870.8119321729375,40.405903L857.4790196931428,40.405902999999995Z" style="opacity: 0;"/><path data-target="point-0-46" d="M870.8119321729375,40.405903L936,97.71192977690077L936,19.212897499999997L875.9437806101098,19.212897499999997Z" style="opacity: 0;"/><path data-target="point-1-0" d="M0,511.6082399999999L66.29725927000001,511.6082399999999L67.49301297571428,507.1716L0,241.2921918441117Z" style="opacity: 0;"/><path data-target="point-1-1" d="M0,241.2921918441117L67.49301297571428,507.1716L84.23642387,507.1716L85.20615263,504.28871999999996L46.872712269928634,219.82934675890004L28.45299295924464,109.96921081638038L17.627355306023503,65.14653103490696L10.109522989087822,36.73906748913117L0,12.140485598553138Z" style="opacity: 0;"/><path data-target="point-1-2" d="M46.872712269928634,219.82934675890004L85.20615263,504.28871999999996L102.34875432,504.28871999999996L103.35642116571427,501.44327999999996Z" style="opacity: 0;"/><path data-target="point-1-3" d="M28.45299295924464,109.96921081638038L46.872712269928634,219.82934675890004L103.35642116571427,501.44327999999996L120.06799535714285,501.44327999999996L121.384339375,498.08304L74.54068886776518,277.187546891908L55.604576052356094,203.3509797839368Z" style="opacity: 0;"/><path data-target="point-1-4" d="M74.54068886776518,277.187546891908L121.384339375,498.08304L137.8043672,498.08304L139.15136479999998,491.94287999999995Z" style="opacity: 0;"/><path data-target="point-1-5" d="M55.604576052356094,203.3509797839368L74.54068886776518,277.187546891908L139.15136479999998,491.94287999999995L155.87400752571426,491.94288L157.33435004571427,486.43919999999997Z" style="opacity: 0;"/><path data-target="point-1-6" d="M17.627355306023503,65.14653103490696L28.45299295924464,109.96921081638038L55.604576052356094,203.3509797839368L157.33435004571427,486.43919999999997L173.56589989642856,486.43919999999997L175.2363979,479.63447999999994Z" style="opacity: 0;"/><path data-target="point-1-7" d="M10.109522989087822,36.73906748913117L17.627355306023503,65.14653103490696L175.2363979,479.63447999999994L191.4659237342857,479.63447999999994L193.44629180857143,474.18696L107.36926201948631,225.2488202944323L79.52906172067946,167.62622970138324L21.377360744095228,56.957073537895155Z" style="opacity: 0;"/><path data-target="point-1-8" d="M107.36926201948631,225.2488202944323L193.44629180857143,474.18696L209.12903987142857,474.18696L211.26909990857143,467.33543999999995L157.38694316485973,320.8027682028036L154.62662284449564,314.5927613555394Z" style="opacity: 0;"/><path data-target="point-1-9" d="M157.38694316485973,320.8027682028036L211.26909990857143,467.33543999999995L227.22279239285712,467.33543999999995L229.25780891071426,458.67744Z" style="opacity: 0;"/><path data-target="point-1-10" d="M154.62662284449564,314.5927613555394L157.38694316485973,320.8027682028036L229.25780891071426,458.67744L244.9003993142857,458.67744L247.7782182285714,448.08191999999997Z" style="opacity: 0;"/><path data-target="point-1-11" d="M79.52906172067946,167.62622970138324L107.36926201948631,225.2488202944323L154.62662284449564,314.5927613555394L247.7782182285714,448.08191999999997L262.14517961142855,448.08191999999997L265.9766916,436.01687999999996Z" style="opacity: 0;"/><path data-target="point-1-12" d="M21.377360744095228,56.957073537895155L79.52906172067946,167.62622970138324L265.9766916,436.01687999999996L282.0157252214285,436.01687999999996L281.8529239,420.43248Z" style="opacity: 0;"/><path data-target="point-1-13" d="M0,12.140485598553138L10.109522989087822,36.73906748913117L21.377360744095228,56.957073537895155L281.8529239,420.43248L305.8373953464286,420.43248L296.68268103928574,403.416L122.1859703507294,137.00517655477398L25.507411232499507,0L0,0Z" style="opacity: 0;"/><path data-target="point-1-14" d="M122.1859703507294,137.00517655477398L296.68268103928574,403.416L321.3438584228572,403.416L313.8522989485714,390.42431999999997Z" style="opacity: 0;"/><path data-target="point-1-15" d="M25.507411232499507,0L122.1859703507294,137.00517655477398L313.8522989485714,390.42431999999997L338.5978396835714,390.42431999999997L332.78955787214284,378.5184L204.93167618888063,185.16315569428744L69.14425985142904,0Z" style="opacity: 0;"/><path data-target="point-1-16" d="M204.93167618888063,185.16315569428744L332.78955787214284,378.5184L358.17439446285715,378.5184L349.03153091857143,364.07592Z" style="opacity: 0;"/><path data-target="point-1-17" d="M69.14425985142904,0L204.93167618888063,185.16315569428744L349.03153091857143,364.07592L373.62718688142854,364.07592L369.97574390999995,355.09032L267.66979792333245,113.87382489438929L216.1126448083393,4.07659247319549L214.0642662849998,0Z" style="opacity: 0;"/><path data-target="point-1-18" d="M369.97574390999995,355.09032L373.62718688142854,364.07592L442.4963417052169,483.07597153297354L468.2964555029102,520.3271703745722L391.3108365185714,355.09031999999996Z" style="opacity: 0;"/><path data-target="point-1-19" d="M387.3720125478571,346.30127999999996L391.3108365185714,355.09031999999996L468.2964555029102,520.3271703745722L489.25088582970574,554.287004208587L451.9332853203291,428.6498485573353L409.4370124142857,346.30127999999996Z" style="opacity: 0;"/><path data-target="point-1-20" d="M214.0642662849998,0L216.1126448083393,4.07659247319549L405.07276365714284,336.5856L426.14001142499995,336.58559999999994L424.3121877,329.44392L285.2750876057138,0Z" style="opacity: 0;"/><path data-target="point-1-21" d="M285.2750876057138,0L424.3121877,329.44392L443.19999999999993,329.44392L443.4378659307142,328.01184L416.07474968317854,156.8108445403031L390.7156391495383,39.2544868586445L380.9149854350001,0Z" style="opacity: 0;"/><path data-target="point-1-22" d="M416.07474968317854,156.8108445403031L443.4378659307142,328.01184L460.9630165035714,328.01184L461.28524578571427,323.26631999999995Z" style="opacity: 0;"/><path data-target="point-1-23" d="M390.7156391495383,39.2544868586445L416.07474968317854,156.8108445403031L461.28524578571427,323.26631999999995L478.85838608142853,323.26631999999995L479.2599626742857,318.07151999999996Z" style="opacity: 0;"/><path data-target="point-1-24" d="M380.9149854350001,0L390.7156391495383,39.2544868586445L479.2599626742857,318.07151999999996L496.65461796571424,318.07151999999996L497.27731101999996,313.18559999999997L410.2508624200001,0Z" style="opacity: 0;"/><path data-target="point-1-25" d="M410.2508624200001,0L497.27731101999996,313.18559999999997L514.6849610835715,313.18559999999997L515.06370638,307.24199999999996L416.2085928800004,0Z" style="opacity: 0;"/><path data-target="point-1-26" d="M416.2085928800004,0L515.06370638,307.24199999999996L532.6886302071429,307.24199999999996L532.9063830857143,301.1112L446.9488887881305,43.97339654569106L426.5659471562725,0Z" style="opacity: 0;"/><path data-target="point-1-27" d="M446.9488887881305,43.97339654569106L532.9063830857143,301.1112L550.4197562540875,301.1112L551.0885438246198,296.9006975L534.2821362333265,232.00019989511236L483.42224933641836,115.96834337384522Z" style="opacity: 0;"/><path data-target="point-1-28" d="M534.2821362333265,232.00019989511236L551.0885438246198,296.9006975L569.5056050004541,296.9006975L567.7234934524223,286.138944Z" style="opacity: 0;"/><path data-target="point-1-29" d="M483.42224933641836,115.96834337384522L534.2821362333265,232.00019989511236L567.7234934524223,286.138944L587.4008875573654,286.138944L585.6686597692045,274.93942300000003Z" style="opacity: 0;"/><path data-target="point-1-30" d="M426.5659471562725,0L446.9488887881305,43.97339654569106L483.42224933641836,115.96834337384522L585.6686597692045,274.93942300000003L605.2861736829184,274.93942300000003L603.6245038903138,263.2845385L427.30569874706805,0Z" style="opacity: 0;"/><path data-target="point-1-31" d="M427.30569874706805,0L603.6245038903138,263.2845385L623.1600033680629,263.2845385L621.5925674994493,251.155757L446.4592615119633,0Z" style="opacity: 0;"/><path data-target="point-1-32" d="M446.4592615119633,0L621.5925674994493,251.155757L641.0208152259671,251.155757L639.574614362771,238.53360949999998L466.38285461319913,0Z" style="opacity: 0;"/><path data-target="point-1-33" d="M466.38285461319913,0L639.574614362771,238.53360949999998L658.8666818039218,238.53360949999998L657.5727202299611,225.3982535L487.17218143914505,2.842170943040401e-14Z" style="opacity: 0;"/><path data-target="point-1-34" d="M487.17218143914505,2.842170943040401e-14L657.5727202299611,225.3982535L676.6956698893638,225.3982535L675.5889794903683,211.72862849999999L508.9203975360126,0Z" style="opacity: 0;"/><path data-target="point-1-35" d="M508.9203975360126,0L675.5889794903683,211.72862849999999L694.505359855182,211.72862849999999L693.626065277641,197.50320699999997L531.7471465559674,0Z" style="opacity: 0;"/><path data-target="point-1-36" d="M531.7471465559674,0L693.626065277641,197.50320699999997L712.2933121190702,197.50320699999997L711.6866225525102,182.69915049999997L555.7635210669888,0Z" style="opacity: 0;"/><path data-target="point-1-37" d="M555.7635210669888,0L711.6866225525102,182.69915049999997L730.0564728735586,182.69915049999997L729.7740289893466,167.2932455L581.1147397722526,0Z" style="opacity: 0;"/><path data-target="point-1-38" d="M581.1147397722526,0L729.7740289893466,167.2932455L747.7920388635783,167.29324549999998L747.8913571937402,151.2605955L607.9342414680085,0Z" style="opacity: 0;"/><path data-target="point-1-39" d="M607.9342414680085,0L747.8913571937402,151.2605955L765.4961222387908,151.2605955L766.0428828212031,134.576021L636.3894003393433,0Z" style="opacity: 0;"/><path data-target="point-1-40" d="M636.3894003393433,0L766.0428828212031,134.576021L783.1650436446117,134.576021L784.232658994365,117.21293999999999L666.6517606271947,1.4210854715202004e-14Z" style="opacity: 0;"/><path data-target="point-1-41" d="M666.6517606271947,1.4210854715202004e-14L784.232658994365,117.21293999999999L800.7944410909981,117.21293999999999L802.465521350882,99.143741L698.9091867719529,0Z" style="opacity: 0;"/><path data-target="point-1-42" d="M698.9091867719529,0L802.465521350882,99.143741L818.3795066865445,99.143741L820.7467705713257,80.33950099999998L733.3704842119466,0Z" style="opacity: 0;"/><path data-target="point-1-43" d="M733.3704842119466,0L820.7467705713257,80.33950099999998L835.9147323013832,80.33950099999998L839.0824969636926,60.770642499999994L770.2643496076944,0Z" style="opacity: 0;"/><path data-target="point-1-44" d="M770.2643496076944,0L839.0824969636926,60.770642499999994L853.3944347991428,60.770642499999994L857.4790196931428,40.405902999999995L809.835621268875,0Z" style="opacity: 0;"/><path data-target="point-1-45" d="M809.835621268875,0L857.4790196931428,40.405902999999995L870.8119321729375,40.405903L875.9437806101098,19.212897499999997L852.3551875182685,0Z" style="opacity: 0;"/><path data-target="point-1-46" d="M852.3551875182685,0L875.9437806101098,19.212897499999997L936,19.212897499999997L936,0Z" style="opacity: 0;"/></g></g><g class="axes"><g class="y axis" fill="none" font-size="10" font-family="sans-serif" text-anchor="end" style="font-family: &quot;Source Sans Pro&quot;;"><path class="domain" stroke="#eeeeee" d="M0.5,562.1V0.5" stroke-dasharray="0" style="visibility: hidden;"/><g class="tick" opacity="1" transform="translate(0,562.1)" style="visibility: visible;"><line stroke="#eeeeee" x2="936" stroke-dasharray="0"/><text fill="rgb(0, 0, 0)" x="3" dy="-0.33em" opacity="1" text-anchor="start" font-size="18">$0</text></g><g class="tick" opacity="1" transform="translate(0, 524.6599731445312)" style="visibility: visible;"><line stroke="#eeeeee" x2="936" stroke-dasharray="0"/><text fill="rgb(0, 0, 0)" x="3" dy="-0.33em" opacity="1" text-anchor="start" font-size="18">$2000</text></g><g class="tick" opacity="1" transform="translate(0, 487.2200012207031)" style="visibility: visible;"><line stroke="#eeeeee" x2="936" stroke-dasharray="0"/><text fill="rgb(0, 0, 0)" x="3" dy="-0.33em" opacity="1" text-anchor="start" font-size="18">$4000</text></g><g class="tick" opacity="1" transform="translate(0, 449.7799987792969)" style="visibility: visible;"><line stroke="#eeeeee" x2="936" stroke-dasharray="0"/><text fill="rgb(0, 0, 0)" x="3" dy="-0.33em" opacity="1" text-anchor="start" font-size="18">$6000</text></g><g class="tick" opacity="1" transform="translate(0, 412.3399963378906)" style="visibility: visible;"><line stroke="#eeeeee" x2="936" stroke-dasharray="0"/><text fill="rgb(0, 0, 0)" x="3" dy="-0.33em" opacity="1" text-anchor="start" font-size="18">$8000</text></g><g class="tick" opacity="1" transform="translate(0, 374.8999938964844)" style="visibility: visible;"><line stroke="#eeeeee" x2="936" stroke-dasharray="0"/><text fill="rgb(0, 0, 0)" x="3" dy="-0.33em" opacity="1" text-anchor="start" font-size="18">$10,000</text></g><g class="tick" opacity="1" transform="translate(0, 337.4599914550781)" style="visibility: visible;"><line stroke="#eeeeee" x2="936" stroke-dasharray="0"/><text fill="rgb(0, 0, 0)" x="3" dy="-0.33em" opacity="1" text-anchor="start" font-size="18">$12,000</text></g><g class="tick" opacity="1" transform="translate(0, 300.0199890136719)" style="visibility: visible;"><line stroke="#eeeeee" x2="936" stroke-dasharray="0"/><text fill="rgb(0, 0, 0)" x="3" dy="-0.33em" opacity="1" text-anchor="start" font-size="18">$14,000</text></g><g class="tick" opacity="1" transform="translate(0, 262.5799865722656)" style="visibility: visible;"><line stroke="#eeeeee" x2="936" stroke-dasharray="0"/><text fill="rgb(0, 0, 0)" x="3" dy="-0.33em" opacity="1" text-anchor="start" font-size="18">$16,000</text></g><g class="tick" opacity="1" transform="translate(0, 225.13999938964844)" style="visibility: visible;"><line stroke="#eeeeee" x2="936" stroke-dasharray="0"/><text fill="rgb(0, 0, 0)" x="3" dy="-0.33em" opacity="1" text-anchor="start" font-size="18">$18,000</text></g><g class="tick" opacity="1" transform="translate(0, 187.6999969482422)" style="visibility: visible;"><line stroke="#eeeeee" x2="936" stroke-dasharray="0"/><text fill="rgb(0, 0, 0)" x="3" dy="-0.33em" opacity="1" text-anchor="start" font-size="18">$20,000</text></g><g class="tick" opacity="1" transform="translate(0, 150.25999450683594)" style="visibility: visible;"><line stroke="#eeeeee" x2="936" stroke-dasharray="0"/><text fill="rgb(0, 0, 0)" x="3" dy="-0.33em" opacity="1" text-anchor="start" font-size="18">$22,000</text></g><g class="tick" opacity="1" transform="translate(0, 112.81999969482422)" style="visibility: visible;"><line stroke="#eeeeee" x2="936" stroke-dasharray="0"/><text fill="rgb(0, 0, 0)" x="3" dy="-0.33em" opacity="1" text-anchor="start" font-size="18">$24,000</text></g><g class="tick" opacity="1" transform="translate(0, 75.37999725341797)" style="visibility: visible;"><line stroke="#eeeeee" x2="936" stroke-dasharray="0"/><text fill="rgb(0, 0, 0)" x="3" dy="-0.33em" opacity="1" text-anchor="start" font-size="18">$26,000</text></g><g class="tick" opacity="1" transform="translate(0, 37.939998626708984)" style="visibility: visible;"><line stroke="#eeeeee" x2="936" stroke-dasharray="0"/><text fill="rgb(0, 0, 0)" x="3" dy="-0.33em" opacity="1" text-anchor="start" font-size="18">$28,000</text></g><g class="tick" opacity="1" transform="translate(0, 0.5)" style="visibility: visible;"><line stroke="#eeeeee" x2="936" stroke-dasharray="0"/><text fill="rgb(0, 0, 0)" x="3" dy="-0.33em" opacity="1" text-anchor="start" font-size="18">$30,000</text></g></g><g class="x axis" transform="translate(0,561.6)" fill="none" font-size="10" font-family="sans-serif" text-anchor="middle" style="font-family: &quot;Source Sans Pro&quot;;"><path class="domain" stroke="#eeeeee" d="M40.5,0.5H936.5" stroke-dasharray="0"/><g class="tick" opacity="1" transform="translate(40.5,0)"><line stroke="#eeeeee" y2="6" stroke-dasharray="0"/><text fill="rgb(0, 0, 0)" y="9" dy="-9" opacity="1" dominant-baseline="central" font-size="18" transform="translate(0, 15) rotate(-45)" dx="5" style="text-anchor: end; visibility: visible;">1990</text></g><g class="tick" opacity="1" transform="translate(130.10000000000002,0)"><line stroke="#eeeeee" y2="6" stroke-dasharray="0"/><text fill="rgb(0, 0, 0)" y="9" dy="-9" opacity="1" dominant-baseline="central" font-size="18" transform="translate(0, 15) rotate(-45)" dx="5" style="text-anchor: end; visibility: visible;">1995</text></g><g class="tick" opacity="1" transform="translate(219.70000000000002,0)"><line stroke="#eeeeee" y2="6" stroke-dasharray="0"/><text fill="rgb(0, 0, 0)" y="9" dy="-9" opacity="1" dominant-baseline="central" font-size="18" transform="translate(0, 15) rotate(-45)" dx="5" style="text-anchor: end; visibility: visible;">2000</text></g><g class="tick" opacity="1" transform="translate(309.3,0)"><line stroke="#eeeeee" y2="6" stroke-dasharray="0"/><text fill="rgb(0, 0, 0)" y="9" dy="-9" opacity="1" dominant-baseline="central" font-size="18" transform="translate(0, 15) rotate(-45)" dx="5" style="text-anchor: end; visibility: visible;">2005</text></g><g class="tick" opacity="1" transform="translate(398.90000000000003,0)"><line stroke="#eeeeee" y2="6" stroke-dasharray="0"/><text fill="rgb(0, 0, 0)" y="9" dy="-9" opacity="1" dominant-baseline="central" font-size="18" transform="translate(0, 15) rotate(-45)" dx="5" style="text-anchor: end; visibility: visible;">2010</text></g><g class="tick" opacity="1" transform="translate(488.5,0)"><line stroke="#eeeeee" y2="6" stroke-dasharray="0"/><text fill="rgb(0, 0, 0)" y="9" dy="-9" opacity="1" dominant-baseline="central" font-size="18" transform="translate(0, 15) rotate(-45)" dx="5" style="text-anchor: end; visibility: visible;">2015</text></g><g class="tick" opacity="1" transform="translate(578.1,0)"><line stroke="#eeeeee" y2="6" stroke-dasharray="0"/><text fill="rgb(0, 0, 0)" y="9" dy="-9" opacity="1" dominant-baseline="central" font-size="18" transform="translate(0, 15) rotate(-45)" dx="5" style="text-anchor: end; visibility: visible;">2020</text></g><g class="tick" opacity="1" transform="translate(667.6999999999999,0)"><line stroke="#eeeeee" y2="6" stroke-dasharray="0"/><text fill="rgb(0, 0, 0)" y="9" dy="-9" opacity="1" dominant-baseline="central" font-size="18" transform="translate(0, 15) rotate(-45)" dx="5" style="text-anchor: end; visibility: visible;">2025</text></g><g class="tick" opacity="1" transform="translate(757.3000000000001,0)"><line stroke="#eeeeee" y2="6" stroke-dasharray="0"/><text fill="rgb(0, 0, 0)" y="9" dy="-9" opacity="1" dominant-baseline="central" font-size="18" transform="translate(0, 15) rotate(-45)" dx="5" style="text-anchor: end; visibility: visible;">2030</text></g><g class="tick" opacity="1" transform="translate(846.9,0)"><line stroke="#eeeeee" y2="6" stroke-dasharray="0"/><text fill="rgb(0, 0, 0)" y="9" dy="-9" opacity="1" dominant-baseline="central" font-size="18" transform="translate(0, 15) rotate(-45)" dx="5" style="text-anchor: end; visibility: visible;">2035</text></g><g class="tick" opacity="1" transform="translate(936.5,0)"><line stroke="#eeeeee" y2="6" stroke-dasharray="0"/><text fill="rgb(0, 0, 0)" y="9" dy="-9" opacity="1" dominant-baseline="central" font-size="18" transform="translate(0, 15) rotate(-45)" dx="5" style="text-anchor: end; visibility: visible;">2040</text></g></g></g></g></g></g><g class="annotations below"><g class="axis-highlights" transform="translate(15, 20)" style="opacity: 1;"><g class="line x" transform="translate(559.68, 0)"><line width="0" stroke-dasharray="2 2" stroke="#333333" stroke-width="2" y2="561.6"/><text transform="translate(0, 6) rotate(-90)" fill="#333333" text-anchor="end" dy="-0.5em" font-size="12">Current</text></g></g></g><g id="areas"><g class="series" pointer-events="none"><path class="area" transform="translate(15,20)" fill-opacity="0" fill="#11A579" clip-path="url(#clip-0-0)" d="M57.92,516.18528C63.89333333333334,514.66272,69.86666666666667,513.14016,75.84,511.86096000000003C81.81333333333333,510.58176000000003,87.78666666666666,509.418,93.75999999999999,508.51008C99.73333333333333,507.60216,105.70666666666666,507.24960000000004,111.68,506.41344000000004C117.65333333333335,505.57728000000003,123.62666666666668,505.12800000000004,129.60000000000002,503.49312000000003C135.57333333333335,501.85824,141.54666666666665,498.51360000000005,147.51999999999998,496.60416000000004C153.4933333333333,494.69472,159.46666666666667,493.93032000000005,165.44,492.03648000000004C171.41333333333333,490.14264000000003,177.38666666666668,487.15680000000003,183.36,485.24112C189.33333333333334,483.32544,195.30666666666667,482.51112000000006,201.28,480.54240000000004C207.25333333333333,478.57368,213.2266666666667,475.94352000000003,219.20000000000002,473.4288C225.17333333333335,470.91408,231.14666666666668,468.23088,237.12,465.45408000000003C243.09333333333333,462.67728000000005,249.06666666666666,460.16256000000004,255.04,456.76800000000003C261.0133333333333,453.37344,266.9866666666667,450.08808000000005,272.96000000000004,445.08672C278.93333333333334,440.08536000000004,284.9066666666667,433.53024000000005,290.88,426.75984000000005C296.85333333333335,419.98944000000006,302.82666666666665,410.25192000000004,308.8,404.46432000000004C314.77333333333337,398.67672000000005,320.74666666666667,396.0996,326.72,392.03424C332.6933333333334,387.96888,338.6666666666667,384.4744800000001,344.64000000000004,380.07216000000005C350.61333333333334,375.6698400000001,356.5866666666667,369.81048,362.56,365.62032C368.53333333333336,361.43016,374.50666666666666,358.25088,380.48,354.9312C386.4533333333334,351.61152,392.4266666666667,348.582,398.40000000000003,345.70224C404.37333333333333,342.82248000000004,410.3466666666667,340.11432,416.32,337.65264C422.29333333333335,335.19096,428.26666666666665,330.93216,434.24,330.93216C440.21333333333337,330.93216,446.18666666666667,330.93216,452.16,330.93216C458.1333333333333,330.93216,464.1066666666667,327.86208,470.08,326.30832C476.05333333333334,324.75455999999997,482.02666666666664,323.19144,488,321.6096C493.97333333333336,320.02776,499.94666666666666,318.63624,505.92,316.81728C511.8933333333334,314.99832,517.8666666666667,312.76128000000006,523.84,310.69584000000003C529.8133333333334,308.63040000000007,535.7866666666666,306.099924,541.76,304.42464C547.7333333333333,302.74935600000003,553.7066666666666,303.0166152,559.68,300.644136C565.6533333333333,298.2716568,571.6266666666667,293.74438080000004,577.6,290.18976480000003C583.5733333333334,286.6351488,589.5466666666666,283.013484,595.52,279.31644C601.4933333333333,275.619396,607.4666666666667,271.85262,613.44,268.0075008C619.4133333333334,264.1623816,625.3866666666667,260.2448784,631.36,256.2457248C637.3333333333334,252.2465712,643.3066666666667,248.17197600000003,649.2800000000001,244.0125792C655.2533333333333,239.85318240000004,661.2266666666667,235.61538,667.1999999999999,231.28934400000003C673.1733333333333,226.963308,679.1466666666666,222.5557152000001,685.12,218.05636320000008C691.0933333333334,213.5570112000001,697.0666666666666,208.97282639999997,703.04,204.293232C709.0133333333333,199.61363759999995,714.9866666666667,194.84584080000002,720.96,189.9787968C726.9333333333334,185.11175280000003,732.9066666666666,180.15301200000002,738.88,175.09096800000003C744.8533333333334,170.02892400000002,750.8266666666667,164.87137680000006,756.8000000000001,159.60653280000002C762.7733333333333,154.34168880000004,768.7466666666667,148.97766,774.7199999999999,143.50190400000002C780.6933333333333,138.02614799999998,786.6666666666666,132.44711999999998,792.64,126.75199679999997C798.6133333333333,121.05687359999999,804.5866666666666,115.25445359999999,810.56,109.33116480000001C816.5333333333333,103.407876,822.5066666666667,97.37286000000002,828.48,91.212264C834.4533333333334,85.05166800000002,840.4266666666666,78.7749768,846.4,72.36758880000002C852.3733333333333,65.9602008,858.3466666666667,59.4320064,864.32,52.76793599999996C870.2933333333334,46.10386559999997,876.2666666666667,39.24351599999995,882.24,32.383166399999936L882.24,32.383166399999936C876.2666666666667,39.24351599999995,870.2933333333334,46.10386559999997,864.32,52.76793599999996C858.3466666666667,59.4320064,852.3733333333333,65.9602008,846.4,72.36758880000002C840.4266666666666,78.7749768,834.4533333333334,85.05166800000002,828.48,91.212264C822.5066666666667,97.37286000000002,816.5333333333333,103.407876,810.56,109.33116480000001C804.5866666666666,115.25445359999999,798.6133333333333,121.05687359999999,792.64,126.75199679999997C786.6666666666666,132.44711999999998,780.6933333333333,138.02614799999998,774.7199999999999,143.50190400000002C768.7466666666667,148.97766,762.7733333333333,154.34168880000004,756.8000000000001,159.60653280000002C750.8266666666667,164.87137680000006,744.8533333333334,170.02892400000002,738.88,175.09096800000003C732.9066666666666,180.15301200000002,726.9333333333334,185.11175280000003,720.96,189.9787968C714.9866666666667,194.84584080000002,709.0133333333333,199.61363759999995,703.04,204.293232C697.0666666666666,208.97282639999997,691.0933333333334,213.5570112000001,685.12,218.05636320000008C679.1466666666666,222.5557152000001,673.1733333333333,226.963308,667.1999999999999,231.28934400000003C661.2266666666667,235.61538,655.2533333333333,239.85318240000004,649.2800000000001,244.0125792C643.3066666666667,248.17197600000003,637.3333333333334,252.2465712,631.36,256.2457248C625.3866666666667,260.2448784,619.4133333333334,264.1623816,613.44,268.0075008C607.4666666666667,271.85262,601.4933333333333,275.619396,595.52,279.31644C589.5466666666666,283.013484,583.5733333333334,286.6351488,577.6,290.18976480000003C571.6266666666667,293.74438080000004,565.6533333333333,298.2716568,559.68,300.644136C553.7066666666666,303.0166152,547.7333333333333,302.74935600000003,541.76,304.42464C535.7866666666666,306.099924,529.8133333333334,308.63040000000007,523.84,310.69584000000003C517.8666666666667,312.76128000000006,511.8933333333334,314.99832,505.92,316.81728C499.94666666666666,318.63624,493.97333333333336,320.02776,488,321.6096C482.02666666666664,323.19144,476.05333333333334,324.75455999999997,470.08,326.30832C464.1066666666667,327.86208,458.1333333333333,330.93216,452.16,330.93216C446.18666666666667,330.93216,440.21333333333337,330.93216,434.24,330.93216C428.26666666666665,330.93216,422.29333333333335,335.19096,416.32,337.65264C410.3466666666667,340.11432,404.37333333333333,342.82248000000004,398.40000000000003,345.70224C392.4266666666667,348.582,386.4533333333334,351.61152,380.48,354.9312C374.50666666666666,358.25088,368.53333333333336,361.43016,362.56,365.62032C356.5866666666667,369.81048,350.61333333333334,375.6698400000001,344.64000000000004,380.07216000000005C338.6666666666667,384.4744800000001,332.6933333333334,387.96888,326.72,392.03424C320.74666666666667,396.0996,314.77333333333337,398.67672000000005,308.8,404.46432000000004C302.82666666666665,410.25192000000004,296.85333333333335,419.98944000000006,290.88,426.75984000000005C284.9066666666667,433.53024000000005,278.93333333333334,440.08536000000004,272.96000000000004,445.08672C266.9866666666667,450.08808000000005,261.0133333333333,453.37344,255.04,456.76800000000003C249.06666666666666,460.16256000000004,243.09333333333333,462.67728000000005,237.12,465.45408000000003C231.14666666666668,468.23088,225.17333333333335,470.91408,219.20000000000002,473.4288C213.2266666666667,475.94352000000003,207.25333333333333,478.57368,201.28,480.54240000000004C195.30666666666667,482.51112000000006,189.33333333333334,483.32544,183.36,485.24112C177.38666666666668,487.15680000000003,171.41333333333333,490.14264000000003,165.44,492.03648000000004C159.46666666666667,493.93032000000005,153.4933333333333,494.69472,147.51999999999998,496.60416000000004C141.54666666666665,498.51360000000005,135.57333333333335,501.85824,129.60000000000002,503.49312000000003C123.62666666666668,505.12800000000004,117.65333333333335,505.57728000000003,111.68,506.41344000000004C105.70666666666666,507.24960000000004,99.73333333333333,507.60216,93.75999999999999,508.51008C87.78666666666666,509.418,81.81333333333333,510.58176000000003,75.84,511.86096000000003C69.86666666666667,513.14016,63.89333333333334,514.66272,57.92,516.18528Z"/></g><g class="series" pointer-events="none"><path class="area" transform="translate(15,20)" fill-opacity="0" fill="#802392" clip-path="url(#clip-0-1)" d="M57.92,507.0312C63.89333333333334,505.33704000000006,69.86666666666667,503.64288000000005,75.84,502.48224000000005C81.81333333333333,501.32160000000005,87.78666666666666,501.06888000000004,93.75999999999999,500.06736C99.73333333333333,499.06584,105.70666666666666,497.70552,111.68,496.47312C117.65333333333335,495.24072,123.62666666666668,494.20488,129.60000000000002,492.67296C135.57333333333335,491.14104,141.54666666666665,489.25344,147.51999999999998,487.2816C153.4933333333333,485.30976000000004,159.46666666666667,483.05088,165.44,480.84192C171.41333333333333,478.63296,177.38666666666668,476.19624000000005,183.36,474.02784C189.33333333333334,471.85944,195.30666666666667,469.96248,201.28,467.83152C207.25333333333333,465.70056,213.2266666666667,463.8972,219.20000000000002,461.24208C225.17333333333335,458.58696,231.14666666666668,455.54184,237.12,451.9008C243.09333333333333,448.25976,249.06666666666666,443.5548,255.04,439.39584C261.0133333333333,435.23688000000004,266.9866666666667,431.16216000000003,272.96000000000004,426.94704C278.93333333333334,422.73192000000006,284.9066666666667,418.20168000000007,290.88,414.10512000000006C296.85333333333335,410.00856000000005,302.82666666666665,406.5828,308.8,402.36768C314.77333333333337,398.15256,320.74666666666667,393.04824,326.72,388.81440000000003C332.6933333333334,384.58056000000005,338.6666666666667,381.34512000000007,344.64000000000004,376.96464000000003C350.61333333333334,372.58416000000005,356.5866666666667,366.15072,362.56,362.53152C368.53333333333336,358.91232,374.50666666666666,357.85464,380.48,355.24944000000005C386.4533333333334,352.6442400000001,392.4266666666667,350.1888,398.40000000000003,346.90032C404.37333333333333,343.61184000000003,410.3466666666667,338.676,416.32,335.51856C422.29333333333335,332.36111999999997,428.26666666666665,329.69352000000003,434.24,327.95568000000003C440.21333333333337,326.21784,446.18666666666667,326.38008,452.16,325.09152C458.1333333333333,323.80296,464.1066666666667,321.98400000000004,470.08,320.22432000000003C476.05333333333334,318.46464000000003,482.02666666666664,316.31184,488,314.53344000000004C493.97333333333336,312.75504000000006,499.94666666666666,311.3448000000001,505.92,309.55392000000006C511.8933333333334,307.76304000000005,517.8666666666667,305.74752,523.84,303.78816C529.8133333333334,301.8288,535.7866666666666,299.5695768,541.76,297.79776C547.7333333333333,296.0259432,553.7066666666666,295.77553200000006,559.68,293.15725920000006C565.6533333333333,290.53898640000006,571.6266666666667,285.853932,577.6,282.0881232C583.5733333333334,278.3223144,589.5466666666666,274.4834976,595.52,270.56240640000004C601.4933333333333,266.6413152,607.4666666666667,262.64434559999995,613.44,258.56157599999995C619.4133333333334,254.47880639999994,625.3866666666667,250.3169448,631.36,246.0657888C637.3333333333334,241.8146328,643.3066666666667,237.48107760000002,649.2800000000001,233.05464C655.2533333333333,228.62820240000005,661.2266666666667,224.1161208,667.1999999999999,219.50716320000004C673.1733333333333,214.8982056,679.1466666666666,210.19989120000005,685.12,205.40089440000003C691.0933333333334,200.60189760000003,697.0666666666666,195.71008079999993,703.04,190.71318239999994C709.0133333333333,185.71628399999992,714.9866666666667,180.6224472,720.96,175.41950400000002C726.9333333333334,170.21656080000005,732.9066666666666,164.9129976,738.88,159.49552320000004C744.8533333333334,154.07804880000003,750.8266666666667,148.5555552000001,756.8000000000001,142.91465760000006C762.7733333333333,137.2737600000001,768.7466666666667,131.52360000000002,774.7199999999999,125.65013760000005C780.6933333333333,119.77667520000001,786.6666666666666,113.78952000000007,792.64,107.67388320000003C798.6133333333333,101.55824640000004,804.5866666666666,95.32417439999996,810.56,88.95631679999997C816.5333333333333,82.58845919999995,822.5066666666667,76.09717440000001,828.48,69.46673759999999C834.4533333333334,62.836300800000004,840.4266666666666,56.077507199999914,846.4,49.17369599999995C852.3733333333333,42.26988479999994,858.3466666666667,35.23238160000008,864.32,28.04387040000006C870.2933333333334,20.85535920000008,876.2666666666667,13.448994000000042,882.24,6.042628799999989L882.24,6.042628799999989C876.2666666666667,13.448994000000042,870.2933333333334,20.85535920000008,864.32,28.04387040000006C858.3466666666667,35.23238160000008,852.3733333333333,42.26988479999994,846.4,49.17369599999995C840.4266666666666,56.077507199999914,834.4533333333334,62.836300800000004,828.48,69.46673759999999C822.5066666666667,76.09717440000001,816.5333333333333,82.58845919999995,810.56,88.95631679999997C804.5866666666666,95.32417439999996,798.6133333333333,101.55824640000004,792.64,107.67388320000003C786.6666666666666,113.78952000000007,780.6933333333333,119.77667520000001,774.7199999999999,125.65013760000005C768.7466666666667,131.52360000000002,762.7733333333333,137.2737600000001,756.8000000000001,142.91465760000006C750.8266666666667,148.5555552000001,744.8533333333334,154.07804880000003,738.88,159.49552320000004C732.9066666666666,164.9129976,726.9333333333334,170.21656080000005,720.96,175.41950400000002C714.9866666666667,180.6224472,709.0133333333333,185.71628399999992,703.04,190.71318239999994C697.0666666666666,195.71008079999993,691.0933333333334,200.60189760000003,685.12,205.40089440000003C679.1466666666666,210.19989120000005,673.1733333333333,214.8982056,667.1999999999999,219.50716320000004C661.2266666666667,224.1161208,655.2533333333333,228.62820240000005,649.2800000000001,233.05464C643.3066666666667,237.48107760000002,637.3333333333334,241.8146328,631.36,246.0657888C625.3866666666667,250.3169448,619.4133333333334,254.47880639999994,613.44,258.56157599999995C607.4666666666667,262.64434559999995,601.4933333333333,266.6413152,595.52,270.56240640000004C589.5466666666666,274.4834976,583.5733333333334,278.3223144,577.6,282.0881232C571.6266666666667,285.853932,565.6533333333333,290.53898640000006,559.68,293.15725920000006C553.7066666666666,295.77553200000006,547.7333333333333,296.0259432,541.76,297.79776C535.7866666666666,299.5695768,529.8133333333334,301.8288,523.84,303.78816C517.8666666666667,305.74752,511.8933333333334,307.76304000000005,505.92,309.55392000000006C499.94666666666666,311.3448000000001,493.97333333333336,312.75504000000006,488,314.53344000000004C482.02666666666664,316.31184,476.05333333333334,318.46464000000003,470.08,320.22432000000003C464.1066666666667,321.98400000000004,458.1333333333333,323.80296,452.16,325.09152C446.18666666666667,326.38008,440.21333333333337,326.21784,434.24,327.95568000000003C428.26666666666665,329.69352000000003,422.29333333333335,332.36111999999997,416.32,335.51856C410.3466666666667,338.676,404.37333333333333,343.61184000000003,398.40000000000003,346.90032C392.4266666666667,350.1888,386.4533333333334,352.6442400000001,380.48,355.24944000000005C374.50666666666666,357.85464,368.53333333333336,358.91232,362.56,362.53152C356.5866666666667,366.15072,350.61333333333334,372.58416000000005,344.64000000000004,376.96464000000003C338.6666666666667,381.34512000000007,332.6933333333334,384.58056000000005,326.72,388.81440000000003C320.74666666666667,393.04824,314.77333333333337,398.15256,308.8,402.36768C302.82666666666665,406.5828,296.85333333333335,410.00856000000005,290.88,414.10512000000006C284.9066666666667,418.20168000000007,278.93333333333334,422.73192000000006,272.96000000000004,426.94704C266.9866666666667,431.16216000000003,261.0133333333333,435.23688000000004,255.04,439.39584C249.06666666666666,443.5548,243.09333333333333,448.25976,237.12,451.9008C231.14666666666668,455.54184,225.17333333333335,458.58696,219.20000000000002,461.24208C213.2266666666667,463.8972,207.25333333333333,465.70056,201.28,467.83152C195.30666666666667,469.96248,189.33333333333334,471.85944,183.36,474.02784C177.38666666666668,476.19624000000005,171.41333333333333,478.63296,165.44,480.84192C159.46666666666667,483.05088,153.4933333333333,485.30976000000004,147.51999999999998,487.2816C141.54666666666665,489.25344,135.57333333333335,491.14104,129.60000000000002,492.67296C123.62666666666668,494.20488,117.65333333333335,495.24072,111.68,496.47312C105.70666666666666,497.70552,99.73333333333333,499.06584,93.75999999999999,500.06736C87.78666666666666,501.06888000000004,81.81333333333333,501.32160000000005,75.84,502.48224000000005C69.86666666666667,503.64288000000005,63.89333333333334,505.33704000000006,57.92,507.0312Z"/></g></g><g id="lines"><g class="series"><clipPath id="clip-0-0"><rect width="936" y="-20" height="599.6"/></clipPath><path class="line" opacity="1" fill="none" stroke="#11A579" stroke-width="2" transform="translate(15,20)" clip-path="url(#clip-0-0)" d="M57.92,516.18528C63.89333333333334,514.66272,69.86666666666667,513.14016,75.84,511.86096000000003C81.81333333333333,510.58176000000003,87.78666666666666,509.418,93.75999999999999,508.51008C99.73333333333333,507.60216,105.70666666666666,507.24960000000004,111.68,506.41344000000004C117.65333333333335,505.57728000000003,123.62666666666668,505.12800000000004,129.60000000000002,503.49312000000003C135.57333333333335,501.85824,141.54666666666665,498.51360000000005,147.51999999999998,496.60416000000004C153.4933333333333,494.69472,159.46666666666667,493.93032000000005,165.44,492.03648000000004C171.41333333333333,490.14264000000003,177.38666666666668,487.15680000000003,183.36,485.24112C189.33333333333334,483.32544,195.30666666666667,482.51112000000006,201.28,480.54240000000004C207.25333333333333,478.57368,213.2266666666667,475.94352000000003,219.20000000000002,473.4288C225.17333333333335,470.91408,231.14666666666668,468.23088,237.12,465.45408000000003C243.09333333333333,462.67728000000005,249.06666666666666,460.16256000000004,255.04,456.76800000000003C261.0133333333333,453.37344,266.9866666666667,450.08808000000005,272.96000000000004,445.08672C278.93333333333334,440.08536000000004,284.9066666666667,433.53024000000005,290.88,426.75984000000005C296.85333333333335,419.98944000000006,302.82666666666665,410.25192000000004,308.8,404.46432000000004C314.77333333333337,398.67672000000005,320.74666666666667,396.0996,326.72,392.03424C332.6933333333334,387.96888,338.6666666666667,384.4744800000001,344.64000000000004,380.07216000000005C350.61333333333334,375.6698400000001,356.5866666666667,369.81048,362.56,365.62032C368.53333333333336,361.43016,374.50666666666666,358.25088,380.48,354.9312C386.4533333333334,351.61152,392.4266666666667,348.582,398.40000000000003,345.70224C404.37333333333333,342.82248000000004,410.3466666666667,340.11432,416.32,337.65264C422.29333333333335,335.19096,428.26666666666665,330.93216,434.24,330.93216C440.21333333333337,330.93216,446.18666666666667,330.93216,452.16,330.93216C458.1333333333333,330.93216,464.1066666666667,327.86208,470.08,326.30832C476.05333333333334,324.75455999999997,482.02666666666664,323.19144,488,321.6096C493.97333333333336,320.02776,499.94666666666666,318.63624,505.92,316.81728C511.8933333333334,314.99832,517.8666666666667,312.76128000000006,523.84,310.69584000000003C529.8133333333334,308.63040000000007,535.7866666666666,306.099924,541.76,304.42464C547.7333333333333,302.74935600000003,553.7066666666666,303.0166152,559.68,300.644136C565.6533333333333,298.2716568,571.6266666666667,293.74438080000004,577.6,290.18976480000003C583.5733333333334,286.6351488,589.5466666666666,283.013484,595.52,279.31644C601.4933333333333,275.619396,607.4666666666667,271.85262,613.44,268.0075008C619.4133333333334,264.1623816,625.3866666666667,260.2448784,631.36,256.2457248C637.3333333333334,252.2465712,643.3066666666667,248.17197600000003,649.2800000000001,244.0125792C655.2533333333333,239.85318240000004,661.2266666666667,235.61538,667.1999999999999,231.28934400000003C673.1733333333333,226.963308,679.1466666666666,222.5557152000001,685.12,218.05636320000008C691.0933333333334,213.5570112000001,697.0666666666666,208.97282639999997,703.04,204.293232C709.0133333333333,199.61363759999995,714.9866666666667,194.84584080000002,720.96,189.9787968C726.9333333333334,185.11175280000003,732.9066666666666,180.15301200000002,738.88,175.09096800000003C744.8533333333334,170.02892400000002,750.8266666666667,164.87137680000006,756.8000000000001,159.60653280000002C762.7733333333333,154.34168880000004,768.7466666666667,148.97766,774.7199999999999,143.50190400000002C780.6933333333333,138.02614799999998,786.6666666666666,132.44711999999998,792.64,126.75199679999997C798.6133333333333,121.05687359999999,804.5866666666666,115.25445359999999,810.56,109.33116480000001C816.5333333333333,103.407876,822.5066666666667,97.37286000000002,828.48,91.212264C834.4533333333334,85.05166800000002,840.4266666666666,78.7749768,846.4,72.36758880000002C852.3733333333333,65.9602008,858.3466666666667,59.4320064,864.32,52.76793599999996C870.2933333333334,46.10386559999997,876.2666666666667,39.24351599999995,882.24,32.383166399999936"/><text class="label" font-size="11" alignment-baseline="middle" opacity="1" x="5" fill="#11A579" transform="translate(897.239990234375, 52.3831672668457)"/></g><g class="series"><clipPath id="clip-0-1"><rect width="936" y="-20" height="599.6"/></clipPath><path class="line" opacity="1" fill="none" stroke="#802392" stroke-width="2" transform="translate(15,20)" clip-path="url(#clip-0-1)" d="M57.92,507.0312C63.89333333333334,505.33704000000006,69.86666666666667,503.64288000000005,75.84,502.48224000000005C81.81333333333333,501.32160000000005,87.78666666666666,501.06888000000004,93.75999999999999,500.06736C99.73333333333333,499.06584,105.70666666666666,497.70552,111.68,496.47312C117.65333333333335,495.24072,123.62666666666668,494.20488,129.60000000000002,492.67296C135.57333333333335,491.14104,141.54666666666665,489.25344,147.51999999999998,487.2816C153.4933333333333,485.30976000000004,159.46666666666667,483.05088,165.44,480.84192C171.41333333333333,478.63296,177.38666666666668,476.19624000000005,183.36,474.02784C189.33333333333334,471.85944,195.30666666666667,469.96248,201.28,467.83152C207.25333333333333,465.70056,213.2266666666667,463.8972,219.20000000000002,461.24208C225.17333333333335,458.58696,231.14666666666668,455.54184,237.12,451.9008C243.09333333333333,448.25976,249.06666666666666,443.5548,255.04,439.39584C261.0133333333333,435.23688000000004,266.9866666666667,431.16216000000003,272.96000000000004,426.94704C278.93333333333334,422.73192000000006,284.9066666666667,418.20168000000007,290.88,414.10512000000006C296.85333333333335,410.00856000000005,302.82666666666665,406.5828,308.8,402.36768C314.77333333333337,398.15256,320.74666666666667,393.04824,326.72,388.81440000000003C332.6933333333334,384.58056000000005,338.6666666666667,381.34512000000007,344.64000000000004,376.96464000000003C350.61333333333334,372.58416000000005,356.5866666666667,366.15072,362.56,362.53152C368.53333333333336,358.91232,374.50666666666666,357.85464,380.48,355.24944000000005C386.4533333333334,352.6442400000001,392.4266666666667,350.1888,398.40000000000003,346.90032C404.37333333333333,343.61184000000003,410.3466666666667,338.676,416.32,335.51856C422.29333333333335,332.36111999999997,428.26666666666665,329.69352000000003,434.24,327.95568000000003C440.21333333333337,326.21784,446.18666666666667,326.38008,452.16,325.09152C458.1333333333333,323.80296,464.1066666666667,321.98400000000004,470.08,320.22432000000003C476.05333333333334,318.46464000000003,482.02666666666664,316.31184,488,314.53344000000004C493.97333333333336,312.75504000000006,499.94666666666666,311.3448000000001,505.92,309.55392000000006C511.8933333333334,307.76304000000005,517.8666666666667,305.74752,523.84,303.78816C529.8133333333334,301.8288,535.7866666666666,299.5695768,541.76,297.79776C547.7333333333333,296.0259432,553.7066666666666,295.77553200000006,559.68,293.15725920000006C565.6533333333333,290.53898640000006,571.6266666666667,285.853932,577.6,282.0881232C583.5733333333334,278.3223144,589.5466666666666,274.4834976,595.52,270.56240640000004C601.4933333333333,266.6413152,607.4666666666667,262.64434559999995,613.44,258.56157599999995C619.4133333333334,254.47880639999994,625.3866666666667,250.3169448,631.36,246.0657888C637.3333333333334,241.8146328,643.3066666666667,237.48107760000002,649.2800000000001,233.05464C655.2533333333333,228.62820240000005,661.2266666666667,224.1161208,667.1999999999999,219.50716320000004C673.1733333333333,214.8982056,679.1466666666666,210.19989120000005,685.12,205.40089440000003C691.0933333333334,200.60189760000003,697.0666666666666,195.71008079999993,703.04,190.71318239999994C709.0133333333333,185.71628399999992,714.9866666666667,180.6224472,720.96,175.41950400000002C726.9333333333334,170.21656080000005,732.9066666666666,164.9129976,738.88,159.49552320000004C744.8533333333334,154.07804880000003,750.8266666666667,148.5555552000001,756.8000000000001,142.91465760000006C762.7733333333333,137.2737600000001,768.7466666666667,131.52360000000002,774.7199999999999,125.65013760000005C780.6933333333333,119.77667520000001,786.6666666666666,113.78952000000007,792.64,107.67388320000003C798.6133333333333,101.55824640000004,804.5866666666666,95.32417439999996,810.56,88.95631679999997C816.5333333333333,82.58845919999995,822.5066666666667,76.09717440000001,828.48,69.46673759999999C834.4533333333334,62.836300800000004,840.4266666666666,56.077507199999914,846.4,49.17369599999995C852.3733333333333,42.26988479999994,858.3466666666667,35.23238160000008,864.32,28.04387040000006C870.2933333333334,20.85535920000008,876.2666666666667,13.448994000000042,882.24,6.042628799999989"/><text class="label" font-size="11" alignment-baseline="middle" opacity="1" x="5" fill="#802392" transform="translate(897.239990234375, 26.04262924194336)"/></g></g><g id="data-points"><g class="series" transform="translate(15,20)"><path class="data-point" fill="#11A579" data-type="point" transform="translate(0, 0)" d="M54.92,516.18528A3,3,0,1,1,60.92,516.18528A3,3,0,1,1,54.92,516.18528Z" id="point-0-0" opacity="1"/><path class="data-point" fill="#11A579" data-type="point" transform="translate(0, 0)" d="M72.84,511.86096000000003A3,3,0,1,1,78.84,511.86096000000003A3,3,0,1,1,72.84,511.86096000000003Z" id="point-0-1" opacity="1"/><path class="data-point" fill="#11A579" data-type="point" transform="translate(0, 0)" d="M90.75999999999999,508.51008A3,3,0,1,1,96.75999999999999,508.51008A3,3,0,1,1,90.75999999999999,508.51008Z" id="point-0-2" opacity="1"/><path class="data-point" fill="#11A579" data-type="point" transform="translate(0, 0)" d="M108.68,506.41344000000004A3,3,0,1,1,114.68,506.41344000000004A3,3,0,1,1,108.68,506.41344000000004Z" id="point-0-3" opacity="1"/><path class="data-point" fill="#11A579" data-type="point" transform="translate(0, 0)" d="M126.60000000000002,503.49312000000003A3,3,0,1,1,132.60000000000002,503.49312000000003A3,3,0,1,1,126.60000000000002,503.49312000000003Z" id="point-0-4" opacity="1"/><path class="data-point" fill="#11A579" data-type="point" transform="translate(0, 0)" d="M144.51999999999998,496.60416000000004A3,3,0,1,1,150.51999999999998,496.60416000000004A3,3,0,1,1,144.51999999999998,496.60416000000004Z" id="point-0-5" opacity="1"/><path class="data-point" fill="#11A579" data-type="point" transform="translate(0, 0)" d="M162.44,492.03648000000004A3,3,0,1,1,168.44,492.03648000000004A3,3,0,1,1,162.44,492.03648000000004Z" id="point-0-6" opacity="1"/><path class="data-point" fill="#11A579" data-type="point" transform="translate(0, 0)" d="M180.36,485.24112A3,3,0,1,1,186.36,485.24112A3,3,0,1,1,180.36,485.24112Z" id="point-0-7" opacity="1"/><path class="data-point" fill="#11A579" data-type="point" transform="translate(0, 0)" d="M198.28,480.54240000000004A3,3,0,1,1,204.28,480.54240000000004A3,3,0,1,1,198.28,480.54240000000004Z" id="point-0-8" opacity="1"/><path class="data-point" fill="#11A579" data-type="point" transform="translate(0, 0)" d="M216.20000000000002,473.4288A3,3,0,1,1,222.20000000000002,473.4288A3,3,0,1,1,216.20000000000002,473.4288Z" id="point-0-9" opacity="1"/><path class="data-point" fill="#11A579" data-type="point" transform="translate(0, 0)" d="M234.12,465.45408000000003A3,3,0,1,1,240.12,465.45408000000003A3,3,0,1,1,234.12,465.45408000000003Z" id="point-0-10" opacity="1"/><path class="data-point" fill="#11A579" data-type="point" transform="translate(0, 0)" d="M252.04,456.76800000000003A3,3,0,1,1,258.03999999999996,456.76800000000003A3,3,0,1,1,252.04,456.76800000000003Z" id="point-0-11" opacity="1"/><path class="data-point" fill="#11A579" data-type="point" transform="translate(0, 0)" d="M269.96000000000004,445.08672A3,3,0,1,1,275.96000000000004,445.08672A3,3,0,1,1,269.96000000000004,445.08672Z" id="point-0-12" opacity="1"/><path class="data-point" fill="#11A579" data-type="point" transform="translate(0, 0)" d="M287.88,426.75984000000005A3,3,0,1,1,293.88,426.75984000000005A3,3,0,1,1,287.88,426.75984000000005Z" id="point-0-13" opacity="1"/><path class="data-point" fill="#11A579" data-type="point" transform="translate(0, 0)" d="M305.8,404.46432000000004A3,3,0,1,1,311.8,404.46432000000004A3,3,0,1,1,305.8,404.46432000000004Z" id="point-0-14" opacity="1"/><path class="data-point" fill="#11A579" data-type="point" transform="translate(0, 0)" d="M323.72,392.03424A3,3,0,1,1,329.72,392.03424A3,3,0,1,1,323.72,392.03424Z" id="point-0-15" opacity="1"/><path class="data-point" fill="#11A579" data-type="point" transform="translate(0, 0)" d="M341.64000000000004,380.07216000000005A3,3,0,1,1,347.64000000000004,380.07216000000005A3,3,0,1,1,341.64000000000004,380.07216000000005Z" id="point-0-16" opacity="1"/><path class="data-point" fill="#11A579" data-type="point" transform="translate(0, 0)" d="M359.56,365.62032A3,3,0,1,1,365.56,365.62032A3,3,0,1,1,359.56,365.62032Z" id="point-0-17" opacity="1"/><path class="data-point" fill="#11A579" data-type="point" transform="translate(0, 0)" d="M377.48,354.9312A3,3,0,1,1,383.48,354.9312A3,3,0,1,1,377.48,354.9312Z" id="point-0-18" opacity="1"/><path class="data-point" fill="#11A579" data-type="point" transform="translate(0, 0)" d="M395.40000000000003,345.70224A3,3,0,1,1,401.40000000000003,345.70224A3,3,0,1,1,395.40000000000003,345.70224Z" id="point-0-19" opacity="1"/><path class="data-point" fill="#11A579" data-type="point" transform="translate(0, 0)" d="M413.32,337.65264A3,3,0,1,1,419.32,337.65264A3,3,0,1,1,413.32,337.65264Z" id="point-0-20" opacity="1"/><path class="data-point" fill="#11A579" data-type="point" transform="translate(0, 0)" d="M431.24,330.93216A3,3,0,1,1,437.24,330.93216A3,3,0,1,1,431.24,330.93216Z" id="point-0-21" opacity="1"/><path class="data-point" fill="#11A579" data-type="point" transform="translate(0, 0)" d="M449.16,330.93216A3,3,0,1,1,455.16,330.93216A3,3,0,1,1,449.16,330.93216Z" id="point-0-22" opacity="1"/><path class="data-point" fill="#11A579" data-type="point" transform="translate(0, 0)" d="M467.08,326.30832A3,3,0,1,1,473.08,326.30832A3,3,0,1,1,467.08,326.30832Z" id="point-0-23" opacity="1"/><path class="data-point" fill="#11A579" data-type="point" transform="translate(0, 0)" d="M485,321.6096A3,3,0,1,1,491,321.6096A3,3,0,1,1,485,321.6096Z" id="point-0-24" opacity="1"/><path class="data-point" fill="#11A579" data-type="point" transform="translate(0, 0)" d="M502.92,316.81728A3,3,0,1,1,508.92,316.81728A3,3,0,1,1,502.92,316.81728Z" id="point-0-25" opacity="1"/><path class="data-point" fill="#11A579" data-type="point" transform="translate(0, 0)" d="M520.84,310.69584000000003A3,3,0,1,1,526.84,310.69584000000003A3,3,0,1,1,520.84,310.69584000000003Z" id="point-0-26" opacity="1"/><path class="data-point" fill="#11A579" data-type="point" transform="translate(0, 0)" d="M538.76,304.42464A3,3,0,1,1,544.76,304.42464A3,3,0,1,1,538.76,304.42464Z" id="point-0-27" opacity="1"/><path class="data-point" fill="#11A579" data-type="point" transform="translate(0, 0)" d="M556.68,300.644136A3,3,0,1,1,562.68,300.644136A3,3,0,1,1,556.68,300.644136Z" id="point-0-28" opacity="1"/><path class="data-point" fill="#11A579" data-type="point" transform="translate(0, 0)" d="M574.6,290.18976480000003A3,3,0,1,1,580.6,290.18976480000003A3,3,0,1,1,574.6,290.18976480000003Z" id="point-0-29" opacity="1"/><path class="data-point" fill="#11A579" data-type="point" transform="translate(0, 0)" d="M592.52,279.31644A3,3,0,1,1,598.52,279.31644A3,3,0,1,1,592.52,279.31644Z" id="point-0-30" opacity="1"/><path class="data-point" fill="#11A579" data-type="point" transform="translate(0, 0)" d="M610.44,268.0075008A3,3,0,1,1,616.44,268.0075008A3,3,0,1,1,610.44,268.0075008Z" id="point-0-31" opacity="1"/><path class="data-point" fill="#11A579" data-type="point" transform="translate(0, 0)" d="M628.36,256.2457248A3,3,0,1,1,634.36,256.2457248A3,3,0,1,1,628.36,256.2457248Z" id="point-0-32" opacity="1"/><path class="data-point" fill="#11A579" data-type="point" transform="translate(0, 0)" d="M646.2800000000001,244.0125792A3,3,0,1,1,652.2800000000001,244.0125792A3,3,0,1,1,646.2800000000001,244.0125792Z" id="point-0-33" opacity="1"/><path class="data-point" fill="#11A579" data-type="point" transform="translate(0, 0)" d="M664.1999999999999,231.28934400000003A3,3,0,1,1,670.1999999999999,231.28934400000003A3,3,0,1,1,664.1999999999999,231.28934400000003Z" id="point-0-34" opacity="1"/><path class="data-point" fill="#11A579" data-type="point" transform="translate(0, 0)" d="M682.12,218.05636320000008A3,3,0,1,1,688.12,218.05636320000008A3,3,0,1,1,682.12,218.05636320000008Z" id="point-0-35" opacity="1"/><path class="data-point" fill="#11A579" data-type="point" transform="translate(0, 0)" d="M700.04,204.293232A3,3,0,1,1,706.04,204.293232A3,3,0,1,1,700.04,204.293232Z" id="point-0-36" opacity="1"/><path class="data-point" fill="#11A579" data-type="point" transform="translate(0, 0)" d="M717.96,189.9787968A3,3,0,1,1,723.96,189.9787968A3,3,0,1,1,717.96,189.9787968Z" id="point-0-37" opacity="1"/><path class="data-point" fill="#11A579" data-type="point" transform="translate(0, 0)" d="M735.88,175.09096800000003A3,3,0,1,1,741.88,175.09096800000003A3,3,0,1,1,735.88,175.09096800000003Z" id="point-0-38" opacity="1"/><path class="data-point" fill="#11A579" data-type="point" transform="translate(0, 0)" d="M753.8000000000001,159.60653280000002A3,3,0,1,1,759.8000000000001,159.60653280000002A3,3,0,1,1,753.8000000000001,159.60653280000002Z" id="point-0-39" opacity="1"/><path class="data-point" fill="#11A579" data-type="point" transform="translate(0, 0)" d="M771.7199999999999,143.50190400000002A3,3,0,1,1,777.7199999999999,143.50190400000002A3,3,0,1,1,771.7199999999999,143.50190400000002Z" id="point-0-40" opacity="1"/><path class="data-point" fill="#11A579" data-type="point" transform="translate(0, 0)" d="M789.64,126.75199679999997A3,3,0,1,1,795.64,126.75199679999997A3,3,0,1,1,789.64,126.75199679999997Z" id="point-0-41" opacity="1"/><path class="data-point" fill="#11A579" data-type="point" transform="translate(0, 0)" d="M807.56,109.33116480000001A3,3,0,1,1,813.56,109.33116480000001A3,3,0,1,1,807.56,109.33116480000001Z" id="point-0-42" opacity="1"/><path class="data-point" fill="#11A579" data-type="point" transform="translate(0, 0)" d="M825.48,91.212264A3,3,0,1,1,831.48,91.212264A3,3,0,1,1,825.48,91.212264Z" id="point-0-43" opacity="1"/><path class="data-point" fill="#11A579" data-type="point" transform="translate(0, 0)" d="M843.4,72.36758880000002A3,3,0,1,1,849.4,72.36758880000002A3,3,0,1,1,843.4,72.36758880000002Z" id="point-0-44" opacity="1"/><path class="data-point" fill="#11A579" data-type="point" transform="translate(0, 0)" d="M861.32,52.76793599999996A3,3,0,1,1,867.32,52.76793599999996A3,3,0,1,1,861.32,52.76793599999996Z" id="point-0-45" opacity="1"/><path class="data-point" fill="#11A579" data-type="point" transform="translate(0, 0)" d="M879.24,32.383166399999936A3,3,0,1,1,885.24,32.383166399999936A3,3,0,1,1,879.24,32.383166399999936Z" id="point-0-46" opacity="1"/></g><g class="series" transform="translate(15,20)"><path class="data-point" fill="#802392" data-type="point" transform="translate(0, 0)" d="M54.92,507.0312A3,3,0,1,1,60.92,507.0312A3,3,0,1,1,54.92,507.0312Z" id="point-1-0" opacity="1"/><path class="data-point" fill="#802392" data-type="point" transform="translate(0, 0)" d="M72.84,502.48224000000005A3,3,0,1,1,78.84,502.48224000000005A3,3,0,1,1,72.84,502.48224000000005Z" id="point-1-1" opacity="1"/><path class="data-point" fill="#802392" data-type="point" transform="translate(0, 0)" d="M90.75999999999999,500.06736A3,3,0,1,1,96.75999999999999,500.06736A3,3,0,1,1,90.75999999999999,500.06736Z" id="point-1-2" opacity="1"/><path class="data-point" fill="#802392" data-type="point" transform="translate(0, 0)" d="M108.68,496.47312A3,3,0,1,1,114.68,496.47312A3,3,0,1,1,108.68,496.47312Z" id="point-1-3" opacity="1"/><path class="data-point" fill="#802392" data-type="point" transform="translate(0, 0)" d="M126.60000000000002,492.67296A3,3,0,1,1,132.60000000000002,492.67296A3,3,0,1,1,126.60000000000002,492.67296Z" id="point-1-4" opacity="1"/><path class="data-point" fill="#802392" data-type="point" transform="translate(0, 0)" d="M144.51999999999998,487.2816A3,3,0,1,1,150.51999999999998,487.2816A3,3,0,1,1,144.51999999999998,487.2816Z" id="point-1-5" opacity="1"/><path class="data-point" fill="#802392" data-type="point" transform="translate(0, 0)" d="M162.44,480.84192A3,3,0,1,1,168.44,480.84192A3,3,0,1,1,162.44,480.84192Z" id="point-1-6" opacity="1"/><path class="data-point" fill="#802392" data-type="point" transform="translate(0, 0)" d="M180.36,474.02784A3,3,0,1,1,186.36,474.02784A3,3,0,1,1,180.36,474.02784Z" id="point-1-7" opacity="1"/><path class="data-point" fill="#802392" data-type="point" transform="translate(0, 0)" d="M198.28,467.83152A3,3,0,1,1,204.28,467.83152A3,3,0,1,1,198.28,467.83152Z" id="point-1-8" opacity="1"/><path class="data-point" fill="#802392" data-type="point" transform="translate(0, 0)" d="M216.20000000000002,461.24208A3,3,0,1,1,222.20000000000002,461.24208A3,3,0,1,1,216.20000000000002,461.24208Z" id="point-1-9" opacity="1"/><path class="data-point" fill="#802392" data-type="point" transform="translate(0, 0)" d="M234.12,451.9008A3,3,0,1,1,240.12,451.9008A3,3,0,1,1,234.12,451.9008Z" id="point-1-10" opacity="1"/><path class="data-point" fill="#802392" data-type="point" transform="translate(0, 0)" d="M252.04,439.39584A3,3,0,1,1,258.03999999999996,439.39584A3,3,0,1,1,252.04,439.39584Z" id="point-1-11" opacity="1"/><path class="data-point" fill="#802392" data-type="point" transform="translate(0, 0)" d="M269.96000000000004,426.94704A3,3,0,1,1,275.96000000000004,426.94704A3,3,0,1,1,269.96000000000004,426.94704Z" id="point-1-12" opacity="1"/><path class="data-point" fill="#802392" data-type="point" transform="translate(0, 0)" d="M287.88,414.10512000000006A3,3,0,1,1,293.88,414.10512000000006A3,3,0,1,1,287.88,414.10512000000006Z" id="point-1-13" opacity="1"/><path class="data-point" fill="#802392" data-type="point" transform="translate(0, 0)" d="M305.8,402.36768A3,3,0,1,1,311.8,402.36768A3,3,0,1,1,305.8,402.36768Z" id="point-1-14" opacity="1"/><path class="data-point" fill="#802392" data-type="point" transform="translate(0, 0)" d="M323.72,388.81440000000003A3,3,0,1,1,329.72,388.81440000000003A3,3,0,1,1,323.72,388.81440000000003Z" id="point-1-15" opacity="1"/><path class="data-point" fill="#802392" data-type="point" transform="translate(0, 0)" d="M341.64000000000004,376.96464000000003A3,3,0,1,1,347.64000000000004,376.96464000000003A3,3,0,1,1,341.64000000000004,376.96464000000003Z" id="point-1-16" opacity="1"/><path class="data-point" fill="#802392" data-type="point" transform="translate(0, 0)" d="M359.56,362.53152A3,3,0,1,1,365.56,362.53152A3,3,0,1,1,359.56,362.53152Z" id="point-1-17" opacity="1"/><path class="data-point" fill="#802392" data-type="point" transform="translate(0, 0)" d="M377.48,355.24944000000005A3,3,0,1,1,383.48,355.24944000000005A3,3,0,1,1,377.48,355.24944000000005Z" id="point-1-18" opacity="1"/><path class="data-point" fill="#802392" data-type="point" transform="translate(0, 0)" d="M395.40000000000003,346.90032A3,3,0,1,1,401.40000000000003,346.90032A3,3,0,1,1,395.40000000000003,346.90032Z" id="point-1-19" opacity="1"/><path class="data-point" fill="#802392" data-type="point" transform="translate(0, 0)" d="M413.32,335.51856A3,3,0,1,1,419.32,335.51856A3,3,0,1,1,413.32,335.51856Z" id="point-1-20" opacity="1"/><path class="data-point" fill="#802392" data-type="point" transform="translate(0, 0)" d="M431.24,327.95568000000003A3,3,0,1,1,437.24,327.95568000000003A3,3,0,1,1,431.24,327.95568000000003Z" id="point-1-21" opacity="1"/><path class="data-point" fill="#802392" data-type="point" transform="translate(0, 0)" d="M449.16,325.09152A3,3,0,1,1,455.16,325.09152A3,3,0,1,1,449.16,325.09152Z" id="point-1-22" opacity="1"/><path class="data-point" fill="#802392" data-type="point" transform="translate(0, 0)" d="M467.08,320.22432000000003A3,3,0,1,1,473.08,320.22432000000003A3,3,0,1,1,467.08,320.22432000000003Z" id="point-1-23" opacity="1"/><path class="data-point" fill="#802392" data-type="point" transform="translate(0, 0)" d="M485,314.53344000000004A3,3,0,1,1,491,314.53344000000004A3,3,0,1,1,485,314.53344000000004Z" id="point-1-24" opacity="1"/><path class="data-point" fill="#802392" data-type="point" transform="translate(0, 0)" d="M502.92,309.55392000000006A3,3,0,1,1,508.92,309.55392000000006A3,3,0,1,1,502.92,309.55392000000006Z" id="point-1-25" opacity="1"/><path class="data-point" fill="#802392" data-type="point" transform="translate(0, 0)" d="M520.84,303.78816A3,3,0,1,1,526.84,303.78816A3,3,0,1,1,520.84,303.78816Z" id="point-1-26" opacity="1"/><path class="data-point" fill="#802392" data-type="point" transform="translate(0, 0)" d="M538.76,297.79776A3,3,0,1,1,544.76,297.79776A3,3,0,1,1,538.76,297.79776Z" id="point-1-27" opacity="1"/><path class="data-point" fill="#802392" data-type="point" transform="translate(0, 0)" d="M556.68,293.15725920000006A3,3,0,1,1,562.68,293.15725920000006A3,3,0,1,1,556.68,293.15725920000006Z" id="point-1-28" opacity="1"/><path class="data-point" fill="#802392" data-type="point" transform="translate(0, 0)" d="M574.6,282.0881232A3,3,0,1,1,580.6,282.0881232A3,3,0,1,1,574.6,282.0881232Z" id="point-1-29" opacity="1"/><path class="data-point" fill="#802392" data-type="point" transform="translate(0, 0)" d="M592.52,270.56240640000004A3,3,0,1,1,598.52,270.56240640000004A3,3,0,1,1,592.52,270.56240640000004Z" id="point-1-30" opacity="1"/><path class="data-point" fill="#802392" data-type="point" transform="translate(0, 0)" d="M610.44,258.56157599999995A3,3,0,1,1,616.44,258.56157599999995A3,3,0,1,1,610.44,258.56157599999995Z" id="point-1-31" opacity="1"/><path class="data-point" fill="#802392" data-type="point" transform="translate(0, 0)" d="M628.36,246.0657888A3,3,0,1,1,634.36,246.0657888A3,3,0,1,1,628.36,246.0657888Z" id="point-1-32" opacity="1"/><path class="data-point" fill="#802392" data-type="point" transform="translate(0, 0)" d="M646.2800000000001,233.05464A3,3,0,1,1,652.2800000000001,233.05464A3,3,0,1,1,646.2800000000001,233.05464Z" id="point-1-33" opacity="1"/><path class="data-point" fill="#802392" data-type="point" transform="translate(0, 0)" d="M664.1999999999999,219.50716320000004A3,3,0,1,1,670.1999999999999,219.50716320000004A3,3,0,1,1,664.1999999999999,219.50716320000004Z" id="point-1-34" opacity="1"/><path class="data-point" fill="#802392" data-type="point" transform="translate(0, 0)" d="M682.12,205.40089440000003A3,3,0,1,1,688.12,205.40089440000003A3,3,0,1,1,682.12,205.40089440000003Z" id="point-1-35" opacity="1"/><path class="data-point" fill="#802392" data-type="point" transform="translate(0, 0)" d="M700.04,190.71318239999994A3,3,0,1,1,706.04,190.71318239999994A3,3,0,1,1,700.04,190.71318239999994Z" id="point-1-36" opacity="1"/><path class="data-point" fill="#802392" data-type="point" transform="translate(0, 0)" d="M717.96,175.41950400000002A3,3,0,1,1,723.96,175.41950400000002A3,3,0,1,1,717.96,175.41950400000002Z" id="point-1-37" opacity="1"/><path class="data-point" fill="#802392" data-type="point" transform="translate(0, 0)" d="M735.88,159.49552320000004A3,3,0,1,1,741.88,159.49552320000004A3,3,0,1,1,735.88,159.49552320000004Z" id="point-1-38" opacity="1"/><path class="data-point" fill="#802392" data-type="point" transform="translate(0, 0)" d="M753.8000000000001,142.91465760000006A3,3,0,1,1,759.8000000000001,142.91465760000006A3,3,0,1,1,753.8000000000001,142.91465760000006Z" id="point-1-39" opacity="1"/><path class="data-point" fill="#802392" data-type="point" transform="translate(0, 0)" d="M771.7199999999999,125.65013760000005A3,3,0,1,1,777.7199999999999,125.65013760000005A3,3,0,1,1,771.7199999999999,125.65013760000005Z" id="point-1-40" opacity="1"/><path class="data-point" fill="#802392" data-type="point" transform="translate(0, 0)" d="M789.64,107.67388320000003A3,3,0,1,1,795.64,107.67388320000003A3,3,0,1,1,789.64,107.67388320000003Z" id="point-1-41" opacity="1"/><path class="data-point" fill="#802392" data-type="point" transform="translate(0, 0)" d="M807.56,88.95631679999997A3,3,0,1,1,813.56,88.95631679999997A3,3,0,1,1,807.56,88.95631679999997Z" id="point-1-42" opacity="1"/><path class="data-point" fill="#802392" data-type="point" transform="translate(0, 0)" d="M825.48,69.46673759999999A3,3,0,1,1,831.48,69.46673759999999A3,3,0,1,1,825.48,69.46673759999999Z" id="point-1-43" opacity="1"/><path class="data-point" fill="#802392" data-type="point" transform="translate(0, 0)" d="M843.4,49.17369599999995A3,3,0,1,1,849.4,49.17369599999995A3,3,0,1,1,843.4,49.17369599999995Z" id="point-1-44" opacity="1"/><path class="data-point" fill="#802392" data-type="point" transform="translate(0, 0)" d="M861.32,28.04387040000006A3,3,0,1,1,867.32,28.04387040000006A3,3,0,1,1,861.32,28.04387040000006Z" id="point-1-45" opacity="1"/><path class="data-point" fill="#802392" data-type="point" transform="translate(0, 0)" d="M879.24,6.042628799999989A3,3,0,1,1,885.24,6.042628799999989A3,3,0,1,1,879.24,6.042628799999989Z" id="point-1-46" opacity="1"/></g></g><g id="data-labels"/><g class="annotations above"><g class="axis-highlights" transform="translate(15, 20)" style="opacity: 1;"/></g></svg>