<svg xmlns="http://www.w3.org/2000/svg" id="graphic" width="961" height="634.6"><g id="facets"><g class="facet" transform="translate(15,20)" opacity="1"><text class="facet-title" y="0" font-size="16" font-weight="bold" dominant-baseline="middle" x="0" clip-path="url(#facet-clip-0)" fill="black"/><g class="plot"><clipPath class="facet-clip" id="facet-clip-0"><rect width="951" height="581.6" transform="translate(-7.5,-10)"/></clipPath><g class="bg"><rect fill="none" width="936" height="561.6" style="fill: none;"/></g><g class="interaction"><g class="series"><path data-target="point-0-0" d="M80.92491400000011,561.6L65.03550502857142,505.26528L0,505.26527999999996L0,561.6Z" style="opacity: 0;"/><path data-target="point-0-1" d="M65.03550502857142,505.26528L80.92491400000011,561.6L108.64471700000001,561.6L82.7866523,500.73192L68.34421020571428,500.73191999999995Z" style="opacity: 0;"/><path data-target="point-0-2" d="M82.7866523,500.73192L108.64471700000001,561.6L117.86155499999998,561.6L101.5602375,494.7228L85.96510121,494.7228Z" style="opacity: 0;"/><path data-target="point-0-3" d="M101.5602375,494.7228L117.86155499999998,561.6L135.8915015714286,561.6L119.61032645714285,490.75728L103.6660348392857,490.75728Z" style="opacity: 0;"/><path data-target="point-0-4" d="M119.61032645714285,490.75728L135.8915015714286,561.6L171.23583312499986,561.6L137.52168935,486.83543999999995L121.57138652285713,486.83543999999995Z" style="opacity: 0;"/><path data-target="point-0-5" d="M137.52168935,486.83543999999995L171.23583312499986,561.6L184.95550579714288,561.6L156.0029187942857,480.56111999999996L139.1340775485714,480.56111999999996Z" style="opacity: 0;"/><path data-target="point-0-6" d="M156.0029187942857,480.56111999999996L184.95550579714288,561.6L206.8452766857145,561.6L174.31082594285715,475.08864L156.81851376,475.08864Z" style="opacity: 0;"/><path data-target="point-0-7" d="M174.31082594285715,475.08864L206.8452766857145,561.6L208.84570845714285,561.6L192.10306194285715,469.13568L174.46836677714285,469.13568Z" style="opacity: 0;"/><path data-target="point-0-8" d="M192.10306194285715,469.13568L208.84570845714285,561.6L234.09171359999996,561.6L209.92319742857143,465.20135999999997L192.62913673142856,465.20135999999997Z" style="opacity: 0;"/><path data-target="point-0-9" d="M209.92319742857143,465.20135999999997L234.09171359999996,561.6L261.21075201999986,561.6L227.91230949571425,460.51511999999997L210.58408279285715,460.51511999999997Z" style="opacity: 0;"/><path data-target="point-0-10" d="M227.91230949571425,460.51511999999997L261.21075201999986,561.6L275.7736790428573,561.6L245.7761454842857,454.71816L228.39878830857143,454.71816Z" style="opacity: 0;"/><path data-target="point-0-11" d="M245.7761454842857,454.71816L275.7736790428573,561.6L312.1964702142856,561.6L263.71846289999996,448.7808L246.4935588135714,448.7808Z" style="opacity: 0;"/><path data-target="point-0-12" d="M263.71846289999996,448.7808L312.1964702142856,561.6L330.1574676828573,561.6L281.37399142,440.61888L264.3153033,440.61888Z" style="opacity: 0;"/><path data-target="point-0-13" d="M281.37399142,440.61888L330.1574676828573,561.6L363.8888754285712,561.6L299.27210205714283,432.73463999999996L282.56549719,432.73463999999996Z" style="opacity: 0;"/><path data-target="point-0-14" d="M299.27210205714283,432.73463999999996L363.8888754285712,561.6L387.2983817142861,561.6L317.3539364571429,424.02048L300.3735874421429,424.02047999999996Z" style="opacity: 0;"/><path data-target="point-0-15" d="M317.3539364571429,424.02048L387.2983817142861,561.6L405.4571526399998,561.6L335.27637005714286,415.12847999999997L318.14659474285713,415.12847999999997Z" style="opacity: 0;"/><path data-target="point-0-16" d="M335.27637005714286,415.12847999999997L405.4571526399998,561.6L441.1893031085714,561.6L434.99862644403566,549.0976417031267L353.1688182285714,405.80592L336.15285717142854,405.80592Z" style="opacity: 0;"/><path data-target="point-0-17" d="M353.1688182285714,405.80592L434.99862644403566,549.0976417031267L370.79533476,395.9592L353.99858022285713,395.9592Z" style="opacity: 0;"/><path data-target="point-0-18" d="M370.79533476,395.9592L434.99862644403566,549.0976417031267L441.1893031085714,561.6L477.12056986,561.6L388.92854853999995,388.36512L372.26031415714283,388.36512Z" style="opacity: 0;"/><path data-target="point-0-19" d="M388.92854853999995,388.36512L477.12056986,561.6L500.0733980685715,561.6L406.71247988,378.96144L389.98293615999995,378.96144Z" style="opacity: 0;"/><path data-target="point-0-20" d="M406.71247988,378.96144L500.0733980685715,561.6L518.0126906342857,561.6L508.2120072719101,538.9385247824835L424.6783358571428,370.00079999999997L407.97929036,370.00079999999997Z" style="opacity: 0;"/><path data-target="point-0-21" d="M424.6783358571428,370.00079999999997L508.2120072719101,538.9385247824835L442.43591043999993,361.4052L425.84564903571425,361.4052Z" style="opacity: 0;"/><path data-target="point-0-22" d="M442.43591043999993,361.4052L508.2120072719101,538.9385247824835L518.0126906342857,561.6L528.5971746628572,561.6L460.2507354628571,354.55679999999995L444.0122042221428,354.55679999999995Z" style="opacity: 0;"/><path data-target="point-0-23" d="M460.2507354628571,354.55679999999995L528.5971746628572,561.6L549.8071106999996,561.6L478.11015186,348.45408L462.04428127999995,348.45408Z" style="opacity: 0;"/><path data-target="point-0-24" d="M478.11015186,348.45408L549.8071106999996,561.6L571.8949549000002,561.6L497.01399549999996,345.25919999999996L479.09582939142854,345.2592Z" style="opacity: 0;"/><path data-target="point-0-25" d="M496.8854166785714,337.87415999999996L497.01399549999996,345.25919999999996L571.8949549000002,561.6L580.6620549285708,561.6L514.4432013928572,337.87415999999996Z" style="opacity: 0;"/><path data-target="point-0-26" d="M514.4432013928572,337.87415999999996L580.6620549285708,561.6L607.2417047569361,561.6L553.8462396294143,374.04893019274084L532.8925593685715,332.37672L515.3486592114285,332.37672Z" style="opacity: 0;"/><path data-target="point-0-27" d="M532.7674375628571,326.28648L532.8925593685715,332.37672L553.8462396294143,374.04893019274084L550.6664491772019,326.28648Z" style="opacity: 0;"/><path data-target="point-0-28" d="M550.6664491772019,326.28648L553.8462396294143,374.04893019274084L607.2417047569361,561.6L711.756591319845,561.6L569.3663380831986,322.381332L551.0170264295809,322.381332Z" style="opacity: 0;"/><path data-target="point-0-29" d="M567.9456153200706,311.94942449999996L569.3663380831986,322.381332L711.756591319845,561.6L742.9570459364621,561.6L587.6158343276478,311.94942449999996Z" style="opacity: 0;"/><path data-target="point-0-30" d="M585.5539520118092,301.061873L587.6158343276478,311.94942449999996L742.9570459364621,561.6L775.3909406782051,561.6L605.9192925824178,301.061873Z" style="opacity: 0;"/><path data-target="point-0-31" d="M603.1131184029357,289.698708L605.9192925824178,301.061873L775.3909406782051,561.6L809.1699451912009,561.6L624.2837427789955,289.698708Z" style="opacity: 0;"/><path data-target="point-0-32" d="M620.6169582986909,277.839245L624.2837427789955,289.698708L809.1699451912009,561.6L844.4220935473583,561.6L642.7172214799407,277.839245Z" style="opacity: 0;"/><path data-target="point-0-33" d="M638.0584373253582,265.4616435L642.7172214799407,277.839245L844.4220935473583,561.6L881.2816292566756,561.6L661.2285043213925,265.4616435Z" style="opacity: 0;"/><path data-target="point-0-34" d="M655.4299410568052,252.54328299999997L661.2285043213925,265.4616435L881.2816292566756,561.6L919.8984482327334,561.6L679.8275193307484,252.54328299999997Z" style="opacity: 0;"/><path data-target="point-0-35" d="M672.7228956500963,239.060546L679.8275193307484,252.54328299999997L919.8984482327334,561.6L936,561.6L936,531.5052904360646L698.5254511888114,239.060546Z" style="opacity: 0;"/><path data-target="point-0-36" d="M689.9276599814812,224.98865999999998L698.5254511888114,239.060546L936,531.5052904360646L936,482.5846637102201L717.3345292047464,224.98865999999998Z" style="opacity: 0;"/><path data-target="point-0-37" d="M707.033669547329,210.30188399999997L717.3345292047464,224.98865999999998L936,482.5846637102201L936,435.3802299130859L736.268666121319,210.30188399999997Z" style="opacity: 0;"/><path data-target="point-0-38" d="M724.0291506040114,194.973293L736.268666121319,210.30188399999997L936,435.3802299130859L936,400.4214971923778L754.6260719191158,194.97329299999998Z" style="opacity: 0;"/><path data-target="point-0-39" d="M579.3359579028825,0L740.900930175995,178.9748065L772.5598637351908,178.9748065L758.3829225500413,162.2770655L601.0177356981949,0Z" style="opacity: 0;"/><path data-target="point-0-40" d="M601.0177356981949,0L758.3829225500413,162.2770655L790.4442296506062,162.2770655L776.3172041190026,144.8495255L629.4796350477575,0Z" style="opacity: 0;"/><path data-target="point-0-41" d="M629.4796350477575,0L776.3172041190026,144.8495255L808.2705556720084,144.8495255L794.3150586794235,126.66017500000001L660.0911083963456,0Z" style="opacity: 0;"/><path data-target="point-0-42" d="M660.0911083963456,0L794.3150586794235,126.66017500000001L826.0288160930928,126.66017500000001L812.3880331808574,107.6756925L693.1050632639392,0Z" style="opacity: 0;"/><path data-target="point-0-43" d="M693.1050632639392,0L812.3880331808574,107.6756925L843.7079446530782,107.6756925L830.5491727314312,87.86125899999999L728.8008926136122,0Z" style="opacity: 0;"/><path data-target="point-0-44" d="M728.8008926136122,0L830.5491727314312,87.86125899999999L861.2953036953843,87.86125899999999L848.8131916394925,67.18055749999999L767.484757379091,0Z" style="opacity: 0;"/><path data-target="point-0-45" d="M767.484757379091,0L848.8131916394925,67.18055749999999L878.7766977191995,67.18055749999999L867.1968303433736,45.595649L809.4946867042552,0Z" style="opacity: 0;"/><path data-target="point-0-46" d="M809.4946867042552,0L867.1968303433736,45.595649L936,45.595648999999995L936,0Z" style="opacity: 0;"/><path data-target="point-1-0" d="M0,505.26527999999996L65.03550502857142,505.26528L68.34421020571428,500.73191999999995L0,195.49000338158368Z" style="opacity: 0;"/><path data-target="point-1-1" d="M0,195.49000338158368L68.34421020571428,500.73191999999995L82.7866523,500.73192L85.96510121,494.7228L0,145.04271953512034Z" style="opacity: 0;"/><path data-target="point-1-2" d="M0,145.04271953512034L85.96510121,494.7228L101.5602375,494.7228L103.6660348392857,490.75728L6.08858958642854,-5.684341886080802e-14L0,0Z" style="opacity: 0;"/><path data-target="point-1-3" d="M6.08858958642854,-5.684341886080802e-14L103.6660348392857,490.75728L119.61032645714285,490.75728L121.57138652285713,486.83543999999995L25.614856854769783,25.24838838183257L19.843007641071104,0Z" style="opacity: 0;"/><path data-target="point-1-4" d="M25.614856854769783,25.24838838183257L121.57138652285713,486.83543999999995L137.52168935,486.83543999999995L139.1340775485714,480.56111999999996Z" style="opacity: 0;"/><path data-target="point-1-5" d="M19.843007641071104,0L25.614856854769783,25.24838838183257L139.1340775485714,480.56111999999996L156.0029187942857,480.56111999999996L156.81851376,475.08864L36.383543520000785,0Z" style="opacity: 0;"/><path data-target="point-1-6" d="M36.383543520000785,0L156.81851376,475.08864L174.31082594285715,475.08864L174.46836677714285,469.13568L39.20649732571425,0Z" style="opacity: 0;"/><path data-target="point-1-7" d="M39.20649732571425,0L174.46836677714285,469.13568L192.10306194285715,469.13568L192.62913673142856,465.20135999999997L72.59472510071365,0Z" style="opacity: 0;"/><path data-target="point-1-8" d="M72.59472510071365,0L192.62913673142856,465.20135999999997L209.92319742857143,465.20135999999997L210.58408279285715,460.51511999999997L118.27555564022735,121.52387332498807L74.12902480982152,0Z" style="opacity: 0;"/><path data-target="point-1-9" d="M118.27555564022735,121.52387332498807L210.58408279285715,460.51511999999997L227.91230949571425,460.51511999999997L228.39878830857143,454.71816L140.59013238939124,178.2176690264231Z" style="opacity: 0;"/><path data-target="point-1-10" d="M140.59013238939124,178.2176690264231L228.39878830857143,454.71816L245.7761454842857,454.71816L246.4935588135714,448.7808L162.77697480153833,229.62231627170345Z" style="opacity: 0;"/><path data-target="point-1-11" d="M162.77697480153833,229.62231627170345L246.4935588135714,448.7808L263.71846289999996,448.7808L264.3153033,440.61888Z" style="opacity: 0;"/><path data-target="point-1-12" d="M74.12902480982152,0L118.27555564022735,121.52387332498807L140.59013238939124,178.2176690264231L162.77697480153833,229.62231627170345L264.3153033,440.61888L281.37399142,440.61888L282.56549719,432.73463999999996L76.27857608071358,0Z" style="opacity: 0;"/><path data-target="point-1-13" d="M76.27857608071358,0L282.56549719,432.73463999999996L299.27210205714283,432.73463999999996L300.3735874421429,424.02047999999996L100.60315290500131,0Z" style="opacity: 0;"/><path data-target="point-1-14" d="M100.60315290500131,0L300.3735874421429,424.02047999999996L317.3539364571429,424.02048L318.14659474285713,415.12847999999997L172.63979733409852,114.50569251095942L112.79114792428545,-1.4210854715202004e-14Z" style="opacity: 0;"/><path data-target="point-1-15" d="M172.63979733409852,114.50569251095942L318.14659474285713,415.12847999999997L335.27637005714286,415.12847999999997L336.15285717142854,405.80592Z" style="opacity: 0;"/><path data-target="point-1-16" d="M112.79114792428545,-1.4210854715202004e-14L172.63979733409852,114.50569251095942L336.15285717142854,405.80592L353.1688182285714,405.80592L353.99858022285713,395.9592L144.97454682285763,0Z" style="opacity: 0;"/><path data-target="point-1-17" d="M144.97454682285763,0L353.99858022285713,395.9592L370.79533476,395.9592L372.26031415714283,388.36512L285.14942470913735,184.9792617932756L195.551746378571,2.842170943040401e-14Z" style="opacity: 0;"/><path data-target="point-1-18" d="M285.14942470913735,184.9792617932756L372.26031415714283,388.36512L388.92854853999995,388.36512L389.98293615999995,378.96144Z" style="opacity: 0;"/><path data-target="point-1-19" d="M195.551746378571,2.842170943040401e-14L285.14942470913735,184.9792617932756L389.98293615999995,378.96144L406.71247988,378.96144L407.97929036,370.00079999999997L227.08854210285705,0Z" style="opacity: 0;"/><path data-target="point-1-20" d="M227.08854210285705,0L407.97929036,370.00079999999997L424.6783358571428,370.00079999999997L425.84564903571425,361.4052L257.84063351785676,-5.684341886080802e-14Z" style="opacity: 0;"/><path data-target="point-1-21" d="M257.84063351785676,-5.684341886080802e-14L425.84564903571425,361.4052L442.43591043999993,361.4052L444.0122042221428,354.55679999999995L304.37697305071464,0Z" style="opacity: 0;"/><path data-target="point-1-22" d="M304.37697305071464,0L444.0122042221428,354.55679999999995L460.2507354628571,354.55679999999995L462.04428127999995,348.45408L339.73689920000015,0Z" style="opacity: 0;"/><path data-target="point-1-23" d="M339.73689920000015,0L462.04428127999995,348.45408L478.11015186,348.45408L479.09582939142854,345.2592L478.155463627195,298.6982072528031L403.7356053746427,0Z" style="opacity: 0;"/><path data-target="point-1-24" d="M478.155463627195,298.6982072528031L479.09582939142854,345.2592L497.01399549999996,345.25919999999996L496.8854166785714,337.87415999999996Z" style="opacity: 0;"/><path data-target="point-1-25" d="M403.7356053746427,0L478.155463627195,298.6982072528031L496.8854166785714,337.87415999999996L514.4432013928572,337.87415999999996L515.3486592114285,332.37672L409.79530941714336,0Z" style="opacity: 0;"/><path data-target="point-1-26" d="M409.79530941714336,0L515.3486592114285,332.37672L532.8925593685715,332.37672L532.7674375628571,326.28648L514.6605151070792,223.9255212352544L511.71205275404725,213.12845989970634L475.22633557023846,114.97865841873895L430.54685500534686,10.348936882303917L425.7328573610347,0Z" style="opacity: 0;"/><path data-target="point-1-27" d="M514.6605151070792,223.9255212352544L532.7674375628571,326.28648L550.6664491772019,326.28648L551.0170264295809,322.381332Z" style="opacity: 0;"/><path data-target="point-1-28" d="M511.71205275404725,213.12845989970634L514.6605151070792,223.9255212352544L551.0170264295809,322.381332L569.3663380831986,322.381332L567.9456153200706,311.94942449999996Z" style="opacity: 0;"/><path data-target="point-1-29" d="M475.22633557023846,114.97865841873895L511.71205275404725,213.12845989970634L567.9456153200706,311.94942449999996L587.6158343276478,311.94942449999996L585.5539520118092,301.061873Z" style="opacity: 0;"/><path data-target="point-1-30" d="M430.54685500534686,10.348936882303917L475.22633557023846,114.97865841873895L585.5539520118092,301.061873L605.9192925824178,301.061873L603.1131184029357,289.698708Z" style="opacity: 0;"/><path data-target="point-1-31" d="M425.7328573610347,0L430.54685500534686,10.348936882303917L603.1131184029357,289.698708L624.2837427789955,289.698708L620.6169582986909,277.839245L441.7925812090334,0Z" style="opacity: 0;"/><path data-target="point-1-32" d="M441.7925812090334,0L620.6169582986909,277.839245L642.7172214799407,277.839245L638.0584373253582,265.4616435L460.0394592241476,0Z" style="opacity: 0;"/><path data-target="point-1-33" d="M460.0394592241476,0L638.0584373253582,265.4616435L661.2285043213925,265.4616435L655.4299410568052,252.54328299999997L478.9764553860887,0Z" style="opacity: 0;"/><path data-target="point-1-34" d="M478.9764553860887,0L655.4299410568052,252.54328299999997L679.8275193307484,252.54328299999997L672.7228956500963,239.060546L498.6907002278832,0Z" style="opacity: 0;"/><path data-target="point-1-35" d="M498.6907002278832,0L672.7228956500963,239.060546L698.5254511888114,239.060546L689.9276599814812,224.98865999999998L519.275832974656,0Z" style="opacity: 0;"/><path data-target="point-1-36" d="M519.275832974656,0L689.9276599814812,224.98865999999998L717.3345292047464,224.98865999999998L707.033669547329,210.30188399999997L540.8364445283207,0Z" style="opacity: 0;"/><path data-target="point-1-37" d="M540.8364445283207,0L707.033669547329,210.30188399999997L736.268666121319,210.30188399999997L724.0291506040114,194.973293L563.4892291684205,0Z" style="opacity: 0;"/><path data-target="point-1-38" d="M563.4892291684205,0L724.0291506040114,194.973293L754.6260719191158,194.97329299999998L740.900930175995,178.9748065L579.3359579028825,0Z" style="opacity: 0;"/><path data-target="point-1-39" d="M740.900930175995,178.9748065L754.6260719191158,194.97329299999998L936,400.4214971923778L936,361.8232773859884L772.5598637351908,178.9748065Z" style="opacity: 0;"/><path data-target="point-1-40" d="M758.3829225500413,162.2770655L772.5598637351908,178.9748065L936,361.8232773859884L936,318.5679808839143L790.4442296506062,162.2770655Z" style="opacity: 0;"/><path data-target="point-1-41" d="M776.3172041190026,144.8495255L790.4442296506062,162.2770655L936,318.5679808839143L936,276.4826333820455L808.2705556720084,144.8495255Z" style="opacity: 0;"/><path data-target="point-1-42" d="M794.3150586794235,126.66017500000001L808.2705556720084,144.8495255L936,276.4826333820455L936,235.43426123994902L826.0288160930928,126.66017500000001Z" style="opacity: 0;"/><path data-target="point-1-43" d="M812.3880331808574,107.6756925L826.0288160930928,126.66017500000001L936,235.43426123994902L936,195.29117839157527L843.7079446530782,107.6756925Z" style="opacity: 0;"/><path data-target="point-1-44" d="M830.5491727314312,87.86125899999999L843.7079446530782,107.6756925L936,195.29117839157527L936,155.92812885313015L861.2953036953843,87.86125899999999Z" style="opacity: 0;"/><path data-target="point-1-45" d="M848.8131916394925,67.18055749999999L861.2953036953843,87.86125899999999L936,155.92812885313015L936,117.22230249489132L878.7766977191995,67.18055749999999Z" style="opacity: 0;"/><path data-target="point-1-46" d="M867.1968303433736,45.595649L878.7766977191995,67.18055749999999L936,117.22230249489132L936,45.595648999999995Z" style="opacity: 0;"/></g><g class="series"><path data-target="point-0-0" d="M80.92491400000011,561.6L65.03550502857142,505.26528L0,505.26527999999996L0,561.6Z" style="opacity: 0;"/><path data-target="point-0-1" d="M65.03550502857142,505.26528L80.92491400000011,561.6L108.64471700000001,561.6L82.7866523,500.73192L68.34421020571428,500.73191999999995Z" style="opacity: 0;"/><path data-target="point-0-2" d="M82.7866523,500.73192L108.64471700000001,561.6L117.86155499999998,561.6L101.5602375,494.7228L85.96510121,494.7228Z" style="opacity: 0;"/><path data-target="point-0-3" d="M101.5602375,494.7228L117.86155499999998,561.6L135.8915015714286,561.6L119.61032645714285,490.75728L103.6660348392857,490.75728Z" style="opacity: 0;"/><path data-target="point-0-4" d="M119.61032645714285,490.75728L135.8915015714286,561.6L171.23583312499986,561.6L137.52168935,486.83543999999995L121.57138652285713,486.83543999999995Z" style="opacity: 0;"/><path data-target="point-0-5" d="M137.52168935,486.83543999999995L171.23583312499986,561.6L184.95550579714288,561.6L156.0029187942857,480.56111999999996L139.1340775485714,480.56111999999996Z" style="opacity: 0;"/><path data-target="point-0-6" d="M156.0029187942857,480.56111999999996L184.95550579714288,561.6L206.8452766857145,561.6L174.31082594285715,475.08864L156.81851376,475.08864Z" style="opacity: 0;"/><path data-target="point-0-7" d="M174.31082594285715,475.08864L206.8452766857145,561.6L208.84570845714285,561.6L192.10306194285715,469.13568L174.46836677714285,469.13568Z" style="opacity: 0;"/><path data-target="point-0-8" d="M192.10306194285715,469.13568L208.84570845714285,561.6L234.09171359999996,561.6L209.92319742857143,465.20135999999997L192.62913673142856,465.20135999999997Z" style="opacity: 0;"/><path data-target="point-0-9" d="M209.92319742857143,465.20135999999997L234.09171359999996,561.6L261.21075201999986,561.6L227.91230949571425,460.51511999999997L210.58408279285715,460.51511999999997Z" style="opacity: 0;"/><path data-target="point-0-10" d="M227.91230949571425,460.51511999999997L261.21075201999986,561.6L275.7736790428573,561.6L245.7761454842857,454.71816L228.39878830857143,454.71816Z" style="opacity: 0;"/><path data-target="point-0-11" d="M245.7761454842857,454.71816L275.7736790428573,561.6L312.1964702142856,561.6L263.71846289999996,448.7808L246.4935588135714,448.7808Z" style="opacity: 0;"/><path data-target="point-0-12" d="M263.71846289999996,448.7808L312.1964702142856,561.6L330.1574676828573,561.6L281.37399142,440.61888L264.3153033,440.61888Z" style="opacity: 0;"/><path data-target="point-0-13" d="M281.37399142,440.61888L330.1574676828573,561.6L363.8888754285712,561.6L299.27210205714283,432.73463999999996L282.56549719,432.73463999999996Z" style="opacity: 0;"/><path data-target="point-0-14" d="M299.27210205714283,432.73463999999996L363.8888754285712,561.6L387.2983817142861,561.6L317.3539364571429,424.02048L300.3735874421429,424.02047999999996Z" style="opacity: 0;"/><path data-target="point-0-15" d="M317.3539364571429,424.02048L387.2983817142861,561.6L405.4571526399998,561.6L335.27637005714286,415.12847999999997L318.14659474285713,415.12847999999997Z" style="opacity: 0;"/><path data-target="point-0-16" d="M335.27637005714286,415.12847999999997L405.4571526399998,561.6L441.1893031085714,561.6L434.99862644403566,549.0976417031267L353.1688182285714,405.80592L336.15285717142854,405.80592Z" style="opacity: 0;"/><path data-target="point-0-17" d="M353.1688182285714,405.80592L434.99862644403566,549.0976417031267L370.79533476,395.9592L353.99858022285713,395.9592Z" style="opacity: 0;"/><path data-target="point-0-18" d="M370.79533476,395.9592L434.99862644403566,549.0976417031267L441.1893031085714,561.6L477.12056986,561.6L388.92854853999995,388.36512L372.26031415714283,388.36512Z" style="opacity: 0;"/><path data-target="point-0-19" d="M388.92854853999995,388.36512L477.12056986,561.6L500.0733980685715,561.6L406.71247988,378.96144L389.98293615999995,378.96144Z" style="opacity: 0;"/><path data-target="point-0-20" d="M406.71247988,378.96144L500.0733980685715,561.6L518.0126906342857,561.6L508.2120072719101,538.9385247824835L424.6783358571428,370.00079999999997L407.97929036,370.00079999999997Z" style="opacity: 0;"/><path data-target="point-0-21" d="M424.6783358571428,370.00079999999997L508.2120072719101,538.9385247824835L442.43591043999993,361.4052L425.84564903571425,361.4052Z" style="opacity: 0;"/><path data-target="point-0-22" d="M442.43591043999993,361.4052L508.2120072719101,538.9385247824835L518.0126906342857,561.6L528.5971746628572,561.6L460.2507354628571,354.55679999999995L444.0122042221428,354.55679999999995Z" style="opacity: 0;"/><path data-target="point-0-23" d="M460.2507354628571,354.55679999999995L528.5971746628572,561.6L549.8071106999996,561.6L478.11015186,348.45408L462.04428127999995,348.45408Z" style="opacity: 0;"/><path data-target="point-0-24" d="M478.11015186,348.45408L549.8071106999996,561.6L571.8949549000002,561.6L497.01399549999996,345.25919999999996L479.09582939142854,345.2592Z" style="opacity: 0;"/><path data-target="point-0-25" d="M496.8854166785714,337.87415999999996L497.01399549999996,345.25919999999996L571.8949549000002,561.6L580.6620549285708,561.6L514.4432013928572,337.87415999999996Z" style="opacity: 0;"/><path data-target="point-0-26" d="M514.4432013928572,337.87415999999996L580.6620549285708,561.6L607.2417047569361,561.6L553.8462396294143,374.04893019274084L532.8925593685715,332.37672L515.3486592114285,332.37672Z" style="opacity: 0;"/><path data-target="point-0-27" d="M532.7674375628571,326.28648L532.8925593685715,332.37672L553.8462396294143,374.04893019274084L550.6664491772019,326.28648Z" style="opacity: 0;"/><path data-target="point-0-28" d="M550.6664491772019,326.28648L553.8462396294143,374.04893019274084L607.2417047569361,561.6L711.756591319845,561.6L569.3663380831986,322.381332L551.0170264295809,322.381332Z" style="opacity: 0;"/><path data-target="point-0-29" d="M567.9456153200706,311.94942449999996L569.3663380831986,322.381332L711.756591319845,561.6L742.9570459364621,561.6L587.6158343276478,311.94942449999996Z" style="opacity: 0;"/><path data-target="point-0-30" d="M585.5539520118092,301.061873L587.6158343276478,311.94942449999996L742.9570459364621,561.6L775.3909406782051,561.6L605.9192925824178,301.061873Z" style="opacity: 0;"/><path data-target="point-0-31" d="M603.1131184029357,289.698708L605.9192925824178,301.061873L775.3909406782051,561.6L809.1699451912009,561.6L624.2837427789955,289.698708Z" style="opacity: 0;"/><path data-target="point-0-32" d="M620.6169582986909,277.839245L624.2837427789955,289.698708L809.1699451912009,561.6L844.4220935473583,561.6L642.7172214799407,277.839245Z" style="opacity: 0;"/><path data-target="point-0-33" d="M638.0584373253582,265.4616435L642.7172214799407,277.839245L844.4220935473583,561.6L881.2816292566756,561.6L661.2285043213925,265.4616435Z" style="opacity: 0;"/><path data-target="point-0-34" d="M655.4299410568052,252.54328299999997L661.2285043213925,265.4616435L881.2816292566756,561.6L919.8984482327334,561.6L679.8275193307484,252.54328299999997Z" style="opacity: 0;"/><path data-target="point-0-35" d="M672.7228956500963,239.060546L679.8275193307484,252.54328299999997L919.8984482327334,561.6L936,561.6L936,531.5052904360646L698.5254511888114,239.060546Z" style="opacity: 0;"/><path data-target="point-0-36" d="M689.9276599814812,224.98865999999998L698.5254511888114,239.060546L936,531.5052904360646L936,482.5846637102201L717.3345292047464,224.98865999999998Z" style="opacity: 0;"/><path data-target="point-0-37" d="M707.033669547329,210.30188399999997L717.3345292047464,224.98865999999998L936,482.5846637102201L936,435.3802299130859L736.268666121319,210.30188399999997Z" style="opacity: 0;"/><path data-target="point-0-38" d="M724.0291506040114,194.973293L736.268666121319,210.30188399999997L936,435.3802299130859L936,400.4214971923778L754.6260719191158,194.97329299999998Z" style="opacity: 0;"/><path data-target="point-0-39" d="M579.3359579028825,0L740.900930175995,178.9748065L772.5598637351908,178.9748065L758.3829225500413,162.2770655L601.0177356981949,0Z" style="opacity: 0;"/><path data-target="point-0-40" d="M601.0177356981949,0L758.3829225500413,162.2770655L790.4442296506062,162.2770655L776.3172041190026,144.8495255L629.4796350477575,0Z" style="opacity: 0;"/><path data-target="point-0-41" d="M629.4796350477575,0L776.3172041190026,144.8495255L808.2705556720084,144.8495255L794.3150586794235,126.66017500000001L660.0911083963456,0Z" style="opacity: 0;"/><path data-target="point-0-42" d="M660.0911083963456,0L794.3150586794235,126.66017500000001L826.0288160930928,126.66017500000001L812.3880331808574,107.6756925L693.1050632639392,0Z" style="opacity: 0;"/><path data-target="point-0-43" d="M693.1050632639392,0L812.3880331808574,107.6756925L843.7079446530782,107.6756925L830.5491727314312,87.86125899999999L728.8008926136122,0Z" style="opacity: 0;"/><path data-target="point-0-44" d="M728.8008926136122,0L830.5491727314312,87.86125899999999L861.2953036953843,87.86125899999999L848.8131916394925,67.18055749999999L767.484757379091,0Z" style="opacity: 0;"/><path data-target="point-0-45" d="M767.484757379091,0L848.8131916394925,67.18055749999999L878.7766977191995,67.18055749999999L867.1968303433736,45.595649L809.4946867042552,0Z" style="opacity: 0;"/><path data-target="point-0-46" d="M809.4946867042552,0L867.1968303433736,45.595649L936,45.595648999999995L936,0Z" style="opacity: 0;"/><path data-target="point-1-0" d="M0,505.26527999999996L65.03550502857142,505.26528L68.34421020571428,500.73191999999995L0,195.49000338158368Z" style="opacity: 0;"/><path data-target="point-1-1" d="M0,195.49000338158368L68.34421020571428,500.73191999999995L82.7866523,500.73192L85.96510121,494.7228L0,145.04271953512034Z" style="opacity: 0;"/><path data-target="point-1-2" d="M0,145.04271953512034L85.96510121,494.7228L101.5602375,494.7228L103.6660348392857,490.75728L6.08858958642854,-5.684341886080802e-14L0,0Z" style="opacity: 0;"/><path data-target="point-1-3" d="M6.08858958642854,-5.684341886080802e-14L103.6660348392857,490.75728L119.61032645714285,490.75728L121.57138652285713,486.83543999999995L25.614856854769783,25.24838838183257L19.843007641071104,0Z" style="opacity: 0;"/><path data-target="point-1-4" d="M25.614856854769783,25.24838838183257L121.57138652285713,486.83543999999995L137.52168935,486.83543999999995L139.1340775485714,480.56111999999996Z" style="opacity: 0;"/><path data-target="point-1-5" d="M19.843007641071104,0L25.614856854769783,25.24838838183257L139.1340775485714,480.56111999999996L156.0029187942857,480.56111999999996L156.81851376,475.08864L36.383543520000785,0Z" style="opacity: 0;"/><path data-target="point-1-6" d="M36.383543520000785,0L156.81851376,475.08864L174.31082594285715,475.08864L174.46836677714285,469.13568L39.20649732571425,0Z" style="opacity: 0;"/><path data-target="point-1-7" d="M39.20649732571425,0L174.46836677714285,469.13568L192.10306194285715,469.13568L192.62913673142856,465.20135999999997L72.59472510071365,0Z" style="opacity: 0;"/><path data-target="point-1-8" d="M72.59472510071365,0L192.62913673142856,465.20135999999997L209.92319742857143,465.20135999999997L210.58408279285715,460.51511999999997L118.27555564022735,121.52387332498807L74.12902480982152,0Z" style="opacity: 0;"/><path data-target="point-1-9" d="M118.27555564022735,121.52387332498807L210.58408279285715,460.51511999999997L227.91230949571425,460.51511999999997L228.39878830857143,454.71816L140.59013238939124,178.2176690264231Z" style="opacity: 0;"/><path data-target="point-1-10" d="M140.59013238939124,178.2176690264231L228.39878830857143,454.71816L245.7761454842857,454.71816L246.4935588135714,448.7808L162.77697480153833,229.62231627170345Z" style="opacity: 0;"/><path data-target="point-1-11" d="M162.77697480153833,229.62231627170345L246.4935588135714,448.7808L263.71846289999996,448.7808L264.3153033,440.61888Z" style="opacity: 0;"/><path data-target="point-1-12" d="M74.12902480982152,0L118.27555564022735,121.52387332498807L140.59013238939124,178.2176690264231L162.77697480153833,229.62231627170345L264.3153033,440.61888L281.37399142,440.61888L282.56549719,432.73463999999996L76.27857608071358,0Z" style="opacity: 0;"/><path data-target="point-1-13" d="M76.27857608071358,0L282.56549719,432.73463999999996L299.27210205714283,432.73463999999996L300.3735874421429,424.02047999999996L100.60315290500131,0Z" style="opacity: 0;"/><path data-target="point-1-14" d="M100.60315290500131,0L300.3735874421429,424.02047999999996L317.3539364571429,424.02048L318.14659474285713,415.12847999999997L172.63979733409852,114.50569251095942L112.79114792428545,-1.4210854715202004e-14Z" style="opacity: 0;"/><path data-target="point-1-15" d="M172.63979733409852,114.50569251095942L318.14659474285713,415.12847999999997L335.27637005714286,415.12847999999997L336.15285717142854,405.80592Z" style="opacity: 0;"/><path data-target="point-1-16" d="M112.79114792428545,-1.4210854715202004e-14L172.63979733409852,114.50569251095942L336.15285717142854,405.80592L353.1688182285714,405.80592L353.99858022285713,395.9592L144.97454682285763,0Z" style="opacity: 0;"/><path data-target="point-1-17" d="M144.97454682285763,0L353.99858022285713,395.9592L370.79533476,395.9592L372.26031415714283,388.36512L285.14942470913735,184.9792617932756L195.551746378571,2.842170943040401e-14Z" style="opacity: 0;"/><path data-target="point-1-18" d="M285.14942470913735,184.9792617932756L372.26031415714283,388.36512L388.92854853999995,388.36512L389.98293615999995,378.96144Z" style="opacity: 0;"/><path data-target="point-1-19" d="M195.551746378571,2.842170943040401e-14L285.14942470913735,184.9792617932756L389.98293615999995,378.96144L406.71247988,378.96144L407.97929036,370.00079999999997L227.08854210285705,0Z" style="opacity: 0;"/><path data-target="point-1-20" d="M227.08854210285705,0L407.97929036,370.00079999999997L424.6783358571428,370.00079999999997L425.84564903571425,361.4052L257.84063351785676,-5.684341886080802e-14Z" style="opacity: 0;"/><path data-target="point-1-21" d="M257.84063351785676,-5.684341886080802e-14L425.84564903571425,361.4052L442.43591043999993,361.4052L444.0122042221428,354.55679999999995L304.37697305071464,0Z" style="opacity: 0;"/><path data-target="point-1-22" d="M304.37697305071464,0L444.0122042221428,354.55679999999995L460.2507354628571,354.55679999999995L462.04428127999995,348.45408L339.73689920000015,0Z" style="opacity: 0;"/><path data-target="point-1-23" d="M339.73689920000015,0L462.04428127999995,348.45408L478.11015186,348.45408L479.09582939142854,345.2592L478.155463627195,298.6982072528031L403.7356053746427,0Z" style="opacity: 0;"/><path data-target="point-1-24" d="M478.155463627195,298.6982072528031L479.09582939142854,345.2592L497.01399549999996,345.25919999999996L496.8854166785714,337.87415999999996Z" style="opacity: 0;"/><path data-target="point-1-25" d="M403.7356053746427,0L478.155463627195,298.6982072528031L496.8854166785714,337.87415999999996L514.4432013928572,337.87415999999996L515.3486592114285,332.37672L409.79530941714336,0Z" style="opacity: 0;"/><path data-target="point-1-26" d="M409.79530941714336,0L515.3486592114285,332.37672L532.8925593685715,332.37672L532.7674375628571,326.28648L514.6605151070792,223.9255212352544L511.71205275404725,213.12845989970634L475.22633557023846,114.97865841873895L430.54685500534686,10.348936882303917L425.7328573610347,0Z" style="opacity: 0;"/><path data-target="point-1-27" d="M514.6605151070792,223.9255212352544L532.7674375628571,326.28648L550.6664491772019,326.28648L551.0170264295809,322.381332Z" style="opacity: 0;"/><path data-target="point-1-28" d="M511.71205275404725,213.12845989970634L514.6605151070792,223.9255212352544L551.0170264295809,322.381332L569.3663380831986,322.381332L567.9456153200706,311.94942449999996Z" style="opacity: 0;"/><path data-target="point-1-29" d="M475.22633557023846,114.97865841873895L511.71205275404725,213.12845989970634L567.9456153200706,311.94942449999996L587.6158343276478,311.94942449999996L585.5539520118092,301.061873Z" style="opacity: 0;"/><path data-target="point-1-30" d="M430.54685500534686,10.348936882303917L475.22633557023846,114.97865841873895L585.5539520118092,301.061873L605.9192925824178,301.061873L603.1131184029357,289.698708Z" style="opacity: 0;"/><path data-target="point-1-31" d="M425.7328573610347,0L430.54685500534686,10.348936882303917L603.1131184029357,289.698708L624.2837427789955,289.698708L620.6169582986909,277.839245L441.7925812090334,0Z" style="opacity: 0;"/><path data-target="point-1-32" d="M441.7925812090334,0L620.6169582986909,277.839245L642.7172214799407,277.839245L638.0584373253582,265.4616435L460.0394592241476,0Z" style="opacity: 0;"/><path data-target="point-1-33" d="M460.0394592241476,0L638.0584373253582,265.4616435L661.2285043213925,265.4616435L655.4299410568052,252.54328299999997L478.9764553860887,0Z" style="opacity: 0;"/><path data-target="point-1-34" d="M478.9764553860887,0L655.4299410568052,252.54328299999997L679.8275193307484,252.54328299999997L672.7228956500963,239.060546L498.6907002278832,0Z" style="opacity: 0;"/><path data-target="point-1-35" d="M498.6907002278832,0L672.7228956500963,239.060546L698.5254511888114,239.060546L689.9276599814812,224.98865999999998L519.275832974656,0Z" style="opacity: 0;"/><path data-target="point-1-36" d="M519.275832974656,0L689.9276599814812,224.98865999999998L717.3345292047464,224.98865999999998L707.033669547329,210.30188399999997L540.8364445283207,0Z" style="opacity: 0;"/><path data-target="point-1-37" d="M540.8364445283207,0L707.033669547329,210.30188399999997L736.268666121319,210.30188399999997L724.0291506040114,194.973293L563.4892291684205,0Z" style="opacity: 0;"/><path data-target="point-1-38" d="M563.4892291684205,0L724.0291506040114,194.973293L754.6260719191158,194.97329299999998L740.900930175995,178.9748065L579.3359579028825,0Z" style="opacity: 0;"/><path data-target="point-1-39" d="M740.900930175995,178.9748065L754.6260719191158,194.97329299999998L936,400.4214971923778L936,361.8232773859884L772.5598637351908,178.9748065Z" style="opacity: 0;"/><path data-target="point-1-40" d="M758.3829225500413,162.2770655L772.5598637351908,178.9748065L936,361.8232773859884L936,318.5679808839143L790.4442296506062,162.2770655Z" style="opacity: 0;"/><path data-target="point-1-41" d="M776.3172041190026,144.8495255L790.4442296506062,162.2770655L936,318.5679808839143L936,276.4826333820455L808.2705556720084,144.8495255Z" style="opacity: 0;"/><path data-target="point-1-42" d="M794.3150586794235,126.66017500000001L808.2705556720084,144.8495255L936,276.4826333820455L936,235.43426123994902L826.0288160930928,126.66017500000001Z" style="opacity: 0;"/><path data-target="point-1-43" d="M812.3880331808574,107.6756925L826.0288160930928,126.66017500000001L936,235.43426123994902L936,195.29117839157527L843.7079446530782,107.6756925Z" style="opacity: 0;"/><path data-target="point-1-44" d="M830.5491727314312,87.86125899999999L843.7079446530782,107.6756925L936,195.29117839157527L936,155.92812885313015L861.2953036953843,87.86125899999999Z" style="opacity: 0;"/><path data-target="point-1-45" d="M848.8131916394925,67.18055749999999L861.2953036953843,87.86125899999999L936,155.92812885313015L936,117.22230249489132L878.7766977191995,67.18055749999999Z" style="opacity: 0;"/><path data-target="point-1-46" d="M867.1968303433736,45.595649L878.7766977191995,67.18055749999999L936,117.22230249489132L936,45.595648999999995Z" style="opacity: 0;"/></g></g><g class="axes"><g class="y axis" fill="none" font-size="10" font-family="sans-serif" text-anchor="end" style="font-family: &quot;Source Sans Pro&quot;;"><path class="domain" stroke="#eeeeee" d="M0.5,562.1V0.5" stroke-dasharray="0" style="visibility: hidden;"/><g class="tick" opacity="1" transform="translate(0,562.1)" style="visibility: visible;"><line stroke="#eeeeee" x2="936" stroke-dasharray="0"/><text fill="rgb(0, 0, 0)" x="3" dy="-0.33em" opacity="1" text-anchor="start" font-size="18">$0</text></g><g class="tick" opacity="1" transform="translate(0, 499.70001220703125)" style="visibility: visible;"><line stroke="#eeeeee" x2="936" stroke-dasharray="0"/><text fill="rgb(0, 0, 0)" x="3" dy="-0.33em" opacity="1" text-anchor="start" font-size="18">$10,000</text></g><g class="tick" opacity="1" transform="translate(0, 437.29998779296875)" style="visibility: visible;"><line stroke="#eeeeee" x2="936" stroke-dasharray="0"/><text fill="rgb(0, 0, 0)" x="3" dy="-0.33em" opacity="1" text-anchor="start" font-size="18">$20,000</text></g><g class="tick" opacity="1" transform="translate(0, 374.8999938964844)" style="visibility: visible;"><line stroke="#eeeeee" x2="936" stroke-dasharray="0"/><text fill="rgb(0, 0, 0)" x="3" dy="-0.33em" opacity="1" text-anchor="start" font-size="18">$30,000</text></g><g class="tick" opacity="1" transform="translate(0, 312.5)" style="visibility: visible;"><line stroke="#eeeeee" x2="936" stroke-dasharray="0"/><text fill="rgb(0, 0, 0)" x="3" dy="-0.33em" opacity="1" text-anchor="start" font-size="18">$40,000</text></g><g class="tick" opacity="1" transform="translate(0, 250.10000610351562)" style="visibility: visible;"><line stroke="#eeeeee" x2="936" stroke-dasharray="0"/><text fill="rgb(0, 0, 0)" x="3" dy="-0.33em" opacity="1" text-anchor="start" font-size="18">$50,000</text></g><g class="tick" opacity="1" transform="translate(0, 187.6999969482422)" style="visibility: visible;"><line stroke="#eeeeee" x2="936" stroke-dasharray="0"/><text fill="rgb(0, 0, 0)" x="3" dy="-0.33em" opacity="1" text-anchor="start" font-size="18">$60,000</text></g><g class="tick" opacity="1" transform="translate(0, 125.30000305175781)" style="visibility: visible;"><line stroke="#eeeeee" x2="936" stroke-dasharray="0"/><text fill="rgb(0, 0, 0)" x="3" dy="-0.33em" opacity="1" text-anchor="start" font-size="18">$70,000</text></g><g class="tick" opacity="1" transform="translate(0, 62.900001525878906)" style="visibility: visible;"><line stroke="#eeeeee" x2="936" stroke-dasharray="0"/><text fill="rgb(0, 0, 0)" x="3" dy="-0.33em" opacity="1" text-anchor="start" font-size="18">$80,000</text></g><g class="tick" opacity="1" transform="translate(0, 0.5)" style="visibility: visible;"><line stroke="#eeeeee" x2="936" stroke-dasharray="0"/><text fill="rgb(0, 0, 0)" x="3" dy="-0.33em" opacity="1" text-anchor="start" font-size="18">$90,000</text></g></g><g class="x axis" transform="translate(0,561.6)" fill="none" font-size="10" font-family="sans-serif" text-anchor="middle" style="font-family: &quot;Source Sans Pro&quot;;"><path class="domain" stroke="#eeeeee" d="M40.5,0.5H936.5" stroke-dasharray="0"/><g class="tick" opacity="1" transform="translate(40.5,0)"><line stroke="#eeeeee" y2="6" stroke-dasharray="0"/><text fill="rgb(0, 0, 0)" y="9" dy="-9" opacity="1" dominant-baseline="central" font-size="18" transform="translate(0, 15) rotate(-45)" dx="5" style="text-anchor: end; visibility: visible;">1990</text></g><g class="tick" opacity="1" transform="translate(130.10000000000002,0)"><line stroke="#eeeeee" y2="6" stroke-dasharray="0"/><text fill="rgb(0, 0, 0)" y="9" dy="-9" opacity="1" dominant-baseline="central" font-size="18" transform="translate(0, 15) rotate(-45)" dx="5" style="text-anchor: end; visibility: visible;">1995</text></g><g class="tick" opacity="1" transform="translate(219.70000000000002,0)"><line stroke="#eeeeee" y2="6" stroke-dasharray="0"/><text fill="rgb(0, 0, 0)" y="9" dy="-9" opacity="1" dominant-baseline="central" font-size="18" transform="translate(0, 15) rotate(-45)" dx="5" style="text-anchor: end; visibility: visible;">2000</text></g><g class="tick" opacity="1" transform="translate(309.3,0)"><line stroke="#eeeeee" y2="6" stroke-dasharray="0"/><text fill="rgb(0, 0, 0)" y="9" dy="-9" opacity="1" dominant-baseline="central" font-size="18" transform="translate(0, 15) rotate(-45)" dx="5" style="text-anchor: end; visibility: visible;">2005</text></g><g class="tick" opacity="1" transform="translate(398.90000000000003,0)"><line stroke="#eeeeee" y2="6" stroke-dasharray="0"/><text fill="rgb(0, 0, 0)" y="9" dy="-9" opacity="1" dominant-baseline="central" font-size="18" transform="translate(0, 15) rotate(-45)" dx="5" style="text-anchor: end; visibility: visible;">2010</text></g><g class="tick" opacity="1" transform="translate(488.5,0)"><line stroke="#eeeeee" y2="6" stroke-dasharray="0"/><text fill="rgb(0, 0, 0)" y="9" dy="-9" opacity="1" dominant-baseline="central" font-size="18" transform="translate(0, 15) rotate(-45)" dx="5" style="text-anchor: end; visibility: visible;">2015</text></g><g class="tick" opacity="1" transform="translate(578.1,0)"><line stroke="#eeeeee" y2="6" stroke-dasharray="0"/><text fill="rgb(0, 0, 0)" y="9" dy="-9" opacity="1" dominant-baseline="central" font-size="18" transform="translate(0, 15) rotate(-45)" dx="5" style="text-anchor: end; visibility: visible;">2020</text></g><g class="tick" opacity="1" transform="translate(667.6999999999999,0)"><line stroke="#eeeeee" y2="6" stroke-dasharray="0"/><text fill="rgb(0, 0, 0)" y="9" dy="-9" opacity="1" dominant-baseline="central" font-size="18" transform="translate(0, 15) rotate(-45)" dx="5" style="text-anchor: end; visibility: visible;">2025</text></g><g class="tick" opacity="1" transform="translate(757.3000000000001,0)"><line stroke="#eeeeee" y2="6" stroke-dasharray="0"/><text fill="rgb(0, 0, 0)" y="9" dy="-9" opacity="1" dominant-baseline="central" font-size="18" transform="translate(0, 15) rotate(-45)" dx="5" style="text-anchor: end; visibility: visible;">2030</text></g><g class="tick" opacity="1" transform="translate(846.9,0)"><line stroke="#eeeeee" y2="6" stroke-dasharray="0"/><text fill="rgb(0, 0, 0)" y="9" dy="-9" opacity="1" dominant-baseline="central" font-size="18" transform="translate(0, 15) rotate(-45)" dx="5" style="text-anchor: end; visibility: visible;">2035</text></g><g class="tick" opacity="1" transform="translate(936.5,0)"><line stroke="#eeeeee" y2="6" stroke-dasharray="0"/><text fill="rgb(0, 0, 0)" y="9" dy="-9" opacity="1" dominant-baseline="central" font-size="18" transform="translate(0, 15) rotate(-45)" dx="5" style="text-anchor: end; visibility: visible;">2040</text></g></g></g></g></g></g><g class="annotations below"><g class="axis-highlights" transform="translate(15, 20)" style="opacity: 1;"><g class="line x" transform="translate(559.68, 0)"><line width="0" stroke-dasharray="2 2" stroke="#333333" stroke-width="2" y2="561.6"/><text transform="translate(0, 6) rotate(-90)" fill="#333333" text-anchor="end" dy="-0.5em" font-size="12">Current</text></g></g></g><g id="areas"><g class="series" pointer-events="none"><path class="area" transform="translate(15,20)" fill-opacity="0" fill="rgb(17, 165, 121)" clip-path="url(#clip-0-0)" d="M57.92,514.332C63.89333333333334,512.8604,69.86666666666667,511.3888,75.84,509.2776C81.81333333333333,507.1664,87.78666666666666,503.6616,93.75999999999999,501.6648C99.73333333333333,499.668,105.70666666666666,498.7112,111.68,497.2968C117.65333333333335,495.8824,123.62666666666668,495.21160000000003,129.60000000000002,493.1784C135.57333333333335,491.14520000000005,141.54666666666665,487.51144000000005,147.51999999999998,485.09760000000006C153.4933333333333,482.68376000000006,159.46666666666667,480.88560000000007,165.44,478.69536000000005C171.41333333333333,476.50512000000003,177.38666666666668,473.62016,183.36,471.95616C189.33333333333334,470.29216,195.30666666666667,470.00096,201.28,468.71136C207.25333333333333,467.42176,213.2266666666667,465.95120000000003,219.20000000000002,464.21856C225.17333333333335,462.48592,231.14666666666668,460.1376,237.12,458.31552C243.09333333333333,456.49343999999996,249.06666666666666,455.40768,255.04,453.28608C261.0133333333333,451.16448,266.9866666666667,448.0736,272.96000000000004,445.58592C278.93333333333334,443.09824,284.9066666666667,441.06192,290.88,438.36C296.85333333333335,435.65808000000004,302.82666666666665,432.39040000000006,308.8,429.37440000000004C314.77333333333337,426.3584,320.74666666666667,423.21344,326.72,420.264C332.6933333333334,417.31456000000003,338.6666666666667,414.81440000000003,344.64000000000004,411.67776000000003C350.61333333333334,408.54112000000003,356.5866666666667,404.40192,362.56,401.44416C368.53333333333336,398.4864,374.50666666666666,396.70384,380.48,393.9312C386.4533333333334,391.15855999999997,392.4266666666667,387.85551999999996,398.40000000000003,384.80832C404.37333333333333,381.76112,410.3466666666667,378.65152,416.32,375.648C422.29333333333335,372.64448000000004,428.26666666666665,369.37055999999995,434.24,366.7872C440.21333333333337,364.20384,446.18666666666667,362.24032000000005,452.16,360.14784000000003C458.1333333333333,358.05536000000006,464.1066666666667,356.22288000000003,470.08,354.23232C476.05333333333334,352.24176,482.02666666666664,350.24288,488,348.20448C493.97333333333336,346.16607999999997,499.94666666666666,343.91968,505.92,342.00192000000004C511.8933333333334,340.08416000000005,517.8666666666667,339.08368,523.84,336.69792C529.8133333333334,334.31216,535.7866666666666,328.48271040000003,541.76,327.68736C547.7333333333333,326.8920096,553.7066666666666,327.28968480000003,559.68,326.4943344C565.6533333333333,325.698984,571.6266666666667,319.4639656,577.6,315.8278032C583.5733333333334,312.1916408,589.5466666666666,308.4784976,595.52,304.67736C601.4933333333333,300.8762224,607.4666666666667,296.994568,613.44,293.0209776C619.4133333333334,289.0473872,625.3866666666667,284.9896816,631.36,280.8358176C637.3333333333334,276.6819536,643.3066666666667,272.44011600000005,649.2800000000001,268.0977936C655.2533333333333,263.7554712,661.2266666666667,259.32120239999995,667.1999999999999,254.78188319999998C673.1733333333333,250.24256399999996,679.1466666666666,245.60714880000003,685.12,240.86187840000002C691.0933333333334,236.11660800000004,697.0666666666666,231.27082160000003,703.04,226.31026080000004C709.0133333333333,221.3497,714.9866666666667,216.2841304,720.96,211.0985136C726.9333333333334,205.9128968,732.9066666666666,200.61744559999997,738.88,195.19655999999998C744.8533333333334,189.77567439999996,750.8266666666667,184.24002480000001,756.8000000000001,178.57319999999999C762.7733333333333,172.9063752,768.7466666666667,167.11953439999994,774.7199999999999,161.19561119999997C780.6933333333333,155.27168799999993,786.6666666666666,149.22234079999998,792.64,143.0296608C798.6133333333333,136.83698080000002,804.5866666666666,130.51317760000003,810.56,124.03953120000006C816.5333333333333,117.56588480000003,822.5066666666667,110.95513520000004,828.48,104.1877824C834.4533333333334,97.4204296,840.4266666666666,90.50978559999993,846.4,83.43541439999996C852.3733333333333,76.36104319999993,858.3466666666667,69.1368808,864.32,61.74155519999999C870.2933333333334,54.34622960000003,876.2666666666667,46.70484520000003,882.24,39.06346080000003L882.24,39.06346080000003C876.2666666666667,46.70484520000003,870.2933333333334,54.34622960000003,864.32,61.74155519999999C858.3466666666667,69.1368808,852.3733333333333,76.36104319999993,846.4,83.43541439999996C840.4266666666666,90.50978559999993,834.4533333333334,97.4204296,828.48,104.1877824C822.5066666666667,110.95513520000004,816.5333333333333,117.56588480000003,810.56,124.03953120000006C804.5866666666666,130.51317760000003,798.6133333333333,136.83698080000002,792.64,143.0296608C786.6666666666666,149.22234079999998,780.6933333333333,155.27168799999993,774.7199999999999,161.19561119999997C768.7466666666667,167.11953439999994,762.7733333333333,172.9063752,756.8000000000001,178.57319999999999C750.8266666666667,184.24002480000001,744.8533333333334,189.77567439999996,738.88,195.19655999999998C732.9066666666666,200.61744559999997,726.9333333333334,205.9128968,720.96,211.0985136C714.9866666666667,216.2841304,709.0133333333333,221.3497,703.04,226.31026080000004C697.0666666666666,231.27082160000003,691.0933333333334,236.11660800000004,685.12,240.86187840000002C679.1466666666666,245.60714880000003,673.1733333333333,250.24256399999996,667.1999999999999,254.78188319999998C661.2266666666667,259.32120239999995,655.2533333333333,263.7554712,649.2800000000001,268.0977936C643.3066666666667,272.44011600000005,637.3333333333334,276.6819536,631.36,280.8358176C625.3866666666667,284.9896816,619.4133333333334,289.0473872,613.44,293.0209776C607.4666666666667,296.994568,601.4933333333333,300.8762224,595.52,304.67736C589.5466666666666,308.4784976,583.5733333333334,312.1916408,577.6,315.8278032C571.6266666666667,319.4639656,565.6533333333333,325.698984,559.68,326.4943344C553.7066666666666,327.28968480000003,547.7333333333333,326.8920096,541.76,327.68736C535.7866666666666,328.48271040000003,529.8133333333334,334.31216,523.84,336.69792C517.8666666666667,339.08368,511.8933333333334,340.08416000000005,505.92,342.00192000000004C499.94666666666666,343.91968,493.97333333333336,346.16607999999997,488,348.20448C482.02666666666664,350.24288,476.05333333333334,352.24176,470.08,354.23232C464.1066666666667,356.22288000000003,458.1333333333333,358.05536000000006,452.16,360.14784000000003C446.18666666666667,362.24032000000005,440.21333333333337,364.20384,434.24,366.7872C428.26666666666665,369.37055999999995,422.29333333333335,372.64448000000004,416.32,375.648C410.3466666666667,378.65152,404.37333333333333,381.76112,398.40000000000003,384.80832C392.4266666666667,387.85551999999996,386.4533333333334,391.15855999999997,380.48,393.9312C374.50666666666666,396.70384,368.53333333333336,398.4864,362.56,401.44416C356.5866666666667,404.40192,350.61333333333334,408.54112000000003,344.64000000000004,411.67776000000003C338.6666666666667,414.81440000000003,332.6933333333334,417.31456000000003,326.72,420.264C320.74666666666667,423.21344,314.77333333333337,426.3584,308.8,429.37440000000004C302.82666666666665,432.39040000000006,296.85333333333335,435.65808000000004,290.88,438.36C284.9066666666667,441.06192,278.93333333333334,443.09824,272.96000000000004,445.58592C266.9866666666667,448.0736,261.0133333333333,451.16448,255.04,453.28608C249.06666666666666,455.40768,243.09333333333333,456.49343999999996,237.12,458.31552C231.14666666666668,460.1376,225.17333333333335,462.48592,219.20000000000002,464.21856C213.2266666666667,465.95120000000003,207.25333333333333,467.42176,201.28,468.71136C195.30666666666667,470.00096,189.33333333333334,470.29216,183.36,471.95616C177.38666666666668,473.62016,171.41333333333333,476.50512000000003,165.44,478.69536000000005C159.46666666666667,480.88560000000007,153.4933333333333,482.68376000000006,147.51999999999998,485.09760000000006C141.54666666666665,487.51144000000005,135.57333333333335,491.14520000000005,129.60000000000002,493.1784C123.62666666666668,495.21160000000003,117.65333333333335,495.8824,111.68,497.2968C105.70666666666666,498.7112,99.73333333333333,499.668,93.75999999999999,501.6648C87.78666666666666,503.6616,81.81333333333333,507.1664,75.84,509.2776C69.86666666666667,511.3888,63.89333333333334,512.8604,57.92,514.332Z"/></g><g class="series" pointer-events="none"><path class="area" transform="translate(15,20)" fill-opacity="0" fill="rgb(128, 35, 146)" clip-path="url(#clip-0-1)" d="M57.92,496.19856000000004C63.89333333333334,494.89388,69.86666666666667,493.5892,75.84,492.18624C81.81333333333333,490.78328,87.78666666666666,489.10888,93.75999999999999,487.7808C99.73333333333333,486.45272,105.70666666666666,485.43248,111.68,484.21776C117.65333333333335,483.00304,123.62666666666668,481.858,129.60000000000002,480.49248C135.57333333333335,479.12696,141.54666666666665,477.5264,147.51999999999998,476.02464000000003C153.4933333333333,474.52288000000004,159.46666666666667,473.10016,165.44,471.48192C171.41333333333333,469.86368,177.38666666666668,467.94696,183.36,466.3152C189.33333333333334,464.68344,195.30666666666667,463.27528,201.28,461.69136000000003C207.25333333333333,460.10744000000005,213.2266666666667,458.57344,219.20000000000002,456.81168C225.17333333333335,455.04992000000004,231.14666666666668,453.21016000000003,237.12,451.12080000000003C243.09333333333333,449.03144000000003,249.06666666666666,446.85368000000005,255.04,444.27552000000003C261.0133333333333,441.69736,266.9866666666667,438.51288,272.96000000000004,435.65184C278.93333333333334,432.7908,284.9066666666667,429.94016,290.88,427.10928C296.85333333333335,424.27840000000003,302.82666666666665,421.51928,308.8,418.66656C314.77333333333337,415.81384,320.74666666666667,413.11504,326.72,409.99296000000004C332.6933333333334,406.87088000000006,338.6666666666667,403.1872,344.64000000000004,399.93408C350.61333333333334,396.68095999999997,356.5866666666667,393.33008,362.56,390.47424C368.53333333333336,387.6184,374.50666666666666,385.69232,380.48,382.79904C386.4533333333334,379.90576,392.4266666666667,376.18879999999996,398.40000000000003,373.11456C404.37333333333333,370.04032,410.3466666666667,367.20216000000005,416.32,364.35360000000003C422.29333333333335,361.50504,428.26666666666665,358.58783999999997,434.24,356.0232C440.21333333333337,353.45856,446.18666666666667,351.19032,452.16,348.96576C458.1333333333333,346.7412,464.1066666666667,342.91712,470.08,342.67584C476.05333333333334,342.43456,482.02666666666664,342.5552,488,342.31392C493.97333333333336,342.07264,499.94666666666666,336.1228,505.92,333.7464C511.8933333333334,331.37,517.8666666666667,329.53232,523.84,328.05552C529.8133333333334,326.57872000000003,535.7866666666666,326.5167984,541.76,324.8856C547.7333333333333,323.2544016,553.7066666666666,321.0707552,559.68,318.2683296C565.6533333333333,315.465904,571.6266666666667,311.5413704,577.6,308.0710464C583.5733333333334,304.6007224,589.5466666666666,301.06215360000004,595.52,297.44638560000004C601.4933333333333,293.83061760000004,607.4666666666667,290.1437240000001,613.44,286.37643840000004C619.4133333333334,282.60915280000006,625.3866666666667,278.76782959999997,631.36,274.842672C637.3333333333334,270.91751439999996,643.3066666666667,266.91515760000004,649.2800000000001,262.8254928C655.2533333333333,258.735828,661.2266666666667,254.56572959999997,667.1999999999999,250.3046832C673.1733333333333,246.04363679999997,679.1466666666666,241.69881840000002,685.12,237.25921440000002C691.0933333333334,232.81961040000004,697.0666666666666,228.29271920000002,703.04,223.66705920000004C709.0133333333333,219.04139920000003,714.9866666666667,214.32476000000003,720.96,209.5052544C726.9333333333334,204.68574880000003,732.9066666666666,199.7714992,738.88,194.75002560000001C744.8533333333334,189.728552,750.8266666666667,184.60833040000006,756.8000000000001,179.37641280000003C762.7733333333333,174.14449520000005,768.7466666666667,168.80969039999997,774.7199999999999,163.35852C780.6933333333333,157.90734959999997,786.6666666666666,152.34900720000007,792.64,146.66939040000005C798.6133333333333,140.98977360000006,804.5866666666666,135.19845039999998,810.56,129.2808192C816.5333333333333,123.36318799999997,822.5066666666667,117.32922239999996,828.48,111.16360319999995C834.4533333333334,104.99798399999999,840.4266666666666,98.71111120000002,846.4,92.28710400000006C852.3733333333333,85.86309680000005,858.3466666666667,79.31277120000006,864.32,72.61956000000004C870.2933333333334,65.92634880000006,876.2666666666667,59.02709280000006,882.24,52.12783680000007L882.24,52.12783680000007C876.2666666666667,59.02709280000006,870.2933333333334,65.92634880000006,864.32,72.61956000000004C858.3466666666667,79.31277120000006,852.3733333333333,85.86309680000005,846.4,92.28710400000006C840.4266666666666,98.71111120000002,834.4533333333334,104.99798399999999,828.48,111.16360319999995C822.5066666666667,117.32922239999996,816.5333333333333,123.36318799999997,810.56,129.2808192C804.5866666666666,135.19845039999998,798.6133333333333,140.98977360000006,792.64,146.66939040000005C786.6666666666666,152.34900720000007,780.6933333333333,157.90734959999997,774.7199999999999,163.35852C768.7466666666667,168.80969039999997,762.7733333333333,174.14449520000005,756.8000000000001,179.37641280000003C750.8266666666667,184.60833040000006,744.8533333333334,189.728552,738.88,194.75002560000001C732.9066666666666,199.7714992,726.9333333333334,204.68574880000003,720.96,209.5052544C714.9866666666667,214.32476000000003,709.0133333333333,219.04139920000003,703.04,223.66705920000004C697.0666666666666,228.29271920000002,691.0933333333334,232.81961040000004,685.12,237.25921440000002C679.1466666666666,241.69881840000002,673.1733333333333,246.04363679999997,667.1999999999999,250.3046832C661.2266666666667,254.56572959999997,655.2533333333333,258.735828,649.2800000000001,262.8254928C643.3066666666667,266.91515760000004,637.3333333333334,270.91751439999996,631.36,274.842672C625.3866666666667,278.76782959999997,619.4133333333334,282.60915280000006,613.44,286.37643840000004C607.4666666666667,290.1437240000001,601.4933333333333,293.83061760000004,595.52,297.44638560000004C589.5466666666666,301.06215360000004,583.5733333333334,304.6007224,577.6,308.0710464C571.6266666666667,311.5413704,565.6533333333333,315.465904,559.68,318.2683296C553.7066666666666,321.0707552,547.7333333333333,323.2544016,541.76,324.8856C535.7866666666666,326.5167984,529.8133333333334,326.57872000000003,523.84,328.05552C517.8666666666667,329.53232,511.8933333333334,331.37,505.92,333.7464C499.94666666666666,336.1228,493.97333333333336,342.07264,488,342.31392C482.02666666666664,342.5552,476.05333333333334,342.43456,470.08,342.67584C464.1066666666667,342.91712,458.1333333333333,346.7412,452.16,348.96576C446.18666666666667,351.19032,440.21333333333337,353.45856,434.24,356.0232C428.26666666666665,358.58783999999997,422.29333333333335,361.50504,416.32,364.35360000000003C410.3466666666667,367.20216000000005,404.37333333333333,370.04032,398.40000000000003,373.11456C392.4266666666667,376.18879999999996,386.4533333333334,379.90576,380.48,382.79904C374.50666666666666,385.69232,368.53333333333336,387.6184,362.56,390.47424C356.5866666666667,393.33008,350.61333333333334,396.68095999999997,344.64000000000004,399.93408C338.6666666666667,403.1872,332.6933333333334,406.87088000000006,326.72,409.99296000000004C320.74666666666667,413.11504,314.77333333333337,415.81384,308.8,418.66656C302.82666666666665,421.51928,296.85333333333335,424.27840000000003,290.88,427.10928C284.9066666666667,429.94016,278.93333333333334,432.7908,272.96000000000004,435.65184C266.9866666666667,438.51288,261.0133333333333,441.69736,255.04,444.27552000000003C249.06666666666666,446.85368000000005,243.09333333333333,449.03144000000003,237.12,451.12080000000003C231.14666666666668,453.21016000000003,225.17333333333335,455.04992000000004,219.20000000000002,456.81168C213.2266666666667,458.57344,207.25333333333333,460.10744000000005,201.28,461.69136000000003C195.30666666666667,463.27528,189.33333333333334,464.68344,183.36,466.3152C177.38666666666668,467.94696,171.41333333333333,469.86368,165.44,471.48192C159.46666666666667,473.10016,153.4933333333333,474.52288000000004,147.51999999999998,476.02464000000003C141.54666666666665,477.5264,135.57333333333335,479.12696,129.60000000000002,480.49248C123.62666666666668,481.858,117.65333333333335,483.00304,111.68,484.21776C105.70666666666666,485.43248,99.73333333333333,486.45272,93.75999999999999,487.7808C87.78666666666666,489.10888,81.81333333333333,490.78328,75.84,492.18624C69.86666666666667,493.5892,63.89333333333334,494.89388,57.92,496.19856000000004Z"/></g></g><g id="lines"><g class="series"><clipPath id="clip-0-0"><rect width="936" y="-20" height="599.6"/></clipPath><path class="line" opacity="1" fill="none" stroke="rgb(17, 165, 121)" stroke-width="2" transform="translate(15,20)" clip-path="url(#clip-0-0)" d="M57.92,514.332C63.89333333333334,512.8604,69.86666666666667,511.3888,75.84,509.2776C81.81333333333333,507.1664,87.78666666666666,503.6616,93.75999999999999,501.6648C99.73333333333333,499.668,105.70666666666666,498.7112,111.68,497.2968C117.65333333333335,495.8824,123.62666666666668,495.21160000000003,129.60000000000002,493.1784C135.57333333333335,491.14520000000005,141.54666666666665,487.51144000000005,147.51999999999998,485.09760000000006C153.4933333333333,482.68376000000006,159.46666666666667,480.88560000000007,165.44,478.69536000000005C171.41333333333333,476.50512000000003,177.38666666666668,473.62016,183.36,471.95616C189.33333333333334,470.29216,195.30666666666667,470.00096,201.28,468.71136C207.25333333333333,467.42176,213.2266666666667,465.95120000000003,219.20000000000002,464.21856C225.17333333333335,462.48592,231.14666666666668,460.1376,237.12,458.31552C243.09333333333333,456.49343999999996,249.06666666666666,455.40768,255.04,453.28608C261.0133333333333,451.16448,266.9866666666667,448.0736,272.96000000000004,445.58592C278.93333333333334,443.09824,284.9066666666667,441.06192,290.88,438.36C296.85333333333335,435.65808000000004,302.82666666666665,432.39040000000006,308.8,429.37440000000004C314.77333333333337,426.3584,320.74666666666667,423.21344,326.72,420.264C332.6933333333334,417.31456000000003,338.6666666666667,414.81440000000003,344.64000000000004,411.67776000000003C350.61333333333334,408.54112000000003,356.5866666666667,404.40192,362.56,401.44416C368.53333333333336,398.4864,374.50666666666666,396.70384,380.48,393.9312C386.4533333333334,391.15855999999997,392.4266666666667,387.85551999999996,398.40000000000003,384.80832C404.37333333333333,381.76112,410.3466666666667,378.65152,416.32,375.648C422.29333333333335,372.64448000000004,428.26666666666665,369.37055999999995,434.24,366.7872C440.21333333333337,364.20384,446.18666666666667,362.24032000000005,452.16,360.14784000000003C458.1333333333333,358.05536000000006,464.1066666666667,356.22288000000003,470.08,354.23232C476.05333333333334,352.24176,482.02666666666664,350.24288,488,348.20448C493.97333333333336,346.16607999999997,499.94666666666666,343.91968,505.92,342.00192000000004C511.8933333333334,340.08416000000005,517.8666666666667,339.08368,523.84,336.69792C529.8133333333334,334.31216,535.7866666666666,328.48271040000003,541.76,327.68736C547.7333333333333,326.8920096,553.7066666666666,327.28968480000003,559.68,326.4943344C565.6533333333333,325.698984,571.6266666666667,319.4639656,577.6,315.8278032C583.5733333333334,312.1916408,589.5466666666666,308.4784976,595.52,304.67736C601.4933333333333,300.8762224,607.4666666666667,296.994568,613.44,293.0209776C619.4133333333334,289.0473872,625.3866666666667,284.9896816,631.36,280.8358176C637.3333333333334,276.6819536,643.3066666666667,272.44011600000005,649.2800000000001,268.0977936C655.2533333333333,263.7554712,661.2266666666667,259.32120239999995,667.1999999999999,254.78188319999998C673.1733333333333,250.24256399999996,679.1466666666666,245.60714880000003,685.12,240.86187840000002C691.0933333333334,236.11660800000004,697.0666666666666,231.27082160000003,703.04,226.31026080000004C709.0133333333333,221.3497,714.9866666666667,216.2841304,720.96,211.0985136C726.9333333333334,205.9128968,732.9066666666666,200.61744559999997,738.88,195.19655999999998C744.8533333333334,189.77567439999996,750.8266666666667,184.24002480000001,756.8000000000001,178.57319999999999C762.7733333333333,172.9063752,768.7466666666667,167.11953439999994,774.7199999999999,161.19561119999997C780.6933333333333,155.27168799999993,786.6666666666666,149.22234079999998,792.64,143.0296608C798.6133333333333,136.83698080000002,804.5866666666666,130.51317760000003,810.56,124.03953120000006C816.5333333333333,117.56588480000003,822.5066666666667,110.95513520000004,828.48,104.1877824C834.4533333333334,97.4204296,840.4266666666666,90.50978559999993,846.4,83.43541439999996C852.3733333333333,76.36104319999993,858.3466666666667,69.1368808,864.32,61.74155519999999C870.2933333333334,54.34622960000003,876.2666666666667,46.70484520000003,882.24,39.06346080000003"/><text class="label" font-size="11" alignment-baseline="middle" opacity="1" x="5" fill="rgb(17, 165, 121)" transform="translate(897.239990234375, 59.06346130371094)"/></g><g class="series"><clipPath id="clip-0-1"><rect width="936" y="-20" height="599.6"/></clipPath><path class="line" opacity="1" fill="none" stroke="rgb(128, 35, 146)" stroke-width="2" transform="translate(15,20)" clip-path="url(#clip-0-1)" d="M57.92,496.19856000000004C63.89333333333334,494.89388,69.86666666666667,493.5892,75.84,492.18624C81.81333333333333,490.78328,87.78666666666666,489.10888,93.75999999999999,487.7808C99.73333333333333,486.45272,105.70666666666666,485.43248,111.68,484.21776C117.65333333333335,483.00304,123.62666666666668,481.858,129.60000000000002,480.49248C135.57333333333335,479.12696,141.54666666666665,477.5264,147.51999999999998,476.02464000000003C153.4933333333333,474.52288000000004,159.46666666666667,473.10016,165.44,471.48192C171.41333333333333,469.86368,177.38666666666668,467.94696,183.36,466.3152C189.33333333333334,464.68344,195.30666666666667,463.27528,201.28,461.69136000000003C207.25333333333333,460.10744000000005,213.2266666666667,458.57344,219.20000000000002,456.81168C225.17333333333335,455.04992000000004,231.14666666666668,453.21016000000003,237.12,451.12080000000003C243.09333333333333,449.03144000000003,249.06666666666666,446.85368000000005,255.04,444.27552000000003C261.0133333333333,441.69736,266.9866666666667,438.51288,272.96000000000004,435.65184C278.93333333333334,432.7908,284.9066666666667,429.94016,290.88,427.10928C296.85333333333335,424.27840000000003,302.82666666666665,421.51928,308.8,418.66656C314.77333333333337,415.81384,320.74666666666667,413.11504,326.72,409.99296000000004C332.6933333333334,406.87088000000006,338.6666666666667,403.1872,344.64000000000004,399.93408C350.61333333333334,396.68095999999997,356.5866666666667,393.33008,362.56,390.47424C368.53333333333336,387.6184,374.50666666666666,385.69232,380.48,382.79904C386.4533333333334,379.90576,392.4266666666667,376.18879999999996,398.40000000000003,373.11456C404.37333333333333,370.04032,410.3466666666667,367.20216000000005,416.32,364.35360000000003C422.29333333333335,361.50504,428.26666666666665,358.58783999999997,434.24,356.0232C440.21333333333337,353.45856,446.18666666666667,351.19032,452.16,348.96576C458.1333333333333,346.7412,464.1066666666667,342.91712,470.08,342.67584C476.05333333333334,342.43456,482.02666666666664,342.5552,488,342.31392C493.97333333333336,342.07264,499.94666666666666,336.1228,505.92,333.7464C511.8933333333334,331.37,517.8666666666667,329.53232,523.84,328.05552C529.8133333333334,326.57872000000003,535.7866666666666,326.5167984,541.76,324.8856C547.7333333333333,323.2544016,553.7066666666666,321.0707552,559.68,318.2683296C565.6533333333333,315.465904,571.6266666666667,311.5413704,577.6,308.0710464C583.5733333333334,304.6007224,589.5466666666666,301.06215360000004,595.52,297.44638560000004C601.4933333333333,293.83061760000004,607.4666666666667,290.1437240000001,613.44,286.37643840000004C619.4133333333334,282.60915280000006,625.3866666666667,278.76782959999997,631.36,274.842672C637.3333333333334,270.91751439999996,643.3066666666667,266.91515760000004,649.2800000000001,262.8254928C655.2533333333333,258.735828,661.2266666666667,254.56572959999997,667.1999999999999,250.3046832C673.1733333333333,246.04363679999997,679.1466666666666,241.69881840000002,685.12,237.25921440000002C691.0933333333334,232.81961040000004,697.0666666666666,228.29271920000002,703.04,223.66705920000004C709.0133333333333,219.04139920000003,714.9866666666667,214.32476000000003,720.96,209.5052544C726.9333333333334,204.68574880000003,732.9066666666666,199.7714992,738.88,194.75002560000001C744.8533333333334,189.728552,750.8266666666667,184.60833040000006,756.8000000000001,179.37641280000003C762.7733333333333,174.14449520000005,768.7466666666667,168.80969039999997,774.7199999999999,163.35852C780.6933333333333,157.90734959999997,786.6666666666666,152.34900720000007,792.64,146.66939040000005C798.6133333333333,140.98977360000006,804.5866666666666,135.19845039999998,810.56,129.2808192C816.5333333333333,123.36318799999997,822.5066666666667,117.32922239999996,828.48,111.16360319999995C834.4533333333334,104.99798399999999,840.4266666666666,98.71111120000002,846.4,92.28710400000006C852.3733333333333,85.86309680000005,858.3466666666667,79.31277120000006,864.32,72.61956000000004C870.2933333333334,65.92634880000006,876.2666666666667,59.02709280000006,882.24,52.12783680000007"/><text class="label" font-size="11" alignment-baseline="middle" opacity="1" x="5" fill="rgb(128, 35, 146)" transform="translate(897.239990234375, 72.12783813476562)"/></g></g><g id="data-points"><g class="series" transform="translate(15,20)"><path class="data-point" fill="rgb(17, 165, 121)" data-type="point" transform="translate(0, 0)" d="M54.92,514.332A3,3,0,1,1,60.92,514.332A3,3,0,1,1,54.92,514.332Z" id="point-0-0" opacity="1"/><path class="data-point" fill="rgb(17, 165, 121)" data-type="point" transform="translate(0, 0)" d="M72.84,509.2776A3,3,0,1,1,78.84,509.2776A3,3,0,1,1,72.84,509.2776Z" id="point-0-1" opacity="1"/><path class="data-point" fill="rgb(17, 165, 121)" data-type="point" transform="translate(0, 0)" d="M90.75999999999999,501.6648A3,3,0,1,1,96.75999999999999,501.6648A3,3,0,1,1,90.75999999999999,501.6648Z" id="point-0-2" opacity="1"/><path class="data-point" fill="rgb(17, 165, 121)" data-type="point" transform="translate(0, 0)" d="M108.68,497.2968A3,3,0,1,1,114.68,497.2968A3,3,0,1,1,108.68,497.2968Z" id="point-0-3" opacity="1"/><path class="data-point" fill="rgb(17, 165, 121)" data-type="point" transform="translate(0, 0)" d="M126.60000000000002,493.1784A3,3,0,1,1,132.60000000000002,493.1784A3,3,0,1,1,126.60000000000002,493.1784Z" id="point-0-4" opacity="1"/><path class="data-point" fill="rgb(17, 165, 121)" data-type="point" transform="translate(0, 0)" d="M144.51999999999998,485.09760000000006A3,3,0,1,1,150.51999999999998,485.09760000000006A3,3,0,1,1,144.51999999999998,485.09760000000006Z" id="point-0-5" opacity="1"/><path class="data-point" fill="rgb(17, 165, 121)" data-type="point" transform="translate(0, 0)" d="M162.44,478.69536000000005A3,3,0,1,1,168.44,478.69536000000005A3,3,0,1,1,162.44,478.69536000000005Z" id="point-0-6" opacity="1"/><path class="data-point" fill="rgb(17, 165, 121)" data-type="point" transform="translate(0, 0)" d="M180.36,471.95616A3,3,0,1,1,186.36,471.95616A3,3,0,1,1,180.36,471.95616Z" id="point-0-7" opacity="1"/><path class="data-point" fill="rgb(17, 165, 121)" data-type="point" transform="translate(0, 0)" d="M198.28,468.71136A3,3,0,1,1,204.28,468.71136A3,3,0,1,1,198.28,468.71136Z" id="point-0-8" opacity="1"/><path class="data-point" fill="rgb(17, 165, 121)" data-type="point" transform="translate(0, 0)" d="M216.20000000000002,464.21856A3,3,0,1,1,222.20000000000002,464.21856A3,3,0,1,1,216.20000000000002,464.21856Z" id="point-0-9" opacity="1"/><path class="data-point" fill="rgb(17, 165, 121)" data-type="point" transform="translate(0, 0)" d="M234.12,458.31552A3,3,0,1,1,240.12,458.31552A3,3,0,1,1,234.12,458.31552Z" id="point-0-10" opacity="1"/><path class="data-point" fill="rgb(17, 165, 121)" data-type="point" transform="translate(0, 0)" d="M252.04,453.28608A3,3,0,1,1,258.03999999999996,453.28608A3,3,0,1,1,252.04,453.28608Z" id="point-0-11" opacity="1"/><path class="data-point" fill="rgb(17, 165, 121)" data-type="point" transform="translate(0, 0)" d="M269.96000000000004,445.58592A3,3,0,1,1,275.96000000000004,445.58592A3,3,0,1,1,269.96000000000004,445.58592Z" id="point-0-12" opacity="1"/><path class="data-point" fill="rgb(17, 165, 121)" data-type="point" transform="translate(0, 0)" d="M287.88,438.36A3,3,0,1,1,293.88,438.36A3,3,0,1,1,287.88,438.36Z" id="point-0-13" opacity="1"/><path class="data-point" fill="rgb(17, 165, 121)" data-type="point" transform="translate(0, 0)" d="M305.8,429.37440000000004A3,3,0,1,1,311.8,429.37440000000004A3,3,0,1,1,305.8,429.37440000000004Z" id="point-0-14" opacity="1"/><path class="data-point" fill="rgb(17, 165, 121)" data-type="point" transform="translate(0, 0)" d="M323.72,420.264A3,3,0,1,1,329.72,420.264A3,3,0,1,1,323.72,420.264Z" id="point-0-15" opacity="1"/><path class="data-point" fill="rgb(17, 165, 121)" data-type="point" transform="translate(0, 0)" d="M341.64000000000004,411.67776000000003A3,3,0,1,1,347.64000000000004,411.67776000000003A3,3,0,1,1,341.64000000000004,411.67776000000003Z" id="point-0-16" opacity="1"/><path class="data-point" fill="rgb(17, 165, 121)" data-type="point" transform="translate(0, 0)" d="M359.56,401.44416A3,3,0,1,1,365.56,401.44416A3,3,0,1,1,359.56,401.44416Z" id="point-0-17" opacity="1"/><path class="data-point" fill="rgb(17, 165, 121)" data-type="point" transform="translate(0, 0)" d="M377.48,393.9312A3,3,0,1,1,383.48,393.9312A3,3,0,1,1,377.48,393.9312Z" id="point-0-18" opacity="1"/><path class="data-point" fill="rgb(17, 165, 121)" data-type="point" transform="translate(0, 0)" d="M395.40000000000003,384.80832A3,3,0,1,1,401.40000000000003,384.80832A3,3,0,1,1,395.40000000000003,384.80832Z" id="point-0-19" opacity="1"/><path class="data-point" fill="rgb(17, 165, 121)" data-type="point" transform="translate(0, 0)" d="M413.32,375.648A3,3,0,1,1,419.32,375.648A3,3,0,1,1,413.32,375.648Z" id="point-0-20" opacity="1"/><path class="data-point" fill="rgb(17, 165, 121)" data-type="point" transform="translate(0, 0)" d="M431.24,366.7872A3,3,0,1,1,437.24,366.7872A3,3,0,1,1,431.24,366.7872Z" id="point-0-21" opacity="1"/><path class="data-point" fill="rgb(17, 165, 121)" data-type="point" transform="translate(0, 0)" d="M449.16,360.14784000000003A3,3,0,1,1,455.16,360.14784000000003A3,3,0,1,1,449.16,360.14784000000003Z" id="point-0-22" opacity="1"/><path class="data-point" fill="rgb(17, 165, 121)" data-type="point" transform="translate(0, 0)" d="M467.08,354.23232A3,3,0,1,1,473.08,354.23232A3,3,0,1,1,467.08,354.23232Z" id="point-0-23" opacity="1"/><path class="data-point" fill="rgb(17, 165, 121)" data-type="point" transform="translate(0, 0)" d="M485,348.20448A3,3,0,1,1,491,348.20448A3,3,0,1,1,485,348.20448Z" id="point-0-24" opacity="1"/><path class="data-point" fill="rgb(17, 165, 121)" data-type="point" transform="translate(0, 0)" d="M502.92,342.00192000000004A3,3,0,1,1,508.92,342.00192000000004A3,3,0,1,1,502.92,342.00192000000004Z" id="point-0-25" opacity="1"/><path class="data-point" fill="rgb(17, 165, 121)" data-type="point" transform="translate(0, 0)" d="M520.84,336.69792A3,3,0,1,1,526.84,336.69792A3,3,0,1,1,520.84,336.69792Z" id="point-0-26" opacity="1"/><path class="data-point" fill="rgb(17, 165, 121)" data-type="point" transform="translate(0, 0)" d="M538.76,327.68736A3,3,0,1,1,544.76,327.68736A3,3,0,1,1,538.76,327.68736Z" id="point-0-27" opacity="1"/><path class="data-point" fill="rgb(17, 165, 121)" data-type="point" transform="translate(0, 0)" d="M556.68,326.4943344A3,3,0,1,1,562.68,326.4943344A3,3,0,1,1,556.68,326.4943344Z" id="point-0-28" opacity="1"/><path class="data-point" fill="rgb(17, 165, 121)" data-type="point" transform="translate(0, 0)" d="M574.6,315.8278032A3,3,0,1,1,580.6,315.8278032A3,3,0,1,1,574.6,315.8278032Z" id="point-0-29" opacity="1"/><path class="data-point" fill="rgb(17, 165, 121)" data-type="point" transform="translate(0, 0)" d="M592.52,304.67736A3,3,0,1,1,598.52,304.67736A3,3,0,1,1,592.52,304.67736Z" id="point-0-30" opacity="1"/><path class="data-point" fill="rgb(17, 165, 121)" data-type="point" transform="translate(0, 0)" d="M610.44,293.0209776A3,3,0,1,1,616.44,293.0209776A3,3,0,1,1,610.44,293.0209776Z" id="point-0-31" opacity="1"/><path class="data-point" fill="rgb(17, 165, 121)" data-type="point" transform="translate(0, 0)" d="M628.36,280.8358176A3,3,0,1,1,634.36,280.8358176A3,3,0,1,1,628.36,280.8358176Z" id="point-0-32" opacity="1"/><path class="data-point" fill="rgb(17, 165, 121)" data-type="point" transform="translate(0, 0)" d="M646.2800000000001,268.0977936A3,3,0,1,1,652.2800000000001,268.0977936A3,3,0,1,1,646.2800000000001,268.0977936Z" id="point-0-33" opacity="1"/><path class="data-point" fill="rgb(17, 165, 121)" data-type="point" transform="translate(0, 0)" d="M664.1999999999999,254.78188319999998A3,3,0,1,1,670.1999999999999,254.78188319999998A3,3,0,1,1,664.1999999999999,254.78188319999998Z" id="point-0-34" opacity="1"/><path class="data-point" fill="rgb(17, 165, 121)" data-type="point" transform="translate(0, 0)" d="M682.12,240.86187840000002A3,3,0,1,1,688.12,240.86187840000002A3,3,0,1,1,682.12,240.86187840000002Z" id="point-0-35" opacity="1"/><path class="data-point" fill="rgb(17, 165, 121)" data-type="point" transform="translate(0, 0)" d="M700.04,226.31026080000004A3,3,0,1,1,706.04,226.31026080000004A3,3,0,1,1,700.04,226.31026080000004Z" id="point-0-36" opacity="1"/><path class="data-point" fill="rgb(17, 165, 121)" data-type="point" transform="translate(0, 0)" d="M717.96,211.0985136A3,3,0,1,1,723.96,211.0985136A3,3,0,1,1,717.96,211.0985136Z" id="point-0-37" opacity="1"/><path class="data-point" fill="rgb(17, 165, 121)" data-type="point" transform="translate(0, 0)" d="M735.88,195.19655999999998A3,3,0,1,1,741.88,195.19655999999998A3,3,0,1,1,735.88,195.19655999999998Z" id="point-0-38" opacity="1"/><path class="data-point" fill="rgb(17, 165, 121)" data-type="point" transform="translate(0, 0)" d="M753.8000000000001,178.57319999999999A3,3,0,1,1,759.8000000000001,178.57319999999999A3,3,0,1,1,753.8000000000001,178.57319999999999Z" id="point-0-39" opacity="1"/><path class="data-point" fill="rgb(17, 165, 121)" data-type="point" transform="translate(0, 0)" d="M771.7199999999999,161.19561119999997A3,3,0,1,1,777.7199999999999,161.19561119999997A3,3,0,1,1,771.7199999999999,161.19561119999997Z" id="point-0-40" opacity="1"/><path class="data-point" fill="rgb(17, 165, 121)" data-type="point" transform="translate(0, 0)" d="M789.64,143.0296608A3,3,0,1,1,795.64,143.0296608A3,3,0,1,1,789.64,143.0296608Z" id="point-0-41" opacity="1"/><path class="data-point" fill="rgb(17, 165, 121)" data-type="point" transform="translate(0, 0)" d="M807.56,124.03953120000006A3,3,0,1,1,813.56,124.03953120000006A3,3,0,1,1,807.56,124.03953120000006Z" id="point-0-42" opacity="1"/><path class="data-point" fill="rgb(17, 165, 121)" data-type="point" transform="translate(0, 0)" d="M825.48,104.1877824A3,3,0,1,1,831.48,104.1877824A3,3,0,1,1,825.48,104.1877824Z" id="point-0-43" opacity="1"/><path class="data-point" fill="rgb(17, 165, 121)" data-type="point" transform="translate(0, 0)" d="M843.4,83.43541439999996A3,3,0,1,1,849.4,83.43541439999996A3,3,0,1,1,843.4,83.43541439999996Z" id="point-0-44" opacity="1"/><path class="data-point" fill="rgb(17, 165, 121)" data-type="point" transform="translate(0, 0)" d="M861.32,61.74155519999999A3,3,0,1,1,867.32,61.74155519999999A3,3,0,1,1,861.32,61.74155519999999Z" id="point-0-45" opacity="1"/><path class="data-point" fill="rgb(17, 165, 121)" data-type="point" transform="translate(0, 0)" d="M879.24,39.06346080000003A3,3,0,1,1,885.24,39.06346080000003A3,3,0,1,1,879.24,39.06346080000003Z" id="point-0-46" opacity="1"/></g><g class="series" transform="translate(15,20)"><path class="data-point" fill="rgb(128, 35, 146)" data-type="point" transform="translate(0, 0)" d="M54.92,496.19856000000004A3,3,0,1,1,60.92,496.19856000000004A3,3,0,1,1,54.92,496.19856000000004Z" id="point-1-0" opacity="1"/><path class="data-point" fill="rgb(128, 35, 146)" data-type="point" transform="translate(0, 0)" d="M72.84,492.18624A3,3,0,1,1,78.84,492.18624A3,3,0,1,1,72.84,492.18624Z" id="point-1-1" opacity="1"/><path class="data-point" fill="rgb(128, 35, 146)" data-type="point" transform="translate(0, 0)" d="M90.75999999999999,487.7808A3,3,0,1,1,96.75999999999999,487.7808A3,3,0,1,1,90.75999999999999,487.7808Z" id="point-1-2" opacity="1"/><path class="data-point" fill="rgb(128, 35, 146)" data-type="point" transform="translate(0, 0)" d="M108.68,484.21776A3,3,0,1,1,114.68,484.21776A3,3,0,1,1,108.68,484.21776Z" id="point-1-3" opacity="1"/><path class="data-point" fill="rgb(128, 35, 146)" data-type="point" transform="translate(0, 0)" d="M126.60000000000002,480.49248A3,3,0,1,1,132.60000000000002,480.49248A3,3,0,1,1,126.60000000000002,480.49248Z" id="point-1-4" opacity="1"/><path class="data-point" fill="rgb(128, 35, 146)" data-type="point" transform="translate(0, 0)" d="M144.51999999999998,476.02464000000003A3,3,0,1,1,150.51999999999998,476.02464000000003A3,3,0,1,1,144.51999999999998,476.02464000000003Z" id="point-1-5" opacity="1"/><path class="data-point" fill="rgb(128, 35, 146)" data-type="point" transform="translate(0, 0)" d="M162.44,471.48192A3,3,0,1,1,168.44,471.48192A3,3,0,1,1,162.44,471.48192Z" id="point-1-6" opacity="1"/><path class="data-point" fill="rgb(128, 35, 146)" data-type="point" transform="translate(0, 0)" d="M180.36,466.3152A3,3,0,1,1,186.36,466.3152A3,3,0,1,1,180.36,466.3152Z" id="point-1-7" opacity="1"/><path class="data-point" fill="rgb(128, 35, 146)" data-type="point" transform="translate(0, 0)" d="M198.28,461.69136000000003A3,3,0,1,1,204.28,461.69136000000003A3,3,0,1,1,198.28,461.69136000000003Z" id="point-1-8" opacity="1"/><path class="data-point" fill="rgb(128, 35, 146)" data-type="point" transform="translate(0, 0)" d="M216.20000000000002,456.81168A3,3,0,1,1,222.20000000000002,456.81168A3,3,0,1,1,216.20000000000002,456.81168Z" id="point-1-9" opacity="1"/><path class="data-point" fill="rgb(128, 35, 146)" data-type="point" transform="translate(0, 0)" d="M234.12,451.12080000000003A3,3,0,1,1,240.12,451.12080000000003A3,3,0,1,1,234.12,451.12080000000003Z" id="point-1-10" opacity="1"/><path class="data-point" fill="rgb(128, 35, 146)" data-type="point" transform="translate(0, 0)" d="M252.04,444.27552000000003A3,3,0,1,1,258.03999999999996,444.27552000000003A3,3,0,1,1,252.04,444.27552000000003Z" id="point-1-11" opacity="1"/><path class="data-point" fill="rgb(128, 35, 146)" data-type="point" transform="translate(0, 0)" d="M269.96000000000004,435.65184A3,3,0,1,1,275.96000000000004,435.65184A3,3,0,1,1,269.96000000000004,435.65184Z" id="point-1-12" opacity="1"/><path class="data-point" fill="rgb(128, 35, 146)" data-type="point" transform="translate(0, 0)" d="M287.88,427.10928A3,3,0,1,1,293.88,427.10928A3,3,0,1,1,287.88,427.10928Z" id="point-1-13" opacity="1"/><path class="data-point" fill="rgb(128, 35, 146)" data-type="point" transform="translate(0, 0)" d="M305.8,418.66656A3,3,0,1,1,311.8,418.66656A3,3,0,1,1,305.8,418.66656Z" id="point-1-14" opacity="1"/><path class="data-point" fill="rgb(128, 35, 146)" data-type="point" transform="translate(0, 0)" d="M323.72,409.99296000000004A3,3,0,1,1,329.72,409.99296000000004A3,3,0,1,1,323.72,409.99296000000004Z" id="point-1-15" opacity="1"/><path class="data-point" fill="rgb(128, 35, 146)" data-type="point" transform="translate(0, 0)" d="M341.64000000000004,399.93408A3,3,0,1,1,347.64000000000004,399.93408A3,3,0,1,1,341.64000000000004,399.93408Z" id="point-1-16" opacity="1"/><path class="data-point" fill="rgb(128, 35, 146)" data-type="point" transform="translate(0, 0)" d="M359.56,390.47424A3,3,0,1,1,365.56,390.47424A3,3,0,1,1,359.56,390.47424Z" id="point-1-17" opacity="1"/><path class="data-point" fill="rgb(128, 35, 146)" data-type="point" transform="translate(0, 0)" d="M377.48,382.79904A3,3,0,1,1,383.48,382.79904A3,3,0,1,1,377.48,382.79904Z" id="point-1-18" opacity="1"/><path class="data-point" fill="rgb(128, 35, 146)" data-type="point" transform="translate(0, 0)" d="M395.40000000000003,373.11456A3,3,0,1,1,401.40000000000003,373.11456A3,3,0,1,1,395.40000000000003,373.11456Z" id="point-1-19" opacity="1"/><path class="data-point" fill="rgb(128, 35, 146)" data-type="point" transform="translate(0, 0)" d="M413.32,364.35360000000003A3,3,0,1,1,419.32,364.35360000000003A3,3,0,1,1,413.32,364.35360000000003Z" id="point-1-20" opacity="1"/><path class="data-point" fill="rgb(128, 35, 146)" data-type="point" transform="translate(0, 0)" d="M431.24,356.0232A3,3,0,1,1,437.24,356.0232A3,3,0,1,1,431.24,356.0232Z" id="point-1-21" opacity="1"/><path class="data-point" fill="rgb(128, 35, 146)" data-type="point" transform="translate(0, 0)" d="M449.16,348.96576A3,3,0,1,1,455.16,348.96576A3,3,0,1,1,449.16,348.96576Z" id="point-1-22" opacity="1"/><path class="data-point" fill="rgb(128, 35, 146)" data-type="point" transform="translate(0, 0)" d="M467.08,342.67584A3,3,0,1,1,473.08,342.67584A3,3,0,1,1,467.08,342.67584Z" id="point-1-23" opacity="1"/><path class="data-point" fill="rgb(128, 35, 146)" data-type="point" transform="translate(0, 0)" d="M485,342.31392A3,3,0,1,1,491,342.31392A3,3,0,1,1,485,342.31392Z" id="point-1-24" opacity="1"/><path class="data-point" fill="rgb(128, 35, 146)" data-type="point" transform="translate(0, 0)" d="M502.92,333.7464A3,3,0,1,1,508.92,333.7464A3,3,0,1,1,502.92,333.7464Z" id="point-1-25" opacity="1"/><path class="data-point" fill="rgb(128, 35, 146)" data-type="point" transform="translate(0, 0)" d="M520.84,328.05552A3,3,0,1,1,526.84,328.05552A3,3,0,1,1,520.84,328.05552Z" id="point-1-26" opacity="1"/><path class="data-point" fill="rgb(128, 35, 146)" data-type="point" transform="translate(0, 0)" d="M538.76,324.8856A3,3,0,1,1,544.76,324.8856A3,3,0,1,1,538.76,324.8856Z" id="point-1-27" opacity="1"/><path class="data-point" fill="rgb(128, 35, 146)" data-type="point" transform="translate(0, 0)" d="M556.68,318.2683296A3,3,0,1,1,562.68,318.2683296A3,3,0,1,1,556.68,318.2683296Z" id="point-1-28" opacity="1"/><path class="data-point" fill="rgb(128, 35, 146)" data-type="point" transform="translate(0, 0)" d="M574.6,308.0710464A3,3,0,1,1,580.6,308.0710464A3,3,0,1,1,574.6,308.0710464Z" id="point-1-29" opacity="1"/><path class="data-point" fill="rgb(128, 35, 146)" data-type="point" transform="translate(0, 0)" d="M592.52,297.44638560000004A3,3,0,1,1,598.52,297.44638560000004A3,3,0,1,1,592.52,297.44638560000004Z" id="point-1-30" opacity="1"/><path class="data-point" fill="rgb(128, 35, 146)" data-type="point" transform="translate(0, 0)" d="M610.44,286.37643840000004A3,3,0,1,1,616.44,286.37643840000004A3,3,0,1,1,610.44,286.37643840000004Z" id="point-1-31" opacity="1"/><path class="data-point" fill="rgb(128, 35, 146)" data-type="point" transform="translate(0, 0)" d="M628.36,274.842672A3,3,0,1,1,634.36,274.842672A3,3,0,1,1,628.36,274.842672Z" id="point-1-32" opacity="1"/><path class="data-point" fill="rgb(128, 35, 146)" data-type="point" transform="translate(0, 0)" d="M646.2800000000001,262.8254928A3,3,0,1,1,652.2800000000001,262.8254928A3,3,0,1,1,646.2800000000001,262.8254928Z" id="point-1-33" opacity="1"/><path class="data-point" fill="rgb(128, 35, 146)" data-type="point" transform="translate(0, 0)" d="M664.1999999999999,250.3046832A3,3,0,1,1,670.1999999999999,250.3046832A3,3,0,1,1,664.1999999999999,250.3046832Z" id="point-1-34" opacity="1"/><path class="data-point" fill="rgb(128, 35, 146)" data-type="point" transform="translate(0, 0)" d="M682.12,237.25921440000002A3,3,0,1,1,688.12,237.25921440000002A3,3,0,1,1,682.12,237.25921440000002Z" id="point-1-35" opacity="1"/><path class="data-point" fill="rgb(128, 35, 146)" data-type="point" transform="translate(0, 0)" d="M700.04,223.66705920000004A3,3,0,1,1,706.04,223.66705920000004A3,3,0,1,1,700.04,223.66705920000004Z" id="point-1-36" opacity="1"/><path class="data-point" fill="rgb(128, 35, 146)" data-type="point" transform="translate(0, 0)" d="M717.96,209.5052544A3,3,0,1,1,723.96,209.5052544A3,3,0,1,1,717.96,209.5052544Z" id="point-1-37" opacity="1"/><path class="data-point" fill="rgb(128, 35, 146)" data-type="point" transform="translate(0, 0)" d="M735.88,194.75002560000001A3,3,0,1,1,741.88,194.75002560000001A3,3,0,1,1,735.88,194.75002560000001Z" id="point-1-38" opacity="1"/><path class="data-point" fill="rgb(128, 35, 146)" data-type="point" transform="translate(0, 0)" d="M753.8000000000001,179.37641280000003A3,3,0,1,1,759.8000000000001,179.37641280000003A3,3,0,1,1,753.8000000000001,179.37641280000003Z" id="point-1-39" opacity="1"/><path class="data-point" fill="rgb(128, 35, 146)" data-type="point" transform="translate(0, 0)" d="M771.7199999999999,163.35852A3,3,0,1,1,777.7199999999999,163.35852A3,3,0,1,1,771.7199999999999,163.35852Z" id="point-1-40" opacity="1"/><path class="data-point" fill="rgb(128, 35, 146)" data-type="point" transform="translate(0, 0)" d="M789.64,146.66939040000005A3,3,0,1,1,795.64,146.66939040000005A3,3,0,1,1,789.64,146.66939040000005Z" id="point-1-41" opacity="1"/><path class="data-point" fill="rgb(128, 35, 146)" data-type="point" transform="translate(0, 0)" d="M807.56,129.2808192A3,3,0,1,1,813.56,129.2808192A3,3,0,1,1,807.56,129.2808192Z" id="point-1-42" opacity="1"/><path class="data-point" fill="rgb(128, 35, 146)" data-type="point" transform="translate(0, 0)" d="M825.48,111.16360319999995A3,3,0,1,1,831.48,111.16360319999995A3,3,0,1,1,825.48,111.16360319999995Z" id="point-1-43" opacity="1"/><path class="data-point" fill="rgb(128, 35, 146)" data-type="point" transform="translate(0, 0)" d="M843.4,92.28710400000006A3,3,0,1,1,849.4,92.28710400000006A3,3,0,1,1,843.4,92.28710400000006Z" id="point-1-44" opacity="1"/><path class="data-point" fill="rgb(128, 35, 146)" data-type="point" transform="translate(0, 0)" d="M861.32,72.61956000000004A3,3,0,1,1,867.32,72.61956000000004A3,3,0,1,1,861.32,72.61956000000004Z" id="point-1-45" opacity="1"/><path class="data-point" fill="rgb(128, 35, 146)" data-type="point" transform="translate(0, 0)" d="M879.24,52.12783680000007A3,3,0,1,1,885.24,52.12783680000007A3,3,0,1,1,879.24,52.12783680000007Z" id="point-1-46" opacity="1"/></g></g><g id="data-labels"/><g class="annotations above"><g class="axis-highlights" transform="translate(15, 20)" style="opacity: 1;"/></g></svg>