<svg xmlns="http://www.w3.org/2000/svg" id="graphic" width="961" height="634.6"><g id="facets"><g class="facet" transform="translate(15,20)" opacity="1"><text class="facet-title" y="0" font-size="16" font-weight="bold" dominant-baseline="middle" x="0" clip-path="url(#facet-clip-0)" fill="black"/><g class="plot"><clipPath class="facet-clip" id="facet-clip-0"><rect width="951" height="581.6" transform="translate(-7.5,-10)"/></clipPath><g class="bg"><rect fill="none" width="936" height="561.6" style="fill: none;"/></g><g class="interaction"><g class="series"><path data-target="point-0-0" d="M0,519.8520599999999L67.048400366875,519.85206L66.426081315625,513.5481L0,384.1081816450269Z" style="opacity: 0;"/><path data-target="point-0-1" d="M0,384.1081816450269L66.426081315625,513.5481L84.51619769642858,513.5481L85.17400303571428,511.44912L23.482452141221984,48.271395838233616L16.088685806138255,0L0,0Z" style="opacity: 0;"/><path data-target="point-0-2" d="M23.482452141221984,48.271395838233616L85.17400303571428,511.44912L102.32082875999998,511.44912L103.17946272937499,508.54985999999997Z" style="opacity: 0;"/><path data-target="point-0-3" d="M16.088685806138255,0L23.482452141221984,48.271395838233616L103.17946272937499,508.54985999999997L120.19786241125,508.54985999999997L120.83602159107143,506.493L111.79191015402739,378.23209706249656L104.93675138629295,330.67989949119357L93.2632763402999,272.250573524992L44.78266749999975,72.64288341880268L16.09780891000002,0Z" style="opacity: 0;"/><path data-target="point-0-4" d="M111.79191015402739,378.23209706249656L120.83602159107143,506.493L138.2463654542857,506.493L138.8627444573214,502.51968Z" style="opacity: 0;"/><path data-target="point-0-5" d="M104.93675138629295,330.67989949119357L111.79191015402739,378.23209706249656L138.8627444573214,502.51968L156.23025397285713,502.51968L156.76822433946427,497.31786Z" style="opacity: 0;"/><path data-target="point-0-6" d="M93.2632763402999,272.250573524992L104.93675138629295,330.67989949119357L156.76822433946427,497.31786L174.06966731875,497.31786L174.83106599888393,491.42807999999997Z" style="opacity: 0;"/><path data-target="point-0-7" d="M44.78266749999975,72.64288341880268L93.2632763402999,272.250573524992L174.83106599888393,491.42807999999997L191.75746093397322,491.42807999999997L192.94372156263393,486.52812L121.26297199431424,237.23667704908982L93.84396965429477,171.51586301900142Z" style="opacity: 0;"/><path data-target="point-0-8" d="M121.26297199431424,237.23667704908982L192.94372156263393,486.52812L209.61273090857142,486.52812L210.78529642607143,481.90896L192.15187831589483,404.1873121092017L162.8740159489465,327.6117064602782Z" style="opacity: 0;"/><path data-target="point-0-9" d="M192.15187831589483,404.1873121092017L210.78529642607143,481.90896L227.80046758174106,481.90896L228.64273891830354,473.70257999999995Z" style="opacity: 0;"/><path data-target="point-0-10" d="M162.8740159489465,327.6117064602782L192.15187831589483,404.1873121092017L228.64273891830354,473.70257999999995L245.59135403374998,473.70257999999995L246.65569517281247,463.48848Z" style="opacity: 0;"/><path data-target="point-0-11" d="M93.84396965429477,171.51586301900142L121.26297199431424,237.23667704908982L162.8740159489465,327.6117064602782L246.65569517281247,463.48848L263.0673299296875,463.48848L265.06310362901786,453.49902L134.56516039878747,233.76092316719306Z" style="opacity: 0;"/><path data-target="point-0-12" d="M134.56516039878747,233.76092316719306L265.06310362901786,453.49902L280.686218985625,453.49902L283.56024531357144,442.28105999999997Z" style="opacity: 0;"/><path data-target="point-0-13" d="M16.09780891000002,0L44.78266749999975,72.64288341880268L93.84396965429477,171.51586301900142L134.56516039878747,233.76092316719306L283.56024531357144,442.28105999999997L297.7295008694643,442.28105999999997L302.32749419053573,432.69174L51.80187421986619,-5.684341886080802e-14Z" style="opacity: 0;"/><path data-target="point-0-14" d="M51.80187421986619,-5.684341886080802e-14L302.32749419053573,432.69174L315.26326573446426,432.69174L320.1601754817857,422.72334L169.32128155948718,146.10880485742865L75.79631807165183,0Z" style="opacity: 0;"/><path data-target="point-0-15" d="M169.32128155948718,146.10880485742865L320.1601754817857,422.72334L333.27774550133927,422.72334L338.54145322589284,412.98659999999995L251.48161085575606,265.6137683714537Z" style="opacity: 0;"/><path data-target="point-0-16" d="M251.48161085575606,265.6137683714537L338.54145322589284,412.98659999999995L350.7461203355804,412.98659999999995L357.30523157468747,400.54715999999996Z" style="opacity: 0;"/><path data-target="point-0-17" d="M75.79631807165183,0L169.32128155948718,146.10880485742865L251.48161085575606,265.6137683714537L357.30523157468747,400.54715999999996L368.7707201845982,400.54715999999996L374.4459687495536,394.9101L316.10882235666105,215.05790692833656L233.1255127005577,0Z" style="opacity: 0;"/><path data-target="point-0-18" d="M316.10882235666105,215.05790692833656L374.4459687495536,394.9101L386.366366051875,394.91009999999994L393.37507844031245,387.77076Z" style="opacity: 0;"/><path data-target="point-0-19" d="M233.1255127005577,0L316.10882235666105,215.05790692833656L393.37507844031245,387.77076L403.2936629942857,387.77076L411.3327042457143,379.33272L234.79565932678557,0Z" style="opacity: 0;"/><path data-target="point-0-20" d="M234.79565932678557,0L411.3327042457143,379.33272L422.1558426417857,379.33272L429.0769338190178,373.04981999999995L285.5684984872763,-5.684341886080802e-14Z" style="opacity: 0;"/><path data-target="point-0-21" d="M285.5684984872763,-5.684341886080802e-14L429.0769338190178,373.04981999999995L441.7324120878571,373.04981999999995L446.5764114057142,369.50472L344.67228826857195,0Z" style="opacity: 0;"/><path data-target="point-0-22" d="M344.67228826857195,0L446.5764114057142,369.50472L458.4944986892857,369.50472L464.0888360975,365.61564L421.9678799072961,182.7543459983016L369.2758857914287,0Z" style="opacity: 0;"/><path data-target="point-0-23" d="M421.9678799072961,182.7543459983016L464.0888360975,365.61564L475.9869032185714,365.61564L483.47904203089286,360.37872Z" style="opacity: 0;"/><path data-target="point-0-24" d="M369.2758857914287,0L421.9678799072961,182.7543459983016L483.47904203089286,360.37872L494.03105022625,360.37872L500.571637315,356.20884L409.0323263071427,0Z" style="opacity: 0;"/><path data-target="point-0-25" d="M409.0323263071427,0L500.571637315,356.20884L511.4547041975,356.20884L518.8279870450892,351.55458L421.0479458823667,-3.552713678800501e-15Z" style="opacity: 0;"/><path data-target="point-0-26" d="M421.0479458823667,-3.552713678800501e-15L518.8279870450892,351.55458L529.1796506142857,351.55458L537.3480639158037,346.48614L434.9632607391857,21.413555464525984L431.99878080993165,14.31879644352614L425.4803488086274,1.7763568394002505e-15Z" style="opacity: 0;"/><path data-target="point-0-27" d="M434.9632607391857,21.413555464525984L537.3480639158037,346.48614L547.7053589046321,346.48614L554.123677477337,342.78119449999997L536.5623652971059,262.6953024065117L491.19769993713993,145.78902529418326Z" style="opacity: 0;"/><path data-target="point-0-28" d="M536.5623652971059,262.6953024065117L554.123677477337,342.78119449999997L562.4618731587543,342.78119449999997L576.0654542457787,333.641295Z" style="opacity: 0;"/><path data-target="point-0-29" d="M491.19769993713993,145.78902529418326L536.5623652971059,262.6953024065117L576.0654542457787,333.641295L579.805370780382,333.641295L594.6859836222493,324.1195075Z" style="opacity: 0;"/><path data-target="point-0-30" d="M431.99878080993165,14.31879644352614L434.9632607391857,21.413555464525984L491.19769993713993,145.78902529418326L594.6859836222493,324.1195075L597.0956789432322,324.1195075L613.3720089006443,314.20003699999995Z" style="opacity: 0;"/><path data-target="point-0-31" d="M425.4803488086274,1.7763568394002505e-15L431.99878080993165,14.31879644352614L613.3720089006443,314.20003699999995L614.3276529540179,314.20003699999995L631.648254073691,304.1455942541202L631.9658639977447,303.60641785062637L440.58738908237876,0Z" style="opacity: 0;"/><path data-target="point-0-32" d="M440.58738908237876,0L631.9658639977447,303.60641785062637L649.1610347985951,294.0983412647977L650.3562027731936,292.1729525283889L458.40636641468154,0Z" style="opacity: 0;"/><path data-target="point-0-33" d="M458.40636641468154,0L650.3562027731936,292.1729525283889L666.6310416333341,283.60027954697586L668.7954265897718,280.29100074330563L476.8777852712815,0Z" style="opacity: 0;"/><path data-target="point-0-34" d="M476.8777852712815,0L668.7954265897718,280.29100074330563L684.0545412268938,272.6337971595734L687.288513891548,267.9402784752794L496.07913924781985,0Z" style="opacity: 0;"/><path data-target="point-0-35" d="M496.07913924781985,0L687.288513891548,267.9402784752794L701.4266854810234,261.1810549859539L705.8403172865856,255.1000153453411L516.1092253377459,0Z" style="opacity: 0;"/><path data-target="point-0-36" d="M516.1092253377459,0L705.8403172865856,255.1000153453411L718.7431459486868,249.2226870902786L724.4568464045551,241.74839885416208L537.0627825149741,0Z" style="opacity: 0;"/><path data-target="point-0-37" d="M537.0627825149741,0L724.4568464045551,241.74839885416208L735.9980339102265,236.73932554395154L743.1441025215945,227.8627883999155L559.054785733452,0Z" style="opacity: 0;"/><path data-target="point-0-38" d="M559.054785733452,0L743.1441025215945,227.8627883999155L753.1859285549273,223.70983835129454L761.9088274755675,213.41995397825076L582.2091428587103,0Z" style="opacity: 0;"/><path data-target="point-0-39" d="M582.2091428587103,0L761.9088274755675,213.41995397825076L770.3003852567332,210.11284784116992L780.7586851606193,198.3953757685366L606.6558599631044,0Z" style="opacity: 0;"/><path data-target="point-0-40" d="M606.6558599631044,0L780.7586851606193,198.3953757685366L787.3342398884971,195.925806937029L799.7017701647986,182.76362615493593L632.5436793597696,0Z" style="opacity: 0;"/><path data-target="point-0-41" d="M632.5436793597696,0L799.7017701647986,182.76362615493593L804.2799061868589,181.12498779631153L818.7468958716742,166.49838448666304L660.0354141220623,0Z" style="opacity: 0;"/><path data-target="point-0-42" d="M660.0354141220623,0L818.7468958716742,166.49838448666304L821.1292798123108,165.68567422494593L837.8823602380082,149.59309839749406L837.8944715383798,149.56276322579814L689.3070294592233,0Z" style="opacity: 0;"/><path data-target="point-0-43" d="M689.3070294592233,0L837.8944715383798,149.56276322579814L855.3100243608218,133.66705600703605L856.3679546604724,131.1688269522488L720.5512423056872,0Z" style="opacity: 0;"/><path data-target="point-0-44" d="M720.5512423056872,0L856.3679546604724,131.1688269522488L876.5979673069787,113.62214631690684L753.9823301045752,0Z" style="opacity: 0;"/><path data-target="point-0-45" d="M753.9823301045752,0L876.5979673069787,113.62214631690684L907.392101571507,104.524922L789.8316560666301,0Z" style="opacity: 0;"/><path data-target="point-0-46" d="M789.8316560666301,0L907.392101571507,104.524922L936,104.524922L936,0Z" style="opacity: 0;"/><path data-target="point-1-0" d="M74.99663038120549,561.6L67.048400366875,519.85206L0,519.8520599999999L0,561.6Z" style="opacity: 0;"/><path data-target="point-1-1" d="M66.426081315625,513.5481L67.048400366875,519.85206L74.99663038120549,561.6L89.37276461629459,561.6L84.51619769642858,513.5481Z" style="opacity: 0;"/><path data-target="point-1-2" d="M84.51619769642858,513.5481L89.37276461629459,561.6L109.86495399428581,561.6L102.32082875999998,511.44912L85.17400303571428,511.44912Z" style="opacity: 0;"/><path data-target="point-1-3" d="M102.32082875999998,511.44912L109.86495399428581,561.6L128.63532139656238,561.6L120.19786241125,508.54985999999997L103.17946272937499,508.54985999999997Z" style="opacity: 0;"/><path data-target="point-1-4" d="M120.19786241125,508.54985999999997L128.63532139656238,561.6L150.68086638285715,561.6L138.2463654542857,506.493L120.83602159107143,506.493Z" style="opacity: 0;"/><path data-target="point-1-5" d="M138.2463654542857,506.493L150.68086638285715,561.6L172.15345521857148,561.6L156.23025397285713,502.51968L138.8627444573214,502.51968Z" style="opacity: 0;"/><path data-target="point-1-6" d="M156.23025397285713,502.51968L172.15345521857148,561.6L192.4021301200001,561.6L174.06966731875,497.31786L156.76822433946427,497.31786Z" style="opacity: 0;"/><path data-target="point-1-7" d="M174.06966731875,497.31786L192.4021301200001,561.6L209.95532664272304,561.6L191.75746093397322,491.42807999999997L174.83106599888393,491.42807999999997Z" style="opacity: 0;"/><path data-target="point-1-8" d="M191.75746093397322,491.42807999999997L209.95532664272304,561.6L230.31648295714302,561.6L209.61273090857142,486.52812L192.94372156263393,486.52812Z" style="opacity: 0;"/><path data-target="point-1-9" d="M209.61273090857142,486.52812L230.31648295714302,561.6L258.9562844678126,561.6L227.80046758174106,481.90896L210.78529642607143,481.90896Z" style="opacity: 0;"/><path data-target="point-1-10" d="M227.80046758174106,481.90896L258.9562844678126,561.6L291.593881427857,561.6L245.59135403374998,473.70257999999995L228.64273891830354,473.70257999999995Z" style="opacity: 0;"/><path data-target="point-1-11" d="M245.59135403374998,473.70257999999995L291.593881427857,561.6L314.1849648421874,561.6L263.0673299296875,463.48848L246.65569517281247,463.48848Z" style="opacity: 0;"/><path data-target="point-1-12" d="M263.0673299296875,463.48848L314.1849648421874,561.6L338.78711758,561.6L280.686218985625,453.49902L265.06310362901786,453.49902Z" style="opacity: 0;"/><path data-target="point-1-13" d="M280.686218985625,453.49902L338.78711758,561.6L356.3441311337055,561.6L297.7295008694643,442.28105999999997L283.56024531357144,442.28105999999997Z" style="opacity: 0;"/><path data-target="point-1-14" d="M297.7295008694643,442.28105999999997L356.3441311337055,561.6L388.38532525285734,561.6L315.26326573446426,432.69174L302.32749419053573,432.69174Z" style="opacity: 0;"/><path data-target="point-1-15" d="M315.26326573446426,432.69174L388.38532525285734,561.6L402.152819047723,561.6L333.27774550133927,422.72334L320.1601754817857,422.72334Z" style="opacity: 0;"/><path data-target="point-1-16" d="M333.27774550133927,422.72334L402.152819047723,561.6L429.18688079821436,561.6L394.77753599874285,485.87848280693964L350.7461203355804,412.98659999999995L338.54145322589284,412.98659999999995Z" style="opacity: 0;"/><path data-target="point-1-17" d="M350.7461203355804,412.98659999999995L394.77753599874285,485.87848280693964L368.7707201845982,400.54715999999996L357.30523157468747,400.54715999999996Z" style="opacity: 0;"/><path data-target="point-1-18" d="M368.7707201845982,400.54715999999996L394.77753599874285,485.87848280693964L429.18688079821436,561.6L444.6133238317852,561.6L386.366366051875,394.91009999999994L374.4459687495536,394.9101Z" style="opacity: 0;"/><path data-target="point-1-19" d="M386.366366051875,394.91009999999994L444.6133238317852,561.6L476.7604086904018,561.6L460.25231552827836,507.3420803592584L403.2936629942857,387.77076L393.37507844031245,387.77076Z" style="opacity: 0;"/><path data-target="point-1-20" d="M403.2936629942857,387.77076L460.25231552827836,507.3420803592584L454.8777792789706,482.71081662251345L422.1558426417857,379.33272L411.3327042457143,379.33272Z" style="opacity: 0;"/><path data-target="point-1-21" d="M422.1558426417857,379.33272L454.8777792789706,482.71081662251345L441.7324120878571,373.04981999999995L429.0769338190178,373.04981999999995Z" style="opacity: 0;"/><path data-target="point-1-22" d="M441.7324120878571,373.04981999999995L454.8777792789706,482.71081662251345L460.25231552827836,507.3420803592584L476.7604086904018,561.6L497.6253363071427,561.6L458.4944986892857,369.50472L446.5764114057142,369.50472Z" style="opacity: 0;"/><path data-target="point-1-23" d="M458.4944986892857,369.50472L497.6253363071427,561.6L522.6661781057145,561.6L475.9869032185714,365.61564L464.0888360975,365.61564Z" style="opacity: 0;"/><path data-target="point-1-24" d="M475.9869032185714,365.61564L522.6661781057145,561.6L535.9668226112502,561.6L494.03105022625,360.37872L483.47904203089286,360.37872Z" style="opacity: 0;"/><path data-target="point-1-25" d="M494.03105022625,360.37872L535.9668226112502,561.6L561.0181584949999,561.6L511.4547041975,356.20884L500.571637315,356.20884Z" style="opacity: 0;"/><path data-target="point-1-26" d="M511.4547041975,356.20884L561.0181584949999,561.6L581.8410380571428,561.6L529.1796506142857,351.55458L518.8279870450892,351.55458Z" style="opacity: 0;"/><path data-target="point-1-27" d="M529.1796506142857,351.55458L581.8410380571428,561.6L589.4842158025873,561.6L547.7053589046321,346.48614L537.3480639158037,346.48614Z" style="opacity: 0;"/><path data-target="point-1-28" d="M547.7053589046321,346.48614L589.4842158025873,561.6L663.834715685416,561.6L562.4618731587543,342.78119449999997L554.123677477337,342.78119449999997Z" style="opacity: 0;"/><path data-target="point-1-29" d="M562.4618731587543,342.78119449999997L663.834715685416,561.6L689.7685666603119,561.6L579.805370780382,333.641295L576.0654542457787,333.641295Z" style="opacity: 0;"/><path data-target="point-1-30" d="M579.805370780382,333.641295L689.7685666603119,561.6L716.3742717360245,561.6L597.0956789432322,324.1195075L594.6859836222493,324.1195075Z" style="opacity: 0;"/><path data-target="point-1-31" d="M597.0956789432322,324.1195075L716.3742717360245,561.6L743.7134157465347,561.6L614.3276529540179,314.20003699999995L613.3720089006443,314.20003699999995Z" style="opacity: 0;"/><path data-target="point-1-32" d="M614.3276529540179,314.20003699999995L743.7134157465347,561.6L771.8454242613689,561.6L631.648254073691,304.1455942541202Z" style="opacity: 0;"/><path data-target="point-1-33" d="M631.648254073691,304.1455942541202L771.8454242613689,561.6L800.8339976199213,561.6L649.1610347985951,294.0983412647977L631.9658639977447,303.60641785062637Z" style="opacity: 0;"/><path data-target="point-1-34" d="M649.1610347985951,294.0983412647977L800.8339976199213,561.6L830.7579345170712,561.6L666.6310416333341,283.60027954697586L650.3562027731936,292.1729525283889Z" style="opacity: 0;"/><path data-target="point-1-35" d="M666.6310416333341,283.60027954697586L830.7579345170712,561.6L861.687871237515,561.6L684.0545412268938,272.6337971595734L668.7954265897718,280.29100074330563Z" style="opacity: 0;"/><path data-target="point-1-36" d="M684.0545412268938,272.6337971595734L861.687871237515,561.6L893.719269622646,561.6L701.4266854810234,261.1810549859539L687.288513891548,267.9402784752794Z" style="opacity: 0;"/><path data-target="point-1-37" d="M701.4266854810234,261.1810549859539L893.719269622646,561.6L926.9305273548484,561.6L718.7431459486868,249.2226870902786L705.8403172865856,255.1000153453411Z" style="opacity: 0;"/><path data-target="point-1-38" d="M718.7431459486868,249.2226870902786L926.9305273548484,561.6L936,561.6L936,524.9458543973101L735.9980339102265,236.73932554395154L724.4568464045551,241.74839885416208Z" style="opacity: 0;"/><path data-target="point-1-39" d="M735.9980339102265,236.73932554395154L936,524.9458543973101L936,476.7164407393668L753.1859285549273,223.70983835129454L743.1441025215945,227.8627883999155Z" style="opacity: 0;"/><path data-target="point-1-40" d="M753.1859285549273,223.70983835129454L936,476.7164407393668L936,430.3542830944869L770.3003852567332,210.11284784116992L761.9088274755675,213.41995397825076Z" style="opacity: 0;"/><path data-target="point-1-41" d="M770.3003852567332,210.11284784116992L936,430.3542830944869L936,385.7005184627677L787.3342398884971,195.925806937029L780.7586851606193,198.3953757685366Z" style="opacity: 0;"/><path data-target="point-1-42" d="M787.3342398884971,195.925806937029L936,385.7005184627677L936,342.6077959520198L804.2799061868589,181.12498779631153L799.7017701647986,182.76362615493593Z" style="opacity: 0;"/><path data-target="point-1-43" d="M804.2799061868589,181.12498779631153L936,342.6077959520198L936,300.93619496262204L821.1292798123108,165.68567422494593L818.7468958716742,166.49838448666304Z" style="opacity: 0;"/><path data-target="point-1-44" d="M821.1292798123108,165.68567422494593L936,300.93619496262204L936,260.5432570348607L837.8823602380082,149.59309839749406Z" style="opacity: 0;"/><path data-target="point-1-45" d="M837.8823602380082,149.59309839749406L936,260.5432570348607L936,221.29631543816032L855.3100243608218,133.66705600703605L837.8944715383798,149.56276322579814Z" style="opacity: 0;"/><path data-target="point-1-46" d="M855.3100243608218,133.66705600703605L936,221.29631543816032L936,104.524922L907.392101571507,104.524922L876.5979673069787,113.62214631690684L856.3679546604724,131.1688269522488Z" style="opacity: 0;"/></g><g class="series"><path data-target="point-0-0" d="M0,519.8520599999999L67.048400366875,519.85206L66.426081315625,513.5481L0,384.1081816450269Z" style="opacity: 0;"/><path data-target="point-0-1" d="M0,384.1081816450269L66.426081315625,513.5481L84.51619769642858,513.5481L85.17400303571428,511.44912L23.482452141221984,48.271395838233616L16.088685806138255,0L0,0Z" style="opacity: 0;"/><path data-target="point-0-2" d="M23.482452141221984,48.271395838233616L85.17400303571428,511.44912L102.32082875999998,511.44912L103.17946272937499,508.54985999999997Z" style="opacity: 0;"/><path data-target="point-0-3" d="M16.088685806138255,0L23.482452141221984,48.271395838233616L103.17946272937499,508.54985999999997L120.19786241125,508.54985999999997L120.83602159107143,506.493L111.79191015402739,378.23209706249656L104.93675138629295,330.67989949119357L93.2632763402999,272.250573524992L44.78266749999975,72.64288341880268L16.09780891000002,0Z" style="opacity: 0;"/><path data-target="point-0-4" d="M111.79191015402739,378.23209706249656L120.83602159107143,506.493L138.2463654542857,506.493L138.8627444573214,502.51968Z" style="opacity: 0;"/><path data-target="point-0-5" d="M104.93675138629295,330.67989949119357L111.79191015402739,378.23209706249656L138.8627444573214,502.51968L156.23025397285713,502.51968L156.76822433946427,497.31786Z" style="opacity: 0;"/><path data-target="point-0-6" d="M93.2632763402999,272.250573524992L104.93675138629295,330.67989949119357L156.76822433946427,497.31786L174.06966731875,497.31786L174.83106599888393,491.42807999999997Z" style="opacity: 0;"/><path data-target="point-0-7" d="M44.78266749999975,72.64288341880268L93.2632763402999,272.250573524992L174.83106599888393,491.42807999999997L191.75746093397322,491.42807999999997L192.94372156263393,486.52812L121.26297199431424,237.23667704908982L93.84396965429477,171.51586301900142Z" style="opacity: 0;"/><path data-target="point-0-8" d="M121.26297199431424,237.23667704908982L192.94372156263393,486.52812L209.61273090857142,486.52812L210.78529642607143,481.90896L192.15187831589483,404.1873121092017L162.8740159489465,327.6117064602782Z" style="opacity: 0;"/><path data-target="point-0-9" d="M192.15187831589483,404.1873121092017L210.78529642607143,481.90896L227.80046758174106,481.90896L228.64273891830354,473.70257999999995Z" style="opacity: 0;"/><path data-target="point-0-10" d="M162.8740159489465,327.6117064602782L192.15187831589483,404.1873121092017L228.64273891830354,473.70257999999995L245.59135403374998,473.70257999999995L246.65569517281247,463.48848Z" style="opacity: 0;"/><path data-target="point-0-11" d="M93.84396965429477,171.51586301900142L121.26297199431424,237.23667704908982L162.8740159489465,327.6117064602782L246.65569517281247,463.48848L263.0673299296875,463.48848L265.06310362901786,453.49902L134.56516039878747,233.76092316719306Z" style="opacity: 0;"/><path data-target="point-0-12" d="M134.56516039878747,233.76092316719306L265.06310362901786,453.49902L280.686218985625,453.49902L283.56024531357144,442.28105999999997Z" style="opacity: 0;"/><path data-target="point-0-13" d="M16.09780891000002,0L44.78266749999975,72.64288341880268L93.84396965429477,171.51586301900142L134.56516039878747,233.76092316719306L283.56024531357144,442.28105999999997L297.7295008694643,442.28105999999997L302.32749419053573,432.69174L51.80187421986619,-5.684341886080802e-14Z" style="opacity: 0;"/><path data-target="point-0-14" d="M51.80187421986619,-5.684341886080802e-14L302.32749419053573,432.69174L315.26326573446426,432.69174L320.1601754817857,422.72334L169.32128155948718,146.10880485742865L75.79631807165183,0Z" style="opacity: 0;"/><path data-target="point-0-15" d="M169.32128155948718,146.10880485742865L320.1601754817857,422.72334L333.27774550133927,422.72334L338.54145322589284,412.98659999999995L251.48161085575606,265.6137683714537Z" style="opacity: 0;"/><path data-target="point-0-16" d="M251.48161085575606,265.6137683714537L338.54145322589284,412.98659999999995L350.7461203355804,412.98659999999995L357.30523157468747,400.54715999999996Z" style="opacity: 0;"/><path data-target="point-0-17" d="M75.79631807165183,0L169.32128155948718,146.10880485742865L251.48161085575606,265.6137683714537L357.30523157468747,400.54715999999996L368.7707201845982,400.54715999999996L374.4459687495536,394.9101L316.10882235666105,215.05790692833656L233.1255127005577,0Z" style="opacity: 0;"/><path data-target="point-0-18" d="M316.10882235666105,215.05790692833656L374.4459687495536,394.9101L386.366366051875,394.91009999999994L393.37507844031245,387.77076Z" style="opacity: 0;"/><path data-target="point-0-19" d="M233.1255127005577,0L316.10882235666105,215.05790692833656L393.37507844031245,387.77076L403.2936629942857,387.77076L411.3327042457143,379.33272L234.79565932678557,0Z" style="opacity: 0;"/><path data-target="point-0-20" d="M234.79565932678557,0L411.3327042457143,379.33272L422.1558426417857,379.33272L429.0769338190178,373.04981999999995L285.5684984872763,-5.684341886080802e-14Z" style="opacity: 0;"/><path data-target="point-0-21" d="M285.5684984872763,-5.684341886080802e-14L429.0769338190178,373.04981999999995L441.7324120878571,373.04981999999995L446.5764114057142,369.50472L344.67228826857195,0Z" style="opacity: 0;"/><path data-target="point-0-22" d="M344.67228826857195,0L446.5764114057142,369.50472L458.4944986892857,369.50472L464.0888360975,365.61564L421.9678799072961,182.7543459983016L369.2758857914287,0Z" style="opacity: 0;"/><path data-target="point-0-23" d="M421.9678799072961,182.7543459983016L464.0888360975,365.61564L475.9869032185714,365.61564L483.47904203089286,360.37872Z" style="opacity: 0;"/><path data-target="point-0-24" d="M369.2758857914287,0L421.9678799072961,182.7543459983016L483.47904203089286,360.37872L494.03105022625,360.37872L500.571637315,356.20884L409.0323263071427,0Z" style="opacity: 0;"/><path data-target="point-0-25" d="M409.0323263071427,0L500.571637315,356.20884L511.4547041975,356.20884L518.8279870450892,351.55458L421.0479458823667,-3.552713678800501e-15Z" style="opacity: 0;"/><path data-target="point-0-26" d="M421.0479458823667,-3.552713678800501e-15L518.8279870450892,351.55458L529.1796506142857,351.55458L537.3480639158037,346.48614L434.9632607391857,21.413555464525984L431.99878080993165,14.31879644352614L425.4803488086274,1.7763568394002505e-15Z" style="opacity: 0;"/><path data-target="point-0-27" d="M434.9632607391857,21.413555464525984L537.3480639158037,346.48614L547.7053589046321,346.48614L554.123677477337,342.78119449999997L536.5623652971059,262.6953024065117L491.19769993713993,145.78902529418326Z" style="opacity: 0;"/><path data-target="point-0-28" d="M536.5623652971059,262.6953024065117L554.123677477337,342.78119449999997L562.4618731587543,342.78119449999997L576.0654542457787,333.641295Z" style="opacity: 0;"/><path data-target="point-0-29" d="M491.19769993713993,145.78902529418326L536.5623652971059,262.6953024065117L576.0654542457787,333.641295L579.805370780382,333.641295L594.6859836222493,324.1195075Z" style="opacity: 0;"/><path data-target="point-0-30" d="M431.99878080993165,14.31879644352614L434.9632607391857,21.413555464525984L491.19769993713993,145.78902529418326L594.6859836222493,324.1195075L597.0956789432322,324.1195075L613.3720089006443,314.20003699999995Z" style="opacity: 0;"/><path data-target="point-0-31" d="M425.4803488086274,1.7763568394002505e-15L431.99878080993165,14.31879644352614L613.3720089006443,314.20003699999995L614.3276529540179,314.20003699999995L631.648254073691,304.1455942541202L631.9658639977447,303.60641785062637L440.58738908237876,0Z" style="opacity: 0;"/><path data-target="point-0-32" d="M440.58738908237876,0L631.9658639977447,303.60641785062637L649.1610347985951,294.0983412647977L650.3562027731936,292.1729525283889L458.40636641468154,0Z" style="opacity: 0;"/><path data-target="point-0-33" d="M458.40636641468154,0L650.3562027731936,292.1729525283889L666.6310416333341,283.60027954697586L668.7954265897718,280.29100074330563L476.8777852712815,0Z" style="opacity: 0;"/><path data-target="point-0-34" d="M476.8777852712815,0L668.7954265897718,280.29100074330563L684.0545412268938,272.6337971595734L687.288513891548,267.9402784752794L496.07913924781985,0Z" style="opacity: 0;"/><path data-target="point-0-35" d="M496.07913924781985,0L687.288513891548,267.9402784752794L701.4266854810234,261.1810549859539L705.8403172865856,255.1000153453411L516.1092253377459,0Z" style="opacity: 0;"/><path data-target="point-0-36" d="M516.1092253377459,0L705.8403172865856,255.1000153453411L718.7431459486868,249.2226870902786L724.4568464045551,241.74839885416208L537.0627825149741,0Z" style="opacity: 0;"/><path data-target="point-0-37" d="M537.0627825149741,0L724.4568464045551,241.74839885416208L735.9980339102265,236.73932554395154L743.1441025215945,227.8627883999155L559.054785733452,0Z" style="opacity: 0;"/><path data-target="point-0-38" d="M559.054785733452,0L743.1441025215945,227.8627883999155L753.1859285549273,223.70983835129454L761.9088274755675,213.41995397825076L582.2091428587103,0Z" style="opacity: 0;"/><path data-target="point-0-39" d="M582.2091428587103,0L761.9088274755675,213.41995397825076L770.3003852567332,210.11284784116992L780.7586851606193,198.3953757685366L606.6558599631044,0Z" style="opacity: 0;"/><path data-target="point-0-40" d="M606.6558599631044,0L780.7586851606193,198.3953757685366L787.3342398884971,195.925806937029L799.7017701647986,182.76362615493593L632.5436793597696,0Z" style="opacity: 0;"/><path data-target="point-0-41" d="M632.5436793597696,0L799.7017701647986,182.76362615493593L804.2799061868589,181.12498779631153L818.7468958716742,166.49838448666304L660.0354141220623,0Z" style="opacity: 0;"/><path data-target="point-0-42" d="M660.0354141220623,0L818.7468958716742,166.49838448666304L821.1292798123108,165.68567422494593L837.8823602380082,149.59309839749406L837.8944715383798,149.56276322579814L689.3070294592233,0Z" style="opacity: 0;"/><path data-target="point-0-43" d="M689.3070294592233,0L837.8944715383798,149.56276322579814L855.3100243608218,133.66705600703605L856.3679546604724,131.1688269522488L720.5512423056872,0Z" style="opacity: 0;"/><path data-target="point-0-44" d="M720.5512423056872,0L856.3679546604724,131.1688269522488L876.5979673069787,113.62214631690684L753.9823301045752,0Z" style="opacity: 0;"/><path data-target="point-0-45" d="M753.9823301045752,0L876.5979673069787,113.62214631690684L907.392101571507,104.524922L789.8316560666301,0Z" style="opacity: 0;"/><path data-target="point-0-46" d="M789.8316560666301,0L907.392101571507,104.524922L936,104.524922L936,0Z" style="opacity: 0;"/><path data-target="point-1-0" d="M74.99663038120549,561.6L67.048400366875,519.85206L0,519.8520599999999L0,561.6Z" style="opacity: 0;"/><path data-target="point-1-1" d="M66.426081315625,513.5481L67.048400366875,519.85206L74.99663038120549,561.6L89.37276461629459,561.6L84.51619769642858,513.5481Z" style="opacity: 0;"/><path data-target="point-1-2" d="M84.51619769642858,513.5481L89.37276461629459,561.6L109.86495399428581,561.6L102.32082875999998,511.44912L85.17400303571428,511.44912Z" style="opacity: 0;"/><path data-target="point-1-3" d="M102.32082875999998,511.44912L109.86495399428581,561.6L128.63532139656238,561.6L120.19786241125,508.54985999999997L103.17946272937499,508.54985999999997Z" style="opacity: 0;"/><path data-target="point-1-4" d="M120.19786241125,508.54985999999997L128.63532139656238,561.6L150.68086638285715,561.6L138.2463654542857,506.493L120.83602159107143,506.493Z" style="opacity: 0;"/><path data-target="point-1-5" d="M138.2463654542857,506.493L150.68086638285715,561.6L172.15345521857148,561.6L156.23025397285713,502.51968L138.8627444573214,502.51968Z" style="opacity: 0;"/><path data-target="point-1-6" d="M156.23025397285713,502.51968L172.15345521857148,561.6L192.4021301200001,561.6L174.06966731875,497.31786L156.76822433946427,497.31786Z" style="opacity: 0;"/><path data-target="point-1-7" d="M174.06966731875,497.31786L192.4021301200001,561.6L209.95532664272304,561.6L191.75746093397322,491.42807999999997L174.83106599888393,491.42807999999997Z" style="opacity: 0;"/><path data-target="point-1-8" d="M191.75746093397322,491.42807999999997L209.95532664272304,561.6L230.31648295714302,561.6L209.61273090857142,486.52812L192.94372156263393,486.52812Z" style="opacity: 0;"/><path data-target="point-1-9" d="M209.61273090857142,486.52812L230.31648295714302,561.6L258.9562844678126,561.6L227.80046758174106,481.90896L210.78529642607143,481.90896Z" style="opacity: 0;"/><path data-target="point-1-10" d="M227.80046758174106,481.90896L258.9562844678126,561.6L291.593881427857,561.6L245.59135403374998,473.70257999999995L228.64273891830354,473.70257999999995Z" style="opacity: 0;"/><path data-target="point-1-11" d="M245.59135403374998,473.70257999999995L291.593881427857,561.6L314.1849648421874,561.6L263.0673299296875,463.48848L246.65569517281247,463.48848Z" style="opacity: 0;"/><path data-target="point-1-12" d="M263.0673299296875,463.48848L314.1849648421874,561.6L338.78711758,561.6L280.686218985625,453.49902L265.06310362901786,453.49902Z" style="opacity: 0;"/><path data-target="point-1-13" d="M280.686218985625,453.49902L338.78711758,561.6L356.3441311337055,561.6L297.7295008694643,442.28105999999997L283.56024531357144,442.28105999999997Z" style="opacity: 0;"/><path data-target="point-1-14" d="M297.7295008694643,442.28105999999997L356.3441311337055,561.6L388.38532525285734,561.6L315.26326573446426,432.69174L302.32749419053573,432.69174Z" style="opacity: 0;"/><path data-target="point-1-15" d="M315.26326573446426,432.69174L388.38532525285734,561.6L402.152819047723,561.6L333.27774550133927,422.72334L320.1601754817857,422.72334Z" style="opacity: 0;"/><path data-target="point-1-16" d="M333.27774550133927,422.72334L402.152819047723,561.6L429.18688079821436,561.6L394.77753599874285,485.87848280693964L350.7461203355804,412.98659999999995L338.54145322589284,412.98659999999995Z" style="opacity: 0;"/><path data-target="point-1-17" d="M350.7461203355804,412.98659999999995L394.77753599874285,485.87848280693964L368.7707201845982,400.54715999999996L357.30523157468747,400.54715999999996Z" style="opacity: 0;"/><path data-target="point-1-18" d="M368.7707201845982,400.54715999999996L394.77753599874285,485.87848280693964L429.18688079821436,561.6L444.6133238317852,561.6L386.366366051875,394.91009999999994L374.4459687495536,394.9101Z" style="opacity: 0;"/><path data-target="point-1-19" d="M386.366366051875,394.91009999999994L444.6133238317852,561.6L476.7604086904018,561.6L460.25231552827836,507.3420803592584L403.2936629942857,387.77076L393.37507844031245,387.77076Z" style="opacity: 0;"/><path data-target="point-1-20" d="M403.2936629942857,387.77076L460.25231552827836,507.3420803592584L454.8777792789706,482.71081662251345L422.1558426417857,379.33272L411.3327042457143,379.33272Z" style="opacity: 0;"/><path data-target="point-1-21" d="M422.1558426417857,379.33272L454.8777792789706,482.71081662251345L441.7324120878571,373.04981999999995L429.0769338190178,373.04981999999995Z" style="opacity: 0;"/><path data-target="point-1-22" d="M441.7324120878571,373.04981999999995L454.8777792789706,482.71081662251345L460.25231552827836,507.3420803592584L476.7604086904018,561.6L497.6253363071427,561.6L458.4944986892857,369.50472L446.5764114057142,369.50472Z" style="opacity: 0;"/><path data-target="point-1-23" d="M458.4944986892857,369.50472L497.6253363071427,561.6L522.6661781057145,561.6L475.9869032185714,365.61564L464.0888360975,365.61564Z" style="opacity: 0;"/><path data-target="point-1-24" d="M475.9869032185714,365.61564L522.6661781057145,561.6L535.9668226112502,561.6L494.03105022625,360.37872L483.47904203089286,360.37872Z" style="opacity: 0;"/><path data-target="point-1-25" d="M494.03105022625,360.37872L535.9668226112502,561.6L561.0181584949999,561.6L511.4547041975,356.20884L500.571637315,356.20884Z" style="opacity: 0;"/><path data-target="point-1-26" d="M511.4547041975,356.20884L561.0181584949999,561.6L581.8410380571428,561.6L529.1796506142857,351.55458L518.8279870450892,351.55458Z" style="opacity: 0;"/><path data-target="point-1-27" d="M529.1796506142857,351.55458L581.8410380571428,561.6L589.4842158025873,561.6L547.7053589046321,346.48614L537.3480639158037,346.48614Z" style="opacity: 0;"/><path data-target="point-1-28" d="M547.7053589046321,346.48614L589.4842158025873,561.6L663.834715685416,561.6L562.4618731587543,342.78119449999997L554.123677477337,342.78119449999997Z" style="opacity: 0;"/><path data-target="point-1-29" d="M562.4618731587543,342.78119449999997L663.834715685416,561.6L689.7685666603119,561.6L579.805370780382,333.641295L576.0654542457787,333.641295Z" style="opacity: 0;"/><path data-target="point-1-30" d="M579.805370780382,333.641295L689.7685666603119,561.6L716.3742717360245,561.6L597.0956789432322,324.1195075L594.6859836222493,324.1195075Z" style="opacity: 0;"/><path data-target="point-1-31" d="M597.0956789432322,324.1195075L716.3742717360245,561.6L743.7134157465347,561.6L614.3276529540179,314.20003699999995L613.3720089006443,314.20003699999995Z" style="opacity: 0;"/><path data-target="point-1-32" d="M614.3276529540179,314.20003699999995L743.7134157465347,561.6L771.8454242613689,561.6L631.648254073691,304.1455942541202Z" style="opacity: 0;"/><path data-target="point-1-33" d="M631.648254073691,304.1455942541202L771.8454242613689,561.6L800.8339976199213,561.6L649.1610347985951,294.0983412647977L631.9658639977447,303.60641785062637Z" style="opacity: 0;"/><path data-target="point-1-34" d="M649.1610347985951,294.0983412647977L800.8339976199213,561.6L830.7579345170712,561.6L666.6310416333341,283.60027954697586L650.3562027731936,292.1729525283889Z" style="opacity: 0;"/><path data-target="point-1-35" d="M666.6310416333341,283.60027954697586L830.7579345170712,561.6L861.687871237515,561.6L684.0545412268938,272.6337971595734L668.7954265897718,280.29100074330563Z" style="opacity: 0;"/><path data-target="point-1-36" d="M684.0545412268938,272.6337971595734L861.687871237515,561.6L893.719269622646,561.6L701.4266854810234,261.1810549859539L687.288513891548,267.9402784752794Z" style="opacity: 0;"/><path data-target="point-1-37" d="M701.4266854810234,261.1810549859539L893.719269622646,561.6L926.9305273548484,561.6L718.7431459486868,249.2226870902786L705.8403172865856,255.1000153453411Z" style="opacity: 0;"/><path data-target="point-1-38" d="M718.7431459486868,249.2226870902786L926.9305273548484,561.6L936,561.6L936,524.9458543973101L735.9980339102265,236.73932554395154L724.4568464045551,241.74839885416208Z" style="opacity: 0;"/><path data-target="point-1-39" d="M735.9980339102265,236.73932554395154L936,524.9458543973101L936,476.7164407393668L753.1859285549273,223.70983835129454L743.1441025215945,227.8627883999155Z" style="opacity: 0;"/><path data-target="point-1-40" d="M753.1859285549273,223.70983835129454L936,476.7164407393668L936,430.3542830944869L770.3003852567332,210.11284784116992L761.9088274755675,213.41995397825076Z" style="opacity: 0;"/><path data-target="point-1-41" d="M770.3003852567332,210.11284784116992L936,430.3542830944869L936,385.7005184627677L787.3342398884971,195.925806937029L780.7586851606193,198.3953757685366Z" style="opacity: 0;"/><path data-target="point-1-42" d="M787.3342398884971,195.925806937029L936,385.7005184627677L936,342.6077959520198L804.2799061868589,181.12498779631153L799.7017701647986,182.76362615493593Z" style="opacity: 0;"/><path data-target="point-1-43" d="M804.2799061868589,181.12498779631153L936,342.6077959520198L936,300.93619496262204L821.1292798123108,165.68567422494593L818.7468958716742,166.49838448666304Z" style="opacity: 0;"/><path data-target="point-1-44" d="M821.1292798123108,165.68567422494593L936,300.93619496262204L936,260.5432570348607L837.8823602380082,149.59309839749406Z" style="opacity: 0;"/><path data-target="point-1-45" d="M837.8823602380082,149.59309839749406L936,260.5432570348607L936,221.29631543816032L855.3100243608218,133.66705600703605L837.8944715383798,149.56276322579814Z" style="opacity: 0;"/><path data-target="point-1-46" d="M855.3100243608218,133.66705600703605L936,221.29631543816032L936,104.524922L907.392101571507,104.524922L876.5979673069787,113.62214631690684L856.3679546604724,131.1688269522488Z" style="opacity: 0;"/></g></g><g class="axes"><g class="y axis" fill="none" font-size="10" font-family="sans-serif" text-anchor="end" style="font-family: &quot;Source Sans Pro&quot;;"><path class="domain" stroke="#eeeeee" d="M0.5,562.1V0.5" stroke-dasharray="0" style="visibility: hidden;"/><g class="tick" opacity="1" transform="translate(0,562.1)" style="visibility: visible;"><line stroke="#eeeeee" x2="936" stroke-dasharray="0"/><text fill="rgb(0, 0, 0)" x="3" dy="-0.33em" opacity="1" text-anchor="start" font-size="18">$0</text></g><g class="tick" opacity="1" transform="translate(0, 491.8999938964844)" style="visibility: visible;"><line stroke="#eeeeee" x2="936" stroke-dasharray="0"/><text fill="rgb(0, 0, 0)" x="3" dy="-0.33em" opacity="1" text-anchor="start" font-size="18">$5000</text></g><g class="tick" opacity="1" transform="translate(0, 421.70001220703125)" style="visibility: visible;"><line stroke="#eeeeee" x2="936" stroke-dasharray="0"/><text fill="rgb(0, 0, 0)" x="3" dy="-0.33em" opacity="1" text-anchor="start" font-size="18">$10,000</text></g><g class="tick" opacity="1" transform="translate(0, 351.5)" style="visibility: visible;"><line stroke="#eeeeee" x2="936" stroke-dasharray="0"/><text fill="rgb(0, 0, 0)" x="3" dy="-0.33em" opacity="1" text-anchor="start" font-size="18">$15,000</text></g><g class="tick" opacity="1" transform="translate(0, 281.29998779296875)" style="visibility: visible;"><line stroke="#eeeeee" x2="936" stroke-dasharray="0"/><text fill="rgb(0, 0, 0)" x="3" dy="-0.33em" opacity="1" text-anchor="start" font-size="18">$20,000</text></g><g class="tick" opacity="1" transform="translate(0, 211.10000610351562)" style="visibility: visible;"><line stroke="#eeeeee" x2="936" stroke-dasharray="0"/><text fill="rgb(0, 0, 0)" x="3" dy="-0.33em" opacity="1" text-anchor="start" font-size="18">$25,000</text></g><g class="tick" opacity="1" transform="translate(0, 140.89999389648438)" style="visibility: visible;"><line stroke="#eeeeee" x2="936" stroke-dasharray="0"/><text fill="rgb(0, 0, 0)" x="3" dy="-0.33em" opacity="1" text-anchor="start" font-size="18">$30,000</text></g><g class="tick" opacity="1" transform="translate(0, 70.69999694824219)" style="visibility: visible;"><line stroke="#eeeeee" x2="936" stroke-dasharray="0"/><text fill="rgb(0, 0, 0)" x="3" dy="-0.33em" opacity="1" text-anchor="start" font-size="18">$35,000</text></g><g class="tick" opacity="1" transform="translate(0, 0.5)" style="visibility: visible;"><line stroke="#eeeeee" x2="936" stroke-dasharray="0"/><text fill="rgb(0, 0, 0)" x="3" dy="-0.33em" opacity="1" text-anchor="start" font-size="18">$40,000</text></g></g><g class="x axis" transform="translate(0,561.6)" fill="none" font-size="10" font-family="sans-serif" text-anchor="middle" style="font-family: &quot;Source Sans Pro&quot;;"><path class="domain" stroke="#eeeeee" d="M40.5,0.5H936.5" stroke-dasharray="0"/><g class="tick" opacity="1" transform="translate(40.5,0)"><line stroke="#eeeeee" y2="6" stroke-dasharray="0"/><text fill="rgb(0, 0, 0)" y="9" dy="-9" opacity="1" dominant-baseline="central" font-size="18" transform="translate(0, 15) rotate(-45)" dx="5" style="text-anchor: end; visibility: visible;">1990</text></g><g class="tick" opacity="1" transform="translate(130.10000000000002,0)"><line stroke="#eeeeee" y2="6" stroke-dasharray="0"/><text fill="rgb(0, 0, 0)" y="9" dy="-9" opacity="1" dominant-baseline="central" font-size="18" transform="translate(0, 15) rotate(-45)" dx="5" style="text-anchor: end; visibility: visible;">1995</text></g><g class="tick" opacity="1" transform="translate(219.70000000000002,0)"><line stroke="#eeeeee" y2="6" stroke-dasharray="0"/><text fill="rgb(0, 0, 0)" y="9" dy="-9" opacity="1" dominant-baseline="central" font-size="18" transform="translate(0, 15) rotate(-45)" dx="5" style="text-anchor: end; visibility: visible;">2000</text></g><g class="tick" opacity="1" transform="translate(309.3,0)"><line stroke="#eeeeee" y2="6" stroke-dasharray="0"/><text fill="rgb(0, 0, 0)" y="9" dy="-9" opacity="1" dominant-baseline="central" font-size="18" transform="translate(0, 15) rotate(-45)" dx="5" style="text-anchor: end; visibility: visible;">2005</text></g><g class="tick" opacity="1" transform="translate(398.90000000000003,0)"><line stroke="#eeeeee" y2="6" stroke-dasharray="0"/><text fill="rgb(0, 0, 0)" y="9" dy="-9" opacity="1" dominant-baseline="central" font-size="18" transform="translate(0, 15) rotate(-45)" dx="5" style="text-anchor: end; visibility: visible;">2010</text></g><g class="tick" opacity="1" transform="translate(488.5,0)"><line stroke="#eeeeee" y2="6" stroke-dasharray="0"/><text fill="rgb(0, 0, 0)" y="9" dy="-9" opacity="1" dominant-baseline="central" font-size="18" transform="translate(0, 15) rotate(-45)" dx="5" style="text-anchor: end; visibility: visible;">2015</text></g><g class="tick" opacity="1" transform="translate(578.1,0)"><line stroke="#eeeeee" y2="6" stroke-dasharray="0"/><text fill="rgb(0, 0, 0)" y="9" dy="-9" opacity="1" dominant-baseline="central" font-size="18" transform="translate(0, 15) rotate(-45)" dx="5" style="text-anchor: end; visibility: visible;">2020</text></g><g class="tick" opacity="1" transform="translate(667.6999999999999,0)"><line stroke="#eeeeee" y2="6" stroke-dasharray="0"/><text fill="rgb(0, 0, 0)" y="9" dy="-9" opacity="1" dominant-baseline="central" font-size="18" transform="translate(0, 15) rotate(-45)" dx="5" style="text-anchor: end; visibility: visible;">2025</text></g><g class="tick" opacity="1" transform="translate(757.3000000000001,0)"><line stroke="#eeeeee" y2="6" stroke-dasharray="0"/><text fill="rgb(0, 0, 0)" y="9" dy="-9" opacity="1" dominant-baseline="central" font-size="18" transform="translate(0, 15) rotate(-45)" dx="5" style="text-anchor: end; visibility: visible;">2030</text></g><g class="tick" opacity="1" transform="translate(846.9,0)"><line stroke="#eeeeee" y2="6" stroke-dasharray="0"/><text fill="rgb(0, 0, 0)" y="9" dy="-9" opacity="1" dominant-baseline="central" font-size="18" transform="translate(0, 15) rotate(-45)" dx="5" style="text-anchor: end; visibility: visible;">2035</text></g><g class="tick" opacity="1" transform="translate(936.5,0)"><line stroke="#eeeeee" y2="6" stroke-dasharray="0"/><text fill="rgb(0, 0, 0)" y="9" dy="-9" opacity="1" dominant-baseline="central" font-size="18" transform="translate(0, 15) rotate(-45)" dx="5" style="text-anchor: end; visibility: visible;">2040</text></g></g></g></g></g></g><g class="annotations below"><g class="axis-highlights" transform="translate(15, 20)" style="opacity: 1;"><g class="line x" transform="translate(559.68, 0)"><line width="0" stroke-dasharray="2 2" stroke="#333333" stroke-width="2" y2="561.6"/><text transform="translate(0, 6) rotate(-90)" fill="#333333" text-anchor="end" dy="-0.5em" font-size="12">Current</text></g></g></g><g id="areas"><g class="series" pointer-events="none"><path class="area" transform="translate(15,20)" fill-opacity="0" fill="#11A579" clip-path="url(#clip-0-0)" d="M57.92,519.03072C63.89333333333334,515.22822,69.86666666666667,511.42572,75.84,509.83452C81.81333333333333,508.24332,87.78666666666666,508.36266,93.75999999999999,507.44772C99.73333333333333,506.53278,105.70666666666666,505.07262,111.68,504.34488C117.65333333333335,503.61714,123.62666666666668,503.92368,129.60000000000002,503.08128C135.57333333333335,502.23888,141.54666666666665,500.75766000000004,147.51999999999998,499.17816000000005C153.4933333333333,497.59866000000005,159.46666666666667,495.64476,165.44,493.60428C171.41333333333333,491.5638,177.38666666666668,488.90556000000004,183.36,486.93528000000003C189.33333333333334,484.96500000000003,195.30666666666667,483.35742,201.28,481.7826C207.25333333333333,480.20778,213.2266666666667,479.7702,219.20000000000002,477.48636C225.17333333333335,475.20252,231.14666666666668,471.48894,237.12,468.07956C243.09333333333333,464.67018,249.06666666666666,460.64538,255.04,457.03008C261.0133333333333,453.41478,266.9866666666667,450.29556,272.96000000000004,446.38776C278.93333333333334,442.47996,284.9066666666667,437.44662,290.88,433.58328C296.85333333333335,429.71994,302.82666666666665,426.56562,308.8,423.20772C314.77333333333337,419.84981999999997,320.74666666666667,416.82887999999997,326.72,413.43588C332.6933333333334,410.04288,338.6666666666667,406.95642000000004,344.64000000000004,402.84972000000005C350.61333333333334,398.74302000000006,356.5866666666667,392.1067800000001,362.56,388.79568000000006C368.53333333333336,385.48458000000005,374.50666666666666,385.28802,380.48,382.98312C386.4533333333334,380.67821999999995,392.4266666666667,377.69237999999996,398.40000000000003,374.96628C404.37333333333333,372.24018,410.3466666666667,369.16542000000004,416.32,366.62652C422.29333333333335,364.08762,428.26666666666665,361.70550000000003,434.24,359.73288C440.21333333333337,357.76026,446.18666666666667,356.30244,452.16,354.7908C458.1333333333333,353.27916,464.1066666666667,352.38528,470.08,350.66304C476.05333333333334,348.9408,482.02666666666664,346.25916,488,344.45736C493.97333333333336,342.65556,499.94666666666666,341.45046,505.92,339.85224000000005C511.8933333333334,338.2540200000001,517.8666666666667,336.63942000000003,523.84,334.86804C529.8133333333334,333.09666,535.7866666666666,330.81955920000007,541.76,329.22396000000003C547.7333333333333,327.6283608,553.7066666666666,327.6123551999999,559.68,325.29444479999995C565.6533333333333,322.97653439999993,571.6266666666667,318.71270340000007,577.6,315.31649760000005C583.5733333333334,311.9202918000001,589.5466666666666,308.456811,595.52,304.91721C601.4933333333333,301.377609,607.4666666666667,297.76792500000005,613.44,294.0788916C619.4133333333334,290.38985820000005,625.3866666666667,286.62781680000006,631.36,282.78300960000007C637.3333333333334,278.9382024000001,643.3066666666667,275.01720480000006,649.2800000000001,271.0100484C655.2533333333333,267.00289200000003,661.2266666666667,262.916433,667.1999999999999,258.7400712C673.1733333333333,254.56370939999996,679.1466666666666,250.3045818,685.12,245.9518776C691.0933333333334,241.5991734,697.0666666666666,237.16033380000005,703.04,232.62384600000007C709.0133333333333,228.08735820000007,714.9866666666667,223.4610144,720.96,218.73295079999997C726.9333333333334,214.00488719999998,732.9066666666666,209.18315339999998,738.88,204.2554644C744.8533333333334,199.32777539999998,750.8266666666667,194.30255520000003,756.8000000000001,189.1668168C762.7733333333333,184.0310784,768.7466666666667,178.79364359999997,774.7199999999999,173.441034C780.6933333333333,168.08842439999998,786.6666666666666,162.62978940000005,792.64,157.05115920000003C798.6133333333333,151.47252900000007,804.5866666666666,145.78342740000002,810.56,139.96925280000005C816.5333333333333,134.15507820000002,822.5066666666667,128.22579900000005,828.48,122.16611160000002C834.4533333333334,116.10642420000003,840.4266666666666,109.92669479999995,846.4,103.61112839999998C852.3733333333333,97.29556199999998,858.3466666666667,90.85492260000007,864.32,84.27271320000006C870.2933333333334,77.69050380000009,876.2666666666667,70.90418790000005,882.24,64.11787200000003L882.24,64.11787200000003C876.2666666666667,70.90418790000005,870.2933333333334,77.69050380000009,864.32,84.27271320000006C858.3466666666667,90.85492260000007,852.3733333333333,97.29556199999998,846.4,103.61112839999998C840.4266666666666,109.92669479999995,834.4533333333334,116.10642420000003,828.48,122.16611160000002C822.5066666666667,128.22579900000005,816.5333333333333,134.15507820000002,810.56,139.96925280000005C804.5866666666666,145.78342740000002,798.6133333333333,151.47252900000007,792.64,157.05115920000003C786.6666666666666,162.62978940000005,780.6933333333333,168.08842439999998,774.7199999999999,173.441034C768.7466666666667,178.79364359999997,762.7733333333333,184.0310784,756.8000000000001,189.1668168C750.8266666666667,194.30255520000003,744.8533333333334,199.32777539999998,738.88,204.2554644C732.9066666666666,209.18315339999998,726.9333333333334,214.00488719999998,720.96,218.73295079999997C714.9866666666667,223.4610144,709.0133333333333,228.08735820000007,703.04,232.62384600000007C697.0666666666666,237.16033380000005,691.0933333333334,241.5991734,685.12,245.9518776C679.1466666666666,250.3045818,673.1733333333333,254.56370939999996,667.1999999999999,258.7400712C661.2266666666667,262.916433,655.2533333333333,267.00289200000003,649.2800000000001,271.0100484C643.3066666666667,275.01720480000006,637.3333333333334,278.9382024000001,631.36,282.78300960000007C625.3866666666667,286.62781680000006,619.4133333333334,290.38985820000005,613.44,294.0788916C607.4666666666667,297.76792500000005,601.4933333333333,301.377609,595.52,304.91721C589.5466666666666,308.456811,583.5733333333334,311.9202918000001,577.6,315.31649760000005C571.6266666666667,318.71270340000007,565.6533333333333,322.97653439999993,559.68,325.29444479999995C553.7066666666666,327.6123551999999,547.7333333333333,327.6283608,541.76,329.22396000000003C535.7866666666666,330.81955920000007,529.8133333333334,333.09666,523.84,334.86804C517.8666666666667,336.63942000000003,511.8933333333334,338.2540200000001,505.92,339.85224000000005C499.94666666666666,341.45046,493.97333333333336,342.65556,488,344.45736C482.02666666666664,346.25916,476.05333333333334,348.9408,470.08,350.66304C464.1066666666667,352.38528,458.1333333333333,353.27916,452.16,354.7908C446.18666666666667,356.30244,440.21333333333337,357.76026,434.24,359.73288C428.26666666666665,361.70550000000003,422.29333333333335,364.08762,416.32,366.62652C410.3466666666667,369.16542000000004,404.37333333333333,372.24018,398.40000000000003,374.96628C392.4266666666667,377.69237999999996,386.4533333333334,380.67821999999995,380.48,382.98312C374.50666666666666,385.28802,368.53333333333336,385.48458000000005,362.56,388.79568000000006C356.5866666666667,392.1067800000001,350.61333333333334,398.74302000000006,344.64000000000004,402.84972000000005C338.6666666666667,406.95642000000004,332.6933333333334,410.04288,326.72,413.43588C320.74666666666667,416.82887999999997,314.77333333333337,419.84981999999997,308.8,423.20772C302.82666666666665,426.56562,296.85333333333335,429.71994,290.88,433.58328C284.9066666666667,437.44662,278.93333333333334,442.47996,272.96000000000004,446.38776C266.9866666666667,450.29556,261.0133333333333,453.41478,255.04,457.03008C249.06666666666666,460.64538,243.09333333333333,464.67018,237.12,468.07956C231.14666666666668,471.48894,225.17333333333335,475.20252,219.20000000000002,477.48636C213.2266666666667,479.7702,207.25333333333333,480.20778,201.28,481.7826C195.30666666666667,483.35742,189.33333333333334,484.96500000000003,183.36,486.93528000000003C177.38666666666668,488.90556000000004,171.41333333333333,491.5638,165.44,493.60428C159.46666666666667,495.64476,153.4933333333333,497.59866000000005,147.51999999999998,499.17816000000005C141.54666666666665,500.75766000000004,135.57333333333335,502.23888,129.60000000000002,503.08128C123.62666666666668,503.92368,117.65333333333335,503.61714,111.68,504.34488C105.70666666666666,505.07262,99.73333333333333,506.53278,93.75999999999999,507.44772C87.78666666666666,508.36266,81.81333333333333,508.24332,75.84,509.83452C69.86666666666667,511.42572,63.89333333333334,515.22822,57.92,519.03072Z"/></g><g class="series" pointer-events="none"><path class="area" transform="translate(15,20)" fill-opacity="0" fill="#802392" clip-path="url(#clip-0-1)" d="M57.92,520.6734C63.89333333333334,519.40278,69.86666666666667,518.1321600000001,75.84,517.2616800000001C81.81333333333333,516.3912,87.78666666666666,516.20166,93.75999999999999,515.45052C99.73333333333333,514.69938,105.70666666666666,513.6791400000001,111.68,512.7548400000001C117.65333333333335,511.83054000000004,123.62666666666668,511.05366000000004,129.60000000000002,509.90472C135.57333333333335,508.75578,141.54666666666665,507.34008,147.51999999999998,505.8612C153.4933333333333,504.38232,159.46666666666667,502.68816000000004,165.44,501.03144000000003C171.41333333333333,499.37472,177.38666666666668,497.54718,183.36,495.92088C189.33333333333334,494.29458,195.30666666666667,492.87185999999997,201.28,491.27364C207.25333333333333,489.67542,213.2266666666667,488.3229,219.20000000000002,486.33156C225.17333333333335,484.34022000000004,231.14666666666668,482.05638,237.12,479.3256C243.09333333333333,476.59482,249.06666666666666,473.0661,255.04,469.94688C261.0133333333333,466.82766000000004,266.9866666666667,463.77162,272.96000000000004,460.61028C278.93333333333334,457.44894,284.9066666666667,454.05125999999996,290.88,450.97884C296.85333333333335,447.90641999999997,302.82666666666665,445.3371,308.8,442.17576C314.77333333333337,439.01442000000003,320.74666666666667,435.18618000000004,326.72,432.0108C332.6933333333334,428.83542,338.6666666666667,426.40884000000005,344.64000000000004,423.12348000000003C350.61333333333334,419.83812000000006,356.5866666666667,415.01304000000005,362.56,412.29864000000003C368.53333333333336,409.58424,374.50666666666666,408.79098000000005,380.48,406.83708C386.4533333333334,404.88318,392.4266666666667,403.0416,398.40000000000003,400.57524C404.37333333333333,398.10888,410.3466666666667,394.40700000000004,416.32,392.03892C422.29333333333335,389.67084,428.26666666666665,387.67014,434.24,386.36676C440.21333333333337,385.06338,446.18666666666667,385.18506,452.16,384.21864C458.1333333333333,383.25222,464.1066666666667,381.888,470.08,380.56824C476.05333333333334,379.24848,482.02666666666664,377.63388,488,376.30008C493.97333333333336,374.96628,499.94666666666666,373.9086,505.92,372.56543999999997C511.8933333333334,371.22227999999996,517.8666666666667,369.71064,523.84,368.24112C529.8133333333334,366.77160000000003,535.7866666666666,365.0771826,541.76,363.74832000000004C547.7333333333333,362.41945740000006,553.7066666666666,362.231649,559.68,360.26794440000003C565.6533333333333,358.3042398,571.6266666666667,354.79044899999997,577.6,351.9660924C583.5733333333334,349.1417358,589.5466666666666,346.2626232,595.52,343.3218048C601.4933333333333,340.3809864,607.4666666666667,337.38325920000005,613.44,334.321182C619.4133333333334,331.25910480000005,625.3866666666667,328.1377086,631.36,324.9493416C637.3333333333334,321.7609746,643.3066666666667,318.51080820000004,649.2800000000001,315.19098C655.2533333333333,311.87115180000006,661.2266666666667,308.4870906,667.1999999999999,305.03037240000003C673.1733333333333,301.5736542,679.1466666666666,298.0499184,685.12,294.4506708C691.0933333333334,290.8514232,697.0666666666666,287.18256059999993,703.04,283.43488679999996C709.0133333333333,279.68721299999993,714.9866666666667,275.86683540000007,720.96,271.96462800000006C726.9333333333334,268.0624206000001,732.9066666666666,264.0847482000001,738.88,260.0216424000001C744.8533333333334,255.95853660000006,750.8266666666667,251.81666640000006,756.8000000000001,247.58599320000002C762.7733333333333,243.35532000000003,768.7466666666667,239.04269999999997,774.7199999999999,234.6376032C780.6933333333333,230.23250639999998,786.6666666666666,225.74214000000006,792.64,221.15541240000005C798.6133333333333,216.56868480000006,804.5866666666666,211.89313079999994,810.56,207.11723759999995C816.5333333333333,202.34134439999994,822.5066666666667,197.47288080000004,828.48,192.50005320000002C834.4533333333334,187.52722560000007,840.4266666666666,182.45813040000002,846.4,177.28027200000002C852.3733333333333,172.1024136,858.3466666666667,166.82428620000005,864.32,161.43290280000002C870.2933333333334,156.04151940000003,876.2666666666667,150.4867455,882.24,144.9319716L882.24,144.9319716C876.2666666666667,150.4867455,870.2933333333334,156.04151940000003,864.32,161.43290280000002C858.3466666666667,166.82428620000005,852.3733333333333,172.1024136,846.4,177.28027200000002C840.4266666666666,182.45813040000002,834.4533333333334,187.52722560000007,828.48,192.50005320000002C822.5066666666667,197.47288080000004,816.5333333333333,202.34134439999994,810.56,207.11723759999995C804.5866666666666,211.89313079999994,798.6133333333333,216.56868480000006,792.64,221.15541240000005C786.6666666666666,225.74214000000006,780.6933333333333,230.23250639999998,774.7199999999999,234.6376032C768.7466666666667,239.04269999999997,762.7733333333333,243.35532000000003,756.8000000000001,247.58599320000002C750.8266666666667,251.81666640000006,744.8533333333334,255.95853660000006,738.88,260.0216424000001C732.9066666666666,264.0847482000001,726.9333333333334,268.0624206000001,720.96,271.96462800000006C714.9866666666667,275.86683540000007,709.0133333333333,279.68721299999993,703.04,283.43488679999996C697.0666666666666,287.18256059999993,691.0933333333334,290.8514232,685.12,294.4506708C679.1466666666666,298.0499184,673.1733333333333,301.5736542,667.1999999999999,305.03037240000003C661.2266666666667,308.4870906,655.2533333333333,311.87115180000006,649.2800000000001,315.19098C643.3066666666667,318.51080820000004,637.3333333333334,321.7609746,631.36,324.9493416C625.3866666666667,328.1377086,619.4133333333334,331.25910480000005,613.44,334.321182C607.4666666666667,337.38325920000005,601.4933333333333,340.3809864,595.52,343.3218048C589.5466666666666,346.2626232,583.5733333333334,349.1417358,577.6,351.9660924C571.6266666666667,354.79044899999997,565.6533333333333,358.3042398,559.68,360.26794440000003C553.7066666666666,362.231649,547.7333333333333,362.41945740000006,541.76,363.74832000000004C535.7866666666666,365.0771826,529.8133333333334,366.77160000000003,523.84,368.24112C517.8666666666667,369.71064,511.8933333333334,371.22227999999996,505.92,372.56543999999997C499.94666666666666,373.9086,493.97333333333336,374.96628,488,376.30008C482.02666666666664,377.63388,476.05333333333334,379.24848,470.08,380.56824C464.1066666666667,381.888,458.1333333333333,383.25222,452.16,384.21864C446.18666666666667,385.18506,440.21333333333337,385.06338,434.24,386.36676C428.26666666666665,387.67014,422.29333333333335,389.67084,416.32,392.03892C410.3466666666667,394.40700000000004,404.37333333333333,398.10888,398.40000000000003,400.57524C392.4266666666667,403.0416,386.4533333333334,404.88318,380.48,406.83708C374.50666666666666,408.79098000000005,368.53333333333336,409.58424,362.56,412.29864000000003C356.5866666666667,415.01304000000005,350.61333333333334,419.83812000000006,344.64000000000004,423.12348000000003C338.6666666666667,426.40884000000005,332.6933333333334,428.83542,326.72,432.0108C320.74666666666667,435.18618000000004,314.77333333333337,439.01442000000003,308.8,442.17576C302.82666666666665,445.3371,296.85333333333335,447.90641999999997,290.88,450.97884C284.9066666666667,454.05125999999996,278.93333333333334,457.44894,272.96000000000004,460.61028C266.9866666666667,463.77162,261.0133333333333,466.82766000000004,255.04,469.94688C249.06666666666666,473.0661,243.09333333333333,476.59482,237.12,479.3256C231.14666666666668,482.05638,225.17333333333335,484.34022000000004,219.20000000000002,486.33156C213.2266666666667,488.3229,207.25333333333333,489.67542,201.28,491.27364C195.30666666666667,492.87185999999997,189.33333333333334,494.29458,183.36,495.92088C177.38666666666668,497.54718,171.41333333333333,499.37472,165.44,501.03144000000003C159.46666666666667,502.68816000000004,153.4933333333333,504.38232,147.51999999999998,505.8612C141.54666666666665,507.34008,135.57333333333335,508.75578,129.60000000000002,509.90472C123.62666666666668,511.05366000000004,117.65333333333335,511.83054000000004,111.68,512.7548400000001C105.70666666666666,513.6791400000001,99.73333333333333,514.69938,93.75999999999999,515.45052C87.78666666666666,516.20166,81.81333333333333,516.3912,75.84,517.2616800000001C69.86666666666667,518.1321600000001,63.89333333333334,519.40278,57.92,520.6734Z"/></g></g><g id="lines"><g class="series"><clipPath id="clip-0-0"><rect width="936" y="-20" height="599.6"/></clipPath><path class="line" opacity="1" fill="none" stroke="#11A579" stroke-width="2" transform="translate(15,20)" clip-path="url(#clip-0-0)" d="M57.92,519.03072C63.89333333333334,515.22822,69.86666666666667,511.42572,75.84,509.83452C81.81333333333333,508.24332,87.78666666666666,508.36266,93.75999999999999,507.44772C99.73333333333333,506.53278,105.70666666666666,505.07262,111.68,504.34488C117.65333333333335,503.61714,123.62666666666668,503.92368,129.60000000000002,503.08128C135.57333333333335,502.23888,141.54666666666665,500.75766000000004,147.51999999999998,499.17816000000005C153.4933333333333,497.59866000000005,159.46666666666667,495.64476,165.44,493.60428C171.41333333333333,491.5638,177.38666666666668,488.90556000000004,183.36,486.93528000000003C189.33333333333334,484.96500000000003,195.30666666666667,483.35742,201.28,481.7826C207.25333333333333,480.20778,213.2266666666667,479.7702,219.20000000000002,477.48636C225.17333333333335,475.20252,231.14666666666668,471.48894,237.12,468.07956C243.09333333333333,464.67018,249.06666666666666,460.64538,255.04,457.03008C261.0133333333333,453.41478,266.9866666666667,450.29556,272.96000000000004,446.38776C278.93333333333334,442.47996,284.9066666666667,437.44662,290.88,433.58328C296.85333333333335,429.71994,302.82666666666665,426.56562,308.8,423.20772C314.77333333333337,419.84981999999997,320.74666666666667,416.82887999999997,326.72,413.43588C332.6933333333334,410.04288,338.6666666666667,406.95642000000004,344.64000000000004,402.84972000000005C350.61333333333334,398.74302000000006,356.5866666666667,392.1067800000001,362.56,388.79568000000006C368.53333333333336,385.48458000000005,374.50666666666666,385.28802,380.48,382.98312C386.4533333333334,380.67821999999995,392.4266666666667,377.69237999999996,398.40000000000003,374.96628C404.37333333333333,372.24018,410.3466666666667,369.16542000000004,416.32,366.62652C422.29333333333335,364.08762,428.26666666666665,361.70550000000003,434.24,359.73288C440.21333333333337,357.76026,446.18666666666667,356.30244,452.16,354.7908C458.1333333333333,353.27916,464.1066666666667,352.38528,470.08,350.66304C476.05333333333334,348.9408,482.02666666666664,346.25916,488,344.45736C493.97333333333336,342.65556,499.94666666666666,341.45046,505.92,339.85224000000005C511.8933333333334,338.2540200000001,517.8666666666667,336.63942000000003,523.84,334.86804C529.8133333333334,333.09666,535.7866666666666,330.81955920000007,541.76,329.22396000000003C547.7333333333333,327.6283608,553.7066666666666,327.6123551999999,559.68,325.29444479999995C565.6533333333333,322.97653439999993,571.6266666666667,318.71270340000007,577.6,315.31649760000005C583.5733333333334,311.9202918000001,589.5466666666666,308.456811,595.52,304.91721C601.4933333333333,301.377609,607.4666666666667,297.76792500000005,613.44,294.0788916C619.4133333333334,290.38985820000005,625.3866666666667,286.62781680000006,631.36,282.78300960000007C637.3333333333334,278.9382024000001,643.3066666666667,275.01720480000006,649.2800000000001,271.0100484C655.2533333333333,267.00289200000003,661.2266666666667,262.916433,667.1999999999999,258.7400712C673.1733333333333,254.56370939999996,679.1466666666666,250.3045818,685.12,245.9518776C691.0933333333334,241.5991734,697.0666666666666,237.16033380000005,703.04,232.62384600000007C709.0133333333333,228.08735820000007,714.9866666666667,223.4610144,720.96,218.73295079999997C726.9333333333334,214.00488719999998,732.9066666666666,209.18315339999998,738.88,204.2554644C744.8533333333334,199.32777539999998,750.8266666666667,194.30255520000003,756.8000000000001,189.1668168C762.7733333333333,184.0310784,768.7466666666667,178.79364359999997,774.7199999999999,173.441034C780.6933333333333,168.08842439999998,786.6666666666666,162.62978940000005,792.64,157.05115920000003C798.6133333333333,151.47252900000007,804.5866666666666,145.78342740000002,810.56,139.96925280000005C816.5333333333333,134.15507820000002,822.5066666666667,128.22579900000005,828.48,122.16611160000002C834.4533333333334,116.10642420000003,840.4266666666666,109.92669479999995,846.4,103.61112839999998C852.3733333333333,97.29556199999998,858.3466666666667,90.85492260000007,864.32,84.27271320000006C870.2933333333334,77.69050380000009,876.2666666666667,70.90418790000005,882.24,64.11787200000003"/><text class="label" font-size="11" alignment-baseline="middle" opacity="1" x="5" fill="#11A579" transform="translate(897.239990234375, 84.11787414550781)"/></g><g class="series"><clipPath id="clip-0-1"><rect width="936" y="-20" height="599.6"/></clipPath><path class="line" opacity="1" fill="none" stroke="#802392" stroke-width="2" transform="translate(15,20)" clip-path="url(#clip-0-1)" d="M57.92,520.6734C63.89333333333334,519.40278,69.86666666666667,518.1321600000001,75.84,517.2616800000001C81.81333333333333,516.3912,87.78666666666666,516.20166,93.75999999999999,515.45052C99.73333333333333,514.69938,105.70666666666666,513.6791400000001,111.68,512.7548400000001C117.65333333333335,511.83054000000004,123.62666666666668,511.05366000000004,129.60000000000002,509.90472C135.57333333333335,508.75578,141.54666666666665,507.34008,147.51999999999998,505.8612C153.4933333333333,504.38232,159.46666666666667,502.68816000000004,165.44,501.03144000000003C171.41333333333333,499.37472,177.38666666666668,497.54718,183.36,495.92088C189.33333333333334,494.29458,195.30666666666667,492.87185999999997,201.28,491.27364C207.25333333333333,489.67542,213.2266666666667,488.3229,219.20000000000002,486.33156C225.17333333333335,484.34022000000004,231.14666666666668,482.05638,237.12,479.3256C243.09333333333333,476.59482,249.06666666666666,473.0661,255.04,469.94688C261.0133333333333,466.82766000000004,266.9866666666667,463.77162,272.96000000000004,460.61028C278.93333333333334,457.44894,284.9066666666667,454.05125999999996,290.88,450.97884C296.85333333333335,447.90641999999997,302.82666666666665,445.3371,308.8,442.17576C314.77333333333337,439.01442000000003,320.74666666666667,435.18618000000004,326.72,432.0108C332.6933333333334,428.83542,338.6666666666667,426.40884000000005,344.64000000000004,423.12348000000003C350.61333333333334,419.83812000000006,356.5866666666667,415.01304000000005,362.56,412.29864000000003C368.53333333333336,409.58424,374.50666666666666,408.79098000000005,380.48,406.83708C386.4533333333334,404.88318,392.4266666666667,403.0416,398.40000000000003,400.57524C404.37333333333333,398.10888,410.3466666666667,394.40700000000004,416.32,392.03892C422.29333333333335,389.67084,428.26666666666665,387.67014,434.24,386.36676C440.21333333333337,385.06338,446.18666666666667,385.18506,452.16,384.21864C458.1333333333333,383.25222,464.1066666666667,381.888,470.08,380.56824C476.05333333333334,379.24848,482.02666666666664,377.63388,488,376.30008C493.97333333333336,374.96628,499.94666666666666,373.9086,505.92,372.56543999999997C511.8933333333334,371.22227999999996,517.8666666666667,369.71064,523.84,368.24112C529.8133333333334,366.77160000000003,535.7866666666666,365.0771826,541.76,363.74832000000004C547.7333333333333,362.41945740000006,553.7066666666666,362.231649,559.68,360.26794440000003C565.6533333333333,358.3042398,571.6266666666667,354.79044899999997,577.6,351.9660924C583.5733333333334,349.1417358,589.5466666666666,346.2626232,595.52,343.3218048C601.4933333333333,340.3809864,607.4666666666667,337.38325920000005,613.44,334.321182C619.4133333333334,331.25910480000005,625.3866666666667,328.1377086,631.36,324.9493416C637.3333333333334,321.7609746,643.3066666666667,318.51080820000004,649.2800000000001,315.19098C655.2533333333333,311.87115180000006,661.2266666666667,308.4870906,667.1999999999999,305.03037240000003C673.1733333333333,301.5736542,679.1466666666666,298.0499184,685.12,294.4506708C691.0933333333334,290.8514232,697.0666666666666,287.18256059999993,703.04,283.43488679999996C709.0133333333333,279.68721299999993,714.9866666666667,275.86683540000007,720.96,271.96462800000006C726.9333333333334,268.0624206000001,732.9066666666666,264.0847482000001,738.88,260.0216424000001C744.8533333333334,255.95853660000006,750.8266666666667,251.81666640000006,756.8000000000001,247.58599320000002C762.7733333333333,243.35532000000003,768.7466666666667,239.04269999999997,774.7199999999999,234.6376032C780.6933333333333,230.23250639999998,786.6666666666666,225.74214000000006,792.64,221.15541240000005C798.6133333333333,216.56868480000006,804.5866666666666,211.89313079999994,810.56,207.11723759999995C816.5333333333333,202.34134439999994,822.5066666666667,197.47288080000004,828.48,192.50005320000002C834.4533333333334,187.52722560000007,840.4266666666666,182.45813040000002,846.4,177.28027200000002C852.3733333333333,172.1024136,858.3466666666667,166.82428620000005,864.32,161.43290280000002C870.2933333333334,156.04151940000003,876.2666666666667,150.4867455,882.24,144.9319716"/><text class="label" font-size="11" alignment-baseline="middle" opacity="1" x="5" fill="#802392" transform="translate(897.239990234375, 164.93197631835938)"/></g></g><g id="data-points"><g class="series" transform="translate(15,20)"><path class="data-point" fill="#11A579" data-type="point" transform="translate(0, 0)" d="M54.92,519.03072A3,3,0,1,1,60.92,519.03072A3,3,0,1,1,54.92,519.03072Z" id="point-0-0" opacity="1"/><path class="data-point" fill="#11A579" data-type="point" transform="translate(0, 0)" d="M72.84,509.83452A3,3,0,1,1,78.84,509.83452A3,3,0,1,1,72.84,509.83452Z" id="point-0-1" opacity="1"/><path class="data-point" fill="#11A579" data-type="point" transform="translate(0, 0)" d="M90.75999999999999,507.44772A3,3,0,1,1,96.75999999999999,507.44772A3,3,0,1,1,90.75999999999999,507.44772Z" id="point-0-2" opacity="1"/><path class="data-point" fill="#11A579" data-type="point" transform="translate(0, 0)" d="M108.68,504.34488A3,3,0,1,1,114.68,504.34488A3,3,0,1,1,108.68,504.34488Z" id="point-0-3" opacity="1"/><path class="data-point" fill="#11A579" data-type="point" transform="translate(0, 0)" d="M126.60000000000002,503.08128A3,3,0,1,1,132.60000000000002,503.08128A3,3,0,1,1,126.60000000000002,503.08128Z" id="point-0-4" opacity="1"/><path class="data-point" fill="#11A579" data-type="point" transform="translate(0, 0)" d="M144.51999999999998,499.17816000000005A3,3,0,1,1,150.51999999999998,499.17816000000005A3,3,0,1,1,144.51999999999998,499.17816000000005Z" id="point-0-5" opacity="1"/><path class="data-point" fill="#11A579" data-type="point" transform="translate(0, 0)" d="M162.44,493.60428A3,3,0,1,1,168.44,493.60428A3,3,0,1,1,162.44,493.60428Z" id="point-0-6" opacity="1"/><path class="data-point" fill="#11A579" data-type="point" transform="translate(0, 0)" d="M180.36,486.93528000000003A3,3,0,1,1,186.36,486.93528000000003A3,3,0,1,1,180.36,486.93528000000003Z" id="point-0-7" opacity="1"/><path class="data-point" fill="#11A579" data-type="point" transform="translate(0, 0)" d="M198.28,481.7826A3,3,0,1,1,204.28,481.7826A3,3,0,1,1,198.28,481.7826Z" id="point-0-8" opacity="1"/><path class="data-point" fill="#11A579" data-type="point" transform="translate(0, 0)" d="M216.20000000000002,477.48636A3,3,0,1,1,222.20000000000002,477.48636A3,3,0,1,1,216.20000000000002,477.48636Z" id="point-0-9" opacity="1"/><path class="data-point" fill="#11A579" data-type="point" transform="translate(0, 0)" d="M234.12,468.07956A3,3,0,1,1,240.12,468.07956A3,3,0,1,1,234.12,468.07956Z" id="point-0-10" opacity="1"/><path class="data-point" fill="#11A579" data-type="point" transform="translate(0, 0)" d="M252.04,457.03008A3,3,0,1,1,258.03999999999996,457.03008A3,3,0,1,1,252.04,457.03008Z" id="point-0-11" opacity="1"/><path class="data-point" fill="#11A579" data-type="point" transform="translate(0, 0)" d="M269.96000000000004,446.38776A3,3,0,1,1,275.96000000000004,446.38776A3,3,0,1,1,269.96000000000004,446.38776Z" id="point-0-12" opacity="1"/><path class="data-point" fill="#11A579" data-type="point" transform="translate(0, 0)" d="M287.88,433.58328A3,3,0,1,1,293.88,433.58328A3,3,0,1,1,287.88,433.58328Z" id="point-0-13" opacity="1"/><path class="data-point" fill="#11A579" data-type="point" transform="translate(0, 0)" d="M305.8,423.20772A3,3,0,1,1,311.8,423.20772A3,3,0,1,1,305.8,423.20772Z" id="point-0-14" opacity="1"/><path class="data-point" fill="#11A579" data-type="point" transform="translate(0, 0)" d="M323.72,413.43588A3,3,0,1,1,329.72,413.43588A3,3,0,1,1,323.72,413.43588Z" id="point-0-15" opacity="1"/><path class="data-point" fill="#11A579" data-type="point" transform="translate(0, 0)" d="M341.64000000000004,402.84972000000005A3,3,0,1,1,347.64000000000004,402.84972000000005A3,3,0,1,1,341.64000000000004,402.84972000000005Z" id="point-0-16" opacity="1"/><path class="data-point" fill="#11A579" data-type="point" transform="translate(0, 0)" d="M359.56,388.79568000000006A3,3,0,1,1,365.56,388.79568000000006A3,3,0,1,1,359.56,388.79568000000006Z" id="point-0-17" opacity="1"/><path class="data-point" fill="#11A579" data-type="point" transform="translate(0, 0)" d="M377.48,382.98312A3,3,0,1,1,383.48,382.98312A3,3,0,1,1,377.48,382.98312Z" id="point-0-18" opacity="1"/><path class="data-point" fill="#11A579" data-type="point" transform="translate(0, 0)" d="M395.40000000000003,374.96628A3,3,0,1,1,401.40000000000003,374.96628A3,3,0,1,1,395.40000000000003,374.96628Z" id="point-0-19" opacity="1"/><path class="data-point" fill="#11A579" data-type="point" transform="translate(0, 0)" d="M413.32,366.62652A3,3,0,1,1,419.32,366.62652A3,3,0,1,1,413.32,366.62652Z" id="point-0-20" opacity="1"/><path class="data-point" fill="#11A579" data-type="point" transform="translate(0, 0)" d="M431.24,359.73288A3,3,0,1,1,437.24,359.73288A3,3,0,1,1,431.24,359.73288Z" id="point-0-21" opacity="1"/><path class="data-point" fill="#11A579" data-type="point" transform="translate(0, 0)" d="M449.16,354.7908A3,3,0,1,1,455.16,354.7908A3,3,0,1,1,449.16,354.7908Z" id="point-0-22" opacity="1"/><path class="data-point" fill="#11A579" data-type="point" transform="translate(0, 0)" d="M467.08,350.66304A3,3,0,1,1,473.08,350.66304A3,3,0,1,1,467.08,350.66304Z" id="point-0-23" opacity="1"/><path class="data-point" fill="#11A579" data-type="point" transform="translate(0, 0)" d="M485,344.45736A3,3,0,1,1,491,344.45736A3,3,0,1,1,485,344.45736Z" id="point-0-24" opacity="1"/><path class="data-point" fill="#11A579" data-type="point" transform="translate(0, 0)" d="M502.92,339.85224000000005A3,3,0,1,1,508.92,339.85224000000005A3,3,0,1,1,502.92,339.85224000000005Z" id="point-0-25" opacity="1"/><path class="data-point" fill="#11A579" data-type="point" transform="translate(0, 0)" d="M520.84,334.86804A3,3,0,1,1,526.84,334.86804A3,3,0,1,1,520.84,334.86804Z" id="point-0-26" opacity="1"/><path class="data-point" fill="#11A579" data-type="point" transform="translate(0, 0)" d="M538.76,329.22396000000003A3,3,0,1,1,544.76,329.22396000000003A3,3,0,1,1,538.76,329.22396000000003Z" id="point-0-27" opacity="1"/><path class="data-point" fill="#11A579" data-type="point" transform="translate(0, 0)" d="M556.68,325.29444479999995A3,3,0,1,1,562.68,325.29444479999995A3,3,0,1,1,556.68,325.29444479999995Z" id="point-0-28" opacity="1"/><path class="data-point" fill="#11A579" data-type="point" transform="translate(0, 0)" d="M574.6,315.31649760000005A3,3,0,1,1,580.6,315.31649760000005A3,3,0,1,1,574.6,315.31649760000005Z" id="point-0-29" opacity="1"/><path class="data-point" fill="#11A579" data-type="point" transform="translate(0, 0)" d="M592.52,304.91721A3,3,0,1,1,598.52,304.91721A3,3,0,1,1,592.52,304.91721Z" id="point-0-30" opacity="1"/><path class="data-point" fill="#11A579" data-type="point" transform="translate(0, 0)" d="M610.44,294.0788916A3,3,0,1,1,616.44,294.0788916A3,3,0,1,1,610.44,294.0788916Z" id="point-0-31" opacity="1"/><path class="data-point" fill="#11A579" data-type="point" transform="translate(0, 0)" d="M628.36,282.78300960000007A3,3,0,1,1,634.36,282.78300960000007A3,3,0,1,1,628.36,282.78300960000007Z" id="point-0-32" opacity="1"/><path class="data-point" fill="#11A579" data-type="point" transform="translate(0, 0)" d="M646.2800000000001,271.0100484A3,3,0,1,1,652.2800000000001,271.0100484A3,3,0,1,1,646.2800000000001,271.0100484Z" id="point-0-33" opacity="1"/><path class="data-point" fill="#11A579" data-type="point" transform="translate(0, 0)" d="M664.1999999999999,258.7400712A3,3,0,1,1,670.1999999999999,258.7400712A3,3,0,1,1,664.1999999999999,258.7400712Z" id="point-0-34" opacity="1"/><path class="data-point" fill="#11A579" data-type="point" transform="translate(0, 0)" d="M682.12,245.9518776A3,3,0,1,1,688.12,245.9518776A3,3,0,1,1,682.12,245.9518776Z" id="point-0-35" opacity="1"/><path class="data-point" fill="#11A579" data-type="point" transform="translate(0, 0)" d="M700.04,232.62384600000007A3,3,0,1,1,706.04,232.62384600000007A3,3,0,1,1,700.04,232.62384600000007Z" id="point-0-36" opacity="1"/><path class="data-point" fill="#11A579" data-type="point" transform="translate(0, 0)" d="M717.96,218.73295079999997A3,3,0,1,1,723.96,218.73295079999997A3,3,0,1,1,717.96,218.73295079999997Z" id="point-0-37" opacity="1"/><path class="data-point" fill="#11A579" data-type="point" transform="translate(0, 0)" d="M735.88,204.2554644A3,3,0,1,1,741.88,204.2554644A3,3,0,1,1,735.88,204.2554644Z" id="point-0-38" opacity="1"/><path class="data-point" fill="#11A579" data-type="point" transform="translate(0, 0)" d="M753.8000000000001,189.1668168A3,3,0,1,1,759.8000000000001,189.1668168A3,3,0,1,1,753.8000000000001,189.1668168Z" id="point-0-39" opacity="1"/><path class="data-point" fill="#11A579" data-type="point" transform="translate(0, 0)" d="M771.7199999999999,173.441034A3,3,0,1,1,777.7199999999999,173.441034A3,3,0,1,1,771.7199999999999,173.441034Z" id="point-0-40" opacity="1"/><path class="data-point" fill="#11A579" data-type="point" transform="translate(0, 0)" d="M789.64,157.05115920000003A3,3,0,1,1,795.64,157.05115920000003A3,3,0,1,1,789.64,157.05115920000003Z" id="point-0-41" opacity="1"/><path class="data-point" fill="#11A579" data-type="point" transform="translate(0, 0)" d="M807.56,139.96925280000005A3,3,0,1,1,813.56,139.96925280000005A3,3,0,1,1,807.56,139.96925280000005Z" id="point-0-42" opacity="1"/><path class="data-point" fill="#11A579" data-type="point" transform="translate(0, 0)" d="M825.48,122.16611160000002A3,3,0,1,1,831.48,122.16611160000002A3,3,0,1,1,825.48,122.16611160000002Z" id="point-0-43" opacity="1"/><path class="data-point" fill="#11A579" data-type="point" transform="translate(0, 0)" d="M843.4,103.61112839999998A3,3,0,1,1,849.4,103.61112839999998A3,3,0,1,1,843.4,103.61112839999998Z" id="point-0-44" opacity="1"/><path class="data-point" fill="#11A579" data-type="point" transform="translate(0, 0)" d="M861.32,84.27271320000006A3,3,0,1,1,867.32,84.27271320000006A3,3,0,1,1,861.32,84.27271320000006Z" id="point-0-45" opacity="1"/><path class="data-point" fill="#11A579" data-type="point" transform="translate(0, 0)" d="M879.24,64.11787200000003A3,3,0,1,1,885.24,64.11787200000003A3,3,0,1,1,879.24,64.11787200000003Z" id="point-0-46" opacity="1"/></g><g class="series" transform="translate(15,20)"><path class="data-point" fill="#802392" data-type="point" transform="translate(0, 0)" d="M54.92,520.6734A3,3,0,1,1,60.92,520.6734A3,3,0,1,1,54.92,520.6734Z" id="point-1-0" opacity="1"/><path class="data-point" fill="#802392" data-type="point" transform="translate(0, 0)" d="M72.84,517.2616800000001A3,3,0,1,1,78.84,517.2616800000001A3,3,0,1,1,72.84,517.2616800000001Z" id="point-1-1" opacity="1"/><path class="data-point" fill="#802392" data-type="point" transform="translate(0, 0)" d="M90.75999999999999,515.45052A3,3,0,1,1,96.75999999999999,515.45052A3,3,0,1,1,90.75999999999999,515.45052Z" id="point-1-2" opacity="1"/><path class="data-point" fill="#802392" data-type="point" transform="translate(0, 0)" d="M108.68,512.7548400000001A3,3,0,1,1,114.68,512.7548400000001A3,3,0,1,1,108.68,512.7548400000001Z" id="point-1-3" opacity="1"/><path class="data-point" fill="#802392" data-type="point" transform="translate(0, 0)" d="M126.60000000000002,509.90472A3,3,0,1,1,132.60000000000002,509.90472A3,3,0,1,1,126.60000000000002,509.90472Z" id="point-1-4" opacity="1"/><path class="data-point" fill="#802392" data-type="point" transform="translate(0, 0)" d="M144.51999999999998,505.8612A3,3,0,1,1,150.51999999999998,505.8612A3,3,0,1,1,144.51999999999998,505.8612Z" id="point-1-5" opacity="1"/><path class="data-point" fill="#802392" data-type="point" transform="translate(0, 0)" d="M162.44,501.03144000000003A3,3,0,1,1,168.44,501.03144000000003A3,3,0,1,1,162.44,501.03144000000003Z" id="point-1-6" opacity="1"/><path class="data-point" fill="#802392" data-type="point" transform="translate(0, 0)" d="M180.36,495.92088A3,3,0,1,1,186.36,495.92088A3,3,0,1,1,180.36,495.92088Z" id="point-1-7" opacity="1"/><path class="data-point" fill="#802392" data-type="point" transform="translate(0, 0)" d="M198.28,491.27364A3,3,0,1,1,204.28,491.27364A3,3,0,1,1,198.28,491.27364Z" id="point-1-8" opacity="1"/><path class="data-point" fill="#802392" data-type="point" transform="translate(0, 0)" d="M216.20000000000002,486.33156A3,3,0,1,1,222.20000000000002,486.33156A3,3,0,1,1,216.20000000000002,486.33156Z" id="point-1-9" opacity="1"/><path class="data-point" fill="#802392" data-type="point" transform="translate(0, 0)" d="M234.12,479.3256A3,3,0,1,1,240.12,479.3256A3,3,0,1,1,234.12,479.3256Z" id="point-1-10" opacity="1"/><path class="data-point" fill="#802392" data-type="point" transform="translate(0, 0)" d="M252.04,469.94688A3,3,0,1,1,258.03999999999996,469.94688A3,3,0,1,1,252.04,469.94688Z" id="point-1-11" opacity="1"/><path class="data-point" fill="#802392" data-type="point" transform="translate(0, 0)" d="M269.96000000000004,460.61028A3,3,0,1,1,275.96000000000004,460.61028A3,3,0,1,1,269.96000000000004,460.61028Z" id="point-1-12" opacity="1"/><path class="data-point" fill="#802392" data-type="point" transform="translate(0, 0)" d="M287.88,450.97884A3,3,0,1,1,293.88,450.97884A3,3,0,1,1,287.88,450.97884Z" id="point-1-13" opacity="1"/><path class="data-point" fill="#802392" data-type="point" transform="translate(0, 0)" d="M305.8,442.17576A3,3,0,1,1,311.8,442.17576A3,3,0,1,1,305.8,442.17576Z" id="point-1-14" opacity="1"/><path class="data-point" fill="#802392" data-type="point" transform="translate(0, 0)" d="M323.72,432.0108A3,3,0,1,1,329.72,432.0108A3,3,0,1,1,323.72,432.0108Z" id="point-1-15" opacity="1"/><path class="data-point" fill="#802392" data-type="point" transform="translate(0, 0)" d="M341.64000000000004,423.12348000000003A3,3,0,1,1,347.64000000000004,423.12348000000003A3,3,0,1,1,341.64000000000004,423.12348000000003Z" id="point-1-16" opacity="1"/><path class="data-point" fill="#802392" data-type="point" transform="translate(0, 0)" d="M359.56,412.29864000000003A3,3,0,1,1,365.56,412.29864000000003A3,3,0,1,1,359.56,412.29864000000003Z" id="point-1-17" opacity="1"/><path class="data-point" fill="#802392" data-type="point" transform="translate(0, 0)" d="M377.48,406.83708A3,3,0,1,1,383.48,406.83708A3,3,0,1,1,377.48,406.83708Z" id="point-1-18" opacity="1"/><path class="data-point" fill="#802392" data-type="point" transform="translate(0, 0)" d="M395.40000000000003,400.57524A3,3,0,1,1,401.40000000000003,400.57524A3,3,0,1,1,395.40000000000003,400.57524Z" id="point-1-19" opacity="1"/><path class="data-point" fill="#802392" data-type="point" transform="translate(0, 0)" d="M413.32,392.03892A3,3,0,1,1,419.32,392.03892A3,3,0,1,1,413.32,392.03892Z" id="point-1-20" opacity="1"/><path class="data-point" fill="#802392" data-type="point" transform="translate(0, 0)" d="M431.24,386.36676A3,3,0,1,1,437.24,386.36676A3,3,0,1,1,431.24,386.36676Z" id="point-1-21" opacity="1"/><path class="data-point" fill="#802392" data-type="point" transform="translate(0, 0)" d="M449.16,384.21864A3,3,0,1,1,455.16,384.21864A3,3,0,1,1,449.16,384.21864Z" id="point-1-22" opacity="1"/><path class="data-point" fill="#802392" data-type="point" transform="translate(0, 0)" d="M467.08,380.56824A3,3,0,1,1,473.08,380.56824A3,3,0,1,1,467.08,380.56824Z" id="point-1-23" opacity="1"/><path class="data-point" fill="#802392" data-type="point" transform="translate(0, 0)" d="M485,376.30008A3,3,0,1,1,491,376.30008A3,3,0,1,1,485,376.30008Z" id="point-1-24" opacity="1"/><path class="data-point" fill="#802392" data-type="point" transform="translate(0, 0)" d="M502.92,372.56543999999997A3,3,0,1,1,508.92,372.56543999999997A3,3,0,1,1,502.92,372.56543999999997Z" id="point-1-25" opacity="1"/><path class="data-point" fill="#802392" data-type="point" transform="translate(0, 0)" d="M520.84,368.24112A3,3,0,1,1,526.84,368.24112A3,3,0,1,1,520.84,368.24112Z" id="point-1-26" opacity="1"/><path class="data-point" fill="#802392" data-type="point" transform="translate(0, 0)" d="M538.76,363.74832000000004A3,3,0,1,1,544.76,363.74832000000004A3,3,0,1,1,538.76,363.74832000000004Z" id="point-1-27" opacity="1"/><path class="data-point" fill="#802392" data-type="point" transform="translate(0, 0)" d="M556.68,360.26794440000003A3,3,0,1,1,562.68,360.26794440000003A3,3,0,1,1,556.68,360.26794440000003Z" id="point-1-28" opacity="1"/><path class="data-point" fill="#802392" data-type="point" transform="translate(0, 0)" d="M574.6,351.9660924A3,3,0,1,1,580.6,351.9660924A3,3,0,1,1,574.6,351.9660924Z" id="point-1-29" opacity="1"/><path class="data-point" fill="#802392" data-type="point" transform="translate(0, 0)" d="M592.52,343.3218048A3,3,0,1,1,598.52,343.3218048A3,3,0,1,1,592.52,343.3218048Z" id="point-1-30" opacity="1"/><path class="data-point" fill="#802392" data-type="point" transform="translate(0, 0)" d="M610.44,334.321182A3,3,0,1,1,616.44,334.321182A3,3,0,1,1,610.44,334.321182Z" id="point-1-31" opacity="1"/><path class="data-point" fill="#802392" data-type="point" transform="translate(0, 0)" d="M628.36,324.9493416A3,3,0,1,1,634.36,324.9493416A3,3,0,1,1,628.36,324.9493416Z" id="point-1-32" opacity="1"/><path class="data-point" fill="#802392" data-type="point" transform="translate(0, 0)" d="M646.2800000000001,315.19098A3,3,0,1,1,652.2800000000001,315.19098A3,3,0,1,1,646.2800000000001,315.19098Z" id="point-1-33" opacity="1"/><path class="data-point" fill="#802392" data-type="point" transform="translate(0, 0)" d="M664.1999999999999,305.03037240000003A3,3,0,1,1,670.1999999999999,305.03037240000003A3,3,0,1,1,664.1999999999999,305.03037240000003Z" id="point-1-34" opacity="1"/><path class="data-point" fill="#802392" data-type="point" transform="translate(0, 0)" d="M682.12,294.4506708A3,3,0,1,1,688.12,294.4506708A3,3,0,1,1,682.12,294.4506708Z" id="point-1-35" opacity="1"/><path class="data-point" fill="#802392" data-type="point" transform="translate(0, 0)" d="M700.04,283.43488679999996A3,3,0,1,1,706.04,283.43488679999996A3,3,0,1,1,700.04,283.43488679999996Z" id="point-1-36" opacity="1"/><path class="data-point" fill="#802392" data-type="point" transform="translate(0, 0)" d="M717.96,271.96462800000006A3,3,0,1,1,723.96,271.96462800000006A3,3,0,1,1,717.96,271.96462800000006Z" id="point-1-37" opacity="1"/><path class="data-point" fill="#802392" data-type="point" transform="translate(0, 0)" d="M735.88,260.0216424000001A3,3,0,1,1,741.88,260.0216424000001A3,3,0,1,1,735.88,260.0216424000001Z" id="point-1-38" opacity="1"/><path class="data-point" fill="#802392" data-type="point" transform="translate(0, 0)" d="M753.8000000000001,247.58599320000002A3,3,0,1,1,759.8000000000001,247.58599320000002A3,3,0,1,1,753.8000000000001,247.58599320000002Z" id="point-1-39" opacity="1"/><path class="data-point" fill="#802392" data-type="point" transform="translate(0, 0)" d="M771.7199999999999,234.6376032A3,3,0,1,1,777.7199999999999,234.6376032A3,3,0,1,1,771.7199999999999,234.6376032Z" id="point-1-40" opacity="1"/><path class="data-point" fill="#802392" data-type="point" transform="translate(0, 0)" d="M789.64,221.15541240000005A3,3,0,1,1,795.64,221.15541240000005A3,3,0,1,1,789.64,221.15541240000005Z" id="point-1-41" opacity="1"/><path class="data-point" fill="#802392" data-type="point" transform="translate(0, 0)" d="M807.56,207.11723759999995A3,3,0,1,1,813.56,207.11723759999995A3,3,0,1,1,807.56,207.11723759999995Z" id="point-1-42" opacity="1"/><path class="data-point" fill="#802392" data-type="point" transform="translate(0, 0)" d="M825.48,192.50005320000002A3,3,0,1,1,831.48,192.50005320000002A3,3,0,1,1,825.48,192.50005320000002Z" id="point-1-43" opacity="1"/><path class="data-point" fill="#802392" data-type="point" transform="translate(0, 0)" d="M843.4,177.28027200000002A3,3,0,1,1,849.4,177.28027200000002A3,3,0,1,1,843.4,177.28027200000002Z" id="point-1-44" opacity="1"/><path class="data-point" fill="#802392" data-type="point" transform="translate(0, 0)" d="M861.32,161.43290280000002A3,3,0,1,1,867.32,161.43290280000002A3,3,0,1,1,861.32,161.43290280000002Z" id="point-1-45" opacity="1"/><path class="data-point" fill="#802392" data-type="point" transform="translate(0, 0)" d="M879.24,144.9319716A3,3,0,1,1,885.24,144.9319716A3,3,0,1,1,879.24,144.9319716Z" id="point-1-46" opacity="1"/></g></g><g id="data-labels"/><g class="annotations above"><g class="axis-highlights" transform="translate(15, 20)" style="opacity: 1;"/></g></svg>