<svg xmlns="http://www.w3.org/2000/svg" id="graphic" width="883" height="598.18"><g id="facets"><g class="facet" transform="translate(50,10)" opacity="1"><text class="facet-title" y="0" font-size="16" font-weight="bold" dominant-baseline="middle" x="0" clip-path="url(#facet-clip-0)" fill="black"/><g class="plot"><clipPath class="facet-clip" id="facet-clip-0"><rect width="838" height="563.18" transform="translate(-7.5,-10)"/></clipPath><g class="bg"><rect fill="none" width="823" height="543.18" style="fill: none;"/></g><g class="interaction"><g class="series"><path data-target="point-0-0" d="M0,502.8013565L24.861508040550003,502.8013565L24.227704620299995,496.7041615L0,451.86917471815866Z" style="opacity: 0;"/><path data-target="point-0-1" d="M0,451.86917471815866L24.227704620299995,496.7041615L40.860960424999995,496.70416149999994L41.530904975,494.67402649999997L0,198.55349191889488Z" style="opacity: 0;"/><path data-target="point-0-2" d="M0,198.55349191889488L41.530904975,494.67402649999997L57.20346228407503,494.67402649999997L58.07794174858748,491.869859L0,173.32916478701597Z" style="opacity: 0;"/><path data-target="point-0-3" d="M0,173.32916478701597L58.07794174858748,491.869859L73.6197031827,491.869859L74.26963901925001,489.88046249999996L65.91587537307387,377.37186120470267L59.501949789970816,335.11938700771276L48.548538985491135,283.05326065392467L2.7110116345355664,103.82539222399123L0,97.30540272294368Z" style="opacity: 0;"/><path data-target="point-0-4" d="M65.91587537307387,377.37186120470267L74.26963901925001,489.88046249999996L90.21057756919998,489.88046249999996L90.838331374175,486.037464Z" style="opacity: 0;"/><path data-target="point-0-5" d="M59.501949789970816,335.11938700771276L65.91587537307387,377.37186120470267L90.838331374175,486.037464L106.7356451014,486.037464L107.28354327144999,481.00625949999994Z" style="opacity: 0;"/><path data-target="point-0-6" d="M48.548538985491135,283.05326065392467L59.501949789970816,335.11938700771276L107.28354327144999,481.00625949999994L123.11357135745,481.00625949999994L123.88902092746875,475.30965899999995Z" style="opacity: 0;"/><path data-target="point-0-7" d="M2.7110116345355664,103.82539222399123L48.548538985491135,283.05326065392467L123.88902092746875,475.30965899999995L139.33707970225626,475.30965899999995L140.54523187784375,470.57041399999997L73.49806649015673,249.12818094124444L46.387291389307336,187.41635826183193Z" style="opacity: 0;"/><path data-target="point-0-8" d="M73.49806649015673,249.12818094124444L140.54523187784375,470.57041399999997L155.7311551384,470.57041399999997L156.92535945355,466.10275849999994L139.45344731412513,396.8933620277287L111.6184671096402,327.75531407864446Z" style="opacity: 0;"/><path data-target="point-0-9" d="M139.45344731412513,396.8933620277287L156.92535945355,466.10275849999994L172.46383276250626,466.10275849999994L173.3216474107875,458.16553999999996Z" style="opacity: 0;"/><path data-target="point-0-10" d="M111.6184671096402,327.75531407864446L139.45344731412513,396.8933620277287L173.3216474107875,458.16553999999996L188.7923363093,458.16554L189.87631932074373,448.28645399999994Z" style="opacity: 0;"/><path data-target="point-0-11" d="M46.387291389307336,187.41635826183193L73.49806649015673,249.12818094124444L111.6184671096402,327.75531407864446L189.87631932074373,448.28645399999994L204.80011830315624,448.28645399999994L206.8327222351,438.6246395L82.74050392017037,240.18821459405933Z" style="opacity: 0;"/><path data-target="point-0-12" d="M82.74050392017037,240.18821459405933L206.8327222351,438.6246395L220.9534506444,438.6246395L223.8805145952,427.77461900000003Z" style="opacity: 0;"/><path data-target="point-0-13" d="M0,97.30540272294368L2.7110116345355664,103.82539222399123L46.387291389307336,187.41635826183193L82.74050392017037,240.18821459405933L223.8805145952,427.77461900000003L236.5205533523,427.77461900000003L241.20339911495,418.4998205L0,22.87364737965993Z" style="opacity: 0;"/><path data-target="point-0-14" d="M0,22.87364737965993L241.20339911495,418.4998205L252.58719026845,418.4998205L257.5744687650625,408.858376L114.25226888846893,159.25507568507726L6.910368112380965,0L0,0Z" style="opacity: 0;"/><path data-target="point-0-15" d="M114.25226888846893,159.25507568507726L257.5744687650625,408.858376L269.143413878625,408.858376L274.504259436,399.4409925L191.30409781045688,265.68943957067074Z" style="opacity: 0;"/><path data-target="point-0-16" d="M191.30409781045688,265.68943957067074L274.504259436,399.4409925L285.14345387654373,399.4409925L291.82360885034376,387.4095555Z" style="opacity: 0;"/><path data-target="point-0-17" d="M6.910368112380965,0L114.25226888846893,159.25507568507726L191.30409781045688,265.68943957067074L291.82360885034376,387.4095555L301.7099845182062,387.4095555L307.48996534494995,381.9573865L252.79821315659677,221.82928757347733L167.44606183524095,11.763994204707558L162.3378415708188,0Z" style="opacity: 0;"/><path data-target="point-0-18" d="M252.79821315659677,221.82928757347733L307.48996534494995,381.9573865L317.83964440185,381.9573865L324.9776971553437,375.052211Z" style="opacity: 0;"/><path data-target="point-0-19" d="M167.44606183524095,11.763994204707558L252.79821315659677,221.82928757347733L324.9776971553437,375.052211L333.28862186239996,375.052211L341.4760174568,366.89093149999997Z" style="opacity: 0;"/><path data-target="point-0-20" d="M162.3378415708188,0L167.44606183524095,11.763994204707558L341.4760174568,366.89093149999997L350.708188299625,366.89093149999997L357.7570034090875,360.8141045L211.6002190684193,0Z" style="opacity: 0;"/><path data-target="point-0-21" d="M211.6002190684193,0L357.7570034090875,360.8141045L368.8553292378,360.8141045L373.7887204896,357.38528099999996L270.0040348871996,0Z" style="opacity: 0;"/><path data-target="point-0-22" d="M270.0040348871996,0L373.7887204896,357.38528099999996L384.13604707549996,357.38528099999996L389.83362369155,353.62375949999995L350.4925586235297,191.42600617895127L292.3756231476002,0Z" style="opacity: 0;"/><path data-target="point-0-23" d="M350.4925586235297,191.42600617895127L389.83362369155,353.62375949999995L400.16056065820004,353.6237595L407.79096114827496,348.558606Z" style="opacity: 0;"/><path data-target="point-0-24" d="M292.3756231476002,0L350.4925586235297,191.42600617895127L407.79096114827496,348.558606L416.74699870372496,348.558606L423.4082873127,344.5254945L330.17968850100016,0Z" style="opacity: 0;"/><path data-target="point-0-25" d="M330.17968850100016,0L423.4082873127,344.5254945L432.70149298955,344.5254945L440.21084370215,340.0238905L341.9737149548357,4.600454097570207L339.91142855328025,0Z" style="opacity: 0;"/><path data-target="point-0-26" d="M341.9737149548357,4.600454097570207L440.21084370215,340.0238905L448.962839908,340.0238905L457.28199486557503,335.12169099999994L361.2308370159026,45.50565647664172L357.3068557284432,36.587169000954816Z" style="opacity: 0;"/><path data-target="point-0-27" d="M361.2308370159026,45.50565647664172L457.28199486557503,335.12169099999994L466.03972658540414,335.12169099999994L472.5764904210087,331.53826449999997L455.85446579954635,259.11752034744393L413.0148082380442,154.27408673951652Z" style="opacity: 0;"/><path data-target="point-0-28" d="M455.85446579954635,259.11752034744393L472.5764904210087,331.53826449999997L479.2778600001956,331.53826449999997L493.13248548160266,322.69814549999995Z" style="opacity: 0;"/><path data-target="point-0-29" d="M413.0148082380442,154.27408673951652L455.85446579954635,259.11752034744393L493.13248548160266,322.69814549999995L495.1507190574473,322.69814549999995L510.3059422617679,313.48866449999997Z" style="opacity: 0;"/><path data-target="point-0-30" d="M357.3068557284432,36.587169000954816L361.2308370159026,45.50565647664172L413.0148082380442,154.27408673951652L510.3059422617679,313.48866449999997L510.96940714309636,313.48866449999997L526.9262484737209,304.2532991018774L527.333691996528,303.56101652102745Z" style="opacity: 0;"/><path data-target="point-0-31" d="M339.91142855328025,0L341.9737149548357,4.600454097570207L357.3068557284432,36.587169000954816L527.333691996528,303.56101652102745L543.0083198200548,294.9199483512139L544.2295625106722,292.9510924329076L349.7821892451065,0Z" style="opacity: 0;"/><path data-target="point-0-32" d="M349.7821892451065,0L544.2295625106722,292.9510924329076L559.0509083796334,285.16805754777306L561.1710436463021,281.92445080661804L366.1392882994396,0Z" style="opacity: 0;"/><path data-target="point-0-33" d="M366.1392882994396,0L561.1710436463021,281.92445080661804L575.0499684835801,274.9817167405438L578.1622865220776,270.46255394716314L383.1608883586705,0Z" style="opacity: 0;"/><path data-target="point-0-34" d="M383.1608883586705,0L578.1622865220776,270.46255394716314L591.0016885455401,264.3438305597674L595.2083570228059,258.54586475024865L400.9258733216284,0Z" style="opacity: 0;"/><path data-target="point-0-35" d="M400.9258733216284,0L595.2083570228059,258.54586475024865L606.9011426359424,253.23706075558238L612.3142015660944,246.154348045417L419.5349244947249,0Z" style="opacity: 0;"/><path data-target="point-0-36" d="M419.5349244947249,0L612.3142015660944,246.154348045417L622.7439047484428,241.6426282491441L629.4859380231588,233.26698030800648L439.0844438072156,0Z" style="opacity: 0;"/><path data-target="point-0-37" d="M439.0844438072156,0L629.4859380231588,233.26698030800648L638.5239948345346,229.54171589812654L646.7296783448003,219.8619176061278L459.69160894245954,0Z" style="opacity: 0;"/><path data-target="point-0-38" d="M459.69160894245954,0L646.7296783448003,219.8619176061278L654.2358796670173,216.91383679805529L664.0522964659588,205.91674600840224L481.4825437435799,0Z" style="opacity: 0;"/><path data-target="point-0-39" d="M481.4825437435799,0L664.0522964659588,205.91674600840224L669.872997342002,203.738253954076L681.4615894260926,191.40781159256966L504.5897126549702,0Z" style="opacity: 0;"/><path data-target="point-0-40" d="M504.5897126549702,0L681.4615894260926,191.40781159256966L685.4280542579841,189.9931013664463L698.9658033851521,176.31056885063046L529.1645757483702,0Z" style="opacity: 0;"/><path data-target="point-0-41" d="M529.1645757483702,0L698.9658033851521,176.31056885063046L700.8933265223856,175.65537595087548L716.3564731617308,160.8083887513532L716.47732655409,160.5033771169278L555.3729491245729,-2.842170943040401e-14Z" style="opacity: 0;"/><path data-target="point-0-42" d="M555.3729491245729,-2.842170943040401e-14L716.47732655409,160.5033771169278L732.3635416624389,146.01143879059805L733.446193261654,143.43618787637357L583.3940504335077,0Z" style="opacity: 0;"/><path data-target="point-0-43" d="M583.3940504335077,0L733.446193261654,143.43618787637357L748.3150008890485,130.54793987055254L750.4763361661824,125.70094566950833L613.4241521710735,0Z" style="opacity: 0;"/><path data-target="point-0-44" d="M613.4241521710735,0L750.4763361661824,125.70094566950833L770.1270190513364,109.51449509777794L645.6814800341926,0Z" style="opacity: 0;"/><path data-target="point-0-45" d="M645.6814800341926,0L770.1270190513364,109.51449509777794L800.1316133771923,101.096594L680.4016825698579,1.4210854715202004e-14Z" style="opacity: 0;"/><path data-target="point-0-46" d="M680.4016825698579,1.4210854715202004e-14L800.1316133771923,101.096594L823,101.096594L823,0Z" style="opacity: 0;"/><path data-target="point-1-0" d="M32.95641536964377,543.18L24.861508040550003,502.8013565L0,502.8013565L0,543.18Z" style="opacity: 0;"/><path data-target="point-1-1" d="M24.227704620299995,496.7041615L24.861508040550003,502.8013565L32.95641536964377,543.18L45.80715012558126,543.18L40.860960424999995,496.70416149999994Z" style="opacity: 0;"/><path data-target="point-1-2" d="M40.860960424999995,496.70416149999994L45.80715012558126,543.18L64.88681143337494,543.18L57.20346228407503,494.67402649999997L41.530904975,494.67402649999997Z" style="opacity: 0;"/><path data-target="point-1-3" d="M57.20346228407503,494.67402649999997L64.88681143337494,543.18L82.21286748804377,543.18L73.6197031827,491.869859L58.07794174858748,491.869859Z" style="opacity: 0;"/><path data-target="point-1-4" d="M73.6197031827,491.869859L82.21286748804377,543.18L102.87454767919994,543.18L90.21057756919998,489.88046249999996L74.26963901925001,489.88046249999996Z" style="opacity: 0;"/><path data-target="point-1-5" d="M90.21057756919998,489.88046249999996L102.87454767919994,543.18L122.95269681820004,543.18L106.7356451014,486.037464L90.838331374175,486.037464Z" style="opacity: 0;"/><path data-target="point-1-6" d="M106.7356451014,486.037464L122.95269681820004,543.18L141.7843456296001,543.18L123.11357135745,481.00625949999994L107.28354327144999,481.00625949999994Z" style="opacity: 0;"/><path data-target="point-1-7" d="M123.11357135745,481.00625949999994L141.7843456296001,543.18L157.87077100915613,543.18L139.33707970225626,475.30965899999995L123.88902092746875,475.30965899999995Z" style="opacity: 0;"/><path data-target="point-1-8" d="M139.33707970225626,475.30965899999995L157.87077100915613,543.18L176.8169789128,543.18L155.7311551384,470.57041399999997L140.54523187784375,470.57041399999997Z" style="opacity: 0;"/><path data-target="point-1-9" d="M155.7311551384,470.57041399999997L176.8169789128,543.18L204.19460849836864,543.18L172.46383276250626,466.10275849999994L156.92535945355,466.10275849999994Z" style="opacity: 0;"/><path data-target="point-1-10" d="M172.46383276250626,466.10275849999994L204.19460849836864,543.18L235.64380521530023,543.18L188.7923363093,458.16554L173.3216474107875,458.16553999999996Z" style="opacity: 0;"/><path data-target="point-1-11" d="M188.7923363093,458.16554L235.64380521530023,543.18L256.86109285995593,543.18L204.80011830315624,448.28645399999994L189.87631932074373,448.28645399999994Z" style="opacity: 0;"/><path data-target="point-1-12" d="M204.80011830315624,448.28645399999994L256.86109285995593,543.18L280.126556919375,543.18L220.9534506444,438.6246395L206.8327222351,438.6246395Z" style="opacity: 0;"/><path data-target="point-1-13" d="M220.9534506444,438.6246395L280.126556919375,543.18L296.21686830344373,543.18L236.5205533523,427.77461900000003L223.8805145952,427.77461900000003Z" style="opacity: 0;"/><path data-target="point-1-14" d="M236.5205533523,427.77461900000003L296.21686830344373,543.18L327.05866148380005,543.18L252.58719026845,418.4998205L241.20339911495,418.4998205Z" style="opacity: 0;"/><path data-target="point-1-15" d="M252.58719026845,418.4998205L327.05866148380005,543.18L339.28951989178125,543.18L269.143413878625,408.858376L257.5744687650625,408.858376Z" style="opacity: 0;"/><path data-target="point-1-16" d="M269.143413878625,408.858376L339.28951989178125,543.18L364.13642856300004,543.18L326.3732162211491,464.2600160044913L285.14345387654373,399.4409925L274.504259436,399.4409925Z" style="opacity: 0;"/><path data-target="point-1-17" d="M285.14345387654373,399.4409925L326.3732162211491,464.2600160044913L301.7099845182062,387.4095555L291.82360885034376,387.4095555Z" style="opacity: 0;"/><path data-target="point-1-18" d="M301.7099845182062,387.4095555L326.3732162211491,464.2600160044913L364.13642856300004,543.18L377.16150503917476,543.18L317.83964440185,381.9573865L307.48996534494995,381.9573865Z" style="opacity: 0;"/><path data-target="point-1-19" d="M317.83964440185,381.9573865L377.16150503917476,543.18L406.32044174108137,543.18L386.3420528423726,480.8206140701203L333.28862186239996,375.052211L324.9776971553437,375.052211Z" style="opacity: 0;"/><path data-target="point-1-20" d="M333.28862186239996,375.052211L386.3420528423726,480.8206140701203L381.15173443374795,458.2306872303562L350.708188299625,366.89093149999997L341.4760174568,366.89093149999997Z" style="opacity: 0;"/><path data-target="point-1-21" d="M350.708188299625,366.89093149999997L381.15173443374795,458.2306872303562L368.8553292378,360.8141045L357.7570034090875,360.8141045Z" style="opacity: 0;"/><path data-target="point-1-22" d="M368.8553292378,360.8141045L381.15173443374795,458.2306872303562L386.3420528423726,480.8206140701203L406.32044174108137,543.18L423.9890143009999,543.18L384.13604707549996,357.38528099999996L373.7887204896,357.38528099999996Z" style="opacity: 0;"/><path data-target="point-1-23" d="M384.13604707549996,357.38528099999996L423.9890143009999,543.18L447.70126577559944,543.18L400.16056065820004,353.6237595L389.83362369155,353.62375949999995Z" style="opacity: 0;"/><path data-target="point-1-24" d="M400.16056065820004,353.6237595L447.70126577559944,543.18L459.4566636170256,543.18L416.74699870372496,348.558606L407.79096114827496,348.558606Z" style="opacity: 0;"/><path data-target="point-1-25" d="M416.74699870372496,348.558606L459.4566636170256,543.18L483.1796028370999,543.18L432.70149298955,344.5254945L423.4082873127,344.5254945Z" style="opacity: 0;"/><path data-target="point-1-26" d="M432.70149298955,344.5254945L483.1796028370999,543.18L502.5960528159998,543.18L448.962839908,340.0238905L440.21084370215,340.0238905Z" style="opacity: 0;"/><path data-target="point-1-27" d="M448.962839908,340.0238905L502.5960528159998,543.18L508.5895720920018,543.18L466.03972658540414,335.12169099999994L457.28199486557503,335.12169099999994Z" style="opacity: 0;"/><path data-target="point-1-28" d="M466.03972658540414,335.12169099999994L508.5895720920018,543.18L582.5214688738072,543.18L479.2778600001956,331.53826449999997L472.5764904210087,331.53826449999997Z" style="opacity: 0;"/><path data-target="point-1-29" d="M479.2778600001956,331.53826449999997L582.5214688738072,543.18L607.1432045248306,543.18L495.1507190574473,322.69814549999995L493.13248548160266,322.69814549999995Z" style="opacity: 0;"/><path data-target="point-1-30" d="M495.1507190574473,322.69814549999995L607.1432045248306,543.18L632.4491914064648,543.18L510.96940714309636,313.48866449999997L510.3059422617679,313.48866449999997Z" style="opacity: 0;"/><path data-target="point-1-31" d="M510.96940714309636,313.48866449999997L632.4491914064648,543.18L658.5021665666372,543.18L526.9262484737209,304.2532991018774Z" style="opacity: 0;"/><path data-target="point-1-32" d="M526.9262484737209,304.2532991018774L658.5021665666372,543.18L685.362624342322,543.18L543.0083198200548,294.9199483512139L527.333691996528,303.56101652102745Z" style="opacity: 0;"/><path data-target="point-1-33" d="M543.0083198200548,294.9199483512139L685.362624342322,543.18L713.0954494874103,543.18L559.0509083796334,285.16805754777306L544.2295625106722,292.9510924329076Z" style="opacity: 0;"/><path data-target="point-1-34" d="M559.0509083796334,285.16805754777306L713.0954494874103,543.18L741.7809386241751,543.18L575.0499684835801,274.9817167405438L561.1710436463021,281.92445080661804Z" style="opacity: 0;"/><path data-target="point-1-35" d="M575.0499684835801,274.9817167405438L741.7809386241751,543.18L771.4909349851945,543.18L591.0016885455401,264.3438305597674L578.1622865220776,270.46255394716314Z" style="opacity: 0;"/><path data-target="point-1-36" d="M591.0016885455401,264.3438305597674L771.4909349851945,543.18L802.322754146689,543.18L606.9011426359424,253.23706075558238L595.2083570228059,258.54586475024865Z" style="opacity: 0;"/><path data-target="point-1-37" d="M606.9011426359424,253.23706075558238L802.322754146689,543.18L823,543.18L823,526.9979588112327L622.7439047484428,241.6426282491441L612.3142015660944,246.154348045417Z" style="opacity: 0;"/><path data-target="point-1-38" d="M622.7439047484428,241.6426282491441L823,526.9979588112327L823,481.9970582074841L638.5239948345346,229.54171589812654L629.4859380231588,233.26698030800648Z" style="opacity: 0;"/><path data-target="point-1-39" d="M638.5239948345346,229.54171589812654L823,481.9970582074841L823,438.7219886645013L654.2358796670173,216.91383679805529L646.7296783448003,219.8619176061278Z" style="opacity: 0;"/><path data-target="point-1-40" d="M654.2358796670173,216.91383679805529L823,438.7219886645013L823,397.0260737224896L669.872997342002,203.738253954076L664.0522964659588,205.91674600840224Z" style="opacity: 0;"/><path data-target="point-1-41" d="M669.872997342002,203.738253954076L823,397.0260737224896L823,356.7686517003999L685.4280542579841,189.9931013664463L681.4615894260926,191.40781159256966Z" style="opacity: 0;"/><path data-target="point-1-42" d="M685.4280542579841,189.9931013664463L823,356.7686517003999L823,317.8191162172064L700.8933265223856,175.65537595087548L698.9658033851521,176.31056885063046Z" style="opacity: 0;"/><path data-target="point-1-43" d="M700.8933265223856,175.65537595087548L823,317.8191162172064L823,280.05313695652995L716.3564731617308,160.8083887513532Z" style="opacity: 0;"/><path data-target="point-1-44" d="M716.3564731617308,160.8083887513532L823,280.05313695652995L823,243.34417026168956L732.3635416624389,146.01143879059805L716.47732655409,160.5033771169278Z" style="opacity: 0;"/><path data-target="point-1-45" d="M732.3635416624389,146.01143879059805L823,243.34417026168956L823,207.5740700593601L748.3150008890485,130.54793987055254L733.446193261654,143.43618787637357Z" style="opacity: 0;"/><path data-target="point-1-46" d="M748.3150008890485,130.54793987055254L823,207.5740700593601L823,101.096594L800.1316133771923,101.096594L770.1270190513364,109.51449509777794L750.4763361661824,125.70094566950833Z" style="opacity: 0;"/></g><g class="series"><path data-target="point-0-0" d="M0,502.8013565L24.861508040550003,502.8013565L24.227704620299995,496.7041615L0,451.86917471815866Z" style="opacity: 0;"/><path data-target="point-0-1" d="M0,451.86917471815866L24.227704620299995,496.7041615L40.860960424999995,496.70416149999994L41.530904975,494.67402649999997L0,198.55349191889488Z" style="opacity: 0;"/><path data-target="point-0-2" d="M0,198.55349191889488L41.530904975,494.67402649999997L57.20346228407503,494.67402649999997L58.07794174858748,491.869859L0,173.32916478701597Z" style="opacity: 0;"/><path data-target="point-0-3" d="M0,173.32916478701597L58.07794174858748,491.869859L73.6197031827,491.869859L74.26963901925001,489.88046249999996L65.91587537307387,377.37186120470267L59.501949789970816,335.11938700771276L48.548538985491135,283.05326065392467L2.7110116345355664,103.82539222399123L0,97.30540272294368Z" style="opacity: 0;"/><path data-target="point-0-4" d="M65.91587537307387,377.37186120470267L74.26963901925001,489.88046249999996L90.21057756919998,489.88046249999996L90.838331374175,486.037464Z" style="opacity: 0;"/><path data-target="point-0-5" d="M59.501949789970816,335.11938700771276L65.91587537307387,377.37186120470267L90.838331374175,486.037464L106.7356451014,486.037464L107.28354327144999,481.00625949999994Z" style="opacity: 0;"/><path data-target="point-0-6" d="M48.548538985491135,283.05326065392467L59.501949789970816,335.11938700771276L107.28354327144999,481.00625949999994L123.11357135745,481.00625949999994L123.88902092746875,475.30965899999995Z" style="opacity: 0;"/><path data-target="point-0-7" d="M2.7110116345355664,103.82539222399123L48.548538985491135,283.05326065392467L123.88902092746875,475.30965899999995L139.33707970225626,475.30965899999995L140.54523187784375,470.57041399999997L73.49806649015673,249.12818094124444L46.387291389307336,187.41635826183193Z" style="opacity: 0;"/><path data-target="point-0-8" d="M73.49806649015673,249.12818094124444L140.54523187784375,470.57041399999997L155.7311551384,470.57041399999997L156.92535945355,466.10275849999994L139.45344731412513,396.8933620277287L111.6184671096402,327.75531407864446Z" style="opacity: 0;"/><path data-target="point-0-9" d="M139.45344731412513,396.8933620277287L156.92535945355,466.10275849999994L172.46383276250626,466.10275849999994L173.3216474107875,458.16553999999996Z" style="opacity: 0;"/><path data-target="point-0-10" d="M111.6184671096402,327.75531407864446L139.45344731412513,396.8933620277287L173.3216474107875,458.16553999999996L188.7923363093,458.16554L189.87631932074373,448.28645399999994Z" style="opacity: 0;"/><path data-target="point-0-11" d="M46.387291389307336,187.41635826183193L73.49806649015673,249.12818094124444L111.6184671096402,327.75531407864446L189.87631932074373,448.28645399999994L204.80011830315624,448.28645399999994L206.8327222351,438.6246395L82.74050392017037,240.18821459405933Z" style="opacity: 0;"/><path data-target="point-0-12" d="M82.74050392017037,240.18821459405933L206.8327222351,438.6246395L220.9534506444,438.6246395L223.8805145952,427.77461900000003Z" style="opacity: 0;"/><path data-target="point-0-13" d="M0,97.30540272294368L2.7110116345355664,103.82539222399123L46.387291389307336,187.41635826183193L82.74050392017037,240.18821459405933L223.8805145952,427.77461900000003L236.5205533523,427.77461900000003L241.20339911495,418.4998205L0,22.87364737965993Z" style="opacity: 0;"/><path data-target="point-0-14" d="M0,22.87364737965993L241.20339911495,418.4998205L252.58719026845,418.4998205L257.5744687650625,408.858376L114.25226888846893,159.25507568507726L6.910368112380965,0L0,0Z" style="opacity: 0;"/><path data-target="point-0-15" d="M114.25226888846893,159.25507568507726L257.5744687650625,408.858376L269.143413878625,408.858376L274.504259436,399.4409925L191.30409781045688,265.68943957067074Z" style="opacity: 0;"/><path data-target="point-0-16" d="M191.30409781045688,265.68943957067074L274.504259436,399.4409925L285.14345387654373,399.4409925L291.82360885034376,387.4095555Z" style="opacity: 0;"/><path data-target="point-0-17" d="M6.910368112380965,0L114.25226888846893,159.25507568507726L191.30409781045688,265.68943957067074L291.82360885034376,387.4095555L301.7099845182062,387.4095555L307.48996534494995,381.9573865L252.79821315659677,221.82928757347733L167.44606183524095,11.763994204707558L162.3378415708188,0Z" style="opacity: 0;"/><path data-target="point-0-18" d="M252.79821315659677,221.82928757347733L307.48996534494995,381.9573865L317.83964440185,381.9573865L324.9776971553437,375.052211Z" style="opacity: 0;"/><path data-target="point-0-19" d="M167.44606183524095,11.763994204707558L252.79821315659677,221.82928757347733L324.9776971553437,375.052211L333.28862186239996,375.052211L341.4760174568,366.89093149999997Z" style="opacity: 0;"/><path data-target="point-0-20" d="M162.3378415708188,0L167.44606183524095,11.763994204707558L341.4760174568,366.89093149999997L350.708188299625,366.89093149999997L357.7570034090875,360.8141045L211.6002190684193,0Z" style="opacity: 0;"/><path data-target="point-0-21" d="M211.6002190684193,0L357.7570034090875,360.8141045L368.8553292378,360.8141045L373.7887204896,357.38528099999996L270.0040348871996,0Z" style="opacity: 0;"/><path data-target="point-0-22" d="M270.0040348871996,0L373.7887204896,357.38528099999996L384.13604707549996,357.38528099999996L389.83362369155,353.62375949999995L350.4925586235297,191.42600617895127L292.3756231476002,0Z" style="opacity: 0;"/><path data-target="point-0-23" d="M350.4925586235297,191.42600617895127L389.83362369155,353.62375949999995L400.16056065820004,353.6237595L407.79096114827496,348.558606Z" style="opacity: 0;"/><path data-target="point-0-24" d="M292.3756231476002,0L350.4925586235297,191.42600617895127L407.79096114827496,348.558606L416.74699870372496,348.558606L423.4082873127,344.5254945L330.17968850100016,0Z" style="opacity: 0;"/><path data-target="point-0-25" d="M330.17968850100016,0L423.4082873127,344.5254945L432.70149298955,344.5254945L440.21084370215,340.0238905L341.9737149548357,4.600454097570207L339.91142855328025,0Z" style="opacity: 0;"/><path data-target="point-0-26" d="M341.9737149548357,4.600454097570207L440.21084370215,340.0238905L448.962839908,340.0238905L457.28199486557503,335.12169099999994L361.2308370159026,45.50565647664172L357.3068557284432,36.587169000954816Z" style="opacity: 0;"/><path data-target="point-0-27" d="M361.2308370159026,45.50565647664172L457.28199486557503,335.12169099999994L466.03972658540414,335.12169099999994L472.5764904210087,331.53826449999997L455.85446579954635,259.11752034744393L413.0148082380442,154.27408673951652Z" style="opacity: 0;"/><path data-target="point-0-28" d="M455.85446579954635,259.11752034744393L472.5764904210087,331.53826449999997L479.2778600001956,331.53826449999997L493.13248548160266,322.69814549999995Z" style="opacity: 0;"/><path data-target="point-0-29" d="M413.0148082380442,154.27408673951652L455.85446579954635,259.11752034744393L493.13248548160266,322.69814549999995L495.1507190574473,322.69814549999995L510.3059422617679,313.48866449999997Z" style="opacity: 0;"/><path data-target="point-0-30" d="M357.3068557284432,36.587169000954816L361.2308370159026,45.50565647664172L413.0148082380442,154.27408673951652L510.3059422617679,313.48866449999997L510.96940714309636,313.48866449999997L526.9262484737209,304.2532991018774L527.333691996528,303.56101652102745Z" style="opacity: 0;"/><path data-target="point-0-31" d="M339.91142855328025,0L341.9737149548357,4.600454097570207L357.3068557284432,36.587169000954816L527.333691996528,303.56101652102745L543.0083198200548,294.9199483512139L544.2295625106722,292.9510924329076L349.7821892451065,0Z" style="opacity: 0;"/><path data-target="point-0-32" d="M349.7821892451065,0L544.2295625106722,292.9510924329076L559.0509083796334,285.16805754777306L561.1710436463021,281.92445080661804L366.1392882994396,0Z" style="opacity: 0;"/><path data-target="point-0-33" d="M366.1392882994396,0L561.1710436463021,281.92445080661804L575.0499684835801,274.9817167405438L578.1622865220776,270.46255394716314L383.1608883586705,0Z" style="opacity: 0;"/><path data-target="point-0-34" d="M383.1608883586705,0L578.1622865220776,270.46255394716314L591.0016885455401,264.3438305597674L595.2083570228059,258.54586475024865L400.9258733216284,0Z" style="opacity: 0;"/><path data-target="point-0-35" d="M400.9258733216284,0L595.2083570228059,258.54586475024865L606.9011426359424,253.23706075558238L612.3142015660944,246.154348045417L419.5349244947249,0Z" style="opacity: 0;"/><path data-target="point-0-36" d="M419.5349244947249,0L612.3142015660944,246.154348045417L622.7439047484428,241.6426282491441L629.4859380231588,233.26698030800648L439.0844438072156,0Z" style="opacity: 0;"/><path data-target="point-0-37" d="M439.0844438072156,0L629.4859380231588,233.26698030800648L638.5239948345346,229.54171589812654L646.7296783448003,219.8619176061278L459.69160894245954,0Z" style="opacity: 0;"/><path data-target="point-0-38" d="M459.69160894245954,0L646.7296783448003,219.8619176061278L654.2358796670173,216.91383679805529L664.0522964659588,205.91674600840224L481.4825437435799,0Z" style="opacity: 0;"/><path data-target="point-0-39" d="M481.4825437435799,0L664.0522964659588,205.91674600840224L669.872997342002,203.738253954076L681.4615894260926,191.40781159256966L504.5897126549702,0Z" style="opacity: 0;"/><path data-target="point-0-40" d="M504.5897126549702,0L681.4615894260926,191.40781159256966L685.4280542579841,189.9931013664463L698.9658033851521,176.31056885063046L529.1645757483702,0Z" style="opacity: 0;"/><path data-target="point-0-41" d="M529.1645757483702,0L698.9658033851521,176.31056885063046L700.8933265223856,175.65537595087548L716.3564731617308,160.8083887513532L716.47732655409,160.5033771169278L555.3729491245729,-2.842170943040401e-14Z" style="opacity: 0;"/><path data-target="point-0-42" d="M555.3729491245729,-2.842170943040401e-14L716.47732655409,160.5033771169278L732.3635416624389,146.01143879059805L733.446193261654,143.43618787637357L583.3940504335077,0Z" style="opacity: 0;"/><path data-target="point-0-43" d="M583.3940504335077,0L733.446193261654,143.43618787637357L748.3150008890485,130.54793987055254L750.4763361661824,125.70094566950833L613.4241521710735,0Z" style="opacity: 0;"/><path data-target="point-0-44" d="M613.4241521710735,0L750.4763361661824,125.70094566950833L770.1270190513364,109.51449509777794L645.6814800341926,0Z" style="opacity: 0;"/><path data-target="point-0-45" d="M645.6814800341926,0L770.1270190513364,109.51449509777794L800.1316133771923,101.096594L680.4016825698579,1.4210854715202004e-14Z" style="opacity: 0;"/><path data-target="point-0-46" d="M680.4016825698579,1.4210854715202004e-14L800.1316133771923,101.096594L823,101.096594L823,0Z" style="opacity: 0;"/><path data-target="point-1-0" d="M32.95641536964377,543.18L24.861508040550003,502.8013565L0,502.8013565L0,543.18Z" style="opacity: 0;"/><path data-target="point-1-1" d="M24.227704620299995,496.7041615L24.861508040550003,502.8013565L32.95641536964377,543.18L45.80715012558126,543.18L40.860960424999995,496.70416149999994Z" style="opacity: 0;"/><path data-target="point-1-2" d="M40.860960424999995,496.70416149999994L45.80715012558126,543.18L64.88681143337494,543.18L57.20346228407503,494.67402649999997L41.530904975,494.67402649999997Z" style="opacity: 0;"/><path data-target="point-1-3" d="M57.20346228407503,494.67402649999997L64.88681143337494,543.18L82.21286748804377,543.18L73.6197031827,491.869859L58.07794174858748,491.869859Z" style="opacity: 0;"/><path data-target="point-1-4" d="M73.6197031827,491.869859L82.21286748804377,543.18L102.87454767919994,543.18L90.21057756919998,489.88046249999996L74.26963901925001,489.88046249999996Z" style="opacity: 0;"/><path data-target="point-1-5" d="M90.21057756919998,489.88046249999996L102.87454767919994,543.18L122.95269681820004,543.18L106.7356451014,486.037464L90.838331374175,486.037464Z" style="opacity: 0;"/><path data-target="point-1-6" d="M106.7356451014,486.037464L122.95269681820004,543.18L141.7843456296001,543.18L123.11357135745,481.00625949999994L107.28354327144999,481.00625949999994Z" style="opacity: 0;"/><path data-target="point-1-7" d="M123.11357135745,481.00625949999994L141.7843456296001,543.18L157.87077100915613,543.18L139.33707970225626,475.30965899999995L123.88902092746875,475.30965899999995Z" style="opacity: 0;"/><path data-target="point-1-8" d="M139.33707970225626,475.30965899999995L157.87077100915613,543.18L176.8169789128,543.18L155.7311551384,470.57041399999997L140.54523187784375,470.57041399999997Z" style="opacity: 0;"/><path data-target="point-1-9" d="M155.7311551384,470.57041399999997L176.8169789128,543.18L204.19460849836864,543.18L172.46383276250626,466.10275849999994L156.92535945355,466.10275849999994Z" style="opacity: 0;"/><path data-target="point-1-10" d="M172.46383276250626,466.10275849999994L204.19460849836864,543.18L235.64380521530023,543.18L188.7923363093,458.16554L173.3216474107875,458.16553999999996Z" style="opacity: 0;"/><path data-target="point-1-11" d="M188.7923363093,458.16554L235.64380521530023,543.18L256.86109285995593,543.18L204.80011830315624,448.28645399999994L189.87631932074373,448.28645399999994Z" style="opacity: 0;"/><path data-target="point-1-12" d="M204.80011830315624,448.28645399999994L256.86109285995593,543.18L280.126556919375,543.18L220.9534506444,438.6246395L206.8327222351,438.6246395Z" style="opacity: 0;"/><path data-target="point-1-13" d="M220.9534506444,438.6246395L280.126556919375,543.18L296.21686830344373,543.18L236.5205533523,427.77461900000003L223.8805145952,427.77461900000003Z" style="opacity: 0;"/><path data-target="point-1-14" d="M236.5205533523,427.77461900000003L296.21686830344373,543.18L327.05866148380005,543.18L252.58719026845,418.4998205L241.20339911495,418.4998205Z" style="opacity: 0;"/><path data-target="point-1-15" d="M252.58719026845,418.4998205L327.05866148380005,543.18L339.28951989178125,543.18L269.143413878625,408.858376L257.5744687650625,408.858376Z" style="opacity: 0;"/><path data-target="point-1-16" d="M269.143413878625,408.858376L339.28951989178125,543.18L364.13642856300004,543.18L326.3732162211491,464.2600160044913L285.14345387654373,399.4409925L274.504259436,399.4409925Z" style="opacity: 0;"/><path data-target="point-1-17" d="M285.14345387654373,399.4409925L326.3732162211491,464.2600160044913L301.7099845182062,387.4095555L291.82360885034376,387.4095555Z" style="opacity: 0;"/><path data-target="point-1-18" d="M301.7099845182062,387.4095555L326.3732162211491,464.2600160044913L364.13642856300004,543.18L377.16150503917476,543.18L317.83964440185,381.9573865L307.48996534494995,381.9573865Z" style="opacity: 0;"/><path data-target="point-1-19" d="M317.83964440185,381.9573865L377.16150503917476,543.18L406.32044174108137,543.18L386.3420528423726,480.8206140701203L333.28862186239996,375.052211L324.9776971553437,375.052211Z" style="opacity: 0;"/><path data-target="point-1-20" d="M333.28862186239996,375.052211L386.3420528423726,480.8206140701203L381.15173443374795,458.2306872303562L350.708188299625,366.89093149999997L341.4760174568,366.89093149999997Z" style="opacity: 0;"/><path data-target="point-1-21" d="M350.708188299625,366.89093149999997L381.15173443374795,458.2306872303562L368.8553292378,360.8141045L357.7570034090875,360.8141045Z" style="opacity: 0;"/><path data-target="point-1-22" d="M368.8553292378,360.8141045L381.15173443374795,458.2306872303562L386.3420528423726,480.8206140701203L406.32044174108137,543.18L423.9890143009999,543.18L384.13604707549996,357.38528099999996L373.7887204896,357.38528099999996Z" style="opacity: 0;"/><path data-target="point-1-23" d="M384.13604707549996,357.38528099999996L423.9890143009999,543.18L447.70126577559944,543.18L400.16056065820004,353.6237595L389.83362369155,353.62375949999995Z" style="opacity: 0;"/><path data-target="point-1-24" d="M400.16056065820004,353.6237595L447.70126577559944,543.18L459.4566636170256,543.18L416.74699870372496,348.558606L407.79096114827496,348.558606Z" style="opacity: 0;"/><path data-target="point-1-25" d="M416.74699870372496,348.558606L459.4566636170256,543.18L483.1796028370999,543.18L432.70149298955,344.5254945L423.4082873127,344.5254945Z" style="opacity: 0;"/><path data-target="point-1-26" d="M432.70149298955,344.5254945L483.1796028370999,543.18L502.5960528159998,543.18L448.962839908,340.0238905L440.21084370215,340.0238905Z" style="opacity: 0;"/><path data-target="point-1-27" d="M448.962839908,340.0238905L502.5960528159998,543.18L508.5895720920018,543.18L466.03972658540414,335.12169099999994L457.28199486557503,335.12169099999994Z" style="opacity: 0;"/><path data-target="point-1-28" d="M466.03972658540414,335.12169099999994L508.5895720920018,543.18L582.5214688738072,543.18L479.2778600001956,331.53826449999997L472.5764904210087,331.53826449999997Z" style="opacity: 0;"/><path data-target="point-1-29" d="M479.2778600001956,331.53826449999997L582.5214688738072,543.18L607.1432045248306,543.18L495.1507190574473,322.69814549999995L493.13248548160266,322.69814549999995Z" style="opacity: 0;"/><path data-target="point-1-30" d="M495.1507190574473,322.69814549999995L607.1432045248306,543.18L632.4491914064648,543.18L510.96940714309636,313.48866449999997L510.3059422617679,313.48866449999997Z" style="opacity: 0;"/><path data-target="point-1-31" d="M510.96940714309636,313.48866449999997L632.4491914064648,543.18L658.5021665666372,543.18L526.9262484737209,304.2532991018774Z" style="opacity: 0;"/><path data-target="point-1-32" d="M526.9262484737209,304.2532991018774L658.5021665666372,543.18L685.362624342322,543.18L543.0083198200548,294.9199483512139L527.333691996528,303.56101652102745Z" style="opacity: 0;"/><path data-target="point-1-33" d="M543.0083198200548,294.9199483512139L685.362624342322,543.18L713.0954494874103,543.18L559.0509083796334,285.16805754777306L544.2295625106722,292.9510924329076Z" style="opacity: 0;"/><path data-target="point-1-34" d="M559.0509083796334,285.16805754777306L713.0954494874103,543.18L741.7809386241751,543.18L575.0499684835801,274.9817167405438L561.1710436463021,281.92445080661804Z" style="opacity: 0;"/><path data-target="point-1-35" d="M575.0499684835801,274.9817167405438L741.7809386241751,543.18L771.4909349851945,543.18L591.0016885455401,264.3438305597674L578.1622865220776,270.46255394716314Z" style="opacity: 0;"/><path data-target="point-1-36" d="M591.0016885455401,264.3438305597674L771.4909349851945,543.18L802.322754146689,543.18L606.9011426359424,253.23706075558238L595.2083570228059,258.54586475024865Z" style="opacity: 0;"/><path data-target="point-1-37" d="M606.9011426359424,253.23706075558238L802.322754146689,543.18L823,543.18L823,526.9979588112327L622.7439047484428,241.6426282491441L612.3142015660944,246.154348045417Z" style="opacity: 0;"/><path data-target="point-1-38" d="M622.7439047484428,241.6426282491441L823,526.9979588112327L823,481.9970582074841L638.5239948345346,229.54171589812654L629.4859380231588,233.26698030800648Z" style="opacity: 0;"/><path data-target="point-1-39" d="M638.5239948345346,229.54171589812654L823,481.9970582074841L823,438.7219886645013L654.2358796670173,216.91383679805529L646.7296783448003,219.8619176061278Z" style="opacity: 0;"/><path data-target="point-1-40" d="M654.2358796670173,216.91383679805529L823,438.7219886645013L823,397.0260737224896L669.872997342002,203.738253954076L664.0522964659588,205.91674600840224Z" style="opacity: 0;"/><path data-target="point-1-41" d="M669.872997342002,203.738253954076L823,397.0260737224896L823,356.7686517003999L685.4280542579841,189.9931013664463L681.4615894260926,191.40781159256966Z" style="opacity: 0;"/><path data-target="point-1-42" d="M685.4280542579841,189.9931013664463L823,356.7686517003999L823,317.8191162172064L700.8933265223856,175.65537595087548L698.9658033851521,176.31056885063046Z" style="opacity: 0;"/><path data-target="point-1-43" d="M700.8933265223856,175.65537595087548L823,317.8191162172064L823,280.05313695652995L716.3564731617308,160.8083887513532Z" style="opacity: 0;"/><path data-target="point-1-44" d="M716.3564731617308,160.8083887513532L823,280.05313695652995L823,243.34417026168956L732.3635416624389,146.01143879059805L716.47732655409,160.5033771169278Z" style="opacity: 0;"/><path data-target="point-1-45" d="M732.3635416624389,146.01143879059805L823,243.34417026168956L823,207.5740700593601L748.3150008890485,130.54793987055254L733.446193261654,143.43618787637357Z" style="opacity: 0;"/><path data-target="point-1-46" d="M748.3150008890485,130.54793987055254L823,207.5740700593601L823,101.096594L800.1316133771923,101.096594L770.1270190513364,109.51449509777794L750.4763361661824,125.70094566950833Z" style="opacity: 0;"/></g></g><g class="axes"><g class="y axis" fill="none" font-size="10" font-family="sans-serif" text-anchor="end" style="font-family: &quot;Source Sans Pro&quot;;"><path class="domain" stroke="#eeeeee" d="M0.5,543.68V0.5" stroke-dasharray="0" style="visibility: hidden;"/><g class="tick" opacity="1" transform="translate(0,543.68)" style="visibility: visible;"><line stroke="#eeeeee" x2="823" stroke-dasharray="0"/><text fill="rgb(0, 0, 0)" x="-3" dy="0.33em" opacity="1" text-anchor="end" font-size="14">$0</text></g><g class="tick" opacity="1" transform="translate(0, 475.7825012207031)" style="visibility: visible;"><line stroke="#eeeeee" x2="823" stroke-dasharray="0"/><text fill="rgb(0, 0, 0)" x="-3" dy="0.33em" opacity="1" text-anchor="end" font-size="14">$5000</text></g><g class="tick" opacity="1" transform="translate(0, 407.885009765625)" style="visibility: visible;"><line stroke="#eeeeee" x2="823" stroke-dasharray="0"/><text fill="rgb(0, 0, 0)" x="-3" dy="0.33em" opacity="1" text-anchor="end" font-size="14">$10,000</text></g><g class="tick" opacity="1" transform="translate(0, 339.98748779296875)" style="visibility: visible;"><line stroke="#eeeeee" x2="823" stroke-dasharray="0"/><text fill="rgb(0, 0, 0)" x="-3" dy="0.33em" opacity="1" text-anchor="end" font-size="14">$15,000</text></g><g class="tick" opacity="1" transform="translate(0, 272.0899963378906)" style="visibility: visible;"><line stroke="#eeeeee" x2="823" stroke-dasharray="0"/><text fill="rgb(0, 0, 0)" x="-3" dy="0.33em" opacity="1" text-anchor="end" font-size="14">$20,000</text></g><g class="tick" opacity="1" transform="translate(0, 204.1925048828125)" style="visibility: visible;"><line stroke="#eeeeee" x2="823" stroke-dasharray="0"/><text fill="rgb(0, 0, 0)" x="-3" dy="0.33em" opacity="1" text-anchor="end" font-size="14">$25,000</text></g><g class="tick" opacity="1" transform="translate(0, 136.2949981689453)" style="visibility: visible;"><line stroke="#eeeeee" x2="823" stroke-dasharray="0"/><text fill="rgb(0, 0, 0)" x="-3" dy="0.33em" opacity="1" text-anchor="end" font-size="14">$30,000</text></g><g class="tick" opacity="1" transform="translate(0, 68.39749908447266)" style="visibility: visible;"><line stroke="#eeeeee" x2="823" stroke-dasharray="0"/><text fill="rgb(0, 0, 0)" x="-3" dy="0.33em" opacity="1" text-anchor="end" font-size="14">$35,000</text></g><g class="tick" opacity="1" transform="translate(0, 0.5)" style="visibility: visible;"><line stroke="#eeeeee" x2="823" stroke-dasharray="0"/><text fill="rgb(0, 0, 0)" x="-3" dy="0.33em" opacity="1" text-anchor="end" font-size="14">$40,000</text></g></g><g class="x axis" transform="translate(0,543.18)" fill="none" font-size="10" font-family="sans-serif" text-anchor="middle" style="font-family: &quot;Source Sans Pro&quot;;"><path class="domain" stroke="#eeeeee" d="M0.5,0.5H823.5" stroke-dasharray="0"/><g class="tick" opacity="1" transform="translate(0.5,0)"><line stroke="#eeeeee" y2="6" stroke-dasharray="0"/><text fill="rgb(0, 0, 0)" y="9" dy="-9" opacity="1" dominant-baseline="central" font-size="16" transform="translate(0, 15) rotate(-45)" dx="5" style="text-anchor: end; visibility: visible;">1990</text></g><g class="tick" opacity="1" transform="translate(82.80000000000001,0)"><line stroke="#eeeeee" y2="6" stroke-dasharray="0"/><text fill="rgb(0, 0, 0)" y="9" dy="-9" opacity="1" dominant-baseline="central" font-size="16" transform="translate(0, 15) rotate(-45)" dx="5" style="text-anchor: end; visibility: visible;">1995</text></g><g class="tick" opacity="1" transform="translate(165.10000000000002,0)"><line stroke="#eeeeee" y2="6" stroke-dasharray="0"/><text fill="rgb(0, 0, 0)" y="9" dy="-9" opacity="1" dominant-baseline="central" font-size="16" transform="translate(0, 15) rotate(-45)" dx="5" style="text-anchor: end; visibility: visible;">2000</text></g><g class="tick" opacity="1" transform="translate(247.39999999999998,0)"><line stroke="#eeeeee" y2="6" stroke-dasharray="0"/><text fill="rgb(0, 0, 0)" y="9" dy="-9" opacity="1" dominant-baseline="central" font-size="16" transform="translate(0, 15) rotate(-45)" dx="5" style="text-anchor: end; visibility: visible;">2005</text></g><g class="tick" opacity="1" transform="translate(329.70000000000005,0)"><line stroke="#eeeeee" y2="6" stroke-dasharray="0"/><text fill="rgb(0, 0, 0)" y="9" dy="-9" opacity="1" dominant-baseline="central" font-size="16" transform="translate(0, 15) rotate(-45)" dx="5" style="text-anchor: end; visibility: visible;">2010</text></g><g class="tick" opacity="1" transform="translate(412,0)"><line stroke="#eeeeee" y2="6" stroke-dasharray="0"/><text fill="rgb(0, 0, 0)" y="9" dy="-9" opacity="1" dominant-baseline="central" font-size="16" transform="translate(0, 15) rotate(-45)" dx="5" style="text-anchor: end; visibility: visible;">2015</text></g><g class="tick" opacity="1" transform="translate(494.29999999999995,0)"><line stroke="#eeeeee" y2="6" stroke-dasharray="0"/><text fill="rgb(0, 0, 0)" y="9" dy="-9" opacity="1" dominant-baseline="central" font-size="16" transform="translate(0, 15) rotate(-45)" dx="5" style="text-anchor: end; visibility: visible;">2020</text></g><g class="tick" opacity="1" transform="translate(576.5999999999999,0)"><line stroke="#eeeeee" y2="6" stroke-dasharray="0"/><text fill="rgb(0, 0, 0)" y="9" dy="-9" opacity="1" dominant-baseline="central" font-size="16" transform="translate(0, 15) rotate(-45)" dx="5" style="text-anchor: end; visibility: visible;">2025</text></g><g class="tick" opacity="1" transform="translate(658.9000000000001,0)"><line stroke="#eeeeee" y2="6" stroke-dasharray="0"/><text fill="rgb(0, 0, 0)" y="9" dy="-9" opacity="1" dominant-baseline="central" font-size="16" transform="translate(0, 15) rotate(-45)" dx="5" style="text-anchor: end; visibility: visible;">2030</text></g><g class="tick" opacity="1" transform="translate(741.2,0)"><line stroke="#eeeeee" y2="6" stroke-dasharray="0"/><text fill="rgb(0, 0, 0)" y="9" dy="-9" opacity="1" dominant-baseline="central" font-size="16" transform="translate(0, 15) rotate(-45)" dx="5" style="text-anchor: end; visibility: visible;">2035</text></g><g class="tick" opacity="1" transform="translate(823.5,0)"><line stroke="#eeeeee" y2="6" stroke-dasharray="0"/><text fill="rgb(0, 0, 0)" y="9" dy="-9" opacity="1" dominant-baseline="central" font-size="16" transform="translate(0, 15) rotate(-45)" dx="5" style="text-anchor: end; visibility: visible;">2040</text></g></g></g></g></g></g><g class="annotations below"><g class="axis-highlights" transform="translate(50, 10)" style="opacity: 1;"><g class="line x" transform="translate(477.34, 0)"><line width="0" stroke-dasharray="2 2" stroke="#333333" stroke-width="2" y2="543.18"/><text transform="translate(0, 6) rotate(-90)" fill="#333333" text-anchor="end" dy="-0.5em" font-size="12">Current</text></g></g></g><g id="areas"><g class="series" pointer-events="none"><path class="area" transform="translate(50,10)" fill-opacity="0" fill="rgb(17, 165, 121)" clip-path="url(#clip-0-0)" d="M16.46,502.00695599999995C21.94666666666667,498.32917474999994,27.433333333333334,494.6513935,32.92,493.11238349999996C38.406666666666666,491.57337349999995,43.89333333333333,491.68879925,49.379999999999995,490.80386849999996C54.86666666666667,489.91893774999994,60.35333333333333,488.50666974999996,65.84,487.80279899999994C71.32666666666667,487.0989282499999,76.81333333333335,487.39541399999996,82.30000000000001,486.58064399999995C87.78666666666668,485.76587399999994,93.27333333333333,484.3332367499999,98.75999999999999,482.80554299999994C104.24666666666667,481.2778492499999,109.73333333333333,479.38803549999994,115.22000000000001,477.41448149999997C120.70666666666668,475.4409275,126.19333333333334,472.8698755,131.68,470.96421899999996C137.16666666666666,469.05856249999994,142.65333333333334,467.5037097499999,148.14,465.98054249999996C153.62666666666667,464.4573752499999,159.11333333333334,464.03414749999996,164.60000000000002,461.82521549999996C170.08666666666667,459.61628349999995,175.57333333333335,456.02450574999995,181.06,452.72695049999993C186.54666666666665,449.4293952499999,192.03333333333333,445.53660525,197.51999999999998,442.039884C203.00666666666666,438.54316274999996,208.49333333333334,435.52625049999995,213.98000000000002,431.74662299999994C219.4666666666667,427.96699549999994,224.95333333333335,423.09874475,230.44000000000003,419.36211899999995C235.92666666666668,415.62549325,241.41333333333333,412.5746322499999,246.89999999999998,409.32686849999993C252.38666666666666,406.07910474999994,257.87333333333333,403.157249,263.36,399.87553649999995C268.8466666666667,396.593824,274.3333333333333,393.60859724999995,279.82,389.63659349999995C285.3066666666667,385.66458974999995,290.7933333333333,379.24601275,296.28,376.04351399999996C301.76666666666665,372.84101524999994,307.25333333333333,372.65090224999994,312.74,370.42160099999995C318.2266666666667,368.19229974999996,323.71333333333337,365.30439275000003,329.20000000000005,362.6677065C334.68666666666667,360.03102025000004,340.17333333333335,357.05710975,345.65999999999997,354.6014835C351.14666666666665,352.14585724999995,356.6333333333333,349.84186875,362.12,347.933949C367.6066666666667,346.02602924999997,373.09333333333336,344.6160245,378.58000000000004,343.15396499999997C384.06666666666666,341.69190549999996,389.55333333333334,340.827344,395.03999999999996,339.161592C400.52666666666664,337.49584,406.0133333333333,334.9021555,411.5,333.159453C416.9866666666667,331.4167505,422.47333333333336,330.25117675,427.96000000000004,328.705377C433.4466666666667,327.15957725,438.93333333333334,325.59793475000004,444.42,323.8846545C449.9066666666667,322.17137425,455.3933333333334,319.96896040999997,460.88000000000005,318.42569549999996C466.3666666666667,316.88243058999996,471.85333333333335,316.86694996,477.34,314.62506504C482.82666666666665,312.38318011999996,488.3133333333333,308.2591991325,493.79999999999995,304.97438597999997C499.28666666666663,301.68957282749994,504.7733333333333,298.33969123749995,510.26,294.91618612499997C515.7466666666667,291.4926810125,521.2333333333333,288.00139156250003,526.72,284.433355305C532.2066666666667,280.8653190475,537.6933333333334,277.22666939000004,543.1800000000001,273.50796858C548.6666666666667,269.78926777000004,554.1533333333333,265.99687553999996,559.64,262.12115044499996C565.1266666666667,258.24542534999995,570.6133333333332,254.29299871249995,576.0999999999999,250.25361800999997C581.5866666666666,246.21423730749996,587.0733333333333,242.09480545249994,592.56,237.88486622999994C598.0466666666666,233.67492700749995,603.5333333333333,229.38167755250004,609.02,224.99398267500004C614.5066666666667,220.60628779750004,619.9933333333333,216.13168412,625.48,211.55869696499997C630.9666666666667,206.98570980999995,636.4533333333334,202.32212475749998,641.94,197.55605974499997C647.4266666666667,192.78999473249996,652.9133333333334,187.92959746,658.4000000000001,182.96230688999998C663.8866666666668,177.99501632,669.3733333333333,172.92936490499997,674.86,167.75231632499998C680.3466666666667,162.575267745,685.8333333333333,157.29567130749996,691.3199999999999,151.90001540999998C696.8066666666666,146.50435951249997,702.2933333333333,141.0018555825,707.78,135.37838094C713.2666666666667,129.75490629749999,718.7533333333333,124.02010238749996,724.24,118.15916755499995C729.7266666666667,112.29823272249995,735.2133333333334,106.32119316499997,740.7,100.21277194499999C746.1866666666667,94.104350725,751.6733333333334,87.87495879250004,757.1600000000001,81.50864023500003C762.6466666666668,75.14232167750006,768.1333333333333,68.57859113875007,773.62,62.01486060000008L773.62,62.01486060000008C768.1333333333333,68.57859113875007,762.6466666666668,75.14232167750006,757.1600000000001,81.50864023500003C751.6733333333334,87.87495879250004,746.1866666666667,94.104350725,740.7,100.21277194499999C735.2133333333334,106.32119316499997,729.7266666666667,112.29823272249995,724.24,118.15916755499995C718.7533333333333,124.02010238749996,713.2666666666667,129.75490629749999,707.78,135.37838094C702.2933333333333,141.0018555825,696.8066666666666,146.50435951249997,691.3199999999999,151.90001540999998C685.8333333333333,157.29567130749996,680.3466666666667,162.575267745,674.86,167.75231632499998C669.3733333333333,172.92936490499997,663.8866666666668,177.99501632,658.4000000000001,182.96230688999998C652.9133333333334,187.92959746,647.4266666666667,192.78999473249996,641.94,197.55605974499997C636.4533333333334,202.32212475749998,630.9666666666667,206.98570980999995,625.48,211.55869696499997C619.9933333333333,216.13168412,614.5066666666667,220.60628779750004,609.02,224.99398267500004C603.5333333333333,229.38167755250004,598.0466666666666,233.67492700749995,592.56,237.88486622999994C587.0733333333333,242.09480545249994,581.5866666666666,246.21423730749996,576.0999999999999,250.25361800999997C570.6133333333332,254.29299871249995,565.1266666666667,258.24542534999995,559.64,262.12115044499996C554.1533333333333,265.99687553999996,548.6666666666667,269.78926777000004,543.1800000000001,273.50796858C537.6933333333334,277.22666939000004,532.2066666666667,280.8653190475,526.72,284.433355305C521.2333333333333,288.00139156250003,515.7466666666667,291.4926810125,510.26,294.91618612499997C504.7733333333333,298.33969123749995,499.28666666666663,301.68957282749994,493.79999999999995,304.97438597999997C488.3133333333333,308.2591991325,482.82666666666665,312.38318011999996,477.34,314.62506504C471.85333333333335,316.86694996,466.3666666666667,316.88243058999996,460.88000000000005,318.42569549999996C455.3933333333334,319.96896040999997,449.9066666666667,322.17137425,444.42,323.8846545C438.93333333333334,325.59793475000004,433.4466666666667,327.15957725,427.96000000000004,328.705377C422.47333333333336,330.25117675,416.9866666666667,331.4167505,411.5,333.159453C406.0133333333333,334.9021555,400.52666666666664,337.49584,395.03999999999996,339.161592C389.55333333333334,340.827344,384.06666666666666,341.69190549999996,378.58000000000004,343.15396499999997C373.09333333333336,344.6160245,367.6066666666667,346.02602924999997,362.12,347.933949C356.6333333333333,349.84186875,351.14666666666665,352.14585724999995,345.65999999999997,354.6014835C340.17333333333335,357.05710975,334.68666666666667,360.03102025000004,329.20000000000005,362.6677065C323.71333333333337,365.30439275000003,318.2266666666667,368.19229974999996,312.74,370.42160099999995C307.25333333333333,372.65090224999994,301.76666666666665,372.84101524999994,296.28,376.04351399999996C290.7933333333333,379.24601275,285.3066666666667,385.66458974999995,279.82,389.63659349999995C274.3333333333333,393.60859724999995,268.8466666666667,396.593824,263.36,399.87553649999995C257.87333333333333,403.157249,252.38666666666666,406.07910474999994,246.89999999999998,409.32686849999993C241.41333333333333,412.5746322499999,235.92666666666668,415.62549325,230.44000000000003,419.36211899999995C224.95333333333335,423.09874475,219.4666666666667,427.96699549999994,213.98000000000002,431.74662299999994C208.49333333333334,435.52625049999995,203.00666666666666,438.54316274999996,197.51999999999998,442.039884C192.03333333333333,445.53660525,186.54666666666665,449.4293952499999,181.06,452.72695049999993C175.57333333333335,456.02450574999995,170.08666666666667,459.61628349999995,164.60000000000002,461.82521549999996C159.11333333333334,464.03414749999996,153.62666666666667,464.4573752499999,148.14,465.98054249999996C142.65333333333334,467.5037097499999,137.16666666666666,469.05856249999994,131.68,470.96421899999996C126.19333333333334,472.8698755,120.70666666666668,475.4409275,115.22000000000001,477.41448149999997C109.73333333333333,479.38803549999994,104.24666666666667,481.2778492499999,98.75999999999999,482.80554299999994C93.27333333333333,484.3332367499999,87.78666666666668,485.76587399999994,82.30000000000001,486.58064399999995C76.81333333333335,487.39541399999996,71.32666666666667,487.0989282499999,65.84,487.80279899999994C60.35333333333333,488.50666974999996,54.86666666666667,489.91893774999994,49.379999999999995,490.80386849999996C43.89333333333333,491.68879925,38.406666666666666,491.57337349999995,32.92,493.11238349999996C27.433333333333334,494.6513935,21.94666666666667,498.32917474999994,16.46,502.00695599999995Z"/></g><g class="series" pointer-events="none"><path class="area" transform="translate(50,10)" fill-opacity="0" fill="rgb(204, 80, 62)" clip-path="url(#clip-0-1)" d="M16.46,503.59575749999993C21.94666666666667,502.36681274999995,27.433333333333334,501.13786799999997,32.92,500.295939C38.406666666666666,499.45401,43.89333333333333,499.27068675,49.379999999999995,498.5441835C54.86666666666667,497.81768024999997,60.35333333333333,496.83090324999995,65.84,495.93691949999993C71.32666666666667,495.0429357499999,76.81333333333335,494.2915367499999,82.30000000000001,493.1802809999999C87.78666666666668,492.0690252499999,93.27333333333333,490.6997589999999,98.75999999999999,489.26938499999994C104.24666666666667,487.83901099999997,109.73333333333333,486.20041799999996,115.22000000000001,484.598037C120.70666666666668,482.995656,126.19333333333334,481.22805774999995,131.68,479.65509899999995C137.16666666666666,478.08214024999995,142.65333333333334,476.70608425,148.14,475.1602845C153.62666666666667,473.61448475,159.11333333333334,472.30632625,164.60000000000002,470.3803005C170.08666666666667,468.45427474999997,175.57333333333335,466.24534274999996,181.06,463.60412999999994C186.54666666666665,460.9629172499999,192.03333333333333,457.54993625,197.51999999999998,454.53302399999995C203.00666666666666,451.51611174999994,208.49333333333334,448.56030724999994,213.98000000000002,445.50265649999994C219.4666666666667,442.44500574999995,224.95333333333335,439.1587667499999,230.44000000000003,436.18711949999994C235.92666666666668,433.21547224999995,241.41333333333333,430.73042374999994,246.89999999999998,427.67277299999995C252.38666666666666,424.61512224999996,257.87333333333333,420.91244524999996,263.36,417.841215C268.8466666666667,414.76998475,274.3333333333333,412.42299449999996,279.82,409.2453915C285.3066666666667,406.0677885,290.7933333333333,401.4009669999999,296.28,398.77559699999995C301.76666666666665,396.1502269999999,307.25333333333333,395.38298524999993,312.74,393.49317149999996C318.2266666666667,391.60335775,323.71333333333337,389.82218,329.20000000000005,387.4367145C334.68666666666667,385.051249,340.17333333333335,381.4707875,345.65999999999997,379.18037849999996C351.14666666666665,376.88996949999995,356.6333333333333,374.95489074999995,362.12,373.6942604999999C367.6066666666667,372.4336302499999,373.09333333333336,372.55131924999995,378.58000000000004,371.61659699999996C384.06666666666666,370.68187474999996,389.55333333333334,369.3624,395.03999999999996,368.08592699999997C400.52666666666664,366.80945399999996,406.0133333333333,365.24781149999995,411.5,363.95775899999995C416.9866666666667,362.66770649999995,422.47333333333336,361.64471749999996,427.96000000000004,360.34561199999996C433.4466666666667,359.04650649999996,438.93333333333334,357.58444699999995,444.42,356.163126C449.9066666666667,354.741805,455.3933333333334,353.1029630425,460.88000000000005,351.817686C466.3666666666667,350.53240895749997,471.85333333333335,350.35076051249996,477.34,348.45146374499996C482.82666666666665,346.55216697749995,488.3133333333333,343.15362551249996,493.79999999999995,340.42190539499995C499.28666666666663,337.69018527749995,504.7733333333333,334.90550511,510.26,332.06114304C515.7466666666667,329.21678097,521.2333333333333,326.31737666,526.72,323.35573297499997C532.2066666666667,320.39408928999995,537.6933333333334,317.37507221749996,543.1800000000001,314.29128092999997C548.6666666666667,311.2074896425,554.1533333333333,308.06392592249995,559.64,304.85298524999996C565.1266666666667,301.6420445775,570.6133333333332,298.3689776925,576.0999999999999,295.025636895C581.5866666666666,291.6822960975,587.0733333333333,288.27413581999997,592.56,284.79294046499996C598.0466666666666,281.31174510999995,603.5333333333333,277.7632180674999,609.02,274.1384647649999C614.5066666666667,270.51371146249994,619.9933333333333,266.8186389825,625.48,263.04442065C630.9666666666667,259.27020231750004,636.4533333333334,255.42299417249998,641.94,251.49315477C647.4266666666667,247.5633153675,652.9133333333334,243.55729497000002,658.4000000000001,239.465384235C663.8866666666668,235.3734735,669.3733333333333,231.20230375,674.86,226.94169036C680.3466666666667,222.68107697,685.8333333333333,218.33799075000002,691.3199999999999,213.90170389500003C696.8066666666666,209.46541704,702.2933333333333,204.94321721499995,707.78,200.32396922999993C713.2666666666667,195.70472124499992,718.7533333333333,190.99593908999998,724.24,186.186215985C729.7266666666667,181.37649288,735.2133333333334,176.47365967,740.7,171.4656306C746.1866666666667,166.45760153,751.6733333333334,161.3525921975,757.1600000000001,156.13804156499998C762.6466666666668,150.9234909325,768.1333333333333,145.55090886874999,773.62,140.17832680499998L773.62,140.17832680499998C768.1333333333333,145.55090886874999,762.6466666666668,150.9234909325,757.1600000000001,156.13804156499998C751.6733333333334,161.3525921975,746.1866666666667,166.45760153,740.7,171.4656306C735.2133333333334,176.47365967,729.7266666666667,181.37649288,724.24,186.186215985C718.7533333333333,190.99593908999998,713.2666666666667,195.70472124499992,707.78,200.32396922999993C702.2933333333333,204.94321721499995,696.8066666666666,209.46541704,691.3199999999999,213.90170389500003C685.8333333333333,218.33799075000002,680.3466666666667,222.68107697,674.86,226.94169036C669.3733333333333,231.20230375,663.8866666666668,235.3734735,658.4000000000001,239.465384235C652.9133333333334,243.55729497000002,647.4266666666667,247.5633153675,641.94,251.49315477C636.4533333333334,255.42299417249998,630.9666666666667,259.27020231750004,625.48,263.04442065C619.9933333333333,266.8186389825,614.5066666666667,270.51371146249994,609.02,274.1384647649999C603.5333333333333,277.7632180674999,598.0466666666666,281.31174510999995,592.56,284.79294046499996C587.0733333333333,288.27413581999997,581.5866666666666,291.6822960975,576.0999999999999,295.025636895C570.6133333333332,298.3689776925,565.1266666666667,301.6420445775,559.64,304.85298524999996C554.1533333333333,308.06392592249995,548.6666666666667,311.2074896425,543.1800000000001,314.29128092999997C537.6933333333334,317.37507221749996,532.2066666666667,320.39408928999995,526.72,323.35573297499997C521.2333333333333,326.31737666,515.7466666666667,329.21678097,510.26,332.06114304C504.7733333333333,334.90550511,499.28666666666663,337.69018527749995,493.79999999999995,340.42190539499995C488.3133333333333,343.15362551249996,482.82666666666665,346.55216697749995,477.34,348.45146374499996C471.85333333333335,350.35076051249996,466.3666666666667,350.53240895749997,460.88000000000005,351.817686C455.3933333333334,353.1029630425,449.9066666666667,354.741805,444.42,356.163126C438.93333333333334,357.58444699999995,433.4466666666667,359.04650649999996,427.96000000000004,360.34561199999996C422.47333333333336,361.64471749999996,416.9866666666667,362.66770649999995,411.5,363.95775899999995C406.0133333333333,365.24781149999995,400.52666666666664,366.80945399999996,395.03999999999996,368.08592699999997C389.55333333333334,369.3624,384.06666666666666,370.68187474999996,378.58000000000004,371.61659699999996C373.09333333333336,372.55131924999995,367.6066666666667,372.4336302499999,362.12,373.6942604999999C356.6333333333333,374.95489074999995,351.14666666666665,376.88996949999995,345.65999999999997,379.18037849999996C340.17333333333335,381.4707875,334.68666666666667,385.051249,329.20000000000005,387.4367145C323.71333333333337,389.82218,318.2266666666667,391.60335775,312.74,393.49317149999996C307.25333333333333,395.38298524999993,301.76666666666665,396.1502269999999,296.28,398.77559699999995C290.7933333333333,401.4009669999999,285.3066666666667,406.0677885,279.82,409.2453915C274.3333333333333,412.42299449999996,268.8466666666667,414.76998475,263.36,417.841215C257.87333333333333,420.91244524999996,252.38666666666666,424.61512224999996,246.89999999999998,427.67277299999995C241.41333333333333,430.73042374999994,235.92666666666668,433.21547224999995,230.44000000000003,436.18711949999994C224.95333333333335,439.1587667499999,219.4666666666667,442.44500574999995,213.98000000000002,445.50265649999994C208.49333333333334,448.56030724999994,203.00666666666666,451.51611174999994,197.51999999999998,454.53302399999995C192.03333333333333,457.54993625,186.54666666666665,460.9629172499999,181.06,463.60412999999994C175.57333333333335,466.24534274999996,170.08666666666667,468.45427474999997,164.60000000000002,470.3803005C159.11333333333334,472.30632625,153.62666666666667,473.61448475,148.14,475.1602845C142.65333333333334,476.70608425,137.16666666666666,478.08214024999995,131.68,479.65509899999995C126.19333333333334,481.22805774999995,120.70666666666668,482.995656,115.22000000000001,484.598037C109.73333333333333,486.20041799999996,104.24666666666667,487.83901099999997,98.75999999999999,489.26938499999994C93.27333333333333,490.6997589999999,87.78666666666668,492.0690252499999,82.30000000000001,493.1802809999999C76.81333333333335,494.2915367499999,71.32666666666667,495.0429357499999,65.84,495.93691949999993C60.35333333333333,496.83090324999995,54.86666666666667,497.81768024999997,49.379999999999995,498.5441835C43.89333333333333,499.27068675,38.406666666666666,499.45401,32.92,500.295939C27.433333333333334,501.13786799999997,21.94666666666667,502.36681274999995,16.46,503.59575749999993Z"/></g></g><g id="lines"><g class="series"><clipPath id="clip-0-0"><rect width="823" y="-10" height="563.18"/></clipPath><path class="line" opacity="1" fill="none" stroke="rgb(17, 165, 121)" stroke-width="2" transform="translate(50,10)" clip-path="url(#clip-0-0)" d="M16.46,502.00695599999995C21.94666666666667,498.32917474999994,27.433333333333334,494.6513935,32.92,493.11238349999996C38.406666666666666,491.57337349999995,43.89333333333333,491.68879925,49.379999999999995,490.80386849999996C54.86666666666667,489.91893774999994,60.35333333333333,488.50666974999996,65.84,487.80279899999994C71.32666666666667,487.0989282499999,76.81333333333335,487.39541399999996,82.30000000000001,486.58064399999995C87.78666666666668,485.76587399999994,93.27333333333333,484.3332367499999,98.75999999999999,482.80554299999994C104.24666666666667,481.2778492499999,109.73333333333333,479.38803549999994,115.22000000000001,477.41448149999997C120.70666666666668,475.4409275,126.19333333333334,472.8698755,131.68,470.96421899999996C137.16666666666666,469.05856249999994,142.65333333333334,467.5037097499999,148.14,465.98054249999996C153.62666666666667,464.4573752499999,159.11333333333334,464.03414749999996,164.60000000000002,461.82521549999996C170.08666666666667,459.61628349999995,175.57333333333335,456.02450574999995,181.06,452.72695049999993C186.54666666666665,449.4293952499999,192.03333333333333,445.53660525,197.51999999999998,442.039884C203.00666666666666,438.54316274999996,208.49333333333334,435.52625049999995,213.98000000000002,431.74662299999994C219.4666666666667,427.96699549999994,224.95333333333335,423.09874475,230.44000000000003,419.36211899999995C235.92666666666668,415.62549325,241.41333333333333,412.5746322499999,246.89999999999998,409.32686849999993C252.38666666666666,406.07910474999994,257.87333333333333,403.157249,263.36,399.87553649999995C268.8466666666667,396.593824,274.3333333333333,393.60859724999995,279.82,389.63659349999995C285.3066666666667,385.66458974999995,290.7933333333333,379.24601275,296.28,376.04351399999996C301.76666666666665,372.84101524999994,307.25333333333333,372.65090224999994,312.74,370.42160099999995C318.2266666666667,368.19229974999996,323.71333333333337,365.30439275000003,329.20000000000005,362.6677065C334.68666666666667,360.03102025000004,340.17333333333335,357.05710975,345.65999999999997,354.6014835C351.14666666666665,352.14585724999995,356.6333333333333,349.84186875,362.12,347.933949C367.6066666666667,346.02602924999997,373.09333333333336,344.6160245,378.58000000000004,343.15396499999997C384.06666666666666,341.69190549999996,389.55333333333334,340.827344,395.03999999999996,339.161592C400.52666666666664,337.49584,406.0133333333333,334.9021555,411.5,333.159453C416.9866666666667,331.4167505,422.47333333333336,330.25117675,427.96000000000004,328.705377C433.4466666666667,327.15957725,438.93333333333334,325.59793475000004,444.42,323.8846545C449.9066666666667,322.17137425,455.3933333333334,319.96896040999997,460.88000000000005,318.42569549999996C466.3666666666667,316.88243058999996,471.85333333333335,316.86694996,477.34,314.62506504C482.82666666666665,312.38318011999996,488.3133333333333,308.2591991325,493.79999999999995,304.97438597999997C499.28666666666663,301.68957282749994,504.7733333333333,298.33969123749995,510.26,294.91618612499997C515.7466666666667,291.4926810125,521.2333333333333,288.00139156250003,526.72,284.433355305C532.2066666666667,280.8653190475,537.6933333333334,277.22666939000004,543.1800000000001,273.50796858C548.6666666666667,269.78926777000004,554.1533333333333,265.99687553999996,559.64,262.12115044499996C565.1266666666667,258.24542534999995,570.6133333333332,254.29299871249995,576.0999999999999,250.25361800999997C581.5866666666666,246.21423730749996,587.0733333333333,242.09480545249994,592.56,237.88486622999994C598.0466666666666,233.67492700749995,603.5333333333333,229.38167755250004,609.02,224.99398267500004C614.5066666666667,220.60628779750004,619.9933333333333,216.13168412,625.48,211.55869696499997C630.9666666666667,206.98570980999995,636.4533333333334,202.32212475749998,641.94,197.55605974499997C647.4266666666667,192.78999473249996,652.9133333333334,187.92959746,658.4000000000001,182.96230688999998C663.8866666666668,177.99501632,669.3733333333333,172.92936490499997,674.86,167.75231632499998C680.3466666666667,162.575267745,685.8333333333333,157.29567130749996,691.3199999999999,151.90001540999998C696.8066666666666,146.50435951249997,702.2933333333333,141.0018555825,707.78,135.37838094C713.2666666666667,129.75490629749999,718.7533333333333,124.02010238749996,724.24,118.15916755499995C729.7266666666667,112.29823272249995,735.2133333333334,106.32119316499997,740.7,100.21277194499999C746.1866666666667,94.104350725,751.6733333333334,87.87495879250004,757.1600000000001,81.50864023500003C762.6466666666668,75.14232167750006,768.1333333333333,68.57859113875007,773.62,62.01486060000008"/><text class="label" font-size="11" alignment-baseline="middle" opacity="1" x="5" fill="rgb(17, 165, 121)" transform="translate(823.6199951171875, 72.01486206054688)"/></g><g class="series"><clipPath id="clip-0-1"><rect width="823" y="-10" height="563.18"/></clipPath><path class="line" opacity="1" fill="none" stroke="rgb(204, 80, 62)" stroke-width="2" transform="translate(50,10)" clip-path="url(#clip-0-1)" d="M16.46,503.59575749999993C21.94666666666667,502.36681274999995,27.433333333333334,501.13786799999997,32.92,500.295939C38.406666666666666,499.45401,43.89333333333333,499.27068675,49.379999999999995,498.5441835C54.86666666666667,497.81768024999997,60.35333333333333,496.83090324999995,65.84,495.93691949999993C71.32666666666667,495.0429357499999,76.81333333333335,494.2915367499999,82.30000000000001,493.1802809999999C87.78666666666668,492.0690252499999,93.27333333333333,490.6997589999999,98.75999999999999,489.26938499999994C104.24666666666667,487.83901099999997,109.73333333333333,486.20041799999996,115.22000000000001,484.598037C120.70666666666668,482.995656,126.19333333333334,481.22805774999995,131.68,479.65509899999995C137.16666666666666,478.08214024999995,142.65333333333334,476.70608425,148.14,475.1602845C153.62666666666667,473.61448475,159.11333333333334,472.30632625,164.60000000000002,470.3803005C170.08666666666667,468.45427474999997,175.57333333333335,466.24534274999996,181.06,463.60412999999994C186.54666666666665,460.9629172499999,192.03333333333333,457.54993625,197.51999999999998,454.53302399999995C203.00666666666666,451.51611174999994,208.49333333333334,448.56030724999994,213.98000000000002,445.50265649999994C219.4666666666667,442.44500574999995,224.95333333333335,439.1587667499999,230.44000000000003,436.18711949999994C235.92666666666668,433.21547224999995,241.41333333333333,430.73042374999994,246.89999999999998,427.67277299999995C252.38666666666666,424.61512224999996,257.87333333333333,420.91244524999996,263.36,417.841215C268.8466666666667,414.76998475,274.3333333333333,412.42299449999996,279.82,409.2453915C285.3066666666667,406.0677885,290.7933333333333,401.4009669999999,296.28,398.77559699999995C301.76666666666665,396.1502269999999,307.25333333333333,395.38298524999993,312.74,393.49317149999996C318.2266666666667,391.60335775,323.71333333333337,389.82218,329.20000000000005,387.4367145C334.68666666666667,385.051249,340.17333333333335,381.4707875,345.65999999999997,379.18037849999996C351.14666666666665,376.88996949999995,356.6333333333333,374.95489074999995,362.12,373.6942604999999C367.6066666666667,372.4336302499999,373.09333333333336,372.55131924999995,378.58000000000004,371.61659699999996C384.06666666666666,370.68187474999996,389.55333333333334,369.3624,395.03999999999996,368.08592699999997C400.52666666666664,366.80945399999996,406.0133333333333,365.24781149999995,411.5,363.95775899999995C416.9866666666667,362.66770649999995,422.47333333333336,361.64471749999996,427.96000000000004,360.34561199999996C433.4466666666667,359.04650649999996,438.93333333333334,357.58444699999995,444.42,356.163126C449.9066666666667,354.741805,455.3933333333334,353.1029630425,460.88000000000005,351.817686C466.3666666666667,350.53240895749997,471.85333333333335,350.35076051249996,477.34,348.45146374499996C482.82666666666665,346.55216697749995,488.3133333333333,343.15362551249996,493.79999999999995,340.42190539499995C499.28666666666663,337.69018527749995,504.7733333333333,334.90550511,510.26,332.06114304C515.7466666666667,329.21678097,521.2333333333333,326.31737666,526.72,323.35573297499997C532.2066666666667,320.39408928999995,537.6933333333334,317.37507221749996,543.1800000000001,314.29128092999997C548.6666666666667,311.2074896425,554.1533333333333,308.06392592249995,559.64,304.85298524999996C565.1266666666667,301.6420445775,570.6133333333332,298.3689776925,576.0999999999999,295.025636895C581.5866666666666,291.6822960975,587.0733333333333,288.27413581999997,592.56,284.79294046499996C598.0466666666666,281.31174510999995,603.5333333333333,277.7632180674999,609.02,274.1384647649999C614.5066666666667,270.51371146249994,619.9933333333333,266.8186389825,625.48,263.04442065C630.9666666666667,259.27020231750004,636.4533333333334,255.42299417249998,641.94,251.49315477C647.4266666666667,247.5633153675,652.9133333333334,243.55729497000002,658.4000000000001,239.465384235C663.8866666666668,235.3734735,669.3733333333333,231.20230375,674.86,226.94169036C680.3466666666667,222.68107697,685.8333333333333,218.33799075000002,691.3199999999999,213.90170389500003C696.8066666666666,209.46541704,702.2933333333333,204.94321721499995,707.78,200.32396922999993C713.2666666666667,195.70472124499992,718.7533333333333,190.99593908999998,724.24,186.186215985C729.7266666666667,181.37649288,735.2133333333334,176.47365967,740.7,171.4656306C746.1866666666667,166.45760153,751.6733333333334,161.3525921975,757.1600000000001,156.13804156499998C762.6466666666668,150.9234909325,768.1333333333333,145.55090886874999,773.62,140.17832680499998"/><text class="label" font-size="11" alignment-baseline="middle" opacity="1" x="5" fill="rgb(204, 80, 62)" transform="translate(823.6199951171875, 150.17832946777344)"/></g></g><g id="data-points"><g class="series" transform="translate(50,10)"><path class="data-point" fill="rgb(17, 165, 121)" data-type="point" transform="translate(0, 0)" d="M13.46,502.00695599999995A3,3,0,1,1,19.46,502.00695599999995A3,3,0,1,1,13.46,502.00695599999995Z" id="point-0-0" opacity="1"/><path class="data-point" fill="rgb(17, 165, 121)" data-type="point" transform="translate(0, 0)" d="M29.92,493.11238349999996A3,3,0,1,1,35.92,493.11238349999996A3,3,0,1,1,29.92,493.11238349999996Z" id="point-0-1" opacity="1"/><path class="data-point" fill="rgb(17, 165, 121)" data-type="point" transform="translate(0, 0)" d="M46.379999999999995,490.80386849999996A3,3,0,1,1,52.379999999999995,490.80386849999996A3,3,0,1,1,46.379999999999995,490.80386849999996Z" id="point-0-2" opacity="1"/><path class="data-point" fill="rgb(17, 165, 121)" data-type="point" transform="translate(0, 0)" d="M62.84,487.80279899999994A3,3,0,1,1,68.84,487.80279899999994A3,3,0,1,1,62.84,487.80279899999994Z" id="point-0-3" opacity="1"/><path class="data-point" fill="rgb(17, 165, 121)" data-type="point" transform="translate(0, 0)" d="M79.30000000000001,486.58064399999995A3,3,0,1,1,85.30000000000001,486.58064399999995A3,3,0,1,1,79.30000000000001,486.58064399999995Z" id="point-0-4" opacity="1"/><path class="data-point" fill="rgb(17, 165, 121)" data-type="point" transform="translate(0, 0)" d="M95.75999999999999,482.80554299999994A3,3,0,1,1,101.75999999999999,482.80554299999994A3,3,0,1,1,95.75999999999999,482.80554299999994Z" id="point-0-5" opacity="1"/><path class="data-point" fill="rgb(17, 165, 121)" data-type="point" transform="translate(0, 0)" d="M112.22000000000001,477.41448149999997A3,3,0,1,1,118.22000000000001,477.41448149999997A3,3,0,1,1,112.22000000000001,477.41448149999997Z" id="point-0-6" opacity="1"/><path class="data-point" fill="rgb(17, 165, 121)" data-type="point" transform="translate(0, 0)" d="M128.68,470.96421899999996A3,3,0,1,1,134.68,470.96421899999996A3,3,0,1,1,128.68,470.96421899999996Z" id="point-0-7" opacity="1"/><path class="data-point" fill="rgb(17, 165, 121)" data-type="point" transform="translate(0, 0)" d="M145.14,465.98054249999996A3,3,0,1,1,151.14,465.98054249999996A3,3,0,1,1,145.14,465.98054249999996Z" id="point-0-8" opacity="1"/><path class="data-point" fill="rgb(17, 165, 121)" data-type="point" transform="translate(0, 0)" d="M161.60000000000002,461.82521549999996A3,3,0,1,1,167.60000000000002,461.82521549999996A3,3,0,1,1,161.60000000000002,461.82521549999996Z" id="point-0-9" opacity="1"/><path class="data-point" fill="rgb(17, 165, 121)" data-type="point" transform="translate(0, 0)" d="M178.06,452.72695049999993A3,3,0,1,1,184.06,452.72695049999993A3,3,0,1,1,178.06,452.72695049999993Z" id="point-0-10" opacity="1"/><path class="data-point" fill="rgb(17, 165, 121)" data-type="point" transform="translate(0, 0)" d="M194.51999999999998,442.039884A3,3,0,1,1,200.51999999999998,442.039884A3,3,0,1,1,194.51999999999998,442.039884Z" id="point-0-11" opacity="1"/><path class="data-point" fill="rgb(17, 165, 121)" data-type="point" transform="translate(0, 0)" d="M210.98000000000002,431.74662299999994A3,3,0,1,1,216.98000000000002,431.74662299999994A3,3,0,1,1,210.98000000000002,431.74662299999994Z" id="point-0-12" opacity="1"/><path class="data-point" fill="rgb(17, 165, 121)" data-type="point" transform="translate(0, 0)" d="M227.44000000000003,419.36211899999995A3,3,0,1,1,233.44000000000003,419.36211899999995A3,3,0,1,1,227.44000000000003,419.36211899999995Z" id="point-0-13" opacity="1"/><path class="data-point" fill="rgb(17, 165, 121)" data-type="point" transform="translate(0, 0)" d="M243.89999999999998,409.32686849999993A3,3,0,1,1,249.89999999999998,409.32686849999993A3,3,0,1,1,243.89999999999998,409.32686849999993Z" id="point-0-14" opacity="1"/><path class="data-point" fill="rgb(17, 165, 121)" data-type="point" transform="translate(0, 0)" d="M260.36,399.87553649999995A3,3,0,1,1,266.36,399.87553649999995A3,3,0,1,1,260.36,399.87553649999995Z" id="point-0-15" opacity="1"/><path class="data-point" fill="rgb(17, 165, 121)" data-type="point" transform="translate(0, 0)" d="M276.82,389.63659349999995A3,3,0,1,1,282.82,389.63659349999995A3,3,0,1,1,276.82,389.63659349999995Z" id="point-0-16" opacity="1"/><path class="data-point" fill="rgb(17, 165, 121)" data-type="point" transform="translate(0, 0)" d="M293.28,376.04351399999996A3,3,0,1,1,299.28,376.04351399999996A3,3,0,1,1,293.28,376.04351399999996Z" id="point-0-17" opacity="1"/><path class="data-point" fill="rgb(17, 165, 121)" data-type="point" transform="translate(0, 0)" d="M309.74,370.42160099999995A3,3,0,1,1,315.74,370.42160099999995A3,3,0,1,1,309.74,370.42160099999995Z" id="point-0-18" opacity="1"/><path class="data-point" fill="rgb(17, 165, 121)" data-type="point" transform="translate(0, 0)" d="M326.20000000000005,362.6677065A3,3,0,1,1,332.20000000000005,362.6677065A3,3,0,1,1,326.20000000000005,362.6677065Z" id="point-0-19" opacity="1"/><path class="data-point" fill="rgb(17, 165, 121)" data-type="point" transform="translate(0, 0)" d="M342.65999999999997,354.6014835A3,3,0,1,1,348.65999999999997,354.6014835A3,3,0,1,1,342.65999999999997,354.6014835Z" id="point-0-20" opacity="1"/><path class="data-point" fill="rgb(17, 165, 121)" data-type="point" transform="translate(0, 0)" d="M359.12,347.933949A3,3,0,1,1,365.12,347.933949A3,3,0,1,1,359.12,347.933949Z" id="point-0-21" opacity="1"/><path class="data-point" fill="rgb(17, 165, 121)" data-type="point" transform="translate(0, 0)" d="M375.58000000000004,343.15396499999997A3,3,0,1,1,381.58000000000004,343.15396499999997A3,3,0,1,1,375.58000000000004,343.15396499999997Z" id="point-0-22" opacity="1"/><path class="data-point" fill="rgb(17, 165, 121)" data-type="point" transform="translate(0, 0)" d="M392.03999999999996,339.161592A3,3,0,1,1,398.03999999999996,339.161592A3,3,0,1,1,392.03999999999996,339.161592Z" id="point-0-23" opacity="1"/><path class="data-point" fill="rgb(17, 165, 121)" data-type="point" transform="translate(0, 0)" d="M408.5,333.159453A3,3,0,1,1,414.5,333.159453A3,3,0,1,1,408.5,333.159453Z" id="point-0-24" opacity="1"/><path class="data-point" fill="rgb(17, 165, 121)" data-type="point" transform="translate(0, 0)" d="M424.96000000000004,328.705377A3,3,0,1,1,430.96000000000004,328.705377A3,3,0,1,1,424.96000000000004,328.705377Z" id="point-0-25" opacity="1"/><path class="data-point" fill="rgb(17, 165, 121)" data-type="point" transform="translate(0, 0)" d="M441.42,323.8846545A3,3,0,1,1,447.42,323.8846545A3,3,0,1,1,441.42,323.8846545Z" id="point-0-26" opacity="1"/><path class="data-point" fill="rgb(17, 165, 121)" data-type="point" transform="translate(0, 0)" d="M457.88000000000005,318.42569549999996A3,3,0,1,1,463.88000000000005,318.42569549999996A3,3,0,1,1,457.88000000000005,318.42569549999996Z" id="point-0-27" opacity="1"/><path class="data-point" fill="rgb(17, 165, 121)" data-type="point" transform="translate(0, 0)" d="M474.34,314.62506504A3,3,0,1,1,480.34,314.62506504A3,3,0,1,1,474.34,314.62506504Z" id="point-0-28" opacity="1"/><path class="data-point" fill="rgb(17, 165, 121)" data-type="point" transform="translate(0, 0)" d="M490.79999999999995,304.97438597999997A3,3,0,1,1,496.79999999999995,304.97438597999997A3,3,0,1,1,490.79999999999995,304.97438597999997Z" id="point-0-29" opacity="1"/><path class="data-point" fill="rgb(17, 165, 121)" data-type="point" transform="translate(0, 0)" d="M507.26,294.91618612499997A3,3,0,1,1,513.26,294.91618612499997A3,3,0,1,1,507.26,294.91618612499997Z" id="point-0-30" opacity="1"/><path class="data-point" fill="rgb(17, 165, 121)" data-type="point" transform="translate(0, 0)" d="M523.72,284.433355305A3,3,0,1,1,529.72,284.433355305A3,3,0,1,1,523.72,284.433355305Z" id="point-0-31" opacity="1"/><path class="data-point" fill="rgb(17, 165, 121)" data-type="point" transform="translate(0, 0)" d="M540.1800000000001,273.50796858A3,3,0,1,1,546.1800000000001,273.50796858A3,3,0,1,1,540.1800000000001,273.50796858Z" id="point-0-32" opacity="1"/><path class="data-point" fill="rgb(17, 165, 121)" data-type="point" transform="translate(0, 0)" d="M556.64,262.12115044499996A3,3,0,1,1,562.64,262.12115044499996A3,3,0,1,1,556.64,262.12115044499996Z" id="point-0-33" opacity="1"/><path class="data-point" fill="rgb(17, 165, 121)" data-type="point" transform="translate(0, 0)" d="M573.0999999999999,250.25361800999997A3,3,0,1,1,579.0999999999999,250.25361800999997A3,3,0,1,1,573.0999999999999,250.25361800999997Z" id="point-0-34" opacity="1"/><path class="data-point" fill="rgb(17, 165, 121)" data-type="point" transform="translate(0, 0)" d="M589.56,237.88486622999994A3,3,0,1,1,595.56,237.88486622999994A3,3,0,1,1,589.56,237.88486622999994Z" id="point-0-35" opacity="1"/><path class="data-point" fill="rgb(17, 165, 121)" data-type="point" transform="translate(0, 0)" d="M606.02,224.99398267500004A3,3,0,1,1,612.02,224.99398267500004A3,3,0,1,1,606.02,224.99398267500004Z" id="point-0-36" opacity="1"/><path class="data-point" fill="rgb(17, 165, 121)" data-type="point" transform="translate(0, 0)" d="M622.48,211.55869696499997A3,3,0,1,1,628.48,211.55869696499997A3,3,0,1,1,622.48,211.55869696499997Z" id="point-0-37" opacity="1"/><path class="data-point" fill="rgb(17, 165, 121)" data-type="point" transform="translate(0, 0)" d="M638.94,197.55605974499997A3,3,0,1,1,644.94,197.55605974499997A3,3,0,1,1,638.94,197.55605974499997Z" id="point-0-38" opacity="1"/><path class="data-point" fill="rgb(17, 165, 121)" data-type="point" transform="translate(0, 0)" d="M655.4000000000001,182.96230688999998A3,3,0,1,1,661.4000000000001,182.96230688999998A3,3,0,1,1,655.4000000000001,182.96230688999998Z" id="point-0-39" opacity="1"/><path class="data-point" fill="rgb(17, 165, 121)" data-type="point" transform="translate(0, 0)" d="M671.86,167.75231632499998A3,3,0,1,1,677.86,167.75231632499998A3,3,0,1,1,671.86,167.75231632499998Z" id="point-0-40" opacity="1"/><path class="data-point" fill="rgb(17, 165, 121)" data-type="point" transform="translate(0, 0)" d="M688.3199999999999,151.90001540999998A3,3,0,1,1,694.3199999999999,151.90001540999998A3,3,0,1,1,688.3199999999999,151.90001540999998Z" id="point-0-41" opacity="1"/><path class="data-point" fill="rgb(17, 165, 121)" data-type="point" transform="translate(0, 0)" d="M704.78,135.37838094A3,3,0,1,1,710.78,135.37838094A3,3,0,1,1,704.78,135.37838094Z" id="point-0-42" opacity="1"/><path class="data-point" fill="rgb(17, 165, 121)" data-type="point" transform="translate(0, 0)" d="M721.24,118.15916755499995A3,3,0,1,1,727.24,118.15916755499995A3,3,0,1,1,721.24,118.15916755499995Z" id="point-0-43" opacity="1"/><path class="data-point" fill="rgb(17, 165, 121)" data-type="point" transform="translate(0, 0)" d="M737.7,100.21277194499999A3,3,0,1,1,743.7,100.21277194499999A3,3,0,1,1,737.7,100.21277194499999Z" id="point-0-44" opacity="1"/><path class="data-point" fill="rgb(17, 165, 121)" data-type="point" transform="translate(0, 0)" d="M754.1600000000001,81.50864023500003A3,3,0,1,1,760.1600000000001,81.50864023500003A3,3,0,1,1,754.1600000000001,81.50864023500003Z" id="point-0-45" opacity="1"/><path class="data-point" fill="#11A579" data-type="point" transform="translate(0, 0)" d="M770.62,62.01486060000008A3,3,0,1,1,776.62,62.01486060000008A3,3,0,1,1,770.62,62.01486060000008Z" id="point-0-46" opacity="1"/></g><g class="series" transform="translate(50,10)"><path class="data-point" fill="rgb(204, 80, 62)" data-type="point" transform="translate(0, 0)" d="M13.46,503.59575749999993A3,3,0,1,1,19.46,503.59575749999993A3,3,0,1,1,13.46,503.59575749999993Z" id="point-1-0" opacity="1"/><path class="data-point" fill="rgb(204, 80, 62)" data-type="point" transform="translate(0, 0)" d="M29.92,500.295939A3,3,0,1,1,35.92,500.295939A3,3,0,1,1,29.92,500.295939Z" id="point-1-1" opacity="1"/><path class="data-point" fill="rgb(204, 80, 62)" data-type="point" transform="translate(0, 0)" d="M46.379999999999995,498.5441835A3,3,0,1,1,52.379999999999995,498.5441835A3,3,0,1,1,46.379999999999995,498.5441835Z" id="point-1-2" opacity="1"/><path class="data-point" fill="rgb(204, 80, 62)" data-type="point" transform="translate(0, 0)" d="M62.84,495.93691949999993A3,3,0,1,1,68.84,495.93691949999993A3,3,0,1,1,62.84,495.93691949999993Z" id="point-1-3" opacity="1"/><path class="data-point" fill="rgb(204, 80, 62)" data-type="point" transform="translate(0, 0)" d="M79.30000000000001,493.1802809999999A3,3,0,1,1,85.30000000000001,493.1802809999999A3,3,0,1,1,79.30000000000001,493.1802809999999Z" id="point-1-4" opacity="1"/><path class="data-point" fill="rgb(204, 80, 62)" data-type="point" transform="translate(0, 0)" d="M95.75999999999999,489.26938499999994A3,3,0,1,1,101.75999999999999,489.26938499999994A3,3,0,1,1,95.75999999999999,489.26938499999994Z" id="point-1-5" opacity="1"/><path class="data-point" fill="rgb(204, 80, 62)" data-type="point" transform="translate(0, 0)" d="M112.22000000000001,484.598037A3,3,0,1,1,118.22000000000001,484.598037A3,3,0,1,1,112.22000000000001,484.598037Z" id="point-1-6" opacity="1"/><path class="data-point" fill="rgb(204, 80, 62)" data-type="point" transform="translate(0, 0)" d="M128.68,479.65509899999995A3,3,0,1,1,134.68,479.65509899999995A3,3,0,1,1,128.68,479.65509899999995Z" id="point-1-7" opacity="1"/><path class="data-point" fill="rgb(204, 80, 62)" data-type="point" transform="translate(0, 0)" d="M145.14,475.1602845A3,3,0,1,1,151.14,475.1602845A3,3,0,1,1,145.14,475.1602845Z" id="point-1-8" opacity="1"/><path class="data-point" fill="rgb(204, 80, 62)" data-type="point" transform="translate(0, 0)" d="M161.60000000000002,470.3803005A3,3,0,1,1,167.60000000000002,470.3803005A3,3,0,1,1,161.60000000000002,470.3803005Z" id="point-1-9" opacity="1"/><path class="data-point" fill="rgb(204, 80, 62)" data-type="point" transform="translate(0, 0)" d="M178.06,463.60412999999994A3,3,0,1,1,184.06,463.60412999999994A3,3,0,1,1,178.06,463.60412999999994Z" id="point-1-10" opacity="1"/><path class="data-point" fill="rgb(204, 80, 62)" data-type="point" transform="translate(0, 0)" d="M194.51999999999998,454.53302399999995A3,3,0,1,1,200.51999999999998,454.53302399999995A3,3,0,1,1,194.51999999999998,454.53302399999995Z" id="point-1-11" opacity="1"/><path class="data-point" fill="rgb(204, 80, 62)" data-type="point" transform="translate(0, 0)" d="M210.98000000000002,445.50265649999994A3,3,0,1,1,216.98000000000002,445.50265649999994A3,3,0,1,1,210.98000000000002,445.50265649999994Z" id="point-1-12" opacity="1"/><path class="data-point" fill="rgb(204, 80, 62)" data-type="point" transform="translate(0, 0)" d="M227.44000000000003,436.18711949999994A3,3,0,1,1,233.44000000000003,436.18711949999994A3,3,0,1,1,227.44000000000003,436.18711949999994Z" id="point-1-13" opacity="1"/><path class="data-point" fill="rgb(204, 80, 62)" data-type="point" transform="translate(0, 0)" d="M243.89999999999998,427.67277299999995A3,3,0,1,1,249.89999999999998,427.67277299999995A3,3,0,1,1,243.89999999999998,427.67277299999995Z" id="point-1-14" opacity="1"/><path class="data-point" fill="rgb(204, 80, 62)" data-type="point" transform="translate(0, 0)" d="M260.36,417.841215A3,3,0,1,1,266.36,417.841215A3,3,0,1,1,260.36,417.841215Z" id="point-1-15" opacity="1"/><path class="data-point" fill="rgb(204, 80, 62)" data-type="point" transform="translate(0, 0)" d="M276.82,409.2453915A3,3,0,1,1,282.82,409.2453915A3,3,0,1,1,276.82,409.2453915Z" id="point-1-16" opacity="1"/><path class="data-point" fill="rgb(204, 80, 62)" data-type="point" transform="translate(0, 0)" d="M293.28,398.77559699999995A3,3,0,1,1,299.28,398.77559699999995A3,3,0,1,1,293.28,398.77559699999995Z" id="point-1-17" opacity="1"/><path class="data-point" fill="rgb(204, 80, 62)" data-type="point" transform="translate(0, 0)" d="M309.74,393.49317149999996A3,3,0,1,1,315.74,393.49317149999996A3,3,0,1,1,309.74,393.49317149999996Z" id="point-1-18" opacity="1"/><path class="data-point" fill="rgb(204, 80, 62)" data-type="point" transform="translate(0, 0)" d="M326.20000000000005,387.4367145A3,3,0,1,1,332.20000000000005,387.4367145A3,3,0,1,1,326.20000000000005,387.4367145Z" id="point-1-19" opacity="1"/><path class="data-point" fill="rgb(204, 80, 62)" data-type="point" transform="translate(0, 0)" d="M342.65999999999997,379.18037849999996A3,3,0,1,1,348.65999999999997,379.18037849999996A3,3,0,1,1,342.65999999999997,379.18037849999996Z" id="point-1-20" opacity="1"/><path class="data-point" fill="rgb(204, 80, 62)" data-type="point" transform="translate(0, 0)" d="M359.12,373.6942604999999A3,3,0,1,1,365.12,373.6942604999999A3,3,0,1,1,359.12,373.6942604999999Z" id="point-1-21" opacity="1"/><path class="data-point" fill="rgb(204, 80, 62)" data-type="point" transform="translate(0, 0)" d="M375.58000000000004,371.61659699999996A3,3,0,1,1,381.58000000000004,371.61659699999996A3,3,0,1,1,375.58000000000004,371.61659699999996Z" id="point-1-22" opacity="1"/><path class="data-point" fill="rgb(204, 80, 62)" data-type="point" transform="translate(0, 0)" d="M392.03999999999996,368.08592699999997A3,3,0,1,1,398.03999999999996,368.08592699999997A3,3,0,1,1,392.03999999999996,368.08592699999997Z" id="point-1-23" opacity="1"/><path class="data-point" fill="rgb(204, 80, 62)" data-type="point" transform="translate(0, 0)" d="M408.5,363.95775899999995A3,3,0,1,1,414.5,363.95775899999995A3,3,0,1,1,408.5,363.95775899999995Z" id="point-1-24" opacity="1"/><path class="data-point" fill="rgb(204, 80, 62)" data-type="point" transform="translate(0, 0)" d="M424.96000000000004,360.34561199999996A3,3,0,1,1,430.96000000000004,360.34561199999996A3,3,0,1,1,424.96000000000004,360.34561199999996Z" id="point-1-25" opacity="1"/><path class="data-point" fill="rgb(204, 80, 62)" data-type="point" transform="translate(0, 0)" d="M441.42,356.163126A3,3,0,1,1,447.42,356.163126A3,3,0,1,1,441.42,356.163126Z" id="point-1-26" opacity="1"/><path class="data-point" fill="rgb(204, 80, 62)" data-type="point" transform="translate(0, 0)" d="M457.88000000000005,351.817686A3,3,0,1,1,463.88000000000005,351.817686A3,3,0,1,1,457.88000000000005,351.817686Z" id="point-1-27" opacity="1"/><path class="data-point" fill="rgb(204, 80, 62)" data-type="point" transform="translate(0, 0)" d="M474.34,348.45146374499996A3,3,0,1,1,480.34,348.45146374499996A3,3,0,1,1,474.34,348.45146374499996Z" id="point-1-28" opacity="1"/><path class="data-point" fill="rgb(204, 80, 62)" data-type="point" transform="translate(0, 0)" d="M490.79999999999995,340.42190539499995A3,3,0,1,1,496.79999999999995,340.42190539499995A3,3,0,1,1,490.79999999999995,340.42190539499995Z" id="point-1-29" opacity="1"/><path class="data-point" fill="rgb(204, 80, 62)" data-type="point" transform="translate(0, 0)" d="M507.26,332.06114304A3,3,0,1,1,513.26,332.06114304A3,3,0,1,1,507.26,332.06114304Z" id="point-1-30" opacity="1"/><path class="data-point" fill="rgb(204, 80, 62)" data-type="point" transform="translate(0, 0)" d="M523.72,323.35573297499997A3,3,0,1,1,529.72,323.35573297499997A3,3,0,1,1,523.72,323.35573297499997Z" id="point-1-31" opacity="1"/><path class="data-point" fill="rgb(204, 80, 62)" data-type="point" transform="translate(0, 0)" d="M540.1800000000001,314.29128092999997A3,3,0,1,1,546.1800000000001,314.29128092999997A3,3,0,1,1,540.1800000000001,314.29128092999997Z" id="point-1-32" opacity="1"/><path class="data-point" fill="rgb(204, 80, 62)" data-type="point" transform="translate(0, 0)" d="M556.64,304.85298524999996A3,3,0,1,1,562.64,304.85298524999996A3,3,0,1,1,556.64,304.85298524999996Z" id="point-1-33" opacity="1"/><path class="data-point" fill="rgb(204, 80, 62)" data-type="point" transform="translate(0, 0)" d="M573.0999999999999,295.025636895A3,3,0,1,1,579.0999999999999,295.025636895A3,3,0,1,1,573.0999999999999,295.025636895Z" id="point-1-34" opacity="1"/><path class="data-point" fill="rgb(204, 80, 62)" data-type="point" transform="translate(0, 0)" d="M589.56,284.79294046499996A3,3,0,1,1,595.56,284.79294046499996A3,3,0,1,1,589.56,284.79294046499996Z" id="point-1-35" opacity="1"/><path class="data-point" fill="rgb(204, 80, 62)" data-type="point" transform="translate(0, 0)" d="M606.02,274.1384647649999A3,3,0,1,1,612.02,274.1384647649999A3,3,0,1,1,606.02,274.1384647649999Z" id="point-1-36" opacity="1"/><path class="data-point" fill="rgb(204, 80, 62)" data-type="point" transform="translate(0, 0)" d="M622.48,263.04442065A3,3,0,1,1,628.48,263.04442065A3,3,0,1,1,622.48,263.04442065Z" id="point-1-37" opacity="1"/><path class="data-point" fill="rgb(204, 80, 62)" data-type="point" transform="translate(0, 0)" d="M638.94,251.49315477A3,3,0,1,1,644.94,251.49315477A3,3,0,1,1,638.94,251.49315477Z" id="point-1-38" opacity="1"/><path class="data-point" fill="rgb(204, 80, 62)" data-type="point" transform="translate(0, 0)" d="M655.4000000000001,239.465384235A3,3,0,1,1,661.4000000000001,239.465384235A3,3,0,1,1,655.4000000000001,239.465384235Z" id="point-1-39" opacity="1"/><path class="data-point" fill="rgb(204, 80, 62)" data-type="point" transform="translate(0, 0)" d="M671.86,226.94169036A3,3,0,1,1,677.86,226.94169036A3,3,0,1,1,671.86,226.94169036Z" id="point-1-40" opacity="1"/><path class="data-point" fill="rgb(204, 80, 62)" data-type="point" transform="translate(0, 0)" d="M688.3199999999999,213.90170389500003A3,3,0,1,1,694.3199999999999,213.90170389500003A3,3,0,1,1,688.3199999999999,213.90170389500003Z" id="point-1-41" opacity="1"/><path class="data-point" fill="rgb(204, 80, 62)" data-type="point" transform="translate(0, 0)" d="M704.78,200.32396922999993A3,3,0,1,1,710.78,200.32396922999993A3,3,0,1,1,704.78,200.32396922999993Z" id="point-1-42" opacity="1"/><path class="data-point" fill="rgb(204, 80, 62)" data-type="point" transform="translate(0, 0)" d="M721.24,186.186215985A3,3,0,1,1,727.24,186.186215985A3,3,0,1,1,721.24,186.186215985Z" id="point-1-43" opacity="1"/><path class="data-point" fill="rgb(204, 80, 62)" data-type="point" transform="translate(0, 0)" d="M737.7,171.4656306A3,3,0,1,1,743.7,171.4656306A3,3,0,1,1,737.7,171.4656306Z" id="point-1-44" opacity="1"/><path class="data-point" fill="rgb(204, 80, 62)" data-type="point" transform="translate(0, 0)" d="M754.1600000000001,156.13804156499998A3,3,0,1,1,760.1600000000001,156.13804156499998A3,3,0,1,1,754.1600000000001,156.13804156499998Z" id="point-1-45" opacity="1"/><path class="data-point" fill="rgb(204, 80, 62)" data-type="point" transform="translate(0, 0)" d="M770.62,140.17832680499998A3,3,0,1,1,776.62,140.17832680499998A3,3,0,1,1,770.62,140.17832680499998Z" id="point-1-46" opacity="1"/></g></g><g id="data-labels"/><g class="annotations above"><g class="axis-highlights" transform="translate(50, 10)" style="opacity: 1;"/></g></svg>