<svg xmlns="http://www.w3.org/2000/svg" id="graphic" width="961" height="634.6"><g id="facets"><g class="facet" transform="translate(15,20)" opacity="1"><text class="facet-title" y="0" font-size="16" font-weight="bold" dominant-baseline="middle" x="0" clip-path="url(#facet-clip-0)" fill="black"/><g class="plot"><clipPath class="facet-clip" id="facet-clip-0"><rect width="951" height="581.6" transform="translate(-7.5,-10)"/></clipPath><g class="bg"><rect fill="none" width="936" height="561.6" style="fill: none;"/></g><g class="interaction"><g class="series"><path data-target="point-0-0" d="M81.19924155999999,561.6L66.54536261714286,510.7752L0,510.7751999999999L0,561.6Z" style="opacity: 0;"/><path data-target="point-0-1" d="M66.54536261714286,510.7752L81.19924155999999,561.6L90.12979259428573,561.6L84.54561926857143,505.91736L67.17462639142857,505.91736Z" style="opacity: 0;"/><path data-target="point-0-2" d="M84.54561926857143,505.91736L90.12979259428573,561.6L109.22453368499986,561.6L102.402894315,503.8113599999999L85.14182410785715,503.8113599999999Z" style="opacity: 0;"/><path data-target="point-0-3" d="M102.402894315,503.8113599999999L109.22453368499986,561.6L134.02001971428575,561.6L120.08285769999999,500.95655999999997L103.25879903999999,500.95655999999997Z" style="opacity: 0;"/><path data-target="point-0-4" d="M120.08285769999999,500.95655999999997L134.02001971428575,561.6L148.8854171428572,561.6L138.08753394285714,496.99728L121.154090395,496.99728Z" style="opacity: 0;"/><path data-target="point-0-5" d="M138.08753394285714,496.99728L148.8854171428572,561.6L184.92765846000003,561.6L155.74955495999998,492.804L139.41043890285712,492.804Z" style="opacity: 0;"/><path data-target="point-0-6" d="M155.74955495999998,492.804L184.92765846000003,561.6L202.64533504,561.6L173.81630103999998,485.78399999999993L157.09889924571428,485.78399999999993Z" style="opacity: 0;"/><path data-target="point-0-7" d="M173.81630103999998,485.78399999999993L202.64533504,561.6L238.99557885714273,561.6L192.3833605142857,478.96991999999995L174.98369896,478.96991999999995Z" style="opacity: 0;"/><path data-target="point-0-8" d="M192.28116235142858,470.81736L192.3833605142857,478.96991999999995L238.99557885714273,561.6L254.49849257142859,561.6L210.8741918142857,470.81736Z" style="opacity: 0;"/><path data-target="point-0-9" d="M209.7547053942857,463.21704L210.8741918142857,470.81736L254.49849257142859,561.6L286.73233675428605,561.6L230.0005056057143,463.21704Z" style="opacity: 0;"/><path data-target="point-0-10" d="M226.49620960642855,453.37968L230.0005056057143,463.21704L286.73233675428605,561.6L328.6754757457141,561.6L249.7654699142857,453.37968Z" style="opacity: 0;"/><path data-target="point-0-11" d="M242.55293137142854,440.59391999999997L249.7654699142857,453.37968L328.6754757457141,561.6L359.1815725714284,561.6L268.1677138285714,440.59391999999997Z" style="opacity: 0;"/><path data-target="point-0-12" d="M260.1506532,427.63032L268.1677138285714,440.59391999999997L359.1815725714284,561.6L393.2334821778571,561.6L287.01107599,427.63032Z" style="opacity: 0;"/><path data-target="point-0-13" d="M25.418943198657303,71.99528963002359L74.78892889028273,158.60522959935554L276.82892401000004,413.42184000000003L303.2364169014286,413.42184000000003L295.5714569085714,400.17744Z" style="opacity: 0;"/><path data-target="point-0-14" d="M0,21.478798187825973L14.807019343164825,54.48939109428045L25.418943198657303,71.99528963002359L295.5714569085714,400.17744L321.2287926,400.17744L314.4924357,387.01727999999997L38.763356768570645,0L0,0Z" style="opacity: 0;"/><path data-target="point-0-15" d="M38.763356768570645,0L314.4924357,387.01727999999997L338.409518155,387.01727999999997L333.20489191,375.71975999999995L107.91393082000062,0Z" style="opacity: 0;"/><path data-target="point-0-16" d="M107.91393082000062,0L333.20489191,375.71975999999995L356.65053498285715,375.71975999999995L350.5058166628571,363.86064L107.99919761428623,0Z" style="opacity: 0;"/><path data-target="point-0-17" d="M350.5058166628571,363.86064L356.65053498285715,375.71975999999995L430.8341280719338,488.618574098849L372.8383973678571,363.86064Z" style="opacity: 0;"/><path data-target="point-0-18" d="M370.3675133121428,356.0544L372.8383973678571,363.86064L430.8341280719338,488.618574098849L432.9315987526484,492.3575595393309L390.072774025,356.0544Z" style="opacity: 0;"/><path data-target="point-0-19" d="M388.50240127857137,349.06247999999994L390.072774025,356.0544L432.9315987526484,492.3575595393309L449.2023372174105,526.3402673818176L407.34895102142855,349.06247999999994Z" style="opacity: 0;"/><path data-target="point-0-20" d="M407.34895102142855,349.06247999999994L449.2023372174105,526.3402673818176L463.9450768041071,561.6L477.3601916142861,561.6L424.41866856428567,341.25624L407.38972468571427,341.25624Z" style="opacity: 0;"/><path data-target="point-0-21" d="M424.41866856428567,341.25624L477.3601916142861,561.6L494.91594688000015,561.6L441.96689488,335.322L426.7929473914285,335.322Z" style="opacity: 0;"/><path data-target="point-0-22" d="M441.96689488,335.322L494.91594688000015,561.6L523.1468800675,561.6L490.45817910598635,421.59217928872334L459.87684324285715,331.79328L444.0422548364285,331.79328Z" style="opacity: 0;"/><path data-target="point-0-23" d="M459.87684324285715,331.79328L490.45817910598635,421.59217928872334L478.4141291421428,326.30832L462.1114747142857,326.30832Z" style="opacity: 0;"/><path data-target="point-0-24" d="M478.4141291421428,326.30832L490.45817910598635,421.59217928872334L523.1468800675,561.6L547.9246456707139,561.6L495.68481098285713,322.33032L480.6124358742857,322.33032Z" style="opacity: 0;"/><path data-target="point-0-25" d="M495.68481098285713,322.33032L547.9246456707139,561.6L571.9527654714287,561.6L513.3957212857143,317.88432L498.58296784,317.88432Z" style="opacity: 0;"/><path data-target="point-0-26" d="M513.3957212857143,317.88432L571.9527654714287,561.6L594.7404598734825,561.6L541.3711419191322,316.2236681078649L536.8300416000001,312.84864L516.8676428,312.84864Z" style="opacity: 0;"/><path data-target="point-0-27" d="M355.7794401232144,0L408.3993743990431,121.2303709647077L428.49993437460336,158.2333742070278L475.20624089815954,233.75754737979133L502.59203810783004,268.48001624811195L529.0390450285714,289.54224L549.1830232114944,289.54224L559.8649401590743,273.4166073138489L560.6989815413779,236.11696762974813L550.2065134577377,183.5191898906321L530.0121434508351,119.82179628578714L502.4236553132872,49.638287021813085L480.1565623938392,7.105427357601002e-15Z" style="opacity: 0;"/><path data-target="point-0-28" d="M541.3711419191322,316.2236681078649L594.7404598734825,561.6L681.6071062198616,561.6L565.7411975538347,303.635592L552.8325887276413,303.635592Z" style="opacity: 0;"/><path data-target="point-0-29" d="M565.7411975538347,303.635592L681.6071062198616,561.6L706.9936075244931,561.6L582.9272862633521,294.0765985L572.6265613754978,294.0765985Z" style="opacity: 0;"/><path data-target="point-0-30" d="M582.9272862633521,294.0765985L706.9936075244931,561.6L732.8751196648484,561.6L600.024065857111,284.1584615L591.5981256600028,284.1584615Z" style="opacity: 0;"/><path data-target="point-0-31" d="M600.024065857111,284.1584615L732.8751196648484,561.6L759.2800974918945,561.6L617.0227469849591,273.86760949999996L610.7118719678211,273.8676095Z" style="opacity: 0;"/><path data-target="point-0-32" d="M617.0227469849591,273.86760949999996L759.2800974918945,561.6L786.2505169900818,561.6L633.9132834676152,263.1898155L629.984031325428,263.1898155Z" style="opacity: 0;"/><path data-target="point-0-33" d="M633.9132834676152,263.1898155L786.2505169900818,561.6L813.8159162163874,561.6L650.6852567201701,252.11019599999997L649.4321472792268,252.110196Z" style="opacity: 0;"/><path data-target="point-0-34" d="M650.6852567201701,252.11019599999997L813.8159162163874,561.6L842.019906679439,561.6L667.7708333717306,241.42931231120417Z" style="opacity: 0;"/><path data-target="point-0-35" d="M667.7708333717306,241.42931231120417L842.019906679439,561.6L870.9024357778156,561.6L685.0356213822168,230.83744198588585L668.5606508102975,239.93259934163729Z" style="opacity: 0;"/><path data-target="point-0-36" d="M685.0356213822168,230.83744198588585L870.9024357778156,561.6L900.5126984271303,561.6L702.1339394340459,219.6947331905815L687.5114495892386,226.87442390286364Z" style="opacity: 0;"/><path data-target="point-0-37" d="M702.1339394340459,219.6947331905815L900.5126984271303,561.6L930.8925424870034,561.6L719.060088198759,208.00476279077057L706.6885229446459,213.44028701577955Z" style="opacity: 0;"/><path data-target="point-0-38" d="M719.060088198759,208.00476279077057L930.8925424870034,561.6L936,561.6L936,519.4052390767807L735.8050991029047,195.766302686334L726.1089333518901,199.59814690393148Z" style="opacity: 0;"/><path data-target="point-0-39" d="M735.8050991029047,195.766302686334L936,519.4052390767807L936,470.5051173738625L752.3585033550489,182.97413654985627L745.7919434556111,185.31895321941147Z" style="opacity: 0;"/><path data-target="point-0-40" d="M752.3585033550489,182.97413654985627L936,470.5051173738625L936,423.30559304838533L768.7066503099967,169.62005965959094L765.7615674261898,170.57407325676942Z" style="opacity: 0;"/><path data-target="point-0-41" d="M768.7066503099967,169.62005965959094L936,423.30559304838533L936,377.70261255601423L785.1133605925913,156.10320717984698Z" style="opacity: 0;"/><path data-target="point-0-42" d="M785.1133605925913,156.10320717984698L936,377.70261255601423L936,333.5955332306432L802.0135914383228,143.01530490095567L785.742162704937,155.0232211258367Z" style="opacity: 0;"/><path data-target="point-0-43" d="M802.0135914383228,143.01530490095567L936,333.5955332306432L936,290.8867580085645L818.6707258291456,129.25657064326515L805.2553335713063,138.16982609328193Z" style="opacity: 0;"/><path data-target="point-0-44" d="M818.6707258291456,129.25657064326515L936,290.8867580085645L936,249.48156641887516L835.0704397053336,114.8227840197025L825.0996348040325,120.81340216643879Z" style="opacity: 0;"/><path data-target="point-0-45" d="M835.0704397053336,114.8227840197025L936,249.48156641887516L936,209.2879139983887L851.1956203895885,99.70628395987752L845.3044652059308,102.9194596462142Z" style="opacity: 0;"/><path data-target="point-0-46" d="M851.1956203895885,99.70628395987752L936,209.2879139983887L936,63.6757995L930.5330117742492,63.6757995L893.3427209894461,70.82155939157435L865.9030273601014,84.45481487315355Z" style="opacity: 0;"/><path data-target="point-1-0" d="M0,510.7751999999999L66.54536261714286,510.7752L67.17462639142857,505.91736L0,241.2921918441117Z" style="opacity: 0;"/><path data-target="point-1-1" d="M0,241.2921918441117L67.17462639142857,505.91736L84.54561926857143,505.91736L85.14182410785715,503.8113599999999L46.872712269928634,219.82934675890004L28.45299295924464,109.96921081638038L17.627355306023503,65.14653103490696L14.807019343164825,54.48939109428045L0,21.478798187825973Z" style="opacity: 0;"/><path data-target="point-1-2" d="M46.872712269928634,219.82934675890004L85.14182410785715,503.8113599999999L102.402894315,503.8113599999999L103.25879903999999,500.95655999999997Z" style="opacity: 0;"/><path data-target="point-1-3" d="M28.45299295924464,109.96921081638038L46.872712269928634,219.82934675890004L103.25879903999999,500.95655999999997L120.08285769999999,500.95655999999997L121.154090395,496.99728L74.54068886776518,277.187546891908L55.604576052356094,203.3509797839368Z" style="opacity: 0;"/><path data-target="point-1-4" d="M74.54068886776518,277.187546891908L121.154090395,496.99728L138.08753394285714,496.99728L139.41043890285712,492.804Z" style="opacity: 0;"/><path data-target="point-1-5" d="M55.604576052356094,203.3509797839368L74.54068886776518,277.187546891908L139.41043890285712,492.804L155.74955495999998,492.804L157.09889924571428,485.78399999999993Z" style="opacity: 0;"/><path data-target="point-1-6" d="M17.627355306023503,65.14653103490696L28.45299295924464,109.96921081638038L55.604576052356094,203.3509797839368L157.09889924571428,485.78399999999993L173.81630103999998,485.78399999999993L174.98369896,478.96991999999995Z" style="opacity: 0;"/><path data-target="point-1-7" d="M14.807019343164825,54.48939109428045L17.627355306023503,65.14653103490696L174.98369896,478.96991999999995L192.3833605142857,478.96991999999995L192.28116235142858,470.81736L107.36926201948631,225.2488202944323L79.52906172067946,167.62622970138324L74.78892889028273,158.60522959935554L25.418943198657303,71.99528963002359Z" style="opacity: 0;"/><path data-target="point-1-8" d="M107.36926201948631,225.2488202944323L192.28116235142858,470.81736L210.8741918142857,470.81736L209.7547053942857,463.21704L157.38694316485973,320.8027682028036L154.62662284449564,314.5927613555394Z" style="opacity: 0;"/><path data-target="point-1-9" d="M157.38694316485973,320.8027682028036L209.7547053942857,463.21704L230.0005056057143,463.21704L226.49620960642855,453.37968Z" style="opacity: 0;"/><path data-target="point-1-10" d="M154.62662284449564,314.5927613555394L157.38694316485973,320.8027682028036L226.49620960642855,453.37968L249.7654699142857,453.37968L242.55293137142854,440.59391999999997Z" style="opacity: 0;"/><path data-target="point-1-11" d="M79.52906172067946,167.62622970138324L107.36926201948631,225.2488202944323L154.62662284449564,314.5927613555394L242.55293137142854,440.59391999999997L268.1677138285714,440.59391999999997L260.1506532,427.63032Z" style="opacity: 0;"/><path data-target="point-1-12" d="M74.78892889028273,158.60522959935554L79.52906172067946,167.62622970138324L260.1506532,427.63032L287.01107599,427.63032L276.82892401000004,413.42184000000003Z" style="opacity: 0;"/><path data-target="point-1-13" d="M276.82892401000004,413.42184000000003L287.01107599,427.63032L393.2334821778571,561.6L400.29178868214274,561.6L303.2364169014286,413.42184000000003Z" style="opacity: 0;"/><path data-target="point-1-14" d="M295.5714569085714,400.17744L303.2364169014286,413.42184000000003L400.29178868214274,561.6L443.3161337828577,561.6L321.2287926,400.17744Z" style="opacity: 0;"/><path data-target="point-1-15" d="M314.4924357,387.01727999999997L321.2287926,400.17744L443.3161337828577,561.6L453.8539005292857,561.6L338.409518155,387.01727999999997Z" style="opacity: 0;"/><path data-target="point-1-16" d="M333.20489191,375.71975999999995L338.409518155,387.01727999999997L453.8539005292857,561.6L463.9450768041071,561.6L449.2023372174105,526.3402673818176L432.9315987526484,492.3575595393309L430.8341280719338,488.618574098849L356.65053498285715,375.71975999999995Z" style="opacity: 0;"/><path data-target="point-1-17" d="M107.99919761428623,0L350.5058166628571,363.86064L372.8383973678571,363.86064L370.3675133121428,356.0544L274.78957145610116,120.8528204979537L214.06426628499983,1.4210854715202004e-14Z" style="opacity: 0;"/><path data-target="point-1-18" d="M274.78957145610116,120.8528204979537L370.3675133121428,356.0544L390.072774025,356.0544L388.50240127857137,349.06247999999994L322.8539516551664,208.15898151735567Z" style="opacity: 0;"/><path data-target="point-1-19" d="M322.8539516551664,208.15898151735567L388.50240127857137,349.06247999999994L407.34895102142855,349.06247999999994L407.38972468571427,341.25624Z" style="opacity: 0;"/><path data-target="point-1-20" d="M214.06426628499983,1.4210854715202004e-14L274.78957145610116,120.8528204979537L322.8539516551664,208.15898151735567L407.38972468571427,341.25624L424.41866856428567,341.25624L426.7929473914285,335.322L285.2750876057138,0Z" style="opacity: 0;"/><path data-target="point-1-21" d="M285.2750876057138,0L426.7929473914285,335.322L441.96689488,335.322L444.0422548364285,331.79328L416.07474968317854,156.8108445403031L408.3993743990431,121.2303709647077L355.7794401232144,0Z" style="opacity: 0;"/><path data-target="point-1-22" d="M416.07474968317854,156.8108445403031L444.0422548364285,331.79328L459.87684324285715,331.79328L462.1114747142857,326.30832Z" style="opacity: 0;"/><path data-target="point-1-23" d="M408.3993743990431,121.2303709647077L416.07474968317854,156.8108445403031L462.1114747142857,326.30832L478.4141291421428,326.30832L480.6124358742857,322.33032L428.49993437460336,158.2333742070278Z" style="opacity: 0;"/><path data-target="point-1-24" d="M428.49993437460336,158.2333742070278L480.6124358742857,322.33032L495.68481098285713,322.33032L498.58296784,317.88432L475.20624089815954,233.75754737979133Z" style="opacity: 0;"/><path data-target="point-1-25" d="M475.20624089815954,233.75754737979133L498.58296784,317.88432L513.3957212857143,317.88432L516.8676428,312.84864L502.59203810783004,268.48001624811195Z" style="opacity: 0;"/><path data-target="point-1-26" d="M502.59203810783004,268.48001624811195L516.8676428,312.84864L536.8300416000001,312.84864L529.0390450285714,289.54224Z" style="opacity: 0;"/><path data-target="point-1-27" d="M529.0390450285714,289.54224L536.8300416000001,312.84864L541.3711419191322,316.2236681078649L552.8325887276413,303.635592L549.1830232114944,289.54224Z" style="opacity: 0;"/><path data-target="point-1-28" d="M549.1830232114944,289.54224L552.8325887276413,303.635592L565.7411975538347,303.635592L572.6265613754978,294.0765985L559.8649401590743,273.4166073138489Z" style="opacity: 0;"/><path data-target="point-1-29" d="M559.8649401590743,273.4166073138489L572.6265613754978,294.0765985L582.9272862633521,294.0765985L591.5981256600028,284.1584615L560.6989815413779,236.11696762974813Z" style="opacity: 0;"/><path data-target="point-1-30" d="M550.2065134577377,183.5191898906321L560.6989815413779,236.11696762974813L591.5981256600028,284.1584615L600.024065857111,284.1584615L610.7118719678211,273.8676095Z" style="opacity: 0;"/><path data-target="point-1-31" d="M530.0121434508351,119.82179628578714L550.2065134577377,183.5191898906321L610.7118719678211,273.8676095L617.0227469849591,273.86760949999996L629.984031325428,263.1898155Z" style="opacity: 0;"/><path data-target="point-1-32" d="M502.4236553132872,49.638287021813085L530.0121434508351,119.82179628578714L629.984031325428,263.1898155L633.9132834676152,263.1898155L649.4321472792268,252.110196Z" style="opacity: 0;"/><path data-target="point-1-33" d="M480.1565623938392,7.105427357601002e-15L502.4236553132872,49.638287021813085L649.4321472792268,252.110196L650.6852567201701,252.11019599999997L667.7708333717306,241.42931231120417L668.5606508102975,239.93259934163729L487.1721814391451,0Z" style="opacity: 0;"/><path data-target="point-1-34" d="M487.1721814391451,0L668.5606508102975,239.93259934163729L685.0356213822168,230.83744198588585L687.5114495892386,226.87442390286364L508.92039753601256,0Z" style="opacity: 0;"/><path data-target="point-1-35" d="M508.92039753601256,0L687.5114495892386,226.87442390286364L702.1339394340459,219.6947331905815L706.6885229446459,213.44028701577955L531.7471465559674,2.842170943040401e-14Z" style="opacity: 0;"/><path data-target="point-1-36" d="M531.7471465559674,2.842170943040401e-14L706.6885229446459,213.44028701577955L719.060088198759,208.00476279077057L726.1089333518901,199.59814690393148L555.7635210669887,0Z" style="opacity: 0;"/><path data-target="point-1-37" d="M555.7635210669887,0L726.1089333518901,199.59814690393148L735.8050991029047,195.766302686334L745.7919434556111,185.31895321941147L581.1147397722526,0Z" style="opacity: 0;"/><path data-target="point-1-38" d="M581.1147397722526,0L745.7919434556111,185.31895321941147L752.3585033550489,182.97413654985627L765.7615674261898,170.57407325676942L607.9342414680085,0Z" style="opacity: 0;"/><path data-target="point-1-39" d="M607.9342414680085,0L765.7615674261898,170.57407325676942L768.7066503099967,169.62005965959094L785.1133605925913,156.10320717984698L785.742162704937,155.0232211258367L636.3894003393434,0Z" style="opacity: 0;"/><path data-target="point-1-40" d="M636.3894003393434,0L785.742162704937,155.0232211258367L802.0135914383228,143.01530490095567L805.2553335713063,138.16982609328193L666.6517606271947,0Z" style="opacity: 0;"/><path data-target="point-1-41" d="M666.6517606271947,0L805.2553335713063,138.16982609328193L818.6707258291456,129.25657064326515L825.0996348040325,120.81340216643879L698.9091867719529,0Z" style="opacity: 0;"/><path data-target="point-1-42" d="M698.9091867719529,0L825.0996348040325,120.81340216643879L835.0704397053336,114.8227840197025L845.3044652059308,102.9194596462142L733.3704842119466,0Z" style="opacity: 0;"/><path data-target="point-1-43" d="M733.3704842119466,0L845.3044652059308,102.9194596462142L851.1956203895885,99.70628395987752L865.9030273601014,84.45481487315355L770.2643496076944,0Z" style="opacity: 0;"/><path data-target="point-1-44" d="M770.2643496076944,0L865.9030273601014,84.45481487315355L893.3427209894461,70.82155939157435L809.835621268875,0Z" style="opacity: 0;"/><path data-target="point-1-45" d="M809.835621268875,0L893.3427209894461,70.82155939157435L930.5330117742492,63.6757995L852.3551875182685,0Z" style="opacity: 0;"/><path data-target="point-1-46" d="M852.3551875182685,0L930.5330117742492,63.6757995L936,63.6757995L936,0Z" style="opacity: 0;"/></g><g class="series"><path data-target="point-0-0" d="M81.19924155999999,561.6L66.54536261714286,510.7752L0,510.7751999999999L0,561.6Z" style="opacity: 0;"/><path data-target="point-0-1" d="M66.54536261714286,510.7752L81.19924155999999,561.6L90.12979259428573,561.6L84.54561926857143,505.91736L67.17462639142857,505.91736Z" style="opacity: 0;"/><path data-target="point-0-2" d="M84.54561926857143,505.91736L90.12979259428573,561.6L109.22453368499986,561.6L102.402894315,503.8113599999999L85.14182410785715,503.8113599999999Z" style="opacity: 0;"/><path data-target="point-0-3" d="M102.402894315,503.8113599999999L109.22453368499986,561.6L134.02001971428575,561.6L120.08285769999999,500.95655999999997L103.25879903999999,500.95655999999997Z" style="opacity: 0;"/><path data-target="point-0-4" d="M120.08285769999999,500.95655999999997L134.02001971428575,561.6L148.8854171428572,561.6L138.08753394285714,496.99728L121.154090395,496.99728Z" style="opacity: 0;"/><path data-target="point-0-5" d="M138.08753394285714,496.99728L148.8854171428572,561.6L184.92765846000003,561.6L155.74955495999998,492.804L139.41043890285712,492.804Z" style="opacity: 0;"/><path data-target="point-0-6" d="M155.74955495999998,492.804L184.92765846000003,561.6L202.64533504,561.6L173.81630103999998,485.78399999999993L157.09889924571428,485.78399999999993Z" style="opacity: 0;"/><path data-target="point-0-7" d="M173.81630103999998,485.78399999999993L202.64533504,561.6L238.99557885714273,561.6L192.3833605142857,478.96991999999995L174.98369896,478.96991999999995Z" style="opacity: 0;"/><path data-target="point-0-8" d="M192.28116235142858,470.81736L192.3833605142857,478.96991999999995L238.99557885714273,561.6L254.49849257142859,561.6L210.8741918142857,470.81736Z" style="opacity: 0;"/><path data-target="point-0-9" d="M209.7547053942857,463.21704L210.8741918142857,470.81736L254.49849257142859,561.6L286.73233675428605,561.6L230.0005056057143,463.21704Z" style="opacity: 0;"/><path data-target="point-0-10" d="M226.49620960642855,453.37968L230.0005056057143,463.21704L286.73233675428605,561.6L328.6754757457141,561.6L249.7654699142857,453.37968Z" style="opacity: 0;"/><path data-target="point-0-11" d="M242.55293137142854,440.59391999999997L249.7654699142857,453.37968L328.6754757457141,561.6L359.1815725714284,561.6L268.1677138285714,440.59391999999997Z" style="opacity: 0;"/><path data-target="point-0-12" d="M260.1506532,427.63032L268.1677138285714,440.59391999999997L359.1815725714284,561.6L393.2334821778571,561.6L287.01107599,427.63032Z" style="opacity: 0;"/><path data-target="point-0-13" d="M25.418943198657303,71.99528963002359L74.78892889028273,158.60522959935554L276.82892401000004,413.42184000000003L303.2364169014286,413.42184000000003L295.5714569085714,400.17744Z" style="opacity: 0;"/><path data-target="point-0-14" d="M0,21.478798187825973L14.807019343164825,54.48939109428045L25.418943198657303,71.99528963002359L295.5714569085714,400.17744L321.2287926,400.17744L314.4924357,387.01727999999997L38.763356768570645,0L0,0Z" style="opacity: 0;"/><path data-target="point-0-15" d="M38.763356768570645,0L314.4924357,387.01727999999997L338.409518155,387.01727999999997L333.20489191,375.71975999999995L107.91393082000062,0Z" style="opacity: 0;"/><path data-target="point-0-16" d="M107.91393082000062,0L333.20489191,375.71975999999995L356.65053498285715,375.71975999999995L350.5058166628571,363.86064L107.99919761428623,0Z" style="opacity: 0;"/><path data-target="point-0-17" d="M350.5058166628571,363.86064L356.65053498285715,375.71975999999995L430.8341280719338,488.618574098849L372.8383973678571,363.86064Z" style="opacity: 0;"/><path data-target="point-0-18" d="M370.3675133121428,356.0544L372.8383973678571,363.86064L430.8341280719338,488.618574098849L432.9315987526484,492.3575595393309L390.072774025,356.0544Z" style="opacity: 0;"/><path data-target="point-0-19" d="M388.50240127857137,349.06247999999994L390.072774025,356.0544L432.9315987526484,492.3575595393309L449.2023372174105,526.3402673818176L407.34895102142855,349.06247999999994Z" style="opacity: 0;"/><path data-target="point-0-20" d="M407.34895102142855,349.06247999999994L449.2023372174105,526.3402673818176L463.9450768041071,561.6L477.3601916142861,561.6L424.41866856428567,341.25624L407.38972468571427,341.25624Z" style="opacity: 0;"/><path data-target="point-0-21" d="M424.41866856428567,341.25624L477.3601916142861,561.6L494.91594688000015,561.6L441.96689488,335.322L426.7929473914285,335.322Z" style="opacity: 0;"/><path data-target="point-0-22" d="M441.96689488,335.322L494.91594688000015,561.6L523.1468800675,561.6L490.45817910598635,421.59217928872334L459.87684324285715,331.79328L444.0422548364285,331.79328Z" style="opacity: 0;"/><path data-target="point-0-23" d="M459.87684324285715,331.79328L490.45817910598635,421.59217928872334L478.4141291421428,326.30832L462.1114747142857,326.30832Z" style="opacity: 0;"/><path data-target="point-0-24" d="M478.4141291421428,326.30832L490.45817910598635,421.59217928872334L523.1468800675,561.6L547.9246456707139,561.6L495.68481098285713,322.33032L480.6124358742857,322.33032Z" style="opacity: 0;"/><path data-target="point-0-25" d="M495.68481098285713,322.33032L547.9246456707139,561.6L571.9527654714287,561.6L513.3957212857143,317.88432L498.58296784,317.88432Z" style="opacity: 0;"/><path data-target="point-0-26" d="M513.3957212857143,317.88432L571.9527654714287,561.6L594.7404598734825,561.6L541.3711419191322,316.2236681078649L536.8300416000001,312.84864L516.8676428,312.84864Z" style="opacity: 0;"/><path data-target="point-0-27" d="M355.7794401232144,0L408.3993743990431,121.2303709647077L428.49993437460336,158.2333742070278L475.20624089815954,233.75754737979133L502.59203810783004,268.48001624811195L529.0390450285714,289.54224L549.1830232114944,289.54224L559.8649401590743,273.4166073138489L560.6989815413779,236.11696762974813L550.2065134577377,183.5191898906321L530.0121434508351,119.82179628578714L502.4236553132872,49.638287021813085L480.1565623938392,7.105427357601002e-15Z" style="opacity: 0;"/><path data-target="point-0-28" d="M541.3711419191322,316.2236681078649L594.7404598734825,561.6L681.6071062198616,561.6L565.7411975538347,303.635592L552.8325887276413,303.635592Z" style="opacity: 0;"/><path data-target="point-0-29" d="M565.7411975538347,303.635592L681.6071062198616,561.6L706.9936075244931,561.6L582.9272862633521,294.0765985L572.6265613754978,294.0765985Z" style="opacity: 0;"/><path data-target="point-0-30" d="M582.9272862633521,294.0765985L706.9936075244931,561.6L732.8751196648484,561.6L600.024065857111,284.1584615L591.5981256600028,284.1584615Z" style="opacity: 0;"/><path data-target="point-0-31" d="M600.024065857111,284.1584615L732.8751196648484,561.6L759.2800974918945,561.6L617.0227469849591,273.86760949999996L610.7118719678211,273.8676095Z" style="opacity: 0;"/><path data-target="point-0-32" d="M617.0227469849591,273.86760949999996L759.2800974918945,561.6L786.2505169900818,561.6L633.9132834676152,263.1898155L629.984031325428,263.1898155Z" style="opacity: 0;"/><path data-target="point-0-33" d="M633.9132834676152,263.1898155L786.2505169900818,561.6L813.8159162163874,561.6L650.6852567201701,252.11019599999997L649.4321472792268,252.110196Z" style="opacity: 0;"/><path data-target="point-0-34" d="M650.6852567201701,252.11019599999997L813.8159162163874,561.6L842.019906679439,561.6L667.7708333717306,241.42931231120417Z" style="opacity: 0;"/><path data-target="point-0-35" d="M667.7708333717306,241.42931231120417L842.019906679439,561.6L870.9024357778156,561.6L685.0356213822168,230.83744198588585L668.5606508102975,239.93259934163729Z" style="opacity: 0;"/><path data-target="point-0-36" d="M685.0356213822168,230.83744198588585L870.9024357778156,561.6L900.5126984271303,561.6L702.1339394340459,219.6947331905815L687.5114495892386,226.87442390286364Z" style="opacity: 0;"/><path data-target="point-0-37" d="M702.1339394340459,219.6947331905815L900.5126984271303,561.6L930.8925424870034,561.6L719.060088198759,208.00476279077057L706.6885229446459,213.44028701577955Z" style="opacity: 0;"/><path data-target="point-0-38" d="M719.060088198759,208.00476279077057L930.8925424870034,561.6L936,561.6L936,519.4052390767807L735.8050991029047,195.766302686334L726.1089333518901,199.59814690393148Z" style="opacity: 0;"/><path data-target="point-0-39" d="M735.8050991029047,195.766302686334L936,519.4052390767807L936,470.5051173738625L752.3585033550489,182.97413654985627L745.7919434556111,185.31895321941147Z" style="opacity: 0;"/><path data-target="point-0-40" d="M752.3585033550489,182.97413654985627L936,470.5051173738625L936,423.30559304838533L768.7066503099967,169.62005965959094L765.7615674261898,170.57407325676942Z" style="opacity: 0;"/><path data-target="point-0-41" d="M768.7066503099967,169.62005965959094L936,423.30559304838533L936,377.70261255601423L785.1133605925913,156.10320717984698Z" style="opacity: 0;"/><path data-target="point-0-42" d="M785.1133605925913,156.10320717984698L936,377.70261255601423L936,333.5955332306432L802.0135914383228,143.01530490095567L785.742162704937,155.0232211258367Z" style="opacity: 0;"/><path data-target="point-0-43" d="M802.0135914383228,143.01530490095567L936,333.5955332306432L936,290.8867580085645L818.6707258291456,129.25657064326515L805.2553335713063,138.16982609328193Z" style="opacity: 0;"/><path data-target="point-0-44" d="M818.6707258291456,129.25657064326515L936,290.8867580085645L936,249.48156641887516L835.0704397053336,114.8227840197025L825.0996348040325,120.81340216643879Z" style="opacity: 0;"/><path data-target="point-0-45" d="M835.0704397053336,114.8227840197025L936,249.48156641887516L936,209.2879139983887L851.1956203895885,99.70628395987752L845.3044652059308,102.9194596462142Z" style="opacity: 0;"/><path data-target="point-0-46" d="M851.1956203895885,99.70628395987752L936,209.2879139983887L936,63.6757995L930.5330117742492,63.6757995L893.3427209894461,70.82155939157435L865.9030273601014,84.45481487315355Z" style="opacity: 0;"/><path data-target="point-1-0" d="M0,510.7751999999999L66.54536261714286,510.7752L67.17462639142857,505.91736L0,241.2921918441117Z" style="opacity: 0;"/><path data-target="point-1-1" d="M0,241.2921918441117L67.17462639142857,505.91736L84.54561926857143,505.91736L85.14182410785715,503.8113599999999L46.872712269928634,219.82934675890004L28.45299295924464,109.96921081638038L17.627355306023503,65.14653103490696L14.807019343164825,54.48939109428045L0,21.478798187825973Z" style="opacity: 0;"/><path data-target="point-1-2" d="M46.872712269928634,219.82934675890004L85.14182410785715,503.8113599999999L102.402894315,503.8113599999999L103.25879903999999,500.95655999999997Z" style="opacity: 0;"/><path data-target="point-1-3" d="M28.45299295924464,109.96921081638038L46.872712269928634,219.82934675890004L103.25879903999999,500.95655999999997L120.08285769999999,500.95655999999997L121.154090395,496.99728L74.54068886776518,277.187546891908L55.604576052356094,203.3509797839368Z" style="opacity: 0;"/><path data-target="point-1-4" d="M74.54068886776518,277.187546891908L121.154090395,496.99728L138.08753394285714,496.99728L139.41043890285712,492.804Z" style="opacity: 0;"/><path data-target="point-1-5" d="M55.604576052356094,203.3509797839368L74.54068886776518,277.187546891908L139.41043890285712,492.804L155.74955495999998,492.804L157.09889924571428,485.78399999999993Z" style="opacity: 0;"/><path data-target="point-1-6" d="M17.627355306023503,65.14653103490696L28.45299295924464,109.96921081638038L55.604576052356094,203.3509797839368L157.09889924571428,485.78399999999993L173.81630103999998,485.78399999999993L174.98369896,478.96991999999995Z" style="opacity: 0;"/><path data-target="point-1-7" d="M14.807019343164825,54.48939109428045L17.627355306023503,65.14653103490696L174.98369896,478.96991999999995L192.3833605142857,478.96991999999995L192.28116235142858,470.81736L107.36926201948631,225.2488202944323L79.52906172067946,167.62622970138324L74.78892889028273,158.60522959935554L25.418943198657303,71.99528963002359Z" style="opacity: 0;"/><path data-target="point-1-8" d="M107.36926201948631,225.2488202944323L192.28116235142858,470.81736L210.8741918142857,470.81736L209.7547053942857,463.21704L157.38694316485973,320.8027682028036L154.62662284449564,314.5927613555394Z" style="opacity: 0;"/><path data-target="point-1-9" d="M157.38694316485973,320.8027682028036L209.7547053942857,463.21704L230.0005056057143,463.21704L226.49620960642855,453.37968Z" style="opacity: 0;"/><path data-target="point-1-10" d="M154.62662284449564,314.5927613555394L157.38694316485973,320.8027682028036L226.49620960642855,453.37968L249.7654699142857,453.37968L242.55293137142854,440.59391999999997Z" style="opacity: 0;"/><path data-target="point-1-11" d="M79.52906172067946,167.62622970138324L107.36926201948631,225.2488202944323L154.62662284449564,314.5927613555394L242.55293137142854,440.59391999999997L268.1677138285714,440.59391999999997L260.1506532,427.63032Z" style="opacity: 0;"/><path data-target="point-1-12" d="M74.78892889028273,158.60522959935554L79.52906172067946,167.62622970138324L260.1506532,427.63032L287.01107599,427.63032L276.82892401000004,413.42184000000003Z" style="opacity: 0;"/><path data-target="point-1-13" d="M276.82892401000004,413.42184000000003L287.01107599,427.63032L393.2334821778571,561.6L400.29178868214274,561.6L303.2364169014286,413.42184000000003Z" style="opacity: 0;"/><path data-target="point-1-14" d="M295.5714569085714,400.17744L303.2364169014286,413.42184000000003L400.29178868214274,561.6L443.3161337828577,561.6L321.2287926,400.17744Z" style="opacity: 0;"/><path data-target="point-1-15" d="M314.4924357,387.01727999999997L321.2287926,400.17744L443.3161337828577,561.6L453.8539005292857,561.6L338.409518155,387.01727999999997Z" style="opacity: 0;"/><path data-target="point-1-16" d="M333.20489191,375.71975999999995L338.409518155,387.01727999999997L453.8539005292857,561.6L463.9450768041071,561.6L449.2023372174105,526.3402673818176L432.9315987526484,492.3575595393309L430.8341280719338,488.618574098849L356.65053498285715,375.71975999999995Z" style="opacity: 0;"/><path data-target="point-1-17" d="M107.99919761428623,0L350.5058166628571,363.86064L372.8383973678571,363.86064L370.3675133121428,356.0544L274.78957145610116,120.8528204979537L214.06426628499983,1.4210854715202004e-14Z" style="opacity: 0;"/><path data-target="point-1-18" d="M274.78957145610116,120.8528204979537L370.3675133121428,356.0544L390.072774025,356.0544L388.50240127857137,349.06247999999994L322.8539516551664,208.15898151735567Z" style="opacity: 0;"/><path data-target="point-1-19" d="M322.8539516551664,208.15898151735567L388.50240127857137,349.06247999999994L407.34895102142855,349.06247999999994L407.38972468571427,341.25624Z" style="opacity: 0;"/><path data-target="point-1-20" d="M214.06426628499983,1.4210854715202004e-14L274.78957145610116,120.8528204979537L322.8539516551664,208.15898151735567L407.38972468571427,341.25624L424.41866856428567,341.25624L426.7929473914285,335.322L285.2750876057138,0Z" style="opacity: 0;"/><path data-target="point-1-21" d="M285.2750876057138,0L426.7929473914285,335.322L441.96689488,335.322L444.0422548364285,331.79328L416.07474968317854,156.8108445403031L408.3993743990431,121.2303709647077L355.7794401232144,0Z" style="opacity: 0;"/><path data-target="point-1-22" d="M416.07474968317854,156.8108445403031L444.0422548364285,331.79328L459.87684324285715,331.79328L462.1114747142857,326.30832Z" style="opacity: 0;"/><path data-target="point-1-23" d="M408.3993743990431,121.2303709647077L416.07474968317854,156.8108445403031L462.1114747142857,326.30832L478.4141291421428,326.30832L480.6124358742857,322.33032L428.49993437460336,158.2333742070278Z" style="opacity: 0;"/><path data-target="point-1-24" d="M428.49993437460336,158.2333742070278L480.6124358742857,322.33032L495.68481098285713,322.33032L498.58296784,317.88432L475.20624089815954,233.75754737979133Z" style="opacity: 0;"/><path data-target="point-1-25" d="M475.20624089815954,233.75754737979133L498.58296784,317.88432L513.3957212857143,317.88432L516.8676428,312.84864L502.59203810783004,268.48001624811195Z" style="opacity: 0;"/><path data-target="point-1-26" d="M502.59203810783004,268.48001624811195L516.8676428,312.84864L536.8300416000001,312.84864L529.0390450285714,289.54224Z" style="opacity: 0;"/><path data-target="point-1-27" d="M529.0390450285714,289.54224L536.8300416000001,312.84864L541.3711419191322,316.2236681078649L552.8325887276413,303.635592L549.1830232114944,289.54224Z" style="opacity: 0;"/><path data-target="point-1-28" d="M549.1830232114944,289.54224L552.8325887276413,303.635592L565.7411975538347,303.635592L572.6265613754978,294.0765985L559.8649401590743,273.4166073138489Z" style="opacity: 0;"/><path data-target="point-1-29" d="M559.8649401590743,273.4166073138489L572.6265613754978,294.0765985L582.9272862633521,294.0765985L591.5981256600028,284.1584615L560.6989815413779,236.11696762974813Z" style="opacity: 0;"/><path data-target="point-1-30" d="M550.2065134577377,183.5191898906321L560.6989815413779,236.11696762974813L591.5981256600028,284.1584615L600.024065857111,284.1584615L610.7118719678211,273.8676095Z" style="opacity: 0;"/><path data-target="point-1-31" d="M530.0121434508351,119.82179628578714L550.2065134577377,183.5191898906321L610.7118719678211,273.8676095L617.0227469849591,273.86760949999996L629.984031325428,263.1898155Z" style="opacity: 0;"/><path data-target="point-1-32" d="M502.4236553132872,49.638287021813085L530.0121434508351,119.82179628578714L629.984031325428,263.1898155L633.9132834676152,263.1898155L649.4321472792268,252.110196Z" style="opacity: 0;"/><path data-target="point-1-33" d="M480.1565623938392,7.105427357601002e-15L502.4236553132872,49.638287021813085L649.4321472792268,252.110196L650.6852567201701,252.11019599999997L667.7708333717306,241.42931231120417L668.5606508102975,239.93259934163729L487.1721814391451,0Z" style="opacity: 0;"/><path data-target="point-1-34" d="M487.1721814391451,0L668.5606508102975,239.93259934163729L685.0356213822168,230.83744198588585L687.5114495892386,226.87442390286364L508.92039753601256,0Z" style="opacity: 0;"/><path data-target="point-1-35" d="M508.92039753601256,0L687.5114495892386,226.87442390286364L702.1339394340459,219.6947331905815L706.6885229446459,213.44028701577955L531.7471465559674,2.842170943040401e-14Z" style="opacity: 0;"/><path data-target="point-1-36" d="M531.7471465559674,2.842170943040401e-14L706.6885229446459,213.44028701577955L719.060088198759,208.00476279077057L726.1089333518901,199.59814690393148L555.7635210669887,0Z" style="opacity: 0;"/><path data-target="point-1-37" d="M555.7635210669887,0L726.1089333518901,199.59814690393148L735.8050991029047,195.766302686334L745.7919434556111,185.31895321941147L581.1147397722526,0Z" style="opacity: 0;"/><path data-target="point-1-38" d="M581.1147397722526,0L745.7919434556111,185.31895321941147L752.3585033550489,182.97413654985627L765.7615674261898,170.57407325676942L607.9342414680085,0Z" style="opacity: 0;"/><path data-target="point-1-39" d="M607.9342414680085,0L765.7615674261898,170.57407325676942L768.7066503099967,169.62005965959094L785.1133605925913,156.10320717984698L785.742162704937,155.0232211258367L636.3894003393434,0Z" style="opacity: 0;"/><path data-target="point-1-40" d="M636.3894003393434,0L785.742162704937,155.0232211258367L802.0135914383228,143.01530490095567L805.2553335713063,138.16982609328193L666.6517606271947,0Z" style="opacity: 0;"/><path data-target="point-1-41" d="M666.6517606271947,0L805.2553335713063,138.16982609328193L818.6707258291456,129.25657064326515L825.0996348040325,120.81340216643879L698.9091867719529,0Z" style="opacity: 0;"/><path data-target="point-1-42" d="M698.9091867719529,0L825.0996348040325,120.81340216643879L835.0704397053336,114.8227840197025L845.3044652059308,102.9194596462142L733.3704842119466,0Z" style="opacity: 0;"/><path data-target="point-1-43" d="M733.3704842119466,0L845.3044652059308,102.9194596462142L851.1956203895885,99.70628395987752L865.9030273601014,84.45481487315355L770.2643496076944,0Z" style="opacity: 0;"/><path data-target="point-1-44" d="M770.2643496076944,0L865.9030273601014,84.45481487315355L893.3427209894461,70.82155939157435L809.835621268875,0Z" style="opacity: 0;"/><path data-target="point-1-45" d="M809.835621268875,0L893.3427209894461,70.82155939157435L930.5330117742492,63.6757995L852.3551875182685,0Z" style="opacity: 0;"/><path data-target="point-1-46" d="M852.3551875182685,0L930.5330117742492,63.6757995L936,63.6757995L936,0Z" style="opacity: 0;"/></g></g><g class="axes"><g class="y axis" fill="none" font-size="10" font-family="sans-serif" text-anchor="end" style="font-family: &quot;Source Sans Pro&quot;;"><path class="domain" stroke="#eeeeee" d="M0.5,562.1V0.5" stroke-dasharray="0" style="visibility: hidden;"/><g class="tick" opacity="1" transform="translate(0,562.1)" style="visibility: visible;"><line stroke="#eeeeee" x2="936" stroke-dasharray="0"/><text fill="rgb(0, 0, 0)" x="3" dy="-0.33em" opacity="1" text-anchor="start" font-size="18">$0</text></g><g class="tick" opacity="1" transform="translate(0, 524.6599731445312)" style="visibility: visible;"><line stroke="#eeeeee" x2="936" stroke-dasharray="0"/><text fill="rgb(0, 0, 0)" x="3" dy="-0.33em" opacity="1" text-anchor="start" font-size="18">$2000</text></g><g class="tick" opacity="1" transform="translate(0, 487.2200012207031)" style="visibility: visible;"><line stroke="#eeeeee" x2="936" stroke-dasharray="0"/><text fill="rgb(0, 0, 0)" x="3" dy="-0.33em" opacity="1" text-anchor="start" font-size="18">$4000</text></g><g class="tick" opacity="1" transform="translate(0, 449.7799987792969)" style="visibility: visible;"><line stroke="#eeeeee" x2="936" stroke-dasharray="0"/><text fill="rgb(0, 0, 0)" x="3" dy="-0.33em" opacity="1" text-anchor="start" font-size="18">$6000</text></g><g class="tick" opacity="1" transform="translate(0, 412.3399963378906)" style="visibility: visible;"><line stroke="#eeeeee" x2="936" stroke-dasharray="0"/><text fill="rgb(0, 0, 0)" x="3" dy="-0.33em" opacity="1" text-anchor="start" font-size="18">$8000</text></g><g class="tick" opacity="1" transform="translate(0, 374.8999938964844)" style="visibility: visible;"><line stroke="#eeeeee" x2="936" stroke-dasharray="0"/><text fill="rgb(0, 0, 0)" x="3" dy="-0.33em" opacity="1" text-anchor="start" font-size="18">$10,000</text></g><g class="tick" opacity="1" transform="translate(0, 337.4599914550781)" style="visibility: visible;"><line stroke="#eeeeee" x2="936" stroke-dasharray="0"/><text fill="rgb(0, 0, 0)" x="3" dy="-0.33em" opacity="1" text-anchor="start" font-size="18">$12,000</text></g><g class="tick" opacity="1" transform="translate(0, 300.0199890136719)" style="visibility: visible;"><line stroke="#eeeeee" x2="936" stroke-dasharray="0"/><text fill="rgb(0, 0, 0)" x="3" dy="-0.33em" opacity="1" text-anchor="start" font-size="18">$14,000</text></g><g class="tick" opacity="1" transform="translate(0, 262.5799865722656)" style="visibility: visible;"><line stroke="#eeeeee" x2="936" stroke-dasharray="0"/><text fill="rgb(0, 0, 0)" x="3" dy="-0.33em" opacity="1" text-anchor="start" font-size="18">$16,000</text></g><g class="tick" opacity="1" transform="translate(0, 225.13999938964844)" style="visibility: visible;"><line stroke="#eeeeee" x2="936" stroke-dasharray="0"/><text fill="rgb(0, 0, 0)" x="3" dy="-0.33em" opacity="1" text-anchor="start" font-size="18">$18,000</text></g><g class="tick" opacity="1" transform="translate(0, 187.6999969482422)" style="visibility: visible;"><line stroke="#eeeeee" x2="936" stroke-dasharray="0"/><text fill="rgb(0, 0, 0)" x="3" dy="-0.33em" opacity="1" text-anchor="start" font-size="18">$20,000</text></g><g class="tick" opacity="1" transform="translate(0, 150.25999450683594)" style="visibility: visible;"><line stroke="#eeeeee" x2="936" stroke-dasharray="0"/><text fill="rgb(0, 0, 0)" x="3" dy="-0.33em" opacity="1" text-anchor="start" font-size="18">$22,000</text></g><g class="tick" opacity="1" transform="translate(0, 112.81999969482422)" style="visibility: visible;"><line stroke="#eeeeee" x2="936" stroke-dasharray="0"/><text fill="rgb(0, 0, 0)" x="3" dy="-0.33em" opacity="1" text-anchor="start" font-size="18">$24,000</text></g><g class="tick" opacity="1" transform="translate(0, 75.37999725341797)" style="visibility: visible;"><line stroke="#eeeeee" x2="936" stroke-dasharray="0"/><text fill="rgb(0, 0, 0)" x="3" dy="-0.33em" opacity="1" text-anchor="start" font-size="18">$26,000</text></g><g class="tick" opacity="1" transform="translate(0, 37.939998626708984)" style="visibility: visible;"><line stroke="#eeeeee" x2="936" stroke-dasharray="0"/><text fill="rgb(0, 0, 0)" x="3" dy="-0.33em" opacity="1" text-anchor="start" font-size="18">$28,000</text></g><g class="tick" opacity="1" transform="translate(0, 0.5)" style="visibility: visible;"><line stroke="#eeeeee" x2="936" stroke-dasharray="0"/><text fill="rgb(0, 0, 0)" x="3" dy="-0.33em" opacity="1" text-anchor="start" font-size="18">$30,000</text></g></g><g class="x axis" transform="translate(0,561.6)" fill="none" font-size="10" font-family="sans-serif" text-anchor="middle" style="font-family: &quot;Source Sans Pro&quot;;"><path class="domain" stroke="#eeeeee" d="M40.5,0.5H936.5" stroke-dasharray="0"/><g class="tick" opacity="1" transform="translate(40.5,0)"><line stroke="#eeeeee" y2="6" stroke-dasharray="0"/><text fill="rgb(0, 0, 0)" y="9" dy="-9" opacity="1" dominant-baseline="central" font-size="18" transform="translate(0, 15) rotate(-45)" dx="5" style="text-anchor: end; visibility: visible;">1990</text></g><g class="tick" opacity="1" transform="translate(130.10000000000002,0)"><line stroke="#eeeeee" y2="6" stroke-dasharray="0"/><text fill="rgb(0, 0, 0)" y="9" dy="-9" opacity="1" dominant-baseline="central" font-size="18" transform="translate(0, 15) rotate(-45)" dx="5" style="text-anchor: end; visibility: visible;">1995</text></g><g class="tick" opacity="1" transform="translate(219.70000000000002,0)"><line stroke="#eeeeee" y2="6" stroke-dasharray="0"/><text fill="rgb(0, 0, 0)" y="9" dy="-9" opacity="1" dominant-baseline="central" font-size="18" transform="translate(0, 15) rotate(-45)" dx="5" style="text-anchor: end; visibility: visible;">2000</text></g><g class="tick" opacity="1" transform="translate(309.3,0)"><line stroke="#eeeeee" y2="6" stroke-dasharray="0"/><text fill="rgb(0, 0, 0)" y="9" dy="-9" opacity="1" dominant-baseline="central" font-size="18" transform="translate(0, 15) rotate(-45)" dx="5" style="text-anchor: end; visibility: visible;">2005</text></g><g class="tick" opacity="1" transform="translate(398.90000000000003,0)"><line stroke="#eeeeee" y2="6" stroke-dasharray="0"/><text fill="rgb(0, 0, 0)" y="9" dy="-9" opacity="1" dominant-baseline="central" font-size="18" transform="translate(0, 15) rotate(-45)" dx="5" style="text-anchor: end; visibility: visible;">2010</text></g><g class="tick" opacity="1" transform="translate(488.5,0)"><line stroke="#eeeeee" y2="6" stroke-dasharray="0"/><text fill="rgb(0, 0, 0)" y="9" dy="-9" opacity="1" dominant-baseline="central" font-size="18" transform="translate(0, 15) rotate(-45)" dx="5" style="text-anchor: end; visibility: visible;">2015</text></g><g class="tick" opacity="1" transform="translate(578.1,0)"><line stroke="#eeeeee" y2="6" stroke-dasharray="0"/><text fill="rgb(0, 0, 0)" y="9" dy="-9" opacity="1" dominant-baseline="central" font-size="18" transform="translate(0, 15) rotate(-45)" dx="5" style="text-anchor: end; visibility: visible;">2020</text></g><g class="tick" opacity="1" transform="translate(667.6999999999999,0)"><line stroke="#eeeeee" y2="6" stroke-dasharray="0"/><text fill="rgb(0, 0, 0)" y="9" dy="-9" opacity="1" dominant-baseline="central" font-size="18" transform="translate(0, 15) rotate(-45)" dx="5" style="text-anchor: end; visibility: visible;">2025</text></g><g class="tick" opacity="1" transform="translate(757.3000000000001,0)"><line stroke="#eeeeee" y2="6" stroke-dasharray="0"/><text fill="rgb(0, 0, 0)" y="9" dy="-9" opacity="1" dominant-baseline="central" font-size="18" transform="translate(0, 15) rotate(-45)" dx="5" style="text-anchor: end; visibility: visible;">2030</text></g><g class="tick" opacity="1" transform="translate(846.9,0)"><line stroke="#eeeeee" y2="6" stroke-dasharray="0"/><text fill="rgb(0, 0, 0)" y="9" dy="-9" opacity="1" dominant-baseline="central" font-size="18" transform="translate(0, 15) rotate(-45)" dx="5" style="text-anchor: end; visibility: visible;">2035</text></g><g class="tick" opacity="1" transform="translate(936.5,0)"><line stroke="#eeeeee" y2="6" stroke-dasharray="0"/><text fill="rgb(0, 0, 0)" y="9" dy="-9" opacity="1" dominant-baseline="central" font-size="18" transform="translate(0, 15) rotate(-45)" dx="5" style="text-anchor: end; visibility: visible;">2040</text></g></g></g></g></g></g><g class="annotations below"><g class="axis-highlights" transform="translate(15, 20)" style="opacity: 1;"><g class="line x" transform="translate(559.68, 0)"><line width="0" stroke-dasharray="2 2" stroke="#333333" stroke-width="2" y2="561.6"/><text transform="translate(0, 6) rotate(-90)" fill="#333333" text-anchor="end" dy="-0.5em" font-size="12">Current</text></g></g></g><g id="areas"><g class="series" pointer-events="none"><path class="area" transform="translate(15,20)" fill-opacity="0" fill="#11A579" clip-path="url(#clip-0-0)" d="M57.92,514.5192000000001C63.89333333333334,512.51616,69.86666666666667,510.51312,75.84,509.35248C81.81333333333333,508.19184,87.78666666666666,508.20744,93.75999999999999,507.55536C99.73333333333333,506.90328,105.70666666666666,506.47896000000003,111.68,505.44C117.65333333333335,504.40103999999997,123.62666666666668,502.5072,129.60000000000002,501.3216C135.57333333333335,500.136,141.54666666666665,500.09232000000003,147.51999999999998,498.32640000000004C153.4933333333333,496.56048000000004,159.46666666666667,493.12848,165.44,490.72608C171.41333333333333,488.32368,177.38666666666668,486.73248000000007,183.36,483.91200000000003C189.33333333333334,481.09152000000006,195.30666666666667,476.9232,201.28,473.8032C207.25333333333333,470.6832,213.2266666666667,468.34944,219.20000000000002,465.192C225.17333333333335,462.03456,231.14666666666668,458.75856,237.12,454.85856C243.09333333333333,450.95856000000003,249.06666666666666,446.21616,255.04,441.79200000000003C261.0133333333333,437.36784,266.9866666666667,433.15584,272.96000000000004,428.3136C278.93333333333334,423.47136,284.9066666666667,417.79296,290.88,412.73856C296.85333333333335,407.68416,302.82666666666665,402.57360000000006,308.8,397.98720000000003C314.77333333333337,393.4008,320.74666666666667,389.13888000000003,326.72,385.22016C332.6933333333334,381.30144,338.6666666666667,377.81328,344.64000000000004,374.47488C350.61333333333334,371.13648,356.5866666666667,368.12568,362.56,365.18976C368.53333333333336,362.25383999999997,374.50666666666666,359.18688000000003,380.48,356.85936000000004C386.4533333333334,354.53184000000005,392.4266666666667,352.86888000000005,398.40000000000003,351.22464C404.37333333333333,349.5804,410.3466666666667,348.41664,416.32,346.99392C422.29333333333335,345.5712,428.26666666666665,344.1048,434.24,342.68832000000003C440.21333333333337,341.27184000000005,446.18666666666667,340.21104,452.16,338.49504C458.1333333333333,336.77904,464.1066666666667,333.78696,470.08,332.39232000000004C476.05333333333334,330.99768000000006,482.02666666666664,331.15680000000003,488,330.1272C493.97333333333336,329.0976,499.94666666666666,327.5844,505.92,326.21472C511.8933333333334,324.84504,517.8666666666667,324.77952,523.84,321.90912000000003C529.8133333333334,319.03872000000007,535.7866666666666,281.28672,541.76,281.28672C547.7333333333333,281.28672,553.7066666666666,314.1139248,559.68,314.1139248C565.6533333333333,314.1139248,571.6266666666667,308.7916416,577.6,306.0650736C583.5733333333334,303.3385056,589.5466666666666,300.56975520000003,595.52,297.75451680000003C601.4933333333333,294.93927840000003,607.4666666666667,292.08042240000003,613.44,289.1736432C619.4133333333334,286.266864,625.3866666666667,283.3151568,631.36,280.31384160000005C637.3333333333334,277.3125264,643.3066666666667,274.264692,649.2800000000001,271.165752C655.2533333333333,268.066812,661.2266666666667,264.9199176,667.1999999999999,261.72020160000005C673.1733333333333,258.52048560000003,679.1466666666666,255.271224,685.12,251.96745599999997C691.0933333333334,248.66368799999998,697.0666666666666,245.30881440000005,703.04,241.89759360000005C709.0133333333333,238.48637280000005,714.9866666666667,235.02229920000002,720.96,231.5001312C726.9333333333334,227.9779632,732.9066666666666,224.40132000000003,738.88,220.76458560000003C744.8533333333334,217.12785120000004,750.8266666666667,213.43473840000007,756.8000000000001,209.67972480000003C762.7733333333333,205.92471120000005,768.7466666666667,202.1116032,774.7199999999999,198.23450400000002C780.6933333333333,194.35740479999998,786.6666666666666,190.420308,792.64,186.4171296C798.6133333333333,182.4139512,804.5866666666666,178.34880960000004,810.56,174.21543360000004C816.5333333333333,170.08205760000004,822.5066666666667,165.88469040000004,828.48,161.61687360000002C834.4533333333334,157.34905680000003,840.4266666666666,153.01515840000002,846.4,148.60853280000003C852.3733333333333,144.20190720000002,858.3466666666667,139.72704720000002,864.32,135.17712C870.2933333333334,130.62719280000002,876.2666666666667,125.9680812,882.24,121.30896960000001L882.24,121.30896960000001C876.2666666666667,125.9680812,870.2933333333334,130.62719280000002,864.32,135.17712C858.3466666666667,139.72704720000002,852.3733333333333,144.20190720000002,846.4,148.60853280000003C840.4266666666666,153.01515840000002,834.4533333333334,157.34905680000003,828.48,161.61687360000002C822.5066666666667,165.88469040000004,816.5333333333333,170.08205760000004,810.56,174.21543360000004C804.5866666666666,178.34880960000004,798.6133333333333,182.4139512,792.64,186.4171296C786.6666666666666,190.420308,780.6933333333333,194.35740479999998,774.7199999999999,198.23450400000002C768.7466666666667,202.1116032,762.7733333333333,205.92471120000005,756.8000000000001,209.67972480000003C750.8266666666667,213.43473840000007,744.8533333333334,217.12785120000004,738.88,220.76458560000003C732.9066666666666,224.40132000000003,726.9333333333334,227.9779632,720.96,231.5001312C714.9866666666667,235.02229920000002,709.0133333333333,238.48637280000005,703.04,241.89759360000005C697.0666666666666,245.30881440000005,691.0933333333334,248.66368799999998,685.12,251.96745599999997C679.1466666666666,255.271224,673.1733333333333,258.52048560000003,667.1999999999999,261.72020160000005C661.2266666666667,264.9199176,655.2533333333333,268.066812,649.2800000000001,271.165752C643.3066666666667,274.264692,637.3333333333334,277.3125264,631.36,280.31384160000005C625.3866666666667,283.3151568,619.4133333333334,286.266864,613.44,289.1736432C607.4666666666667,292.08042240000003,601.4933333333333,294.93927840000003,595.52,297.75451680000003C589.5466666666666,300.56975520000003,583.5733333333334,303.3385056,577.6,306.0650736C571.6266666666667,308.7916416,565.6533333333333,314.1139248,559.68,314.1139248C553.7066666666666,314.1139248,547.7333333333333,281.28672,541.76,281.28672C535.7866666666666,281.28672,529.8133333333334,319.03872000000007,523.84,321.90912000000003C517.8666666666667,324.77952,511.8933333333334,324.84504,505.92,326.21472C499.94666666666666,327.5844,493.97333333333336,329.0976,488,330.1272C482.02666666666664,331.15680000000003,476.05333333333334,330.99768000000006,470.08,332.39232000000004C464.1066666666667,333.78696,458.1333333333333,336.77904,452.16,338.49504C446.18666666666667,340.21104,440.21333333333337,341.27184000000005,434.24,342.68832000000003C428.26666666666665,344.1048,422.29333333333335,345.5712,416.32,346.99392C410.3466666666667,348.41664,404.37333333333333,349.5804,398.40000000000003,351.22464C392.4266666666667,352.86888000000005,386.4533333333334,354.53184000000005,380.48,356.85936000000004C374.50666666666666,359.18688000000003,368.53333333333336,362.25383999999997,362.56,365.18976C356.5866666666667,368.12568,350.61333333333334,371.13648,344.64000000000004,374.47488C338.6666666666667,377.81328,332.6933333333334,381.30144,326.72,385.22016C320.74666666666667,389.13888000000003,314.77333333333337,393.4008,308.8,397.98720000000003C302.82666666666665,402.57360000000006,296.85333333333335,407.68416,290.88,412.73856C284.9066666666667,417.79296,278.93333333333334,423.47136,272.96000000000004,428.3136C266.9866666666667,433.15584,261.0133333333333,437.36784,255.04,441.79200000000003C249.06666666666666,446.21616,243.09333333333333,450.95856000000003,237.12,454.85856C231.14666666666668,458.75856,225.17333333333335,462.03456,219.20000000000002,465.192C213.2266666666667,468.34944,207.25333333333333,470.6832,201.28,473.8032C195.30666666666667,476.9232,189.33333333333334,481.09152000000006,183.36,483.91200000000003C177.38666666666668,486.73248000000007,171.41333333333333,488.32368,165.44,490.72608C159.46666666666667,493.12848,153.4933333333333,496.56048000000004,147.51999999999998,498.32640000000004C141.54666666666665,500.09232000000003,135.57333333333335,500.136,129.60000000000002,501.3216C123.62666666666668,502.5072,117.65333333333335,504.40103999999997,111.68,505.44C105.70666666666666,506.47896000000003,99.73333333333333,506.90328,93.75999999999999,507.55536C87.78666666666666,508.20744,81.81333333333333,508.19184,75.84,509.35248C69.86666666666667,510.51312,63.89333333333334,512.51616,57.92,514.5192000000001Z"/></g><g class="series" pointer-events="none"><path class="area" transform="translate(15,20)" fill-opacity="0" fill="#802392" clip-path="url(#clip-0-1)" d="M57.92,507.0312C63.89333333333334,505.33704000000006,69.86666666666667,503.64288000000005,75.84,502.48224000000005C81.81333333333333,501.32160000000005,87.78666666666666,501.06888000000004,93.75999999999999,500.06736C99.73333333333333,499.06584,105.70666666666666,497.70552,111.68,496.47312C117.65333333333335,495.24072,123.62666666666668,494.20488,129.60000000000002,492.67296C135.57333333333335,491.14104,141.54666666666665,489.25344,147.51999999999998,487.2816C153.4933333333333,485.30976000000004,159.46666666666667,483.05088,165.44,480.84192C171.41333333333333,478.63296,177.38666666666668,476.19624000000005,183.36,474.02784C189.33333333333334,471.85944,195.30666666666667,469.96248,201.28,467.83152C207.25333333333333,465.70056,213.2266666666667,463.8972,219.20000000000002,461.24208C225.17333333333335,458.58696,231.14666666666668,455.54184,237.12,451.9008C243.09333333333333,448.25976,249.06666666666666,443.5548,255.04,439.39584C261.0133333333333,435.23688000000004,266.9866666666667,431.16216000000003,272.96000000000004,426.94704C278.93333333333334,422.73192000000006,284.9066666666667,418.20168000000007,290.88,414.10512000000006C296.85333333333335,410.00856000000005,302.82666666666665,406.5828,308.8,402.36768C314.77333333333337,398.15256,320.74666666666667,393.04824,326.72,388.81440000000003C332.6933333333334,384.58056000000005,338.6666666666667,381.34512000000007,344.64000000000004,376.96464000000003C350.61333333333334,372.58416000000005,356.5866666666667,366.15072,362.56,362.53152C368.53333333333336,358.91232,374.50666666666666,357.85464,380.48,355.24944000000005C386.4533333333334,352.6442400000001,392.4266666666667,350.1888,398.40000000000003,346.90032C404.37333333333333,343.61184000000003,410.3466666666667,338.676,416.32,335.51856C422.29333333333335,332.36111999999997,428.26666666666665,329.69352000000003,434.24,327.95568000000003C440.21333333333337,326.21784,446.18666666666667,326.38008,452.16,325.09152C458.1333333333333,323.80296,464.1066666666667,321.98400000000004,470.08,320.22432000000003C476.05333333333334,318.46464000000003,482.02666666666664,316.31184,488,314.53344000000004C493.97333333333336,312.75504000000006,499.94666666666666,311.3448000000001,505.92,309.55392000000006C511.8933333333334,307.76304000000005,517.8666666666667,305.74752,523.84,303.78816C529.8133333333334,301.8288,535.7866666666666,299.5695768,541.76,297.79776C547.7333333333333,296.0259432,553.7066666666666,295.77553200000006,559.68,293.15725920000006C565.6533333333333,290.53898640000006,571.6266666666667,285.853932,577.6,282.0881232C583.5733333333334,278.3223144,589.5466666666666,274.4834976,595.52,270.56240640000004C601.4933333333333,266.6413152,607.4666666666667,262.64434559999995,613.44,258.56157599999995C619.4133333333334,254.47880639999994,625.3866666666667,250.3169448,631.36,246.0657888C637.3333333333334,241.8146328,643.3066666666667,237.48107760000002,649.2800000000001,233.05464C655.2533333333333,228.62820240000005,661.2266666666667,224.1161208,667.1999999999999,219.50716320000004C673.1733333333333,214.8982056,679.1466666666666,210.19989120000005,685.12,205.40089440000003C691.0933333333334,200.60189760000003,697.0666666666666,195.71008079999993,703.04,190.71318239999994C709.0133333333333,185.71628399999992,714.9866666666667,180.6224472,720.96,175.41950400000002C726.9333333333334,170.21656080000005,732.9066666666666,164.9129976,738.88,159.49552320000004C744.8533333333334,154.07804880000003,750.8266666666667,148.5555552000001,756.8000000000001,142.91465760000006C762.7733333333333,137.2737600000001,768.7466666666667,131.52360000000002,774.7199999999999,125.65013760000005C780.6933333333333,119.77667520000001,786.6666666666666,113.78952000000007,792.64,107.67388320000003C798.6133333333333,101.55824640000004,804.5866666666666,95.32417439999996,810.56,88.95631679999997C816.5333333333333,82.58845919999995,822.5066666666667,76.09717440000001,828.48,69.46673759999999C834.4533333333334,62.836300800000004,840.4266666666666,56.077507199999914,846.4,49.17369599999995C852.3733333333333,42.26988479999994,858.3466666666667,35.232381600000075,864.32,28.04387040000006C870.2933333333334,20.855359200000088,876.2666666666667,13.448994000000038,882.24,6.042628799999989L882.24,6.042628799999989C876.2666666666667,13.448994000000038,870.2933333333334,20.855359200000088,864.32,28.04387040000006C858.3466666666667,35.232381600000075,852.3733333333333,42.26988479999994,846.4,49.17369599999995C840.4266666666666,56.077507199999914,834.4533333333334,62.836300800000004,828.48,69.46673759999999C822.5066666666667,76.09717440000001,816.5333333333333,82.58845919999995,810.56,88.95631679999997C804.5866666666666,95.32417439999996,798.6133333333333,101.55824640000004,792.64,107.67388320000003C786.6666666666666,113.78952000000007,780.6933333333333,119.77667520000001,774.7199999999999,125.65013760000005C768.7466666666667,131.52360000000002,762.7733333333333,137.2737600000001,756.8000000000001,142.91465760000006C750.8266666666667,148.5555552000001,744.8533333333334,154.07804880000003,738.88,159.49552320000004C732.9066666666666,164.9129976,726.9333333333334,170.21656080000005,720.96,175.41950400000002C714.9866666666667,180.6224472,709.0133333333333,185.71628399999992,703.04,190.71318239999994C697.0666666666666,195.71008079999993,691.0933333333334,200.60189760000003,685.12,205.40089440000003C679.1466666666666,210.19989120000005,673.1733333333333,214.8982056,667.1999999999999,219.50716320000004C661.2266666666667,224.1161208,655.2533333333333,228.62820240000005,649.2800000000001,233.05464C643.3066666666667,237.48107760000002,637.3333333333334,241.8146328,631.36,246.0657888C625.3866666666667,250.3169448,619.4133333333334,254.47880639999994,613.44,258.56157599999995C607.4666666666667,262.64434559999995,601.4933333333333,266.6413152,595.52,270.56240640000004C589.5466666666666,274.4834976,583.5733333333334,278.3223144,577.6,282.0881232C571.6266666666667,285.853932,565.6533333333333,290.53898640000006,559.68,293.15725920000006C553.7066666666666,295.77553200000006,547.7333333333333,296.0259432,541.76,297.79776C535.7866666666666,299.5695768,529.8133333333334,301.8288,523.84,303.78816C517.8666666666667,305.74752,511.8933333333334,307.76304000000005,505.92,309.55392000000006C499.94666666666666,311.3448000000001,493.97333333333336,312.75504000000006,488,314.53344000000004C482.02666666666664,316.31184,476.05333333333334,318.46464000000003,470.08,320.22432000000003C464.1066666666667,321.98400000000004,458.1333333333333,323.80296,452.16,325.09152C446.18666666666667,326.38008,440.21333333333337,326.21784,434.24,327.95568000000003C428.26666666666665,329.69352000000003,422.29333333333335,332.36111999999997,416.32,335.51856C410.3466666666667,338.676,404.37333333333333,343.61184000000003,398.40000000000003,346.90032C392.4266666666667,350.1888,386.4533333333334,352.6442400000001,380.48,355.24944000000005C374.50666666666666,357.85464,368.53333333333336,358.91232,362.56,362.53152C356.5866666666667,366.15072,350.61333333333334,372.58416000000005,344.64000000000004,376.96464000000003C338.6666666666667,381.34512000000007,332.6933333333334,384.58056000000005,326.72,388.81440000000003C320.74666666666667,393.04824,314.77333333333337,398.15256,308.8,402.36768C302.82666666666665,406.5828,296.85333333333335,410.00856000000005,290.88,414.10512000000006C284.9066666666667,418.20168000000007,278.93333333333334,422.73192000000006,272.96000000000004,426.94704C266.9866666666667,431.16216000000003,261.0133333333333,435.23688000000004,255.04,439.39584C249.06666666666666,443.5548,243.09333333333333,448.25976,237.12,451.9008C231.14666666666668,455.54184,225.17333333333335,458.58696,219.20000000000002,461.24208C213.2266666666667,463.8972,207.25333333333333,465.70056,201.28,467.83152C195.30666666666667,469.96248,189.33333333333334,471.85944,183.36,474.02784C177.38666666666668,476.19624000000005,171.41333333333333,478.63296,165.44,480.84192C159.46666666666667,483.05088,153.4933333333333,485.30976000000004,147.51999999999998,487.2816C141.54666666666665,489.25344,135.57333333333335,491.14104,129.60000000000002,492.67296C123.62666666666668,494.20488,117.65333333333335,495.24072,111.68,496.47312C105.70666666666666,497.70552,99.73333333333333,499.06584,93.75999999999999,500.06736C87.78666666666666,501.06888000000004,81.81333333333333,501.32160000000005,75.84,502.48224000000005C69.86666666666667,503.64288000000005,63.89333333333334,505.33704000000006,57.92,507.0312Z"/></g></g><g id="lines"><g class="series"><clipPath id="clip-0-0"><rect width="936" y="-20" height="599.6"/></clipPath><path class="line" opacity="1" fill="none" stroke="#11A579" stroke-width="2" transform="translate(15,20)" clip-path="url(#clip-0-0)" d="M57.92,514.5192000000001C63.89333333333334,512.51616,69.86666666666667,510.51312,75.84,509.35248C81.81333333333333,508.19184,87.78666666666666,508.20744,93.75999999999999,507.55536C99.73333333333333,506.90328,105.70666666666666,506.47896000000003,111.68,505.44C117.65333333333335,504.40103999999997,123.62666666666668,502.5072,129.60000000000002,501.3216C135.57333333333335,500.136,141.54666666666665,500.09232000000003,147.51999999999998,498.32640000000004C153.4933333333333,496.56048000000004,159.46666666666667,493.12848,165.44,490.72608C171.41333333333333,488.32368,177.38666666666668,486.73248000000007,183.36,483.91200000000003C189.33333333333334,481.09152000000006,195.30666666666667,476.9232,201.28,473.8032C207.25333333333333,470.6832,213.2266666666667,468.34944,219.20000000000002,465.192C225.17333333333335,462.03456,231.14666666666668,458.75856,237.12,454.85856C243.09333333333333,450.95856000000003,249.06666666666666,446.21616,255.04,441.79200000000003C261.0133333333333,437.36784,266.9866666666667,433.15584,272.96000000000004,428.3136C278.93333333333334,423.47136,284.9066666666667,417.79296,290.88,412.73856C296.85333333333335,407.68416,302.82666666666665,402.57360000000006,308.8,397.98720000000003C314.77333333333337,393.4008,320.74666666666667,389.13888000000003,326.72,385.22016C332.6933333333334,381.30144,338.6666666666667,377.81328,344.64000000000004,374.47488C350.61333333333334,371.13648,356.5866666666667,368.12568,362.56,365.18976C368.53333333333336,362.25383999999997,374.50666666666666,359.18688000000003,380.48,356.85936000000004C386.4533333333334,354.53184000000005,392.4266666666667,352.86888000000005,398.40000000000003,351.22464C404.37333333333333,349.5804,410.3466666666667,348.41664,416.32,346.99392C422.29333333333335,345.5712,428.26666666666665,344.1048,434.24,342.68832000000003C440.21333333333337,341.27184000000005,446.18666666666667,340.21104,452.16,338.49504C458.1333333333333,336.77904,464.1066666666667,333.78696,470.08,332.39232000000004C476.05333333333334,330.99768000000006,482.02666666666664,331.15680000000003,488,330.1272C493.97333333333336,329.0976,499.94666666666666,327.5844,505.92,326.21472C511.8933333333334,324.84504,517.8666666666667,324.77952,523.84,321.90912000000003C529.8133333333334,319.03872000000007,535.7866666666666,281.28672,541.76,281.28672C547.7333333333333,281.28672,553.7066666666666,314.1139248,559.68,314.1139248C565.6533333333333,314.1139248,571.6266666666667,308.7916416,577.6,306.0650736C583.5733333333334,303.3385056,589.5466666666666,300.56975520000003,595.52,297.75451680000003C601.4933333333333,294.93927840000003,607.4666666666667,292.08042240000003,613.44,289.1736432C619.4133333333334,286.266864,625.3866666666667,283.3151568,631.36,280.31384160000005C637.3333333333334,277.3125264,643.3066666666667,274.264692,649.2800000000001,271.165752C655.2533333333333,268.066812,661.2266666666667,264.9199176,667.1999999999999,261.72020160000005C673.1733333333333,258.52048560000003,679.1466666666666,255.271224,685.12,251.96745599999997C691.0933333333334,248.66368799999998,697.0666666666666,245.30881440000005,703.04,241.89759360000005C709.0133333333333,238.48637280000005,714.9866666666667,235.02229920000002,720.96,231.5001312C726.9333333333334,227.9779632,732.9066666666666,224.40132000000003,738.88,220.76458560000003C744.8533333333334,217.12785120000004,750.8266666666667,213.43473840000007,756.8000000000001,209.67972480000003C762.7733333333333,205.92471120000005,768.7466666666667,202.1116032,774.7199999999999,198.23450400000002C780.6933333333333,194.35740479999998,786.6666666666666,190.420308,792.64,186.4171296C798.6133333333333,182.4139512,804.5866666666666,178.34880960000004,810.56,174.21543360000004C816.5333333333333,170.08205760000004,822.5066666666667,165.88469040000004,828.48,161.61687360000002C834.4533333333334,157.34905680000003,840.4266666666666,153.01515840000002,846.4,148.60853280000003C852.3733333333333,144.20190720000002,858.3466666666667,139.72704720000002,864.32,135.17712C870.2933333333334,130.62719280000002,876.2666666666667,125.9680812,882.24,121.30896960000001"/><text class="label" font-size="11" alignment-baseline="middle" opacity="1" x="5" fill="#11A579" transform="translate(897.239990234375, 141.30897521972656)"/></g><g class="series"><clipPath id="clip-0-1"><rect width="936" y="-20" height="599.6"/></clipPath><path class="line" opacity="1" fill="none" stroke="#802392" stroke-width="2" transform="translate(15,20)" clip-path="url(#clip-0-1)" d="M57.92,507.0312C63.89333333333334,505.33704000000006,69.86666666666667,503.64288000000005,75.84,502.48224000000005C81.81333333333333,501.32160000000005,87.78666666666666,501.06888000000004,93.75999999999999,500.06736C99.73333333333333,499.06584,105.70666666666666,497.70552,111.68,496.47312C117.65333333333335,495.24072,123.62666666666668,494.20488,129.60000000000002,492.67296C135.57333333333335,491.14104,141.54666666666665,489.25344,147.51999999999998,487.2816C153.4933333333333,485.30976000000004,159.46666666666667,483.05088,165.44,480.84192C171.41333333333333,478.63296,177.38666666666668,476.19624000000005,183.36,474.02784C189.33333333333334,471.85944,195.30666666666667,469.96248,201.28,467.83152C207.25333333333333,465.70056,213.2266666666667,463.8972,219.20000000000002,461.24208C225.17333333333335,458.58696,231.14666666666668,455.54184,237.12,451.9008C243.09333333333333,448.25976,249.06666666666666,443.5548,255.04,439.39584C261.0133333333333,435.23688000000004,266.9866666666667,431.16216000000003,272.96000000000004,426.94704C278.93333333333334,422.73192000000006,284.9066666666667,418.20168000000007,290.88,414.10512000000006C296.85333333333335,410.00856000000005,302.82666666666665,406.5828,308.8,402.36768C314.77333333333337,398.15256,320.74666666666667,393.04824,326.72,388.81440000000003C332.6933333333334,384.58056000000005,338.6666666666667,381.34512000000007,344.64000000000004,376.96464000000003C350.61333333333334,372.58416000000005,356.5866666666667,366.15072,362.56,362.53152C368.53333333333336,358.91232,374.50666666666666,357.85464,380.48,355.24944000000005C386.4533333333334,352.6442400000001,392.4266666666667,350.1888,398.40000000000003,346.90032C404.37333333333333,343.61184000000003,410.3466666666667,338.676,416.32,335.51856C422.29333333333335,332.36111999999997,428.26666666666665,329.69352000000003,434.24,327.95568000000003C440.21333333333337,326.21784,446.18666666666667,326.38008,452.16,325.09152C458.1333333333333,323.80296,464.1066666666667,321.98400000000004,470.08,320.22432000000003C476.05333333333334,318.46464000000003,482.02666666666664,316.31184,488,314.53344000000004C493.97333333333336,312.75504000000006,499.94666666666666,311.3448000000001,505.92,309.55392000000006C511.8933333333334,307.76304000000005,517.8666666666667,305.74752,523.84,303.78816C529.8133333333334,301.8288,535.7866666666666,299.5695768,541.76,297.79776C547.7333333333333,296.0259432,553.7066666666666,295.77553200000006,559.68,293.15725920000006C565.6533333333333,290.53898640000006,571.6266666666667,285.853932,577.6,282.0881232C583.5733333333334,278.3223144,589.5466666666666,274.4834976,595.52,270.56240640000004C601.4933333333333,266.6413152,607.4666666666667,262.64434559999995,613.44,258.56157599999995C619.4133333333334,254.47880639999994,625.3866666666667,250.3169448,631.36,246.0657888C637.3333333333334,241.8146328,643.3066666666667,237.48107760000002,649.2800000000001,233.05464C655.2533333333333,228.62820240000005,661.2266666666667,224.1161208,667.1999999999999,219.50716320000004C673.1733333333333,214.8982056,679.1466666666666,210.19989120000005,685.12,205.40089440000003C691.0933333333334,200.60189760000003,697.0666666666666,195.71008079999993,703.04,190.71318239999994C709.0133333333333,185.71628399999992,714.9866666666667,180.6224472,720.96,175.41950400000002C726.9333333333334,170.21656080000005,732.9066666666666,164.9129976,738.88,159.49552320000004C744.8533333333334,154.07804880000003,750.8266666666667,148.5555552000001,756.8000000000001,142.91465760000006C762.7733333333333,137.2737600000001,768.7466666666667,131.52360000000002,774.7199999999999,125.65013760000005C780.6933333333333,119.77667520000001,786.6666666666666,113.78952000000007,792.64,107.67388320000003C798.6133333333333,101.55824640000004,804.5866666666666,95.32417439999996,810.56,88.95631679999997C816.5333333333333,82.58845919999995,822.5066666666667,76.09717440000001,828.48,69.46673759999999C834.4533333333334,62.836300800000004,840.4266666666666,56.077507199999914,846.4,49.17369599999995C852.3733333333333,42.26988479999994,858.3466666666667,35.232381600000075,864.32,28.04387040000006C870.2933333333334,20.855359200000088,876.2666666666667,13.448994000000038,882.24,6.042628799999989"/><text class="label" font-size="11" alignment-baseline="middle" opacity="1" x="5" fill="#802392" transform="translate(897.239990234375, 26.04262924194336)"/></g></g><g id="data-points"><g class="series" transform="translate(15,20)"><path class="data-point" fill="#11A579" data-type="point" transform="translate(0, 0)" d="M54.92,514.5192000000001A3,3,0,1,1,60.92,514.5192000000001A3,3,0,1,1,54.92,514.5192000000001Z" id="point-0-0" opacity="1"/><path class="data-point" fill="#11A579" data-type="point" transform="translate(0, 0)" d="M72.84,509.35248A3,3,0,1,1,78.84,509.35248A3,3,0,1,1,72.84,509.35248Z" id="point-0-1" opacity="1"/><path class="data-point" fill="#11A579" data-type="point" transform="translate(0, 0)" d="M90.75999999999999,507.55536A3,3,0,1,1,96.75999999999999,507.55536A3,3,0,1,1,90.75999999999999,507.55536Z" id="point-0-2" opacity="1"/><path class="data-point" fill="#11A579" data-type="point" transform="translate(0, 0)" d="M108.68,505.44A3,3,0,1,1,114.68,505.44A3,3,0,1,1,108.68,505.44Z" id="point-0-3" opacity="1"/><path class="data-point" fill="#11A579" data-type="point" transform="translate(0, 0)" d="M126.60000000000002,501.3216A3,3,0,1,1,132.60000000000002,501.3216A3,3,0,1,1,126.60000000000002,501.3216Z" id="point-0-4" opacity="1"/><path class="data-point" fill="#11A579" data-type="point" transform="translate(0, 0)" d="M144.51999999999998,498.32640000000004A3,3,0,1,1,150.51999999999998,498.32640000000004A3,3,0,1,1,144.51999999999998,498.32640000000004Z" id="point-0-5" opacity="1"/><path class="data-point" fill="#11A579" data-type="point" transform="translate(0, 0)" d="M162.44,490.72608A3,3,0,1,1,168.44,490.72608A3,3,0,1,1,162.44,490.72608Z" id="point-0-6" opacity="1"/><path class="data-point" fill="#11A579" data-type="point" transform="translate(0, 0)" d="M180.36,483.91200000000003A3,3,0,1,1,186.36,483.91200000000003A3,3,0,1,1,180.36,483.91200000000003Z" id="point-0-7" opacity="1"/><path class="data-point" fill="#11A579" data-type="point" transform="translate(0, 0)" d="M198.28,473.8032A3,3,0,1,1,204.28,473.8032A3,3,0,1,1,198.28,473.8032Z" id="point-0-8" opacity="1"/><path class="data-point" fill="#11A579" data-type="point" transform="translate(0, 0)" d="M216.20000000000002,465.192A3,3,0,1,1,222.20000000000002,465.192A3,3,0,1,1,216.20000000000002,465.192Z" id="point-0-9" opacity="1"/><path class="data-point" fill="#11A579" data-type="point" transform="translate(0, 0)" d="M234.12,454.85856A3,3,0,1,1,240.12,454.85856A3,3,0,1,1,234.12,454.85856Z" id="point-0-10" opacity="1"/><path class="data-point" fill="#11A579" data-type="point" transform="translate(0, 0)" d="M252.04,441.79200000000003A3,3,0,1,1,258.03999999999996,441.79200000000003A3,3,0,1,1,252.04,441.79200000000003Z" id="point-0-11" opacity="1"/><path class="data-point" fill="#11A579" data-type="point" transform="translate(0, 0)" d="M269.96000000000004,428.3136A3,3,0,1,1,275.96000000000004,428.3136A3,3,0,1,1,269.96000000000004,428.3136Z" id="point-0-12" opacity="1"/><path class="data-point" fill="#11A579" data-type="point" transform="translate(0, 0)" d="M287.88,412.73856A3,3,0,1,1,293.88,412.73856A3,3,0,1,1,287.88,412.73856Z" id="point-0-13" opacity="1"/><path class="data-point" fill="#11A579" data-type="point" transform="translate(0, 0)" d="M305.8,397.98720000000003A3,3,0,1,1,311.8,397.98720000000003A3,3,0,1,1,305.8,397.98720000000003Z" id="point-0-14" opacity="1"/><path class="data-point" fill="#11A579" data-type="point" transform="translate(0, 0)" d="M323.72,385.22016A3,3,0,1,1,329.72,385.22016A3,3,0,1,1,323.72,385.22016Z" id="point-0-15" opacity="1"/><path class="data-point" fill="#11A579" data-type="point" transform="translate(0, 0)" d="M341.64000000000004,374.47488A3,3,0,1,1,347.64000000000004,374.47488A3,3,0,1,1,341.64000000000004,374.47488Z" id="point-0-16" opacity="1"/><path class="data-point" fill="#11A579" data-type="point" transform="translate(0, 0)" d="M359.56,365.18976A3,3,0,1,1,365.56,365.18976A3,3,0,1,1,359.56,365.18976Z" id="point-0-17" opacity="1"/><path class="data-point" fill="#11A579" data-type="point" transform="translate(0, 0)" d="M377.48,356.85936000000004A3,3,0,1,1,383.48,356.85936000000004A3,3,0,1,1,377.48,356.85936000000004Z" id="point-0-18" opacity="1"/><path class="data-point" fill="#11A579" data-type="point" transform="translate(0, 0)" d="M395.40000000000003,351.22464A3,3,0,1,1,401.40000000000003,351.22464A3,3,0,1,1,395.40000000000003,351.22464Z" id="point-0-19" opacity="1"/><path class="data-point" fill="#11A579" data-type="point" transform="translate(0, 0)" d="M413.32,346.99392A3,3,0,1,1,419.32,346.99392A3,3,0,1,1,413.32,346.99392Z" id="point-0-20" opacity="1"/><path class="data-point" fill="#11A579" data-type="point" transform="translate(0, 0)" d="M431.24,342.68832000000003A3,3,0,1,1,437.24,342.68832000000003A3,3,0,1,1,431.24,342.68832000000003Z" id="point-0-21" opacity="1"/><path class="data-point" fill="#11A579" data-type="point" transform="translate(0, 0)" d="M449.16,338.49504A3,3,0,1,1,455.16,338.49504A3,3,0,1,1,449.16,338.49504Z" id="point-0-22" opacity="1"/><path class="data-point" fill="#11A579" data-type="point" transform="translate(0, 0)" d="M467.08,332.39232000000004A3,3,0,1,1,473.08,332.39232000000004A3,3,0,1,1,467.08,332.39232000000004Z" id="point-0-23" opacity="1"/><path class="data-point" fill="#11A579" data-type="point" transform="translate(0, 0)" d="M485,330.1272A3,3,0,1,1,491,330.1272A3,3,0,1,1,485,330.1272Z" id="point-0-24" opacity="1"/><path class="data-point" fill="#11A579" data-type="point" transform="translate(0, 0)" d="M502.92,326.21472A3,3,0,1,1,508.92,326.21472A3,3,0,1,1,502.92,326.21472Z" id="point-0-25" opacity="1"/><path class="data-point" fill="#11A579" data-type="point" transform="translate(0, 0)" d="M520.84,321.90912000000003A3,3,0,1,1,526.84,321.90912000000003A3,3,0,1,1,520.84,321.90912000000003Z" id="point-0-26" opacity="1"/><path class="data-point" fill="#11A579" data-type="point" transform="translate(0, 0)" d="M538.76,281.28672A3,3,0,1,1,544.76,281.28672A3,3,0,1,1,538.76,281.28672Z" id="point-0-27" opacity="1"/><path class="data-point" fill="#11A579" data-type="point" transform="translate(0, 0)" d="M556.68,314.1139248A3,3,0,1,1,562.68,314.1139248A3,3,0,1,1,556.68,314.1139248Z" id="point-0-28" opacity="1"/><path class="data-point" fill="#11A579" data-type="point" transform="translate(0, 0)" d="M574.6,306.0650736A3,3,0,1,1,580.6,306.0650736A3,3,0,1,1,574.6,306.0650736Z" id="point-0-29" opacity="1"/><path class="data-point" fill="#11A579" data-type="point" transform="translate(0, 0)" d="M592.52,297.75451680000003A3,3,0,1,1,598.52,297.75451680000003A3,3,0,1,1,592.52,297.75451680000003Z" id="point-0-30" opacity="1"/><path class="data-point" fill="#11A579" data-type="point" transform="translate(0, 0)" d="M610.44,289.1736432A3,3,0,1,1,616.44,289.1736432A3,3,0,1,1,610.44,289.1736432Z" id="point-0-31" opacity="1"/><path class="data-point" fill="#11A579" data-type="point" transform="translate(0, 0)" d="M628.36,280.31384160000005A3,3,0,1,1,634.36,280.31384160000005A3,3,0,1,1,628.36,280.31384160000005Z" id="point-0-32" opacity="1"/><path class="data-point" fill="#11A579" data-type="point" transform="translate(0, 0)" d="M646.2800000000001,271.165752A3,3,0,1,1,652.2800000000001,271.165752A3,3,0,1,1,646.2800000000001,271.165752Z" id="point-0-33" opacity="1"/><path class="data-point" fill="#11A579" data-type="point" transform="translate(0, 0)" d="M664.1999999999999,261.72020160000005A3,3,0,1,1,670.1999999999999,261.72020160000005A3,3,0,1,1,664.1999999999999,261.72020160000005Z" id="point-0-34" opacity="1"/><path class="data-point" fill="#11A579" data-type="point" transform="translate(0, 0)" d="M682.12,251.96745599999997A3,3,0,1,1,688.12,251.96745599999997A3,3,0,1,1,682.12,251.96745599999997Z" id="point-0-35" opacity="1"/><path class="data-point" fill="#11A579" data-type="point" transform="translate(0, 0)" d="M700.04,241.89759360000005A3,3,0,1,1,706.04,241.89759360000005A3,3,0,1,1,700.04,241.89759360000005Z" id="point-0-36" opacity="1"/><path class="data-point" fill="#11A579" data-type="point" transform="translate(0, 0)" d="M717.96,231.5001312A3,3,0,1,1,723.96,231.5001312A3,3,0,1,1,717.96,231.5001312Z" id="point-0-37" opacity="1"/><path class="data-point" fill="#11A579" data-type="point" transform="translate(0, 0)" d="M735.88,220.76458560000003A3,3,0,1,1,741.88,220.76458560000003A3,3,0,1,1,735.88,220.76458560000003Z" id="point-0-38" opacity="1"/><path class="data-point" fill="#11A579" data-type="point" transform="translate(0, 0)" d="M753.8000000000001,209.67972480000003A3,3,0,1,1,759.8000000000001,209.67972480000003A3,3,0,1,1,753.8000000000001,209.67972480000003Z" id="point-0-39" opacity="1"/><path class="data-point" fill="#11A579" data-type="point" transform="translate(0, 0)" d="M771.7199999999999,198.23450400000002A3,3,0,1,1,777.7199999999999,198.23450400000002A3,3,0,1,1,771.7199999999999,198.23450400000002Z" id="point-0-40" opacity="1"/><path class="data-point" fill="#11A579" data-type="point" transform="translate(0, 0)" d="M789.64,186.4171296A3,3,0,1,1,795.64,186.4171296A3,3,0,1,1,789.64,186.4171296Z" id="point-0-41" opacity="1"/><path class="data-point" fill="#11A579" data-type="point" transform="translate(0, 0)" d="M807.56,174.21543360000004A3,3,0,1,1,813.56,174.21543360000004A3,3,0,1,1,807.56,174.21543360000004Z" id="point-0-42" opacity="1"/><path class="data-point" fill="#11A579" data-type="point" transform="translate(0, 0)" d="M825.48,161.61687360000002A3,3,0,1,1,831.48,161.61687360000002A3,3,0,1,1,825.48,161.61687360000002Z" id="point-0-43" opacity="1"/><path class="data-point" fill="#11A579" data-type="point" transform="translate(0, 0)" d="M843.4,148.60853280000003A3,3,0,1,1,849.4,148.60853280000003A3,3,0,1,1,843.4,148.60853280000003Z" id="point-0-44" opacity="1"/><path class="data-point" fill="#11A579" data-type="point" transform="translate(0, 0)" d="M861.32,135.17712A3,3,0,1,1,867.32,135.17712A3,3,0,1,1,861.32,135.17712Z" id="point-0-45" opacity="1"/><path class="data-point" fill="#11A579" data-type="point" transform="translate(0, 0)" d="M879.24,121.30896960000001A3,3,0,1,1,885.24,121.30896960000001A3,3,0,1,1,879.24,121.30896960000001Z" id="point-0-46" opacity="1"/></g><g class="series" transform="translate(15,20)"><path class="data-point" fill="#802392" data-type="point" transform="translate(0, 0)" d="M54.92,507.0312A3,3,0,1,1,60.92,507.0312A3,3,0,1,1,54.92,507.0312Z" id="point-1-0" opacity="1"/><path class="data-point" fill="#802392" data-type="point" transform="translate(0, 0)" d="M72.84,502.48224000000005A3,3,0,1,1,78.84,502.48224000000005A3,3,0,1,1,72.84,502.48224000000005Z" id="point-1-1" opacity="1"/><path class="data-point" fill="#802392" data-type="point" transform="translate(0, 0)" d="M90.75999999999999,500.06736A3,3,0,1,1,96.75999999999999,500.06736A3,3,0,1,1,90.75999999999999,500.06736Z" id="point-1-2" opacity="1"/><path class="data-point" fill="#802392" data-type="point" transform="translate(0, 0)" d="M108.68,496.47312A3,3,0,1,1,114.68,496.47312A3,3,0,1,1,108.68,496.47312Z" id="point-1-3" opacity="1"/><path class="data-point" fill="#802392" data-type="point" transform="translate(0, 0)" d="M126.60000000000002,492.67296A3,3,0,1,1,132.60000000000002,492.67296A3,3,0,1,1,126.60000000000002,492.67296Z" id="point-1-4" opacity="1"/><path class="data-point" fill="#802392" data-type="point" transform="translate(0, 0)" d="M144.51999999999998,487.2816A3,3,0,1,1,150.51999999999998,487.2816A3,3,0,1,1,144.51999999999998,487.2816Z" id="point-1-5" opacity="1"/><path class="data-point" fill="#802392" data-type="point" transform="translate(0, 0)" d="M162.44,480.84192A3,3,0,1,1,168.44,480.84192A3,3,0,1,1,162.44,480.84192Z" id="point-1-6" opacity="1"/><path class="data-point" fill="#802392" data-type="point" transform="translate(0, 0)" d="M180.36,474.02784A3,3,0,1,1,186.36,474.02784A3,3,0,1,1,180.36,474.02784Z" id="point-1-7" opacity="1"/><path class="data-point" fill="#802392" data-type="point" transform="translate(0, 0)" d="M198.28,467.83152A3,3,0,1,1,204.28,467.83152A3,3,0,1,1,198.28,467.83152Z" id="point-1-8" opacity="1"/><path class="data-point" fill="#802392" data-type="point" transform="translate(0, 0)" d="M216.20000000000002,461.24208A3,3,0,1,1,222.20000000000002,461.24208A3,3,0,1,1,216.20000000000002,461.24208Z" id="point-1-9" opacity="1"/><path class="data-point" fill="#802392" data-type="point" transform="translate(0, 0)" d="M234.12,451.9008A3,3,0,1,1,240.12,451.9008A3,3,0,1,1,234.12,451.9008Z" id="point-1-10" opacity="1"/><path class="data-point" fill="#802392" data-type="point" transform="translate(0, 0)" d="M252.04,439.39584A3,3,0,1,1,258.03999999999996,439.39584A3,3,0,1,1,252.04,439.39584Z" id="point-1-11" opacity="1"/><path class="data-point" fill="#802392" data-type="point" transform="translate(0, 0)" d="M269.96000000000004,426.94704A3,3,0,1,1,275.96000000000004,426.94704A3,3,0,1,1,269.96000000000004,426.94704Z" id="point-1-12" opacity="1"/><path class="data-point" fill="#802392" data-type="point" transform="translate(0, 0)" d="M287.88,414.10512000000006A3,3,0,1,1,293.88,414.10512000000006A3,3,0,1,1,287.88,414.10512000000006Z" id="point-1-13" opacity="1"/><path class="data-point" fill="#802392" data-type="point" transform="translate(0, 0)" d="M305.8,402.36768A3,3,0,1,1,311.8,402.36768A3,3,0,1,1,305.8,402.36768Z" id="point-1-14" opacity="1"/><path class="data-point" fill="#802392" data-type="point" transform="translate(0, 0)" d="M323.72,388.81440000000003A3,3,0,1,1,329.72,388.81440000000003A3,3,0,1,1,323.72,388.81440000000003Z" id="point-1-15" opacity="1"/><path class="data-point" fill="#802392" data-type="point" transform="translate(0, 0)" d="M341.64000000000004,376.96464000000003A3,3,0,1,1,347.64000000000004,376.96464000000003A3,3,0,1,1,341.64000000000004,376.96464000000003Z" id="point-1-16" opacity="1"/><path class="data-point" fill="#802392" data-type="point" transform="translate(0, 0)" d="M359.56,362.53152A3,3,0,1,1,365.56,362.53152A3,3,0,1,1,359.56,362.53152Z" id="point-1-17" opacity="1"/><path class="data-point" fill="#802392" data-type="point" transform="translate(0, 0)" d="M377.48,355.24944000000005A3,3,0,1,1,383.48,355.24944000000005A3,3,0,1,1,377.48,355.24944000000005Z" id="point-1-18" opacity="1"/><path class="data-point" fill="#802392" data-type="point" transform="translate(0, 0)" d="M395.40000000000003,346.90032A3,3,0,1,1,401.40000000000003,346.90032A3,3,0,1,1,395.40000000000003,346.90032Z" id="point-1-19" opacity="1"/><path class="data-point" fill="#802392" data-type="point" transform="translate(0, 0)" d="M413.32,335.51856A3,3,0,1,1,419.32,335.51856A3,3,0,1,1,413.32,335.51856Z" id="point-1-20" opacity="1"/><path class="data-point" fill="#802392" data-type="point" transform="translate(0, 0)" d="M431.24,327.95568000000003A3,3,0,1,1,437.24,327.95568000000003A3,3,0,1,1,431.24,327.95568000000003Z" id="point-1-21" opacity="1"/><path class="data-point" fill="#802392" data-type="point" transform="translate(0, 0)" d="M449.16,325.09152A3,3,0,1,1,455.16,325.09152A3,3,0,1,1,449.16,325.09152Z" id="point-1-22" opacity="1"/><path class="data-point" fill="#802392" data-type="point" transform="translate(0, 0)" d="M467.08,320.22432000000003A3,3,0,1,1,473.08,320.22432000000003A3,3,0,1,1,467.08,320.22432000000003Z" id="point-1-23" opacity="1"/><path class="data-point" fill="#802392" data-type="point" transform="translate(0, 0)" d="M485,314.53344000000004A3,3,0,1,1,491,314.53344000000004A3,3,0,1,1,485,314.53344000000004Z" id="point-1-24" opacity="1"/><path class="data-point" fill="#802392" data-type="point" transform="translate(0, 0)" d="M502.92,309.55392000000006A3,3,0,1,1,508.92,309.55392000000006A3,3,0,1,1,502.92,309.55392000000006Z" id="point-1-25" opacity="1"/><path class="data-point" fill="#802392" data-type="point" transform="translate(0, 0)" d="M520.84,303.78816A3,3,0,1,1,526.84,303.78816A3,3,0,1,1,520.84,303.78816Z" id="point-1-26" opacity="1"/><path class="data-point" fill="#802392" data-type="point" transform="translate(0, 0)" d="M538.76,297.79776A3,3,0,1,1,544.76,297.79776A3,3,0,1,1,538.76,297.79776Z" id="point-1-27" opacity="1"/><path class="data-point" fill="#802392" data-type="point" transform="translate(0, 0)" d="M556.68,293.15725920000006A3,3,0,1,1,562.68,293.15725920000006A3,3,0,1,1,556.68,293.15725920000006Z" id="point-1-28" opacity="1"/><path class="data-point" fill="#802392" data-type="point" transform="translate(0, 0)" d="M574.6,282.0881232A3,3,0,1,1,580.6,282.0881232A3,3,0,1,1,574.6,282.0881232Z" id="point-1-29" opacity="1"/><path class="data-point" fill="#802392" data-type="point" transform="translate(0, 0)" d="M592.52,270.56240640000004A3,3,0,1,1,598.52,270.56240640000004A3,3,0,1,1,592.52,270.56240640000004Z" id="point-1-30" opacity="1"/><path class="data-point" fill="#802392" data-type="point" transform="translate(0, 0)" d="M610.44,258.56157599999995A3,3,0,1,1,616.44,258.56157599999995A3,3,0,1,1,610.44,258.56157599999995Z" id="point-1-31" opacity="1"/><path class="data-point" fill="#802392" data-type="point" transform="translate(0, 0)" d="M628.36,246.0657888A3,3,0,1,1,634.36,246.0657888A3,3,0,1,1,628.36,246.0657888Z" id="point-1-32" opacity="1"/><path class="data-point" fill="#802392" data-type="point" transform="translate(0, 0)" d="M646.2800000000001,233.05464A3,3,0,1,1,652.2800000000001,233.05464A3,3,0,1,1,646.2800000000001,233.05464Z" id="point-1-33" opacity="1"/><path class="data-point" fill="#802392" data-type="point" transform="translate(0, 0)" d="M664.1999999999999,219.50716320000004A3,3,0,1,1,670.1999999999999,219.50716320000004A3,3,0,1,1,664.1999999999999,219.50716320000004Z" id="point-1-34" opacity="1"/><path class="data-point" fill="#802392" data-type="point" transform="translate(0, 0)" d="M682.12,205.40089440000003A3,3,0,1,1,688.12,205.40089440000003A3,3,0,1,1,682.12,205.40089440000003Z" id="point-1-35" opacity="1"/><path class="data-point" fill="#802392" data-type="point" transform="translate(0, 0)" d="M700.04,190.71318239999994A3,3,0,1,1,706.04,190.71318239999994A3,3,0,1,1,700.04,190.71318239999994Z" id="point-1-36" opacity="1"/><path class="data-point" fill="#802392" data-type="point" transform="translate(0, 0)" d="M717.96,175.41950400000002A3,3,0,1,1,723.96,175.41950400000002A3,3,0,1,1,717.96,175.41950400000002Z" id="point-1-37" opacity="1"/><path class="data-point" fill="#802392" data-type="point" transform="translate(0, 0)" d="M735.88,159.49552320000004A3,3,0,1,1,741.88,159.49552320000004A3,3,0,1,1,735.88,159.49552320000004Z" id="point-1-38" opacity="1"/><path class="data-point" fill="#802392" data-type="point" transform="translate(0, 0)" d="M753.8000000000001,142.91465760000006A3,3,0,1,1,759.8000000000001,142.91465760000006A3,3,0,1,1,753.8000000000001,142.91465760000006Z" id="point-1-39" opacity="1"/><path class="data-point" fill="#802392" data-type="point" transform="translate(0, 0)" d="M771.7199999999999,125.65013760000005A3,3,0,1,1,777.7199999999999,125.65013760000005A3,3,0,1,1,771.7199999999999,125.65013760000005Z" id="point-1-40" opacity="1"/><path class="data-point" fill="#802392" data-type="point" transform="translate(0, 0)" d="M789.64,107.67388320000003A3,3,0,1,1,795.64,107.67388320000003A3,3,0,1,1,789.64,107.67388320000003Z" id="point-1-41" opacity="1"/><path class="data-point" fill="#802392" data-type="point" transform="translate(0, 0)" d="M807.56,88.95631679999997A3,3,0,1,1,813.56,88.95631679999997A3,3,0,1,1,807.56,88.95631679999997Z" id="point-1-42" opacity="1"/><path class="data-point" fill="#802392" data-type="point" transform="translate(0, 0)" d="M825.48,69.46673759999999A3,3,0,1,1,831.48,69.46673759999999A3,3,0,1,1,825.48,69.46673759999999Z" id="point-1-43" opacity="1"/><path class="data-point" fill="#802392" data-type="point" transform="translate(0, 0)" d="M843.4,49.17369599999995A3,3,0,1,1,849.4,49.17369599999995A3,3,0,1,1,843.4,49.17369599999995Z" id="point-1-44" opacity="1"/><path class="data-point" fill="#802392" data-type="point" transform="translate(0, 0)" d="M861.32,28.04387040000006A3,3,0,1,1,867.32,28.04387040000006A3,3,0,1,1,861.32,28.04387040000006Z" id="point-1-45" opacity="1"/><path class="data-point" fill="#802392" data-type="point" transform="translate(0, 0)" d="M879.24,6.042628799999989A3,3,0,1,1,885.24,6.042628799999989A3,3,0,1,1,879.24,6.042628799999989Z" id="point-1-46" opacity="1"/></g></g><g id="data-labels"/><g class="annotations above"><g class="axis-highlights" transform="translate(15, 20)" style="opacity: 1;"/></g></svg>